<svg id="R6-Alibi" xmlns="http://www.w3.org/2000/svg" viewBox="0 0 317 308.67"><title>R6-Alibi</title><g id="Background"><rect x="43.4" y="41.84" width="235" height="235" style="fill:#fff"/><rect x="52.9" y="51.43" width="216" height="216" style="fill:#231f20"/><rect x="62.54" y="61.21" width="197" height="197" style="fill:#757e2c"/><path d="M234,61.21a59.39,59.39,0,0,1,3.63,12.91c2.34,13.93-.76,25.36-2.82,32.68a94.79,94.79,0,0,1-5.1,13.84L259.54,85V258.21h-197V88.53c6.83,7.77,14,15.63,21.16,23.48a87.08,87.08,0,0,1-5.4-17.76c-1.82-9.57-4.17-22,2.7-30.07a18,18,0,0,1,3.24-3C134.12,61.12,184.14,61.29,234,61.21Z" style="fill:#666e24"/><path d="M162.38,193.88a86.51,86.51,0,0,0-52.87,64.38h99.75a73.48,73.48,0,0,0-46.87-64.37Z" style="fill:#757e2c"/></g><g id="Kraken"><g id="KrakenMainBody"><path d="M126.7,36.47a2.42,2.42,0,0,0-.39.54S126.46,36.82,126.7,36.47Z" style="fill:#231f20"/><path d="M253,99.27c-.61,1.11-1.54,2.92-3.16,5.44-1.49,2.31-2.86,4.11-3.79,5.29a1.14,1.14,0,0,1-.19-.42,1.21,1.21,0,0,1,.13-.82L241.35,112l.29-1.69c-3.85,4.37-5.33,7.47-5.94,9.54a51.12,51.12,0,0,1-1.77,5.18c-.56,1.39-1.08,2.5-1.43,3.22a6.78,6.78,0,0,1-2.87.67,15.78,15.78,0,0,1-4,7.16,15.36,15.36,0,0,1-3.79,2.78l1.1-1.52h-3a7.26,7.26,0,0,1,1.18-2.59,29.69,29.69,0,0,0-7.16,4.11,44.66,44.66,0,0,0,3.69-7.52A45.59,45.59,0,0,0,220.45,114c-.08-3.33-.27-6-.42-7.73-.5-5.83-1.12-8.23-1.33-13.15a69.54,69.54,0,0,1,.06-7,1.83,1.83,0,0,0-2.61-.17,2.28,2.28,0,0,1-.29,1.5,2.11,2.11,0,0,1-.46.53q-.25-.57-.48-1.16a33.62,33.62,0,0,1-2.13-8.53,24,24,0,0,1-.42-6.91,6.42,6.42,0,0,1,1,1,7.1,7.1,0,0,1,1.07,2.21A13.64,13.64,0,0,1,215,79a18.57,18.57,0,0,0,.13-4.11A33,33,0,0,0,214,69.63c-1.12-4.67-1-4.44-1.26-5.25a52.05,52.05,0,0,0-2-5.56c-.17.23-.34.48-.51.76a10.55,10.55,0,0,0-.57,1.07,37.37,37.37,0,0,0-22.65-26.84l.84-1.94a18.8,18.8,0,0,0-4.87-5,18.19,18.19,0,0,0-1.79-1.1q-1-.06-2.06-.17c-.9-.09-1.76-.21-2.57-.34-1.34-.89-2.72-1.85-4.13-2.89q-1.82-1.35-3.46-2.68c.75.07,1.54.18,2.38.34a25,25,0,0,1,5.2,1.6c-1.49-1-3.16-2-5-2.93-1.45-.75-2.85-1.4-4.17-2a6.34,6.34,0,0,1,1-.51c1.13-.44,1.82-.34,1.85-.51s-2.2-1.08-4.89-1.64a22.16,22.16,0,0,0-5.31-.46,20,20,0,0,0-3.92.91,20.71,20.71,0,0,0-3.6,1.64c-3.54,2-7,4.16-8.66,5.25a2.74,2.74,0,0,1,.95,1.71c.1,1.18-.93,1.57-3.41,4.61-.85,1-1.9,1.91-2.72,3a2.08,2.08,0,0,1-1.26.95c-.69.1-.92-.43-1.52-.38-.79.06-1,1.14-2.09,2.34a7.6,7.6,0,0,1-2,1.58,9.53,9.53,0,0,1,6.45-7.71q.27-.81.57-1.64.37-1,.76-2a45.69,45.69,0,0,0-5.31,4,50.59,50.59,0,0,0-7.68,8.56A4.32,4.32,0,0,1,129,35.08a5.46,5.46,0,0,0-1.3,1.61,5.39,5.39,0,0,0-.44,1.14A39.57,39.57,0,0,0,111.05,59a13.69,13.69,0,0,1-1.9,5.31c-1.42,2.27-2.93,3.08-4.3,5.82a14.46,14.46,0,0,0-1.14,3.16,50.18,50.18,0,0,0-1.33,12.26L100.82,85a56.26,56.26,0,0,0-.25,13.72c.43,4,1.19,6.9,1.39,12.39a68.34,68.34,0,0,1-.13,7.27l-.88-.32a31.93,31.93,0,0,1,1.39,5.12c.88,4.79.31,8.06,1.64,10.87a21.66,21.66,0,0,0,1.71,3.22c.42.54,1,1.23.88,1.45s-.91-.31-1.64,0a1.6,1.6,0,0,0-.76.76l-8.24-5.39q-.76-1.72-1-1.64t-.13.56q-4-2.94-8.19-6.23a237,237,0,0,1-18.9-16.75l8,4.55a25.08,25.08,0,0,1-3-2.84c-2.58-2.92-3-4.81-4.8-7a15.52,15.52,0,0,0-6.41-4.49V259.13h86.68c.13-1.53.56-8.33-4.23-13.65a16.44,16.44,0,0,0-5.37-3.92,4.22,4.22,0,0,1,1.45,1.52,4.08,4.08,0,0,1,.38.95,28.3,28.3,0,0,0-6-3.1,19.07,19.07,0,0,0-6.13-1.45,16.69,16.69,0,0,0-6,.82,44.15,44.15,0,0,1,7.52-12.52,43.35,43.35,0,0,1,4-4.12c-.12.27-.24.57-.35.87a12.9,12.9,0,0,0-.72,3.24,57.59,57.59,0,0,1,4.8-6.19,40.67,40.67,0,0,1,3.92-4,30.29,30.29,0,0,1,6.83-4.64A27.09,27.09,0,0,1,160,210.33a28,28,0,0,1,11.38,2.53,34.74,34.74,0,0,1,7.8,4.68,39.35,39.35,0,0,1,4.49,4,4.4,4.4,0,0,0-1.26-3.41l1.45.95L185.7,218l-1.71-.25c-2.81-2.15-5.25-3.87-7.08-5.12a43.34,43.34,0,0,0-6.7-4,16.89,16.89,0,0,0-7.33-1.9,14.1,14.1,0,0,0-3,.34,5.9,5.9,0,0,0,.93,1.05q-1.2.06-2.44.08c-1.77,0-3.47,0-5.1,0l-.82-.67-.82-.63a30.39,30.39,0,0,0-3.48,1.58,25.24,25.24,0,0,0-7.46,5.5,32.77,32.77,0,0,1-3.79,4c-.55.47-1,.84-1.33,1.07l-.12.51a4.54,4.54,0,0,1-.07-1.15,4.78,4.78,0,0,1,.95-2.53,50.4,50.4,0,0,1,4.93-4.49,47,47,0,0,1,6-4.11c6-3.3,13.76-2.51,17-2,1.45.11,1.8,0,1.83-.13s-.4-.3-.7-.82a2,2,0,0,1-.25-.95,20.53,20.53,0,0,1,5.44.44c2.28.5,5.94,1.72,11.82,7a66.13,66.13,0,0,1,9.92,11.25c4.34,6,7.47,10.41,9.61,16.94.22.66.44,1.42.67,2.25a11.36,11.36,0,0,0-1.22-.49,11.74,11.74,0,0,0-3.08-.59,51.47,51.47,0,0,0-3.75-7.84,52.08,52.08,0,0,0-10.7-12.87,55.67,55.67,0,0,1,8.52,11,25.57,25.57,0,0,0-23.29,8.83,1.55,1.55,0,0,1-.19-.33,1.79,1.79,0,0,1,0-1.26,26.19,26.19,0,0,1,13.86-9,31,31,0,0,0-12.81,7,29,29,0,0,0-5.35,7.29c-.42.86-.72,1.61-.93,2.15q.55-.89,1.18-1.81t1.22-1.73c-.26.54-.64,1.34-1.1,2.32a58.66,58.66,0,0,0-3.2,7.63,24.08,24.08,0,0,0-1,6.57c0,.34.07.75.17.76.27,0,.6-3.26,1.05-5.44a24.33,24.33,0,0,1,4.38-9.44,26.06,26.06,0,0,1,5.56-6.28c.85-.69,5.84-4.75,11.71-5.49a51.46,51.46,0,0,0,5.1-.79c1.53-.32,2.77-.66,3.61-.91.49.84,1,1.7,1.44,2.6a54.55,54.55,0,0,1,3,7l-3.5-.17a13.31,13.31,0,0,0-5-1,13.84,13.84,0,0,0-8.17,2.82,14.45,14.45,0,0,1,11.17-1.43,14.62,14.62,0,0,0-5.44.59,14.27,14.27,0,0,0-3.16,1.43,12.32,12.32,0,0,0-3.29,2.74c-.78.94-.67,1.15-1.69,2.44-1.17,1.51-1.41,1.35-2.06,2.28a10.35,10.35,0,0,0-1.56,5.9,14.66,14.66,0,0,0,.17,2.74l10.79,0a3,3,0,0,1,0-1,3.07,3.07,0,0,1,.55-1.31l.55,1.43a6.2,6.2,0,0,0,.46-1.14,6.34,6.34,0,0,0,.21-2.53l2.06-1.94a5,5,0,0,1,.76,1.6,14,14,0,0,0-2.7,3.08,13.86,13.86,0,0,0-.93,1.69l1-.08a10.87,10.87,0,0,1,.59-1.39,11,11,0,0,1,2-2.78l.63.76a8.37,8.37,0,0,0-2.15,3.67l2.53,0a3.09,3.09,0,0,1,1.05-2.44,4.09,4.09,0,0,1,1.47,2.53l1.29.1c.85.07,1.08.11,1.32-.06s.23-.37.51-.8a3.23,3.23,0,0,1,.8-.84,7.68,7.68,0,0,0-1.81-3l0-1.77a10.39,10.39,0,0,1,3.12,3.33,6.42,6.42,0,0,0-1,1.52,1.33,1.33,0,0,1,.67,1.22H199a1.6,1.6,0,0,1,.55-.88.93.93,0,0,1,.29.38,1,1,0,0,1,0,.72l.88-.08c0-.3,0-.63,0-1a10.84,10.84,0,0,1,.34-2.23,3.84,3.84,0,0,1,.76-.8c.38-.3.66-.52,1-.46.11,0,.22.07.76.63l.55.59.08-1.73a49.37,49.37,0,0,1-.37,5.6h56.89V89.26A45.91,45.91,0,0,0,253,99.27Z" style="fill:#231f20"/><path d="M216,75.86A29.22,29.22,0,0,1,217.12,82c.06.85.09,1.65.08,2.42a1.44,1.44,0,0,1,.79,0,1.47,1.47,0,0,1,.79.7c0-.79-.1-1.61-.21-2.47a35.92,35.92,0,0,0-1.66-7.32,29.91,29.91,0,0,1,1,6.31c0,.66,0,1.29,0,1.9-.22-1.18-.49-2.41-.81-3.7C216.79,78.47,216.39,77.12,216,75.86Z" style="fill:#231f20"/><path d="M101.49,135.28l3.43,2.49.57-.1a43.6,43.6,0,0,1-3.54-2.89c-1.2-1.09-1.83-1.8-3.24-3-1-.83-1.81-1.46-2.36-1.85A23.78,23.78,0,0,0,90,127c2.18,1.64,4,3,5.27,3.88C97.38,132.36,98.57,133.18,101.49,135.28Z" style="fill:#231f20"/><path d="M100.14,101.91a1.58,1.58,0,0,0,.25-.51s-.15-1-.25-1.45a7.11,7.11,0,0,0-.82-2.09,12.14,12.14,0,0,0,0,4.61A1.64,1.64,0,0,0,100.14,101.91Z" style="fill:#231f20"/><path d="M108,58.25a66.29,66.29,0,0,0-6.87,24.95c.59-3.23,1.32-6.64,2.23-10.2A145.78,145.78,0,0,1,108,58.25Z" style="fill:#231f20"/><path d="M234.75,184.88c-3.46-2.65-7.06-5-14.25-9.75-3.76-2.47-8.75-5.69-14.75-9.37l7,.75c1.32-.81,3.38-2.11,5.88-3.75,7.79-5.13,14.53-9.57,21.63-16.37A94.94,94.94,0,0,0,249.63,136a87.65,87.65,0,0,0,10-16.5V103.25a178.64,178.64,0,0,1-20.5,28.63c-7.72,8.77-12.79,12.71-15.62,14.75a81.09,81.09,0,0,1-16.37,9.13,9.44,9.44,0,0,1-7.37.75,9.13,9.13,0,0,1-4.5-3.37,11,11,0,0,1-.25-8.62,10.76,10.76,0,0,1,4.75-5.25,9.25,9.25,0,0,0,5.38-1.25c.91-.57,3.59-2.51,5.13-12.62a68.08,68.08,0,0,0,.63-14.5,102.68,102.68,0,0,0-4.37-29.5,106.12,106.12,0,0,0-19.87-36.5c-4-4.73-7.17-7.41-13.5-12.75-7.5-6.33-10.25-7.5-13.12-7.37-2.62.11-4.77,1.27-10.12,5.75C143.26,36,140,38.8,135.13,44.63a102,102,0,0,0-15.75,24.25s-7.63,16.84-8.62,43.5a110.61,110.61,0,0,0,.63,11.88c0,.45.64,7.07,2.88,11a7.57,7.57,0,0,0,5.38,3.88,5.76,5.76,0,0,1,3,.25c2.9,1.09,4.76,4.78,4.63,9.25A8.7,8.7,0,0,1,126,153.5c-1.58,2.5-4.14,3.31-6.87,4.13a25.2,25.2,0,0,1-14.75.25c-3-.89-5.15-2.15-8.62-4.5a166.39,166.39,0,0,1-17.62-13.75c-4.45-4-10.07-9.27-16.37-15.75v12.88a108.65,108.65,0,0,0,32.5,28.75,104.63,104.63,0,0,0,12,5.88l9.5-7.37a96.81,96.81,0,0,1-11,14.38c-6.06,6.55-12.21,13.19-22.25,17.13a47,47,0,0,1-20.5,3v12.13a51.45,51.45,0,0,0,25.13-3.37,55.57,55.57,0,0,0,20.75-15.37c4.31-4.88,7.13-9.66,7.38-9.5S111.36,189,107.63,196c-5.07,9.47-9.17,17.16-11.37,27.75a85.9,85.9,0,0,0-1.62,18,105.62,105.62,0,0,0,1.25,16.63H107.5a83,83,0,0,1-.88-17.12c.43-8.16,1.15-21.77,10-34.75a56.87,56.87,0,0,1,25.63-20.25A50.81,50.81,0,0,0,127,211.13a45.88,45.88,0,0,1,18.63-13.37c7.4-2.81,13.65-2.84,20.75-2.87a93.36,93.36,0,0,1,23.88,3A48.05,48.05,0,0,0,180.38,185a55,55,0,0,1,21.88,15,55.91,55.91,0,0,1,12.63,25.5,62.82,62.82,0,0,1-1.5,32.88h12.75a66.79,66.79,0,0,0,3-31.62,69.64,69.64,0,0,0-8.62-24,84,84,0,0,0-18-22.5,70.91,70.91,0,0,1,20,8.38c9.09,5.62,12.29,10.61,21.88,15.13a55.44,55.44,0,0,0,15.25,4.63V199a44.64,44.64,0,0,1-13.25-5.13C242.08,191.35,241.23,189.84,234.75,184.88Z" style="fill:#fff"/><path d="M120.75,115.88a95.88,95.88,0,0,0,10.69,2.38c4.28.69,6.14.69,8.56,2.19s3.75,3.48,5.19,5.62a29.41,29.41,0,0,1,3.81,8.25,93.13,93.13,0,0,1-9.37-.25c-6-.46-7.43-1.14-8-1.44-2.92-1.5-4.38-3.87-6.62-7.5A42,42,0,0,1,120.75,115.88Z" style="fill:#231f20"/><path d="M172.38,134.44c4.17-11.19,9.37-13.91,11.88-14.75,1.65-.56,5.09-1.29,9-2.12,3-.65,5.53-1.12,7.25-1.44a33.24,33.24,0,0,1-3.81,8.88c-2.12,3.44-3.69,6-6.75,7.56-.72.37-2.07,1-11.44,1.56C176,134.29,173.84,134.38,172.38,134.44Z" style="fill:#231f20"/></g><g id="LeftTentancle"><path d="M43.38,213.56c-.58-.14-1.43-.35-2.44-.69C32.37,210,27.38,203.72,25,200.63c-3-3.87-9-11.68-8.94-23.06.07-14.1,9.38-23.25,11.31-25.06l-1.5-1a36.94,36.94,0,0,1,28.19-9.44v3.75a30.64,30.64,0,0,0-10.44.31c-12.88,2.65-19.5,12.91-20.37,14.31a32.48,32.48,0,0,0-4.5,21.25,34.41,34.41,0,0,0,4.38,11.87,40.84,40.84,0,0,0,7.75,9.87,42.92,42.92,0,0,1-6.94-9.62,35.07,35.07,0,0,1-4.5-14.31,32.12,32.12,0,0,1,2.12-14.25A30.42,30.42,0,0,1,54,146.81L54.06,162a8.4,8.4,0,0,0-7.06-.5,7.82,7.82,0,0,0-3.5,3Z" style="fill:#231f20"/><path d="M43.38,215.37A37,37,0,0,1,35.46,212a40.79,40.79,0,0,1-7.71-5.87,41.76,41.76,0,0,1-9.42-12.92,39.25,39.25,0,0,1-3.42-12c-1.57-15.19,9-27.74,8.92-27.79a37.19,37.19,0,0,0-9.29,22.21,39,39,0,0,0,6.33,23.83,40.18,40.18,0,0,0,8.38,9.33,40.79,40.79,0,0,0,14.13,7.46Z" style="fill:#231f20"/><path d="M72.5,167.67a35.5,35.5,0,0,0-4.67-7.42c-1.72-2.1-6-7.38-12.17-9.5-8.92-3.09-19,1.44-24.92,7-11,10.29-8.67,25.08-8.5,26.08,2.38,13.84,13.8,20.29,15.25,21.08V194.33A20.7,20.7,0,0,1,33.83,190a21.47,21.47,0,0,1-3.25-11c-.21-9.38,6-15.83,8-17.75s5.28-5,10.5-5.75c5.61-.84,10,1.53,13.25,3.25A30.42,30.42,0,0,1,72.5,167.67Z" style="fill:#fff"/></g><g id="BottomLeftTentacle"><path d="M143.25,286.75A25.1,25.1,0,0,0,151,275.67a24.1,24.1,0,0,0,1.25-8.5h-25a10.84,10.84,0,0,1-9.75,9.71h-27a39,39,0,0,0,18.12,16A37.41,37.41,0,0,0,122,295.75l-.17-2.25C124.51,293.66,134.89,294,143.25,286.75Zm1.75-6.29c.34-.25.65-.51.92-.75a3.69,3.69,0,0,1-1.33,1.71l-.79-.17A12.45,12.45,0,0,0,145,280.46Zm-30.58,10.29a30.3,30.3,0,0,1-9.42-4.29l.71-.21a30.84,30.84,0,0,0,10.88,4.38,32.08,32.08,0,0,0,19.79-2.75A28.74,28.74,0,0,1,128.5,291,29.81,29.81,0,0,1,114.42,290.75Z" style="fill:#231f20"/><path d="M152.56,276.88a37,37,0,0,1-18.69,16.64,37.76,37.76,0,0,0,16.44-11.89,34.49,34.49,0,0,0,3.12-4.81Z" style="fill:#231f20"/><path d="M133.87,293.52a47.67,47.67,0,0,1-5.18,1.67A37.53,37.53,0,0,0,133.87,293.52Z" style="fill:#231f20"/><path d="M137.25,250.83a16.33,16.33,0,0,0-8.58-3.33,14,14,0,0,0-12.42,9.33,13.72,13.72,0,0,1,5.67-3.33c1.43-.42,6.23-1.82,10.08,1.17a10.35,10.35,0,0,1,3.58,9.75,22,22,0,0,1-7.33,14.75c-7.69,6.64-17.07,5-18.25,4.75a22.42,22.42,0,0,0,13.25,3.83,20.72,20.72,0,0,0,20.17-21.17C143.5,265.76,144.25,256.35,137.25,250.83Z" style="fill:#fff"/></g><g id="BottomRightTentacle"><path d="M227.06,276.88a8.2,8.2,0,0,1-2.72,3.31,15.76,15.76,0,0,0,2.22-3.31H198.77a15.73,15.73,0,0,1-5.24-10.25l-27.07,0a24.06,24.06,0,0,0,1.67,10.21q-1.42.36-1.42.37h0a38.48,38.48,0,0,0,4.17,5.75c1,1.1,11.54,12.8,26.37,12.92h0a36.21,36.21,0,0,0,25.83-11.42l1.67,1.63,7.29-9.25Zm-44.44,12.75a31.7,31.7,0,0,1-12.5-11.94,36.15,36.15,0,0,0,12.13,10.69,36.92,36.92,0,0,0,22.38,3.94A32.31,32.31,0,0,1,182.63,289.63Z" style="fill:#231f20"/><path d="M192.94,296.75c-18.05-2.66-26.67-18.09-27.62-19.87h-.83c.81,1.57,9.78,18.23,28.65,20.56a37.55,37.55,0,0,0,25.25-6.31A37.82,37.82,0,0,1,192.94,296.75Z" style="fill:#231f20"/><path d="M191.42,276.5a23.29,23.29,0,0,1-7-15.83c.07-4.15,1.85-7.89,4.92-9.42s6.74-.38,9.17.42a19,19,0,0,1,4.75,2.33,15.18,15.18,0,0,0-6.83-7.25,13.76,13.76,0,0,0-10.25-1.17c-5.16,1.59-7.47,6.08-8.33,7.75a19.77,19.77,0,0,0-1.75,11.25c.3,3.79.92,11.69,7.42,17.17,5.93,5,14.9,6.43,21.33,3.17a15.07,15.07,0,0,0,3.08-2.08A23.33,23.33,0,0,1,191.42,276.5Z" style="fill:#fff"/></g><g id="RightTentactle"><path d="M296.38,177.42a35.67,35.67,0,0,0-10.79-23.5.72.72,0,0,1-.08-.54.76.76,0,0,1,.5-.5,35.47,35.47,0,0,0-20.33-10l-.29,19.33a11.06,11.06,0,0,1,4.67,1.46c3.27,1.93,4.57,5.18,6.13,9.25a38.85,38.85,0,0,1,2.24,8.9q0,15.13,0,30.27l6.73-5.62v-1.71C286.67,203.31,297.14,193.2,296.38,177.42Zm-4.5,12.83a30.07,30.07,0,0,1-6.75,10.83A38.84,38.84,0,0,0,293.54,178,30.07,30.07,0,0,1,291.88,190.25Z" style="fill:#231f20"/><path d="M288.25,154.63c2.36,2.66,9.59,11.45,9.81,24.31.37,21.22-18.65,33.23-19.64,33.83,1.21-.8,19.94-13.62,19.08-35A38.87,38.87,0,0,0,288.25,154.63Z" style="fill:#231f20"/><path d="M292.42,174.75c-1.73-11.29-10.81-19-19.67-21.67a29.67,29.67,0,0,0-19.42,1c1.54-.35,11.67-2.49,20.83,4.17a26,26,0,0,1,10,15.75c.46,3.16.84,6.56,1.08,10.17.31,4.57.36,8.84.25,12.75C286.67,195.6,294.26,186.77,292.42,174.75Z" style="fill:#fff"/></g><g id="SmallGreenParts"><path d="M206.63,146.49a4.8,4.8,0,0,1,.79.47,4.93,4.93,0,0,1,1.36,1.55l-4.3,3a11.11,11.11,0,0,1,2.15-5.06Z" style="fill:#707728"/><path d="M203.5,148.48a1,1,0,0,1,.7.19,1,1,0,0,1,.28.35,3,3,0,0,1-1.17,1.52,3.59,3.59,0,0,1,.19-2.05Z" style="fill:#707728"/><path d="M194.74,148.48a16.26,16.26,0,0,1,2.94,2.34,8.53,8.53,0,0,1,0,2.94,5.86,5.86,0,0,1-2.94-5.28Z" style="fill:#707728"/><path d="M212.78,120.49a19.93,19.93,0,0,1,.47,3.43,12.63,12.63,0,0,1,0,1.92,11.12,11.12,0,0,1-1.83,4.75,22,22,0,0,1-2.39,3.35c.71-2,1.41-4.14,2.06-6.43C211.78,125,212.33,122.69,212.78,120.49Z" style="fill:#707728"/><path d="M215,115.35l.34.42.55.67c-.11.71-.26,1.47-.46,2.28A24.1,24.1,0,0,1,214,122.6a32.63,32.63,0,0,1,.42-4.76C214.61,117,214.78,116.12,215,115.35Z" style="fill:#707728"/><path d="M217.08,103.25a2.19,2.19,0,0,1,1.22.84l-.1.89-.28,2.48a13.86,13.86,0,0,1-.84-4.21Z" style="fill:#707728"/><path d="M217.2,95.75a8.79,8.79,0,0,1,1.57,2.57,6.13,6.13,0,0,1,0,2.53,6,6,0,0,1-.46,1.39,43.68,43.68,0,0,1-.88-4.42Q217.3,96.76,217.2,95.75Z" style="fill:#707728"/><polygon points="61.54 106.79 64.85 110.27 61.54 107.81 61.54 106.79" style="fill:#636b24"/><path d="M123,258l-.44-2.09a6,6,0,0,1,5.94,1l-.44,1.17Z" style="fill:#666e24"/><path d="M128.82,252.49l2.05,3.48v-1.14l1.49.13a6.69,6.69,0,0,0-1.14-1.2A6.78,6.78,0,0,0,128.82,252.49Z" style="fill:#666e24"/></g></g></svg>