<svg xmlns="http://www.w3.org/2000/svg" viewBox="0 0 317 308.67"><title>R6-Maestro</title><g style="isolation:isolate"><g id="R6-Maestro"><g id="Background"><rect x="44.84" y="42.28" width="234" height="234" style="fill:#fff"/><rect x="54.5" y="52.5" width="215" height="215" style="fill:#231f20"/><rect x="63.5" y="62" width="196" height="196" style="fill:#666e24"/><g id="SmallerBackgroundParts"><path d="M76.17,151.58l-.46-2.37a33.6,33.6,0,0,0-4.12.54,34.14,34.14,0,0,0-9.79,3.54c3.44-.41,6.08-.72,7.75-.87a8.78,8.78,0,0,0,2.88-.54A10,10,0,0,1,76.17,151.58Z" style="fill:#231f20"/><polygon points="77.96 150.29 79.83 149.58 80.13 150.92 77.96 150.29" style="fill:#231f20"/><polygon points="65.79 185.13 62.63 187.33 63.04 186.5 65.79 185.13" style="fill:#231f20"/><path d="M71.71,200c-.12.08-1.42,1.5-1.42,1.5l1.46-1Z" style="fill:#231f20"/><polygon points="83.17 204.92 81.67 205.38 83.25 205.75 83.17 204.92" style="fill:#231f20"/><path d="M61.63,220.08a27.29,27.29,0,0,1,3.21-.33c2.31-.1,3,.16,4.33-.25,1-.31,1.13-.64,3-1.87a40,40,0,0,1,4.5-2.62c2.24-1.14,3.57-1.81,5.5-2a10.69,10.69,0,0,1,2.42,0l4.25-3.67,2.42,6.13a8.69,8.69,0,0,0-7.58,1.25A16.83,16.83,0,0,0,80,217a19,19,0,0,0-8.71,4A6.88,6.88,0,0,1,70,222a7.15,7.15,0,0,1-2.67.88,9,9,0,0,0-3.25.25,19.45,19.45,0,0,0-2.13.75h0S61.93,223,61.63,220.08Z" style="fill:#231f20"/><path d="M62.42,224.88c1.15-.47,2-.78,2.63-1a3.07,3.07,0,0,0,1.21-.67,2.81,2.81,0,0,0,.71-1.12l1,.5a6.16,6.16,0,0,1-1.21,1.29A5.35,5.35,0,0,1,64.67,225c-.74.18-1.17.08-1.54.46a1.48,1.48,0,0,0-.37.92Z" style="fill:#231f20"/><polygon points="67.67 224.63 68.46 224.79 68.67 223.92 67.67 224.63" style="fill:#231f20"/><polygon points="71.38 222.92 71.46 221.96 72.04 222.38 71.38 222.92" style="fill:#231f20"/><polygon points="79.96 226.54 81.63 225.88 81.58 226.29 81.08 226.75 79.96 226.54" style="fill:#231f20"/><polygon points="85.46 232.42 86.58 231.17 86.88 231.83 85.46 232.42" style="fill:#231f20"/><path d="M82.38,235.13a21.48,21.48,0,0,1,1.42-1.75l.13.83Z" style="fill:#231f20"/><polygon points="81.71 235.96 80.71 236.38 81.46 235.63 81.71 235.96" style="fill:#231f20"/><polygon points="76.33 239.71 75.42 239.79 75.46 240.46 76.33 239.71" style="fill:#231f20"/><path d="M62.38,232.88a5.88,5.88,0,0,1,.54-.37,6,6,0,0,1,1.71-.71,2.53,2.53,0,0,1-1.17,2.13c1.19-.7,2.14-1.33,2.79-1.79a13.44,13.44,0,0,1,4.29-2.25c.28-.07.75-.16,1,.08s.08,1,0,1.29c-.53,1.59-2,2.49-4.5,4.33-.55.41-1.37,1-2.37,1.83l.46,1a7.28,7.28,0,0,1-2.5,2.17,6.86,6.86,0,0,1-.75.33Z" style="fill:#231f20"/><path d="M61.08,249c.44-.39,1.09-1,1.92-1.58a39.21,39.21,0,0,1,8.92-5c4.3-1.79,4.84-1.36,6.79-2.83,1.71-1.29,1.58-1.82,3.79-3.58,2.73-2.18,3.36-1.7,5.29-3.5s1.75-2.67,3.71-4.62a16.09,16.09,0,0,1,4.29-3l11.67,24.29a17.76,17.76,0,0,0-2.92.54c-2,.55-2.68,1.11-6.5,3.21s-4.77,2.43-6.08,3.87a12.34,12.34,0,0,0-1.67,2.33L83,258.83l7-7.67-15.67,7.63H67.25c.45-.6.95-1.21,1.5-1.83a29.43,29.43,0,0,1,5-4.5,18.69,18.69,0,0,0-10.42,6L59.58,258Z" style="fill:#231f20"/><polygon points="93.75 196.81 94.5 200.44 92.34 203.34 90 200.72 93.75 196.81" style="fill:#231f20"/><path d="M91.31,196.72a14.5,14.5,0,0,1,4-2.59l.31.88L94,196.28c-.29,0-.6,0-.94.06A9.48,9.48,0,0,0,91.31,196.72Z" style="fill:#231f20"/><path d="M89.09,184l-1.53.22A7.44,7.44,0,0,0,91.44,187Z" style="fill:#231f20"/><path d="M246.38,66.25c.42-.33,1.11-.08,1.48.24a1.51,1.51,0,0,1,.45.76,1.25,1.25,0,0,1-.38.8,1.32,1.32,0,0,1-1.12.29,1.56,1.56,0,0,1-.71-1C246.09,67.26,246,66.58,246.38,66.25Z" style="fill:#231f20"/><path d="M250.28,81a1.38,1.38,0,0,1,1.06.75,1.44,1.44,0,0,1-.27.65.8.8,0,0,1-1.54-.19.92.92,0,0,1-.08-.81C249.66,81,250.24,81,250.28,81Z" style="fill:#231f20"/><path d="M254.16,79.29a1,1,0,0,0,.12.87,1,1,0,0,0,.69.42.45.45,0,0,0,.39-.24.46.46,0,0,0,0-.38,1,1,0,0,0-.36-.51A1.09,1.09,0,0,0,254.16,79.29Z" style="fill:#231f20"/><path d="M247.1,85.63a2.73,2.73,0,0,0-.1,1,7.37,7.37,0,0,0,.38,1.29c.15.52.19.71.35,1.19.08.24.16.43.21.56a.91.91,0,0,0,.27-.71,8.3,8.3,0,0,0-1.1-3.33Z" style="fill:#231f20"/><path d="M241.38,94.56l8.13.69c.1-.34.23-.69.38-1.06a14.8,14.8,0,0,1,.75-1.6,7.38,7.38,0,0,1,2.21.08,12,12,0,0,1,4,1.94,29.77,29.77,0,0,0,3.79,1.88l.42,25.77-14.62,1.06Z" style="fill:#231f20"/><polygon points="252.56 90.29 252.65 91.23 252.98 90.65 252.56 90.29" style="fill:#231f20"/></g></g><g id="Helmet"><path d="M162.33,37.08a75,75,0,0,0-50.67,17.08C106.82,58,92.77,69.45,85.08,89.42c-3.22,8.36-4.18,15.24-5.25,22.92-1.52,10.87-1.31,18.89-1.08,27.33a198.09,198.09,0,0,0,5.75,38.08,11.6,11.6,0,0,0,.92,2.5,13.59,13.59,0,0,0,2.5,3.33c1.29,1.38,2.49,2.85,3.83,4.17,1.78,1.75,4.55,4.59,9,9.5l.92,3.75a4.1,4.1,0,0,0-3.08,1.92,3.66,3.66,0,0,0-.42,2.08L76,190.17c11.23,25,19.34,43,21.08,46.92.31.7,1.26,2.85,2.67,5.67,1,2.05,1.92,3.7,2.5,4.75q4.21,5.85,8.42,11.75l4.88,6.86q4.44,6.58,9,13.22,8.87,12.82,17.75,25l4.83-43.75H178.5L182.83,304l46.08-64.75c4.93-13.91,28.09-81.64,15.92-133.67C243,97.83,239.65,84.07,229.08,70c-3.83-5.1-17.15-22.33-41.5-29.67A78.31,78.31,0,0,0,162.33,37.08Z" style="fill:#231f20"/><path d="M152.5,46.67a55.14,55.14,0,0,0-15.83,3.5c-10,3.84-16.16,9.61-21.08,14.33A79.56,79.56,0,0,0,95,95.42c-3.32,9.25-4,16.81-4.58,23.42-.92,10.34-.21,18.46.67,28.5.3,3.45.1.21,2.5,17.75.63,4.57,1.08,8,3.17,12.08a45.46,45.46,0,0,0,4.25,6.5,68.59,68.59,0,0,0,5.92,6.92c2.89,3,5.49,11.12,3.92,33.58L97,214.83l11.25,25.5,27.63,36.85,5.88-69.81a41.06,41.06,0,0,0-9.58-13.79,29.11,29.11,0,0,0-10.83-7,26.79,26.79,0,0,0-8.58-1.46l-12.62-51.5,17.19,14.75,30.31,6.06v26.5l13.69,5.81,16.31-6,0-26,29.85-6.1,17.44-14.87-8.12,34.81,9.44-8L215,175.75l-1.81,7,7.25-2.31-32.25,26.25,7.75-.75-12.31,8.44a34.47,34.47,0,0,0-.44,8.25c.34,5.22,1.76,14.51,1.87,15.25,1.25,8.2.73,8,1.94,15.38.78,4.73,1.61,8.55,2.19,11l-1,.13,1.06,9.94,28-34.69-3.31-34.81a29.93,29.93,0,0,1,.63-6.44,24.06,24.06,0,0,1,1.06-3.81c1.35-3.52,3.26-4.92,6.69-9.06,1-1.25,2.52-3.13,4.19-5.56a19.29,19.29,0,0,0,2.31-3.44,20.92,20.92,0,0,0,2.25-8.25c.92-9.91,3.18-10.85,3.87-22.06.16-2.56.13-4.91.06-9.5-.19-13.55-.29-20.33-1.31-26.56A84.08,84.08,0,0,0,225.44,85a80,80,0,0,0-11.75-16.5c-4.31-4.68-10.81-11.61-21.56-16.56a60.15,60.15,0,0,0-19.21-5.19c-1.53,5.93-3.52,14.53-5.17,25C165.44,86.44,165,97.5,164.31,119c-.86,25.48-1.4,42.11-1.62,49-.85-22.7-1.43-39.3-1.75-48.56-.74-21.63-1.06-32.14-3.31-47.12C156,61.39,154,52.52,152.5,46.67Z" style="fill:#fff"/><g id="Layer_5" data-name="Layer 5"><path d="M162.94,43.88l10.94-.42c-2,7.23-3.46,13.67-4.5,19-.83,4.26-2.22,12.08-3.21,21.88-.65,6.48-.94,12-1.17,16.25s-.34,7.67-.42,10.25l5.75,27a14.72,14.72,0,0,0,5.79,8.92,14.21,14.21,0,0,0,7,2.48,39,39,0,0,0,9.17-1.85,39.49,39.49,0,0,0,13.38-7.62c1.09-1.32,3-3.63,5.21-6.58,7.34-9.7,8.49-13.08,14.63-20.37.94-1.12,3.46-4.07,6.75-7.67,1.7-1.86,3.15-3.39,4.17-4.46a161.56,161.56,0,0,1,5.52,36.31L234.42,175a17.43,17.43,0,0,1-1.92,6.13,16.87,16.87,0,0,1-1.79,2.71c-1.78,2.18-3.46,3.07-5.75,4.67a50.82,50.82,0,0,0-5.4,4.35q0,6.37-.23,12.94c-.34,11.54-1,22.66-2,33.33l-.12,7.17-30.83,34.38L176.88,212l28-24.37L194,168.5l-31.44,26.63Z" style="fill:#848414;opacity:0.25;mix-blend-mode:multiply"/></g></g><g id="Smoke"><g id="Layer_8" data-name="Layer 8"><path d="M236,184.56l4.63,6.35-14.25,24.42-3.58-13.08,1.4-4.77,6.48-4.54-2.87.48Z" style="fill:#727929"/></g><path d="M163.63,247.38c4-2.74,7.47-5,10-6.56,9.16-5.81,12.47-7.38,14.81-8.37a66.3,66.3,0,0,1,7.56-2.69,8.59,8.59,0,0,1,6.88-7.37L202,217a4.51,4.51,0,0,0,2.63-1.25c.73-.77.77-1.49,1.38-2.69a12,12,0,0,1,2.25-2.87c3.58-3.82,5.37-5.72,7.44-6.81a16.5,16.5,0,0,1,5.69-1.75l1.88.19a10.62,10.62,0,0,1,3.31,2.19c1.21,1.18,1.3,1.87,1.81,1.88.87,0,1.55-2,4-9.5.76-2.33,1.15-3.53,2.25-4.87a10.91,10.91,0,0,1,4-3,14.46,14.46,0,0,0-1.56-7.69,114.69,114.69,0,0,0-6.25-10.25c-3.24-5-5.66-8.76-5.37-13.44.19-3.2,1.56-5.5,3.37-8.56,2.29-3.86,4-4.95,8.25-9.94,1.55-1.83,3.64-4.44,5.94-7.75a22.68,22.68,0,0,1,2-7.62,18.82,18.82,0,0,1,7.88-9.12,17.53,17.53,0,0,1,9-2.12c31.92,27.8,37.26,38.79,34.75,43.25-1.11,2-5.26,5.32-9.25,4.88-1.3-.14-3.41-1.3-7.62-3.62s-4.55-2.75-5.87-2.75c-3,0-3.77,2.44-7,3s-5.87-1.17-7-1.87c-7.58-4.75-7.16-17.64-8-17.62s-1.62,10.72-2.12,54c4.19-8.9,11.32-12.64,15.38-10.87a7.75,7.75,0,0,1,4,8.38c-1.4,5-9.37,4-13.25,9.75-1.79,2.63-3,7.07-.5,15L259,210a33.45,33.45,0,0,0,5.5-6.06c1-1.52,1.49-2.3,1.38-3.19-.25-1.9-2.57-2.58-2.62-4.5a3.11,3.11,0,0,1,.7-1.92,4.51,4.51,0,0,1,3.37-1.83c3,.2,4.62,5.68,4.94,6.75,2.14,7.27-.86,14.29-3.5,20.25a60.83,60.83,0,0,1-6.56,11.31l-1.1,18.94a23.05,23.05,0,0,1-11,3.79c-6.64.44-11.83-2.3-14.33-3.62a31.59,31.59,0,0,1-3.46-2.12,10.2,10.2,0,0,1-6,1.21c-2.39-.3-4.13-1.49-6-2.75a39.81,39.81,0,0,1-3.87-3.17c-1.91-1.69-2.76-2.64-4.46-3.08a6,6,0,0,0-2.42-.17c-2.45.36-3.23,2.23-5.17,3.25-1.21.64-3.22,1.14-6.58.08a7.14,7.14,0,0,0-5.08-1.5,24.23,24.23,0,0,0-3.83,1.33l-3.08,1.08c-3.4,1.19-7.8,1.6-12.17,2.08C171.37,246.41,167.95,246.8,163.63,247.38Z" style="fill:#708035"/><polygon points="234.58 231.25 233.33 230.75 235.46 233.13 234.58 231.25" style="fill:#2f2b2c"/><polygon points="234.25 235.75 235.29 235.92 232.67 234.08 234.25 235.75" style="fill:#2f2b2c"/><path d="M246.75,226.63c.77-1.33,2.47-2.94,6.63-3.92a8.52,8.52,0,0,0-4.62,1.38c-1.27.86-1.72,1.76-4,4.54-1,1.22-1.85,2.2-2.42,2.83a10.28,10.28,0,0,0,2-1.5A12,12,0,0,0,246.75,226.63Z" style="fill:#2f2b2c"/><path d="M240.75,176.13l-2.11-4a3.83,3.83,0,0,1,.36,2,3.55,3.55,0,0,1-.08.5Z" style="fill:#2f2b2c"/><path d="M238.64,172.09a5.22,5.22,0,0,0-.31-.59Z" style="fill:#2f2b2c"/><path d="M235,168.82l.38.43Z" style="fill:#2f2b2c"/><path d="M234.88,168.73l.07.09Z" style="fill:#2f2b2c"/><path d="M289,201.13c-.51-.07-.13-2.52-1-4.71a9.08,9.08,0,0,0-5-4.5l-.87,0c-1.57-1.1-2-1.53-2-1.62.19-.33,5.84,2.61,5.88,2.54s-10-5.25-9.62-6c.08-.18.64,0,.79-.29.27-.49-1.14-1.78-2.42-2.83l-2.46.75,3.42,3.42a.94.94,0,0,0-.33.58c-.09.92,1.76,1.55,4.88,3.46,2.09,1.28,1.77,1.31,3.21,2.08,1.85,1,3.76,1.68,3.67,2.08,0,.15-.31.1-.5.33-.4.49.21,1.54.54,2.25.53,1.15.55,2.83.58,6.17a2.72,2.72,0,0,1-.58,2,2,2,0,0,1-.83.5c-.08,1.3-.09,2.38-.08,3.13,0,2.26,0,3.39.13,4.08.17,1.29.45,2.28-.12,3-.2.25-.45.4-.5.75-.08.54.43.78.5,1.42,0,.21,0,.38-.46,1.33a11.46,11.46,0,0,0-1,2,4.08,4.08,0,0,0,.29,1.88c.17.85,0,2.15-1.42,4a8,8,0,0,0,2.42-3.92,15,15,0,0,0,.38-2.21,5.18,5.18,0,0,1,.25-2,5.62,5.62,0,0,1,.75-1.08c.21-.32.42-.82.25-3.21s-.44-3-.08-4.21c.1-.34.11-.27.33-1a10.83,10.83,0,0,0,.67-2.92c-.13,0-.86,2.43-1.08,2.38s.23-3,1-7.33c.16-.31.39-.75.63-1.29a10.7,10.7,0,0,0,1-3.21C290.14,199,289.53,201.19,289,201.13Z" style="fill:#231f20"/><path d="M279.17,231.88a29.05,29.05,0,0,1-3.92,2.63,13.3,13.3,0,0,0,7.75-6.29A29.05,29.05,0,0,1,279.17,231.88Z" style="fill:#2f2b2c"/><path d="M271,237.25a6.43,6.43,0,0,0-1.08,2.67l2.46-4.08A6.36,6.36,0,0,0,271,237.25Z" style="fill:#2f2b2c"/><path d="M307.21,137.38c-1.11-2.19-2.58-2.8-5.6-5.4a34.2,34.2,0,0,1-3.92-3.92c-1.94-2.29-2.14-3.17-2.21-3.58-.16-1,.07-1.47-.1-3.73a8,8,0,0,0-.25-1.81,5.27,5.27,0,0,0-2.54-2.81l1.31,1.69a4.29,4.29,0,0,1-.75,0,5.15,5.15,0,0,1-2.5-.92,10.07,10.07,0,0,0-4.92-1.73c-1.23,0-1.28.39-2.46.33a6.73,6.73,0,0,1-3.75-1.6c-1.43-1.07-4-2.22-9-2.37a16.39,16.39,0,0,0-8.69.69c-4.16,1.55-6.51,4.5-8.69,7.25a17.36,17.36,0,0,0-3.44,5.88A15.25,15.25,0,0,0,249,130c-1,1.54-2.61,3.78-4.65,6.39-1.8,2.31-3.69,4.58-6.42,7.83-4,4.76-5.12,6-6.08,8.58a15.67,15.67,0,0,0-1.08,5.21,16.35,16.35,0,0,0,4.13,10.69,15.62,15.62,0,0,1-2.09-17c.37-.76.71-1.31,3.63-5,3-3.81,4.57-5.71,7.08-8.58,1.47-1.68,3.36-3.79,5.6-6.16,0,.17,0,.34.07.49-2.3,2.91-4.22,5.26-5.58,6.9-4.54,5.45-6.81,8.18-7.19,8.58a15.39,15.39,0,0,0-1.75,2.13,16.48,16.48,0,0,0-2.37,6.52c-.4,3.53,1.94,7.13,6.63,14.19,3.09,4.66,4.7,6.39,5.9,10.29a24.9,24.9,0,0,1,1,5.81,5.17,5.17,0,0,1-.46,2.27c-.76,1.64-2.08,2-3.4,3.06-1.51,1.25-2.18,3.08-3.52,6.73-1.09,3-.74,3.22-1.77,5.56-.51,1.16-2.38,5.41-4,5.19-.54-.07-.66-.56-2.56-2.81-.6-.72-1.11-1.29-1.44-1.65l1.44-3.37-2.56,2.21.44,1-1-.06a11.83,11.83,0,0,0-3.87.21c-4.56,1-7.28,4.59-8.75,6.52a22.51,22.51,0,0,0-2.75,4.71c-.41.32-1,.83-1.75,1.48-1,.91-1.4,1.33-1.85,1.73a9.2,9.2,0,0,1-3.73,1.9l10.35-1.79q-.86.63-1.81,1.27c-1.23.82-2.42,1.53-3.56,2.15a12.65,12.65,0,0,0,4-1.52c1.15-.69,1.13-.93,2.48-1.75,2-1.2,2.68-1.09,4-2.1a8.25,8.25,0,0,0,1.94-2.19,25.6,25.6,0,0,1,5.69,6.56c1.85,3.1,2.11,5.13,4.4,6.31a10.54,10.54,0,0,0,5.08.79,7,7,0,0,0,3.71-.83,5.89,5.89,0,0,0,.9-.65c1.91-1.62,3.37-2.2,6.94-4.69.84-.59.43-.32,4.46-3.31l4.38-3.23a9.28,9.28,0,0,0,.17-3,9.47,9.47,0,0,0-1.71-4.46c-.52-.79-.52-1.14-.4-1.31s.29-.15.73-.29a5.83,5.83,0,0,0,.94-.4l-1.58-.19a12.52,12.52,0,0,1,4.65-7.1l.08,7.92a20,20,0,0,0,3.88-3.83c1.37-1.79,2.34-3.1,2-4.62a4,4,0,0,0-1.65-2.37l3.1-4.71a17.1,17.1,0,0,1,3.81,5.42,5.86,5.86,0,0,1,.67,2.85,6.5,6.5,0,0,1-1.77,3.67c-.85,1.07-1.09,1-4.19,3.88a20.23,20.23,0,0,0-2.19,2.19,28.28,28.28,0,0,0-1.87,2.81c-1.61,2.39-2.07,2-3.25,3.88s-.94,2.76-2.17,4a6.84,6.84,0,0,1-2.69,1.68l1.9-.17,2-1.61-1.57,4.43h-5.42c-3.1,2.64-5.46,4.8-7.07,6.32,0,0-1.33,1.25-3.59,3-3.26,2.47-4.39,2.77-5.34,2.53a3.44,3.44,0,0,1-1.91-1.47l-.44-1.12-4.15-3.89.68-1-1.09-.84-.53.28-3.14-4.26a2.35,2.35,0,0,1-1.75,1.17l-.75-1.5a9.25,9.25,0,0,1-4.27,2c-1.85.32-3-.07-6.31-.31-1.83-.14-3.31-.15-4.25-.14a5.75,5.75,0,0,0-4.5,4.82v3.38a10.74,10.74,0,0,0-5.81.11c-.93.3-1.67.72-3.25,1.16a20,20,0,0,1-3.34.63l1.53-1.37c-4.78,2.61-6.16,3.83-6.28,4.44a2.54,2.54,0,0,1-.42,1,2.63,2.63,0,0,1-.8.73,12.4,12.4,0,0,0-2.37,1.77,10.24,10.24,0,0,0,3.06-1.15,2.87,2.87,0,0,1,1.19-.39,7,7,0,0,1,1.41.22c.66,0,1-.27,1.91-.75a19,19,0,0,1,3.5-1.37c.5-.16,2.17-.71,2.25-.53s-1.22.8-3.09,1.91c-1.56.92-2.82,1.75-3.69,2.34l10.91-4.72c.81.19,7.76,1.78,10,.56,1-.52,1.59-.94,1.59-.94a16.42,16.42,0,0,1,2.19-1.47,4.48,4.48,0,0,1,2.31-.28,7.34,7.34,0,0,1,3.31,1.2,9.85,9.85,0,0,1,2.31,2.34,41,41,0,0,0,3.19,2.94C226.7,245,231,247,232.66,246a21.58,21.58,0,0,1,2-1.19c.38-.2.69-.35.88-.44a21.12,21.12,0,0,0,5.44,3.5c1.59.71,3.72,1.14,8,2s5.47.93,6.84.88a20,20,0,0,0,4.25-.62l9.19-12.62a5.27,5.27,0,0,1,.84-2,7.06,7.06,0,0,1,3.09-2.16,37.14,37.14,0,0,0,5.53-3.47,20.2,20.2,0,0,0,2.78-2.66,9.42,9.42,0,0,0,1.75-3.75c.2-1,.12-1.45.41-2.84a21.67,21.67,0,0,1,.84-2.91c.68-2.16.53-4.62.22-9.53a8.93,8.93,0,0,1,.09-2.75c.29-1.34,1-2.64.78-2.75s-.21.19-.37.16c-.34-.08-.62-1.32-.12-2.22.34-.62.74-.52,1-1.09.47-.94,0-2.27-.37-2.28s-.24.6-.56.69c-.7.18-1.32-2.55-3.44-4.53-1.18-1.1-1.26-.51-4.34-2.47a20.24,20.24,0,0,1-4-3.12,15.69,15.69,0,0,1-2-2.69l.34-1.16c-2.73-1.28-5.12-1.09-5.84,0a2.06,2.06,0,0,0-.16,1.66c-.22-.36-.56-.9-1-1.53a40.13,40.13,0,0,0-3-3.78c-1-1.2-1.69-3.46-.5-8.16a17.86,17.86,0,0,1-1.84-6.31,17.41,17.41,0,0,1-.06-2.47l2.25-.25q.28.39.44.34t.16-1.28l-3,.25.09-.53a5.09,5.09,0,0,1,0-.63l.08-.08a3.52,3.52,0,0,1,2.21-.83,6.55,6.55,0,0,0-1-.46,6.4,6.4,0,0,0-.95-.24,3.81,3.81,0,0,1,1.22-1.73,4.08,4.08,0,0,1,2.31-.84l1-3.69-.37.56c-.83,1.25-1,1.48-1.21,1.5s-.44,0-.9-.83a13.11,13.11,0,0,1,3.06-4.83c.31.46,3.7,5.33,6.25,4.65a12.64,12.64,0,0,0,2.94-1.75,11.9,11.9,0,0,0,1.67-1.27c.39-.39.53-.62.88-.77a2.2,2.2,0,0,1,1.81.25,8,8,0,0,1-1.9,2.1,8.1,8.1,0,0,1-3.71,1.58,8,8,0,0,0,5.08-1.1,7.6,7.6,0,0,0,2.08-1.94,42.27,42.27,0,0,1,7,4c1.88,1.34,3.16,2.48,5.38,3.06a10.87,10.87,0,0,0,4.65.15,33.84,33.84,0,0,0,7.24-5.51c-.24.45-.5.9-.8,1.36a18.09,18.09,0,0,1-2.67,3.21,12,12,0,0,0,2.17-2,12.87,12.87,0,0,0,3-7,18.33,18.33,0,0,1-1.5,4.08l-1.57.65a25.5,25.5,0,0,1,2.85-6.08l.6-.1.4-1.69c.93-4,1-4.59.92-5.27-.11-1.34-.56-2.37-.37-2.44s.8,1.11.9,1.06A5.93,5.93,0,0,0,307.21,137.38Zm-3.52,11.75a22.3,22.3,0,0,1-3.69,5.69l-.12.88a5.09,5.09,0,0,1-5.06,2.06,24.48,24.48,0,0,0,6.12-6.75,25.42,25.42,0,0,0,2.69-7.06,6.35,6.35,0,0,0-.06-3.69,5.61,5.61,0,0,0-1.37-2.06c-3.8-3.81-6.53-5.4-8.06-8a10.23,10.23,0,0,1-1.31-5.44,10.69,10.69,0,0,0,3.06,5.13,22.33,22.33,0,0,1,2.5,2.19c1.15,1.24,1.07,1.55,2.06,2.5s1.61,1,2.94,2.12a13.93,13.93,0,0,1,2.25,2.31A22.6,22.6,0,0,1,303.69,149.13Z" style="fill:#231f20"/><path d="M279.38,148.91a7.22,7.22,0,0,1,5.19-1.66,6.33,6.33,0,0,1-5.19,1.66Z" style="fill:#708035"/><path d="M288.75,152.92a4.34,4.34,0,0,0,3.25,1.88,7.73,7.73,0,0,0-3.25-1.87Z" style="fill:#fff"/><path d="M257.94,175.69a3.32,3.32,0,0,1,.75,1.88l-.75,1.69-.87-2.62Z" style="fill:#708035"/><polygon points="260.94 181.56 262.44 183.94 260.81 182.56 260.94 181.56" style="fill:#708035"/><path d="M261.91,199.11q.47-.84,1-1.72l.47-.73a2.36,2.36,0,0,1,.25,1.41,3.54,3.54,0,0,1-1.73,1Z" style="fill:#fff"/><path d="M240.31,244.88a1,1,0,0,0,.08,1,1.1,1.1,0,0,0,1.53,0,1.42,1.42,0,0,1-.79-.26,5.84,5.84,0,0,1-.45-.42Z" style="fill:#fff"/><path d="M245.42,247.33a2.54,2.54,0,0,0,.78.82,2.7,2.7,0,0,0,1.93.38,4.63,4.63,0,0,1-2.71-1.2Z" style="fill:#fff"/></g></g></g></svg>