<svg xmlns="http://www.w3.org/2000/svg" viewBox="0 0 350 350"><defs><radialGradient id="a" cx="175" cy="175" r="96" gradientTransform="matrix(0 -1 1.5 0 -87.5 350)" gradientUnits="userSpaceOnUse"><stop offset=".64" stop-color="#4fa0e2"/><stop offset="1" stop-color="#3a6082" stop-opacity="0"/></radialGradient></defs><g data-name="BG Colors"><path fill="#fff" d="M59.87 60H290.13V290H59.87z"/><path d="M69.18 69.39H280.82V280.79H69.18z"/><path fill="#1b3652" d="M247.63 79L101.87 79 78.75 88.3 78.75 271 270.75 271 270.75 89.56 247.63 79z"/><path opacity=".6" fill="url(#a)" d="M79 79H271V271H79z"/></g><path d="M73.25 77.75c-2.41 1.48 1.63 4.54.5 13.75C70.87 115.09 74 138 74 138s2.78 1.52 3.5 1.75c3.47 1.12 9.2-11.64 16.5-20 3.38-4.5 5.5-2.87 10.44-8 7.93-8.14 11.12-6.85 15.06-10 6.76-5.49 15.69-16.47 13-21.25-3.24-5.78-19.67.83-42.25-.75C83.3 79.26 78 74.87 73.25 77.75zM70.75 213.5c-.38-1.69-2.75-1.65-2.93-3-.14-1.11.48-2.51 2.68-4.22 4.31-3.34 8.33-.68 18.25-1.25 13.23-.77 17.79-7.81 22.75-4.5 3.62 2.42 5.1 9.07 3 13.13-2.79 5.38-10.94 4.36-13.75 11.12-.8 1.92-.1 1.9-1 4.25-1.5 3.91-4 5.46-10.25 10.75-.55.46-8.22 7-7.75 7.63.29.39 3.42-1.93 4.25-1.13 1 1-2.27 6.09-2 6.25s3.34-7.4 9.63-9c1.75-.45 1.79.08 3.37-.37 4.28-1.23 4.69-5.26 9.5-11.38 4-5.05 5.12-4.13 8.5-9.12 2.9-4.29 3.83-7.6 4.75-7.38s1.55 4.47.75 8.25c-.46 2.15-1.22 3.52-.5 4.38 1 1.17 3.47-.11 4 .75s-2.35 3.27-5 7.37c-1.42 2.2-4.44 6.87-3 8.88s5.34-.39 9.36 2.51c1.06.76 1.78 1.28 2.07 2.17 1.7 5.32-15.21 14.4-14.08 16.44.37.66 2.51.34 3.4.13 1.68-.41 2-1.16 3.88-1.75 1-.33 2.89-.9 3.62-.13s-.28 1.87-.37 4.88c-.06 1.64-.08 2.7.62 3.62a3.55 3.55 0 004 1.25c1.17-.6.84-2 1.63-4.37 1.35-4.13 4.6-6.77 8.12-9.63.78-.63 1.52-1.14 1.52-1.14a46.3 46.3 0 006-3.86c2.24-1.71 3.79-3.13 4.53-3.82.9-.84 1.65-3.42 3.6-5.68 4.86-5.66 6.71-7.78 7.62-7.5 1.1.33-.12 1.46-2.5 5.5a26.36 26.36 0 01-6.87 8.25c-6.19 5.05-9.25 6.62-10.25 7.5-2.74 2.38-6.43 5.84-7.88 8.88-2.16 4.51.27 7.1-1.25 8.87-3.7 4.32-14.92-5.92-30.5-5.25-12.78.55-18.51 8-24 4.25-2.87-2-3.45-6.09-4.5-14.25-.93-7.28-.9-13.74-.5-28.5.27-10 .49-15.91-1.5-16.5a1.57 1.57 0 01-.71-.47C70.38 215.51 71 214.54 70.75 213.5z"/><path d="M140.89,235.79a1.64,1.64,0,0,0-2.12,1,1.84,1.84,0,0,0,.29,1.66,1.71,1.71,0,0,0,2-.29A1.61,1.61,0,0,0,140.89,235.79Z" fill="#060809"/><path d="M67.25,166.5C66.43,160.11,79.12,155.42,93,136c3-4.2,7.25-11.5,20-20.5,5.35-3.78,6.65-8.11,7.75-12.75,1.91-8-1.89-12.4.75-15.5,3.87-4.54,18.13-2.38,21,4.25.75,1.74,1.69,6-14.25,25.75-9.51,11.77-12.42,13.43-18.75,21-19.28,23.05-19.48,40.13-29,40.5C74.57,179,68,172.6,67.25,166.5Z"/><path d="M253 89.33c-2.75 2.71 2.06 8-1.33 14.67-1.76 3.45-4.88 5.62-7.34 7.33-5.35 3.73-9.39 4-10 7-.3 1.54.37 3.34 1.34 3.67 1.16.4 2.78-1.32 5-3.67s1.83-2.54 3.14-3.58c2.44-1.94 3.65-1.16 5.75-3.06 1.2-1.09 1-1.43 2.69-3.81.24-.34 4.58-6.26 6.09-5.54.61.29.59 1.64.54 4.35a22.87 22.87 0 000 4.9c.21 1.3.37 2.26 1 2.47s1.4-.47 4-3.37c3.4-3.76 3.88-4.59 5.25-4.91 2-.46 3 .82 4 .16 1.58-1 1.14-4.9.31-7.44C270.83 90.28 256.73 85.66 253 89.33zM220.31 117.5c-.66 2.46 2.84 5 5.82 7.19 1.3 1 1.94 1.23 2.37 1 .82-.46.47-2.66.13-3.88-.92-3.23-3.88-6.91-6.32-6.31A2.92 2.92 0 00220.31 117.5zM139.5 242.5a3.43 3.43 0 013.31-.75c.86.22 1.94.84 1.88 1.38s-.84.72-2.38 1.31c-2.38.91-2.81 1.31-3.25 1S138.66 243.44 139.5 242.5zM196.63 273.13c.12-2.46 1.73-3.19 4.62-7.25 1.67-2.35 2.11-3.49 3.88-4.63 1-.67 2.63-1.42 3-1s-.43 1.42-1.38 2.88c-3.23 5-3.48 6.33-6.37 9.75-2 2.31-2.69 2.67-3.13 2.5C196.55 275.09 196.61 273.46 196.63 273.13z" fill="#060809"/><path d="M133.44 249.25c.52.3.1 2.47-1.06 3.94-1.35 1.69-3.69 2.43-4.07 1.94C127.64 254.25 132.46 248.7 133.44 249.25zM154 265.83c1.05.44 1.37 5.14-1.58 7.25a5.92 5.92 0 01-5 .67C151.66 266.82 153.31 265.55 154 265.83zM276.29 214.57c-3.35-2.25-7.61-.73-13.29 1.31-3.48 1.24-5.08 2.47-6.19 3.76a12 12 0 00-2.26 4.21c-1.67 4.76-5.91 6.74-13.72 12.9-8.65 6.83-12.93 11.89-13.66 11.25s2.74-5.28 2.33-5.58-5.65 6-8.82 9.87C209.54 266 204 272.88 205.17 274.92c.63 1.09 2.55 2.16 8.83 1.21l65.58.95L280 221.5C279.33 216.77 276.92 215 276.29 214.57zm-6 32.76c-.55.32-1.37.81-2.33 1.46-5.31 3.61-7.9 7.49-10.84 11a69.54 69.54 0 01-9.17 9.17h-3.19a23 23 0 006.61-6.41c1.2-1.78 1.84-3.37 3.88-4.75 1.53-1 2.29-.89 3.85-2a12.63 12.63 0 003.57-4.3 20.6 20.6 0 017.62-6.91z"/><path fill="#fff" stroke="#000" stroke-miterlimit="10" stroke-width="6" d="M50.25 141.25H299.75V214.75H50.25zM175 125.75h32.25l19.79-6.45L227 104.5l59.17-14.83L198 55V98.76l-11.36 7.49H163.25L152 98.67V55L61.33 90.83 123 103.5q.1 8.07.22 16.13l19.53 6.12z"/><path fill="#fff" stroke="#000" stroke-linecap="square" stroke-linejoin="bevel" stroke-width="6" d="M175.01 303.8L182.88 289.18 191.01 235.43 183.53 150.21 183.44 92.94 175 92.94 174.98 92.94 166.54 92.94 166.47 150.21 158.99 235.43 167.12 289.18 174.99 303.8 175.01 303.8z"/><circle cx="175.01" cy="92.17" r="10.35" fill="#fff" stroke="#000" stroke-miterlimit="10" stroke-width="6"/><circle cx="175" cy="179" r="62.83" fill="#fff" stroke="#000" stroke-miterlimit="10" stroke-width="6"/><circle cx="175" cy="179" r="53.04"/><path d="M186.67,216.78l-.06-28H212.5V169.19H186l-.1-27.94-21.83-.06-.05,28H137.5V188.8h25.89v28Z" fill="#fff"/></svg>