<svg xmlns="http://www.w3.org/2000/svg" viewBox="0 0 350 350">
    <defs>
        <linearGradient id="a" x1="142.32" y1="206.27" x2="222.8" y2="66.88" gradientUnits="userSpaceOnUse">
            <stop offset="0" stop-color="#d75b2b"/>
            <stop offset="1" stop-color="#8f3e23"/>
        </linearGradient>
        <linearGradient id="b" x1="87.75" y1="111.26" x2="194.85" y2="111.26" gradientUnits="userSpaceOnUse">
            <stop offset="0" stop-color="#d75b2b"/>
            <stop offset="1" stop-color="#964124"/>
        </linearGradient>
    </defs>
    <path d="M261.33 133.5L230.17 179 251 101.5l-74.31 22.83L217.47 92h-37.18l35.34-18.83-9.92-11.52 8.68-1.65H59.87v230h230.26V102.34l-22.46 69.33z" fill="#fff"/>
    <path d="M261.33 133.5L230.17 179 251 101.5l-74.31 22.83L217.47 92h-37.18l35.34-18.83-3.25-3.78H69.18v211.4h211.64V131.07l-13.15 40.6z"/>
    <path d="M91.17 201.75l20.66 13.42 16.09-16.09-30.42-2.5-6.33 5.17zm57.19 62.19l-10.11-21.36L154.17 227l.58 31.92zm-17.05-21.59l-12.37 1.18-7.79-7.8.14-13.4 20.02 20.02zm41.13-56.16l-37.91 37.92-5.61-5.61 37.91-37.92-7.42-7.42L113.57 219l20.88 20.88 45.84-45.84-7.85-7.85zm9.78 5.91l9.5-.13 14-15.32-11.48-37.51-14.73 6.11-17.12 15-.18 11.83zm15.25-54.39l11.46 35.93 2.57-6.52-9.22-31.43-4.81 2.02zm7.62-3.2l8.58 27.12 2.99-7.59-6.57-21.62-5 2.09zm7.71-3.23l5.76 17.93 2.67-6.78-4.21-12.92-4.22 1.77zm10.51 5.87l-2.72-9.14 7.58-3.18-4.86 12.32z" fill="#fff"/>
    <path d="M47.92 127.83q21-6.65 42.56-13.92 35.1-11.86 68.19-24.25c-10.11-.77-21-2-32.42-3.92a365.22 365.22 0 0 1-50-12q28.22-1.87 57.5-4.5 40.38-3.65 78.58-8.42l2.67 14.3L184 90l38 2.62-36.67 29L250 104l-18.48 73 29.82-43.53 7.33 33.17 17.08-36.92a274.93 274.93 0 0 0 7.25 62.5q-2.37-2.72-4.75-5.5-8.06-9.42-15.5-18.75A557.46 557.46 0 0 1 249 248.5q-3 8-6.25 15.75l-8.5-73.25 13.5-86.5a839.15 839.15 0 0 1-164.5 22.75q-18.03.68-35.33.58z" fill="url(#a)"/>
    <path d="M87.75 146.13l107.1-69.73-25.19 56.2z" fill="url(#b)"/>
    <path d="M184.5 99.5l-83.33.83 115.49-29.5L184 90l36.7.62-35.33 31L251 101.5 234 168l27.33-34.5 7.67 42.17 13.33-46.15-17 117.65-14.67-66.5-50.5 116.17 36.34-156.67 9.33-33.17-132.26 31.17zm-81 63.04l9.25 11.1 6.38-14.14-15.63 3.04z" fill="#6e3120"/>
    <path fill="#6e3120" d="M185.38 250l9.25 8 2.84-13.87-12.09 5.87z"/>
    <path d="M228.5 60l-41.25-13.25 19.42 25-65.37 25.5h63.19L101.17 155.5l142.58-44.24L205.1 236.5l52.65-84.75 8.25 54.13 24.13-94.61h15.37L293 92.5l-13.5.75 6 7.25a264.39 264.39 0 0 0-16.87 58.25l-5.25-38.87-25.63 44.62 20.5-70.08-65.5 22.33 51.13-30.37-46.41.38L224.75 77l-8.09-12.11a56.45 56.45 0 0 0 7.34 3.69c1.32.54 2.6 1 3.83 1.42zm-98.17 21.67l13.67 5.5-5.67-14-8 8.5zm-39 19.83l14.34 9-15.5 10.83 1.16-19.83zm132 174.33l4-13.75 6.5 8.67-10.5 5.08zm34.5-9.66l18.09 2.41-7.5-18.16-10.59 15.75z" fill="#fff"/>
</svg>
