<svg xmlns="http://www.w3.org/2000/svg" viewBox="0 0 350 350"><defs><linearGradient id="a" x1="109.58" y1="284.89" x2="237.19" y2="63.87" gradientUnits="userSpaceOnUse"><stop offset="0" stop-color="#fbd267"/><stop offset=".78" stop-color="#f7921e"/></linearGradient></defs><path d="M290.13 290h-89.8l-24.83-39.17-67.17-28.33L60 272.81l-.13-18.48V60h230.26z" fill="#fff"/><path d="M280.82 280.79H188L178 270l-19.67 15.67-14-34.34-38.41 40.76-5.59-68.76-31.15 28.34V69.39h211.64v211.4z"/><path d="M243.63 180.64c-.58-.6 2.1-3.77 3.75-4.58.18-.09.33-.14.42-.07.38.26-.19 2.31-1.59 3.56-.83.74-2.21 1.45-2.58 1.09zm8.64-9.54c-.4-.51 3.28-4.5 3.81-4.15.3.2-.23 1.9-1.42 3-.86.81-2.18 1.42-2.39 1.15zm14.07-16.19c.27.28 2-.65 3.22-2.09s1.78-3.21 1.44-3.44-2.4 1.94-3.5 3.44c-.62.84-1.37 1.86-1.16 2.09zm-29.63 35.67l-91.27-8.76 10.69-44.7-28.75-32.31-5.54 10.52 1.42-19.08L149 123.94l2.75-11.9v-3.21l.06-.4c15.37-44.46 20.3-59.92 19.79-60.17-.87-.42-1.21-.15-1.21-.15a.78.78 0 0 0-.19.63c0 .74-6 18.73-19.54 58.38a16.11 16.11 0 0 1-1.58-7.56l-4.87 5.69L116.33 73q-3.95 86.3-7.33 172.62-.94 23.91-1.83 47.83L159.92 234l15.6 24.6zm-96.23-84c2.39 2.62 4.51 5.19 6.4 7.65l-.31 1.34-16.69-19.2a114.94 114.94 0 0 1 10.6 10.23z"/><path d="M243.63 180.64c-.58-.6 2.1-3.77 3.75-4.58.18-.09.33-.14.42-.07.38.26-.19 2.31-1.59 3.56-.83.74-2.21 1.45-2.58 1.09zm8.64-9.54c-.4-.51 3.28-4.5 3.81-4.15.3.2-.23 1.9-1.42 3-.86.81-2.18 1.42-2.39 1.15zm14.07-16.19c.27.28 2-.65 3.22-2.09s1.78-3.21 1.44-3.44-2.4 1.94-3.5 3.44c-.62.84-1.37 1.86-1.16 2.09zm-29.63 35.67l-91.27-8.76 10.69-44.7-28.75-32.31-5.54 10.52 1.42-19.08L149 123.94l2.75-11.9v-3.21l.06-.4c15.37-44.46 20.3-59.92 19.79-60.17-.87-.42-1.21-.15-1.21-.15a.78.78 0 0 0-.19.63c0 .74-6 18.73-19.54 58.38a16.11 16.11 0 0 1-1.58-7.56l-4.87 5.69L116.33 73q-3.95 86.3-7.33 172.62-.94 23.91-1.83 47.83L159.92 234l15.6 24.6zm-96.23-84c2.39 2.62 4.51 5.19 6.4 7.65l-.31 1.34-16.69-19.2a114.94 114.94 0 0 1 10.6 10.23z" fill="#fff"/><path d="M184 33.17l-34.67 100.66-21.5-25.33-18 176.56 50.79-58.23L175 256.5l123.67-154.33z" fill="url(#a)"/><path d="M280.82 61.5l-99.07 173.58-18-49-53 90.62 1.56-15.3L162 117.25l18.5 21.5 44-106.25z"/><path d="M113.46 266.13l52.29-134.87 18.13 26.38 50.45-120.08 38.13 19.64-87.88 160.47L166 169.75z" fill="#fff"/><path d="M67.73 247.75l1.38 14.68 26.64-26.93 5.92 71.17L145.88 259l9.63 37L178 275l15.67 24.5L224 261.34l-8-6.68L195.17 281l-15.33-22.33-18.67 18.5-11.67-37.34-39.33 43.33-7-70.33z" fill="#fff"/></svg>