<svg xmlns="http://www.w3.org/2000/svg" viewBox="0 0 350 350">
    <defs>
        <clipPath id="a">
            <path fill="none" d="M79 79h192v192H79z"/>
        </clipPath>
    </defs>
    <path fill="#fff" d="M59.96 59.96h230.08v230.08H59.96z"/>
    <path fill="#060809" d="M69.5 69.5h211v211h-211z"/>
    <path fill="#187fa3" d="M79 79h192v192H79z"/>
    <path d="M75.36 99.39c.89-1 1.55-2.44 3.24-3.77 4.82-3.79 9.36-5 9.41-4.91a26.19 26.19 0 0 0-4.7 3.47c-1.26 1.2-1.48 1.76-1.36 2.08.22.57 1.55.52 3.86.49 6-.08 6.36.66 8.15 0s1.52-1.36 4.19-2.52a16 16 0 0 0 3.7-2.23 40.72 40.72 0 0 0 3.69-3c2.78-2.14 6.16-1 6.46-2 .35-1.2-5.19-3.13-4.89-4.69.18-.95 2.59-1.27 5.83-1.69 0 0 6.64-.43 13.88-1.58a81.07 81.07 0 0 0 9.91-2.59A31.09 31.09 0 0 1 124 81.63c-3.62.49-6 0-6.75 1.54-.84 1.73.72 5.36 3.13 5.94 1.79.43 2.6-1.05 6.07-1.57a12.78 12.78 0 0 1 5.15-.41c6 .31 7.24.43 7.26.68.05.5-4.73 2-10.15 2.32-3.07.17-5 .08-6.91 1.49a6.9 6.9 0 0 0-2.44 3.53c-.61 1.57-3.52 3.42-9.65 6-2.81 1.18-6.25 2.76-10.64 4.2-3.18 1-6.74 2.41-10.87 3.6-3.34 1-7.4 1.9-11.42 3-.78-4.09-.71-8.52-1.42-12.56zM160.7 274c5.87.83 9.21-.06 11.06-1.5.86-.67.84-1.05 1.84-1.8a16 16 0 0 1 9.46-2.81c4.59-.11 9.07-1.28 13.65-1.69a71 71 0 0 0 13.06-2.1c3.27-.88 6.51-2.37 12.79-3.14 3.83-.47 7.63-.92 11.31-1.32 4-.43 7.77-1.19 11.32-1.4 4.26-.25 8.12.55 11.36.86 1.35.13 5.83.35 6.76-1.45a2.27 2.27 0 0 0-.43-2.39c-.8-.7-2.39.06-3 .26-3.64 1.32-7.79.2-11.63.69-3.21.41-7.45 1.38-11.43 1.4-5.84 0-11.26-.84-11.41-1.89s6.33-2.44 10.94-3.83c3-.9 6.16-2.64 9.89-3.95 3.08-1.08 6.58-1.85 10.12-3.26 3.1-1.23 6.39-2.55 9.82-4.06 3.09-1.36 5.94-3.24 9.28-4.86 0-5.37.11-10.51.11-15.89-3.86 1.28-7.6 2.42-11.47 3.7s-7.78 2.4-11.64 3.69l-11.58 3.85c-3.86 1.28-7.7 2.65-11.56 3.93s-7.65 2.8-11.51 4.08-7.91 2-11.77 3.3-7.45 3.39-11.31 4.67-7.7 2.63-11.56 3.91-7.95 1.88-11.81 3.17-7.6 2.93-11.46 4.21-7.89 2.07-11.75 3.35-7.62 2.88-11.48 4.17-7.83 2.24-11.69 3.52-7.29 2.93-11.15 4.21c3.93 0 7.55-.26 11.47-.22s7.85.27 11.78.32l11.78.15z" fill="#060809"/>
    <path d="M78.33 160.41L283 103.83l-.62 7.92-202.57 54.17zM66 118.5l209.17-56.83 6.66 7.33L65 124.83l1-6.33z" fill="#fff"/>
    <path fill="#7ab9cc" d="M78.25 115.17v-9.54L218.83 69.5h27.51L78.25 115.17zm137.05 7.38l11.25-15L271 95.07v12.08z"/>
    <path fill="#fff" d="M67.24 176.974l215.75-57.81 1.514 5.651-215.75 57.81z"/>
    <path fill="#060809" d="M106.53 271l-3.3-12.32-26.4 8.07v6.96l30.35-.3-.65-2.41z"/>
    <path fill="#7ab9cc" d="M79 196.9l7.19-1.82 17.04 63.6L79 266.09V196.9z"/>
    <path d="M262.42 234.12L69 285.93l-1.66-6.21 193.38-51.82 7.28-.29c13.28-.49 19.91-.73 20-.21s-5 2.34-25.58 6.72z" fill="#fff"/>
    <g>
        <path d="M236.86 240.62l-129.19 34.62-27.23-101.62L209.63 139c16.52-3.25 39-4.55 62.62 4 13.16 4.77 28.85 10.44 32.67 23.42 4.87 16.53-12.61 34.49-23.25 45.42a120.29 120.29 0 0 1-44.81 28.78z" fill="#fff"/>
        <path fill="#060809" d="M87.362 177.22l23.501-6.297 23.713 88.499-23.5 6.297zm207.018 9.16c4.37-7.72 5.32-12.91 3.93-17.43-1.3-4.23-4.42-7.11-9.6-10.6A97 97 0 0 0 259.13 145a121.55 121.55 0 0 0-49.28-.61l-94.25 25.26 23.71 88.48 93.94-23.63a16.86 16.86 0 0 0 4.17-1.62 13.16 13.16 0 0 0 5.33-4.79 11.66 11.66 0 0 0 1.5-4.25 31.68 31.68 0 0 1-6.08 2.92 34.55 34.55 0 0 1-21.75.08c-1.35-.43-18.36-6-18.49-14.71-.06-3.87 3.28-5.78 16.21-15.35 19.67-14.56 22.55-18 32.12-21.55 4.69-1.75 17.61-6.57 21.49-1.72.91 1.13 1.89 3.51.17 8.67l9.33-4.89a39.15 39.15 0 0 1-3.67 15A40 40 0 0 1 258 209.33a39.13 39.13 0 0 0 10.58-1.25 39.76 39.76 0 0 0 14.25-7.08 65 65 0 0 0 11.55-14.62z"/>
        <path d="M250.5 162.14a72.39 72.39 0 0 0-39.42-9.89 136.35 136.35 0 0 1 34.5 0 134.86 134.86 0 0 1 13.42 2.42 14 14 0 0 1-8.5 7.48zm-115.62 10.65a159.43 159.43 0 0 1 60.63-3 6.1 6.1 0 0 1-1.42 3.52 6 6 0 0 1-2.33 1.67 157.42 157.42 0 0 0-56.87-2.21zm-4.17 9.08a159.43 159.43 0 0 1 60.63-3 6.1 6.1 0 0 1-1.42 3.52 6 6 0 0 1-2.33 1.67 157.42 157.42 0 0 0-56.87-2.21zm-5.83 9.07a159.43 159.43 0 0 1 60.63-3 6.1 6.1 0 0 1-1.42 3.52 6 6 0 0 1-2.33 1.67 157.42 157.42 0 0 0-56.87-2.21z" fill="#fff"/>
        <path fill="#060809" d="M69.5 182.42l12.41-3.32 4.28 15.98-16.69 4.23v-16.89z"/>
    </g>
    <g>
        <path d="M189.44 136.55L79.81 165.92 67.24 119l109.62-29.38a64.11 64.11 0 0 1 20.88-1.8c2.86.23 26.7 2.15 29.5 13.18.6 2.36.18 4.93-1.62 8.63-7.96 16.27-28.11 24.17-36.18 26.92z" fill="#fff"/>
        <path fill="#060809" d="M73.517 122.793l7.524-2.017 9.48 35.382-7.524 2.016zM221.66 102.37c-2.08-6.76-18.73-9.23-25.75-9.71a56.61 56.61 0 0 0-11.23.36l-99.41 26.64 9.49 35.41 96.44-25.84a6.68 6.68 0 0 0 1.36-1.5 5 5 0 0 0 .67-1.83 35.66 35.66 0 0 1-5.12.29c-3.9-.06-6.4-.1-7.79-1.79a5.64 5.64 0 0 1-.87-4.37c.63-3.09 3.51-4.15 8.25-7.29 8.14-5.39 8.22-8 13.88-9.62 3.19-.93 7.28-1.32 8.08.17a3.33 3.33 0 0 1 .17 1.88c-.25 1.51-1.33 2.22-1.12 2.5s1.64-.26 2.75-1.08a7.52 7.52 0 0 0 2-2.25 11.07 11.07 0 0 1 .13 4.88 13.18 13.18 0 0 1-4.58 7.13 17.2 17.2 0 0 1-3 2.17 10.38 10.38 0 0 0 2.92.38 11 11 0 0 0 1.88-.21c7.99-6.12 12.13-12.17 10.85-16.32z"/>
        <path d="M188.09 95.9a17.31 17.31 0 0 1 9.66 4.07 4.69 4.69 0 0 0 2.25-2.41 4.48 4.48 0 0 0 .29-2 29.7 29.7 0 0 0-12.18.37zm-14.53 11.54a3.38 3.38 0 0 0 .94-3.31c-3.9-.35-7.22-.44-9.75-.44-7.1 0-9.7.68-11.81 1.63a18.89 18.89 0 0 0-3.44 2 39.64 39.64 0 0 1 24.06.13zm-3.56 5.75a3.38 3.38 0 0 0 .94-3.31l-9.75-.44c-5.71-.25-8.63-.36-11.87.75a19.63 19.63 0 0 0-4.06 1.94 60 60 0 0 1 24.74 1.06zm-4.81 5.31a3.38 3.38 0 0 0 .94-3.31l-9.75-.44c-5.71-.25-8.63-.36-11.87.75a19.63 19.63 0 0 0-4.06 1.94 60 60 0 0 1 24.75 1.06z" fill="#fff"/>
    </g>
</svg>
