<svg xmlns="http://www.w3.org/2000/svg" viewBox="0 0 350 350">
    <defs>
        <clipPath id="a">
            <path fill="none" d="M78.63 78.96h193.02v192.81H78.63z"/>
        </clipPath>
    </defs>
    <path fill="#fff" d="M59.87 60h230.26v230H59.87z"/>
    <path d="M69.18 69.39h211.64v211.4H69.18z"/>
    <path fill="#478b40" d="M78.63 78.96h193.02v192.81H78.63z"/>
    <path d="M236.13 180.21l-2-5.77-2.69-6.44-3.54-6-3.65-5.91-3.14-5-2.51-5.36-2.76-5.22-3.48-4.81-2.48-5.38-3.4-4.86-2.72-5.24-3.13-5-3.13-5.12.81-5.22-.74-5.08v-3l-2.72-5.46-5-6.41-1.75 3.75-.65 2.94-2.18-4.15-4.16-2.88 2.29 6.83-.77.74-3.18-5.87-2.39-6.24-2.11-2.75-3.07 5.41-2.76 5.52-2.48 5.77-3 5.41-2.43 5.7-2.91 5.45-3.24 5.28-2.69 5.56-2.93 5.45-3.09 5.37-2.94 5.42 2.36-5.94 1.87-6.14 2.25-6 1.77-6.23 2.83-5.8 2.44-5.71 3.26-5.28 2.95-5.54 3.92-4.84 3.24-5.26 3.12-4.79-3.68 4.21-3.22 5.11-3 5.27-3.06 5.2-3.6 4.88-2.79 5.36-2.34 5.28-2.72 5.11-2.32 5.3-2 5.46-1.68 5-.9 5.23.35 2.66-.47.9-5 4.66-3.4 4.52-4 4-3.1 4.76-3.61 4 2.45-5.75 3-5.72 2.45-6L134 140l2.6-5.91 2.7-5.88-3 5.2-2.83 5.25-2.09 5.65-3.38 4.89-2.82 5.26-2.71 5.32-2.73 5.31-2.74 5.33v.13h-.1l-4.26 7.53-2.84 5.53-2.5 5.71-3.3 5.27-2.78 5.56-2.93 5.47-3.29 5.26-2.8 5.55-2.75 5.57-3.45 5.18-2.82 5.53-2.83 5.53-3.55 5.12-3 5.47.49 3.85 3.47-4.53 2.98-5.15 2.45-5.44 3-5.12 3.13-5.06 2.62-5.38 3-5.13 2.36-5.48 3.65-4.78 2.81-5.24 2.47-5.42 2.27-5.52 3.33-5 2.45-5-2.21 5-2.15 5.42-2.81 5.15-2.58 5.22-2.73 5.14-2.38 5.31-3.08 5-2.43 5.29-2.21 5.41-3.43 4.77-2.09 5.5-3.55 5-3.08 5.21-3.21 5.15v8.69l3.7-5.93 3.18-5.76 3.1-5.82 2.69-6 3.11-5.34 3.24-5.28 2.64-5.64 2.58-5.62 2.73-5.54 2.16-5.8 2.53-5.62 2.75-5.54 2.31-5.73 1.42-5 2.65-4.5 2.59-5.28 3.65-4.61 3.27-4.89 3.71-4.57 3.13-5 4.08-4.37-2.63 5.39-2.93 5.24-3.28 5-2.3 5.55-2.62 5.38-3.09 5.14-3.14 5.1-2.57 5.44-2.56 5.41-2.91 5.23-2.37 5.51-3 5.21-3.34 5-2.18 5.61-2.64 5.3-2.77 5.3-2.82 5.28-3.39 5-2.4 5.5-2.71 5.34-2.65 5.37-3.18 5.17.46 5-.15 4.83 6 .47h6l6-.9 6 .41 6-.28 6 .45 6-.11 6-.18 6 .17 6-.12 6 .25 6-.08 6-.39 6 .09 6-.19 6 .73 6-.75 6 .79 6-.75 6 .68h6l6-.43 6 .48 6-.75 6 .23 6 .21 6 .31 6 .06 6-.8 6 .87 6-.26 6-.16 6-.26-.28-6.19v-6.37l.09-6.37-.06-6.3-2.76-5.49-3.47-5.16-3.27-5.28-1.64-5.69-3.38-5.21-2.89-5.5-3.46-5.17-2.81-5.54-3.46-5.15-2.34-5.79-2.91-5.47-3.34-5.26zm-33.66-51.34l-2.45-4-3.31-5.28 3.84 4.5zm27.71 52l-2.92-5.49-2.63-5.53-3.06-5.31-2.81-5.44-3.13-5.27-2.52-5.6-2.81-5.45-2.77-3.64-1.74-3.79 3.07 4.1 2.7 4.76 3 4.57 3.13 5.06 2 5.65 3.31 5 2.28 5.5 2.76 5.26zm41.6 81.78l-2.54-4.65-2.28-4.7-3.05-5.22-2.69-5.39-2.62-5-1.79-5.36-1.81-4.77 3.08 4.21 2.38 5.25 3.24 4.77 2.53 5.16 2.91 5 2.92 5.13z"/>
    <path d="M256.5 162.5c-25.64-8.64-51.16-10.33-68.47-10.33h-25.36c-18.65-1-58.22-.44-97.67 23.33a162.24 162.24 0 0 0-35.5 29L146 250.65l21.63 20 .06 19.31c.17.19.41.48.69.84 2.1 2.81 2.36 5.55 2.94 8.34.55 2.63 1.64 7.91 3 8s3.06-4.7 3.72-8.31c.48-2.67.41-4.87 2.13-7a8.44 8.44 0 0 1 2-1.81v-19.28l10.93-18.05 128.67-48.58c-25.7-25.95-51.05-36.82-65.27-41.61zm-113.83 58a277.76 277.76 0 0 1-49.33-16.17c-5.56-2.42-10.83-4.93-15.83-7.5A105.46 105.46 0 0 1 100.83 184a106.68 106.68 0 0 1 41.83-7.33zm112.83-15.83c-8.78 3.24-17.16 5.87-25 8v-36a150.33 150.33 0 0 1 32.83 14.2c3.64 2.12 7 4.31 10.17 6.5-5.61 2.46-11.61 4.93-18 7.3z"/>
    <path fill="#fff" d="M158.46 252l9.17 4.13v26.29h-9.17V252zm32.94 0l-9.17 4.12v26.29h9.17V252zm119.35-49.62a164.93 164.93 0 0 0-31.32-22.54c-35.37-19.61-70-21.77-89.11-21.42l.13 57.46-7.4 2.65v10.67l16.64-6.08v-55.68A186.27 186.27 0 0 1 250 177.67a183.62 183.62 0 0 1 41.45 20.83l-117.29 42L60 198.5a176.73 176.73 0 0 1 89.26-31.06v55.68l16.24 6.1v-10.68l-7.25-2.66q.06-28.73.13-57.46c-18.59-.35-52.29 1.81-86.71 21.42a160.71 160.71 0 0 0-30.48 22.54l132.94 48.27z"/>
    <path d="M176.87 231.46c-.1-11.36.36-13.07.75-31.71.31-14.94.59-36.38.33-63.37a12.79 12.79 0 0 1 3.7-.34 13.15 13.15 0 0 1 6.38 2.09l-13-33-13.89 33.06a32.76 32.76 0 0 1 9.27-2.27l.88 95.57zm-2.74 9.08l-2.62-1c1.07 41.76 2 60.88 2.91 60.88s1.72-19.15 2.51-60.92z" fill="#fff"/>
</svg>
