<svg xmlns="http://www.w3.org/2000/svg" xmlns:xlink="http://www.w3.org/1999/xlink" viewBox="0 0 350 350">
    <defs>
        <linearGradient id="a" x1="93.76" y1="147.4" x2="74.26" y2="147.4" gradientUnits="userSpaceOnUse">
            <stop offset="0" stop-color="#e8ab8f"/>
            <stop offset="1" stop-color="#d75b2b"/>
        </linearGradient>
        <linearGradient id="b" x1="147.59" y1="147.4" x2="128.1" y2="147.4" xlink:href="#a"/>
        <linearGradient id="c" x1="201.55" y1="147.4" x2="182.06" y2="147.4" xlink:href="#a"/>
        <linearGradient id="d" x1="255.25" y1="147.4" x2="235.75" y2="147.4" xlink:href="#a"/>
    </defs>
    <path fill="#fff" d="M223.13 60.23v34.9h-15v-34.9h-66.38v34.9h-15v-34.9H60.1v229.54h229.8V60.23h-66.77z"/>
    <path d="M233.67 69.6v36.03h-35V69.6h-47v36.03h-35V69.6H69.39v210.98h211.22V69.6h-46.94z"/>
    <path d="M244.44 79.15V115h-55.69l.13-35.85h-26.69V115h-54.72l.09-35.85H78.83v31.18l-4.4 12.42 4.4 30.25v84.67l190.3 4.33a700.35 700.35 0 0 1 2-91.3q1.24-14.31 3-27.92l-3-12.42v-31.2z" fill="#d75b2b"/>
    <path d="M93 286a54.79 54.79 0 0 1-12.62-11 57.46 57.46 0 0 1-13-32.47l-.62-18.6 27.26-9.09 26.75 9.58-.82 18a57.52 57.52 0 0 1-12.26 32.52 54.74 54.74 0 0 1-12 11l-1.36.92z"/>
    <path d="M94 217.45l24.2 8.66-.74 16.19a55.32 55.32 0 0 1-11.71 31.06 52.25 52.25 0 0 1-11.44 10.51 52.32 52.32 0 0 1-12-10.51 55.34 55.34 0 0 1-12.38-31.06l-.55-16.62L94 217.45m.06-5.29l-1.64.55-24.67 8.23-3.54 1.18.12 3.73.28 8.31.28 8.31v.23a60 60 0 0 0 13.55 33.88 57.3 57.3 0 0 0 13.19 11.52l2.77 1.76 2.77-1.86a57.25 57.25 0 0 0 12.53-11.52 60 60 0 0 0 12.81-33.88v-.09l.74-16.19.17-3.69-3.48-1.24-12.1-4.33-12.1-4.33-1.63-.58z" fill="#fff"/>
    <path d="M75 229c-.6 8.21-.89 28.61 12.81 44a46.74 46.74 0 0 0 6.47 6 46.72 46.72 0 0 0 6.34-6c13.51-15.43 13.1-35.74 12.44-44L94 223.1z" fill="#d75b2b"/>
    <path d="M94 223.1L75 229c-.65 7.57-1.27 27.51 12 43.06a47.46 47.46 0 0 0 7.3 6.92z" fill="#e8ab8f"/>
    <path d="M146.86 286a54.81 54.81 0 0 1-12.61-11 57.46 57.46 0 0 1-13-32.47l-.62-18.6 27.26-9.09 26.75 9.58-.82 18a57.52 57.52 0 0 1-12.26 32.52 54.72 54.72 0 0 1-12 11l-1.36.92z"/>
    <path d="M147.88 217.45l24.2 8.66-.74 16.19a55.32 55.32 0 0 1-11.71 31.06 52.25 52.25 0 0 1-11.44 10.51 52.32 52.32 0 0 1-12-10.51 55.34 55.34 0 0 1-12.39-31.06l-.55-16.62 24.67-8.23m.06-5.29l-1.64.55-24.67 8.23-3.54 1.18.12 3.73.28 8.31.28 8.31v.23a60 60 0 0 0 13.55 33.88 57.3 57.3 0 0 0 13.19 11.52l2.77 1.76L151 288a57.25 57.25 0 0 0 12.53-11.52 60 60 0 0 0 12.81-33.88v-.09l.74-16.19.17-3.69-3.48-1.24-12.1-4.33-12.1-4.33-1.63-.58z" fill="#fff"/>
    <path d="M128.8 229c-.6 8.21-.89 28.61 12.81 44a46.74 46.74 0 0 0 6.47 6 46.72 46.72 0 0 0 6.34-6c13.51-15.43 13.1-35.74 12.44-44l-19-5.87z" fill="#d75b2b"/>
    <path d="M147.88 223.1L128.8 229c-.65 7.57-1.27 27.51 12 43.06a47.46 47.46 0 0 0 7.3 6.92z" fill="#e8ab8f"/>
    <path d="M200.82 286a54.79 54.79 0 0 1-12.62-11 57.45 57.45 0 0 1-13-32.47l-.62-18.6 27.26-9.09 26.75 9.58-.82 18a57.52 57.52 0 0 1-12.26 32.52 54.72 54.72 0 0 1-12 11l-1.36.92z"/>
    <path d="M201.84 217.45l24.2 8.66-.74 16.19a55.32 55.32 0 0 1-11.71 31.06 52.25 52.25 0 0 1-11.44 10.51 52.32 52.32 0 0 1-12-10.51 55.34 55.34 0 0 1-12.39-31.06l-.55-16.62 24.67-8.23m.06-5.29l-1.64.55-4.94 1.65-19.74 6.58-3.62 1.17.12 3.73.28 8.31.28 8.31v.23a60 60 0 0 0 13.55 33.88 57.3 57.3 0 0 0 13.19 11.52l2.77 1.76L205 288a57.25 57.25 0 0 0 12.53-11.52 60 60 0 0 0 12.81-33.88v-.09l.74-16.19.17-3.69-3.48-1.24-9.5-3.39-14.74-5.28-1.63-.58z" fill="#fff"/>
    <path d="M182.76 229c-.6 8.21-.89 28.61 12.81 44a46.74 46.74 0 0 0 6.47 6 46.72 46.72 0 0 0 6.34-6c13.51-15.43 13.1-35.74 12.44-44l-19-5.87z" fill="#d75b2b"/>
    <path d="M201.84 223.1l-19.08 5.9c-.65 7.57-1.27 27.51 12 43.06A47.46 47.46 0 0 0 202 279z" fill="#e8ab8f"/>
    <path d="M254.51 286a54.81 54.81 0 0 1-12.61-11 57.46 57.46 0 0 1-13-32.47l-.62-18.6 27.26-9.09 26.75 9.58-.82 18a57.52 57.52 0 0 1-12.26 32.52 54.72 54.72 0 0 1-12 11l-1.36.92z"/>
    <path d="M255.54 217.45l24.2 8.66-.74 16.19a55.32 55.32 0 0 1-11.71 31.06 52.25 52.25 0 0 1-11.44 10.51 52.32 52.32 0 0 1-12-10.51 55.34 55.34 0 0 1-12.39-31.06l-.55-16.62 24.67-8.23m.06-5.29l-1.64.55-24.67 8.23-3.54 1.18.12 3.73.28 8.31.28 8.31v.23A60 60 0 0 0 240 276.57a57.3 57.3 0 0 0 13.19 11.52l2.77 1.76 2.72-1.84a57.25 57.25 0 0 0 12.53-11.52A60 60 0 0 0 284 242.61v-.09l.74-16.19.17-3.69-3.48-1.24-12.1-4.33-12.1-4.33-1.63-.58z" fill="#fff"/>
    <path d="M236.46 229c-.6 8.21-.89 28.61 12.81 44a46.74 46.74 0 0 0 6.47 6 46.72 46.72 0 0 0 6.34-6c13.51-15.43 13.1-35.74 12.44-44l-19-5.87z" fill="#d75b2b"/>
    <path d="M255.54 223.1l-19.08 5.9c-.65 7.57-1.27 27.51 12 43.06a47.46 47.46 0 0 0 7.3 6.92z" fill="#e8ab8f"/>
    <path d="M121.11 258.15a54.81 54.81 0 0 1-12.62-11 57.47 57.47 0 0 1-13-32.47l-.62-18.6 27.3-9.08 26.75 9.58-.82 18a57.52 57.52 0 0 1-12.26 32.52 54.74 54.74 0 0 1-12 11l-1.36.92z"/>
    <path d="M122.14 189.62l24.2 8.66-.74 16.19a55.32 55.32 0 0 1-11.71 31.06A52.25 52.25 0 0 1 122.45 256a52.32 52.32 0 0 1-12-10.51A55.34 55.34 0 0 1 98 214.47l-.55-16.62 24.67-8.23m.06-5.29l-1.64.55-24.66 8.22-3.54 1.18.12 3.73.28 8.31.28 8.31v.23a60 60 0 0 0 13.55 33.88 57.3 57.3 0 0 0 13.19 11.52l2.77 1.76 2.72-1.84a57.25 57.25 0 0 0 12.53-11.52 60 60 0 0 0 12.81-33.88v-.09l.74-16.19.17-3.69-3.5-1.24-12.1-4.33-12.1-4.33-1.63-.58z" fill="#fff"/>
    <path d="M103.06 201.15c-.6 8.21-.89 28.61 12.81 44a46.74 46.74 0 0 0 6.47 6 46.72 46.72 0 0 0 6.34-6c13.51-15.43 13.1-35.74 12.44-44l-19-5.87z" fill="#d75b2b"/>
    <path d="M122.14 195.27l-19.08 5.88c-.65 7.57-1.27 27.51 12 43.06a47.46 47.46 0 0 0 7.3 6.92z" fill="#e8ab8f"/>
    <path d="M174.95 258.15a54.81 54.81 0 0 1-12.61-11 57.47 57.47 0 0 1-13-32.47l-.62-18.6L176 187l26.75 9.58-.82 18a57.52 57.52 0 0 1-12.26 32.52 54.72 54.72 0 0 1-12 11l-1.36.92z"/>
    <path d="M176 189.62l24.2 8.66-.74 16.19a55.32 55.32 0 0 1-11.71 31.06A52.25 52.25 0 0 1 176.29 256a52.32 52.32 0 0 1-12-10.51 55.34 55.34 0 0 1-12.39-31.06l-.55-16.62 24.65-8.19m.06-5.29l-1.64.55-24.67 8.23-3.54 1.18.12 3.73.28 8.31.28 8.31v.23a60 60 0 0 0 13.55 33.88 57.3 57.3 0 0 0 13.19 11.52l2.77 1.76 2.72-1.84a57.25 57.25 0 0 0 12.53-11.52 60 60 0 0 0 12.81-33.88v-.09l.74-16.19.17-3.69-3.48-1.24-12.1-4.33-12.1-4.33-1.63-.58z" fill="#fff"/>
    <path d="M156.89 201.15c-.6 8.21-.89 28.61 12.81 44a46.74 46.74 0 0 0 6.47 6 46.72 46.72 0 0 0 6.34-6c13.51-15.43 13.1-35.74 12.44-44l-19-5.87z" fill="#d75b2b"/>
    <path d="M176 195.27l-19.08 5.88c-.65 7.57-1.27 27.51 12 43.06a47.46 47.46 0 0 0 7.3 6.92z" fill="#e8ab8f"/>
    <path d="M228.91 258.15a54.81 54.81 0 0 1-12.62-11 57.46 57.46 0 0 1-13-32.47l-.62-18.6L230 187l26.75 9.58-.82 18a57.52 57.52 0 0 1-12.26 32.52 54.72 54.72 0 0 1-12 11l-1.36.92z"/>
    <path d="M229.93 189.62l24.2 8.66-.74 16.19a55.32 55.32 0 0 1-11.71 31.06A52.25 52.25 0 0 1 230.25 256a52.32 52.32 0 0 1-12-10.51 55.34 55.34 0 0 1-12.39-31.06l-.55-16.62 24.67-8.23m.06-5.29l-1.64.55-24.67 8.23-3.54 1.18.12 3.73.28 8.45.27 8.17v.23a60 60 0 0 0 13.55 33.88 57.3 57.3 0 0 0 13.19 11.52l2.77 1.76 2.72-1.84a57.25 57.25 0 0 0 12.53-11.52 60 60 0 0 0 12.81-33.88v-.09l.74-16.19.17-3.69-3.48-1.24-19.15-6.86-5-1.81-1.63-.58z" fill="#fff"/>
    <path d="M210.85 201.15c-.6 8.21-.89 28.61 12.81 44a46.74 46.74 0 0 0 6.47 6 46.72 46.72 0 0 0 6.34-6c13.51-15.43 13.1-35.74 12.44-44l-19-5.87z" fill="#d75b2b"/>
    <path d="M229.93 195.27l-19.08 5.88c-.65 7.57-1.27 27.51 12 43.06a47.46 47.46 0 0 0 7.3 6.92z" fill="#e8ab8f"/>
    <path d="M93 229.82a54.81 54.81 0 0 1-12.62-11 57.47 57.47 0 0 1-13-32.47l-.62-18.6 27.26-9.09 26.75 9.58-.82 18a57.52 57.52 0 0 1-12.26 32.52 54.74 54.74 0 0 1-12 11l-1.36.92z"/>
    <path d="M94.07 161.29l24.2 8.66-.74 16.19a55.32 55.32 0 0 1-11.71 31.06 52.25 52.25 0 0 1-11.44 10.51 52.32 52.32 0 0 1-12-10.51 55.34 55.34 0 0 1-12.39-31.06l-.55-16.62 24.67-8.23m.06-5.29l-1.64.55-24.67 8.23-3.59 1.22.12 3.73.28 8.31.33 8.26v.23a60 60 0 0 0 13.55 33.88 57.3 57.3 0 0 0 13.15 11.52l2.77 1.76 2.72-1.84a57.25 57.25 0 0 0 12.53-11.52 60 60 0 0 0 12.81-33.88v-.09l.74-16.19.17-3.69-3.44-1.24-12.1-4.33-12.1-4.33-1.67-.58z" fill="#fff"/>
    <path d="M75 172.82c-.6 8.21-.89 28.61 12.81 44a46.74 46.74 0 0 0 6.47 6 46.72 46.72 0 0 0 6.34-6c13.51-15.43 13.1-35.74 12.44-44l-19-5.87z" fill="#d75b2b"/>
    <path d="M94.07 166.94L75 172.82c-.65 7.57-1.27 27.51 12 43.06a47.46 47.46 0 0 0 7.3 6.92z" fill="#e8ab8f"/>
    <path d="M146.88 229.82a54.81 54.81 0 0 1-12.61-11 57.47 57.47 0 0 1-13-32.47l-.62-18.6 27.26-9.09 26.75 9.58-.82 18a57.52 57.52 0 0 1-12.26 32.52 54.72 54.72 0 0 1-12 11l-1.36.92z"/>
    <path d="M147.9 161.29l24.2 8.71-.74 16.19a55.32 55.32 0 0 1-11.71 31.06 52.25 52.25 0 0 1-11.44 10.51 52.32 52.32 0 0 1-12-10.51 55.34 55.34 0 0 1-12.39-31.06l-.55-16.62 24.67-8.23M148 156l-1.64.55-4.94 1.65-19.74 6.58-3.57 1.22.12 3.73.28 8.31.28 8.31v.23a60 60 0 0 0 13.55 33.88 57.3 57.3 0 0 0 13.19 11.52l2.77 1.76 2.72-1.84a57.25 57.25 0 0 0 12.53-11.52 60 60 0 0 0 12.81-33.88v-.09l.74-16.19.17-3.69-3.48-1.24-24.2-8.66L148 156z" fill="#fff"/>
    <path d="M128.82 172.82c-.6 8.21-.89 28.61 12.81 44a46.74 46.74 0 0 0 6.47 6 46.72 46.72 0 0 0 6.34-6c13.51-15.43 13.1-35.74 12.44-44l-19-5.87z" fill="#d75b2b"/>
    <path d="M147.9 166.94l-19.08 5.88c-.65 7.57-1.27 27.51 12 43.06a47.46 47.46 0 0 0 7.3 6.92z" fill="#e8ab8f"/>
    <path d="M200.84 229.82a54.81 54.81 0 0 1-12.62-11 57.46 57.46 0 0 1-13-32.47l-.62-18.6 27.26-9.09 26.75 9.58-.82 18a57.52 57.52 0 0 1-12.26 32.52 54.72 54.72 0 0 1-12 11l-1.36.92z"/>
    <path d="M201.86 161.29l24.2 8.66-.74 16.19a55.32 55.32 0 0 1-11.71 31.06 52.25 52.25 0 0 1-11.44 10.51 52.32 52.32 0 0 1-12-10.51 55.34 55.34 0 0 1-12.39-31.06l-.55-16.62 24.67-8.23m.06-5.29l-1.64.55-24.67 8.23-3.58 1.22.12 3.73.28 8.31.28 8.31v.23a60 60 0 0 0 13.55 33.88 57.3 57.3 0 0 0 13.19 11.52l2.77 1.76 2.72-1.84a57.25 57.25 0 0 0 12.53-11.52 60 60 0 0 0 12.81-33.88v-.09l.74-16.19.17-3.69-3.48-1.24-12.1-4.33-12.1-4.33-1.63-.58z" fill="#fff"/>
    <path d="M182.78 172.82c-.6 8.21-.89 28.61 12.81 44a46.74 46.74 0 0 0 6.47 6 46.72 46.72 0 0 0 6.34-6c13.51-15.43 13.1-35.74 12.44-44l-19-5.87z" fill="#d75b2b"/>
    <path d="M201.86 166.94l-19.08 5.88c-.65 7.57-1.27 27.51 12 43.06a47.46 47.46 0 0 0 7.3 6.92z" fill="#e8ab8f"/>
    <path d="M254.53 229.82a54.81 54.81 0 0 1-12.61-11 57.47 57.47 0 0 1-13-32.47l-.62-18.6 27.26-9.09 26.75 9.58-.82 18a57.52 57.52 0 0 1-12.26 32.52 54.72 54.72 0 0 1-12 11l-1.36.92z"/>
    <path d="M255.56 161.29l24.2 8.66-.76 16.19a55.33 55.33 0 0 1-11.71 31.06 52.25 52.25 0 0 1-11.44 10.51 52.32 52.32 0 0 1-12-10.51 55.34 55.34 0 0 1-12.39-31.06l-.55-16.62 24.67-8.23m.06-5.29l-1.64.55-24.67 8.23-3.57 1.22.12 3.73.54 16.1v.75A60 60 0 0 0 240 220.42a57.3 57.3 0 0 0 13.19 11.52l2.77 1.76 2.72-1.84a57.25 57.25 0 0 0 12.53-11.52A60 60 0 0 0 284 186.45v-.09l.24-5.31.49-10.87.17-3.69-3.48-1.24-12.1-4.33-12.1-4.33-1.63-.58z" fill="#fff"/>
    <path d="M236.48 172.82c-.6 8.21-.89 28.61 12.81 44a46.74 46.74 0 0 0 6.47 6 46.72 46.72 0 0 0 6.34-6c13.51-15.43 13.1-35.74 12.44-44l-19-5.87z" fill="#d75b2b"/>
    <path d="M255.56 166.94l-19.08 5.88c-.65 7.57-1.27 27.51 12 43.06a47.46 47.46 0 0 0 7.3 6.92z" fill="#e8ab8f"/>
    <path d="M121.24 199.11a54.79 54.79 0 0 1-12.62-11 57.46 57.46 0 0 1-13-32.47L95 137l27.26-9.09 26.74 9.6-.82 18A57.52 57.52 0 0 1 136 188.06a54.72 54.72 0 0 1-12 11l-1.36.92z"/>
    <path d="M122.26 130.58l24.2 8.66-.74 16.19A55.32 55.32 0 0 1 134 186.49 52.25 52.25 0 0 1 122.58 197a52.32 52.32 0 0 1-12-10.51 55.34 55.34 0 0 1-12.39-31.06l-.55-16.62 24.67-8.23m.06-5.29l-1.64.55-14.8 4.94-9.93 3.28-3.54 1.18.12 3.73.28 8.31.28 8.31v.23a60 60 0 0 0 13.55 33.88 57.3 57.3 0 0 0 13.19 11.52l2.77 1.76 2.72-1.84a57.25 57.25 0 0 0 12.53-11.52 60 60 0 0 0 12.81-33.88v-.09l.74-16.19.17-3.69-3.48-1.24L136 130.2l-12.1-4.33-1.63-.58z" fill="#fff"/>
    <path d="M103.18 142.11c-.6 8.21-.89 28.61 12.81 44a46.74 46.74 0 0 0 6.47 6 46.72 46.72 0 0 0 6.34-6c13.51-15.43 13.1-35.74 12.44-44l-19-5.87z" fill="#d75b2b"/>
    <path d="M122.26 136.23l-19.08 5.88c-.65 7.57-1.27 27.51 12 43.06a47.46 47.46 0 0 0 7.3 6.92z" fill="#e8ab8f"/>
    <path d="M175.07 199.11a54.79 54.79 0 0 1-12.62-11 57.47 57.47 0 0 1-13-32.47l-.62-18.6 27.26-9.09 26.75 9.58-.82 18a57.52 57.52 0 0 1-12.26 32.52 54.74 54.74 0 0 1-12 11l-1.36.92z"/>
    <path d="M176.1 130.58l24.2 8.66-.74 16.19a55.32 55.32 0 0 1-11.71 31.06A52.25 52.25 0 0 1 176.41 197a52.32 52.32 0 0 1-12-10.51A55.34 55.34 0 0 1 152 155.42l-.55-16.62 24.67-8.23m.06-5.29l-1.64.55-4.94 1.65-19.74 6.58-3.54 1.18.12 3.73.28 8.31.28 8.31v.23a60 60 0 0 0 13.55 33.88 57.3 57.3 0 0 0 13.19 11.52l2.76 1.78 2.72-1.84a57.25 57.25 0 0 0 12.53-11.52 60 60 0 0 0 12.81-33.88v-.09l.37-8.09.37-8.09.17-3.69-3.47-1.27-24.2-8.66-1.63-.58z" fill="#fff"/>
    <path d="M157 142.11c-.6 8.21-.89 28.61 12.81 44a46.74 46.74 0 0 0 6.47 6 46.72 46.72 0 0 0 6.34-6c13.51-15.43 13.1-35.74 12.44-44l-19-5.87z" fill="#d75b2b"/>
    <path d="M176.1 136.23l-19.1 5.88c-.65 7.57-1.27 27.51 12 43.06a47.46 47.46 0 0 0 7.3 6.92z" fill="#e8ab8f"/>
    <path d="M229 199.11a54.81 54.81 0 0 1-12.61-11 57.46 57.46 0 0 1-13-32.47l-.62-18.6 27.26-9.09 26.75 9.58-.82 18a57.52 57.52 0 0 1-12.26 32.52 54.72 54.72 0 0 1-12 11l-1.36.92z"/>
    <path d="M230.06 130.58l24.2 8.66-.74 16.19a55.32 55.32 0 0 1-11.71 31.06A52.25 52.25 0 0 1 230.37 197a52.32 52.32 0 0 1-12-10.51 55.34 55.34 0 0 1-12.39-31.06l-.55-16.62 24.67-8.23m.06-5.29l-1.64.55-12.34 4.11-12.34 4.11-3.54 1.18.12 3.73.28 8.31.28 8.31v.23a60 60 0 0 0 13.52 33.88 57.3 57.3 0 0 0 13.19 11.52l2.77 1.76 2.72-1.84a57.25 57.25 0 0 0 12.53-11.52 60 60 0 0 0 12.81-33.88v-.09l.74-16.19.17-3.69-3.48-1.24-12.1-4.33-12.1-4.33-1.63-.58z" fill="#fff"/>
    <path d="M211 142.11c-.6 8.21-.89 28.61 12.81 44a46.74 46.74 0 0 0 6.47 6 46.72 46.72 0 0 0 6.34-6c13.51-15.43 13.1-35.74 12.44-44l-19-5.87z" fill="#d75b2b"/>
    <path d="M230.06 136.23L211 142.11c-.65 7.57-1.27 27.51 12 43.06a47.46 47.46 0 0 0 7.3 6.92z" fill="#e8ab8f"/>
    <path d="M116.4 128.37c0 6.6 1 26.77 15.92 43.17a58.79 58.79 0 0 0 15.54 12.08 57.4 57.4 0 0 0 15.61-12.79c14.07-16.52 14.23-36.23 14-42.46zm107.6 0c0 6.6 1 26.77 15.92 43.17a58.79 58.79 0 0 0 15.54 12.08 57.4 57.4 0 0 0 15.61-12.79c14.07-16.52 14.23-36.23 14-42.46z" fill="#fff"/>
    <path d="M62.5 128.37c0 6.6 1 26.77 15.92 43.17A58.79 58.79 0 0 0 94 183.62a57.4 57.4 0 0 0 15.61-12.79c14.07-16.52 14.23-36.23 14-42.46zm107.79 0c0 6.6 1 26.77 15.92 43.17a58.79 58.79 0 0 0 15.54 12.08 57.4 57.4 0 0 0 15.61-12.79c14.07-16.52 14.23-36.23 14-42.46z" fill="#fff"/>
    <path d="M88.95 167.81l-.12-.12zm4.81 4.24a46.71 46.71 0 0 0 6.34-6c13.16-15 13.11-34.67 12.49-43.3h-19zm-2.85-2.38l-.51-.45zm2.85 2.38c-.57-.44-1.14-.9-1.71-1.38q.85.72 1.71 1.38z" fill="#d75b2b"/>
    <path d="M86.46 165.14c.77.91 1.57 1.75 2.37 2.56q-.78-.79-1.54-1.65c-13.34-15-13.42-34.7-12.86-43.3-.63 8.02-.85 27.25 12.03 42.39zm3.94 4.08q-.73-.68-1.45-1.41c.48.49.96.96 1.45 1.41zm1.6 1.46c-.38-.32-.76-.66-1.14-1 .43.32.81.68 1.14 1z" fill="#e8ab8f"/>
    <path d="M74.43 122.75c-.56 8.6-.48 28.33 12.86 43.3q.76.85 1.54 1.65l.12.12q.72.73 1.45 1.41l.51.45c.38.34.76.68 1.14 1 .57.48 1.14.94 1.71 1.38l-.17-49.3z" fill="url(#a)"/>
    <path d="M144.74 169.67l-.51-.45zm2.85 2.38a46.72 46.72 0 0 0 6.34-6c13.16-15 13.11-34.67 12.49-43.3h-19zm-4.81-4.24l-.12-.12zm4.81 4.24c-.57-.44-1.14-.9-1.71-1.38q.85.72 1.71 1.38z" fill="#d75b2b"/>
    <path d="M140.29 165.14c.77.91 1.57 1.75 2.37 2.56q-.78-.79-1.54-1.65c-13.34-15-13.42-34.7-12.86-43.3-.62 8.02-.84 27.25 12.03 42.39zm3.94 4.08q-.73-.68-1.45-1.41c.48.49.97.96 1.45 1.41zm1.65 1.46c-.38-.32-.76-.66-1.14-1 .38.32.76.68 1.14 1z" fill="#e8ab8f"/>
    <path d="M128.27 122.75c-.56 8.6-.48 28.33 12.86 43.3q.76.85 1.54 1.65l.12.12q.72.73 1.45 1.41l.51.45c.38.34.76.68 1.14 1 .57.48 1.14.94 1.71 1.38l-.17-49.3z" fill="url(#b)"/>
    <path d="M198.7 169.67l-.51-.45zm-1.96-1.86l-.12-.12zm4.81 4.24c-.57-.44-1.14-.9-1.71-1.38q.85.72 1.71 1.38zm0 0a46.72 46.72 0 0 0 6.34-6c13.16-15 13.11-34.67 12.49-43.3h-19z" fill="#d75b2b"/>
    <path d="M199.84 170.68c-.38-.32-.76-.66-1.14-1 .38.32.76.68 1.14 1zm-1.65-1.46q-.73-.68-1.45-1.41c.48.49.96.96 1.45 1.41zm-3.94-4.08c.77.91 1.57 1.75 2.37 2.56q-.78-.79-1.54-1.65c-13.34-15-13.42-34.7-12.86-43.3-.62 8.02-.84 27.25 12.03 42.39z" fill="#e8ab8f"/>
    <path d="M182.22 122.75c-.56 8.6-.48 28.33 12.86 43.3q.76.85 1.54 1.65l.12.12q.72.73 1.45 1.41l.51.45c.38.34.76.68 1.14 1 .57.48 1.14.94 1.71 1.38l-.17-49.3z" fill="url(#c)"/>
    <path d="M255.25 172.05c-.57-.44-1.14-.9-1.71-1.38q.85.72 1.71 1.38zm-4.81-4.24l-.12-.12z" fill="#d75b2b"/>
    <path d="M255.25 172.05a46.71 46.71 0 0 0 6.34-6c13.16-15 13.11-34.67 12.49-43.3h-19q.08 24.65.17 49.3zm-2.85-2.38l-.51-.45z" fill="#d75b2b"/>
    <path d="M247.95 165.14c.77.91 1.57 1.75 2.37 2.56q-.78-.79-1.54-1.65c-13.34-15-13.42-34.7-12.86-43.3-.63 8.02-.85 27.25 12.03 42.39zm3.94 4.08q-.73-.68-1.45-1.41c.48.49.96.96 1.45 1.41zm1.65 1.46c-.38-.32-.76-.66-1.14-1 .38.32.76.68 1.14 1z" fill="#e8ab8f"/>
    <path d="M235.92 122.75c-.56 8.6-.48 28.33 12.86 43.3q.76.85 1.54 1.65l.12.12q.72.73 1.45 1.41l.51.45c.38.34.76.68 1.14 1 .57.48 1.14.94 1.71 1.38q-.09-24.65-.17-49.3z" fill="url(#d)"/>
    <path d="M280.61 123l-6.53-.29c.62 8.63.67 28.27-12.49 43.3a46.71 46.71 0 0 1-6.34 6q-.86-.66-1.71-1.38c-.38-.32-.76-.67-1.14-1l-.51-.45c-.49-.45-1-.92-1.45-1.41l-.12-.12c-.8-.81-1.6-1.65-2.37-2.56-12.88-15.11-12.65-34.36-12-42.39h-15.57c.62 8.63.67 28.27-12.49 43.3a46.72 46.72 0 0 1-6.34 6q-.86-.66-1.71-1.38c-.38-.32-.76-.67-1.14-1l-.51-.45c-.49-.45-1-.92-1.45-1.41l-.12-.12c-.8-.81-1.6-1.65-2.37-2.56-12.88-15.11-12.65-34.36-12-42.39h-15.82c.62 8.63.67 28.27-12.49 43.3a46.72 46.72 0 0 1-6.34 6q-.86-.66-1.71-1.38c-.38-.32-.76-.67-1.14-1l-.51-.45c-.49-.45-1-.92-1.45-1.41l-.12-.12c-.8-.81-1.6-1.65-2.37-2.56-12.88-15.11-12.65-34.36-12-42.39h-15.71c.62 8.63.67 28.27-12.49 43.3a46.71 46.71 0 0 1-6.34 6q-.86-.66-1.71-1.38c-.38-.32-.76-.67-1.14-1l-.51-.45c-.49-.45-1-.92-1.45-1.41l-.12-.12c-.8-.81-1.6-1.65-2.37-2.56-12.88-15.11-12.65-34.36-12-42.39h-5v12.37c.45 5.92 2.33 19.34 12.43 31.36a52.35 52.35 0 0 0 12 10.51 52.25 52.25 0 0 0 11.44-10.51A55.32 55.32 0 0 0 117 135.39l.36-7.94h5.63l.26 7.91a55.34 55.34 0 0 0 12.39 31.06 52.32 52.32 0 0 0 12 10.51 52.25 52.25 0 0 0 11.44-10.51 55.33 55.33 0 0 0 11.71-31.06l.36-7.94h5.75l.26 7.91a55.34 55.34 0 0 0 12.39 31.06 52.32 52.32 0 0 0 12 10.51 52.25 52.25 0 0 0 11.44-10.51 55.33 55.33 0 0 0 11.71-31.06l.36-7.94h5.49l.26 7.91a55.34 55.34 0 0 0 12.39 31.06 52.32 52.32 0 0 0 12 10.51 58.64 58.64 0 0 0 11.44-10.51 61.34 61.34 0 0 0 13.41-31.67 63.48 63.48 0 0 0 .56-11.69z"/>
</svg>
