<svg xmlns="http://www.w3.org/2000/svg" viewBox="0 0 350 350">
    <defs>
        <clipPath id="a">
            <path fill="none" d="M78.63 78.96h193.02v192.81H78.63z"/>
        </clipPath>
    </defs>
    <path fill="#fff" d="M59.87 60h230.26v230H59.87z"/>
    <path d="M69.18 69.39h211.64v211.4H69.18z"/>
    <path fill="#478b40" d="M78.63 78.96h193.02v192.81H78.63z"/>
    <path d="M226.5 172q11-21.31 22-42.67 14.57-28.38 29-56.83h-201v48.58a249.1 249.1 0 0 0 7.38 12.79c3.64 5.91 6.76 10.44 10.25 15.5 8.41 12.19 10.67 14.52 13.5 21a65.86 65.86 0 0 1 3.38 9.75c2.59 9.55 14.41 35.47 46.5 95.88h69c.48-1 1.18-2.41 2-4.17 3.35-7.19 5.45-12.76 5.67-13.33 3.35-9 .88-21.29.17-25-2.72-14.07-5.19-34.31-7.85-61.5zm-121.33-23.83c-.87.34-4.57-6.12-6.92-12.17-1.17-3-1.36-4.28-2.91-7.87a72.81 72.81 0 0 0-3.84-7.63c-2.08-3.66-11.56-20.64-10.5-21.37.68-.45 6.61 4.5 9.17 11.5.89 2.44 1.28 4.88 3.46 8.21 1.33 2 1.92 2.26 3.08 4.33 1.53 2.74 1.45 4 2.67 7.42 1.48 4.1 2.22 3.9 3.75 7.75 1.77 4.35 2.77 9.54 2.04 9.83zm-20.5.83c-.66.4 1.57 5.29 4.08 8.94.8 1.16 1.61 2.33 1.94 2.19.52-.23-.22-3.72-1.94-6.69-1.37-2.36-3.57-4.75-4.08-4.44z"/>
    <path d="M251.83 142.5a79.79 79.79 0 0 1 8.33-15 239.08 239.08 0 0 0 15.33-27.17l.5-15.17c-2.86 4.53-6.87 11.08-11.33 19.17-6.39 11.57-14.26 26-21 45.51a232.41 232.41 0 0 0-7.21 25.82 64.77 64.77 0 0 0 10.83-19c1.98-5.4 2.02-7.97 4.55-14.16zm7.67-3.67c-5.28 9.18-4.59 7.48-7.67 13-7.38 13.23-13.09 26.13-13 26.17 10.14-10.71 10.2-10.81 10.33-11 9-13.55 8.29-11.88 9.8-14.7 2.81-5.28 2.84-6.64 6.58-13.37 2.17-3.9 4.14-7 6.79-9.43l3.67-3.33 1.5-17c-1.61 2.3-4 5.86-6.83 10.33-4.14 6.63-6.02 10.38-11.17 19.33z"/>
    <path d="M136.25 249.5c-.49 0-.16-6.59-1.69-17.06-.63-4.34-1.27-7.18-1.62-8.94-1.23-6.12-2.32-15.67-1.44-30.33l27-12.33 3.06-111.15 13.44-52 13.44 52.89.7 99.44L219 158l9.25 14.75c1.48.15 3.58.41 6.08.92 5.31 1.07 8 1.6 10.15 3.43a12.1 12.1 0 0 1 4.26 9.07c0 5.25-4 10.22-9.92 12.17l16.5 40.16a16.22 16.22 0 0 1-18.74 2.84 28 28 0 0 0 .67 5.83c.37 1.65.67 2.33 1 3.75a23.25 23.25 0 0 1 .5 6.83L200 265.33l-61.17-36c-1.49 16.41-2.2 20.19-2.58 20.17z"/>
    <path d="M185.17 270.75l-44.17 1c-.13-8.72-.48-21.6-1.5-37.27-1.43-22.07-2.82-28.65 1.75-35.75 3.77-5.85 8-6.53 30-15 34.32-13.23 38.76-17.29 45.75-14 4.24 2 5 4.61 16.77 31 11.88 26.63 15.79 34.47 13.23 36.5-2.14 1.69-8-1.29-11.37-4.87a19.16 19.16 0 0 1-4.5-9.62c-4.35-20.23-2.17-27.36-7.37-33.37-4.1-4.75-10.1-5.76-11.75-6-2.84-.41-4.81 0-14.75 3.06-10.25 3.17-15.45 4.79-19.31 6.63-5.82 2.76-13.56 7.25-13.06 8.44s10.76-1.68 16.56-3.37c7.26-2.12 15.06-4.75 15.06-4.75 6.92-2.33 9.84-3.52 14.19-2.94a16.83 16.83 0 0 1 7.63 2.75c4.79 3.46 4.2 8.47 7.44 27.94 2.19 13.17 3.28 19.75 3.63 21 1.55 5.58 2.89 8.6 1.5 9.88-2.16 2-10.35-.77-13.5-6.5-2.61-4.76.37-7.7 1.1-22 .6-11.71-1.12-15.33-3.35-17.49a13.08 13.08 0 0 0-6.12-3.12c-3.89-.94-7.49-.17-12.87 2-8.45 3.4-19.44 9.47-18.69 11.25.54 1.28 6.91-.11 10-1 6-1.73 7.13-3.7 12.75-4.87 4-.83 7-1.45 9.19.13 1.09.78 2.9 2.74 2 16.88-.59 9.17-.88 13.75-2.87 18.63-2.8 6.85-8.4 14.56-11.37 13.63-2.36-.74-2.47-6.77-2.5-8.62-.08-4.71 1.27-6.54 2.75-14.87 1.19-6.7.76-8 0-8.5-.93-.61-2.3 0-6.25 2-2.19 1.08-5.17 2.57-8.75 4.38a54.9 54.9 0 0 1 3.58 11.31 56.55 56.55 0 0 1-.83 25.5zm46.58-93c1-1.21 6.48 2 7.5 2.58 2.66 1.55 5.55 3.23 5.42 5.25-.05.82-.57 1.3-2.5 3.17-2.09 2-3.68 3.6-4.5 4.42a36.67 36.67 0 0 0-3.33-9.67c-1.67-3.25-3.19-5.02-2.59-5.75zM175 36l-10.25 54.17v82.91a12.14 12.14 0 0 0-3.67 7.46L185 171V92zm0 133.29c-.29-4.82-.68-12-.94-20.83-.39-13.54-.24-22.66-.1-36.81.09-9.47.19-23.39.19-40.71l.85-16.73.81 16.87v77.88zm34.41-45.6c.92-.14 4-.71 4.78-2.78.2-.56.17-1.08-.12-2.72-.23-1.34-.59-3.16-1.12-5.31l10.59-5.64c0 2.08.15 3.82.28 5.09.24 2.31.47 3 1 3.23.73.33 1.76-.3 2.7-.87a4.63 4.63 0 0 0 1.61-1.31c.69-1 .35-2 .31-4.27v-4l10.06-5c-4.91 9.94-8.75 18-11.25 23.33C220 141 218 146.36 211.88 151.38c-6.81 5.62-14.58 7.45-19.94 8.13v-25.95a13.6 13.6 0 0 1 2.56-3.65c2.17-2.19 4.22-2.7 7.75-4.58a46.82 46.82 0 0 0 5.75-3.65" fill="#fff"/>
    <path d="M192.63 112a12.93 12.93 0 0 0 3.38 1.71c5.39 1.78 9.86-.84 11.14 1 .59.87.12 2.14-.12 2.78-.48 1.28-1.58 2.49-5.23 4a35.61 35.61 0 0 1-9.21 2.46zm-2.91-33.78c0 2.08.07 5.09.41 8.72a36.15 36.15 0 0 0 .8 6.08c.63 2 1.82 4.15 9.58 11.29 1.47 1.35 3.54 3.22 6.08 5.4a64.27 64.27 0 0 0-2-10.38c-.59-2.14-1.15-3.7-.33-4.62 1-1.12 3.69-1 5.29.38a4.35 4.35 0 0 1 1.2 1.7l.84 11 11.5-5.87a39 39 0 0 0-2.5-8.82c-.49-1.16-1.27-2.8-.55-4.12a3.9 3.9 0 0 1 2.33-1.6c.57-.17 2.08-.68 3 .08.19.16.44.43.81 1.71a11.19 11.19 0 0 1 .57 2.84 50.54 50.54 0 0 0 1.6 8.17c.9-.34 18.61-7 27.21-12.18 2.53-1.52 5.44-3.6 6.15-6.94a7.75 7.75 0 0 0 .06-2.83zM108.38 99.5l10.5 5.63c-.11 1.88-.11 3.46-.08 4.63.08 3.12.36 3.81.79 4.33.86 1.06 2.55 1.78 3.53 1.24s1-2.2 1.06-5.57v-2.67l11.2 5.3c-.08 3.34-.3 6.06-.5 8-.38 3.71-.81 5.94.3 6.63a2.35 2.35 0 0 0 2.31-.25c.89-.59 1.11-1.65 1.35-2.8a8.52 8.52 0 0 0 .17-2.17l18 11.63v26.07c-11.11-2.71-17.73-7.51-21.75-11.5-7.55-7.48-8.75-14.84-20.87-37.62-2.47-4.62-4.59-8.38-6.01-10.88zm49.12 12.83a31.44 31.44 0 0 1-10.83 1.75c-2.94-.06-5.9-.58-6.39.52-.34.77.7 1.92 1.14 2.39 3.66 4 11.88 6 15.92 6.79zM86.19 77.88a10 10 0 0 0 .25 2.06c1.19 5.2 6.34 8.18 12.94 11.44a212.39 212.39 0 0 0 20.69 8.88q.56-2.79 1.31-5.75a6.11 6.11 0 0 1 1.75-3.44 2.46 2.46 0 0 1 1.82-.75c1.11.13 1.74 1.41 1.83 1.61.66 1.41 0 2.63-.71 5.89-.25 1.06-.52 2.36-.75 3.88l11.19 4.44a31.36 31.36 0 0 1 1.71-9.67c.41-1.05 1-2.11 1.92-2.33a2.43 2.43 0 0 1 2.13.71c1.39 1.39.37 3.83-.12 9.63-.12 1.45-.17 2.64-.19 3.38a1.76 1.76 0 0 0 .53.33c2.07.83 4.72-3 11-8.75 2.8-2.55 3.33-2.76 4.21-4.17.58-.93 1.48-2.66 2.12-7.87a61.2 61.2 0 0 0 .42-9.5z" fill="#fff"/>
</svg>
