<svg xmlns="http://www.w3.org/2000/svg" viewBox="0 0 350 350">
    <defs>
        <clipPath id="a">
            <path fill="none" d="M79 79h192v192H79z"/>
        </clipPath>
    </defs>
    <path fill="#fff" d="M59.96 59.96h230.08v230.08H59.96z"/>
    <path fill="#060809" d="M69.5 69.5h211v211h-211z"/>
    <path fill="#187fa3" d="M79 79h192v192H79z"/>
    <path d="M258.92 228l2.92.42 8.5-8a46 46 0 0 0-8.5-4.67c-6.44-2.68-12.16-3.28-12.33-5.5a1.69 1.69 0 0 1 .42-1.17c1.42-1.59 6 .47 6.83.83 2.75 1.23 2.3 1.81 4.17 2.5 3.45 1.27 5.29-.61 9.25.25a12.07 12.07 0 0 1 4.67 2.17v-69.5l-3.33.42a15.51 15.51 0 0 1-8.19-3.69c-2.26-2.06-2.58-3.82-4.94-5.75a14.08 14.08 0 0 0-7.31-2.94 18.31 18.31 0 0 1 5.56 3.94 18 18 0 0 1 2.25 2.88 33.76 33.76 0 0 1-26.37-2.52 57.19 57.19 0 0 0 12.25-3.85 34.3 34.3 0 0 0-7.69-.62c-2.52.09-5.05-.12-7.56.13-1.3.13-2.73.32-3.25-.44s.4-1.77-.06-3.25c-.31-1-1-1.38-1.56-2-.87-.94-1.68-2.65-1.37-6-1 3.32-.72 5.2-.19 6.31a7.07 7.07 0 0 1 .88 3.19 6.18 6.18 0 0 1-.19 1.56 37 37 0 0 0-13.06 1.81c.23-.08 3.23-1.09 3.19-2.5 0-.53-.46-1-1.25-1.5-2.66-1.84-4.85-2.07-7.5-3.19a36.91 36.91 0 0 1-3.69-2.06 31.42 31.42 0 0 0-9.97-3.26c1.75.81 6.33 3 6 4.38-.17.69-1.41.42-7.81 1.38-2.29.34-4.2.69-5.44-.44-.64-.58-.39-.9-1-1.44-1.55-1.35-3.7.27-6.12-.69-1.26-.49-1.47-1.24-2.62-2.31-1.38-1.29-3.74-2.7-8-3a6.62 6.62 0 0 1 1.38-2.27c2.29-2.44 5.78-2.12 5.79-2.65s-2.1-1.24-8.75-1.67c-7.68-.5-9.13.32-13.83 0-5.17-.36-8.78-1.74-16-4.5-9.62-3.68-8.13-4.83-13.33-5.83-1.57-.3-8.65-1.53-9-3.87a3.57 3.57 0 0 0-.5-1.79 3.41 3.41 0 0 0-1.64-1.3c-1.55-.6-12.17-4.52-26.79-9.83 10.44 4.65 18 7.92 21.42 9.05a12.08 12.08 0 0 1 5.69 3.22 17.66 17.66 0 0 0 1.88 2.13 9.93 9.93 0 0 0 4.63 2.13c5.1 1.08 8.68 5.66 17.65 9a55 55 0 0 0 13.58 2.92 75 75 0 0 0 12.92.42 2.24 2.24 0 0 1 1.75.75c.73 1.09-.51 3-1.08 3.83a9.58 9.58 0 0 1-3.08 2.92 34.48 34.48 0 0 0-7.67-1.08c-6.06-.17-11.89 1.3-11.83 1.92 0 .16.44.33 5.75.58 10 .47 14.1.15 14.17.67s-5.84 2.07-11.58 3a105.53 105.53 0 0 1-14.5 1.33c-16.91.41-27.33.33-27.33.33-11.38-.08-17.32-.27-24.75 3a39 39 0 0 0-5.46 2.88l-.33 81.33A25.83 25.83 0 0 1 90 219.33a24.89 24.89 0 0 1 6.33 4.83c3.9.29 9.87.6 17.17.46s12.83-.7 14.63-.87c11.7-1.13 24-1.18 45-1.25 32.23-.11 53.47 1.55 53.5 1.13s-23-1.59-23-2.19 13.73-.22 13.73-.34-6.9-.25-13.84-.31h-4c-3.55-.05-8.54-.22-14.7-.75a13.25 13.25 0 0 0 8-4.5 84 84 0 0 1 16.17.83c5.13.78 9.37 1.93 15.17.83a28 28 0 0 0 6.67-2.17c-.62 1.85-1.64 5.68.25 7.75 1.13 1.24 2.78 1.29 4.58 1.42 7.84.52 15.48 2.7 23.26 3.8zm-76.85-10.87a16.82 16.82 0 0 0-3.06 1.44 16.34 16.34 0 0 0-1.56 1.06c-2.71 2.05-11.62.74-19.75 1-3.82.12-7 .57-7.87-1.06a2.71 2.71 0 0 1 0-2.12c1-2.87 5.54-3.88 9.25-4.44 13.9-2.08 31.9 0 31.81 1.38-.06.69-4.55 1.21-8.83 2.74zM133.06 92.44c1.48 1 3.65 1 3.88.38s-2-2-2.44-2.31-2.53-1.55-3-1.06.31 2.1 1.56 2.99zm12.38 4.75c.86.29 6.85 2.3 7.5 1.06.25-.48-.36-1.32-.81-1.75-.94-.88-2-.76-3.47-1-2.84-.42-2.81-1.54-5.87-2.19-1.74-.37-4.3-.54-4.47 0-.24.84 3.96 2.82 7.12 3.88z" fill="#060809"/>
    <path d="M174.29 112.29c1.72.81 4.43 1.52 4.83.79s-1-2.29-2.58-3c-2-1-4.67-.49-4.83.25s1.99 1.67 2.58 1.96zm.25 2.92c-.1.47 2.06 1.14 6.42 2.94 6.25 2.57 8.66 4 8.83 3.73s-4.47-3.39-6.67-4.77a12.72 12.72 0 0 0-4.67-2.06c-1.71-.34-3.81-.29-3.91.16zm56.71 4.1a12 12 0 0 0 3 1.5c4.54 2 6 3.8 6.56 3.31s-.14-3.12-1.94-4.5c-1.28-1-2.17-.64-4.12-1.25-4-1.26-5.66-4.4-6.19-4s.44 3.18 2.69 4.94zm-22-4.22c.48 0 .84-.76.92-.93.68-1.46-.09-3.56-1.51-4.64-1-.78-2.51-1.13-2.82-.7s.49 1 1.51 2.89c1.11 2.11 1.28 3.38 1.9 3.38zm62.25 138.24c-4.15 2-5.8 4.34-10.75 6.58-2.54 1.15-3.26 1.06-3.58.75-.78-.76.46-3.25 1.17-4.67a21 21 0 0 1 3.17-4.67 28.89 28.89 0 0 1 6.58-5.25c3-1.87 3.87-1.84 5-3.25a8.89 8.89 0 0 0 1.75-5.33 43.42 43.42 0 0 1-6.92 1.08c-6 .44-8.41-.64-12 1.08a8.15 8.15 0 0 0-4.17 3.5c-1.53 3.07.71 5.46-.58 8.75-.58 1.47-1.19 1.41-4.83 4.58-4.9 4.26-4.62 5.09-9.5 9.25-3.14 2.68-5 3.85-4.83 4.17.33.58 5.92-4 14.58-5.08 3.07-.4 5-.17 8.83-1.25 3.1-.87 2.91-1.31 6.25-2.17 3-.77 4.71-.82 8.25-2a10.1 10.1 0 0 0 3.33-1.5c2.25-1.83 2.66-4.79 2.75-6.25a24.28 24.28 0 0 0-4.5 1.68zm-50-24.08c-1 .88-1.61 2.32-1.25 2.67s1.84-.47 2.75-1.33c.7-.66 1.63-1.85 1.33-2.25s-1.82.01-2.83.91zm-10.75 7.25a7.35 7.35 0 0 0-1.17 1.75 11.05 11.05 0 0 0 4.58-1c1.92-.89 4.2-2.64 3.92-3.25s-4.8-.31-7.33 2.5zm-22 8.08c-1.34-.81-3.59.21-4.25 1.92a3.76 3.76 0 0 0 .58 3.33 3.43 3.43 0 0 0 3.92-.58c1.3-1.36 1.08-3.86-.25-4.67zm-87.5-8.89c-.1-.82-4.74-1.46-8.94 0-2.49.86-5 2.53-4.81 3.19.29.85 5.2-.14 7.63-.75 1.42-.37 6.23-1.59 6.12-2.44zm.63 9.69c-2.9.81-5.85 2.37-5.69 2.94.21.73 5.46-.23 7.63-.69.82-.17 7.29-1.54 7.19-2.37s-4.72-1.11-9.13.12z" fill="#060809"/>
    <path d="M115.17 244.5a10.51 10.51 0 0 1-10.5-10.5V112.25a10.51 10.51 0 0 1 10.5-10.5H235a10.51 10.51 0 0 1 10.5 10.5V234a10.51 10.51 0 0 1-10.5 10.5zm-3.92-14a5.61 5.61 0 0 0 2.53 5.54 4.94 4.94 0 0 0 2.48.65h117.15a6.4 6.4 0 0 0 3.93-1.68 5.15 5.15 0 0 0 1.28-3.48V114.66a5.48 5.48 0 0 0-2-4.17 5.8 5.8 0 0 0-3.16-1.15c-1.19-.08-12-.11-33.18-.11-32.48 0-78 .09-83.54.1a4.61 4.61 0 0 0-.49 0 5.08 5.08 0 0 0-3.59 1.45 5.14 5.14 0 0 0-1.44 4.08z" fill="#fff"/>
    <path d="M235 103.25a9 9 0 0 1 9 9V234a9 9 0 0 1-9 9H115.17a9 9 0 0 1-9-9V112.25a9 9 0 0 1 9-9H235m-118.16 4.58h-.56a6.54 6.54 0 0 0-4.65 1.89 6.64 6.64 0 0 0-1.88 5.22v115.52a7.09 7.09 0 0 0 3.28 6.91 6.45 6.45 0 0 0 3.23.85h117.18a7.88 7.88 0 0 0 5-2.15 6.6 6.6 0 0 0 1.69-4.46V114.64a7 7 0 0 0-2.52-5.32 7.31 7.31 0 0 0-4-1.48c-.78 0-5.07-.11-33.26-.11-32.55 0-77.66.09-83.49.1M235 100.25H115.17a12 12 0 0 0-12 12V234a12 12 0 0 0 12 12H235a12 12 0 0 0 12-12V112.25a12 12 0 0 0-12-12zm-118.31 10.58c5 0 50.91-.1 83.64-.1 17.85 0 31.78 0 33.07.11a4.31 4.31 0 0 1 2.31.82 4 4 0 0 1 1.41 3V231.5a3.63 3.63 0 0 1-.87 2.5 4.92 4.92 0 0 1-2.81 1.21H116.26a3.43 3.43 0 0 1-1.73-.44 4.14 4.14 0 0 1-1.78-4.16V114.75a3.63 3.63 0 0 1 1-2.94 3.57 3.57 0 0 1 2.53-1 3.07 3.07 0 0 1 .41 0z"/>
    <path d="M291.88 181.34v-10.96l14.52-14.52v-13.73H43.58v13.86l14.3 14.3v10.96l-14.3-14.3v37.26H306.4v-37.4l-14.52 14.53z"/>
    <path fill="#fff" d="M269.84 177.75l-15.5 14.92-15.46-14.92-16.44 14.92-15.56-14.92-16.07 14.92-15.78-14.92-15.59 14.92-15.91-14.92-16 14.92-15.62-14.92-16 14.92-15.85-14.92-15.62 14.92-16.39-14.92v21.96H301.9v-21.96l-15.59 14.92-16.47-14.92zM48.05 146.48v8.44l16.51 15.52 15.52-14.56 15.5 14.56 16.47-14.56 15.49 14.56 16.23-14.56 15.78 14.56 15.54-14.56 15.46 14.56 16.43-14.56 15.5 14.56 16.43-14.56 15.5 14.56 15.51-14.56 15.55 14.56 16.43-14.56v-9.4H48.05z"/>
    <circle cx="63.96" cy="156.29" r="3.5"/>
    <circle cx="79.38" cy="192.04" r="3.5"/>
    <circle cx="270.02" cy="192.04" r="3.5"/>
    <circle cx="286.18" cy="156.3" r="3.5"/>
</svg>
