<svg xmlns="http://www.w3.org/2000/svg" viewBox="0 0 350 350"><defs><radialGradient id="a" cx="175.13" cy="175" r="96" gradientTransform="matrix(1 0 0 1.2 0 -35)" gradientUnits="userSpaceOnUse"><stop offset="0" stop-color="#fd6566"/><stop offset=".12" stop-color="#fb6465" stop-opacity=".98"/><stop offset=".25" stop-color="#f56061" stop-opacity=".93"/><stop offset=".37" stop-color="#ec595a" stop-opacity=".85"/><stop offset=".5" stop-color="#df5051" stop-opacity=".74"/><stop offset=".63" stop-color="#cd4545" stop-opacity=".59"/><stop offset=".76" stop-color="#b83737" stop-opacity=".41"/><stop offset=".89" stop-color="#a02626" stop-opacity=".2"/><stop offset="1" stop-color="#891716" stop-opacity="0"/></radialGradient></defs><path fill="#fff" d="M59.87 60h230.26v230H59.87z"/><path fill="#891716" d="M78.88 79h192.25v192H78.88z"/><path fill="url(#a)" d="M79.13 79h192v192h-192z"/><path d="M69.18 69.39v211.4h211.64V69.39zM271 271H79V79h192z"/><path d="M77 83.5s2.63-5.75 7.5-7-5.75-3.25-5.75-3.25L75.5 83.5zm1.25 3.38s4.63-8.5 10.38-11.25 7.25-2.37 7.25-2.37l.63 3.25S84.32 84 76.75 96.75s-4.75 4.5-4.75 4.5zm-2.33 13.45a55 55 0 0 1 10.75-10.41c.65-.45 2.59-1.64 2.83-1.35s-1.47 1.92-6.33 7.2c-3.91 4.25-5.89 6.36-6.42 7.24-3 5.07-.83-2.68-.83-2.68z" stroke="#000" stroke-miterlimit="10"/><path d="M169.75 265.25c-36.22-4.94-63.61-32.61-73.12-54.25A100 100 0 0 1 89 179a86.43 86.43 0 0 1 2-22.26 82.16 82.16 0 0 1 15.25-33.37c7.94-10.19 18.45-18.32 17.13-20.12-.92-1.27-8.26-.24-13.26 2.63-.81.47-2.68 1.55-3.89.94-1.54-.78-1.48-3.44-1.48-3.44 2.13-9.5 30.13-28.5 30.13-28.5-9.67-1.83-16.54-.26-20.5 1.12-10.11 3.52-16.58 11.22-29.09 26.49-4.29 5.24-7.61 9.72-9.79 12.76-.09 1.4-.11 3 .34 3.13s1.12-1.23 1.33-1.63c2.25-4.42 8.17-10.5 8.17-10.5.86-.95 1.86-2 2.06-1.84s-1.9 3.87-2.15 4.26a70.79 70.79 0 0 1-8 10.33l-4.17 3.42 1.67 122.66s-6.33 3.42 2.08 13.75a62.36 62.36 0 0 0 18.25 15.25l19.62-.18c-.69-.26-1.5-.58-2.45-1-12-5-23.5-19.67-24.42-21.84s-3.75-13.16 2.17-.91 23.83 21.16 23.83 21.16a35.89 35.89 0 0 1 3.57 2.55l84.6-.76s28.12 11.13 46.5 1 25-22.37 25-22.37l.88-50.25c-19.6 43.9-63.09 69.44-104.63 63.77zm102.63-46.63c.67.86-.73 3.32-2.48 4.83s-3.71 2.15-4 1.8c-.11-.16 0-.72 1.06-1.55a13.93 13.93 0 0 0 3.94-5.38c.92-.12 1.3.07 1.48.3z"/><path d="M258.08 75.58s10.75 2.08 17.5 15.08-1.2 1.42-1.2 1.42-8.38-13.16-16.3-15.33 0-1.17 0-1.17zm-20.14-1.46c11.45 9.29 13.75 11.72 13.5 12.07s-3.51-1.25-6.25-3.25c-4.75-3.48-6.09-6.76-10.57-8.55-.56-.23-1.67-.63-1.63-.81.09-.37 4.95.54 4.95.54zm-9.86.38s19.17 12.75 25.58 20.17c.81.93 2.91 3.63 2.56 4s-3.24-2.07-7.17-5.27c-11.91-9.69-17.86-14.53-24.06-18-2.16-1.21-4.89-2.62-4.74-3s4.29.87 7.83 2.1z" stroke="#000" stroke-miterlimit="10"/><circle cx="176.67" cy="175" r="83" fill="none" stroke="#fff" stroke-miterlimit="10" stroke-width="7"/><circle cx="176.67" cy="175" r="49.8" fill="#fff"/><circle cx="176.67" cy="175" r="25"/><g data-name="Crosshair"><path d="M173.67 113.5h6v123h-6z"/><path d="M113.83 172.25H239.5v5.5H113.83zm57.91-67.13v-53.5h9.85v53.5z"/><path fill="#fff" d="M173.87 105.13v-53.5h5.5v53.5z"/><path d="M171.74 299.79v-53.5h9.85v53.5z"/><path fill="#fff" d="M173.86 299.8v-53.5h5.5v53.5z"/><path d="M246.92 169.73h53.5v9.85h-53.5z"/><path fill="#fff" d="M246.92 171.85h53.5v5.5h-53.5z"/><path d="M52.25 170.16h53.5v9.85h-53.5z"/><path fill="#fff" d="M52.25 172.29h53.5v5.5h-53.5z"/></g><circle cx="176.67" cy="175" r="5.83" fill="#fff"/></svg>