<svg xmlns="http://www.w3.org/2000/svg" xmlns:xlink="http://www.w3.org/1999/xlink" viewBox="0 0 350 350">
    <defs>
        <linearGradient id="c" x1="119.49" y1="78.86" x2="230.51" y2="271.14" gradientUnits="userSpaceOnUse">
            <stop offset="0" stop-color="#a71e4d"/>
            <stop offset=".11" stop-color="#bf1656"/>
            <stop offset=".25" stop-color="#d50e5f"/>
            <stop offset=".39" stop-color="#e20a64"/>
            <stop offset=".51" stop-color="#e70866"/>
            <stop offset=".62" stop-color="#de0b63"/>
            <stop offset=".81" stop-color="#c61359"/>
            <stop offset="1" stop-color="#a71e4d"/>
        </linearGradient>
        <linearGradient id="a" x1="147" y1="129.81" x2="159" y2="129.81" gradientUnits="userSpaceOnUse">
            <stop offset="0" stop-color="#ffdce8"/>
            <stop offset="1" stop-color="#edc3cd"/>
        </linearGradient>
        <linearGradient id="b" x1="132" y1="135.72" x2="138.13" y2="135.72" gradientUnits="userSpaceOnUse">
            <stop offset="0" stop-color="#edc3cd"/>
            <stop offset="1" stop-color="#ffdce8"/>
        </linearGradient>
        <linearGradient id="d" x1="207.63" y1="133.91" x2="211.75" y2="133.91" xlink:href="#a"/>
        <linearGradient id="e" x1="146.79" y1="76.52" x2="158.85" y2="76.52" xlink:href="#a"/>
        <linearGradient id="f" y1="80.33" x2="138.13" y2="80.33" xlink:href="#b"/>
        <linearGradient id="g" x1="207.29" y1="78.69" x2="211.79" y2="78.69" xlink:href="#a"/>
        <linearGradient id="h" x1="146.79" y1="93.91" x2="158.85" y2="93.91" xlink:href="#a"/>
        <linearGradient id="i" y1="97.72" x2="138.13" y2="97.72" xlink:href="#b"/>
        <linearGradient id="j" x1="207.29" y1="96.08" x2="211.79" y2="96.08" xlink:href="#a"/>
    </defs>
    <path d="M290 240.8a132.66 132.66 0 0 0 0-131.6V60h-49.21a132.65 132.65 0 0 0-131.57 0H60v49.26a132.65 132.65 0 0 0 0 131.55V290h49.26a132.65 132.65 0 0 0 131.58 0H290z" fill="#fff"/>
    <path d="M280.49 237.29a122.57 122.57 0 0 0 0-124.58V69.5h-43.21a122.57 122.57 0 0 0-124.56 0H69.49v43.24a122.57 122.57 0 0 0 0 124.53v43.23h43.23a122.57 122.57 0 0 0 124.56 0h43.21z"/>
    <circle cx="175" cy="175" r="111" fill="url(#c)"/>
    <path d="M66 207.67L86.67 197l21.66 37L84 251.67l-18-44zm171-93l23.33 35.66L286 135.67 264 95l-27 19.67zM175 60l-49.25 11.25q.13 50.88.25 101.75l28.5-11.54v52a13.58 13.58 0 0 1-.5 1.5c-2.2 5.5-7.49 8.21-11 10a38 38 0 0 1-8 3v56a97.13 97.13 0 0 0 40 6 97.13 97.13 0 0 0 40-6V228a38 38 0 0 1-8-3c-3.51-1.79-8.8-4.5-11-10a13.58 13.58 0 0 1-.5-1.5v-52L224 173q.12-50.88.25-101.75zm0 207a14.5 14.5 0 1 1 14.5-14.5A14.5 14.5 0 0 1 175 267z"/>
    <path d="M198 226a29.9 29.9 0 0 1-8-11v-57a18 18 0 0 0-9-3c.17 30.95.15 53.53 0 57a5.37 5.37 0 0 1-1 3 7.25 7.25 0 0 1-10 0 5.37 5.37 0 0 1-1-3c-.15-3.47-.17-26.05 0-57a18 18 0 0 0-9 3v57a29.76 29.76 0 0 1-19 17v18h12a22.67 22.67 0 0 1 6-14 21.79 21.79 0 0 1 32 0 22.67 22.67 0 0 1 6 14h12v-18a29.86 29.86 0 0 1-11-6zm11 47v-18h-12a22.67 22.67 0 0 1-6 14 21.79 21.79 0 0 1-32 0 22.67 22.67 0 0 1-6-14h-12v18a6.86 6.86 0 0 0 6 6 6.7 6.7 0 0 0 6-3 32.74 32.74 0 0 0 44-1 6.39 6.39 0 0 0 6 4 6.47 6.47 0 0 0 6-6z" fill="#fff"/>
    <path d="M175.12 105.19A139.21 139.21 0 0 0 132 112v50l18-8c8.84-3.93 16.06-5.79 25-6 8.94.21 16.16 2.07 25 6l18 8v-50a139.21 139.21 0 0 0-42.88-6.81zM175 68a135.66 135.66 0 0 0-43 7v12a157.08 157.08 0 0 1 86 0V75a135.66 135.66 0 0 0-43-7z" fill="#fff"/>
    <path d="M175.13 86.94A155.59 155.59 0 0 0 132 93v12a157.08 157.08 0 0 1 86 0V93a155.59 155.59 0 0 0-42.87-6.06z" fill="#fff"/>
    <path d="M175 116a10 10 0 1 0 10 10 10 10 0 0 0-10-10z"/>
    <path d="M147 113a34 34 0 0 1 12-2.37V145a31.55 31.55 0 0 0-12 4z" opacity=".8" fill="url(#a)"/>
    <path d="M132 116v40.75a14.95 14.95 0 0 1 6.13-3v-39.06A16.85 16.85 0 0 0 132 116z" fill="url(#b)"/>
    <path d="M207.63 113.44v38.75c.56.35 1.16.71 1.81 1.06.81.44 1.58.81 2.31 1.13v-39.69a9.3 9.3 0 0 0-4.12-1.25z" fill="url(#d)"/>
    <path d="M146.82 75.42c1.7-.48 3.57-.92 5.59-1.29a62.25 62.25 0 0 1 6.42-.83v4.25a48.59 48.59 0 0 0-12.06 2.21z" opacity=".8" fill="url(#e)"/>
    <path d="M132 79.17v4.08a29.4 29.4 0 0 1 3.38-1.25c1-.29 1.9-.52 2.75-.69v-3.9a17.51 17.51 0 0 0-6.13 1.76z" fill="url(#f)"/>
    <path d="M207.29 75.71v4.63c.72.15 1.49.34 2.29.58s1.53.49 2.21.75v-4.38c-.58-.27-1.2-.54-1.87-.79a23 23 0 0 0-2.63-.79z" fill="url(#g)"/>
    <path d="M146.82 92.81c1.7-.48 3.57-.92 5.59-1.29a62.25 62.25 0 0 1 6.42-.83v4.25a48.59 48.59 0 0 0-12.06 2.21z" opacity=".8" fill="url(#h)"/>
    <path d="M132 96.56v4.08a29.4 29.4 0 0 1 3.38-1.25c1-.29 1.9-.52 2.75-.69v-3.9a17.51 17.51 0 0 0-6.13 1.76z" fill="url(#i)"/>
    <path d="M207.29 93.1v4.63c.72.15 1.49.34 2.29.58s1.53.49 2.21.75v-4.38c-.58-.27-1.2-.54-1.87-.79a23 23 0 0 0-2.63-.79z" fill="url(#j)"/>
</svg>
