<svg xmlns="http://www.w3.org/2000/svg" viewBox="0 0 350 350"><defs><radialGradient id="a" cx="175" cy="175" r="96.5" gradientUnits="userSpaceOnUse"><stop offset=".09" stop-color="#f9c133"/><stop offset=".2" stop-color="#f79520"/></radialGradient><radialGradient id="b" cx="175" cy="175" r="96" gradientTransform="matrix(1 0 0 1.25 0 -43.75)" gradientUnits="userSpaceOnUse"><stop offset=".58" stop-color="#fbd778"/><stop offset=".62" stop-color="#fbd878" stop-opacity=".98"/><stop offset=".68" stop-color="#fbda79" stop-opacity=".91"/><stop offset=".73" stop-color="#fcdd79" stop-opacity=".81"/><stop offset=".8" stop-color="#fce27a" stop-opacity=".66"/><stop offset=".87" stop-color="#fde97c" stop-opacity=".47"/><stop offset=".94" stop-color="#fef07d" stop-opacity=".24"/><stop offset="1" stop-color="#fff87f" stop-opacity="0"/></radialGradient></defs><g data-name="BG Colors"><path fill="#fff" d="M59.87 60h230.26v230H59.87z"/><path d="M69.18 69.39h211.64v211.4H69.18z"/><path stroke="#000" stroke-miterlimit="10" fill="url(#a)" d="M78.5 78.5h193v193h-193z"/><path opacity=".6" fill="url(#b)" d="M79 79h192v192H79z"/></g><path d="M262.44 99.39c-.3-2 4.44-4.45 4.93-4.68a34.33 34.33 0 0 1 4.82-1.83L277.25 82c-1.5.75-3.78 1.9-6.52 3.37-5.88 3.14-8.47 4.82-8.73 4.48-.38-.51 4.79-4.9 5.28-5.32a79.71 79.71 0 0 1 7.3-5.52L75.67 75.67l-2.5 4.16 42.2 34.51c3.15 2.85 3.47 3.8 3.25 4.16-.86 1.4-11-4.38-12.53-2.37-.91 1.23 1.88 4.73 2.34 5.31 8 10 52 40.12 69.31 51.81 0 0 64-63.5 87.75-67.87 4-.78 4.84-1.44 4.84-1.9.03-1.4-7.53-1.63-7.89-4.09zM137 137c-2.71-2.2-3.21-2.4-5-3.89-3.28-2.67-6.93-6.3-6.63-6.67s4.79 2.38 8.75 5.85c4.56 4 7.7 8.27 7.48 8.48s-1.35-1.15-4.6-3.77zm12.08 11.94c-.93-.15-4-4.25-4-4.25 2.38.31 4.92 4.38 4 4.23zm-56-57.75c4.5.16 39.07 27.91 40.92 29.5 4.42 3.79 35.58 27.25 35.58 27.25-9.58-.94-76.5-56.77-76.5-56.77zm85.5 55.64s9-5.85 10.5-5.39c1.28.37-5.6 5.87-10.5 5.37zm18.34-8.83s18.25-11.84 21.08-11.58c4 .37-14.9 10.5-21.08 11.58zm64.83 115.75c-2.25-4.25-87-55.75-87-55.75L73.17 257.75l2.08 18L273 277.5V267s-9-9-11.25-13.25zm-172 5.17A57.38 57.38 0 0 1 78 264.5v-2.75c1.78-.7 4.34-1.76 7.33-3.21 9.62-4.66 15-9.12 15.26-8.75s-4.41 5.1-10.86 9.13zM176.23 204a2.37 2.37 0 0 0-2.5 0c-8.67 5.1-58.86 34.49-61.61 33.75-1-1.59 59.42-36.53 62.88-36.75s31 18.13 33.5 20.62c-2.15 1.77-26.5-13.82-32.27-17.62z"/><g data-name="Eye L"><path d="M100.37 130.54l74.57 53.08.27 11.75-19 2.5c-2.06 2.36-17.2 19.06-41.88 18.52-23.55-.51-37.63-16.33-39.8-18.85l-45.28-61.79z"/><path d="M42.9 141.92l55.74-4.2 71.1 52.53-16.37.5C143 205 126.24 212.56 109.83 210.17c-17.44-2.55-27.3-15.29-29.37-18.1z" fill="#fff"/><path d="M98.5 147.42l41.59 29.85a14.7 14.7 0 0 1 1.24 9.39c-2.22 10-15.93 13.18-17.83 13.62a30.42 30.42 0 0 1-11.83.38c-13.63-2.13-25-13.06-27.83-15.83a30 30 0 0 1-8.88-16.6 30.4 30.4 0 0 1 1.68-16 49 49 0 0 1 21.88-4.83z"/><path fill="#fff" d="M105.56 148.75V169l-7.18-5.25 2.5 35.5 2.62 1.66 1.13-20.41 11.12 13.63 1.25-39.25-11.44-6.13z"/></g><g data-name="Eye R"><path d="M170.72 195.66l23.81 1.83c1.85 2.25 17.35 20.52 42.8 19.84 29.38-.78 44.38-26.07 45.17-27.46l39.5-54.12-72.67-5.21-74.4 53.08z"/><path d="M308.6 142.42l-56.51-4.67-71.59 52.33 15.37.39c11.07 14.19 28.52 21.52 45.65 19 20.52-3 31.37-18.84 33.12-21.49z" fill="#fff"/><path d="M268.33 149.33a50.23 50.23 0 0 0-18.67.25l-40.92 28.66c.2 2.49 1.15 10.39 7.5 16.25A25.21 25.21 0 0 0 226.5 200a31.12 31.12 0 0 0 12.63 1 42.48 42.48 0 0 0 21.63-8.87 41.22 41.22 0 0 0 8.5-8.37c3.23-4.3 10.17-13.5 7.38-23.37-.55-1.9-2.26-6.75-8.31-11.06z"/><path fill="#fff" d="M244.44 148.5v20.25l7.19-5.25-2.5 35.5-2.63 1.66-1.12-20.41-11.13 13.62-1.25-39.25 11.44-6.12z"/></g></svg>