<svg xmlns="http://www.w3.org/2000/svg" viewBox="0 0 350 350">
    <defs>
        <clipPath id="a">
            <path fill="none" d="M78.83 79.15h192.63v192.42H78.83z"/>
        </clipPath>
    </defs>
    <path fill="#fff" d="M60.1 60.23h229.79v229.54H60.1z"/>
    <path d="M69.39 69.6H280.6v210.98H69.39z"/>
    <path fill="#723390" d="M78.83 79.15h192.63v192.42H78.83z"/>
    <path d="M41.38 274.25c8.44-22.86 16.08-41.93 22-56.16C81.21 174.89 89 162.32 93.27 155c9.39-16.12 21.76-33.18 37.48-43.55a77.55 77.55 0 0 1 61-10.42c30.82 7.87 54.37 34.88 57.29 66.8 3.13 34.2-21.86 65.5-52.41 78.13-11.85 4.9-21.93 9.94-68.31 17.08-36 5.55-65.96 9.04-86.94 11.21z"/>
    <path d="M47.75 269.25l49.25-5.5A342.95 342.95 0 0 1 125 168a89.62 89.62 0 0 1 8.5-14 71.5 71.5 0 0 1 11.25-12.5c2.08-1.74 13-10.86 28-11.25 15.72-.4 33.72 8.87 41 26.5 8.72 21.11-3.85 39.82-4.5 40.75-1.24 1.78-11.43 15.88-30.25 18-16.84 1.89-32.92-6.67-41.5-20-8.78-13.65-6.88-27.94-6.25-31.75a175.24 175.24 0 0 0-7.75 24 181.31 181.31 0 0 0-2.5 72.75 354.58 354.58 0 0 0 41.25-8c17.61-4.51 26.42-6.76 37.25-12.5 9.9-5.24 27.79-14.72 38.25-35.5a70.15 70.15 0 0 0 7.5-30.75c.07-28.6-18.38-47.21-21.5-50.25-2.86-2.79-20-19.07-46.75-20.25-3.42-.15-19.83-.62-39 9.5-12.23 6.46-32.09 20.57-68.25 102.5-9.22 20.9-16.49 39.28-22 54z" fill="#fff"/>
    <circle cx="174" cy="173.5" r="38.67" fill="#ab87bc"/>
    <ellipse cx="174" cy="173.5" rx="29.13" ry="28.58" fill="#fff"/>
    <ellipse cx="174" cy="173.5" rx="23.52" ry="23.08"/>
    <path d="M258.33 175.17L306 71.83l-112.83 19.5c6.8 2 39.39 12.14 56 44.67a85.52 85.52 0 0 1 9.16 39.17z"/>
    <path d="M209 92.67L298 78l-36.83 81.67a86.95 86.95 0 0 0-52.17-67z" fill="#fff"/>
    <path d="M264.67 82a40.63 40.63 0 0 1 2.33 9.17c1 7.39-.35 13.25-2 19.33a264.73 264.73 0 0 1-10 29.67l-.33 1.67a129.59 129.59 0 0 0 26-62.33zM119.5 75.5a391.3 391.3 0 0 0-29 45.5 391.56 391.56 0 0 0-16 33l2.33 34.83A365.54 365.54 0 0 1 136.5 73z"/>
    <g>
        <path d="M138.17 109.67a352.4 352.4 0 0 1 44-36.17c7.16-5 14.18-9.45 21-13.5h23.17a97.14 97.14 0 0 0-36.83 42.5 66.22 66.22 0 0 0-21.33-2.17 67 67 0 0 0-30.01 9.34zm15.5 164.5l48.83-21.83c19.15-.8 31.46-7 38.17-11.33 20.52-13.22 29.77-35.25 41-62 3.89-9.27 6.59-17.17 8.33-22.67v19.83a172.89 172.89 0 0 1-63.33 98.17zM69.5 112a130.62 130.62 0 0 1 41-52h-7.17a93.07 93.07 0 0 0-33.66 31z"/>
    </g>
    <g fill="#fff">
        <path d="M88.5 81.17q-4.27 11.57-8.42 23.67-7.68 22.45-13.92 43.83L66 119.33a145.5 145.5 0 0 1 22.5-38.16zM109.83 113a136.15 136.15 0 0 1 14.67-14.42C146.64 79.9 170.4 72 186.67 68.42l-48.42-.33q-8.11 12.06-16.25 25-6.33 10.07-12.17 19.91zm92.67 139.33a71.19 71.19 0 0 0 34.08-8.92 73 73 0 0 0 21.17-18.17 111.24 111.24 0 0 0 10.92-17.08 168.51 168.51 0 0 0 7.67-15.75 180.14 180.14 0 0 1-73.83 59.92zm24.17 22h6a65.07 65.07 0 0 0 21-25.67c-4.19 4.69-8.93 9.6-14.25 14.58-4.36 4.09-8.64 7.76-12.75 11.09z"/>
    </g>
</svg>
