<svg xmlns="http://www.w3.org/2000/svg" viewBox="0 0 350 350">
    <defs>
        <radialGradient id="a" cx="171.71" cy="281.71" r=".69" gradientTransform="matrix(195.17 0 0 -195.46 -33336.48 55240.39)" gradientUnits="userSpaceOnUse">
            <stop offset="0" stop-color="#fd5"/>
            <stop offset=".53" stop-color="#fd5"/>
            <stop offset="1" stop-color="#fd5" stop-opacity="0"/>
        </radialGradient>
        <radialGradient id="b" cx="171.34" cy="281.35" r=".69" gradientTransform="matrix(152.54 0 0 -152.77 -25961.21 43157.28)" gradientUnits="userSpaceOnUse">
            <stop offset="0" stop-color="#f1ba30"/>
            <stop offset=".5" stop-color="#f1ba30"/>
            <stop offset="1" stop-color="#f09726"/>
        </radialGradient>
    </defs>
    <g data-name="Layer 3">
        <path d="M290 235.3v55.08H60V235.3zm0-60.09zm0-60.1H60V60h230z" fill="#fff"/>
        <path d="M69 70.05h211v210.32H69z"/>
        <path fill="#da7a08" d="M80 80.06h190v190.29H80z"/>
        <path fill="url(#a)" d="M80 80.06h190v190.29H80z"/>
        <path d="M235 273.36s5.8-4.91 8.5-6 9.5-4 9.5-4-12.76 2-21 5a46.48 46.48 0 0 0-13 7l-3-2s12.15-7.27 22-10 11.65-2.38 21-6 15-6 15-6v-4s-3.18 1.89-5 2-7 3-7 3a15.89 15.89 0 0 1 5-4c3.28-1.71 8-4 8-4l-1-3-24 10-14 10 3-5-34 20 23 1zm-112 0h-6a71.74 71.74 0 0 0-15-10c-8.55-4.16-12.76-5.12-16-7a27.51 27.51 0 0 0-10-4c-3.8-.59-3-2-3-2s5.73.48 8 1 6.56 4.44 10 6 9 2 9 2a44.82 44.82 0 0 1-10-4c-4-2.44-6.4-2.95-8-5s-6-2-6-2v-2s5.8.46 7 2 2 .55 3 0 5-1 5-1l56 27h-17s-5.27-4.08-8-4-5.6-1.78-7-3-5-1-5-1 3.5 3.1 6 4 7 2.99 7 3zm100-195.3s3.14 1.82 9 5 9 5 9 5 9.87-.9 16 2 14.38 6.47 17 6 1 8 1 8a45.66 45.66 0 0 0-5-4c-1.7-1-3.52-5.16-5-5s-1.16 2 0 3 1-.22 2 1 3.1 6.13 6 7a9.92 9.92 0 0 1 4 2l-2 1-12-4s-4.28-3.92-7-6a23.85 23.85 0 0 0-5-3 11.08 11.08 0 0 1 4 4c1.52 2.7-3 1-3 1l-16-9s-1.48-3.23-3-4-5 0-5 0l-18-10zm-147.74 23.1l-.26-1.07a40.24 40.24 0 0 1 5-3c2.54-1.24 11-6 11-6a92.29 92.29 0 0 0 10-7c3.88-3.31 13-4 13-4l2-2h24l-16 12-41 17-6 1-.32-1.27c1.47-.59 4.91-2.1 6.32-3.74a4 4 0 0 0 1-4s-2.92 2.47-5 3l-3.29.83-.28-1.12a25.9 25.9 0 0 0 4.57-1.7c3.71-1.76 8-6 8-6s-5.42 2.63-8 4a45.14 45.14 0 0 0-4.74 3.07zM90 94.09a19 19 0 0 1 4-3c3-1.85 7-4 7-4l8-4s-5.56 3.56-8 5-3.43 4.35-5 5a30.28 30.28 0 0 1-6 1z"/>
        <path d="M175 307.41s-2.91-16.49-53-44.07c-55.29-30.45-70-22-70-22s14-10.45 14-66.09-14-66.09-14-66.09 14.71 8.41 70-22C172.09 59.49 175 43 175 43s2.91 16.49 53 44.07c55.29 30.45 70 22 70 22s-14 10.45-14 66.09 14 66.09 14 66.09-14.7-8.41-70 22c-50.09 27.67-53 44.16-53 44.16z" fill="url(#b)"/>
        <path d="M175 307.41s-2.91-16.49-53-44.07c-55.29-30.45-70-22-70-22s14-10.45 14-66.09-14-66.09-14-66.09 14.71 8.41 70-22C172.09 59.49 175 43 175 43s2.91 16.49 53 44.07c55.29 30.45 70 22 70 22s-14 10.45-14 66.09 14 66.09 14 66.09-14.7-8.41-70 22c-50.09 27.67-53 44.16-53 44.16zm75.75-87.33c-9.66 3.4-30.31 11-41.75 17.21-11 6-23.67 16.26-30 21.59v26.32c13.81-13.48 30.84-23.51 48.1-32.77 15.15-8.13 30.84-15.8 47.22-19.81l-23.57-12.55zm-151.38 0l-23.56 12.59c17.77 4.36 34.25 12.71 50.34 21.54s32.09 18.47 44.84 31v-26.3c-6.33-5.33-19-15.6-30-21.59-11.39-6.24-31.92-13.75-41.63-17.17zm36.26-19.31l-24.33 13c16.8 6.15 33.33 12.93 47.95 23.29 4 2.84 7.92 5.82 11.75 8.88v-25.67a167 167 0 0 0-18-12 119 119 0 0 0-17.37-7.51zm78.86 0a119.26 119.26 0 0 0-17.49 7.55 167 167 0 0 0-18 12v25.66c10.17-8.15 20.87-15.68 32.63-21.15 8.87-4.13 18-7.68 27.19-11.06zM70.38 124C75.1 140.56 76 158 76 175.21v4c-.21 16-1.25 32.19-5.62 47.32l25-13.32a164.8 164.8 0 0 0 4.63-38 164.82 164.82 0 0 0-4.6-37.85L70.38 124zm209.2.13l-25 13.32a158 158 0 0 0 0 75.58l25 13.32c-6.32-22-6.48-45.56-5.13-68.44.67-11.41 2-22.85 5.1-33.77zm-75.63 71l-25-13.29v27.28A137.57 137.57 0 0 1 204 195.16zm-33 14V182l-24.81 13.21A134 134 0 0 1 171 209.14zm-64.01-65.63a173.79 173.79 0 0 1 0 63.53l24.83-13.23a161.87 161.87 0 0 0 1.23-18.56 161.76 161.76 0 0 0-1.24-18.53l-24.82-13.21zm136.1.12l-24.81 13.21a161.48 161.48 0 0 0-1.23 18.41 161.34 161.34 0 0 0 1.23 18.45l24.83 13.22a173.8 173.8 0 0 1 0-63.29zm-101.7 18.2a157.91 157.91 0 0 1 0 26.89l25.26-13.45zm67.32.11l-25 13.34 25 13.33a157.77 157.77 0 0 1 0-26.68zM179 141.33v27.31l25-13.29a134.18 134.18 0 0 1-25-14.02zm-8 0a138.87 138.87 0 0 1-24.88 14L171 168.54v-27.22zm8-36.86v25.73a167 167 0 0 0 18 12 119.28 119.28 0 0 0 17.53 7.56l24.41-13c-16.89-6.17-33.5-13-48.17-23.37-4-2.84-7.93-5.82-11.77-8.89zm-8 0c-10.17 8.13-20.85 15.67-32.63 21.16-8.87 4.13-18 7.68-27.19 11.06l24.41 13a119.12 119.12 0 0 0 17.41-7.53 167 167 0 0 0 18-12v-25.69zm8-39.23v26.28c6.33 5.33 19 15.6 30 21.59 11.49 6.29 32.26 13.88 41.87 17.26l23.58-12.56c-17.87-4.34-34.43-12.73-50.6-21.6s-32.09-18.47-44.84-31zm-8 0c-13.23 13-29.59 22.69-46.16 31.69-15.74 8.55-32.15 16.69-49.15 20.85l23.55 12.54c9.66-3.4 30.31-11 41.75-17.21 11-6 23.67-16.26 30-21.59z" fill="#fff"/>
    </g>
</svg>
