<svg xmlns="http://www.w3.org/2000/svg" xmlns:xlink="http://www.w3.org/1999/xlink" viewBox="0 0 350 350">
    <defs>
        <radialGradient id="d" cx="175" cy="175" r="96" gradientTransform="matrix(0 -1 1.25 0 -43.75 350)" gradientUnits="userSpaceOnUse">
            <stop offset="0" stop-color="#e4c8a0"/>
            <stop offset=".19" stop-color="#e4c8a0" stop-opacity=".99"/>
            <stop offset=".33" stop-color="#e4c8a0" stop-opacity=".95"/>
            <stop offset=".45" stop-color="#e4c8a0" stop-opacity=".88"/>
            <stop offset=".56" stop-color="#e4c8a0" stop-opacity=".78"/>
            <stop offset=".67" stop-color="#e4c8a0" stop-opacity=".65"/>
            <stop offset=".77" stop-color="#e4c8a0" stop-opacity=".49"/>
            <stop offset=".87" stop-color="#e4c8a0" stop-opacity=".3"/>
            <stop offset=".96" stop-color="#e4c8a0" stop-opacity=".09"/>
            <stop offset="1" stop-color="#e4c8a0" stop-opacity="0"/>
        </radialGradient>
        <filter id="a" filterUnits="userSpaceOnUse" color-interpolation-filters="sRGB">
            <feColorMatrix values="-1 0 0 0 1 0 -1 0 0 1 0 0 -1 0 1 0 0 0 1 0"/>
        </filter>
        <linearGradient id="b" x1="89.29" y1="152.38" x2="89.29" y2="112.81" gradientUnits="userSpaceOnUse">
            <stop offset="0" stop-color="#0a0a0a"/>
            <stop offset="1" stop-color="#464646"/>
        </linearGradient>
        <linearGradient id="c" x1="124" y1="152.38" x2="124" y2="112.81" gradientUnits="userSpaceOnUse">
            <stop offset="0" stop-color="#161616"/>
            <stop offset="1" stop-color="#5f5f5f"/>
        </linearGradient>
        <linearGradient id="f" x1="174.94" y1="152.38" x2="174.94" y2="112.81" xlink:href="#b"/>
        <linearGradient id="g" x1="260.59" y1="152.38" x2="260.59" y2="112.82" xlink:href="#b"/>
        <linearGradient id="h" x1="224.88" y1="152.38" x2="224.88" y2="112.81" xlink:href="#c"/>
        <linearGradient id="i" x1="68.75" y1="203.67" x2="169.21" y2="203.67" gradientUnits="userSpaceOnUse">
            <stop offset="0" stop-color="#545454"/>
            <stop offset="1" stop-color="#131313"/>
        </linearGradient>
        <linearGradient id="j" x1="131.89" y1="206.75" x2="184.68" y2="176.28" gradientUnits="userSpaceOnUse">
            <stop offset=".1" stop-color="#181818"/>
            <stop offset=".27" stop-color="#0c0c0c"/>
            <stop offset=".5"/>
        </linearGradient>
        <linearGradient id="k" x1="126.66" y1="121.2" x2="232.66" y2="210.15" gradientUnits="userSpaceOnUse">
            <stop offset=".39"/>
            <stop offset=".58"/>
            <stop offset=".72" stop-color="#040404"/>
            <stop offset=".84" stop-color="#0f0f0f"/>
            <stop offset=".96" stop-color="#212121"/>
            <stop offset="1" stop-color="#292929"/>
        </linearGradient>
        <linearGradient id="l" x1="181.42" y1="170.16" x2="181.42" y2="126.16" gradientUnits="userSpaceOnUse">
            <stop offset=".12" stop-color="silver"/>
            <stop offset=".34" stop-color="#d8d8d8"/>
            <stop offset=".61" stop-color="#f1f1f1"/>
            <stop offset=".77" stop-color="#fafafa"/>
        </linearGradient>
        <linearGradient id="m" x1="135.08" y1="254.07" x2="187.01" y2="254.07" gradientUnits="userSpaceOnUse">
            <stop offset=".12" stop-color="#838383"/>
            <stop offset=".55" stop-color="#878787"/>
            <stop offset=".86" stop-color="#8f8f8f"/>
        </linearGradient>
    </defs>
    <g style="isolation:isolate">
        <path d="M309.09 153l-18.52-18.94H290V60H60v74.1L41.44 153 60 171.8V290h230V172.33z" fill="#fff"/>
        <path d="M69.5 69.5h211v211h-211z"/>
        <path fill="#aa8450" d="M79 79h192v192H79z"/>
        <path fill="url(#d)" d="M79 79h192v192H79z"/>
        <g opacity=".75">
            <path fill="#9c794f" d="M197.77 271.42l4.2-6.22 4.26-4.18.93-2.03 2.78-.52 4.2-2.06 1.7-4.05 3.48-6.62 5.42-5.44 4.56-6.19 3.96-6.51 4.2-6.37 5.17-6.28 6.02-5.47 5.07-5.53 4.94-5.64 5.86-4.77 5.34-5.9-6.34 5.16-6.03 4.8-5.82 5.08-5.51 5.4-5.01 4.67-4.9 4.8-4.45 5.23-4.63 4.6 4.06-5.56 4.35-5.73 4.63-5.5 4.85-5.31 4.94-6.1 5.43-5.67 5.15-5.91 5.25-5.82 5.61-5.71-.36-6.99.35-6.8-.79-6.8.18-6.8.13-6.8.54-6.8-.27-6.88-4.57-5.47-4.53-5.4-4.53-5.41-3.83-5.95-4.6-5.42-7.46-.18-7.41.47-7.4.41-7.42-.72-7.4.87-7.41-.17-7.42-.1-7.37-.05 5.78-1.15 7.46-1.27 7.55-.57 7.5-.93 7.53-.44 7.52-.87 7.3-.01-7.24-.29-7.5.26-7.49-.29-7.49.34-7.48.48-7.5.19-7.44.97h-7.13l-7.08.87-7.05-1.16-6.86-1.33-5.58-.57-5.42-1.03-6.68-.92 6.5 4-6.19.76-6.76-.24-6.37-.35-6.39.68-6.32-1.09-6.33-.47-4.67-.57 1.61-1.02 6.67-1.22-6.29-.87-7.51 4.83-3.82 4.71-4.05 4.52-4.36 4.22-4.58 6.55-4.82 6.4.05 7.08.39 7.04-.41 7.04-.24 7.05.72 7.04-.55 7.04.48 7.04-.52 7.04.06 7.05.04 7.08 4.58 1.4 2.4 3.63 4.7 5.6 5.43 4.25-3.11-5.05-1.25-2.75 2.81 1.29 3.98 5.41 1.48 1.43 5.81 5.68 5.75 5.78 3.84 2.92 5.27 5.88 5.45 5.71 4.96 4.67 1.32 1.39 3.29.74 6.26 3.96 5.12 5.44 4.85 5.67 5.61 4.86 7.26 2.82 7.45 2.54 7.25 3.34 6.1-.58 6.08.06 6.17.63z"/>
            <g mask="url(#e)">
                <path fill="#936d41" d="M197.77 271.42l4.2-6.22 4.26-4.18.93-2.03 2.78-.52 4.2-2.06 1.7-4.05 3.48-6.62 5.42-5.44 4.56-6.19 3.96-6.51 4.2-6.37 5.17-6.28 6.02-5.47 5.07-5.53 4.94-5.64 5.86-4.77 5.34-5.9-6.34 5.16-6.03 4.8-5.82 5.08-5.51 5.4-5.01 4.67-4.9 4.8-4.45 5.23-4.63 4.6 4.06-5.56 4.35-5.73 4.63-5.5 4.85-5.31 4.94-6.1 5.43-5.67 5.15-5.91 5.25-5.82 5.61-5.71-.36-6.99.35-6.8-.79-6.8.18-6.8.13-6.8.54-6.8-.27-6.88-4.57-5.47-4.53-5.4-4.53-5.41-3.83-5.95-4.6-5.42-7.46-.18-7.41.47-7.4.41-7.42-.72-7.4.87-7.41-.17-7.42-.1-7.37-.05 5.78-1.15 7.46-1.27 7.55-.57 7.5-.93 7.53-.44 7.52-.87 7.3-.01-7.24-.29-7.5.26-7.49-.29-7.49.34-7.48.48-7.5.19-7.44.97h-7.13l-7.08.87-7.05-1.16-6.86-1.33-5.58-.57-5.42-1.03-6.68-.92 6.5 4-6.19.76-6.76-.24-6.37-.35-6.39.68-6.32-1.09-6.33-.47-4.67-.57 1.61-1.02 6.67-1.22-6.29-.87-7.51 4.83-3.82 4.71-4.05 4.52-4.36 4.22-4.58 6.55-4.82 6.4.05 7.08.39 7.04-.41 7.04-.24 7.05.72 7.04-.55 7.04.48 7.04-.52 7.04.06 7.05.04 7.08 4.58 1.4 2.4 3.63 4.7 5.6 5.43 4.25-3.11-5.05-1.25-2.75 2.81 1.29 3.98 5.41 1.48 1.43 5.81 5.68 5.75 5.78 3.84 2.92 5.27 5.88 5.45 5.71 4.96 4.67 1.32 1.39 3.29.74 6.26 3.96 5.12 5.44 4.85 5.67 5.61 4.86 7.26 2.82 7.45 2.54 7.25 3.34 6.1-.58 6.08.06 6.17.63z" opacity=".25"/>
            </g>
        </g>
        <path d="M103.07 101.9c-7.31 6.7-5.76 7.82-11.94 15.57s-9.33 5.24-15.52 13-3.68 9.43-8.56 18.07a85.65 85.65 0 0 0 5.06 13c2 4.38 3.17 9.71 6.33 14.53a105.26 105.26 0 0 0 9.71 12.08c4 4.49 6.19 8.83 9.47 11.62-3.86-4.41-6.41-10.82-10.31-17.9a96.2 96.2 0 0 1-5.54-11.08c5.11-2.58 10.37-4.48 15.48-7.07s9.42-6.76 14.53-9.34 9.74-5.56 14.86-8.14c4-4.23 10.27-5.92 14.23-10.15s4.79-11.4 8.75-15.62 8.84-6.9 12.81-11.13c-4-1.46-7.27-4.73-12.24-6-4.26-1.11-9.29-.56-14.23-1.35-6-.95-11.72-.07-17-.28a130.34 130.34 0 0 0-15.89.19z" fill="#1b130b" opacity=".5"/>
        <path d="M57.75 153.5l45.5-49.75h144.5l47 49.58-117.5 111.55-6-.37z"/>
        <path d="M100.5 152.38l9.33-39.56h-5.08l-36 39.56z" fill="url(#b)"/>
        <path d="M100.5 152.38l9.33-39.56h37.67z" fill="url(#c)"/>
        <path fill="url(#f)" d="M147.5 112.81l-47 39.57h148.88l-49-39.57H147.5z"/>
        <path d="M249.38 152.38L240 112.82h5.08l36 39.56z" fill="url(#g)"/>
        <path d="M249.38 152.38L240 112.82h-39.62z" fill="url(#h)"/>
        <path fill="url(#i)" d="M68.75 152.38h31.75l68.71 102.58L68.75 152.38z"/>
        <path fill="url(#j)" d="M100.5 152.38l68.65 102.64 1.73 1.73V152.38H100.5z"/>
        <path fill="url(#k)" d="M170.88 152.38v104.37h7.37l102.88-104.37H170.88z"/>
        <path d="M152.25 250.06c-2.92-3.42-6.06-6.91-9.44-10.44a247.65 247.65 0 0 0-18.5-17.44c5 5.8 10.65 11.84 17 17.94 3.69 3.56 7.36 6.88 10.94 9.94zm72.5-24.56c7.66-8.76 16.09-17.84 25.33-27.08 8.92-8.91 17.69-17.07 26.17-24.5q-11.68 12.61-24.58 25.58-13.67 13.69-26.92 26zm-9.47-124.61c0-.25 3.6-.46 4.91-.53 4.63-.26 13-.5 29.19-.3l27.06 27.44-1.25 2.19-25.92-27.89c-16.19 0-24.54-.2-29.14-.42-4.29-.21-4.85-.38-4.85-.49zm-96.86.11L101 99.92l-48.54 53.66L65 164.13l-10.33-10.5 46.79-52z"/>
        <g>
            <path d="M160.53 156.81c-.5 13.43-1.74 27.68-2.36 34.36 0 2.44-.09 6.49-.14 11.5s-.08 9.39-.1 12.9v7.9s-.07 5.39-.27 9.79C156.63 255.39 149 271 149 271a87 87 0 0 1-17.34 23.5 97.91 97.91 0 0 1-8.87 7.88 45.61 45.61 0 0 0 10.75 1.88 43.93 43.93 0 0 0 11.56-.87 45.2 45.2 0 0 0 11.77-4.62c9.37-5.39 15-14.14 18.42-19.92 14.17-24.13 17.78-51.48 18.07-53.9a157.53 157.53 0 0 0-.89-44.49l-31.69-31.69c-.09 3.61-.19 6.38-.25 8.04zM206.5 120v-13.87h-13.87l-.12-46.37a4.13 4.13 0 0 0 0-1.22c-.44-3.5-5.46-5.42-9.64-7.09-15.53-6.25-19.87-9.28-22.39-6.95a4.3 4.3 0 0 0-1.23 2.25v58.63l-14.38-.29.08 16a3 3 0 0 0 .63 2 3.23 3.23 0 0 0 2.79 1h10.75l-.09 3.34a2.57 2.57 0 0 0 .7 2.19 2.06 2.06 0 0 0 .84.44c.15 4.2.27 9.83.2 16.5v2.16l31.69 31.69q-.66-4.06-1.56-8.31l.08-42.67a3 3 0 0 0 1.82-1.6c.37-1-.19-1.72.26-2.61a2.58 2.58 0 0 1 1.58-1.17h8.43a3.44 3.44 0 0 0 2-.59 4 4 0 0 0 1.43-3.46z"/>
            <path d="M164.73 51.31L187 60.14V113h13.85a1.07 1.07 0 0 1 .87.32 1.05 1.05 0 0 1 .27.78v5a1 1 0 0 1-1.22 1.06h-10.93v5.8a1.37 1.37 0 0 1-.52 1 1.18 1.18 0 0 1-.63.18h-.87a.9.9 0 0 0-.74.31.81.81 0 0 0-.16.53l.17 42.16-22.32-20.41V128.5a1.23 1.23 0 0 0-.25-1c-.55-.58-1.66 0-2.18-.62a1.2 1.2 0 0 1-.22-1V120l-11.51-.08a1.26 1.26 0 0 1-1.23-.6 1.19 1.19 0 0 1-.1-.83v-4.63a1 1 0 0 1 .16-.62 1.16 1.16 0 0 1 1.16-.46h14.2q.17-19 .13-38.28-.09-11.64-.2-23.19zm-29.65 248.44a70.69 70.69 0 0 0 13.67-15.08c6.62-9.87 9.12-19.09 11.58-28.5a149.78 149.78 0 0 0 4-22.67 215.5 215.5 0 0 0 1-36.31l11.14 11.2L187 219c-.57 3.75-1.39 8.56-2.59 14.11-.58 2.67-2 9.23-4.17 16.31-2.93 9.59-5.7 18.66-12.08 28.53-4.45 6.89-8.62 13.34-17 17.71a37.3 37.3 0 0 1-16.08 4.09z" fill="#fff"/>
            <path d="M175.78 159.85l.28-33.69H187l.05 44z" fill="url(#l)"/>
            <path d="M135.08 299.75a43.24 43.24 0 0 0 7.42-3.25c22.35-12.42 28.06-42.07 31.25-58.62a152.82 152.82 0 0 0 2.74-29.49L187 219c-.42 5.78-5.61 66.8-40.82 78.78a38.46 38.46 0 0 1-11.1 1.97z" fill="url(#m)"/>
            <path d="M135.08 299.75a42.44 42.44 0 0 0 6.39-2.69 46 46 0 0 0 15.7-13.7 69 69 0 0 0 4.4-6.86c.17-.31 1-1.81 2-3.89.53-1.1 1.54-3.25 2.71-6.31a119.83 119.83 0 0 0 3.78-11.74c.22-.82 1.66-6.15 2.85-12.44a258.81 258.81 0 0 0 3.57-33.74l.65.66a211.37 211.37 0 0 1-1.87 23.56c-1.53 11.23-3.42 24.45-10.28 39.23-.73 1.58-5.39 11.44-12.66 18.32a44.68 44.68 0 0 1-8 6 30.75 30.75 0 0 1-6.88 3c-.95.3-1.76.48-2.36.6z" fill="#555" opacity=".5"/>
            <path opacity=".35" d="M165.35 197.19L187 218.97v20.53l-21.74-21.74.09-20.57z"/>
            <path fill="#787878" d="M163.26 194.92l3 2.43 2.82 3.18 3.51 2.43 2.86 3.13 3.3 2.69 2.87 3.12 2.54 3.44 3.25 2.63 2.93 2.94 2.62 3.24 2.6 3.24 3.19 2.71 2.6 3.48-3.33-2.73-3.29-2.52-2.74-3.12-2.85-2.99-3.35-2.48-2.67-3.17-3.01-3-3.27-2.76-3-3.04-2.8-3.21-2.54-3.43-2.42-3.51-2.82-2.7z"/>
            <path fill="#afafaf" d="M142.19 126.18l6.24 5.6 6.21 5.68 6.02 5.89 6.21 5.7 5.21 5.93 5.5 5.65 5.74 5.4 5.51 5.63-7.95-6.77-8.12-6.6-7.74-7.05-5.76-6.25-5.72-6.27-5.99-6.01-5.36-6.53z"/>
        </g>
        <path d="M248.63 214.81a55 55 0 0 1 10.31-10.44 27.53 27.53 0 0 1-3 4.33 27.86 27.86 0 0 1-7.31 6.11zm-137.22 9.03c.42-.33 3 3.7 8.59 8.5 1.6 1.36 4.76 3.92 5.17 6.56 0 .29.12 1 .33 2.22.41 2.3.74 3.12.57 3.21-.34.18-1.89-2.74-4.19-5.92-3.56-4.92-5.85-6.25-9.12-11.71-.76-1.21-1.6-2.7-1.35-2.86z" fill="#9c794f"/>
    </g>
</svg>
