<svg xmlns="http://www.w3.org/2000/svg" viewBox="0 0 350 350"><defs><radialGradient id="a" cx="175.13" cy="175" r="96" gradientTransform="matrix(1 0 0 1.2 0 -35)" gradientUnits="userSpaceOnUse"><stop offset="0" stop-color="#fd6566" stop-opacity=".95"/><stop offset="1" stop-color="#891716" stop-opacity="0"/></radialGradient></defs><path fill="#fff" d="M59.87 60h230.26v230H59.87z"/><path fill="#891716" d="M78.88 79h192.25v192H78.88z"/><path fill="url(#a)" d="M79.13 79h192v192h-192z"/><g stroke="#f87070" stroke-miterlimit="10" stroke-width="3"><path fill="none" d="M278.33 155.33L149 275M75.33 154.67l201-35"/><path fill="#df6c6d" d="M84.33 76.33l167.67 199"/></g><path d="M94.76 76.46L272 215.67M91 274L273.72 98.39M76.67 118.67l199.66 118.66m-199.66-41l198.66-58.66M76 139l136.33 140m-103-4.33L216 76" fill="none" stroke="#000" stroke-miterlimit="10" stroke-width="3"/><path d="M69.18 69.39v211.4h211.64V69.39zM271 271H79V79h192z"/><path d="M106 48.38h137.75v72.75H106z"/><path d="M237.83 68.25h2.42a16.63 16.63 0 1 1 0 33.25h-2.58" fill="none" stroke="#000" stroke-miterlimit="10" stroke-width="9"/><path d="M237.83 68.25h2.42a16.63 16.63 0 1 1 0 33.25h-2.58" fill="none" stroke="#fff" stroke-miterlimit="10" stroke-width="2"/><path fill="#fff" d="M111.12 53.5h127.5v62.38h-127.5z"/><path d="M116.13 60h117.5v7.25h-117.5zm0 35.75h117.5V103h-117.5zM109 82.19h132.11v5.38H109z"/><path fill="#fff" d="M156.25 51.5h37.5v66.38h-37.5z"/><path d="M191.75 53.5v62.38h-33.5V53.5h33.5m4-4h-41.5v70.38h41.5V49.5z"/><path d="M168.17 243.17V177a14.68 14.68 0 0 1-6.38-12.34c0-7.94 5.86-14.38 13.09-14.38S188 156.77 188 164.71a14.65 14.65 0 0 1-6.46 12.39V243c.29.46 4.72 7.27 12.75 7.29 4.66 0 10-2.27 12.52-7a12.35 12.35 0 0 0 1.38-5.61H199c10.69-1.25 8.13-37.63 8.13-37.63s15.37 13.13 15.43 39.88c0 0-4.06 23.25-28.37 23.62 0 0-13.31-2-19.19-9.12h0c-5.88 7.12-19.19 9.12-19.19 9.12-24.31-.37-28.37-23.62-28.37-23.62.06-26.75 15.44-39.88 15.44-39.88s-2.57 36.38 8.12 37.63h-9.12a11.18 11.18 0 0 0 1.37 5.6c3.43 6.09 11.75 6.06 12.59 6 7.16-.07 11.61-5.28 12.33-6.11z" fill="#fff" stroke="#000" stroke-miterlimit="10" stroke-width="4"/><circle cx="175.01" cy="164.5" r="2.49"/><path fill="#fff" d="M172.52 114.33h4.98v41h-4.98z"/></svg>