<svg xmlns="http://www.w3.org/2000/svg" viewBox="0 0 350 350">
    <defs>
        <clipPath id="a">
            <path fill="none" d="M78.83 79.15h192.63v192.42H78.83z"/>
        </clipPath>
    </defs>
    <path fill="#fff" d="M60.1 60.23h229.79v229.54H60.1z"/>
    <path d="M69.39 69.6H280.6v210.98H69.39z"/>
    <path fill="#a94825" d="M78.83 79.15h192.63v192.42H78.83z"/>
    <g clip-path="url(#a)">
        <path fill="#763217" d="M94 269l75.17-28.83 27.33 18.66 3.45-36.83 75.22 15.45L203.33 183l36.5-106-8.16-2.33-64.84 78.16-66.39-63.66 41.39 69.33-65.83-4-1.33 5.5 59.16 27.9L94 269z"/>
    </g>
    <path d="M321 30.67l-79 58.66-22-10.18L229.33 99l-58.66 43.67-38-71.67 9.66 74.67L94 128.78l-11.67-25.11-3.5 18.66L27.67 106l72 59.67L86 188l26.33-12.64 17 14.64-25 34.67h-25.5l16.17 12-48 67.66 92-66 8.33 18.34 4.34-27.34 14-10 56 89.34-22.48-96.54 81.42 25.12-35.11-29.5 11.75-7.5-21.5-1.5-24.5-20.25 17.25-24.25 18.75 12-9.75-25 35-46.25 33.5-6.25-20.75-9.6L321 30.67z"/>
    <path d="M69.19 281.56l31.06-41.06 2.44 1.31 3.31-4.31 4.72-2.77-16-5h15.78l28.38-37.5 22.19-4.36 25.93 7.19-41.08 27.44-1.17 16.25-7.5-16-9.46 8.25q-29.31 25.79-58.6 50.56z" fill="#fff"/>
    <path d="M163.33 193.33l23.67 1.73-41.38 30.18H141l3.75 13.51-7.5-14.75-3.75 2.75L136 232l-66.81 49.56zM106 237.5l4.72-2.77-15.97-4.98L106 237.5z" fill="#aa4623"/>
    <path d="M189.17 201.33l23.67 87.5-30.58-69.58 2.82-14.83z" fill="#fff"/>
    <path fill="#aa4623" d="M172.5 213.92l14.27-10.77 4.31 15.77-5.83-.59 27.58 70.5-40.33-74.91z"/>
    <path d="M205.58 184.83l-5.64 6.65 18.55 13.27 38.33 19.92-21.53-16.17 6-4.41-14.92-.94.08-1.81z" fill="#fff"/>
    <path fill="#aa4623" d="M226.29 207.08l14.96-3-8.62 6.46 24.2 14.13-59.29-18.42-1.79-9.75 4.5-5.37 26.04 15.95z"/>
    <path d="M160.21 186.54l-3.71-28-63.92-25H90.5l-6.17-14.08-2.67 13.42-5.24-.88.92-4.42-36.67-14.25 66.92 49.08-8.92 14.17 11.12-9.58-.29-2.24 27.58 21.79z" fill="#fff"/>
    <path fill="#aa4623" d="M137.08 186.54l15.17-10.71-111.58-62.5 62 47.42.66-1 4.25 2.67 1.34 4.33-10.25 9.83 13.97-6.46-2.97-4.79 27.41 21.21z"/>
    <path d="M162.43 186.78l-.3-27.28 71-56.37 1.88 2.75 4.38-2.75-7.62-13.87 12.13 6.5 1-2 60.63-48-22.86 26.41L278 75.5l-3 5 15.38 6.5-14.05 3 .18-7.14L231 137.13l5.88 16-9.62-12q-17.3 12.09-35 25.13-14.12 10.4-27.58 20.75z" fill="#fff"/>
    <path d="M164.67 187L305.5 45.75l-24.12 31.5-2.75-1-1.5 5-.75 6.38 14-.62-15.75 4.88 1.75-8.37-44.62 55.88-2.76 3.23 7.88 10.5-10-7.25L192 189.94z" fill="#aa4623"/>
    <path d="M160.21 151.38l-5.58-1.91-17.5-63.34 28.38 61.13z" fill="#fff"/>
    <path d="M156 149.94l3.19-3.58-22.06-60.23 12.13 61.5z" fill="#aa4623"/>
</svg>
