<svg xmlns="http://www.w3.org/2000/svg" xmlns:xlink="http://www.w3.org/1999/xlink" viewBox="0 0 350 350">
    <defs>
        <radialGradient id="b" cx="187.33" cy="178.27" r="103.45" gradientTransform="matrix(1 0 0 4 0 -534.81)" gradientUnits="userSpaceOnUse">
            <stop offset=".02" stop-color="#fef0d5"/>
            <stop offset=".2" stop-color="#fddc9d"/>
            <stop offset=".38" stop-color="#fdcc6f"/>
            <stop offset=".55" stop-color="#fdbf4c"/>
            <stop offset=".7" stop-color="#fcb632"/>
            <stop offset=".84" stop-color="#fcb022"/>
            <stop offset=".96" stop-color="#fcae1d"/>
        </radialGradient>
        <linearGradient id="a" x1="83.75" y1="95.56" x2="153.71" y2="55.17" gradientUnits="userSpaceOnUse">
            <stop offset="0" stop-color="#f9d125"/>
            <stop offset="1" stop-color="#fcb21c"/>
        </linearGradient>
        <linearGradient id="c" x1="74.99" y1="128.61" x2="154.1" y2="82.94" xlink:href="#a"/>
        <linearGradient id="d" x1="64.43" y1="229.81" x2="181.13" y2="162.43" xlink:href="#a"/>
        <linearGradient id="e" x1="136.62" y1="197.57" x2="195.8" y2="163.4" gradientUnits="userSpaceOnUse">
            <stop offset="0" stop-color="#f9d125"/>
            <stop offset=".46" stop-color="#f9cf24"/>
            <stop offset=".72" stop-color="#fac622"/>
            <stop offset=".93" stop-color="#fbb91e"/>
            <stop offset="1" stop-color="#fcb21c"/>
        </linearGradient>
        <linearGradient id="f" x1="246.63" y1="132.69" x2="195.61" y2="81.67" gradientUnits="userSpaceOnUse">
            <stop offset="0" stop-color="#f9d125"/>
            <stop offset=".38" stop-color="#f9ce24"/>
            <stop offset=".7" stop-color="#fac321"/>
            <stop offset="1" stop-color="#fcb21c"/>
            <stop offset="1" stop-color="#fcb21c"/>
        </linearGradient>
    </defs>
    <path fill="url(#b)" d="M270.96 133.98V79.25H79.64v191.32h141.4l56.16 6.72-12.75-48.2 28.08-32.99-12.28-27.35 14.77-28.85-24.06 4.78v-10.7z"/>
    <path fill="#fff" d="M295.02 139.9l-53.26 45.78 50.77 10.42-54.82 10.8 39.49 70.39-49.18-45.38-20.51.41 2.51-64.44 10.64 4.18 1.72-8.25 72.64-23.91z"/>
    <path d="M290.16 168.79l17.77-38.13-27.67 4V70.91h-208v208h147.22q16.1 1.12 33.19 2.92 18.55 2 35.81 4.54l-14.72-54.94 28.94-34zm-13 108.5L221 270.57H79.64V79.25H271v65.43l24-4.78-14.77 28.86 12.28 27.35-28.09 33z" fill="#231f20"/>
    <path d="M296.7 169.24l20-45.87-26.17 3.9V59.63H60v230.56h159.19q18 1.34 36.92 2.18c13.82.61 27.64 2.19 40.72 2.33-5.44-20.4-11.24-42-16.68-62.43l30.17-34.46zm-8.22 117.12q-17.25-2.54-35.81-4.54-17.08-1.82-33.19-2.92H72.25v-208h208v63.76l27.67-4-17.77 38.13 12.55 28.66-28.94 34z" fill="#fff"/>
    <path fill="#fcae1d" d="M79.64 76l75.69-37.12 37.12 44.31 23.55 3.6 2.46 11.77 48.89 14.88-9.65 19.79 6.7 9.65-5.23 7.03-21.09 4.9-19.62 14.56-15.85 56.49 29.74 18.24-41 28.29-4.02-13.25-48.84-6.7-23.18 19.17H79.13L79.64 76z"/>
    <path fill="#242021" d="M186.69 97.5l31.27 17.41-44.72-2.2 13.45-15.21z"/>
    <path fill="#fff" d="M184.28 104.45l11.32 9.36 2.49.12 4.83-5.39-18.64-4.09z"/>
    <path d="M79.64 78.28A89.56 89.56 0 0 1 162.28 70c-8.2 2.15-13.14 4.47-21.34 6.62l-61.3 11.8z" fill="url(#a)"/>
    <path fill="url(#c)" d="M79.64 136.66v-21.75l76.14-29.06-45.9 33.64-30.24 17.17z"/>
    <path d="M79.13 255.28v-30.72L165.31 135 95 248.68a55.24 55.24 0 0 1-15.86 6.6z" fill="url(#d)"/>
    <path d="M72.25 70.91c4.27-3.12 8.9-6.19 13.91-9.14a177.08 177.08 0 0 1 69.17-22.89 148.59 148.59 0 0 1 37.12 44.31c7.52 1 16 2.56 23.55 3.6l2.45 11.77 48.89 14.88-9.65 19.79 6.7 9.65-5.23 7a31.39 31.39 0 0 1-2.66 14.92 42.72 42.72 0 0 1-8.95 12.34c0-2.65.94-12.05-4.58-18.27a21.64 21.64 0 0 0-4.91-4.09A80.63 80.63 0 0 0 211.91 221a27.81 27.81 0 0 0 8.5-3.27 28.11 28.11 0 0 0 9.32-9 32.45 32.45 0 0 1 .39 17.38 31.87 31.87 0 0 1-5 10.58l7.2 7.36a60.15 60.15 0 0 1-16 17.17c-7.65 5.5-20.22 9.87-25 11.12-6.81 0-9.38-.86-16.19-.86l12.17-12.39c-7.45-.29-15.59-.94-24.31-2.13-8.93-1.22-17.13-2.82-24.53-4.58a94.18 94.18 0 0 1-12.27 11.64c-3.24 2.56-9.5 6.92-11.34 8s-24.19.31-36.61.31v-16.87a57.7 57.7 0 0 0 8.87-2.7 43.5 43.5 0 0 0 7.89-4.08L165.31 135l-38.1 97.13a171.29 171.29 0 0 0 80 16.52l-8.71 12.45a44.49 44.49 0 0 0 21.59-17.66c-4.39-2.93-18.91-13.4-24.86-33.36-7.69-25.84 5.12-47.05 7.2-50.37l-44 34.67L184.61 144l34.83-2.78c-.69.59-7.89 6.94-6.87 16.52a19 19 0 0 0 5.89 11.61 37.51 37.51 0 0 1 37.77-25.51 111.55 111.55 0 0 0-19.46-21.42l15.37 4.74 4.74-9-44.64-12.43L210 95.62l-24.9-3.44a150.07 150.07 0 0 0-33-41.53 244.92 244.92 0 0 0-72.46 27.63v10.14a94.25 94.25 0 0 1 61.31-11.77A281.7 281.7 0 0 0 79.64 100v36.63l30.24-17.17-30.24 40.1h-6.88z" fill="#231f20"/>
    <path fill="url(#e)" d="M158.44 194.39l-10.63 22.56 13.74-46.6 23.05-26.33-26.16 50.37z"/>
    <path fill="url(#f)" d="M252.14 127.18l-34.18-12.27-31.27-17.41-1.59-5.32 24.85 3.44 2.29 10.14 44.64 12.42-4.74 9z"/>
    <path d="M243.31 151.79a40.77 40.77 0 0 0 11.45-2 29.39 29.39 0 0 1-3.84 18.72 22.73 22.73 0 0 0-7.6-16.68zm-29.19 74.09a18.7 18.7 0 0 0 6.95 7.28 19.68 19.68 0 0 0 5.4-15.45 30 30 0 0 1-12.35 8.18z" fill="#fff"/>
</svg>
