<svg xmlns="http://www.w3.org/2000/svg" viewBox="0 0 350 350">
    <path d="M60 150.25V290h230V60H162.67a56.92 56.92 0 0 0-21.32-1c-1.86.29-5.07.91-7.84 1.45-7.74 1.5-9.48 2-13.33 2.67a98.06 98.06 0 0 1-12.75 1.25 26.27 26.27 0 0 0 4.75 5.5c5.08 4.44 8.77 4.16 16.92 8.67 4.24 2.34 9.48 5.95 9 7-.21.46-1.46.32-6.08-.58-8.31-1.62-12.47-2.44-14.83-3.5-3.31-1.49-5.57-3.27-10.08-6.83-4.74-3.74-5.07-4.78-9.33-7.83a62.8 62.8 0 0 0-9.08-5.42 47.18 47.18 0 0 0-13.08-4.59c-4.28-.73-8.3-.2-16.34.84a112.3 112.3 0 0 0-18.08 3.83c-2 .6-3.65 1.17-4.83 1.58.74.28 1.88.74 3.25 1.33 2.64 1.15 4.53 2.13 5.08 2.42 5.13 2.63 8 2.77 12.17 5 1.93 1 7.44 4 10.59 10 1.91 3.63 3.85 10.08 1.24 12.54-1.43 1.35-2.94.31-9.17.42a67.69 67.69 0 0 0-12.25 1.5 90.92 90.92 0 0 0-9.5 2.33c3.9 1.4 7.15 2.64 9.58 3.58 9.33 3.64 11.18 4.8 12.67 5.92a43.7 43.7 0 0 1 6.5 6.25 33.48 33.48 0 0 1 4.75 6.06c3.1 5.49 2.77 10.42 5.24 13.1a24.8 24.8 0 0 0 2.95 2.89 5.3 5.3 0 0 1 1.34 1.16c.88 1.16 1.17 2.8.73 3.07s-1.17-.53-1.51-.82c-2.71-2.32-7.15-2.82-10.22-3.16-4.27-.48-7.58.21-11.66 1.06-1.8.37-3.27.78-4.29 1.08 1.53 1.16 2.78 2 3.63 2.58 1.29.85 2.4 1.5 2.57 2.66a2.18 2.18 0 0 1 0 .81zm77.63-69.31a58.7 58.7 0 0 0-14.19-7.56 29.92 29.92 0 0 1-7.52-4 29.29 29.29 0 0 1-3.6-3.1c4.76-.52 9.75-1.2 14.94-2.06 4.32-.72 8.46-1.52 12.42-2.37a69.36 69.36 0 0 1-11.23 3l-4.69.81-7.67 1.4a15.82 15.82 0 0 0 1.5 1.67c3.16 3 6.14 3.35 11.17 5.33a45.58 45.58 0 0 1 8.31 4.17 33.06 33.06 0 0 1 6.85 5.57l2.92 3.43-.68.32h-1.49a41 41 0 0 0-7.04-6.61zm-56.94 55.44a48.1 48.1 0 0 1-3.19-4.06c-3.37-4.67-2.13-7.78-4.74-13.53a26.15 26.15 0 0 0-4.57-6.84 24.37 24.37 0 0 1 2.06 2.05c3.8 4.29 5.66 9.46 7 13.27a33 33 0 0 0 1.75 4.11 28.21 28.21 0 0 0 2.19 3.69c2.52 3.55 4.06 3.7 5 6.13a8.32 8.32 0 0 1 .44 4.13l-2.06-2.06a6.66 6.66 0 0 0-.19-1.75c-.53-2.18-2-3.32-3.69-5.14z" fill="#fff"/>
    <path d="M280.5 280.5h-75.25c-4.19-5.21-10.29-12.86-17.5-22.25-19.55-25.46-29.33-38.19-34.5-49.25-7.18-15.37-17.36-37-8.92-58.83 6.32-16.33 20.13-25.27 27.33-29.17l-.17-51.29 109-.21z" fill="#191917"/>
    <path d="M271 271l-74.88.08A114.26 114.26 0 0 0 184 237.5c-13.88-25.06-30-31.11-37.5-53.5-2.61-7.82-4.59-19-2.17-33.83l27-24.5.17-46.92L271 79z" fill="#768696"/>
    <path d="M169.5 67.63a4 4 0 0 1 2.17-.58c1.81.09 3.15 1.64 5.58 5.08 2.92 4.14 2.68 4.3 3.88 5.79a23.69 23.69 0 0 0 8.25 6.17c-.09.16-4.9-.7-8.42-4.62a105.49 105.49 0 0 1-6.75-9.29 3.67 3.67 0 0 0-2.38-1.86 2.21 2.21 0 0 0-.79.06l1.17 1.42c8.91 10.82 11.34 13.2 14.85 14.83a20.39 20.39 0 0 0 3.75 1.31c-.36-.33-.73-.78-.62-1.19.4-1.55 7.48-1 8.44-.87 4.12.35 9.17.77 14.38 3.88 4.48 2.67 4.55 4.63 10.13 9.44a57.2 57.2 0 0 0 10.5 7.19L214.5 119.5l-43.12-15.62z" fill="#fff"/>
    <g data-name="Layer 6">
        <path d="M205.42 248.35a2.06 2.06 0 0 1 1.82.3c.66.59.23 1.49.93 2.09s1.42.15 1.83.75a1.65 1.65 0 0 1 .13 1.17c-.13 1.13-.78 1.62-.54 2s.75.18.83.17c.71-.12.83-.75 1.23-.73s.46 1 1.35 1.77c.73.65 1.21.41 1.54 1 .52.85-.36 1.86.08 2.29s1.91-.65 2.71-.08c.52.37.46 1.26.46 1.63 0 2.13 1.51 3.8 3.54 6.13a18.49 18.49 0 0 0 5.42 4.25h-14.44c-.56-1.33-1.12-1.7-1.56-1.75-.6-.07-1.11.45-1.5.17s-.14-.64-.5-1a1.6 1.6 0 0 0-1.25-.33c-1 .09-1.33.89-1.79.92s-1.46-1.19-2.71-6.37zm45.28-13.98a1.39 1.39 0 0 1 1.45.37 1.41 1.41 0 0 1 0 1.79.93.93 0 0 1-.79-.26c-.23-.27 0-.57-.28-.89s-.66-.25-.72-.49.03-.26.34-.52zm-29.45-6.49a.89.89 0 0 1 .31-1.15c.47-.15 1.38.88 1.17 1.38-.11.25-.47.3-.54.31a.93.93 0 0 1-.94-.54zm.25 1.7a.82.82 0 0 0-.54-.67c-.26-.09-.49 0-.94.19s-.71.29-.73.46c0 .4 1.19 1.19 1.84.77a.83.83 0 0 0 .37-.75zm2.1 1.92c.51-.6 1.19-.69 1.48-.44a.77.77 0 0 1 .08.9 1.09 1.09 0 0 1-1.6.13.68.68 0 0 1 .04-.59zm-12.25-9.1c.55-.15 1.53 1.13 1.31 1.48a1.23 1.23 0 0 1-1.69-.5c-.1-.38.08-.9.38-.98zm-29.93-24c.17-.21.65-.13.94 0 .85.43.84 1.84.83 2a1.33 1.33 0 0 1-1.13-.07c-.21-.15-.31-.46-.52-1.09s-.16-.8-.12-.84zm5.58 3.91c.54 0 .9.38.88.69s-.34.46-.37.48c-.6.07-1-.3-1-.6s.21-.45.49-.57zm-11.77-2.68c0-.19-1.7-.22-3-1a2.49 2.49 0 0 1-.67-.5c-.45-.51-.33-.88-.69-1.1s-.77.12-1.16-.16-.14-.35-.49-.9a1.93 1.93 0 0 0-.66-.74 1.66 1.66 0 0 0-.95-.2 2.57 2.57 0 0 0-1.37.63c-.39.27-.38.35-.37.38s.44.08 1.19.21a3.61 3.61 0 0 1 .88.23 3.06 3.06 0 0 1 .87.62 12.77 12.77 0 0 0 1.44 1c1.88 1.27 1.76 1.55 2.5 1.79a2.78 2.78 0 0 0 2.48-.26zm-9.75-6.82c0 .41-.62.69-.87.81a4 4 0 0 1-2.75 0 26.76 26.76 0 0 0-4.83-.75l-2.94-5.33a2.86 2.86 0 0 0 2.12-.3c.5-.32.66-.74 1.27-.89a1.7 1.7 0 0 1 1.17.13c.61.34.63 1 .92 1.71.4.94 1.19 1.47 2.78 2.51 1.91 1.3 3.16 1.5 3.13 2.11zm-11.6-9.96a5.42 5.42 0 0 0 1.81 1.29c.75.32 1.22.31 1.27.52s-.55.84-3.77 2.17zm103.51 84.73c.25.08.37.51.33.83-.07.51-.6 1-.94.86s-.36-.45-.34-.72c.02-.55.56-1.09.95-.97zm3.13 1.58a.37.37 0 0 1 .43.18c.06.13-.14.23-.13.49v.15c0 .07-.12.45-.24.46s-.33-.36-.33-.7c.02-.08.02-.5.27-.58zm1.76 1.27a.67.67 0 0 1 .52.31.57.57 0 0 1 .07.27h-1.36a.83.83 0 0 1 .77-.58z" fill="#566675"/>
        <path d="M250 79c.38.36.9.84 1.57 1.38 1.51 1.22 2.22 1.52 2.67 2.5.33.73.42 1.62.17 1.75s-.77-.82-2.31-2.19a8.85 8.85 0 0 0-3.15-2.18 2.41 2.41 0 0 1-1-.46 2.34 2.34 0 0 1-.62-.81h-13.87a2.46 2.46 0 0 1-.79 1.63 2.89 2.89 0 0 1-2.12.5c-.77-.08-1-.39-1.62-.25a1.89 1.89 0 0 0-1 .67 1 1 0 0 1-.79-.09c-.51-.33-.63-1.35-.1-2.47H211.2c.69.05 1.39.2 1.5.58s-.48.66-.62 1.19c-.38 1.35 2.25 4.2 5 4.16 2.05 0 3.44-1.7 3.79-1.35.56.57-2.16 4.24-1.75 4.56.2.15.81-.67 1.75-.94 1.55-.44 3.32.82 4.81 2.31-.24.12-2.19 1.15-2 2.13.07.39.43.5 2 1.43 1.84 1.12 2.1 1.44 2.56 1.31.86-.24.67-1.57 1.56-2.12.58-.36 1.67-.43 3.94 1a12 12 0 0 1-1.75-1.62c-.76-.86-.79-1.15-1.31-1.44-1-.56-1.82 0-2.25-.56a1.37 1.37 0 0 1 .06-1.5c.34-.48.78-.34 1.25-.75.81-.71.3-1.83.75-2.12 1.06-.68 5.13 4.62 6.56 3.84.54-.29.24-1.19 1-1.71.94-.64 2.42 0 2.81.19 2.27 1 2.45 2.93 4.07 3 .77 0 .79-.39 1.87-.35a5.14 5.14 0 0 1 2.68.95 6.06 6.06 0 0 1 1.34 1.22 9 9 0 0 0 .66 3.53 5 5 0 0 0 1 1.7c.8.85 1.4.74 2.09 1.62.52.66.35.93.81 1.59a4.76 4.76 0 0 0 2.38 1.59c3.08 1.33 3.78 5.16 4.38 4.94s.27-5.15-1.94-6.06c-.56-.23-1.34-.25-1.72-.9a1.32 1.32 0 0 1 0-1.48c.7-.67 2.7.64 2.94.25.14-.22-.36-.86-.87-1.25-.69-.53-1.19-.43-1.44-.87-.12-.22-.2-.6.13-1.31a1.83 1.83 0 0 1 .82.1c.81.3 1.13 1.15 1.37 1.59 1 1.77 2.83 1 5.13 3.13a25.61 25.61 0 0 1 1.94 2.44l2.63 3.38V79zm-25.89 3.13c-.57.14-1.23-.35-1.21-.79s.45-.61.79-.68 1 0 1.13.43a.93.93 0 0 1-.74.99zm3.42 3c-.72-.26-.64-1.09-1.48-1.48a1.31 1.31 0 0 1-.65-.4 1 1 0 0 1-.17-.62c.38-.67.76-.74.88-.75.66-.06 1.22.87 1.63 1.54a6.53 6.53 0 0 1 .71 1.68 1.36 1.36 0 0 1-.95-.1zm8.71-.12a3.72 3.72 0 0 1-1.87 1.21 2 2 0 0 1-1-1.17 1.56 1.56 0 0 1 .5-1.71c.21-.11.37 0 .75 0 1.33.14 1.94-.42 2.21-.12s-.19 1.16-.62 1.7zm19 11a.86.86 0 0 1 .46-1 .87.87 0 0 1 1.12.58 1 1 0 0 1-.17 1.13c-.3.08-1.01-.12-1.4-.84zm1.21 4.54c-.31 0-.56-.51-.54-.92a1.13 1.13 0 0 1 .71-1 1.15 1.15 0 0 1 .58.83c.05.44-.38 1-.74.96zm-22.99-21.64l-6.46-.05zm16.42-.05h-2.58v.08h2.7z" fill="#556775"/>
    </g>
    <path d="M249 89.28a1.48 1.48 0 0 1-1.5-1.28c0-.82 1.63-1 1.65-1.7s-2.15-1.89-2.86-1.3.3 1.93-.51 2.7a1.25 1.25 0 0 1-1.06.34c-.88-.18-.67-1.51-1.81-2.37-.92-.69-1.73-.35-2-1a1.39 1.39 0 0 1 .79-1.69c.42 0 .65.58 1.12.5a.8.8 0 0 0 .63-.69c0-.78-2-1-2.09-1.94-.07-.55.5-.9.29-1.39a1.09 1.09 0 0 0-.73-.53h2.22a2.47 2.47 0 0 0 .09.69c.23.8.81 1.25 1.66 1.91 2.15 1.67 2 1.58 2.13 1.66a12.72 12.72 0 0 0 3.81 1.94c.34.08 1.08.25 1.16.65s-.31.5-.25.85c.08.5.94.64.91.84s-1.18-.07-2.16.5-.84 1.22-1.49 1.31zm9.09-8.78a1.87 1.87 0 0 0-1.5-.69c-.15 0-.37.1-.84.53-1 .95-1.18 1.66-1.56 1.64s-.44-.63-.91-1.36a5 5 0 0 0-1.84-1.62h6.41l1.41 1.42c2 2 2.16 2.23 2.13 2.28s-.71-.32-3.3-2.2zm6.66 3.34c.37-.25 1 .11 1.31.47a1.69 1.69 0 0 1 .34 1.34 1.49 1.49 0 0 1-1.72-.47c-.26-.41-.28-1.1.07-1.34zm6.25 9.03a3.13 3.13 0 0 0-.72-2.25c-.23-.24-.38-.3-1-.84a12.86 12.86 0 0 1-1-1c-.46-.54-1.23-1.55-1.09-1.69s.69.6 2.07 1.32a3.78 3.78 0 0 1 1.12.75 3.24 3.24 0 0 1 .62.84zM206.58 256c.3-.08.49.35 1 .5.89.26 1.51-1 2.21-.83s.78 1 .94 1.55c.67 2.21 1.52 2.11 3 4.95.15.28 2.57 4.94 1.6 5.7-.61.47-2.76-.46-3.93-1.95-.53-.67-.7-1.26-1.25-1.33s-.83.47-2 1.25c-1 .63-1.6 1-2 .83s0-1.36-.17-4c0 0-.08-1.72.08-4.75.02-.76.09-1.8.52-1.92z" data-name="Layer 11" fill="#44525f"/>
    <g data-name="Layer 5">
        <path d="M221.25 272a1.22 1.22 0 0 0 .25-.58 1.45 1.45 0 0 0-.37-1.08c-.3-.35-.5-.28-.67-.58s0-.46-.08-.92a2.66 2.66 0 0 0-1-1.54 6.54 6.54 0 0 1-.67-.46 3.72 3.72 0 0 1-.63-.79c-.46-.7-.5-.86-.74-1.21a5.78 5.78 0 0 0-1-1c-1-.94-.9-1.35-2.29-3.12-.48-.62-.88-1-1.21-1.42a31.22 31.22 0 0 0-2.21-2.21l2.88 1.83a14.79 14.79 0 0 0 2.13 1.29 6.71 6.71 0 0 1 1.58.79 3.1 3.1 0 0 1 1 1c.41.7.09 1 .45 1.57s.87.44 1.42 1.18a12.19 12.19 0 0 1 .58 1.25 5.79 5.79 0 0 0 .79 1.29 4.14 4.14 0 0 0 .75.67c1.43 1 1.68 1.67 3.29 2.83a16.35 16.35 0 0 0 1.74 1.1l3.71.2c-1-2.3-1.68-2.81-2.08-2.75a1.4 1.4 0 0 1-.58.08 1.14 1.14 0 0 1-.87-.75c-.1-.31-.1-.81.17-1 .72-.5 2.88 1.7 3.21 1.38.11-.1 0-.42-.25-.87a5 5 0 0 0-.87-1.29c-.41-.45-.55-.46-1.08-1s-.65-.71-.58-.83.72-.06 1.2.17a4.21 4.21 0 0 1 1.83 2c.45.91.34 1.24.75 1.5.57.36 1-.14 1.88 0s1 .66 2 1.79a24.83 24.83 0 0 0 2.08 2zm-14.75-13.83a2 2 0 0 1 .7-.34 1.1 1.1 0 0 1 1.63 1.14c0 .45-.07.59 0 .71.27.29 1.06-.34 1.45-.09.23.15.36.63 0 2a.8.8 0 0 1-.37.21 1.43 1.43 0 0 1-1.33-.83c-.34-.62 0-1-.37-1.42a1.87 1.87 0 0 0-1-.54c-.43-.08-.7 0-.83-.12s.01-.5.12-.72zm5.21 5.12a.51.51 0 0 1 .29-.29c.35 0 .61.62 1.15 1.47 1 1.53 1.89 2.15 1.64 2.62a.48.48 0 0 1-.25.21c-.08.11-.27.32-.46.29s-.29-.27-.34-.37a9.33 9.33 0 0 0-1.37-2c-.51-.56-.85-.64-.92-1.08a1.25 1.25 0 0 1 .26-.85z" fill="#191917"/>
        <path d="M216 265.83a.63.63 0 0 1 .5-.25c.37 0 .74.6.75 1.46a.74.74 0 0 1-.48.09c-.38-.13-.72-.6-.77-1.3zm8.33-1.91a.87.87 0 0 1 .86-.12c.32.2.43.88 0 1.49a.86.86 0 0 1-1.17-.42.84.84 0 0 1 .31-.95zm1.14 3.87a.88.88 0 0 0-.64.38.87.87 0 0 0 .08 1c.76-.32 1.18-.76 1.11-1-.02-.08-.07-.27-.55-.38zm-9.01 1.84a.57.57 0 0 0 .09.84.57.57 0 0 0 .8-.2c.03-.19-.35-.44-.89-.64zm14.17-35.07a.62.62 0 0 1 .75-.12c.27.15.28.5.38.81.37 1.19 1.85 1.12 2.5 2.44a2.56 2.56 0 0 1 .25 1c-.64-.44-1.21-.84-1.69-1.19a5.61 5.61 0 0 1-2.12-2.19c-.2-.44-.16-.63-.07-.75zm8.68 7.07c.31.19 1.49 1 1.56 1.88a.63.63 0 0 1-.12.5c-.23.22-.7.1-.94 0-.54-.36-.72-1.29-.5-2.38zm-7 5.62c0-.31.5-.51.81-.56.62-.11 1.37.23 1.38.56s-.78.78-1.44.63c-.33-.08-.76-.33-.75-.63zm14.57 1.38a1.33 1.33 0 0 1 1.1-.21c.58.25.91 1.35.4 2.65a5.33 5.33 0 0 0-.94-.69c-.41-.24-.62-.29-.75-.5s-.18-.56.19-1.25zm5.62.31c.35.11.44.8.38 1.25a1.85 1.85 0 0 1-.5 1 1.2 1.2 0 0 1-1.37-.5c-.17-.45.32-.95.63-1.25s.57-.59.86-.5zm.13-4.06c.34-.15.68-.22.88-.06s.06.61.31.81.85-.12.94 0-.09.33-.87 1a1.73 1.73 0 0 0-.44-.48c-.57-.42-1.15-.28-1.26-.54s-.02-.3.44-.73zm-1.05 7.58c-.64.26-1 .68-.87.92s.56.29.63.29a.71.71 0 0 0 .25-.21 1 1 0 0 0-.01-1zm2.13 2.79a.67.67 0 0 1 1.05.67.62.62 0 1 1-1.05-.67zm4.5-9.46a1.19 1.19 0 0 0 .38.75c.55.47 1.56.25 1.67-.08a.48.48 0 0 0-.26-.46c-.25-.19-.48 0-.79-.17s-.26-.42-.46-.46-.25.03-.54.42zm1.71 5.04c.25-.17.66 0 .88.2.42.32.26.61.66 1.09s.7.38 1 .88c.15.25.32.68.17.83s-1-.24-1-.29c-.37-.23-.38-.35-1.08-1.08-.55-.57-.78-.74-.79-1.08a.66.66 0 0 1 .16-.55zm.96 4.29c.14-.58.28-.7.38-.71s.26.51.87 1.71a2.93 2.93 0 0 1 .38 1.16 2.54 2.54 0 0 1 0 .42c-.31.09-.71.16-.92 0s-.11-.53-.12-1a3 3 0 0 0-.59-1.58zm3.25-7.29c-.1.07.1.79.67 1.21.37.28.61.2 1 .38s.68.45 1.38 1.75.59 1.42 1.17 2.46a8.85 8.85 0 0 0 1.33 1.88 7.47 7.47 0 0 0 1.21 1c.78.55 1.74 1.68 2.54 4.25v-4.54a22 22 0 0 0-2-2.13c-1-.93-1.35-1.08-1.67-1.14-.6-.13-1 .05-1.25-.23s0-.65-.08-1.33a4.25 4.25 0 0 0-1.08-1.71c-.58-.71-.88-1.07-1.29-1.17s-.55.06-1-.08-.85-.66-.93-.6zm.87 8.96c0-.22.07-.71.25-.75s.68.91.79 1.15c.34.79.24 1 .51 1.22.49.44 1.1 0 1.42.42s-.26 1.37.08 1.67.67-.23 1.23-.05a1.37 1.37 0 0 1 .91 1.51c-.08.28-.33.63-.64.66s-.47-.34-1.25-.79c-.32-.18-.64-.36-.82-.24s0 .46-.27.78c0 0-.21.27-.41.26s-.58-.53-.63-1 .15-.66 0-.86-.48-.07-1-.2a1.9 1.9 0 0 1-1.29-1 1.12 1.12 0 0 1 .17-1.08c.32-.31.74-.05 1-.33s-.05-.6-.05-1.37zm-2 4.34a.69.69 0 0 1 .5-.25c.46 0 .95.7 1.08 1.76-.15.17-.46.47-.78.43s-.95-.84-.8-1.94zm4.54 2.66c.18-.22.7-.19 1 0s.25.76.75 1.5c.39.57.71.6.79 1s-.11.94-.35 1-.36-.84-1.32-1.77a2.87 2.87 0 0 1-.87-1.08c-.02-.11-.15-.44 0-.65zm1.38-163.58c-.21.11-.19.89.21 1.42s.61.33 1.58.83 1.26.85 1.38.75-.13-.74-.58-1.17-.73-.25-1.25-.75a6.29 6.29 0 0 0-.86-.86c-.4-.27-.46-.23-.48-.22zm1.87-2.38c-.58-.07-.86-.81-.71-1s1.5.2 1.5.58c0 .23-.41.47-.79.42zm-5.66-4.91c.49-.13.87 0 .92.27s-.18.41-.21.44a.61.61 0 0 1-.83-.21.58.58 0 0 1 .12-.5zm-1.88 6.79a.56.56 0 0 0-.25 1.08.64.64 0 0 0 .54-.62.63.63 0 0 0-.29-.46zM244 78.93c-.18.11-.47.34-.46.61s.32.46.65.67c1 .67 1.47 1.24 2.81 2 .13.07.39.22.5.13s0-.44 0-.54c-.4-1.06-1.41-1-2.08-2.08-.19-.32-.31-.65-.67-.79a1.06 1.06 0 0 0-.75 0zm9 6.24a1.39 1.39 0 0 1 1-.17c.36.08.79.35.75.54s-.69.41-1.17.17a1.1 1.1 0 0 1-.58-.54zm3.33 2.12a2 2 0 0 1 1.21-.54 1.92 1.92 0 0 1 1 .21 1.26 1.26 0 0 1-2.21.33zm-1.33 1l.67-.33s.26.51.46.83a5.32 5.32 0 0 0 .71.92 1.2 1.2 0 0 1-.91.24 1.45 1.45 0 0 1-.93-1.66z" fill="#191917"/>
        <path d="M214.51 215.24a1 1 0 0 1 1.14.63.91.91 0 0 1-.5 1c-.67.32-1.69-.45-1.62-.95s.86-.65.98-.68z"/>
    </g>
    <g>
        <path d="M136.25 239.63a29.25 29.25 0 0 0 3.56 2.56 29.67 29.67 0 0 0 5.69 2.69c11.11 4 16 5.49 20.88 7.75a47.44 47.44 0 0 1 9.63 5.44c2.77 2.08 9 6.89 12.31 15.44a31.38 31.38 0 0 1 1.81 7h2.13a21.75 21.75 0 0 0-1.12-4.94 23.26 23.26 0 0 0-3.87-6.76A55.7 55.7 0 0 0 177 257.94c-10.38-8.06-17.53-6.5-36.9-16.31-1.71-.85-3.04-1.57-3.85-2z" fill="#191917"/>
        <path d="M302.88 189.75c-5.54-7.4-11.85-15.09-19-22.87q-4.78-5.2-9.5-9.87V141l-14.28-6.93a16 16 0 0 0 7.15-7.45c2.63-5.93 1.06-13.36-4-18.91a35.34 35.34 0 0 1-35.53 10.66 159.11 159.11 0 0 0 15.14-12.09A159.13 159.13 0 0 0 258.54 90a202 202 0 0 0-47 9.73 62.64 62.64 0 0 0-6.37-1.7c-6.42-1.36-7.8-.59-13.12-1.87-4.16-1-8.18-2-10.62-5.37-.58-.8-.56-1-2-3.25a65.29 65.29 0 0 0-4.35-6c-3.23-3.76-7.64-5.32-10.71-6.4-5.13-1.82-9.45-1.93-14.48-2.06a71.84 71.84 0 0 0-8.21.25c.86.37 2.12.91 3.68 1.51 4.19 1.61 5 1.57 6.69 2.37a16.23 16.23 0 0 1 6.63 6.25c2 3.26 1.38 4.76 3.11 8.76a25.45 25.45 0 0 0 5.18 7.62 98.78 98.78 0 0 0-12.42-.42 71.29 71.29 0 0 1-8.33.11 49.67 49.67 0 0 1-8.94-1.52 107.31 107.31 0 0 1-18.9-6.16 81.92 81.92 0 0 1-16.42-9.08C95.41 77.94 95 76 90.58 73c-4.28-2.92-11.21-6.11-22.33-6.25a35.67 35.67 0 0 1 7.08 5.58c1.4 1.42 4.08 4.41 8.67 13.17 2.82 5.39 2.67 5.92 4.58 9.58 3.14 6 7 13.39 14.33 18.42 3.88 2.66 8 3.94 16.33 6.5s13.3 3.11 13.25 4.17c-.05 1.23-6.76 2.22-12.5 2.17-2.92 0-15-.14-23.35-7.05-1.23-1-3.19-2.85-4.69-4.33-3.63-3.58-5.34-5.81-6.46-7-2.48-2.53-7.23-5-17.25-4.37a50.45 50.45 0 0 1 6.23 4.41 25.77 25.77 0 0 1 4.78 4.61 25.36 25.36 0 0 1 3.41 6.53c1.31 3.28 1.1 3.95 2.09 6.3a17 17 0 0 0 4.5 6.83 15 15 0 0 0 3.83 2.25c5.34 2.6 8.3 7.84 9.75 10.42a30.21 30.21 0 0 1 3.79 15.83 35.89 35.89 0 0 0-10.85-4.59c-2.84-.66-5.83-1-9.1-3.24a28.83 28.83 0 0 1-3.17-2.67c-3.39-3.19-3.11-4.05-5.08-5.33-1.67-1.08-3.42-1.36-6.92-1.92a40.9 40.9 0 0 0-5.62-.5c3.33 1.07 8 3.19 9.38 7.36a8.41 8.41 0 0 1 .41 2.81c0 9.49-.82 19.37-.55 27.08a48.85 48.85 0 0 0 .86 8.59c.36 1.77.69 2.56 1 4.91.24 1.65.56 3.28.83 4.92.72 4.27 2 4.79 6 14.17a27.16 27.16 0 0 0 3.42 5.92 49.06 49.06 0 0 0 3.7 4.63c5.64 6.16 24.46 19.92 33.3 26.62 0 0 5.87 4.45 16.25 13.75a48.87 48.87 0 0 1 5.17 5.25 44.36 44.36 0 0 1 3.66 4.74c1.28 2 2.32 4 4.75 5.4.28.16.52.28.68.36 0-.18.07-.41.11-.62l-.28-.17a49.44 49.44 0 0 1-3.29-3.83c-.58-.76-1.51-1.95-2.58-3.62a25.82 25.82 0 0 0-1.83-2.79 11.86 11.86 0 0 0-2.75-2.42l.33-1.42c.13 0 .33.13.57.25a9.57 9.57 0 0 1 4 4 72.67 72.67 0 0 0 6.05 8.16 17.83 17.83 0 0 0 0-2.52 20.64 20.64 0 0 0-3.83-10.17c-4.93-7.41-10.19-9.55-15.92-15.92a42.2 42.2 0 0 1-4.65-5.79 17.36 17.36 0 0 0-1.77-2.62c-1.17-1.33-2.14-1.82-2.85-3.37a4 4 0 0 1-.44-1.44 8.4 8.4 0 0 0 .81 1.25 3.86 3.86 0 0 0 1.31.94 22.66 22.66 0 0 1-.75-8.37 42.32 42.32 0 0 0 3.08 3.75 40.28 40.28 0 0 0 9.08 7.42 37.41 37.41 0 0 0 9.17 3.58c13.08 3.85 20.16 5.94 26.62 10.14a43.93 43.93 0 0 1 8.92 7.73c0-.47.14-1 .46-1.12 1.22-.47 4.91 5.1 6.83 10.25a31.48 31.48 0 0 1 2 10.25h12.13l.25-4.25c-.11-11.12.14-22.94.88-35.37.88-15 2.37-29 4.21-42l-34.71 11.5a55.63 55.63 0 0 1-18.62-21c-2.32-4.65-4.54-9.1-4.62-15.25-.11-8.55 3.89-14.94 11.63-27.25 3.83-6.09 8.21-12 8.5-11.83s-1.21 2.41-3 5.79a146.14 146.14 0 0 0-6.29 14.25c-3.68 9.85-5.5 14.76-4.33 19.85 1 4.08 3.14 6.7 7.08 11.42a62.82 62.82 0 0 0 12.25 11.25c10.13-2.36 17.81-4.2 22.33-5.29 10.31-2.49 15.06-3.69 18.15-1 1.77 1.54 2.32 4.44 3.35 10.17a93 93 0 0 1 1.42 13.25 77.3 77.3 0 0 0 29.25 8.08 20.78 20.78 0 0 0 7.62 8.93 21.48 21.48 0 0 0 8.38 2.94 46.85 46.85 0 0 0 22-2l8 3.78 9.63-9.65 2.71-36.2zM101.5 230.83c-.28.27-3.61-2.83-5.42-4.5-3.44-3.19-1.82-2-2.83-2.87-.79-.65-1.79-1.36-1.67-2.12a1 1 0 0 1 .29-.54.77.77 0 0 1 .3-.08c.7 0 1.25 1 1.45 1.33a20.06 20.06 0 0 0 2.75 3.47c1.75 1.93 3.83 2.82 5 4.9.08.14.19.35.13.41zm6.71 5.25s-.12 0-.79-.46c-1.11-.8-1.66-1.2-1.58-1.37s.87-.16 1.46.21c.77.49 1.08 1.54.91 1.62zm10.89 8.1c-.11.14-.4.14-.72 0-.58-.4-1.05-.74-1.37-1-.93-.68-1.22-.94-2.19-1.65s-.85-.58-1.31-.94c-1.46-1.15-1.32-1.42-2.16-1.87a2.72 2.72 0 0 1-1-.78 2.42 2.42 0 0 1-.29-.51 3.12 3.12 0 0 1 1 .13 3.4 3.4 0 0 1 1.42.88c.53.52.48.74 1 1.25a5.65 5.65 0 0 0 1.42 1c1 .62 2 1.31 3 1.92a2.4 2.4 0 0 1 1.08 1c.12.18.23.39.11.58zm23.9 18.53a6 6 0 0 1 .5.67l-.37 1.42a17.48 17.48 0 0 1-2.63-3.8 6.42 6.42 0 0 1 2.5 1.71zm-10.17-8.25c.76-.08 1.24.59 2.29 1.54 1.78 1.6 2.46 1.52 3 2.67a4 4 0 0 1 .38 1.67l-6.42-5.54a1.46 1.46 0 0 1 .75-.34zm-5.25-4.5s3 1.8 3.42 3.17a4 4 0 0 1 .15.75v.34a25.51 25.51 0 0 0-3-2.5 30.24 30.24 0 0 1-2.58-1.79c-.85-.71-1-1-2.21-2-.77-.62-1.16-.93-1.4-1.08-.79-.48-1.28-.6-1.43-1a1.33 1.33 0 0 1 .25-1.08 1.43 1.43 0 0 1 .72.22c.34.22.41.51.62.82.34.51.7.55 1.31 1a8.1 8.1 0 0 1 1.44 1.52c.69.67.92.55 2.71 1.67zM75 196.75a3.69 3.69 0 0 1 .79.92 3.64 3.64 0 0 1 .27.53c.48-2.27.66-2.75.73-2.74a26.27 26.27 0 0 0 .17 4 16.59 16.59 0 0 0 .54 2.13 35.48 35.48 0 0 0 1.48 4 12.35 12.35 0 0 1-1.56-2.44 30 30 0 0 1-1.25-3.32c-.17-.69-.6-1.77-1.17-3.08z" fill="#191917"/>
        <path d="M74.63 189.86c.12-.75.2-.89.26-.89s.06 1.37.44 3.38a20.41 20.41 0 0 1 .56 3.33v.75q-.16-.26-.31-.55a11.65 11.65 0 0 1-.95-6.02z" fill="#191917"/>
        <path d="M182.5 117.33l34.58 10.58 23.5 23.92-18.9-1.66-13-5.34a13 13 0 0 0 .17-8.92c-1.68-4.22-5.63-5.66-13-9.92a152.37 152.37 0 0 1-13.35-8.66zm38.25.5l24.67-19.75a37 37 0 0 0-11.67 2.08c-3.56 1.26-8.35 2.95-12.17 7.58a21.57 21.57 0 0 0-4.08 7.92zM289 197.08l4.42 10.17-12.75-7.92 8.33-2.25z" data-name="Layer 9" fill="#7b8e9d"/>
        <path d="M68.5 47.25a29.14 29.14 0 0 1 11.83-1.08c3 .35 7.57.89 11.58 4.08 1.48 1.18 1.59 1.69 5.83 6.33 2.09 2.29 3.85 4.11 5 5.29a20.12 20.12 0 0 1-10.83-2.71c-2.32-1.41-2.39-2.22-6-4.82a39.19 39.19 0 0 0-8.55-4.84 35.09 35.09 0 0 0-8.86-2.25zm29.19 143.44c.2-.11.77.84 1.94 1.94a14.43 14.43 0 0 0 3.13 2.19 93.63 93.63 0 0 0 13.56 6.13c9.37 3.23 14.05 4.84 17 7.38a28.68 28.68 0 0 1 8.68 13.86c.19.81.46 2.4.61 3.36.35 2.23.75 4.76.33 4.89-.27.08-.76-.84-1.06-1.37-1.14-2-2.67-3.23-5.74-5.77-4.92-4.07-12.93-8.29-14.13-8.91-9.4-4.87-10.45-4.44-13.81-7.44a41.57 41.57 0 0 1-6.95-8.12 29.52 29.52 0 0 1-2.55-4.88c-.19-.41-1.34-3.08-1.01-3.26zm130.25-66.1l42.73 23.07-6.33 10.83L301 194.17l10.33-3.49-2.71 36.2-10-27.54-7-11.52-7 1.84-34.41-30.91a12.06 12.06 0 0 0 3.72-7.5c.19-3.1-1.19-6.32-7.44-12.5a92 92 0 0 0-18.55-14.16zM239 109.63l8.06 6.75a18.34 18.34 0 0 1 2.69 7.69 18.13 18.13 0 0 1-.23 5.44l-21.77-11.13zm-23.75 25.56l6.19 11.31 16.46 2.6-10.63-10.81-12.02-3.1z" data-name="Layer 8" fill="#fff"/>
    </g>
</svg>
