<svg xmlns="http://www.w3.org/2000/svg" viewBox="0 0 350 350">
    <defs>
        <clipPath id="a">
            <path fill="none" d="M78.83 79.15h192.63v192.42H78.83z"/>
        </clipPath>
    </defs>
    <path fill="#fff" d="M60.1 60.23h229.79v229.54H60.1z"/>
    <path d="M69.39 69.6H280.6v210.98H69.39z"/>
    <path fill="#723390" d="M78.83 79.15h192.63v192.42H78.83z"/>
    <path d="M60.1 221.25c-2.26 4.51-3.09 9.63-5.94 13.83 1.35.62 1.54.86 2.93.6a16.08 16.08 0 0 0 2.35-.83q2.68-1 5.32-2 4.92-2 9.71-4.24t9.53-4.89c.86-.47 1.16-.85 2-.49.65.28 1.29 1.36 1.8 1.91l3.47 3.71c2.68 2.88 5.42 5.75 7.9 8.8.45.55.84 1.12 1.24 1.69a10.92 10.92 0 0 0 2 2.14c.45.39 1.15.84 1.31 1.48.3 1.19-.31 1.43-1.15 2.37a9.34 9.34 0 0 1 2.51-.19c.83.33.28.24.64 1 .58 1.31.85 2.43 2 3.44 1.51 1.37 3.08 2.14 4.57.79a103 103 0 0 1 15.23-11.83c-4.34 5.62-10.71 9.08-14.67 15a42.18 42.18 0 0 1 8.33-6.33 9.84 9.84 0 0 0 4.18-3.57 12 12 0 0 1 2.68-3.25c3.53-2.93 7.69-4.51 11.43-7.14a42.11 42.11 0 0 0 5.39-4.51c1.24-1.23 1.46-1 3.21-.67l3.72.77 8 1.64c1.19.24 2.75.23 3.16 1.15.31.68.19 1.78.48 2.55.71 1.91 1.48 3.12 1.5 5.24a15.3 15.3 0 0 0 .07 2.33 34.61 34.61 0 0 0 3.16 8.83 18.54 18.54 0 0 0 1.56 3.23 1.47 1.47 0 0 0 1.76 1.24c.69.81 1 2.82 1.33 3.83l1.33 3.83a40.48 40.48 0 0 1 9.92-7.06c2.56-1.22 5.15-1.58 7.84-2.32 4-1.11 5.61-4.36 8.93-6.35 1.56-.94 3.34-1.19 5-2a14.18 14.18 0 0 0 4.43-3.46l1.25 2.33a5.52 5.52 0 0 0-.17-3.75 3.09 3.09 0 0 0 2.46 0c.9-.62.47-1.47 1.05-2.24 1.19-1.57 3.92-.52 5.49-1.75 1.21-.94 1.49-2.9 3.34-2.88s.74.65 1.24 1.71 2.35.18 2.92 1.15c.24.4-.2 1.18 0 1.61.3.66.07.17.63.61a21.91 21.91 0 0 0 3 1.26 21.19 21.19 0 0 1 5.77 4.38 52.43 52.43 0 0 0 9.21 8.2c6.52 4.33 12.59 9.32 18.7 14.2q11.53 9.21 22.93 18.59c-5.2-6.86-10.38-14.74-11.89-23.4-.53-3-.36-6.13-1-9.16a28.48 28.48 0 0 0-7.18-13.74l5.86-2.27c2-.76 4.32-2.08 6.38-2.23 4.19-.29 8.87.71 13.06 1a4.29 4.29 0 0 1-3.17 2.5c7.53 1.48 14.43 4.89 21.92 6.5-1.12-2.84-2.41-5.66-3.37-8.55a3.06 3.06 0 0 1-.12-2.62c.5-1.08 1.15-1 1.25-2.07.2-2.19-1.79-4.22-2.49-6.09-1-2.78-.42-7.26-.53-10.27l-1.4-39.49-1.4-39.49-.16-4.45c0-1.16.33-3.94-.18-5-.65-1.38-5.29-1.84-7-2.33a47.22 47.22 0 0 0-10-2c-2.11-.16-6.07-.63-7.26-2.43-.8-1.22-1.1-3.46-1.55-4.88-.56-1.77 0-2 1.28-3.15 4.13-3.73 9.25-6.24 13.76-9.48a19.35 19.35 0 0 0-5.31 1.08 29.63 29.63 0 0 0-3.62 1.69 23.37 23.37 0 0 1-7.65 2.15c.52-.33 1.25-.77 2.15-1.27 4.18-2.32 7.19-3.14 7.13-3.37s-4.74.83-6.25 1.19c-4 1-4.45 1.21-8.62 2.22-3.55.87-3.95.86-6.49 1.57-3.28.92-3.09 1.06-4.83 1.4-2.44.48-3.49.33-6.48 1-1.18.26-1.94.49-2.66.69a86.5 86.5 0 0 1-9.88 2.09c-6.73 1-5.3-.1-12.17.86-2.14.3-4.41.71-5.37-.5-.64-.8 0-1.44-.56-3.47a17.46 17.46 0 0 0-2.2-4.34 13.46 13.46 0 0 1-1.3-2.37c-.55-1.41-.29-1.68-.69-2.06-1-1-3.21.43-6.15.73a6.62 6.62 0 0 0-2.08.5 2.66 2.66 0 0 0-1.44 1c-1.48 1.51-2.82 1.55-4.84 2.05a5 5 0 0 0-1.79.53c-.93.77 0 0-.4.65-.71 1-.16 1.46-1.75 1.75-2.51.45-5.24-.09-7.79.11a24 24 0 0 0-6.34 1.77 23.57 23.57 0 0 1-15.44.12 4 4 0 0 0 2 4.42c-2.26-.48-6.9-2-9.07-.37-1.36 1-1.67 1.93-3.76 1.41-1.84-.45-3.42-2-3-4-1.11-.14-2.79.84-3.64 0a1.44 1.44 0 0 1 1.11-2.39 33.72 33.72 0 0 0-3.36-1.61c-1.43-.59-2.11-.75-3.72-1.46-1-.45-1.71-.83-2.45-1.18l-5.88-2.83c.86 1.52 2.4 6.83.35 8.29a2.28 2.28 0 0 1-1.1.37c-3.1.4-5.8-2.77-6.3-3.36l-.58.69a4.32 4.32 0 0 0-2-1.49c-1-.33-1.6 0-2.17-.49s-.18-1.4-.88-2.19a6.42 6.42 0 0 0-2.19-1.13c-1.23-.51-3.38-.45-4.43-1.1s-1.07-2.54-.72-3.55a11.85 11.85 0 0 0-4.61 4.38 8.72 8.72 0 0 0-6.41-1.27 2.89 2.89 0 0 0 .06-.91 2.92 2.92 0 0 0-.41-1.24l-2.53-.94-5.56-2.06a20.84 20.84 0 0 1-3.23 6.23 21.07 21.07 0 0 1-2.21 2.49c-.35.34-2.12 1.44-2.23 1.87s.61 1.21.64 1.7c.08 1.64.51.38-.44 1.16s-2.66 1.33-3.8 2.14c-.66.47-1.9 2-2.64 2.23-.92.29-2.66-1-3.64-1.56q-3.81-2.12-7.49-4.48-1.69-1.08-3.35-2.21c-.61-.42-2.82-2.51-3.5-2.47s-2.26 1.92-2.74 2.4a33.49 33.49 0 0 0-2.94 3.27c-.64.81-1.54 1.74-1.54 2.69 0 1.65 1 1.54-.11 3.16a33 33 0 0 1-11.17 10.44c-1.59.9-1.82.64-1.54 2.59l.63 4.39 1.17 9.36zm208.09-112.94c1.69-.47 4-.76 4.19-.31.07.22-.38.58-.69.75-.77.43-1.28 0-2.27.25-.71.16-.56.36-1.79.94a6.62 6.62 0 0 1-4 .64 13.83 13.83 0 0 1 4.56-2.27zm-33.34 7.9c-.72-2.16 9.42-1.93 10.46-2a8.71 8.71 0 0 0 1.89-.34 11.74 11.74 0 0 0 2.8-1.37c2.4-1.36 5.37-1.15 5.46-.79 0 .17-.51.43-4.14 2-3.41 1.44-5.11 2.22-5.42 2.27-1.09.14-10.99.39-11.05.24zm-6.35 117.73c.76-.8 1.44 0 2 .41l1.28 1.47c-.23.92-5.12.08-3.28-1.88zm-9.42-120.6c1.4.47 1 2.23.42 3.21-.27-1.16-1.36-1.49-1.74-2.39-.16-.38-.52-.13-.26-.57s1.26-.36 1.58-.26zm-15-6.75c5.3.17 6.5.4 6.5.58s-1.67.25-3.83 1.17a13.6 13.6 0 0 0-3 1.79c.1-.55.18-1.13.25-1.75s.06-1.23.08-1.8zm-12.15 141.16c1.23-2.69 4.18-4.25 7-4.69-.69 2-1.54 4.66-3.7 5.42-.68.24-1.26-.08-1.93.42-.48.36-.55 1.12-1 1.43-1.6 1.14-.7-1.85-.37-2.58zm-9.13-134.62c2.34-2.11 5.17-1.25 7.91-2.55.09 2.8-2.2 1.94-4 2.82-2 1-3 1.92-5.53 1.49a13.66 13.66 0 0 1 1.62-1.76zM173 247.31c2 1.73 1.56 4.48 2.61 6.72a5.37 5.37 0 0 1 .76 2.91c0 .64-.49 2.79-1.58 2.07s-1.25-4.75-1.51-5.93a15.4 15.4 0 0 1-.28-5.77zm-23.21-136.14c.23-.32 3 1 2.87 1.57 0 .18-.44.22-.56.24-1.29.12-2.5-1.56-2.31-1.81zM136.07 232.1c1.35-1.4 3-2.43 4.39-3.71 1.09-1 2.71-4.87 3.43-5s11.48 2.94 11.48 3c-.14 1.28-9.26-1-10.75-.5-1.71.55-2.41 2.58-3.54 3.81-.48.52-5.28 4.63-6 3.69-.08-.27 1.01-1.3.99-1.29zM110 102.5c.8.18 2.19.45 2.72 1.14 1 1.24.21 2.08-1 2.29a4 4 0 0 1-4.46-3.64 10 10 0 0 1 2.74.21z"/>
    <path fill="#fff" d="M39.5 125.67h271v99h-271z"/>
    <path d="M46.5 132.17h257v86h-257z"/>
    <path fill="#fff" d="M132 137.17h62L132 213H69.39L132 137.17zm83.83 0H246L183.67 213H153l62.83-75.83zm50 0h15.84L219.5 213h-17.12l63.45-75.83z"/>
    <circle cx="271.46" cy="119.5" r="8.92"/>
    <path d="M271.46 114.42a5.08 5.08 0 1 0 5.08 5.08 5.08 5.08 0 0 0-5.08-5.08zm0 7.52a2.44 2.44 0 1 1 2.44-2.44 2.44 2.44 0 0 1-2.44 2.44z" fill="#fff"/>
    <circle cx="175" cy="119.5" r="8.92"/>
    <path d="M175 114.42a5.08 5.08 0 1 0 5.08 5.08 5.08 5.08 0 0 0-5.08-5.08zm0 7.52a2.44 2.44 0 1 1 2.44-2.44 2.44 2.44 0 0 1-2.44 2.44z" fill="#fff"/>
    <circle cx="78.83" cy="119.5" r="8.92"/>
    <path d="M78.83 114.42a5.08 5.08 0 1 0 5.08 5.08 5.08 5.08 0 0 0-5.08-5.08zm0 7.52a2.44 2.44 0 1 1 2.44-2.44 2.44 2.44 0 0 1-2.44 2.44z" fill="#fff"/>
    <circle cx="78.83" cy="230.17" r="8.92"/>
    <path d="M78.83 225.08a5.08 5.08 0 1 0 5.08 5.08 5.08 5.08 0 0 0-5.08-5.08zm0 7.52a2.44 2.44 0 1 1 2.44-2.44 2.44 2.44 0 0 1-2.44 2.44z" fill="#fff"/>
    <circle cx="175" cy="230.17" r="8.92"/>
    <path d="M175 225.08a5.08 5.08 0 1 0 5.08 5.08 5.08 5.08 0 0 0-5.08-5.08zm0 7.52a2.44 2.44 0 1 1 2.44-2.44 2.44 2.44 0 0 1-2.44 2.44z" fill="#fff"/>
    <circle cx="271.46" cy="230.17" r="8.92"/>
    <path d="M271.46 225.08a5.08 5.08 0 1 0 5.08 5.08 5.08 5.08 0 0 0-5.08-5.08zm0 7.52a2.44 2.44 0 1 1 2.44-2.44 2.44 2.44 0 0 1-2.44 2.44z" fill="#fff"/>
</svg>
