<svg xmlns="http://www.w3.org/2000/svg" viewBox="0 0 350 350">
    <defs>
        <radialGradient id="a" cx="175" cy="175" r="96" gradientTransform="matrix(0 -1 1.75 0 -131.25 350)" gradientUnits="userSpaceOnUse">
            <stop offset=".42" stop-color="#4fa0e2"/>
            <stop offset="1" stop-color="#3a6082" stop-opacity="0"/>
        </radialGradient>
        <radialGradient id="b" cx="175" cy="175" r="96" gradientTransform="matrix(1 0 0 1.25 0 -43.75)" gradientUnits="userSpaceOnUse">
            <stop offset=".56" stop-color="#4fa0e2"/>
            <stop offset="1" stop-color="#3a6082" stop-opacity="0"/>
        </radialGradient>
    </defs>
    <g style="isolation:isolate">
        <path fill="#fff" d="M59.96 59.96h230.08v230.08H59.96z"/>
        <path d="M69.5 69.5h211v211h-211z"/>
        <path fill="#1b3652" d="M79 79h192v192H79z"/>
        <path opacity=".5" fill="url(#a)" d="M79 79h192v192H79z"/>
        <path opacity=".6" fill="url(#b)" d="M79 79h192v192H79z"/>
        <g data-name="Layer 7">
            <path d="M92.55 207.75c-1.14 1.15-2.08 2.73-3.34 3.92s-2.62 2-3.91 3.19-2.41 2.28-3.72 3.39-2.45 2.26-3.8 3.32-3 1.49-4.42 2.51-2.68 2.18-4.05 3.13-2.65 2.26-4.05 3.16-3 1.69-4.46 2.55-3.23 1.33-4.67 2.14-3.28 1.93-4.73 2.69c1.55-1.27 3.47-2.57 5.07-3.85s3.07-2.62 4.68-3.88 3.47-2.11 5.1-3.35 3.3-2.32 4.94-3.54c1.42-1.05 2.85-2.06 4.25-3.08s2.47-2.59 3.88-3.59 3.33-1.38 4.75-2.37 2.84-2.06 4.28-3 2.76-2.39 4.2-3.34zM94.9 211c-1.27 1.4-2.25 2.58-3.6 4s-2.55 2.86-3.92 4.26-2.69 2.73-4.09 4.1-2.48 3-3.9 4.3-3.25 2.14-4.7 3.45-2.8 2.87-4.28 4.15-2.72 3-4.22 4.24-3.25 2.37-4.77 3.59-3.47 2.07-5 3.26-2.93 2.21-4.49 3.37c1.32-1.19 2.87-1.58 4.18-2.77s2.16-2.91 3.48-4.11 2.9-2.09 4.22-3.29 2.73-2.28 4.05-3.47 2.27-2.79 3.59-4 3-2 4.27-3.23 2.28-2.78 3.6-4 2.8-2.2 4.12-3.39 2.44-2.6 3.76-3.79 2.76-2.25 4.08-3.44zm-36.01 51.21c1.19-1.4 2.54-2.45 3.86-3.9s2.66-2.62 4-4 2.15-3.16 3.55-4.51 3-2.32 4.42-3.63 2.76-2.21 4.06-3.32 2.17-2.94 3.51-4 2.86-2.12 4.22-3.14 3.39-2 4.77-3c-1.18 1.24-3 2.38-4.28 3.64s-2 2.85-3.28 4.09-2.62 2.26-3.9 3.47-2.4 2.49-3.7 3.68-2.92 2.49-4.33 3.74-2.8 2.63-4.23 3.85-3.19 2.18-4.63 3.37-2.58 2.45-4.04 3.66zm12.57-16.41c1.54-1.11 2.86-2.08 4.48-3.41s3-2.49 4.54-3.92 2.62-3 3.91-4.35 2.72-2.87 3.92-4.32 2.45-3.13 3.54-4.64c1.21-1.67 2.4-2.74 3.38-4.29-1.47 1.35-2.5 2.68-4 4.12s-3 2.66-4.48 4.13-3.11 2.61-4.52 4.11-2.87 2.86-4.24 4.4c-1.22 1.37-1.78 3.27-2.93 4.62s-2.49 2.17-3.6 3.55zM61.1 271.73c1.62-1.27 2.9-2.47 4.42-3.71s3.31-2.38 4.8-3.63 3.28-2.44 4.74-3.71 2.7-3.12 4.12-4.41 3.45-2.25 5-3.72 3-3 4.43-4.39c1.62-1.56 3.29-2.93 4.58-4.24 2.54-2.57 3.66-4.52 3.43-4.79s-1 .49-2.14 1.27c-1.44 1.2-3 2.26-4.51 3.52s-3.08 2.25-4.52 3.54-2.66 2.73-4.08 4-2.82 2.55-4.23 3.88-3 2.45-4.4 3.79-2.41 3.09-3.75 4.45-2.72 2.78-4 4.15-2.6 2.61-3.89 4z"/>
            <path d="M73.21 254.26c1.54-.84 3-1.33 4.61-2.23s2.89-2.1 4.45-3 3-1.93 4.52-2.87 3.22-1.54 4.75-2.52 2.47-2.5 3.87-3.43 3.24-1.33 4.63-2.28 2.65-2.21 4-3.19 2.56-2.31 3.92-3.31 3.07-1.64 4.4-2.65a2.63 2.63 0 0 1-2-.79c-.63-.81-.35-1.63-.56-1.67s-.64 2.05-2.36 4a11.58 11.58 0 0 1-2.19 2.29c-1.82 1.34-3.63 2.45-5.23 3.46a88.505 88.505 0 0 1-5.42 3.15 19.39 19.39 0 0 1-3.19 1.19 43.69 43.69 0 0 0-5 2.92c-1.39.92-2.76 2.27-4.52 3.63-1.38 1.06-3 2.15-4.58 3.53-1.31 1.16-2.55 2.37-4.1 3.77zm27.58-23.94c1.24-1.54 2.32-3.21 3.57-5 1-1.46 2.36-2.62 3.22-4s1.76-3.47 2.53-4.91a29.39 29.39 0 0 0-5.63 6.44 23.16 23.16 0 0 0-1.77 3.84c-.71 1.52-1.63 2.54-1.92 3.63z"/>
            <path d="M108.35 229.33a12 12 0 0 1 2-4 18.41 18.41 0 0 1 3.17-3.61c2 1.3 1.6 1.94 3.35 3.6a21.9 21.9 0 0 1 3.4 3.41 12.48 12.48 0 0 1-2.38 1.07 10.8 10.8 0 0 1-4.79 1.2 9.4 9.4 0 0 1 .52 4.33c-.8 3.85-4.38 6.55-4.82 6.24s.63-2 1-4.81a11 11 0 0 0-.17-4.16c-.57-.12-.65-.58-1.22-.71a10.18 10.18 0 0 1-.06-2.56zm-14.57 23.93a6.29 6.29 0 0 0 2.42-1.81 9.93 9.93 0 0 0 2.58-4 9.4 9.4 0 0 1 2.6-4.91 25 25 0 0 1 4.56-3.66c-2.3 1.24-3.72 3.09-5.06 4.09-2.78 2.06-4.08 3.24-4.31 4.4a20.12 20.12 0 0 1-1.12 2.63c-.72 1.5-.97 2.59-1.67 3.26zm6.92-2.88a8.6 8.6 0 0 0 4 .78c2.32-.07 3.93-1.17 5.67-2.92a67.55 67.55 0 0 0 4.7-5c1.09-1.35 2.09-3.18 3.66-4.83 1.26-1.33 2.71-2.78 4.33-4.25 1.39-1.27 3.19-2.27 4.87-3.6-.63.31-1.5 1.19-2.79 2a35.71 35.71 0 0 0-4.21 2.65 44.43 44.43 0 0 0-3.93 3.15c-1.17 1.27-1.56 3.13-2.65 4.34a35.14 35.14 0 0 1-3.84 3.24 22.84 22.84 0 0 1-4.24 2.59 26.94 26.94 0 0 1-5.57 1.85zM83 295.56a38.58 38.58 0 0 1 1.77-6.1 33.22 33.22 0 0 1 2.63-5.55c1.17-2 2-4 3.22-5.46a32.51 32.51 0 0 1 5-4.3c-.88 1.84-2.46 3.63-3.5 5.58s-2 3.63-3.15 5.53c-1 1.74-1.76 3.58-2.79 5.17s-2.1 3.57-3.18 5.13zm16.5-19.71c.81-1.12 2.26-2.32 3.67-4.2 1-1.35 1.67-3.26 2.95-4.9s3.12-2.92 4.3-4.37c1.31-1.61 2.38-3.25 3.71-4.84s2.88-2.6 4.31-4.34c1.16-1.4 2-3.3 3.44-5.07 1-1.25 2.43-2.84 4-4.82 1.17-1.47 2.55-2.7 4-4.51 1.54 1.15 2.7 2.24 4.24 3.39s3.54 1.86 5.08 3c-.9 1-2.4 2.34-3.75 4-1 1.25-1.87 2.84-3 4.4s-1.85 2.77-2.7 4-2.28 2-3.33 3.55c-.77 1.12-1 2.85-2.09 4.41-1 1.39-1.9 2.72-2.77 3.94-1 1.46-2.5 2.42-3.32 3.52-1.76 2.38-2.72 4.07-2.79 4a19.48 19.48 0 0 1 2.27-5.17c.8-1.4 1.77-3 2.81-4.77.9-1.52 1.86-3.14 2.85-4.75s3-4 2.52-4.5c-.32-.28-1.31.5-2.12 1.07a36 36 0 0 0-4.18 3.11c-1.32 1.24-2.32 2.74-3.36 3.89-2 2.2-3.25 3.53-3.23 3.54a32.62 32.62 0 0 1 3.2-5.34c1-1.44 2.73-2.85 4.22-5 2.73-4.19 3.69-6.62 3.28-7s-2 .66-4.68 3.16c-1.13 1.08-2.65 2.26-4.2 3.86-1.19 1.22-2.26 2.83-3.69 4.35-1.21 1.28-2.67 2.51-4.05 4-1.22 1.31-2 3.19-3.32 4.67s-2.93 2.25-4.27 3.72zm45.91-22.62a9.94 9.94 0 0 1 1 5.53c-.25 2.93-1.63 4.19-1.63 7.74 0 1.7.05 3.79.42 3.8s.21-1.79.9-4a56.09 56.09 0 0 1 2.7-6.23c.52-1.2 1.87-3 2.49-5.25-1.97-.59-3.91-.95-5.88-1.59zm83.73-179.46a38.79 38.79 0 0 0 3.85-7c.61-1.53 1.56-2.95 2-4.32.73-2.53.71-4.86.41-5s-1.65 2-3.49 5.24c-.85 1.49-1.27 3.63-2.63 5.47a43.13 43.13 0 0 1-3.57 4.22c1.29.51 2.1.89 3.43 1.39zM83.2 172.11c.12.39 1.95.65 4.65 0 1.56-.39 3.09-1.55 4.69-2.2a28.93 28.93 0 0 0 5.17-2.64 32.41 32.41 0 0 0 4.68-3.56c-1.84.69-3.47 1.52-5 2.11-1.89.72-3.48 1.56-4.94 2.14-2 .81-3.66 1.49-5 2.06-3.61 1.57-4.34 1.8-4.25 2.09zm2.8 4.45c.16.38 3.72-.65 7.15-2.33a28 28 0 0 0 6.47-4.23c-1.3.43-2.81 1-4.54 1.75-1.38.57-3 .89-4.62 1.69-1.33.67-4.59 2.73-4.46 3.12zM90.74 196c-.55-.38.73-3.69 2.6-5.93 0 0 .58-1.2 4.91-4.36l-.2.08c-.42 1.43-.67 3.75-2.21 5.86s-4.52 4.76-5.1 4.35zm3.99 5.66c-.59-.34-.28-2.83 1.45-4.48a6 6 0 0 1 3.5-1.58 10.26 10.26 0 0 1-.6 2.2c-1.26 2.29-3.7 4.2-4.35 3.86zM257.31 132c.46.51 1.75 1.76 2.12 1.59s.06-1.34.17-1.71c.19-.64 1.55-.81 5.42-.55 1.52.1 3.39.4 5.72.72 1.67.23 3.54.28 5.69.63a9.27 9.27 0 0 1-2.86 4.85c-2.21 2-4.55 2-7.36 2.8-1.45.43-2.91 1.77-4.87 3.14-1.37 1-3.11 1.58-4.6 3.26.11-1.64.58-3 .69-4.64s-.4-3.32-.29-5 .06-3.42.17-5.09zm1.03-3.79c1.56-.91 3.45-2.27 5.34-3.41 1.6-1 3.21-2.18 5-3.31 1.62-1 3.27-2.15 5-3.27s3.66-1.6 5.4-2.74 2.85-2.86 4.57-4c1.43-1 3-1.66 4.41-2.59s2.73-2.21 4.05-3.12c1.56-1.08 3.28-1.64 4.47-2.52 2.39-1.77 4.16-3.29 3.95-3.68s-2.39.82-5.38 2c-1.46.6-3.28 1-5.14 1.91-1.56.72-3.39 1.19-5.11 2s-2.94 2.21-4.59 3.08-3.61 1.07-5.19 2-2.87 2.26-4.33 3.14-3.18 1.77-4.59 2.68c-1.6 1-3.1 2-4.45 2.91-1.63 1.12-2.69 2.28-3.94 3.19.42 1.86.19 3.89.53 5.73zM269.73 107c.18.25-1.38 1.55-3.74 3.66-1 .9-2.06 2.17-3.53 3.4-1.12.94-2.12 1.94-3.51 3.08.16-2.59.28-2.56 1.54-4.83 1.73-1.09 3.11-1.93 4.35-2.67 2.91-1.72 4.7-2.91 4.89-2.64zm-10.18-.82c1.42-1.21 2.69-2.63 4-3.77s2.69-2.54 4-3.67 3-2.23 4.27-3.36 2.85-2.38 4.18-3.52c1.46-1.27 3.24-2 4.5-3.1 1.49-1.31 2.26-3.17 3.47-4.25 1.58-1.41 2.94-2.59 4-3.61 2.59-2.42 4.17-3.53 4-3.72s-1.93.78-5 2.92c-1.29.9-3 1.78-4.8 3.1-1.38 1-2.86 2.21-4.54 3.46-1.41 1.05-2.93 2.21-4.55 3.43-1.43 1.08-2.61 2.67-4.21 3.88-1.45 1.1-3.19 2-4.77 3.16s-3.17 2.17-4.74 3.38c-1.45 2.38-.68 3.06.19 5.67zm1.5-27.73a45.21 45.21 0 0 0 4.73-3.13 29.91 29.91 0 0 0 3.72-4 25.21 25.21 0 0 1 6-4.71c2.44-1.52 5.14-2.65 5.52-2.07s-2.26 2.69-5.38 5.49c-1.36 1.22-3.11 2.52-4.9 4.21-1.42 1.35-2.5 3.33-4.15 5-1.43 1.43-3.15 3.21-4.72 4.86-.16-1.69-.65-3.98-.82-5.65z"/>
        </g>
        <path d="M86.38 78.12a342.73 342.73 0 0 0 45.62-11A342.73 342.73 0 0 0 175.82 50a413.29 413.29 0 0 0 44 16.8 413.28 413.28 0 0 0 43.62 11.29l-6.31 111.41a135.75 135.75 0 0 1-23.46 40.5 137.89 137.89 0 0 1-56.92 40 127.91 127.91 0 0 1-39.42-20.33C110.12 228.9 98.52 202.47 94 190z" fill="#fff"/>
        <path d="M175.35 261.11a129.1 129.1 0 0 1-38.68-23.62 130.92 130.92 0 0 1-34.53-49.25l-.12-.3-6.46-103.51 1.65-.38c13.73-3.15 27.5-6.89 40.93-11.12 12.51-3.94 25-8.41 37.23-13.28l.75-.3.75.3c12.62 5.13 25.62 9.79 38.63 13.86s26.21 7.58 39.44 10.49l1.69.38L248.47 189l-.11.28A126.84 126.84 0 0 1 223 229.61a128.4 128.4 0 0 1-46.14 31.49l-.73.29z" fill="#fff"/>
        <path d="M176.13 61.5c11.8 4.8 24.74 9.53 38.79 13.92S242.14 83.24 254.5 86l-8 102.5a125.08 125.08 0 0 1-70.42 70.75A127.2 127.2 0 0 1 104 187.5L97.67 86c12.88-3 26.64-6.61 41.08-11.17 13.41-4.23 25.88-8.74 37.37-13.33m0-4.31l-1.5.6C162.5 62.63 150 67.09 137.55 71c-13.38 4.24-27.1 8-40.78 11.1l-3.31.76.21 3.39L96.84 137l3.16 50.75v.64l.24.6a132.94 132.94 0 0 0 35.06 50 131.12 131.12 0 0 0 39.28 24l1.47.58 1.47-.58a130.42 130.42 0 0 0 46.86-32 128.82 128.82 0 0 0 25.8-41l.22-.55v-.59l7.46-95.58.54-6.92.27-3.46-3.39-.76C242.2 79.15 229 75.62 216.11 71.6s-25.9-8.69-38.48-13.8l-1.49-.61z"/>
        <g fill="#3b6182">
            <path d="M140.5 191.78a5.51 5.51 0 0 1-1.45 2.45c-.45.64-1.92 4.07-4.52 4.23a7 7 0 0 1-5-2.33c-1.15-1.28-1.29-3.3-1.24-5.12a6.62 6.62 0 0 1 2.31-4.82 5.88 5.88 0 0 1 5.08-1.77 6.58 6.58 0 0 1 4.3 2.46c.93 1.45.76 3.44.52 4.9zm6.07-12.78a1.72 1.72 0 0 1 .89-1.58c.63-.24 1.25.59 1.3.64.55.54.07 1.2.38 1.76.68 1.28 3.59 1.09 5.49.18a13 13 0 0 0 2.41-1.58 7.74 7.74 0 0 1 5.1-1.35 9.21 9.21 0 0 1 3.34 2.39 7.11 7.11 0 0 1 2 4.21 17.48 17.48 0 0 1 .12 4.79 6.39 6.39 0 0 1-2.46 3.76 6 6 0 0 1-4.7.56 7.22 7.22 0 0 1-4.19-2.65c-1.87-2.45-.43-4.74-2.48-6.87a17.24 17.24 0 0 0-4.58-2.79c-1.07-.47-2.47-.66-2.62-1.47zm37.34-59a2.81 2.81 0 0 1 3-.52c1.36.67 1.7 2.62 1.21 4-.25.72-.79 1.66-1.66 1.66-1.77.02-3.65-3.83-2.55-5.14zm32.74 17.05a8 8 0 0 1 4.16-2.16 7.06 7.06 0 0 1 4.65.38 8 8 0 0 1 3.5 2.62 6.88 6.88 0 0 1 1.37 4.33c-.32 2.74-2.86 4.22-3.32 4.57-.84.4-.79 1.24-1 1.56a5.15 5.15 0 0 0-.54 4.34c.43 1.49.89 2.83.2 4.3-.11.24-.28 1.63-.81 1.61s-.77-1.28-.91-1.64a9.41 9.41 0 0 1-.35-4.59c.26-2.12.49-3.65-.31-4.24-.21-.15-.38-.73-1.07-.55a7.22 7.22 0 0 1-7.27-6.44 7.9 7.9 0 0 1 1.7-4.09zm-6.8-18.96c.83-1.31 2.5-2.26 3.87-1.77 1.82.65 2.86 4 1.66 6.17a3.8 3.8 0 0 1-4.17 1.74c-1.86-.6-2.83-3.84-1.36-6.14zm12-4.79a9.42 9.42 0 0 0-1.07 6.42 7 7 0 0 0 2.46 4 13.51 13.51 0 0 0 4.27 2.09c1.2.46 3.17 1.64 4.61.79 1-.6.8-1.64 1.6-2.65a5.65 5.65 0 0 1 3.92-2.19c1.72-.16 3.19.1 4-1.1a4.85 4.85 0 0 0-.57-5.37c-1.47-1.53-3.11-.43-6.65-1.82s-3.42-2.86-5.68-3.08a8.2 8.2 0 0 0-6.89 2.91zm-19.01-6.21c2 .3 3.58.6 5 .92a30.2 30.2 0 0 1 4.9 1.84 17.24 17.24 0 0 0 4.46 1.17c1.66.21 3.91.26 4.18-.33.49-1.08-4.74-3.46-4.43-6.13.14-1.24 1-1.93 2.22-2.62 2-1.18 3.61-2.05 5.13-2.19 2.2-.2 4.26.79 5.65-.37 1.11-.93 1.79-3 2.05-4.88a11.48 11.48 0 0 0-.85-5 6.81 6.81 0 0 0-3.06-3.78 7.61 7.61 0 0 0-5-1.24 8.06 8.06 0 0 0-4.78 2.21 6.84 6.84 0 0 0-1.76 4.1c-.13 1.46.08 2.76-1.23 3.88a6.73 6.73 0 0 1-4.32 1.22 10.6 10.6 0 0 1-4.51-1.09c-2.32-1.07-3.9-2.52-5.1-1.92-.74.38-.64 1.27-1.69 2.29a4.7 4.7 0 0 1-2.56 1.31c1 1.81 1.39 3.8 2.35 5.6s2.39 3.21 3.35 5.01zm27.4-6.36c.68-.67 2.36.21 3.26 1.11 1.37 1.36 1.44 4.08.46 4.52-.77.35-1.77-1.25-2.3-1.88-.9-1.07-2.21-2.98-1.42-3.75z"/>
            <path d="M213.41 85.06c.46.48 0 1.54-.16 2.06a4.53 4.53 0 0 1-.44 1c-.65 1.15-.49 1.78-.86 2s-.82 0-2.14-1.48a2.94 2.94 0 0 1 .31-2.84c.81-.97 2.66-1.4 3.29-.74zm2.78-.47c-.74-.29-.69-1.11-.44-2 .34-1.22 1.4-2.48 2.25-2.08.68.32.37 1.53.18 2.33-.3 1.16-1.11 2.09-1.99 1.75zm-37.41 13.06c.68-1.77.94-3.79-.1-5.28-1.31-1.87-3.73-1.85-3.77-2.76s1.61-1.11 3.8-3.22c1.43-1.38 1.56-2.21 2.58-2.53 1.55-.49 2.55 1.76 4.72 2.63 1.9.76 3.87.25 5.5-.18 2.41-.64 4.65-2 5.51-1s-.06 3.33-1.22 4.26c-1.58 1.28-3.8-.35-5.07.66-.81.64-.75 2.51.81 7.28-2 0-4.56-.38-6.6-.35s-4.12.46-6.16.49z"/>
        </g>
        <g fill="#fff" stroke="#000" stroke-miterlimit="10" stroke-width="3">
            <circle cx="175" cy="246.64" r="4"/>
            <circle cx="136.5" cy="221.22" r="4"/>
            <circle cx="114" cy="181.89" r="4"/>
            <circle cx="110.63" cy="138.64" r="4"/>
            <circle cx="108" cy="95.39" r="4"/>
            <circle cx="175" cy="74.64" r="4"/>
            <circle cx="243.88" cy="95.39" r="4"/>
            <circle cx="240.5" cy="138.64" r="4"/>
            <circle cx="237.35" cy="181.89" r="4"/>
            <circle cx="215.25" cy="220.27" r="4"/>
        </g>
        <path d="M171.44 112.19c1 10.12 2.2 25.1 3.11 43.31 1.58 31.61 1.27 55.44 1.53 55.44s0-28.62 1.39-67.12q.57-16 1.34-31.63z"/>
        <path d="M144.46 95.39h61.09v18.15h-61.09z"/>
        <path d="M149.25 100.53h51.5v7.88h-51.5z"/>
        <path d="M198.75 102.53v3.88h-47.5v-3.87h47.5m4-4h-55.5v11.86h55.5V98.53z" fill="#fff"/>
    </g>
</svg>
