<svg xmlns="http://www.w3.org/2000/svg" viewBox="0 0 350 350">
    <defs>
        <radialGradient id="a" cx="175" cy="175" r="96" gradientTransform="matrix(0 -1 1.1 0 -17.5 350)" gradientUnits="userSpaceOnUse">
            <stop offset="0" stop-color="#e4c8a0"/>
            <stop offset=".14" stop-color="#e4c8a0" stop-opacity=".98"/>
            <stop offset=".28" stop-color="#e4c8a0" stop-opacity=".93"/>
            <stop offset=".41" stop-color="#e4c8a0" stop-opacity=".85"/>
            <stop offset=".54" stop-color="#e4c8a0" stop-opacity=".74"/>
            <stop offset=".66" stop-color="#e4c8a0" stop-opacity=".59"/>
            <stop offset=".79" stop-color="#e4c8a0" stop-opacity=".4"/>
            <stop offset=".91" stop-color="#e4c8a0" stop-opacity=".19"/>
            <stop offset="1" stop-color="#e4c8a0" stop-opacity="0"/>
        </radialGradient>
    </defs>
    <path fill="#fff" d="M59.96 59.96h230.08v230.08H59.96z"/>
    <path d="M69.5 69.5h211v211h-211z"/>
    <path fill="#aa8450" d="M79 79h192v192H79z"/>
    <path fill="url(#a)" d="M79 79h192v192H79z"/>
    <path d="M85.75 264.17l69.94-52-19.44-16.32z"/>
    <path d="M97.25 252.63l39.63-39-6.19-6.25z" fill="#fff"/>
    <path d="M84.81 84.63L133.67 150l17.53-17.53-66.39-47.84z"/>
    <path d="M96.67 96l39.08 40.32 6.19-5.93z" fill="#fff"/>
    <path d="M199.83 132.61l65.34-47.98-47.5 65.37-17.84-17.39z"/>
    <path d="M253 97l-39.42 38.83 6.29 5.23z" fill="#fff"/>
    <path d="M200.83 216.91l64.34 47.26-46.15-65-18.19 17.74z"/>
    <path d="M252.44 251.88l-44.31-34.25 6.13-4.94z" fill="#fff"/>
    <path d="M217.64 137c-3.56-3.86-18.77-19.35-42-19.3-27.48.05-50 21.74-54.75 42.24a55.43 55.43 0 0 0-1.08 15.54A61.11 61.11 0 0 0 131 207.36a65.71 65.71 0 0 0 11.43 12l-1.68.63a40.38 40.38 0 0 0 8.63 6.33S156.09 230 163 230c0 0 1.48.21 1.71-.29a3.37 3.37 0 0 0 .08-.55 3.77 3.77 0 0 0 .08-.59c-.09-.55-1.77-.71-1.77-.71a20 20 0 0 1-5.44-1.35s6.62 1.56 7.68.87h.53a44.54 44.54 0 0 1 10.58 2.15c5.19 1 20.36-1.77 32.93-11.18 3.43-2.57 23.54-17.6 23.91-43.35.27-20.25-11.86-33.84-15.65-38zm-68.1 86.08c-.14.23-1.45-.32-2-.59a7.18 7.18 0 0 1-2.54-2.1h.12c2.06-.39 4.65 2.37 4.43 2.74z"/>
    <path d="M126.12 160c5.3-17.17 18-26.12 22.88-29.12a52.78 52.78 0 0 1 26-7.88 48.39 48.39 0 0 1 18.88 3.31c7 2.84 11.42 6.71 15.25 10.06a42.67 42.67 0 0 1 9.46 10.71 38.5 38.5 0 0 1 3.79 8.54 27.09 27.09 0 0 0-3.25-9.83A48.72 48.72 0 0 1 225 156.5c1.57 3.95 7 19 .46 35a45 45 0 0 1-8.92 13.67c-13.37 14.84-31.39 19.47-40.75 21.08a72.15 72.15 0 0 1-18-5c-8.49-3.63-11.94-6.42-13.25-7.67a31.75 31.75 0 0 1-5.3-6.6 31.41 31.41 0 0 1 3 6.39c.35 1 .62 2 .83 2.92a60 60 0 0 1-16.5-21.42 57.48 57.48 0 0 1-3.17-8.92c0-2.26.14-5.58.46-9.58.47-5.61 1.09-12.57 2.26-16.37z" fill="#fff"/>
    <path d="M199 140.13a34.08 34.08 0 0 0-25.29-7.29 61.71 61.71 0 0 1 25.29 7.29zm17 20.29c-2.53-4.3-7-8.38-7.33-8.12s1.86 3.06 2.93 4.81c5.58 9.14 4 22.52.32 31.6-1.67 4.11-8 17.6-23.46 23-14.77 5.1-27.35-.84-29.82-2.07-14.7-7.33-19.29-21.39-20.46-25.19a44.7 44.7 0 0 1-.22-25.08 60 60 0 0 1 3.2-6.63 57.34 57.34 0 0 1 8.46-11.5c2.07-2.17 2.9-2.68 2.86-2.74s-10 5.79-15.15 16.57a45.94 45.94 0 0 0-1.75 4.33 79.5 79.5 0 0 0-4.2 16.6l1.75 9.92c.78 2.58 6.16 19.22 23.67 27.17a44.28 44.28 0 0 0 32.76 1.2c1.51-.55 18-6.85 25.47-24.44 1.46-3.44 7.63-18.02.97-29.43zm-73.21 38.76a47.06 47.06 0 0 1-6.7-10.94l.63.17.27.56a68.28 68.28 0 0 0 8.91 13.63 39.034 39.034 0 0 1-3.15-3.42zm-19.2 2.32c.26-.21 3.5 3.12 6.18 6.66 1.69 2.22 3.46 4.94 3.26 5.09s-3-3-3.37-3.47c-3.07-3.56-6.35-8.05-6.07-8.28z"/>
    <g>
        <path d="M174.97 44.46l-1.63 7.51-1.16 7.88-.93 7.92-1.17 7.88-1.01 7.91-1.2 7.87-1.61 7.81-1.61 7.81-.78 7.94-1.25 7.87-1.52 7.83-1.35 7.85-.6 7.98-1.3 8.15-7.96 1.14-7.61 1.51-7.75.76-7.61 1.5-7.54 1.86-7.61 1.49-7.75.74-7.59 1.57-7.63 1.42-7.55 1.83-7.78.57-7.49 2.15-7.65 1.29-7.77.67-7.47 1.81 7.98 1.58 8.16 1.04 8.06 1.59 8.08 1.54 8.26.41 8.04 1.75 8.19.81 8.01 1.93 8.08 1.45 8.24.53 7.98 2.17 8.11 1.37 8.19.81 8.1 1.38 1.19 7.82 1.06 7.85 2 7.7.92 7.87 1.45 7.79 1.5 7.78 1.05 7.85 1.83 7.72.69 7.91 1.29 7.82 1.57 7.77 1.42 7.79 1.44 7.79 1.02 7.74 1.79-7.61.9-7.89 1.06-7.86 1.73-7.75 1.2-7.85 1.9-7.71.84-7.9 1.49-7.79 1.1-7.86 1.7-7.75 1.12-7.86 2.15-7.67.93-7.9 1.11-8.13 8.15-1.11 7.82-1.5 7.84-1.44 7.97-.62 7.78-1.74 7.88-1.18 7.91-.99 7.75-1.93 7.91-.98 7.82-1.51 7.82-1.55 8.02-.36 7.76-1.91 7.64-1.19-7.62-1.14-7.8-1.57-7.9-.94-7.88-1.05-7.81-1.47-7.79-1.66-7.95-.62-7.8-1.54-7.81-1.46-7.89-1.04-7.88-1.06-7.85-1.24-7.82-1.47-7.69-1.33-1.56-7.93-1.5-8.08-1.11-8.15-1.38-8.1-1.69-8.04-1.68-8.05-1.18-8.14-.89-8.18-1.91-8.01-.99-8.17-1.13-8.15-1.55-8.07-1.74-8.05-1.32-7.83z"/>
        <path d="M175 175l16.18-16L175 64zm0 0l16.56 15.92L282.5 175H175zm0 0l-106.67-.06 90.42-16.19zm0 0v107.78L159.74 190z" fill="#fff"/>
    </g>
    <g data-name="Spikes" fill="#fff">
        <path d="M66.99 118.78l.21 1.51.74 1.62.32 1.86 1.03 1.58 1.47 1.25 2.18.49 2.11.28 1.69.51 1.94-.21 1.57.95 1.27 1.36 1.63.77 1.61.86 1.45 1.05 1.5.93 1.1 1.49 1.78.5 1.12 1.51 1.58.79 1.54.83 1.33 1.2 1.56.83 1.83.36 1.36 1.15 1.64.69 1.41 1.08 1.64.67 1.54.84 1.42 1.08 1.78.43 1.19 1.49 1.61.72 2.05.98-2.31-.34-1.49-1.38-1.94.12-1.6-1.03-1.74-.55-1.88-.08-1.78-.41-1.78-.41-1.53-1.24-1.83-.25-1.73-.59-1.89-.03-1.52-1.31-1.74-.54-1.78-.42-1.73-.55-1.98.25-1.75-.51-1.5-1.36-1.86-.16-1.64-.89-1.91.04-1.62-.94-1.79-.39-1.78-.41-1.9-.02-1.59-1.04-1.77-.47-1.77-.44-1.72-.59.26-1.79.79-1.66.21-1.81.7-1.69.39-1.76.33-1.79.85-1.64.42-1.74.7-1.63zM146.44 105l-15.98-26h7.99l7.99 26zm50.73 9.26l.47-2.02.49-1.68 1.32-1.43.55-1.69-.28-1.91.71-1.64.73-1.65-.14-2.02.49-1.88.74-1.85-.39-2.02.3-1.91.74-1.75 1.59-1.02 1.4-1.46.72-1.88 1.18-1.28-.06-1.72.04-1.65.94-1.77.61-1.76 1.25-1.41.77-1.77.82-1.73 1.42-1.31.96-1.63.8-1.69.89-1.64 1.43-1.44.14-1.95.35-1.87 1.06-1.6.93-1.63.6-1.79.67-1.79.81-1.52 1.08-1.36 1.12-1.31 1.24-1.22.68-1.61-.33 1.81.18 1.86-.15 1.83-.43 1.79-.4 1.8-.04 1.85-.22 1.83-.21 1.83-.75 1.72-.48 1.77-.98 1.64.35 2.01-.87 1.66-.8 1.61-.01 1.86-1.28 1.44-.27 1.78-.5 1.71-.48 1.72-.55 1.71-1 1.5-.9 1.54-1.13 1.42-.37 1.8-.55 1.71-1.4 1.26-.95 1.5-.9 1.52-.92 1.51-.33 1.89-1.6 1.08-.35 1.91-1.26 1.29-1.46 1.12-.56 1.8-1.4 1.16-.86 1.59-1.14 1.36-1.66.91-.62 1.81-1.59 1.35zM248 144.5l23-14.87v7.14zM211.19 271l-5.6-24.58L221.31 271zM79 211.67l27.5-8.54L79 220.42zm44.41 89.05l1.35-1.29 1.04-1.47.83-1.62 1.03-1.46 1.15-1.39 1.22-1.35 1-1.5.62-1.73 1.04-1.48.91-1.54.86-1.58.49-1.79 1.16-1.4 1.23-1.38.22-1.92.95-1.53 1.15-1.44.73-1.65.73-1.64.9-1.57.7-1.66.3-1.82.44-1.76 1.19-1.47.48-1.74.9-1.59.23-1.83.54-1.71.36-1.78.3-1.78.93-1.6.04-1.86.76-1.69.09-1.87.79-1.7.22-1.82.53-1.77.07-1.85.29-1.81.45-1.78.38-1.52-.79 1.3-1.06 1.46-1.27 1.32-.4 1.89-1.53 1.16-.22 1.99-1.07 1.46-1.53 1.2-.4 1.86-.92 1.56-1.11 1.44-1.16 1.43-.81 1.63-.49 1.79-1.17 1.43-.96 1.55-.02 1.96-1.21 1.36-.8 1.57-.78 1.57-.39 1.74-1.09 1.46-.49 1.72.12 1.89-.77 1.62-.64 1.66-.02 1.83-.84 1.6-.3 1.79-.77 1.73-1.32 1.46-.3 1.96-1.22 1.47-.49 1.83-1.12 1.56-.25 1.87-.25 1.79-.64 1.74-.4 1.8.49 1.83-.21 1.86zm109.95-104.14l1.56.9 1.33.9 1.1 1.61 1.43 1.14 1.63.8 1.54.97 1.85.41 1.29 1.43 1.9.26 1.46 1.14 1.72.58 1.54 1 1.69.65 1.76.47 1.82.24 1.7.71 1.75.59 1.45 1.25 1.55 1 2.04-.03 1.24 1.61 1.91.28 1.38 1.29 1.78.58 1.46 1.14 1.75.64 1.37 1.29 1.74.66 1.48 1.09 1.66.82 1.2 1.53 1.62.87 1.77.66 1.59 1.51-.43-2.19.71-1.87-.85-1.86-.06-1.87.43-1.84-1.77-.53-1.78-.34-1.89-.12-1.48-1.15-1.8-.61-1.42-1.23-1.71-.93-.96-1.72-1.78-.65-1.64-.89-1.61-.25h-1.69l-1.38-1.13-1.5-.81-1.75-.3-1.54-.98-1.72-.11-1.68.12-1.8.45-1.64-.76-1.58-.81-1.77-.22-1.72-.38-1.58-.8-1.57-.8-1.73-.37-1.7-.48-1.41-1.2-1.83-.15-1.5-.98-1.65-.6-1.67-.57-1.61-1.06z"/>
    </g>
</svg>
