<svg xmlns="http://www.w3.org/2000/svg" viewBox="0 0 350 350">
    <path fill="#fff" d="M60 60h230v230H60z"/>
    <path d="M69.98 69.99h210v210h-210z"/>
    <path fill="#666668" d="M77 77h196v196H77z"/>
    <path d="M76.5 110.69l163.25 163 33.88.13-.13-34.82L110.88 76.56l-34.49-.19z"/>
    <path d="M181.75 262.25c6.62-1 12.91-4.24 18.37-8s10.73-8.57 14.07-14.41c4-6.95 2.84-14.76 4.61-22.25a35.23 35.23 0 0 1 4.41-10.59c2-3.21 4.53-6.09 6.67-9.21a36.46 36.46 0 0 0 5.18-10.19c1.11-3.77.94-7.68 1-11.57.07-4.21.57-8.41.38-12.62-.13-2.85-.28-6.57-3-8.22a6.47 6.47 0 0 0-2.26-.81 8 8 0 0 1-1.42-.13h-.37v-1a8.68 8.68 0 0 1 1-4.25 18.92 18.92 0 0 1 3-3.3 7.38 7.38 0 0 0 1.87-5c.16-5.64 1.06-11.22 1.19-16.86a86.82 86.82 0 0 0-.57-11.12 16.35 16.35 0 0 0-1.45-5.38 16.86 16.86 0 0 0-1.62-2.65 25.13 25.13 0 0 0-8.56-7.69 24 24 0 0 0-4.12-1.75c-28-1.18-48.57-1.1-52.75-.5a38.84 38.84 0 0 0-7.38 1.87c-.26.1-1.7.69-3.38 1.52-3.76 1.85-8.76 4.9-16 11.05-3.49 3-9.14 8.15-16.9 15.92a156.52 156.52 0 0 0-15.37 17.5c-4.31 5.85-8.83 12.6-10.69 19.7-.89 3.38-.72 7 1.62 9.73s6.1 3.34 7.69 3.55a15.67 15.67 0 0 0 7.95-1l-.15 17.68a14.36 14.36 0 0 0 2.49 6c1.87 2.55 3.44 2.75 5.76 5.14 1.7 1.75 2.67 3.88 4.63 8.13a45 45 0 0 1 3.75 10.13c1.1 5.19.06 6.29 1.13 10.5 1 4 2.91 6.71 4.9 9.45 5.86 8.13 13.33 12 17.14 14.57a38.45 38.45 0 0 0 27.18 6.06z"/>
    <path d="M229.33 158.5a1.7 1.7 0 0 1 1.17.5 2.69 2.69 0 0 1 .75 1.25c.31 1.12.31 10.32 0 22.92a25.18 25.18 0 0 1-4.5 9.25c-2.14 2.71-6.68 7.2-8.89 10.58-.52.79-1 1.6-1 1.6a40.7 40.7 0 0 0-2.12 4.28c-1.76 4.24-1.75 18.67-6.09 27.7-2.55 5.3-6.38 8.17-14 13.92 0 0-7.58 5.65-14.31 6.69l-.44.06a28.06 28.06 0 0 1-10.37-.75c-1.9-.44-6.56-1.71-13.62-6.5-8.78-6-13.83-9.39-16.54-15.83-2.63-6.27-.46-9.12-4.33-20.67a37.16 37.16 0 0 0-3-7c-2.06-3.62-4.07-7.14-7.83-10.17-2.87-2.31-3.46-3.29-3.64-3.84a6.58 6.58 0 0 1-.2-.66c-.64-2.73-.55-14.65-.5-19.17L140 161.1a22.45 22.45 0 0 1 8.9-2.6z" fill="#fff"/>
    <path d="M222.75 164.13c-5.25 1.32-12.51 3-21.25 4.38-5.88 1-17.07 2.75-27.62 2.88-9.35.11-24.85-1-44.12-8.87a37.73 37.73 0 0 0 .88 22 30.72 30.72 0 0 0 34.28 7.74L175 178.69c1.4 2.22 3 4.55 4.75 6.94s3.71 4.8 5.5 6.88c2.83.86 14 3.92 25.5-1.87a33.05 33.05 0 0 0 11.64-9.88 51.58 51.58 0 0 0 .36-16.62z"/>
    <path d="M103.13 163.75c.45-4.13 3.13-8.08 5.39-11.43a135 135 0 0 1 9.93-12.7c3.18-3.68 6.44-7.34 9.92-10.73 1.91-1.86 8-8.12 17.42-16.16 10.29-8.81 13.4-10.35 16.34-11.36a46.18 46.18 0 0 1 10.68-2.12c3.88-.37 5.07.08 14 .21l13.4.2c4.63.07 9.34-.13 14 .21a19 19 0 0 1 13 6.55 17 17 0 0 1 2.81 4.89 13.44 13.44 0 0 1 .7 5.58l-.45 13.9-.22 6.67c-.07 2 0 4.06-1.12 5.85-.77 1.19-2 1.9-2.9 2.94a8.22 8.22 0 0 0-1.7 3.16 13.29 13.29 0 0 0-.46 2.31 7.22 7.22 0 0 1-.1 1.4v.51h-1.11l-6.52.13q-6.3.11-12.59.18-10.46.11-20.93.09c-12 0-24-.69-35.95-.15a29.82 29.82 0 0 0-8.62 1.36 26.87 26.87 0 0 0-5.7 3.14c-4 2.62-8.1 5.11-12.34 7.32a56.54 56.54 0 0 1-7.45 3.35c-2.21.77-5.1 1.67-7.33.53s-2.33-3.76-2.1-5.83z" fill="#f8c701"/>
    <path d="M112 160.66c.29.43 5.49-3 33.3-19.91 4.66-2.84 55.26-35.25 54-37.33-.64-1.06-14.66 5.95-22.11 10.05-1.19.66-4.42 2.46-8.54 5-7.75 4.83-13.14 9.08-15.19 10.5-11.04 7.7-42.21 30.56-41.46 31.69zm24.54-4.84a143.12 143.12 0 0 1 51.32-13.07 110.09 110.09 0 0 1 20.51.46c1.18.15 7.55.41 8.06 2s-14.2 1.25-16.08 1.25c-6.69 0-9.05-.16-14.74.29-1.48.12-5 .43-9 1.09-12.12 2-15.6 5.07-25.52 6.94a66.4 66.4 0 0 1-14.55 1.04zm75.89-44.9l-3.5 6.98-7.37 1.06 5.44 5.31-1.32 7.5 6.75-3.5 6.7 3.5-1.21-7.5 5.43-5.31-7.4-1.06-3.52-6.98z"/>
    <path fill="#fff" d="M212.43 114.1l-2.45 4.86-5.63.95 4.04 3.98-.96 5.41 5.02-2.56 4.85 2.56-.85-5.41 3.94-3.98-5.48-.95-2.48-4.86z"/>
</svg>
