<svg xmlns="http://www.w3.org/2000/svg" viewBox="0 0 350 350">
    <defs>
        <radialGradient id="a" cx="175" cy="175" r="96" gradientTransform="matrix(0 -1 1.25 0 -43.75 350)" gradientUnits="userSpaceOnUse">
            <stop offset=".42" stop-color="#4fa0e2"/>
            <stop offset="1" stop-color="#3a6082" stop-opacity="0"/>
        </radialGradient>
        <radialGradient id="b" cx="174.49" cy="193.66" r="86.36" gradientTransform="matrix(0 -1 1.5 0 -116 368.14)" gradientUnits="userSpaceOnUse">
            <stop offset=".41" stop-color="#40659d"/>
            <stop offset=".92" stop-color="#6f8ba4"/>
        </radialGradient>
    </defs>
    <path fill="#fff" d="M246.5 59.96v28.21h-143V59.96H59.96v230.08h230.08V59.96H246.5z"/>
    <path d="M272.29 70.25H254V99H96V70.25H69.5V280.5h211V70.25z"/>
    <path d="M127 65.5a4 4 0 0 1 4-4h88a4 4 0 0 1 4 4v22.67h10.25V63.25a12 12 0 0 0-12-12h-92.5a12 12 0 0 0-12 12v24.92H127z" fill="#fff"/>
    <path d="M263.48 79.75v28.78h-177V79.75H79V271h192V79.75z" fill="#1b3652"/>
    <path opacity=".6" fill="url(#a)" d="M263.48 79v29.53H86.53V79H79v192h192V79h-7.52z"/>
    <path d="M110.35 262.17l-20.42-15.64v-6.61A28.57 28.57 0 0 0 76.3 236h-2.92v-14.61h3A28.21 28.21 0 0 0 89.93 218v-6.38a24.09 24.09 0 0 0-13-3.81h-.49l-3.06.06v-15l3.25.27c.6 0 1.2.08 1.8.08a21.4 21.4 0 0 0 11.5-3.35v-6.05l10-2.4-3.73-50.9 18.65-5.38.88 2.78a44.83 44.83 0 0 0 7.69 14.6c10.25 12.75 29.11 20.37 50.47 20.37s41-7.66 52.4-20.48a50.45 50.45 0 0 0 8.74-14l1-2.41 16.72 4.45-3.77 51 10 2.4v5.74a42.56 42.56 0 0 0 13.81 3.59l2.74.24v14.27l-2.88.12a30.2 30.2 0 0 0-3.58.36 28.06 28.06 0 0 0-4.29 1c-1.81.65-3.89 4.66-5.19 8.75a63.89 63.89 0 0 0 13.41 3.51l2.56.38v14.27h-3.35a24.75 24.75 0 0 0-13.2 3.82v6.68l-20.42 15.64z" fill="url(#b)"/>
    <path d="M112.88 128.83a47.92 47.92 0 0 0 8.22 15.57c11.51 14.32 32 21.49 52.81 21.49s41.9-7.16 54.64-21.49a53.56 53.56 0 0 0 9.26-14.81l11.79 3.14-3.78 51 10.18 2.49v5.27a45.53 45.53 0 0 0 16.55 4.68v8.64a33.19 33.19 0 0 0-3.94.4 31.21 31.21 0 0 0-4.83 1.16c-5 1.78-7.62 12.68-7.78 13.35a67 67 0 0 0 16.55 4.68v8.6h-.34a27.77 27.77 0 0 0-16.21 5.26v6.79l-18.4 14.12H111.37l-18.44-14.12v-6.79A31.59 31.59 0 0 0 76.38 233v-8.6h.11a31.23 31.23 0 0 0 16.44-4.68V210a27.1 27.1 0 0 0-16-5.23h-.55v-8.64c.59 0 1.28.09 2.06.09a24.41 24.41 0 0 0 14.49-4.77v-5.27l10.22-2.44-3.78-51 13.51-3.89m3.95-7.38l-5.61 1.62-7.6 2.19-5.9 1.7-4.72 1.33.36 4.86 3.4 46-1.66.4-3.59.86-4.6 1.1v6.69a18.39 18.39 0 0 1-8.49 2.08c-.52 0-1 0-1.55-.07l-6.51-.55v21.29l6.12-.12h.43a21.07 21.07 0 0 1 10 2.52v2.81a25.2 25.2 0 0 1-10.44 2.26H70.4v20.5l5.84.16a25.57 25.57 0 0 1 10.71 2.68V248l2.35 1.8 18.44 14.12 1.61 1.24h130.3l1.61-1.24 18.44-14.12 2.3-1.8v-6.43a21.74 21.74 0 0 1 10.25-2.57h.27l6.07.08v-19.86l-5.12-.76a61.22 61.22 0 0 1-6.63-1.36q-1.67-.44-3.32-1A12 12 0 0 1 266 212a27.62 27.62 0 0 1 6.86-1.17l5.75-.24v-19.93l-5.49-.47a39.57 39.57 0 0 1-7.61-1.41 37.89 37.89 0 0 1-3.45-1.18v-6.11l-4.6-1.1-3.89-.93-1.37-.33 3-40.44.41-5.51.37-5-4.81-1.28-7-1.85-4.83-1.29-5-1.34-2 4.81a47.43 47.43 0 0 1-8.21 13.15c-10.84 12.19-29.6 19.48-50.16 19.48s-38.45-7.19-48.13-19.25A41.85 41.85 0 0 1 118.6 127l-1.77-5.57z"/>
    <path d="M142.2 262.83l-22-16.41v-7.31a34 34 0 0 0-16.57-4.81l-1.95-.05v-13.4h2.13a33.59 33.59 0 0 0 16.39-4.26v-8.38a28.84 28.84 0 0 0-15.91-4.76h-2.57v-13.59l2.16.18c.71.06 1.43.09 2.14.09a25.78 25.78 0 0 0 14.22-4.26v-6.29l11.31-2.64-4.22-55.67L146.1 116l.42 2.12a28.87 28.87 0 0 0 8.57 15.9 29.28 29.28 0 0 0 19.78 7.1 33.17 33.17 0 0 0 20.86-7.12 31 31 0 0 0 9.72-15.2l.55-1.86 16.69 4.33-4.22 55.7 11.31 2.64v6.07a49.91 49.91 0 0 0 16.67 4.32l1.83.15v13.2l-1.92.08a35.88 35.88 0 0 0-16.6 4.83v8.11a74.32 74.32 0 0 0 16.8 4.48l1.71.25v13.19h-2.38a29.59 29.59 0 0 0-16.14 4.77v7.36l-22 16.41z"/>
    <path d="M144.56 118.5c.81 4.06 2.94 11.35 9.19 17 5.72 5.16 13.39 7.62 21.12 7.62A35.1 35.1 0 0 0 197 135.5a33 33 0 0 0 10.36-16.17l13.2 3.43-4.22 55.75 11.44 2.67v5.75a51.9 51.9 0 0 0 18.51 5.07v9.44a37.86 37.86 0 0 0-18.52 5.7v10.58a76.44 76.44 0 0 0 18.52 5.11v9.44h-.38a31.59 31.59 0 0 0-18.14 5.7v7.42l-20.63 15.42h-64.27l-20.63-15.42V238a36 36 0 0 0-18.52-5.7v-9.44h.12a35.58 35.58 0 0 0 18.4-5.11v-10.58a30.83 30.83 0 0 0-17.9-5.71h-.61V192c.66.05 1.43.09 2.3.09a27.78 27.78 0 0 0 16.22-5.21v-5.75l11.44-2.67-4.22-55.75 15.11-4.25m3.08-5l-4.17 1.17-15.11 4.25-3.15.89.25 3.27 1.41 18.58 2.56 33.75-8.1 1.89-3.09.72v6.77a23.65 23.65 0 0 1-5.5 2.4 23.9 23.9 0 0 1-6.72 1c-.66 0-1.32 0-2-.08l-4.33-.36v17.86l4.08-.08h.54a26.84 26.84 0 0 1 13.9 3.86v6.08a31.6 31.6 0 0 1-14.4 3.46h-4.12v17.35l3.89.1a32 32 0 0 1 14.62 4v7.15l1.61 1.2L140.47 264l1.06.8h66.93l1.06-.8 20.63-15.42 1.61-1.2v-7.25a27.61 27.61 0 0 1 14.14-3.88h4.33V219.4l-3.43-.5a72.42 72.42 0 0 1-15.03-3.9v-5.56a33.88 33.88 0 0 1 14.68-4l3.84-.16v-17l-3.67-.31a47.9 47.9 0 0 1-14.85-3.69V178l-3.09-.72-8.1-1.89 4-52.33.25-3.33-3.24-.84-13.2-3.43-3.75-1-1.09 3.72a29 29 0 0 1-9.07 14.22 31.14 31.14 0 0 1-19.58 6.7 27.3 27.3 0 0 1-18.44-6.58 26.9 26.9 0 0 1-8-14.81l-.84-4.24z" fill="#fff"/>
    <path d="M133.75 125.38l7.42-1.87a34.67 34.67 0 0 0 9.29 14.5c9.57 8.82 21.12 9.06 24.54 9.08 2.34 0 16.6-.14 27.44-11.27a37 37 0 0 0 7.92-12.37l6.15 1.19L212 181.5l12.63 3.13v58.87L207.5 256h-64.25l-17.62-13.37v-58l12.42-3.42z" fill="#fff"/>
    <path d="M138 191.64h74v5h-74zm0 15.42h74v5h-74zm0 15.33h74v5h-74zm0 15.33h74v5h-74z"/>
    <ellipse cx="154.17" cy="241.38" rx="7.67" ry="7.25" fill="#fff"/>
    <path d="M160.8 246.22l5-.3-3.58-2a7.27 7.27 0 0 0 .51-4c0-.23-.09-.45-.15-.67l1.8-2.61-2.38 1.13a7.79 7.79 0 0 0-2.31-2.67l1.1-5.52-4.14 4.07a10.08 10.08 0 0 0-4.2-.22 10.34 10.34 0 0 0-1.34.31l-3-4.16.49 5.29a9.15 9.15 0 0 0-2.35 2.13l-3.64-1.17 2.27 3.86a7.15 7.15 0 0 0 1 6.05l-1.75 3 3-1.57a8.93 8.93 0 0 0 3.53 1.9l3 3.34 1.61-3.17a9.74 9.74 0 0 0 5.53-3.02zm-6 .45c-3.63.58-7-1.46-7.46-4.55s2.05-6.06 5.68-6.64 7 1.46 7.46 4.55-2.06 6.07-5.69 6.64z"/>
    <circle cx="153.75" cy="241.38" r="2.96"/>
    <ellipse cx="204.67" cy="215" rx="10.58" ry="11.67" fill="#fff"/>
    <path d="M213.65 223l7.64 3.13s-4.25-4.68-5.76-6.24a12.49 12.49 0 0 0 .64-2l6.83-1.22-6.5-1.67a12.72 12.72 0 0 0-.13-1.65l4.5-3.48-5.21.69a12.38 12.38 0 0 0-2-3.45v-2.37h-2.61a11.75 11.75 0 0 0-3.1-1.48l-.58-4.94-1.54 4.49a11.31 11.31 0 0 0-3.95.23l-3.47-4.73.5 5.86a12 12 0 0 0-2.33 1.68l-3.47-2s.84 2.62 1.45 4.41a12.42 12.42 0 0 0-1.33 2.78l-5.11-1.14 4.48 4.3v.9a12.64 12.64 0 0 0 .5 3.52l-3.9 1.49h4.44a12.38 12.38 0 0 0 1.22 2.17l-3.28 7.54 6.8-4.19a11.64 11.64 0 0 0 6 1.78l1.72 4 1.72-4.49a11.7 11.7 0 0 0 2.46-1l4.72 4.58-2.78-6a12.22 12.22 0 0 0 1.43-1.5zm-9.12-17.47a9.51 9.51 0 1 1-9.23 9.5 9.37 9.37 0 0 1 9.23-9.46z"/>
    <circle cx="204.67" cy="215" r="5.41"/>
    <g>
        <ellipse cx="185.78" cy="168.25" rx="9.72" ry="9.5" fill="#fff"/>
        <path d="M197.58 180.13l-2.94-4.62a11.34 11.34 0 0 0 .81-1.18l5.13.68-3.89-3.61a11.3 11.3 0 0 0 .39-2.89v-.18l1.59-1.65-1.76-.08a11.25 11.25 0 0 0-1.73-4.35l3.48-4.44-5.52 2.14a11.38 11.38 0 0 0-1.43-1l.53-4.26-3.59 2.94a11.17 11.17 0 0 0-7 .39l-7.49-4 4.13 6a11.38 11.38 0 0 0-2.1 2.45l-2.27-.31 1.56 1.61a11.24 11.24 0 0 0-1 4.07l-5.91 2.86 6.24.64a11.23 11.23 0 0 0 .85 2.26l-1.46 2 2.44-.43a11.38 11.38 0 0 0 1.38 1.57l-.7 4.35 2.62-2.89a11.28 11.28 0 0 0 3.25 1.33l.59 3.52 1.22-3.25h.69a11.4 11.4 0 0 0 1.6-.13l5.13 5.67-1.16-7a11.37 11.37 0 0 0 1.8-1.26zM177 168.52a8.7 8.7 0 1 1 8.7 8.69 8.7 8.7 0 0 1-8.7-8.69z"/>
        <path d="M189.94 169.36a3.81 3.81 0 0 1-4.38 3.46 3.85 3.85 0 0 1-3.55-4.37 3.75 3.75 0 0 1 4.42-3.33 3.7 3.7 0 0 1 3.51 4.24z"/>
    </g>
</svg>
