<svg xmlns="http://www.w3.org/2000/svg" viewBox="0 0 350 350">
    <defs>
        <radialGradient id="a" cx="171.49" cy="281.49" r=".68" gradientTransform="matrix(169.51 0 0 -169.51 -28894.84 47891.01)" gradientUnits="userSpaceOnUse">
            <stop offset="0" stop-color="#fff" stop-opacity=".25"/>
            <stop offset=".51" stop-color="#fff" stop-opacity=".25"/>
            <stop offset=".8" stop-color="#fff" stop-opacity="0"/>
            <stop offset="1" stop-color="#fff" stop-opacity="0"/>
        </radialGradient>
    </defs>
    <path d="M177.43 60a23.64 23.64 0 0 1 32.35-4.57 42 42 0 0 1 66.11 23.85 23.76 23.76 0 0 1 12 23.39 30 30 0 0 1 3.11 43.72 22.05 22.05 0 0 1-1 15.77V290H60V60z" fill="#fff"/>
    <path d="M178 70h1.58a21 21 0 0 1 32.3-8.58 36 36 0 0 1 58.57 21.27c6.68 2.1 11.55 8.83 11.55 16.8a19.09 19.09 0 0 1-.46 4.18 25.58 25.58 0 0 1 1.37 41.69 15 15 0 0 1 .07 15.15v.16a15.09 15.09 0 0 1-2.88 3.49 15 15 0 0 1-17.5 1.81L259 172a22 22 0 0 0 21 .55V280H70V70h91.4a26 26 0 0 0-9.4 20h6a20 20 0 0 1 20-20z"/>
    <path d="M270 270H80v-91a18 18 0 0 1 14-2.59 13 13 0 0 1 22.86-7.9 19 19 0 0 0-29.44-8.62 19.09 19.09 0 0 0-7.42-6.13v-15a12.94 12.94 0 0 1 7-2.76 11 11 0 0 1 14-9.62 16 16 0 0 1 12-5.38h47V95a17 17 0 0 1 24.08-15.46A15.38 15.38 0 0 1 184 78a15 15 0 0 1 27.57-8.19 33 33 0 0 1 54.84 17.9 14 14 0 0 1 8.49 18.77 21 21 0 0 1 1.36 36.26 11 11 0 0 1-6.26 18.07V168a14.93 14.93 0 0 1-7.5-2l-3.5 6a21.89 21.89 0 0 0 11 3v15.22a32.16 32.16 0 0 0-11.5 9.46 24 24 0 0 0-38.61 11.85 17 17 0 0 1 30.89 6.69 24 24 0 0 1 19.23 5.9V270z" fill="#906f79"/>
    <path d="M197 73l-48 59-61 91 64-80zm34-3l-32 34 5 4zm28 43l-22 21-20 23 23-20zm17 4l-31 32-33 27 34-34zm-41 55l36-27-29 27-43 35z" fill="#fff"/>
    <path d="M182.74 270H80v-30.68c4.07 3.12 10.54 7.36 16 7.68 8.71.52 14.55.64 26-6s42-17.39 20-49-2.05-48.53 34-46 49 23 49 23a121.15 121.15 0 0 1 4.07 29.46 24.05 24.05 0 0 0-9.19 13.07 17.05 17.05 0 0 1 8.9-6.71c-1.74 15.8-12 32.11-16.78 36.18-5 4.32-19.2 16.24-23 20-2 2-4.44 5.84-6.26 9z" fill="#fff" fill-opacity=".2"/>
    <path fill="url(#a)" d="M60 59.99h230.01V290H60z"/>
    <path d="M175 81c-.2 0-57 4.57-57 59 0 6.74 1.47 13.32 5 25 3.89 12.87 4 28 4 28l18 12v7l-10 11 21 20 5-5 7 7 7-6 7 6 7-7 5 5 21-20-10-11v-7l18-12s.11-15.13 4-28c3.54-11.68 5-18.26 5-25 0-54.46-56.83-59-57-59zm-11 90.48a26.3 26.3 0 0 1-1.22 7.29c-2.14 6.33-9 6.41-14.28 3.21-6.85-4.18-7.26-13.52-6.46-21.65v-.24c7.35 3.72 14.62 7.56 21.93 11.35zm4 38.52l7-15 7 15zm33.5-28c-5.25 3.2-12.14 3.12-14.28-3.21a26.31 26.31 0 0 1-1.22-7.29c7.31-3.78 14.59-7.63 21.93-11.35.07 0 0 .16 0 .24.84 8.06.43 17.4-6.42 21.61z"/>
    <path d="M223.49 116.8c-8.18-18.5-28.15-29.5-48.28-31.8h-.42c-20.13 2.27-40.1 13.27-48.28 31.77-5 11.42-5.57 24.52-2.67 36.38.62 2.53 1.32 5 2.05 7.53a125.34 125.34 0 0 1 5 29.85v.26l18.06 12v10.69l-8.41 9.25 15.34 14.61 5.07-5.07 7.21 7.21L175 233l6.79 6.55 7.21-7.21 5.07 5.07 15.34-14.61-8.41-9.26v-10.68l18.06-12v-.26a125.34 125.34 0 0 1 5-29.85c.73-2.5 1.43-5 2.05-7.53 2.95-11.9 2.43-25-2.62-36.42zM157 188c-26.19 0-18-34-18-34l29 15s1.1 19-11 19zm4 26l14-28 14 28zm32-26c-12.09 0-11-19-11-19l29-15s8.2 34-18 34z" fill="#fff"/>
    <path d="M128.82 217.46c2.49-2.49 12.16 3.16 21.6 12.59s15.08 19.11 12.59 21.6l-12.59 12.59c-5.47 5.47-17.57 2.25-27-7.19s-12.66-21.54-7.19-27l12.59-12.59z" fill="#fff"/>
    <path d="M118.92 227.36l9.9-9.9c2.49-2.49 12.16 3.16 21.6 12.59s15.08 19.11 12.59 21.6l-9.9 9.9-2.69 2.69c-5.47 5.47-17.57 2.25-27-7.19s-12.66-21.54-7.19-27l2.7-2.7zm.86 4.79l-.72.72c-3.07 3.11-1.26 8.09.15 11.34 4.34 9.94 14.17 19 24.29 18.7a6 6 0 0 0 4.1-1.5l.72-.72c-1.73-4.39-6.11-10.51-12.06-16.47s-12.08-10.33-16.47-12.06zm4.67-4.67c4.39 1.73 10.51 6.11 16.47 12.06S151.26 251.63 153 256l6.54-6.54c-.76-3.37-3.15-6.37-5.46-9.32-5.92-7.58-12.82-14.95-21.54-18.69-.6-.26-1.53-.53-1.53-.53l-6.54 6.54z"/>
    <path d="M221.19 217.46c-2.49-2.49-12.16 3.16-21.6 12.59s-15.08 19.11-12.59 21.6l12.59 12.59c5.47 5.47 17.57 2.25 27-7.19s12.66-21.54 7.19-27l-12.59-12.59z" fill="#fff"/>
    <path d="M231.09 227.36l-9.9-9.9c-2.49-2.49-12.16 3.16-21.6 12.59s-15.08 19.11-12.59 21.6l9.9 9.9 2.69 2.69c5.47 5.47 17.57 2.25 27-7.19s12.66-21.54 7.19-27l-2.7-2.7zm-.86 4.79l.72.72c3.07 3.11 1.26 8.09-.15 11.34-4.34 9.94-14.17 19-24.29 18.7a6 6 0 0 1-4.1-1.5l-.72-.72c1.73-4.39 6.11-10.51 12.06-16.47s12.08-10.33 16.47-12.06zm-4.67-4.67c-4.39 1.73-10.51 6.11-16.47 12.06S198.76 251.63 197 256l-6.54-6.54c.76-3.37 3.15-6.37 5.46-9.32 5.92-7.58 12.82-14.95 21.54-18.69.6-.26 1.53-.53 1.53-.53l6.54 6.54z"/>
</svg>
