<svg xmlns="http://www.w3.org/2000/svg" viewBox="0 0 350 350"><defs><radialGradient id="a" cx="175" cy="175" r="96" gradientTransform="matrix(0 -1 1.5 0 -87.5 350)" gradientUnits="userSpaceOnUse"><stop offset="0" stop-color="#fd6566" stop-opacity=".75"/><stop offset=".5" stop-color="#f96263" stop-opacity=".73"/><stop offset="1" stop-color="#891716" stop-opacity="0"/></radialGradient></defs><path d="M279.58 118.1l10.55-17.1V60H59.87v230h230.26v-30.85l-10.45-4.22z" fill="#fff"/><path d="M69.18 69.39h211.64v211.4H69.18z"/><path fill="#891716" d="M78.75 79H271v192H78.75z"/><path fill="url(#a)" d="M79 79h192v192H79z"/><path d="M230.08 101.23c1.71-1.15 3.19-1 4.75-1.29 2.32-.51 2.53-1.71 5.34-3.52 3.18-2.05 4.19-1.34 9.79-3.57 3.28-1.31 3-1.56 6.84-3.28 5.48-2.43 10.91-4 11-3.74.18.46-11.67 6-18 8.75a33.33 33.33 0 0 0-7.25 3.75 48.77 48.77 0 0 1-4.5 3.08 16.18 16.18 0 0 1-3.25 1.67c-2.73.92-6 .8-6.25-.08-.16-.63 1.21-1.55 1.53-1.77zm-32-3.08c-.14-.57 4.1-2.48 8.5-3.48 3.59-.82 4.64-.44 7-1.67a21.18 21.18 0 0 1 3.67-1.67c.83-.27 3.12-1 3.25-.67.24.56-6.93 4.23-12.83 6.25a27.18 27.18 0 0 1-5.67 1.26c-1 .11-3.81.43-3.92-.02zM90.21 140a3.2 3.2 0 0 1-.08-2.12c.39-.81 1.34-.71 2.88-1.33a20.68 20.68 0 0 0 3.25-2.12c3-2.12 3.67-2.9 3.92-2.71s-.59 2.31-2 3.92a21.58 21.58 0 0 1-3 2.58c-2.72 2.24-3.71 3.38-4.37 3-.3-.11-.4-.48-.6-1.22zM117 116.75c.8-.55 2.12-1.45 2.79-1s.63 2.27-.19 3.5-1.62.79-4.65 2.5a10.26 10.26 0 0 0-3.62 2.73c-.47.63-.57 1-1.09 1.31-1.46.95-3.86.31-4-.37-.06-.43.81-.66 3-2a24.62 24.62 0 0 0 4-2.87c1.92-1.74 1.88-2.55 3.76-3.8zm98.33-8.17c-.57-.16-.77 1-2.33 1.75-1.26.61-2 .31-2.69 1.08-.35.4-.69 1.12-.44 1.58.5.91 3 .29 3.54.17 1.07-.26 1.77-.43 2.25-1.08.9-1.21.39-3.3-.33-3.5zm-6.92 3.23c-.33-.44-4 1.46-3.87 1.94.11.32 2 .34 3.21-.83.25-.27.81-.92.66-1.11zM120.9 220.09c.43-.53.49-1.38.19-1.56-.53-.31-2.42 1.38-2.18 1.89.16.33 1.38.43 1.99-.33zm-6.82-3.19c-.09.28.49.71.79.89a3.13 3.13 0 0 0 2.16.2c.46-.07 1.88-.33 1.87-.64-.02-.56-4.59-1.16-4.82-.45zm142.4 20.43c2.71.32 3.64.25 4.27 1 1 1.22.37 3.34 0 3.38s-.21-1.61-1.37-2.47c-.89-.66-1.74-.3-3.22-.41-2.83-.2-5.17-1.9-5.06-2.25s1.5.3 5.38.75zm-96.57 4.48c-.18 0 .13 1.26.94 5.69.46 2.55.58 3.33 1.33 3.91 1.31 1 3.61.67 3.89-.1s-1.49-1.4-3.31-3.75c-2.27-2.92-2.58-5.82-2.85-5.75zm-45.53 25.32c-9.57-8.18-15.49-13.24-19.12-21-1.58-3.38-2.06-5.84-4.62-7.12-1.88-.94-3.09-.35-9.87-.12-5.81.19-6.23-.19-7.12.5-4.06 3.15-2 16.22 4.81 20.19a24.74 24.74 0 0 0 5.14 1.86 61.9 61.9 0 0 0 9.42 2 112.64 112.64 0 0 1 12.25 2.38c9.15 2.53 14.73 7.18 15.06 6.69s-2.7-2.6-5.95-5.38zM93 261.81c-.41.3-.84-.07-4-1.44-5.09-2.2-5.69-2-7.37-3.25-1.19-.89-4.17-3.13-3.75-5.44.46-2.51 4.82-4.29 7.8-3.19a5.73 5.73 0 0 1 2.32 1.76c3.68 4.11 6.43 10.51 5 11.56z"/><path d="M277.5 123.38q-4.33 8.5-8.87 17.13-3.93 7.47-7.87 14.75a17.81 17.81 0 0 1-6.31 1.81c-4.21.37-6.37-1-9.28.5-1.16.61-1.07.95-2.94 2a20.33 20.33 0 0 1-4.41 1.84c-2.66.76-6 1.11-6.19.47s2.9-2.67 6-3.67a54 54 0 0 0 5.5-1.58c2-.78 3.22-1.27 3.17-1.71-.17-1.39-13-.83-15.42 0a7.83 7.83 0 0 1-1.5.33c-.92.11-2 .26-2.29-.17-.57-.84 1-3.49 3.29-4.75 1.8-1 2.78-.4 6.21-1a25 25 0 0 0 5.5-1.62c3.83-1.69 7.39-4.82 6.92-5.79s-4.91.31-5.12.38a24.93 24.93 0 0 0-4.17 1.83c-1.56.68-3 .86-9.62.33-5.69-.45-8.53-.68-9.75-1-5.93-1.57-6.69-3.79-11-3.83-.93 0-2.44.08-3.42-.92s-.49-2.42-1.67-3.5-2.82-1-3-.67 1.33.79 1.83 2.29c.09.28.43 1.41-.12 2s-1.72.43-3.46.08a11.39 11.39 0 0 1-4-1.29c-1.86-1.1-1.73-1.91-3.67-2.79a3.71 3.71 0 0 1-1.46-.92c-.52-.59-1.1-1.73-.71-2.33.61-.94 2.87.5 5.38-.67 1-.47 1.84-1.27 1.71-1.62-.22-.58-2.83.51-4-.75a1.64 1.64 0 0 1-.42-1.75c.42-.71 1.92-.55 2.42-.5 5.21.49 16-1.46 16-1.88a6.07 6.07 0 0 0-2.16-.33c-3.94-.16-4.88 0-5.69-.66s-.3-1.66-1.11-2.32c-1.55-1.27-4.3 1.46-8.77.92-.69-.08-2.34-.31-2.74-1.31-.26-.63.17-1.14-.2-1.62-.53-.7-1.83-.19-2.18-.79s.27-1.24.33-1.33c1-1.4 3.33-1.21 5.63-1.29 5-.18 9-1.64 9-1.87a18.65 18.65 0 0 0-3.46 0c-9.55.3-10.48-1.33-15.29-.21-1.94.45-2.94.95-4.33.46-2.25-.8-2.72-3.37-4.25-3.19a3.55 3.55 0 0 0-2 1.31c-1.58 1.63-1.63 2.92-2.37 4.13-1.21 2-3 1.55-10.62 4.5-3.09 1.19-4.14 1.77-4.08 2.29s1.33.93 2.38 1c2.07.05 2.54-1.35 5.38-2.46 2.41-.95 2.92-.27 5-1.37 1.7-.9 1.3-1.32 3.13-2.37a14.24 14.24 0 0 1 6-1.67c1.6-.19 2.08-.05 2.44.13 1.26.63 2.19 2.38 1.75 3.56-.5 1.34-2.49 1.18-5.87 2.38a32.54 32.54 0 0 0-5.69 2.88c-3.15 1.67-5.4 1.78-13.5 2.93-11.91 1.7-17.86 2.55-20.25 3.44-3.75 1.4-5.67 2.69-7.31 1.69-3.47-2.12-1.27-11.72-1.94-11.81s-.56 9.69-5.44 12c-3.93 1.86-9.57-1.85-11.37.5a1.56 1.56 0 0 0-.37 1.19c.16.78 1.25 1.14 4.31 2 3.41 1 4.4 1.17 5.31 2.19a4.87 4.87 0 0 1 1 1.75c.75 2.33-.29 5.32-1.69 5.63-1.22.27-1.56-1.76-3.5-2.5-3.48-1.32-6.45 3.62-13 4.94-1.17.23-2.54.37-6.75-.06A120.26 120.26 0 0 1 75 144.69l-2.38 3.43-.74 54.63c2.72 12.46 4.3 15.5 5.28 15.41 1.31-.12.95-5.84 3.88-6.85 1.1-.38 3.75.37 9 1.86.42.12 1.85.52 2.4-.11s0-1.4.58-2a1.61 1.61 0 0 1 1.11-.38c2-.09 4.91 1.85 6.95 4.29.35.41.85 1.06 1.22.94s.1-1.62.94-2.81a3.69 3.69 0 0 1 1.84-1.24c4.27-1.67 9.69.36 10 .49a16.41 16.41 0 0 1 3.24 1.54c1.63 1 2.08 1.8 3.48 2.08 1.06.22 1.87.14 1.92.38.07.4-2.29.95-2.23 1.31s2.47-.13 5.69.34c2.77.41 4.68 1.33 5 .81.12-.21-.16-.46-.64-1.39-.64-1.23-1.17-2.16-1-2.71.7-1.81 5.54-1.48 7.4-1.35 3 .2 4.14.73 7.52 1.44 5.41 1.14 4.82.35 14.38 1.54 3.44.43 6 .88 6.33.08.22-.56-.77-1.44-1-1.65-3.16-2.81-7.24-.66-14.5-1.89-3.15-.53-2.46-.95-6.46-1.71a72.49 72.49 0 0 0-10.67-1c-5.08-.24-7.07-.1-9.54-1.58-1.57-.94-3.08-2.36-2.87-2.71s2.67.81 5.13 1.63c4.85 1.6 8.77 1.3 12 1.21 16.57-.49 23.68 4.19 42.59 2.13 3.57-.39 12.83-1.15 19.81.68.31.08 3.14 1.06 6.88 2.5s5 2.08 6.81 2.78c3.56 1.39 4.92 1.36 18 3.59 6.55 1.12 8.66 1.54 8.72 1.31s-5-2.34-10.78-3.62c-4.13-.93-6.21-1-10-2.5-1.21-.49-5.8-2.36-5.56-3.53s6.51-1.07 9.06-1c5.77.23 8.76 1.18 13.19 1.69l2.52.24c9.38.86 34.29 1.18 35.92 1.2l2.31-27.12 16.81 8-16.69-22.19 13.12-20.06-.3.17-12.7 7.33z"/><path d="M185.38 205.69l-.07-19.19 22 .25 9.6-6.53 21.65-.06 6.72 5.06h21.47v-22.84l-21.13-.13-5.5 4.75h-23l-9.62-5h-22v-20.12h-7.12l-6.13 10.37H76v47.13l59.69.06 8.75-7.82 11.5-.06 7.25 14.13m-1.13-38.25H91.12v-5.06h70.94zm26.88 13.68l-.94 1.07h-2.81l-1.13-1.07v-14.06l1.06-1.94h2.69l1.13 1.44zm8.94 0l-.94 1.07h-2.82l-1.12-1.07v-14.06l1.06-1.94h2.69l1.13 1.44zm8.81.13l-.94 1.06h-2.81l-1.13-1.06v-14.06l1.07-1.94h2.68l1.13 1.44z" fill="#fff"/><path fill="#f9f7f7" d="M269 154.5l14.75-32.75-2.75 32.13 24.25-19.38-23.62 39.16 21.25 30.97-22.25-13.13 1.75 31.07L269 192.38l4.63.62.62-10.81 10.13 4.56-9.13-13.09 10.88-16.56-11.63 8.78 1.83-12.88-7.33 4.1v-2.6z"/><g fill="#fff"><path d="M67.33 250.67l107.68-37.84 112.62 45.3-2 7.5-110.62-43.75-107.68 37.75v-8.96z"/><circle cx="174.75" cy="218.57" r="12.88" stroke="#000" stroke-miterlimit="10" stroke-width="4"/></g><path fill="#fff" d="M137 136.86h22.45V144H137zm3.116-12.58l21.521-6.392 2.033 6.845-21.521 6.391zm-6.28-11.98l19.443-11.224 3.57 6.183-19.443 11.225zM123.62 89.995l21.521-6.39 2.033 6.844-21.521 6.39zM50.273 52.789L73.18 39.564l5.57 9.647-22.907 13.225z"/><path d="M72.45 42.3L76 48.48 56.58 59.71 53 53.52 72.45 42.3m1.46-5.46l-3.46 2L51 50.06l-3.46 2 2 3.46 3.57 6.19 2 3.46 3.46-2L78 51.95l3.46-2-2-3.46-3.55-6.19-2-3.46z"/><path fill="#fff" d="M116.149 73.966l18.83-18.83 8.337 8.337-18.83 18.83z"/><path d="M135 58l5.51 5.51-16 16L119 74l16-16m0-5.66l-2.83 2.83-16 16-2.85 2.83 2.83 2.83 5.51 5.51 2.83 2.83 2.83-2.83 16-16 2.83-2.83-2.83-2.83-5.51-5.51-2.81-2.85z"/><path fill="#fff" d="M102.304 68.683l15.12-21.261 8.965 6.375-15.12 21.261z"/><path d="M117.9 50.21l5.71 4.06-12.81 18-5.71-4.06 12.81-18m-.9-5.58l-2.32 3.26-12.81 18-2.32 3.26 3.26 2.32 5.71 4.06 3.26 2.32 2.32-3.26 12.81-18 2.32-3.26-3.31-2.33-5.7-4-3.22-2.37z"/><path fill="#fff" d="M76.114 61.036l19.1-19.099 7.968 7.97-19.099 19.098z"/><path d="M95.21 44.76l5.14 5.14-16.27 16.27L78.94 61l16.27-16.24m0-5.66l-2.83 2.83L76.12 58.2 73.29 61l2.83 2.83L81.25 69l2.83 2.83L86.91 69l16.27-16.27L106 49.9l-2.83-2.83L98 41.93l-2.79-2.83z"/></svg>