<svg xmlns="http://www.w3.org/2000/svg" viewBox="0 0 350 350">
    <defs>
        <clipPath id="a">
            <path fill="none" d="M78.63 78.96h193.02v192.81H78.63z"/>
        </clipPath>
    </defs>
    <g data-name="BG Shapes">
        <path fill="#fff" d="M59.87 60h230.26v230H59.87z"/>
        <path d="M69.18 69.39h211.64v211.4H69.18z"/>
        <path fill="#906f79" d="M74.62 74.62h200.75v200.75H74.62z"/>
    </g>
    <path d="M282.17 70.67v211.5H70.67V70.67H127v43.54c-.34 0-.69-.05-1-.05a11.77 11.77 0 0 0-6.74 2.11l-3 3a81 81 0 1 0 116-1.66c-1.23-1.23-2.5-2.41-3.81-3.56a12.71 12.71 0 0 0-6.62-1.84h-.74V70.67z"/>
    <g fill="#906f79">
        <path d="M117.13 116.13L105.63 104l5.75-11.75-29.63-25.12 33.38 23.62-2.88 13.25 12.63 13.5-4.13 2.13-3.62-3.5z"/>
        <path d="M89.06 141.31l-16.06.44 8.75-2 6.19-3 3.06-7.41 4.72-5-4.19-1.72 3.85-23.41-28-2.62 34.83-.5.11 20.27 19.18 8.1-11.12 6.63-8.25-3.25-8.13 4.91zM65.5 179.94l19.06 20.69.88-22.69 4.5-1.31 10.69-2-1.94-13.19-26.56.8 9 29.83zm38.13 25.31L91.13 216l-7.25-7.37-21.25 21.87 20.43-17 6.82 7.38 20.5-12.25-6.75-3.38zm7.62 7.38l-31.37 21.5 8.37 30.62L65.5 284l29.38-15.75-3.63-26 7.88-8.87 1.5 12.25 7.87 1 1.25 8.12.63-8.12 4.5-1.25-6.25-.88-5.5-1.12 1.5-12.25 14.75-10.5-8.13-8zm26.88 25.5l-18.75 21 3.12 9.25-15.12 18.25L127.13 269l-2.75-8.12 19.75-19.25-6-3.5zm17.37 3.25l-17.12 21 18 10.25-3.38 13.25 11-14.63-9.75-8.87 9.75-18.5-8.5-2.5zm45 5.62l12.67 12.83-14 11.17 25 16.5-14-16 19.16-7L210 241.38l-9.5 5.62m23.83-12.67l9.5 4.67 9.67-6v-9l14.17-6.12-10.17 6.95-.5 9.67-7.83 8.17 3.66 4.33L256 231.5l19 44.83-17.33-26.5-13.17 13.8-33-22.25 12.83-7.05zm25.34-38.83l18.83 7.33-8.33 8 24.33 10.34-10.17-11.34 14.84-7.5-37.5-21.3-2 14.47zm-5-45.62l32-24.38v33.83l18.83 1.34-25.42 2.16V146.5l-19.75 13.83-5.66-10.45zm1.16-6.88L268 127l-8.5-17.5 22.5-5.17-27 1.67 4.83 18.5-18.16 15.33 4.16 3.17z"/>
        <path d="M226.83 117l10.63-21.75h26.04l-11.83-28.12L270.08 99l-26.41 3.83-8.67 27.84-8.17-13.67z"/>
    </g>
    <path d="M256 175a81 81 0 1 1-139.81-55.71l3-3a11.77 11.77 0 0 1 6.74-2.11c.36 0 .71 0 1 .05a11.86 11.86 0 0 1 8.5 18.86 75.1 75.1 0 0 0-2.71 2.64 57.3 57.3 0 0 0-5.79 7.1 56.77 56.77 0 1 0 87.7-7.1 56.413 56.413 0 0 0-3.35-3.21 12.8 12.8 0 0 1 9.72-20.27h.74a12.71 12.71 0 0 1 6.62 1.84h0c1.31 1.15 2.58 2.33 3.81 3.56A80.76 80.76 0 0 1 256 175z" fill="#fff" stroke="#000" stroke-miterlimit="10" stroke-width="5"/>
    <rect x="162.25" y="96" width="25.5" height="107.75" rx="12" ry="12" fill="#fff" stroke="#000" stroke-miterlimit="10" stroke-width="5"/>
    <path d="M113.86 54.7l6.31-7.7h110.5l6.79 9.16-123.6-1.46z"/>
    <path d="M219 96.79a8.79 8.79 0 0 1-3.68-.8A8.89 8.89 0 0 1 211 84.22l8.47-18.5h-14.95v18.93a7.67 7.67 0 0 1-15.33 0V65.72h-5.86v18.93a7.67 7.67 0 0 1-15.33 0V65.72h-6.35v18.93a7.67 7.67 0 0 1-15.34 0V65.72h-15.49l8.64 18.22a8.88 8.88 0 0 1-4.22 11.82 8.78 8.78 0 0 1-3.78.85 8.92 8.92 0 0 1-8-5.07l-14-29.46 6.91-11.32 1.36-.13h115.7l.85 1.17 6.39 10.2-13.58 29.61a8.9 8.9 0 0 1-8.09 5.18z" fill="#fff"/>
    <path d="M232 53.13h.11l5.67 9-13 28.41a6.37 6.37 0 1 1-11.59-5.31l10.09-22H202v21.42a5.17 5.17 0 0 1-10.33 0V63.22h-10.84v21.43a5.17 5.17 0 0 1-10.33 0V63.22h-11.35v21.43a5.17 5.17 0 0 1-10.34 0V63.22h-21.94L137.2 85a6.37 6.37 0 0 1-11.52 5.46l-13.39-28.23 5.55-9.09H232m0-5H117.38l-2.5.23-1.31 2.14-5.57 9.11-1.41 2.31 1.16 2.44 8 16.83 5.41 11.41a11.43 11.43 0 0 0 10.29 6.5 11.38 11.38 0 0 0 10.26-16.24l-6.95-14.65h9v16.43a10.17 10.17 0 0 0 20.34 0V68.22h1.35v16.43a10.17 10.17 0 0 0 20.33 0V68.22h.86v16.43a10.17 10.17 0 0 0 20.33 0V68.22h8.51l-6.85 15a11.39 11.39 0 0 0 5.6 15.08 11.27 11.27 0 0 0 4.73 1 11.41 11.41 0 0 0 10.36-6.64l13-28.41 1.12-2.45-1.44-2.29-5.67-9-1.45-2.31h-2.87z"/>
    <path d="M197.81 39.25h-47a2.41 2.41 0 0 0-2.15.77 2.82 2.82 0 0 0-.64 2v11.11h52.66V41.65a3.06 3.06 0 0 0-.79-1.6 2.69 2.69 0 0 0-2.08-.8z"/>
    <path fill="#fff" d="M152.17 44.33h43.67V58.5h-43.67z"/>
</svg>
