<svg xmlns="http://www.w3.org/2000/svg" viewBox="0 0 350 350">
    <defs>
        <radialGradient id="a" cx="175" cy="175" r="96" gradientUnits="userSpaceOnUse">
            <stop offset="0"/>
            <stop offset="1" stop-opacity="0"/>
        </radialGradient>
    </defs>
    <g style="isolation:isolate">
        <path fill="#fff" d="M60.1 60.23h229.79v229.54H60.1z"/>
        <path d="M69.39 69.6H280.6v210.98H69.39z"/>
        <path d="M271.46 271.57H78.83V79.15h192.63z" fill="#d75b2b"/>
        <path opacity=".5" fill="url(#a)" d="M79 79h192v192H79z"/>
        <path d="M94.94 271.57l10-12.79c2.75-3.5 7.48-7.64 8.33-12 .25-1.29.61-6.25-.12-7.24-1-1.34-6.21-2.26-7.66-2.79-2.77-1-5.68-2.49-8.56-3.12-5.58-1.22-12.4-.27-18.15-.31 8.4-9.14 16.52-16.69 20.62-28.48 2.2-6.33 5.34-12.37 7.16-18.82.81-2.88.9-7 2.54-9.43s5.17-4.9 7.43-7L134 153l19.81 58.68 5.58 16.52c.84 2.48 3.54 7.19 3.32 9.84s-3.94 2.78-7.07 3.88c-4.49 1.57-6.49 2.43-9.92 5.56-4.3 3.93-8.44 8.37-13.17 11.74a80.64 80.64 0 0 0-8.5 6.35c-1.69 1.57-3.54 5-5.45 6-2.22 1.16-7.85 0-10.53 0zM238 94.5a36.1 36.1 0 0 0 3.16-11.22c.07-.6-.17-3.77.22-4.13.57-.54 5.73 0 6.84 0h12.31c1.42 0 10.13-.84 10.94.07.67.75 0 5.21 0 6.15v24c0 1.84.79 5.75 0 7.45-1.56 3.37-10.39 7.39-13.56 9.9-1.78 1.41-2.95 2.74-5.1 3-1.68.22-4.51-.66-6.11-.9L234.48 127c6-3.06 13.53-8.29 20.08-9.28 1.25-.19 14.85 0 14.61-2-.11-.89-13.57-.85-14.5-.92-3-.2-5.75-.31-8.34-1.84-2.84-1.68.87-1.21-3.37-2.82-2.05-.78-5.06-.59-7.21-.84 3.21-1 10.74-4.46 10.75-8.17s-5.28-6.47-8.5-6.63zm-18.59 2.72c-2.28-1.94 2.08-7.61 3.54-8.68 2.56-1.89 10.69-2.87 12.53.92 1.46 3-2.07 2.51-4.76 3.34-1.43.43-10.19 5.37-11.31 4.42zm-7.24-14.97c2.49 2.35-10.64 11-12 11.88-2.72 1.74-6.82 4.33-8.33 7.29-1.73 3.38 0 10.44.33 14.34l-40.08-2.5a42 42 0 0 0 14.36-12.37c1.2-1.62 11.46-14.89 13.05-13.39s-7.58 6.82-2.89 7.44c1.86.25 3.91-2.65 6.16-2.26 3.47.59 3.65 4.91 3.64 7.73 2.24-1.31 25.53-18.41 25.76-18.16z" opacity=".75" fill="#6e3120"/>
        <path d="M232.94 172.44L224 162.38l19.88-11.81zm-7.27-30.27c2.62-2.36 5.41-6 8.69-6.92 5.25-1.43 11.63.94 17 0 6.55-1.15 12.41-12.12 16.8-17.33l-16.9 8c-5.73 2.72-7.45 4.08-13.5 2.95-3.7-.69-7.4-1.53-11.13-2.07-3.4-.49-3-.66-5.47 2.1-4.65 5.16-.06 9.81 4.51 13.27zm-95.5-21.42c-3.77 3.05-8.67 8.89-13.17 10.25-2.5.75-7.09-1.32-9.29 0-1.64 1-3.08 5.9-4 7.67 4.45.29 9.07.22 13.48.88 2.42.36 7.25 3 9.24 2.12s6-7.21 6.5-9.4a13.51 13.51 0 0 0-2.76-11.52zm.33 18.33l-10.29 17.07c-2.83 4.7-1.91 9.45-1.91 14.93l6.9-6.66c2.81-2.71 7.82-6 9.75-9.41 2.75-4.82-1.79-11.57-4.45-15.93zM116.33 154l-6.58 10.5-2.92-3.75zm-22.5 38.25l16.83-9.08c-3-2.88-5.3-5.09-9.51-2.19-2.92 2.02-5.34 8.23-7.32 11.27zm31 32.58c-2.23-3.39-2.57-3.11.32-5.86l7.36-7c1.36 3.8 2.4 5.38.57 9.18s-3.74 3.07-8.25 3.68zM226.19 221c-1.66-1.61-4.61-3.51-5.67-5.52-1.3-2.45-.74-2 1.28-5 1.11-1.65 3-3.61 3-5.44 0-2.22-2.35-5.78-3.21-7.88 10.22.63 26.24-1.76 32.63 8.63-9.22 5.61-17.83 11.61-28.03 15.21zm-36.31-118.75L200.25 93l8.05-7.16c1.28-1.14 3.91-4.57 5.6-5 2.82-.68 6.92 5.08 9.37 7.44 1.83 1.76 8.46 7.35 8.28 9.59-.22 2.67-8.82 8.77-10.83 10.73-3.88 3.79-4 4.11-9.37 4.11h-10.62c-2.27 0-6.69.88-8.79 0s-1 .27-1.6-2.72c-.5-2.42-.34-5.22-.46-7.74z" fill="#d75b2b"/>
        <path d="M244.94 197.5l-21.88-1.5-1.19-11-3.62-10.56 3.25-2.87 8.17 5.23 5.71-2.67 6.25 5.31-2.56 10.38 6.5-9.25-6.37-8 8.75-7-6.5 3.25-5.75 2.69-5.44.44-3.75-3.69v-14.59l-.37-12.79-4.42-3.21-.62-6.37 3-2.79 16.13 1.63 13.77-.26 17.19-14.28-11.31 6.56-8.57 5.51-5.53-.1-22.25-3.13-4.75 1-.16-12.59 7.09-3.5 4-3.94 3.19-7.37 3.73-3.04-3.78.59-4 4.16-2.62 6.44-7.5 4-6.37-2.87-8.81.19-12.75 2.56-2.69-2.94-.18-3.82-4-1.41-4.86-3.39-6.73-1.58 4.48-7.67-4.75 4.06-2.06 4c1.63 1 3.36 1.91 5.19 2.85 2.12 1.1 4.18 2.07 6.16 2.94l3.16 2.69 2.54 5-1.29 1.33-6 .29-6.54-2.79-8-5.5-8.47 7.31-4.16 1.19-4.91-4.63-8.69-.62-9.69-5.38-5.69-1.12-3.44 4.69-3.37 6.75-9.56.06-6.94-2.19 5.13 4.69 12.31.13 3.63-3.37 3.5-8.12 8.94 3.56-4 2.63-.53 9.28 1.72 6.59.25 5.56-3.31 2.69-2 6.44-4.84-.56-1.4-1.6-2.2-9.68-9.87.47-8.59-1.19-2.94-2.62-7.62-8.25 7.13 10.84 7.31 2.84 12.77.33.42 7.69-10.22 2.29 7.32 5.38 2.73 3.58-7.6 3.4 7.55-1.29 5-1.5-7.19-8.27 6.73-.62 6.63 1.94 3.63-2.77L134 153l-.42 14.47-7.31 8.18-3.82.94-13.68.31-2.87 1.81-5.56.25-6.62-3.19-7.81-1.62 5.13 2.38 7.5 3.94 4.81 1.5 5.81-3.19 11.88.44-.06 8.5-1.62 1.19-4.56-.87-8.62-.31 11.44 2.44-8.37 6.19-9.75 8.29-1.25 4.08-4.06 7.88 5.56-6.79 1.75-4.08 9.33-7.75 13.26-8.91-.31-7.25 2.75-2.62 4.63-.47 2.59 12.63-6.12 15.44 3.63 7.56.06 5.59-3.56 2.66-6.76 1.88-9 8.88-16.58-2.75-19.1 3.13 20.19-.25 16.38 3.81 11.94-11.19 3.85.17 2.75 14.25 12.57 3.08-4 6-6.5 5.71-8.67-7.21-13.46 14.5 10.21-8.87L125 251l8.54 7.67 16-14.58 4.4 1.56 34.56-2.4-5.19 7.95 4.59 9.28-2.33 6.69 4.92-5.5-3.19-10.85 1.42-3.12 3.38-4.48 8.46-3.71 12.6-1.42.31 4.33-3.08 2.67-6.54 6.35-8.13 3.27 10.47-1.59 7.28-6.86 2.88-2.54 4.33-.5 8.07 5-4.47-7-1.81-6.56-3.44-4.81-.22-7.81 3.78.56 4.75 2.63 5.38-5.51 7.88 2.5-2.5-2.87-5.29-4.08-6.77 4.9-4.89-5.56 2.57-2.5 3.06-5.19-3.03-7.92 19.69.81 8.38 4.25 9.69-1.12-7.37-.5zM133.83 112l10 .4-10 12.18zm12.5 129.12l-12.5-3.12v-15.21c2.24 2.06 4.61 4.42 7 7.08 2.16 2.41 4.07 4.77 5.75 7zm67.17-81.42l6.56-15.37 1.56 15.25-7.37 10.75zm10.38 45.38l-7.63 8.92v-26z"/>
        <path d="M133.88 134.63q3.31-4.77 6.79-9.62 3.7-5.15 7.38-10.09l5.16 4.58 13.11-8.55 16.13 8.71 10.27-3.12 16.72-2.9 3.43 3V133l4.29 7.3-7.29 18.1-.4 11 2.2 7.86 1 7.17-1.42 10.69-.1 16.25 2.35 6.73.67 8 .83 8-8.54-1.33-8.75 1.79-9.38 5.54-12.33-.6-11.17 2-11.54-.5-3.55-7.63-12.57-14.71-3.36-13 5-14.37-3.52-16 3.73-7.52.12-18z" fill="#fff"/>
    </g>
</svg>
