<svg xmlns="http://www.w3.org/2000/svg" viewBox="0 0 350 350">
    <path fill="#fff" d="M60.1 60.23h229.79v229.54H60.1z"/>
    <path d="M69.39 69.6H280.6v210.98H69.39z"/>
    <path fill="#a94825" d="M78.83 79.15h192.63v192.42H78.83z"/>
    <path d="M173.67 146.88c-.4-8.64-2.77-37.35-23.17-50.71-10.17-6.66-26.81-10.8-28-8.44-.17.33 0 .68 1.53 3.27 4.63 7.91 5.45 9 5 10-.26.59-1.06 1.38-9.5 1.67-3.77.13-7 .08-9.33 0L100.75 114 60 157.25v8.58a19 19 0 0 1 9.5 4.67 4.06 4.06 0 0 0-2.42 1.61 3.79 3.79 0 0 0-.58 2.05c-.1 4.17 3.67 8.5 3.67 8.5 7.66 8.8 11.48 13.2 14.5 15.33a55.83 55.83 0 0 0 24.83 10c23.26 3.09 40.65-10.91 43.17-13 21.57-17.92 21.11-44.74 21-48.11zm-88.92 40.87c-.58.7-4-1.3-5.75-2.66-2-1.51-2.28-2.41-2.37-2.84a4.49 4.49 0 0 1 1-3.5c.48.39 1.14.95 1.88 1.66 2.56 2.46 5.91 6.53 5.24 7.34zm24.86-19a19.59 19.59 0 1 1 19.59-19.59 19.59 19.59 0 0 1-19.59 19.59z"/>
    <path d="M113.92 80q1.64 1 3.33 2t3.25 2.07a34.62 34.62 0 0 1 6.08-.32c11.18.4 19.49 6.18 23.58 9.58A57.19 57.19 0 0 0 137 85.05 57.78 57.78 0 0 0 113.92 80zm46.5 23.08a44.58 44.58 0 0 1 12.39 21.83 57 57 0 0 0-3.89-7.5 39.35 39.35 0 0 1-2.25-4c-.66-1.36-1.06-2.37-1.22-2.77a27.23 27.23 0 0 0-5.03-7.56zM301.75 86c-5.83-12.19-14.82-19.11-21.5-24.25a89.34 89.34 0 0 0-33-15.83c-32.44 3.43-59.49 21.22-68.08 46-6.51 18.77-1.64 39.27-.92 42.17A80.94 80.94 0 0 0 191 161.58a40.94 40.94 0 0 1-5.08-11.58 40.41 40.41 0 0 1-1.08-5.83l2.42.33.58-3.25 4.92 2.58.83 4.58 4.41 5.09 2.58 12.08 22.25-8.25 26-12.08 30.79 8.13a21.86 21.86 0 0 0 3.38-4c1.54-2.36 1.74-3.69 3.25-5.75a16 16 0 0 1 3.5-3.46 6.85 6.85 0 0 1 .88 2.58c.42 3.49-2.19 5.53-3.87 10.63a23.85 23.85 0 0 0-1 4.38 13 13 0 0 0 6.5-.75 71.46 71.46 0 0 0 5.63-8.87c2.2-4.14 17.39-33.85 3.86-62.14zm-55 28.75a15 15 0 0 1-9.37 12.5l3.5-4.12a16.59 16.59 0 0 1-14 4.13l-.75-1.42-2.29.79a18.75 18.75 0 0 1-7-9.5 18.29 18.29 0 0 1-.62-8.12 4.35 4.35 0 0 1-3.37 1.63 18.05 18.05 0 0 1 7.63-9.87 17.54 17.54 0 0 1 17.88-.12c1.1.62 9.03 5.5 8.39 14.1zM265.25 73h-3.87a20.29 20.29 0 0 0-7-8.37l5.75 2.63a20.45 20.45 0 0 0-1.66-1.87 21.15 21.15 0 0 0-6.72-4.5 27 27 0 0 1 6 1.91 27.77 27.77 0 0 1 10.16 8zm34.25 43.92c-.51 5.78-2.05 11.4-2.83 11.33s-.9-5.15-1.25-15.33c-.3-8.8 0-7.62-.25-10a64.8 64.8 0 0 0-8.58-26.67c-1.16-1.86-2.12-3.84-3.33-5.67-1.05-1.58-1.88-2.65-1.58-3s2.06.3 3.22 1.08c3.18 2.14 3.61 5.78 5.11 10.33s2.19 4.24 4.42 9.67c1.95 4.8 6.2 15.43 5.07 28.26zm-28.04 45.91a29.85 29.85 0 0 1-4.83 3.54 31.16 31.16 0 0 1-5.44 2.5 146.77 146.77 0 0 1-18.46 4.71q4.26 6.78 8.52 14.23 3.1 5.43 5.88 10.69a104.34 104.34 0 0 0-10.31-23.94 23.08 23.08 0 0 0 5.56-1.31c3.3-1.23 3.25-2.09 6.06-2.94s3.77-.28 7.31-1.5a9.2 9.2 0 0 0 2.94-1.44 8.34 8.34 0 0 0 2.77-4.54z"/>
    <path d="M187.56 230.5a4.17 4.17 0 0 1-2.7.12l1.34-2.79-1.64-1a10.22 10.22 0 0 0-5.19-9.12 9.94 9.94 0 0 0-7-.75l-1-1.6c-.61.26-5.69 2.52-6.9 7.73s1.85 10.88 7.56 13.44a8.29 8.29 0 0 1-2.62-.62c-5.55-2.35-6.45-10.17-6.54-11l-2.17 3.83a10.91 10.91 0 0 1 1-7.42 10.56 10.56 0 0 1 3.48-3.75l-2.83 1.33a17.83 17.83 0 0 1 15.67-7v-1.4l-8.51-.83 6.33-1.42a1 1 0 0 0 1-.81.92.92 0 0 0-.07-.5 17.16 17.16 0 0 0-4.57-.77 17.84 17.84 0 0 0-12.46 5.12c-4.2 4.43-4.44 9.85-4.54 12.13s-.26 6 1.92 9.58c4.26 7 13.55 7.16 15 7.17a18.09 18.09 0 0 0 11-3.42 19.9 19.9 0 0 0 5.62-7 3.93 3.93 0 0 1-1.18.75zm-28.75-12.31a14.85 14.85 0 0 0-1.87 3.5 6.17 6.17 0 0 1 1.44-4.06 14.46 14.46 0 0 1 1.13-1 22.25 22.25 0 0 0 2.75-3 14.68 14.68 0 0 1 4.94-3.69c-2.31 2.4-4.21 4.13-5.56 5.31a16.37 16.37 0 0 0-2.83 2.94z" fill="none"/>
    <path d="M167.19 209.94a14.68 14.68 0 0 0-4.94 3.69 22.25 22.25 0 0 1-2.75 3 14.46 14.46 0 0 0-1.12 1 6.17 6.17 0 0 0-1.44 4.06 14.85 14.85 0 0 1 1.88-3.5 16.37 16.37 0 0 1 2.81-2.94c1.37-1.18 3.25-2.92 5.56-5.31z"/>
    <path d="M256.33 205.33a72.6 72.6 0 0 0-5.17-17.83c-2.65-5.93-7.92-17.34-20.17-25.17a48.4 48.4 0 0 0-16.83-6.67c-7.16 7.52-12.8 9-16.67 8.83-3.71-.11-6.32-1.67-12.5-1.83a39.38 39.38 0 0 0-9.86 1c-6 1.07-28.09 5.78-43.14 25.83-15.34 20.44-17.39 48.86-5.67 73.67a17.71 17.71 0 0 1-9.83-8 9.85 9.85 0 0 0-1.17 3.83c-.37 4.48 2.68 8 4.67 10.33 13.25 15.47 10.72 13.82 14.17 16.83A78.24 78.24 0 0 0 154.83 299c27.54 11 56.33-2.68 59-4 29.52-14.59 38.87-43.07 40.5-48.33l-2.67-1.33a14.81 14.81 0 0 0 3.33-3.67 15.44 15.44 0 0 0 2.33-8.83 96.48 96.48 0 0 0-.99-27.51zm-73.25 31.42a18.09 18.09 0 0 1-11 3.42c-1.45 0-10.74-.18-15-7.17-2.18-3.57-2-7.23-1.92-9.58s.33-7.7 4.54-12.13a17.84 17.84 0 0 1 12.46-5.12 17.16 17.16 0 0 1 4.57.77.92.92 0 0 1 .07.5 1 1 0 0 1-1 .81l-6.33 1.42 8.51.83v1.33a17.83 17.83 0 0 0-15.67 7l2.83-1.33a10.56 10.56 0 0 0-3.48 3.75 10.91 10.91 0 0 0-1 7.42l2.17-3.83c.09.87 1 8.69 6.54 11a8.29 8.29 0 0 0 2.63.63c-5.71-2.55-8.74-8.35-7.56-13.44s6.29-7.47 6.9-7.73l1 1.6a9.94 9.94 0 0 1 7 .75 10.22 10.22 0 0 1 5.19 9.12l1.64 1-1.34 2.79a4.17 4.17 0 0 0 2.7-.12 3.93 3.93 0 0 0 1.14-.71 19.9 19.9 0 0 1-5.59 7.02zm6.9-17.29c-.13.68-.62 1.41-1.14 1.44s-.91-.73-1.9-2.38c-.83-1.38-1.58-2.42-3.08-4.5-1-1.33-1.44-1.9-2.23-2.15a5.68 5.68 0 0 1-1.29-.5c-.16-.09-1.18-.65-1.08-1s.64-.34 1.08-.31c1.33.08 1.85 1.3 3.67 2.69.93.71.91.48 2 1.23.84.62 4.42 3.14 3.99 5.48z"/>
    <g fill="#fff">
        <path d="M170.33 146.17c0-.42-10.19 2-17.33-3.29a15.9 15.9 0 0 1-4-4.37 45.24 45.24 0 0 1 18.25-14.75 97.46 97.46 0 0 1-13.37 2.88c-3.34.48-6.48.75-9.37.88a24.51 24.51 0 0 0-14.37-14.37 54.57 54.57 0 0 1 3.19-22.24 43.85 43.85 0 0 1-9.15 13.78 34.76 34.76 0 0 1-5.17 4.25c-.59-.15-1.51-.36-2.67-.58-2.16-.41-2-.25-2.33-.42-1.12-.65-1.05-2-2.5-7.79a70.86 70.86 0 0 1-2-14.62 36.94 36.94 0 0 1-1.87 14.88c-1.05 3-2 5.76-4.68 7.74-2.22 1.67-3.74 1.4-8.07 2.63-1.37.39-2.33.71-3.12 1s-1.33.56-1.57.67a50.33 50.33 0 0 1-6.2 2.38c-3.12.79-6-.29-7.83-1-4.84-1.84-7.45-5.28-7.79-5-.56.53 6.82 9.35 6.46 14.79-.28 4.28-2.75 4.53-4.71 11.21-2.27 7.72.4 9.52-2 13-2.58 3.85-6.89 3.37-19.29 7-5 1.44-9 2.87-11.62 3.88 24.67-2.62 31.17-1.22 31.75.92.22.8 0 3 1.38 5.71a11.17 11.17 0 0 0 1.65 2.35 11.3 11.3 0 0 1 4.25 6.94c.56 3.81-1.38 6.81-2.87 9.13a20.48 20.48 0 0 1-5.62 5.75c1.53-.9 3.84-2.28 6.63-4.05 3.91-2.47 4.41-2.94 5.74-3.2 2.49-.49 4.86.63 9.5 2.88s7 3.39 8.13 5.5c1 1.81.71 3.08.75 8.25 0 4 .22 7.23.38 9.38 1.78-5.17 3.49-9.34 4.84-12.4.74-1.7 1.44-3.2 3-4.22 2.9-1.86 6.64-.71 8-.35 4.51 1.25 12.94 2.26 30 2.06l-4.54-21.08 7.21 1.25c-2.05-1.35-4.55-3.22-4.17-4.33.27-.76 1.74-.73 2.67-1 2.23-.66 4.69-4.09 5.42-16.67a45.67 45.67 0 0 1 5.63-2.37c7.11-2.52 13.4-2.66 13.38-2.99zm-33.15 5.21a22.84 22.84 0 0 1-4 10.13l-7.33-2.67 4.67 7.67-4.5 4.17 5.25 11.65-12.6-7.33a28.27 28.27 0 0 1-18.92-.06c-13-4.83-16.84-17.82-17.25-19.27l7.44-4.29-8.94-2.71a38.81 38.81 0 0 1 7.17-17.83l2.9.29-.07-2.63a27.42 27.42 0 0 1 14.24-6.87 27.06 27.06 0 0 1 11.93.87l-.33 8.5 5.83-7a39.5 39.5 0 0 1 11.5 12.5l-1.33 3.67 2.33-1.67a23 23 0 0 1 2.02 12.88z"/>
        <circle cx="109.38" cy="148.63" r="8.63"/>
    </g>
    <g fill="#fff">
        <path d="M151.33 59.5a141 141 0 0 1 34 32 24.55 24.55 0 0 0-5.33 19.17 29.16 29.16 0 0 1-5.42 3.42 35.87 35.87 0 0 1-7.75 2.58 58.92 58.92 0 0 1-6.75 1.25c1.46.16 3.59.42 6.17.83a33.88 33.88 0 0 1 6.92 1.5 19.23 19.23 0 0 1 6 3.75 32.78 32.78 0 0 1-11 8.83l.83 4.5 14.33-1 2.67 5a156.6 156.6 0 0 0 8.58-22.16 94 94 0 0 0 1.75 25.83l8.33-12.17-3-5.33 11.67-7-14.33.17a36.82 36.82 0 0 1 3.83-21.5l14.83 6L207 94a30.67 30.67 0 0 1 31.17-9.83l-1.67 13.91 7.83-11.58a23.63 23.63 0 0 1 13.5 11.67l-7 6.5 9.5-2.17c.74 2 4.92 14-1.5 26.5a33.21 33.21 0 0 1-16.17 15l-7.33-12-.5 14-10.83-1.33-4.33 11.83v6.83A44.09 44.09 0 0 0 245.5 152l-10.67 13.33a25.86 25.86 0 0 1 3.42 2.67c5.16 4.77 6.89 10.34 9.08 17 .83 2.51 6 18.14 6.5 18s-3.53-11.85-4-27.58a122.29 122.29 0 0 1 .33-13.42 49.18 49.18 0 0 1 16.17 20.17A94.07 94.07 0 0 1 259 165q-.86-2.73-1.5-5.33l6.17-5.83-3.67-4.59a17.51 17.51 0 0 0 7.17 3.67 16.39 16.39 0 0 0 4.33.42c3.12-.05 8.37 1.65 17.67 9.33a82 82 0 0 1-11.42-13.33c-1.6-2.42-3.15-5.15-2.33-7.92a6.08 6.08 0 0 1 1.25-2.25 5.37 5.37 0 0 1 1.12-2.23c1-1.19 3.35-2.68 14.13-1a99 99 0 0 1 11.25 2.42L287 129.83a64.71 64.71 0 0 0-.83-31 10.15 10.15 0 0 1-5.5 2.33 14.93 14.93 0 0 1 1.25-5.16c1.76-3.95 4.88-6 7.08-7.5 5.3-3.48 11.33-7.36 18.17-11.5-6.4 2.43-12.42 4.63-18.5 6.83a38.64 38.64 0 0 1-12.42 1.67 5.32 5.32 0 0 1-3.92-1.25c-.85-.89-1.33-2.37-.92-5.25 1-6.8 6.18-15.89 7.92-18.83-3.6 2.91-7.54 6-11.83 9.17-2.28 1.69-5.1 3.73-7.33 2.83-.88-.35-1.21-1-3.42-2.17-1.75-1-2.13-.89-2.75-1.42-1.7-1.45-1.58-4.26-1.5-5.67.25-4.42 2.92-17.42 7.25-34.5-4.41 10-8.34 18.63-11.67 26.17-1.27 2.87-3.51 8-8 9a8.84 8.84 0 0 1-4-.16c-8.51-2.45-10.64-25.93-10.74-27.13.88 5.17 1.52 14.12-2.75 23.25a35.12 35.12 0 0 1-2.75 4.83 47.74 47.74 0 0 0-19.92 9.17 13.51 13.51 0 0 1-9.75-5.92L199 84.33 192.83 80a37.91 37.91 0 0 1-6.83-1.25 39.18 39.18 0 0 1-8.58-3.58c-5.08-2.78-14.35-8.23-26.09-15.67z"/>
        <ellipse cx="230.08" cy="115.04" rx="9" ry="8.75"/>
        <path d="M282.13 142a2.6 2.6 0 0 0-1.25 1 2.53 2.53 0 0 0-.37 1l1.63.88V142z"/>
    </g>
    <g fill="#fff">
        <path d="M169.49 140.79c0-.67-.09-1.3-.15-1.87.03.57.08 1.2.15 1.87zm-89.65 117.4c-2.81.84-5.43 1.73-7.84 2.64 2.44-.73 5.07-1.6 7.84-2.64zm127.32-125.41c1-2.41 1.89-4.74 2.68-6.95-.9 2.07-1.84 4.39-2.68 6.95zM95.71 231.66a26.88 26.88 0 0 0-4.54.5 32.13 32.13 0 0 0 4.54-.5zm128.12-58.08a20.16 20.16 0 0 0-3 2.92 30.77 30.77 0 0 0 3-2.92z"/>
        <path d="M235.5 237.5a46.73 46.73 0 0 0-1.5-31 98.94 98.94 0 0 1 31.77-24.1 142.14 142.14 0 0 1-38.85 10.6 9.45 9.45 0 0 0-4.42-5.33l-4.67-.83a10.64 10.64 0 0 1-.25-2.33 12.72 12.72 0 0 1 3.22-8 27.61 27.61 0 0 1-7.22 4.41 26.9 26.9 0 0 1-2.58.92 11.09 11.09 0 0 1-1.17-6.47 21.32 21.32 0 0 0-7.5-3.86 95.54 95.54 0 0 1 4.82-38.72 146.25 146.25 0 0 1-19.4 33.56c-1-.07-2.15-.1-3.34-.09s-2.18.07-3.16.16a43.4 43.4 0 0 1-11.77-25.62 38.68 38.68 0 0 1-3.82 19.63 36.35 36.35 0 0 1-3.83 6.08l-23.67 8.86-3.33 7-22 5.17 7 11.33a32.31 32.31 0 0 0-5.5 21.5A30.06 30.06 0 0 1 95.7 231.7a25.9 25.9 0 0 1 18.46 7 123.94 123.94 0 0 1-34.32 19.53c3.34-1 6.95-1.92 10.82-2.69a119.47 119.47 0 0 1 28.83-2.17 16.1 16.1 0 0 1 .67 7.67c-.7 4.17-3 6.95-7.5 12.17a87.71 87.71 0 0 1-7.17 7.41l28.67-14.41-4.5 5.4H133a44.09 44.09 0 0 0 19.5 13.26 42.85 42.85 0 0 0 13.43 2.13l1.32-1.83a6.69 6.69 0 0 1 1.56 1.48c1.54 2 1.42 4.46 1.37 6.1-.08 2.56-.08 5.92.16 10.5a80.93 80.93 0 0 0 .92-10.33 9.59 9.59 0 0 1 1.5-5.75 7.6 7.6 0 0 1 1.42-1.5l2 2.17 6.5-.33a141 141 0 0 1 16.67 33.83 254.51 254.51 0 0 0-.58-29.33q-.35-4.47-.83-8.75a7 7 0 0 1 1.5.42 8.28 8.28 0 0 1 3.57 3c1.54 2.1 5.47 7.07 10.68 13.85l-7.83-19.92a51.6 51.6 0 0 0 10.83-8.25 41.8 41.8 0 0 1 5.17.5 46.13 46.13 0 0 1 22.58 10.83A60.47 60.47 0 0 1 228 258.75a11.05 11.05 0 0 0 4.17-6.08 81.58 81.58 0 0 1 32.83 3.41 69.16 69.16 0 0 1-29.5-18.58zm-23 .17l-3 1.17 2.17 1.33a46.08 46.08 0 0 1-22.83 23.17c-1.78-3.07-3.56-6.43-5.27-10.08q-1.5-3.21-2.73-6.25l-1 18.5a38.45 38.45 0 0 1-39.5-23.17L154.5 234l-18.31.69a45.88 45.88 0 0 1 4.81-26.44l16.83 7.92-12.5-14.5A40.64 40.64 0 0 1 182.67 189c.14 2.39.19 5 .08 7.81a79.48 79.48 0 0 1-.92 9.35l8.5-14.17a35.73 35.73 0 0 1 18.17 15.5l-8.83 6.83 11.58-1.83a74.58 74.58 0 0 1 1.25 25.17zm53.27-55.27c1.47-.63 2.88-1.27 4.23-1.9-1.34.57-2.76 1.2-4.23 1.9z"/>
        <circle cx="174.67" cy="226.42" r="4.58"/>
    </g>
    <g fill="#7d351b">
        <path d="M83.75 60.23l18 54.81-8.31-54.81h-9.69zm-14.36 17.6v5.67l14.36 20.94-14.36-26.61zm70.74-8.23L135 92.63l10.88-23.03h-5.75zM69.39 214.38l55.24 5.87H69.39v-5.87zM81 289.77l72.13-48.89-66.63 48.89H81zm34.5-9.19l20.75-17.33-14.62 17.33zm165.11-42.2L244 234.75l36.61 9.63v-6zM289.9 221h-62.52l62.52-15.87V221zm-9.29-49.12L259.5 148.5l21.11 13.88v9.5zM181.75 69.6L200 85.75 187.38 69.6h-5.63z"/>
    </g>
    <g>
        <path d="M154.38 75.38l-10.5 24L161.13 77l-6.75-1.62zM289.9 232.63l-32.77-3.88h32.77v3.88zm-35.02-27.38l21.5-5.75v-6.37l-23.5 11.12 2 1zm35.02-37.56l-17.4-11.19 8.11.75 9.29 5.38v5.06z"/>
    </g>
</svg>
