<svg xmlns="http://www.w3.org/2000/svg" viewBox="0 0 350 350">
    <path fill="#fff" d="M60 60h230v230H60z"/>
    <path d="M70 70.49h210v210H70z"/>
    <path fill="#409392" d="M80 80.08h190v190H80z"/>
    <g data-name="Stripes + PhoenixBorder">
        <path fill="#5e9f97" d="M96.5 270.08l37.42-60.41-13.59-9L80 258.17v11.91h16.5zm24 0l25.33-53.25 8.17 15.5-17.17 37.75M80 224l37.5-33.33-9.67-9.67L80 204.83V224zm26.25-143.92L162.43 145v-2.84l-38.74-62zm31.33 0l31.05 51.66 4.94-.69-19.82-51zm81.75 0q-6.76 11-13.58 22-9 14.6-18.08 29.08 11-12 22.42-25.58 10.87-13 20.42-25.5zm26.05 0q-12.62 14.07-26.12 28.42Q207 121.46 195 133.67l-1.14 1.21c9.2-6.57 18.81-13.94 28.64-22.21a454.43 454.43 0 0 0 34.83-32.58zM270 204.63l-15.96-15.2 7.55-5.57 8.41 9.39v11.38zm-2.87 65.45l-33.88-70.7 8-6.13L270 237.13v32.95h-2.87zm-24.75 0l-24.47-64.11-10.03 4.28 19.5 59.83h15z"/>
        <path d="M80 193.25c6 3.36 14.52 8.38 24.33 15.08 13.92 9.51 21.31 14.56 28 22.33 5.37 6.23 14 18.57 17.5 39.42l54.67-.08a103.37 103.37 0 0 1 11.67-27c9.1-14.78 19.79-23.63 29.5-31.67A188.2 188.2 0 0 1 270 194.24V80.08h-12.67c-11.55 13.35-21.53 23.52-28.83 30.58-5.68 5.49-11.58 10.89-20.5 15.83a84.69 84.69 0 0 1-11.36 5.24l-32.34.64a36.1 36.1 0 0 1-11-1.54c-10-3.07-16-9.87-24.33-20.17a902.956 902.956 0 0 1-23.83-30.58H80z" fill="#409392"/>
    </g>
    <circle cx="179.83" cy="183" r="42.5" fill="#fcfcfc" data-name="Background Glow"/>
    <path d="M141.33 116.33l74.33-71c-6.51 15.75-31.79 78.56-17.82 87.39C211 141 257 100.38 259 73.33c.11-1.46.39-6.75.33-13.33a203.59 203.59 0 0 0-2.67-31.33l50.11 62.11a41.57 41.57 0 0 1-2.94 6.22 42.13 42.13 0 0 1-8.83 10.67l7.33-5.33c-.09 39.5-12 61.72-23.33 74.83-19.61 22.7-45.2 27.07-65.5 59.33A117.22 117.22 0 0 0 200 267q-1.88-3.33-3.75-6.87-2.22-4.2-4.19-8.25c-.74 3.62-1.82 9.2-2.87 16.06-.39 2.54-1.67 11.11-3.62 33.56-.42 4.83-1 11.56-1.57 19.67L180 311c-.79 2.68-1.54 5.63-2.17 8.83a97.36 97.36 0 0 0-1.5 10.83 69.46 69.46 0 0 1-5-21.5l-1.4 3.15q-.76 1.73-1.5 3.44a467.69 467.69 0 0 0-3.69-39c-1.1-8-2.36-15.71-3.75-23.08a56.54 56.54 0 0 1-6.62 14.27A90.38 90.38 0 0 0 142.25 235c-16.58-26.78-40.05-31-59-47.75-14.39-12.7-30.18-36.2-33-83.75l8.42 4.83L44.33 90l55.83-61.17A171 171 0 0 0 97 51.33c-.58 7.89-1.13 15.39-.17 22.33 1.91 13.75 11.33 24.06 30.17 44.67 14.51 15.87 21.06 19.88 27.67 19a17.78 17.78 0 0 0 9.33-4.67c6.25-5.73 8.79-16.08 5.33-19.33-1.35-1.27-3.2-1.07-12 .33-4.94.8-10.33 1.68-16 2.67z"/>
    <path d="M87.75 55.25a138.95 138.95 0 0 0-31 38.25A170.1 170.1 0 0 0 93 129a170.42 170.42 0 0 0 54.25 26 159.81 159.81 0 0 1-46-10.75 159.85 159.85 0 0 1-43-25.5 67.09 67.09 0 0 0 21.52 48.05 198.94 198.94 0 0 0 30.73 3.7 199.11 199.11 0 0 0 39.25-2.25A108.75 108.75 0 0 1 93 182.75a134.9 134.9 0 0 0 27.75 20A103.86 103.86 0 0 0 152 183l-20.25 28.75A69.32 69.32 0 0 1 145 227.42a70.13 70.13 0 0 1 10 29.08c.6-4.94 1-10.2 1.25-15.75.82-22.43-3.17-37.87-2.5-38 .85-.16 6.78 19.55 10.38 44.75 1.57 11 2.52 21.89 3.75 36 .87 10 1.48 18.36 1.88 24.25l2.88-3a77.07 77.07 0 0 0 2.63 17.88c.53-3.05 1.21-6.29 2.06-9.69.68-2.71 1.42-5.27 2.19-7.69q.85 2.68 1.88 5.5.68 1.86 1.38 3.63c0-7.91.31-17.59 1.13-28.62.46-6.22 1.6-19.66 4.38-36.75a436 436 0 0 1 9.31-43.25 120.46 120.46 0 0 0 1.44 54 74.23 74.23 0 0 1 26-47.5A86.9 86.9 0 0 1 201.25 183l27.5 21c4.51-2.11 9.29-4.59 14.25-7.5a171.64 171.64 0 0 0 20-13.75 128.54 128.54 0 0 1-60-13 179 179 0 0 0 35.25 2.5A179 179 0 0 0 270 168.5a52.35 52.35 0 0 0 12.66-12.5c9.6-13.46 10-27.79 9.84-33.5a219.64 219.64 0 0 1-37.25 20.75 219.79 219.79 0 0 1-48.5 14.75 173.55 173.55 0 0 0 58.75-31.75 171.93 171.93 0 0 0 29.75-31.75 103.28 103.28 0 0 0-21-32.25 130.37 130.37 0 0 1-20.47 40.4A132 132 0 0 1 203.5 143a31.35 31.35 0 0 1-13-13.5c-2-4.13-3-9.09-1.75-21.25a151.91 151.91 0 0 1 7.12-32.85L153.75 110c8.49-4.09 17.27-3.81 21 .5 5.3 6.13-1.38 18.29-5.75 23.75a33.35 33.35 0 0 1-15.25 10.5c-10-4.36-49-22.69-61.91-63.45a89.07 89.07 0 0 1-4.09-26.05z" fill="#fff"/>
    <path d="M173.33 139.67c-2.14 2.07-4.52 4.2-7.17 6.33q-2.18 1.76-4.3 3.28a47.09 47.09 0 0 1-18-2.7 22.41 22.41 0 0 0 16.25 8.25 18.35 18.35 0 0 1-3.33 4.83 20.3 20.3 0 0 1-12.92 5.83 15.48 15.48 0 0 0 10.83 1.17 15 15 0 0 0 6.58-3.83 38.5 38.5 0 0 1-.75 9.75c-.79 3.8-1.72 5.36-2.42 9a35.55 35.55 0 0 0-.42 10.33l5.42-8.08a49.39 49.39 0 0 0 6.89 36.22l3.28-33.56 8.5 9.5a48.61 48.61 0 0 0-5-18.67c-2.15-4.21-4.58-7.27-6.14-13.08a36.15 36.15 0 0 1-1.2-10.42 31.73 31.73 0 0 1 3.83-14.17zm-90.16 24.66a75.62 75.62 0 0 1-17.67-26.66A60.66 60.66 0 0 0 84.67 159a59.7 59.7 0 0 0 16.56 7.84c-2.57-.2-5.26-.47-8.06-.84-3.54-.47-6.88-1-10-1.67zm20.5 22a35.16 35.16 0 0 0 35.83 2c-9.57 1.5-15.66.72-19.5-.33a44.28 44.28 0 0 0-12.5-1.84c-1.62 0-2.96.09-3.83.17zm42.49 30.46a38.53 38.53 0 0 0 5-14.29c.6 4.18 1.11 8.57 1.5 13.17.56 6.53.8 12.72.83 18.5a75.86 75.86 0 0 0-4.83-12.67 78.79 78.79 0 0 0-2.5-4.71zM198 195.83a113.28 113.28 0 0 1 .83 13.5c0 4.42-.26 7 0 11.83a85.05 85.05 0 0 0 1 9.17 23.85 23.85 0 0 1 2.5-10 23.07 23.07 0 0 1 2.22-3.55q-.63-2.67-1.38-5.45a150.66 150.66 0 0 0-5.17-15.5zm14.33-9.67a60.73 60.73 0 0 0 18 10.68 43.6 43.6 0 0 0 18.5-8.33 110.26 110.26 0 0 1-12.5 1.83 54.06 54.06 0 0 1-9.17.33 36.35 36.35 0 0 1-14.83-4.51zm36.84-18.66a81.81 81.81 0 0 0 39.17-33.83 74.86 74.86 0 0 1-19.55 30 68.15 68.15 0 0 1-19.61 3.85zM232.25 135a22.48 22.48 0 0 0 2-5.33l4.12 2.81a9.48 9.48 0 0 1-2 1.4 9.67 9.67 0 0 1-4.12 1.12zm-69.17 82.2q1.94 2.39 3.89 5 1.17 1.56 2.28 3.1-.26 2.61-.47 5.3-.31 3.92-.51 7.7c-.33-2.22-.75-4.54-1.25-6.92a118.57 118.57 0 0 0-3.94-14.18zm3.75 22.55l.44.56.73.92v1.47c0 .53-.08 1-.14 1.45a5.89 5.89 0 0 1-1-4.4z" fill="#cfe4e4"/>
</svg>
