<svg id="R6-Finka" xmlns="http://www.w3.org/2000/svg" viewBox="0 0 242.49 276"><title>R6-Finka-OperatorIcon</title><g id="Background"><polygon points="20 240.15 215 240.15 215 78.63 167.18 45.15 20 45.15 20 240.15" style="fill:#fcae1d"/><polygon points="0 96 29.24 85.17 10 142.65 81.59 95.39 29.99 188.75 72.52 153.51 29.49 236.75 70.49 190.5 138.74 240.15 215 157.46 171.74 244 180.24 244 209.49 223.5 197.99 260.15 0 260.15 0 96" style="fill:#c98e2b"/><polygon points="215 240.15 20 240.15 20 45.15 167.18 45.15 155.04 36.65 12.48 36.65 12.48 248.65 224.48 248.65 224.48 85.27 215 78.63 215 240.15" style="fill:#231f20"/><polygon points="224.48 85.27 224.48 248.65 12.48 248.65 12.48 36.65 155.04 36.65 138.62 25.15 0 25.15 0 260.15 235 260.15 235 92.64 224.48 85.27" style="fill:#fff"/></g><g id="Fist"><path d="M58.08,204.33,33.17,241.67H136.43l9-12.5,62.75-92.92V102.83l8.21-10.9L208.47,75l-14.41-1.87,5.6-7.25V62.17L183.84,48.63,174,46.5,167.94,30l-20.81-3-8.31-12-14.28.06-3-6L99.58,0,91.25,23.42,57.08,60.33l6.08,56.92,19.75,42.33Z" transform="translate(-0.51)" style="fill:#231f20"/><polygon points="194.94 119.71 203.32 108.59 203.32 108.59 194.94 119.71" style="fill:#fff"/><polygon points="203.32 108.59 203.32 133.42 144.91 229.17 207.66 136.25 207.66 102.83 203.32 108.59" style="fill:#fff"/><polygon points="207.66 102.83 215.86 91.94 207.66 102.83 207.66 102.83" style="fill:#fff"/><path d="M203.83,108.59l12.54-16.65L208.47,75l-14.41-1.87,5.6-7.25V62.17L183.84,48.63,174,46.5,167.94,30l-20.81-3-8.31-12-14.28.06-3-6L101.08.59,99.58,0,91.25,23.42,57.08,60.33l6.08,56.92,19.75,42.33L58.08,204.33l29.33-41L101.33,170l-15.56-9.9-17.9-41.85-6.25-56.5,33-36.51,7-19.75,10,3.45,6.62,3.3,1.88,3.87-2.71.63L93,57.25l8.42,15.08L112.92,74a67.72,67.72,0,0,1,9.42,18.5c4.84,14.93,4,30.75,3.5,39.33-.24,4.44-.63,7.77-.25,7.83.72.12,3.88-11.49,4.89-23.42a100,100,0,0,0-1-24.66l11,3.83,7.58,15.67L167,113l5.21,10.62,4.63-3.12L172,110.63,194.5,76.5l10.92,2.83L210,91.94l-14.55,27.78,8.38-11.13ZM105.5,69.33l-6.83-12.5,21.42-35.75,15.83-1.67L144.08,30,117,69.33ZM129,86,120,73.08l29.17-40,15.42.46,5.33,14.25L141,89Zm39.38,20.5H151.75l-7.21-13.17,28.88-42.25,12.25,2.33,9.25,10.42Z" transform="translate(-0.51)" style="fill:#fff"/></g><g id="FloatingPieces"><polygon points="213.99 59.22 203.43 15.72 179.49 27.84 185.55 60.66 213.99 59.22" style="fill:#fff"/><path d="M205.93,23.91,181.38,35.32l1.46,7.92,25.38-9.87Z" transform="translate(-0.51)" style="fill:#231f20"/><polygon points="182.33 43.24 207.71 33.37 213.99 59.22 185.55 60.66 182.33 43.24" style="fill:#fcae1d"/><polygon points="224.48 73.66 235 74.58 235 54.83 224.48 57.7 224.48 73.66" style="fill:#fff"/><polygon points="215 60.29 215 72.83 224.48 73.66 224.48 57.7 215 60.29" style="fill:#231f20"/><polygon points="215 60.29 199.16 64.61 199.16 65.91 197.98 67.43 204.37 71.9 215 72.83 215 60.29" style="fill:#fcae1d"/><line x1="215" y1="72.83" x2="204.37" y2="71.9" style="fill:#fcae1d"/><polygon points="170.57 11.08 181.45 17.04 172.99 32.96 170.57 11.08" style="fill:#050708"/><polyline points="232.57 7.58 218.16 36.65 239.32 19.75 232.57 7.58" style="fill:#050708"/><path d="M234.94,118.5l8.06,5.44-83.31,102.5Z" transform="translate(-0.51)" style="fill:#050708"/></g><g id="LightingBolt"><g id="LightingBolt-2" data-name="LightingBolt"><polygon points="195.94 108.59 112.99 254.38 69.41 260.15 105.82 198.75 51.49 270.17 19.57 270.17 122.49 167.92 109.24 217.25 195.94 108.59" style="fill:#fff"/><polygon points="51.49 270.17 59.68 276 76.23 248.65 105.82 198.75 51.49 270.17" style="fill:#231f20"/></g><polygon points="0.49 228.13 33.3 184.69 0.49 218.63 0.49 228.13" style="fill:#fff"/><polygon points="68.49 167.04 7.24 258.13 0.49 248.65 68.49 167.04" style="fill:#fff"/></g></svg>