<svg viewBox="0 0 350 350">
    <defs>
        <linearGradient id="logo-gradient" x1="50%" y1="0%" x2="50%" y2="100%">
            <stop offset="0%" stop-color="#ee7752">
                <animate attributeName="stop-color" values="#ee7752; #e73c7e; #23a6d5; #23d5ab; #23a6d5; #e73c7e; #ee7752;" dur="15s" repeatCount="indefinite"></animate>
            </stop>
            <stop offset="50%" stop-color="#e73c7e">
                <animate attributeName="stop-color" values="#e73c7e; #23a6d5; #23d5ab; #23a6d5; #e73c7e; #ee7752; #e73c7e;" dur="15s" repeatCount="indefinite"></animate>
            </stop>
        </linearGradient>
    </defs>
    <g fill="url('#logo-gradient')">
    <path d="M137.78 79H271v113.1l19 7.21.04.02V59.96H142.55l-.04.04-13.5 13.5 8.77 5.5zM79 271V155.49l-19-19-.04-.04v153.59H180.45l.03-.04 18.09-19H79zM78.25 112.08l28.85 22.3-8.76-40.94-20.09 18.64zM75.12 80.25l24.6-7.39L83.75 60 73.5 51.74l.47 8.26 1.15 20.25zM84.5 128.25l-12.5 3.5 12.5 8.75v-12.25zM99.89 60l14.86 20.25L132.16 60l4.09-4.75-38.75 1.5L99.89 60zM64.82 125.69l-4.23-20.31-.59.33-26.07 14.97L60 124.91l4.82.78zM220 259.75L200.85 290l-5.85 9.25 30.25 3.25-1.53-12.5-3.72-30.25zM269.5 198l15.75 50.5 4.75-13.46L300.25 206 290 203.33 269.5 198zM259.5 184.5l-17.75 17.75L259.5 211v-26.5zM257.75 226.5l11.75 7.5-5.25-14.75-6.5 7.25zM235.25 307.75l8.5-1.75-10.5-14.25 2 16zM238.5 271l-9.5 1.5 5.75 5.5 3.75-7zM308 193.5h-10.5c.75.75 7.5 7.25 7.5 7.25zM302.75 232l5.25 7.5 6.75-9.25-12 1.75zM89.75 48.5l-3.14 3.24 13.11 2.51-9.97-5.75z M208.25 245.75l-27.5 11.75 23 8.75 4.5-20.5zM250.63 281.13s-2.91 5.43-4.94 8.88a18.76 18.76 0 0 1-1.78 2.7c1.8.2 18.59 7 18.59 7l-6.22-9.71zM243.75 292.75c0 .06.08 0 .16 0-.12-.06-.17-.04-.16 0z"/>
    </g>
</svg>