<svg xmlns="http://www.w3.org/2000/svg" xmlns:xlink="http://www.w3.org/1999/xlink" viewBox="0 0 350 350"><defs><linearGradient id="a" x1="261.5" y1="77.52" x2="261.5" y2="271.52" gradientUnits="userSpaceOnUse"><stop offset="0" stop-color="#fff"/><stop offset="1" stop-color="#c5cfd1"/></linearGradient><linearGradient id="b" x1="240" y1="75.88" x2="240" y2="268.19" xlink:href="#a"/><linearGradient id="c" x1="218.5" y1="75.88" x2="218.5" y2="268.19" xlink:href="#a"/><linearGradient id="d" x1="197" y1="90" x2="197" y2="284.13" xlink:href="#a"/><linearGradient id="e" x1="175.5" y1="93.88" x2="175.5" y2="287.01" xlink:href="#a"/><linearGradient id="f" x1="154" y1="88.5" x2="154" y2="281.64" xlink:href="#a"/><linearGradient id="g" x1="132.5" y1="81.31" x2="132.5" y2="274.31" xlink:href="#a"/><linearGradient id="h" x1="111" y1="78.56" x2="111" y2="272.56" xlink:href="#a"/><linearGradient id="i" x1="89.5" y1="83.06" x2="89.5" y2="276.25" xlink:href="#a"/></defs><path fill="#fff" d="M273 60.15h18v230h-18z"/><path d="M273 68.52h9v212h-9z"/><path d="M291 133.25l-18 5.44v4.06l18-6.87v-2.63z"/><path fill="#fff" d="M251.5 60.15h20v230h-20z"/><path d="M251.5 68.52h20v9h-20zm0 203h20v9h-20z"/><path fill="url(#a)" d="M251.5 77.52h20v194h-20z"/><path d="M251.5 144.88l20-5.5v4.56l-6 2.69a34.38 34.38 0 0 1-14 23.56z"/><path fill="#fff" d="M230 56.76h20v230h-20z"/><path d="M230 66.88h20v9h-20zm0 201.31h20v9h-20z"/><path fill="url(#b)" d="M230 75.88h20v192.31h-20z"/><path d="M230 146.5l20-5.25v27a34.77 34.77 0 0 1-6.75 4.06 35.24 35.24 0 0 1-13.25 3.13z"/><path fill="#fff" d="M208.5 56.76h20v230h-20z"/><path d="M208.5 66.88h20v9h-20zm0 201.31h20v9h-20z"/><path fill="url(#c)" d="M208.5 75.88h20v192.31h-20z"/><path d="M208.5 152.19l20-5.69v29a35.07 35.07 0 0 1-20-3.74z"/><path fill="#fff" d="M187 72.17h20v230h-20z"/><path d="M187 81h20v9h-20zm0 203.13h20v9h-20z"/><path fill="url(#d)" d="M187 90h20v194.13h-20z"/><path d="M187 159.38l4.63 12.39L207 168v20.46A40.3 40.3 0 0 1 193 175l-6 2.5z"/><path fill="#fff" d="M165.42 75h20v230h-20z"/><path d="M165.42 84.88h20v9h-20zm.16 202.13h20v9h-20z"/><path fill="url(#e)" d="M165.42 93.88h20.17v193.14h-20.17z"/><path fill="#fff" d="M143.99 70.44h20v230h-20z"/><path d="M144.01 281.64h20v9h-20z"/><path fill="url(#f)" d="M143.99 88.5h20.02v193.14h-20.02z"/><path d="M143.99 79.5h20v9h-20zm.01 85.38l13.64 4.38 6.36-12.63v17.5l-6.12-2.13a23.28 23.28 0 0 1-3.75 7.47 23.73 23.73 0 0 1-10.13 7.7z"/><path fill="#fff" d="M122.56 63.41h20v230h-20z"/><path d="M122.56 72.31h20v9h-20zm0 202h20v9h-20z"/><path fill="url(#g)" d="M122.44 81.31h20.13v193h-20.13z"/><path d="M122.44 152.13l20.13 5.13v21.63a107.24 107.24 0 0 1-11.31 1.25c-3.13.18-6.07.21-8.81.14z"/><path fill="#fff" d="M101 59.94h20v230h-20z"/><path d="M101 69.56h20v9h-20zm0 203h20v9h-20z"/><path fill="url(#h)" d="M101 78.56h20v194h-20z"/><path d="M101 144.88l20 5.63v27.91a39.44 39.44 0 0 1-20-7.16z"/><path fill="#fff" d="M79.5 65.04h20v230h-20z"/><path d="M79.5 74.06h20v9h-20zm0 202.19h20v9h-20z"/><path fill="url(#i)" d="M79.5 83.06h20v193.19h-20z"/><path d="M79.5 144.75l20 5.38v25.44A31.25 31.25 0 0 1 87.25 161a29.51 29.51 0 0 1-2-8.87l-5.75-3z"/><path fill="#fff" d="M60 59.96h18v230H60z"/><path d="M69 68.58h9v212h-9z"/><path d="M60 134.13l18 6.63v6.63l-18-11.5z"/></svg>