<svg xmlns="http://www.w3.org/2000/svg" xmlns:xlink="http://www.w3.org/1999/xlink" viewBox="0 0 350 350"><defs><style>.cls-1{fill:#fff;}.cls-2{fill:url(#Unbenannter_Verlauf_17);}</style><linearGradient id="Unbenannter_Verlauf_17" x1="110.48" y1="283.34" x2="237.19" y2="63.87" gradientUnits="userSpaceOnUse"><stop offset="0.16" stop-color="#fad265"/><stop offset="1" stop-color="#f7921e"/></linearGradient></defs><title>bandit</title><g id="bandit"><g id="Background"><g id="BG_Colors" data-name="BG Colors"><polygon class="cls-1" points="290.13 290 200.33 290 117.67 216.67 59.87 254.33 59.87 60 290.13 60 290.13 290"/><polygon points="280.82 280.79 188 280.79 178 270 158.33 285.67 144.33 251.33 105.92 292.09 100.33 223.33 69.18 251.67 69.18 69.39 280.82 69.39 280.82 280.79"/></g><g id="bg_lightning" data-name="bg lightning"><g id="bg"><path d="M127.42,106.25c-.52.56-3.86,6.44-4.25,6.33-.56-.15.51-5.64.75-6.83.46-2.34,1.13-5.79,1.58-5.75s1,.39,1.75,2L150,124.5l4.75-14a26.89,26.89,0,0,1-3.56-3.12c-.65-.93-2.69-7.13-2.69-7.13l-4.25,5L116.75,75l-9.53,178.53,1.4,22,6.32-23.46L154,138.94l-24.75-32.58C128.53,105.55,128,105.67,127.42,106.25ZM123,126c-.34-.14-.45-1.26.06-1.52a.79.79,0,0,1,1,.37C124.25,125.33,123.35,126.1,123,126Zm-.31-11.27a.89.89,0,0,1,1.19.25,1,1,0,0,1-.44,1.44c-.31.05-.62-.33-.75-.57S122.38,115,122.69,114.69ZM118,176.31c-.42,2.34-.73,5.78-1,5.72-.63-.11.83-15.05,1.49-15C118.84,167,118.8,171.74,118,176.31Zm.53-11.12s0-.24.06-.66.31-1.72.57-1.72.2.35.22.41A2,2,0,0,1,118.53,165.19Zm1.81-3.41a.58.58,0,0,1-.65-.31c-.13-.43.78-1.12,1-1S120.85,161.65,120.34,161.78Zm3.7-26.49c-.33,3-.7,8.94-1.16,8.83-.86-.2-.56-14.07.32-14.05C123.66,130.08,124.36,132.49,124,135.29Z"/><path d="M149.25,109.88c1.75-4.25,21.13-58.27,21-61.13a.79.79,0,0,1,.19-.62c.49-.42,1.82.42,1.94.5,3.94,2.66-21.85,58.36-22,62,0,.16,0,1.05-.44,1.25a1.17,1.17,0,0,1-1.31-.88C148.55,110.46,149.2,110,149.25,109.88Z"/><polygon points="148.38 248.38 159.63 233.75 175.25 257.63 237.63 189.25 207.63 186 140.25 229.88 148.38 248.38"/><path d="M243.25,179.83c-.58-.6,2.1-3.77,3.75-4.58.18-.09.33-.14.42-.07.38.26-.19,2.31-1.58,3.56C245,179.48,243.6,180.2,243.25,179.83Z"/><path d="M251.35,171.48c-.55-.81,1.37-3.62,3-3.6a.45.45,0,0,1,.35.1c.56.57-.85,3.71-2.56,3.77C252,171.75,251.55,171.77,251.35,171.48Z"/><path d="M266.34,154.91c-.89-1.31,1.67-5.44,3.47-5.16a1.32,1.32,0,0,1,.85.56c.92,1.41-.86,4.94-3,5.07C267.56,155.38,266.71,155.43,266.34,154.91Z"/><path class="cls-1" d="M127.42,106.25c-.52.56-3.86,6.44-4.25,6.33-.56-.15.51-5.64.75-6.83.46-2.34,1.13-5.79,1.58-5.75s1,.39,1.75,2L150,124.5l4.75-14a26.89,26.89,0,0,1-3.56-3.12c-.65-.93-2.69-7.13-2.69-7.13l-4.25,5L116.75,75l-9.53,178.53,1.4,22,6.32-23.46L154,138.94l-24.75-32.58C128.53,105.55,128,105.67,127.42,106.25ZM123,126c-.34-.14-.45-1.26.06-1.52a.79.79,0,0,1,1,.37C124.25,125.33,123.35,126.1,123,126Zm-.31-11.27a.89.89,0,0,1,1.19.25,1,1,0,0,1-.44,1.44c-.31.05-.62-.33-.75-.57S122.38,115,122.69,114.69ZM118,176.31c-.42,2.34-.73,5.78-1,5.72-.63-.11.83-15.05,1.49-15C118.84,167,118.8,171.74,118,176.31Zm.53-11.12s0-.24.06-.66.31-1.72.57-1.72.2.35.22.41A2,2,0,0,1,118.53,165.19Zm1.81-3.41a.58.58,0,0,1-.65-.31c-.13-.43.78-1.12,1-1S120.85,161.65,120.34,161.78Zm3.7-26.49c-.33,3-.7,8.94-1.16,8.83-.86-.2-.56-14.07.32-14.05C123.66,130.08,124.36,132.49,124,135.29Z"/><path class="cls-1" d="M149.25,109.88c1.75-4.25,21.13-58.27,21-61.13a.79.79,0,0,1,.19-.62c.49-.42,1.82.42,1.94.5,3.94,2.66-21.85,58.36-22,62,0,.16,0,1.05-.44,1.25a1.17,1.17,0,0,1-1.31-.88C148.55,110.46,149.2,110,149.25,109.88Z"/><polygon class="cls-1" points="148.38 248.38 159.63 233.75 175.25 257.63 237.63 189.25 207.63 186 140.25 229.88 148.38 248.38"/><path class="cls-1" d="M243.25,179.83c-.58-.6,2.1-3.77,3.75-4.58.18-.09.33-.14.42-.07.38.26-.19,2.31-1.58,3.56C245,179.48,243.6,180.2,243.25,179.83Z"/><path class="cls-1" d="M251.35,171.48c-.55-.81,1.37-3.62,3-3.6a.45.45,0,0,1,.35.1c.56.57-.85,3.71-2.56,3.77C252,171.75,251.55,171.77,251.35,171.48Z"/><path class="cls-1" d="M266.34,154.91c-.89-1.31,1.67-5.44,3.47-5.16a1.32,1.32,0,0,1,.85.56c.92,1.41-.86,4.94-3,5.07C267.56,155.38,266.71,155.43,266.34,154.91Z"/></g><g id="Ebene_8" data-name="Ebene 8"><polygon class="cls-2" points="184 33.17 149.33 133.83 127.83 108.5 111.33 283.83 160.67 226.83 175 256.5 298.67 102.17 184 33.17"/></g></g><g id="front_border" data-name="front border"><polygon class="cls-1" points="59.87 254.33 59.87 271.83 95.75 235.5 101.67 306.67 145.88 259 155.5 296 178 275 193.67 299.5 224.5 260.67 216 254.67 195.17 281 179.83 258.67 161.17 277.17 149.5 239.83 110.17 283.17 103.17 212.83 59.87 254.33"/></g></g><g id="Finished_Icon" data-name="Finished Icon"><polygon points="280.82 61.5 182.25 233 164 185.25 109.44 275.89 162 117.25 180.5 138.75 224.5 32.5 280.82 61.5"/><polygon class="cls-1" points="112.88 268.87 165.75 131.25 183.88 157.63 234.33 37.56 272.46 57.2 185.75 216 166 169.75 112.88 268.87"/></g></g></svg>