<?xml version="1.0" encoding="UTF-8" standalone="no"?><!DOCTYPE svg PUBLIC "-//W3C//DTD SVG 1.1//EN" "http://www.w3.org/Graphics/SVG/1.1/DTD/svg11.dtd"><svg width="100%" height="100%" viewBox="0 0 350 350" version="1.1" xmlns="http://www.w3.org/2000/svg" xmlns:xlink="http://www.w3.org/1999/xlink" xml:space="preserve" xmlns:serif="http://www.serif.com/" style="fill-rule:evenodd;clip-rule:evenodd;stroke-linejoin:round;stroke-miterlimit:1.41421;"><g id="Blitz"><g id="BackPlate"><rect x="60" y="60" width="230" height="230" style="fill:#fff;"/><rect x="69" y="70" width="211" height="210"/><rect x="80" y="80" width="190" height="190" style="fill:#da7a08;"/><rect x="80" y="80" width="190" height="190" style="fill:url(#_Radial1);"/></g><g id="Sparks" opacity="0.75"><path d="M235,191l21,13l-5,2l-17,-9l1,-6Z" style="fill:#fff;"/><path d="M255,210l10,4l7,5l-8,-3l-9,-6Z" style="fill:#fff;"/><path d="M233,204l10.108,7l-7.108,3.5l-3,-10.5Z" style="fill:#fff;"/><path d="M236,233l7.108,9l-6.108,-1l-1,-8Z" style="fill:#fff;"/><path d="M255,261l-4,-5l-7,-7l6,8l5,4Z" style="fill:#fff;"/><path d="M235,253l4,3l2,5l-4,-4l-2,-4Z" style="fill:#fff;"/><path d="M144,254l-6,11l-4,-3l6,-8l4,0Z" style="fill:#fff;"/><path d="M124,246l7,12l2,-8l-9,-4Z" style="fill:#fff;"/><path d="M121,265l1,-4l3,-2l-1,3l-3,3Z" style="fill:#fff;"/><path d="M102,208l11,-8l1,5l-12,3Z" style="fill:#fff;"/><path d="M75,214l5,-4l13,-3l-11,6l-7,1Z" style="fill:#fff;"/><path d="M98,206l9,-6l5,-1l-14,7Z" style="fill:#fff;"/><path d="M107,195l2,-7l6,-3l-8,10Z" style="fill:#fff;"/><path d="M84,201l5,-3l5,-1l-5,3l-5,1Z" style="fill:#fff;"/><path d="M87,95l11,11l-5,-9l-6,-2Z" style="fill:#fff;"/><path d="M103,118l8,0l2,10l-10,-10Z" style="fill:#fff;"/><path d="M232,103l9,-10l9,-3l-18,13Z" style="fill:#fff;"/><path d="M232,116l20,3l-16,17l-4,-20Z" style="fill:#fff;"/></g><g id="Shield"><path d="M113,243l0,-141l62,-9l62,9l0,141l-62,25l-62,-25Z"/><path d="M119,107.192l0,131.758l56,22.581l56,-22.581l0,-131.758l-56,-8.129c-18.667,2.71 -37.333,5.419 -56,8.129Z" style="fill:#fff;"/><path d="M125,112.384l0,122.516l50,20.161l50,-20.161l0,-122.516l-50,-7.258c-16.667,2.419 -33.333,4.838 -50,7.258Z"/></g><g id="FlashSecondary"><path d="M148,106l7,44l-45,-6l36,26.994l-56,33.006l63,-12l-30,88l50,-77l26,29l-7,-41l70,20l-61,-39l40,-26l-46,5l29,-97l-50,88l-26,-36Z"/><path d="M174.323,147.504l-20.664,-28.103l4.873,34.108l-36.796,-5.017l29.608,22.834l-44.959,26.499l51.154,-9.744l-25.391,73.001l40.456,-63.018l21.689,24.192l-6.052,-35.45l54.867,15.676l-47.621,-30.446l31.867,-20.965l-36.498,3.318l22.704,-75.941c-13.079,23.018 -26.158,46.037 -39.237,69.056Z" style="fill:#fff;"/></g><g id="FlashPrimary"><path d="M174,74c1.144,0 13.73,59.85 16,61c2.27,1.15 111.495,-86.505 113,-85c1.505,1.505 -92.084,101.072 -91,106c1.084,4.928 94,14.115 94,16c0,1.885 -91.969,12.355 -94,16c-2.031,3.645 35.221,54.779 34,56c-1.221,1.221 -52.739,-36.061 -56,-35c-3.261,1.061 -14.516,66 -16,66c-1.484,0 -11.537,-64.02 -14,-65c-4.827,-1.921 -112.761,97.239 -115,95c-2.239,-2.239 92.853,-111.271 92,-117c-0.603,-4.049 -64,-15.148 -64,-16c0,-0.852 62.942,-12.592 63,-17c0.058,-4.408 -64.474,-83.526 -63,-85c1.474,-1.474 80.447,65.55 84,65c3.553,-0.55 15.856,-61 17,-61Z"/><path d="M190.367,206.15c3.265,0.219 6.085,2.561 9.148,4.437c13.009,7.966 25.463,16.861 38.27,25.309l0.296,0.194c-9.19,-13.997 -19.447,-27.151 -27.17,-42.364c-0.217,-0.429 -0.429,-0.86 -0.631,-1.297c-0.131,-0.283 -0.257,-0.568 -0.378,-0.856c-0.09,-0.216 -0.177,-0.432 -0.259,-0.651c-0.599,-1.604 -0.945,-3.645 0.435,-5.032c2.313,-2.323 6.317,-2.458 10.126,-3.207c22.873,-4.498 45.974,-7.002 69.322,-10.455l0.823,-0.123c-24.668,-3.38 -50.132,-5.094 -73.654,-11.059c-0.539,-0.137 -1.076,-0.28 -1.611,-0.433c-0.399,-0.115 -0.798,-0.236 -1.193,-0.365c-0.289,-0.095 -0.576,-0.194 -0.861,-0.3c-1.88,-0.7 -4.113,-2.029 -3.852,-4.429c0.207,-1.901 1.542,-3.493 2.74,-5.151c6.577,-9.098 14.253,-17.446 21.72,-25.941c17.406,-19.802 35.206,-39.237 52.699,-58.894l0.441,-0.496c-29.827,22.699 -58.768,46.698 -89.065,68.441c-3.115,2.235 -6.407,6.092 -9.477,3.746c-3.471,-2.651 -3.327,-7.801 -4.86,-13.783c-3.261,-12.729 -6.103,-25.509 -9.204,-38.326l-0.149,-0.613c-3.867,16.072 -6.696,32.782 -12.407,48.04c-0.134,0.359 -0.273,0.716 -0.419,1.07c-0.111,0.27 -0.226,0.538 -0.347,0.803c-0.752,1.645 -1.961,3.536 -4.084,3.417c-3.527,-0.197 -6.5,-3.567 -9.981,-6.204c-21.471,-16.264 -41.888,-33.832 -63.249,-50.896l-0.222,-0.177c17.309,22.601 36.102,44.555 52.01,67.644c0.335,0.485 0.666,0.973 0.992,1.465c2.067,3.119 6.044,6.721 -2.668,10.21c-7.917,3.171 -16.429,4.908 -24.844,6.87c-7.67,1.788 -15.368,3.455 -23.064,5.127l-0.25,0.055c16.322,3.344 33.197,5.772 48.643,11.259c0.385,0.137 0.769,0.279 1.149,0.429c0.29,0.114 0.579,0.233 0.864,0.359c2.658,1.169 5.615,2.769 1.449,9.2c-7.534,11.629 -16.823,22.216 -25.684,33.069c-17.699,21.678 -35.801,42.984 -53.34,64.83c29.477,-24.95 57.356,-51.013 87.448,-75.041c3.563,-2.845 7.055,-5.86 11.04,-8.014c2.621,-1.416 5.55,-1.778 7.779,7.697c3.689,15.683 6.138,31.58 9.249,47.573l0.007,0.036c3.674,-17.14 6.225,-34.753 11.401,-51.29c0.121,-0.387 0.246,-0.772 0.378,-1.155c0.099,-0.288 0.201,-0.576 0.309,-0.862c0.08,-0.21 0.162,-0.42 0.249,-0.628c0.684,-1.639 1.688,-3.328 3.936,-3.238Z" style="fill:#fff;"/></g><g id="Glow" opacity="0.75"><circle cx="175" cy="175" r="95" style="fill:url(#_Radial2);"/></g></g><defs><radialGradient id="_Radial1" cx="0" cy="0" r="1" gradientUnits="userSpaceOnUse" gradientTransform="matrix(134.346,0,0,134.346,175,174.994)"><stop offset="0" style="stop-color:#fd5;stop-opacity:1"/><stop offset="0.53" style="stop-color:#fd5;stop-opacity:1"/><stop offset="1" style="stop-color:#fd5;stop-opacity:0"/></radialGradient><radialGradient id="_Radial2" cx="0" cy="0" r="1" gradientUnits="userSpaceOnUse" gradientTransform="matrix(95,0,0,95,175,175)"><stop offset="0" style="stop-color:#fff;stop-opacity:1"/><stop offset="1" style="stop-color:#fff;stop-opacity:0"/></radialGradient></defs></svg>