<svg xmlns="http://www.w3.org/2000/svg" xmlns:xlink="http://www.w3.org/1999/xlink" viewBox="0 0 350 350"><defs><style>.cls-1,.cls-9{fill:#fff;}.cls-2{fill:url(#Unbenannter_Verlauf_16);}.cls-3{fill:url(#Unbenannter_Verlauf_16-2);}.cls-4{fill:url(#Unbenannter_Verlauf_16-3);}.cls-5{fill:#d65d5d;}.cls-6{fill:url(#Unbenannter_Verlauf_24);}.cls-7{fill:url(#Unbenannter_Verlauf_39);}.cls-8{fill:url(#Unbenannter_Verlauf_39-2);}.cls-9{stroke:#000;stroke-miterlimit:10;stroke-width:4px;}</style><linearGradient id="Unbenannter_Verlauf_16" x1="300.5" y1="122.38" x2="67" y2="122.38" gradientUnits="userSpaceOnUse"><stop offset="0.26" stop-color="#780f0d"/><stop offset="1" stop-color="#d12c2d"/></linearGradient><linearGradient id="Unbenannter_Verlauf_16-2" x1="67" y1="182" x2="298.5" y2="182" xlink:href="#Unbenannter_Verlauf_16"/><linearGradient id="Unbenannter_Verlauf_16-3" x1="298.5" y1="238" y2="238" xlink:href="#Unbenannter_Verlauf_16"/><linearGradient id="Unbenannter_Verlauf_24" x1="111.94" y1="129.46" x2="278.04" y2="84.95" gradientUnits="userSpaceOnUse"><stop offset="0" stop-color="#db8a89" stop-opacity="0"/><stop offset="0.02" stop-color="#db8a89" stop-opacity="0.05"/><stop offset="0.16" stop-color="#db8a89" stop-opacity="0.34"/><stop offset="0.3" stop-color="#db8a89" stop-opacity="0.57"/><stop offset="0.42" stop-color="#db8a89" stop-opacity="0.76"/><stop offset="0.53" stop-color="#db8a89" stop-opacity="0.89"/><stop offset="0.63" stop-color="#db8a89" stop-opacity="0.97"/><stop offset="0.7" stop-color="#db8a89"/></linearGradient><linearGradient id="Unbenannter_Verlauf_39" x1="121.09" y1="160.08" x2="299.83" y2="95.03" gradientUnits="userSpaceOnUse"><stop offset="0.11" stop-color="#db8a89" stop-opacity="0"/><stop offset="0.16" stop-color="#db8a89" stop-opacity="0.12"/><stop offset="0.27" stop-color="#db8a89" stop-opacity="0.38"/><stop offset="0.39" stop-color="#db8a89" stop-opacity="0.6"/><stop offset="0.49" stop-color="#db8a89" stop-opacity="0.78"/><stop offset="0.59" stop-color="#db8a89" stop-opacity="0.9"/><stop offset="0.68" stop-color="#db8a89" stop-opacity="0.97"/><stop offset="0.74" stop-color="#db8a89"/></linearGradient><linearGradient id="Unbenannter_Verlauf_39-2" x1="144.51" y1="226.64" x2="287.48" y2="251.85" xlink:href="#Unbenannter_Verlauf_39"/></defs><title>fuze</title><g id="Fuze"><g id="Background"><g id="transperent_bg" data-name="transperent bg"><polygon class="cls-1" points="290.11 290 60 290 60 60 290.11 60 95.75 130.76 155 243.5 290.11 290"/><polygon points="284.75 69 241.25 76.88 105 149.17 226.13 212 261.38 281 69 281 69 69 284.75 69"/></g><g id="Arrows"><g id="Dark_red" data-name="Dark red"><polygon class="cls-2" points="67 162 300.5 84.25 237 82.75 67 133.5 67 162"/><polygon class="cls-3" points="67 156.75 262.75 144 298.5 179 230.5 220 67 193.75 67 156.75"/><polygon class="cls-4" points="67 213.25 281 282.25 298.5 268 251 237.75 230.5 220 67 193.75 67 213.25"/></g><g id="lightred"><polygon class="cls-5" points="113.5 146 160.19 130.19 256.63 111.63 281.8 120.69 247.5 140.42 113.5 146"/><polygon class="cls-6" points="115.24 141.77 128.77 115.06 237 82.75 254.76 83.17 250 89.75 281 96 115.24 141.77"/><path class="cls-7" d="M302,101,118.69,139l-3.45,5L267.5,128.75l29.25-16.49-6.62-2.51Zm-40.62,16.38,10.74-4.63,4.38,2.94Z"/><polygon class="cls-8" points="226.5 264.83 224 254.83 289.33 241.33 257.5 222.83 146 218.17 144.5 239.17 226.5 264.83"/></g><g id="white"><polygon class="cls-1" points="65.2 132.05 257.54 66.05 290 69 65.2 136.21 65.2 132.05"/><polyline class="cls-1" points="248.46 113.33 213.67 113.33 66.17 146 66.17 149.17 248.46 113.33"/><polyline class="cls-1" points="298.5 137.75 113.5 146 67.5 155 67 156.75 296.25 142.25 300.5 139.75"/><polygon class="cls-1" points="67 218 269 287.5 290.11 281 67 213.25 67 218"/><polygon class="cls-1" points="68 208.5 269.5 254.83 275.5 251.83 67.33 206.83 68 208.5"/><polygon class="cls-1" points="229.5 235.33 245.17 226.83 259.83 238 229.5 235.33"/><polygon class="cls-1" points="189.58 103.58 191.5 115.17 200.83 106.75 189.58 103.58"/><polygon class="cls-1" points="248.46 94.13 256.13 86.5 261.38 97.25 254.92 102.75 248.46 94.13"/></g></g><polygon class="cls-1" points="69.13 69 69.13 281 290.11 281 290.11 290 60 290 60 60 290.11 60 290.11 69 69.13 69"/></g><g id="Symbol"><g id="Granades"><path class="cls-9" d="M113,128.58l18.92-12.83L117.7,99.51a4.22,4.22,0,0,0-5.35-.73l-20.8,13a3.5,3.5,0,0,0-1.63,2.66c-.52,5.89-2,25,.16,30.18,2.59,6.08,16.5,23.16,18.25,23.66s4.67-5,4.67-5-13.25-16.16-14.42-21.08-1.07-14.67.59-15.87Z"/><circle class="cls-9" cx="138.25" cy="146.5" r="28.5"/><path class="cls-9" d="M144.5,217.08l18.92-12.83L149.2,188a4.22,4.22,0,0,0-5.35-.73l-20.8,13.05a3.5,3.5,0,0,0-1.63,2.66c-.52,5.89-2,25,.16,30.18,2.59,6.08,16.5,23.16,18.25,23.66s4.67-5,4.67-5-13.25-16.16-14.42-21.08-1.07-14.67.59-15.87Z"/><circle class="cls-9" cx="169.75" cy="235" r="28.5"/></g><g id="Granadeface"><path class="cls-9" d="M212.37,159.34l21.38-14.5-16.06-18.35a4.77,4.77,0,0,0-6.05-.83l-23.5,14.74a4,4,0,0,0-1.85,3c-.59,6.66-2.28,28.31.18,34.11,2.92,6.87,18.65,26.18,20.63,26.74s5.27-5.65,5.27-5.65-15-18.27-16.29-23.83-1.21-16.58.66-17.94Z"/><circle class="cls-9" cx="240.91" cy="179.59" r="32.21"/><path d="M260.13,205.43c-18.75-3.87-18.88-26.24-18.88-26.24C227.31,185.63,229,209.52,229,209.52l12.56,2.28,12-2.59Z"/><polygon class="cls-1" points="231.58 185 240.25 188.67 237.58 195.49 244.54 195.92 241.67 200.92 249.5 201.33 244.54 207.92 255.17 209.5 237.17 210.33 243.38 203.75 233.75 203.08 238.42 198.28 232.42 197.33 235.08 191.75 230.17 188.83 231.58 185"/><path d="M254.92,175.25c1.91,3.4,5.59,3.37,6.83,3.26a.8.8,0,0,1,.73.32c.79,1,2.53,3.8-2.73,2.5-6.42-1.58-5.79-5.6-5.79-5.6a.74.74,0,0,1,1-.48Z"/></g></g></g></svg>