<?xml version="1.0" encoding="utf-8"?>
<!-- Generator: Adobe Illustrator 22.1.0, SVG Export Plug-In . SVG Version: 6.00 Build 0)  -->
<svg version="1.1" id="IconGuides" xmlns="http://www.w3.org/2000/svg" xmlns:xlink="http://www.w3.org/1999/xlink" x="0px" y="0px"
	 viewBox="0 0 350 350" style="enable-background:new 0 0 350 350;" xml:space="preserve">
<style type="text/css">
	.st0{fill:#FFFFFF;}
	.st1{fill:#891716;}
	.st2{fill:url(#SVGID_1_);}
	.st3{fill:#FFFFFF;stroke:#000000;stroke-width:3;stroke-miterlimit:10;}
</style>
<g id="Background">
	<rect x="59.9" y="60" class="st0" width="230.3" height="230"/>
	<rect x="79" y="78.8" class="st1" width="192.3" height="192"/>
	
		<radialGradient id="SVGID_1_" cx="175.125" cy="164" r="96" gradientTransform="matrix(1 0 0 1.2 0 -32.8)" gradientUnits="userSpaceOnUse">
		<stop  offset="0" style="stop-color:#FD6566;stop-opacity:0.95"/>
		<stop  offset="1" style="stop-color:#891716;stop-opacity:0"/>
	</radialGradient>
	<rect x="79.1" y="68" class="st2" width="192" height="192"/>
	<polygon class="st0" points="79,206 284,255 285.8,249.1 265.2,245.9 79,204 	"/>
	<polygon class="st0" points="79,143.5 255.8,110.2 243.5,105.7 79,141.7 	"/>
	<polygon class="st0" points="184.4,102 186.4,113.8 194.8,106.5 	"/>
	<polygon class="st0" points="224,231.1 250.2,232.9 239.4,221.6 	"/>
	<polyline points="290.1,69.3 290.1,276.2 270.2,270.8 247,246 265.5,246 264.3,244.5 262.5,241.8 210.3,166.5 237.9,113.5 
		212,112.6 247.1,69.3 	"/>
	<path d="M69.2,69.3v211.4h211.6V69.3H69.2z M271,270.9H79v-192h192V270.9z"/>
	<polygon class="st0" points="67.3,212 290.1,287.7 290.1,276.6 280.4,276.2 272.2,273.2 67.3,208 	"/>
	<polygon class="st0" points="238.9,95.1 244.4,86.4 247.8,96.1 240.8,104.4 	"/>
	<polygon class="st0" points="79,151.7 282,137.8 237.3,137.8 79,149.7 	"/>
	<polygon class="st0" points="69.2,131 290.1,69.3 242.3,69.1 68.9,127.4 	"/>
</g>
<g id="Grenade_1">
	<g>
		<circle class="st0" cx="134.7" cy="142.5" r="28"/>
		<g>
			<path d="M134.7,116c14.6,0,26.5,11.9,26.5,26.5S149.3,169,134.7,169s-26.5-11.9-26.5-26.5S120,116,134.7,116 M134.7,113
				c-16.3,0-29.5,13.2-29.5,29.5s13.2,29.5,29.5,29.5s29.5-13.2,29.5-29.5S150.9,113,134.7,113L134.7,113z"/>
		</g>
	</g>
	<path class="st3" d="M110.6,158.9c-0.9-1.1-12.8-17.9-14.6-20.5c-0.2-0.3-0.3-0.6-0.3-0.9V128c0-0.7,0.4-1.3,1.1-1.4l7.2-2
		c0.5-0.1,1.1,0,1.5,0.4l3.3,3.6c0.5,0.6,1.4,0.7,2,0.2l16.7-13.5c0.6-0.5,0.7-1.4,0.2-2.1l-10.6-13.4c-0.1-0.1-0.1-0.1-0.2-0.2
		c-0.9-0.7-6.5-5.1-14.3,0.1c-7,4.7-12.9,9.2-14.8,10.6c-0.4,0.3-0.6,0.7-0.6,1.2V140v1l16.1,23.2c2.7,4.3,7.1,1.8,7.1,1.8
		S113.9,163.1,110.6,158.9z"/>
</g>
<g id="Grenade_1_1_">
	<g>
		<circle class="st0" cx="165.7" cy="227.3" r="28"/>
		<g>
			<path d="M165.7,200.8c14.6,0,26.5,11.9,26.5,26.5s-11.9,26.5-26.5,26.5s-26.5-11.9-26.5-26.5S151,200.8,165.7,200.8 M165.7,197.8
				c-16.3,0-29.5,13.2-29.5,29.5s13.2,29.5,29.5,29.5s29.5-13.2,29.5-29.5S181.9,197.8,165.7,197.8L165.7,197.8z"/>
		</g>
	</g>
	<path class="st3" d="M141.6,243.6c-0.9-1.1-12.8-17.9-14.6-20.5c-0.2-0.3-0.3-0.6-0.3-0.9v-9.6c0-0.7,0.4-1.3,1.1-1.4l7.2-2
		c0.5-0.1,1.1,0,1.5,0.4l3.3,3.6c0.5,0.6,1.4,0.7,2,0.2l16.7-13.5c0.6-0.5,0.7-1.4,0.2-2.1l-10.6-13.4c-0.1-0.1-0.1-0.1-0.2-0.2
		c-0.9-0.7-6.5-5.1-14.3,0.1c-7,4.7-12.9,9.2-14.8,10.6c-0.4,0.3-0.6,0.7-0.6,1.2v28.6v1l16.1,23.2c2.7,4.3,7.1,1.8,7.1,1.8
		S144.9,247.8,141.6,243.6z"/>
</g>
<g id="Smile_Grenade">
	<g>
		<path class="st0" d="M229,206.7c-17.5,0-31.7-14.2-31.7-31.7s14.2-31.7,31.7-31.7s31.7,14.2,31.7,31.7S246.5,206.7,229,206.7z"/>
		<g>
			<path d="M229,144.8c16.7,0,30.2,13.5,30.2,30.2s-13.5,30.2-30.2,30.2s-30.2-13.5-30.2-30.2S212.3,144.8,229,144.8 M229,141.8
				c-18.3,0-33.2,14.9-33.2,33.2s14.9,33.2,33.2,33.2s33.2-14.9,33.2-33.2S247.3,141.8,229,141.8L229,141.8z"/>
		</g>
	</g>
	<path class="st3" d="M201.6,193.6c-1-1.3-14.5-20.4-16.7-23.3c-0.2-0.3-0.3-0.6-0.3-1v-10.9c0-0.8,0.5-1.4,1.2-1.6l8.2-2.2
		c0.6-0.2,1.3,0,1.7,0.5l3.8,4.1c0.6,0.7,1.6,0.7,2.3,0.2l19-15.4c0.7-0.6,0.8-1.6,0.3-2.4L209,126.3c-0.1-0.1-0.1-0.2-0.2-0.2
		c-1-0.9-7.3-5.8-16.2,0.1c-8,5.3-14.7,10.4-16.8,12c-0.4,0.3-0.7,0.8-0.7,1.3v32.6v1.1l18.3,26.5c3.1,5,8,2,8,2
		S205.4,198.4,201.6,193.6z"/>
	<rect x="196.2" y="149.9" transform="matrix(0.7783 -0.6279 0.6279 0.7783 -48.5138 166.5894)" width="30.9" height="4.2"/>
	<path d="M224,206.2c0,0-13.7-16.7,9.8-33.4c0,0-9,14.3,16.4,25.3C250.2,198,244.9,211,224,206.2z"/>
	<path class="st0" d="M224.5,181.4l5.3,2.3l-2,4.2l6.6,2.2l-3.5,5.5l9.6,0.4l-4.9,5.9l8.3,0.6c0,0-10.1,4.2-16.2,2.7l7.2-6.6l-9-0.9
		l4.4-5.7l-6.1-2.3l2.5-5.1l-2.7-2.4L224.5,181.4z"/>
	<path d="M253,173.6c-1.6,1.9-4.5,2.1-6.3,0.5s-2.1-4.5-0.5-6.3"/>
</g>
</svg>
