<svg xmlns="http://www.w3.org/2000/svg" xmlns:xlink="http://www.w3.org/1999/xlink" viewBox="0 0 350 350"><defs><style>.cls-1{fill:#fff;}.cls-2{fill:#c35b59;}.cls-3{fill:url(#Unbenannter_Verlauf_40);}.cls-4{stroke:#000;}.cls-4,.cls-5{stroke-miterlimit:10;}.cls-5{fill:none;stroke:#fff;stroke-width:7px;}.cls-6{fill:url(#Unbenannter_Verlauf_11);}.cls-7{fill:url(#Unbenannter_Verlauf_11-2);}</style><radialGradient id="Unbenannter_Verlauf_40" cx="175" cy="175" r="96" gradientUnits="userSpaceOnUse"><stop offset="0.62" stop-color="#9f1411"/><stop offset="0.7" stop-color="#a31c19"/><stop offset="0.83" stop-color="#ae3230"/><stop offset="0.98" stop-color="#c15654"/><stop offset="1" stop-color="#c35b59"/></radialGradient><radialGradient id="Unbenannter_Verlauf_11" cx="202.23" cy="154.7" r="25.81" gradientUnits="userSpaceOnUse"><stop offset="0" stop-color="#fff"/><stop offset="1" stop-color="#fff" stop-opacity="0"/></radialGradient><radialGradient id="Unbenannter_Verlauf_11-2" cx="151.7" cy="197.83" r="20.07" xlink:href="#Unbenannter_Verlauf_11"/></defs><title>glaz</title><g id="Glaz"><g id="Background"><g id="BG_Colors" data-name="BG Colors"><rect class="cls-1" x="59.87" y="60" width="230.26" height="230"/><rect class="cls-2" x="78.75" y="79" width="192.25" height="192"/><rect class="cls-3" x="79" y="79" width="192" height="192"/></g><g id="round_splashes" data-name="round splashes"><path class="cls-4" d="M77,83.5s2.63-5.75,7.5-7-5.75-3.25-5.75-3.25L75.5,83.5Z"/><path class="cls-4" d="M78.25,86.88s4.63-8.5,10.38-11.25,7.25-2.38,7.25-2.38l.62,3.25S84.32,84,76.75,96.75s-4.75,4.5-4.75,4.5Z"/><path class="cls-4" d="M169.75,265.25c-62.37-13-74.25-54.75-74.25-54.75-10.75-22.88-4.12-53.88-4.12-53.88,12.74-36.37,32-53.37,32-53.37-1.63-.63-7.76-1-13.26,2.63s-5.37-2.5-5.37-2.5c2.13-9.5,30.13-28.5,30.13-28.5S122.12,73.5,114.38,76s-25.76,22.75-27,25,.87,4.88.87,4.88c-4.87,3.5-11,13.12-11,13.12l-4.17,3.42,1.67,122.66s-6.33,3.42,2.08,13.75a62.36,62.36,0,0,0,18.25,15.25l19.62-.18c-.69-.26-1.5-.58-2.45-1-12-5-23.5-19.67-24.42-21.84s-3.75-13.16,2.17-.91,23.83,21.16,23.83,21.16a35.9,35.9,0,0,1,3.57,2.55l84.6-.76s28.12,11.13,46.5,1,25-22.37,25-22.37l.88-50.25S232.12,278.25,169.75,265.25Zm102.63-46.63c-.26,3.19-4.76,7.26-4.76,7.26s-3.37,0-.62-2.19a13.93,13.93,0,0,0,3.94-5.38S272.62,215.44,272.38,218.62Z"/><path class="cls-4" d="M75.92,100.33A54.85,54.85,0,0,1,86.67,89.92c6.08-4.25.66,2.41.66,2.41S79.75,97.92,76.75,103,75.92,100.33,75.92,100.33Z"/><path class="cls-4" d="M75.5,115.25s6-8.75,8.49-11.37,1.34,2.37,1.34,2.37-5.91,6.08-8.16,10.5S75.5,115.25,75.5,115.25Z"/><path class="cls-4" d="M258.08,75.58s10.75,2.09,17.5,15.09-1.2,1.41-1.2,1.41S266,78.92,258.08,76.75,258.08,75.58,258.08,75.58Z"/><path class="cls-4" d="M237.94,74.12s13.27,10.13,12.48,11.7-2.9-.68-2.9-.68-7.82-8.9-12.9-10.75S237.94,74.12,237.94,74.12Z"/><path class="cls-4" d="M228.08,74.5s19.17,12.75,25.59,20.17-.67,2.83-3.09.5S237.25,81.71,225,75.35,228.08,74.5,228.08,74.5Z"/></g><path d="M69.18,69.39v211.4H280.82V69.39ZM271,271H79V79H271Z"/></g><g id="Symbol"><g id="Round"><circle class="cls-5" cx="176.67" cy="175" r="83"/><circle class="cls-1" cx="176.67" cy="175" r="49.8"/><circle cx="176.67" cy="175" r="25"/><path class="cls-6" d="M226.47,170.55A26.33,26.33,0,0,1,205,182c-14.91,0-27-13-27-29.08a29.46,29.46,0,0,1,14-25.51A50,50,0,0,1,226.47,170.55Z"/><path class="cls-7" d="M171.75,197.83a20.08,20.08,0,0,1-20.08,20.09h-.29a50,50,0,0,1-19.74-21.59,20.08,20.08,0,0,1,40.11,1.51Z"/></g><g id="Crosshair"><rect x="173.67" y="113.5" width="6" height="123"/><rect x="113.83" y="172.25" width="125.67" height="5.5"/><rect x="149.92" y="73.45" width="53.5" height="9.85" transform="translate(98.29 255.04) rotate(-90)"/><rect class="cls-1" x="149.86" y="75.92" width="53.5" height="4.92" transform="translate(98.24 254.99) rotate(-90)"/><rect x="149.92" y="268.11" width="53.5" height="9.85" transform="translate(-96.37 449.71) rotate(-90)"/><rect class="cls-1" x="149.86" y="270.58" width="53.5" height="4.92" transform="translate(-96.43 449.66) rotate(-90)"/><rect x="246.92" y="169.73" width="53.5" height="9.85"/><rect class="cls-1" x="246.92" y="172.15" width="53.5" height="4.92"/><rect x="52.25" y="170.16" width="53.5" height="9.85"/><rect class="cls-1" x="52.25" y="172.58" width="53.5" height="4.92"/></g><circle class="cls-1" cx="176.67" cy="175" r="5.83"/></g></g></svg>