<svg xmlns="http://www.w3.org/2000/svg" xmlns:xlink="http://www.w3.org/1999/xlink" viewBox="0 0 350 350"><defs><style>.cls-1,.cls-4{fill:#fff;}.cls-2{fill:#f79821;}.cls-2,.cls-4{stroke:#000;stroke-miterlimit:10;}.cls-3{opacity:0.6;fill:url(#Unbenannter_Verlauf_10);}.cls-4{stroke-width:5px;}</style><radialGradient id="Unbenannter_Verlauf_10" cx="175" cy="175" r="96" gradientTransform="translate(0 -43.75) scale(1 1.25)" gradientUnits="userSpaceOnUse"><stop offset="0.4" stop-color="#fbd778"/><stop offset="0.45" stop-color="#f7d478" stop-opacity="0.98"/><stop offset="0.53" stop-color="#eacd79" stop-opacity="0.91"/><stop offset="0.62" stop-color="#d6c07a" stop-opacity="0.81"/><stop offset="0.71" stop-color="#b9ae7b" stop-opacity="0.66"/><stop offset="0.81" stop-color="#94987d" stop-opacity="0.47"/><stop offset="0.91" stop-color="#687c80" stop-opacity="0.24"/><stop offset="1" stop-color="#3a6082" stop-opacity="0"/></radialGradient></defs><title>iq</title><g id="IQ"><g id="Background"><g id="BG_Colors" data-name="BG Colors"><rect class="cls-1" x="59.87" y="60" width="230.26" height="230"/><rect x="69.18" y="69.39" width="211.64" height="211.4"/><rect class="cls-2" x="78.5" y="78.5" width="193" height="193"/><rect class="cls-3" x="79" y="79" width="192" height="192"/></g><g id="Splatter"><path d="M262.44,99.39c.14-3.81,9.75-6.51,9.75-6.51L277.25,82S265,88.13,261.86,90.55c.56-.68,9.66-11.55,12.72-11.55L75.67,75.67l-2.5,4.16L116.83,116s.84,1.5,0,2.5-3,0-3,0l-6.46-4s-2.25-.5-3.13.88,1.59,5.58,1.59,5.58l71.87,52.29s64-63.5,87.75-67.87c0,0,6.94-.43,7,1.29l.11-3S262.3,103.2,262.44,99.39ZM141.33,139.25c-3.83-1.47-15.83-10.67-16-12.83C125.33,126.42,143.5,140.08,141.33,139.25Zm7.75,9.67c-.93-.15-4-4.25-4-4.25C147.46,145,150,149.07,149.08,148.92Zm-56-57.75c4.5.16,39.07,27.91,40.92,29.5,4.42,3.79,35.58,27.25,35.58,27.25C160,147,93.08,91.17,93.08,91.17Zm85.5,55.64s9-5.85,10.5-5.39C190.36,141.81,183.48,147.31,178.58,146.81ZM196.92,138s18.25-11.84,21.08-11.58C222,126.79,203.1,136.92,196.92,138Z"/><path d="M261.75,253.75c-2.25-4.25-87-55.75-87-55.75L73.17,257.75l2.08,18L273,277.5V267S264,258,261.75,253.75ZM98,253,78,264.5v-2.75S97,249.5,99.75,249.5,98,253,98,253Zm78.23-48.95a2.37,2.37,0,0,0-2.5-.05c-8.67,5.1-58.86,34.49-61.61,33.75-1-1.59,59.42-36.53,62.88-36.75s31,18.13,33.5,20.62C206.35,223.39,182,207.8,176.23,204.05Z"/></g></g><g id="Symbol"><g id="Eye_L" data-name="Eye L"><path class="cls-4" d="M36.13,137.63l63.37-3.88L175,188.5v4.83l-15.67,1.09S132.5,213.33,116,213.33C90.17,213.33,71.38,194.88,36.13,137.63Z"/><path d="M98.8,148.45l42.45,30.05s-.75,11.5-7.5,16.25-11,7.5-21.75,5.5S92,192,92,192s-19.25-16-17.5-30.5,20.55-15.05,24.3-13.05"/><polygon class="cls-1" points="105.56 148.75 105.56 169 98.38 163.75 100.88 199.25 103.5 200.91 104.63 180.5 115.75 194.13 117 154.88 105.56 148.75"/></g><g id="Eye_R" data-name="Eye R"><path class="cls-4" d="M313.88,137.37,250.5,133.5,175,188.25v4.83l15.67,1.08S217.5,213.08,234,213.08C259.83,213.08,278.62,194.62,313.88,137.37Z"/><path d="M251.2,148.2l-42.45,30.05s.75,11.5,7.5,16.25,11,7.5,21.75,5.5,20-8.25,20-8.25,19.25-16,17.5-30.5S255,146.2,251.2,148.2"/><polygon class="cls-1" points="244.44 148.5 244.44 168.75 251.63 163.5 249.13 199 246.5 200.66 245.38 180.25 234.25 193.87 233 154.62 244.44 148.5"/></g></g></g></svg>