<svg xmlns="http://www.w3.org/2000/svg" xmlns:xlink="http://www.w3.org/1999/xlink" viewBox="0 0 350 350"><defs><style>.cls-1,.cls-9{fill:#fff;}.cls-2{fill:#c35b59;}.cls-3{opacity:0.6;fill:url(#Unbenannter_Verlauf_14);}.cls-4,.cls-6,.cls-7,.cls-8{fill:none;}.cls-4,.cls-5{stroke:#df6c6d;}.cls-4,.cls-5,.cls-6,.cls-7,.cls-8,.cls-9{stroke-miterlimit:10;}.cls-4,.cls-5,.cls-6,.cls-9{stroke-width:3px;}.cls-5{fill:#df6c6d;}.cls-6,.cls-7,.cls-9{stroke:#000;}.cls-7{stroke-width:9px;}.cls-8{stroke:#fff;stroke-width:5px;}</style><radialGradient id="Unbenannter_Verlauf_14" cx="175" cy="175" r="96" gradientUnits="userSpaceOnUse"><stop offset="0.79" stop-color="#9f1411"/><stop offset="1" stop-color="#3a6082" stop-opacity="0"/></radialGradient></defs><title>kapkan</title><g id="Kapkan"><g id="Background"><g id="BG_Colors" data-name="BG Colors"><rect class="cls-1" x="59.87" y="60" width="230.26" height="230"/><rect class="cls-2" x="78.75" y="79" width="192.25" height="192"/><rect class="cls-3" x="79" y="79" width="192" height="192"/></g><g id="red_lines" data-name="red lines"><line class="cls-4" x1="278.33" y1="155.33" x2="149" y2="275"/><line class="cls-4" x1="75.33" y1="154.67" x2="276.33" y2="119.67"/><line class="cls-5" x1="84.33" y1="76.33" x2="252" y2="275.33"/></g><g id="black_lines" data-name="black lines"><line class="cls-6" x1="94.76" y1="76.46" x2="272" y2="215.67"/><line class="cls-6" x1="91" y1="274" x2="273.72" y2="98.39"/><line class="cls-6" x1="76.67" y1="118.67" x2="276.33" y2="237.33"/><line class="cls-6" x1="76.67" y1="196.33" x2="275.33" y2="137.67"/><line class="cls-6" x1="76" y1="139" x2="212.33" y2="279"/><line class="cls-6" x1="109.33" y1="274.67" x2="216" y2="76"/></g><path d="M69.18,69.39v211.4H280.82V69.39ZM271,271H79V79H271Z"/></g><g id="Symbol"><g id="tnt"><rect x="106" y="48.38" width="137.75" height="72.75"/><path class="cls-7" d="M237.83,68.25c.54,0,1.87,0,2.42,0a16.63,16.63,0,1,1,0,33.25c-.55,0-2,0-2.58,0"/><path class="cls-8" d="M237.83,68.25c.54,0,1.87,0,2.42,0a16.63,16.63,0,1,1,0,33.25c-.55,0-2,0-2.58,0"/><rect class="cls-1" x="111.12" y="53.5" width="127.5" height="62.38"/><g id="lines"><rect x="116.13" y="60" width="117.5" height="7.25"/><rect x="116.13" y="95.75" width="117.5" height="7.25"/><rect x="109" y="82.19" width="132.11" height="5.38"/></g><rect class="cls-9" x="158.25" y="52" width="33.5" height="64.88"/></g><g id="Hook"><path class="cls-9" d="M222.58,239.94s-4.06,23.25-28.37,23.62c0,0-13.31-2-19.19-9.12h0c-5.88,7.12-19.19,9.12-19.19,9.12-24.31-.37-28.37-23.62-28.37-23.62.06-26.75,15.44-39.88,15.44-39.88s-2.57,36.38,8.12,37.63h-9.12s-1.63,10.93,14.68,10.25c0,0,9.57-.35,11.86-4.77h-.25V177.05a14.68,14.68,0,0,1-6.38-12.34c0-7.94,5.86-14.38,13.09-14.38S188,156.77,188,164.71a14.65,14.65,0,0,1-6.46,12.39V243c2.12,4.59,12,4.95,12,4.95,16.31.69,14.69-10.25,14.69-10.25H199c10.69-1.25,8.13-37.63,8.13-37.63S222.52,213.19,222.58,239.94Z"/><circle cx="175.01" cy="164.5" r="2.49"/><rect class="cls-1" x="172.52" y="114.33" width="4.98" height="41"/></g></g></g></svg>