<?xml version="1.0" encoding="UTF-8" standalone="no"?><!DOCTYPE svg PUBLIC "-//W3C//DTD SVG 1.1//EN" "http://www.w3.org/Graphics/SVG/1.1/DTD/svg11.dtd"><svg width="100%" height="100%" viewBox="0 0 350 350" version="1.1" xmlns="http://www.w3.org/2000/svg" xmlns:xlink="http://www.w3.org/1999/xlink" xml:space="preserve" xmlns:serif="http://www.serif.com/" style="fill-rule:evenodd;clip-rule:evenodd;stroke-linejoin:round;stroke-miterlimit:1.41421;"><g id="Mute"><g id="BackPlate"><g id="WhitePlate"><path d="M44.325,230l9.675,0l0,-15l7,0l0,-16l4,0l0,-16l-9,0l0,-16l9,0l0,-16l7,0l0,-16l2,0l0,-15l-2,0l0,-15l-9,0l0,-15l-10,0l0,-15l-6,0l0,-15l232,0l0,15l10,0l0,15l6,0l0,15l10,0l0,15l2.675,0l0,15l-2.675,0l0,16l-7,0l0,16l-3,0l0,16l-3,0l0,16l-13,0l0,16l8,0l0,15l-7,0l0,15l10,0l0,15l6,0l0,15l9,0l0,15l-233,0l0,-15l-12,0l0,-15l-2,0l0,-15l-13.675,0l0,-15Z" style="fill:#fff;"/></g><g id="BlackPlate"><path d="M68,245l-8,0l0,-15l3,0l0,-15l7,0l0,-16l7,0l0,-16l-9,0l0,-16l7,0l0,-16l6,0l0,-16l3,0l0,-15l4,0l0,-15l-16,0l0,-15l-7,0l0,-15l198,0l0,15l23,0l0,15l8,0l0,15l-4,0l0,15l5,0l0,16l-6,0l0,16l-7,0l0,16l-8,0l0,16l-4,0l0,16l7,0l0,15l-12,0l0,15l16,0l0,15l-6,0l0,15l21,0l0,5l-214,0l0,-5l6,0l0,-15l-20,0l0,-15Zm-12,-175l214,0l0,5l-214,0l0,-5Z"/></g><g id="SASPlate"><path d="M114,260l161,0l0,10l-161,0l0,-10Zm-30,-61l19,0l0,-16l-21,0l0,-16l164,0l0,16l12,0l0,16l12,0l0,16l-12,0l0,15l-7,0l0,15l12,0l0,15l-173,0l0,-15l-10,0l0,-15l-8,0l0,-15l12,0l0,-16Zm144,-109l49,0l0,15l4,0l0,15l-9,0l0,15l10,0l0,16l-10,0l0,16l-185,0l0,-16l12,0l0,-16l18,0l0,-15l-10,0l0,-15l-8,0l0,-15l-24,0l0,-9l153,0l0,9Z" style="fill:#906f79;"/></g></g><g id="Mask"><path d="M125,167c-2.152,-5.168 -2,-15 -2,-15c0,0 -0.012,-0.361 -0.006,-1l5.058,0c0.021,-2.611 0.326,-9.859 2.868,-16l3.941,0c0.586,-1.416 1.291,-2.772 2.139,-4c5.425,-7.857 13,-10 13,-10c0,0 0.103,-0.363 0.348,-1l83.288,0c0.255,0.637 0.364,1 0.364,1c0,0 7.575,2.143 13,10c0.848,1.228 1.553,2.584 2.139,4l-3.942,0c2.542,6.141 2.846,13.389 2.868,16l-5.059,0c0.006,0.639 -0.006,1 -0.006,1c0,0 0.152,9.832 -2,15l-8,0c-2.15,5.162 -7.986,15.973 -8,16l-1,9c0,0 6.977,2.94 15,7l-3,0c5.222,2.643 9.149,7.924 9.718,16l-2.886,0c0.298,4.227 -0.325,9.22 -2.163,15l-5.114,0c-1.079,3.394 -2.578,7.059 -4.555,11c-0.689,1.374 -1.412,2.661 -2.162,3.864l10.779,0c-9.858,15.687 -24.468,17.128 -31.753,13c-8.237,-4.667 -20.015,-11.796 -21.776,-12.864l-0.41,0l-10.814,7.864l-10.813,-7.864l-0.41,0c-1.761,1.068 -13.539,8.197 -21.777,12.864c-7.263,4.116 -21.81,2.695 -31.667,-12.864l-10.95,0c-0.781,-1.243 -1.532,-2.574 -2.247,-4c-1.977,-3.941 -3.476,-7.606 -4.555,-11l5.114,0c-1.838,-5.78 -2.46,-10.773 -2.163,-15l2.886,0c0.569,-8.076 4.496,-13.357 9.718,-16l3,0c8.023,-4.06 15,-7 15,-7l-1,-9l-0.066,-0.123c-0.651,-1.209 -5.916,-11.032 -7.934,-15.877l8,0Zm33.42,-62l-10,0c6.223,-4.406 15.353,-8 28.58,-8l2,0c13.016,0.072 22.084,3.638 28.317,8l10,0c7.972,5.58 11.303,12.463 12.319,15l-83.288,0c0.974,-2.537 4.192,-9.42 12.072,-15Z" style="fill:#fff;"/><path d="M228.937,260c-4.309,2.204 -9.031,3.332 -13.865,2.877c-3.015,-0.283 -5.835,-1.438 -8.568,-2.877l22.433,0Zm-83.387,0c-0.358,0.205 -0.717,0.409 -1.075,0.612c-6.333,3.553 -13.817,2.863 -20.722,-0.612l21.797,0Zm41.547,-15.136c-0.566,-4.526 -0.143,-9.625 1.294,-14.864l4.112,0c-1.632,5.326 -2.121,10.473 -1.48,14.864l0.612,0c2.421,1.473 4.848,2.942 7.285,4.392c-0.428,-1.386 -0.742,-2.855 -0.941,-4.392l3.928,0c0.472,3.109 1.514,5.833 3.121,7.965c1.48,0.848 2.965,1.684 4.457,2.504c6.115,3.295 14.543,0.881 20.184,-3.599c2.497,-1.983 4.665,-4.312 6.533,-6.87l6.916,0l-0.071,0.123c-3.596,6.2 -8.986,11.675 -15.246,14.877l-22.432,0c-1.791,-0.943 -3.545,-2.008 -5.291,-3.029c-4.169,-2.439 -8.316,-4.915 -12.456,-7.404l-1.605,-0.968l-11.153,8.111l-11.152,-8.111c-6.383,3.855 -12.807,7.693 -19.298,11.401l-21.797,0c-6.187,-3.113 -11.91,-8.463 -15.926,-15l7.021,0c4.865,6.897 12.5,12.242 20.528,11.967c3.659,-0.125 7.081,-1.995 10.477,-4.024c1.574,-2.097 2.604,-4.765 3.083,-7.807l-0.609,0c1.989,-1.196 3.975,-2.397 5.96,-3.6l4.827,3.511l0.077,-0.047l10.91,0l5.899,4.291l5.713,-4.155l-10.678,0l4.95,-3.6c1.937,1.175 3.875,2.356 5.816,3.536l0.099,-0.072l6.333,0Zm-29.267,0.136l-6.098,0c-0.196,1.457 -0.495,2.854 -0.898,4.175c2.337,-1.383 4.668,-2.776 6.996,-4.175Zm-62.776,-30c0.312,-4.731 1.791,-9.268 4.995,-13.307c0.796,-1.004 1.705,-1.891 2.692,-2.693l3,0c2.655,-2.156 5.879,-3.69 9.017,-5.191c2.581,-1.235 5.182,-2.429 7.799,-3.586l0.217,-0.095c-0.256,-2.301 -0.023,-4.964 -0.975,-6.75c-0.067,-0.126 -0.135,-0.252 -0.202,-0.378l-0.066,-0.122c-2.777,-5.172 -5.821,-10.307 -7.63,-15.878l6.371,0c0.051,0.117 0.102,0.234 0.155,0.35c2.28,5.025 4.883,9.887 7.491,14.742l1.31,11.795c-2.744,1.167 -5.482,2.356 -8.195,3.592c1.513,0.35 3.043,0.86 4.572,1.521l-3,0c6.535,2.824 13.052,8.402 18.104,16l-2.886,0c0.625,0.939 1.227,1.909 1.804,2.909c2.3,3.983 3.995,8.078 5.096,12.091l-4.111,0c-1.025,-3.345 -2.501,-6.76 -4.43,-10.102c-1,-1.732 -2.077,-3.368 -3.216,-4.898l2.886,0c-7.631,-10.262 -17.979,-15.79 -25.773,-13.696c-0.304,0.155 -0.607,0.311 -0.909,0.468c-4.718,2.495 -7.153,7.757 -7.757,13.228l-2.886,0c-0.21,1.901 -0.198,3.828 0.015,5.673c0.365,3.15 1.074,6.285 2.049,9.327l-5.114,0c1.614,5.031 3.958,9.81 6.686,13.99c0.221,0.34 0.45,0.677 0.685,1.01l-7.021,0c-0.696,-1.134 -1.341,-2.303 -1.929,-3.502c-0.448,-0.917 -0.882,-1.841 -1.3,-2.772c-1.261,-2.812 -2.428,-5.745 -3.367,-8.726l5.115,0c-1.569,-4.98 -2.501,-10.094 -2.178,-15l2.886,0Zm45.832,30l-3.929,0c0.671,-4.421 0.189,-9.619 -1.46,-15l4.112,0c1.451,5.291 1.869,10.44 1.277,15Zm62.405,-30c5.052,-7.598 11.569,-13.176 18.104,-16l3,0c1.552,-0.671 3.105,-1.187 4.64,-1.537c-1.835,-0.817 -3.684,-1.612 -5.527,-2.41l-2.736,-1.166l1.21,-10.887l0.1,-0.908c2.674,-4.977 5.43,-9.734 7.356,-15.092l6.47,0c-0.632,2.049 -1.418,4.052 -2.371,5.998c-1.648,3.366 -3.377,6.692 -5.135,10.002l-0.201,0.378l-0.283,0.53l-0.692,6.22c5.928,2.608 12.129,4.943 16.81,8.872l-3,0c3.053,2.563 5.46,5.804 6.723,10.242c0.54,1.898 0.874,3.822 1.03,5.758l-2.886,0c0.404,5.018 -0.384,10.11 -1.86,15l-5.114,0c-1.62,5.367 -4.068,10.489 -6.675,15l-6.916,0c3.292,-4.507 5.651,-9.723 7.232,-15l5.114,0c0.724,-2.418 1.286,-4.849 1.698,-7.231c0.437,-2.52 0.591,-5.184 0.355,-7.769l2.885,0c-0.488,-5.341 -2.645,-10.343 -7.427,-13.03c-0.38,-0.214 -0.764,-0.424 -1.149,-0.632c-7.808,-2.187 -18.226,3.345 -25.898,13.662l-2.886,0c-1.138,1.531 -2.216,3.166 -3.215,4.898c-1.93,3.342 -3.405,6.757 -4.43,10.102l-4.111,0c1.1,-4.013 2.795,-8.108 5.095,-12.091c0.577,-1 1.179,-1.97 1.804,-2.909l2.886,0Zm-51.776,0l12,-12l-4,-4l3,0l-11.203,-11.203l8.485,-8.485l15.203,15.203l15.203,-15.203l8.485,8.485l-11.203,11.203l-3,0l-4,4l12,12l-2.885,0l3.202,3.203l-8.485,8.485l-11.688,-11.688l2.886,0l-3.515,-3.515l-3.515,3.515l-2.885,0l-11.689,11.688l-8.485,-8.485l3.203,-3.203l2.886,0Zm-14.822,-48c-1.739,-4.192 -2.693,-9.527 -2.693,-16l5.058,0c0,-8.72 2.958,-13.444 6.051,-16l3.942,0c3.392,-2.803 6.949,-3 6.949,-3c0,0 2.006,0 4.123,0c3.204,0 6.362,0.77 9.206,2.245l1.457,0.755l-3.942,0l21.214,11l21.215,-11l3.941,0l1.457,-0.755c2.844,-1.475 6.002,-2.245 9.206,-2.245c2.117,0 4.123,0 4.123,0c0,0 3.556,0.197 6.949,3l-3.942,0c3.094,2.556 6.051,7.28 6.051,16l-5.058,0c0,6.473 -0.954,11.808 -2.693,16l-8,0c-3.171,7.647 -8.951,11.488 -16.307,11.488c-11.388,0 -17,-7.488 -17,-7.488c0,0 -3.205,-2.541 -7.108,-4l8,0c-1.572,-0.588 -3.257,-1 -4.892,-1l-2,0c-1.635,0 -3.32,0.412 -4.892,1l-8,0c-3.903,1.459 -7.108,4 -7.108,4c0,0 -5.612,7.488 -17,7.488c-7.356,0 -13.136,-3.841 -16.307,-11.488l8,0Zm-11.774,-16c0.023,-5.578 0.789,-11.068 2.727,-16l3.941,0c1.19,-3.028 2.821,-5.846 4.993,-8.345c2.33,-2.681 5.133,-4.956 8.252,-6.655l8.785,0c-0.401,0.93 -0.728,1.81 -0.728,1.81l-0.483,1.613c-6.037,1.76 -10.729,5.932 -13.714,11.577l-3.942,0c-2.402,4.542 -3.699,10.038 -3.702,16l-5.059,0c0,0.326 0.004,0.653 0.011,0.981c-0.054,5.131 0.271,10.388 2.272,15.019l-6.371,0c-0.631,-1.944 -1.112,-3.941 -1.379,-6.011c-0.424,-3.294 -0.676,-6.657 -0.662,-9.989l5.059,0Zm120.155,0c0.037,-4.054 -0.332,-5.644 -0.721,-7.895c-0.486,-2.808 -1.391,-5.57 -2.685,-8.105l3.942,0c-2.621,-5.134 -6.84,-9.338 -12.414,-11.109l-1.575,-0.459c-0.375,-1.189 -0.825,-2.333 -1.346,-3.432l8.887,0c5.905,3.249 10.178,8.611 12.789,15l-3.942,0c2,4.894 3.024,10.391 3.056,16l-5.058,0l0,0.094c0.004,1.053 -0.004,1.358 -0.007,1.875c-0.057,4.831 -0.706,9.542 -2.092,14.031l-6.47,0c1.596,-4.438 2.622,-9.289 2.562,-15.019c0.008,-0.342 0.013,-0.669 0.016,-0.981l5.058,0Zm-91.341,-46l-10,0c9.536,-7.895 23.068,-11.101 35.695,-10.997c11.796,0.163 23.819,3.866 32.547,10.997l10,0c4.451,3.636 8.045,8.163 10.316,13.566c0,0 1.403,0.658 2.417,1.19c0.152,0.08 0.304,0.161 0.454,0.244l-8.887,0c-3.15,-6.654 -8.859,-11.66 -15.847,-15l-10,0c-6.96,-3.327 -15.19,-5 -23.424,-5c-7.73,0.021 -15.712,1.559 -22.524,5l10,0c-6.011,3.037 -11.11,7.556 -14.318,13.825c-0.182,0.356 -0.37,0.77 -0.545,1.175l-8.785,0c0.897,-0.489 1.822,-0.931 2.768,-1.321c0,0 2.053,-4.479 4.228,-7.444c1.715,-2.34 3.703,-4.412 5.905,-6.235Z" style="fill-rule:nonzero;"/></g><g id="Gradient"><rect x="175" y="99" width="89" height="6" style="fill:url(#_Linear1);"/><rect x="107" y="105" width="105" height="15" style="fill:url(#_Linear2);"/><rect x="233" y="151" width="50" height="16" style="fill:url(#_Linear3);"/><rect x="106" y="167" width="23" height="16" style="fill:url(#_Linear4);"/><rect x="199" y="183" width="48" height="16" style="fill:url(#_Linear5);"/><rect x="216" y="245" width="38" height="11.8" style="fill:url(#_Linear6);"/><rect x="70" y="215" width="65" height="15" style="fill:url(#_Linear7);"/></g></g><defs><linearGradient id="_Linear1" x1="0" y1="0" x2="1" y2="0" gradientUnits="userSpaceOnUse" gradientTransform="matrix(89,0,0,6,175,102)"><stop offset="0" style="stop-color:#fff;stop-opacity:0"/><stop offset="0.5" style="stop-color:#fff;stop-opacity:0.5"/><stop offset="1" style="stop-color:#fff;stop-opacity:0"/></linearGradient><linearGradient id="_Linear2" x1="0" y1="0" x2="1" y2="0" gradientUnits="userSpaceOnUse" gradientTransform="matrix(105,0,0,15,107,112.5)"><stop offset="0" style="stop-color:#fff;stop-opacity:0"/><stop offset="0.5" style="stop-color:#fff;stop-opacity:0.75"/><stop offset="1" style="stop-color:#fff;stop-opacity:0"/></linearGradient><linearGradient id="_Linear3" x1="0" y1="0" x2="1" y2="0" gradientUnits="userSpaceOnUse" gradientTransform="matrix(50,0,0,16,233,159)"><stop offset="0" style="stop-color:#fff;stop-opacity:1"/><stop offset="1" style="stop-color:#fff;stop-opacity:0"/></linearGradient><linearGradient id="_Linear4" x1="0" y1="0" x2="1" y2="0" gradientUnits="userSpaceOnUse" gradientTransform="matrix(23,0,0,16,106,175)"><stop offset="0" style="stop-color:#fff;stop-opacity:0"/><stop offset="1" style="stop-color:#fff;stop-opacity:1"/></linearGradient><linearGradient id="_Linear5" x1="0" y1="0" x2="1" y2="0" gradientUnits="userSpaceOnUse" gradientTransform="matrix(48,0,0,16,199,191)"><stop offset="0" style="stop-color:#fff;stop-opacity:0"/><stop offset="0.5" style="stop-color:#fff;stop-opacity:0.75"/><stop offset="1" style="stop-color:#fff;stop-opacity:0"/></linearGradient><linearGradient id="_Linear6" x1="0" y1="0" x2="1" y2="0" gradientUnits="userSpaceOnUse" gradientTransform="matrix(38,0,0,11.8,216,250.9)"><stop offset="0" style="stop-color:#fff;stop-opacity:1"/><stop offset="1" style="stop-color:#fff;stop-opacity:0"/></linearGradient><linearGradient id="_Linear7" x1="0" y1="0" x2="1" y2="0" gradientUnits="userSpaceOnUse" gradientTransform="matrix(65,0,0,15,70,222.5)"><stop offset="0" style="stop-color:#fff;stop-opacity:0"/><stop offset="0.5" style="stop-color:#fff;stop-opacity:0.75"/><stop offset="1" style="stop-color:#fff;stop-opacity:0"/></linearGradient></defs></svg>