<svg xmlns="http://www.w3.org/2000/svg" xmlns:xlink="http://www.w3.org/1999/xlink" viewBox="0 0 350 350"><defs><style>.cls-1,.cls-6{fill:#fff;}.cls-2{fill:#62565a;}.cls-3{fill:url(#Unbenannter_Verlauf_558);}.cls-4{fill:url(#Unbenannter_Verlauf_615);}.cls-5{fill:url(#Unbenannter_Verlauf_689);}.cls-6{stroke:#000;stroke-miterlimit:10;stroke-width:3.5px;}</style><radialGradient id="Unbenannter_Verlauf_558" cx="14.13" cy="76.88" r="234.38" gradientUnits="userSpaceOnUse"><stop offset="0.37" stop-color="#fff"/><stop offset="0.98" stop-color="#906f79"/></radialGradient><radialGradient id="Unbenannter_Verlauf_615" cx="31.58" cy="62.79" r="232.93" gradientUnits="userSpaceOnUse"><stop offset="0.3" stop-color="#fff"/><stop offset="0.94" stop-color="#906f79"/></radialGradient><radialGradient id="Unbenannter_Verlauf_689" cx="123.59" cy="43.4" r="191.57" gradientUnits="userSpaceOnUse"><stop offset="0.57" stop-color="#fff"/><stop offset="0.94" stop-color="#906f79"/></radialGradient></defs><title>sledge</title><g id="Sledge"><g id="Background"><g id="BG_Shapes" data-name="BG Shapes"><polygon class="cls-1" points="244.91 247.87 183.63 270.38 236.25 280.75 236.5 290 59.87 290 59.87 60 290.13 60 290.13 129.83 297.83 121.33 290 182.75 278.75 182.75 282 155.63 271.38 165.25 243.25 113.63 260.81 224.24 151.63 206.88 244.91 247.87"/><polygon points="216.5 245.83 142.92 273.42 180.83 280.79 69.18 280.79 69.18 69.39 280.82 69.39 280.82 139.5 273.94 147.38 253.72 109.31 232.81 69.94 218.34 45.92 249.17 213.33 71.5 183.75 216.5 245.83"/></g><g id="Frags"><polygon class="cls-1" points="270.17 185.17 272.5 203.5 287.5 188.17 270.17 185.17"/><polygon class="cls-1" points="247.33 233 262.33 258.83 278.83 231.5 247.33 233"/><polygon class="cls-1" points="276 258.83 287.5 266.33 287.5 252 276 258.83"/><polygon class="cls-1" points="243.33 281.5 255.67 269.83 259.5 286.83 243.33 281.5"/></g><g id="Splashs"><path class="cls-2" d="M44,231.67c-.56-1-2.77-.94-3.15-.18-.25.48.23,1.3.81,1.7a1.73,1.73,0,0,0,2.07.09A1.43,1.43,0,0,0,44,231.67Z"/><path class="cls-2" d="M34.15,179.17c-.56-1-2.76-.94-3.15-.18-.24.48.24,1.3.81,1.7a1.73,1.73,0,0,0,2.07.09A1.4,1.4,0,0,0,34.15,179.17Z"/><path class="cls-2" d="M162.75,247.75c-.54-1.88-3.58-6.78-35.37-6.37-20.08.25-16.48,2.17-26.5,1.37-6.77-.54-22.52-2.55-42.38-5.87-2.6-.44-5.31-.91-5.62-.13-.86,2.07,15.86,11.58,31.5,17.75,7.21,2.85,3.94.94,20.5,6.5,7.51,2.52,12,4.19,18,3.25,2.7-.42,3.09-1,7.12-1.63a49.66,49.66,0,0,1,13.88-.5,120.53,120.53,0,0,1,15.4,2.57c.82.22,3,.82,3.47.06s-.78-2-1.37-3C158.51,257.12,163.85,251.6,162.75,247.75Zm-56.42,4.08c-.48-.4-1.74-1.45-1.5-2,.41-.92,4.73.18,5.34.34,4.56,1.18,10.19,4,9.83,5.16C119.58,256.68,111.09,255.79,106.33,251.83ZM133,258.67c-.24.55-1.77.35-2.5.16-.46-.11-1.46-.37-1.5-.83s1.2-1.39,2.33-1.17S133.22,258.16,133,258.67Z"/><path class="cls-2" d="M106.88,222.13c-3,2.18-8.86-7.09-29.13-18.88C63.22,194.8,44.56,187,40.63,186.13c-.26-.06-1.39-.28-1.38-.5,0-.38,3.1-.65,5.5-.5a21,21,0,0,1,8.75,2.62c8.38,4.49,33,12.75,44.38,16a11.4,11.4,0,0,1,3.5,1.25C107.65,208.74,109.78,220,106.88,222.13Z"/><path class="cls-2" d="M142.38,144.25a6.31,6.31,0,0,0-1.38-1.13c-5.1-3.05-29.75-27-29.75-27-14-12.25-14-12.25-17.83-16.6-.39-.43-4-3-5.75-2.85a6.3,6.3,0,0,0-1.84.83c-.56.27-.36,2.16-.36,2.16.72.57.19.75,4.78,6,1,1.1,3.21,3.82,2.5,4.88-.37.56-1.47.52-2.13.38-1.45-.33-2-1.48-3.12-2.63-1.44-1.42-4.39-3.32-6.25-2.37-1.55.78-2.18,3.47-1.37,5.12a3.64,3.64,0,0,0,1.74,1.62c6.61,3.24,35.21,33.46,42.5,36.63a6.18,6.18,0,0,1,3.13,1.63c1.65,1.9.44,4,1.5,5.37,2.25,2.85,13.73.73,15.25-5.13A8,8,0,0,0,142.38,144.25Zm-25.21-8.75c-.37.17-1.12-.75-1.34-1-3.6-4.25-16-11.18-14.83-14a2.06,2.06,0,0,1,1.67-1,3.22,3.22,0,0,1,2.33,1.33c3.8,4.29,11,7,12.17,12.5C117.25,133.73,117.59,135.3,117.17,135.5Z"/><path class="cls-2" d="M78.38,96.13c-3.21.32-4.9-6.84-9.38-9.13-.29-.15-1-.51-1.12-1.12-.15-1,1.52-2.34,2.87-2.63,4.39-.94,11.52,7.91,9.69,11.44A2.8,2.8,0,0,1,78.38,96.13Z"/><path class="cls-2" d="M59.49,76.49c-1.54.89-7.06-2.7-6.86-5.86,0-.64.29-.85.36-.9,1.21-.9,5.95,1,6.82,4.18C59.86,74.08,60.37,76,59.49,76.49Z"/><path class="cls-2" d="M103.42,104.88c-2.43-1.47-10.51-9.8-12.79-11.17a3,3,0,0,1-1-1,2.2,2.2,0,0,1-.16-2.09c.55-.82,2.18-.57,2.66-.5,6.26,1,10.45,11.59,12.67,13.13.11.08.56.37.58.79a1.23,1.23,0,0,1-1,1.08A1.28,1.28,0,0,1,103.42,104.88Z"/><path class="cls-2" d="M120.38,112.88c-6.88-3.49-8.11-8.35-12.38-10.88-.27-.16-.9-.51-1-1.12-.22-1.31,2-3.42,3.75-3.13,1.3.21,1.48,1.61,4.13,3.13,1.21.69,1.51.59,1.62.5.39-.36-.59-1.59-.69-3.75,0-.73-.08-1.85.5-2.19s1.63.34,2.32.81c6,4.07,7.83,4.1,9.06,6.94a6.75,6.75,0,0,1,.56,1.87c.53,3.91-2.65,8.41-5.69,8.5A4.31,4.31,0,0,1,120.38,112.88Z"/><path class="cls-2" d="M95.33,84.67c-1.54-3.31-10.55-10.43-13.91-12.5-.33-.2-1.24-.75-1.17-1.34s1.51-1.07,2-1.16c5.25-1,11.23,11.07,15.67,13.91.28.18,1,.64,1,1.17-.07.7-1.58,1.41-2.59,1A2.08,2.08,0,0,1,95.33,84.67Z"/><path class="cls-2" d="M90.33,84.42c-2.66-4.48-7.14-8.21-12.75-12.84-.78-.64-1.87-1.53-2.25-1.25-.6.45,1,3.57,1.17,3.92,2.59,5.07,6.39,7.48,13,11.67.44.27,1.32.82,1.58.58S91.16,85.8,90.33,84.42Z"/><path class="cls-2" d="M130.33,76.33c-.93-1.25-2.77-2.59-3.83-2a1.92,1.92,0,0,0-.75,1.42c-.27,2,1.72,4.36,3.67,4.33a2.18,2.18,0,0,0,1.75-.83C131.74,78.23,130.66,76.77,130.33,76.33Z"/><path class="cls-2" d="M217.17,104c-.13-2-1-5.48-2.84-12.33-.91-3.46-1.53-5.58-.33-7.17a3.9,3.9,0,0,1,4-1.5c2.27.82,1.39,4.69,4.5,6.83.15.1,2.31,1.56,3.33.84,1.64-1.17.25-7.89-3.16-13-1.7-2.54-3.23-3.7-2.84-5.34s2.78-3.12,4.84-3c4.13.25,6.58,6.56,7.33,8.5,1.71,4.41,1.51,7.66,1.67,11.67.63,16,6.14,22.38,2.16,26.5-1.54,1.6-4.14,2.48-5.5,1.67s-1.76,0-2.66-8.92c-.33-3.25.07-4.64-1-5s-1.92.27-2.34,1.79c-.69,2.54,0,4.92-.19,7.43-1.24,15.6-6.65,2.95-8.14,1.9C214.83,114,217.57,110.46,217.17,104Z"/><path class="cls-2" d="M243.67,71.33a2.42,2.42,0,0,0-2.84-.5c-1.15.8-1,3.3.34,4.17a2.28,2.28,0,0,0,2.66-.17A2.54,2.54,0,0,0,243.67,71.33Z"/><path class="cls-2" d="M118.83,61.83c-.63-.37-2.61.59-2.5,2,.08,1,1.17,1.85,1.84,1.67C119.23,65.22,119.61,62.29,118.83,61.83Z"/><path class="cls-2" d="M104.5,50.83c-.8-.64-2.14-1-2.67-.5s0,2.14.84,3,2.27,1.35,2.83.84S105.64,51.76,104.5,50.83Z"/><path class="cls-2" d="M271.33,72c-.82,0-1.67,2-1.83,3.5-.09.9-.08,2.85.83,3.17.7.24,1.69-.55,2.17-1.34C273.71,75.33,272.36,72.06,271.33,72Z"/><path class="cls-2" d="M142.5,94c-.56.64-4.66-2.63-5.67-1.67-.49.48,0,1.73.17,2.17,1.37,3.45,4.72,5.21,9.5,7.83,7.75,4.26,8.92,5.12,9.67,4.5,1.48-1.22-1-6.44-2-8.66-2.9-6.18-7.38-9.9-16.34-17.34-.46-.38-1.3-1.07-1.66-.83-.78.51.86,5,3.16,8.83C141.13,91.78,142.89,93.56,142.5,94Z"/></g><g id="whitegrey_spikes" data-name="whitegrey spikes"><polygon class="cls-3" points="47.75 200.5 162.01 266.26 216.5 245.83 119.1 204.13 47.75 200.5"/><polygon class="cls-4" points="249.17 213.33 231.43 117.02 165.25 40.75 197.5 163.75 40 120.75 136.5 194.57 249.17 213.33"/><polygon class="cls-5" points="259.67 61.75 290.13 129.83 273.94 147.38 253.72 109.31 259.67 61.75"/></g><polygon class="cls-1" points="251.76 105.74 232.48 69.39 218.41 46.03 218.34 45.92 231.85 119.29 251.76 105.74"/></g><g id="Icon"><polygon class="cls-6" points="196.5 102.33 64.5 236.33 66.36 272.19 217.17 122.5 196.5 102.33"/><rect class="cls-1" x="59.87" y="217.17" width="9.31" height="62.5"/><path class="cls-6" d="M230.63,155.76l-.24,12.49-22,22.4L196,192.36l-77-73.61,19.05-18a22.44,22.44,0,0,0,36.18.78Z"/></g></g></svg>