<?xml version="1.0" encoding="UTF-8" standalone="no"?><!DOCTYPE svg PUBLIC "-//W3C//DTD SVG 1.1//EN" "http://www.w3.org/Graphics/SVG/1.1/DTD/svg11.dtd"><svg width="100%" height="100%" viewBox="0 0 350 350" version="1.1" xmlns="http://www.w3.org/2000/svg" xmlns:xlink="http://www.w3.org/1999/xlink" xml:space="preserve" xmlns:serif="http://www.serif.com/" style="fill-rule:evenodd;clip-rule:evenodd;stroke-linejoin:round;stroke-miterlimit:1.41421;"><g id="Smoke"><g id="BackPlate"><path d="M177.419,60c4.402,-5.492 11.094,-9 18.581,-9c5.12,0 9.867,1.64 13.765,4.433c7.027,-5.294 15.768,-8.433 25.235,-8.433c19.836,0 36.479,13.781 40.868,32.283c7.256,4.168 12.132,11.889 12.132,20.717c0,0.902 -0.051,1.792 -0.15,2.668c6.799,5.501 11.15,13.913 11.15,23.332c0,7.874 -3.04,15.044 -8.01,20.398c0.656,2.084 1.01,4.302 1.01,6.602c0,3.272 -0.716,6.379 -2,9.171l0,127.829l-230,0l0,-230l117.419,0Z" style="fill:#fff;"/><path d="M178,70l1.58,0c3.149,-7.627 10.662,-13 19.42,-13c4.851,0 9.32,1.649 12.877,4.416c6.257,-5.252 14.323,-8.416 23.123,-8.416c17.715,0 32.459,12.823 35.447,29.686c6.67,2.11 11.553,8.843 11.553,16.814c0,1.442 -0.16,2.843 -0.461,4.184c6.873,4.399 11.461,12.304 11.461,21.316c0,8.397 -3.983,15.833 -10.087,20.368c1.326,2.236 2.087,4.846 2.087,7.632c0,2.738 -0.735,5.306 -2.019,7.516l-0.004,0.007l-0.047,0.08l-0.048,0.082l-0.002,0.003c-0.781,1.304 -1.754,2.48 -2.88,3.488l0,0.001c-2.655,2.377 -6.16,3.823 -10,3.823c-2.731,0 -5.293,-0.732 -7.5,-2.009l-3.5,6.062c3.237,1.874 6.994,2.947 11,2.947c3.6,0 6.999,-0.867 10,-2.402l0,107.402l-210,0l0,-210l91.394,0c-5.738,4.771 -9.394,11.962 -9.394,20l6,0c0,-11.038 8.962,-20 20,-20Z"/><path d="M270,270l-190,0l0,-90.965c2.861,-1.917 6.301,-3.035 10,-3.035c1.379,0 2.721,0.155 4.012,0.45c0.288,-6.921 5.998,-12.45 12.988,-12.45c3.95,0 7.49,1.765 9.875,4.549c-2.644,-7.315 -9.653,-12.549 -17.875,-12.549c-4.349,0 -8.359,1.464 -11.563,3.927c-1.899,-2.642 -4.459,-4.777 -7.437,-6.163l0,-15.009c1.971,-1.541 4.397,-2.527 7.042,-2.72c0.489,-5.62 5.212,-10.035 10.958,-10.035c1.042,0 2.05,0.145 3.005,0.416c2.932,-3.321 7.221,-5.416 11.995,-5.416l47,0l0,-26c0,-9.383 7.617,-17 17,-17c2.525,0 4.923,0.552 7.078,1.541c-0.051,-0.506 -0.078,-1.021 -0.078,-1.541c0,-8.279 6.721,-15 15,-15c5.257,0 9.886,2.71 12.565,6.808c5.889,-5.465 13.775,-8.808 22.435,-8.808c16.061,0 29.458,11.499 32.399,26.706c5.575,1.847 9.601,7.104 9.601,13.294c0,1.941 -0.396,3.791 -1.112,5.472c6.611,3.539 11.112,10.512 11.112,18.528c0,7.452 -3.89,14.002 -9.748,17.73c1.71,1.939 2.748,4.484 2.748,7.27c0,5.388 -3.882,9.877 -9,10.818l0,7.182c-2.731,0 -5.293,-0.732 -7.5,-2.009l-3.5,6.062c3.237,1.874 6.994,2.947 11,2.947l0,15.222c-4.539,2.214 -8.478,5.47 -11.504,9.457c-4.182,-3.542 -9.591,-5.679 -15.496,-5.679c-11.004,0 -20.289,7.422 -23.116,17.529c3.053,-4.54 8.238,-7.529 14.116,-7.529c8.434,0 15.442,6.156 16.773,14.216c1.055,-0.143 2.133,-0.216 3.227,-0.216c6.145,0 11.753,2.314 16,6.118l0,45.882Z" style="fill:#906f79;"/><g id="Trails"><path d="M197,73l-48,59l-61,91l64,-80l45,-70Z" style="fill:#fff;"/><path d="M231,70l-32,34l5,4l27,-38Z" style="fill:#fff;"/><path d="M259,113l-22,21l-20,23l23,-20l19,-24Z" style="fill:#fff;"/><path d="M276,117l-31,32l-33,27l34,-34l30,-25Z" style="fill:#fff;"/><path d="M235,172l36,-27l-29,27l-43,35l36,-35Z" style="fill:#fff;"/></g><path d="M182.731,270l-102.731,0l0,-30.68c4.071,3.118 10.542,7.355 16,7.68c8.71,0.519 14.545,0.635 26,-6c11.455,-6.635 41.973,-17.389 20,-49c-21.973,-31.611 -2.05,-48.532 34,-46c36.05,2.532 49,23 49,23c0,0 4.056,14.119 4.071,29.459c-4.399,3.142 -7.694,7.732 -9.187,13.07c2.108,-3.135 5.233,-5.53 8.9,-6.712c-1.735,15.804 -12.049,32.106 -16.784,36.183c-5.017,4.32 -19.199,16.244 -23,20c-2.026,2.001 -4.448,5.845 -6.269,9Z" style="fill:#fff;fill-opacity:0.2;"/><rect x="60" y="60" width="230" height="230" style="fill:url(#_Radial1);"/></g><g id="SmokeMask"><path d="M175,81c0.158,0.013 57,4.548 57,59c0,6.741 -1.465,13.321 -5,25c-3.894,12.866 -4,28 -4,28l-18,12l0,7l10,11l-21,20l-5,-5l-7,7l-7,-6l-7,6l-7,-7l-5,5l-21,-20l10,-11l0,-7l-18,-12c0,0 -0.106,-15.134 -4,-28c-3.535,-11.679 -5,-18.259 -5,-25c0,-54.434 56.804,-58.984 57,-59Zm7,129l-7,-15l-7,15l14,0Zm-39.957,-49.673c-0.803,8.129 -0.394,17.47 6.456,21.646c5.252,3.201 12.139,3.12 14.283,-3.205c0.791,-2.332 1.107,-4.813 1.217,-7.287l0.002,-0.046c-7.311,-3.782 -14.588,-7.629 -21.933,-11.345c-0.071,-0.035 -0.016,0.158 -0.025,0.237Zm65.914,0c0.803,8.129 0.394,17.47 -6.456,21.646c-5.252,3.201 -12.139,3.12 -14.283,-3.205c-0.791,-2.332 -1.107,-4.813 -1.217,-7.287l-0.002,-0.046c7.311,-3.782 14.588,-7.629 21.933,-11.345c0.071,-0.035 0.016,0.158 0.025,0.237Z"/><path d="M175,233l-6.791,6.552l-7.209,-7.209l-5.068,5.068l-15.343,-14.612l8.411,-9.253l0,-10.687l-18.058,-12.038l-0.01,-0.255c-0.429,-10.113 -2.195,-20.149 -5.033,-29.844c-0.731,-2.497 -1.433,-5.004 -2.05,-7.532c-2.9,-11.861 -2.379,-24.963 2.669,-36.383c8.178,-18.499 28.149,-29.502 48.277,-31.767c0.068,-0.007 0.137,-0.015 0.205,-0.022l0.205,0.022c20.128,2.265 40.099,13.268 48.277,31.767c5.048,11.42 5.569,24.522 2.669,36.383c-0.617,2.528 -1.319,5.035 -2.05,7.532c-2.838,9.695 -4.604,19.731 -5.033,29.844l-0.01,0.255l-18.058,12.038l0,10.687l8.411,9.253l-15.343,14.612l-5.068,-5.068l-7.209,7.209l-6.791,-6.552Zm0,-47l-14,28l28,0l-14,-28Zm-7,-17l-29,-15c0,0 -8.192,34 18,34c12.089,0 11,-19 11,-19Zm14,0l29,-15c0,0 8.192,34 -18,34c-12.089,0 -11,-19 -11,-19Z" style="fill:#fff;"/><g id="FilterL"><path d="M128.818,217.463c2.485,-2.485 12.164,3.157 21.6,12.593c9.435,9.436 15.078,19.114 12.592,21.6c0,0 -12.592,12.592 -12.592,12.592c-5.47,5.47 -17.572,2.251 -27.008,-7.185c-9.435,-9.435 -12.655,-21.537 -7.185,-27.007l12.593,-12.593Z" style="fill:#fff;"/><path d="M118.92,227.361l9.898,-9.898c2.485,-2.485 12.164,3.157 21.6,12.593c9.435,9.436 15.078,19.114 12.592,21.6l-9.898,9.898c0,0 -2.694,2.694 -2.694,2.694c-5.47,5.47 -17.572,2.251 -27.008,-7.185c-9.435,-9.435 -12.655,-21.537 -7.185,-27.007l2.695,-2.695c0,0 0,0 0,0Zm0.863,4.794l-0.722,0.722c-3.072,3.106 -1.264,8.093 0.152,11.335c4.343,9.937 14.167,19.022 24.288,18.696c1.47,-0.047 3.022,-0.433 4.096,-1.496l0.722,-0.722c-1.734,-4.388 -6.107,-10.514 -12.064,-16.471c-5.958,-5.957 -12.083,-10.331 -16.472,-12.064Zm4.667,-4.667c4.388,1.734 10.514,6.107 16.471,12.064c5.957,5.958 10.331,12.083 12.064,16.472l6.541,-6.541c-0.756,-3.367 -3.151,-6.365 -5.46,-9.323c-5.919,-7.579 -12.819,-14.946 -21.544,-18.685c-0.6,-0.257 -1.532,-0.528 -1.532,-0.528l-6.54,6.541Z"/></g><g id="FilterR"><path d="M221.182,217.463c-2.485,-2.485 -12.164,3.157 -21.6,12.593c-9.435,9.436 -15.078,19.114 -12.592,21.6c0,0 12.592,12.592 12.592,12.592c5.47,5.47 17.572,2.251 27.008,-7.185c9.435,-9.435 12.655,-21.537 7.185,-27.007l-12.593,-12.593Z" style="fill:#fff;"/><path d="M231.08,227.361l-9.898,-9.898c-2.485,-2.485 -12.164,3.157 -21.6,12.593c-9.435,9.436 -15.078,19.114 -12.592,21.6l9.898,9.898c0,0 2.694,2.694 2.694,2.694c5.47,5.47 17.572,2.251 27.008,-7.185c9.435,-9.435 12.655,-21.537 7.185,-27.007l-2.695,-2.695c0,0 0,0 0,0Zm-0.863,4.794l0.722,0.722c3.072,3.106 1.264,8.093 -0.152,11.335c-4.343,9.937 -14.167,19.022 -24.288,18.696c-1.47,-0.047 -3.022,-0.433 -4.096,-1.496l-0.722,-0.722c1.734,-4.388 6.107,-10.514 12.064,-16.471c5.958,-5.957 12.083,-10.331 16.472,-12.064Zm-4.667,-4.667c-4.388,1.734 -10.514,6.107 -16.471,12.064c-5.957,5.958 -10.331,12.083 -12.064,16.472l-6.541,-6.541c0.756,-3.367 3.151,-6.365 5.46,-9.323c5.919,-7.579 12.819,-14.946 21.544,-18.685c0.6,-0.257 1.532,-0.528 1.532,-0.528l6.54,6.541Z"/></g></g></g><defs><radialGradient id="_Radial1" cx="0" cy="0" r="1" gradientUnits="userSpaceOnUse" gradientTransform="matrix(115,0,0,115,175,175)"><stop offset="0" style="stop-color:#fff;stop-opacity:0.25"/><stop offset="0.51" style="stop-color:#fff;stop-opacity:0.25"/><stop offset="0.8" style="stop-color:#fff;stop-opacity:0"/><stop offset="1" style="stop-color:#fff;stop-opacity:0"/></radialGradient></defs></svg>