<svg xmlns="http://www.w3.org/2000/svg" xmlns:xlink="http://www.w3.org/1999/xlink" viewBox="0 0 350 350"><defs><style>.cls-1,.cls-5{fill:#fff;}.cls-2{fill:#c35b59;}.cls-3{opacity:0.6;fill:url(#Unbenannter_Verlauf_12);}.cls-4{fill:#f9f7f7;}.cls-5{stroke:#000;stroke-miterlimit:10;stroke-width:3px;}</style><radialGradient id="Unbenannter_Verlauf_12" cx="175" cy="175" r="96" gradientUnits="userSpaceOnUse"><stop offset="0.57" stop-color="#aa1512"/><stop offset="1" stop-color="#3a6082" stop-opacity="0"/></radialGradient></defs><title>tachanka</title><g id="Tachanka"><g id="Background"><g id="BG_Colors" data-name="BG Colors"><rect class="cls-1" x="59.87" y="60" width="230.26" height="230"/><rect x="69.18" y="69.39" width="211.64" height="211.4"/><rect class="cls-2" x="78.75" y="79" width="192.25" height="192"/><rect class="cls-3" x="79" y="79" width="192" height="192"/></g><g id="Splatter"><polygon points="294.63 260.79 271.56 251.66 271.75 128 294.63 89 294.63 260.79"/><path d="M230,101.83c7.17-8.67,28.7-14.41,31.5-16a4,4,0,0,1,1.5-.5c.88-.09,2.14.1,2.33.5,1.07,2.23-27.57,15.48-33.08,17.92-1,.45-3.23,1.41-3.67.83S229.53,102.4,230,101.83Z"/><path d="M197.75,98.58c-.35-1.28,3.53-4.36,7.92-5.08,3.91-.65,5.44,1,7.91-.5,1.44-.89,2-2.12,3.92-2.58,1.05-.25,2.76-.34,3,.25.55,1.34-6.88,5.41-12,7.58a15.53,15.53,0,0,1-8.67,1.25C198.89,99.34,197.91,99.15,197.75,98.58Z"/><path d="M225.58,216.08s-9.41-6.91,3.09-4.91,47.66,2,47.66,2-.58-75.59-2.83-76.42-8.94,16.81-9.12,18.63-7.76,1.68-7.76,1.68-9.5-.62-10.18-1.68-11.75-.69-13.88-.94a3.55,3.55,0,0,1-3.18-1.88c-.76-1,10.43-2.25,9.62-2.31s5.75-2.06,7.94-2.56,2.18-5.19,2.18-6.44-2.5-.81-4.06-1.25-3.44,3.19-4.94,4.25-15.56,0-16.37-.37-8.44-2.13-10.31-2.07-15.25-1.81-15.06-2.69-5.19-4.37-6.57-4.5-.56-1.93-.93-2.43,4.06-.44,4.87-1.13-1.19-1.62-2.44-1.81-.93-1-.19-2.37,14.13-.26,14.13-.26,3.56.07,3.75-1.37-1.25-1.06-2.31-1.13-5.25-1.06-5.81-2-8.5-.18-9.76-.06-2.06-2.06-2.74-2.62.37-1.75,1.43-2.56,1.57.43,2.31.87,8.94-1.69,10.76-2.13,2.18-1.5,1.43-2.18-2.43.5-4,.81-22.81,0-22.81,0c-1.25,0-1.12,2,.12,2.63s2,.87,1.38,4.12-6.88,3.88-6.88,3.88-16.62.5-16.62,3.24S137,133.25,135.75,134s-4.22-.72-5.66-1.31-1.33-10-2.25-10.47-2.76,7.78-2.84,9.61-7.75.09-10.5,0-2.08,2.09-3.08,4.75,4.91,1.09,7.08,2.5,1.08,2.42.67,3.25-13.92,7.25-23.17,7.09a122.39,122.39,0,0,1-20-2.5l-3.38,1.2-.74,54.63s-.63,15.5,3.56,15.75,4.73-5.44,5.6-7.19,6,1.88,9,1.86,1.67-2.23,4.09-2.46,4.58,4,7,4.29.38-1.88,4-3.12,12.63,2.5,16.63,2.74,8.75,6,11.5,6.76,3.63-1,2.13-2-2-4.13-1.76-6.13,14.26-.25,15.13-2.13,23.13-.24,32.13-.24,23.45,3,23.45,3c5.93.86,22.95,6.58,24.67,7.16,2,.69,12.42,2.67,12.92.5S225.58,216.08,225.58,216.08Zm7.75-55.41a7.25,7.25,0,0,1,8.5-3.17c.46.19,1.11.45,1.17.92s-.75,1.1-5.75,3.33c-2.95,1.32-3.85,1.65-4.25,1.25C232.45,162.44,233.24,160.85,233.33,160.67ZM120.44,147.12a1.14,1.14,0,0,1-.82-1.31,1.05,1.05,0,0,1,.82-.87,1.07,1.07,0,0,1,1.12.94A1.12,1.12,0,0,1,120.44,147.12ZM123.09,208c-.19,0-1.48-.1-1.62-.66s.84-1.38,1.84-1.56c1.24-.22,2.65.56,2.63,1.16S124.36,208.09,123.09,208Zm15.41,2.41c-3.06.09-6.73-.27-6.75-.82s2.58-1,4.41-1.15c4.07-.41,8.2.42,8.18,1S140.64,210.34,138.5,210.41Zm79.67,1.76a1.42,1.42,0,0,1-1.17.91,1.36,1.36,0,0,1-1.42-.79c-.28-.88,1-2.17,1.84-1.91A1.45,1.45,0,0,1,218.17,212.17Z"/><path d="M89.63,139.63c.08-3.58,5.21-5.81,7.37-6.75,1-.42,2.33-1,2.63-.63s-1.38,2.48-2.88,4.13c-2.48,2.72-5.25,5.78-6.5,5.12C89.59,141.15,89.62,139.91,89.63,139.63Z"/><path d="M107.25,124.88c1.8-4.51,6.24-4.75,10.88-8.5a2.1,2.1,0,0,1,1.62-.63c1.07.22,2,2,1.63,3.25s-1.9,1.12-4.88,2.75c-2.27,1.25-2.44,1.94-6.25,4.25-2,1.2-2.86,1.58-3.25,1.25S107.08,125.29,107.25,124.88Z"/><path d="M161.5,121.25c4-3.49,7.59-1.93,9.75-4.87,1.22-1.67.73-3,2.38-4.13.91-.6,2.48-1.11,3.5-.37s1.15,2.51.62,3.75c-.84,2-2.93,1.48-6.75,3.75-2.95,1.74-2.78,2.66-5.5,3.87-2.43,1.09-5.57,1.69-6,.88S161.23,121.48,161.5,121.25Z"/><path d="M215.13,109.38a3,3,0,0,0-4.63,0,2.85,2.85,0,1,0,4.63,0Z"/><path d="M206.88,110.79a.9.9,0,0,0-1,.71c0,.56,1.21,1.08,1.54.79A1.09,1.09,0,0,0,206.88,110.79Z"/><path d="M142.33,214.58a33.85,33.85,0,0,0,7.25,1.17,20.4,20.4,0,0,0,4.34-.25c1.34-.22,2.57-.43,2.58-.75,0-.58-3.8-1.48-7.42-1.42A21.19,21.19,0,0,0,142.33,214.58Z"/><path d="M121.5,219.67a1.59,1.59,0,0,0-2.08-1.09,1.39,1.39,0,0,0-.5,1.84C119.46,221,121.44,220.34,121.5,219.67Z"/><path d="M113.58,216.25c-.25.45.08,1.14.42,1.5.93,1,2.66.29,2.75.25.53-.22,1.52-.82,1.42-1.33C118,215.72,114.19,215.18,113.58,216.25Z"/><path d="M251.54,236.5c1.47-2.07,6.75-.41,7.79-.08a8.74,8.74,0,0,1,4.3,2.91c.15.24.51.79.33,1s-.54.2-1.79-.21c-2.45-.81-2.83-1.52-4.29-1.75a17.64,17.64,0,0,0-2.59.16c-3.08.2-3.68.11-4-.29A1.72,1.72,0,0,1,251.54,236.5Z"/><path d="M160.08,242.17c-.65.52,1.08,2.69,1.45,7.14a3.32,3.32,0,0,0,.22,1.11c.89,2.26,4.43,3.65,5.58,2.66s-.52-5-.66-5.25C164.83,244,160.91,241.51,160.08,242.17Z"/><path d="M118.83,268.75c-4.94-1.52-13.61-13.67-21.75-24.58-2.15-2.9-2.84-3.78-4.25-4.75-4.13-2.86-12.06-4.78-16.83-.25-5.35,5.08-3,14.73,1.33,18.91,1.27,1.23,2.93,1.93,6.25,3.34a40,40,0,0,0,12.67,3.33c6.84.55,6.72-1.53,10.33-.33,5.42,1.8,7.12,6.95,11.42,6.41.88-.11,2.57-.54,2.58-1.08S119.16,268.85,118.83,268.75ZM93.5,260.42c-.3.34-.74.37-1.33.41-3.28.23-5.81-2.89-9-6.83-1.1-1.35-1.55-2.07-1.42-2.92a3.61,3.61,0,0,1,3.92-2.58A4,4,0,0,1,88,250.25C91.32,254.54,94.77,259,93.5,260.42Z"/><path d="M105.5,267.25a1.14,1.14,0,0,1,.75-1.33c.79-.18,1.65,1.12,1.42,1.58S105.78,268,105.5,267.25Z"/></g></g><g id="Symbol"><g id="Weapon"><path class="cls-1" d="M185.38,205.69l-.07-19.19,22,.25,9.6-6.53,21.65-.06,6.72,5.06h21.47V162.38l-21.13-.13-5.5,4.75h-23l-9.62-5h-22V141.88h-7.12l-6.13,10.37H76v47.13l59.69.06,8.75-7.82,11.5-.06,7.25,14.13m-1.13-38.25H91.12v-5.06h70.94Zm26.88,13.68-.94,1.07h-2.81l-1.13-1.07V167.06l1.06-1.94h2.69l1.13,1.44Zm8.94,0-.94,1.07h-2.82L193,181.12V167.06l1.06-1.94h2.69l1.13,1.44Zm8.81.13-.94,1.06h-2.81l-1.13-1.06V167.19l1.07-1.94h2.68l1.13,1.44Z"/><polygon class="cls-4" points="269 154.5 283.75 121.75 281 153.88 305.25 134.5 281.63 173.66 302.88 204.63 280.63 191.5 282.38 222.57 269 192.38 273.63 193 274.25 182.19 284.38 186.75 275.25 173.66 286.13 157.1 274.5 165.88 276.33 153 269 157.1 269 154.5"/></g><g id="Mount"><polygon class="cls-1" points="67.33 250.67 175.01 212.83 287.63 258.13 285.63 265.63 175.01 221.88 67.33 259.63 67.33 250.67"/><circle class="cls-5" cx="174.75" cy="218.57" r="12.87"/></g><g id="Bullets"><rect class="cls-1" x="137" y="136.86" width="22.45" height="7.14"/><rect class="cls-1" x="140.67" y="120.93" width="22.45" height="7.14" transform="translate(-29.16 48.4) rotate(-16.54)"/><rect class="cls-1" x="134.12" y="106.21" width="22.45" height="7.14" transform="translate(-35.42 87.38) rotate(-30)"/><rect class="cls-1" x="124.17" y="86.65" width="22.45" height="7.14" transform="translate(-20.08 42.28) rotate(-16.54)"/><rect class="cls-1" x="53.29" y="47.43" width="22.45" height="7.14" transform="translate(-16.86 39.09) rotate(-30)"/><rect class="cls-5" x="116.34" y="63.8" width="29.51" height="9.39" transform="translate(-10.03 112.76) rotate(-45)"/><rect class="cls-5" x="98.91" y="57.23" width="29.51" height="9.39" transform="translate(-5.89 111.54) rotate(-51.12)"/><rect class="cls-5" x="75.72" y="50.94" width="29.51" height="9.39" transform="translate(-12.84 80.27) rotate(-45)"/></g></g></g></svg>