<svg xmlns="http://www.w3.org/2000/svg" xml:space="preserve" style="enable-background:new 0 0 350 350" viewBox="0 0 350 350"><switch><g><path d="M45 45h260v260H45z" style="opacity:.4"/><path d="M73 73h204v204H73z" style="fill:#8a8b3a"/><path d="M277 81.917 81.5 253.375c7.433-4.348 15.078-8.696 15.333-8.292.099.157-.942.974-1.292 1.25-3.909 3.092-13.208 11.237-27.134 23.697l27.898-14.544-35.594 32.974 22.847-11.448 6.517-.021-7.554 7.633 21.59-11.403 21.528-15.583L277 164V81.917z"/><path d="M239.7 232.012c0-.722.005-1.862.029-3.262.104-6.006.415-7.69.764-9 .236-.889.539-1.999 1.25-3.333 1.019-1.913 2.237-3.083 2.729-3.563 2.169-2.117 7.183-7.388 14.063-14.604 5.236-19.699 6.946-36.177 7.5-47.75.388-8.098.706-15.488-.583-25.417-1.039-7.998-3.026-22.234-11.884-37.963-2.506-4.448-7.618-12.669-16.228-21.12-3.088-3.031-9.741-9.474-19.722-14.889-17.688-9.597-34.479-9.811-42.785-9.819-8.323-.009-25.219.17-43 9.819-9.983 5.417-16.639 11.863-19.722 14.889-8.609 8.451-13.721 16.672-16.227 21.121-8.858 15.728-10.846 29.965-11.884 37.962-1.289 9.929-.971 17.318-.583 25.417.554 11.573 2.264 28.051 7.5 47.75 6.88 7.216 11.894 12.487 14.063 14.604.492.48 1.71 1.65 2.729 3.563.711 1.334 1.014 2.445 1.25 3.333.349 1.31.66 2.994.764 9 .024 1.4.029 2.54.029 3.262l-27.043-18.179 26 56.125a96.348 96.348 0 0 0 3.198 5.648c1.267 2.075 17.223 24.535 39.136 55.123l4.208-39.229h38.951l4.208 39.229c21.913-30.588 37.869-53.048 39.136-55.123a98.465 98.465 0 0 0 3.198-5.648l26-56.125-27.044 18.179z"/><path d="M242.869 89.889c-.952-1.607-4.612-7.655-10.778-14.5-4.314-4.79-10.523-11.567-20.62-17.169-9.355-5.19-18.425-7.362-25.464-8.247a257.176 257.176 0 0 0-3.654 15.864 253.874 253.874 0 0 0-1.632 9.157 212.38 212.38 0 0 0-2.333 23.396c-.881 19.271-3.068 86.056-3.444 86.056-.371-.001-2.116-64.884-3.568-85.935a273.833 273.833 0 0 0-2.674-23.516 248.845 248.845 0 0 0-1.632-9.157 257.176 257.176 0 0 0-3.654-15.864c-7.038.885-16.109 3.057-25.464 8.247-10.097 5.602-16.305 12.38-20.62 17.169-6.166 6.845-9.826 12.893-10.778 14.5-12.542 21.174-12.292 43.434-12.144 56.529.116 10.261 1.354 18.907 2.089 23.916a205.39 205.39 0 0 0 4.889 23.611 135.328 135.328 0 0 0 12.361 16.306 19.605 19.605 0 0 1 1.765 2.825s1.452 2.836 2.034 6.571c.589 3.779.89 13.789.174 27.132l-15.611-10.278 12.111 27.056 4.556 6.722L145.097 305l6.181-76.167a10.041 10.041 0 0 0-.218-1.663s-.41-1.886-1.63-3.731c-11.084-16.761-23.744-19.039-23.744-19.039a28.075 28.075 0 0 0-6.297-.401l-13.944-57.5 19.5 16.444 33.167 6.694v38.556l16.314 5.179v.183l.287-.091.288.091v-.183l16.314-5.179v-38.555l33.167-6.694 19.5-16.444-9.342 38.611 12.833-10.472-14.821 18.884-1.721 7.144 8.403-2.5-35.938 29.292 8.493-.792-13.833 9.611a29.511 29.511 0 0 0-.583 5.718c-.007 1.68.131 2.862.611 6.65.376 2.97.694 5.421.917 7.132a6653.184 6653.184 0 0 0-23.667 14.5l24.889-3 4.069 35.139L230.334 270l4.869-6.444 12.111-27.056-15.611 10.278c-.716-13.343-.415-23.352.174-27.132.582-3.735 2.034-6.571 2.034-6.571a19.548 19.548 0 0 1 1.765-2.825 135.291 135.291 0 0 0 12.361-16.306 205.39 205.39 0 0 0 4.889-23.611c.734-5.009 1.973-13.655 2.089-23.916.146-13.095.397-35.354-12.146-56.528z" style="fill:#fff"/><path d="m290.292 194.5-2.708 4.333c-1.064 2.215-1.176 4.017-1.125 5.125.176 3.833 2.648 7.085 4.106 9.002.706.929 1.338 1.914 2.06 2.831.921 1.169 1.278 1.504 1.417 2.167.226 1.083-.328 2.1-1.125 3.25-1.44 2.077-2.792 3.314-4.557 4.986-2.344 2.221-3.545 3.364-4.985 4.93-1.489 1.621-2.233 2.431-2.917 3.417-1.864 2.689-3.567 6.494-4.944 7.554a5.389 5.389 0 0 1-1.99.939 4.56 4.56 0 0 1-.351.056 11.476 11.476 0 0 0-.935-.125l-.068-.006c-.318-.03-.753-.07-1.251-.07-.707 0-1.358.08-1.99.246-1.562.408-3.019 1.386-4.329 2.907-.992 1.151-1.491 2.131-1.822 2.78-.043.085-.085.168-.129.251-.288.317-1.214 1.081-2.111 1.821-1.641 1.354-2.32 1.915-3.405 2.504-1.021.555-1.503.806-2.204.934-.39.072-.759.139-1.055.139a.948.948 0 0 1-.335-.047c-.266-.147-1.054-.996-1.688-1.679-.337-.363-.416-.471-.609-.731a23.762 23.762 0 0 0-1.32-1.642c-.862-.995-1.436-1.563-1.991-2.113-.513-.508-.997-.987-1.838-1.948-.595-.679-.914-1.079-1.233-1.649a7.658 7.658 0 0 1-.502-1.093l-2.15-5.86-5.249 3.378c-1.277.822-2.536 1.283-3.74 1.371a7.573 7.573 0 0 1-.562.019c-.598 0-1.128-.055-1.446-.089-.666-.069-1.236-.178-1.84-.292-1.04-.197-2.218-.421-3.733-.421-.384 0-.779.015-1.174.044-.616.045-1.216.122-1.782.229-1.535.29-4.103.774-6.259 2.945-1.621 1.632-2.186 3.399-2.428 4.154-.155.485-.25.905-.312 1.272-.989.071-2.115.347-3.715.903a38.473 38.473 0 0 0-2.497.962 80.957 80.957 0 0 0-3.706 1.706l-.065.032a125.897 125.897 0 0 0-4.752 2.27c-4.164 2.098-7.024 3.829-13.299 7.657a6817.673 6817.673 0 0 0-10.067 6.152 214.52 214.52 0 0 0 12.333-1.125c6.715-.81 10.072-1.215 12.248-2.081.353-.141 3.016-1.211 5.794-1.752 0 0 2.195-.427 4.575-.384.337.006.547.022.687.032 1.24.089 2.239.436 3.042.715.422.147.743.276 1.082.414.905.367 1.931.782 3.569.946.419.042.836.063 1.241.063.921 0 1.802-.11 2.621-.326 1.608-.425 2.627-1.124 3.526-1.741l.188-.129c1.722-1.177 2.444-1.664 3.023-1.901.474-.195.761-.306 1.137-.314h.007s.554-.001 1.092.085c1.24.197 2.555 1.444 2.556 1.444 1.163 1.102 3.822 3.094 7.668 5.85.55.345 1.372.828 2.416 1.317 1.454.681 2.688 1.259 4.389 1.417.693.064 1.729.15 3-.222a7.236 7.236 0 0 0 2.75-1.528 3.14 3.14 0 0 1 1.028.722c.316.34.361.55.667.833.339.315.687.43 1.167.583 1.24.396 1.859.594 2.071.637 2.815.576 6.948 2.482 13.311 3.224 4.129.481 6.011.1 6.59-.028a15.649 15.649 0 0 0 4.722-1.917c2.686-1.641 4.139-3.651 5.978-6.249a38.062 38.062 0 0 0 3.656-6.415l.029-.08c.119-.327.318-.875.704-1.541.582-1.004 1.187-1.583 1.254-1.645.194-.182.267-.235 1.684-1.049l.346-.199c4.506-2.591 5.737-3.415 6.944-4.388 1.105-.89 1.95-1.636 2.766-2.584.496-.577 1.445-1.694 2.177-3.23.909-1.905 1.075-3.596 1.17-4.662.595-6.664.958-12.272 1.125-15 .009-2.583.325-4.602.625-6 .266-1.241.533-2.056.542-3.458.005-.781-.001-2.249-.708-3.958-.165-.4-.871-2.025-2.51-3.489-.335-.299-1.058-.763-2.49-1.678-2.271-1.451-2.319-1.417-3.625-2.292a57.703 57.703 0 0 1-2.906-2.076c-.155-.118-.304-.234-.601-.465-2-1.557-2.261-1.834-2.41-2-.275-.308-.696-.786-1.027-1.514-.415-.913-.45-1.691-.473-1.903-.103-.968-1.28-2.407-6.04-4.46z" style="fill:#fff"/><path d="M239.667 245.292c.166.452.429 1.09.833 1.812.552.986 1.116 1.68 1.833 2.5 1.859 2.124 2.291 2.285 3.812 4.042 1.231 1.421 1.023 1.402 2.042 2.5 1.539 1.659 2.332 2.514 3.688 2.993 1.56.551 2.977.291 3.958.111 1.514-.278 2.541-.835 3.688-1.458 1.51-.82 2.448-1.594 4.201-3.042 1.826-1.507 2.738-2.26 3.222-3.111.394-.693.635-1.394 1.444-2.333.913-1.06 1.554-1.268 1.806-1.333.519-.136 1.069-.075 1.583-.028.627.058.784.155 1.347.16.104.001.442.001 1.271-.146.922-.163 1.383-.245 1.938-.458a6.955 6.955 0 0 0 1.75-1 8.525 8.525 0 0 0 1.5-1.472c.259-.313.576-.697.889-1.25.405-.716.465-1.112.806-2.028.314-.845.607-1.433.944-2.111a24.29 24.29 0 0 1 1.611-2.74c.493-.727 1.246-1.747 3.089-3.696.874-.924 1.442-1.475 3.495-3.453 3.859-3.718 4.045-3.887 4.521-4.5 2.066-2.666 2.542-4.642 2.66-5.185.189-.866.436-2.061.057-3.472-.207-.773-.519-1.301-1.655-2.927-1.643-2.352-1.864-2.497-2.611-3.611-1.32-1.969-2.172-3.24-2.472-5.028-.149-.887-.244-2.385.417-4.306.088.434.253 1.067.583 1.778.466 1.001 1.045 1.692 2.13 2.817 1.375 1.426 2.063 2.139 3.037 2.933 1.706 1.391 2.449 1.618 7.417 4.792 1.148.734 2.088 1.352 2.625 2.542.522 1.156.485 2.459.472 2.903-.03 1.074-.264 1.866-.324 2.076-.436 1.53-.487 3.167-.857 9.022-.624 9.88-.447 4.768-.806 10.472-.178 2.832-.3 5.313-2.056 7.486-.487.603-.996 1.013-2.014 1.833-.915.737-1.893 1.413-6.299 3.947-1.779 1.023-2.255 1.278-2.951 1.928-.206.193-1.218 1.154-2.167 2.792-.643 1.11-.957 2.012-1.103 2.409-1.526 4.168-4.557 7.605-4.967 8.063-1.341 1.499-2.398 2.654-4.222 3.403-1.055.433-2.144.639-4.362.65 0 0-6.027.03-15.272-3.41-.563-.209-1.151-.469-1.688-.997-.267-.263-.314-.388-.623-.688a5.441 5.441 0 0 0-1.472-1c-.256-.114-2.073-.926-3.389-.139-.666.398-.558.82-1.405 1.3a3.684 3.684 0 0 1-1.63.461c-1.238.067-2.204-.515-2.804-.888-3.45-2.143-4.803-3.143-4.803-3.143-1.253-.925-2.697-2.003-4.573-3.355 0 0-.919-.662-2.688-1.792-1.047-.669-1.321-.809-1.625-.938a7.281 7.281 0 0 0-2.958-.562c-1.297.028-2.241.406-2.927.688-1.089.447-2.041 1.098-3.944 2.398-.857.585-1.335.944-2.171 1.164-.292.077-.985.232-2.088.122-1.368-.137-1.84-.529-3.509-1.108-1.017-.353-2.463-.844-4.323-.978-.675-.049-1.681-.114-2.927.145-1.415.294-2.392.849-2.694 1.014-1.325.722-4.012 1.739-9.958 3.056.346-.188.869-.475 1.5-.833 1.934-1.098 2.581-1.555 3.861-2.306 1.592-.933 2.821-1.531 4.528-2.361.651-.317 1.915-.935 3.556-1.639a34.037 34.037 0 0 1 2.167-.833c2.195-.762 2.715-.699 3.098-.556.491.184.617.449 1.292.609.373.088.931.22 1.383-.005.171-.085.633-.374 1.005-2.77.247-1.591.093-1.785.37-2.651.155-.486.441-1.376 1.213-2.154 1.062-1.069 2.455-1.332 3.639-1.556.169-.032.612-.111 1.221-.156 2.293-.168 3.483.408 5.862.656.502.052 1.657.173 2.889.083 1.357-.1 3.521-.506 6.084-2.154z"/><path d="M282.25 121.222c-3.202.967-5.322 2.671-6.333 3.5-2.302 1.887-3.596 3.814-4.417 5.056a26.144 26.144 0 0 0-3.71 8.961 10.24 10.24 0 0 1-.79 2.899c-.667 1.515-1.541 2.477-1.889 2.861-2.056 2.273-3.89 4.747-6.028 6.944-4.047 4.16-7.139 7.374-9.622 11.699-.8 1.394-1.835 3.421-2.133 6.152-.046.424-.198 1.987.127 4.016.206 1.285.654 3.085 3.156 7.605a84.2 84.2 0 0 0 3.806 6.222c.601.817 1.4 1.93 2.306 3.278a86.101 86.101 0 0 1 1.861 2.889c1.913 3.114 2.455 4.478 2.708 5.167.166.452.313.852.458 1.417.514 1.995.414 3.724.25 4.861a14.071 14.071 0 0 0-2.556 1.708c-1.321 1.113-2.106 2.197-2.611 2.903a15.97 15.97 0 0 0-1.463 2.469c-.219.47-.379.883-.524 1.259a31.024 31.024 0 0 0-.748 2.186c-.605 1.959-.883 2.954-1.068 3.613-.103.369-.162.579-.231.794-.052.16-.096.284-.129.377-.562 1.565-.842 2.347-1.225 3.079-.24.46-.617 1.096-1.194 1.806a9.285 9.285 0 0 0-3.5-3.806c-.422-.254-2.118-1.227-4.514-1.306-2.122-.07-3.663.599-5.444 1.396-1.158.518-3.237 1.569-5.608 3.602-1.687 1.447-4.252 4.016-6.395 8.054l-.163.307c-.318.602-.618 1.171-1.176 1.846-.509.617-1.019.984-1.21 1.128-.768.576-.739.686-1.927 1.688-3.666 3.092-7.055 4.678-6.792 6.104.392 2.121 8.598 2.431 8.644 2.431h.043l.11-.002a44.551 44.551 0 0 0 7.394-.838c.323-.065 3.189-.668 6.236-2.182.87-.432 1.879-1.01 2.767-1.891.138.16.245.291.311.375 1.142 1.482 1.9 2.465 2.84 4.023.741 1.228 1.484 2.568 1.545 2.678l.005.008c.202.365.365.667.502.923.559 1.036.963 1.784 1.812 2.723.512.566 2.069 2.288 4.689 3.189 1.083.372 2.224.561 3.389.561 1.246 0 2.259-.214 2.865-.341l.065-.014c2.822-.593 4.691-1.952 5.489-2.532 4.528-3.291 6.797-4.94 8.719-6.184 1.131-.732 2.158-1.502 3.151-2.246 1.065-.799 2.072-1.554 3.071-2.155.192-.116.336-.205.561-.36.987-.678 1.718-1.426 2.064-1.853 1.133-1.396 1.325-3.265 1.396-3.958.212-2.066-.307-3.717-1.068-6.144a30.342 30.342 0 0 0-.858-2.38 2.454 2.454 0 0 1-.178-1.018 2.54 2.54 0 0 1 .647-1.559c5.192-5.967 8.975-10.317 10.187-11.586.214-.224.845-.873 1.229-1.917.284-.772.338-1.5.312-2.2-.091-2.393-1.134-4.643-1.562-5.529a36.31 36.31 0 0 0-3.688-6.062 37.774 37.774 0 0 0-4.667-5.104 10.042 10.042 0 0 0 2.271-3.042c.173-.358.837-1.787.979-3.792.188-2.645-.645-4.73-1.167-5.792a12.01 12.01 0 0 1-.229-4.667c.219-1.444.655-2.469 1.354-4.083a34.467 34.467 0 0 1 2.542-4.785 7.968 7.968 0 0 0 1.639 1.708c.39.301 1.259.912 2.486 1.292 1.782.551 3.293.296 4.167.139 3.368-.608 5.543-2.737 6.321-3.5l.166-.165a145.207 145.207 0 0 0 2.517 1.007c2.178.898 3.267 1.347 4.162 1.783 1.591.776 1.371.876 4.156 2.49 2.081 1.206 3.141 1.813 4.073 2.031 2.297.537 4.226-.042 4.823-.229 2.022-.634 3.239-1.769 4.594-3.062 2.89-2.759 4.261-5.748 5.167-7.771a29.072 29.072 0 0 0 1.583-4.521c.748-2.863 1.279-5.005.396-7.021a10.856 10.856 0 0 0-1.542-2.438c-.471-.566-.861-.918-1.333-1.354-1.01-.933-1.977-1.912-2.979-2.854-1.494-1.404-3.483-3.291-5.396-5.938-1.056-1.461-1.469-2.296-1.75-3.167a9.622 9.622 0 0 1-.438-3.521c.035-.581.061-2.297-1.104-3.729-.713-.877-1.589-1.3-2.104-1.542-1.245-.585-2.347-.659-2.684-.684-3.553-.261-11.178-1.581-14.691-2.379-4.708-1.07-4.282-1.716-8.132-2.285-2.621-.384-5.594-.79-9.141.281z" style="fill:#fff"/><path d="M222.167 241.389a7.745 7.745 0 0 0 2.417-.806c.332-.176 1.421-.786 2.722-2.361 1.003-1.215 1.486-2.221 1.889-2.972 1.821-3.394 4.189-5.622 5.417-6.778 1.333-1.254 2.439-2.278 4.25-3.111 1.481-.681 2.847-1.31 4.361-1.111 3.815.5 4.397 5.703 7.333 5.722 2.013.013 3.706-2.42 4.806-4 1.028-1.477 1.538-2.897 2.014-4.222.431-1.201.362-1.314 1.5-5 .21-.68.515-1.656 1.062-2.884.582-1.306 1.009-1.932 1.14-2.12.337-.484.82-1.166 1.631-1.83.464-.38 1.301-.969 2.208-1.5.35-.205.715-.403 1.021-.833.311-.438.399-.89.438-1.167.65-4.661-.042-7.417-.042-7.417-.297-1.183-.915-3.209-4.667-9.333-.449-.734-1.54-2.415-3.722-5.778-2.467-3.802-4.928-7.571-5.556-11.389a9.623 9.623 0 0 1-.09-2.661c.093-.85.368-2.272 1.479-4.172 1.373-2.348 5.001-7.1 10.306-12.917a214.99 214.99 0 0 1 5.25-6.361c.598-.694 1.398-1.61 2.056-3.056.699-1.535.698-2.481 1-4.056.299-1.555 1.102-4.807 3.132-7.82 1.46-2.167 3.008-3.399 3.368-3.68.653-.509 2.103-1.618 4.184-2.286 3.485-1.118 6.604-.31 7.983.147a158.62 158.62 0 0 0 7.486 1.986c4.058.971 6.088 1.456 7.333 1.542 2.191.15 4.347.881 6.542.792.327-.013 1.194-.06 1.729.49.627.644.432 1.732.368 2.288-.332 2.897 1.268 5.596 2.653 7.931.664 1.12 1.609 2.094 3.5 4.042 5.123 5.278 6.226 4.982 6.963 7.043.954 2.669-.126 5.318-1.829 9.494a19.398 19.398 0 0 1-3.601 5.636c-1.155 1.245-2.289 2.095-3.688 2.293a4.82 4.82 0 0 1-1.372-.008c-1.47-.23-2.44-1.12-2.75-1.389-.987-.857-3.046-2.175-7.667-4.278 2.349.098 4.243-1.11 4.639-2.667.179-.706.116-1.742-.489-2.589-.619-.867-1.519-1.139-1.789-1.216-.422-.121-1.636-.382-4.778 1.278a24.04 24.04 0 0 0-3.528 2.278c-2.73 2.125-2.707 2.928-4.572 3.889-.907.468-3.028 1.561-4.632.698-.975-.524-1.349-1.61-2.058-3.76a25.689 25.689 0 0 1-1.072-4.688c-.017-.106-.053-.235-.139-.264-.278-.094-.848.921-1.222 1.569-.779 1.349-1.677 2.627-2.486 3.958-1.289 2.122-1.207 1.742-2.042 3.181a34.908 34.908 0 0 0-2.306 4.771c-.814 2.081-1.226 3.134-1.438 4.646-.081.582-.626 4.471.729 8.042.198.521.624 1.529.521 2.854-.074.959-.395 1.691-.646 2.25a9.368 9.368 0 0 1-1.917 2.771 5.502 5.502 0 0 0-1.597 2.097 5.273 5.273 0 0 0-.278.847 90.032 90.032 0 0 0 2.261 1.836c2.011 1.703 4.545 5.163 4.545 5.163s2.619 3.576 3.778 6.889c.129.368.325.997.264 1.792-.013.17-.088.996-.694 2-.795 1.317-3.136 3.986-6.556 7.208a127.222 127.222 0 0 1-2.83 3.733c-1.399 1.776-1.923 2.34-2.115 3.406-.165.918.076 1.734.566 3.33.928 3.027 1.712 3.37 1.767 5.254.053 1.838-.654 2.849-.805 3.055-.47.643-1.027.974-1.218 1.089-2.222 1.338-4.18 3.078-6.358 4.487-2.037 1.318-4.337 2.989-8.938 6.333-.611.444-1.803 1.313-3.583 1.688-.835.176-2.156.477-3.667-.042-1.373-.471-2.203-1.369-2.604-1.812-.575-.636-.719-1.028-1.646-2.708 0 0-.816-1.479-1.646-2.854-1.087-1.802-1.988-2.971-3.167-4.5-.06-.077-1.269-1.631-2.833-2.896a3.776 3.776 0 0 0-1.539-.778c-.391-.091-.997-.232-1.544.07-.343.19-.523.485-.882 1.076-.322.529-.412.815-.553 1.081-.315.594-.845 1.018-1.906 1.544-2.554 1.269-4.993 1.757-4.993 1.757a39.38 39.38 0 0 1-6.561.744z"/></g></switch></svg>