<svg viewBox="0 0 350 350">
    <defs>
        <linearGradient id="logo-gradient" x1="50%" y1="0%" x2="50%" y2="100%">
            <stop offset="0%" stop-color="var(--color-stop-1)">
                <animate attributeName="stop-color" values="var(--color-stop-1); var(--color-stop-2); var(--color-stop-3); var(--color-stop-4); var(--color-stop-3); var(--color-stop-2); var(--color-stop-1);" dur="15s" repeatCount="indefinite"></animate>
            </stop>
            <stop offset="50%" stop-color="var(--color-stop-2)">
                <animate attributeName="stop-color" values="var(--color-stop-2); var(--color-stop-3); var(--color-stop-4); var(--color-stop-3); var(--color-stop-2); var(--color-stop-1); var(--color-stop-2);" dur="15s" repeatCount="indefinite"></animate>
            </stop>
        </linearGradient>
    </defs>
    <g fill="url('#logo_logo-gradient')">
        <path d="M137.78 79H271v113.1l19.04 7.23V59.96H142.55L129.01 73.5l8.77 5.5zM79 271V155.49l-19.04-19.04v153.59h120.49L198.57 271H79zM107.1 134.38l-28.85-22.3 20.09-18.64 8.76 40.94zM99.72 72.86L73.5 51.74l1.62 28.51 24.6-7.39zM84.5 128.25l-12.5 3.5 12.5 8.75v-12.25zM114.75 80.25l21.5-25-38.75 1.5 17.25 23.5zM33.93 120.68l26.66-15.3 4.23 20.31-30.89-5.01zM195 299.25l25-39.5 5.25 42.75-30.25-3.25zM269.5 198l15.75 50.5 15-42.5-30.75-8zM259.5 184.5l-17.75 17.75L259.5 211v-26.5zM264.25 219.25l-6.5 7.25 11.75 7.5-5.25-14.75zM233.25 291.75l2 16 8.5-1.75-10.5-14.25zM229 272.5l5.75 5.5 3.75-7-9.5 1.5zM297.5 193.5c.75.75 7.5 7.25 7.5 7.25l3-7.25zM302.75 232l5.25 7.5 6.75-9.25-12 1.75zM89.75 48.5l-3.14 3.24 13.11 2.51-9.97-5.75z" />
        <path d="M208.25 245.75l-27.5 11.75 23 8.75 4.5-20.5z" />
    </g>
</svg>