<svg xmlns="http://www.w3.org/2000/svg" viewBox="0 0 350 350" style="enable-background:new 0 0 350 350" xml:space="preserve"><switch><g><path style="fill:#fff" d="M249.303 329.927a149.963 149.963 0 0 1-4.853-5.701c-2.928-3.617-3.171-4.26-6.725-8.753-3.54-4.475-5.31-6.712-5.984-7.368-.6-.584-2.084-1.981-3.462-4.253-.6-.99-.688-1.334-1.162-2.196-1.313-2.39-2.782-3.648-4.575-5.419-1.723-1.702-2.921-3.09-5.316-5.864-4.075-4.72-5.187-6.666-5.761-7.784-.232-.453-.497-1.005-.985-1.814a22.988 22.988 0 0 0-3.561-4.509c-1.025 2.995-2.251 5.135-3.217 6.57-.995 1.478-1.947 2.552-2.819 4.698-.442 1.087-.443 1.415-1.088 2.967-.658 1.583-1.279 2.739-1.83 3.758a52.033 52.033 0 0 1-2.176 3.659c-1.474-2.985-2.265-4.355-2.72-5.044-.134-.203-.461-.682-.841-1.385-.399-.737-.383-.845-.742-1.489-.449-.805-.696-1.248-1.187-1.676-.53-.462-.702-.347-1.164-.82-.341-.349-.505-.676-.814-1.306-.492-1.002-.365-1.103-.744-1.764-.139-.243-.457-.632-1.085-1.401-.91-1.112-.889-1.034-1.137-1.385-.421-.596-.812-1.148-1.056-1.947-.266-.87-.077-1.111-.427-1.712-.315-.54-.501-.401-.989-1.038-.66-.862-.526-1.386-1.136-1.759-.396-.242-.501-.051-.891-.269-.698-.389-.724-1.204-1.197-2.348-.063-.154-.404-.729-1.085-1.879-1.448-2.445-2.173-3.667-2.465-3.933-.35-.317-1.018-.848-1.434-1.731a8.936 8.936 0 0 1-.304-.75c-.25-.699-.352-1.229-.384-1.375-.186-.842-.806-1.353-1.998-2.757a34.746 34.746 0 0 1-2.161-2.832c-1.172-1.682-1.347-2.221-1.434-2.571-.089-.359-.145-.759-.396-1.317a5.164 5.164 0 0 0-.908-1.368c-1.88 1.232-2.513 2.28-2.731 3.028-.068.232-.211.833-.613 1.566-.32.584-.637.948-.905 1.267-.752.897-.278.441-2.13 2.831-.955 1.231-1.432 1.847-1.861 2.35-1.641 1.922-2.006 1.925-3.264 3.511-.996 1.256-.741 1.222-1.83 2.571-.923 1.144-1.266 1.368-2.423 2.819-.65.816-.975 1.223-1.385 1.83-.602.891-.863 1.425-1.572 2.239-.363.416-.557.578-.851.876-1.134 1.153-1.654 2.219-2.149 3.04-.781 1.296-1.065 1.26-3.093 3.636-1.594 1.867-1.396 1.862-4.003 5.182a143.54 143.54 0 0 1-3.848 4.724 178.835 178.835 0 0 1-4.017 4.534c-2.223 2.417-2.661 2.747-3.56 4.055-.817 1.188-1 1.709-1.929 2.868-1.056 1.319-1.932 2.034-2.676 2.711-1.289 1.173-2.506 2.746-4.939 5.893a109.204 109.204 0 0 0-4.037 5.576c-.636-5.082-1.185-9.351-1.601-12.549-.824-6.345-1.091-8.218-1.434-10.385-.867-5.475-1.008-5.158-1.706-9.585-.807-5.118-.776-6.517-1.904-15.586-.369-2.972-.693-5.4-.908-6.976a192.527 192.527 0 0 0-5.966 4.504c-3.4 2.672-4.51 3.733-7.575 6.062-3.306 2.513-3.067 2.08-5.645 4.058-4.329 3.323-5.288 4.765-9.89 8.571a108.162 108.162 0 0 1-6.201 4.761c.78-10.987 1.637-18.632 2.298-23.695.636-4.871 1.175-9.754 1.794-14.627.062-.49.415-3.266.743-6.919.213-2.371.282-3.638.309-4.159.122-2.37.126-4.349.104-5.764-5.229 5.762-10.461 11.52-15.692 17.278V60h230v184.5l-7.967-2.379a172.546 172.546 0 0 0-.593 21.461c.26-.264.633-.699.923-1.319.285-.608.181-.798.527-1.385.301-.51.702-.925.824-1.051a6.35 6.35 0 0 1 .408-.383 43.228 43.228 0 0 1-.007 2.89c-.006.143-.014.242-.013.407.002.44.064.855.173 2.323.212 2.883.247 4.118.325 4.117.07-.001.112-1.019.128-1.401.058-1.418-.025-2.334.009-2.336.039-.003.187 1.181.289 2.662.079 1.145.092 1.921.106 2.364.058 1.788.288 3.085.56 4.747.617 3.768 1.156 7.541 1.912 13.121.259 1.909.466 3.503.61 4.632-7.28-5.723-10.149-7.538-10.977-7.632-.07-.008-.443-.039-.897-.214-.778-.3-1.217-.798-1.626-1.203-.878-.87-.832-.533-2.068-1.634-1.347-1.198-1.764-1.92-2.778-2.026-.316-.033-.28.037-.593 0-1.142-.133-1.763-1.074-2.522-1.83-.982-.978-1.271-.728-2.819-1.83-1.569-1.117-2.235-2.059-3.313-3.214-1.64-1.757-3.839-3.226-8.213-6.197a103.232 103.232 0 0 0-3.951-2.555 200.183 200.183 0 0 0 0 10.286c.1 3.893.241 4.896.346 9.148.111 4.476.02 5.937.049 10.187.041 5.758.252 9.244.396 12.857.207 5.237.356 12.823.055 22.814z"/><path d="M69.6 210.4V69.6h210.9V210c-70.2.1-140.6.2-210.9.4z"/><path style="fill:#2b7e90" d="m238.912 299.747-26.901-33.495-16.022-54.132-12.377 30.578-10.667-18.166-50.275 62.687-9.342-56.613-25.273-17.629-18.455 9.231v-46.809c3.2-3.2 6.3-6.5 9.5-9.7v-86.6H271v131.5l5.297 26.642.396 34.368-30.857-24.676-6.659 2.176-.265 50.638z"/><path style="fill:#fff" d="m221.242 79.1-106.22 137.021-12.198 15.735-18.395.836-15.89-9.56.132-47.209 10.43-10.223 106.274-86.6h35.867z"/><path style="fill:#595959" d="M221.242 79.1h3.429L85.22 256.824l.049-2.324L221.242 79.1z"/><path style="fill:#0f2c32" d="M85.22 256.824v6.165L225.363 79.1h-.693z"/><path style="fill:#fff" d="M242.67 79.1a11.581 11.581 0 0 0-2.176 2.818c-1.268 2.31-1.57 4.769-1.409 4.821.036.012.081-.104.396-.495.187-.232.357-.423.495-.569.132.626.194 1.455-.272 2.027-.463.569-1.033.375-1.632.923-.662.607-.495 1.355-.841 2.712a9.333 9.333 0 0 1-1.212 2.745 1.204 1.204 0 0 0 1.13-.384c.011.066.142.911-.351 1.274-.225.165-.508.178-.68.185-.599.026-.784-.261-.997-.136-.267.157-.032.641-.313 1.533-.092.292-.122.234-.243.618-.193.609-.176 1.024-.597 2.2-.607 1.693-.895 1.629-1.286 2.868-.375 1.191-.28 1.792-.413 3.113-.203 2-.688 3.243-1.103 4.606-.865 2.84-13.636 46.3-31.22 106.116l50.242 9.297L260.868 79.1H242.67zm-.921 2.967a12.549 12.549 0 0 1-1.09 1.845 5.345 5.345 0 0 1 1.747-3.511 12.47 12.47 0 0 1-.657 1.666z"/><g><path style="fill:#0f2c32" d="M144.099 79.1 79.1 117.374v29.407l14.06-11.155 63.64-50.491 7.606-6.035h-20.307zM79.1 115.806a79.24 79.24 0 0 0 2.378-1.202c3.941-2.074 6.256-3.711 6.313-3.626.062.092-2.663 2.106-5.736 4.154a124 124 0 0 1-2.955 1.909v-1.235zM82.618 109.941c3.154-1.813 5.722-3.296 7.522-4.337 2.388-1.381 3.997-2.317 4.055-2.225.055.086-1.295 1.05-2.522 1.904.629-.18 1.521-.484 2.522-1.014.891-.471 1.478-.915 1.508-.874.039.053-.878.87-1.978 1.582-1.471.952-2.754 1.382-3.214 1.541-1.514.524-3.897 1.487-7.893 3.423zM79.111 110.696l6.043-3.872a20.788 20.788 0 0 1-6.037 4.838l-.006-.966zM97.36 101.995c.012.009.344-.654 1.063-1.162.866-.612 1.659-.552 2.448-.692 2.385-.423 3.894-2.523 3.857-2.571-.032-.043-1.281 1.45-3.486 2.003-.992.249-1.479.132-2.275.618-1.11.676-1.622 1.792-1.607 1.804zM97.978 102.959c-.085-.092.402-.981 1.236-1.236.512-.157.696.065 1.212-.124.73-.267 1.018-.951 1.113-.89.074.048-.029.52-.371.841-.381.357-.773.259-1.409.42-1.153.292-1.697 1.079-1.781.989zM102.651 101.03c-.033-.041.225-.316.742-.865.151-.161.347-.363.643-.569.095-.066.44-.306.495-.247.056.06-.214.411-.396.618-.611.698-1.417 1.147-1.484 1.063zM96.495 105.374c-.074-.064-.623.397-1.022.89-.143.176-.219.299-.264.363-.676.967-2.74.925-2.736.989.003.051 1.352.381 2.571-.363 1.048-.64 1.548-1.796 1.451-1.879zM92.143 108.44c-.058-.074-.749.303-1.319.857-.337.328-.681.766-.626.824.067.07.717-.433 1.154-.824.083-.075.858-.772.791-.857z"/><path style="fill:#0f2c32" d="M130.516 86.912a980.754 980.754 0 0 1-7.912 4.055c-4.098 1.851-7.111 3.604-9.165 4.912-.782.498-2.959 1.909-6.033 3.659-1.186.675-3.492 1.989-3.56 1.879-.091-.146 3.764-2.834 7.846-5.308 2.682-1.625 5.623-3.149 11.505-6.198 3.234-1.676 5.074-2.585 7.352-3.593a107.321 107.321 0 0 1 5.209-2.143 876.13 876.13 0 0 1-5.242 2.737zM117.132 90.11c.111.232 4.268-2.133 4.558-2.802.016-.038.095-.243.272-.47.209-.268.394-.36.379-.387-.047-.085-1.856.739-1.788.931.028.081.359-.03.404.058.164.322-3.934 2.441-3.825 2.67zM123.602 85.89c-.004-.073.557-.028 1.451-.396.785-.323 1.21-.71 1.286-.626.065.073-.167.459-.495.725-.871.706-2.236.411-2.242.297zM120.231 89.714c-.051-.091 1.435-1.054 2.736-1.78 1.033-.577 1.413-.704 2.769-1.451a58.155 58.155 0 0 0 2.044-1.187c2.912-1.745 4.361-2.787 4.451-2.67.069.09-.724.801-.824.89-1.978 1.765-3.914 2.616-5.044 3.132-3.933 1.796-6.071 3.176-6.132 3.066zM136.228 79.89c-1.107.593-2.278.834-2.324.717-.02-.051.183-.154 1.409-.89.428-.257.781-.471 1.021-.617h1.066c-.264.22-.656.514-1.172.79zM135.536 81.621c-1.3-.008-2.371 1.122-2.299 1.236.038.061.371-.198 1.36-.519 1.056-.343 1.736-.392 1.731-.519-.005-.099-.419-.196-.792-.198zM137.959 80.929c-.288.04-.576-.102-.569-.173.008-.078.363.012.717-.198.397-.235.497-.671.569-.643.054.021.03.279-.074.495-.029.058-.231.461-.643.519zM138.973 79.519c-.138-.015-.33-.12-.321-.247.007-.107.153-.175.173-.184l.717.012c-.136.274-.36.442-.569.419z"/><path style="fill:#0f2c32" d="M137.637 82.14c-.122-.12-1.341.933-2.151 1.731-.581.573-1.249 1.231-1.137 1.385.104.143.883-.148 1.459-.668.196-.177.317-.334.42-.47.977-1.282 1.465-1.923 1.409-1.978zM93.28 135.918a183.506 183.506 0 0 1-6.132 5.786c-3.44 3.098-2.568 2.072-4.698 4.055-1.584 1.475-2.975 2.889-3.351 2.621-.157-.112-.088-.482 0-.791.662-.501 1.64-1.248 2.807-2.176 2.298-1.827 3.764-3.107 5.784-4.824a437.31 437.31 0 0 1 5.59-4.671zM79.1 150.159a33.8 33.8 0 0 0 .656-.532c.599-.499.78-.686.816-.655.056.047-.269.582-.705 1.038a4.55 4.55 0 0 1-.767.643v-.494zM81.824 147.308c.052.065 1.535-1.05 2.637-1.879 6.221-4.678 11.337-9.612 11.209-9.758-.205-.234-14.009 11.434-13.846 11.637zM96.89 136.363c-.086-.106-1.55.911-2.67 1.78-1.935 1.501-3.946 3.413-3.824 3.56.136.165 2.932-1.881 5.242-4.022.386-.358 1.325-1.228 1.252-1.318zM96.132 135.538c-.146-.18 3.498-3.376 5.604-5.159 4.499-3.808 9.406-7.446 9.593-7.22.073.088-.585.74-1.434 1.582-2.454 2.433-4.578 3.993-4.797 4.154-6.105 4.485-8.841 6.798-8.966 6.643zM101.786 132.407c-.035-.064.5-.426 1.568-1.15.865-.587 1.394-.943 1.448-.877.055.066-.379.556-.841.94-.977.812-2.12 1.189-2.175 1.087zM101.984 133.148c-.098-.131-1.99.957-1.879 1.236.04.1.36.16.504.037.027-.023.041-.047.047-.056.154-.257.64-.455 1.015-.81.1-.095.352-.354.313-.407zM110.637 124.989a36.962 36.962 0 0 0 4.129-3.387c1.382-1.315 2.221-2.326 3.981-3.536.957-.658 1.463-.877 2.361-1.386 3.773-2.136 4.213-3.563 8.666-6.625 1.751-1.204 1.502-.859 3.659-2.324 2.138-1.452 3.048-2.243 5.819-4.269 2.282-1.669 2.114-1.461 3.874-2.753 2.044-1.501 2.625-2.045 7.83-6.28 4.47-3.637 5.218-4.194 5.703-4.549 1.37-1.004 2.246-1.586 4.154-3.033a136.396 136.396 0 0 0 3.518-2.765 178.466 178.466 0 0 0 5.894-4.981h.742c-.305.314-.762.783-1.319 1.351-4.084 4.16-4.873 4.706-7.352 7.286-2.623 2.729-4.003 4.467-4.168 4.338-.124-.096.513-1.163 1.07-1.931.962-1.327 1.947-2.124 1.929-2.143-.021-.023-1.366 1.165-2.885 2.44-1.419 1.19-1.693 1.368-2.131 1.516-.535.181-1.048.227-1.744.676-.342.221-.593.451-.872.71-.607.563-.974 1.035-1.154 1.253-.58.701-1.008.919-2.242 1.846-1.54 1.157-1.348 1.191-2.918 2.39-1.372 1.048-1.887 1.325-3.676 2.588 0 0-1.944 1.372-3.527 2.604-4.761 3.705-4.379 5.431-8.522 8.258-.887.606-.903.523-4.376 2.72-2.907 1.838-2.875 1.882-3.536 2.176-1.884.837-2.904.816-4.475 2.003-.439.332-.498.438-1.343 1.096a38.147 38.147 0 0 1-2.563 1.821 185.75 185.75 0 0 1-4.526 2.89z"/><path style="fill:#0f2c32" d="M156.231 92.78c-.094-.167-1.819.284-2.967 1.582-.601.68-.932 1.465-1.121 1.912-.205.485-.507 1.329-.396 1.385.145.072.717-1.32 2.044-2.769 1.345-1.47 2.521-1.967 2.44-2.11z"/><path style="fill:#0f2c32" d="M157.788 92.005c.191.165-.722 1.821-2.126 3.165-1.937 1.853-4.375 2.694-4.525 2.448-.087-.142.624-.59 3.412-2.967 2.432-2.073 3.102-2.764 3.239-2.646zM143.011 103.89c-.271-.298 2.057-3.11 2.407-2.901.174.104-.118.97-.495 1.549-.633.975-1.756 1.524-1.912 1.352zM147.066 100.56c.234-.335.495-.586 2.176-1.648 1.764-1.115 2.035-1.19 2.143-1.088.156.146-.03.652-.297.989-.441.557-1.131.684-1.319.725-.76.165-1.864.774-3.363 2.736.063-.437.22-1.085.66-1.714zM139.368 106.643c1.475-1.369 3.217-3.274 3.041-3.462-.121-.129-.923.805-3.115 2.151-.651.4-1.303.761-1.83 1.558-.359.542-.689 1.33-.495 1.484.288.228 1.628-1.015 2.399-1.731zM169.187 79.1a7.46 7.46 0 0 0-2.07 1.608.275.275 0 0 0-.019.084c-.012.17.146.262.148.334.006.177-.936.313-1.385.42-1.314.314-2.243 1.302-2.951 2.055-.587.624-.894.987-.894.987-.472.558-.648.828-1.048 1.054-.362.204-.417.074-.918.281-.472.195-.489.326-1.245.813-.7.451-.774.395-1.203.744-.358.292-.349.365-.692.606-.455.319-.856.459-.828.569.025.098.362.053.383.148.019.089-.259.189-.593.396-.348.215-.362.302-.859.688-.36.28-.425.275-.76.536-.348.271-.905.705-1.533 1.385-.518.561-.704.817-.742.791-.067-.046.335-.952 1.063-1.743.63-.684 1.038-.995 1.038-.995.24-.183.46-.32.668-.625.124-.182.148-.282.321-.643.185-.385.366-.706.432-.813.348-.566.752-.404 2.066-1.314.659-.456.998-.67 1.088-.742.373-.298.465-.422.718-.497.506-.149.693.184 1.12.067.404-.111.457-.47 1.03-1.152.208-.247.443-.462.915-.89a18.005 18.005 0 0 1 2.299-1.78c.316-.205.255-.151.564-.352a19.9 19.9 0 0 0 1.908-1.428c.17-.141.41-.342.692-.592h1.287zM159.495 83.912c.138.173 3.543-2.785 4.169-3.367.103-.096.319-.302.493-.633.164-.31.225-.604.25-.812h-.417a113.542 113.542 0 0 0-1.918 2.087c-1.569 1.746-2.655 2.629-2.577 2.725zM156.791 85.89a132.871 132.871 0 0 1-8.209 7.088c.12-.312.328-.761.692-1.22.421-.53.728-.668 1.747-1.418.814-.599 1.309-1.019 2.011-1.615.968-.822 1.141-1.042 1.286-1.286.178-.299.249-.526.537-.762.18-.147.343-.215 1.012-.458.329-.118.637-.228.924-.329zM148.055 92.945c.112.132-4.692 4.371-12.766 11.497-2.614 2.307-1.038.864-3.453 2.975-1.465 1.281-2.427 2.146-2.505 2.069-.117-.116 1.906-2.205 1.78-2.332-.151-.154-3.381 2.57-5.731 4.911-.295.294-.576.582-.599.562-.06-.053 1.503-2.413 3.885-4.443 1.846-1.573 2.543-1.55 5.288-3.741 1.11-.886 1.85-1.571 2.324-2.003 4.241-3.86 11.641-9.654 11.777-9.495zM114.495 121.082c.106.067.774-1.402 2.769-3.462 2.046-2.113 4.596-3.925 6.379-5.192 1.165-.828 1.735-1.183 1.681-1.286-.112-.214-2.965.67-5.341 2.374-4.056 2.909-5.67 7.451-5.488 7.566z"/></g><g><path style="fill:#0f2c32" d="M260.868 79.1h9.198l-4.599 110.324-12.314-4.666zM271 92.714c-.274-.018-1.08 8.451-1.56 15.495-.354 5.185-.704 12.119-.527 12.132.129.009.585-3.7 2.088-21.264.167-5.249.098-6.356-.001-6.363zM269.637 123.11c-.151.003-.068 2.134-.396 5.802-.422 4.735-1.161 7.914-1.029 7.94.111.022.667-2.244 1.029-3.984.356-1.713.62-2.984.725-4.615.176-2.706-.167-5.146-.329-5.143z"/><path style="fill:#0f2c32" d="M269.646 142.668c.175-1.75.253-4.255-.272-7.195-.35-1.961-.908-3.776-.989-3.758-.085.019.391 2.087.766 4.92.333 2.512.45 4.6.495 6.033z"/></g><g><path d="M334.681 222.736c.224.284 1.361 1.788 1.022 3.725-.393 2.247-2.462 3.301-2.868 3.495-.837.398-.776.073-2.835.709-1.24.383-2.025.625-2.967 1.203-.731.448-.83.653-1.488.932-.697.296-1.179.319-2.204.452-1.401.182-.964.2-2.802.462-1.311.187-3.548.505-3.593.297-.016-.073.25-.135.857-.462.828-.445.892-.628 1.806-1.168.479-.283.417-.206 1.326-.711.78-.433 1.388-.773 1.352-.857-.024-.057-.325.041-.857.165-1.023.237-1.965.352-1.978.297-.012-.053.856-.178 1.846-.692a6.673 6.673 0 0 0 1.484-1.055c-.256.156-.6.346-1.022.527-1.654.711-3.218.733-3.231.659-.009-.053.786-.121 2.11-.593a16.406 16.406 0 0 0 2.209-.989c.601-.317.579-.346 1.846-1.088.268-.157 1.061-.62 2.092-1.187 1.402-.773 2.103-1.159 2.227-1.186.11-.024.665-.141 1.121-.56.072-.066.326-.305.264-.462-.039-.097-.162-.069-.33-.198-.226-.174-.16-.347-.33-.429-.171-.083-.287.069-.626.066-.198-.002-.281-.055-.462-.099-.635-.154-1.039.158-1.121.033-.121-.185.567-1.179 1.384-1.205.325-.01.493.138.891.051.313-.069.703-.269.692-.462-.011-.203-.456-.221-1.022-.56-.187-.112-.709-.425-1-.947-.346-.62-.044-.956-.319-2.086-.129-.529-.346-1.073-.429-1.055-.12.025-.021 1.231.099 2.077.061.429.124.74.066.758-.098.031-.44-.804-.462-.857-.315-.773-.296-1.048-.56-1.879-.137-.43-.285-.785-.582-1.496-.474-1.135-.656-1.404-.605-1.438.103-.068 1.071.852 1.492 2.172.206.647.219 1.194.255 1.191.051-.004.144-1.118-.066-2.209-.432-2.247-2.071-3.831-4.648-6.397a27.322 27.322 0 0 0-1.108-1.043c.024.226.081.566.233.949.24.607.574.997.792 1.248 1.736 2.002 2.055 2.395 2.291 3.033.208.563.301 1.179.198 1.22-.108.043-.41-.552-.923-1.385 0 0-.209-.34-1.418-2.077-.81-1.164-1.427-1.773-3.165-3.89-2.278-2.776-3.417-4.164-3.709-4.492-.88-.987-1.567-2.153-2.547-3.041 0 0-1.008-.913-1.36-2.028-.141-.447-.099-.865-.099-.865a1.97 1.97 0 0 1 .124-.519 25.433 25.433 0 0 0 3.684 4.129 88.199 88.199 0 0 0-2.72-3.61c-1.515-1.908-3.385-4.102-3.511-4.005-.119.091 1.39 2.175 1.291 2.247-.074.054-.995-1.059-1.686-1.951-.844-1.089-1.046-1.461-2.077-2.868-1.546-2.11-2.043-2.572-2.077-2.547-.028.021.27.377.346.964.023.18.019.329.012.42a5.52 5.52 0 0 1-.915-1.162c-.149-.253-.186-.361-.309-.569-.387-.654-.86-1.008-1.164-1.265-.21-.178-.653-.715-1.539-1.79-.908-1.102-2.622-3.442-4.64-6.637 3.685 4.204 7.873 8.909 8.06 8.753.082-.068-.618-1.042-2.324-3.313-4.986-6.639-12.711-16.42-13.451-17.357 0 0-1.832-2.323-3.412-4.78-.511-.795-.834-1.298-1.253-2.044-.47-.839-.637-1.23-1.187-2.143a22.817 22.817 0 0 0-.89-1.385c-.118-.17-.235-.329-.35-.484a72.28 72.28 0 0 1 1.701 2.231c.881 1.205 1.384 1.894 2.027 2.951.647 1.063.996 1.775 1.055 1.747.075-.036-.391-1.264-.989-2.44a18.323 18.323 0 0 0-1.154-1.962c.294.3.697.742 1.121 1.319.659.898.931 1.529.956 1.516.04-.021-.545-1.713-1.941-3.416-.481-.587-.389-.358-1.108-1.182-1.161-1.33-1.99-2.6-2.687-3.676-.26-.402-.466-.733-.593-.94-4.516-4.917-6.794-6.596-8.027-7.071-.299-.115-1.983-.716-2.143-1.78-.039-.262.018-.54-.132-.956-.187-.518-.543-.868-.824-1.088.014.469-.012 1.02-.231 1.088-.288.089-.714-.723-1.319-1.549-.267-.365-1.391-1.877-2.934-2.835-1.5-.931-2.084-.682-3.758-1.549-.784-.406-1.106-.654-1.725-1.005-.15-.085-.268-.148-.387-.212.466.106 1.01.245 1.625.442 2.617.837 4.097 1.925 4.154 1.83.06-.099-1.456-1.457-3.684-2.176a10.718 10.718 0 0 0-2.961-.509 11.91 11.91 0 0 0-1.074-.379 16.03 16.03 0 0 1 2.69-.016c.915.294 1.869.68 2.829 1.201 3.534 1.916 5.325 4.612 5.39 4.549.07-.068-1.877-3.343-5.724-5.328.896.237 1.827.578 2.757 1.075 3.047 1.628 4.728 4.154 4.896 4.005.151-.134-1.011-2.363-3.115-3.907-2.058-1.509-4.494-1.978-6.56-2.027-3.752-1.241-7.031-.616-7.039-.495-.006.1 2.259-.154 5.24.554-.726.064-1.344.164-1.809.264a10.331 10.331 0 0 0-.481-.11c-1.589-.317-4.138-.198-6.56.725-3.032 1.156-3.659 1.483-3.659 1.484-.059.031-.985.515-1.063.396-.065-.099.525-.504.445-.668-.096-.196-1.092.077-1.854.346a13.97 13.97 0 0 0-2.868 1.409L185.9 149.018c1.935 29.99 3.239 51.901 3.288 54.049.048 2.108.072 3.161-.223 4.277a7.21 7.21 0 0 0-.223 1.409 7.843 7.843 0 0 0 .297 2.67c.243-1.492.347-1.81.396-1.805.062.007.055.537.049.915-.003.212-.018.895-.173 1.953-.036.249-.034.201-.049.321-.102.798-.012 1.392.05 1.879.243 1.891.019 1.741.247 2.423.232.697.46.839.544 1.508.095.759-.13 1.388-.168 1.384-.035-.004.078-.514-.079-1.244-.033-.152-.068-.269-.231-.742-.246-.713-.442-1.244-.445-1.253-.195-.529-.153-.776-.28-2.522-.069-.952-.166-1.901-.247-2.852a827.28 827.28 0 0 0-.132-1.533 14.27 14.27 0 0 0-.198 1.731c-.019.371-.023.715.025 1.912.061 1.543.092 2.314.173 2.901.07.505.191 1.025.429 2.044.149.639.868 3.717 1.104 3.676.12-.021.013-.831.221-.882.164-.04.403.419.471.544.528.961.607 2.189.346 2.275-.246.081-.687-.888-.841-.816-.119.056.076.677.346 1.632.575 2.035.676 2.708.717 3.041.092.742.148 1.843-.016 1.875-.294.056-1.115-3.346-1.269-3.309-.06.015.064.524.297 2.176.15 1.066.21 1.643.519 2.398.185.45.396.816.396.816.385.667.58.72.742 1.088.192.436.056.674-.049 1.731-.051.513-.057 1.018-.069 2.03-.009.774-.025 2.124.168 2.148.14.018.255-.679.42-.668.207.014.231 1.111.42 2.522.233 1.737.549 2.718.457 2.745-.165.049-1.14-3.159-1.348-3.103-.164.044.237 2.091.544 3.449.323 1.426.655 2.581.89 3.35.264-.402.548-.981.556-1.694.004-.315-.047-.577-.025-.581.047-.008.304 1.148.532 2.361.143.764.431 2.386.445 4.413.009 1.26-.172 1.383-.247 1.397-.188.034-.449-.525-.635-.989.045.816.162 1.464.264 1.912.106.468.179.651.371 1.401.059.232.278 1.003.371 1.607.247 1.609.051 2.027.247 3.313.069.449.203 1.121.495 1.929.024-1.141.055-2.139.074-3.041.004-.193.018-.831.346-1.533.1-.214.315-.672.495-.643.185.03.233.616.321 1.78.034.445.066.883.021.89-.099.015-.382-2.067-.59-2.052-.166.012-.228 1.36-.198 2.448.034 1.224.188 2.229.321 2.918.35.566.505.863.466.891-.046.033-.366-.313-.961-1.04.028.188.336 2.235.841 3.635.198.551.332.92.618 1.385.229.372.445.622.406.659-.05.048-.498-.278-.801-.634-.258-.302-.692-.956-.701-2.176-.166 1.243-.265 3.322.577 5.613.511 1.391 1.177 2.33 2.003 3.486 2.24 3.139 4.569 4.834 4.475 4.945-.069.081-1.404-.717-2.769-2.077-2.719-2.708-3.493-5.523-3.709-5.44-.226.088.091 3.383 2.324 6.231.378.482 2.832 3.527 7.022 4.253 1.039.18 2.737-.034 6.132-.462 4.265-.537 6.525-1.178 7.121-1.352 1.389-.404 2.332-.769 3.874-1.371 3.412-1.331 5.638-2.445 9.873-4.481a745.09 745.09 0 0 1 6.132-2.918c9.521-4.469 12.876-5.672 15.198-6.099 1.472-.271 2.157-.433 3.527-.758.622-.148 3.158-.757 3.132-.89-.033-.168-4.084.701-4.187.33-.117-.421 4.805-2.601 9.454-3.967 1.129-.332 2.509-.917 4.375-1.796 1.171-.552 2.316-1.091 3.76-1.976 1.972-1.209 2.622-1.91 4.574-2.868a20.584 20.584 0 0 1 2.028-.865l-4.848 3.14a41.884 41.884 0 0 0 2.722-1.137c2.326-1.07 3.95-2.078 4.475-2.398 4.317-2.633 11.469-5.783 17.555-7.962 2.136-.765 1.756-.538 3.659-1.236 6.76-2.48 7.018-3.675 11.357-4.78 1.748-.445 3.409-1.219 5.176-1.582.719-.148 2.051-.389 2.929-1.481.333-.414.508-.836.605-1.136a9.615 9.615 0 0 1-.435.276c-.922.548-1.651.712-2.769 1.137-.95.362-1.636.594-1.78.643-.355.12-3.532 1.187-3.61.989-.069-.175 2.17-1.624 4.797-2.275.605-.15 1.72-.379 3.232-.977.347-.138.721-.268 1.169-.506.89-.473 1.061-.782 1.797-1.286 1.207-.826 2.435-1.15 2.835-1.253.762-.195 1.023-.151 1.78-.429.09-.033.837-.311 1.516-.758.639-.421 2.388-1.573 2.654-3.593.281-2.119-1.283-3.703-1.499-3.915z"/><path d="M314.497 200.129c-.082.034-.03.842.488 1.382.424.442.788.315 1.363.88.333.327.491.645.549.614.06-.032-.019-.416-.224-.75-.394-.643-.917-.555-1.544-1.214-.461-.483-.568-.939-.632-.912zM320.272 207.343c.11-.063-.079-.655-.31-1.109-.661-1.298-1.97-2.063-2.102-1.927-.078.081.378.661 1.29 1.821.986 1.256 1.096 1.23 1.122 1.215zM312.668 194.368c.079-.03.015-.455-.134-.771-.196-.418-.584-.741-.657-.687-.134.096.636 1.516.791 1.458zM327.62 229.728c-.491.363-.901.617-1.477.974-.897.556-1.008.56-1.249.828-.092.102-.235.279-.495.408-.254.127-.504.15-.68.148.112.113.331.293.618.297.308.003.537-.198.785-.416.246-.217.39-.42.428-.472.63-.854 1.968-.389 2.854-1.325.306-.323.262-.5.816-1.125.272-.307.522-.535.692-.68a5.32 5.32 0 0 0-1.088.47c-.471.271-.574.427-1.204.893zM330.264 227.681c.009.014.033 0 .56-.198.267-.1.356-.132.429-.231.097-.131.137-.342.066-.396-.182-.136-1.119.731-1.055.825zM334.931 221.181c.148-.102-1.679-3.47-4.634-6.711-1.279-1.402-2.724-2.733-2.819-2.646-.088.081 1.026 1.361 3.437 4.352 3.247 4.029 3.931 5.063 4.016 5.005zM280.673 255.415c.04.121 1.261-.076 2.448-.544.692-.273 1.541-.841 3.239-1.978a9.428 9.428 0 0 0 1.409-1.137c.072-.071.806-.79.742-.865-.092-.109-1.632 1.356-4.005 2.695-2.186 1.233-3.88 1.684-3.833 1.829zM194.62 252.068c.087 0 .192-.408.198-.791.011-.745-.237-1.231-.42-1.731-.504-1.377-.34-2.325-.47-2.324-.141.001-.455 1.119-.148 2.225.148.533.314.613.532 1.409.194.716.212 1.212.308 1.212zM287.423 163.239c.453 1.069.507 1.092.519 1.088.043-.015-.077-.473-.148-.717-.386-1.323-1.088-2.435-1.162-2.398-.056.027.235.715.791 2.027zM271 142.544c.136-.024.169-.732-.012-1.312a2.349 2.349 0 0 0-.922-1.232c.568 2.085.817 2.565.934 2.544zM190.302 225.769c.036-.01.033-.164-.11-1.094-.205-1.328-.307-1.992-.368-1.989-.101.005-.232 1.012.033 2.044.136.53.374 1.059.445 1.039z"/><g><path style="fill:#fff" d="M209.077 266.747c.086.47.276.98.703 1.309.962.742 2.588.144 3.303-.138 2.627-1.037 47.136-19.202 108.078-44.126.702-.189 1.378-.508 1.554-1.071.288-.924-.912-2.043-1.12-2.25-1.858-1.853-26.354-32.556-61.254-76.535a3.33 3.33 0 0 0-1.033-.745c-1.261-.571-2.578-.145-2.886-.056-1.842.534-29.205 6.888-66.96 15.646l19.615 107.966z"/></g><g><path style="fill:#e5e5e5" d="M219.538 202.714a78.87 78.87 0 0 0 5.898 3.077c.801.376 3.363 1.562 9.445 3.734 5.473 1.954 9.506 3.175 13.451 5.044 2.365 1.121 3.571 1.94 3.981 2.225 1.182.823 1.752 1.387 3.314 2.491a41.421 41.421 0 0 0 2.83 1.832c.166-.39.409-1.031.568-1.85.237-1.216.163-2.161.148-2.411-.176-3.113 2.652-11.75 2.411-11.831-.153-.052-1.806 3.251-2.365 7.063-.201 1.371-.463 3.153-.437 4.773.004.232.02.898-.078 1.787-.089.807-.235 1.46-.346 1.891a19.387 19.387 0 0 1-2.163-1.335c-1.13-.804-1.871-1.513-2.04-1.669-3.103-2.87-15.194-7.244-15.194-7.244-6.789-2.456-7.555-2.531-11.819-4.253a145.978 145.978 0 0 1-7.604-3.324z"/><path style="fill:#e5e5e5" d="M221.308 202.75a131.448 131.448 0 0 0 12.593 5.052c3.085 1.053 4.813 1.511 7.199 2.353.965.34 1.605.575 2.204.81 0 0 .451.178.899.364 4.981 2.073 9.346 5.044 9.346 5.044a42.054 42.054 0 0 1 3.696 2.806c.347.297.629.548.816.717.023-.194.054-.467.083-.796.017-.19.088-1.027.09-1.738.003-.748-.072-.809-.092-1.491-.024-.798.051-1.39.121-1.937.369-2.915 1.49-5.28 1.615-5.538.312-.645.643-1.223.593-1.253-.059-.036-.633.727-1.088 1.484-.627 1.043-.987 2.303-1.681 4.78 0 0-.356 1.27-.161 2.188l.028.133a9.947 9.947 0 0 1 .108 3.205 51.865 51.865 0 0 0-3.272-2.625c-.944-.696-2.585-1.902-4.846-3.165a42.014 42.014 0 0 0-4.401-2.128c-4.574-1.91-8.332-2.731-11.918-3.938a273.157 273.157 0 0 1-11.932-4.327z"/><path d="M273.997 182.525c-1.745-5.759-11.63-7.01-12.832-7.162-7.16-.906-13.751 2.284-16.383 3.87-.556.269-1.066.532-1.518.779a13.285 13.285 0 0 1 1.78-4.945c2.32-3.807 5.918-5.283 7.187-5.736a633.915 633.915 0 0 1-33.363 7.582c3.177-.039 8.646.388 14.11 3.626a25.253 25.253 0 0 1 3.956 2.901 26.77 26.77 0 0 0-2.439-.393h.006a26.355 26.355 0 0 0-8.28.033c-2.496.135-7.205.854-11.213 3.878-1.503 1.134-4.045 3.112-4.17 6.168-.091 2.222 1.14 3.947 1.766 4.705-.629-1.029-1.349-2.608-1.187-4.451.228-2.59 2.102-4.556 4.117-5.976-1.693 1.25-3.085 2.852-3.301 4.839a5.311 5.311 0 0 0 .148 1.904c.302-1.148.895-2.797 2.151-4.401 1.081-1.38 2.358-2.326 3.803-3.069-.504.417-.989.873-1.446 1.379-1.167 1.294-3.297 3.655-2.967 6.462.604 5.139 9.019 8.056 17.736 11.077 8.793 3.048 14.748 3.603 22.747 9.165a47.28 47.28 0 0 1 1.978 1.451c.026-.715.11-2.059.461-3.692 1.459-6.783 5.598-9.603 10.549-18.297a68.707 68.707 0 0 0 2.646-5.143 32.522 32.522 0 0 1-.865 2.299c-1.183 2.816-2.325 4.416-4.418 7.69-2.221 3.476-3.332 5.214-3.725 6.264-1.202 3.208-1.494 6.665-1.368 6.692.021.004.056-.082.247-.659.573-1.731.849-2.762 1.055-3.396.153-.469.396-1.121 1.309-2.798 1.575-2.892 3.454-5.734 5.054-8.345 0 0 3.23-5.272 4.639-9.973.322-1.073.334-2.126.334-2.126a7.141 7.141 0 0 0-.025-.701c.056-.629-.004-1.213-.203-1.772-1.519-4.272-8.443-5.34-11.011-5.736-4.287-.662-8.187-.108-11.405.834a29.874 29.874 0 0 1 7.021-1.394 25.668 25.668 0 0 1 7.978.659c3.758.92 5.351 2.239 5.736 2.571.75.647 2.229 1.922 2.769 4.022.424 1.649.049 2.948-.626 5.176-.989 3.261-2.481 5.653-3.89 7.912-1.152 1.847-1.77 2.741-2.525 3.848-1.154 1.691-1.568 2.192-2.337 3.545-1.244 2.188-2.798 5.521-3.758 10.162a46.36 46.36 0 0 1 3.338-8.085c.697-1.319 1.132-1.989 5.085-8.151 2.784-4.339 4.189-6.553 4.846-8.736.736-2.436 1.312-4.348.703-6.356z"/></g></g><g><path d="M255.593 119.253c-.085-.615-.331-1.709-1.187-2.934.311.657.815 1.957.725 3.626-.098 1.831-.856 3.102-1.319 3.857-1.644 2.682-4.256 3.976-4.38 3.832-.051-.059.315-.352 1.018-1.36.373-.534.716-1.026 1.01-1.681a7.248 7.248 0 0 0 .573-2.077c-.661.734-.847.856-.89.824-.077-.057.324-.578.676-1.5.372-.975.402-1.641.511-1.632.1.008.192.574.132 1.121-.058.527-.229.788-.132.857.118.084.536-.183.742-.56.161-.296.159-.597.157-.915-.003-.387-.074-.389-.074-.742-.001-.555.174-.913.074-.964-.084-.043-.22.202-.346.173-.127-.03-.215-.332-.19-1.212.08.089.188.221.297.396.102.163.147.272.181.264.056-.014.028-.323.016-.445-.055-.596-.187-.818-.082-.923.097-.098.348-.043.511.049.818.465.413 2.438.609 2.463.118.015.423-.685.363-1.452-.006-.071-.102-1.107-.912-1.797-.314-.268-.37-.172-.966-.607-.217-.159-.268-.214-.97-.817-.551-.474-.829-.712-.983-.815-.329-.219-.319-.157-1.162-.593-.74-.383-.894-.507-1.286-.593-.321-.071-.869-.132-.915 0-.065.19.973.598 2.349 1.484 1.133.729 2.32 1.67 2.25 1.78-.08.127-1.846-.825-3.165-1.681-.948-.616-1.422-.924-1.805-1.36-.366-.417-.471-.674-.857-.824-.573-.223-.87.199-1.582-.066-.093-.035-.112-.049-1.022-.527-.754-.397-.809-.423-.923-.462-.404-.137-.714-.146-1.286-.165-.815-.026-1.145.09-1.319.165-.137.059-.447.193-.429.297.028.161.813.026 2.077.231a6.53 6.53 0 0 1 1.385.363c.296.116.374.175.824.396 1.148.563 1.667.687 1.648.758-.026.1-1.065-.011-2.143-.396-.431-.154-.396-.183-.791-.33-.759-.282-1.281-.32-2.736-.495-1.689-.202-2.081-.281-2.11-.462-.046-.284.845-.551.791-.758-.064-.248-1.417-.172-2.637-.099-1.013.061-1.697.14-1.846-.165-.105-.215.174-.381.099-.626-.158-.517-1.55-.264-3.362-.771-.778-.218-.553-.261-1.386-.515-1.5-.457-1.905-.174-3.61-.593-1.011-.249-.922-.362-1.582-.445-1.109-.14-1.54.157-2.357-.148-.616-.23-.484-.441-1.187-.791-.718-.358-1.367-.391-2.637-.442-1.255-.05-1.367.085-2.076-.062-.799-.165-1.181-.445-1.782-.716-1.172-.527-2.028-.5-3.34-.631-3.24-.324-3.158-1.002-6.798-1.458-2.317-.29-2.557-.041-3.995-.479-1.765-.537-1.896-1.062-3.471-1.355-.784-.146-1.825-.114-3.907-.049-1.319.041-2.007.111-2.918-.247-.668-.263-.588-.414-1.558-.964a11.637 11.637 0 0 0-3.462-1.236c-1.179-.222-1.079-.011-1.871-.239-1.549-.446-1.5-1.132-2.802-1.385-.966-.187-1.59.075-2.209-.461-.281-.244-.246-.379-.56-.626-.551-.433-1.185-.431-1.813-.462-.835-.04-1.659-.215-2.492-.282-3.058-.246-3.253-.26-3.656-.377-.956-.277-1.09-.488-2.324-.964-1.396-.539-2.494-.76-3.511-.964-2.706-.544-5.191-.568-6.874-.495 1.095.189 2.387.456 2.374.692-.01.17-.688.194-1.632.396-.612.131-2.546.563-4.368 1.896-.109.079.019-.01-2.036 1.986-.757.736-1.065 1.03-1.459 1.508a11.529 11.529 0 0 0-1.236 1.83c-.481.26-1.07.527-1.236.346-.155-.169.181-.59.049-.717-.19-.184-1.425.304-1.912 1.31-.211.435-.216.831-.554.979-.277.121-.435-.074-.781.027-.308.09-.414.312-.808.808-.223.28-.542.681-.94 1.03-.325.285-.731.634-1.325.765-.431.095-.563-.012-.976.021-.357.028-.649.139-1.779.895-1.193.799-1.79 1.198-2.275 1.706-.543.57-.486.68-.941 1.043-.602.48-.976.504-1.458 1.059-.309.355-.207.405-.519.766-.317.366-.56.476-1.427 1.002-1.036.628-.904.602-1.49.927-.694.385-.852.407-1.439.726-.414.225-.841.489-1.667 1.093-2.444 1.787-2.252 2.071-3.529 2.747-.764.405-1.185.49-1.978 1.071-.587.431-.688.691-1.291 1.18-.754.611-1.289.808-1.94 1.16-1.411.763-1.348 1.16-2.901 2.258-1.77 1.252-2.085.902-3.692 2.077-1.533 1.121-2.547 2.39-2.473 2.473.084.093 1.707-1.129 2.571-1.813 1.03-.815 1.294-1.112 1.95-1.278.454-.115.818-.097 1.413-.371.467-.215.602-.391 1.015-.67 1.08-.727 2.319-.977 2.38-.847.038.081-.358.341-.89.692-1.045.689-1.198.593-1.648 1.022-.507.484-.463.75-.923.956-.312.14-.359.03-.956.231-.572.192-.794.383-.923.527-.136.152-.101.178-.212.278-.31.279-.672.155-1.044.254-.382.102-.483.361-.976.927-.222.254-.622.612-1.422 1.327-.86.769-1.288 1.155-1.653 1.359-.644.361-.88.321-1.507.77-.257.184-.311.258-.916.788-.2.175-.686.6-1.187 1.005-.38.307-.932.713-2.021 1.512l-.749.548c-1.595 1.162-3.024 2.309-4.302 3.264-2.391 1.786-2.273 1.419-4.5 3.115-1.53 1.166-1.547 1.308-3.091 2.453-2.033 1.507-2.142 1.361-3.585 2.492-1.763 1.382-1.861 1.804-3.593 3.149-.808.627-1.321.95-3.1 2.076-6.059 3.835-7.371 4.683-9.066 6.165-1.278 1.117-.85.912-2.11 2.011-2.763 2.409-6.785 5.106-8.39 6.404-.453.366-.68.549-.878.808-.368.481-.459.872-.952 1.194-.206.135-.187.064-.474.225-.498.278-.585.507-1.306 1.16-.276.25-.414.375-.618.519-.36.254-.497.275-.841.544-.083.065-.229.2-.519.469-.435.402-.453.436-.643.595a4.756 4.756 0 0 1-.643.47c-.352.209-.479.206-.89.396-.086.04-.505.236-.964.569a5.658 5.658 0 0 0-.989.915c-.525.617-.359.696-.791 1.137-.255.26-.711.642-1.36.841-.286.088-.379.069-.618.124-.854.193-1.405.819-1.657 1.088-1.013 1.082-2.337 1.831-3.412 2.852-2.501 2.375-3.187 2.006-7.319 5.407-2.475 2.037-3.258 3.017-3.824 4.154-.675 1.356-.983 2.819-1.088 3.33a15.697 15.697 0 0 0-.319 3.28 9.606 9.606 0 0 0 1.274 5.884c.466.789.909 1.278 1.484 1.912.636.702 1.645 1.8 3.198 2.786 1.149.729 1.397.636 2.357 1.352a9.896 9.896 0 0 1 1.896 1.863 12.612 12.612 0 0 0-1.224-1.611c-1.607-1.793-2.54-1.785-4.644-3.532-2.608-2.165-3.072-3.754-3.198-4.269a5.813 5.813 0 0 1-.165-1.269c.259.646.575 1.083.824 1.368.296.339.462.422.792.857.324.426.3.524.609.923.383.495.862.917.94.857.102-.079-.534-.957-.412-1.055.077-.062.316.297.94.626.398.211.643.246.907.544.129.147.144.222.254.398.434.696 1.155 1.051 1.197 1.003.023-.027-.162-.191-.462-.659-.112-.174-.167-.262-.148-.28.052-.05.542.495 1.319 1.055 0 0 .598.471 1.368.956 1.562.983 2.855 1.292 2.819 1.418-.041.144-1.713-.301-1.78-.099-.044.132.647.392 1.582.989 1.067.681 1.138.962 2.374 1.846.791.566 1.972 1.317 2.077 1.187.158-.196-2.256-2.227-2.044-2.505.112-.148.901.28 1.055.363 1.421.769 1.716 1.54 3.066 2.637.366.298.127.064 2.011 1.352 1.426.975 2.326 1.592 2.275 1.681-.047.082-.887-.308-1.451-.593-2.842-1.44-4.394-3.124-4.516-3-.094.095.654 1.254 1.945 2.209 1.008.746 1.424.685 2.67 1.451 1.501.922 2.619 2.067 2.538 2.176-.143.193-4.234-2.661-4.319-2.538-.063.091 1.815 2.197 3.461 2.901.063.027 1.018.433 1.154 1.022.056.243.033.461.033.461-.038.357-.211.555-.165.593.055.046.422-.138.56-.462.283-.663-.591-1.453-.396-1.681.167-.195.945.216 1.286.396 2.762 1.453 3.608 1.775 3.56 1.879-.088.193-2.936-.98-3-.824-.031.074.608.363 1.945 1.187.471.29.363.237 1.187.758 1.409.892 1.924 1.175 1.879 1.286-.067.165-1.278-.273-1.352-.099-.055.132.597.477 1.912 1.385 1.003.691 1.318.969 1.484 1.121.591.542.612.707 1.121 1.22 1.063 1.072 2.257 1.651 2.308 1.582.037-.05-.453-.556-.956-.956-.357-.284-.554-.383-.626-.626-.095-.319.093-.657.264-.89a7.2 7.2 0 0 1 .659.462c.443.347.597.55.89.824.982.917 1.744.964 1.797 1.525.005.048.023.25-.099.371-.234.232-.757-.056-.816.049-.099.178 1.316 1.147 1.484 1.261.559.381.633.399.989.643.922.632 1.196 1.036 1.879 1.607a9.433 9.433 0 0 0 2.077 1.31c-.086-.071-1.844-1.529-2.448-2.126-.085-.084-.251-.254-.223-.445a.445.445 0 0 1 .371-.346c.287-.03.508.345.791.717.225.295.711.724 1.681 1.582.521.46.661.529 1.36 1.088 1.855 1.484 1.793 1.74 3.022 2.605.923.65.961.509 2.121 1.326.565.398.773.584 1.77 1.299.668.479 1.187.738 1.147.827-.04.089-.589-.077-.742-.124-.372-.112-.978-.356-1.865-.9 1.785 1.34 2.24 1.835 2.161 1.963-.078.128-.684-.104-1.187-.297-1.784-.683-2.985-1.574-3.536-1.978-1.709-1.254-2.662-1.954-3.872-2.696-1.623-.996-2.085-1.072-3.912-2.212a38.588 38.588 0 0 1-2.477-1.681c.314.31.797.76 1.436 1.238 1.135.85 2.012 1.23 2.747 1.602 1.529.773 2.933 1.899 5.74 4.153.535.43.975.84 1.855 1.66.834.778 1 .976.956 1.044-.145.222-2.418-1.175-2.538-.989-.087.135.822 1.291 2.038 1.558.243.053.6.094.979.364.345.245.486.523.642.748.392.565.855.766 1.582 1.187.323.187 1.204.806 2.967 2.044 1.537 1.08 1.34 1.085 2.571 1.945 2.187 1.528 3.119 1.729 5.366 3.285.871.603 1.306.904 1.39.973.978.799 1.447 1.453 1.849 1.313.117-.041.263-.16.363-.527.178.099.445.254.758.462.881.584 1.357 1.076 1.747 1.418.754.66.797.419 2.802 1.615.824.492 1.419.892 2.427 1.569 1.073.721 1.853 1.281 2.156 1.497a205.33 205.33 0 0 0 6.175 4.237c1.775 1.164 3.159 2.066 5.131 3.15a61.314 61.314 0 0 0 3.496 1.778 14.202 14.202 0 0 0 4.088 1.615c.439.098 4.577.965 8.902-.81.779-.32 1.556-.722 2.99-1.464a76.03 76.03 0 0 0 3.471-1.913c-1.132.108-1.396.042-1.415-.044-.04-.175.969-.37 1.976-1.242.357-.309.6-.635 1.088-1.286.544-.727.824-1.208 1.615-2.494.324-.526.607-.98 1.174-1.887.756-1.21 1.21-1.923 1.892-2.773.312-.389.84-1.044.923-.989.182.121-1.94 3.512-1.813 3.593.072.046.745-1.037 2.093-2.687 1.029-1.26 1.157-1.266 2.473-2.852.986-1.189 1.343-1.702 1.434-1.648.097.057-.126.744-1.549 3.527 1.898-2.498 3.033-4.06 3.527-4.846.11-.175.351-.57.791-.989.505-.48.856-.595 1.236-.89.751-.583.998-1.388 1.187-1.879.206-.534 1.267-2.064 3.389-5.124 1.996-2.878 2.994-4.318 4.216-5.726.487-.561 1.503-1.698 2.596-3.443.508-.811.348-.662.865-1.488 1.405-2.245 2.317-2.907 3.259-4.428.096-.155.383-.627.857-1.187.332-.392.609-.654.675-.717 1.074-1.034 3.302-4.447 5.391-7.063 1.99-2.492 2.652-2.757 3.956-4.945.672-1.128.881-1.703 1.385-2.703.512-1.017 1.385-2.583 4.681-6.659 1.422-1.758 4.247-5.252 7.648-8.769 1.514-1.566 2.137-2.287 3.382-3.729.577-.668 1.125-1.378 2.222-2.799.843-1.092 1.122-1.489 1.385-2.11.414-.98.252-1.251.659-1.912.518-.841 1.136-.976 2.044-1.648.396-.293 1.017-1.056 2.242-2.571 2.768-3.422 2.045-2.981 3.033-3.956.609-.602 1.176-1.057 1.311-1.872.094-.568-.105-.804.043-1.673.075-.44.171-.967.572-1.446.382-.457.981-.799 1.107-.679.234.223-1.227 2.004-1.104 2.102.097.078 1.069-.985 1.367-1.311.818-.894 1.227-1.342 1.666-1.999.756-1.135.617-1.385 1.235-2.089.604-.687 1.082-.84 1.78-1.319 1.108-.759 1.623-1.551 2.538-2.802 1.349-1.844 2.862-3.562 4.267-5.363 2.096-2.688 2.766-3.332 4.371-5.318 2.85-3.528 7.684-10.996 12.646-18.016.643-.909 1.839-2.587 1.966-2.506.088.055-.34.888-.544 1.261a11.297 11.297 0 0 1-1.904 2.547c.839-.452 1.358-.96 1.681-1.352.508-.615.557-.971 1.121-1.385.665-.488 1.407-.587 1.385-.692-.024-.109-.812.073-.923-.165-.09-.193.319-.552.593-.808 1.317-1.23 1.023-1.517 2.11-2.456.828-.716.947-.505 2.044-1.352 0 0 .964-.745 1.747-1.648.614-.706 2.824-3.257 2.379-6.465zM36.338 189.027c-.942.919-1.125 1.057-1.574 1.518.18-.053.406-.112.723-.209.285-.087.427-.132.529-.172.719-.281 1.016-.9 1.091-.852.079.051-.107.828-.72 1.297-.149.114-.47.266-1.113.569-.379.179-.485.217-.662.35a2.501 2.501 0 0 0-.633.726 2.852 2.852 0 0 0-.344.996c-.079.451-.019.64-.074.652-.119.025-.558-.814-.338-1.611.012-.045.025-.083.036-.113a7.608 7.608 0 0 0-.876 1.25c-1.139 2.071-.706 3.916-.989 3.931-.301.016-1.121-2.052-.42-3.931.388-1.039 1.072-1.571 2.324-2.571 4.215-3.369 5.53-4.598 5.613-4.5.074.089-.999 1.136-2.573 2.67zm2.992-.791c-.334.469-.902.75-1.014.643-.078-.075.136-.447.569-1.187.405-.693.609-1.039.692-1.014.163.049.202.927-.247 1.558zm3.28-7.071c-1.006 1.386-1.508 2.078-1.731 2.324-.677.748-1.55 1.323-3.297 2.473-1.059.697-1.279.776-2.077 1.368a24.685 24.685 0 0 0-1.929 1.599 29.77 29.77 0 0 0-1.912 1.896c.09-.528.254-.927.396-1.203.137-.267.313-.536 1.187-1.516.436-.489.654-.734.857-.94.855-.865 1.604-1.315 2.637-1.995 0 0 1.385-.911 2.571-1.78 2.484-1.821 3.918-3.476 4.039-3.363.039.035-.08.226-.741 1.137zm12.082 36.033c-.303-.192-.268-.245-.923-.791-.719-.599-1.12-.834-1.088-.89.036-.063.587.151 1.088.429.645.357.738.56 1.451 1.022.771.5 1.212.62 1.187.692-.035.1-.935.032-1.715-.462zM163.154 93.984c.138.022.431.07.779.223.353.155.343.233.593.297.181.046.372.043.754.037.235-.004.41-.018.569.099.063.046.143.128.124.173-.028.062-.227-.003-.495 0-.236.003-.3.056-.581.111a2.984 2.984 0 0 1-.989.037c-.394-.057-.741-.211-.729-.272.011-.058.345-.017.359-.087.011-.054-.18-.135-.334-.198-.69-.282-.995-.343-.989-.396.006-.064.477-.097.939-.024zm-8.728 2.015c-.64.093-1.09.509-1.261.668-.504.467-.623.942-.742.902-.102-.034-.116-.425.025-.754.152-.356.435-.527.915-.804 1.691-.974 2.055-1.08 2.473-1.1.386-.019.724.039.725.078.001.042-.39-.014-.725.218-.342.237-.27.528-.581.717-.257.156-.391.011-.829.075zm4.821 2.55c-.261.001-.513-.014-.791.132-.19.099-.295.223-.379.313-.333.356-.577.441-1.071.775-1.01.683-1.566 1.394-1.632 1.335-.057-.051.405-.541.94-1.5.439-.788.355-.865.56-1.088.966-1.048 3.604-.201 3.593-.082-.006.061-.735.115-1.22.115zm10.172-.597c-.013-.104.643-.246.627-.323-.009-.045-.239-.036-.707 0-.563.044-.844.065-1.079.1-1.019.151-1.603.401-1.644.309-.051-.115.862-.52.791-.775-.011-.041-.058-.112-.725-.198-.711-.091-1.092-.136-1.203.049-.1.168.102.387.016.462-.071.061-.27-.038-1.022-.544-.543-.365-.511-.362-.593-.396-.679-.277-1.353.106-1.418-.033-.073-.156.796-.604.709-.857-.042-.121-.272-.113-.61-.181-.546-.11-.823-.305-1.17-.462-1.161-.522-2.638-.391-2.637-.478.001-.094 1.757-.557 3.478.115.523.204.776.409 1.484.577.608.144.891.018 1.846.198.206.039.192.043.791.165.786.16.894.17 1.154.231.585.138.857.281 1.352.461.467.171 1.155.383 2.06.528.634.407 1.616.866 3.103 1.026a2.064 2.064 0 0 1-.457-.309c-.149-.133-.445-.436-.383-.532.051-.079.315.039.791.173.14.04.481.109 1.162.247.763.155.815.135 1.533.272 1.648.315 1.992.539 2.163.668.365.274.584.595.705.804a4.797 4.797 0 0 0-1.261-.544 4.795 4.795 0 0 0-1.113-.161c.041.081.106.186.21.284.184.174.365.21.359.235-.011.039-.487.051-.952-.198-.437-.234-.437-.469-.841-.606-.119-.04-.154-.031-.705-.049-.834-.027-1.133-.06-1.15.012-.024.102.547.281.519.383-.02.074-.346.058-.507.049-.161-.008-.271-.026-.346-.037-.612-.088-.956.011-1.001-.111-.033-.088.134-.166.111-.26-.044-.183-.746-.157-1.236-.148-.129.004-2.181.036-2.204-.146zm24.986 5.865c-.849-.044-1.702-.088-2.348.18-.096.04-.395.173-.816.223-.277.033-.51.018-.668 0 .251-.299.278-.406.247-.445-.045-.057-.214.03-.643.173-.553.184-.793.213-.915.223-.037.003-.565.042-.593-.074-.023-.095.297-.25.445-.321.289-.14.55-.21.742-.247-.595-.185-1.04-.157-1.335-.099-.337.067-.425.163-.791.223-.349.057-.681.037-1.212-.074-.745-.156-1.266-.364-1.681-.519-.728-.272-1.258-.43-2.052-.668-1.245-.372-1.917-.573-2.843-.668-1.27-.13-1.388.105-2.225-.148-.843-.255-.906-.549-1.78-.766-.819-.204-.975.001-1.879-.148-1.25-.207-2.206-.806-2.176-.89.026-.073.798.275 2.184.462 1.049.141 1.272.031 2.143.198.979.188.941.374 1.846.593 1.414.342 1.83-.034 4.075.224.581.067.456.081 1.2.171 1.413.172 1.873.122 2.67.429.473.182.387.228.766.346.361.112.747.166 2.151.099.841-.04 1.415-.094 1.434 0 .016.082-.407.183-.396.272.033.247 3.349-.05 3.387.223.015.108-.493.243-.47.346.02.089.417.047.841.049a6.65 6.65 0 0 1 2.126.396c.498.189 1.072.498 1.039.593-.04.116-.963-.278-2.473-.356z"/><path d="M80.363 238.567a107.368 107.368 0 0 0-2.459-1.782c.999.819 1.804 1.38 2.459 1.782zM141.495 104.516c.52-.372.573-1.168.462-1.22-.09-.042-.24.423-.791.791-.575.385-1.092.334-1.088.429.004.121.853.405 1.417 0zM134.473 109.165c.484-.545.432-.853.857-1.286.353-.359.458-.218 1.055-.626.815-.557.763-.918 1.615-1.549.642-.475 1.082-.574 1.055-.659-.045-.142-1.322-.071-2.472.56-1.033.567-1.579 1.373-2.077 2.11-.566.836-1.136 1.977-.956 2.11.126.093.619-.319.923-.66zM165.495 91.692c.392.146.424.158.478.198.246.18.262.424.346.412.09-.012.2-.308.099-.511-.212-.426-1.293-.319-1.302-.247-.002.007.01.011.379.148zM185.104 97.733c.757.09 1.522-.142 1.516-.264-.003-.081-.345-.099-.923-.198-1.673-.285-2.443-.75-2.505-.626-.07.139.789.954 1.912 1.088zM199.989 101.032c.327.049.895.077.915-.025.043-.22-2.477-1.049-2.571-.841-.056.125.714.724 1.656.866zM208.747 102.583c1.022.284 1.163.139 2.077.371 1.105.28 1.264.584 2.25.717.579.078 1.319.08 1.335-.025.05-.327-6.92-1.766-6.973-1.558-.017.071.75.339 1.311.495zM228.429 107.187c.686.222.961.093 3.14.223.36.021.54.032.766.049 1.15.088 1.592.182 1.607.124.02-.08-.744-.437-1.681-.618-1.265-.244-1.59.075-2.868-.074-1.447-.169-2.345-.732-2.398-.618-.047.098.581.638 1.434.914zM220.972 105.561c1.138.493 1.835.697 2.654.702.383.002 1.068-.037 1.082-.171.018-.175-1.135-.349-3.157-.903-1.93-.529-2.843-.909-2.881-.816-.052.124 1.525.852 2.302 1.188zM243.462 107.236c2.214.703 3.555 1.548 3.635 1.409.062-.108-.72-.675-1.162-.964-.547-.359-1.496-.967-2.843-1.212-1.069-.194-2.159-.117-2.176.025-.017.138.982.246 2.546.742zM240.223 109.758c.504.156.549.18 2.151.692.745.238 1.12.358 1.261.396 1.005.266 1.347.229 2.349.445.931.201 1.616.444 1.755.495a12.21 12.21 0 0 1 2.571 1.261c.623.405.885.663 1.607 1.014.451.219.844.359 1.113.445a8.104 8.104 0 0 0-1.434-1.484c-1.152-.916-2.271-1.272-4.253-1.904-.824-.263-1.236-.394-1.731-.445-.686-.071-1.083.011-1.756-.198-.436-.136-.614-.277-.989-.47-1.577-.81-2.367-.323-4.203-1.137-.503-.223-.52-.293-.915-.42-.936-.301-1.799-.215-2.374-.099.962.304 1.753.536 2.299.692 1.382.396 1.524.4 2.549.717zM212.934 177.505c.156.119 6.182-7.153 12.527-16.088 5.501-7.746 9.909-14.866 9.758-14.967-.115-.077-2.846 3.935-10.418 14.505-8.79 12.273-11.983 16.462-11.867 16.55z"/><path style="fill:#fff" d="M40.071 195.629c-.412.241-.641.688-.581 1.125.067.485.459.741.519.779l87.453 59.885c.191.179 1.264 1.147 2.856 1.051a3.849 3.849 0 0 0 2.225-.902l107.913-137.181a.335.335 0 0 0 .093-.195c.022-.259-.332-.56-.894-.726l-76.206-17.197c-.427-.124-1.245-.3-2.25-.124a4.991 4.991 0 0 0-1.904.766L40.071 195.629z"/><g><path d="M161.868 152.978a45.633 45.633 0 0 1 7.813-1.978c7.023-1.129 13.04-.404 17.209.495a3067.194 3067.194 0 0 0-33.181-16.368c.537.794 2.555 3.977 2.027 8.357-.548 4.547-3.457 7.208-4.154 7.813-.259-2.744-1.213-4.451-1.879-5.39-5.137-7.247-18.341-4.459-19.261-4.253a25.463 25.463 0 0 0-6.17 2.257 36.852 36.852 0 0 1 8.19-1.812c1.812-.187 4.035-.402 6.923.016 2.04.296 3.7.804 4.867 1.232-2.695-.78-7.29-1.719-12.87-.902a30.177 30.177 0 0 0-8.505 2.571c-1.476.747-3.574 2.037-5.481 4.203-2.398 2.725-3.363 5.554-4.22 8.571-3.31 11.66-2.094 15.912-5.407 22.879a31.379 31.379 0 0 1-4.253 6.626 94.137 94.137 0 0 1 7.66-2.449c1.537-.419 3.464-.94 5.988-1.409 2.882-.535 5.116-.736 7.022-.892 6.413-.525 11.735-.754 14.934-.888 7.844-.33 11.767-.494 11.769-.445.004.076-6.639.552-13.549.94-12.701.712-17.343 1.12-23.712 2.868a69.165 69.165 0 0 0-5.959 1.929 75.274 75.274 0 0 0 4.228-.816c1.888-.421 2.548-.645 4.08-.94 1.301-.25 2.427-.396 4.179-.569 4.471-.44 8.968-.653 8.973-.569.006.085-4.677.224-11.421 1.262-4.37.672-8.205 1.507-8.184 1.632.026.156 5.989-.987 14.81-1.78 5.199-.468 9.45-.638 12.049-.742 6.271-.25 10.741-.319 17.585-1.119a49.03 49.03 0 0 0 2.327-.332c3.101-.509 7.666-1.461 13.14-3.406 3.07-.867 4.955-1.952 6.673-3.451 3.785-3.303 4.433-6.569 4.549-7.22.662-3.695-.911-6.707-1.385-7.615-4.306-8.255-16.863-8.311-17.404-8.306zm6.627 24.923c1.236-.264 4.283-1.09 6.874-3.808.758-.795 3.211-3.368 3.412-6.973.235-4.218-2.691-8.445-7.319-10.714 4.467 1.606 7.572 5.499 7.813 9.758.314 5.544-4.262 10.99-10.78 11.737z"/><path style="fill:#e5e5e5" d="M112.055 155.648c.016.006-2.328 4.433-3.758 10.549-.367 1.567-.757 3.602-1.689 6.997-.41 1.493-.599 2.244-.916 3.157-2.14 6.168-5.216 10.583-6.824 12.857a55.714 55.714 0 0 1-1.929 2.571 22.87 22.87 0 0 0 2.621-.429c1.812-.405 3.002-.905 6.453-2.324.664-.273 2.025-.833 3.857-1.582a32.936 32.936 0 0 0-4.648 1.607c-1.562.677-2.428 1.201-4.014 1.624a14.426 14.426 0 0 1-3.28.478c.192-.258.447-.606.742-1.022.227-.319.925-1.309 1.813-2.703 0 0 .825-1.295 1.516-2.489.323-.557 3.694-6.447 5.275-12.445l.676-2.76c1.588-6.489 1.841-7.587 2.393-9.348.882-2.809 1.702-4.742 1.712-4.738z"/><path style="fill:#e5e5e5" d="M113.143 155.451c-.057-.019-2.199 3.939-3.132 9.527-.437 2.617-.495 4.916-1.622 8.852-.217.758-.437 1.6-.867 2.687-.996 2.519-2.252 4.593-4.203 7.813a96.94 96.94 0 0 1-3.758 5.736 17.264 17.264 0 0 0 2.126-.445c1.217-.335 1.902-.667 3.734-1.385.558-.218 1.419-.55 2.497-.94a26.721 26.721 0 0 0-3.066.804c-.901.295-1.785.641-3.289 1.05-.377.103-.69.181-.9.232a109.8 109.8 0 0 0 3.249-5.054c2.954-4.887 3.789-7.176 4.187-8.275.374-1.034.567-1.825.755-2.529 1.004-3.753 1.124-6.101 1.454-8.351.845-5.771 2.892-9.703 2.835-9.722z"/></g></g></g></switch></svg>