<svg xmlns="http://www.w3.org/2000/svg" viewBox="0 0 350 350"><switch><g><path d="M289.14,281.084c-13.841-5.471-27.683-10.942-41.525-16.414 c-8.699,17.915-17.398,35.83-26.097,53.745c-17.011-14.816-34.022-29.632-51.034-44.448 c-11.85,6.198-23.701,12.396-35.551,18.593c-0.857-7.56-1.714-15.121-2.571-22.681c-18.2,15.331-36.4,30.662-54.6,45.993 c0.479-18.875,0.957-37.75,1.436-56.625c-6.4,3.412-12.799,6.824-19.199,10.236C60,199.656,60,129.828,60,60h229.999 c0.004,61.487,0.008,122.974,0.012,184.462c-2.223,1.104-4.445,2.209-6.668,3.313c1.86,1.038,3.72,2.077,5.58,3.115 c-2.308,1.747-4.615,3.495-6.923,5.242C284.38,264.449,286.76,272.767,289.14,281.084z" fill="#fff"/><path d="M69.534,210.372c0-46.946,0-93.892,0-140.838c70.31,0,140.62,0,210.93,0c0,46.814,0,93.629,0,140.443 C210.155,210.109,139.845,210.241,69.534,210.372z"/><path d="M276.264,266.978c-11.917-4.414-23.833-8.828-35.75-13.242 c-7.523,16.029-15.046,32.059-22.569,48.088c-14.934-13.286-29.868-26.571-44.802-39.857 c-10.154,5.505-20.308,11.011-30.462,16.516c-0.824-8.176-1.648-16.352-2.473-24.527 c-16.648,11.934-33.297,23.868-49.945,35.802c0.188-13.386,0.377-26.772,0.565-40.158c-7.094,1.024-14.188,2.048-21.282,3.072 c0-25.782,0-51.564,0-77.346c3.161-3.23,6.323-6.46,9.484-9.69c0-28.868,0-57.736,0-86.604c63.979,0,127.958,0,191.937,0 c0,43.837,0,87.675,0,131.512c0,12.13,0,24.26,0,36.39C272.733,253.615,274.498,260.297,276.264,266.978z" fill="#28c1cd"/><path d="M79.031,109.659c18.678-10.209,37.356-20.419,56.035-30.628c9.412,0,18.824,0,28.236,0 c-28.09,20.363-56.181,40.726-84.271,61.089C79.031,129.967,79.031,119.813,79.031,109.659z"/><path d="M190.055,79.032c-37.008,32.693-74.016,65.386-111.024,98.078v44.308 c14.92-2.242,29.84-4.484,44.76-6.725c37.319-45.22,74.637-90.441,111.956-135.661 C220.516,79.032,205.286,79.032,190.055,79.032z" fill="#fff"/><path d="M235.747,79.032L123.791,214.692c3.841,0,7.681,0,11.522,0c35.61-45.22,71.22-90.441,106.83-135.661 C240.011,79.032,237.879,79.032,235.747,79.032z"/><path d="M245.242,79.032h16.615l-21.343,174.705l-50.882,22.9c-6.32-1.307-12.641-2.614-18.961-3.921 c-9.33,1.923-18.659,3.846-27.989,5.769L245.242,79.032z" fill="#fff"/><path d="M261.857 79.032L270.968 79.032 261.857 251.088 240.514 253.736z"/><path d="M310.269,232.692c-11.432-13.703-23.107-27.498-35.027-41.374c-12.612-14.68-25.177-29.075-37.681-43.187 c-0.172-0.153-0.447-0.372-0.824-0.56c-0.998-0.499-1.973-0.417-2.885-0.33c-0.476,0.046-1.153,0.15-1.945,0.412 c-20.709,5.368-41.418,10.736-62.126,16.104c-0.868-0.033-1.736-0.066-2.604-0.099c4.407,37,8.813,74,13.22,111 c0.021,0.523,0.248,4.534,3.429,6.692c1.878,1.274,3.954,1.338,4.681,1.352c1.6,0.03,2.878-0.357,3.651-0.659 c4.872-1.905,47.956-17.138,56.712-20.077c0,0,44.786-15.033,61.797-22.537c0.309-0.136,1.056-0.484,1.434-1.249 C312.902,236.555,311.448,234.225,310.269,232.692z"/><path d="M303.918,232.519c-0.213-0.254-0.399-0.46-0.534-0.606 c-11.377-12.605-22.78-25.334-34.208-38.187c-11.85-13.328-23.569-26.615-35.159-39.857c-0.017-0.02-0.035-0.039-0.053-0.057 c0,0-0.415-0.403-1.455-0.203c-0.831,0.16-25.062,6.192-57.882,14.402c3.815,34.833,6.054,53.187,7.418,63.593 c2.256,17.212,2.061,15.97,2.455,19.113c0.976,7.783,1.919,15.526,2.829,23.23c0.008,0.075,0.128,1.005,0.996,1.458 c0.846,0.441,1.657,0.038,1.731,0c30.159-10.693,60.84-21.161,92.044-31.372c7.211-2.36,14.406-4.691,21.587-6.996 c0.382-0.13,1.815-0.657,1.96-1.625C305.752,234.7,305.129,233.959,303.918,232.519z" fill="#fff"/><path d="M197.44 186.275c5.023-1.456 10.067-2.907 15.132-4.352 3.965-1.131 7.921-2.252 11.868-3.363-1.063.763-5.301 3.987-6.111 9.576-.3 2.07-.042 3.855.276 5.128.798-1.542 2.439-4.191 5.473-6.297 4.675-3.245 9.552-3.048 12.363-2.934 2.016.082 11.78.477 14.11 6.033.502 1.198.564 2.41.143 5.067-1.139 7.192-3.657 11.107-7.676 21.043-1.697 4.196-2.558 6.753-2.571 10.162-.012 2.865.579 5.215 1.088 6.766-1.373-1.283-3.584-3.172-6.597-4.981-4.73-2.841-8.799-3.87-11.848-4.728-18.887-5.311-24.032-7.815-28.352-11.077-3.932-2.97-5.359-5.191-5.464-7.495-.177-3.885 3.458-6.857 4.936-8.065 7.85-6.419 19.02-4.274 22.055-3.593-1.644-1.42-4.093-3.209-7.385-4.615C204.201 186.551 199.99 186.252 197.44 186.275zM119.217 265.799c-1.718-.325-2.878-1.224-3.272-1.525-2.579-1.967-36.33-27.053-82.723-61.574-1.4-1.093-3.438-3.057-3.481-5.584-.046-2.643 2.111-4.68 3.344-5.748 4.907-4.253 27.863-21.485 59.453-44.522 36.047-26.343 62.12-45.405 64.418-47.225.334-.264 1.499-1.221 3.247-1.549 1.649-.309 2.972.056 3.565.259 23.553 8.892 47.107 17.783 70.661 26.675.317.095 1.617.525 2.39 1.863.632 1.092.544 2.152.511 2.489 0 0-.112 1.097-.808 2.126-7.467 11.047-65.786 80.044-65.786 80.044-9.149 10.825-16.044 20.268-34.993 42.103-3.58 4.126-6.556 7.5-8.535 9.734-.844.699-2.036 1.481-3.59 1.989C122.801 265.621 121.143 266.163 119.217 265.799z"/><path d="M119.044,259.136c-1.842-1.419-34.441-26.268-79.158-60.391c-1.044-0.698-1.324-1.292-1.31-1.755 c0.023-0.753,0.825-1.285,1.001-1.409c1.601-1.129,51.376-38.963,120.268-91.359c0.81-0.604,1.868-0.761,2.82-0.413 c21.851,8.268,43.703,16.536,65.554,24.804c0.327,0.114,0.812,0.308,1.36,0.63c0.442,0.261,0.666,0.396,0.766,0.606 c0.369,0.769-0.91,2.026-1.001,2.114c-35.315,42.308-70.63,84.617-105.945,126.925c-0.453,0.51-1.075,1.009-1.869,1.114 C120.359,260.157,119.369,259.387,119.044,259.136z" fill="#fff"/><path d="M144.165,139.082c3.585,1.72,7.343,3.426,11.275,5.093c5.973,2.533,11.745,4.725,17.258,6.626 c-3.748,0.048-8.828,0.498-14.588,2.176c-6.256,1.822-11.093,4.446-14.39,6.577c4.231-1.294,7.809-1.427,10.137-1.335 c2.892,0.114,7.368,0.289,11.773,3.152c1.848,1.201,4.752,3.089,5.837,6.622c1.218,3.967-0.593,7.613-1.192,8.82 c-2.927,5.894-10.073,8.649-25.121,12.363c-21.603,5.332-28.935,5.1-41.844,10.766c-5.455,2.394-9.684,4.866-12.354,6.542 c1.299-1.628,3.056-4.111,4.57-7.408c2.471-5.381,2.96-10.029,3.243-12.966c2.278-23.595,1.354-23.532,2.816-26.436 c4.261-8.464,14.095-12.948,22.008-13.421c2.629-0.157,11.405-0.682,15.45,5.161c1.734,2.505,1.978,5.286,1.957,7.004 c0.99-0.954,4.331-4.408,4.945-9.989C146.446,143.88,144.861,140.413,144.165,139.082z"/></g></switch></svg>