<svg xmlns="http://www.w3.org/2000/svg" viewBox="0 0 350 350"><switch><g><path d="M249.303,329.927c-1.127-1.258-2.844-3.219-4.853-5.701c-2.928-3.617-3.171-4.26-6.725-8.753 c-3.54-4.475-5.31-6.712-5.984-7.368c-0.6-0.584-2.084-1.981-3.462-4.253c-0.6-0.99-0.688-1.334-1.162-2.196 c-1.313-2.39-2.782-3.648-4.575-5.419c-1.723-1.702-2.921-3.09-5.316-5.864c-4.075-4.72-5.187-6.666-5.761-7.784 c-0.232-0.453-0.497-1.005-0.985-1.814c-1.251-2.073-2.597-3.56-3.561-4.509c-1.025,2.995-2.251,5.135-3.217,6.57 c-0.995,1.478-1.947,2.552-2.819,4.698c-0.442,1.087-0.443,1.415-1.088,2.967c-0.658,1.583-1.279,2.739-1.83,3.758 c-0.542,1.003-1.261,2.254-2.176,3.659c-1.474-2.985-2.265-4.355-2.72-5.044c-0.134-0.203-0.461-0.682-0.841-1.385 c-0.399-0.737-0.383-0.845-0.742-1.489c-0.449-0.805-0.696-1.248-1.187-1.676c-0.53-0.462-0.702-0.347-1.164-0.82 c-0.341-0.349-0.505-0.676-0.814-1.306c-0.492-1.002-0.365-1.103-0.744-1.764c-0.139-0.243-0.457-0.632-1.085-1.401 c-0.91-1.112-0.889-1.034-1.137-1.385c-0.421-0.596-0.812-1.148-1.056-1.947c-0.266-0.87-0.077-1.111-0.427-1.712 c-0.315-0.54-0.501-0.401-0.989-1.038c-0.66-0.862-0.526-1.386-1.136-1.759c-0.396-0.242-0.501-0.051-0.891-0.269 c-0.698-0.389-0.724-1.204-1.197-2.348c-0.063-0.154-0.404-0.729-1.085-1.879c-1.448-2.445-2.173-3.667-2.465-3.933 c-0.35-0.317-1.018-0.848-1.434-1.731c-0.079-0.167-0.195-0.445-0.304-0.75c-0.25-0.699-0.352-1.229-0.384-1.375 c-0.186-0.842-0.806-1.353-1.998-2.757c-1.022-1.203-1.668-2.126-2.161-2.832c-1.172-1.682-1.347-2.221-1.434-2.571 c-0.089-0.359-0.145-0.759-0.396-1.317c-0.281-0.623-0.64-1.076-0.908-1.368c-1.88,1.232-2.513,2.28-2.731,3.028 c-0.068,0.232-0.211,0.833-0.613,1.566c-0.32,0.584-0.637,0.948-0.905,1.267c-0.752,0.897-0.278,0.441-2.13,2.831 c-0.955,1.231-1.432,1.847-1.861,2.35c-1.641,1.922-2.006,1.925-3.264,3.511c-0.996,1.256-0.741,1.222-1.83,2.571 c-0.923,1.144-1.266,1.368-2.423,2.819c-0.65,0.816-0.975,1.223-1.385,1.83c-0.602,0.891-0.863,1.425-1.572,2.239 c-0.363,0.416-0.557,0.578-0.851,0.876c-1.134,1.153-1.654,2.219-2.149,3.04c-0.781,1.296-1.065,1.26-3.093,3.636 c-1.594,1.867-1.396,1.862-4.003,5.182c-0.861,1.096-2.142,2.724-3.848,4.724c-1.915,2.245-3.828,4.329-4.017,4.534 c-2.223,2.417-2.661,2.747-3.56,4.055c-0.817,1.188-1,1.709-1.929,2.868c-1.056,1.319-1.932,2.034-2.676,2.711 c-1.289,1.173-2.506,2.746-4.939,5.893c-1.137,1.47-2.524,3.342-4.037,5.576c-0.636-5.082-1.185-9.351-1.601-12.549 c-0.824-6.345-1.091-8.218-1.434-10.385c-0.867-5.475-1.008-5.158-1.706-9.585c-0.807-5.118-0.776-6.517-1.904-15.586 c-0.369-2.972-0.693-5.4-0.908-6.976c-2.566,1.861-4.605,3.434-5.966,4.504c-3.4,2.672-4.51,3.733-7.575,6.062 c-3.306,2.513-3.067,2.08-5.645,4.058c-4.329,3.323-5.288,4.765-9.89,8.571c-1.392,1.152-3.498,2.835-6.201,4.761 c0.78-10.987,1.637-18.632,2.298-23.695c0.636-4.871,1.175-9.754,1.794-14.627c0.062-0.49,0.415-3.266,0.743-6.919 c0.213-2.371,0.282-3.638,0.309-4.159c0.122-2.37,0.126-4.349,0.104-5.764C70.463,242.642,65.231,248.4,60,254.158 C60,189.439,60,124.719,60,60h230c0,61.5,0,123,0,184.5c-2.656-0.793-5.311-1.586-7.967-2.379 c-0.273,3.026-0.479,6.205-0.593,9.527c-0.145,4.197-0.13,8.184,0,11.934c0.26-0.264,0.633-0.699,0.923-1.319 c0.285-0.608,0.181-0.798,0.527-1.385c0.301-0.51,0.702-0.925,0.824-1.051c0.159-0.163,0.302-0.292,0.408-0.383 c0.036,1.296,0.018,2.246-0.007,2.89c-0.006,0.143-0.014,0.242-0.013,0.407c0.002,0.44,0.064,0.855,0.173,2.323 c0.212,2.883,0.247,4.118,0.325,4.117c0.07-0.001,0.112-1.019,0.128-1.401c0.058-1.418-0.025-2.334,0.009-2.336 c0.039-0.003,0.187,1.181,0.289,2.662c0.079,1.145,0.092,1.921,0.106,2.364c0.058,1.788,0.288,3.085,0.56,4.747 c0.617,3.768,1.156,7.541,1.912,13.121c0.259,1.909,0.466,3.503,0.61,4.632c-7.28-5.723-10.149-7.538-10.977-7.632 c-0.07-0.008-0.443-0.039-0.897-0.214c-0.778-0.3-1.217-0.798-1.626-1.203c-0.878-0.87-0.832-0.533-2.068-1.634 c-1.347-1.198-1.764-1.92-2.778-2.026c-0.316-0.033-0.28,0.037-0.593,0c-1.142-0.133-1.763-1.074-2.522-1.83 c-0.982-0.978-1.271-0.728-2.819-1.83c-1.569-1.117-2.235-2.059-3.313-3.214c-1.64-1.757-3.839-3.226-8.213-6.197 c-1.666-1.132-3.058-2.006-3.951-2.555c-0.102,3.975-0.073,7.445,0,10.286c0.1,3.893,0.241,4.896,0.346,9.148 c0.111,4.476,0.02,5.937,0.049,10.187c0.041,5.758,0.252,9.244,0.396,12.857C249.455,312.35,249.604,319.936,249.303,329.927z" fill="#fff"/><path d="M69.6,210.4c0-46.9,0-93.9,0-140.8c70.3,0,140.6,0,210.9,0c0,46.8,0,93.6,0,140.4C210.3,210.1,139.9,210.2,69.6,210.4z"/><path d="M238.912,299.747c-8.967-11.165-17.934-22.33-26.901-33.495 c-5.341-18.044-10.681-36.088-16.022-54.132c-4.126,10.193-8.251,20.385-12.377,30.578c-3.556-6.055-7.111-12.111-10.667-18.166 c-16.758,20.896-33.516,41.791-50.275,62.687c-3.114-18.871-6.228-37.742-9.342-56.613 c-8.424-5.876-16.849-11.752-25.273-17.629c-6.152,3.077-12.303,6.154-18.455,9.231c0-15.603,0-31.206,0-46.809 c3.2-3.2,6.3-6.5,9.5-9.7c0-28.9,0-57.7,0-86.6c64,0,128,0,191.9,0c0,43.833,0,87.667,0,131.5 c1.766,8.881,3.531,17.761,5.297,26.642c0.132,11.456,0.264,22.912,0.396,34.368c-10.286-8.225-20.571-16.451-30.857-24.676 c-2.22,0.725-4.44,1.451-6.659,2.176C239.088,265.989,239,282.868,238.912,299.747z" fill="#2b7e90"/><path d="M221.242,79.1c-35.407,45.674-70.814,91.347-106.22,137.021 c-4.066,5.245-8.132,10.49-12.198,15.735c-6.132,0.279-12.263,0.558-18.395,0.836c-5.297-3.187-10.593-6.374-15.89-9.56 c0.044-15.736,0.088-31.473,0.132-47.209c3.477-3.408,6.953-6.815,10.43-10.223c35.425-28.867,70.849-57.733,106.274-86.6 C197.33,79.1,209.286,79.1,221.242,79.1z" fill="#fff"/><path d="M221.242,79.1c1.143,0,2.286,0,3.429,0c-46.484,59.241-92.967,118.483-139.451,177.724 c0.016-0.775,0.033-1.549,0.049-2.324C130.593,196.033,175.918,137.567,221.242,79.1z" fill="#595959"/><path fill="#0f2c32" d="M85.22 256.824L85.22 262.989 225.363 79.1 224.67 79.1z"/><path d="M242.67,79.1c-0.587,0.558-1.445,1.486-2.176,2.818c-1.268,2.31-1.57,4.769-1.409,4.821 c0.036,0.012,0.081-0.104,0.396-0.495c0.187-0.232,0.357-0.423,0.495-0.569c0.132,0.626,0.194,1.455-0.272,2.027 c-0.463,0.569-1.033,0.375-1.632,0.923c-0.662,0.607-0.495,1.355-0.841,2.712c-0.169,0.663-0.498,1.629-1.212,2.745 c0.12,0.021,0.424,0.058,0.749-0.097c0.183-0.087,0.307-0.204,0.381-0.287c0.011,0.066,0.142,0.911-0.351,1.274 c-0.225,0.165-0.508,0.178-0.68,0.185c-0.599,0.026-0.784-0.261-0.997-0.136c-0.267,0.157-0.032,0.641-0.313,1.533 c-0.092,0.292-0.122,0.234-0.243,0.618c-0.193,0.609-0.176,1.024-0.597,2.2c-0.607,1.693-0.895,1.629-1.286,2.868 c-0.375,1.191-0.28,1.792-0.413,3.113c-0.203,2-0.688,3.243-1.103,4.606c-0.865,2.84-13.636,46.3-31.22,106.116l50.242,9.297 L260.868,79.1C254.802,79.1,248.736,79.1,242.67,79.1z M241.749,82.067c-0.352,0.732-0.735,1.347-1.09,1.845 c0.038-0.436,0.152-1.131,0.527-1.896c0.389-0.792,0.89-1.318,1.22-1.615C242.249,80.902,242.037,81.467,241.749,82.067z" fill="#fff"/><g fill="#0f2c32"><path d="M144.099 79.1L79.1 117.374v29.407c4.687-3.718 9.373-7.436 14.06-11.155 21.213-16.83 42.427-33.661 63.64-50.491 2.535-2.012 5.071-4.023 7.606-6.035C157.637 79.1 150.868 79.1 144.099 79.1zM79.1 115.806c.594-.288 1.414-.694 2.378-1.202 3.941-2.074 6.256-3.711 6.313-3.626.062.092-2.663 2.106-5.736 4.154-1.208.805-2.23 1.455-2.955 1.909C79.1 116.629 79.1 116.218 79.1 115.806zM82.618 109.941c3.154-1.813 5.722-3.296 7.522-4.337 2.388-1.381 3.997-2.317 4.055-2.225.055.086-1.295 1.05-2.522 1.904.629-.18 1.521-.484 2.522-1.014.891-.471 1.478-.915 1.508-.874.039.053-.878.87-1.978 1.582-1.471.952-2.754 1.382-3.214 1.541C88.997 107.042 86.614 108.005 82.618 109.941zM79.111 110.696c2.014-1.291 4.028-2.581 6.043-3.872-.559.652-1.224 1.348-2.011 2.044-1.427 1.263-2.836 2.16-4.026 2.794C79.115 111.34 79.113 111.018 79.111 110.696zM97.36 101.995c.012.009.344-.654 1.063-1.162.866-.612 1.659-.552 2.448-.692 2.385-.423 3.894-2.523 3.857-2.571-.032-.043-1.281 1.45-3.486 2.003-.992.249-1.479.132-2.275.618C97.857 100.867 97.345 101.983 97.36 101.995zM97.978 102.959c-.085-.092.402-.981 1.236-1.236.512-.157.696.065 1.212-.124.73-.267 1.018-.951 1.113-.89.074.048-.029.52-.371.841-.381.357-.773.259-1.409.42C98.606 102.262 98.062 103.049 97.978 102.959zM102.651 101.03c-.033-.041.225-.316.742-.865.151-.161.347-.363.643-.569.095-.066.44-.306.495-.247.056.06-.214.411-.396.618C103.524 100.665 102.718 101.114 102.651 101.03zM96.495 105.374c-.074-.064-.623.397-1.022.89-.143.176-.219.299-.264.363-.676.967-2.74.925-2.736.989.003.051 1.352.381 2.571-.363C96.092 106.613 96.592 105.457 96.495 105.374zM92.143 108.44c-.058-.074-.749.303-1.319.857-.337.328-.681.766-.626.824.067.07.717-.433 1.154-.824C91.435 109.222 92.21 108.525 92.143 108.44z"/><path d="M130.516 86.912c-2.65 1.373-5.287 2.725-7.912 4.055-4.098 1.851-7.111 3.604-9.165 4.912-.782.498-2.959 1.909-6.033 3.659-1.186.675-3.492 1.989-3.56 1.879-.091-.146 3.764-2.834 7.846-5.308 2.682-1.625 5.623-3.149 11.505-6.198 3.234-1.676 5.074-2.585 7.352-3.593 2.109-.933 3.907-1.647 5.209-2.143C134.022 85.089 132.275 86.001 130.516 86.912zM117.132 90.11c.111.232 4.268-2.133 4.558-2.802.016-.038.095-.243.272-.47.209-.268.394-.36.379-.387-.047-.085-1.856.739-1.788.931.028.081.359-.03.404.058C121.121 87.762 117.023 89.881 117.132 90.11zM123.602 85.89c-.004-.073.557-.028 1.451-.396.785-.323 1.21-.71 1.286-.626.065.073-.167.459-.495.725C124.973 86.299 123.608 86.004 123.602 85.89zM120.231 89.714c-.051-.091 1.435-1.054 2.736-1.78 1.033-.577 1.413-.704 2.769-1.451.754-.415 1.278-.728 2.044-1.187 2.912-1.745 4.361-2.787 4.451-2.67.069.09-.724.801-.824.89-1.978 1.765-3.914 2.616-5.044 3.132C122.43 88.444 120.292 89.824 120.231 89.714zM136.228 79.89c-1.107.593-2.278.834-2.324.717-.02-.051.183-.154 1.409-.89.428-.257.781-.471 1.021-.617.355 0 .711 0 1.066 0C137.136 79.32 136.744 79.614 136.228 79.89zM135.536 81.621c-1.3-.008-2.371 1.122-2.299 1.236.038.061.371-.198 1.36-.519 1.056-.343 1.736-.392 1.731-.519C136.323 81.72 135.909 81.623 135.536 81.621zM137.959 80.929c-.288.04-.576-.102-.569-.173.008-.078.363.012.717-.198.397-.235.497-.671.569-.643.054.021.03.279-.074.495C138.573 80.468 138.371 80.871 137.959 80.929zM138.973 79.519c-.138-.015-.33-.12-.321-.247.007-.107.153-.175.173-.184.239.004.478.008.717.012C139.406 79.374 139.182 79.542 138.973 79.519z"/><path d="M137.637 82.14c-.122-.12-1.341.933-2.151 1.731-.581.573-1.249 1.231-1.137 1.385.104.143.883-.148 1.459-.668.196-.177.317-.334.42-.47C137.205 82.836 137.693 82.195 137.637 82.14zM93.28 135.918c-2.382 2.352-4.473 4.292-6.132 5.786-3.44 3.098-2.568 2.072-4.698 4.055-1.584 1.475-2.975 2.889-3.351 2.621-.157-.112-.088-.482 0-.791.662-.501 1.64-1.248 2.807-2.176 2.298-1.827 3.764-3.107 5.784-4.824C89.028 139.452 90.931 137.848 93.28 135.918zM79.1 150.159c.153-.121.382-.304.656-.532.599-.499.78-.686.816-.655.056.047-.269.582-.705 1.038-.288.302-.568.51-.767.643C79.1 150.489 79.1 150.324 79.1 150.159zM81.824 147.308c.052.065 1.535-1.05 2.637-1.879 6.221-4.678 11.337-9.612 11.209-9.758C95.465 135.437 81.661 147.105 81.824 147.308zM96.89 136.363c-.086-.106-1.55.911-2.67 1.78-1.935 1.501-3.946 3.413-3.824 3.56.136.165 2.932-1.881 5.242-4.022C96.024 137.323 96.963 136.453 96.89 136.363zM96.132 135.538c-.146-.18 3.498-3.376 5.604-5.159 4.499-3.808 9.406-7.446 9.593-7.22.073.088-.585.74-1.434 1.582-2.454 2.433-4.578 3.993-4.797 4.154C98.993 133.38 96.257 135.693 96.132 135.538zM101.786 132.407c-.035-.064.5-.426 1.568-1.15.865-.587 1.394-.943 1.448-.877.055.066-.379.556-.841.94C102.984 132.132 101.841 132.509 101.786 132.407zM101.984 133.148c-.098-.131-1.99.957-1.879 1.236.04.1.36.16.504.037.027-.023.041-.047.047-.056.154-.257.64-.455 1.015-.81C101.771 133.46 102.023 133.201 101.984 133.148zM110.637 124.989c1.853-1.313 3.22-2.522 4.129-3.387 1.382-1.315 2.221-2.326 3.981-3.536.957-.658 1.463-.877 2.361-1.386 3.773-2.136 4.213-3.563 8.666-6.625 1.751-1.204 1.502-.859 3.659-2.324 2.138-1.452 3.048-2.243 5.819-4.269 2.282-1.669 2.114-1.461 3.874-2.753 2.044-1.501 2.625-2.045 7.83-6.28 4.47-3.637 5.218-4.194 5.703-4.549 1.37-1.004 2.246-1.586 4.154-3.033 1.55-1.176 2.688-2.094 3.518-2.765 1.581-1.278 3.589-2.947 5.894-4.981.247 0 .495 0 .742 0-.305.314-.762.783-1.319 1.351-4.084 4.16-4.873 4.706-7.352 7.286-2.623 2.729-4.003 4.467-4.168 4.338-.124-.096.513-1.163 1.07-1.931.962-1.327 1.947-2.124 1.929-2.143-.021-.023-1.366 1.165-2.885 2.44-1.419 1.19-1.693 1.368-2.131 1.516-.535.181-1.048.227-1.744.676-.342.221-.593.451-.872.71-.607.563-.974 1.035-1.154 1.253-.58.701-1.008.919-2.242 1.846-1.54 1.157-1.348 1.191-2.918 2.39-1.372 1.048-1.887 1.325-3.676 2.588 0 0-1.944 1.372-3.527 2.604-4.761 3.705-4.379 5.431-8.522 8.258-.887.606-.903.523-4.376 2.72-2.907 1.838-2.875 1.882-3.536 2.176-1.884.837-2.904.816-4.475 2.003-.439.332-.498.438-1.343 1.096-.976.76-1.765 1.293-2.563 1.821C113.516 123.186 111.946 124.179 110.637 124.989z"/><path d="M156.231,92.78c-0.094-0.167-1.819,0.284-2.967,1.582c-0.601,0.68-0.932,1.465-1.121,1.912 c-0.205,0.485-0.507,1.329-0.396,1.385c0.145,0.072,0.717-1.32,2.044-2.769C155.136,93.42,156.312,92.923,156.231,92.78z"/><path d="M157.788 92.005c.191.165-.722 1.821-2.126 3.165-1.937 1.853-4.375 2.694-4.525 2.448-.087-.142.624-.59 3.412-2.967C156.981 92.578 157.651 91.887 157.788 92.005zM143.011 103.89c-.271-.298 2.057-3.11 2.407-2.901.174.104-.118.97-.495 1.549C144.29 103.513 143.167 104.062 143.011 103.89zM147.066 100.56c.234-.335.495-.586 2.176-1.648 1.764-1.115 2.035-1.19 2.143-1.088.156.146-.03.652-.297.989-.441.557-1.131.684-1.319.725-.76.165-1.864.774-3.363 2.736C146.469 101.837 146.626 101.189 147.066 100.56zM139.368 106.643c1.475-1.369 3.217-3.274 3.041-3.462-.121-.129-.923.805-3.115 2.151-.651.4-1.303.761-1.83 1.558-.359.542-.689 1.33-.495 1.484C137.257 108.602 138.597 107.359 139.368 106.643zM169.187 79.1c-.445.234-.964.563-1.484 1.025-.221.197-.416.393-.586.583-.007.018-.017.048-.019.084-.012.17.146.262.148.334.006.177-.936.313-1.385.42-1.314.314-2.243 1.302-2.951 2.055-.587.624-.894.987-.894.987-.472.558-.648.828-1.048 1.054-.362.204-.417.074-.918.281-.472.195-.489.326-1.245.813-.7.451-.774.395-1.203.744-.358.292-.349.365-.692.606-.455.319-.856.459-.828.569.025.098.362.053.383.148.019.089-.259.189-.593.396-.348.215-.362.302-.859.688-.36.28-.425.275-.76.536-.348.271-.905.705-1.533 1.385-.518.561-.704.817-.742.791-.067-.046.335-.952 1.063-1.743.63-.684 1.038-.995 1.038-.995.24-.183.46-.32.668-.625.124-.182.148-.282.321-.643.185-.385.366-.706.432-.813.348-.566.752-.404 2.066-1.314.659-.456.998-.67 1.088-.742.373-.298.465-.422.718-.497.506-.149.693.184 1.12.067.404-.111.457-.47 1.03-1.152.208-.247.443-.462.915-.89 1.042-.947 1.938-1.546 2.299-1.78.316-.205.255-.151.564-.352.84-.547 1.458-1.056 1.908-1.428.17-.141.41-.342.692-.592C168.33 79.1 168.758 79.1 169.187 79.1zM159.495 83.912c.138.173 3.543-2.785 4.169-3.367.103-.096.319-.302.493-.633.164-.31.225-.604.25-.812-.139 0-.278 0-.417 0-.272.289-.677.721-1.164 1.254-.384.42-.651.718-.754.833C160.503 82.933 159.417 83.816 159.495 83.912zM156.791 85.89c-1.024.96-2.089 1.928-3.198 2.901-1.697 1.49-3.371 2.884-5.011 4.187.12-.312.328-.761.692-1.22.421-.53.728-.668 1.747-1.418.814-.599 1.309-1.019 2.011-1.615.968-.822 1.141-1.042 1.286-1.286.178-.299.249-.526.537-.762.18-.147.343-.215 1.012-.458C156.196 86.101 156.504 85.991 156.791 85.89zM148.055 92.945c.112.132-4.692 4.371-12.766 11.497-2.614 2.307-1.038.864-3.453 2.975-1.465 1.281-2.427 2.146-2.505 2.069-.117-.116 1.906-2.205 1.78-2.332-.151-.154-3.381 2.57-5.731 4.911-.295.294-.576.582-.599.562-.06-.053 1.503-2.413 3.885-4.443 1.846-1.573 2.543-1.55 5.288-3.741 1.11-.886 1.85-1.571 2.324-2.003C140.519 98.58 147.919 92.786 148.055 92.945zM114.495 121.082c.106.067.774-1.402 2.769-3.462 2.046-2.113 4.596-3.925 6.379-5.192 1.165-.828 1.735-1.183 1.681-1.286-.112-.214-2.965.67-5.341 2.374C115.927 116.425 114.313 120.967 114.495 121.082z"/></g><g fill="#0f2c32"><path d="M260.868 79.1L270.066 79.1 265.467 189.424 253.153 184.758zM271 92.714c-.274-.018-1.08 8.451-1.56 15.495-.354 5.185-.704 12.119-.527 12.132.129.009.585-3.7 2.088-21.264C271.168 93.828 271.099 92.721 271 92.714zM269.637 123.11c-.151.003-.068 2.134-.396 5.802-.422 4.735-1.161 7.914-1.029 7.94.111.022.667-2.244 1.029-3.984.356-1.713.62-2.984.725-4.615C270.142 125.547 269.799 123.107 269.637 123.11z"/><path d="M269.646,142.668c0.175-1.75,0.253-4.255-0.272-7.195c-0.35-1.961-0.908-3.776-0.989-3.758 c-0.085,0.019,0.391,2.087,0.766,4.92C269.484,139.147,269.601,141.235,269.646,142.668z"/></g><path d="M334.681,222.736c0.224,0.284,1.361,1.788,1.022,3.725c-0.393,2.247-2.462,3.301-2.868,3.495 c-0.837,0.398-0.776,0.073-2.835,0.709c-1.24,0.383-2.025,0.625-2.967,1.203c-0.731,0.448-0.83,0.653-1.488,0.932 c-0.697,0.296-1.179,0.319-2.204,0.452c-1.401,0.182-0.964,0.2-2.802,0.462c-1.311,0.187-3.548,0.505-3.593,0.297 c-0.016-0.073,0.25-0.135,0.857-0.462c0.828-0.445,0.892-0.628,1.806-1.168c0.479-0.283,0.417-0.206,1.326-0.711 c0.78-0.433,1.388-0.773,1.352-0.857c-0.024-0.057-0.325,0.041-0.857,0.165c-1.023,0.237-1.965,0.352-1.978,0.297 c-0.012-0.053,0.856-0.178,1.846-0.692c0.673-0.35,1.165-0.756,1.484-1.055c-0.256,0.156-0.6,0.346-1.022,0.527 c-1.654,0.711-3.218,0.733-3.231,0.659c-0.009-0.053,0.786-0.121,2.11-0.593c1.017-0.363,1.782-0.764,2.209-0.989 c0.601-0.317,0.579-0.346,1.846-1.088c0.268-0.157,1.061-0.62,2.092-1.187c1.402-0.773,2.103-1.159,2.227-1.186 c0.11-0.024,0.665-0.141,1.121-0.56c0.072-0.066,0.326-0.305,0.264-0.462c-0.039-0.097-0.162-0.069-0.33-0.198 c-0.226-0.174-0.16-0.347-0.33-0.429c-0.171-0.083-0.287,0.069-0.626,0.066c-0.198-0.002-0.281-0.055-0.462-0.099 c-0.635-0.154-1.039,0.158-1.121,0.033c-0.121-0.185,0.567-1.179,1.384-1.205c0.325-0.01,0.493,0.138,0.891,0.051 c0.313-0.069,0.703-0.269,0.692-0.462c-0.011-0.203-0.456-0.221-1.022-0.56c-0.187-0.112-0.709-0.425-1-0.947 c-0.346-0.62-0.044-0.956-0.319-2.086c-0.129-0.529-0.346-1.073-0.429-1.055c-0.12,0.025-0.021,1.231,0.099,2.077 c0.061,0.429,0.124,0.74,0.066,0.758c-0.098,0.031-0.44-0.804-0.462-0.857c-0.315-0.773-0.296-1.048-0.56-1.879 c-0.137-0.43-0.285-0.785-0.582-1.496c-0.474-1.135-0.656-1.404-0.605-1.438c0.103-0.068,1.071,0.852,1.492,2.172 c0.206,0.647,0.219,1.194,0.255,1.191c0.051-0.004,0.144-1.118-0.066-2.209c-0.432-2.247-2.071-3.831-4.648-6.397 c-0.447-0.445-0.834-0.799-1.108-1.043c0.024,0.226,0.081,0.566,0.233,0.949c0.24,0.607,0.574,0.997,0.792,1.248 c1.736,2.002,2.055,2.395,2.291,3.033c0.208,0.563,0.301,1.179,0.198,1.22c-0.108,0.043-0.41-0.552-0.923-1.385 c0,0-0.209-0.34-1.418-2.077c-0.81-1.164-1.427-1.773-3.165-3.89c-2.278-2.776-3.417-4.164-3.709-4.492 c-0.88-0.987-1.567-2.153-2.547-3.041c0,0-1.008-0.913-1.36-2.028c-0.141-0.447-0.099-0.865-0.099-0.865 c0.022-0.222,0.078-0.401,0.124-0.519c0.233,0.326,0.479,0.657,0.742,0.989c0.97,1.23,1.975,2.268,2.942,3.14 c-0.619-0.867-1.542-2.127-2.72-3.61c-1.515-1.908-3.385-4.102-3.511-4.005c-0.119,0.091,1.39,2.175,1.291,2.247 c-0.074,0.054-0.995-1.059-1.686-1.951c-0.844-1.089-1.046-1.461-2.077-2.868c-1.546-2.11-2.043-2.572-2.077-2.547 c-0.028,0.021,0.27,0.377,0.346,0.964c0.023,0.18,0.019,0.329,0.012,0.42c-0.246-0.238-0.595-0.62-0.915-1.162 c-0.149-0.253-0.186-0.361-0.309-0.569c-0.387-0.654-0.86-1.008-1.164-1.265c-0.21-0.178-0.653-0.715-1.539-1.79 c-0.908-1.102-2.622-3.442-4.64-6.637c3.685,4.204,7.873,8.909,8.06,8.753c0.082-0.068-0.618-1.042-2.324-3.313 c-4.986-6.639-12.711-16.42-13.451-17.357c0,0-1.832-2.323-3.412-4.78c-0.511-0.795-0.834-1.298-1.253-2.044 c-0.47-0.839-0.637-1.23-1.187-2.143c-0.203-0.338-0.486-0.806-0.89-1.385c-0.118-0.17-0.235-0.329-0.35-0.484 c0.658,0.83,1.231,1.588,1.701,2.231c0.881,1.205,1.384,1.894,2.027,2.951c0.647,1.063,0.996,1.775,1.055,1.747 c0.075-0.036-0.391-1.264-0.989-2.44c-0.432-0.851-0.854-1.518-1.154-1.962c0.294,0.3,0.697,0.742,1.121,1.319 c0.659,0.898,0.931,1.529,0.956,1.516c0.04-0.021-0.545-1.713-1.941-3.416c-0.481-0.587-0.389-0.358-1.108-1.182 c-1.161-1.33-1.99-2.6-2.687-3.676c-0.26-0.402-0.466-0.733-0.593-0.94c-4.516-4.917-6.794-6.596-8.027-7.071 c-0.299-0.115-1.983-0.716-2.143-1.78c-0.039-0.262,0.018-0.54-0.132-0.956c-0.187-0.518-0.543-0.868-0.824-1.088 c0.014,0.469-0.012,1.02-0.231,1.088c-0.288,0.089-0.714-0.723-1.319-1.549c-0.267-0.365-1.391-1.877-2.934-2.835 c-1.5-0.931-2.084-0.682-3.758-1.549c-0.784-0.406-1.106-0.654-1.725-1.005c-0.15-0.085-0.268-0.148-0.387-0.212 c0.466,0.106,1.01,0.245,1.625,0.442c2.617,0.837,4.097,1.925,4.154,1.83c0.06-0.099-1.456-1.457-3.684-2.176 c-1.167-0.377-2.276-0.496-2.961-0.509c-0.252-0.103-0.624-0.244-1.074-0.379c0.698-0.063,1.625-0.1,2.69-0.016 c0.915,0.294,1.869,0.68,2.829,1.201c3.534,1.916,5.325,4.612,5.39,4.549c0.07-0.068-1.877-3.343-5.724-5.328 c0.896,0.237,1.827,0.578,2.757,1.075c3.047,1.628,4.728,4.154,4.896,4.005c0.151-0.134-1.011-2.363-3.115-3.907 c-2.058-1.509-4.494-1.978-6.56-2.027c-3.752-1.241-7.031-0.616-7.039-0.495c-0.006,0.1,2.259-0.154,5.24,0.554 c-0.726,0.064-1.344,0.164-1.809,0.264c-0.156-0.039-0.316-0.077-0.481-0.11c-1.589-0.317-4.138-0.198-6.56,0.725 c-3.032,1.156-3.659,1.483-3.659,1.484c-0.059,0.031-0.985,0.515-1.063,0.396c-0.065-0.099,0.525-0.504,0.445-0.668 c-0.096-0.196-1.092,0.077-1.854,0.346c-0.702,0.248-1.709,0.67-2.868,1.409c-18.165,3.923-36.33,7.846-54.495,11.769 c1.935,29.99,3.239,51.901,3.288,54.049c0.048,2.108,0.072,3.161-0.223,4.277c-0.078,0.296-0.181,0.757-0.223,1.409 c-0.072,1.12,0.119,2.05,0.297,2.67c0.243-1.492,0.347-1.81,0.396-1.805c0.062,0.007,0.055,0.537,0.049,0.915 c-0.003,0.212-0.018,0.895-0.173,1.953c-0.036,0.249-0.034,0.201-0.049,0.321c-0.102,0.798-0.012,1.392,0.05,1.879 c0.243,1.891,0.019,1.741,0.247,2.423c0.232,0.697,0.46,0.839,0.544,1.508c0.095,0.759-0.13,1.388-0.168,1.384 c-0.035-0.004,0.078-0.514-0.079-1.244c-0.033-0.152-0.068-0.269-0.231-0.742c-0.246-0.713-0.442-1.244-0.445-1.253 c-0.195-0.529-0.153-0.776-0.28-2.522c-0.069-0.952-0.166-1.901-0.247-2.852c-0.047-0.551-0.093-1.086-0.132-1.533 c-0.073,0.414-0.16,1.009-0.198,1.731c-0.019,0.371-0.023,0.715,0.025,1.912c0.061,1.543,0.092,2.314,0.173,2.901 c0.07,0.505,0.191,1.025,0.429,2.044c0.149,0.639,0.868,3.717,1.104,3.676c0.12-0.021,0.013-0.831,0.221-0.882 c0.164-0.04,0.403,0.419,0.471,0.544c0.528,0.961,0.607,2.189,0.346,2.275c-0.246,0.081-0.687-0.888-0.841-0.816 c-0.119,0.056,0.076,0.677,0.346,1.632c0.575,2.035,0.676,2.708,0.717,3.041c0.092,0.742,0.148,1.843-0.016,1.875 c-0.294,0.056-1.115-3.346-1.269-3.309c-0.06,0.015,0.064,0.524,0.297,2.176c0.15,1.066,0.21,1.643,0.519,2.398 c0.185,0.45,0.396,0.816,0.396,0.816c0.385,0.667,0.58,0.72,0.742,1.088c0.192,0.436,0.056,0.674-0.049,1.731 c-0.051,0.513-0.057,1.018-0.069,2.03c-0.009,0.774-0.025,2.124,0.168,2.148c0.14,0.018,0.255-0.679,0.42-0.668 c0.207,0.014,0.231,1.111,0.42,2.522c0.233,1.737,0.549,2.718,0.457,2.745c-0.165,0.049-1.14-3.159-1.348-3.103 c-0.164,0.044,0.237,2.091,0.544,3.449c0.323,1.426,0.655,2.581,0.89,3.35c0.264-0.402,0.548-0.981,0.556-1.694 c0.004-0.315-0.047-0.577-0.025-0.581c0.047-0.008,0.304,1.148,0.532,2.361c0.143,0.764,0.431,2.386,0.445,4.413 c0.009,1.26-0.172,1.383-0.247,1.397c-0.188,0.034-0.449-0.525-0.635-0.989c0.045,0.816,0.162,1.464,0.264,1.912 c0.106,0.468,0.179,0.651,0.371,1.401c0.059,0.232,0.278,1.003,0.371,1.607c0.247,1.609,0.051,2.027,0.247,3.313 c0.069,0.449,0.203,1.121,0.495,1.929c0.024-1.141,0.055-2.139,0.074-3.041c0.004-0.193,0.018-0.831,0.346-1.533 c0.1-0.214,0.315-0.672,0.495-0.643c0.185,0.03,0.233,0.616,0.321,1.78c0.034,0.445,0.066,0.883,0.021,0.89 c-0.099,0.015-0.382-2.067-0.59-2.052c-0.166,0.012-0.228,1.36-0.198,2.448c0.034,1.224,0.188,2.229,0.321,2.918 c0.35,0.566,0.505,0.863,0.466,0.891c-0.046,0.033-0.366-0.313-0.961-1.04c0.028,0.188,0.336,2.235,0.841,3.635 c0.198,0.551,0.332,0.92,0.618,1.385c0.229,0.372,0.445,0.622,0.406,0.659c-0.05,0.048-0.498-0.278-0.801-0.634 c-0.258-0.302-0.692-0.956-0.701-2.176c-0.166,1.243-0.265,3.322,0.577,5.613c0.511,1.391,1.177,2.33,2.003,3.486 c2.24,3.139,4.569,4.834,4.475,4.945c-0.069,0.081-1.404-0.717-2.769-2.077c-2.719-2.708-3.493-5.523-3.709-5.44 c-0.226,0.088,0.091,3.383,2.324,6.231c0.378,0.482,2.832,3.527,7.022,4.253c1.039,0.18,2.737-0.034,6.132-0.462 c4.265-0.537,6.525-1.178,7.121-1.352c1.389-0.404,2.332-0.769,3.874-1.371c3.412-1.331,5.638-2.445,9.873-4.481 c1.031-0.496,3.527-1.695,6.132-2.918c9.521-4.469,12.876-5.672,15.198-6.099c1.472-0.271,2.157-0.433,3.527-0.758 c0.622-0.148,3.158-0.757,3.132-0.89c-0.033-0.168-4.084,0.701-4.187,0.33c-0.117-0.421,4.805-2.601,9.454-3.967 c1.129-0.332,2.509-0.917,4.375-1.796c1.171-0.552,2.316-1.091,3.76-1.976c1.972-1.209,2.622-1.91,4.574-2.868 c0.841-0.413,1.558-0.694,2.028-0.865c-1.616,1.047-3.232,2.093-4.848,3.14c0.641-0.242,1.594-0.618,2.722-1.137 c2.326-1.07,3.95-2.078,4.475-2.398c4.317-2.633,11.469-5.783,17.555-7.962c2.136-0.765,1.756-0.538,3.659-1.236 c6.76-2.48,7.018-3.675,11.357-4.78c1.748-0.445,3.409-1.219,5.176-1.582c0.719-0.148,2.051-0.389,2.929-1.481 c0.333-0.414,0.508-0.836,0.605-1.136c-0.095,0.064-0.246,0.163-0.435,0.276c-0.922,0.548-1.651,0.712-2.769,1.137 c-0.95,0.362-1.636,0.594-1.78,0.643c-0.355,0.12-3.532,1.187-3.61,0.989c-0.069-0.175,2.17-1.624,4.797-2.275 c0.605-0.15,1.72-0.379,3.232-0.977c0.347-0.138,0.721-0.268,1.169-0.506c0.89-0.473,1.061-0.782,1.797-1.286 c1.207-0.826,2.435-1.15,2.835-1.253c0.762-0.195,1.023-0.151,1.78-0.429c0.09-0.033,0.837-0.311,1.516-0.758 c0.639-0.421,2.388-1.573,2.654-3.593C336.461,224.532,334.897,222.948,334.681,222.736z"/><path d="M314.497 200.129c-.082.034-.03.842.488 1.382.424.442.788.315 1.363.88.333.327.491.645.549.614.06-.032-.019-.416-.224-.75-.394-.643-.917-.555-1.544-1.214C314.668 200.558 314.561 200.102 314.497 200.129zM320.272 207.343c.11-.063-.079-.655-.31-1.109-.661-1.298-1.97-2.063-2.102-1.927-.078.081.378.661 1.29 1.821C320.136 207.384 320.246 207.358 320.272 207.343zM312.668 194.368c.079-.03.015-.455-.134-.771-.196-.418-.584-.741-.657-.687C311.743 193.006 312.513 194.426 312.668 194.368zM327.62 229.728c-.491.363-.901.617-1.477.974-.897.556-1.008.56-1.249.828-.092.102-.235.279-.495.408-.254.127-.504.15-.68.148.112.113.331.293.618.297.308.003.537-.198.785-.416.246-.217.39-.42.428-.472.63-.854 1.968-.389 2.854-1.325.306-.323.262-.5.816-1.125.272-.307.522-.535.692-.68-.259.079-.651.22-1.088.47C328.353 229.106 328.25 229.262 327.62 229.728zM330.264 227.681c.009.014.033 0 .56-.198.267-.1.356-.132.429-.231.097-.131.137-.342.066-.396C331.137 226.72 330.2 227.587 330.264 227.681zM334.931 221.181c.148-.102-1.679-3.47-4.634-6.711-1.279-1.402-2.724-2.733-2.819-2.646-.088.081 1.026 1.361 3.437 4.352C334.162 220.205 334.846 221.239 334.931 221.181zM280.673 255.415c.04.121 1.261-.076 2.448-.544.692-.273 1.541-.841 3.239-1.978.252-.168.797-.537 1.409-1.137.072-.071.806-.79.742-.865-.092-.109-1.632 1.356-4.005 2.695C282.32 254.819 280.626 255.27 280.673 255.415zM194.62 252.068c.087 0 .192-.408.198-.791.011-.745-.237-1.231-.42-1.731-.504-1.377-.34-2.325-.47-2.324-.141.001-.455 1.119-.148 2.225.148.533.314.613.532 1.409C194.506 251.572 194.524 252.068 194.62 252.068zM287.423 163.239c.453 1.069.507 1.092.519 1.088.043-.015-.077-.473-.148-.717-.386-1.323-1.088-2.435-1.162-2.398C286.576 161.239 286.867 161.927 287.423 163.239zM271 142.544c.136-.024.169-.732-.012-1.312-.23-.737-.759-1.122-.922-1.232C270.634 142.085 270.883 142.565 271 142.544zM190.302 225.769c.036-.01.033-.164-.11-1.094-.205-1.328-.307-1.992-.368-1.989-.101.005-.232 1.012.033 2.044C189.993 225.26 190.231 225.789 190.302 225.769z"/><path d="M209.077,266.747c0.086,0.47,0.276,0.98,0.703,1.309c0.962,0.742,2.588,0.144,3.303-0.138 c2.627-1.037,47.136-19.202,108.078-44.126c0.702-0.189,1.378-0.508,1.554-1.071c0.288-0.924-0.912-2.043-1.12-2.25 c-1.858-1.853-26.354-32.556-61.254-76.535c-0.225-0.236-0.563-0.532-1.033-0.745c-1.261-0.571-2.578-0.145-2.886-0.056 c-1.842,0.534-29.205,6.888-66.96,15.646C196,194.769,202.538,230.758,209.077,266.747z" fill="#fff"/><g fill="#e5e5e5"><path d="M219.538,202.714c1.342,0.774,3.364,1.888,5.898,3.077c0.801,0.376,3.363,1.562,9.445,3.734 c5.473,1.954,9.506,3.175,13.451,5.044c2.365,1.121,3.571,1.94,3.981,2.225c1.182,0.823,1.752,1.387,3.314,2.491 c1.182,0.835,2.185,1.451,2.83,1.832c0.166-0.39,0.409-1.031,0.568-1.85c0.237-1.216,0.163-2.161,0.148-2.411 c-0.176-3.113,2.652-11.75,2.411-11.831c-0.153-0.052-1.806,3.251-2.365,7.063c-0.201,1.371-0.463,3.153-0.437,4.773 c0.004,0.232,0.02,0.898-0.078,1.787c-0.089,0.807-0.235,1.46-0.346,1.891c-0.534-0.283-1.299-0.72-2.163-1.335 c-1.13-0.804-1.871-1.513-2.04-1.669c-3.103-2.87-15.194-7.244-15.194-7.244c-6.789-2.456-7.555-2.531-11.819-4.253 C223.87,204.717,221.241,203.517,219.538,202.714z"/><path d="M221.308,202.75c5.226,2.41,9.585,4.025,12.593,5.052c3.085,1.053,4.813,1.511,7.199,2.353 c0.965,0.34,1.605,0.575,2.204,0.81c0,0,0.451,0.178,0.899,0.364c4.981,2.073,9.346,5.044,9.346,5.044 c1.879,1.279,3.141,2.331,3.696,2.806c0.347,0.297,0.629,0.548,0.816,0.717c0.023-0.194,0.054-0.467,0.083-0.796 c0.017-0.19,0.088-1.027,0.09-1.738c0.003-0.748-0.072-0.809-0.092-1.491c-0.024-0.798,0.051-1.39,0.121-1.937 c0.369-2.915,1.49-5.28,1.615-5.538c0.312-0.645,0.643-1.223,0.593-1.253c-0.059-0.036-0.633,0.727-1.088,1.484 c-0.627,1.043-0.987,2.303-1.681,4.78c0,0-0.356,1.27-0.161,2.188c0.003,0.013,0.014,0.063,0.028,0.133 c0.038,0.188,0.103,0.542,0.145,0.992c0.09,0.949,0.026,1.726-0.037,2.213c-0.807-0.703-1.91-1.62-3.272-2.625 c-0.944-0.696-2.585-1.902-4.846-3.165c-1.84-1.028-3.374-1.699-4.401-2.128c-4.574-1.91-8.332-2.731-11.918-3.938 C229.872,205.943,225.84,204.514,221.308,202.75z"/></g><path d="M273.997 182.525c-1.745-5.759-11.63-7.01-12.832-7.162-7.16-.906-13.751 2.284-16.383 3.87-.556.269-1.066.532-1.518.779.185-1.234.628-3.054 1.78-4.945 2.32-3.807 5.918-5.283 7.187-5.736-5.496 1.406-11.145 2.773-16.945 4.088-5.58 1.265-11.055 2.427-16.418 3.494 3.177-.039 8.646.388 14.11 3.626 1.554.921 2.864 1.925 3.956 2.901-.301-.065-1.185-.245-2.439-.393.002 0 .004 0 .006 0-2.127-.327-5.031-.508-8.28.033-2.496.135-7.205.854-11.213 3.878-1.503 1.134-4.045 3.112-4.17 6.168-.091 2.222 1.14 3.947 1.766 4.705-.629-1.029-1.349-2.608-1.187-4.451.228-2.59 2.102-4.556 4.117-5.976-1.693 1.25-3.085 2.852-3.301 4.839-.084.768.026 1.429.148 1.904.302-1.148.895-2.797 2.151-4.401 1.081-1.38 2.358-2.326 3.803-3.069-.504.417-.989.873-1.446 1.379-1.167 1.294-3.297 3.655-2.967 6.462.604 5.139 9.019 8.056 17.736 11.077 8.793 3.048 14.748 3.603 22.747 9.165.853.593 1.536 1.108 1.978 1.451.026-.715.11-2.059.461-3.692 1.459-6.783 5.598-9.603 10.549-18.297.609-1.069 1.58-2.841 2.646-5.143-.174.522-.459 1.332-.865 2.299-1.183 2.816-2.325 4.416-4.418 7.69-2.221 3.476-3.332 5.214-3.725 6.264-1.202 3.208-1.494 6.665-1.368 6.692.021.004.056-.082.247-.659.573-1.731.849-2.762 1.055-3.396.153-.469.396-1.121 1.309-2.798 1.575-2.892 3.454-5.734 5.054-8.345 0 0 3.23-5.272 4.639-9.973.322-1.073.334-2.126.334-2.126.004-.312-.013-.563-.025-.701.056-.629-.004-1.213-.203-1.772-1.519-4.272-8.443-5.34-11.011-5.736-4.287-.662-8.187-.108-11.405.834 1.958-.637 4.321-1.192 7.021-1.394 1.279-.096 4.311-.238 7.978.659 3.758.92 5.351 2.239 5.736 2.571.75.647 2.229 1.922 2.769 4.022.424 1.649.049 2.948-.626 5.176-.989 3.261-2.481 5.653-3.89 7.912-1.152 1.847-1.77 2.741-2.525 3.848-1.154 1.691-1.568 2.192-2.337 3.545-1.244 2.188-2.798 5.521-3.758 10.162.567-1.854 1.58-4.756 3.338-8.085.697-1.319 1.132-1.989 5.085-8.151 2.784-4.339 4.189-6.553 4.846-8.736C274.03 186.445 274.606 184.533 273.997 182.525zM255.593 119.253c-.085-.615-.331-1.709-1.187-2.934.311.657.815 1.957.725 3.626-.098 1.831-.856 3.102-1.319 3.857-1.644 2.682-4.256 3.976-4.38 3.832-.051-.059.315-.352 1.018-1.36.373-.534.716-1.026 1.01-1.681.202-.451.457-1.149.573-2.077-.661.734-.847.856-.89.824-.077-.057.324-.578.676-1.5.372-.975.402-1.641.511-1.632.1.008.192.574.132 1.121-.058.527-.229.788-.132.857.118.084.536-.183.742-.56.161-.296.159-.597.157-.915-.003-.387-.074-.389-.074-.742-.001-.555.174-.913.074-.964-.084-.043-.22.202-.346.173-.127-.03-.215-.332-.19-1.212.08.089.188.221.297.396.102.163.147.272.181.264.056-.014.028-.323.016-.445-.055-.596-.187-.818-.082-.923.097-.098.348-.043.511.049.818.465.413 2.438.609 2.463.118.015.423-.685.363-1.452-.006-.071-.102-1.107-.912-1.797-.314-.268-.37-.172-.966-.607-.217-.159-.268-.214-.97-.817-.551-.474-.829-.712-.983-.815-.329-.219-.319-.157-1.162-.593-.74-.383-.894-.507-1.286-.593-.321-.071-.869-.132-.915 0-.065.19.973.598 2.349 1.484 1.133.729 2.32 1.67 2.25 1.78-.08.127-1.846-.825-3.165-1.681-.948-.616-1.422-.924-1.805-1.36-.366-.417-.471-.674-.857-.824-.573-.223-.87.199-1.582-.066-.093-.035-.112-.049-1.022-.527-.754-.397-.809-.423-.923-.462-.404-.137-.714-.146-1.286-.165-.815-.026-1.145.09-1.319.165-.137.059-.447.193-.429.297.028.161.813.026 2.077.231.713.116 1.149.27 1.385.363.296.116.374.175.824.396 1.148.563 1.667.687 1.648.758-.026.1-1.065-.011-2.143-.396-.431-.154-.396-.183-.791-.33-.759-.282-1.281-.32-2.736-.495-1.689-.202-2.081-.281-2.11-.462-.046-.284.845-.551.791-.758-.064-.248-1.417-.172-2.637-.099-1.013.061-1.697.14-1.846-.165-.105-.215.174-.381.099-.626-.158-.517-1.55-.264-3.362-.771-.778-.218-.553-.261-1.386-.515-1.5-.457-1.905-.174-3.61-.593-1.011-.249-.922-.362-1.582-.445-1.109-.14-1.54.157-2.357-.148-.616-.23-.484-.441-1.187-.791-.718-.358-1.367-.391-2.637-.442-1.255-.05-1.367.085-2.076-.062-.799-.165-1.181-.445-1.782-.716-1.172-.527-2.028-.5-3.34-.631-3.24-.324-3.158-1.002-6.798-1.458-2.317-.29-2.557-.041-3.995-.479-1.765-.537-1.896-1.062-3.471-1.355-.784-.146-1.825-.114-3.907-.049-1.319.041-2.007.111-2.918-.247-.668-.263-.588-.414-1.558-.964-.294-.167-1.614-.888-3.462-1.236-1.179-.222-1.079-.011-1.871-.239-1.549-.446-1.5-1.132-2.802-1.385-.966-.187-1.59.075-2.209-.461-.281-.244-.246-.379-.56-.626-.551-.433-1.185-.431-1.813-.462-.835-.04-1.659-.215-2.492-.282-3.058-.246-3.253-.26-3.656-.377-.956-.277-1.09-.488-2.324-.964-1.396-.539-2.494-.76-3.511-.964-2.706-.544-5.191-.568-6.874-.495 1.095.189 2.387.456 2.374.692-.01.17-.688.194-1.632.396-.612.131-2.546.563-4.368 1.896-.109.079.019-.01-2.036 1.986-.757.736-1.065 1.03-1.459 1.508-.597.724-.995 1.386-1.236 1.83-.481.26-1.07.527-1.236.346-.155-.169.181-.59.049-.717-.19-.184-1.425.304-1.912 1.31-.211.435-.216.831-.554.979-.277.121-.435-.074-.781.027-.308.09-.414.312-.808.808-.223.28-.542.681-.94 1.03-.325.285-.731.634-1.325.765-.431.095-.563-.012-.976.021-.357.028-.649.139-1.779.895-1.193.799-1.79 1.198-2.275 1.706-.543.57-.486.68-.941 1.043-.602.48-.976.504-1.458 1.059-.309.355-.207.405-.519.766-.317.366-.56.476-1.427 1.002-1.036.628-.904.602-1.49.927-.694.385-.852.407-1.439.726-.414.225-.841.489-1.667 1.093-2.444 1.787-2.252 2.071-3.529 2.747-.764.405-1.185.49-1.978 1.071-.587.431-.688.691-1.291 1.18-.754.611-1.289.808-1.94 1.16-1.411.763-1.348 1.16-2.901 2.258-1.77 1.252-2.085.902-3.692 2.077-1.533 1.121-2.547 2.39-2.473 2.473.084.093 1.707-1.129 2.571-1.813 1.03-.815 1.294-1.112 1.95-1.278.454-.115.818-.097 1.413-.371.467-.215.602-.391 1.015-.67 1.08-.727 2.319-.977 2.38-.847.038.081-.358.341-.89.692-1.045.689-1.198.593-1.648 1.022-.507.484-.463.75-.923.956-.312.14-.359.03-.956.231-.572.192-.794.383-.923.527-.136.152-.101.178-.212.278-.31.279-.672.155-1.044.254-.382.102-.483.361-.976.927-.222.254-.622.612-1.422 1.327-.86.769-1.288 1.155-1.653 1.359-.644.361-.88.321-1.507.77-.257.184-.311.258-.916.788-.2.175-.686.6-1.187 1.005-.38.307-.932.713-2.021 1.512-.316.232-.474.348-.749.548-1.595 1.162-3.024 2.309-4.302 3.264-2.391 1.786-2.273 1.419-4.5 3.115-1.53 1.166-1.547 1.308-3.091 2.453-2.033 1.507-2.142 1.361-3.585 2.492-1.763 1.382-1.861 1.804-3.593 3.149-.808.627-1.321.95-3.1 2.076-6.059 3.835-7.371 4.683-9.066 6.165-1.278 1.117-.85.912-2.11 2.011-2.763 2.409-6.785 5.106-8.39 6.404-.453.366-.68.549-.878.808-.368.481-.459.872-.952 1.194-.206.135-.187.064-.474.225-.498.278-.585.507-1.306 1.16-.276.25-.414.375-.618.519-.36.254-.497.275-.841.544-.083.065-.229.2-.519.469-.435.402-.453.436-.643.595-.164.137-.366.305-.643.47-.352.209-.479.206-.89.396-.086.04-.505.236-.964.569-.464.336-.792.683-.989.915-.525.617-.359.696-.791 1.137-.255.26-.711.642-1.36.841-.286.088-.379.069-.618.124-.854.193-1.405.819-1.657 1.088-1.013 1.082-2.337 1.831-3.412 2.852-2.501 2.375-3.187 2.006-7.319 5.407-2.475 2.037-3.258 3.017-3.824 4.154-.675 1.356-.983 2.819-1.088 3.33-.27 1.318-.326 2.454-.319 3.28-.08.767-.106 1.9.203 3.214.29 1.232.764 2.149 1.071 2.67.466.789.909 1.278 1.484 1.912.636.702 1.645 1.8 3.198 2.786 1.149.729 1.397.636 2.357 1.352.89.664 1.507 1.362 1.896 1.863-.255-.398-.657-.978-1.224-1.611-1.607-1.793-2.54-1.785-4.644-3.532-2.608-2.165-3.072-3.754-3.198-4.269-.127-.518-.159-.964-.165-1.269.259.646.575 1.083.824 1.368.296.339.462.422.792.857.324.426.3.524.609.923.383.495.862.917.94.857.102-.079-.534-.957-.412-1.055.077-.062.316.297.94.626.398.211.643.246.907.544.129.147.144.222.254.398.434.696 1.155 1.051 1.197 1.003.023-.027-.162-.191-.462-.659-.112-.174-.167-.262-.148-.28.052-.05.542.495 1.319 1.055 0 0 .598.471 1.368.956 1.562.983 2.855 1.292 2.819 1.418-.041.144-1.713-.301-1.78-.099-.044.132.647.392 1.582.989 1.067.681 1.138.962 2.374 1.846.791.566 1.972 1.317 2.077 1.187.158-.196-2.256-2.227-2.044-2.505.112-.148.901.28 1.055.363 1.421.769 1.716 1.54 3.066 2.637.366.298.127.064 2.011 1.352 1.426.975 2.326 1.592 2.275 1.681-.047.082-.887-.308-1.451-.593-2.842-1.44-4.394-3.124-4.516-3-.094.095.654 1.254 1.945 2.209 1.008.746 1.424.685 2.67 1.451 1.501.922 2.619 2.067 2.538 2.176-.143.193-4.234-2.661-4.319-2.538-.063.091 1.815 2.197 3.461 2.901.063.027 1.018.433 1.154 1.022.056.243.033.461.033.461-.038.357-.211.555-.165.593.055.046.422-.138.56-.462.283-.663-.591-1.453-.396-1.681.167-.195.945.216 1.286.396 2.762 1.453 3.608 1.775 3.56 1.879-.088.193-2.936-.98-3-.824-.031.074.608.363 1.945 1.187.471.29.363.237 1.187.758 1.409.892 1.924 1.175 1.879 1.286-.067.165-1.278-.273-1.352-.099-.055.132.597.477 1.912 1.385 1.003.691 1.318.969 1.484 1.121.591.542.612.707 1.121 1.22 1.063 1.072 2.257 1.651 2.308 1.582.037-.05-.453-.556-.956-.956-.357-.284-.554-.383-.626-.626-.095-.319.093-.657.264-.89.157.098.392.251.659.462.443.347.597.55.89.824.982.917 1.744.964 1.797 1.525.005.048.023.25-.099.371-.234.232-.757-.056-.816.049-.099.178 1.316 1.147 1.484 1.261.559.381.633.399.989.643.922.632 1.196 1.036 1.879 1.607.435.364 1.109.857 2.077 1.31-.086-.071-1.844-1.529-2.448-2.126-.085-.084-.251-.254-.223-.445.025-.171.201-.329.371-.346.287-.03.508.345.791.717.225.295.711.724 1.681 1.582.521.46.661.529 1.36 1.088 1.855 1.484 1.793 1.74 3.022 2.605.923.65.961.509 2.121 1.326.565.398.773.584 1.77 1.299.668.479 1.187.738 1.147.827-.04.089-.589-.077-.742-.124-.372-.112-.978-.356-1.865-.9 1.785 1.34 2.24 1.835 2.161 1.963-.078.128-.684-.104-1.187-.297-1.784-.683-2.985-1.574-3.536-1.978-1.709-1.254-2.662-1.954-3.872-2.696-1.623-.996-2.085-1.072-3.912-2.212-1.09-.68-1.943-1.287-2.477-1.681.314.31.797.76 1.436 1.238 1.135.85 2.012 1.23 2.747 1.602 1.529.773 2.933 1.899 5.74 4.153.535.43.975.84 1.855 1.66.834.778 1 .976.956 1.044-.145.222-2.418-1.175-2.538-.989-.087.135.822 1.291 2.038 1.558.243.053.6.094.979.364.345.245.486.523.642.748.392.565.855.766 1.582 1.187.323.187 1.204.806 2.967 2.044 1.537 1.08 1.34 1.085 2.571 1.945 2.187 1.528 3.119 1.729 5.366 3.285.871.603 1.306.904 1.39.973.978.799 1.447 1.453 1.849 1.313.117-.041.263-.16.363-.527.178.099.445.254.758.462.881.584 1.357 1.076 1.747 1.418.754.66.797.419 2.802 1.615.824.492 1.419.892 2.427 1.569 1.073.721 1.853 1.281 2.156 1.497.348.249 3.246 2.317 6.175 4.237 1.775 1.164 3.159 2.066 5.131 3.15 1.407.773 2.617 1.366 3.496 1.778 1.648.962 3.116 1.399 4.088 1.615.439.098 4.577.965 8.902-.81.779-.32 1.556-.722 2.99-1.464 1.478-.765 2.67-1.444 3.471-1.913-1.132.108-1.396.042-1.415-.044-.04-.175.969-.37 1.976-1.242.357-.309.6-.635 1.088-1.286.544-.727.824-1.208 1.615-2.494.324-.526.607-.98 1.174-1.887.756-1.21 1.21-1.923 1.892-2.773.312-.389.84-1.044.923-.989.182.121-1.94 3.512-1.813 3.593.072.046.745-1.037 2.093-2.687 1.029-1.26 1.157-1.266 2.473-2.852.986-1.189 1.343-1.702 1.434-1.648.097.057-.126.744-1.549 3.527 1.898-2.498 3.033-4.06 3.527-4.846.11-.175.351-.57.791-.989.505-.48.856-.595 1.236-.89.751-.583.998-1.388 1.187-1.879.206-.534 1.267-2.064 3.389-5.124 1.996-2.878 2.994-4.318 4.216-5.726.487-.561 1.503-1.698 2.596-3.443.508-.811.348-.662.865-1.488 1.405-2.245 2.317-2.907 3.259-4.428.096-.155.383-.627.857-1.187.332-.392.609-.654.675-.717 1.074-1.034 3.302-4.447 5.391-7.063 1.99-2.492 2.652-2.757 3.956-4.945.672-1.128.881-1.703 1.385-2.703.512-1.017 1.385-2.583 4.681-6.659 1.422-1.758 4.247-5.252 7.648-8.769 1.514-1.566 2.137-2.287 3.382-3.729.577-.668 1.125-1.378 2.222-2.799.843-1.092 1.122-1.489 1.385-2.11.414-.98.252-1.251.659-1.912.518-.841 1.136-.976 2.044-1.648.396-.293 1.017-1.056 2.242-2.571 2.768-3.422 2.045-2.981 3.033-3.956.609-.602 1.176-1.057 1.311-1.872.094-.568-.105-.804.043-1.673.075-.44.171-.967.572-1.446.382-.457.981-.799 1.107-.679.234.223-1.227 2.004-1.104 2.102.097.078 1.069-.985 1.367-1.311.818-.894 1.227-1.342 1.666-1.999.756-1.135.617-1.385 1.235-2.089.604-.687 1.082-.84 1.78-1.319 1.108-.759 1.623-1.551 2.538-2.802 1.349-1.844 2.862-3.562 4.267-5.363 2.096-2.688 2.766-3.332 4.371-5.318 2.85-3.528 7.684-10.996 12.646-18.016.643-.909 1.839-2.587 1.966-2.506.088.055-.34.888-.544 1.261-.635 1.161-1.359 1.999-1.904 2.547.839-.452 1.358-.96 1.681-1.352.508-.615.557-.971 1.121-1.385.665-.488 1.407-.587 1.385-.692-.024-.109-.812.073-.923-.165-.09-.193.319-.552.593-.808 1.317-1.23 1.023-1.517 2.11-2.456.828-.716.947-.505 2.044-1.352 0 0 .964-.745 1.747-1.648C253.828 125.012 256.038 122.461 255.593 119.253zM36.338 189.027c-.942.919-1.125 1.057-1.574 1.518.18-.053.406-.112.723-.209.285-.087.427-.132.529-.172.719-.281 1.016-.9 1.091-.852.079.051-.107.828-.72 1.297-.149.114-.47.266-1.113.569-.379.179-.485.217-.662.35-.063.047-.377.288-.633.726-.237.406-.306.777-.344.996-.079.451-.019.64-.074.652-.119.025-.558-.814-.338-1.611.012-.045.025-.083.036-.113-.349.416-.633.807-.876 1.25-1.139 2.071-.706 3.916-.989 3.931-.301.016-1.121-2.052-.42-3.931.388-1.039 1.072-1.571 2.324-2.571 4.215-3.369 5.53-4.598 5.613-4.5C38.985 186.446 37.912 187.493 36.338 189.027zM39.33 188.236c-.334.469-.902.75-1.014.643-.078-.075.136-.447.569-1.187.405-.693.609-1.039.692-1.014C39.74 186.727 39.779 187.605 39.33 188.236zM42.61 181.165c-1.006 1.386-1.508 2.078-1.731 2.324-.677.748-1.55 1.323-3.297 2.473-1.059.697-1.279.776-2.077 1.368-.879.652-1.522 1.231-1.929 1.599-.54.489-1.198 1.121-1.912 1.896.09-.528.254-.927.396-1.203.137-.267.313-.536 1.187-1.516.436-.489.654-.734.857-.94.855-.865 1.604-1.315 2.637-1.995 0 0 1.385-.911 2.571-1.78 2.484-1.821 3.918-3.476 4.039-3.363C43.39 180.063 43.271 180.254 42.61 181.165zM54.692 217.198c-.303-.192-.268-.245-.923-.791-.719-.599-1.12-.834-1.088-.89.036-.063.587.151 1.088.429.645.357.738.56 1.451 1.022.771.5 1.212.62 1.187.692C56.372 217.76 55.472 217.692 54.692 217.198zM163.154 93.984c.138.022.431.07.779.223.353.155.343.233.593.297.181.046.372.043.754.037.235-.004.41-.018.569.099.063.046.143.128.124.173-.028.062-.227-.003-.495 0-.236.003-.3.056-.581.111-.133.026-.536.103-.989.037-.394-.057-.741-.211-.729-.272.011-.058.345-.017.359-.087.011-.054-.18-.135-.334-.198-.69-.282-.995-.343-.989-.396C162.221 93.944 162.692 93.911 163.154 93.984zM154.426 95.999c-.64.093-1.09.509-1.261.668-.504.467-.623.942-.742.902-.102-.034-.116-.425.025-.754.152-.356.435-.527.915-.804 1.691-.974 2.055-1.08 2.473-1.1.386-.019.724.039.725.078.001.042-.39-.014-.725.218-.342.237-.27.528-.581.717C154.998 96.08 154.864 95.935 154.426 95.999zM159.247 98.549c-.261.001-.513-.014-.791.132-.19.099-.295.223-.379.313-.333.356-.577.441-1.071.775-1.01.683-1.566 1.394-1.632 1.335-.057-.051.405-.541.94-1.5.439-.788.355-.865.56-1.088.966-1.048 3.604-.201 3.593-.082C160.461 98.495 159.732 98.549 159.247 98.549zM169.419 97.952c-.013-.104.643-.246.627-.323-.009-.045-.239-.036-.707 0-.563.044-.844.065-1.079.1-1.019.151-1.603.401-1.644.309-.051-.115.862-.52.791-.775-.011-.041-.058-.112-.725-.198-.711-.091-1.092-.136-1.203.049-.1.168.102.387.016.462-.071.061-.27-.038-1.022-.544-.543-.365-.511-.362-.593-.396-.679-.277-1.353.106-1.418-.033-.073-.156.796-.604.709-.857-.042-.121-.272-.113-.61-.181-.546-.11-.823-.305-1.17-.462-1.161-.522-2.638-.391-2.637-.478.001-.094 1.757-.557 3.478.115.523.204.776.409 1.484.577.608.144.891.018 1.846.198.206.039.192.043.791.165.786.16.894.17 1.154.231.585.138.857.281 1.352.461.467.171 1.155.383 2.06.528.634.407 1.616.866 3.103 1.026-.116-.058-.284-.154-.457-.309-.149-.133-.445-.436-.383-.532.051-.079.315.039.791.173.14.04.481.109 1.162.247.763.155.815.135 1.533.272 1.648.315 1.992.539 2.163.668.365.274.584.595.705.804-.295-.181-.719-.398-1.261-.544-.43-.115-.812-.153-1.113-.161.041.081.106.186.21.284.184.174.365.21.359.235-.011.039-.487.051-.952-.198-.437-.234-.437-.469-.841-.606-.119-.04-.154-.031-.705-.049-.834-.027-1.133-.06-1.15.012-.024.102.547.281.519.383-.02.074-.346.058-.507.049-.161-.008-.271-.026-.346-.037-.612-.088-.956.011-1.001-.111-.033-.088.134-.166.111-.26-.044-.183-.746-.157-1.236-.148C171.494 98.102 169.442 98.134 169.419 97.952zM194.405 103.817c-.849-.044-1.702-.088-2.348.18-.096.04-.395.173-.816.223-.277.033-.51.018-.668 0 .251-.299.278-.406.247-.445-.045-.057-.214.03-.643.173-.553.184-.793.213-.915.223-.037.003-.565.042-.593-.074-.023-.095.297-.25.445-.321.289-.14.55-.21.742-.247-.595-.185-1.04-.157-1.335-.099-.337.067-.425.163-.791.223-.349.057-.681.037-1.212-.074-.745-.156-1.266-.364-1.681-.519-.728-.272-1.258-.43-2.052-.668-1.245-.372-1.917-.573-2.843-.668-1.27-.13-1.388.105-2.225-.148-.843-.255-.906-.549-1.78-.766-.819-.204-.975.001-1.879-.148-1.25-.207-2.206-.806-2.176-.89.026-.073.798.275 2.184.462 1.049.141 1.272.031 2.143.198.979.188.941.374 1.846.593 1.414.342 1.83-.034 4.075.224.581.067.456.081 1.2.171 1.413.172 1.873.122 2.67.429.473.182.387.228.766.346.361.112.747.166 2.151.099.841-.04 1.415-.094 1.434 0 .016.082-.407.183-.396.272.033.247 3.349-.05 3.387.223.015.108-.493.243-.47.346.02.089.417.047.841.049.109.001 1.121.014 2.126.396.498.189 1.072.498 1.039.593C196.838 104.289 195.915 103.895 194.405 103.817z"/><path d="M80.363 238.567c-.638-.479-1.443-1.064-2.459-1.782C78.903 237.604 79.708 238.165 80.363 238.567zM141.495 104.516c.52-.372.573-1.168.462-1.22-.09-.042-.24.423-.791.791-.575.385-1.092.334-1.088.429C140.082 104.637 140.931 104.921 141.495 104.516zM134.473 109.165c.484-.545.432-.853.857-1.286.353-.359.458-.218 1.055-.626.815-.557.763-.918 1.615-1.549.642-.475 1.082-.574 1.055-.659-.045-.142-1.322-.071-2.472.56-1.033.567-1.579 1.373-2.077 2.11-.566.836-1.136 1.977-.956 2.11C133.676 109.918 134.169 109.506 134.473 109.165zM165.495 91.692c.392.146.424.158.478.198.246.18.262.424.346.412.09-.012.2-.308.099-.511-.212-.426-1.293-.319-1.302-.247C165.114 91.551 165.126 91.555 165.495 91.692zM185.104 97.733c.757.09 1.522-.142 1.516-.264-.003-.081-.345-.099-.923-.198-1.673-.285-2.443-.75-2.505-.626C183.122 96.784 183.981 97.599 185.104 97.733zM199.989 101.032c.327.049.895.077.915-.025.043-.22-2.477-1.049-2.571-.841C198.277 100.291 199.047 100.89 199.989 101.032zM208.747 102.583c1.022.284 1.163.139 2.077.371 1.105.28 1.264.584 2.25.717.579.078 1.319.08 1.335-.025.05-.327-6.92-1.766-6.973-1.558C207.419 102.159 208.186 102.427 208.747 102.583zM228.429 107.187c.686.222.961.093 3.14.223.36.021.54.032.766.049 1.15.088 1.592.182 1.607.124.02-.08-.744-.437-1.681-.618-1.265-.244-1.59.075-2.868-.074-1.447-.169-2.345-.732-2.398-.618C226.948 106.371 227.576 106.911 228.429 107.187zM220.972 105.561c1.138.493 1.835.697 2.654.702.383.002 1.068-.037 1.082-.171.018-.175-1.135-.349-3.157-.903-1.93-.529-2.843-.909-2.881-.816C218.618 104.497 220.195 105.225 220.972 105.561zM243.462 107.236c2.214.703 3.555 1.548 3.635 1.409.062-.108-.72-.675-1.162-.964-.547-.359-1.496-.967-2.843-1.212-1.069-.194-2.159-.117-2.176.025C240.899 106.632 241.898 106.74 243.462 107.236zM240.223 109.758c.504.156.549.18 2.151.692.745.238 1.12.358 1.261.396 1.005.266 1.347.229 2.349.445.931.201 1.616.444 1.755.495.428.154 1.439.525 2.571 1.261.623.405.885.663 1.607 1.014.451.219.844.359 1.113.445-.543-.724-1.077-1.199-1.434-1.484-1.152-.916-2.271-1.272-4.253-1.904-.824-.263-1.236-.394-1.731-.445-.686-.071-1.083.011-1.756-.198-.436-.136-.614-.277-.989-.47-1.577-.81-2.367-.323-4.203-1.137-.503-.223-.52-.293-.915-.42-.936-.301-1.799-.215-2.374-.099.962.304 1.753.536 2.299.692C239.056 109.437 239.198 109.441 240.223 109.758zM212.934 177.505c.156.119 6.182-7.153 12.527-16.088 5.501-7.746 9.909-14.866 9.758-14.967-.115-.077-2.846 3.935-10.418 14.505C216.011 173.228 212.818 177.417 212.934 177.505z"/><path d="M40.071,195.629c-0.412,0.241-0.641,0.688-0.581,1.125c0.067,0.485,0.459,0.741,0.519,0.779 c29.151,19.962,58.302,39.923,87.453,59.885c0.191,0.179,1.264,1.147,2.856,1.051c1.17-0.071,1.957-0.676,2.225-0.902 c35.971-45.727,71.942-91.454,107.913-137.181c0.068-0.077,0.089-0.145,0.093-0.195c0.022-0.259-0.332-0.56-0.894-0.726 c-25.402-5.732-50.804-11.465-76.206-17.197c-0.427-0.124-1.245-0.3-2.25-0.124c-0.895,0.158-1.545,0.526-1.904,0.766 C119.555,133.816,79.813,164.723,40.071,195.629z" fill="#fff"/><path d="M161.868,152.978c2.239-0.782,4.856-1.503,7.813-1.978c7.023-1.129,13.04-0.404,17.209,0.495 c-5.534-2.772-11.105-5.541-16.714-8.308c-5.509-2.717-10.999-5.404-16.467-8.06c0.537,0.794,2.555,3.977,2.027,8.357 c-0.548,4.547-3.457,7.208-4.154,7.813c-0.259-2.744-1.213-4.451-1.879-5.39c-5.137-7.247-18.341-4.459-19.261-4.253 c-2.763,0.619-4.887,1.59-6.17,2.257c3.284-1.127,6.127-1.599,8.19-1.812c1.812-0.187,4.035-0.402,6.923,0.016 c2.04,0.296,3.7,0.804,4.867,1.232c-2.695-0.78-7.29-1.719-12.87-0.902c-3.568,0.522-6.451,1.602-8.505,2.571 c-1.476,0.747-3.574,2.037-5.481,4.203c-2.398,2.725-3.363,5.554-4.22,8.571c-3.31,11.66-2.094,15.912-5.407,22.879 c-1.487,3.127-3.21,5.378-4.253,6.626c3.012-1.106,5.627-1.894,7.66-2.449c1.537-0.419,3.464-0.94,5.988-1.409 c2.882-0.535,5.116-0.736,7.022-0.892c6.413-0.525,11.735-0.754,14.934-0.888c7.844-0.33,11.767-0.494,11.769-0.445 c0.004,0.076-6.639,0.552-13.549,0.94c-12.701,0.712-17.343,1.12-23.712,2.868c-2.564,0.704-4.626,1.429-5.959,1.929 c1.705-0.279,3.138-0.573,4.228-0.816c1.888-0.421,2.548-0.645,4.08-0.94c1.301-0.25,2.427-0.396,4.179-0.569 c4.471-0.44,8.968-0.653,8.973-0.569c0.006,0.085-4.677,0.224-11.421,1.262c-4.37,0.672-8.205,1.507-8.184,1.632 c0.026,0.156,5.989-0.987,14.81-1.78c5.199-0.468,9.45-0.638,12.049-0.742c6.271-0.25,10.741-0.319,17.585-1.119 c0.73-0.085,1.47-0.191,2.327-0.332c3.101-0.509,7.666-1.461,13.14-3.406c3.07-0.867,4.955-1.952,6.673-3.451 c3.785-3.303,4.433-6.569,4.549-7.22c0.662-3.695-0.911-6.707-1.385-7.615C174.966,153.029,162.409,152.973,161.868,152.978z M168.495,177.901c1.236-0.264,4.283-1.09,6.874-3.808c0.758-0.795,3.211-3.368,3.412-6.973 c0.235-4.218-2.691-8.445-7.319-10.714c4.467,1.606,7.572,5.499,7.813,9.758C179.589,171.708,175.013,177.154,168.495,177.901z"/><g fill="#e5e5e5"><path d="M112.055,155.648c0.016,0.006-2.328,4.433-3.758,10.549c-0.367,1.567-0.757,3.602-1.689,6.997 c-0.41,1.493-0.599,2.244-0.916,3.157c-2.14,6.168-5.216,10.583-6.824,12.857c-0.76,1.076-1.435,1.951-1.929,2.571 c0.593-0.062,1.514-0.181,2.621-0.429c1.812-0.405,3.002-0.905,6.453-2.324c0.664-0.273,2.025-0.833,3.857-1.582 c-2.018,0.537-3.585,1.146-4.648,1.607c-1.562,0.677-2.428,1.201-4.014,1.624c-1.355,0.361-2.514,0.455-3.28,0.478 c0.192-0.258,0.447-0.606,0.742-1.022c0.227-0.319,0.925-1.309,1.813-2.703c0,0,0.825-1.295,1.516-2.489 c0.323-0.557,3.694-6.447,5.275-12.445c0.009-0.033,0.231-0.942,0.676-2.76c1.588-6.489,1.841-7.587,2.393-9.348 C111.225,157.577,112.045,155.644,112.055,155.648z"/><path d="M113.143,155.451c-0.057-0.019-2.199,3.939-3.132,9.527c-0.437,2.617-0.495,4.916-1.622,8.852 c-0.217,0.758-0.437,1.6-0.867,2.687c-0.996,2.519-2.252,4.593-4.203,7.813c-1.462,2.413-2.787,4.363-3.758,5.736 c0.457-0.066,1.213-0.193,2.126-0.445c1.217-0.335,1.902-0.667,3.734-1.385c0.558-0.218,1.419-0.55,2.497-0.94 c-1.311,0.264-2.347,0.568-3.066,0.804c-0.901,0.295-1.785,0.641-3.289,1.05c-0.377,0.103-0.69,0.181-0.9,0.232 c1.356-1.988,2.441-3.718,3.249-5.054c2.954-4.887,3.789-7.176,4.187-8.275c0.374-1.034,0.567-1.825,0.755-2.529 c1.004-3.753,1.124-6.101,1.454-8.351C111.153,159.402,113.2,155.47,113.143,155.451z"/></g></g></switch></svg>