<svg xmlns="http://www.w3.org/2000/svg" xml:space="preserve" style="enable-background:new 0 0 350 350" viewBox="0 0 350 350"><switch><g><path d="M45 45h260v260H45z" style="opacity:.4"/><path d="m271.667 266.583 4.556 21.75-33.889-17.222-2.222-1-22.111 49.111-47.667-44.444-32.062 21.889L135.084 276l-49.833 41.729 1.278-51.507-13.528 6.917L73 73h204v192.319l-5.333 1.264z" style="fill:#2b7f90"/><path d="m242.333 271.111-24 49.333-47.75-40.611-32.312 16.833L250.446 73h17.22l-22.455 199.574-2.878-1.463zM191.5 73H239L109.671 227.442 73 225.666v-54.667L191.5 73z" style="fill:#fff"/><path d="M132.556 73h28.777L73 137v-32zm108.611 0H246l-52.606 66.249-5.727-4.916L241.167 73zM277 73h-9.333a6896.864 6896.864 0 0 0-22.456 199.574l20.024 10.176a9294.84 9294.84 0 0 0 11.764-181.25L277 73z"/><path d="M234.833 144.667c.64-.244 3.868-1.405 6.896.25a7.247 7.247 0 0 1 2.104 1.75 4203.484 4203.484 0 0 1 76 88.25c.085.071 1.856 1.592 1.5 3.833-.271 1.707-1.66 3.094-3.458 3.417l-124.764 44.5c-3.445 1.256-7.041.743-9.239-1.414-1.186-1.163-1.695-2.541-1.928-3.475A2440.311 2440.311 0 0 1 168.167 161l66.666-16.333z"/><path d="m238 151.083 74.778 83.583c.808.902 1.009 2.051.545 2.823-.241.401-.613.62-.887.736L192.513 278.47c-.171.034-1.321.24-2.346-.554-1.041-.806-1.117-1.996-1.125-2.167l-15.264-111.417L238 151.083z" style="fill:#fff"/><path d="m199.625 185.25 28.458-8.125c-.87.565-5.432 3.648-6.25 9.292-.333 2.301.069 4.245.458 5.5 1.123-1.767 3.663-5.187 8.208-7.333 4.323-2.041 8.201-1.864 10.694-1.75 4.274.195 7.287 1.389 8.843 2.022 2.052.834 3.353 1.381 4.441 2.693 1.657 1.997 1.848 4.593 1.688 7.035-.374 5.711-2.543 8.691-7.472 19.722 0 0-3.343 7.482-3.417 12.417-.014.931.057 4.607.903 5.861.086.127.484.681.603 1.489.068.459.023.845-.02 1.081l-.347-.236c-4.608-4.1-8.83-6.535-11.833-8-3.022-1.475-7.945-3.003-17.667-6-2.503-.772-6.884-2.106-12.531-4.341-3.759-1.488-6.213-2.637-8.719-4.825-2.31-2.017-4.654-4.063-4.837-7-.284-4.552 4.826-8.024 6.754-9.334 3.607-2.451 7.122-3.052 9.917-3.5 2.597-.416 6.714-.75 11.75.25a31.769 31.769 0 0 0-6.5-4c-5.244-2.412-10.066-2.883-13.124-2.918zM24 191.889c-1.915 1.514-2.864 3.829-2.417 5.986.368 1.774 1.56 2.855 2.028 3.236l90.806 66.972c.603.37 2.843 1.648 5.861 1.222 3.003-.424 4.798-2.254 5.278-2.778L241.223 128.11c.236-.316 1.278-1.781 1-3.75-.395-2.8-3.084-3.97-3.222-4.028l-74.792-27.458a8.73 8.73 0 0 0-4.292-.375A8.738 8.738 0 0 0 156 94.207c-44 32.562-88 65.122-132 97.682z"/><path d="m36.125 200.5 79.517 60.681c.302.272 1.241 1.048 2.664 1.152 1.943.143 3.253-1.077 3.464-1.281 1.818-2.104 4.638-5.377 8.064-9.386 26.08-30.517 42.499-51.315 62.833-76.417a4807.83 4807.83 0 0 1 41-49.917l-71.556-26.556A2194.446 2194.446 0 0 0 134 119c-18.405 13.463-30.933 23.069-64.208 48.375A41704.427 41704.427 0 0 1 36.5 192.667c-.104.068-2.383 1.61-2.25 4.292.105 2.118 1.637 3.355 1.875 3.541z" style="fill:#fff"/><path d="M86.833 206.25a35.424 35.424 0 0 0 3.227-4.703c8.991-15.684.905-29.992 8.357-44.63 3.24-6.364 7.53-9.085 8.626-9.744.725-.436 2.516-1.451 5.809-2.37 4.091-1.142 17.069-4.766 23.774 2.192 1.077 1.117 3.096 3.654 3.708 8.505 1.147-1.219 3.391-3.941 4.333-8.083 1.32-5.802-.807-10.457-1.5-11.833l30.667 12.333a49.367 49.367 0 0 0-17.074 2.442 49.267 49.267 0 0 0-13.009 6.558c2.605-.844 6.391-1.672 10.917-1.333 2.563.192 7.233.599 11.833 3.75 2.528 1.732 5.816 3.984 6.5 7.917.956 5.494-3.893 10.109-4.786 10.958-.76.723-1.796 1.562-4.548 3.042-6.359 3.419-11.878 4.882-12.333 5-21.526 5.565-23.083 5.917-23.083 5.917-19.626 4.433-24.059 5.544-30.25 8.25a90.768 90.768 0 0 0-11.168 5.832z"/></g></switch></svg>