<svg xmlns="http://www.w3.org/2000/svg" viewBox="0 0 350 350"><switch><g><path fill="#fff" d="M60.306 60.529H290.097V290.064H60.306z"/><path fill="#231f20" d="M69.596 69.9H280.808V280.877H69.596z"/><path fill="#757e2c" d="M79.028 79.448H271.661V271.867H79.028z"/><path d="M246.705,79.448c1.327,3.222,2.657,7.328,3.546,12.609c2.29,13.603-0.74,24.773-2.757,31.916 c-1.047,3.706-2.607,8.338-4.989,13.517c9.61-11.462,19.547-23.302,29.157-34.764v169.141h-53.944H79.028l0.003-165.729 c6.681,7.592,13.688,15.265,20.696,22.937c-3.007-7.09-4.492-13.171-5.285-17.342c-1.777-9.35-4.075-21.441,2.64-29.368 c1.202-1.419,2.411-2.372,3.173-2.917C149.023,79.366,197.935,79.53,246.705,79.448z" fill="#666e24"/><path d="M176.648,209.03c-7.18,2.888-19.675,9.032-31.046,21.488 c-14.683,16.083-19.152,33.553-20.657,41.39c32.513,0,65.026,0,97.539,0c-0.385-6.571-2.153-21.477-12.467-36.506 C198.341,218.389,182.687,211.378,176.648,209.03z" fill="#757e2c"/><path d="M141.765,55.288c-0.258,0.294-0.39,0.522-0.382,0.529 C141.392,55.823,141.525,55.628,141.765,55.288z" fill="#231f20"/><path d="M265.284,116.626c-0.597,1.08-1.504,2.853-3.09,5.31c-1.457,2.257-2.793,4.016-3.708,5.165 c-0.063-0.087-0.145-0.226-0.185-0.412c-0.085-0.389,0.071-0.705,0.124-0.803c-1.518,1.063-3.035,2.127-4.553,3.19 c0.096-0.549,0.192-1.098,0.288-1.646c-3.769,4.265-5.21,7.296-5.81,9.322c-0.169,0.572-0.699,2.507-1.731,5.063 c-0.548,1.359-1.058,2.446-1.401,3.149c-0.272,0.131-0.589,0.261-0.948,0.37c-0.714,0.217-1.356,0.281-1.854,0.288 c-0.395,1.518-1.382,4.416-3.956,6.997c-1.308,1.312-2.651,2.166-3.708,2.716l1.071-1.482c-0.989,0-1.978,0-2.967,0 c0.083-0.356,0.211-0.778,0.412-1.235c0.234-0.533,0.503-0.965,0.742-1.297c-0.941,0.377-1.961,0.842-3.029,1.42 c-1.565,0.847-2.888,1.749-3.976,2.593c1.247-2.035,2.522-4.484,3.605-7.347c2.55-6.734,2.94-12.835,2.822-17.019 c-0.078-3.248-0.267-5.86-0.412-7.553c-0.49-5.696-1.1-8.042-1.298-12.842c-0.121-2.936-0.029-5.332,0.062-6.853 c-0.077-0.089-0.506-0.568-1.236-0.617c-0.739-0.05-1.232,0.376-1.319,0.453c0.031,0.229,0.085,0.857-0.288,1.461 c-0.144,0.233-0.313,0.4-0.453,0.514c-0.163-0.368-0.321-0.746-0.474-1.132c-1.157-2.92-1.781-5.747-2.081-8.335 c-0.204-0.974-0.377-2.115-0.453-3.396c-0.074-1.251-0.041-2.38,0.041-3.354c0.259,0.221,0.606,0.553,0.948,1.008 c0.238,0.317,0.672,0.96,1.051,2.161c0.527,1.67,0.586,3.278,0.556,4.322c0.128-0.897,0.262-2.304,0.124-4.013 c-0.099-1.221-0.281-1.914-1.051-5.124c-1.095-4.563-1.009-4.339-1.236-5.124c-0.385-1.332-0.989-3.21-1.916-5.433 c-0.163,0.223-0.33,0.47-0.494,0.741c-0.224,0.369-0.407,0.723-0.556,1.05c-0.701-3.241-2.612-9.955-8.22-16.361 c-5.13-5.859-10.88-8.636-13.927-9.858c0.275-0.631,0.549-1.262,0.824-1.893c-1.005-1.492-2.524-3.307-4.759-4.857 c-0.598-0.414-1.186-0.768-1.751-1.07c-0.65-0.039-1.324-0.093-2.019-0.165c-0.877-0.091-1.716-0.203-2.513-0.329 c-1.31-0.865-2.66-1.802-4.038-2.819c-1.189-0.877-2.315-1.751-3.379-2.614c0.731,0.068,1.51,0.173,2.328,0.329 c1.987,0.38,3.693,0.963,5.089,1.564c-1.455-0.949-3.089-1.92-4.903-2.861c-1.418-0.735-2.785-1.368-4.079-1.914 c0.233-0.143,0.567-0.328,0.989-0.494c1.105-0.433,1.783-0.329,1.813-0.494c0.056-0.303-2.149-1.052-4.78-1.605 c-2.039-0.429-3.826-0.498-5.192-0.453c-0.952,0.121-2.293,0.361-3.832,0.885c-1.594,0.543-2.723,1.159-3.523,1.605 c-3.465,1.934-6.821,4.063-8.468,5.124c0.417,0.39,0.865,0.953,0.927,1.667c0.1,1.156-0.913,1.534-3.338,4.507 c-0.829,1.016-1.859,1.862-2.658,2.902c-0.246,0.32-0.628,0.838-1.236,0.926c-0.67,0.097-0.898-0.417-1.483-0.37 c-0.774,0.062-1.006,1.112-2.04,2.284c-0.432,0.49-1.043,1.046-1.916,1.543c0.117-0.823,0.512-2.809,2.101-4.692 c1.561-1.85,3.412-2.579,4.203-2.84c0.176-0.527,0.361-1.062,0.556-1.605c0.243-0.677,0.491-1.336,0.742-1.976 c-1.287,0.838-3.143,2.141-5.192,3.951c-4.013,3.546-6.589,7.067-7.507,8.364c0.208-0.237,0.497-0.517,0.874-0.764 c0.519-0.341,1.03-0.506,1.41-0.593c-0.364,0.309-0.869,0.82-1.267,1.574c-0.215,0.408-0.348,0.791-0.433,1.111 c-2.525,1.627-6.079,4.33-9.395,8.52c-3.668,4.635-5.528,9.172-6.49,12.162c-0.365,2.42-1.17,4.093-1.854,5.186 c-1.384,2.213-2.867,3.005-4.203,5.68c-0.617,1.236-0.938,2.342-1.113,3.087c-0.396,1.682-0.75,3.584-0.989,5.68 c-0.263,2.311-0.338,4.428-0.309,6.297c-0.515-0.165-1.03-0.329-1.545-0.494c-0.777,5.668-0.589,10.212-0.247,13.397 c0.417,3.885,1.168,6.741,1.36,12.101c0.107,2.98-0.006,5.442-0.124,7.1c-0.288-0.103-0.577-0.206-0.865-0.309 c0.765,2.114,1.152,3.863,1.36,5.001c0.856,4.678,0.307,7.868,1.607,10.619c1.209,2.559,1.669,3.149,1.669,3.149 c0.41,0.526,1.025,1.205,0.865,1.42c-0.159,0.215-0.888-0.304-1.607,0c-0.367,0.155-0.596,0.467-0.742,0.741 c-2.685-1.756-5.37-3.512-8.055-5.268c-0.497-1.117-0.828-1.651-0.994-1.604c-0.086,0.024-0.128,0.206-0.125,0.545 c-2.636-1.913-5.309-3.938-8.007-6.081c-6.88-5.465-13.021-10.983-18.48-16.361c2.617,1.482,5.233,2.963,7.85,4.445 c-0.715-0.579-1.775-1.504-2.905-2.778c-2.526-2.849-2.971-4.702-4.697-6.791c-1.114-1.348-2.991-3.072-6.263-4.383v155.087 c28.253,0,56.505,0,84.758,0c0.131-1.495,0.548-8.135-4.141-13.335c-1.792-1.987-3.776-3.15-5.254-3.828 c0.367,0.229,0.981,0.688,1.422,1.482c0.188,0.337,0.301,0.658,0.371,0.926c-2.288-1.545-4.371-2.468-5.872-3.025 c-1.694-0.629-3.504-1.3-5.995-1.42c-2.538-0.122-4.595,0.384-5.872,0.803c1.343-3.392,3.579-7.825,7.355-12.224 c1.327-1.547,2.665-2.875,3.951-4.022c-0.12,0.269-0.236,0.552-0.345,0.853c-0.446,1.233-0.627,2.337-0.701,3.169 c1.078-1.604,2.624-3.724,4.697-6.05c1.028-1.153,2.177-2.434,3.832-3.869c1.224-1.061,3.464-2.979,6.675-4.527 c4.985-2.404,9.563-2.595,11.414-2.593c5.231,0.007,9.044,1.584,11.125,2.47c3.701,1.575,6.277,3.532,7.623,4.569 c1.889,1.455,3.348,2.858,4.388,3.951c0.027-0.39,0.026-1.117-0.309-1.934c-0.277-0.676-0.667-1.137-0.927-1.399 c0.474,0.309,1.422,0.926,1.422,0.926l1.792-1.111l-1.669-0.247c-2.753-2.102-5.13-3.778-6.922-5.001 c-3.873-2.642-5.373-3.413-6.552-3.951c-3.729-1.703-5.946-1.858-7.17-1.852c-1.212,0.006-2.219,0.173-2.926,0.329 c0.124,0.18,0.273,0.375,0.453,0.576c0.155,0.174,0.309,0.324,0.453,0.453c-0.781,0.038-1.578,0.066-2.39,0.082 c-1.727,0.036-3.391,0.018-4.986-0.041c-0.257-0.218-0.525-0.437-0.804-0.659c-0.272-0.216-0.54-0.421-0.803-0.617 c-0.809,0.307-2.009,0.804-3.399,1.543c-1.889,1.005-4.783,2.545-7.293,5.371c-0.891,1.003-1.812,2.257-3.708,3.89 c-0.536,0.462-0.995,0.82-1.298,1.05l-0.114,0.502c-0.06-0.318-0.099-0.692-0.071-1.119c0.081-1.226,0.647-2.095,0.927-2.47 c1.131-1.175,2.742-2.73,4.821-4.383c2.27-1.805,4.555-3.295,5.872-4.013c5.909-3.225,13.453-2.454,16.626-1.976 c1.416,0.111,1.762,0.005,1.792-0.123c0.037-0.154-0.388-0.297-0.68-0.803c-0.196-0.339-0.241-0.684-0.247-0.926 c1.252-0.064,3.128-0.047,5.315,0.432c2.231,0.488,5.812,1.682,11.558,6.791c2.399,2.133,5.696,5.412,9.704,10.989 c4.241,5.902,7.307,10.169,9.395,16.546c0.212,0.647,0.434,1.387,0.653,2.201c-0.361-0.169-0.749-0.335-1.188-0.482 c-1.147-0.385-2.188-0.53-3.008-0.576c-0.885-2.334-2.068-4.936-3.667-7.656c-3.363-5.72-7.303-9.819-10.466-12.574 c2.618,2.628,5.629,6.188,8.327,10.767c-2.262-0.333-6.965-0.706-12.365,1.302c-5.592,2.079-8.962,5.609-10.406,7.321 c-0.066-0.089-0.131-0.196-0.184-0.324c-0.219-0.53-0.07-1.039,0-1.235c1.1-1.377,2.658-3.04,4.78-4.61 c3.33-2.464,6.597-3.623,8.777-4.198c0.081-0.021-7.175,1.679-12.526,6.832c-3.245,3.125-5.124,6.898-5.233,7.121 c-0.411,0.841-0.707,1.57-0.907,2.099c0.36-0.577,0.745-1.168,1.154-1.77c0.4-0.589,0.799-1.151,1.195-1.688 c-0.254,0.527-0.629,1.31-1.071,2.264c-1.707,3.682-2.56,5.522-3.132,7.45c-0.435,1.466-0.912,3.628-0.948,6.421 c0.026,0.336,0.073,0.734,0.165,0.741c0.262,0.018,0.582-3.181,1.03-5.31c0.48-2.28,1.561-5.497,4.285-9.22 c1.902-2.989,3.985-4.953,5.439-6.133c0.827-0.671,5.715-4.639,11.455-5.358c0.769-0.096,2.508-0.254,4.986-0.775 c1.498-0.315,2.711-0.646,3.533-0.887c0.481,0.819,0.955,1.659,1.412,2.544c1.232,2.387,2.184,4.677,2.926,6.791 c-1.14-0.055-2.28-0.11-3.42-0.165c-1.106-0.444-2.804-0.955-4.903-0.947c-4.044,0.017-6.926,1.955-7.994,2.758 c1.033-0.602,2.878-1.5,5.357-1.811c2.437-0.305,4.417,0.092,5.563,0.412c-1.442-0.111-3.299-0.045-5.315,0.576 c-0.587,0.181-1.757,0.591-3.09,1.399c-0.754,0.457-2.039,1.251-3.214,2.675c-0.761,0.922-0.659,1.118-1.648,2.387 c-1.149,1.473-1.375,1.323-2.019,2.223c-1.402,1.96-1.477,4.281-1.525,5.762c-0.037,1.132,0.069,2.062,0.165,2.675 c3.516,0.014,7.032,0.027,10.548,0.041c-0.038-0.233-0.063-0.562,0-0.947c0.099-0.609,0.368-1.045,0.536-1.276 c0.179,0.466,0.357,0.933,0.536,1.399c0.162-0.307,0.325-0.678,0.453-1.111c0.296-1,0.274-1.883,0.206-2.47 c0.673-0.631,1.346-1.262,2.019-1.893c0.161,0.225,0.339,0.513,0.494,0.864c0.112,0.253,0.191,0.49,0.247,0.7 c-0.812,0.691-1.777,1.672-2.637,3.005c-0.371,0.575-0.668,1.131-0.907,1.646c0.33-0.027,0.659-0.055,0.989-0.082 c0.146-0.423,0.334-0.881,0.577-1.358c0.609-1.195,1.351-2.088,1.978-2.717c0.206,0.247,0.412,0.494,0.618,0.741 c-0.464,0.464-1.046,1.154-1.525,2.099c-0.273,0.539-0.454,1.046-0.577,1.482c0.824,0.014,1.648,0.027,2.472,0.041 c-0.01-0.264,0.005-0.76,0.247-1.317c0.239-0.549,0.584-0.897,0.783-1.07c0.249,0.2,0.602,0.533,0.907,1.029 c0.349,0.57,0.481,1.107,0.536,1.441c0.545,0.038,0.98,0.074,1.262,0.098c0.827,0.071,1.059,0.104,1.293-0.057 c0.245-0.168,0.222-0.362,0.494-0.782c0.258-0.397,0.561-0.66,0.783-0.823c-0.137-0.434-0.354-0.979-0.701-1.564 c-0.358-0.604-0.747-1.066-1.071-1.399c-0.014-0.576-0.028-1.152-0.041-1.729c0.388,0.263,0.809,0.588,1.236,0.988 c0.844,0.79,1.423,1.604,1.813,2.264c-0.159,0.185-0.328,0.404-0.494,0.659c-0.192,0.294-0.34,0.575-0.453,0.823 c0.102,0.057,0.331,0.204,0.494,0.494c0.169,0.3,0.171,0.584,0.165,0.7c0.275,0,0.549,0,0.824,0 c0.027-0.121,0.084-0.302,0.206-0.494c0.112-0.175,0.238-0.295,0.33-0.37c0.072,0.055,0.206,0.173,0.288,0.37 c0.137,0.329,0.028,0.63,0,0.7c0.288-0.027,0.577-0.055,0.865-0.082c-0.013-0.297-0.015-0.613,0-0.947 c0.038-0.832,0.17-1.566,0.33-2.181c0.147-0.208,0.385-0.501,0.742-0.782c0.372-0.293,0.641-0.505,0.948-0.453 c0.106,0.018,0.21,0.067,0.742,0.617c0.222,0.23,0.403,0.428,0.536,0.576c0.025-0.565,0.05-1.129,0.075-1.694 c-0.017,1.721-0.124,3.542-0.364,5.47h55.626V119.693c0-4.281,0-8.561,0-12.842 C268.872,110.787,266.63,114.188,265.284,116.626z" fill="#231f20"/><path d="M229.065 93.763c.505 1.696.941 3.722 1.113 6.025.062.826.084 1.615.077 2.361.132-.029.431-.076.773.046.493.176.719.577.773.679-.037-.772-.102-1.575-.201-2.408-.322-2.715-.932-5.112-1.622-7.146.482 1.772.869 3.84.989 6.158.033.641.044 1.261.036 1.857-.215-1.15-.476-2.358-.793-3.617C229.854 96.311 229.467 94.991 229.065 93.763zM117.112 151.797c1.421 1.021 2.584 1.865 3.358 2.428.185-.032.37-.064.554-.097-1.528-1.123-2.686-2.123-3.459-2.826-1.169-1.064-1.793-1.754-3.173-2.922-.956-.809-1.774-1.424-2.307-1.811-.763-.503-1.655-1.028-2.678-1.523-1.273-.616-2.464-1.049-3.502-1.358 2.135 1.601 3.905 2.89 5.151 3.787C113.099 148.947 114.255 149.744 117.112 151.797zM115.788 119.199c.138-.182.209-.363.247-.494 0-.002-.148-.956-.247-1.42-.107-.5-.322-1.203-.803-2.037-.121.623-.219 1.396-.216 2.284.002.862.098 1.613.216 2.223C115.139 119.707 115.51 119.568 115.788 119.199zM123.457 76.558c-1.904 3.798-3.918 8.734-5.274 14.694-.804 3.531-1.233 6.792-1.442 9.672.575-3.158 1.291-6.488 2.184-9.96C120.28 85.695 121.839 80.884 123.457 76.558z" fill="#231f20"/><path d="M247.419,200.239c-3.382-2.591-6.9-4.902-13.934-9.523c-3.672-2.412-8.558-5.559-14.423-9.157 c2.282,0.244,4.563,0.488,6.845,0.733c1.287-0.795,3.306-2.059,5.745-3.663c7.614-5.007,14.209-9.344,21.146-15.994 c5.066-4.857,8.33-9.045,9.167-10.134c4.699-6.108,7.788-11.833,9.778-16.117c0-5.291,0-10.581,0-15.872 c-7.202,12.422-14.482,21.648-20.046,27.96c-7.552,8.568-12.506,12.41-15.279,14.407c-6.119,4.406-11.833,7.183-16.012,8.913 c-0.52,0.289-3.6,1.939-7.212,0.733c-2.525-0.843-3.919-2.617-4.4-3.297c-0.288-0.616-1.945-4.311-0.244-8.424 c1.316-3.182,3.847-4.693,4.645-5.128c1.372,0.066,3.397-0.059,5.256-1.221c0.885-0.553,3.507-2.45,5.011-12.331 c0.517-3.397,0.98-8.246,0.611-14.163c-0.013-7.059-0.768-17.209-4.278-28.814c-1.084-3.584-6.272-20.094-19.434-35.651 c-3.912-4.623-7.008-7.233-13.201-12.454c-7.336-6.184-10.02-7.324-12.834-7.204c-2.562,0.109-4.661,1.238-9.901,5.616 c-6.469,5.405-9.704,8.108-14.423,13.797c-4.176,5.034-10.28,12.391-15.401,23.686c0,0-7.459,16.452-8.434,42.488 c-0.073,1.948,0.066,5.172,0.611,11.599c0.038,0.442,0.624,6.906,2.811,10.744c0.484,0.849,1.087,1.642,1.956,2.32 c1.234,0.964,2.521,1.318,3.3,1.465c1.344-0.217,2.323,0.015,2.934,0.244c2.838,1.065,4.658,4.673,4.522,9.035 c0.028,1.129-0.104,2.996-1.222,4.762c-1.545,2.44-4.049,3.229-6.723,4.029c-2.229,0.667-7.718,2.228-14.423,0.244 c-2.927-0.866-5.036-2.097-8.434-4.395c-9.087-6.148-15.589-11.951-17.234-13.43c-4.352-3.912-9.846-9.058-16.012-15.384 c0,4.192,0,8.384,0,12.576c6.615,8.692,16.831,19.546,31.78,28.081c4.044,2.309,7.988,4.193,11.734,5.738 c3.096-2.401,6.193-4.802,9.289-7.204c-2.226,3.552-5.723,8.609-10.756,14.041c-5.927,6.396-11.939,12.886-21.757,16.727 c-3.839,1.502-10.708,3.557-20.046,2.93c0,3.948,0,7.895,0,11.843c5.158,0.577,14.406,0.848,24.568-3.297 c10.778-4.396,17.367-11.712,20.29-15.017c4.214-4.764,6.97-9.436,7.212-9.279c0.285,0.184-3.806,6.492-7.456,13.308 c-4.953,9.249-8.966,16.763-11.123,27.105c-1.517,7.275-1.572,13.351-1.589,17.581c-0.026,6.472,0.563,11.998,1.222,16.238 c3.789,0,7.579,0,11.368,0c-0.615-3.95-1.224-9.748-0.856-16.727c0.42-7.969,1.121-21.266,9.778-33.942 c8.03-11.758,19.05-17.336,25.057-19.779c-2.277,2.035-4.869,4.725-7.334,8.18c-4.324,6.061-6.465,11.964-7.578,16.116 c3.184-3.756,9.101-9.614,18.212-13.064c7.236-2.74,13.344-2.772,20.29-2.808c5.849-0.031,13.916,0.499,23.346,2.93 c-1.072-2.034-2.502-4.384-4.4-6.837c-1.807-2.335-3.627-4.232-5.256-5.738c4.632,1.733,13.538,5.777,21.39,14.651 c8.802,9.949,11.305,20.345,12.345,24.907c3.279,14.388,0.37,26.352-1.466,32.111c4.156,0,8.312,0,12.467,0 c2.287-6.669,4.939-17.703,2.933-30.89c-1.667-10.96-5.838-18.715-8.434-23.442c-5.802-10.564-12.791-17.726-17.601-21.977 c8.889,2.263,15.3,5.551,19.557,8.18c8.889,5.491,12.022,10.361,21.39,14.773c5.918,2.788,11.285,3.962,14.912,4.517 c0-3.052,0-6.105,0-9.157c-3.223-0.693-7.935-2.058-12.956-5.006C254.583,206.562,253.753,205.092,247.419,200.239z" fill="#fff"/><path d="M135.946 132.844c4.327 1.218 7.914 1.909 10.451 2.32 4.188.678 6.001.67 8.373 2.137 2.374 1.468 3.669 3.401 5.072 5.494 1.13 1.687 2.664 4.373 3.728 8.058-2.15.052-5.321.051-9.167-.244-5.848-.449-7.265-1.117-7.823-1.404-2.857-1.469-4.284-3.776-6.478-7.326C138.854 139.861 137.231 136.837 135.946 132.844zM186.426 150.974c4.076-10.929 9.163-13.584 11.612-14.407 1.617-.543 4.976-1.26 8.801-2.076 2.954-.63 5.408-1.097 7.089-1.404-.571 2.141-1.639 5.28-3.728 8.669-2.07 3.357-3.605 5.846-6.6 7.387-.701.36-2.027.95-11.184 1.526C189.923 150.826 187.855 150.919 186.426 150.974zM60.286 228.26c-.569-.133-1.401-.346-2.383-.672-8.373-2.776-13.253-8.942-15.584-11.965-2.917-3.784-8.793-11.406-8.739-22.526.066-13.772 9.176-22.707 11.062-24.48-.489-.326-.978-.651-1.467-.977 2.256-2.041 6.005-4.923 11.306-6.959 6.873-2.641 12.946-2.552 16.256-2.259 0 1.221 0 2.442 0 3.663-2.342-.328-5.965-.567-10.206.305-12.598 2.592-19.069 12.609-19.923 13.98-.91 1.46-6.05 9.976-4.4 20.756.819 5.35 3.018 9.352 4.278 11.599 2.512 4.481 5.433 7.643 7.578 9.645-1.924-2.011-4.523-5.12-6.784-9.401-1.535-2.906-3.909-7.515-4.4-13.98-.557-7.344 1.637-12.849 2.078-13.919 3.731-9.051 10.921-13.388 12.834-14.468 8.374-4.726 16.4-3.896 18.884-3.541.02 4.945.041 9.89.061 14.834-.418-.233-3.547-1.908-6.906-.488-1.945.822-3.005 2.276-3.422 2.93C60.367 196.312 60.327 212.286 60.286 228.26z" fill="#231f20"/><path d="M60.286,230.03c-2.058-0.606-4.781-1.604-7.741-3.296c-0.703-0.402-3.903-2.263-7.537-5.738 c-1.918-1.835-6.111-5.92-9.208-12.616c-1.007-2.176-2.817-6.617-3.341-11.68c-1.535-14.839,8.806-27.098,8.719-27.145 c-0.073-0.04-8.131,8.295-9.086,21.692c-0.859,12.059,4.568,20.757,6.193,23.279c1.197,1.859,3.805,5.547,8.189,9.116 c5.289,4.306,10.558,6.317,13.812,7.284C60.286,230.626,60.286,230.328,60.286,230.03z" fill="#231f20"/><path d="M88.765,183.431c-0.9-1.917-2.332-4.522-4.563-7.244c-1.682-2.053-5.907-7.207-11.897-9.279 c-8.721-3.016-18.576,1.405-24.364,6.837c-10.714,10.055-8.48,24.497-8.312,25.477c2.328,13.513,13.491,19.822,14.912,20.593 c0-3.446,0-6.892,0-10.337c-1.014-0.91-2.36-2.297-3.585-4.233c-2.984-4.714-3.147-9.354-3.178-10.744 c-0.205-9.166,5.829-15.465,7.823-17.337c1.9-1.784,5.164-4.85,10.267-5.616c5.484-0.824,9.825,1.499,12.956,3.174 C83.706,177.334,86.878,180.849,88.765,183.431z" fill="#fff"/><g fill="#231f20"><path d="M157.947,299.745c1.654-1.422,5.553-4.861,7.578-10.826c1.145-3.373,1.284-6.355,1.222-8.302 c-2.879,0-5.758,0-8.638,0h-15.768c-0.091,0.885-0.501,3.8-2.934,6.308c-2.598,2.68-5.754,3.091-6.6,3.174 c-8.8,0-17.601,0-26.401,0c1.968,3.294,7.367,11.284,17.723,15.628c5.098,2.138,9.76,2.707,13.038,2.808 c-0.054-0.733-0.109-1.465-0.163-2.198C139.621,306.49,149.768,306.779,157.947,299.745z M159.658,293.6 c0.334-0.247,0.632-0.495,0.896-0.733c-0.094,0.245-0.254,0.584-0.53,0.936c-0.273,0.348-0.56,0.583-0.774,0.733l-0.774-0.163 C158.846,294.161,159.245,293.906,159.658,293.6z M129.753,303.652c-3.916-1.019-6.997-2.688-9.208-4.192l0.693-0.203 c2.313,1.486,5.913,3.37,10.634,4.273c9.164,1.753,16.554-1.336,19.353-2.686c-1.69,0.978-4.303,2.261-7.7,3.052 C141.877,304.28,136.435,305.391,129.753,303.652z"/><path d="M167.053 290.1c-1.479 2.709-4.22 6.913-8.923 10.744-3.268 2.662-6.553 4.385-9.354 5.513 5.023-1.938 11.238-5.384 16.077-11.618 1.224-1.576 2.228-3.162 3.056-4.701C167.624 290.059 167.338 290.079 167.053 290.1zM148.776 306.357c-1.907.736-3.648 1.261-5.069 1.629C145.026 307.667 146.78 307.162 148.776 306.357z"/></g><path d="M152.08,264.664c-3.18-2.501-6.612-3.091-8.393-3.256c-1.211,0.072-4.401,0.421-7.497,2.767 c-3.036,2.301-4.238,5.202-4.645,6.349c0.943-0.912,2.791-2.453,5.541-3.256c1.402-0.41,6.091-1.779,9.86,1.14 c2.759,2.137,4.048,5.814,3.504,9.523c-0.107,1.474-0.798,8.913-7.171,14.407c-7.521,6.484-16.695,4.863-17.845,4.64 c1.484,0.999,3.819,2.312,6.926,3.093c2.383,0.599,4.476,0.699,6.03,0.651c1.315-0.04,8.831-0.396,14.505-6.674 c5.204-5.759,5.243-12.502,5.215-14C158.188,279.242,158.926,270.047,152.08,264.664z" fill="#fff"/><g fill="#231f20"><path d="M239.902,290.1c-0.217,0.481-0.553,1.099-1.07,1.74c-0.558,0.692-1.139,1.175-1.589,1.496 c0.422-0.484,0.874-1.062,1.314-1.74c0.341-0.525,0.623-1.029,0.856-1.496h-27.176c-0.935-0.826-2.282-2.218-3.382-4.273 c-1.236-2.31-1.613-4.439-1.742-5.738c-8.824,0.014-17.649,0.027-26.473,0.041c-0.088,1.63-0.034,3.738,0.468,6.125 c0.311,1.477,0.731,2.765,1.161,3.846c-0.928,0.233-1.391,0.355-1.388,0.366c0,0,0.001,0.001,0.003,0.001 c1.546,2.599,3.07,4.474,4.074,5.616c0.949,1.079,11.285,12.502,25.788,12.616l0.003,0c2.977-0.047,7.887-0.498,13.384-2.849 c5.9-2.523,9.789-6.084,11.877-8.302c0.543,0.529,1.086,1.058,1.63,1.587l7.131-9.035H239.902z M196.449,302.553 c-7.024-3.67-10.724-9.126-12.223-11.66c1.948,2.7,5.705,7.125,11.856,10.439c9.453,5.092,18.527,4.306,21.879,3.846 C215.397,305.776,206.122,307.608,196.449,302.553z"/><path d="M206.533,309.513c-17.654-2.599-26.076-17.669-27.012-19.413c-0.272,0-0.544,0-0.816,0 c0.791,1.529,9.565,17.809,28.011,20.084c12.618,1.557,22.071-4.388,24.69-6.166 C228.752,305.712,219.158,311.371,206.533,309.513z"/></g><path d="M205.046,289.734c-6.432-6.165-6.803-13.943-6.845-15.465c0.066-4.051,1.804-7.707,4.808-9.198 c3.062-1.52,6.591-0.368,8.963,0.407c2.028,0.662,3.589,1.565,4.645,2.279c-0.523-1.165-2.362-4.875-6.682-7.081 c-1.166-0.596-5.261-2.608-10.023-1.14c-5.049,1.557-7.306,5.935-8.149,7.57c-2.191,4.25-1.929,8.229-1.711,10.988 c0.292,3.707,0.899,11.415,7.252,16.767c5.801,4.887,14.572,6.277,20.861,3.093c1.326-0.671,2.33-1.439,3.015-2.035 C219.723,295.964,211.655,296.069,205.046,289.734z" fill="#fff"/><path d="M307.678,192.954c-0.633-13.04-8.695-21.171-10.552-22.954 c-0.026-0.043-0.152-0.261-0.082-0.529c0.096-0.367,0.469-0.482,0.489-0.488c-1.98-1.963-5.212-4.697-9.819-6.837 c-3.932-1.827-7.506-2.59-10.064-2.93c-0.095,6.295-0.19,12.589-0.285,18.884c1.13,0.1,2.836,0.405,4.563,1.424 c3.199,1.889,4.466,5.064,5.989,9.035c0.781,2.036,1.705,4.979,2.19,8.689c-0.005,9.854-0.01,19.708-0.015,29.562 c2.195-1.83,4.39-3.659,6.585-5.489v-1.669C298.187,218.245,308.426,208.371,307.678,192.954z M303.278,205.489 c-1.878,5.255-4.824,8.757-6.6,10.581c1.716-2.16,3.834-5.303,5.5-9.442c2.123-5.272,2.639-9.986,2.73-13.105 C305.089,196.034,305.083,200.437,303.278,205.489z" fill="#231f20"/><path d="M299.733,170.693c2.312,2.594,9.373,11.187,9.595,23.747 c0.366,20.725-18.238,32.454-19.205,33.042c1.185-0.782,19.495-13.306,18.655-34.201 C308.313,181.713,302.224,173.65,299.733,170.693z" fill="#231f20"/><path d="M303.807,190.35c-1.696-11.032-10.573-18.522-19.231-21.163 c-8.829-2.693-16.441-0.039-18.986,0.977c1.508-0.345,11.412-2.433,20.372,4.07c7.601,5.517,9.405,13.504,9.778,15.384 c0.45,3.086,0.82,6.403,1.059,9.93c0.303,4.462,0.353,8.631,0.244,12.454C298.188,210.715,305.612,202.09,303.807,190.35z" fill="#fff"/><path d="M219.918 162.745c.238.113.502.263.773.463.683.505 1.094 1.097 1.329 1.513-1.401.988-2.802 1.976-4.203 2.963.105-.681.306-1.561.711-2.531C218.959 164.118 219.482 163.315 219.918 162.745zM216.858 164.69c.085-.008.399-.027.68.185.154.116.237.255.278.34-.07.204-.191.482-.402.772-.257.353-.543.578-.742.71-.047-.235-.087-.553-.062-.926C216.641 165.31 216.757 164.94 216.858 164.69zM208.298 164.69c.5.311 1.044.687 1.607 1.142.481.389.902.776 1.267 1.142.065.372.115.808.124 1.296.01.606-.047 1.138-.124 1.574-.46-.267-1.566-.991-2.276-2.413C208.322 166.28 208.282 165.221 208.298 164.69zM225.934 137.35c.182.796.391 1.946.462 3.348.034.667.061 1.22 0 1.872-.171 1.816-.913 3.124-1.793 4.64-.509.876-1.261 2.027-2.336 3.27.698-1.945 1.379-4.041 2.01-6.281C224.954 141.796 225.497 139.504 225.934 137.35zM228.076 132.328c.109.137.219.274.33.412.179.222.357.441.536.659-.107.695-.254 1.439-.453 2.223-.37 1.452-.841 2.718-1.319 3.787.021-1.394.136-2.958.412-4.651C227.722 133.897 227.891 133.086 228.076 132.328zM230.136 120.516c.17.045.43.136.7.329.239.171.398.359.494.494-.001.005-.098.866-.098.871-.005.041-.268 2.38-.273 2.421-.232-.629-.459-1.389-.618-2.264C230.219 121.69 230.16 121.066 230.136 120.516zM230.26 113.19c.285.324.603.733.906 1.235.28.462.484.898.634 1.276.121.549.236 1.431.026 2.47-.111.547-.285 1.003-.453 1.358-.337-1.324-.637-2.768-.865-4.322C230.406 114.515 230.324 113.842 230.26 113.19z" fill="#707728"/><path fill="#636b24" d="M78.05 123.973L81.284 127.369 78.05 124.961z"/><path d="M138.147 271.651l-.433-2.037c.504-.186 1.541-.491 2.843-.309 1.532.214 2.555.981 2.967 1.327-.144.381-.288.761-.433 1.142L138.147 271.651zM143.833 266.28l2.007 3.396v-1.111l1.454.123c-.261-.354-.623-.771-1.113-1.173C145.304 266.794 144.417 266.451 143.833 266.28z" fill="#666e24"/></g></switch></svg>