<svg xmlns="http://www.w3.org/2000/svg" viewBox="0 0 350 350" style="enable-background:new 0 0 350 350" xml:space="preserve"><switch><g><path style="fill:#fff" d="M60.306 60.529h229.791v229.535H60.306z"/><path style="fill:#231f20" d="M69.596 69.9h211.212v210.977H69.596z"/><path style="fill:#757e2c" d="M79.028 79.448h192.633v192.419H79.028z"/><path style="fill:#666e24" d="M246.705 79.448c1.327 3.222 2.657 7.328 3.546 12.609 2.29 13.603-.74 24.773-2.757 31.916a92.497 92.497 0 0 1-4.989 13.517c9.61-11.462 19.547-23.302 29.157-34.764v169.141H79.028l.003-165.729c6.681 7.592 13.688 15.265 20.696 22.937-3.007-7.09-4.492-13.171-5.285-17.342-1.777-9.35-4.075-21.441 2.64-29.368a17.53 17.53 0 0 1 3.173-2.917c48.768-.082 97.68.082 146.45 0z"/><path style="fill:#757e2c" d="M176.648 209.03c-7.18 2.888-19.675 9.032-31.046 21.488-14.683 16.083-19.152 33.553-20.657 41.39h97.539c-.385-6.571-2.153-21.477-12.467-36.506-11.676-17.013-27.33-24.024-33.369-26.372z"/><g><path style="fill:#231f20" d="M141.765 55.288c-.258.294-.39.522-.382.529.009.006.142-.189.382-.529z"/><path style="fill:#231f20" d="M265.284 116.626c-.597 1.08-1.504 2.853-3.09 5.31a64.146 64.146 0 0 1-3.708 5.165 1.097 1.097 0 0 1-.185-.412 1.182 1.182 0 0 1 .124-.803l-4.553 3.19.288-1.646c-3.769 4.265-5.21 7.296-5.81 9.322-.169.572-.699 2.507-1.731 5.063a48.811 48.811 0 0 1-1.401 3.149 6.698 6.698 0 0 1-2.802.658c-.395 1.518-1.382 4.416-3.956 6.997a15.016 15.016 0 0 1-3.708 2.716l1.071-1.482h-2.967a7.038 7.038 0 0 1 1.154-2.532 29.09 29.09 0 0 0-7.005 4.013 43.538 43.538 0 0 0 3.605-7.347c2.55-6.734 2.94-12.835 2.822-17.019-.078-3.248-.267-5.86-.412-7.553-.49-5.696-1.1-8.042-1.298-12.842a68.024 68.024 0 0 1 .062-6.853 1.833 1.833 0 0 0-1.236-.617 1.841 1.841 0 0 0-1.319.453c.031.229.085.857-.288 1.461-.144.233-.313.4-.453.514a32.827 32.827 0 0 1-2.555-9.467 23.473 23.473 0 0 1-.412-6.75c.259.221.606.553.948 1.008.238.317.672.96 1.051 2.161.527 1.67.586 3.278.556 4.322.128-.897.262-2.304.124-4.013-.099-1.221-.281-1.914-1.051-5.124-1.095-4.563-1.009-4.339-1.236-5.124a50.632 50.632 0 0 0-1.916-5.433 10.242 10.242 0 0 0-1.05 1.791c-.701-3.241-2.612-9.955-8.22-16.361a36.723 36.723 0 0 0-13.927-9.858l.824-1.893a18.371 18.371 0 0 0-4.759-4.857 17.909 17.909 0 0 0-1.751-1.07 46.795 46.795 0 0 1-4.532-.494 94.292 94.292 0 0 1-7.417-5.433 24.5 24.5 0 0 1 7.417 1.893 57.126 57.126 0 0 0-8.982-4.775c.233-.143.567-.328.989-.494 1.105-.433 1.783-.329 1.813-.494.056-.303-2.149-1.052-4.78-1.605a21.735 21.735 0 0 0-5.192-.453 19.52 19.52 0 0 0-3.832.885c-1.594.543-2.723 1.159-3.523 1.605-3.465 1.934-6.821 4.063-8.468 5.124.417.39.865.953.927 1.667.1 1.156-.913 1.534-3.338 4.507-.829 1.016-1.859 1.862-2.658 2.902-.246.32-.628.838-1.236.926-.67.097-.898-.417-1.483-.37-.774.062-1.006 1.112-2.04 2.284a7.408 7.408 0 0 1-1.916 1.543 9.36 9.36 0 0 1 2.101-4.692 9.375 9.375 0 0 1 4.203-2.84 75.627 75.627 0 0 1 1.298-3.581 44.672 44.672 0 0 0-5.192 3.951 49.453 49.453 0 0 0-7.507 8.364 4.32 4.32 0 0 1 .874-.764 4.308 4.308 0 0 1 1.41-.593c-.364.309-.869.82-1.267 1.574a5.297 5.297 0 0 0-.433 1.111 38.754 38.754 0 0 0-9.395 8.52 38.726 38.726 0 0 0-6.49 12.162c-.365 2.42-1.17 4.093-1.854 5.186-1.384 2.213-2.867 3.005-4.203 5.68a14.167 14.167 0 0 0-1.113 3.087 49.017 49.017 0 0 0-1.298 11.977l-1.545-.494c-.777 5.668-.589 10.212-.247 13.397.417 3.885 1.168 6.741 1.36 12.101a66.498 66.498 0 0 1-.124 7.1l-.865-.309a31.087 31.087 0 0 1 1.36 5.001c.856 4.678.307 7.868 1.607 10.619 1.209 2.559 1.669 3.149 1.669 3.149.41.526 1.025 1.205.865 1.42-.159.215-.888-.304-1.607 0-.367.155-.596.467-.742.741l-8.055-5.268c-.497-1.117-.828-1.651-.994-1.604-.086.024-.128.206-.125.545a231.31 231.31 0 0 1-26.487-22.442l7.85 4.445a24.506 24.506 0 0 1-2.905-2.778c-2.526-2.849-2.971-4.702-4.697-6.791-1.114-1.348-2.991-3.072-6.263-4.383v155.087h84.758c.131-1.495.548-8.135-4.141-13.335-1.792-1.987-3.776-3.15-5.254-3.828.367.229.981.688 1.422 1.482.188.337.301.658.371.926a27.702 27.702 0 0 0-5.872-3.025c-1.694-.629-3.504-1.3-5.995-1.42a16.335 16.335 0 0 0-5.872.803 43.097 43.097 0 0 1 7.355-12.224 42.176 42.176 0 0 1 3.951-4.022 12.596 12.596 0 0 0-1.046 4.022 56.286 56.286 0 0 1 4.697-6.05c1.028-1.153 2.177-2.434 3.832-3.869 1.224-1.061 3.464-2.979 6.675-4.527 4.985-2.404 9.563-2.595 11.414-2.593 5.231.007 9.044 1.584 11.125 2.47 3.701 1.575 6.277 3.532 7.623 4.569a38.438 38.438 0 0 1 4.388 3.951 4.317 4.317 0 0 0-.309-1.934 4.31 4.31 0 0 0-.927-1.399l1.422.926 1.792-1.111-1.669-.247a160.298 160.298 0 0 0-6.922-5.001c-3.873-2.642-5.373-3.413-6.552-3.951-3.729-1.703-5.946-1.858-7.17-1.852a13.889 13.889 0 0 0-2.926.329 5.757 5.757 0 0 0 .906 1.029 86.237 86.237 0 0 1-7.376.041 33.189 33.189 0 0 0-1.607-1.276c-.809.307-2.009.804-3.399 1.543-1.889 1.005-4.783 2.545-7.293 5.371-.891 1.003-1.812 2.257-3.708 3.89-.536.462-.995.82-1.298 1.05l-.114.502a4.42 4.42 0 0 1-.071-1.119 4.675 4.675 0 0 1 .927-2.47 49.185 49.185 0 0 1 4.821-4.383c2.27-1.805 4.555-3.295 5.872-4.013 5.909-3.225 13.453-2.454 16.626-1.976 1.416.111 1.762.005 1.792-.123.037-.154-.388-.297-.68-.803a1.937 1.937 0 0 1-.247-.926 20.07 20.07 0 0 1 5.315.432c2.231.488 5.812 1.682 11.558 6.791 2.399 2.133 5.696 5.412 9.704 10.989 4.241 5.902 7.307 10.169 9.395 16.546.212.647.434 1.387.653 2.201a11.015 11.015 0 0 0-1.188-.482 11.468 11.468 0 0 0-3.008-.576 50.257 50.257 0 0 0-3.667-7.656 50.893 50.893 0 0 0-10.466-12.574 54.432 54.432 0 0 1 8.327 10.767 25.115 25.115 0 0 0-12.365 1.302 25.121 25.121 0 0 0-10.406 7.321 1.515 1.515 0 0 1-.184-.324c-.219-.53-.07-1.039 0-1.235a25.626 25.626 0 0 1 4.78-4.61 25.825 25.825 0 0 1 8.777-4.198c.081-.021-7.175 1.679-12.526 6.832-3.245 3.125-5.124 6.898-5.233 7.121-.411.841-.707 1.57-.907 2.099a54.318 54.318 0 0 1 2.349-3.458c-.254.527-.629 1.31-1.071 2.264-1.707 3.682-2.56 5.522-3.132 7.45-.435 1.466-.912 3.628-.948 6.421.026.336.073.734.165.741.262.018.582-3.181 1.03-5.31.48-2.28 1.561-5.497 4.285-9.22a25.47 25.47 0 0 1 5.439-6.133c.827-.671 5.715-4.639 11.455-5.358.769-.096 2.508-.254 4.986-.775a46.744 46.744 0 0 0 3.533-.887c.481.819.955 1.659 1.412 2.544a53.252 53.252 0 0 1 2.926 6.791l-3.42-.165a13.038 13.038 0 0 0-4.903-.947c-4.044.017-6.926 1.955-7.994 2.758a14.161 14.161 0 0 1 5.357-1.811 14.173 14.173 0 0 1 5.563.412 14.315 14.315 0 0 0-5.315.576c-.587.181-1.757.591-3.09 1.399-.754.457-2.039 1.251-3.214 2.675-.761.922-.659 1.118-1.648 2.387-1.149 1.473-1.375 1.323-2.019 2.223-1.402 1.96-1.477 4.281-1.525 5.762a14.273 14.273 0 0 0 .165 2.675l10.548.041a2.936 2.936 0 0 1 0-.947 2.99 2.99 0 0 1 .536-1.276l.536 1.399c.162-.307.325-.678.453-1.111.296-1 .274-1.883.206-2.47l2.019-1.893a4.855 4.855 0 0 1 .741 1.564 13.574 13.574 0 0 0-3.544 4.651l.989-.082a10.639 10.639 0 0 1 2.555-4.075l.618.741a8.235 8.235 0 0 0-1.525 2.099 8.21 8.21 0 0 0-.577 1.482l2.472.041a3.02 3.02 0 0 1 1.03-2.387c.249.2.602.533.907 1.029.349.57.481 1.107.536 1.441.545.038.98.074 1.262.098.827.071 1.059.104 1.293-.057.245-.168.222-.362.494-.782.258-.397.561-.66.783-.823a7.492 7.492 0 0 0-1.772-2.963 974.22 974.22 0 0 1-.041-1.729 10.218 10.218 0 0 1 3.049 3.252 6.202 6.202 0 0 0-.947 1.482 1.296 1.296 0 0 1 .659 1.194h.824a1.562 1.562 0 0 1 .536-.864.907.907 0 0 1 .288.37.95.95 0 0 1 0 .7l.865-.082a10.576 10.576 0 0 1 .33-3.128c.147-.208.385-.501.742-.782.372-.293.641-.505.948-.453.106.018.21.067.742.617.222.23.403.428.536.576l.075-1.694a47.982 47.982 0 0 1-.364 5.47h55.626V106.851c-3.874 3.936-6.116 7.337-7.462 9.775z"/><path style="fill:#231f20" d="M229.065 93.763a28.546 28.546 0 0 1 1.113 6.025c.062.826.084 1.615.077 2.361a1.41 1.41 0 0 1 .773.046c.493.176.719.577.773.679a35.094 35.094 0 0 0-1.823-9.554 29.19 29.19 0 0 1 1.025 8.015 59.883 59.883 0 0 0-.793-3.617 60.108 60.108 0 0 0-1.145-3.955zM117.112 151.797a704.973 704.973 0 0 1 3.358 2.428l.554-.097a42.769 42.769 0 0 1-3.459-2.826c-1.169-1.064-1.793-1.754-3.173-2.922a39.609 39.609 0 0 0-2.307-1.811 23.308 23.308 0 0 0-6.18-2.881 329.543 329.543 0 0 0 5.151 3.787c2.043 1.472 3.199 2.269 6.056 4.322zM115.788 119.199c.138-.182.209-.363.247-.494 0-.002-.148-.956-.247-1.42a6.966 6.966 0 0 0-.803-2.037 11.841 11.841 0 0 0 0 4.507c.154-.048.525-.187.803-.556zM123.457 76.558a64.918 64.918 0 0 0-5.274 14.694 64.611 64.611 0 0 0-1.442 9.672 142.346 142.346 0 0 1 6.716-24.366z"/><path style="fill:#fff" d="M247.419 200.239c-3.382-2.591-6.9-4.902-13.934-9.523a551.964 551.964 0 0 0-14.423-9.157l6.845.733a240.486 240.486 0 0 0 5.745-3.663c7.614-5.007 14.209-9.344 21.146-15.994 5.066-4.857 8.33-9.045 9.167-10.134a85.526 85.526 0 0 0 9.778-16.117v-15.872c-7.202 12.422-14.482 21.648-20.046 27.96-7.552 8.568-12.506 12.41-15.279 14.407a79.33 79.33 0 0 1-16.012 8.913c-.52.289-3.6 1.939-7.212.733-2.525-.843-3.919-2.617-4.4-3.297-.288-.616-1.945-4.311-.244-8.424 1.316-3.182 3.847-4.693 4.645-5.128 1.372.066 3.397-.059 5.256-1.221.885-.553 3.507-2.45 5.011-12.331a66.44 66.44 0 0 0 .611-14.163 100.182 100.182 0 0 0-4.278-28.814c-1.084-3.584-6.272-20.094-19.434-35.651-3.912-4.623-7.008-7.233-13.201-12.454-7.336-6.184-10.02-7.324-12.834-7.204-2.562.109-4.661 1.238-9.901 5.616-6.469 5.405-9.704 8.108-14.423 13.797-4.176 5.034-10.28 12.391-15.401 23.686 0 0-7.459 16.452-8.434 42.488-.073 1.948.066 5.172.611 11.599.038.442.624 6.906 2.811 10.744.484.849 1.087 1.642 1.956 2.32 1.234.964 2.521 1.318 3.3 1.465 1.344-.217 2.323.015 2.934.244 2.838 1.065 4.658 4.673 4.522 9.035.028 1.129-.104 2.996-1.222 4.762-1.545 2.44-4.049 3.229-6.723 4.029-2.229.667-7.718 2.228-14.423.244-2.927-.866-5.036-2.097-8.434-4.395-9.087-6.148-15.589-11.951-17.234-13.43a336.24 336.24 0 0 1-16.012-15.384v12.576c6.615 8.692 16.831 19.546 31.78 28.081a102.373 102.373 0 0 0 11.734 5.738l9.289-7.204A94.548 94.548 0 0 1 120.3 193.89c-5.927 6.396-11.939 12.886-21.757 16.727-3.839 1.502-10.708 3.557-20.046 2.93v11.843c5.158.577 14.406.848 24.568-3.297 10.778-4.396 17.367-11.712 20.29-15.017 4.214-4.764 6.97-9.436 7.212-9.279.285.184-3.806 6.492-7.456 13.308-4.953 9.249-8.966 16.763-11.123 27.105-1.517 7.275-1.572 13.351-1.589 17.581a103.038 103.038 0 0 0 1.222 16.238h11.368a81.037 81.037 0 0 1-.856-16.727c.42-7.969 1.121-21.266 9.778-33.942 8.03-11.758 19.05-17.336 25.057-19.779a49.626 49.626 0 0 0-7.334 8.18c-4.324 6.061-6.465 11.964-7.578 16.116 3.184-3.756 9.101-9.614 18.212-13.064 7.236-2.74 13.344-2.772 20.29-2.808 5.849-.031 13.916.499 23.346 2.93a46.932 46.932 0 0 0-9.656-12.575c4.632 1.733 13.538 5.777 21.39 14.651 8.802 9.949 11.305 20.345 12.345 24.907 3.279 14.388.37 26.352-1.466 32.111h12.467c2.287-6.669 4.939-17.703 2.933-30.89-1.667-10.96-5.838-18.715-8.434-23.442a82.11 82.11 0 0 0-17.601-21.977c8.889 2.263 15.3 5.551 19.557 8.18 8.889 5.491 12.022 10.361 21.39 14.773 5.918 2.788 11.285 3.962 14.912 4.517v-9.157c-3.223-.693-7.935-2.058-12.956-5.006-4.202-2.465-5.032-3.935-11.366-8.788z"/><path style="fill:#231f20" d="M135.946 132.844a93.872 93.872 0 0 0 10.451 2.32c4.188.678 6.001.67 8.373 2.137 2.374 1.468 3.669 3.401 5.072 5.494a28.745 28.745 0 0 1 3.728 8.058c-2.15.052-5.321.051-9.167-.244-5.848-.449-7.265-1.117-7.823-1.404-2.857-1.469-4.284-3.776-6.478-7.326a41.019 41.019 0 0 1-4.156-9.035zM186.426 150.974c4.076-10.929 9.163-13.584 11.612-14.407 1.617-.543 4.976-1.26 8.801-2.076 2.954-.63 5.408-1.097 7.089-1.404a32.468 32.468 0 0 1-3.728 8.669c-2.07 3.357-3.605 5.846-6.6 7.387-.701.36-2.027.95-11.184 1.526-2.493.157-4.561.25-5.99.305z"/><g><path style="fill:#231f20" d="M60.286 228.26a27.24 27.24 0 0 1-2.383-.672c-8.373-2.776-13.253-8.942-15.584-11.965-2.917-3.784-8.793-11.406-8.739-22.526.066-13.772 9.176-22.707 11.062-24.48l-1.467-.977a36.238 36.238 0 0 1 11.306-6.959c6.873-2.641 12.946-2.552 16.256-2.259v3.663a30.02 30.02 0 0 0-10.206.305c-12.598 2.592-19.069 12.609-19.923 13.98-.91 1.46-6.05 9.976-4.4 20.756.819 5.35 3.018 9.352 4.278 11.599a39.875 39.875 0 0 0 7.578 9.645 41.929 41.929 0 0 1-6.784-9.401c-1.535-2.906-3.909-7.515-4.4-13.98-.557-7.344 1.637-12.849 2.078-13.919 3.731-9.051 10.921-13.388 12.834-14.468 8.374-4.726 16.4-3.896 18.884-3.541l.061 14.834c-.418-.233-3.547-1.908-6.906-.488-1.945.822-3.005 2.276-3.422 2.93l-.123 47.923z"/><path style="fill:#231f20" d="M60.286 230.03a36.202 36.202 0 0 1-7.741-3.296c-.703-.402-3.903-2.263-7.537-5.738-1.918-1.835-6.111-5.92-9.208-12.616-1.007-2.176-2.817-6.617-3.341-11.68-1.535-14.839 8.806-27.098 8.719-27.145-.073-.04-8.131 8.295-9.086 21.692-.859 12.059 4.568 20.757 6.193 23.279 1.197 1.859 3.805 5.547 8.189 9.116a39.894 39.894 0 0 0 13.812 7.284v-.896z"/><path style="fill:#fff" d="M88.765 183.431a34.66 34.66 0 0 0-4.563-7.244c-1.682-2.053-5.907-7.207-11.897-9.279-8.721-3.016-18.576 1.405-24.364 6.837-10.714 10.055-8.48 24.497-8.312 25.477 2.328 13.513 13.491 19.822 14.912 20.593v-10.337a20.21 20.21 0 0 1-3.585-4.233c-2.984-4.714-3.147-9.354-3.178-10.744-.205-9.166 5.829-15.465 7.823-17.337 1.9-1.784 5.164-4.85 10.267-5.616 5.484-.824 9.825 1.499 12.956 3.174 4.882 2.612 8.054 6.127 9.941 8.709z"/></g><g><path style="fill:#231f20" d="M157.947 299.745c1.654-1.422 5.553-4.861 7.578-10.826a23.508 23.508 0 0 0 1.222-8.302h-24.406c-.091.885-.501 3.8-2.934 6.308-2.598 2.68-5.754 3.091-6.6 3.174h-26.401c1.968 3.294 7.367 11.284 17.723 15.628 5.098 2.138 9.76 2.707 13.038 2.808l-.163-2.198c2.617.153 12.764.442 20.943-6.592zm1.711-6.145c.334-.247.632-.495.896-.733a3.612 3.612 0 0 1-1.304 1.669l-.774-.163c.37-.212.769-.467 1.182-.773zm-29.905 10.052a29.646 29.646 0 0 1-9.208-4.192l.693-.203c2.313 1.486 5.913 3.37 10.634 4.273 9.164 1.753 16.554-1.336 19.353-2.686a28.103 28.103 0 0 1-7.7 3.052c-1.648.384-7.09 1.495-13.772-.244z"/><path style="fill:#231f20" d="M167.053 290.1a36.31 36.31 0 0 1-8.923 10.744 36.202 36.202 0 0 1-9.354 5.513c5.023-1.938 11.238-5.384 16.077-11.618a33.627 33.627 0 0 0 3.056-4.701l-.856.062zM148.776 306.357a46.59 46.59 0 0 1-5.069 1.629 36.563 36.563 0 0 0 5.069-1.629z"/><path style="fill:#fff" d="M152.08 264.664c-3.18-2.501-6.612-3.091-8.393-3.256a13.86 13.86 0 0 0-7.497 2.767 13.82 13.82 0 0 0-4.645 6.349c.943-.912 2.791-2.453 5.541-3.256 1.402-.41 6.091-1.779 9.86 1.14 2.759 2.137 4.048 5.814 3.504 9.523-.107 1.474-.798 8.913-7.171 14.407-7.521 6.484-16.695 4.863-17.845 4.64a22.024 22.024 0 0 0 6.926 3.093c2.383.599 4.476.699 6.03.651 1.315-.04 8.831-.396 14.505-6.674 5.204-5.759 5.243-12.502 5.215-14 .078-.806.816-10.001-6.03-15.384z"/></g><g><path style="fill:#231f20" d="M239.902 290.1a8.038 8.038 0 0 1-2.659 3.236 15.423 15.423 0 0 0 2.17-3.236h-27.176a15.417 15.417 0 0 1-3.382-4.273 15.401 15.401 0 0 1-1.742-5.738l-26.473.041a23.504 23.504 0 0 0 1.629 9.971c-.928.233-1.391.355-1.388.366l.003.001a37.569 37.569 0 0 0 4.074 5.616c.949 1.079 11.285 12.502 25.788 12.616h.003a35.504 35.504 0 0 0 13.384-2.849 35.522 35.522 0 0 0 11.877-8.302l1.63 1.587 7.131-9.035h-4.869zm-43.453 12.453c-7.024-3.67-10.724-9.126-12.223-11.66 1.948 2.7 5.705 7.125 11.856 10.439 9.453 5.092 18.527 4.306 21.879 3.846-2.564.598-11.839 2.43-21.512-2.625z"/><path style="fill:#231f20" d="M206.533 309.513c-17.654-2.599-26.076-17.669-27.012-19.413h-.816c.791 1.529 9.565 17.809 28.011 20.084 12.618 1.557 22.071-4.388 24.69-6.166-2.654 1.694-12.248 7.353-24.873 5.495z"/><path style="fill:#fff" d="M205.046 289.734c-6.432-6.165-6.803-13.943-6.845-15.465.066-4.051 1.804-7.707 4.808-9.198 3.062-1.52 6.591-.368 8.963.407a18.6 18.6 0 0 1 4.645 2.279c-.523-1.165-2.362-4.875-6.682-7.081-1.166-.596-5.261-2.608-10.023-1.14-5.049 1.557-7.306 5.935-8.149 7.57-2.191 4.25-1.929 8.229-1.711 10.988.292 3.707.899 11.415 7.252 16.767 5.801 4.887 14.572 6.277 20.861 3.093a14.727 14.727 0 0 0 3.015-2.035c-1.457.045-9.525.15-16.134-6.185z"/></g><g><path style="fill:#231f20" d="M307.678 192.954c-.633-13.04-8.695-21.171-10.552-22.954a.705.705 0 0 1-.082-.529c.096-.367.469-.482.489-.488a34.754 34.754 0 0 0-9.819-6.837 34.752 34.752 0 0 0-10.064-2.93l-.285 18.884c1.13.1 2.836.405 4.563 1.424 3.199 1.889 4.466 5.064 5.989 9.035a37.934 37.934 0 0 1 2.19 8.689l-.015 29.562 6.585-5.489v-1.669c1.51-1.407 11.749-11.281 11.001-26.698zm-4.4 12.535a29.37 29.37 0 0 1-6.6 10.581 37.983 37.983 0 0 0 5.5-9.442 38.064 38.064 0 0 0 2.73-13.105 29.347 29.347 0 0 1-1.63 11.966z"/><path style="fill:#231f20" d="M299.733 170.693c2.312 2.594 9.373 11.187 9.595 23.747.366 20.725-18.238 32.454-19.205 33.042 1.185-.782 19.495-13.306 18.655-34.201-.465-11.568-6.554-19.631-9.045-22.588z"/><path style="fill:#fff" d="M303.807 190.35c-1.696-11.032-10.573-18.522-19.231-21.163-8.829-2.693-16.441-.039-18.986.977 1.508-.345 11.412-2.433 20.372 4.07 7.601 5.517 9.405 13.504 9.778 15.384a129.482 129.482 0 0 1 1.303 22.384c1.145-1.287 8.569-9.912 6.764-21.652z"/></g><g><path style="fill:#707728" d="M219.918 162.745c.238.113.502.263.773.463a4.83 4.83 0 0 1 1.329 1.513l-4.203 2.963a10.862 10.862 0 0 1 2.101-4.939zM216.858 164.69a.993.993 0 0 1 .68.185.936.936 0 0 1 .278.34 2.932 2.932 0 0 1-1.144 1.482 3.517 3.517 0 0 1 .186-2.007zM208.298 164.69a15.99 15.99 0 0 1 2.874 2.284 8.272 8.272 0 0 1 0 2.87 5.819 5.819 0 0 1-2.276-2.413 5.77 5.77 0 0 1-.598-2.741zM225.934 137.35c.182.796.391 1.946.462 3.348.034.667.061 1.22 0 1.872-.171 1.816-.913 3.124-1.793 4.64a21.524 21.524 0 0 1-2.336 3.27 94.251 94.251 0 0 0 3.667-13.13zM228.076 132.328a99.248 99.248 0 0 0 .866 1.071 23.47 23.47 0 0 1-1.772 6.01 31.885 31.885 0 0 1 .906-7.081zM230.136 120.516a2.151 2.151 0 0 1 1.194.823l-.098.871-.273 2.421a13.538 13.538 0 0 1-.823-4.115zM230.26 113.19a8.583 8.583 0 0 1 1.54 2.511c.121.549.236 1.431.026 2.47a5.927 5.927 0 0 1-.453 1.358 42.577 42.577 0 0 1-1.113-6.339z"/><path style="fill:#636b24" d="m78.05 123.973 3.234 3.396-3.234-2.408z"/><path style="fill:#666e24" d="m138.147 271.651-.433-2.037a5.886 5.886 0 0 1 2.843-.309 5.91 5.91 0 0 1 2.967 1.327l-.433 1.142-4.944-.123zM143.833 266.28l2.007 3.396v-1.111l1.454.123a6.522 6.522 0 0 0-1.113-1.173 6.622 6.622 0 0 0-2.348-1.235z"/></g></g></g></switch></svg>