<svg xmlns="http://www.w3.org/2000/svg" viewBox="0 0 350 350"><switch><g><path d="M289.999 289.999L127.035 290l-22.925-26.648L116.176 290H60V60h168.89l-7.813-18.648L236.505 60h53.494v187.923l-24.631-28.409 24.631 44.629v25.856z" fill="#fff"/><path d="M280.465 69.534H69.534v210.93h35.911l-3.808-9.497c-3.231-8.824-7.463-19.363-10.694-28.188 8.44 8.717 17.88 19.148 26.32 27.865l9.436 9.819h153.765V259l-30.229-61.022 30.229 30.923.001-159.367z"/><linearGradient id="amaru-a" gradientUnits="userSpaceOnUse" x1="79.031" y1="79.031" x2="270.968" y2="270.968"><stop offset="0" stop-color="#165110"/><stop offset=".564" stop-color="#146604"/></linearGradient><path fill="url(#amaru-a)" d="M270.968 270.968H117.574l-26.63-28.188 10.693 28.188H79.031V79.031h191.937v140.161l-20.732-21.214 20.732 42.132z"/><linearGradient id="amaru-b" gradientUnits="userSpaceOnUse" x1="84.626" y1="243.226" x2="132.89" y2="243.226"><stop offset="0" stop-color="#08811b"/><stop offset="1" stop-color="#127612"/></linearGradient><path d="M121.418 270.968c-.172-.378-.46-.97-.882-1.657-.602-.979-1.152-1.622-1.343-1.855-1.809-2.2-1.47-4.085-3.462-6.626-1.056-1.348-1.21-.892-2.522-2.423-1.698-1.981-1.748-3.102-3.016-5.39-1.611-2.904-2.364-2.495-5.835-7.319a87.568 87.568 0 01-2.717-4.002c-2.878-4.503-2.579-5.227-4.75-8.262-.983-1.374-.852-.968-4.005-4.945-.823-1.038-2.148-2.708-2.993-3.852-1.459-1.974-3.393-4.949-5.265-9.154 8.434 8.441 12.016 12.748 13.698 15.132 1.111 1.575 2.144 3.377 4.352 5.44.881.823 1.986 1.722 3.412 3.412.493.584.584.741 1.865 2.457.243.325 1.901 2.544 3.634 4.762 2.453 3.139 2.971 3.605 3.402 3.957 1.293 1.058 1.721 1.018 2.769 2.027 1.387 1.335 1.719 2.444 2.508 3.773 1.687 2.842 2.768 2.147 5.305 5.227 2.3 2.792 1.944 4.009 4.53 6.799a20.28 20.28 0 002.788 2.498l-11.473.001z" fill="url(#amaru-b)"/><linearGradient id="amaru-c" gradientUnits="userSpaceOnUse" x1="85.945" y1="221.27" x2="168.494" y2="221.27"><stop offset="0" stop-color="#08811b"/><stop offset="1" stop-color="#127612"/></linearGradient><path d="M152.143 270.968a7.67 7.67 0 01-1.698-.545c-.696-.318-1.278-.713-3.956-3.56-1.103-1.173-1.484-1.616-1.681-2.374-.211-.81-.018-1.238-.027-1.913-.021-1.599-1.143-2.228-2.692-4.367-1.389-1.918-.846-1.907-3.115-5.637-.385-.632-.29-.452-1.978-3.066-1.013-1.57-2.301-3.564-3.412-5.341-1.736-2.775-2.939-4.858-3.165-5.242-1.875-3.193-14.035-21.695-44.473-67.352 32.778 35.77 56.443 62.146 58.615 64.978 2.913 3.797 3.56 6.363 3.56 6.363.137.543.232 1.085.593 1.846.692 1.455 1.592 2.093 3.56 3.824 1.89 1.663 2.835 2.494 3.231 3.099 1.188 1.818.496 2.772 1.516 4.549 1.497 2.608 2.744 2.155 5.242 5.044 1.199 1.387.953 1.54 4.352 6.824.788 1.225 1.446 2.22 1.879 2.869l-16.351.001z" fill="url(#amaru-c)"/><linearGradient id="amaru-d" gradientUnits="userSpaceOnUse" x1="94.648" y1="203.336" x2="214.912" y2="203.336"><stop offset="0" stop-color="#08811b"/><stop offset="1" stop-color="#127612"/></linearGradient><path fill="url(#amaru-d)" d="M94.648 135.703l100.484 135.265h19.78z"/><linearGradient id="amaru-e" gradientUnits="userSpaceOnUse" x1="149.495" y1="183.949" x2="270.968" y2="183.949"><stop offset="0" stop-color="#08811b"/><stop offset="1" stop-color="#127612"/></linearGradient><path d="M262.648 270.968c-.358-.45-.92-1.212-1.451-2.243-1.021-1.985-.96-3.088-1.846-4.714-.821-1.507-1.837-2.33-2.308-2.769-5.315-4.957-13.136-28.123-23.965-37.906-.545-.492-1.581-1.388-2.936-2.841-4.568-4.9-6.671-9.611-7.311-10.979-7.829-16.742-55.584-86.871-60.733-92.802-.229-.264-1.492-1.689-2.967-3.791-1.537-2.192-2.483-3.949-2.901-4.714-3.489-6.395-6.953-11.117-6.725-11.275.292-.201 5.684 7.725 9.264 10.978.353.321 1.713 1.527 3.264 3.396 0 0 .695.837 1.352 1.747 1.949 2.701 58.552 82.335 70.516 95.242 2.973 3.207 5.81 6.538 8.769 9.758 1.559 1.696 2.531 2.732 3.808 4.451 2.719 3.659 2.091 4.372 4.747 7.615 1.893 2.312 3.328 3.432 5.233 6.532.758 1.233.953 1.743 1.987 3.308.797 1.206 1.853 2.807 3.478 4.632 1.877 2.109 2.324 2.059 3 3.396.369.728.616 1.494 1.418 2.407.672.765 1.305 1.145 1.648 1.385.962.671 2.133 1.966 2.979 4.714v14.474h-8.32z" fill="url(#amaru-e)"/><linearGradient id="amaru-f" gradientUnits="userSpaceOnUse" x1="186.165" y1="155.022" x2="270.968" y2="155.022"><stop offset="0" stop-color="#08811b"/><stop offset="1" stop-color="#127612"/></linearGradient><path d="M270.968 215.484a156.552 156.552 0 01-3.375-3.956c-3.399-4.123-4.129-5.44-6.665-8.425-4.202-4.944-4.17-3.645-5.645-6.068-2.696-4.427-2.033-7.497-4.997-9.441-.711-.466-1.906-1.048-2.868-2.473-.833-1.233-.494-1.619-1.286-2.769-1.198-1.74-2.305-1.335-3.56-3.066-.817-1.127-.498-1.504-1.378-3.073-.989-1.763-2.216-2.753-2.679-3.169-4.432-3.98-10.105-19.303-14.834-26.099-.69-.992-1.193-1.715-2.071-2.579-1.953-1.923-3.211-2.032-4.692-3.888-.772-.967-.614-1.168-1.545-2.732-1.619-2.721-3.427-4.349-3.89-4.813-1.859-1.863-8.357-11.328-25.319-38.374 19.838 17.041 26.79 25.257 28.787 29.461.379.799 2.004 4.452 5.465 8.286 2.285 2.531 4.352 4.013 5.341 4.747 11.21 8.321 20.813 22.14 22.549 27.099.145.415.829 2.462 2.176 5.044.587 1.126 1.12 2.147 1.879 3.165 1.8 2.413 3.047 2.362 6.231 4.945 1.222.991 3.362 2.751 5.341 5.538 1.358 1.913 1.477 2.672 2.918 4.5a22 22 0 004.116 4.005l.001 24.135z" fill="url(#amaru-f)"/><linearGradient id="amaru-g" gradientUnits="userSpaceOnUse" x1="253.939" y1="103.528" x2="270.962" y2="103.528"><stop offset="0" stop-color="#08811b"/><stop offset="1" stop-color="#127612"/></linearGradient><path d="M270.961 116.978a26.682 26.682 0 01-2.089-2.473c-1.749-2.346-1.949-3.426-3.578-5.528-1.22-1.574-1.404-1.353-2.751-2.977-1.574-1.898-2.443-3.554-3.363-5.341a389.837 389.837 0 01-5.242-10.582c3.965 2.12 5.639 4.406 6.429 6.132.571 1.248 1.384 3.741 3.758 5.637.578.462.577.351 1.088.791 1.966 1.691 1.94 3.283 3.56 5.143a9.052 9.052 0 002.188 1.813v7.385z" fill="url(#amaru-g)"/><g><path d="M235.516 207.093c.918.521 2.143 1.416 2.802 2.901.496 1.117.151 1.358.643 2.868.693 2.13 1.693 2.465 2.055 4.286.193.97.093 1.799 0 2.291.659-.091 1.072.054 1.324.198.842.48.842 1.487 1.846 3.363.223.416.425.745.56.956l-1.253.363 9.857 18.165c-.185.14-.435.274-.725.264-.451-.017-.701-.374-.79-.305-.122.094.133.94.79 1.492.795.67 1.45.294 2.242.692.93.468.85 1.402 1.846 4.253.788 2.258.961 2.024 1.615 4.088.526 1.66.478 2.011 1.038 3.527.784 2.12 1.07 1.953 1.187 2.852.18 1.387-.506 2.658-1.887 5.143a41.301 41.301 0 01-2.052 3.313c.172.598.332 1.487.099 2.473-.279 1.178-.875 1.463-1.714 2.835-1.214 1.985-.735 2.642-1.782 4.143-.455.651-1.258 1.549-2.734 2.319l-.593 3.165-21.709 12.016c-.154.16-.39.395-.696.659-.859.741-1.357.922-2.865 1.789-1.625.934-1.835 1.179-2.497 1.217-.674.039-1.238-.17-1.607-.351.031.094.234.745-.148 1.335a1.5 1.5 0 01-.643.544 13.836 13.836 0 01-3.486 1.137c-1.264.228-1.912.151-2.794.717-.52.334-.658.594-1.607 1.261-.73.513-1.095.769-1.434.865-1.389.393-3.085-1.494-3.659-2.126-1.857-2.045-4.235-4.461-7.467-7.566.913-.279 1.452-1.2 1.267-2.071-.165-.775-.872-1.363-1.712-1.391-.105.667-.354 1.859-.915 1.953-.494.083-1.003-.724-1.162-.964-.838-1.269-3.262-3.971-9.276-9.737.091-.219.172-.522.047-.785-.227-.48-.959-.456-1.576-.678-.585-.21-1.309-.729-1.929-2.077a22.394 22.394 0 000-3.857 5.231 5.231 0 01-1.879.296 5.185 5.185 0 01-.165-.989 5.193 5.193 0 01.165-1.681 2.183 2.183 0 01-1.088.395 2.776 2.776 0 00-.23-1.385c-.587.587-1.403.78-2.044.495-.473-.211-.706-.619-.791-.79a4.986 4.986 0 01-.544-1.995 5.007 5.007 0 01.495-2.456 7.12 7.12 0 01-1.484-1.36c-.522-.638-.763-1.165-1.459-2.646-1.169-2.486-1.017-2.121-1.178-2.49-1.399-3.223-1.087-3.657-2.136-5.446-.771-1.316-1.098-1.351-1.484-2.398-.494-1.342-.442-2.604-.321-3.462a2.153 2.153 0 01-.923.198 2.229 2.229 0 01-1.352-.495 2.61 2.61 0 01.693-1.648 8.962 8.962 0 00-1.451-2.322c-1.574-1.815-3.494-2.49-4.384-2.821-4.964-1.846-4.335-2.827-9.692-4.78-2.783-1.014-6.938-2.203-12.264-2.571l1.978 1.137a28.47 28.47 0 01-1.985.128c-1.375.041-5.034.149-8.301-1.068-2.168-.807-3.431-1.924-4.747-2.967-2.502-1.981-2.989-1.944-11.868-7.055-3.967-2.284-9.925-5.777-18.396-10.945a96.923 96.923 0 007.846 5.571c5.614 3.577 8.937 4.87 16.352 9.56 1.898 1.201 4.772 3.019 4.681 3.176-.168.291-10.532-5.075-21.165-11.549-3.325-2.025-2.839-1.821-11.448-7.179-12.64-7.866-14.179-8.611-14.266-8.481-.143.214 3.523 2.975 3.907 3.264 2.523 1.9 4.014 2.765 3.931 2.918-.137.254-4.428-1.813-5.786-2.473-6.867-3.337-7.566-4.147-13.788-7.302-4.607-2.336-5.843-2.713-7.912-4.549-2.362-2.096-3.605-4.137-4.516-5.571-2.03-3.195-5.201-7.768-10.088-13.516a361.274 361.274 0 0021.198 3.693 67.238 67.238 0 00-1.747-2.176c-2.342-2.793-4.176-4.506-5.538-5.868a71.918 71.918 0 01-5.967-6.791c4.042.992 6.827 2.251 8.67 3.264.771.424 2.301 1.311 2.571.989.246-.293-.68-1.443-1.055-1.912-3.153-3.946-5.896-8.203-8.876-12.28a79.131 79.131 0 01-4.376-6.676 113.023 113.023 0 017.269 3.585c3.881 2.092 6.622 3.868 7.22 3.214.098-.107.124-.264-.198-1.484-.563-2.13-1.042-3.157-1.335-4.327a10.725 10.725 0 01-.297-3.165c1.35 1.168 2.942 2.444 3.239 2.176.168-.151-.137-.741-.371-1.187a213.06 213.06 0 00-3.091-5.662l-6.404-14.316c2.248 2.279 5.041 4.995 5.39 4.698.178-.151-.342-1.03-.61-1.484-4.23-7.167-7.124-12.069-6.61-12.536.295-.267 1.708.923 4.5 3.19 9.336 7.58 9.565 7.29 12.956 10.533 2.184 2.089 2.843 2.93 5.192 4.945a68.785 68.785 0 005.637 4.352 6.5 6.5 0 01-1.286-.099 6.532 6.532 0 01-2.225-.841c13.8 11.888 21.987 19.111 26.868 23.473 1.452 1.297 4.969 4.448 4.78 4.681-.155.19-2.715-1.651-6.989-4.747a3993.837 3993.837 0 01-13.187-9.593c4.877 5.305 9.399 8.645 12.626 10.714.941.603 5.744 4.152 15.35 11.25.412.304 1.423 1.067 2.188 2.411.45.79.672 1.531.791 2.065a928.96 928.96 0 0024.725 19.879l-5.934-11.275a161.69 161.69 0 01-7.253-10.451c-5.757-9.031-5.489-10.587-14.209-26.341-3.359-6.069-5.001-8.731-6.874-13.5-.651-1.657-1.296-3.483-2.621-6.132-1.167-2.333-1.772-3.126-4.896-8.06-4.421-6.983-5.461-8.949-6.033-11.769-.38-1.873-.42-3.46-.396-4.5a2.838 2.838 0 01-.841-.297c-.997-.545-1.32-1.538-1.83-2.67-.486-1.079-.143-.067-1.731-3.115-2.156-4.14-2-4.492-1.879-4.599.41-.362 1.868.824 2.077.569.213-.26-1.129-1.685-1.335-1.904-.024-.026-1.656-2.144-4.92-6.379-1.458-1.892-3.445-4.471-5.192-7.937a36.953 36.953 0 01-2.497-6.354l-4.154-1.978a227.296 227.296 0 0111.703 4.088c3.727 1.418 6.094 2.436 9.878 3.5a68.477 68.477 0 007.792 1.709c.142.803.466 1.871 1.319 2.308.797.408 1.313-.116 2.505.132 1.523.317 1.443 1.331 2.967 1.78 1.339.395 1.785-.275 3.495 0 1.203.193 1.962.682 2.714 1.104 1.703.955 2.157.885 6.187 2.39 3.015 1.126 5.016 2.008 12.198 5.011 2.979 1.246 7.328 3.056 12.725 5.275.373 1.079 3.776 10.947 6.198 19.319 2.106 7.281 1.622 7.04 2.362 8.564.231.477.926 1.834.943 3.672a7.679 7.679 0 01-.305 2.203 70.475 70.475 0 016.725 15.198 55.638 55.638 0 01-2.003-.964c-3.194-1.618-5.8-3.329-10.731-7.022a298.722 298.722 0 01-7.937-6.157c1.178 3.51 2.581 5.32 3.692 6.33.638.58 1.72 1.386 1.879 2.703.116.963-.318 1.721.165 2.308.359.436.907.391 1.384.512 1.418.36 1.892 2.103 2.869 4.169.737 1.558 2.416 5.018 5.636 7.334.807.58.732.385 1.683 1.023 5.168 3.469 5.595 8.041 9.494 9.247.49.151.863.197 1.165.018 1.319-.779.106-5.113-.621-7.634-2.382-8.259-4.649-14.749-5.272-16.621-1.218-3.659-2.595-9.021-2.986-16.016a46.174 46.174 0 01-.363-7.681c.221-6.072 1.6-10.536 2.11-12.264 3.596-12.18 1.244-14.41 5.868-35.473.891-4.059 2.201-9.546 2.176-17.176a66.019 66.019 0 00-.495-7.863c.956 1.023 2.107 2.11 2.54 1.847.386-.235.044-1.451-.067-1.847-.842-2.992-3.165-4.653-2.835-5.093.228-.305 1.413.395 1.714 0 .184-.241-.082-.733-.363-1.236-.9-1.612-1.351-2.418-1.615-2.736-.774-.932-2.012-3.41-4.088-9.874a11303.131 11303.131 0 0145.494 39.429c1.492-.128 2.034.19 2.242.527.218.355.003.626.147 1.506.132.806.381.996.545 1.659.245.99-.009 1.789-.099 2.225-.27 1.306.244 2.679 2.176 6.676 2.398 4.96 2.328 4.337 2.769 5.604.876 2.517 1.685 4.839.923 7.319-.733 2.387-2.309 2.925-2.803 5.726a8.863 8.863 0 00.033 3.175 51.358 51.358 0 00-3.018 11.279c-.444 3.003-.228 3.417-.74 5.93-1.082 5.306-2.502 5.709-4.022 11.143-1.44 5.148-1.364 9.072-2.242 9.099-.461.014-.896-1.056-1.055-1.648-.362-1.353.18-2.224.33-3.297.218-1.564-.574-2.294-2.308-5.67-1.357-2.642-2.049-3.99-2.637-5.934-.856-2.825-.58-3.895-1.788-6.564-.717-1.583-.909-1.417-1.509-2.798-1.622-3.733-1.026-6.808-1.451-6.857-.349-.04-1.021 2.01-1.733 5.957-1.299 7.203-1.31 12.855-2.091 12.9-.408.024-.7-1.503-1.055-1.451-.415.061-.45 2.22-.396 4.286.836.577 1.939 1.518 2.703 2.967.791 1.5.39 1.973.949 3.876 1.02 3.472 2.943 3.903 3.718 7.489.255 1.178.035 1.077.261 2.373.659 3.779 2.814 6.307 3.719 7.484 1.659 2.156 3.616 5.615 4.803 11.283a6.318 6.318 0 001.253-.198c1.397-.367 2.364-1.135 2.901-1.648h-2.637a23.465 23.465 0 002.769-2.703c1.54-1.775 2.455-3.371 3.444-5.235 3.813-7.183 5.719-10.774 5.919-13.161.067-.801.158-2.856 1.531-4.732.636-.869.808-.69 1.37-1.466 1.694-2.337.504-4.47 1.896-6.196.439-.545 1.245-1.184 2.851-1.452 1.009-1.785 1.879-3.634 1.381-4.064-.325-.281-1.014.233-1.283-.024-.49-.469 1.183-2.778 2.628-5.159 3.122-5.148 2.953-6.969 5.515-8.852a10.334 10.334 0 013.495-1.648 304.293 304.293 0 00-.791-24.824 622.314 622.314 0 015.407 8.44l-3.247-3.082 3.643 6.511c.263.014.669.065 1.104.264 1.155.528 1.654 1.702 1.839 2.101 1.345 2.916 3.515 2.706 5.233 6.157.998 2.004.348 2.239 1.532 4.82.874 1.906 1.81 3.045 2.788 4.326 1.311 1.716 3.125 4.246 5.174 7.65.677 1.203 2.351 4.552 1.014 7.484a5.4 5.4 0 01-.396.717c.422.56.924 1.38 1.195 2.448.563 2.219-.385 3.496.082 5.898.269 1.383.61 1.1 1.072 2.707 1.116 3.879-.36 7.244.816 7.788.338.156.617-.049.816.173.497.555-.753 2.388-1.286 3.264-1.501 2.469-1.438 4.157-2.275 7.615-1.587 6.558-3.837 8.861-6.033 16.418-2.622 9.023-2.072 14.892-3.165 14.934-1.102.042-2.177-5.911-2.819-9.544a147.056 147.056 0 01-2.176-21.313c-.495.845-1.107 1.731-1.483 1.616-.367-.112-.287-1.108-.396-2.704-.121-1.762-.504-4.691-1.055-4.731-.432-.032-.417 1.753-1.929 3.367-.844.901-1.43.967-2.208 1.561-1.83 1.397-2.097 3.713-2.511 5.722-.843 4.091-1.545 3.28-3.263 9.05-1.286 4.319-.552 3.632-2.386 12.376-1.675 7.989-2.513 11.983-3.659 13.352-.194.231-1.253 1.443-.89 2.324.217.526.804.604.841.989.033.35-.397.852-2.192 1.566l2.11.132c.108.614.164 1.506-.214 2.407-.56 1.331-1.531 1.402-2.282 2.622-.929 1.509.094 2.153-.636 4.103-.739 1.975-1.943 1.729-3.003 4.101-.662 1.482-.281 1.775-1.002 2.872-.923 1.403-1.77 1.259-2.769 2.571-1.038 1.363-.659 2.221-1.335 3.56-.566 1.122-1.815 2.468-4.846 3.346a26.393 26.393 0 000 4.516c.258 3.008.986 5.386.686 5.486-.296.099-1.139-2.184-1.527-2.074-.126.036-.289.348.148 3.61.554 4.131.832 6.197 1.632 7.418.427.652 1.016 1.336.775 1.747-.234.399-1.122.32-1.863.181.056.349.21.981.692 1.582.217.271.447.469.643.61.69-.101 1.306.314 1.434.874.106.463-.132.977-.495 1.187-.453.262-.941-.043-1.08.154-.086.123-.022.419.635 1.181a2.53 2.53 0 001.137-.495c.364-.288.432-.521.584-.504.373.042.082 1.471.801 2.68.747 1.255 1.929 1.173 2.126 2.044.11.484-.092 1.228-1.451 2.374.089.05 1.057.572 1.896.132.87-.456 1.29-1.783.692-3.016a42.389 42.389 0 003.758-2.423c1.371-.991 2.098-1.646 2.027-2.374-.035-.362-.232-.381-.495-.89-.694-1.35.223-2.126-.247-3.808-.293-1.047-.848-1.458-.596-1.984.195-.408.723-.567 1.14-.636.64-3.011.316-4.99-.148-6.28-.18-.501-.632-1.594-.181-2.06.321-.332.982-.223 1.516-.066-1.358-3.456-1.089-4.868-.462-5.473.45-.433 1.237-.598 1.385-1.253.122-.541-.265-1.094-.618-1.483l-.041-3.989 1.319-.066a14.502 14.502 0 01.101-4.61c.122-.654.193-.778.888-3.039 1.437-4.674 1.565-5.55 1.131-6.433-.393-.799-1.074-1.35-.867-1.677.172-.271.825-.173 1.385-.033.033-.751.046-1.544.033-2.374a35.137 35.137 0 00-.124-2.691z" fill="#fff"/><path d="M246.56 100.297c.602-.172 1.623 2.632 4.088 7.253 2.37 4.444 4.564 7.735 6.527 10.681a144.335 144.335 0 004.088 5.819 1258.513 1258.513 0 014.154 26.555 223.741 223.741 0 01-8.176 25.319l-3.317-17.456-2.221-11.687a105.491 105.491 0 00-12.396 15.164 37.404 37.404 0 01-1.064 5.053c-1.072 3.78-2.159 5.339-3.222 8.661-.91 2.845-1.098 4.78-1.451 7.187-.491 3.354-1.725 11.792-4.681 19.714-.96 2.572-4.055 10.869-8.505 15.824-2.672 2.975-3.869 4.719-6.264 8.209a13.66 13.66 0 00-.964 1.576c-1.389 2.694-1.477 5.241-1.443 7.935.052 4.132.08 6.348.643 9.791 1.455 8.9 4.668 14.894 5.341 16.121a45.482 45.482 0 002.473 4.005c-.778.266-1.884.678-3.165 1.286-2.768 1.312-5.685 3.215-5.505 3.587.036.074.208.118.831-.03 1.077-.138 2.639-.349 4.525-.639 2.53-.39 3.81-.589 4.549-.841 2.238-.76 3.043-1.89 5.637-4.005a47.458 47.458 0 015.967-4.137 60.23 60.23 0 01.105-8.22c.193-2.383.448-3.78.949-6.839 1.462-8.939 1.25-9.003 3.135-20.51.307-1.876.563-3.402.724-4.355.773 1.83 1.892 4.41 3.313 7.467 4.582 9.853 6.006 11.096 8.753 18 1.794 4.508 1.712 5.297 3.214 7.764 1.336 2.194 2.46 3.307 2.522 5.341.026.855-.147 1.506-1.731 4.846-2.207 4.654-2.465 4.642-3.56 7.22-1.021 2.401-1.102 3.129-2.324 5.736a53.071 53.071 0 01-1.78 3.462 1107.52 1107.52 0 00-35.06 17.456l-24.643-24.181a781.669 781.669 0 01-18.132-37.319 263.155 263.155 0 00-7.253-2.308c-5.895-1.782-10.074-2.818-13.187-3.626a358.592 358.592 0 01-17.736-5.11l-62.703-36.791 21.495 2.736a47.077 47.077 0 00-3.396-3.527 47.65 47.65 0 00-9-6.626c2.824 1.277 6.207 2.646 6.626 1.978.241-.383-.584-1.29-1.187-1.978-2.268-2.589-3.914-5.676-6.132-8.308-2.172-2.577-5.16-6.295-9.462-12a113.75 113.75 0 017.484 3.692c2.578 1.391 4.42 2.51 4.987 1.963.818-.789-1.773-4.312-1.13-4.832.67-.541 3.866 2.97 4.479 2.502.653-.499-2.246-5.046-5.072-10.612a110.876 110.876 0 01-4.418-9.857 150.29 150.29 0 017.286 5.506c6.081 4.891 8.975 7.998 13.476 12.236 7.372 6.941 7.47 6.01 22.061 18.605 6.642 5.733 6.39 5.726 11.144 9.808 5.483 4.707 13.494 11.306 23.835 18.857l4.088 8.176c4.371 4.87 5.651 5.395 6.067 5.139.082-.051.461-.335.526-.771.065-.432-.208-.799-.272-.89-2.387-3.39-3.16-7.728-5.464-11.176-3.327-4.978-6.092-10.31-9.198-15.429-10.137-16.708-9.682-17.243-13.549-22.5-.871-1.184-3.035-4.067-5.407-8.308-1.995-3.568-3.179-6.382-3.495-7.121-2.023-4.735-9.089-19.474-26.176-53.934a8.062 8.062 0 003.923-.61 103.886 103.886 0 01-14.209-16.665 167.114 167.114 0 0014.784 3.994c7.783 1.719 10.598 1.742 16.402 3.852 2.089.759 3.262 1.315 10.615 4.945 4.334 2.139 9.631 4.762 15.692 7.78a624.7 624.7 0 0013.451 36.66 292.809 292.809 0 00-25.582-15.956 2052.264 2052.264 0 0017.011 29.802 183.201 183.201 0 0019.517 20.176c1.593-.084 5.926-.512 7.78-3.56 1.178-1.938.852-4.106.659-5.275-1.786-10.848-6.325-24.42-7.531-28.168a144.142 144.142 0 01-3.151-11.392 613.464 613.464 0 002.953-16.781c1.654-10.234 1.621-11.696 3.113-20.01 1.505-8.382 2.257-12.574 2.769-14.901.808-3.668 1.783-7.655 1.83-13.22a49.43 49.43 0 00-.247-5.374c.717.779 2.015 1.926 3.907 2.357.336.077.659.123.964.148a21.59 21.59 0 00-.198-1.014c-.442-2.016-1.056-3.456-1.212-3.832-.492-1.191-1.321-3.642-2.802-9.132a5475.658 5475.658 0 0114.176 11.604c4.667 3.834 7.633 6.285 12.066 9.495a182.867 182.867 0 007.385 5.077 50.84 50.84 0 001.418 6.89c1.137 4.066 2.253 6.067 3.56 10.978.457 1.717.766 3.145.956 4.088L208.843 127a82.614 82.614 0 01-4.549-11.11c-1.585-4.868-1.972-7.646-3.956-12.857a74.427 74.427 0 00-3.297-7.418l-7.978 36 15.824 35.742c.588.851 1.65 2.054 3.295 2.585 3.022.975 6.841-.694 9.233-4.306a350.064 350.064 0 006.593-12c1.465-2.793 3.984-7.687 10.747-22.121 2.008-4.285 4.72-10.117 7.912-17.11a9.179 9.179 0 004.252-2.275 188.808 188.808 0 01-.495-6.692c-.246-4.465-.121-5.068.136-5.141z"/></g></g></switch></svg>