<svg xmlns="http://www.w3.org/2000/svg" viewBox="0 0 350 350"><switch><g><path d="M289.999,289.999L127.035,290l-22.925-26.648l12.066,26.648H60V60h168.89l-7.813-18.648 L236.505,60h53.494v187.923c-8.21-9.47-16.421-18.94-24.631-28.409c8.21,14.876,16.421,29.753,24.631,44.629V289.999z" fill="#fff"/><path d="M280.465,69.534H69.534v210.93h35.911l-3.808-9.497c-3.231-8.824-7.463-19.363-10.694-28.188 c8.44,8.717,17.88,19.148,26.32,27.865c3.145,3.273,6.291,6.546,9.436,9.819h153.765V259 c-10.076-20.341-20.152-40.681-30.229-61.022c10.076,10.308,20.152,20.615,30.229,30.923 C280.465,175.779,280.465,122.657,280.465,69.534z"/><linearGradient id="a" gradientUnits="userSpaceOnUse" x1="79.031" y1="79.031" x2="270.968" y2="270.968"><stop offset="0" stop-color="#165110"/><stop offset=".564" stop-color="#146604"/></linearGradient><path fill="url(#a)" d="M270.968 270.968L120.033 270.968 117.574 270.968 90.944 242.78 101.637 270.968 79.031 270.968 79.031 79.031 270.968 79.031 270.968 219.192 250.236 197.978 270.968 240.11z"/><linearGradient id="b" gradientUnits="userSpaceOnUse" x1="84.626" y1="243.226" x2="132.89" y2="243.226"><stop offset="0" stop-color="#08811b"/><stop offset="1" stop-color="#127612"/></linearGradient><path d="M121.418,270.968c-0.172-0.378-0.46-0.97-0.882-1.657 c-0.602-0.979-1.152-1.622-1.343-1.855c-1.809-2.2-1.47-4.085-3.462-6.626c-1.056-1.348-1.21-0.892-2.522-2.423 c-1.698-1.981-1.748-3.102-3.016-5.39c-1.611-2.904-2.364-2.495-5.835-7.319c-1.024-1.424-1.922-2.757-2.717-4.002 c-2.878-4.503-2.579-5.227-4.75-8.262c-0.983-1.374-0.852-0.968-4.005-4.945c-0.823-1.038-2.148-2.708-2.993-3.852 c-1.459-1.974-3.393-4.949-5.265-9.154c8.434,8.441,12.016,12.748,13.698,15.132c1.111,1.575,2.144,3.377,4.352,5.44 c0.881,0.823,1.986,1.722,3.412,3.412c0.493,0.584,0.584,0.741,1.865,2.457c0.243,0.325,1.901,2.544,3.634,4.762 c2.453,3.139,2.971,3.605,3.402,3.957c1.293,1.058,1.721,1.018,2.769,2.027c1.387,1.335,1.719,2.444,2.508,3.773 c1.687,2.842,2.768,2.147,5.305,5.227c2.3,2.792,1.944,4.009,4.53,6.799c1.084,1.169,2.108,1.994,2.788,2.498 C129.066,270.968,125.242,270.968,121.418,270.968z" fill="url(#b)"/><linearGradient id="c" gradientUnits="userSpaceOnUse" x1="85.945" y1="221.27" x2="168.494" y2="221.27"><stop offset="0" stop-color="#08811b"/><stop offset="1" stop-color="#127612"/></linearGradient><path d="M152.143,270.968c-0.4-0.079-1.01-0.231-1.698-0.545c-0.696-0.318-1.278-0.713-3.956-3.56 c-1.103-1.173-1.484-1.616-1.681-2.374c-0.211-0.81-0.018-1.238-0.027-1.913c-0.021-1.599-1.143-2.228-2.692-4.367 c-1.389-1.918-0.846-1.907-3.115-5.637c-0.385-0.632-0.29-0.452-1.978-3.066c-1.013-1.57-2.301-3.564-3.412-5.341 c-1.736-2.775-2.939-4.858-3.165-5.242c-1.875-3.193-14.035-21.695-44.473-67.352c32.778,35.77,56.443,62.146,58.615,64.978 c2.913,3.797,3.56,6.363,3.56,6.363c0.137,0.543,0.232,1.085,0.593,1.846c0.692,1.455,1.592,2.093,3.56,3.824 c1.89,1.663,2.835,2.494,3.231,3.099c1.188,1.818,0.496,2.772,1.516,4.549c1.497,2.608,2.744,2.155,5.242,5.044 c1.199,1.387,0.953,1.54,4.352,6.824c0.788,1.225,1.446,2.22,1.879,2.869C163.044,270.968,157.593,270.968,152.143,270.968z" fill="url(#c)"/><linearGradient id="d" gradientUnits="userSpaceOnUse" x1="94.648" y1="203.336" x2="214.912" y2="203.336"><stop offset="0" stop-color="#08811b"/><stop offset="1" stop-color="#127612"/></linearGradient><path fill="url(#d)" d="M94.648 135.703L195.132 270.968 214.912 270.968z"/><linearGradient id="e" gradientUnits="userSpaceOnUse" x1="149.495" y1="183.949" x2="270.968" y2="183.949"><stop offset="0" stop-color="#08811b"/><stop offset="1" stop-color="#127612"/></linearGradient><path d="M262.648,270.968c-0.358-0.45-0.92-1.212-1.451-2.243 c-1.021-1.985-0.96-3.088-1.846-4.714c-0.821-1.507-1.837-2.33-2.308-2.769c-5.315-4.957-13.136-28.123-23.965-37.906 c-0.545-0.492-1.581-1.388-2.936-2.841c-4.568-4.9-6.671-9.611-7.311-10.979c-7.829-16.742-55.584-86.871-60.733-92.802 c-0.229-0.264-1.492-1.689-2.967-3.791c-1.537-2.192-2.483-3.949-2.901-4.714c-3.489-6.395-6.953-11.117-6.725-11.275 c0.292-0.201,5.684,7.725,9.264,10.978c0.353,0.321,1.713,1.527,3.264,3.396c0,0,0.695,0.837,1.352,1.747 c1.949,2.701,58.552,82.335,70.516,95.242c2.973,3.207,5.81,6.538,8.769,9.758c1.559,1.696,2.531,2.732,3.808,4.451 c2.719,3.659,2.091,4.372,4.747,7.615c1.893,2.312,3.328,3.432,5.233,6.532c0.758,1.233,0.953,1.743,1.987,3.308 c0.797,1.206,1.853,2.807,3.478,4.632c1.877,2.109,2.324,2.059,3,3.396c0.369,0.728,0.616,1.494,1.418,2.407 c0.672,0.765,1.305,1.145,1.648,1.385c0.962,0.671,2.133,1.966,2.979,4.714c0,4.824,0,9.649,0,14.474H262.648z" fill="url(#e)"/><linearGradient id="f" gradientUnits="userSpaceOnUse" x1="186.165" y1="155.022" x2="270.968" y2="155.022"><stop offset="0" stop-color="#08811b"/><stop offset="1" stop-color="#127612"/></linearGradient><path d="M270.968,215.484c-0.758-0.859-1.952-2.231-3.375-3.956 c-3.399-4.123-4.129-5.44-6.665-8.425c-4.202-4.944-4.17-3.645-5.645-6.068c-2.696-4.427-2.033-7.497-4.997-9.441 c-0.711-0.466-1.906-1.048-2.868-2.473c-0.833-1.233-0.494-1.619-1.286-2.769c-1.198-1.74-2.305-1.335-3.56-3.066 c-0.817-1.127-0.498-1.504-1.378-3.073c-0.989-1.763-2.216-2.753-2.679-3.169c-4.432-3.98-10.105-19.303-14.834-26.099 c-0.69-0.992-1.193-1.715-2.071-2.579c-1.953-1.923-3.211-2.032-4.692-3.888c-0.772-0.967-0.614-1.168-1.545-2.732 c-1.619-2.721-3.427-4.349-3.89-4.813c-1.859-1.863-8.357-11.328-25.319-38.374c19.838,17.041,26.79,25.257,28.787,29.461 c0.379,0.799,2.004,4.452,5.465,8.286c2.285,2.531,4.352,4.013,5.341,4.747c11.21,8.321,20.813,22.14,22.549,27.099 c0.145,0.415,0.829,2.462,2.176,5.044c0.587,1.126,1.12,2.147,1.879,3.165c1.8,2.413,3.047,2.362,6.231,4.945 c1.222,0.991,3.362,2.751,5.341,5.538c1.358,1.913,1.477,2.672,2.918,4.5c1.494,1.896,3.033,3.196,4.116,4.005 C270.968,199.396,270.968,207.44,270.968,215.484z" fill="url(#f)"/><linearGradient id="g" gradientUnits="userSpaceOnUse" x1="253.939" y1="103.528" x2="270.962" y2="103.528"><stop offset="0" stop-color="#08811b"/><stop offset="1" stop-color="#127612"/></linearGradient><path d="M270.961,116.978c-0.506-0.53-1.265-1.368-2.089-2.473 c-1.749-2.346-1.949-3.426-3.578-5.528c-1.22-1.574-1.404-1.353-2.751-2.977c-1.574-1.898-2.443-3.554-3.363-5.341 c-1.984-3.856-3.734-7.419-5.242-10.582c3.965,2.12,5.639,4.406,6.429,6.132c0.571,1.248,1.384,3.741,3.758,5.637 c0.578,0.462,0.577,0.351,1.088,0.791c1.966,1.691,1.94,3.283,3.56,5.143c0.409,0.469,1.099,1.158,2.188,1.813 C270.961,112.055,270.961,114.516,270.961,116.978z" fill="url(#g)"/><path d="M235.516,207.093c0.918,0.521,2.143,1.416,2.802,2.901c0.496,1.117,0.151,1.358,0.643,2.868 c0.693,2.13,1.693,2.465,2.055,4.286c0.193,0.97,0.093,1.799,0,2.291c0.659-0.091,1.072,0.054,1.324,0.198 c0.842,0.48,0.842,1.487,1.846,3.363c0.223,0.416,0.425,0.745,0.56,0.956c-0.418,0.121-0.835,0.242-1.253,0.363 c3.286,6.055,6.571,12.11,9.857,18.165c-0.185,0.14-0.435,0.274-0.725,0.264c-0.451-0.017-0.701-0.374-0.79-0.305 c-0.122,0.094,0.133,0.94,0.79,1.492c0.795,0.67,1.45,0.294,2.242,0.692c0.93,0.468,0.85,1.402,1.846,4.253 c0.788,2.258,0.961,2.024,1.615,4.088c0.526,1.66,0.478,2.011,1.038,3.527c0.784,2.12,1.07,1.953,1.187,2.852 c0.18,1.387-0.506,2.658-1.887,5.143c-0.498,0.896-1.174,2.034-2.052,3.313c0.172,0.598,0.332,1.487,0.099,2.473 c-0.279,1.178-0.875,1.463-1.714,2.835c-1.214,1.985-0.735,2.642-1.782,4.143c-0.455,0.651-1.258,1.549-2.734,2.319 c-0.198,1.055-0.396,2.11-0.593,3.165c-7.236,4.005-14.473,8.011-21.709,12.016c-0.154,0.16-0.39,0.395-0.696,0.659 c-0.859,0.741-1.357,0.922-2.865,1.789c-1.625,0.934-1.835,1.179-2.497,1.217c-0.674,0.039-1.238-0.17-1.607-0.351 c0.031,0.094,0.234,0.745-0.148,1.335c-0.211,0.325-0.501,0.48-0.643,0.544c-1.427,0.676-2.632,0.983-3.486,1.137 c-1.264,0.228-1.912,0.151-2.794,0.717c-0.52,0.334-0.658,0.594-1.607,1.261c-0.73,0.513-1.095,0.769-1.434,0.865 c-1.389,0.393-3.085-1.494-3.659-2.126c-1.857-2.045-4.235-4.461-7.467-7.566c0.913-0.279,1.452-1.2,1.267-2.071 c-0.165-0.775-0.872-1.363-1.712-1.391c-0.105,0.667-0.354,1.859-0.915,1.953c-0.494,0.083-1.003-0.724-1.162-0.964 c-0.838-1.269-3.262-3.971-9.276-9.737c0.091-0.219,0.172-0.522,0.047-0.785c-0.227-0.48-0.959-0.456-1.576-0.678 c-0.585-0.21-1.309-0.729-1.929-2.077c0.054-0.632,0.087-1.321,0.082-2.06c-0.004-0.639-0.035-1.24-0.082-1.797 c-0.228,0.081-0.499,0.158-0.808,0.214c-0.409,0.074-0.774,0.09-1.071,0.082c-0.074-0.276-0.139-0.609-0.165-0.989 c-0.046-0.691,0.056-1.272,0.165-1.681c-0.145,0.103-0.36,0.229-0.643,0.313c-0.167,0.049-0.318,0.072-0.445,0.082 c0.022-0.246,0.022-0.588-0.082-0.973c-0.042-0.156-0.094-0.293-0.148-0.412c-0.587,0.587-1.403,0.78-2.044,0.495 c-0.473-0.211-0.706-0.619-0.791-0.79c-0.202-0.393-0.493-1.087-0.544-1.995c-0.065-1.154,0.292-2.037,0.495-2.456 c-0.382-0.262-0.943-0.699-1.484-1.36c-0.522-0.638-0.763-1.165-1.459-2.646c-1.169-2.486-1.017-2.121-1.178-2.49 c-1.399-3.223-1.087-3.657-2.136-5.446c-0.771-1.316-1.098-1.351-1.484-2.398c-0.494-1.342-0.442-2.604-0.321-3.462 c-0.187,0.086-0.511,0.203-0.923,0.198c-0.701-0.008-1.189-0.364-1.352-0.495c0.014-0.25,0.07-0.655,0.297-1.088 c0.126-0.24,0.271-0.425,0.396-0.56c-0.262-0.606-0.705-1.462-1.451-2.322c-1.574-1.815-3.494-2.49-4.384-2.821 c-4.964-1.846-4.335-2.827-9.692-4.78c-2.783-1.014-6.938-2.203-12.264-2.571c0.659,0.379,1.319,0.758,1.978,1.137 c-0.475,0.047-1.159,0.104-1.985,0.128c-1.375,0.041-5.034,0.149-8.301-1.068c-2.168-0.807-3.431-1.924-4.747-2.967 c-2.502-1.981-2.989-1.944-11.868-7.055c-3.967-2.284-9.925-5.777-18.396-10.945c3.22,2.532,5.976,4.38,7.846,5.571 c5.614,3.577,8.937,4.87,16.352,9.56c1.898,1.201,4.772,3.019,4.681,3.176c-0.168,0.291-10.532-5.075-21.165-11.549 c-3.325-2.025-2.839-1.821-11.448-7.179c-12.64-7.866-14.179-8.611-14.266-8.481c-0.143,0.214,3.523,2.975,3.907,3.264 c2.523,1.9,4.014,2.765,3.931,2.918c-0.137,0.254-4.428-1.813-5.786-2.473c-6.867-3.337-7.566-4.147-13.788-7.302 c-4.607-2.336-5.843-2.713-7.912-4.549c-2.362-2.096-3.605-4.137-4.516-5.571c-2.03-3.195-5.201-7.768-10.088-13.516 c4.109,0.843,8.352,1.639,12.725,2.374c2.871,0.482,5.696,0.92,8.473,1.319c-0.39-0.507-0.989-1.271-1.747-2.176 c-2.342-2.793-4.176-4.506-5.538-5.868c-1.495-1.494-3.59-3.731-5.967-6.791c4.042,0.992,6.827,2.251,8.67,3.264 c0.771,0.424,2.301,1.311,2.571,0.989c0.246-0.293-0.68-1.443-1.055-1.912c-3.153-3.946-5.896-8.203-8.876-12.28 c-1.128-1.543-2.685-3.793-4.376-6.676c3.038,1.366,5.498,2.631,7.269,3.585c3.881,2.092,6.622,3.868,7.22,3.214 c0.098-0.107,0.124-0.264-0.198-1.484c-0.563-2.13-1.042-3.157-1.335-4.327c-0.184-0.732-0.364-1.797-0.297-3.165 c1.35,1.168,2.942,2.444,3.239,2.176c0.168-0.151-0.137-0.741-0.371-1.187c-0.684-1.302-1.709-3.214-3.091-5.662 c-2.135-4.772-4.269-9.544-6.404-14.316c2.248,2.279,5.041,4.995,5.39,4.698c0.178-0.151-0.342-1.03-0.61-1.484 c-4.23-7.167-7.124-12.069-6.61-12.536c0.295-0.267,1.708,0.923,4.5,3.19c9.336,7.58,9.565,7.29,12.956,10.533 c2.184,2.089,2.843,2.93,5.192,4.945c2.28,1.956,4.28,3.413,5.637,4.352c-0.369,0.008-0.805-0.013-1.286-0.099 c-0.974-0.174-1.728-0.541-2.225-0.841c13.8,11.888,21.987,19.111,26.868,23.473c1.452,1.297,4.969,4.448,4.78,4.681 c-0.155,0.19-2.715-1.651-6.989-4.747c-3.339-2.418-7.826-5.677-13.187-9.593c4.877,5.305,9.399,8.645,12.626,10.714 c0.941,0.603,5.744,4.152,15.35,11.25c0.412,0.304,1.423,1.067,2.188,2.411c0.45,0.79,0.672,1.531,0.791,2.065 c5.079,4.229,10.288,8.473,15.626,12.725c3.046,2.426,6.079,4.81,9.099,7.154c-1.978-3.758-3.956-7.516-5.934-11.275 c-1.62-2.147-4.267-5.767-7.253-10.451c-5.757-9.031-5.489-10.587-14.209-26.341c-3.359-6.069-5.001-8.731-6.874-13.5 c-0.651-1.657-1.296-3.483-2.621-6.132c-1.167-2.333-1.772-3.126-4.896-8.06c-4.421-6.983-5.461-8.949-6.033-11.769 c-0.38-1.873-0.42-3.46-0.396-4.5c-0.212-0.04-0.516-0.119-0.841-0.297c-0.997-0.545-1.32-1.538-1.83-2.67 c-0.486-1.079-0.143-0.067-1.731-3.115c-2.156-4.14-2-4.492-1.879-4.599c0.41-0.362,1.868,0.824,2.077,0.569 c0.213-0.26-1.129-1.685-1.335-1.904c-0.024-0.026-1.656-2.144-4.92-6.379c-1.458-1.892-3.445-4.471-5.192-7.937 c-1.307-2.593-2.064-4.858-2.497-6.354c-1.385-0.659-2.769-1.319-4.154-1.978c4.973,1.589,8.955,3.042,11.703,4.088 c3.727,1.418,6.094,2.436,9.878,3.5c3.252,0.914,5.982,1.422,7.792,1.709c0.142,0.803,0.466,1.871,1.319,2.308 c0.797,0.408,1.313-0.116,2.505,0.132c1.523,0.317,1.443,1.331,2.967,1.78c1.339,0.395,1.785-0.275,3.495,0 c1.203,0.193,1.962,0.682,2.714,1.104c1.703,0.955,2.157,0.885,6.187,2.39c3.015,1.126,5.016,2.008,12.198,5.011 c2.979,1.246,7.328,3.056,12.725,5.275c0.373,1.079,3.776,10.947,6.198,19.319c2.106,7.281,1.622,7.04,2.362,8.564 c0.231,0.477,0.926,1.834,0.943,3.672c0.009,0.942-0.163,1.712-0.305,2.203c1.988,3.359,3.932,7.268,5.563,11.736 c0.43,1.177,0.815,2.332,1.162,3.462c-0.473-0.216-1.171-0.543-2.003-0.964c-3.194-1.618-5.8-3.329-10.731-7.022 c-2.193-1.643-4.886-3.707-7.937-6.157c1.178,3.51,2.581,5.32,3.692,6.33c0.638,0.58,1.72,1.386,1.879,2.703 c0.116,0.963-0.318,1.721,0.165,2.308c0.359,0.436,0.907,0.391,1.384,0.512c1.418,0.36,1.892,2.103,2.869,4.169 c0.737,1.558,2.416,5.018,5.636,7.334c0.807,0.58,0.732,0.385,1.683,1.023c5.168,3.469,5.595,8.041,9.494,9.247 c0.49,0.151,0.863,0.197,1.165,0.018c1.319-0.779,0.106-5.113-0.621-7.634c-2.382-8.259-4.649-14.749-5.272-16.621 c-1.218-3.659-2.595-9.021-2.986-16.016c-0.22-1.672-0.483-4.371-0.363-7.681c0.221-6.072,1.6-10.536,2.11-12.264 c3.596-12.18,1.244-14.41,5.868-35.473c0.891-4.059,2.201-9.546,2.176-17.176c-0.011-3.368-0.279-6.115-0.495-7.863 c0.956,1.023,2.107,2.11,2.54,1.847c0.386-0.235,0.044-1.451-0.067-1.847c-0.842-2.992-3.165-4.653-2.835-5.093 c0.228-0.305,1.413,0.395,1.714,0c0.184-0.241-0.082-0.733-0.363-1.236c-0.9-1.612-1.351-2.418-1.615-2.736 c-0.774-0.932-2.012-3.41-4.088-9.874c3.209,2.767,6.418,5.536,9.626,8.308c11.978,10.349,23.935,20.723,35.868,31.121 c1.492-0.128,2.034,0.19,2.242,0.527c0.218,0.355,0.003,0.626,0.147,1.506c0.132,0.806,0.381,0.996,0.545,1.659 c0.245,0.99-0.009,1.789-0.099,2.225c-0.27,1.306,0.244,2.679,2.176,6.676c2.398,4.96,2.328,4.337,2.769,5.604 c0.876,2.517,1.685,4.839,0.923,7.319c-0.733,2.387-2.309,2.925-2.803,5.726c-0.232,1.316-0.104,2.445,0.033,3.175 c-1.209,3.08-2.366,6.865-3.018,11.279c-0.444,3.003-0.228,3.417-0.74,5.93c-1.082,5.306-2.502,5.709-4.022,11.143 c-1.44,5.148-1.364,9.072-2.242,9.099c-0.461,0.014-0.896-1.056-1.055-1.648c-0.362-1.353,0.18-2.224,0.33-3.297 c0.218-1.564-0.574-2.294-2.308-5.67c-1.357-2.642-2.049-3.99-2.637-5.934c-0.856-2.825-0.58-3.895-1.788-6.564 c-0.717-1.583-0.909-1.417-1.509-2.798c-1.622-3.733-1.026-6.808-1.451-6.857c-0.349-0.04-1.021,2.01-1.733,5.957 c-1.299,7.203-1.31,12.855-2.091,12.9c-0.408,0.024-0.7-1.503-1.055-1.451c-0.415,0.061-0.45,2.22-0.396,4.286 c0.836,0.577,1.939,1.518,2.703,2.967c0.791,1.5,0.39,1.973,0.949,3.876c1.02,3.472,2.943,3.903,3.718,7.489 c0.255,1.178,0.035,1.077,0.261,2.373c0.659,3.779,2.814,6.307,3.719,7.484c1.659,2.156,3.616,5.615,4.803,11.283 c0.373-0.021,0.797-0.078,1.253-0.198c1.397-0.367,2.364-1.135,2.901-1.648c-0.879,0-1.758,0-2.637,0 c0.695-0.574,1.701-1.473,2.769-2.703c1.54-1.775,2.455-3.371,3.444-5.235c3.813-7.183,5.719-10.774,5.919-13.161 c0.067-0.801,0.158-2.856,1.531-4.732c0.636-0.869,0.808-0.69,1.37-1.466c1.694-2.337,0.504-4.47,1.896-6.196 c0.439-0.545,1.245-1.184,2.851-1.452c1.009-1.785,1.879-3.634,1.381-4.064c-0.325-0.281-1.014,0.233-1.283-0.024 c-0.49-0.469,1.183-2.778,2.628-5.159c3.122-5.148,2.953-6.969,5.515-8.852c1.347-0.99,2.685-1.435,3.495-1.648 c0.048-5.386-0.044-10.991-0.313-16.797c-0.126-2.727-0.287-5.403-0.478-8.027c1.332,2.043,2.662,4.109,3.989,6.198 c0.475,0.748,0.948,1.496,1.418,2.242c-1.082-1.027-2.165-2.055-3.247-3.082c1.214,2.17,2.429,4.341,3.643,6.511 c0.263,0.014,0.669,0.065,1.104,0.264c1.155,0.528,1.654,1.702,1.839,2.101c1.345,2.916,3.515,2.706,5.233,6.157 c0.998,2.004,0.348,2.239,1.532,4.82c0.874,1.906,1.81,3.045,2.788,4.326c1.311,1.716,3.125,4.246,5.174,7.65 c0.677,1.203,2.351,4.552,1.014,7.484c-0.108,0.237-0.239,0.477-0.396,0.717c0.422,0.56,0.924,1.38,1.195,2.448 c0.563,2.219-0.385,3.496,0.082,5.898c0.269,1.383,0.61,1.1,1.072,2.707c1.116,3.879-0.36,7.244,0.816,7.788 c0.338,0.156,0.617-0.049,0.816,0.173c0.497,0.555-0.753,2.388-1.286,3.264c-1.501,2.469-1.438,4.157-2.275,7.615 c-1.587,6.558-3.837,8.861-6.033,16.418c-2.622,9.023-2.072,14.892-3.165,14.934c-1.102,0.042-2.177-5.911-2.819-9.544 c-1.126-6.372-1.947-13.493-2.176-21.313c-0.495,0.845-1.107,1.731-1.483,1.616c-0.367-0.112-0.287-1.108-0.396-2.704 c-0.121-1.762-0.504-4.691-1.055-4.731c-0.432-0.032-0.417,1.753-1.929,3.367c-0.844,0.901-1.43,0.967-2.208,1.561 c-1.83,1.397-2.097,3.713-2.511,5.722c-0.843,4.091-1.545,3.28-3.263,9.05c-1.286,4.319-0.552,3.632-2.386,12.376 c-1.675,7.989-2.513,11.983-3.659,13.352c-0.194,0.231-1.253,1.443-0.89,2.324c0.217,0.526,0.804,0.604,0.841,0.989 c0.033,0.35-0.397,0.852-2.192,1.566c0.703,0.044,1.407,0.088,2.11,0.132c0.108,0.614,0.164,1.506-0.214,2.407 c-0.56,1.331-1.531,1.402-2.282,2.622c-0.929,1.509,0.094,2.153-0.636,4.103c-0.739,1.975-1.943,1.729-3.003,4.101 c-0.662,1.482-0.281,1.775-1.002,2.872c-0.923,1.403-1.77,1.259-2.769,2.571c-1.038,1.363-0.659,2.221-1.335,3.56 c-0.566,1.122-1.815,2.468-4.846,3.346c-0.09,1.051-0.163,2.622,0,4.516c0.258,3.008,0.986,5.386,0.686,5.486 c-0.296,0.099-1.139-2.184-1.527-2.074c-0.126,0.036-0.289,0.348,0.148,3.61c0.554,4.131,0.832,6.197,1.632,7.418 c0.427,0.652,1.016,1.336,0.775,1.747c-0.234,0.399-1.122,0.32-1.863,0.181c0.056,0.349,0.21,0.981,0.692,1.582 c0.217,0.271,0.447,0.469,0.643,0.61c0.69-0.101,1.306,0.314,1.434,0.874c0.106,0.463-0.132,0.977-0.495,1.187 c-0.453,0.262-0.941-0.043-1.08,0.154c-0.086,0.123-0.022,0.419,0.635,1.181c0.294-0.052,0.73-0.173,1.137-0.495 c0.364-0.288,0.432-0.521,0.584-0.504c0.373,0.042,0.082,1.471,0.801,2.68c0.747,1.255,1.929,1.173,2.126,2.044 c0.11,0.484-0.092,1.228-1.451,2.374c0.089,0.05,1.057,0.572,1.896,0.132c0.87-0.456,1.29-1.783,0.692-3.016 c1.585-0.909,2.844-1.762,3.758-2.423c1.371-0.991,2.098-1.646,2.027-2.374c-0.035-0.362-0.232-0.381-0.495-0.89 c-0.694-1.35,0.223-2.126-0.247-3.808c-0.293-1.047-0.848-1.458-0.596-1.984c0.195-0.408,0.723-0.567,1.14-0.636 c0.64-3.011,0.316-4.99-0.148-6.28c-0.18-0.501-0.632-1.594-0.181-2.06c0.321-0.332,0.982-0.223,1.516-0.066 c-1.358-3.456-1.089-4.868-0.462-5.473c0.45-0.433,1.237-0.598,1.385-1.253c0.122-0.541-0.265-1.094-0.618-1.483 c-0.014-1.33-0.027-2.66-0.041-3.989c0.44-0.022,0.879-0.044,1.319-0.066c-0.147-1.084-0.253-2.708,0.101-4.61 c0.122-0.654,0.193-0.778,0.888-3.039c1.437-4.674,1.565-5.55,1.131-6.433c-0.393-0.799-1.074-1.35-0.867-1.677 c0.172-0.271,0.825-0.173,1.385-0.033c0.033-0.751,0.046-1.544,0.033-2.374C235.634,208.834,235.586,207.937,235.516,207.093z" fill="#fff"/><path d="M246.56,100.297c0.602-0.172,1.623,2.632,4.088,7.253c2.37,4.444,4.564,7.735,6.527,10.681 c1.648,2.473,3.086,4.465,4.088,5.819c0.835,4.996,1.649,10.046,2.44,15.148c0.593,3.827,1.164,7.629,1.714,11.407 c-0.853,3.303-1.815,6.714-2.901,10.22c-1.663,5.37-3.445,10.406-5.275,15.099c-1.106-5.819-2.212-11.637-3.317-17.456 c-0.74-3.896-1.481-7.791-2.221-11.687c-1.414,1.434-2.848,2.971-4.286,4.615c-3.167,3.621-5.846,7.186-8.11,10.549 c-0.155,1.115-0.455,2.907-1.064,5.053c-1.072,3.78-2.159,5.339-3.222,8.661c-0.91,2.845-1.098,4.78-1.451,7.187 c-0.491,3.354-1.725,11.792-4.681,19.714c-0.96,2.572-4.055,10.869-8.505,15.824c-2.672,2.975-3.869,4.719-6.264,8.209 c-0.321,0.468-0.629,0.926-0.964,1.576c-1.389,2.694-1.477,5.241-1.443,7.935c0.052,4.132,0.08,6.348,0.643,9.791 c1.455,8.9,4.668,14.894,5.341,16.121c0.934,1.703,1.821,3.063,2.473,4.005c-0.778,0.266-1.884,0.678-3.165,1.286 c-2.768,1.312-5.685,3.215-5.505,3.587c0.036,0.074,0.208,0.118,0.831-0.03c1.077-0.138,2.639-0.349,4.525-0.639 c2.53-0.39,3.81-0.589,4.549-0.841c2.238-0.76,3.043-1.89,5.637-4.005c1.313-1.071,3.297-2.567,5.967-4.137 c-0.104-1.855-0.178-4.725,0.105-8.22c0.193-2.383,0.448-3.78,0.949-6.839c1.462-8.939,1.25-9.003,3.135-20.51 c0.307-1.876,0.563-3.402,0.724-4.355c0.773,1.83,1.892,4.41,3.313,7.467c4.582,9.853,6.006,11.096,8.753,18 c1.794,4.508,1.712,5.297,3.214,7.764c1.336,2.194,2.46,3.307,2.522,5.341c0.026,0.855-0.147,1.506-1.731,4.846 c-2.207,4.654-2.465,4.642-3.56,7.22c-1.021,2.401-1.102,3.129-2.324,5.736c-0.701,1.496-1.346,2.689-1.78,3.462 c-5.017,2.388-10.078,4.843-15.181,7.368c-6.768,3.349-13.394,6.714-19.879,10.088c-8.214-8.06-16.429-16.121-24.643-24.181 c-4.663-8.983-9.267-18.279-13.78-27.89c-1.483-3.158-2.934-6.302-4.352-9.429c-1.684-0.563-4.191-1.382-7.253-2.308 c-5.895-1.782-10.074-2.818-13.187-3.626c-4.231-1.098-10.253-2.752-17.736-5.11c-20.901-12.264-41.802-24.527-62.703-36.791 c7.165,0.912,14.33,1.824,21.495,2.736c-0.997-1.149-2.124-2.337-3.396-3.527c-3.126-2.928-6.263-5.067-9-6.626 c2.824,1.277,6.207,2.646,6.626,1.978c0.241-0.383-0.584-1.29-1.187-1.978c-2.268-2.589-3.914-5.676-6.132-8.308 c-2.172-2.577-5.16-6.295-9.462-12c1.746,0.782,4.359,2.007,7.484,3.692c2.578,1.391,4.42,2.51,4.987,1.963 c0.818-0.789-1.773-4.312-1.13-4.832c0.67-0.541,3.866,2.97,4.479,2.502c0.653-0.499-2.246-5.046-5.072-10.612 c-2.049-4.034-3.49-7.482-4.418-9.857c1.744,1.236,4.3,3.104,7.286,5.506c6.081,4.891,8.975,7.998,13.476,12.236 c7.372,6.941,7.47,6.01,22.061,18.605c6.642,5.733,6.39,5.726,11.144,9.808c5.483,4.707,13.494,11.306,23.835,18.857 c1.363,2.725,2.725,5.451,4.088,8.176c4.371,4.87,5.651,5.395,6.067,5.139c0.082-0.051,0.461-0.335,0.526-0.771 c0.065-0.432-0.208-0.799-0.272-0.89c-2.387-3.39-3.16-7.728-5.464-11.176c-3.327-4.978-6.092-10.31-9.198-15.429 c-10.137-16.708-9.682-17.243-13.549-22.5c-0.871-1.184-3.035-4.067-5.407-8.308c-1.995-3.568-3.179-6.382-3.495-7.121 c-2.023-4.735-9.089-19.474-26.176-53.934c0.526,0.05,1.23,0.065,2.044-0.066c0.773-0.125,1.408-0.343,1.879-0.544 c-1.278-1.212-2.566-2.497-3.857-3.857c-4.124-4.347-7.533-8.696-10.352-12.808c6.185,1.974,11.294,3.223,14.784,3.994 c7.783,1.719,10.598,1.742,16.402,3.852c2.089,0.759,3.262,1.315,10.615,4.945c4.334,2.139,9.631,4.762,15.692,7.78 c2.841,8.56,5.952,17.317,9.363,26.242c1.347,3.525,2.711,6.998,4.088,10.418c-4.872-3.4-10.101-6.828-15.692-10.22 c-3.354-2.034-6.655-3.944-9.89-5.736c2.688,4.802,5.415,9.627,8.18,14.474c2.943,5.159,5.887,10.269,8.831,15.328 c3.134,3.781,6.666,7.733,10.632,11.753c3.019,3.06,5.996,5.863,8.885,8.423c1.593-0.084,5.926-0.512,7.78-3.56 c1.178-1.938,0.852-4.106,0.659-5.275c-1.786-10.848-6.325-24.42-7.531-28.168c-0.827-2.571-2.005-6.482-3.151-11.392 c1.336-7.027,2.31-12.799,2.953-16.781c1.654-10.234,1.621-11.696,3.113-20.01c1.505-8.382,2.257-12.574,2.769-14.901 c0.808-3.668,1.783-7.655,1.83-13.22c0.019-2.238-0.118-4.095-0.247-5.374c0.717,0.779,2.015,1.926,3.907,2.357 c0.336,0.077,0.659,0.123,0.964,0.148c-0.038-0.225-0.103-0.581-0.198-1.014c-0.442-2.016-1.056-3.456-1.212-3.832 c-0.492-1.191-1.321-3.642-2.802-9.132c6.367,5.195,11.179,9.142,14.176,11.604c4.667,3.834,7.633,6.285,12.066,9.495 c3.027,2.192,5.601,3.914,7.385,5.077c0.398,2.933,0.966,5.276,1.418,6.89c1.137,4.066,2.253,6.067,3.56,10.978 c0.457,1.717,0.766,3.145,0.956,4.088c-2.989,10.813-5.978,21.626-8.967,32.44c-2.276-4.597-3.688-8.465-4.549-11.11 c-1.585-4.868-1.972-7.646-3.956-12.857c-1.239-3.254-2.475-5.812-3.297-7.418c-2.659,12-5.319,24-7.978,36l15.824,35.742 c0.588,0.851,1.65,2.054,3.295,2.585c3.022,0.975,6.841-0.694,9.233-4.306c1.562-2.715,3.898-6.86,6.593-12 c1.465-2.793,3.984-7.687,10.747-22.121c2.008-4.285,4.72-10.117,7.912-17.11c0.692-0.159,1.635-0.459,2.637-1.055 c0.677-0.402,1.211-0.838,1.615-1.22c-0.146-1.583-0.337-3.889-0.495-6.692C246.178,100.973,246.303,100.37,246.56,100.297z"/></g></switch></svg>