<svg xmlns="http://www.w3.org/2000/svg" viewBox="0 0 350 350" style="enable-background:new 0 0 350 350" xml:space="preserve"><switch><g><path style="fill:#fff" d="M290 290H60v-52.778L31.444 169 60 181.222V60h100.097l13.126-34.236L186.556 60H290v120.556l29.222-12.222L290 236.778V290z"/><path d="M70 70h210v210H70z"/><radialGradient id="aruni-a" cx="175" cy="175" r="125.556" gradientTransform="matrix(1 0 0 1.0153 0 -2.67)" gradientUnits="userSpaceOnUse"><stop offset=".268" style="stop-color:#d04011"/><stop offset=".473" style="stop-color:#cd3f11"/><stop offset=".621" style="stop-color:#c43c11"/><stop offset=".751" style="stop-color:#b43811"/><stop offset=".871" style="stop-color:#9e3111"/><stop offset=".983" style="stop-color:#812911"/><stop offset="1" style="stop-color:#7c2711"/></radialGradient><path style="fill:url(#aruni-a)" d="M78 78h194v194H78z"/><g style="opacity:.2"><path d="M101.889 78a626.33 626.33 0 0 0 26.806 74.769h18.972a616.73 616.73 0 0 1-25.111-74.768L101.889 78zM229.222 78c-.876 3.8-1.836 7.654-2.889 11.556-5.651 20.949-12.983 39.717-20.946 56.285l21.113-.507 23.167-67.333h-20.445z"/></g><path style="opacity:.1" d="M78 266.556a880.145 880.145 0 0 0 194 .166v-22.944H78v22.778z"/><radialGradient id="aruni-b" cx="175" cy="175" r="132.223" gradientTransform="matrix(1 0 0 1.0153 0 -2.67)" gradientUnits="userSpaceOnUse"><stop offset=".268" style="stop-color:#d04011"/><stop offset=".473" style="stop-color:#cd3f11;stop-opacity:.7204"/><stop offset=".621" style="stop-color:#c43c11;stop-opacity:.5181"/><stop offset=".751" style="stop-color:#b43811;stop-opacity:.3402"/><stop offset=".871" style="stop-color:#9e3111;stop-opacity:.1763"/><stop offset=".983" style="stop-color:#812911;stop-opacity:.0234"/><stop offset="1" style="stop-color:#7c2711;stop-opacity:0"/></radialGradient><path style="fill:url(#aruni-b)" d="M78 78h194v194H78z"/><g><path d="M173.611 40.944a336.988 336.988 0 0 1-3.499 12.898c-2.989 10.21-4.483 15.316-6.001 16.935-.736.785-3.098 3.122-3.611 6.556-.208 1.389-.074 2.698.111 2.722.201.026.302-1.483 1.111-1.722.446-.132.988.157 1.249.525.683.965-.201 2.994-1.36 3.364-.497.159-.699-.099-1.111.111-.698.356-.432 1.251-.988 2.456-.749 1.623-2.17 2.033-1.956 2.822.095.351.391.324.611.667.636.991-.914 2.665-1.944 4.889-1.124 2.427-.232 2.495-1.424 5.493-.925 2.326-1.521 2.433-2.298 4.785-.585 1.772-.279 1.808-.889 3.833-.787 2.615-1.449 3.056-2.013 5.077-.295 1.057-.598 2.671-.432 4.812a8.96 8.96 0 0 1-.778-.611c-1.28-1.126-1.9-2.335-2.111-2.722-1.845-3.382-6.037-5.655-6.111-8-.01-.315-.044-.673-.111-1.389-.123-1.304-.206-1.627-.444-1.889-.345-.378-.716-.303-1.167-.5-.57-.25-1.005-.823-1.611-2.944-.968-3.388-.331-3.611-1.075-4.97-.293-.536-.949-1.518-.647-2.363.06-.167.18-.394.076-.549-.181-.27-.769.097-1.354-.174-.437-.202-.33-.51-.833-.944-.67-.579-1.118-.257-1.5-.722-.405-.493.033-.934-.333-2-.158-.459-.24-.379-.667-1.222-.214-.422-.534-1.054-.75-1.856a7.426 7.426 0 0 1-.25-2.088 2.505 2.505 0 0 0-1.167.556c-.706.622-.727 1.455-1.084 2.601-.381 1.221-.569.961-1.194 2.51-1.06 2.626-.554 3.426-1.611 4.5-.536.545-.967.644-1.278 1.333-.388.858-.058 1.453-.5 1.833-.55.473-1.419-.139-1.778.278-.392.455.497 1.357.167 2.278-.229.639-.868.783-1.5 1.167-1.134.688-1.697 2.079-2.778 4.833-1.101 2.806-.707 2.705-1.556 4.444-1.028 2.108-1.482 2.002-2.056 3.722-.384 1.152-.423 1.929-1.111 3.5-.143.326-.401.911-.812 1.603-1.464 2.465-2.578 2.443-3.021 4.008-.304 1.073.183 1.215-.167 2.944-.252 1.249-.511 1.203-.722 2.222-.46 2.221.697 2.789.111 4.556-.327.986-.747.988-1.222 2.444-.27.827-.224 1.471-.611 1.611-.46.167-1.082-.505-1.153-.583-.683-.754-.634-1.635-.792-2.625-.131-.823-.491-1.625-1.212-3.229-.219-.487-.45-.951-3.288-5.688-.499-.833-.79-1.316-1-2.083-.33-1.208-.049-1.618-.441-2.702-.391-1.083-.785-.984-1.184-2.007-.149-.382-.695-1.936-.071-3.29.701-1.52 2.552-2.07 2.418-2.349-.098-.203-.938.252-1.556-.167-.441-.299-.334-.75-.667-1.611-.151-.391-.721-1.864-1.889-2.333-.765-.307-1.153.071-1.944-.389-.492-.286-.938-.779-.833-1 .158-.334 1.441.225 1.66-.125.311-.496-2.174-1.774-3.049-4.487-.27-.837-.034-.717-.444-2.5-.429-1.863-1.004-2.947-.562-3.343.363-.325 1.08.101 1.284-.212.152-.233-.13-.647-.5-1.222-.95-1.478-1.426-2.217-1.556-2.667-.342-1.186.15-1.728-.389-2.333-.48-.538-.992-.246-1.333-.778-.199-.311-.104-.536-.056-2.333.013-.462.018-.696 0-.833-.149-1.108-.901-1.959-1.056-1.889-.116.052-.012.672.05.943.041.179.08.28.061.445-.027.229-.163.541-.333.556-.224.019-.292-.494-.757-1-.353-.384-.54-.335-.979-.667-.57-.43-1.316-1.313-1.135-1.99.175-.658 1.142-.805 1.094-1.01-.07-.296-2.1-.055-2.556 0-1.281.156-3.03.38-5.14.684l-4.804 38.316 6.5 79.167a456.928 456.928 0 0 1-34.5-15l16.167 41 12 10.583 3.833 18.083a35.322 35.322 0 0 1 7.167.083c3.452.4 4.075 1.008 7.25 1.167 3.326.166 3.788-.445 6.506-.145 2.36.261 3.367.871 6.245 1.894.263.093 5.888 2.066 11.916 2.917 2.126.3 5.232.592 9.083.417a9.695 9.695 0 0 0 2.778 1.833c1.023.444 1.867.597 2.715.746.921.161 2.225.309 3.813.227 1.93 1.631 3.697 2.258 4.917 2.528 1.119.247 2.453.342 2.528.083.068-.235-1.002-.42-2.167-1.5-1.158-1.074-1.138-1.852-2.083-2.111-.793-.217-1.472-.24-1.472-.361 0-.114.634-.23 1.194-.25a5.135 5.135 0 0 1 1.5.167c2.133.565 3.401 1.304 3.611 1.028.187-.246-.624-1.085-.499-1.201.102-.095.675.442 1.499.979.345.225 1.166.76 2.062 1.042 1.291.406 1.55-.085 3.021.188 1.084.201 1.027.484 2.688 1.042.275.093 2.979.988 3.271.438.159-.3-.56-.726-.417-1.104.204-.539 1.894-.288 4.542-.167 1.255.057 2.293.066 3 .062a20.403 20.403 0 0 1 4.75.917c4.199 1.357 12.437 1.167 12.438 1.167 11.203-.259 10.75.256 13.59-.333 2.239-.464 4.51-.761 6.75-1.222 1.317-.271 2.766-.591 4.722-.5.12.006.07.005 2.5.222 3.082.276 3.339.293 3.833.167 1.522-.39 1.668-1.216 2.749-1.086.932.113 1.373.794 2.126.544.492-.163.481-.512 1.042-.667.509-.14 1.197-.04 1.583.375.453.486.24 1.136.5 1.208.3.084.54-.789 1.542-1.417.293-.184.713-.439 1.25-.375.039.005.813.105.958.542.247.742-1.512 1.875-1.417 2 .059.078.748-.333 2.042-1.125 1.47-.9 1.559-.97 1.875-1.042.833-.19 1.187.074 1.965-.269.522-.23.485-.403.994-.648.784-.378 1.375-.209 2.133-.255.976-.059 1.374-.423 2.575-.954.554-.245 2.626-1.142 5.042-1.333 2.081-.165 2.827.319 4.042-.375.384-.22.779-.536 1.458-.625.757-.099 1.114.185 1.958.375.349.079 1.904.429 3.168-.163 1.196-.56.93-1.4 2.04-1.879.983-.424 1.462.118 3.25.042.552-.024 1.353-.306 2.962-.778a76.631 76.631 0 0 0 1.413-.43c.274-.036.608-.045.708.125.084.143-.072.287.004.415.091.154.415.121 1.496-.04.379-.057.569-.085.611-.093 1.336-.251 1.54-.624 2.542-.76.41-.055.97-.131 1.597.103.588.219.59.471 1.034.57.765.171 1.788-.346 2.169-1.116.318-.642.064-1.204.38-1.37.296-.156.679.251 1.086.428 1.401.61 3.956-1.117 5.164-3.178.998-1.702.959-3.431.875-4.278l-.111-10 12.278-8.389 16.833-43.5-27.5 12.333 2.5-84.5L274 75.5a20.153 20.153 0 0 0-2.278 2.889c-1.22 1.88-1.831 2.82-2.056 4.167-.086.515-.191 1.715-.722 2.944-.143.332-.429.924-.833.944-.097.005-.154-.026-.444-.167-.922-.448-.934-.426-1-.5-.428-.478.141-1.313-.111-1.5-.403-.298-2.248 1.531-2.944 2.222-.844.837-1.281 1.27-1.811 1.968-1.199 1.579-.984 2.023-1.911 3.365-1.524 2.206-3.429 2.923-3.167 3.611.197.519 1.365.338 1.5.889.104.425-.571.62-.944 1.556-.06.15-.463 1.2-.038 2.159.266.601.678.761.583 1.069-.134.438-1.094.537-1.212.549-.488.051-.553-.08-.797-.014-.685.185-.704 1.362-1.212 2.4-.492 1.006-1.094 1.168-2.047 2.059-1.396 1.305-1.108 1.896-3.765 6.747a123.253 123.253 0 0 1-1.457 2.586c-1.709 2.933-1.861 2.861-2.056 3.611-.087.338-.246 1.083-.833 1.778-.298.353-.359.281-.556.556-.673.94-.161 2.057-.611 2.278-.295.145-.66-.263-.833-.111-.174.153.11.637.278 1.222.195.68.13 1.287 0 2.5-.084.786-.156 1.457-.444 2.278-.553 1.574-1.116 1.454-1.333 2.611-.184.978.161 1.364-.195 2.551-.142.473-.304.99-.694 1.116-.622.2-1.421-.728-1.556-.889-1.646-1.972.199-4.148-1.222-6.667-.751-1.331-1.564-1.251-2.167-2.778-.479-1.213-.407-2.383-.278-3.167a5.53 5.53 0 0 1-.667-1.278c-.35-.969-.419-2.049-.444-2.444-.015-.234-.033-.636-.167-1.167a5.518 5.518 0 0 0-.215-.67c-.461-1.176-.872-2.373-1.382-3.529-1.084-2.459-.259-3.209-1.285-5.534-1.44-3.263-3.711-3.261-3.813-5.677-.04-.96.281-1.831-.108-3.441-.036-.148-.183-.74-.642-1.761-.983-2.187-1.628-2.407-2.164-3.668-1.008-2.368-.087-4.764-.447-4.832-.319-.06-.845 1.854-1.286 1.775-.284-.051-.313-.891-.436-.886-.239.009-.203 3.142-.5 3.167-.174.015-.15-1.071-.889-2.5-.363-.702-.636-.956-.826-1.7a3.95 3.95 0 0 1-.118-1.467c.095-.818.398-.98.556-1.667.29-1.266-.333-2.5-.523-2.477-.225.027.081 1.841-.607 2.118-.325.131-.699-.151-.759-.197-.483-.364-.639-1.14-.337-1.933-.327-.792-.555-1.034-.718-1.011-.254.035-.299.708-.556 1.833-.326 1.428-.454 1.22-.783 2.596-.406 1.694-.333 2.515-.957 2.84-.332.173-.459-.004-.76.175-.657.393-.322 1.403-.713 2.851-.275 1.018-.517.801-1.232 2.538-.482 1.172-.357 1.233-.833 2.333-.37.853-.502.948-1.167 2.278-.463.926-.41.904-.994 2.123-1.272 2.658-1.602 2.932-1.89 3.1-.925.538-1.352-.055-2.25.453-.923.522-.817 1.345-1.909 3.454-.721 1.392-1.792 3.013-2.291 2.846-.339-.113-.217-.985-.555-1.059-.255-.056-.505.402-1.125 1.25-.322.441-.92 1.259-1.541 1.861-.336.325-.87.772-1.667 1.181a34.443 34.443 0 0 0-.708-.958c-1.011-1.321-1.258-1.451-1.391-1.987-.107-.43.045-.374-.049-1.596-.071-.921-.17-1.114-.226-1.209-.256-.433-.538-.383-1.229-.938-.541-.434-1.098-1.05-.979-1.24.069-.111.314.01.906-.073.354-.05.532-.074.615-.198.127-.189-.035-.458-.406-1.269-.236-.516-.355-.774-.417-.95-.311-.883-.097-1.053-.391-1.639-.284-.566-.548-.533-.672-1.014-.114-.439.049-.692.115-1.195.081-.62-.059-1.05-.278-1.833-.797-2.848-.49-2.655-.889-3.5-.841-1.78-1.881-1.949-2.278-3.667-.063-.274-.268-1.206.167-1.556.258-.207.572-.074.722-.278.209-.283-.171-.846-.511-1.461-.111-.202-.483-1.123-1.225-2.965-.614-1.524-.42-1.267-.764-2.018-.73-1.595-1.205-1.877-1.5-3.056-.216-.864-.015-.928-.166-1.816-.285-1.674-1.168-2.434-1.89-3.684-.997-1.726-.999-3.193-1.2-4.531-.374-2.473-2.263-10.026-7.579-28.631z"/><path d="M143.722 264c.03-.202.841-.306 1.556-.222.335.039.645.12 1.778.611 1.204.522 1.805.787 1.778.944-.041.232-.975.274-1.556.222a4.74 4.74 0 0 1-1.333-.333c-.187-.074-.236-.105-.889-.444-1.174-.61-1.348-.681-1.334-.778zM255.778 256.056c-.503-.229-1.037-.023-1.528.167-.33.127-.622.24-.611.361.019.222 1.041.289 1.639.278.459-.009.966-.018 1.028-.222.053-.179-.248-.457-.528-.584zM266.719 82.738c-.283-.075-.32-1.157-.156-1.967.202-1.003.627-1.174.667-2.104.031-.712-.204-.933 0-1.333.293-.575 1.181-.911 1.542-.646.408.3.094 1.33-.25 2.458-.459 1.503-1.376 3.706-1.803 3.592zM91.917 94.958c-.274.171-.214.846.042 1.292.123.213.187.194.479.542.479.569.535.892.688.875.194-.022.322-.569.312-1-.004-.194-.049-.94-.646-1.417-.064-.051-.595-.467-.875-.292z"/><g><path style="fill:#fff" d="M205.889 246.556h20.333a78.04 78.04 0 0 0 20.111-7.667L264.555 225l-13.111 16a78.167 78.167 0 0 0 6.163-2.465c3.257-1.466 9.19-4.405 15.767-9.447a81.071 81.071 0 0 0 8.07-7.088l4.597-14.391 3.07-9.609a219.432 219.432 0 0 0-27.194 12.917c-8.037 4.514-13.005 7.966-22.667 14.333a1402.701 1402.701 0 0 1-33.361 21.306z"/><path style="fill:#eb9e84" d="M233.444 234.333c4.223-2.333 9.541-5.298 15.667-10 1.88-1.443 2.635-2.128 6.222-4.889 2.533-1.95 5.796-4.461 9.808-7.291 3.889-2.743 8.242-5.797 14.192-9.153a133.788 133.788 0 0 1 9.778-5 4132.878 4132.878 0 0 1-38.222 13.778 50.009 50.009 0 0 1-7 7.667c-2.837 2.521-5.149 3.99-7.222 5.333 0 0-9.148 5.927-22.889 15.889a353.543 353.543 0 0 0-7.889 5.889 221.873 221.873 0 0 0 11-4.333c4.783-2.034 10.003-4.27 16.555-7.89z"/><path style="fill:#fff" d="M215.979 148.146c3.196-2.136 4.471-5.801 5.243-10.368 2.462-14.572-1.396-31.274-3.833-40a62.13 62.13 0 0 1-4.833 10.556c-4.997 8.661-11.17 14.494-15.778 18.111l6.219 22.097c1.538.586 8.061 2.894 12.982-.396z"/><path style="fill:#2b4394" d="m202.828 147.942 4.394 15.614-4.394-15.614z"/><path style="fill:#eb9e84" d="M229.264 129.57c-2.794-13.405-7.607-24.119-11.875-31.792 1.161 7.609 3.776 26.884 1.694 40.889-.476 3.202-1.323 6.972-4.417 9.083-4.313 2.943-10.269.805-11.839.192l4.394 15.614a65.7 65.7 0 0 1 8-6.556 65.085 65.085 0 0 1 9.889-5.667 64.31 64.31 0 0 1 6.444-2.556 111.715 111.715 0 0 0-2.29-19.207z"/><path style="fill:#fff" d="M126.208 139.292c.95 2.693 2.494 6.875 6.375 8.333 4.775 1.794 9.851-1.751 10.794-2.432L149 126.111a52.697 52.697 0 0 1-11.556-10.944 52.81 52.81 0 0 1-8.833-17.111c-1.962 6.883-7.282 27.404-2.403 41.236z"/><path style="fill:#2b4494" d="m137.958 163.583 5.541-18.806c-1.846 6.269-3.694 12.538-5.541 18.806z"/><path style="fill:#eb9e84" d="M133.056 147.222c-1.042-.418-3.689-1.78-5.611-7.778-4.233-13.207-.288-34.335 1.167-41.389a106.705 106.705 0 0 0-11.167 26.611 106.632 106.632 0 0 0-3.556 23.889 52.193 52.193 0 0 1 14.403 6.694 52.074 52.074 0 0 1 9.667 8.333l5.541-18.806c-.931.683-5.958 4.245-10.444 2.446z"/><g><path style="fill:#fff" d="M96.444 220.778 58.013 197.54l-.569-.206 7.778 24.444a72.369 72.369 0 0 0 15.791 12.502 71.862 71.862 0 0 0 11.098 5.276 237.813 237.813 0 0 1-13.445-17.111l21.222 17.667 19.166 6.365a138.687 138.687 0 0 0 24.612 2.524l-47.222-28.223z"/><path style="fill:#eb9e84" d="M95.779 224.227c13.176 10.099 13.598 11.233 18.294 13.488 5.795 2.783 7.186 2.031 17.865 6.186a162.937 162.937 0 0 1 11.73 5.1l-43.444-31-6.556-7.556-36.222-13.111c10.919 6.86 19.422 12.851 25.306 17.167 7.883 5.783 13.027 9.726 13.027 9.726z"/></g><g><path style="opacity:.2" d="M260.5 204a40.461 40.461 0 0 1-8 14.166l-62.602 41.333 1.602-9.167 49.833-30.833 14.978-14.833L260.5 204z"/><path style="fill:#fff" d="M235.222 196.778s7.579-.425 15.111-5.111c13.483-8.389 21.397-33.156 20.222-63.556a46.974 46.974 0 0 1-9.444 12.444c-1.208 1.134-5.177 4.739-11.664 8.026-7.714 3.908-12.412 4.036-17.734 5.682-6.019 1.863-14.13 6.069-22.536 16.583l1.246 5.185 1.244 5.191 1.778 7.444.003.775c2.696 2.126 10.821 7.951 21.774 7.337z"/><path style="fill:#eb9e84" d="M270.556 128.111c-2.139 33.976-12.336 59.472-24.49 64.565-5.433 2.277-11.066 2.547-11.066 2.547-10.409.499-18.296-4.29-21.556-6.556l.122 17.214-16.69 38.162a268.363 268.363 0 0 0 11.679-9.821c6.852-6.103 11.547-10.915 15.928-15.398 7.451-7.625 15.175-15.51 24.85-25.379a759.802 759.802 0 0 1-13.556 25.111 90.122 90.122 0 0 0 12.333-10.444c2.456-2.491 8.626-8.829 13.556-17.667 8.867-15.898 9.168-31.727 9.444-46.222.13-6.744-.219-12.322-.554-16.112z"/></g><g><path style="opacity:.2" d="M85.833 204 94 218.5l54.834 39.5 3.666-7.778L98.667 212l-8.167-8h-4.667z"/><path style="fill:#fff" d="M108.333 201c8.98 4.629 17.407 5.314 22.091 5.346l.242-19.012 6-18.333c-2.107-2.477-5.764-6.231-11.218-9.241-8.323-4.594-12.464-2.832-22.685-7.626-1.829-.858-7.854-3.802-14.264-9.466a62.087 62.087 0 0 1-12.167-14.667c.029 2.121.954 44.005 18.444 62.556 6.343 6.724 13.557 10.443 13.557 10.443z"/><path style="fill:#eb9e84" d="m137.97 223.596-7.546-17.251.165-12.928c-2.533 1.931-11.123 7.99-20.929 5.857-6.357-1.383-10.317-5.576-12.493-7.941-15.683-17.049-20.17-57.018-20.834-63.333a150.518 150.518 0 0 0 0 21.333c.991 13.978 2.121 29.914 11.687 45.599 3.18 5.213 8.991 13.186 19.229 20.734a184.59 184.59 0 0 1-11.083-21.5 3378.118 3378.118 0 0 0 15.917 16.75c11.579 12.102 14.587 15.063 18.083 18.25a204.093 204.093 0 0 0 16 13.167l-8.196-18.737z"/></g><g><path style="opacity:.2" d="M150.193 116.919A4114.293 4114.293 0 0 0 127.167 184v22.346l17.667 40.21L182.25 259.5l9.25-9.167 25.833-43.5-.142-20.756-20.315-69.244-18.71-6.667-27.973 6.753z"/><path style="fill:#fff" d="M207.947 187.913c-3.224-27.094-23.392-88.468-23.392-88.468a1270.805 1270.805 0 0 1-10.986-35.153A1269.659 1269.659 0 0 0 150.083 194.5c1.079 2.886 2.981 7.147 6.333 11.583 4.443 5.88 7.084 6.313 14.667 13 7.822 6.897 17.622 15.539 16.417 24.333-.341 2.49-1.58 5.104-1.056 5.361.834.409 4.753-5.809 5.416-7.066 7.064-13.389 10.389-22.545 10.389-22.545 5.784-15.923 6.082-21.87 6.083-25a51.149 51.149 0 0 0-.385-6.253z"/><path style="fill:#142b66" d="M186.444 248.778a22.243 22.243 0 0 1-4.194 2.889 13.17 13.17 0 0 0 4.194-2.889z"/><path style="fill:#eb9e84" d="M171 217.25c-5.67-5.026-9.577-7.703-14.25-14.167a60.458 60.458 0 0 1-5.095-8.418A1900.03 1900.03 0 0 1 173.57 64.292l-20.458 64.375c-3.324 11.545-10.171 35.602-15.611 57.083-.682 2.692-1.483 5.945-1.489 10.354-.005 3.823.583 11.904 13.091 33.101a254.457 254.457 0 0 0 9.898 15.461 187.154 187.154 0 0 1-9.584-30 210.05 210.05 0 0 1 8 7.5 211.223 211.223 0 0 1 24.833 29.5 22.243 22.243 0 0 0 4.194-2.889s2.337-2.408 3.245-5.688c2.062-7.445-11.703-19.646-18.689-25.839z"/></g></g></g></g></switch></svg>