<svg xmlns="http://www.w3.org/2000/svg" xml:space="preserve" style="enable-background:new 0 0 350 350" viewBox="0 0 350 350"><switch><g><path d="M45 45h260v260H45z" style="opacity:.4"/><path d="M73 73h204v204H73z" style="fill:#d14007"/><path d="m73 73 102 142.222L277 73v176.889a492.933 492.933 0 0 0-61.171 7.797l-33.44 1.647-45.34-.633-18.994-4.311-45.056-4.5z"/><path d="M174.778 35.222a725.724 725.724 0 0 0-23.028 69.528l-10.167-9.667-16.667-25.097a126.888 126.888 0 0 0-12.083 21.181C105.372 107.785 102.837 123.056 102 134c-7.748-2.405-19.323-7.12-30.75-16.667A88.056 88.056 0 0 1 56.833 102c-2.314 16.62-1.3 30.288.107 39.726 1.473 9.876 3.649 16.947 4.143 18.524 4.735 15.118 11.871 26.604 17.75 34.417l-40.306-11.875 11.75 35.708 10.444 10.278a79.318 79.318 0 0 0 17.569 10.306 79.296 79.296 0 0 0 20.958 5.667 465.352 465.352 0 0 0 43.583 5.583c16.835 1.355 38.273 3.08 65.333.5 16.755-1.598 39.868-5.246 66.667-14.167a72.228 72.228 0 0 0 10.778-6.141 72.572 72.572 0 0 0 14.5-13.248l14.931-36.965-39.542 11.938a168.12 168.12 0 0 0 8.25-26.083c3.811-16.707 4.178-30.256 4.417-41.167a260.82 260.82 0 0 0-.5-22.889 126.634 126.634 0 0 1-12.75 13.806c-4.974 4.636-8.717 8.074-14.667 11.083a49.028 49.028 0 0 1-10.333 3.833l-5.5.833a56.264 56.264 0 0 0 .843-13.202l-22.621-60.076-10.417 28.167-13.444 13.556a530.247 530.247 0 0 0-8.861-27.111 530.093 530.093 0 0 0-15.137-37.779"/><path d="M175 50.556a3123.782 3123.782 0 0 0-19 62c-12.463 42.255-7.76 29.769-10.889 39 0 0-2.393 7.059-7.444 31.222-.258 1.234-.792 3.872-.667 7.333.182 5.004 1.636 8.814 4.111 14.222 4.841 10.579 9.472 18.289 10.778 20.444 2.036 3.36 4.9 7.917 8.556 13.222a254.545 254.545 0 0 1-7.889-31.333c3.252 8.746 8.909 20.166 19 30.889a88.28 88.28 0 0 0 8.333 7.778 16.177 16.177 0 0 0 5.361-1.93c3.602-2.094 5.381-5.091 7.639-9.07 3.932-6.93 5.899-10.395 7.222-13.222 2.856-6.1 6.391-13.76 8.778-24.222.798-3.499 1.27-5.668 1.444-8.111.182-2.538.14-5.449-.889-12.333-1.061-7.099-2.087-11.506-2.087-11.506-4.898-21.047-14.802-55.383-14.802-55.383-5.566-19.296-5.698-19.945-8.222-28.444A2032.345 2032.345 0 0 0 175 50.556" style="fill:#fff"/><path d="m134.5 157.917-6.083 20.417v19.083l17.417 40.25-19.833-16-36.833-38.083 13.333 24.083a101.352 101.352 0 0 1-16.654-15.996c-24.009-29.061-25.057-63.891-24.596-78.42 3.42 3.514 8.41 8.203 15 13 4.774 3.475 12.898 9.309 24.5 13.833 11.546 4.502 16.708 3.875 25.179 9.933a47.645 47.645 0 0 1 8.57 7.9m1.667-8.125 11.708-39.542a68.898 68.898 0 0 1-8.885-8.161c-7.371-8.073-11.467-16.439-13.782-22.547-3.25 6.834-7.899 17.335-11.417 28.625-1.377 4.421-2.375 8.303-3.042 12.917a75.619 75.619 0 0 0-.75 12.792l18.938 9.042zm-89.778 40.597 42.278 12.653 6.958 8.042 46.885 32.792-25.622-2.264-11.778-2.389-32-23.611 16.611 19.333a87.943 87.943 0 0 1-14.889-6.778 88.175 88.175 0 0 1-18.042-13.708c-3.466-8.024-6.934-16.047-10.401-24.07M223.444 77.667a77.256 77.256 0 0 1-8.333 15.167 77.304 77.304 0 0 1-14.389 15.389l11.361 40.722 8.139-8.278 18.222-8.556c.019-1.96-.02-4.673-.278-7.889-.183-2.274-.895-10.027-4.611-22-2.017-6.499-5.152-14.989-10.111-24.555m-9.583 82.027 5.028 17.694v19.944l-18.722 41.917 21.25-17.5 37.083-38-15.083 27.083c11.512-7.602 18.352-15.893 22.196-21.417 12.188-17.516 14.307-36.036 16.016-50.975a159.488 159.488 0 0 0 .955-23.191 67.166 67.166 0 0 1-10.583 11.25c-2.596 2.189-7.248 6.057-14.141 9.158-2.141.963-6.98 2.426-16.657 5.353-5.668 1.714-7.907 2.315-11.085 4.203-2.781 1.652-4.696 3.349-7.96 6.269a115.892 115.892 0 0 0-8.297 8.212m-6.694 83.75 47.111-33.111 6.778-7.889L305 188.556l-12.167 25.556a88.15 88.15 0 0 1-33.055 20.333l17.111-19.389-32.056 23.222-12.389 2.833z" style="fill:#fff"/></g></switch></svg>