<svg xmlns="http://www.w3.org/2000/svg" xml:space="preserve" style="enable-background:new 0 0 350 350" viewBox="0 0 350 350"><switch><g><path d="M305 305H184.56l-6.866-30.319-22.486 21.903-12.792-43L94.842 307.1l-8.315-81.71-41.489 44.042L45 45h260z" style="opacity:.4"/><path d="M277 277h-60.737l14.154-30.417-37.194 38.083-9.222-37.778-23.667 25.278-13.161-44.853L103 277.01l-8.111-80.177L73 219.802V73h204z" style="fill:#fbbb3f"/><path d="m243.667 3.75 65.944 33.528L183.25 238.625 161 186.5l-58 90.51 59.444-181.954 20.778 35.111z"/><path d="M254.353 9.183 298.15 31.45 184.021 215.895l-19.91-54.34-54.403 101.715 54.375-145.326 19.972 33.611L254.353 9.183z" style="fill:#fff"/></g></switch></svg>