<svg xmlns="http://www.w3.org/2000/svg" viewBox="0 0 350 350" style="enable-background:new 0 0 350 350" xml:space="preserve"><switch><g><path style="fill:#fff" d="M290.128 290h-89.795L175.5 250.833 108.333 222.5 60 272.813l-.128-18.479V60.001h230.256V290z"/><path d="M280.82 280.794H188L178 270l-19.667 15.667-14-34.334-38.416 40.755-5.584-68.755-31.153 28.334V69.39h211.64z"/><path d="M243.625 180.641c-.584-.603 2.096-3.774 3.75-4.583.18-.088.329-.139.424-.074.376.261-.19 2.312-1.588 3.565-.83.742-2.233 1.456-2.586 1.092zM252.271 171.104c-.399-.508 3.282-4.502 3.813-4.146.299.201-.232 1.896-1.417 3-.862.804-2.191 1.407-2.396 1.146zM266.344 154.906c.267.284 2.022-.647 3.219-2.094 1.129-1.365 1.776-3.207 1.438-3.438-.423-.288-2.396 1.935-3.5 3.438-.625.85-1.372 1.866-1.157 2.094zM236.708 190.583l-91.274-8.761 10.691-44.697-28.75-32.313-5.542 10.521 1.417-19.083L149 123.938l2.75-11.896.042-3.208.063-.396c15.373-44.455 20.301-59.924 19.792-60.167-.869-.415-1.208-.146-1.208-.146-.23.189-.189.583-.188.625.035.741-5.963 18.729-19.542 58.375a16.168 16.168 0 0 1-1.583-7.563l-4.875 5.688-27.917-32.208a26573.816 26573.816 0 0 0-9.166 220.458l52.75-59.458 15.596 24.595 61.194-68.054zm-96.229-83.979a114.675 114.675 0 0 1 6.396 7.646l-.313 1.344-16.688-19.203a114.68 114.68 0 0 1 10.605 10.213z"/><g><path style="fill:#fff" d="M243.625 180.641c-.584-.603 2.096-3.774 3.75-4.583.18-.088.329-.139.424-.074.376.261-.19 2.312-1.588 3.565-.83.742-2.233 1.456-2.586 1.092zM252.271 171.104c-.399-.508 3.282-4.502 3.813-4.146.299.201-.232 1.896-1.417 3-.862.804-2.191 1.407-2.396 1.146zM266.344 154.906c.267.284 2.022-.647 3.219-2.094 1.129-1.365 1.776-3.207 1.438-3.438-.423-.288-2.396 1.935-3.5 3.438-.625.85-1.372 1.866-1.157 2.094zM236.708 190.583l-91.274-8.761 10.691-44.697-28.75-32.313-5.542 10.521 1.417-19.083L149 123.938l2.75-11.896.042-3.208.063-.396c15.373-44.455 20.301-59.924 19.792-60.167-.869-.415-1.208-.146-1.208-.146-.23.189-.189.583-.188.625.035.741-5.963 18.729-19.542 58.375a16.168 16.168 0 0 1-1.583-7.563l-4.875 5.688-27.917-32.208a26573.816 26573.816 0 0 0-9.166 220.458l52.75-59.458 15.596 24.595 61.194-68.054zm-96.229-83.979a114.675 114.675 0 0 1 6.396 7.646l-.313 1.344-16.688-19.203a114.68 114.68 0 0 1 10.605 10.213z"/></g><linearGradient id="bandit-a" gradientUnits="userSpaceOnUse" x1="109.581" y1="284.893" x2="237.187" y2="63.874"><stop offset="0" style="stop-color:#fbd267"/><stop offset=".782" style="stop-color:#f7921e"/></linearGradient><path style="fill:url(#bandit-a)" d="m184 33.167-34.667 100.667-21.5-25.333-17.958 176.563 50.792-58.229L175 256.5l123.667-154.333-114.667-69z"/><g><path d="m280.82 61.5-99.07 173.583-18-49-53.025 90.619 1.557-15.296L162 117.25l18.5 21.5 44-106.25 56.32 29z"/><path style="fill:#fff" d="M113.458 266.125 165.75 131.25l18.125 26.375 50.454-120.064 38.135 19.636-87.881 160.469L166 169.749l-52.542 96.376z"/></g><path style="fill:#fff" d="m67.729 247.75 1.385 14.676L95.75 235.5l5.917 71.167L145.875 259l9.625 37 22.5-21 15.667 24.5 30.365-38.156-8.031-6.677L195.167 281l-15.333-22.333-18.667 18.5-11.667-37.334-39.333 43.333-7-70.333-35.438 34.917z"/></g></switch></svg>