<svg xmlns="http://www.w3.org/2000/svg" viewBox="0 0 350 350"><switch><g><path fill="#fff" d="M59.962 59.962H290.037V290.037H59.962z"/><path fill="#231f20" d="M69.5 69.5H280.5V280.5H69.5z"/><path fill="#c79326" d="M79 79H271V271H79z"/><radialGradient id="a" cx="175" cy="175" r="96" gradientTransform="matrix(0 -1 1.8 0 -140 350)" gradientUnits="userSpaceOnUse"><stop offset="0" stop-color="#ffff8b"/><stop offset="1" stop-color="#fff" stop-opacity="0"/></radialGradient><path fill="url(#a)" d="M79 79H271V271H79z"/><path d="M266.624,137.549c-0.114-3.421-0.379-6.846-0.51-10.28c-0.131-3.428-0.083-6.871-0.141-10.3 c-0.058-3.435,0.442-6.865,0.546-10.288c0.061-2.009,0.218-5.311-0.803-7.049c-0.708-1.206-3.712-2.271-7.034-3.139 c-3.807-0.994-7.788-1.94-8.011-1.177c-0.358,1.228,6.509,3.181,6.252,3.776c0.009-0.02-4.199-1.196-8.484-2.406 c-4.283-1.209-8.103-2.348-8.1-2.367c0.123-0.827,8.995,1.028,9.103,0.336c0.1-0.641-3.856-1.556-9.291-2.525 c-2.805-0.5-6.023-1.243-9.422-1.747c-3.116-0.463-6.402-0.581-9.533-1.002c-3.392-0.456-6.668-0.778-9.512-1.131 c-5.011-0.623-8.715-0.954-9.509-1.02c-3.035-0.255-6.03-1.095-9.073-1.263c-3.041-0.168-6.108,0.209-9.153,0.13 c-3.045-0.079-6.088-0.513-9.134-0.501c-3.047,0.012-6.107-0.136-9.151-0.029c-3.045,0.107-6.087,0.469-9.126,0.673 c-3.327,0.223-6.633,0.738-9.947,1.1c-3.314,0.362-6.585,1.031-9.883,1.52c-3.298,0.489-6.534,1.276-9.813,1.879 c-3.279,0.604-6.69,0.535-9.948,1.241c-2.884,0.625-6.194,1.499-9.541,2.6c-3.099,1.019-6.075,2.841-9.205,3.643 c-3.407,0.873-6.803,0.773-9.812,0.644c-2.146-0.092-3.113,3.307-3.42,7.317c-0.201,2.627-0.257,5.664-0.127,8.457 c0.174,3.725,1.02,7.024,1.033,8.42c0.024,2.713-0.102,5.427-0.078,8.139s-0.547,5.43-0.524,8.143 c0.024,2.713,0.685,5.42,0.709,8.132s-0.507,5.43-0.484,8.143c0.025,2.916,0.353,5.832,0.358,8.752 c0.005,2.917-0.235,5.835-0.239,8.754c-0.004,2.917-0.073,5.836-0.075,8.754c-0.002,2.918,0.675,5.835,0.686,8.753 c0.011,2.919-0.775,5.843-0.741,8.761c0.035,2.919,0.3,5.836,0.369,8.752c0.07,2.919,0.514,5.824,0.63,8.738 c0.129,3.244,0.897,6.011,2.438,8.386c1.573,2.425,3.632,4.638,6.123,6.423c2.346,1.681,4.944,3.279,7.621,4.625 c2.697,1.357,5.796,1.888,8.353,3.135c2.849,1.389,5.278,3.535,8.077,4.848c2.845,1.336,5.851,2.265,8.649,3.64 c2.794,1.374,5.817,2.341,8.568,3.872c2.691,1.498,5.23,3.364,7.884,5.125c2.504,1.662,5.193,3.005,7.777,4.541 c2.584,1.536,5.141,3.081,7.798,4.486c2.657,1.405,5.162,3.103,7.887,4.37c3.948,1.836,5.184,2.758,9.114,1.774 c2.796-0.7,5.63-3.098,8.186-4.414c2.554-1.315,5.104-2.639,7.639-3.989c2.535-1.351,5.184-2.494,7.704-3.873 c2.52-1.378,4.758-3.267,7.267-4.666c2.508-1.399,5.194-2.48,7.696-3.892c2.501-1.411,4.985-2.855,7.483-4.272 c2.245-1.273,4.636-2.286,6.885-3.551c2.249-1.266,4.374-2.752,6.629-4.007c2.255-1.255,4.303-2.886,6.565-4.129 c2.68-1.472,6.669-2.336,10.218-3.956c3.65-1.666,6.824-3.997,8.873-6.258c2.018-2.226,2.163-5.827,2.07-9.758 c-0.087-3.687,0.123-7.533,0.137-10.401c0.016-3.149-0.36-6.3-0.338-9.449c0.022-3.149-0.072-6.299-0.04-9.448 c0.004-0.425-0.284-4.418-0.246-9.241c0.024-2.977,0.96-6.257,1.033-9.225c0.123-5.045-0.076-9.245,0.297-9.249 c0.445-0.005,1.063,3.642,1.358,9.11c0.144,2.673,0.168,5.807,0.281,9.189c0.097,2.914-0.235,6.03-0.159,9.198 c0.073,3.041,0.308,6.137,0.363,9.185c0.057,3.162-0.043,6.269-0.003,9.194c0.046,3.366,0.493,6.488,0.519,9.187 c0.045,4.685,0.113,8.14,0.11,9.249c0.553-3.126,0.291-6.365,0.636-9.489c0.348-3.147,0.857-6.252,1.028-9.398 c0.171-3.155,0.894-6.295,0.922-9.451c0.028-3.156-0.253-6.321-0.334-9.478c-0.08-3.154-0.307-6.308-0.462-9.465 c-0.154-3.151-0.75-6.278-0.943-9.432c-0.193-3.148-0.442-6.295-0.639-9.448c-0.197-3.149,0.085-6.329-0.083-9.484 C267.258,143.846,266.729,140.706,266.624,137.549z" fill="#231f20"/><path d="M264.124,223.821c-0.597-0.253-1.834,3.139-5.423,4.692c-1.405,0.608-1.714,0.637-3.496,1.188 c-3.036,0.938-4.589,3.036-5.702,3.998c-3.411,2.947-6.484,3.285-11.281,5.703c-1.562,0.787-4.29,1.977-8.38,4.239 c-2.258,1.249-5.056,2.603-8.284,4.42c-2.422,1.363-4.908,3.302-7.945,5.026c-2.497,1.417-5.331,2.755-8.281,4.438 c-2.541,1.45-5.306,2.915-8.206,4.575c-2.568,1.47-5.36,2.89-8.225,4.535c-2.59,1.487-5.209,3.284-8.053,4.921 c1.146,0.083,2.323,0.053,3.468,0.137c2.117-1.046,5.37-2.329,9.166-4.275c2.964-1.519,5.678-2.487,7.861-3.651 c3.136-1.672,5.408-3.326,7.425-4.47c3.134-1.778,5.023-3.502,7.249-4.756c2.15-1.211,4.589-2.019,7.891-3.578 c2.608-1.232,5.048-2.331,7.285-3.387c2.679-1.264,5.148-2.294,7.315-3.313c2.848-1.339,5.084-2.85,7.09-3.781 c4.021-1.865,6.485-2.733,7.414-3.055c1.53-0.531,7.113-2.413,9.919-7.437C264.48,227.213,264.65,224.044,264.124,223.821z" fill="#231f20"/><path d="M115.688,147.625c-0.001,1.127-0.615,1.429-3.25,5.938c-0.916,1.567-1.374,2.35-1.604,2.854 c-1.772,3.878,0.33,8.574,1.167,10.5c2.547,5.865,7.066,17.62,13.25,33.167c0.903,2.515,2.187,6.339,3.417,11.083 c3.857,14.877,1.848,18.203,5.75,27.333c0.666,1.557,3.8,8.656,10.542,15.667c2.088,2.171,4.227,4.395,7.542,6.458 c8.235,5.125,16.779,4.932,22.021,4.813c5.405-0.123,13.846-0.314,22.604-5.75c8.487-5.267,12.501-12.497,13.75-14.813 c2.054-3.808,3.119-8.08,5.25-16.625c2.113-8.472,2.049-10.468,3.625-16.875c1.862-7.571,3.913-12.759,6.875-20.25 c3.673-9.291,6.04-19.106,10.25-28.167c0.466-1.003,1.662-3.49,0.938-6.177c-0.336-1.248-0.988-2.172-2.188-3.875 c-2.297-3.26-3.347-3.354-3.438-4.594c-0.188-2.578,4.08-4.911,5.729-5.813c4.069-2.224,5.657-1.383,7.583-3 c3.375-2.832,2.67-8.909,2.313-11.688c-1.188-9.243-5.964-15.296-9.063-20.063c-11.181-17.2-3.553-22.302-13.667-36.667 c-8.957-12.721-21.689-18.305-26.667-20.417c-10.091-4.281-19.13-5.194-24.75-5.333c-7.446,0.316-20.343,1.913-33.333,9.5 c-3.45,2.015-12.825,7.612-18.75,17.083C119.47,75.295,118.17,78.567,118,79c-2.335,5.953-2.417,10.177-2.917,13.667 c-0.579,4.048-4.886,12.976-13.5,30.833c-0.825,1.711-2.722,5.628-1.667,10c0.21,0.868,0.863,3.574,3.167,5.5 c2.471,2.066,4.118,0.959,7.667,3C111.946,142.688,115.69,144.841,115.688,147.625z" fill="#050708"/><path d="M124.25,143.938c4.225,21.284,8.994,43.114,14.375,65.438c2.61,10.828,5.294,21.481,8.042,31.958 c1.041-1.727,2.101-3.713,3.083-5.958c1.648-3.767,2.639-7.264,3.25-10.208c1.161,4.277,2.486,8.73,4,13.333 c1.4,4.258,2.855,8.315,4.333,12.167c0.914-0.542,1.959-1.249,3.042-2.167c1.162-0.985,2.081-1.969,2.792-2.833 c0.287,1.086,0.765,2.424,1.583,3.833c1.708,2.942,4.002,4.644,5.375,5.5c1.271-0.8,3.204-2.248,4.875-4.625 c1.181-1.681,1.856-3.292,2.25-4.5c0.455,0.742,1.136,1.686,2.125,2.625c0.884,0.84,1.755,1.428,2.458,1.833 c0.957-1.874,1.895-3.86,2.792-5.958c2.893-6.766,4.717-13.178,5.875-18.875c1.778,5.222,3.556,10.444,5.333,15.667 c3.173-9.534,6.213-19.551,9.042-30.042c6.442-23.887,10.765-46.427,13.625-67.125c1.96,1.452,4.507,3.672,6.875,6.875 c1.787,2.417,2.985,4.735,3.792,6.625c-1.227,4.118-5.218,17.321-8.833,28c-5.366,15.853-6.132,16.272-8.333,24.333 c-4.969,18.195-2.286,21.517-7.667,31.5c-2.198,4.078-6.423,11.678-15.333,16.542c-7.356,4.015-14.297,4.196-18,4.25 c-3.785,0.055-13.561,0.197-22.438-5.813c-9.348-6.329-12.676-16.079-15.188-23.438c-3.359-9.841-1.926-13.771-6.875-29 c-1.246-3.835-2.119-5.992-3.75-10.25c-3.138-8.192-7.563-20.196-12.75-35.875c1.289-2.246,2.854-4.699,4.75-7.25 C120.621,147.982,122.493,145.801,124.25,143.938z" fill="#fff"/><path d="M163.905,172.347c-8.879,4.401-14.59,12.946-14.59,21.979 c0.001,12.673,11.243,24.006,24.684,24.007c13.37,0,24.86-11.213,24.684-24.007c-0.13-9.428-6.574-18.248-16.288-22.13 c-0.003-3.509-0.005-7.018-0.008-10.527c-1.855,2.275-3.71,4.55-5.565,6.825c-1.842-0.001-3.684-0.003-5.525-0.004 c-2.464-2.274-4.928-4.548-7.392-6.821C163.905,165.228,163.905,168.788,163.905,172.347z M173.999,211.078 c-9.825,0-17.79-7.746-17.79-17.302c0-9.555,7.965-17.302,17.79-17.302s17.79,7.746,17.79,17.302 C191.789,203.332,183.824,211.078,173.999,211.078z" fill="#fff"/><path d="M174,179.525c-8.307,0-15.042,6.481-15.042,14.476c0,7.995,6.734,14.476,15.042,14.476 c8.307,0,15.042-6.481,15.042-14.476C189.042,186.006,182.307,179.525,174,179.525z M174,205.017 c-6.37,0-11.534-4.932-11.534-11.016c0-6.084,5.164-11.016,11.534-11.016c6.37,0,11.534,4.932,11.534,11.016 C185.534,200.085,180.37,205.017,174,205.017z" fill="#fff"/><path d="M232.875,107.75c-9.121-17.48-2.773-20.793-11.125-33c-7.99-11.678-19.517-17.005-24.375-19.25 c-4.557-2.106-12.592-5.726-23.042-6c-26.751-0.701-51.924,20.985-53.458,35.75c-0.183,1.758-0.371,6.696-2.542,13.083 c-1.291,3.799-2.284,4.95-5.5,11.333c-8.133,16.14-9.153,20.575-7.333,23.833c0.387,0.693,1.235,2.212,2.833,2.667 c4.193,1.192,7.466-6.682,13.833-8.333c3.183-0.825,7.862-0.283,14.667,5.167c0.778-7.333,1.556-14.667,2.333-22 c0.264,28.878,0.677,49.328,1.333,49.333c0.419,0.004,0.796-8.347,1.167-8.333c0.607,0.023,0.14,22.483,0.667,22.5 c0.334,0.011,0.938-9.014,1.167-9c0.204,0.013-0.765,7.14,0.833,15.833c0.586,3.189,1.367,5.767,1.958,7.5 c1.514-13.333,3.028-26.667,4.542-40c1.175,0.853,2.73,1.824,4.667,2.667c2.091,0.91,3.998,1.396,5.5,1.667 c0.903-1.132,1.864-2.516,2.75-4.167c1.732-3.225,2.529-6.248,2.917-8.5c0.812,1.41,1.712,2.874,2.708,4.375 c1.325,1.996,2.658,3.813,3.958,5.458c1.044-0.919,2.345-2.255,3.542-4.083c1.48-2.262,2.229-4.405,2.625-5.917 c1.178,2.412,2.386,4.843,3.625,7.292c0.873,1.726,1.748,3.434,2.625,5.125c1.615-0.222,3.583-0.626,5.75-1.375 c2.228-0.77,4.069-1.697,5.5-2.542c0.112,3.527,0.315,7.169,0.625,10.917c0.87,10.518,2.446,20.19,4.375,28.917 c0.292-1.689,0.646-4.157,0.813-7.167c0.197-3.552,0.057-6.48,0.313-6.5c0.296-0.023,0.662,3.89,1,3.875 c0.678-0.029,0.323-15.842,1-15.875c0.415-0.02,0.941,5.897,1.25,5.875c0.507-0.036-0.497-16.018,0.5-16.125 c0.515-0.055,1.108,4.172,1.625,4.125c0.86-0.078,0.349-11.88,0.25-22.563c-0.07-7.537,0.052-15.905,0.5-25 c0.306,8.229,0.611,16.458,0.917,24.688c6.647-5.921,11.464-6.761,14.833-6.125c6.747,1.274,10.362,9.507,14.667,8.125 c1.758-0.564,2.613-2.388,2.958-3.125C245.672,126.376,238.507,118.544,232.875,107.75z M122.292,106 c-0.313-2.667-0.508-6.331,0-10.625c0.683-5.769,1.495-12.626,6.792-17.167c0.835-0.715,3.826-3.214,8.167-3.708 c2.739-0.312,5.447,0.621,10.75,2.5c5.533,1.96,9.664,3.438,11.583,4.125c0.387-0.312,1.299-1.134,1.75-2.542 c0.361-1.127,0.255-2.096,0.167-2.583c-4.158-1.278-8.701-2.907-13.5-5c-3.841-1.675-7.342-3.428-10.5-5.167 c4.717,1.635,9.721,3.228,15,4.729c4.596,1.307,9.048,2.445,13.333,3.438c-0.605,5.956-2.486,10.303-4.146,13.188 C150.848,106.025,124.358,106.03,122.292,106z M173.417,120.083c-8.145-0.096-14.168,2.774-16.833,4.25 c-0.092-8.955,1.433-20.062,7.792-29.333c4.743-6.915,8.202-7.016,9-7c1.589,0.032,4.065,0.756,7.5,5.375 c7.202,9.683,8.639,23.064,8.875,31.125C187.104,122.999,181.301,120.176,173.417,120.083z M224.521,106.167 c-2.067,0.03-28.556,0.025-39.396-18.813c-1.66-2.885-3.54-7.232-4.146-13.188c4.347-1.05,8.794-2.193,13.333-3.438 c5.266-1.444,10.357-2.943,15.271-4.479c-3.34,1.661-6.931,3.316-10.771,4.917c-4.719,1.968-9.241,3.615-13.5,5 c0.012,0.512,0.106,1.482,0.687,2.5c0.885,1.551,2.299,2.16,2.75,2.333c4.423-1.631,7.9-2.982,10.063-3.833 c6.457-2.543,8.123-3.363,10.771-3.083c3.973,0.419,6.698,2.948,8.146,4.292c5.81,5.391,6.641,13.036,7.104,17.292 C225.287,99.836,224.977,103.44,224.521,106.167z" fill="#fff"/></g></switch></svg>