<svg xmlns="http://www.w3.org/2000/svg" xml:space="preserve" style="enable-background:new 0 0 350 350" viewBox="0 0 350 350"><switch><g><path d="M45 45h260v260H45z" style="opacity:.4"/><path d="M73 73h204v204H73z" style="fill:#bd8833"/><path d="M246.889 91.778a28.808 28.808 0 0 1-2.139-4.528c-.749-2.026-1.087-3.647-1.532-6.141-1.346-7.528-1.069-8.414-1.968-11.526 0 0-.824-2.854-2.75-6.583-2.547-4.933-10.991-17.049-26.583-25.75-14.904-8.317-29.195-9.526-36.917-9.583-7.722.057-22.012 1.266-36.917 9.583C122.491 45.951 114.047 58.067 111.5 63c-1.926 3.729-2.75 6.583-2.75 6.583-.899 3.112-.621 3.997-1.968 11.526-.446 2.494-.784 4.115-1.532 6.141a28.808 28.808 0 0 1-2.139 4.528l-17.153 5.097 5.479 142.146L175 298.406l83.562-59.385 5.479-142.146z"/><path d="M252.222 123.833c-1.34-5.269-3.278-9.055-3.278-9.056-2.879-5.626-4.627-8.758-5.583-10.583-.615-1.173-7.2-13.921-8.236-24.736-.108-1.131-.354-4.308-1.708-8.292a35.273 35.273 0 0 0-2.208-5.083c-.894-1.689-2.914-5.183-7.625-10-5.32-5.439-10.388-8.798-12.417-10.083-3.023-1.915-11.239-6.786-22.998-9.333h-.002c-13.385-2.899-25.77-.167-29 .611 0 0-18.487 4.451-30.597 16.431-2.914 2.883-5.708 6.347-5.708 6.347-1.397 1.733-2.096 2.599-2.861 3.778-2.978 4.589-3.998 9.126-4.833 13-.703 3.26-.386 3.015-1.042 6.333-.358 1.814-1.505 7.215-4.917 15.25-1.772 4.173-1.734 3.355-6.208 12.417-4.879 9.88-6.626 14.359-5.278 18.778.244.8.845 2.678 2.394 3.302 2.616 1.054 6.276-2.14 7.162-2.913 1.261-1.1.978-1.226 2.889-3.056 2.848-2.728 3.96-3.267 4.611-3.5 1.426-.51 2.657-.496 3.507-.487 1.841.021 3.319.453 4.59.922 4.336 1.6 7.98 2.945 11.07 6.731 2.991 3.666 3.768 7.544 4 9.111a19.02 19.02 0 0 1-1.278 10.111l6.75 44.333 5.333-46.25 12.333 4.417 6.25-14.417L174.667 149l7.25-11.167 6.167 14.5 12.208-4.375 5.25 45.653 7.958-43.528c-.817-2.312-1.611-5.662-1.278-9.639.183-2.18.424-5.053 2.333-8 1.713-2.643 4.005-4.167 5.236-4.986 1.269-.844 2.265-1.305 3.736-1.986 2.609-1.208 4.533-2.098 7.139-2.347 1.485-.142 2.92-.279 4.583.292 1.069.366 1.759.862 6.194 5.278 2.049 2.04 2.906 2.933 4.556 3.639 1.031.441 2.385.998 3.75.472 1.775-.684 2.396-2.747 2.639-3.556.606-2.01.25-3.781-.166-5.417m-98.549-36.827c-8.071 7.856-17.733 9.611-22.895 10.549a53.107 53.107 0 0 1-13.167.722c-.301-1.102-4.948-19.221 6.444-30.333 3.581-3.493 7.647-5.22 10.722-6.111l28.167 10c-2.589 7.998-6.879 12.845-9.271 15.173m40.119 32.036-19.292-3.708-19.25 3.708c-.31-5.717-.655-25.079 12.794-37.49a35.357 35.357 0 0 1 6.456-4.718 45.145 45.145 0 0 1 2.898 1.996s4.037 3.019 6.977 6.462c4.458 5.221 6.301 11.784 7.333 15.458 1.158 4.12 2.426 10.421 2.084 18.292m37.666-20.635A55.684 55.684 0 0 1 219.666 98c-5.599-.794-13.724-1.945-21.083-7.917-4.979-4.04-7.911-8.909-9.361-11.361A47.353 47.353 0 0 1 186 72.166l28.958-10.333c2.964 1.056 7.847 3.312 11.847 8.111 9.634 11.556 5.107 27.002 4.653 28.463" style="fill:#fff"/><path d="M216.833 208.125c-1.097 4.771-.538 2.051-4.582 18.716-1.442 5.944-2.445 10.13-4.366 15.787a135.342 135.342 0 0 1-3.468 9.122l-5.972-19.028-9.389 29.528-5.889-5.444-8.208 11.806-8.236-11.778-5.785 5.312-9.424-29.688-6.111 19.431a370.087 370.087 0 0 1-2.903-8.806c-2.566-8.123-4.968-16.705-7.667-28.042-3.072-12.905-8.792-38.897-15.542-73.042l-10.375 15a1620.305 1620.305 0 0 0 12.416 38.777 182.511 182.511 0 0 0 6.611 16.5 197.722 197.722 0 0 1 2 7.889c.347 1.498 1.451 6.338 2.722 13.889 1.36 8.079.847 6.993 1.423 9.309 2.725 10.963 10.01 18.326 12.911 21.191a52.653 52.653 0 0 0 7.444 6.111l20.556 12.139 18.889-11.056c3.707-2.492 9.3-6.768 14.165-12.96 4.29-5.46 6.112-9.99 6.53-11.068a41.861 41.861 0 0 0 1.249-3.81c.935-3.467 1.127-6.148 1.185-6.839.242-2.884 1.379-9.405 4.982-24.671.996-2.25 2.436-5.589 4.056-9.681 2.206-5.572 4.039-10.76 7.722-22.25a1363.355 1363.355 0 0 0 7.222-23.25l-10.444-15.222c-5.954 30.457-10.915 53.922-13.722 66.128" style="fill:#fff"/><path d="M181.432 163.833c-.091 3.478-2.933 6.271-6.432 6.271s-6.341-2.793-6.432-6.271h-3.984v10.329c-9.456 4.111-16.083 13.646-16.083 24.755 0 14.866 11.864 26.917 26.5 26.917s26.5-12.051 26.5-26.917c0-11.043-6.55-20.528-15.917-24.678v-10.405h-4.152zm13.868 35.111c0 11.211-9.089 20.3-20.3 20.3s-20.3-9.089-20.3-20.3 9.089-20.3 20.3-20.3 20.3 9.089 20.3 20.3" style="fill:#fff"/><path d="M158.2 198.944c0 9.278 7.522 16.8 16.8 16.8s16.8-7.522 16.8-16.8-7.522-16.8-16.8-16.8-16.8 7.522-16.8 16.8m30.1 0c0 7.345-5.955 13.3-13.3 13.3s-13.3-5.955-13.3-13.3c0-7.345 5.955-13.3 13.3-13.3s13.3 5.955 13.3 13.3" style="fill:#fff"/></g></switch></svg>