<svg xmlns="http://www.w3.org/2000/svg" viewBox="0 0 350 350" style="enable-background:new 0 0 350 350" xml:space="preserve"><switch><g><path style="fill:#fff" d="M59.962 59.962h230.075v230.075H59.962z"/><path style="fill:#231f20" d="M69.5 69.5h211v211h-211z"/><path style="fill:#c79326" d="M79 79h192v192H79z"/><radialGradient id="blackbeard-a" cx="175" cy="175" r="96" gradientTransform="matrix(0 -1 1.8 0 -140 350)" gradientUnits="userSpaceOnUse"><stop offset="0" style="stop-color:#ffff8b"/><stop offset="1" style="stop-color:#fff;stop-opacity:0"/></radialGradient><path style="fill:url(#blackbeard-a)" d="M79 79h192v192H79z"/><path style="fill:#231f20" d="M266.624 137.549c-.114-3.421-.379-6.846-.51-10.28-.131-3.428-.083-6.871-.141-10.3-.058-3.435.442-6.865.546-10.288.061-2.009.218-5.311-.803-7.049-.708-1.206-3.712-2.271-7.034-3.139-3.807-.994-7.788-1.94-8.011-1.177-.358 1.228 6.509 3.181 6.252 3.776.009-.02-4.199-1.196-8.484-2.406-4.283-1.209-8.103-2.348-8.1-2.367.123-.827 8.995 1.028 9.103.336.1-.641-3.856-1.556-9.291-2.525-2.805-.5-6.023-1.243-9.422-1.747-3.116-.463-6.402-.581-9.533-1.002-3.392-.456-6.668-.778-9.512-1.131a260.422 260.422 0 0 0-9.509-1.02c-3.035-.255-6.03-1.095-9.073-1.263-3.041-.168-6.108.209-9.153.13-3.045-.079-6.088-.513-9.134-.501-3.047.012-6.107-.136-9.151-.029-3.045.107-6.087.469-9.126.673-3.327.223-6.633.738-9.947 1.1-3.314.362-6.585 1.031-9.883 1.52-3.298.489-6.534 1.276-9.813 1.879-3.279.604-6.69.535-9.948 1.241a96.46 96.46 0 0 0-9.541 2.6c-3.099 1.019-6.075 2.841-9.205 3.643-3.407.873-6.803.773-9.812.644-2.146-.092-3.113 3.307-3.42 7.317a71.559 71.559 0 0 0-.127 8.457c.174 3.725 1.02 7.024 1.033 8.42.024 2.713-.102 5.427-.078 8.139s-.547 5.43-.524 8.143c.024 2.713.685 5.42.709 8.132s-.507 5.43-.484 8.143c.025 2.916.353 5.832.358 8.752.005 2.917-.235 5.835-.239 8.754-.004 2.917-.073 5.836-.075 8.754-.002 2.918.675 5.835.686 8.753.011 2.919-.775 5.843-.741 8.761.035 2.919.3 5.836.369 8.752.07 2.919.514 5.824.63 8.738.129 3.244.897 6.011 2.438 8.386a23.934 23.934 0 0 0 6.123 6.423 57.905 57.905 0 0 0 7.621 4.625c2.697 1.357 5.796 1.888 8.353 3.135 2.849 1.389 5.278 3.535 8.077 4.848 2.845 1.336 5.851 2.265 8.649 3.64 2.794 1.374 5.817 2.341 8.568 3.872 2.691 1.498 5.23 3.364 7.884 5.125 2.504 1.662 5.193 3.005 7.777 4.541 2.584 1.536 5.141 3.081 7.798 4.486 2.657 1.405 5.162 3.103 7.887 4.37 3.948 1.836 5.184 2.758 9.114 1.774 2.796-.7 5.63-3.098 8.186-4.414a621.7 621.7 0 0 0 7.639-3.989c2.535-1.351 5.184-2.494 7.704-3.873 2.52-1.378 4.758-3.267 7.267-4.666 2.508-1.399 5.194-2.48 7.696-3.892 2.501-1.411 4.985-2.855 7.483-4.272 2.245-1.273 4.636-2.286 6.885-3.551 2.249-1.266 4.374-2.752 6.629-4.007s4.303-2.886 6.565-4.129c2.68-1.472 6.669-2.336 10.218-3.956 3.65-1.666 6.824-3.997 8.873-6.258 2.018-2.226 2.163-5.827 2.07-9.758-.087-3.687.123-7.533.137-10.401.016-3.149-.36-6.3-.338-9.449.022-3.149-.072-6.299-.04-9.448.004-.425-.284-4.418-.246-9.241.024-2.977.96-6.257 1.033-9.225.123-5.045-.076-9.245.297-9.249.445-.005 1.063 3.642 1.358 9.11.144 2.673.168 5.807.281 9.189.097 2.914-.235 6.03-.159 9.198.073 3.041.308 6.137.363 9.185.057 3.162-.043 6.269-.003 9.194.046 3.366.493 6.488.519 9.187.045 4.685.113 8.14.11 9.249.553-3.126.291-6.365.636-9.489.348-3.147.857-6.252 1.028-9.398.171-3.155.894-6.295.922-9.451.028-3.156-.253-6.321-.334-9.478-.08-3.154-.307-6.308-.462-9.465-.154-3.151-.75-6.278-.943-9.432-.193-3.148-.442-6.295-.639-9.448-.197-3.149.085-6.329-.083-9.484-.169-3.15-.698-6.29-.803-9.447z"/><path style="fill:#231f20" d="M264.124 223.821c-.597-.253-1.834 3.139-5.423 4.692-1.405.608-1.714.637-3.496 1.188-3.036.938-4.589 3.036-5.702 3.998-3.411 2.947-6.484 3.285-11.281 5.703-1.562.787-4.29 1.977-8.38 4.239-2.258 1.249-5.056 2.603-8.284 4.42-2.422 1.363-4.908 3.302-7.945 5.026-2.497 1.417-5.331 2.755-8.281 4.438-2.541 1.45-5.306 2.915-8.206 4.575-2.568 1.47-5.36 2.89-8.225 4.535-2.59 1.487-5.209 3.284-8.053 4.921 1.146.083 2.323.053 3.468.137 2.117-1.046 5.37-2.329 9.166-4.275 2.964-1.519 5.678-2.487 7.861-3.651 3.136-1.672 5.408-3.326 7.425-4.47 3.134-1.778 5.023-3.502 7.249-4.756 2.15-1.211 4.589-2.019 7.891-3.578 2.608-1.232 5.048-2.331 7.285-3.387 2.679-1.264 5.148-2.294 7.315-3.313 2.848-1.339 5.084-2.85 7.09-3.781 4.021-1.865 6.485-2.733 7.414-3.055 1.53-.531 7.113-2.413 9.919-7.437 1.549-2.777 1.719-5.946 1.193-6.169z"/><g><path style="fill:#050708" d="M115.688 147.625c-.001 1.127-.615 1.429-3.25 5.938-.916 1.567-1.374 2.35-1.604 2.854-1.772 3.878.33 8.574 1.167 10.5 2.547 5.865 7.066 17.62 13.25 33.167a127.617 127.617 0 0 1 3.417 11.083c3.857 14.877 1.848 18.203 5.75 27.333.666 1.557 3.8 8.656 10.542 15.667 2.088 2.171 4.227 4.395 7.542 6.458 8.235 5.125 16.779 4.932 22.021 4.813 5.405-.123 13.846-.314 22.604-5.75 8.487-5.267 12.501-12.497 13.75-14.813 2.054-3.808 3.119-8.08 5.25-16.625 2.113-8.472 2.049-10.468 3.625-16.875 1.862-7.571 3.913-12.759 6.875-20.25 3.673-9.291 6.04-19.106 10.25-28.167.466-1.003 1.662-3.49.938-6.177-.336-1.248-.988-2.172-2.188-3.875-2.297-3.26-3.347-3.354-3.438-4.594-.188-2.578 4.08-4.911 5.729-5.813 4.069-2.224 5.657-1.383 7.583-3 3.375-2.832 2.67-8.909 2.313-11.688-1.188-9.243-5.964-15.296-9.063-20.063-11.181-17.2-3.553-22.302-13.667-36.667-8.957-12.721-21.689-18.305-26.667-20.417-10.091-4.281-19.13-5.194-24.75-5.333-7.446.316-20.343 1.913-33.333 9.5-3.45 2.015-12.825 7.612-18.75 17.083A46.389 46.389 0 0 0 118 79c-2.335 5.953-2.417 10.177-2.917 13.667-.579 4.048-4.886 12.976-13.5 30.833-.825 1.711-2.722 5.628-1.667 10 .21.868.863 3.574 3.167 5.5 2.471 2.066 4.118.959 7.667 3 1.196.688 4.94 2.841 4.938 5.625z"/><path style="fill:#fff" d="M124.25 143.938a1651.45 1651.45 0 0 0 22.417 97.396A51.58 51.58 0 0 0 153 225.168a264.156 264.156 0 0 0 8.333 25.5 22.26 22.26 0 0 0 5.834-5 15.54 15.54 0 0 0 1.583 3.833c1.708 2.942 4.002 4.644 5.375 5.5a17.088 17.088 0 0 0 4.875-4.625 17.002 17.002 0 0 0 2.25-4.5 12.963 12.963 0 0 0 4.583 4.458 96.594 96.594 0 0 0 8.667-24.833l5.333 15.667a542.014 542.014 0 0 0 9.042-30.042 543.314 543.314 0 0 0 13.625-67.125 32.904 32.904 0 0 1 6.875 6.875 32.82 32.82 0 0 1 3.792 6.625c-1.227 4.118-5.218 17.321-8.833 28-5.366 15.853-6.132 16.272-8.333 24.333-4.969 18.195-2.286 21.517-7.667 31.5-2.198 4.078-6.423 11.678-15.333 16.542-7.356 4.015-14.297 4.196-18 4.25-3.785.055-13.561.197-22.438-5.813-9.348-6.329-12.676-16.079-15.188-23.438-3.359-9.841-1.926-13.771-6.875-29-1.246-3.835-2.119-5.992-3.75-10.25-3.138-8.192-7.563-20.196-12.75-35.875a73.4 73.4 0 0 1 10.25-13.812z"/><path style="fill:#fff" d="M163.905 172.347c-8.879 4.401-14.59 12.946-14.59 21.979.001 12.673 11.243 24.006 24.684 24.007 13.37 0 24.86-11.213 24.684-24.007-.13-9.428-6.574-18.248-16.288-22.13l-.008-10.527-5.565 6.825-5.525-.004-7.392-6.821v10.678zm10.094 38.731c-9.825 0-17.79-7.746-17.79-17.302 0-9.555 7.965-17.302 17.79-17.302s17.79 7.746 17.79 17.302-7.965 17.302-17.79 17.302z"/><path style="fill:#fff" d="M174 179.525c-8.307 0-15.042 6.481-15.042 14.476 0 7.995 6.734 14.476 15.042 14.476 8.307 0 15.042-6.481 15.042-14.476 0-7.995-6.735-14.476-15.042-14.476zm0 25.492c-6.37 0-11.534-4.932-11.534-11.016s5.164-11.016 11.534-11.016c6.37 0 11.534 4.932 11.534 11.016S180.37 205.017 174 205.017z"/><path style="fill:#fff" d="M232.875 107.75c-9.121-17.48-2.773-20.793-11.125-33-7.99-11.678-19.517-17.005-24.375-19.25-4.557-2.106-12.592-5.726-23.042-6-26.751-.701-51.924 20.985-53.458 35.75-.183 1.758-.371 6.696-2.542 13.083-1.291 3.799-2.284 4.95-5.5 11.333-8.133 16.14-9.153 20.575-7.333 23.833.387.693 1.235 2.212 2.833 2.667 4.193 1.192 7.466-6.682 13.833-8.333 3.183-.825 7.862-.283 14.667 5.167l2.333-22c.264 28.878.677 49.328 1.333 49.333.419.004.796-8.347 1.167-8.333.607.023.14 22.483.667 22.5.334.011.938-9.014 1.167-9 .204.013-.765 7.14.833 15.833a52.824 52.824 0 0 0 1.958 7.5l4.542-40A24.767 24.767 0 0 0 161 153.167a27.635 27.635 0 0 0 2.75-4.167 27.999 27.999 0 0 0 2.917-8.5 81.256 81.256 0 0 0 6.666 9.833 20.136 20.136 0 0 0 3.542-4.083 20.126 20.126 0 0 0 2.625-5.917 579.368 579.368 0 0 0 6.25 12.417 30.189 30.189 0 0 0 11.25-3.917 216.69 216.69 0 0 0 5 39.834c.292-1.689.646-4.157.813-7.167.197-3.552.057-6.48.313-6.5.296-.023.662 3.89 1 3.875.678-.029.323-15.842 1-15.875.415-.02.941 5.897 1.25 5.875.507-.036-.497-16.018.5-16.125.515-.055 1.108 4.172 1.625 4.125.86-.078.349-11.88.25-22.563-.07-7.537.052-15.905.5-25l.917 24.688c6.647-5.921 11.464-6.761 14.833-6.125 6.747 1.274 10.362 9.507 14.667 8.125 1.758-.564 2.613-2.388 2.958-3.125 3.046-6.499-4.119-14.331-9.751-25.125zM122.292 106a45.388 45.388 0 0 1 0-10.625c.683-5.769 1.495-12.626 6.792-17.167.835-.715 3.826-3.214 8.167-3.708 2.739-.312 5.447.621 10.75 2.5 5.533 1.96 9.664 3.438 11.583 4.125a5.41 5.41 0 0 0 1.75-2.542 5.367 5.367 0 0 0 .167-2.583 127.377 127.377 0 0 1-24-10.167A277.73 277.73 0 0 0 165.834 74c-.605 5.956-2.486 10.303-4.146 13.188-10.84 18.837-37.33 18.842-39.396 18.812zm51.125 14.083c-8.145-.096-14.168 2.774-16.833 4.25-.092-8.955 1.433-20.062 7.792-29.333 4.743-6.915 8.202-7.016 9-7 1.589.032 4.065.756 7.5 5.375 7.202 9.683 8.639 23.064 8.875 31.125a34.052 34.052 0 0 0-16.334-4.417zm51.104-13.916c-2.067.03-28.556.025-39.396-18.813-1.66-2.885-3.54-7.232-4.146-13.188a448.525 448.525 0 0 0 28.604-7.917 178.127 178.127 0 0 1-24.271 9.917c.012.512.106 1.482.687 2.5.885 1.551 2.299 2.16 2.75 2.333 4.423-1.631 7.9-2.982 10.063-3.833 6.457-2.543 8.123-3.363 10.771-3.083 3.973.419 6.698 2.948 8.146 4.292 5.81 5.391 6.641 13.036 7.104 17.292a38.408 38.408 0 0 1-.312 10.5z"/></g></g></switch></svg>