<svg xmlns="http://www.w3.org/2000/svg" viewBox="0 0 350 350"><switch><g><path fill="#fff" d="M60.029 60.044h230.012v229.923H60.029z"/><path d="M69.03 70.041h211.011v209.93H69.03z"/><path fill="#da7a08" d="M80.03 80.038h190.01v189.937H80.03z"/><radialGradient id="blitz-a" cx="171.709" cy="281.705" r=".679" gradientTransform="matrix(197.7536 0 0 -197.6778 -33780.96 55861.805)" gradientUnits="userSpaceOnUse"><stop offset="0" stop-color="#fd5"/><stop offset=".53" stop-color="#fd5"/><stop offset="1" stop-color="#fd5" stop-opacity="0"/></radialGradient><path fill="url(#blitz-a)" d="M80.03 80.038h190.01v189.937H80.03z"/><g opacity=".75" fill="#fff"><path d="M235.038 191.001l21.001 12.996-5 1.999-17.001-8.997 1-5.998zM255.039 209.994l10.001 3.999 7 4.998-8-2.999-9.001-5.998zM233.038 203.996l10.109 6.998-7.108 3.499-3.001-10.497zM236.038 232.987l7.108 8.997-6.108-1-1-7.997zM255.039 260.977l-4-4.998-7-6.998 6 7.997 5 3.999zM235.038 252.98l4 2.999 2 4.998-4-3.999-2-3.998zM144.034 253.98l-6 10.996-4-2.999 6-7.997h4zM124.032 245.982l7 11.996 2-7.997-9-3.999zM121.032 264.976l1-3.999 3-1.999-1 2.999-3 2.999zM102.031 207.995l11.001-7.997 1 4.998-12.001 2.999zM75.03 213.993l5-3.999 13.001-2.999-11.001 5.998-7 1zM98.031 205.996l9-5.998 5-1-14 6.998zM107.032 194.999l2-6.998 6-2.999-8 9.997zM84.03 200.997l5-2.999 5-1-5 2.999-5 1zM87.031 95.033l11.001 10.996-5-8.997-6.001-1.999zM103.031 118.025h8l2 9.997-10-9.997zM232.038 103.03l9-9.997 9-2.999-18 12.996zM232.038 116.026l20.001 2.999-16.001 16.994-4-19.993z"/></g><g><path d="M111.583 241.333l.792-138.896L174 92l64.833 9.167L237 244.834l-61.667 24.167-63.75-27.668z"/><path d="M119.032 108.5v129.333l55.468 23.542 56.538-22.44V108.202l-56.569-9.012-55.437 9.31z" fill="#fff"/><path d="M125.635 114.416l-.219 119.334L174.5 253.5l49.417-19.583 1.103-119.539-49.394-7.877-49.991 7.915z"/></g><g><path d="M148.034 106.029l7 43.985-45.002-5.998 36.002 26.985-56.003 32.995L153.034 192l-30.002 87.971 50.003-76.974 26.001 28.99-7-40.986 70.004 19.993-61.003-38.987 40.002-25.991-46.002 4.998 29.001-96.968-50.003 87.971-26.001-35.988z"/><path d="M174.358 147.519l-20.665-28.094 4.873 34.097-36.798-5.015 29.609 22.826-44.961 26.49 51.157-9.741-25.392 72.977 40.458-62.997 21.69 24.184-6.052-35.438 54.87 15.671-47.623-30.436 31.869-20.958-36.5 3.317 22.705-75.916c-13.081 23.01-26.16 46.022-39.24 69.033z" fill="#fff"/></g><g><path d="M174.035 74.04c1.144 0 13.731 59.83 16.001 60.98 2.27 1.15 111.501-86.476 113.006-84.972 1.505 1.505-92.089 101.038-91.005 105.965 1.084 4.926 94.005 14.11 94.005 15.995s-91.974 12.351-94.005 15.995c-2.031 3.644 35.223 54.761 34.002 55.981-1.221 1.221-52.742-36.049-56.003-34.988-3.261 1.061-14.517 65.978-16.001 65.978s-11.538-63.999-14.001-64.978c-4.827-1.92-112.767 97.207-115.006 94.968-2.239-2.238 92.858-111.234 92.005-116.961-.603-4.048-64.003-15.143-64.003-15.995 0-.852 62.945-12.588 63.003-16.994s-64.477-83.5-63.003-84.973c1.474-1.474 80.451 65.528 84.004 64.978 3.553-.55 15.857-60.979 17.001-60.979z"/><path d="M195.272 205.746a164.742 164.742 0 0115.061 8.421 165.62 165.62 0 0127.49 21.715l.296.194c-9.19-13.992-19.448-27.142-27.171-42.35-.217-.429-.429-.86-.631-1.297a26.138 26.138 0 01-.378-.856c-.09-.216-.177-.432-.259-.651-.599-1.603-.945-3.644.435-5.03 2.313-2.322 6.317-2.457 10.127-3.206 22.874-4.497 45.976-7 69.325-10.452l.823-.123-73.723-10.654a39.89 39.89 0 01-2.042-.5c-2.487-.679-3.753-1.009-4.542-1.708-1.361-1.207-1.627-2.891-1.667-3.167-.203-1.416.266-2.479 1.083-4.333a19.603 19.603 0 012-3.5 4422.588 4422.588 0 0071.313-79.843c-44.6 35.704-77.604 61.583-84.979 66.677-2.675 1.847-6.961 4.403-9.78 2.853-1.03-.566-1.936-1.464-2.491-3.624l-2.813-10.938-8.543-38.224c-.858 4.254-5.794 28.626-10.332 45.349-.57 2.1-1.658 5.907-4.75 7.25-5.372 2.334-12.837-4.49-14.375-5.938L90.124 86.623c2.749 3.368 42.789 52.506 47.875 62.625 1.718 3.418 1.148 5.767 1.023 6.234-1.1 4.123-6.024 6.165-8.501 6.997l-44.752 9.396-.25.055c16.323 3.343 33.199 5.77 48.645 11.255.385.137.769.279 1.149.429.29.114.579.233.864.359 1.301.572 2.673 1.247 3.247 2.54.964 2.172-1.228 5.808-1.798 6.656-3.392 5.052-12.79 17.227-25.685 33.058l-49.318 60.936 82.625-71.667c4.34-4.136 8.288-6.813 11.125-8.5 1.68-.999 2.992-1.759 4.5-1.5 4.417.759 5.972 9.238 6.125 10.125l7.25 42.5 10.125-46.625c.224-.996 1.157-4.608 4.211-6.045 2.3-1.076 4.788-.64 6.688.295z" fill="#fff"/></g><g opacity=".75"><radialGradient id="blitz-b" cx="171.174" cy="281.168" r=".679" gradientTransform="matrix(139.8374 0 0 -139.7838 -23761.455 39477.805)" gradientUnits="userSpaceOnUse"><stop offset="0" stop-color="#fff"/><stop offset="1" stop-color="#fff" stop-opacity="0"/></radialGradient><ellipse cx="175.035" cy="175.006" rx="95.005" ry="94.968" fill="url(#blitz-b)"/></g></g></switch></svg>