<svg xmlns="http://www.w3.org/2000/svg" viewBox="0 0 350 350"><switch><g><path fill="#fff" d="M60.029 60.044H290.041V289.967H60.029z"/><path d="M69.03 70.041H280.041V279.971H69.03z"/><path fill="#da7a08" d="M80.03 80.038H270.03999999999996V269.975H80.03z"/><radialGradient id="a" cx="171.709" cy="281.705" r=".679" gradientTransform="matrix(197.7536 0 0 -197.6778 -33780.96 55861.805)" gradientUnits="userSpaceOnUse"><stop offset="0" stop-color="#fd5"/><stop offset=".53" stop-color="#fd5"/><stop offset="1" stop-color="#fd5" stop-opacity="0"/></radialGradient><path fill="url(#a)" d="M80.03 80.038H270.03999999999996V269.975H80.03z"/><path d="M235.038 191.001l21.001 12.996-5 1.999-17.001-8.997L235.038 191.001zM255.039 209.994l10.001 3.999 7 4.998-8-2.999L255.039 209.994zM233.038 203.996l10.109 6.998-7.108 3.499L233.038 203.996zM236.038 232.987l7.108 8.997-6.108-1L236.038 232.987zM255.039 260.977l-4-4.998-7-6.998 6 7.997L255.039 260.977zM235.038 252.98l4 2.999 2 4.998-4-3.999L235.038 252.98zM144.034 253.98l-6 10.996-4-2.999 6-7.997H144.034zM124.032 245.982l7 11.996 2-7.997L124.032 245.982zM121.032 264.976l1-3.999 3-1.999-1 2.999L121.032 264.976zM102.031 207.995l11.001-7.997 1 4.998L102.031 207.995zM75.03 213.993l5-3.999 13.001-2.999-11.001 5.998L75.03 213.993zM98.031 205.996l9-5.998 5-1L98.031 205.996zM107.032 194.999l2-6.998 6-2.999L107.032 194.999zM84.03 200.997l5-2.999 5-1-5 2.999L84.03 200.997zM87.031 95.033l11.001 10.996-5-8.997L87.031 95.033zM103.031 118.025h8l2 9.997L103.031 118.025zM232.038 103.03l9-9.997 9-2.999L232.038 103.03zM232.038 116.026l20.001 2.999-16.001 16.994L232.038 116.026z" opacity=".75" fill="#fff"/><path d="M111.583,241.333c0.264-46.299,0.528-92.597,0.792-138.896C132.917,98.958,153.458,95.479,174,92 c21.611,3.056,43.222,6.111,64.833,9.167c-0.611,47.889-1.222,95.778-1.833,143.667c-20.556,8.056-41.111,16.111-61.667,24.167 C154.083,259.778,132.833,250.556,111.583,241.333z"/><path d="M119.032,108.5c0,43.111,0,86.222,0,129.333c18.489,7.847,36.979,15.694,55.468,23.542 c18.846-7.48,37.692-14.96,56.538-22.44c0-43.578,0-87.155,0-130.733c-18.856-3.004-37.713-6.008-56.569-9.012 C155.99,102.293,137.511,105.396,119.032,108.5z" fill="#fff"/><path d="M125.635,114.416c-0.073,39.778-0.146,79.556-0.219,119.334c16.361,6.583,32.723,13.167,49.084,19.75 c16.472-6.528,32.944-13.056,49.417-19.583c0.368-39.846,0.735-79.693,1.103-119.539c-16.465-2.626-32.93-5.252-49.394-7.877 C158.962,109.139,142.298,111.778,125.635,114.416z"/><path d="M148.034,106.029l7,43.985l-45.002-5.998l36.002,26.985l-56.003,32.995L153.034,192l-30.002,87.971l50.003-76.974 l26.001,28.99l-7-40.986l70.004,19.993l-61.003-38.987l40.002-25.991l-46.002,4.998l29.001-96.968l-50.003,87.971 L148.034,106.029z"/><path d="M174.358,147.519l-20.665-28.094l4.873,34.097l-36.798-5.015l29.609,22.826l-44.961,26.49 l51.157-9.741l-25.392,72.977l40.458-62.997l21.69,24.184l-6.052-35.438l54.87,15.671l-47.623-30.436l31.869-20.958l-36.5,3.317 l22.705-75.916C200.517,101.496,187.438,124.508,174.358,147.519z" fill="#fff"/><path d="M174.035,74.04c1.144,0,13.731,59.83,16.001,60.98c2.27,1.15,111.501-86.476,113.006-84.972 c1.505,1.505-92.089,101.038-91.005,105.965c1.084,4.926,94.005,14.11,94.005,15.995s-91.974,12.351-94.005,15.995 c-2.031,3.644,35.223,54.761,34.002,55.981c-1.221,1.221-52.742-36.049-56.003-34.988c-3.261,1.061-14.517,65.978-16.001,65.978 s-11.538-63.999-14.001-64.978c-4.827-1.92-112.767,97.207-115.006,94.968c-2.239-2.238,92.858-111.234,92.005-116.961 c-0.603-4.048-64.003-15.143-64.003-15.995c0-0.852,62.945-12.588,63.003-16.994S71.556,71.514,73.03,70.041 c1.474-1.474,80.451,65.528,84.004,64.978C160.587,134.469,172.891,74.04,174.035,74.04z"/><path d="M195.272,205.746c4.787,2.357,9.848,5.136,15.061,8.421c11.281,7.108,20.363,14.748,27.49,21.715 l0.296,0.194c-9.19-13.992-19.448-27.142-27.171-42.35c-0.217-0.429-0.429-0.86-0.631-1.297 c-0.131-0.283-0.257-0.568-0.378-0.856c-0.09-0.216-0.177-0.432-0.259-0.651c-0.599-1.603-0.945-3.644,0.435-5.03 c2.313-2.322,6.317-2.457,10.127-3.206c22.874-4.497,45.976-7,69.325-10.452l0.823-0.123 c-24.574-3.551-49.149-7.102-73.723-10.654c-0.488-0.106-1.196-0.269-2.042-0.5c-2.487-0.679-3.753-1.009-4.542-1.708 c-1.361-1.207-1.627-2.891-1.667-3.167c-0.203-1.416,0.266-2.479,1.083-4.333c0.399-0.906,1.027-2.139,2-3.5 c1.473-1.609,2.945-3.22,4.417-4.833c22.733-24.914,45.028-49.922,66.896-75.01c-44.6,35.704-77.604,61.583-84.979,66.677 c-2.675,1.847-6.961,4.403-9.78,2.853c-1.03-0.566-1.936-1.464-2.491-3.624c-0.938-3.646-1.875-7.292-2.813-10.938 c-2.848-12.741-5.695-25.483-8.543-38.224c-0.858,4.254-5.794,28.626-10.332,45.349c-0.57,2.1-1.658,5.907-4.75,7.25 c-5.372,2.334-12.837-4.49-14.375-5.938c-18.208-15.063-36.417-30.125-54.625-45.188c2.749,3.368,42.789,52.506,47.875,62.625 c1.718,3.418,1.148,5.767,1.023,6.234c-1.1,4.123-6.024,6.165-8.501,6.997c-14.917,3.132-29.835,6.264-44.752,9.396l-0.25,0.055 c16.323,3.343,33.199,5.77,48.645,11.255c0.385,0.137,0.769,0.279,1.149,0.429c0.29,0.114,0.579,0.233,0.864,0.359 c1.301,0.572,2.673,1.247,3.247,2.54c0.964,2.172-1.228,5.808-1.798,6.656c-3.392,5.052-12.79,17.227-25.685,33.058 c-16.439,20.312-32.879,40.624-49.318,60.936c27.542-23.889,55.083-47.778,82.625-71.667c4.34-4.136,8.288-6.813,11.125-8.5 c1.68-0.999,2.992-1.759,4.5-1.5c4.417,0.759,5.972,9.238,6.125,10.125c2.417,14.167,4.833,28.333,7.25,42.5 c3.375-15.542,6.75-31.083,10.125-46.625c0.224-0.996,1.157-4.608,4.211-6.045C190.884,204.375,193.372,204.811,195.272,205.746 z" fill="#fff"/><g opacity=".75"><radialGradient id="b" cx="171.174" cy="281.168" r=".679" gradientTransform="matrix(139.8374 0 0 -139.7838 -23761.455 39477.805)" gradientUnits="userSpaceOnUse"><stop offset="0" stop-color="#fff"/><stop offset="1" stop-color="#fff" stop-opacity="0"/></radialGradient><ellipse cx="175.035" cy="175.006" rx="95.005" ry="94.968" fill="url(#b)"/></g></g></switch></svg>