<svg xmlns="http://www.w3.org/2000/svg" xml:space="preserve" style="enable-background:new 0 0 350 350" viewBox="0 0 350 350"><switch><g><path d="M45 45h260v260H45z" style="opacity:.4"/><path d="M73 73h204v204H73z" style="fill:#fbbb3f"/><path d="m100 79.667 74.333-10.303 74.444 10.303v169l-74.444 30.94L100 248.667z"/><path d="M174.333 80.25 111 89.333v152.222l59.959 24.703-1.769-7.371-52.079-21.388V94.306l57.222-7.807 57.222 7.807v143.193l-52.093 21.393-1.771 7.369 59.864-24.707V89.332a740052.09 740052.09 0 0 1-63.222-9.082" style="fill:#fff"/><path d="M59 164.556c6.783 1.515 22.01 5.043 36.874 9.703 8.648 2.711 14.265 4.894 17.07 6.019a213.635 213.635 0 0 1 10.833 4.694 256.06 256.06 0 0 1-6.667 11.083c-5.994 9.421-10.961 15.87-17.222 23.944a6112.178 6112.178 0 0 1-25.306 32.417c-3.324 4.221-7.827 9.967-16.833 21.458 0 0-4.668 5.955-16.496 21.768a158.95 158.95 0 0 0-4.816 6.774c-1.208 1.797-2.136 3.26-2.888 4.445-2.255 3.553-3.632 5.925-3.98 6.527-.536.926-.974 1.704-1.28 2.255a171.261 171.261 0 0 0 14.433-9.144c3.515-2.48 6.502-4.872 12.333-9.556 5.484-4.405 6.83-5.622 23.257-19.278a467.125 467.125 0 0 0 4.104-3.438c6.705-5.689 11.438-10.066 12.583-11.118 6.768-6.214 15.924-13.52 27.667-22.889a1101.447 1101.447 0 0 1 31.889-24.5 491.133 491.133 0 0 1 19.833 62.549 330.096 330.096 0 0 1 6.528-24.938c.635-2.092 1.936-6.3 3.75-11.583a348.517 348.517 0 0 1 10.083-25.917c7.568 2.76 26.566 9.875 38.22 16.531 1.47.84 7.93 4.589 15.863 9.386a956.612 956.612 0 0 1 7.062 4.312 374.638 374.638 0 0 1-3.562-5.479c-5.825-9.133-15.241-24.031-23.76-44.044a251.58 251.58 0 0 1-4.377-10.999 149.1 149.1 0 0 1 10.512-3.332c8.192-2.267 14.497-3.254 17.625-3.75 11.253-1.782 25.205-4.132 35.306-5.986a741.83 741.83 0 0 0 37.111-7.792 341.015 341.015 0 0 0-9.111-2.319c-10.05-2.411-20.556-4.184-41.16-7.632-10.174-1.702-15.247-2.55-22.312-3.924a263.562 263.562 0 0 1-23.222-5.555 6.673 6.673 0 0 1-2.972-1.333 6.404 6.404 0 0 1-1-1l2.366-3.516 8.315-11.295L252 108.665c17.001-19.909 30.129-35.294 38.583-45.125 2.072-2.409 5.418-6.292 9.583-11.75 5.76-7.546 10.351-14.518 12.417-17.667a350.11 350.11 0 0 0 3.667-5.708 278.355 278.355 0 0 0-8.489 5.091c-10.838 6.764-18.048 12.298-27.095 19.131-13.293 10.04-6.621 4.798-25.375 18.944-20.588 15.529-21.639 16.583-28.847 21.75-6.749 4.838-17.003 11.926-30.194 20a96.166 96.166 0 0 1-7.667-13.75c-3.128-6.882-4.568-12.223-6.833-20.833a3324.337 3324.337 0 0 1-7.458-28.861 492.245 492.245 0 0 1-19.937 65.965c-35.363-24.323-51.492-36.096-59.438-42.271-1.957-1.521-8.949-7.001-18.854-13.667a331.425 331.425 0 0 0-13.51-8.626 441.777 441.777 0 0 0 19.114 29.599c13.989 19.86 24.774 31.635 37.778 55.111a293.835 293.835 0 0 1 4.056 7.583 127.853 127.853 0 0 1-9 4.639c-7.837 3.656-15.467 6.244-41.222 12.778-3.537.899-8.422 2.126-14.279 3.558"/><path d="M80.729 69.625c22.803 31.657 38.895 55.255 42.271 60.764 3.966 6.471 6.312 12.916 6.312 12.917.483 1.327.829 2.41 1.022 3.028a103.064 103.064 0 0 1-5.552 3.219c-4.958 2.673-9.535 4.614-15.367 6.741-11.094 4.046-21.975 7.031-27.526 8.484a200.117 200.117 0 0 1 48.445 17.889l-.687 2.605a130.65 130.65 0 0 1-3.063 5.978c-5.046 9.257-9.857 15.413-14.417 21.333-11.409 14.816 2.427-2.579-15.333 20.25-11.436 14.699-19.166 24.473-24.75 31.583a3000.647 3000.647 0 0 0-24.25 31.306c3.516-2.793 9.051-7.225 15.777-12.772 6.48-5.344 10.149-8.493 29.723-25.2 11.739-10.02 15.463-13.192 21.29-18.034 6.92-5.75 2.012-1.562 16.626-13.466 4.488-3.656 9.257-6.955 13.833-10.5 1.449-1.123 4.331-3.365 8.667-5.333a40.257 40.257 0 0 1 4.667-1.778 107.52 107.52 0 0 1 3.361 6.472c1.256 2.633 4.485 9.678 8.889 26.111a336.784 336.784 0 0 1 3.722 15.319 279.417 279.417 0 0 1 4.056-14.264c2.293-7.316 4.45-14.119 8.278-22.389a137.743 137.743 0 0 1 5.903-11.347 183.628 183.628 0 0 1 14.762 5.019 184.315 184.315 0 0 1 32.155 16.273 388.356 388.356 0 0 1-5.347-9.583c-5.626-10.424-9.564-17.794-12.911-27.566a120.2 120.2 0 0 1-2.95-10.01 53.695 53.695 0 0 1 4.292-2.174c5.399-2.436 9.849-3.361 11.723-3.753 7.911-1.654 15.727-3.804 23.708-5.08 11.216-1.793 24.674-4.106 42.069-7.208a633.062 633.062 0 0 0-32.917-5.375s-16.015-2.175-33.083-6.334a56.487 56.487 0 0 1-10.274-3.533 56.037 56.037 0 0 1-5.56-2.924c.204-.727.527-1.789 1-3.042 1.808-4.787 4.175-8.023 5.333-9.583 8.93-12.027 11.18-14.528 11.181-14.528 6.677-7.42 12.703-15.409 19.361-22.847 7.819-8.735 20.426-23.232 41.167-48.292-20.904 15.354-35.702 26.572-45.583 34.167-7.093 5.452-14.364 10.669-21.509 16.053-7.017 5.286-14.507 9.916-21.634 15.052-1.341.966-4.673 3.381-9.606 5.479a47.236 47.236 0 0 1-5.25 1.875 101.92 101.92 0 0 1-.833-1.375c-1.844-3.094-5.072-8.865-8.875-18.75-4.534-11.786-7.596-23.469-8.764-28.111a269.939 269.939 0 0 1-5.986 20.111c-2.169 6.365-4.162 12.15-7.75 19.5a134.519 134.519 0 0 1-4.597 8.611 35.186 35.186 0 0 1-9.111-3.612c-7.058-3.942-10.404-6.33-10.404-6.33-5.525-3.944-26.84-19.53-55.704-41.046" style="fill:#fff"/></g></switch></svg>