<svg xmlns="http://www.w3.org/2000/svg" xml:space="preserve" style="enable-background:new 0 0 350 350" viewBox="0 0 350 350"><switch><g><path d="M45 45h260v260H45z" style="opacity:.4"/><path d="M73 73h204v204H73z" style="fill:#00789e"/><path d="m277 235.611-172.729 45.264-58.493 15.042v-2.028l57.44-16.808-26.906-100.413-30.557 7.66-.006-2.161 29.852-8.152a154889.036 154889.036 0 0 1 201.398-54.828v6.938l-35.806 9.153a95.633 95.633 0 0 1 8.681.306c7.4.597 25.083 2.232 42.458 13.875 4.945 3.314 12.114 8.945 18.979 17.948a74.59 74.59 0 0 1-7.201 23.316c-4.798 9.569-10.409 15.557-14.833 20.278-9.306 9.93-17.86 15.147-19.944 16.389a84.78 84.78 0 0 1-7.708 4.069l15.375-.015z" style="fill:#fff"/><path d="m81.707 177.537 25.542-6.844 25.332 94.546-25.542 6.843zm209.071-23.315c-17.331-12.116-35.351-13.475-46.412-14.172-8.127-.512-20.398-.391-35.027 3.292l-97.459 26.114 25.334 94.548L237 237c1.634-.485 4.839-1.687 7.667-4.667a17.11 17.11 0 0 0 3.292-5c-7.115 2.807-13.272 3.617-17.458 3.833-3.962.205-7.959.451-12.889-1.056-4.153-1.269-7.125-3.192-8.778-4.278-2.233-1.467-4.339-2.876-6.333-5.438-1.525-1.959-3.468-4.353-3.417-7.229.111-6.231 8.18-9.928 8.625-10.125l34.042-23.292a43.939 43.939 0 0 1 8.174-4.496c2.912-1.216 8.767-3.599 16.451-3.254 2.82.127 5.161.582 6.833 1 .123.851.204 1.785.208 2.792.016 3.416-.844 6.234-1.667 8.188a11.649 11.649 0 0 0 3.167-.604c3.921-1.337 6.019-4.433 6.771-5.688.075.187.19.499.292.896 0 0 .458 1.795-.034 3.914-1.776 7.656-5.723 13.336-5.723 13.336-2.755 3.965-7.11 9.503-13.611 15.444a42.087 42.087 0 0 0 9.833-1.611c8.804-2.545 14.51-7.345 17.667-10.056 2.303-1.978 5.1-4.421 7.833-8.444 2.788-4.104 4.09-7.768 5.194-10.944a59.313 59.313 0 0 0 2.794-11.856c-3.084-3.801-8.025-9.158-15.155-14.143M257.354 160a12.02 12.02 0 0 1-3.5 1.125l-1.875.062a42.29 42.29 0 0 0-3.507-2.243c-2.37-1.356-6.604-3.472-14.917-5.222-4.6-.969-11.061-1.954-19-2 1.113-.169 2.69-.393 4.583-.611 2.456-.282 9.055-.969 23.028-.556 0 0 6.204.184 15.604 2.215 1.78.385 3.968.909 4.271 2.208.4 1.711-2.642 3.993-4.687 5.022"/><path d="M277 109.777 73.682 164.378l-12.905-48.164L214.111 73H247l-41.166 9.944c1.25.097 2.545.275 3.875.556 10.152 2.141 16.905 9.093 20.403 13.5a34.716 34.716 0 0 1-3.736 11.667 34.706 34.706 0 0 1-7.653 9.722l58.278-16.338z" style="fill:#fff"/><path d="M219.708 93.542c-.542-.39-2.656-1.885-5.708-3.25-6.912-3.09-13.83-3.363-16.917-3.458a55.601 55.601 0 0 0-13.783 1.31L79.745 115.891l10.296 38.424 101.313-28.303c.577-.198 1.926-.752 2.897-2.137.428-.611.66-1.208.792-1.667a20.48 20.48 0 0 1-4.917 1.208c-2.105.247-3.884.456-6-.292-.146-.052-3.299-1.215-5.167-4.292-.707-1.165-.751-1.816-.75-2.125.009-1.977 1.962-3.286 2.292-3.5l17.833-12.042c1.544-.991 4.703-2.691 8.875-2.667 1.461.009 2.741.227 3.792.5.051.478.074 1.024.042 1.625a10.256 10.256 0 0 1-.625 3 5.15 5.15 0 0 0 1.792-.375c1.407-.574 2.168-1.627 2.458-2.083a10.98 10.98 0 0 1-.167 2.75c-.274 1.446-.825 2.734-1.833 4.333-2.221 3.522-5.393 6.542-6.667 7.708a20.252 20.252 0 0 0 6.472-1.542c6.1-2.58 9.019-7.403 9.722-8.639a20.404 20.404 0 0 0 2.514-7.736 31.147 31.147 0 0 0-5.001-4.497m-17-1.25c-.791 1.888-2.934 2.538-3.514 2.694a22.184 22.184 0 0 0-11.757-3.788 35.51 35.51 0 0 1 5.743-.781c1.789-.095 4.463-.217 7.792.528a24.6 24.6 0 0 1 1.972.528 3.644 3.644 0 0 1-.236.819m-136.07 27.4 8.437-2.26 10.295 38.422-8.437 2.26z"/></g></switch></svg>