<svg xmlns="http://www.w3.org/2000/svg" viewBox="0 0 350 350" style="enable-background:new 0 0 350 350" xml:space="preserve"><switch><g><path style="fill:#fff" d="M223.125 60.232v34.893h-15V60.232H141.75v34.893h-15V60.232H60.104v229.536h229.792V60.232z"/><path d="M233.667 69.603v36.022h-35V69.603h-47v36.022h-35V69.603H69.394V280.58h211.212V69.603z"/><path style="fill:#d75b2b" d="M244.438 79.152 244.407 115h-55.656l.125-35.848h-26.688L162.157 115h-54.688l.094-35.848H78.826v31.182l-4.396 12.417 4.396 30.208v84.667l190.308 4.343a700.173 700.173 0 0 1 1.952-91.301 697.12 697.12 0 0 1 2.995-27.916l-2.981-12.417.01-31.177-26.672-.006z"/><g><path d="M93.023 285.982a54.78 54.78 0 0 1-12.615-11.016c-9.472-11.281-12.281-23.885-12.971-32.472l-.623-18.604 27.264-9.089 26.753 9.576-.82 18.029c-.544 8.576-3.111 21.134-12.262 32.518a54.74 54.74 0 0 1-11.984 11.016l-1.358.921-1.384-.879z"/><path style="fill:#fff" d="m94.049 217.447 24.201 8.663-.736 16.185c-.378 5.947-2.084 19.086-11.713 31.064a52.233 52.233 0 0 1-11.438 10.513 52.32 52.32 0 0 1-12.041-10.513c-9.995-11.905-11.92-25.17-12.393-31.064l-.554-16.623 24.674-8.225m.059-5.29-1.639.547-24.674 8.225-3.54 1.18.124 3.73.277 8.311.277 8.311.004.117.009.116c.718 8.949 3.651 22.092 13.548 33.879a57.304 57.304 0 0 0 13.189 11.518l2.77 1.76 2.716-1.841a57.254 57.254 0 0 0 12.53-11.519c9.561-11.894 12.241-24.989 12.806-33.88l.003-.045.002-.045.736-16.185.168-3.69-3.478-1.245-12.1-4.331-12.1-4.331-1.628-.582z"/><path style="fill:#d75b2b" d="M74.966 228.976c-.601 8.207-.887 28.606 12.813 43.979a46.728 46.728 0 0 0 6.469 6 46.691 46.691 0 0 0 6.344-6c13.513-15.434 13.1-35.735 12.438-43.979l-18.979-5.875-19.085 5.875z"/><path style="fill:#e8ab8f" d="m94.049 223.101-19.083 5.875c-.648 7.569-1.27 27.508 11.981 43.063a47.47 47.47 0 0 0 7.301 6.916l-.199-55.854z"/><path d="M146.857 285.982a54.784 54.784 0 0 1-12.614-11.016c-9.472-11.28-12.281-23.885-12.971-32.472l-.623-18.604 27.264-9.089 26.753 9.576-.82 18.029c-.544 8.575-3.111 21.134-12.262 32.518A54.72 54.72 0 0 1 149.6 285.94l-1.358.921-1.385-.879z"/><path style="fill:#fff" d="m147.885 217.447 24.201 8.663-.736 16.185c-.378 5.947-2.084 19.086-11.713 31.064a52.233 52.233 0 0 1-11.438 10.513 52.32 52.32 0 0 1-12.041-10.513c-9.995-11.905-11.92-25.17-12.393-31.064l-.554-16.623 24.674-8.225m.058-5.29-1.639.547-24.674 8.225-3.54 1.18.124 3.73.277 8.311.277 8.311.004.117.009.116c.718 8.949 3.651 22.092 13.548 33.879a57.304 57.304 0 0 0 13.189 11.518l2.77 1.76 2.716-1.841a57.254 57.254 0 0 0 12.53-11.519c9.561-11.894 12.241-24.989 12.806-33.88l.003-.045.002-.045.736-16.185.168-3.69-3.478-1.245-12.1-4.331-12.1-4.331-1.628-.582z"/><path style="fill:#d75b2b" d="M128.801 228.976c-.601 8.207-.887 28.606 12.813 43.979a46.728 46.728 0 0 0 6.469 6 46.691 46.691 0 0 0 6.344-6c13.513-15.434 13.1-35.735 12.438-43.979l-18.979-5.875-19.085 5.875z"/><path style="fill:#e8ab8f" d="m147.885 223.101-19.083 5.875c-.648 7.569-1.27 27.508 11.981 43.063a47.47 47.47 0 0 0 7.301 6.916l-.199-55.854z"/><g><path d="M200.816 285.982a54.78 54.78 0 0 1-12.615-11.016c-9.473-11.282-12.282-23.886-12.97-32.472l-.624-18.604 27.265-9.089 26.752 9.576-.819 18.029c-.544 8.575-3.111 21.134-12.262 32.518a54.72 54.72 0 0 1-11.984 11.016l-1.358.921-1.385-.879z"/><path style="fill:#fff" d="m201.843 217.447 24.201 8.663-.736 16.185c-.378 5.947-2.084 19.086-11.713 31.064a52.233 52.233 0 0 1-11.438 10.513 52.32 52.32 0 0 1-12.041-10.513c-9.995-11.905-11.92-25.17-12.393-31.064l-.554-16.623 24.674-8.225m.058-5.29-1.639.547-4.935 1.645-19.739 6.58-3.54 1.18.124 3.73.277 8.311.277 8.311.004.117.009.116c.718 8.949 3.651 22.092 13.548 33.879a57.304 57.304 0 0 0 13.189 11.518l2.77 1.76 2.716-1.841a57.254 57.254 0 0 0 12.53-11.519c9.561-11.894 12.241-24.989 12.806-33.88l.003-.045.002-.045.736-16.185.168-3.69-3.478-1.245-9.462-3.387-14.738-5.276-1.628-.581z"/><path style="fill:#d75b2b" d="M182.76 228.976c-.601 8.207-.887 28.606 12.813 43.979a46.728 46.728 0 0 0 6.469 6 46.691 46.691 0 0 0 6.344-6c13.513-15.434 13.1-35.735 12.438-43.979l-18.979-5.875-19.085 5.875z"/><path style="fill:#e8ab8f" d="m201.843 223.101-19.083 5.875c-.648 7.569-1.27 27.508 11.981 43.063a47.47 47.47 0 0 0 7.301 6.916l-.199-55.854z"/></g><g><path d="M254.513 285.982a54.784 54.784 0 0 1-12.614-11.016c-9.472-11.28-12.281-23.885-12.971-32.472l-.623-18.604 27.264-9.089 26.753 9.576-.82 18.029c-.544 8.575-3.111 21.134-12.262 32.518a54.72 54.72 0 0 1-11.984 11.016l-1.358.921-1.385-.879z"/><path style="fill:#fff" d="m255.54 217.447 24.201 8.663-.736 16.185c-.378 5.947-2.084 19.086-11.713 31.064a52.233 52.233 0 0 1-11.438 10.513 52.32 52.32 0 0 1-12.041-10.513c-9.995-11.905-11.92-25.17-12.393-31.064l-.554-16.623 24.674-8.225m.058-5.29-1.639.547-24.674 8.225-3.54 1.18.124 3.73.277 8.311.277 8.311.004.117.009.116c.718 8.949 3.651 22.092 13.547 33.879a57.304 57.304 0 0 0 13.189 11.518l2.77 1.76 2.716-1.841a57.254 57.254 0 0 0 12.53-11.519c9.561-11.894 12.241-24.989 12.806-33.88l.003-.045.002-.045.736-16.185.168-3.69-3.478-1.245-12.1-4.331-12.1-4.331-1.627-.582z"/><path style="fill:#d75b2b" d="M236.457 228.976c-.601 8.207-.887 28.606 12.813 43.979a46.728 46.728 0 0 0 6.469 6 46.691 46.691 0 0 0 6.344-6c13.513-15.434 13.1-35.735 12.438-43.979l-18.979-5.875-19.085 5.875z"/><path style="fill:#e8ab8f" d="m255.54 223.101-19.083 5.875c-.648 7.569-1.27 27.508 11.981 43.063a47.47 47.47 0 0 0 7.301 6.916l-.199-55.854z"/></g><g><path d="M121.113 258.153a54.804 54.804 0 0 1-12.615-11.016c-9.472-11.282-12.281-23.886-12.971-32.472l-.623-18.604 27.264-9.089 26.753 9.576-.82 18.029c-.545 8.576-3.112 21.135-12.262 32.518a54.74 54.74 0 0 1-11.984 11.016l-1.358.921-1.384-.879z"/><path style="fill:#fff" d="m122.139 189.618 24.201 8.663-.736 16.185c-.378 5.947-2.084 19.086-11.713 31.064a52.233 52.233 0 0 1-11.438 10.513 52.32 52.32 0 0 1-12.041-10.513c-9.995-11.905-11.92-25.17-12.393-31.064l-.554-16.623 24.674-8.225m.059-5.29-1.639.546-24.675 8.226-3.54 1.18.124 3.73.277 8.311.277 8.311.004.117.009.116c.718 8.949 3.651 22.092 13.548 33.879a57.304 57.304 0 0 0 13.189 11.518l2.77 1.76 2.716-1.841a57.254 57.254 0 0 0 12.53-11.519c9.561-11.894 12.241-24.989 12.806-33.88l.003-.045.002-.045.736-16.185.168-3.69-3.478-1.245-12.1-4.331-12.1-4.331-1.627-.582z"/><path style="fill:#d75b2b" d="M103.056 201.147c-.601 8.207-.887 28.606 12.813 43.979a46.728 46.728 0 0 0 6.469 6 46.691 46.691 0 0 0 6.344-6c13.513-15.434 13.1-35.735 12.438-43.979l-18.979-5.875-19.085 5.875z"/><path style="fill:#e8ab8f" d="m122.139 195.272-19.083 5.875c-.648 7.569-1.27 27.508 11.981 43.063a47.47 47.47 0 0 0 7.301 6.916l-.199-55.854z"/><g><path d="M174.947 258.153a54.784 54.784 0 0 1-12.614-11.016c-9.472-11.281-12.281-23.886-12.971-32.472l-.623-18.604 27.264-9.089 26.753 9.576-.82 18.029c-.544 8.575-3.112 21.134-12.262 32.518a54.72 54.72 0 0 1-11.984 11.016l-1.358.921-1.385-.879z"/><path style="fill:#fff" d="m175.975 189.618 24.201 8.663-.736 16.185c-.378 5.947-2.084 19.086-11.713 31.064a52.233 52.233 0 0 1-11.438 10.513 52.32 52.32 0 0 1-12.041-10.513c-9.995-11.905-11.92-25.17-12.393-31.064l-.554-16.623 24.674-8.225m.058-5.29-1.639.546-24.674 8.225-3.54 1.18.124 3.73.277 8.311.277 8.311.004.117.009.116c.718 8.949 3.651 22.092 13.548 33.879a57.304 57.304 0 0 0 13.189 11.518l2.77 1.76 2.716-1.841a57.254 57.254 0 0 0 12.53-11.519c9.561-11.894 12.241-24.989 12.806-33.88l.003-.045.002-.045.736-16.185.168-3.69-3.478-1.245-12.1-4.331-12.1-4.331-1.628-.581z"/><path style="fill:#d75b2b" d="M156.891 201.147c-.601 8.207-.887 28.606 12.813 43.979a46.728 46.728 0 0 0 6.469 6 46.691 46.691 0 0 0 6.344-6c13.513-15.434 13.1-35.735 12.438-43.979l-18.979-5.875-19.085 5.875z"/><path style="fill:#e8ab8f" d="m175.975 195.272-19.083 5.875c-.648 7.569-1.27 27.508 11.981 43.063a47.47 47.47 0 0 0 7.301 6.916l-.199-55.854z"/></g><g><path d="M228.906 258.153a54.804 54.804 0 0 1-12.615-11.016c-9.473-11.283-12.282-23.887-12.97-32.472l-.624-18.604 27.265-9.089 26.752 9.576-.819 18.029c-.544 8.575-3.112 21.134-12.262 32.518a54.72 54.72 0 0 1-11.984 11.016l-1.358.921-1.385-.879z"/><path style="fill:#fff" d="m229.933 189.618 24.201 8.663-.736 16.185c-.378 5.947-2.084 19.086-11.713 31.064a52.233 52.233 0 0 1-11.438 10.513 52.32 52.32 0 0 1-12.041-10.513c-9.995-11.905-11.92-25.17-12.393-31.064l-.554-16.623 24.674-8.225m.058-5.29-1.639.546-24.674 8.225-3.54 1.18.124 3.73.282 8.448.273 8.175.004.117.009.116c.718 8.949 3.651 22.092 13.548 33.879a57.304 57.304 0 0 0 13.189 11.518l2.77 1.76 2.716-1.841a57.254 57.254 0 0 0 12.53-11.519c9.561-11.894 12.241-24.989 12.806-33.88l.003-.045.002-.045.736-16.185.168-3.69-3.478-1.245-19.152-6.856-5.049-1.807-1.628-.581z"/><path style="fill:#d75b2b" d="M210.85 201.147c-.601 8.207-.887 28.606 12.813 43.979a46.728 46.728 0 0 0 6.469 6 46.691 46.691 0 0 0 6.344-6c13.513-15.434 13.1-35.735 12.438-43.979l-18.979-5.875-19.085 5.875z"/><path style="fill:#e8ab8f" d="m229.933 195.272-19.083 5.875c-.648 7.569-1.27 27.508 11.981 43.063a47.47 47.47 0 0 0 7.301 6.916l-.199-55.854z"/></g></g><g><path d="M93.042 229.824a54.804 54.804 0 0 1-12.615-11.016c-9.472-11.282-12.281-23.886-12.971-32.472l-.623-18.604 27.264-9.089 26.753 9.576-.82 18.029c-.545 8.576-3.112 21.135-12.262 32.518a54.74 54.74 0 0 1-11.984 11.016l-1.358.921-1.384-.879z"/><path style="fill:#fff" d="m94.068 161.288 24.201 8.663-.736 16.185c-.378 5.947-2.084 19.086-11.713 31.064a52.233 52.233 0 0 1-11.438 10.513A52.32 52.32 0 0 1 82.341 217.2c-9.995-11.905-11.92-25.17-12.393-31.064l-.554-16.623 24.674-8.225m.058-5.29-1.639.546-24.674 8.225-3.54 1.18.124 3.73.277 8.311.277 8.311.004.117.009.116c.718 8.949 3.651 22.092 13.548 33.879a57.304 57.304 0 0 0 13.189 11.518l2.77 1.76 2.716-1.841a57.254 57.254 0 0 0 12.53-11.519c9.561-11.894 12.241-24.989 12.806-33.88l.003-.045.002-.045.736-16.185.168-3.69-3.478-1.245-12.1-4.331-12.1-4.331-1.628-.581z"/><path style="fill:#d75b2b" d="M74.985 172.818c-.601 8.207-.887 28.606 12.813 43.979a46.728 46.728 0 0 0 6.469 6 46.691 46.691 0 0 0 6.344-6c13.513-15.434 13.1-35.735 12.438-43.979l-18.979-5.875-19.085 5.875z"/><path style="fill:#e8ab8f" d="m94.068 166.943-19.083 5.875c-.648 7.569-1.27 27.508 11.981 43.063a47.47 47.47 0 0 0 7.301 6.916l-.199-55.854z"/><g><path d="M146.876 229.824a54.784 54.784 0 0 1-12.614-11.016c-9.472-11.281-12.281-23.886-12.971-32.472l-.623-18.604 27.264-9.089 26.753 9.576-.82 18.029c-.544 8.575-3.112 21.134-12.262 32.518a54.72 54.72 0 0 1-11.984 11.016l-1.358.921-1.385-.879z"/><path style="fill:#fff" d="m147.904 161.288 24.201 8.663-.736 16.185c-.378 5.947-2.084 19.086-11.713 31.064a52.233 52.233 0 0 1-11.438 10.513 52.32 52.32 0 0 1-12.041-10.513c-9.995-11.905-11.92-25.17-12.393-31.064l-.554-16.623 24.674-8.225m.058-5.29-1.639.546-4.935 1.645-19.739 6.58-3.54 1.18.124 3.73.277 8.311.277 8.311.004.117.009.116c.718 8.949 3.651 22.092 13.547 33.879a57.304 57.304 0 0 0 13.189 11.518l2.77 1.76 2.716-1.841a57.254 57.254 0 0 0 12.53-11.519c9.561-11.894 12.241-24.989 12.806-33.88l.003-.045.002-.045.736-16.185.168-3.69-3.478-1.245-24.201-8.663-1.626-.58z"/><path style="fill:#d75b2b" d="M128.82 172.818c-.601 8.207-.887 28.606 12.813 43.979a46.728 46.728 0 0 0 6.469 6 46.691 46.691 0 0 0 6.344-6c13.513-15.434 13.1-35.735 12.438-43.979l-18.979-5.875-19.085 5.875z"/><path style="fill:#e8ab8f" d="m147.904 166.943-19.083 5.875c-.648 7.569-1.27 27.508 11.981 43.063a47.47 47.47 0 0 0 7.301 6.916l-.199-55.854z"/></g><g><path d="M200.835 229.824a54.804 54.804 0 0 1-12.615-11.016c-9.473-11.283-12.282-23.887-12.97-32.472l-.624-18.604 27.265-9.089 26.752 9.576-.819 18.029c-.544 8.575-3.112 21.134-12.262 32.518a54.72 54.72 0 0 1-11.984 11.016l-1.358.921-1.385-.879z"/><path style="fill:#fff" d="m201.862 161.288 24.201 8.663-.736 16.185c-.378 5.947-2.084 19.086-11.713 31.064a52.233 52.233 0 0 1-11.438 10.513 52.32 52.32 0 0 1-12.041-10.513c-9.995-11.905-11.92-25.17-12.393-31.064l-.554-16.623 24.674-8.225m.058-5.29-1.639.547-24.674 8.225-3.54 1.18.124 3.73.277 8.311.277 8.311.004.117.009.116c.718 8.949 3.651 22.092 13.548 33.879a57.304 57.304 0 0 0 13.189 11.518l2.77 1.76 2.716-1.841a57.254 57.254 0 0 0 12.53-11.519c9.561-11.894 12.241-24.989 12.806-33.88l.003-.045.002-.045.736-16.185.168-3.69-3.478-1.245-12.1-4.331-12.1-4.331-1.628-.582z"/><path style="fill:#d75b2b" d="M182.779 172.818c-.601 8.207-.887 28.606 12.813 43.979a46.728 46.728 0 0 0 6.469 6 46.691 46.691 0 0 0 6.344-6c13.513-15.434 13.1-35.735 12.438-43.979l-18.979-5.875-19.085 5.875z"/><path style="fill:#e8ab8f" d="m201.862 166.943-19.083 5.875c-.648 7.569-1.27 27.508 11.981 43.063a47.47 47.47 0 0 0 7.301 6.916l-.199-55.854z"/></g><g><path d="M254.532 229.824a54.784 54.784 0 0 1-12.614-11.016c-9.472-11.281-12.281-23.886-12.971-32.472l-.623-18.604 27.264-9.089 26.753 9.576-.82 18.029c-.544 8.575-3.112 21.134-12.262 32.518a54.72 54.72 0 0 1-11.984 11.016l-1.358.921-1.385-.879z"/><path style="fill:#fff" d="m255.559 161.288 24.201 8.663-.736 16.185c-.378 5.947-2.084 19.086-11.713 31.064a52.233 52.233 0 0 1-11.438 10.513 52.32 52.32 0 0 1-12.041-10.513c-9.995-11.905-11.92-25.17-12.393-31.064l-.554-16.623 24.674-8.225m.058-5.29-1.639.547-24.674 8.225-3.54 1.18.124 3.73.537 16.103.017.52.004.117.009.116c.718 8.949 3.651 22.092 13.547 33.879a57.304 57.304 0 0 0 13.189 11.518l2.77 1.76 2.716-1.841a57.254 57.254 0 0 0 12.53-11.519c9.561-11.894 12.241-24.989 12.806-33.88l.003-.045.002-.045.242-5.314.494-10.871.168-3.69-3.478-1.245-12.1-4.331-12.1-4.331-1.627-.583z"/><path style="fill:#d75b2b" d="M236.476 172.818c-.601 8.207-.887 28.606 12.813 43.979a46.728 46.728 0 0 0 6.469 6 46.691 46.691 0 0 0 6.344-6c13.513-15.434 13.1-35.735 12.438-43.979l-18.979-5.875-19.085 5.875z"/><path style="fill:#e8ab8f" d="m255.559 166.943-19.083 5.875c-.648 7.569-1.27 27.508 11.981 43.063a47.47 47.47 0 0 0 7.301 6.916l-.199-55.854z"/></g></g><g><path d="M121.236 199.112a54.78 54.78 0 0 1-12.615-11.016c-9.473-11.283-12.282-23.887-12.97-32.472l-.624-18.604 27.265-9.089 26.752 9.576-.819 18.029c-.544 8.575-3.112 21.134-12.262 32.518a54.72 54.72 0 0 1-11.984 11.016l-1.358.921-1.385-.879z"/><path style="fill:#fff" d="m122.263 130.576 24.201 8.663-.736 16.185c-.378 5.947-2.084 19.086-11.713 31.064a52.233 52.233 0 0 1-11.438 10.513 52.32 52.32 0 0 1-12.041-10.513c-9.995-11.905-11.92-25.17-12.393-31.064l-.554-16.623 24.674-8.225m.058-5.289-1.639.547-14.805 4.935-9.87 3.29-3.54 1.18.124 3.73.277 8.311.277 8.311.004.117.009.116c.718 8.949 3.651 22.092 13.548 33.879a57.304 57.304 0 0 0 13.189 11.518l2.77 1.76 2.716-1.841a57.254 57.254 0 0 0 12.53-11.519c9.561-11.894 12.241-24.989 12.806-33.88l.003-.045.002-.045.736-16.185.168-3.69-3.478-1.245-12.1-4.331-12.1-4.331-1.627-.582z"/><path style="fill:#d75b2b" d="M103.179 142.106c-.601 8.207-.887 28.606 12.813 43.979a46.728 46.728 0 0 0 6.469 6 46.691 46.691 0 0 0 6.344-6c13.513-15.434 13.1-35.735 12.438-43.979l-18.979-5.875-19.085 5.875z"/><path style="fill:#e8ab8f" d="m122.263 136.231-19.083 5.875c-.648 7.569-1.27 27.508 11.981 43.063a47.47 47.47 0 0 0 7.301 6.916l-.199-55.854z"/><g><path d="M175.072 199.112a54.78 54.78 0 0 1-12.615-11.016c-9.472-11.282-12.281-23.886-12.971-32.472l-.623-18.604 27.264-9.089 26.753 9.576-.82 18.029c-.545 8.576-3.112 21.135-12.262 32.518a54.74 54.74 0 0 1-11.984 11.016l-1.358.921-1.384-.879z"/><path style="fill:#fff" d="m176.098 130.576 24.201 8.663-.736 16.185c-.378 5.947-2.084 19.086-11.713 31.064a52.233 52.233 0 0 1-11.438 10.513 52.32 52.32 0 0 1-12.041-10.513c-9.995-11.905-11.92-25.17-12.393-31.064l-.554-16.623 24.674-8.225m.058-5.289-1.639.547-4.935 1.645-19.739 6.58-3.54 1.18.124 3.73.277 8.311.277 8.311.004.117.009.116c.718 8.949 3.651 22.092 13.547 33.879a57.304 57.304 0 0 0 13.189 11.518l2.77 1.76 2.716-1.841a57.254 57.254 0 0 0 12.53-11.519c9.561-11.894 12.241-24.989 12.806-33.88l.003-.045.002-.045.368-8.093.368-8.093.168-3.69-3.478-1.245-24.201-8.663-1.626-.58z"/><path style="fill:#d75b2b" d="M157.015 142.106c-.601 8.207-.887 28.606 12.813 43.979a46.728 46.728 0 0 0 6.469 6 46.691 46.691 0 0 0 6.344-6c13.513-15.434 13.1-35.735 12.438-43.979l-18.979-5.875-19.085 5.875z"/><path style="fill:#e8ab8f" d="m176.098 136.231-19.083 5.875c-.648 7.569-1.27 27.508 11.981 43.063a47.47 47.47 0 0 0 7.301 6.916l-.199-55.854z"/></g><g><path d="M229.029 199.112a54.778 54.778 0 0 1-12.614-11.016c-9.472-11.281-12.281-23.885-12.971-32.472l-.623-18.604 27.264-9.089 26.753 9.576-.82 18.029c-.544 8.575-3.112 21.134-12.262 32.518a54.72 54.72 0 0 1-11.984 11.016l-1.358.921-1.385-.879z"/><path style="fill:#fff" d="m230.056 130.576 24.201 8.663-.736 16.185c-.378 5.947-2.084 19.086-11.713 31.064a52.233 52.233 0 0 1-11.438 10.513 52.32 52.32 0 0 1-12.041-10.513c-9.995-11.905-11.92-25.17-12.393-31.064l-.554-16.623 24.674-8.225m.058-5.289-1.639.546-12.337 4.113-12.337 4.113-3.54 1.18.124 3.73.277 8.311.277 8.311.004.117.009.116c.718 8.949 3.651 22.092 13.548 33.879a57.304 57.304 0 0 0 13.189 11.518l2.77 1.76 2.716-1.841a57.254 57.254 0 0 0 12.53-11.519c9.561-11.894 12.241-24.989 12.806-33.88l.003-.045.002-.045.736-16.185.168-3.69-3.478-1.245-12.1-4.331-12.1-4.331-1.628-.582z"/><path style="fill:#d75b2b" d="M210.973 142.106c-.601 8.207-.887 28.606 12.813 43.979a46.728 46.728 0 0 0 6.469 6 46.691 46.691 0 0 0 6.344-6c13.513-15.434 13.1-35.735 12.438-43.979l-18.979-5.875-19.085 5.875z"/><path style="fill:#e8ab8f" d="m230.056 136.231-19.083 5.875c-.648 7.569-1.27 27.508 11.981 43.063a47.47 47.47 0 0 0 7.301 6.916l-.199-55.854z"/></g></g><g><path style="fill:#fff" d="M116.397 128.375c.022 6.601.959 26.772 15.917 43.167 5.261 5.767 10.898 9.576 15.536 12.081 4.603-2.589 10.353-6.615 15.612-12.791 14.069-16.522 14.225-36.225 14.018-42.457h-61.083zM224.005 128.375c.022 6.601.959 26.772 15.917 43.167 5.261 5.767 10.898 9.576 15.536 12.081 4.603-2.589 10.353-6.615 15.612-12.791 14.069-16.522 14.225-36.225 14.018-42.457h-61.083z"/><path style="fill:#fff" d="M62.5 128.375c.022 6.601.959 26.772 15.917 43.167 5.261 5.767 10.898 9.576 15.536 12.081 4.603-2.589 10.353-6.615 15.612-12.791 14.069-16.522 14.225-36.225 14.018-42.457H62.5zM170.291 128.375c.022 6.601.959 26.772 15.917 43.167 5.261 5.767 10.898 9.576 15.536 12.081 4.603-2.589 10.353-6.615 15.612-12.791 14.069-16.522 14.225-36.225 14.018-42.457h-61.083z"/><path style="fill:#d75b2b" d="m88.946 167.814-.116-.115.116.115zM93.758 172.054a46.691 46.691 0 0 0 6.344-6c13.16-15.03 13.112-34.673 12.489-43.304H93.583l.175 49.304zM90.906 169.672c-.169-.151-.339-.297-.508-.453.168.156.339.301.508.453zM93.758 172.054z"/><path style="fill:#e8ab8f" d="M86.457 165.138c.774.909 1.57 1.75 2.373 2.561a46.853 46.853 0 0 1-1.541-1.645c-13.34-14.97-13.418-34.7-12.859-43.304h-.008c-.618 8.023-.841 27.273 12.035 42.388zM90.398 169.219zM92.049 170.678c-.384-.323-.763-.665-1.143-1.006.38.34.76.685 1.143 1.006z"/><linearGradient id="castle-a" gradientUnits="userSpaceOnUse" x1="93.758" y1="147.402" x2="74.262" y2="147.402"><stop offset="0" style="stop-color:#e8ab8f"/><stop offset="1" style="stop-color:#d75b2b"/></linearGradient><path style="fill:url(#castle-a)" d="M74.43 122.75c-.56 8.603-.482 28.334 12.859 43.304a46.853 46.853 0 0 0 1.541 1.645l.116.115c.479.484.963.953 1.452 1.405.169.155.338.301.508.453.38.341.759.683 1.143 1.006a50.49 50.49 0 0 0 1.709 1.376l-.175-49.304H74.43z"/><path style="fill:#d75b2b" d="M144.741 169.672c-.169-.151-.339-.297-.508-.453.168.156.339.301.508.453zM147.593 172.054a46.691 46.691 0 0 0 6.344-6c13.16-15.03 13.112-34.673 12.489-43.304h-19.007l.174 49.304zM142.782 167.814l-.116-.115.116.115zM147.593 172.054z"/><path style="fill:#e8ab8f" d="M140.293 165.138c.774.909 1.57 1.75 2.373 2.561a46.853 46.853 0 0 1-1.541-1.645c-13.34-14.97-13.419-34.7-12.859-43.304h-.008c-.619 8.023-.841 27.273 12.035 42.388zM144.233 169.219zM145.884 170.678c-.384-.323-.763-.665-1.143-1.006.38.34.76.685 1.143 1.006z"/><linearGradient id="castle-b" gradientUnits="userSpaceOnUse" x1="147.593" y1="147.402" x2="128.097" y2="147.402"><stop offset="0" style="stop-color:#e8ab8f"/><stop offset="1" style="stop-color:#d75b2b"/></linearGradient><path style="fill:url(#castle-b)" d="M128.266 122.75c-.56 8.603-.482 28.334 12.859 43.304a46.853 46.853 0 0 0 1.541 1.645l.116.115c.479.484.963.953 1.452 1.405.169.155.338.301.508.453.38.341.759.683 1.143 1.006a50.49 50.49 0 0 0 1.709 1.376l-.175-49.304h-19.153z"/><path style="fill:#d75b2b" d="M198.699 169.672c-.169-.151-.339-.297-.508-.453.169.156.339.301.508.453zM196.74 167.814l-.116-.115.116.115zM201.551 172.054zM201.551 172.054a46.691 46.691 0 0 0 6.344-6c13.16-15.03 13.112-34.673 12.489-43.304h-19.007l.174 49.304z"/><path style="fill:#e8ab8f" d="M199.842 170.678c-.384-.323-.763-.665-1.143-1.006.381.34.76.685 1.143 1.006zM198.192 169.219zM194.251 165.138c.774.909 1.57 1.75 2.373 2.561a46.853 46.853 0 0 1-1.541-1.645c-13.34-14.97-13.419-34.7-12.859-43.304h-.008c-.618 8.023-.841 27.273 12.035 42.388z"/><linearGradient id="castle-c" gradientUnits="userSpaceOnUse" x1="201.552" y1="147.402" x2="182.056" y2="147.402"><stop offset="0" style="stop-color:#e8ab8f"/><stop offset="1" style="stop-color:#d75b2b"/></linearGradient><path style="fill:url(#castle-c)" d="M182.224 122.75c-.56 8.603-.482 28.334 12.859 43.304a46.853 46.853 0 0 0 1.541 1.645l.116.115c.479.484.963.953 1.452 1.405.169.155.338.301.508.453.38.341.759.683 1.143 1.006a50.49 50.49 0 0 0 1.709 1.376l-.175-49.304h-19.153z"/><path style="fill:#d75b2b" d="M255.248 172.054zM250.437 167.814l-.116-.115.116.115zM255.248 172.054a46.691 46.691 0 0 0 6.344-6c13.16-15.03 13.112-34.673 12.489-43.304h-19.007l.174 49.304zM252.396 169.672c-.169-.151-.339-.297-.508-.453.169.156.339.301.508.453z"/><path style="fill:#e8ab8f" d="M247.948 165.138c.774.909 1.57 1.75 2.373 2.561a46.853 46.853 0 0 1-1.541-1.645c-13.34-14.97-13.418-34.7-12.859-43.304h-.008c-.618 8.023-.841 27.273 12.035 42.388zM251.889 169.219zM253.539 170.678c-.384-.323-.763-.665-1.143-1.006.381.34.76.685 1.143 1.006z"/><linearGradient id="castle-d" gradientUnits="userSpaceOnUse" x1="255.248" y1="147.402" x2="235.753" y2="147.402"><stop offset="0" style="stop-color:#e8ab8f"/><stop offset="1" style="stop-color:#d75b2b"/></linearGradient><path style="fill:url(#castle-d)" d="M235.921 122.75c-.56 8.603-.482 28.334 12.859 43.304a46.853 46.853 0 0 0 1.541 1.645l.116.115c.479.484.963.953 1.452 1.405.169.155.338.301.508.453.38.341.759.683 1.143 1.006a50.49 50.49 0 0 0 1.709 1.376l-.175-49.304h-19.153z"/><path d="m280.606 123.042-6.525-.292c.624 8.631.671 28.273-12.489 43.304a46.691 46.691 0 0 1-6.344 6 46.16 46.16 0 0 1-1.709-1.376c-.383-.321-.762-.666-1.143-1.006-.169-.152-.339-.297-.508-.453-.488-.449-.97-.922-1.452-1.405l-.116-.115a46.248 46.248 0 0 1-2.373-2.561c-12.876-15.115-12.653-34.365-12.035-42.388h-15.529c.624 8.631.671 28.273-12.489 43.304a46.691 46.691 0 0 1-6.344 6 46.16 46.16 0 0 1-1.709-1.376c-.383-.321-.762-.666-1.143-1.006-.169-.152-.339-.297-.508-.453-.488-.449-.97-.922-1.452-1.405l-.116-.115a46.248 46.248 0 0 1-2.373-2.561c-12.876-15.115-12.653-34.365-12.035-42.388h-15.789c.624 8.631.671 28.273-12.489 43.304a46.691 46.691 0 0 1-6.344 6 46.16 46.16 0 0 1-1.709-1.376c-.383-.321-.762-.666-1.143-1.006-.169-.152-.339-.297-.508-.453-.488-.449-.97-.922-1.452-1.405l-.116-.115a46.248 46.248 0 0 1-2.373-2.561c-12.876-15.115-12.653-34.365-12.035-42.388h-15.667c.624 8.631.671 28.273-12.489 43.304a46.691 46.691 0 0 1-6.344 6 46.16 46.16 0 0 1-1.709-1.376c-.383-.321-.762-.666-1.143-1.006-.169-.152-.339-.297-.508-.453-.488-.449-.97-.922-1.452-1.405l-.116-.115a46.248 46.248 0 0 1-2.373-2.561c-12.876-15.115-12.653-34.365-12.035-42.388l-5.028-.03.012 12.374c.45 5.918 2.334 19.344 12.427 31.364a52.33 52.33 0 0 0 12.041 10.513 52.255 52.255 0 0 0 11.438-10.513c9.629-11.979 11.335-25.117 11.713-31.064l.361-7.943 5.626.032.264 7.911c.473 5.895 2.398 19.159 12.393 31.064a52.32 52.32 0 0 0 12.041 10.513 52.278 52.278 0 0 0 11.438-10.513c9.629-11.979 11.335-25.117 11.713-31.064l.361-7.942 5.749.032.264 7.91c.473 5.895 2.398 19.159 12.393 31.064a52.32 52.32 0 0 0 12.041 10.513 52.278 52.278 0 0 0 11.438-10.513c9.629-11.979 11.335-25.117 11.713-31.064l.361-7.942 5.487.031.264 7.911c.473 5.895 2.398 19.159 12.393 31.064a52.32 52.32 0 0 0 12.041 10.513c5.395-3.79 9.093-7.692 11.438-10.513 10.849-13.054 12.835-27.18 13.407-31.666a63.53 63.53 0 0 0 .397-11.75z"/></g></g></g></switch></svg>