<svg xmlns="http://www.w3.org/2000/svg" xml:space="preserve" viewBox="0 0 350 350"><style>.castle-__st1{fill:#fff}.castle-__st2{fill:#d7542b}</style><path d="M45 45h260v260H45z" style="opacity:.4"/><path d="M246.7 264.8H102.8c-3.3-1.4-11.4-5.3-17.6-14.2-6.6-9.5-7.1-19.2-7.2-22.7V107.4h194v113.5c-.2 5.2-1.3 16.7-9.1 28.3-5.5 8.1-12.1 13-16.2 15.6"/><path d="M127.6 216.7c-8.2-2.9-16.4-5.8-24.6-8.8-8.2 2.9-16.4 5.8-24.6 8.8-1 6.8-.8 12.5-.4 16.4.6 5.9 2.4 22.2 14.9 35.4 3.8 4 7.5 6.6 10.1 8.3 2.6-1.6 6.3-4.3 10.1-8.3 12.5-13.2 14.3-29.4 14.9-35.4.4-3.9.6-9.6-.4-16.4" class="castle-__st1"/><path d="M123.8 219.6c-6.9-2.5-13.9-5-20.8-7.5-6.9 2.5-13.9 5-20.8 7.5-.7 7.6-1.5 29.3 13.1 45.4 2.5 2.7 5.1 5 7.7 6.9 2.6-1.9 5.3-4.1 7.7-6.9 14.6-16.1 13.8-37.8 13.1-45.4"/><path d="M119.9 222.6c-5.6-2-11.3-3.9-16.9-5.9-5.6 2-11.3 3.9-16.9 5.9-.5 7.4-.7 25.2 11.4 38.7 1.8 2 3.7 3.7 5.6 5.2 1.9-1.5 3.8-3.2 5.6-5.2 11.9-13.4 11.8-31.3 11.2-38.7" class="castle-__st2"/><path d="M175.6 216.7c-8.2-2.9-16.4-5.8-24.6-8.8-8.2 2.9-16.4 5.8-24.6 8.8-1 6.8-.8 12.5-.4 16.4.6 5.9 2.4 22.2 14.9 35.4 3.8 4 7.5 6.6 10.1 8.3 2.6-1.6 6.3-4.3 10.1-8.3 12.5-13.2 14.3-29.4 14.9-35.4.4-3.9.6-9.6-.4-16.4" class="castle-__st1"/><path d="M171.8 219.6c-6.9-2.5-13.9-5-20.8-7.5-6.9 2.5-13.9 5-20.8 7.5-.7 7.6-1.5 29.3 13.1 45.4 2.5 2.7 5.1 5 7.7 6.9 2.6-1.9 5.3-4.1 7.7-6.9 14.6-16.1 13.8-37.8 13.1-45.4"/><path d="M167.9 222.6c-5.6-2-11.3-3.9-16.9-5.9-5.6 2-11.3 3.9-16.9 5.9-.5 7.4-.7 25.2 11.4 38.7 1.8 2 3.7 3.7 5.6 5.2 1.9-1.5 3.8-3.2 5.6-5.2 11.9-13.4 11.7-31.3 11.2-38.7" class="castle-__st2"/><path d="M223.4 216.7c-8.2-2.9-16.4-5.8-24.6-8.8-8.2 2.9-16.4 5.8-24.6 8.8-1 6.8-.8 12.5-.4 16.4.6 5.9 2.4 22.2 14.9 35.4 3.8 4 7.5 6.6 10.1 8.3 2.6-1.6 6.3-4.3 10.1-8.3 12.5-13.2 14.3-29.4 14.9-35.4.4-3.9.6-9.6-.4-16.4" class="castle-__st1"/><path d="M219.6 219.6c-6.9-2.5-13.9-5-20.8-7.5-6.9 2.5-13.9 5-20.8 7.5-.7 7.6-1.5 29.3 13.1 45.4 2.5 2.7 5.1 5 7.7 6.9 2.6-1.9 5.3-4.1 7.7-6.9 14.6-16.1 13.8-37.8 13.1-45.4"/><path d="M215.7 222.6c-5.6-2-11.3-3.9-16.9-5.9-5.6 2-11.3 3.9-16.9 5.9-.5 7.4-.7 25.2 11.4 38.7 1.8 2 3.7 3.7 5.6 5.2 1.9-1.5 3.8-3.2 5.6-5.2 11.9-13.4 11.8-31.3 11.2-38.7" class="castle-__st2"/><path d="M271.1 216.7c-8.2-2.9-16.4-5.8-24.6-8.8-8.2 2.9-16.4 5.8-24.6 8.8-1 6.8-.8 12.5-.4 16.4.6 5.9 2.4 22.2 14.9 35.4 3.8 4 7.5 6.6 10.1 8.3 2.6-1.6 6.3-4.3 10.1-8.3 12.5-13.2 14.3-29.4 14.9-35.4.4-3.9.6-9.6-.4-16.4" class="castle-__st1"/><path d="M267.3 219.6c-6.9-2.5-13.9-5-20.8-7.5-6.9 2.5-13.9 5-20.8 7.5-.7 7.6-1.5 29.3 13.1 45.4 2.5 2.7 5.1 5 7.7 6.9 2.6-1.9 5.3-4.1 7.7-6.9 14.6-16.1 13.8-37.8 13.1-45.4"/><path d="M263.4 222.6c-5.6-2-11.3-3.9-16.9-5.9-5.6 2-11.3 3.9-16.9 5.9-.5 7.4-.7 25.2 11.4 38.7 1.8 2 3.7 3.7 5.6 5.2 1.9-1.5 3.8-3.2 5.6-5.2 11.9-13.4 11.8-31.3 11.2-38.7" class="castle-__st2"/><path d="M152.8 191.1c-8.2-2.9-16.4-5.8-24.6-8.8-8.2 2.9-16.4 5.8-24.6 8.8-1 6.8-.8 12.5-.4 16.4.6 5.9 2.4 22.2 14.9 35.4 3.8 4 7.5 6.6 10.1 8.3 2.6-1.6 6.3-4.3 10.1-8.3 12.5-13.2 14.3-29.4 14.9-35.4.4-3.9.6-9.6-.4-16.4" class="castle-__st1"/><path d="M149.1 194c-6.9-2.5-13.9-5-20.8-7.5-6.9 2.5-13.9 5-20.8 7.5-.7 7.6-1.5 29.3 13.1 45.4 2.5 2.7 5.1 5 7.7 6.9 2.6-1.9 5.3-4.1 7.7-6.9 14.5-16.1 13.7-37.8 13.1-45.4"/><path d="M145.2 197c-5.6-2-11.3-3.9-16.9-5.9-5.6 2-11.3 3.9-16.9 5.9-.5 7.4-.7 25.2 11.4 38.8 1.8 2 3.7 3.7 5.6 5.2 1.9-1.5 3.8-3.2 5.6-5.2 11.8-13.5 11.7-31.4 11.2-38.8" class="castle-__st2"/><path d="M200.5 191.1c-8.2-2.9-16.4-5.8-24.6-8.8-8.2 2.9-16.4 5.8-24.6 8.8-1 6.8-.8 12.5-.4 16.4.6 5.9 2.4 22.2 14.9 35.4 3.8 4 7.5 6.6 10.1 8.3 2.6-1.6 6.3-4.3 10.1-8.3 12.5-13.2 14.3-29.4 14.9-35.4.4-3.9.6-9.6-.4-16.4" class="castle-__st1"/><path d="M196.7 194c-6.9-2.5-13.9-5-20.8-7.5-6.9 2.5-13.9 5-20.8 7.5-.7 7.6-1.5 29.3 13.1 45.4 2.5 2.7 5.1 5 7.7 6.9 2.6-1.9 5.3-4.1 7.7-6.9 14.6-16.1 13.8-37.8 13.1-45.4"/><path d="M192.9 197c-5.6-2-11.3-3.9-16.9-5.9-5.6 2-11.3 3.9-16.9 5.9-.5 7.4-.7 25.2 11.4 38.8 1.8 2 3.7 3.7 5.6 5.2 1.9-1.5 3.8-3.2 5.6-5.2 11.8-13.5 11.7-31.4 11.2-38.8" class="castle-__st2"/><path d="M248.7 191.1c-8.2-2.9-16.4-5.8-24.6-8.8-8.2 2.9-16.4 5.8-24.6 8.8-1 6.8-.8 12.5-.4 16.4.6 5.9 2.4 22.2 14.9 35.4 3.8 4 7.5 6.6 10.1 8.3 2.6-1.6 6.3-4.3 10.1-8.3 12.5-13.2 14.3-29.4 14.9-35.4.4-3.9.6-9.6-.4-16.4" class="castle-__st1"/><path d="M244.9 194c-6.9-2.5-13.9-5-20.8-7.5-6.9 2.5-13.9 5-20.8 7.5-.7 7.6-1.5 29.3 13.1 45.4 2.5 2.7 5.1 5 7.7 6.9 2.6-1.9 5.3-4.1 7.7-6.9 14.6-16.1 13.8-37.8 13.1-45.4"/><path d="M241 197c-5.6-2-11.3-3.9-16.9-5.9-5.6 2-11.3 3.9-16.9 5.9-.5 7.4-.7 25.2 11.4 38.8 1.8 2 3.7 3.7 5.6 5.2 1.9-1.5 3.8-3.2 5.6-5.2 11.9-13.5 11.8-31.4 11.2-38.8" class="castle-__st2"/><path d="M127.7 167.4c-8.2-2.9-16.4-5.8-24.6-8.8-8.2 2.9-16.4 5.8-24.6 8.8-1 6.8-.8 12.5-.4 16.4.6 5.9 2.4 22.2 14.9 35.4 3.8 4 7.5 6.6 10.1 8.3 2.6-1.6 6.3-4.3 10.1-8.3 12.5-13.2 14.3-29.4 14.9-35.4.4-3.9.6-9.6-.4-16.4" class="castle-__st1"/><path d="M124 170.3c-6.9-2.5-13.9-5-20.8-7.5-6.9 2.5-13.9 5-20.8 7.5-.7 7.6-1.5 29.3 13.1 45.4 2.5 2.7 5.1 5 7.7 6.9 2.6-1.9 5.3-4.1 7.7-6.9 14.5-16.1 13.7-37.8 13.1-45.4"/><path d="M120.1 173.3c-5.6-2-11.3-3.9-16.9-5.9-5.6 2-11.3 3.9-16.9 5.9-.5 7.4-.7 25.2 11.4 38.8 1.8 2 3.7 3.7 5.6 5.2 1.9-1.5 3.8-3.2 5.6-5.2 11.8-13.6 11.7-31.4 11.2-38.8" class="castle-__st2"/><path d="M175.6 167.4c-8.2-2.9-16.4-5.8-24.6-8.8-8.2 2.9-16.4 5.8-24.6 8.8-1 6.8-.8 12.5-.4 16.4.6 5.9 2.4 22.2 14.9 35.4 3.8 4 7.5 6.6 10.1 8.3 2.6-1.6 6.3-4.3 10.1-8.3 12.5-13.2 14.3-29.4 14.9-35.4.4-3.9.6-9.6-.4-16.4" class="castle-__st1"/><path d="M171.8 170.3c-6.9-2.5-13.9-5-20.8-7.5-6.9 2.5-13.9 5-20.8 7.5-.7 7.6-1.5 29.3 13.1 45.4 2.5 2.7 5.1 5 7.7 6.9 2.6-1.9 5.3-4.1 7.7-6.9 14.6-16.1 13.8-37.8 13.1-45.4"/><path d="M167.9 173.3c-5.6-2-11.3-3.9-16.9-5.9-5.6 2-11.3 3.9-16.9 5.9-.5 7.4-.7 25.2 11.4 38.8 1.8 2 3.7 3.7 5.6 5.2 1.9-1.5 3.8-3.2 5.6-5.2 11.9-13.6 11.8-31.4 11.2-38.8" class="castle-__st2"/><path d="M223.4 167.4c-8.2-2.9-16.4-5.8-24.6-8.8-8.2 2.9-16.4 5.8-24.6 8.8-1 6.8-.8 12.5-.4 16.4.6 5.9 2.4 22.2 14.9 35.4 3.8 4 7.5 6.6 10.1 8.3 2.6-1.6 6.3-4.3 10.1-8.3 12.5-13.2 14.3-29.4 14.9-35.4.4-3.9.6-9.6-.4-16.4" class="castle-__st1"/><path d="M219.7 170.3c-6.9-2.5-13.9-5-20.8-7.5-6.9 2.5-13.9 5-20.8 7.5-.7 7.6-1.5 29.3 13.1 45.4 2.5 2.7 5.1 5 7.7 6.9 2.6-1.9 5.3-4.1 7.7-6.9 14.5-16.1 13.7-37.8 13.1-45.4"/><path d="M215.8 173.3c-5.6-2-11.3-3.9-16.9-5.9-5.6 2-11.3 3.9-16.9 5.9-.5 7.4-.7 25.2 11.4 38.8 1.8 2 3.7 3.7 5.6 5.2 1.9-1.5 3.8-3.2 5.6-5.2 11.8-13.6 11.7-31.4 11.2-38.8" class="castle-__st2"/><path d="M271.2 167.4c-8.2-2.9-16.4-5.8-24.6-8.8-8.2 2.9-16.4 5.8-24.6 8.8-1 6.8-.8 12.5-.4 16.4.6 5.9 2.4 22.2 14.9 35.4 3.8 4 7.5 6.6 10.1 8.3 2.6-1.6 6.3-4.3 10.1-8.3 12.5-13.2 14.3-29.4 14.9-35.4.4-3.9.6-9.6-.4-16.4" class="castle-__st1"/><path d="M267.5 170.3c-6.9-2.5-13.9-5-20.8-7.5-6.9 2.5-13.9 5-20.8 7.5-.7 7.6-1.5 29.3 13.1 45.4 2.5 2.7 5.1 5 7.7 6.9 2.6-1.9 5.3-4.1 7.7-6.9 14.5-16.1 13.7-37.8 13.1-45.4"/><path d="M263.6 173.3c-5.6-2-11.3-3.9-16.9-5.9-5.6 2-11.3 3.9-16.9 5.9-.5 7.4-.7 25.2 11.4 38.8 1.8 2 3.7 3.7 5.6 5.2 1.9-1.5 3.8-3.2 5.6-5.2 11.8-13.6 11.7-31.4 11.2-38.8" class="castle-__st2"/><path d="M153 140.2c-8.2-2.9-16.4-5.8-24.6-8.8-8.2 2.9-16.4 5.8-24.6 8.8-1 6.8-.8 12.5-.4 16.4.6 5.9 2.4 22.2 14.9 35.4 3.8 4 7.5 6.6 10.1 8.3 2.6-1.6 6.3-4.3 10.1-8.3 12.5-13.2 14.3-29.4 14.9-35.4.3-3.9.5-9.5-.4-16.4" class="castle-__st1"/><path d="M149.2 143.1c-6.9-2.5-13.9-5-20.8-7.5-6.9 2.5-13.9 5-20.8 7.5-.7 7.6-1.5 29.3 13.1 45.4 2.5 2.7 5.1 5 7.7 6.9 2.6-1.9 5.3-4.1 7.7-6.9 14.6-16.1 13.7-37.8 13.1-45.4"/><path d="M145.3 146.1c-5.6-2-11.3-3.9-16.9-5.9-5.6 2-11.3 3.9-16.9 5.9-.5 7.4-.7 25.2 11.4 38.8 1.8 2 3.7 3.7 5.6 5.2 1.9-1.5 3.8-3.2 5.6-5.2 11.9-13.5 11.7-31.4 11.2-38.8" class="castle-__st2"/><path d="M200.6 140.2c-8.2-2.9-16.4-5.8-24.6-8.8-8.2 2.9-16.4 5.8-24.6 8.8-1 6.8-.8 12.5-.4 16.4.6 5.9 2.4 22.2 14.9 35.4 3.8 4 7.5 6.6 10.1 8.3 2.6-1.6 6.3-4.3 10.1-8.3 12.5-13.2 14.3-29.4 14.9-35.4.4-3.9.6-9.5-.4-16.4" class="castle-__st1"/><path d="M196.9 143.1c-6.9-2.5-13.9-5-20.8-7.5-6.9 2.5-13.9 5-20.8 7.5-.7 7.6-1.5 29.3 13.1 45.4 2.5 2.7 5.1 5 7.7 6.9 2.6-1.9 5.3-4.1 7.7-6.9 14.5-16.1 13.7-37.8 13.1-45.4"/><path d="M193 146.1c-5.6-2-11.3-3.9-16.9-5.9-5.6 2-11.3 3.9-16.9 5.9-.5 7.4-.7 25.2 11.4 38.8 1.8 2 3.7 3.7 5.6 5.2 1.9-1.5 3.8-3.2 5.6-5.2 11.8-13.5 11.7-31.4 11.2-38.8" class="castle-__st2"/><path d="M248.8 140.2c-8.2-2.9-16.4-5.8-24.6-8.8-8.2 2.9-16.4 5.8-24.6 8.8-1 6.8-.8 12.5-.4 16.4.6 5.9 2.4 22.2 14.9 35.4 3.8 4 7.5 6.6 10.1 8.3 2.6-1.6 6.3-4.3 10.1-8.3 12.5-13.2 14.3-29.4 14.9-35.4.4-3.9.6-9.5-.4-16.4" class="castle-__st1"/><path d="M245.1 143.1c-6.9-2.5-13.9-5-20.8-7.5-6.9 2.5-13.9 5-20.8 7.5-.7 7.6-1.5 29.3 13.1 45.4 2.5 2.7 5.1 5 7.7 6.9 2.6-1.9 5.3-4.1 7.7-6.9 14.5-16.1 13.7-37.8 13.1-45.4"/><path d="M241.2 146.1c-5.6-2-11.3-3.9-16.9-5.9-5.6 2-11.3 3.9-16.9 5.9-.5 7.4-.7 25.2 11.4 38.8 1.8 2 3.7 3.7 5.6 5.2 1.9-1.5 3.8-3.2 5.6-5.2 11.8-13.5 11.7-31.4 11.2-38.8" class="castle-__st2"/><path d="M217 72.9v31h-12v-31h-60v31h-12v-31H73c1.5 20.1 3.1 40.2 4.6 60.3.2 3.1.1 8 1.9 14.3 4.3 15 15.1 25 23.1 30.9 3.8-2.3 9.2-6.2 14-12.4 7.8-10.1 9.8-20.5 10.5-25.6.6 4.5 2 11.6 6.3 19.2 5.9 10.4 13.9 16.2 18.1 18.9 3.7-2.3 9.8-6.6 15-13.9 5.8-8.1 7.8-16 8.6-20.4.8 4.3 2.7 11.7 7.9 19.3 5.5 8.1 12 12.8 15.8 15.1 3.9-2.4 10.1-7 15.3-14.5 6.9-9.9 8.7-19.7 9.2-24.6.5 4.7 2.1 12.9 7.3 21.6 5.7 9.5 13.1 14.9 17.1 17.5 2.3-1.4 5.5-3.6 8.9-6.8 9.5-9.3 14.9-20.5 15.8-33.9l4.5-64.8c-19.9-.2-39.9-.2-59.9-.2" class="castle-__st1"/><path d="M226.1 81.1v31h-29.2v-31h-43v31h-29.1v-31h-43v53.3c.3 6 2 19.1 11.7 30.7 3 3.6 6.2 6.4 9.1 8.4 3.6-2.4 8.5-6.4 12.8-12.7 7.8-11.5 8.3-23.3 8.2-28.1h6.9c.1 5.7 1 20.2 11.5 32.4 3.2 3.7 6.5 6.4 9.5 8.4 3.6-2.5 9.6-7.5 14.4-15.6 6.1-10.5 6.7-20.6 6.7-25.2h5.3c0 4.7.5 15.3 7.2 26.1 4.6 7.5 10.3 12.1 13.9 14.6 3.6-2.6 9.2-7.3 13.7-14.7 6.5-10.8 7.2-21.3 7.2-26.1h7.2c0 4.5.7 12.4 4.8 21.2 4.9 10.6 12.3 16.8 16.1 19.6 4.3-3.1 11.1-8.9 15.6-17.9 3-6.1 4.2-11.9 4.6-13.9.7-3.5 1-6.6 1-8.9V81.1z" style="fill:#1e1111"/><path d="M260.8 120.3V89.2h-27v31.1h-45.1V89.2h-27v31.1h-45.2V89.2h-27v31.1c-1.3 4.3-2.6 8.5-3.9 12.8.1 4.7 1 13.5 6.3 22.8 3.4 6 7.5 10.2 10.6 12.8 3.3-2.8 8.7-8.1 12.6-16.5 3.4-7.3 4.3-13.9 4.5-18v-5.3h14.9v7.5c.3 4.5 1.5 12.9 7.1 21.6 3.3 5.1 7 8.6 9.9 10.8 3-2.5 7.3-6.8 10.8-13 4.8-8.5 5.8-16.4 6.1-20.8v-6.1H182c-.1 1.2-.1 3 0 5.3.2 4.7 1.1 18.1 10.6 29 1.3 1.5 3.3 3.6 6.3 5.8 3.5-3 5.9-6 7.5-8.1 7.8-10.7 9-21.7 9.3-26.2.1-2.4.1-4.4 0-5.7h15.4v7.5c.4 4.3 1.6 11.7 6.1 19.6 3.5 6.2 7.7 10.4 10.7 13 3.1-2.7 7.7-7.4 11.3-14.3 4.7-9 5.5-17.4 5.6-22-1.4-4.3-2.7-8.4-4-12.5" class="castle-__st2"/></svg>