<svg xmlns="http://www.w3.org/2000/svg" viewBox="0 0 350 350"><switch><g><path fill="#fff" d="M223.125 60.232L223.125 95.125 208.125 95.125 208.125 60.232 141.75 60.232 141.75 95.125 126.75 95.125 126.75 60.232 60.104 60.232 60.104 289.768 289.896 289.768 289.896 60.232z"/><path d="M233.667 69.603L233.667 105.625 198.667 105.625 198.667 69.603 151.667 69.603 151.667 105.625 116.667 105.625 116.667 69.603 69.394 69.603 69.394 280.58 280.606 280.58 280.606 69.603z"/><path d="M244.438,79.152c-0.01,11.949-0.021,23.899-0.031,35.848c-18.552,0-37.104,0-55.656,0 c0.042-11.949,0.083-23.899,0.125-35.848c-8.896,0-17.792,0-26.688,0c-0.01,11.949-0.021,23.899-0.031,35.848 c-18.229,0-36.458,0-54.688,0c0.031-11.949,0.063-23.899,0.094-35.848c-9.579,0-19.158,0-28.737,0c0,10.394,0,20.788,0,31.182 c-1.465,4.139-2.93,8.278-4.396,12.417c1.465,10.069,2.93,20.139,4.396,30.208c0,28.222,0,56.444,0,84.667 c63.436,1.448,126.872,2.895,190.308,4.343c-1.232-28.169-0.88-58.738,1.952-91.301c0.83-9.542,1.837-18.85,2.995-27.916 c-0.994-4.139-1.988-8.278-2.981-12.417c0.003-10.392,0.007-20.785,0.01-31.177C262.219,79.155,253.328,79.153,244.438,79.152z" fill="#d75b2b"/><path d="M93.023,285.982c-4.788-3.041-9.032-6.748-12.615-11.016c-9.472-11.281-12.281-23.885-12.971-32.472l-0.623-18.604 l27.264-9.089l26.753,9.576l-0.82,18.029c-0.544,8.576-3.111,21.134-12.262,32.518c-3.393,4.221-7.425,7.927-11.984,11.016 l-1.358,0.921L93.023,285.982z"/><path d="M94.049,217.447c8.067,2.888,16.134,5.775,24.201,8.663 c-0.245,5.395-0.491,10.79-0.736,16.185c-0.378,5.947-2.084,19.086-11.713,31.064c-3.839,4.776-7.968,8.162-11.438,10.513 c-3.605-2.29-7.964-5.657-12.041-10.513c-9.995-11.905-11.92-25.17-12.393-31.064c-0.185-5.541-0.37-11.082-0.554-16.623 C77.6,222.931,85.825,220.189,94.049,217.447 M94.108,212.157l-1.639,0.547l-24.674,8.225l-3.54,1.18l0.124,3.73l0.277,8.311 l0.277,8.311l0.004,0.117l0.009,0.116c0.718,8.949,3.651,22.092,13.548,33.879c3.748,4.464,8.185,8.339,13.189,11.518 l2.77,1.76l2.716-1.841c4.766-3.23,8.982-7.105,12.53-11.519c9.561-11.894,12.241-24.989,12.806-33.88l0.003-0.045 l0.002-0.045l0.736-16.185l0.168-3.69l-3.478-1.245l-12.1-4.331l-12.1-4.331L94.108,212.157L94.108,212.157z" fill="#fff"/><path d="M74.966,228.976c-0.601,8.207-0.887,28.606,12.813,43.979c2.063,2.315,4.249,4.298,6.469,6 c2.18-1.708,4.323-3.692,6.344-6c13.513-15.434,13.1-35.735,12.438-43.979c-6.326-1.958-12.653-3.917-18.979-5.875 C87.688,225.06,81.327,227.018,74.966,228.976z" fill="#d75b2b"/><path d="M94.049,223.101l-19.083,5.875c-0.648,7.569-1.27,27.508,11.981,43.063 c2.33,2.735,4.816,5.014,7.301,6.916C94.181,260.338,94.115,241.72,94.049,223.101z" fill="#e8ab8f"/><path d="M146.857,285.982c-4.789-3.043-9.033-6.749-12.614-11.016c-9.472-11.28-12.281-23.885-12.971-32.472l-0.623-18.604 l27.264-9.089l26.753,9.576l-0.82,18.029c-0.544,8.575-3.111,21.134-12.262,32.518c-3.392,4.22-7.424,7.927-11.984,11.016 l-1.358,0.921L146.857,285.982z"/><path d="M147.885,217.447c8.067,2.888,16.134,5.775,24.201,8.663 c-0.245,5.395-0.491,10.79-0.736,16.185c-0.378,5.947-2.084,19.086-11.713,31.064c-3.839,4.776-7.968,8.162-11.438,10.513 c-3.605-2.29-7.964-5.657-12.041-10.513c-9.995-11.905-11.92-25.17-12.393-31.064c-0.185-5.541-0.37-11.082-0.554-16.623 C131.435,222.931,139.66,220.189,147.885,217.447 M147.943,212.157l-1.639,0.547l-24.674,8.225l-3.54,1.18l0.124,3.73 l0.277,8.311l0.277,8.311l0.004,0.117l0.009,0.116c0.718,8.949,3.651,22.092,13.548,33.879 c3.748,4.464,8.185,8.339,13.189,11.518l2.77,1.76l2.716-1.841c4.766-3.23,8.982-7.105,12.53-11.519 c9.561-11.894,12.241-24.989,12.806-33.88l0.003-0.045l0.002-0.045l0.736-16.185l0.168-3.69l-3.478-1.245l-12.1-4.331 l-12.1-4.331L147.943,212.157L147.943,212.157z" fill="#fff"/><path d="M128.801,228.976c-0.601,8.207-0.887,28.606,12.813,43.979c2.063,2.315,4.249,4.298,6.469,6 c2.18-1.708,4.323-3.692,6.344-6c13.513-15.434,13.1-35.735,12.438-43.979c-6.326-1.958-12.653-3.917-18.979-5.875 C141.524,225.06,135.162,227.018,128.801,228.976z" fill="#d75b2b"/><path d="M147.885,223.101l-19.083,5.875c-0.648,7.569-1.27,27.508,11.981,43.063 c2.33,2.735,4.816,5.014,7.301,6.916C148.017,260.338,147.951,241.72,147.885,223.101z" fill="#e8ab8f"/><path d="M200.816,285.982c-4.788-3.041-9.032-6.748-12.615-11.016c-9.473-11.282-12.282-23.886-12.97-32.472l-0.624-18.604 l27.265-9.089l26.752,9.576l-0.819,18.029c-0.544,8.575-3.111,21.134-12.262,32.518c-3.392,4.22-7.424,7.927-11.984,11.016 l-1.358,0.921L200.816,285.982z"/><path d="M201.843,217.447c8.067,2.888,16.134,5.775,24.201,8.663 c-0.245,5.395-0.491,10.79-0.736,16.185c-0.378,5.947-2.084,19.086-11.713,31.064c-3.839,4.776-7.968,8.162-11.438,10.513 c-3.605-2.29-7.964-5.657-12.041-10.513c-9.995-11.905-11.92-25.17-12.393-31.064c-0.185-5.541-0.37-11.082-0.554-16.623 C185.393,222.931,193.618,220.189,201.843,217.447 M201.901,212.157l-1.639,0.547l-4.935,1.645l-19.739,6.58l-3.54,1.18 l0.124,3.73l0.277,8.311l0.277,8.311l0.004,0.117l0.009,0.116c0.718,8.949,3.651,22.092,13.548,33.879 c3.748,4.464,8.185,8.339,13.189,11.518l2.77,1.76l2.716-1.841c4.766-3.23,8.982-7.105,12.53-11.519 c9.561-11.894,12.241-24.989,12.806-33.88l0.003-0.045l0.002-0.045l0.736-16.185l0.168-3.69l-3.478-1.245l-9.462-3.387 l-14.738-5.276L201.901,212.157L201.901,212.157z" fill="#fff"/><path d="M182.76,228.976c-0.601,8.207-0.887,28.606,12.813,43.979c2.063,2.315,4.249,4.298,6.469,6 c2.18-1.708,4.323-3.692,6.344-6c13.513-15.434,13.1-35.735,12.438-43.979c-6.326-1.958-12.653-3.917-18.979-5.875 C195.482,225.06,189.121,227.018,182.76,228.976z" fill="#d75b2b"/><path d="M201.843,223.101l-19.083,5.875c-0.648,7.569-1.27,27.508,11.981,43.063 c2.33,2.735,4.816,5.014,7.301,6.916C201.975,260.338,201.909,241.72,201.843,223.101z" fill="#e8ab8f"/><path d="M254.513,285.982c-4.789-3.043-9.033-6.749-12.614-11.016c-9.472-11.28-12.281-23.885-12.971-32.472l-0.623-18.604 l27.264-9.089l26.753,9.576l-0.82,18.029c-0.544,8.575-3.111,21.134-12.262,32.518c-3.392,4.22-7.424,7.927-11.984,11.016 l-1.358,0.921L254.513,285.982z"/><path d="M255.54,217.447c8.067,2.888,16.134,5.775,24.201,8.663 c-0.245,5.395-0.491,10.79-0.736,16.185c-0.378,5.947-2.084,19.086-11.713,31.064c-3.839,4.776-7.968,8.162-11.438,10.513 c-3.605-2.29-7.964-5.657-12.041-10.513c-9.995-11.905-11.92-25.17-12.393-31.064c-0.185-5.541-0.37-11.082-0.554-16.623 C239.09,222.931,247.315,220.189,255.54,217.447 M255.598,212.157l-1.639,0.547l-24.674,8.225l-3.54,1.18l0.124,3.73 l0.277,8.311l0.277,8.311l0.004,0.117l0.009,0.116c0.718,8.949,3.651,22.092,13.547,33.879 c3.748,4.464,8.185,8.339,13.189,11.518l2.77,1.76l2.716-1.841c4.766-3.23,8.982-7.105,12.53-11.519 c9.561-11.894,12.241-24.989,12.806-33.88l0.003-0.045l0.002-0.045l0.736-16.185l0.168-3.69l-3.478-1.245l-12.1-4.331 l-12.1-4.331L255.598,212.157L255.598,212.157z" fill="#fff"/><path d="M236.457,228.976c-0.601,8.207-0.887,28.606,12.813,43.979c2.063,2.315,4.249,4.298,6.469,6 c2.18-1.708,4.323-3.692,6.344-6c13.513-15.434,13.1-35.735,12.438-43.979c-6.326-1.958-12.653-3.917-18.979-5.875 C249.179,225.06,242.818,227.018,236.457,228.976z" fill="#d75b2b"/><path d="M255.54,223.101l-19.083,5.875c-0.648,7.569-1.27,27.508,11.981,43.063 c2.33,2.735,4.816,5.014,7.301,6.916C255.672,260.338,255.606,241.72,255.54,223.101z" fill="#e8ab8f"/><path d="M121.113,258.153c-4.788-3.042-9.032-6.748-12.615-11.016c-9.472-11.282-12.281-23.886-12.971-32.472l-0.623-18.604 l27.264-9.089l26.753,9.576l-0.82,18.029c-0.545,8.576-3.112,21.135-12.262,32.518c-3.393,4.221-7.425,7.927-11.984,11.016 l-1.358,0.921L121.113,258.153z"/><path d="M122.139,189.618c8.067,2.888,16.134,5.775,24.201,8.663 c-0.245,5.395-0.491,10.79-0.736,16.185c-0.378,5.947-2.084,19.086-11.713,31.064c-3.839,4.776-7.968,8.162-11.438,10.513 c-3.605-2.29-7.964-5.657-12.041-10.513c-9.995-11.905-11.92-25.17-12.393-31.064c-0.185-5.541-0.37-11.082-0.554-16.623 C105.69,195.102,113.915,192.36,122.139,189.618 M122.198,184.328l-1.639,0.546L95.884,193.1l-3.54,1.18l0.124,3.73 l0.277,8.311l0.277,8.311l0.004,0.117l0.009,0.116c0.718,8.949,3.651,22.092,13.548,33.879 c3.748,4.464,8.185,8.339,13.189,11.518l2.77,1.76l2.716-1.841c4.766-3.23,8.982-7.105,12.53-11.519 c9.561-11.894,12.241-24.989,12.806-33.88l0.003-0.045l0.002-0.045l0.736-16.185l0.168-3.69l-3.478-1.245l-12.1-4.331 l-12.1-4.331L122.198,184.328L122.198,184.328z" fill="#fff"/><path d="M103.056,201.147c-0.601,8.207-0.887,28.606,12.813,43.979c2.063,2.315,4.249,4.298,6.469,6 c2.18-1.708,4.323-3.692,6.344-6c13.513-15.434,13.1-35.735,12.438-43.979c-6.326-1.958-12.653-3.917-18.979-5.875 C115.778,197.231,109.417,199.189,103.056,201.147z" fill="#d75b2b"/><path d="M122.139,195.272l-19.083,5.875c-0.648,7.569-1.27,27.508,11.981,43.063 c2.33,2.735,4.816,5.014,7.301,6.916C122.271,232.508,122.205,213.89,122.139,195.272z" fill="#e8ab8f"/><path d="M174.947,258.153c-4.789-3.043-9.033-6.749-12.614-11.016c-9.472-11.281-12.281-23.886-12.971-32.472l-0.623-18.604 l27.264-9.089l26.753,9.576l-0.82,18.029c-0.544,8.575-3.112,21.134-12.262,32.518c-3.392,4.22-7.424,7.927-11.984,11.016 l-1.358,0.921L174.947,258.153z"/><path d="M175.975,189.618c8.067,2.888,16.134,5.775,24.201,8.663 c-0.245,5.395-0.491,10.79-0.736,16.185c-0.378,5.947-2.084,19.086-11.713,31.064c-3.839,4.776-7.968,8.162-11.438,10.513 c-3.605-2.29-7.964-5.657-12.041-10.513c-9.995-11.905-11.92-25.17-12.393-31.064c-0.185-5.541-0.37-11.082-0.554-16.623 C159.525,195.102,167.75,192.36,175.975,189.618 M176.033,184.328l-1.639,0.546l-24.674,8.225l-3.54,1.18l0.124,3.73 l0.277,8.311l0.277,8.311l0.004,0.117l0.009,0.116c0.718,8.949,3.651,22.092,13.548,33.879 c3.748,4.464,8.185,8.339,13.189,11.518l2.77,1.76l2.716-1.841c4.766-3.23,8.982-7.105,12.53-11.519 c9.561-11.894,12.241-24.989,12.806-33.88l0.003-0.045l0.002-0.045l0.736-16.185l0.168-3.69l-3.478-1.245l-12.1-4.331 l-12.1-4.331L176.033,184.328L176.033,184.328z" fill="#fff"/><path d="M156.891,201.147c-0.601,8.207-0.887,28.606,12.813,43.979c2.063,2.315,4.249,4.298,6.469,6 c2.18-1.708,4.323-3.692,6.344-6c13.513-15.434,13.1-35.735,12.438-43.979c-6.326-1.958-12.653-3.917-18.979-5.875 C169.614,197.231,163.252,199.189,156.891,201.147z" fill="#d75b2b"/><path d="M175.975,195.272l-19.083,5.875c-0.648,7.569-1.27,27.508,11.981,43.063 c2.33,2.735,4.816,5.014,7.301,6.916C176.107,232.508,176.041,213.89,175.975,195.272z" fill="#e8ab8f"/><path d="M228.906,258.153c-4.788-3.042-9.032-6.748-12.615-11.016c-9.473-11.283-12.282-23.887-12.97-32.472l-0.624-18.604 l27.265-9.089l26.752,9.576l-0.819,18.029c-0.544,8.575-3.112,21.134-12.262,32.518c-3.392,4.22-7.424,7.927-11.984,11.016 l-1.358,0.921L228.906,258.153z"/><path d="M229.933,189.618c8.067,2.888,16.134,5.775,24.201,8.663 c-0.245,5.395-0.491,10.79-0.736,16.185c-0.378,5.947-2.084,19.086-11.713,31.064c-3.839,4.776-7.968,8.162-11.438,10.513 c-3.605-2.29-7.964-5.657-12.041-10.513c-9.995-11.905-11.92-25.17-12.393-31.064c-0.185-5.541-0.37-11.082-0.554-16.623 C213.483,195.102,221.708,192.36,229.933,189.618 M229.991,184.328l-1.639,0.546l-24.674,8.225l-3.54,1.18l0.124,3.73 l0.282,8.448l0.273,8.175l0.004,0.117l0.009,0.116c0.718,8.949,3.651,22.092,13.548,33.879 c3.748,4.464,8.185,8.339,13.189,11.518l2.77,1.76l2.716-1.841c4.766-3.23,8.982-7.105,12.53-11.519 c9.561-11.894,12.241-24.989,12.806-33.88l0.003-0.045l0.002-0.045l0.736-16.185l0.168-3.69l-3.478-1.245l-19.152-6.856 l-5.049-1.807L229.991,184.328L229.991,184.328z" fill="#fff"/><path d="M210.85,201.147c-0.601,8.207-0.887,28.606,12.813,43.979c2.063,2.315,4.249,4.298,6.469,6 c2.18-1.708,4.323-3.692,6.344-6c13.513-15.434,13.1-35.735,12.438-43.979c-6.326-1.958-12.653-3.917-18.979-5.875 C223.572,197.231,217.211,199.189,210.85,201.147z" fill="#d75b2b"/><path d="M229.933,195.272l-19.083,5.875c-0.648,7.569-1.27,27.508,11.981,43.063 c2.33,2.735,4.816,5.014,7.301,6.916C230.065,232.508,229.999,213.89,229.933,195.272z" fill="#e8ab8f"/><path d="M93.042,229.824c-4.788-3.042-9.032-6.748-12.615-11.016c-9.472-11.282-12.281-23.886-12.971-32.472l-0.623-18.604 l27.264-9.089l26.753,9.576l-0.82,18.029c-0.545,8.576-3.112,21.135-12.262,32.518c-3.393,4.221-7.425,7.927-11.984,11.016 l-1.358,0.921L93.042,229.824z"/><path d="M94.068,161.288c8.067,2.888,16.134,5.775,24.201,8.663 c-0.245,5.395-0.491,10.79-0.736,16.185c-0.378,5.947-2.084,19.086-11.713,31.064c-3.839,4.776-7.968,8.162-11.438,10.513 c-3.605-2.29-7.964-5.657-12.041-10.513c-9.995-11.905-11.92-25.17-12.393-31.064c-0.185-5.541-0.37-11.082-0.554-16.623 C77.619,166.772,85.844,164.03,94.068,161.288 M94.126,155.998l-1.639,0.546l-24.674,8.225l-3.54,1.18l0.124,3.73 l0.277,8.311l0.277,8.311l0.004,0.117l0.009,0.116c0.718,8.949,3.651,22.092,13.548,33.879 c3.748,4.464,8.185,8.339,13.189,11.518l2.77,1.76l2.716-1.841c4.766-3.23,8.982-7.105,12.53-11.519 c9.561-11.894,12.241-24.989,12.806-33.88l0.003-0.045l0.002-0.045l0.736-16.185l0.168-3.69l-3.478-1.245l-12.1-4.331 l-12.1-4.331L94.126,155.998L94.126,155.998z" fill="#fff"/><path d="M74.985,172.818c-0.601,8.207-0.887,28.606,12.813,43.979c2.063,2.315,4.249,4.298,6.469,6 c2.18-1.708,4.323-3.692,6.344-6c13.513-15.434,13.1-35.735,12.438-43.979c-6.326-1.958-12.653-3.917-18.979-5.875 C87.707,168.901,81.346,170.859,74.985,172.818z" fill="#d75b2b"/><path d="M94.068,166.943l-19.083,5.875c-0.648,7.569-1.27,27.508,11.981,43.063 c2.33,2.735,4.816,5.014,7.301,6.916C94.2,204.179,94.134,185.561,94.068,166.943z" fill="#e8ab8f"/><path d="M146.876,229.824c-4.789-3.043-9.033-6.749-12.614-11.016c-9.472-11.281-12.281-23.886-12.971-32.472l-0.623-18.604 l27.264-9.089l26.753,9.576l-0.82,18.029c-0.544,8.575-3.112,21.134-12.262,32.518c-3.392,4.22-7.424,7.927-11.984,11.016 l-1.358,0.921L146.876,229.824z"/><path d="M147.904,161.288c8.067,2.888,16.134,5.775,24.201,8.663 c-0.245,5.395-0.491,10.79-0.736,16.185c-0.378,5.947-2.084,19.086-11.713,31.064c-3.839,4.776-7.968,8.162-11.438,10.513 c-3.605-2.29-7.964-5.657-12.041-10.513c-9.995-11.905-11.92-25.17-12.393-31.064c-0.185-5.541-0.37-11.082-0.554-16.623 C131.454,166.772,139.679,164.03,147.904,161.288 M147.962,155.998l-1.639,0.546l-4.935,1.645l-19.739,6.58l-3.54,1.18 l0.124,3.73l0.277,8.311l0.277,8.311l0.004,0.117l0.009,0.116c0.718,8.949,3.651,22.092,13.547,33.879 c3.748,4.464,8.185,8.339,13.189,11.518l2.77,1.76l2.716-1.841c4.766-3.23,8.982-7.105,12.53-11.519 c9.561-11.894,12.241-24.989,12.806-33.88l0.003-0.045l0.002-0.045l0.736-16.185l0.168-3.69l-3.478-1.245l-24.201-8.663 L147.962,155.998L147.962,155.998z" fill="#fff"/><path d="M128.82,172.818c-0.601,8.207-0.887,28.606,12.813,43.979c2.063,2.315,4.249,4.298,6.469,6 c2.18-1.708,4.323-3.692,6.344-6c13.513-15.434,13.1-35.735,12.438-43.979c-6.326-1.958-12.653-3.917-18.979-5.875 C141.543,168.901,135.181,170.859,128.82,172.818z" fill="#d75b2b"/><path d="M147.904,166.943l-19.083,5.875c-0.648,7.569-1.27,27.508,11.981,43.063 c2.33,2.735,4.816,5.014,7.301,6.916C148.036,204.179,147.97,185.561,147.904,166.943z" fill="#e8ab8f"/><path d="M200.835,229.824c-4.788-3.042-9.032-6.748-12.615-11.016c-9.473-11.283-12.282-23.887-12.97-32.472l-0.624-18.604 l27.265-9.089l26.752,9.576l-0.819,18.029c-0.544,8.575-3.112,21.134-12.262,32.518c-3.392,4.22-7.424,7.927-11.984,11.016 l-1.358,0.921L200.835,229.824z"/><path d="M201.862,161.288c8.067,2.888,16.134,5.775,24.201,8.663 c-0.245,5.395-0.491,10.79-0.736,16.185c-0.378,5.947-2.084,19.086-11.713,31.064c-3.839,4.776-7.968,8.162-11.438,10.513 c-3.605-2.29-7.964-5.657-12.041-10.513c-9.995-11.905-11.92-25.17-12.393-31.064c-0.185-5.541-0.37-11.082-0.554-16.623 C185.412,166.772,193.637,164.03,201.862,161.288 M201.92,155.998l-1.639,0.547l-24.674,8.225l-3.54,1.18l0.124,3.73 l0.277,8.311l0.277,8.311l0.004,0.117l0.009,0.116c0.718,8.949,3.651,22.092,13.548,33.879 c3.748,4.464,8.185,8.339,13.189,11.518l2.77,1.76l2.716-1.841c4.766-3.23,8.982-7.105,12.53-11.519 c9.561-11.894,12.241-24.989,12.806-33.88l0.003-0.045l0.002-0.045l0.736-16.185l0.168-3.69l-3.478-1.245l-12.1-4.331 l-12.1-4.331L201.92,155.998L201.92,155.998z" fill="#fff"/><path d="M182.779,172.818c-0.601,8.207-0.887,28.606,12.813,43.979c2.063,2.315,4.249,4.298,6.469,6 c2.18-1.708,4.323-3.692,6.344-6c13.513-15.434,13.1-35.735,12.438-43.979c-6.326-1.958-12.653-3.917-18.979-5.875 C195.501,168.901,189.14,170.859,182.779,172.818z" fill="#d75b2b"/><path d="M201.862,166.943l-19.083,5.875c-0.648,7.569-1.27,27.508,11.981,43.063 c2.33,2.735,4.816,5.014,7.301,6.916C201.994,204.179,201.928,185.561,201.862,166.943z" fill="#e8ab8f"/><path d="M254.532,229.824c-4.789-3.043-9.033-6.749-12.614-11.016c-9.472-11.281-12.281-23.886-12.971-32.472l-0.623-18.604 l27.264-9.089l26.753,9.576l-0.82,18.029c-0.544,8.575-3.112,21.134-12.262,32.518c-3.392,4.22-7.424,7.927-11.984,11.016 l-1.358,0.921L254.532,229.824z"/><path d="M255.559,161.288c8.067,2.888,16.134,5.775,24.201,8.663 c-0.245,5.395-0.491,10.79-0.736,16.185c-0.378,5.947-2.084,19.086-11.713,31.064c-3.839,4.776-7.968,8.162-11.438,10.513 c-3.605-2.29-7.964-5.657-12.041-10.513c-9.995-11.905-11.92-25.17-12.393-31.064c-0.185-5.541-0.37-11.082-0.554-16.623 C239.109,166.772,247.334,164.03,255.559,161.288 M255.617,155.998l-1.639,0.547l-24.674,8.225l-3.54,1.18l0.124,3.73 l0.537,16.103l0.017,0.52l0.004,0.117l0.009,0.116c0.718,8.949,3.651,22.092,13.547,33.879 c3.748,4.464,8.185,8.339,13.189,11.518l2.77,1.76l2.716-1.841c4.766-3.23,8.982-7.105,12.53-11.519 c9.561-11.894,12.241-24.989,12.806-33.88l0.003-0.045l0.002-0.045l0.242-5.314l0.494-10.871l0.168-3.69l-3.478-1.245 l-12.1-4.331l-12.1-4.331L255.617,155.998L255.617,155.998z" fill="#fff"/><path d="M236.476,172.818c-0.601,8.207-0.887,28.606,12.813,43.979c2.063,2.315,4.249,4.298,6.469,6 c2.18-1.708,4.323-3.692,6.344-6c13.513-15.434,13.1-35.735,12.438-43.979c-6.326-1.958-12.653-3.917-18.979-5.875 C249.198,168.901,242.837,170.859,236.476,172.818z" fill="#d75b2b"/><path d="M255.559,166.943l-19.083,5.875c-0.648,7.569-1.27,27.508,11.981,43.063 c2.33,2.735,4.816,5.014,7.301,6.916C255.691,204.179,255.625,185.561,255.559,166.943z" fill="#e8ab8f"/><path d="M121.236,199.112c-4.788-3.041-9.032-6.748-12.615-11.016c-9.473-11.283-12.282-23.887-12.97-32.472l-0.624-18.604 l27.265-9.089l26.752,9.576l-0.819,18.029c-0.544,8.575-3.112,21.134-12.262,32.518c-3.392,4.22-7.424,7.927-11.984,11.016 l-1.358,0.921L121.236,199.112z"/><path d="M122.263,130.576c8.067,2.888,16.134,5.775,24.201,8.663 c-0.245,5.395-0.491,10.79-0.736,16.185c-0.378,5.947-2.084,19.086-11.713,31.064c-3.839,4.776-7.968,8.162-11.438,10.513 c-3.605-2.29-7.964-5.657-12.041-10.513c-9.995-11.905-11.92-25.17-12.393-31.064c-0.185-5.541-0.37-11.082-0.554-16.623 C105.813,136.06,114.038,133.318,122.263,130.576 M122.321,125.287l-1.639,0.547l-14.805,4.935l-9.87,3.29l-3.54,1.18 l0.124,3.73l0.277,8.311l0.277,8.311l0.004,0.117l0.009,0.116c0.718,8.949,3.651,22.092,13.548,33.879 c3.748,4.464,8.185,8.339,13.189,11.518l2.77,1.76l2.716-1.841c4.766-3.23,8.982-7.105,12.53-11.519 c9.561-11.894,12.241-24.989,12.806-33.88l0.003-0.045l0.002-0.045l0.736-16.185l0.168-3.69l-3.478-1.245l-12.1-4.331 l-12.1-4.331L122.321,125.287L122.321,125.287z" fill="#fff"/><path d="M103.179,142.106c-0.601,8.207-0.887,28.606,12.813,43.979c2.063,2.315,4.249,4.298,6.469,6 c2.18-1.708,4.323-3.692,6.344-6c13.513-15.434,13.1-35.735,12.438-43.979c-6.326-1.958-12.653-3.917-18.979-5.875 C115.902,138.189,109.541,140.147,103.179,142.106z" fill="#d75b2b"/><path d="M122.263,136.231l-19.083,5.875c-0.648,7.569-1.27,27.508,11.981,43.063 c2.33,2.735,4.816,5.014,7.301,6.916C122.395,173.467,122.329,154.849,122.263,136.231z" fill="#e8ab8f"/><path d="M175.072,199.112c-4.788-3.041-9.032-6.748-12.615-11.016c-9.472-11.282-12.281-23.886-12.971-32.472l-0.623-18.604 l27.264-9.089l26.753,9.576l-0.82,18.029c-0.545,8.576-3.112,21.135-12.262,32.518c-3.393,4.221-7.425,7.927-11.984,11.016 l-1.358,0.921L175.072,199.112z"/><path d="M176.098,130.576c8.067,2.888,16.134,5.775,24.201,8.663 c-0.245,5.395-0.491,10.79-0.736,16.185c-0.378,5.947-2.084,19.086-11.713,31.064c-3.839,4.776-7.968,8.162-11.438,10.513 c-3.605-2.29-7.964-5.657-12.041-10.513c-9.995-11.905-11.92-25.17-12.393-31.064c-0.185-5.541-0.37-11.082-0.554-16.623 C159.648,136.06,167.873,133.318,176.098,130.576 M176.156,125.287l-1.639,0.547l-4.935,1.645l-19.739,6.58l-3.54,1.18 l0.124,3.73l0.277,8.311l0.277,8.311l0.004,0.117l0.009,0.116c0.718,8.949,3.651,22.092,13.547,33.879 c3.748,4.464,8.185,8.339,13.189,11.518l2.77,1.76l2.716-1.841c4.766-3.23,8.982-7.105,12.53-11.519 c9.561-11.894,12.241-24.989,12.806-33.88l0.003-0.045l0.002-0.045l0.368-8.093l0.368-8.093l0.168-3.69l-3.478-1.245 l-24.201-8.663L176.156,125.287L176.156,125.287z" fill="#fff"/><path d="M157.015,142.106c-0.601,8.207-0.887,28.606,12.813,43.979c2.063,2.315,4.249,4.298,6.469,6 c2.18-1.708,4.323-3.692,6.344-6c13.513-15.434,13.1-35.735,12.438-43.979c-6.326-1.958-12.653-3.917-18.979-5.875 C169.737,138.189,163.376,140.147,157.015,142.106z" fill="#d75b2b"/><path d="M176.098,136.231l-19.083,5.875c-0.648,7.569-1.27,27.508,11.981,43.063 c2.33,2.735,4.816,5.014,7.301,6.916C176.23,173.467,176.164,154.849,176.098,136.231z" fill="#e8ab8f"/><path d="M229.029,199.112c-4.788-3.042-9.032-6.748-12.614-11.016c-9.472-11.281-12.281-23.885-12.971-32.472l-0.623-18.604 l27.264-9.089l26.753,9.576l-0.82,18.029c-0.544,8.575-3.112,21.134-12.262,32.518c-3.392,4.22-7.424,7.927-11.984,11.016 l-1.358,0.921L229.029,199.112z"/><path d="M230.056,130.576c8.067,2.888,16.134,5.775,24.201,8.663 c-0.245,5.395-0.491,10.79-0.736,16.185c-0.378,5.947-2.084,19.086-11.713,31.064c-3.839,4.776-7.968,8.162-11.438,10.513 c-3.605-2.29-7.964-5.657-12.041-10.513c-9.995-11.905-11.92-25.17-12.393-31.064c-0.185-5.541-0.37-11.082-0.554-16.623 C213.607,136.06,221.832,133.318,230.056,130.576 M230.114,125.287l-1.639,0.546l-12.337,4.113l-12.337,4.113l-3.54,1.18 l0.124,3.73l0.277,8.311l0.277,8.311l0.004,0.117l0.009,0.116c0.718,8.949,3.651,22.092,13.548,33.879 c3.748,4.464,8.185,8.339,13.189,11.518l2.77,1.76l2.716-1.841c4.766-3.23,8.982-7.105,12.53-11.519 c9.561-11.894,12.241-24.989,12.806-33.88l0.003-0.045l0.002-0.045l0.736-16.185l0.168-3.69l-3.478-1.245l-12.1-4.331 l-12.1-4.331L230.114,125.287L230.114,125.287z" fill="#fff"/><path d="M210.973,142.106c-0.601,8.207-0.887,28.606,12.813,43.979c2.063,2.315,4.249,4.298,6.469,6 c2.18-1.708,4.323-3.692,6.344-6c13.513-15.434,13.1-35.735,12.438-43.979c-6.326-1.958-12.653-3.917-18.979-5.875 C223.695,138.189,217.334,140.147,210.973,142.106z" fill="#d75b2b"/><path d="M230.056,136.231l-19.083,5.875c-0.648,7.569-1.27,27.508,11.981,43.063 c2.33,2.735,4.816,5.014,7.301,6.916C230.188,173.467,230.122,154.849,230.056,136.231z" fill="#e8ab8f"/><path d="M116.397 128.375c.022 6.601.959 26.772 15.917 43.167 5.261 5.767 10.898 9.576 15.536 12.081 4.603-2.589 10.353-6.615 15.612-12.791 14.069-16.522 14.225-36.225 14.018-42.457C157.119 128.375 136.758 128.375 116.397 128.375zM224.005 128.375c.022 6.601.959 26.772 15.917 43.167 5.261 5.767 10.898 9.576 15.536 12.081 4.603-2.589 10.353-6.615 15.612-12.791 14.069-16.522 14.225-36.225 14.018-42.457C264.727 128.375 244.366 128.375 224.005 128.375z" fill="#fff"/><path d="M62.5 128.375c.022 6.601.959 26.772 15.917 43.167 5.261 5.767 10.898 9.576 15.536 12.081 4.603-2.589 10.353-6.615 15.612-12.791 14.069-16.522 14.225-36.225 14.018-42.457C103.222 128.375 82.861 128.375 62.5 128.375zM170.291 128.375c.022 6.601.959 26.772 15.917 43.167 5.261 5.767 10.898 9.576 15.536 12.081 4.603-2.589 10.353-6.615 15.612-12.791 14.069-16.522 14.225-36.225 14.018-42.457C211.013 128.375 190.652 128.375 170.291 128.375z" fill="#fff"/><path d="M88.946 167.814c-.039-.039-.078-.076-.116-.115C88.869 167.738 88.908 167.775 88.946 167.814zM93.758 172.054c2.18-1.708 4.323-3.692 6.344-6 13.16-15.03 13.112-34.673 12.489-43.304H93.583C93.641 139.185 93.7 155.619 93.758 172.054zM90.906 169.672c-.169-.151-.339-.297-.508-.453C90.566 169.375 90.737 169.52 90.906 169.672zM93.758 172.054c-.57-.437-1.141-.899-1.709-1.376C92.615 171.155 93.185 171.615 93.758 172.054z" fill="#d75b2b"/><path d="M86.457 165.138c.774.909 1.57 1.75 2.373 2.561-.52-.529-1.034-1.077-1.541-1.645-13.34-14.97-13.418-34.7-12.859-43.304h-.008C73.804 130.773 73.581 150.023 86.457 165.138zM90.398 169.219c-.488-.452-.972-.921-1.452-1.405C89.428 168.297 89.91 168.77 90.398 169.219zM92.049 170.678c-.384-.323-.763-.665-1.143-1.006C91.286 170.012 91.666 170.357 92.049 170.678z" fill="#e8ab8f"/><linearGradient id="a" gradientUnits="userSpaceOnUse" x1="93.758" y1="147.402" x2="74.262" y2="147.402"><stop offset="0" stop-color="#e8ab8f"/><stop offset="1" stop-color="#d75b2b"/></linearGradient><path d="M74.43,122.75c-0.56,8.603-0.482,28.334,12.859,43.304 c0.507,0.568,1.021,1.116,1.541,1.645c0.039,0.039,0.078,0.077,0.116,0.115c0.479,0.484,0.963,0.953,1.452,1.405 c0.169,0.155,0.338,0.301,0.508,0.453c0.38,0.341,0.759,0.683,1.143,1.006c0.569,0.477,1.139,0.939,1.709,1.376 c-0.058-16.435-0.117-32.869-0.175-49.304H74.43z" fill="url(#a)"/><path d="M144.741 169.672c-.169-.151-.339-.297-.508-.453C144.401 169.375 144.572 169.52 144.741 169.672zM147.593 172.054c2.18-1.708 4.323-3.692 6.344-6 13.16-15.03 13.112-34.673 12.489-43.304h-19.007C147.477 139.185 147.535 155.619 147.593 172.054zM142.782 167.814c-.039-.039-.078-.076-.116-.115C142.704 167.738 142.743 167.775 142.782 167.814zM147.593 172.054c-.57-.437-1.141-.899-1.709-1.376C146.451 171.155 147.021 171.615 147.593 172.054z" fill="#d75b2b"/><path d="M140.293 165.138c.774.909 1.57 1.75 2.373 2.561-.52-.529-1.034-1.077-1.541-1.645-13.34-14.97-13.419-34.7-12.859-43.304h-.008C127.639 130.773 127.417 150.023 140.293 165.138zM144.233 169.219c-.488-.452-.972-.921-1.452-1.405C143.263 168.297 143.745 168.77 144.233 169.219zM145.884 170.678c-.384-.323-.763-.665-1.143-1.006C145.121 170.012 145.501 170.357 145.884 170.678z" fill="#e8ab8f"/><linearGradient id="b" gradientUnits="userSpaceOnUse" x1="147.593" y1="147.402" x2="128.097" y2="147.402"><stop offset="0" stop-color="#e8ab8f"/><stop offset="1" stop-color="#d75b2b"/></linearGradient><path d="M128.266,122.75c-0.56,8.603-0.482,28.334,12.859,43.304 c0.507,0.568,1.021,1.116,1.541,1.645c0.039,0.039,0.078,0.077,0.116,0.115c0.479,0.484,0.963,0.953,1.452,1.405 c0.169,0.155,0.338,0.301,0.508,0.453c0.38,0.341,0.759,0.683,1.143,1.006c0.569,0.477,1.139,0.939,1.709,1.376 c-0.058-16.435-0.117-32.869-0.175-49.304H128.266z" fill="url(#b)"/><path d="M198.699 169.672c-.169-.151-.339-.297-.508-.453C198.36 169.375 198.53 169.52 198.699 169.672zM196.74 167.814c-.039-.039-.078-.076-.116-.115C196.662 167.738 196.701 167.775 196.74 167.814zM201.551 172.054c-.57-.437-1.141-.899-1.709-1.376C200.409 171.155 200.979 171.615 201.551 172.054zM201.551 172.054c2.18-1.708 4.323-3.692 6.344-6 13.16-15.03 13.112-34.673 12.489-43.304h-19.007C201.435 139.185 201.493 155.619 201.551 172.054z" fill="#d75b2b"/><path d="M199.842 170.678c-.384-.323-.763-.665-1.143-1.006C199.08 170.012 199.459 170.357 199.842 170.678zM198.192 169.219c-.488-.452-.972-.921-1.452-1.405C197.221 168.297 197.704 168.77 198.192 169.219zM194.251 165.138c.774.909 1.57 1.75 2.373 2.561-.52-.529-1.034-1.077-1.541-1.645-13.34-14.97-13.419-34.7-12.859-43.304h-.008C181.598 130.773 181.375 150.023 194.251 165.138z" fill="#e8ab8f"/><linearGradient id="c" gradientUnits="userSpaceOnUse" x1="201.552" y1="147.402" x2="182.056" y2="147.402"><stop offset="0" stop-color="#e8ab8f"/><stop offset="1" stop-color="#d75b2b"/></linearGradient><path d="M182.224,122.75c-0.56,8.603-0.482,28.334,12.859,43.304 c0.507,0.568,1.021,1.116,1.541,1.645c0.039,0.039,0.078,0.077,0.116,0.115c0.479,0.484,0.963,0.953,1.452,1.405 c0.169,0.155,0.338,0.301,0.508,0.453c0.38,0.341,0.759,0.683,1.143,1.006c0.569,0.477,1.139,0.939,1.709,1.376 c-0.058-16.435-0.117-32.869-0.175-49.304H182.224z" fill="url(#c)"/><path d="M255.248 172.054c-.57-.437-1.141-.899-1.709-1.376C254.106 171.155 254.676 171.615 255.248 172.054zM250.437 167.814c-.039-.039-.078-.076-.116-.115C250.359 167.738 250.398 167.775 250.437 167.814zM255.248 172.054c2.18-1.708 4.323-3.692 6.344-6 13.16-15.03 13.112-34.673 12.489-43.304h-19.007C255.132 139.185 255.19 155.619 255.248 172.054zM252.396 169.672c-.169-.151-.339-.297-.508-.453C252.057 169.375 252.227 169.52 252.396 169.672z" fill="#d75b2b"/><path d="M247.948 165.138c.774.909 1.57 1.75 2.373 2.561-.52-.529-1.034-1.077-1.541-1.645-13.34-14.97-13.418-34.7-12.859-43.304h-.008C235.295 130.773 235.072 150.023 247.948 165.138zM251.889 169.219c-.488-.452-.972-.921-1.452-1.405C250.918 168.297 251.401 168.77 251.889 169.219zM253.539 170.678c-.384-.323-.763-.665-1.143-1.006C252.777 170.012 253.156 170.357 253.539 170.678z" fill="#e8ab8f"/><linearGradient id="d" gradientUnits="userSpaceOnUse" x1="255.248" y1="147.402" x2="235.753" y2="147.402"><stop offset="0" stop-color="#e8ab8f"/><stop offset="1" stop-color="#d75b2b"/></linearGradient><path d="M235.921,122.75c-0.56,8.603-0.482,28.334,12.859,43.304 c0.507,0.568,1.021,1.116,1.541,1.645c0.039,0.039,0.078,0.077,0.116,0.115c0.479,0.484,0.963,0.953,1.452,1.405 c0.169,0.155,0.338,0.301,0.508,0.453c0.38,0.341,0.759,0.683,1.143,1.006c0.569,0.477,1.139,0.939,1.709,1.376 c-0.058-16.435-0.117-32.869-0.175-49.304H235.921z" fill="url(#d)"/><path d="M280.606,123.042c-2.175-0.097-4.35-0.194-6.525-0.292c0.624,8.631,0.671,28.273-12.489,43.304 c-2.021,2.308-4.164,4.292-6.344,6c-0.573-0.439-1.143-0.898-1.709-1.376c-0.383-0.321-0.762-0.666-1.143-1.006 c-0.169-0.152-0.339-0.297-0.508-0.453c-0.488-0.449-0.97-0.922-1.452-1.405c-0.039-0.039-0.078-0.076-0.116-0.115 c-0.803-0.811-1.599-1.652-2.373-2.561c-12.876-15.115-12.653-34.365-12.035-42.388h-0.225v0c-4.896,0-9.792,0-14.688,0h-0.616 c0.624,8.631,0.671,28.273-12.489,43.304c-2.021,2.308-4.164,4.292-6.344,6c-0.573-0.439-1.143-0.898-1.709-1.376 c-0.383-0.321-0.762-0.666-1.143-1.006c-0.169-0.152-0.339-0.297-0.508-0.453c-0.488-0.449-0.97-0.922-1.452-1.405 c-0.039-0.039-0.078-0.076-0.116-0.115c-0.803-0.811-1.599-1.652-2.373-2.561c-12.876-15.115-12.653-34.365-12.035-42.388 h-0.222h-5.181c-1.792,0-3.585,0-5.377,0h-4.505h-0.504c0.624,8.631,0.671,28.273-12.489,43.304 c-2.021,2.308-4.164,4.292-6.344,6c-0.573-0.439-1.143-0.898-1.709-1.376c-0.383-0.321-0.762-0.666-1.143-1.006 c-0.169-0.152-0.339-0.297-0.508-0.453c-0.488-0.449-0.97-0.922-1.452-1.405c-0.039-0.039-0.078-0.076-0.116-0.115 c-0.803-0.811-1.599-1.652-2.373-2.561c-12.876-15.115-12.653-34.365-12.035-42.388h-5.404h-5.254h-5.009 c0.624,8.631,0.671,28.273-12.489,43.304c-2.021,2.308-4.164,4.292-6.344,6c-0.573-0.439-1.143-0.898-1.709-1.376 c-0.383-0.321-0.762-0.666-1.143-1.006c-0.169-0.152-0.339-0.297-0.508-0.453c-0.488-0.449-0.97-0.922-1.452-1.405 c-0.039-0.039-0.078-0.076-0.116-0.115c-0.803-0.811-1.599-1.652-2.373-2.561c-12.876-15.115-12.653-34.365-12.035-42.388 c-1.676-0.01-3.352-0.02-5.028-0.03c0.004,4.125,0.008,8.249,0.012,12.374c0.45,5.918,2.334,19.344,12.427,31.364 c4.074,4.852,8.43,8.219,12.041,10.513c3.469-2.351,7.599-5.737,11.438-10.513c9.629-11.979,11.335-25.117,11.713-31.064 c0.12-2.648,0.241-5.295,0.361-7.943l5.626,0.032c0.088,2.637,0.176,5.274,0.264,7.911c0.473,5.895,2.398,19.159,12.393,31.064 c4.077,4.856,8.436,8.223,12.041,10.513c3.469-2.351,7.598-5.737,11.438-10.513c9.629-11.979,11.335-25.117,11.713-31.064 c0.12-2.647,0.241-5.295,0.361-7.942l5.749,0.032c0.088,2.637,0.176,5.273,0.264,7.91c0.473,5.895,2.398,19.159,12.393,31.064 c4.077,4.856,8.436,8.223,12.041,10.513c3.469-2.351,7.598-5.737,11.438-10.513c9.629-11.979,11.335-25.117,11.713-31.064 c0.12-2.647,0.241-5.295,0.361-7.942l5.487,0.031c0.088,2.637,0.176,5.274,0.264,7.911c0.473,5.895,2.398,19.159,12.393,31.064 c4.077,4.856,8.436,8.223,12.041,10.513c5.395-3.79,9.093-7.692,11.438-10.513c10.849-13.054,12.835-27.18,13.407-31.666 C280.83,129.909,280.77,125.816,280.606,123.042z"/></g></switch></svg>