<svg xmlns="http://www.w3.org/2000/svg" xml:space="preserve" style="enable-background:new 0 0 350 350" viewBox="0 0 350 350"><switch><g><path d="M45 45h260v260H45z" style="opacity:.4"/><path d="M73 73h204v204H73z" style="fill:#3e7f3f"/><path d="M174.889 275.889 76.25 73h86.083a454.937 454.937 0 0 1 13.145-52.75A501.239 501.239 0 0 1 188.499 73h85.802z"/><path d="m189.289 78.222 2.116 17.76c2.803 1.317 4.625 2.87 5.788 4.104 1.99 2.112 2.522 3.743 4.974 6.136a22.599 22.599 0 0 0 4.43 3.362l.167-.072-1.673-8.078a2.126 2.126 0 0 1 4.162-.862l1.496 7.22 12.456-5.375-1.948-7.512a2.124 2.124 0 1 1 4.114-1.066l1.782 6.875 22.515-9.715a31.933 31.933 0 0 0 3.095-1.42c2.97-1.559 5.966-3.132 7.794-6.247.578-.985 1.357-2.665 1.556-5.111zm19.303 40.123-.932-4.498a25.636 25.636 0 0 1-10.698-.798c-.547-.16-.875-.321-1.518-.494a13.54 13.54 0 0 0-3.611-.462v11.559c.325.149.82.339 1.444.431.577.085 1.393.104 3.306-.5a23.2 23.2 0 0 0 3.361-1.361z" style="fill:#fff"/><path d="M230.042 111.862a2.124 2.124 0 1 1-4.114 1.066l-1.556-6.001-12.667 5.494 2.069 9.989a2.126 2.126 0 0 1-4.162.862l-.529-2.501a16.52 16.52 0 0 1-1.146 1.042c-1.005.83-1.932 1.395-2.958 1.958-1.581.868-2.319 1.141-3.562 1.75-.231.113-2.505 1.235-4.458 2.583-1.368.944-3.232 2.45-5.125 4.794v26.34c2.857-1.024 5.851-2.248 10.444-4.127 4.871-1.992 7.334-3.008 8.722-4 4.786-3.419 7.089-8.274 8.25-11.611l15.23-29.728a47.425 47.425 0 0 1 5.575-9.647l-11.737 5.09zM88.417 81.708c.615 1.826 1.766 3.144 3.375 4.5 4.268 3.596 10.205 6.149 12.167 6.958l18.003 7.22 1.685-6.808a2.125 2.125 0 0 1 4.125 1.021l-1.827 7.384 12.635 5.067 1.307-6.522a2.124 2.124 0 1 1 4.167.835l-1.462 7.296.743.298a12.365 12.365 0 0 0 1.768-.892c2.281-1.393 3.04-2.893 5.415-5.714 1.684-1.999 2.526-2.999 3.872-4.02a15.986 15.986 0 0 1 5.089-2.557l2.201-17.554H88.001a8.781 8.781 0 0 0 .416 3.488m69.633 51.632c-1.268-2.168-2.887-3.484-4.237-4.465-3.241-2.355-4.709-2.619-8.188-4.729a46.95 46.95 0 0 1-5.374-3.807l-.612 3.054a2.124 2.124 0 1 1-4.167-.835l2.157-10.765-12.786-5.359-1.605 6.485a2.125 2.125 0 0 1-4.125-1.021l1.764-7.127-11.085-4.646a101.13 101.13 0 0 1 2.805 4.503c.452.769 1.305 2.245 2.361 4.247 1.712 3.246 6.72 13.116 13.375 26.458a99.596 99.596 0 0 1 1.792 3.708c1.419 3.102 1.351 3.38 2 4.667 1.949 3.863 4.973 6.124 6.282 7.081 1.787 1.307 3.322 2.01 4.51 2.544 7.232 3.248 11.008 4.942 16.083 6.542l-.09-24.771a12.989 12.989 0 0 0-.86-1.764" style="fill:#fff"/><path d="M158.792 113.083c.032-.291-.041-.463-.097-.556-.613-1.011-3.729-.218-5.514.236-.485.123-.954.301-1.847.528a31.911 31.911 0 0 1-2.144.468c-2.376.43-3.942.713-5.793.303a9.005 9.005 0 0 1-1.769-.593l-.831 4.676c6.96 3.198 12.162 5.388 13.579 5.834.67.211 1.405.323 2.167.125.239-.062.769-.206 1.25-.625 1.063-.925.994-2.411.979-2.646l.062-6.875c-.015-.291-.028-.583-.042-.875m27.764-.639c-.007-3.099-.024-6.996-.325-12.233-.808-14.042-2.906-24.614-5.176-35.822a410.1 410.1 0 0 0-5.5-23.556 302.054 302.054 0 0 0-10.847 61.541l.375 69.167-5.005 9.475 25.933-10.215c.519-28.747.569-47.726.545-58.357m-10.223 42.362c-.097 2.851-.25 5.583-.25 5.583-.173 3.094-.38 5.754-.563 7.84a183.552 183.552 0 0 1-.937-15.062c-.737-33.14.059-84.084.059-84.085a164.072 164.072 0 0 1 .885-14.832 140.623 140.623 0 0 1 .999 14.944c.001.001.824 55.756-.193 85.612" style="fill:#fff"/><path d="m210.333 161.222-62.167 24.486c-2.716 1.119-8.043 3.815-11.375 9.542-2.032 3.493-2.612 6.894-3 9.167a34.21 34.21 0 0 0-.167 10.375l6.75 62.208h85.014a55.807 55.807 0 0 0 2.667-4.056c3.203-5.366 5.086-10.577 6.222-15l4.597-.639-2.81-16.544c.962.477 2.03.887 3.205 1.176 7.102 1.747 13.421-2.092 15.507-3.493l-15.722-41c2.531-1.108 4.136-2.594 5-3.528.815-.88 3.904-4.218 3.778-8.972 0 0-.048-1.79-.639-3.389-1.692-4.575-8.859-7.74-17.84-8.264l-2.188-3.681c-.557-1.052-3.827-6.988-10.556-8.444-2.547-.551-4.772-.282-6.276.056"/><path d="m207.833 168.75-58.604 22.583a15.968 15.968 0 0 0-3.924 2.528c-4.617 4.054-5.509 9.697-5.917 12.278-.324 2.046-.583 5.323.25 9.333l5.972 55.306h39.722c2.034-6.098 4.325-16.385.979-27.653a40.77 40.77 0 0 0-2.007-5.347c-.174-.33-.415-.822-.654-1.44-.336-.87-.504-1.305-.454-1.764.098-.896.881-1.507 1.302-1.781l9.812-5.599c1.516-.93 3.087-.82 3.716-.036.108.134.386.536.319 1.312l-1.434 14.165a20.153 20.153 0 0 0-1.634 4.866c-.318 1.604-.753 3.929-.111 6.778a13.961 13.961 0 0 0 1.722 4.222c2.063-.894 6.491-3.156 9.889-8.056a23.045 23.045 0 0 0 3.611-8.444c2.122-13.794 3.064-24.231 2.667-28.111-.19-1.85-.764-2.99-1.5-3.778-1.484-1.589-3.667-1.789-4.903-1.903-2.497-.229-4.528.474-5.708 1.014l-23.472 9.611c-1.403.614-2.926.338-3.735-.613-.756-.889-.612-2.041-.55-2.387.324-1.819 2.132-2.556 2.26-2.606 8.982-3.769 16.408-6.757 21.914-9.033.974-.403 4.256-1.834 8.639-1.861 2.211-.014 4.434 0 6.778 1.333 2.17 1.235 3.307 2.955 3.944 3.944 2.634 4.088 2.419 8.476 2.222 10.278l-2.778 25.056c-.208 1.476.01 2.594.316 3.41 1.585 4.23 7.918 6.685 15.768 6.063l-11.136-55.331c-.286-1.421-1.322-4.128-3.837-6.03-3.429-2.594-7.936-2.179-10.5-1.694l-43.819 15.306c-1.504.558-3.057.36-3.958-.556a2.663 2.663 0 0 1-.722-1.389c-.205-1.166.421-2.421 1.597-3.243l45.014-15.757c2.737-.958 7.203-1.512 11.722.333 3.481 1.422 5.655 3.872 6.417 4.75 2.855 3.289 3.83 6.761 4.194 8.5l6.611 32.861c.207.578 1.583 4.231 5.611 5.889 4.117 1.694 7.743-.038 8.278-.306l-23.472-59.889c-.331-.81-2.092-4.888-6.769-6.908-4.663-2.016-8.827-.518-9.648-.204m23.625 9.292 6 15.292a9.776 9.776 0 0 0 1.736-1.083c2.358-1.841 4.97-5.648 3.833-8.694-.731-1.959-2.725-2.836-5.306-3.972a18.786 18.786 0 0 0-6.263-1.543" style="fill:#fff"/></g></switch></svg>