<svg xmlns="http://www.w3.org/2000/svg" viewBox="0 0 350 350" style="enable-background:new 0 0 350 350" xml:space="preserve"><switch><g><path style="fill:#fff" d="M59.962 59.962h230.075v230.075H59.962z"/><path style="fill:#191917" d="M69.5 69.5h211v211h-211z"/><path style="fill:#0c0c0c" d="M79 79h192v192H79z"/><path style="fill:#fff" d="M66.953 220.333a5.092 5.092 0 0 0 1.963.833c1.41.261 2.463-.212 2.833.333.262.385.115 1.18.092 1.181-.003 0-.004-.014-.009-.015-.039-.003.045 1.206-.333 2-.412.864-1.189.853-2.426 1.691-.557.377-1.324 1.005-2.074 2.059l-.046-8.082zM69.958 235.167c.44-.197 1.322.466 1.625 1.292.363.987-.228 1.866-.292 1.958-.286.031-.69.021-1.042-.208-1.031-.673-.902-2.769-.291-3.042zM74.613 244.615c-.351-.39-1.074-.454-1.551-.191-.723.399-1.042 1.64-.395 2.868.234.073.622.151 1.017.004 1.002-.374 1.539-2.005.929-2.681zM76.375 244.625c-.429-.525-.347-.873-.322-.958.025-.086.127-.362 1.239-.792a9.61 9.61 0 0 1 1.375-.417c-.021.155-.207 1.368-1.25 1.917-.401.211-.789.25-1.042.25zM74.083 258.958c.391.118.819.177 1.042-.042.24-.236.014-.571.208-1.083.248-.652.841-.702.875-1.083.021-.24-.178-.618-1.337-1.167-.224.035-.62.127-.996.417-.674.519-1.192 1.6-.75 2.333.061.102.304.468.958.625zM82.375 270.333c-.041-.067-.35-.592-.125-1.167.166-.424.62-.865 1.167-.792.388.052.71.347.833.708.127.372.023.755-.167 1-.338.439-1.052.573-1.708.251zM88 262.458c.014-.082.096-.494.458-.75.569-.402 1.42-.13 1.875.333.102.104.428.435.417.917-.013.593-.532 1.137-1.125 1.208-.546.065-.947-.295-1.083-.417-.098-.086-.665-.595-.542-1.291zM88.625 268c-.423.462-.137 1.356.042 1.917.161.505.526 1.645 1.292 1.792.394.075.467-.211 1.208-.333.974-.161 1.197.202 1.784-.012.897-.328 1.229-1.49 1.3-1.738a3.26 3.26 0 0 0 .042-1.583c.004-.838-.229-1.18-.458-1.333-.388-.26-.714.058-1.583-.042-.971-.111-1.26-.586-1.667-.375-.412.214-.207.749-.708 1.208-.47.428-.917.133-1.252.499zM92.542 275.292c.625-.795 2.257-.553 2.542.167.171.433-.142 1.05-.667 1.542-.518.491-1.304.501-1.781.074-.55-.493-.44-1.343-.094-1.783z"/><path style="fill:#fff" d="m255.25 198.125-72.5 72.5-109.125-72.5h-6.188v14.25c-.421 1.054-.745 2.29-.188 2.875.826.866 2.964-.349 3.625.5.591.758-.792 2.144-.188 3.063.635.965 2.5-.048 3.625 1.063.851.84.073 1.706 1.063 3.125.61.875 1.071.782 2.063 2.063.327.423 1.174 1.516.875 1.938-.291.41-1.431-.146-1.625.188-.275.472 1.914 1.749 1.629 2.922-.094.385-.448.734-.801.778-.531.066-.737-.594-1.578-1.075-.095-.054-1.596-.889-2.5-.188-.585.454-.781 1.445-.441 2.003.395.647 1.609.877 1.626.872-.055-.008-.704 2.148-.81 2.563-.92 3.602 5.513 7.457 4.444 10.504-.732 2.086-3.286 2.175-3.632 4.559-.175 1.21.672 1.611 1.688 4.104.764 1.875 1.031 3.369 1.281 4.771.364 2.034.305 3.897.188 7.625-.083 2.624.517 5.289.063 7.875-.044.251-.208 1.14.281 1.813.264.364.779.746 1.321.664.572-.086.901-.646 1.054-.914.728-1.281.215-2.432.156-4.281-.073-2.275.552-5.258 1.988-5.741.484-.163.754.059 1.441-.235.188-.081 1.184-.507 1.499-1.576.165-.562.212-1.538-.333-1.979-.621-.503-1.479.116-2.083-.479a1.145 1.145 0 0 1-.333-.896c.046-.491.454-.787.604-.896.558-.405 1.209-.391 1.51-.381 2.077.072 5.445.216 6.156 1.151.152.201.208.375.208.375.13.405-.071.618-.042 1.208.013.263.03.542.208.646.181.106.351-.072.479.015.258.175-.291.987.021 1.547.177.318.632.557.896.438.662-.301.039-2.839.375-2.917.152-.035.232.497.729.729.505.236.822-.127 1.417.042.6.17 1.116.777 1.01 1.104-.143.443-1.41.315-1.447.646-.016.143.207.275.271.313.441.261.89.025 1.333.021.701-.007 1.238.567 1.604.958 1.201 1.284.084 3.986-.333 7.333-.169 1.355-.293 3.374.042 5.917l-4.188 2.875 3.813 7.375c.119.616.276 1.582.333 2.771.214 4.44-1.224 6.437-.104 9.5.188.513.733 2.006 1.688 2.104.701.072 1.301-.642 1.479-.854 1.055-1.256.917-2.798.727-6.479-.232-4.488-.219-5.915.418-7.625.329-.882.718-1.557.988-1.979l3.221-5.875a8.73 8.73 0 0 0 .282-.611c.893-2.15.663-4.072.968-8.056.07-.919.134-1.487.438-1.583.419-.133 1.239.648 1.188 1.313-.033.426-.404.543-.364.871.066.54 1.182.464 1.364.983.262.747-1.802 1.538-1.763 2.973.013.499.284 1.161.763 1.298.225.064.55.029.738-.165.284-.294.03-.719.325-1.064.12-.14.377-.321.604-.271.685.151.49 2.271 1.262 2.459.156.038.291-.018.365-.048.856-.354 1.213-2.442.493-3.91-.471-.96-1.253-1.351-1.08-1.709.123-.255.661-.353 1-.167.458.252.208.834.729 1.458.432.517.883.453.958.833.072.362-.314.534-.5 1.125-.18.572-.025 1.067.042 1.354.157.678.206 1.842-.25 3.979l4.688 1.188a20.271 20.271 0 0 1-.688-2.875c-.294-1.812-.116-2.305.146-2.604.298-.341.479-.17 1.021-.625.71-.596.621-1.074 1.25-1.396.098-.05.714-.365 1.146-.063a.817.817 0 0 1 .333.729c-.045.401-.426.463-.583.792-.407.849 1.23 2.31 1.063 2.479-.095.096-.77-.229-1.25-.813-.368-.448-.411-.79-.774-.917-.282-.098-.689-.041-.802.169-.204.379.642 1.093 1.388 1.998.586.711 1.305 1.774 1.875 3.313l100.375 2.625 13.083-3.167c.495-1.574.261-2.303-.052-2.677-.201-.24-.481-.391-.438-.563.096-.379 1.56-.049 1.844-.625.155-.314-.105-.772-.313-1-.255-.28-.507-.296-1.156-.531-.894-.325-1.341-.487-1.427-.771-.16-.53.975-1.307 1.333-1.542.235-.156.557-.426.688-.844.147-.471-.064-.76.156-1.094.21-.32.703-.512.969-.344.298.189.205.768.178.936-.132.815-.791 1.321-1.074 1.512-.497.41-.603.985-.385 1.271.143.188.44.273.688.219.403-.088.393-.483.781-.625.476-.174.773.317 1.188.156.501-.194.438-1.052.771-1.104.15-.024.378.117.729.792.073.135.179.341.291.599.431.995.337 1.347.606 1.869.348.676 1.156 1.346 1.791 1.219.434-.087.435-.476 1.219-1.156.453-.393 1.072-.931 1.448-.781.474.189.366 1.396.29 2.994a79.607 79.607 0 0 0-.082 4.756c.087 2.414.08 4.344.063 5.563-.059 4.165-.35 7.897 1.156 9.25.162.146.633.568 1.188.5.685-.085 1.102-.871 1.281-1.219.857-1.667.531-3.485.317-5.414-.137-1.232-.186-2.673-.286-5.555a47.725 47.725 0 0 1 .24-6.625 57.713 57.713 0 0 1 .01-5.156c.154-3.23.483-4.206-.156-5.844-.26-.666-.642-1.346-.396-1.583.401-.387 2.252.604 2.184.849a.049.049 0 0 1-.017.026c-.048.042-.075.077-.427.708-.325.583-.488.876-.5.969-.023.172-.015.423.135.74.152.029.384.049.615-.052.4-.175.369-.526.719-.813.55-.451 1.26-.102 1.438-.438.057-.109.073-.315-.229-.74a20.85 20.85 0 0 1-1.083-1.073c-.577-.615-1.063-1.138-1.531-1.906-.485-.797-.728-1.195-.688-1.688.062-.753.636-.905.625-1.625-.012-.752-.646-1.163-.469-1.406.149-.203.571.115 1.344-.031a2.456 2.456 0 0 0 1.177-.604c.221-.208.487-.457.448-.708-.052-.335-.635-.604-1.448-.625.167-.212.468-.54.937-.778.985-.501 1.965-.229 2.668-.034.61.169 1.306.362 1.406.813.102.459-.5.801-.344 1.156.128.29.685.42 1.063.25.55-.247.601-1.077.625-1.469.014-.219.062-1-.406-1.75-.394-.632-.878-.799-.813-1.156.058-.315.487-.472.563-.5.328-.12.788-.105 1.063.125.671.562-.271 1.982.375 2.625.464.462 1.505.284 1.614-.018.074-.202-.309-.361-.52-.982-.031-.09-.274-.827.021-1.078.234-.199.577.102.823-.078.351-.258-.139-1.025.196-1.483.428-.584 1.836-.171 1.929-.142.181.055 1.628.517 1.844 1.656.101.531-.076 1.156-.344 1.219-.311.073-.588-.652-1.125-.625-.197.01-.357.118-.469.219-.062.103-.314.546-.166 1.061.072.253.284.674.573.689.363.019.459-.624.781-.656.503-.05 1.063 1.442 1.781 3.469.682 1.922 1.022 2.884 1.063 3.063.864 3.84-.904 5.821.342 7.065.771.769 2.266.829 2.876.248.59-.562.269-1.646.03-3.092-.327-1.974-.135-3.999-.239-5.997-.269-5.146-.403-7.719.616-10.442 1.319-3.526 3.425-4.534 2.823-6.5-.588-1.919-3.238-3.06-3.042-3.375.147-.236 1.545.532 2.031 0 .09-.099.181-.277.125-.406-.117-.271-.762-.052-1.531-.438-.395-.198-.453-.37-.469-.438-.059-.247.098-.558.313-.625.216-.068.335.162.727.296.338.116.927.177 1.211-.109.315-.318.081-.892.375-1.031a.37.37 0 0 1 .344.031c.452.305-.302 1.615.188 2.156.15.166.449.296 1.094.188.128-.049.303-.14.375-.313.185-.44-.517-.887-.375-1.406.109-.397.575-.345.677-.74.086-.333-.213-.504-.583-1.292-.26-.552-.457-.971-.344-1.406.106-.408.376-.406.719-.875.49-.67.146-.952.594-2.094.358-.913.674-.976.719-1.656.026-.388-.059-.633.125-.875.198-.259.455-.185.969-.375.222-.082 1.143-.423 1.313-1.125a1.13 1.13 0 0 0-.156-.875c-.468-.687-1.573-.431-1.688-.802-.05-.161.079-.463 1.042-1.083.227.082.544.224.865.479.297.236.387.403.53.379.25-.042.515-.648.345-1.098-.255-.676-1.321-.55-1.448-1.094-.112-.478.611-1.007.729-1.094.781-.572 1.7-.454 1.979-.406l4.583-28.25H255.25zm-143.246 76.75c.321.138.239 1.238.016 1.286-.123.026-.158-.291-.518-.471-.306-.153-.488-.026-.749-.211-.185-.131-.327-.36-.27-.448.075-.117.42.144.918.047.364-.071.457-.266.603-.203zM235 271.859c.463.204.685.376.667.516-.029.217-.64.356-1.833.417-.234.003-.359-.025-.375-.083-.037-.131.477-.414 1.541-.85zm-7.167 8.224c-.347.327-.918.061-.958.042-.258-.125-.284-.274-.542-.542-.583-.605-1.238-.661-1.208-.833.024-.138.43-.031.875-.292.555-.326.643-.915.833-.875.193.041.019.635.417 1.083.278.313.552.235.708.542.132.258.112.652-.125.875zm2.25-1.208c-.222.07-.474-.149-.542-.208-.569-.495-.159-1.233-.667-1.75-.394-.402-.958-.278-1.016-.559-.044-.213.244-.456.509-.636.073 0 1.369.01 1.923.983.474.83.223 2.034-.207 2.17zm4.5-.208c.333.354.448.84.292 1.25a1.147 1.147 0 0 1-.527.583 1.907 1.907 0 0 0-.348-.5c-.251-.259-.426-.287-.458-.417-.038-.152.128-.417 1.041-.916zm-.375-3.209c-.232.238-.336.487-.583.5-.187.01-.348-.12-.458-.237-.28-.537-.155-.859-.125-.93.233-.542 1.222-.838 2.375-.417.249.129.295.227.292.292-.013.273-.884.16-1.501.792zm3.959-4.583c-.918.424-1.756-.142-1.792-.167-.141-.187-.149-.302-.12-.375.108-.279.761-.01 1.37-.375.456-.274.454-.643.885-.754.267-.069.522.008.699.087a1.81 1.81 0 0 1-1.042 1.584zm2.375 1.375c-.016.579-.094.68-.167.708-.201.079-.552-.316-.708-.542-.085-.122-.174-.251-.203-.398-.08-.409.314-.915.953-1.268a7.05 7.05 0 0 1 .125 1.5z"/><path style="fill:#fff" d="M239.875 277.813c.408.11.6.547.461.863-.129.292-.528.45-.877.283a.652.652 0 0 1-.229-.667.654.654 0 0 1 .645-.479zM252.063 279.438v.001c.017.061 1.231.008 1.396-.418.198-.511-1.104-1.583-1.104-1.583-.101-.06-.406-.223-.707-.12-.477.163-.683.906-.46 1.433.221.522.795.668.875.687zM253.563 272.438c.987-.17 1.825.582 1.833 1.375.008.725-.678 1.444-1.583 1.438-.813.009-1.469-.641-1.479-1.396-.01-.681.509-1.301 1.229-1.417zM252.438 268.833c-.311-.38-.345-.812-.375-1.188-.022-.272-.042-.527.063-.833.236-.694.882-.985.968-1.022.145-.063.724-.313 1.298-.044.752.353.849 1.295.86 1.42.087 1.01-.656 2.207-1.604 2.25-.485.022-.946-.259-1.21-.583zM256.5 265.333c.03 0 .34-.007.479-.229.192-.306-.081-.794-.313-.813-.242-.02-.578.463-.438.792a.512.512 0 0 0 .272.25zM261.185 264.794c.348.152.909-.382 1.148-.669.12-.144.371-.454.458-.938.056-.312.117-.646-.042-.792-.462-.425-2.589.925-2.438 1.458.043.152.25.156.563.542.211.26.189.346.311.399zM260.229 267.583c.531.074.859.582.75 1.021-.092.368-.479.643-.917.604-.742-.196-1.055-.861-.896-1.229.125-.288.57-.472 1.063-.396zM264.563 266.875c.01-.177.89-.571 1.292-.125.236.261.241.738-.042 1.104-.699.133-.919.05-.979-.063-.084-.156.135-.376.021-.625-.092-.198-.298-.204-.292-.291zM272.646 264.25c.29.049.463.262.792.667.422.52.762.938.667 1.375-.109.501-.761.897-1.583.942-.138.017-.592.056-.958-.234-.526-.417-.471-1.199-.313-1.646.213-.605.83-1.199 1.395-1.104zM276.604 263.083c.484.172.985.078 1.208-.208.304-.39.155-1.218-.583-1.625-.922.087-1.449.72-1.374 1.167.072.433.704.651.749.666zM273.208 258.771c1.081-.034 2.191-1.5 1.734-2.682-.309-.799-1.251-1.257-2.109-1.151-.535.066-1.215.375-1.479.979-.493 1.129.642 2.892 1.854 2.854zM276.667 256.125c.005-.041.09-.649.625-.896.065-.03.421-.186.771-.042.361.149.312.453.688.625.338.155.511-.029.729.146.23.185.278.586.167.875-.081.211-.231.322-.447.48-.248.182-.515.378-.865.377-.193-.001-.441-.147-.938-.441-.488-.288-.583-.4-.646-.521a.975.975 0 0 1-.084-.603zM275.813 252.813a.968.968 0 0 0 .859-.54c.304-.667-.506-1.451-.563-1.505a1.933 1.933 0 0 0-.567-.371c-.195.022-.648.102-.854.438-.402.652.327 1.956 1.125 1.978zM276.125 246.313c.062-.023.749-.273 1.083.042.434.408.099 1.603-.556 1.771a.805.805 0 0 1-.777-.25c-.311-.36-.261-1.047.25-1.563zM277.271 242.75c.095-.685.391-.948.521-1.042.713-.516 2.194-.111 3.458 1.271-.612 1.044-1.778 1.499-2.708 1.167-.904-.323-1.227-1.262-1.271-1.396zM278.438 239.896c.14.144.361.323.625.313.383-.016.48-.417.875-.625.737-.388 1.548.405 1.917.125.209-.159.278-.664-.333-2.188-.661.908-1.165 1.083-1.514 1.058-.36-.026-.478-.259-.861-.225-.551.049-1.153.606-1.063 1.083.015.081.071.275.354.459zM277.979 236.771c.203.222.627.319.875.167.363-.223.045-.793.375-1.813.198-.612.404-.688.354-1.041-.082-.587-.753-1.115-1.146-1.001-.267.078-.267.414-.604.503-.285.075-.445-.124-.625-.044-.153.068-.291.324-.229 1.146-.064.235-.116.569.062.771.172.195.395.081.605.271.309.279.045.726.333 1.041z"/><g><path style="fill:#fff" d="M66.953 220.333a5.092 5.092 0 0 0 1.963.833c1.41.261 2.463-.212 2.833.333.262.385.115 1.18.092 1.181-.003 0-.004-.014-.009-.015-.039-.003.045 1.206-.333 2-.412.864-1.189.853-2.426 1.691-.557.377-1.324 1.005-2.074 2.059l-.046-8.082zM69.958 235.167c.44-.197 1.322.466 1.625 1.292.363.987-.228 1.866-.292 1.958-.286.031-.69.021-1.042-.208-1.031-.673-.902-2.769-.291-3.042zM74.613 244.615c-.351-.39-1.074-.454-1.551-.191-.723.399-1.042 1.64-.395 2.868.234.073.622.151 1.017.004 1.002-.374 1.539-2.005.929-2.681zM76.375 244.625c-.429-.525-.347-.873-.322-.958.025-.086.127-.362 1.239-.792a9.61 9.61 0 0 1 1.375-.417c-.021.155-.207 1.368-1.25 1.917-.401.211-.789.25-1.042.25zM74.083 258.958c.391.118.819.177 1.042-.042.24-.236.014-.571.208-1.083.248-.652.841-.702.875-1.083.021-.24-.178-.618-1.337-1.167-.224.035-.62.127-.996.417-.674.519-1.192 1.6-.75 2.333.061.102.304.468.958.625zM82.375 270.333c-.041-.067-.35-.592-.125-1.167.166-.424.62-.865 1.167-.792.388.052.71.347.833.708.127.372.023.755-.167 1-.338.439-1.052.573-1.708.251zM88 262.458c.014-.082.096-.494.458-.75.569-.402 1.42-.13 1.875.333.102.104.428.435.417.917-.013.593-.532 1.137-1.125 1.208-.546.065-.947-.295-1.083-.417-.098-.086-.665-.595-.542-1.291zM88.625 268c-.423.462-.137 1.356.042 1.917.161.505.526 1.645 1.292 1.792.394.075.467-.211 1.208-.333.974-.161 1.197.202 1.784-.012.897-.328 1.229-1.49 1.3-1.738a3.26 3.26 0 0 0 .042-1.583c.004-.838-.229-1.18-.458-1.333-.388-.26-.714.058-1.583-.042-.971-.111-1.26-.586-1.667-.375-.412.214-.207.749-.708 1.208-.47.428-.917.133-1.252.499zM92.542 275.292c.625-.795 2.257-.553 2.542.167.171.433-.142 1.05-.667 1.542-.518.491-1.304.501-1.781.074-.55-.493-.44-1.343-.094-1.783z"/><path style="fill:#fff" d="m255.25 198.125-72.5 72.5-109.125-72.5h-6.188v14.25c-.421 1.054-.745 2.29-.188 2.875.826.866 2.964-.349 3.625.5.591.758-.792 2.144-.188 3.063.635.965 2.5-.048 3.625 1.063.851.84.073 1.706 1.063 3.125.61.875 1.071.782 2.063 2.063.327.423 1.174 1.516.875 1.938-.291.41-1.431-.146-1.625.188-.275.472 1.914 1.749 1.629 2.922-.094.385-.448.734-.801.778-.531.066-.737-.594-1.578-1.075-.095-.054-1.596-.889-2.5-.188-.585.454-.781 1.445-.441 2.003.395.647 1.609.877 1.626.872-.055-.008-.704 2.148-.81 2.563-.92 3.602 5.513 7.457 4.444 10.504-.732 2.086-3.286 2.175-3.632 4.559-.175 1.21.672 1.611 1.688 4.104.764 1.875 1.031 3.369 1.281 4.771.364 2.034.305 3.897.188 7.625-.083 2.624.517 5.289.063 7.875-.044.251-.208 1.14.281 1.813.264.364.779.746 1.321.664.572-.086.901-.646 1.054-.914.728-1.281.215-2.432.156-4.281-.073-2.275.552-5.258 1.988-5.741.484-.163.754.059 1.441-.235.188-.081 1.184-.507 1.499-1.576.165-.562.212-1.538-.333-1.979-.621-.503-1.479.116-2.083-.479a1.145 1.145 0 0 1-.333-.896c.046-.491.454-.787.604-.896.558-.405 1.209-.391 1.51-.381 2.077.072 5.445.216 6.156 1.151.152.201.208.375.208.375.13.405-.071.618-.042 1.208.013.263.03.542.208.646.181.106.351-.072.479.015.258.175-.291.987.021 1.547.177.318.632.557.896.438.662-.301.039-2.839.375-2.917.152-.035.232.497.729.729.505.236.822-.127 1.417.042.6.17 1.116.777 1.01 1.104-.143.443-1.41.315-1.447.646-.016.143.207.275.271.313.441.261.89.025 1.333.021.701-.007 1.238.567 1.604.958 1.201 1.284.084 3.986-.333 7.333-.169 1.355-.293 3.374.042 5.917l-4.188 2.875 3.813 7.375c.119.616.276 1.582.333 2.771.214 4.44-1.224 6.437-.104 9.5.188.513.733 2.006 1.688 2.104.701.072 1.301-.642 1.479-.854 1.055-1.256.917-2.798.727-6.479-.232-4.488-.219-5.915.418-7.625.329-.882.718-1.557.988-1.979l3.221-5.875a8.73 8.73 0 0 0 .282-.611c.893-2.15.663-4.072.968-8.056.07-.919.134-1.487.438-1.583.419-.133 1.239.648 1.188 1.313-.033.426-.404.543-.364.871.066.54 1.182.464 1.364.983.262.747-1.802 1.538-1.763 2.973.013.499.284 1.161.763 1.298.225.064.55.029.738-.165.284-.294.03-.719.325-1.064.12-.14.377-.321.604-.271.685.151.49 2.271 1.262 2.459.156.038.291-.018.365-.048.856-.354 1.213-2.442.493-3.91-.471-.96-1.253-1.351-1.08-1.709.123-.255.661-.353 1-.167.458.252.208.834.729 1.458.432.517.883.453.958.833.072.362-.314.534-.5 1.125-.18.572-.025 1.067.042 1.354.157.678.206 1.842-.25 3.979l4.688 1.188a20.271 20.271 0 0 1-.688-2.875c-.294-1.812-.116-2.305.146-2.604.298-.341.479-.17 1.021-.625.71-.596.621-1.074 1.25-1.396.098-.05.714-.365 1.146-.063a.817.817 0 0 1 .333.729c-.045.401-.426.463-.583.792-.407.849 1.23 2.31 1.063 2.479-.095.096-.77-.229-1.25-.813-.368-.448-.411-.79-.774-.917-.282-.098-.689-.041-.802.169-.204.379.642 1.093 1.388 1.998.586.711 1.305 1.774 1.875 3.313l100.375 2.625 13.083-3.167c.495-1.574.261-2.303-.052-2.677-.201-.24-.481-.391-.438-.563.096-.379 1.56-.049 1.844-.625.155-.314-.105-.772-.313-1-.255-.28-.507-.296-1.156-.531-.894-.325-1.341-.487-1.427-.771-.16-.53.975-1.307 1.333-1.542.235-.156.557-.426.688-.844.147-.471-.064-.76.156-1.094.21-.32.703-.512.969-.344.298.189.205.768.178.936-.132.815-.791 1.321-1.074 1.512-.497.41-.603.985-.385 1.271.143.188.44.273.688.219.403-.088.393-.483.781-.625.476-.174.773.317 1.188.156.501-.194.438-1.052.771-1.104.15-.024.378.117.729.792.073.135.179.341.291.599.431.995.337 1.347.606 1.869.348.676 1.156 1.346 1.791 1.219.434-.087.435-.476 1.219-1.156.453-.393 1.072-.931 1.448-.781.474.189.366 1.396.29 2.994a79.607 79.607 0 0 0-.082 4.756c.087 2.414.08 4.344.063 5.563-.059 4.165-.35 7.897 1.156 9.25.162.146.633.568 1.188.5.685-.085 1.102-.871 1.281-1.219.857-1.667.531-3.485.317-5.414-.137-1.232-.186-2.673-.286-5.555a47.725 47.725 0 0 1 .24-6.625 57.713 57.713 0 0 1 .01-5.156c.154-3.23.483-4.206-.156-5.844-.26-.666-.642-1.346-.396-1.583.401-.387 2.252.604 2.184.849a.049.049 0 0 1-.017.026c-.048.042-.075.077-.427.708-.325.583-.488.876-.5.969-.023.172-.015.423.135.74.152.029.384.049.615-.052.4-.175.369-.526.719-.813.55-.451 1.26-.102 1.438-.438.057-.109.073-.315-.229-.74a20.85 20.85 0 0 1-1.083-1.073c-.577-.615-1.063-1.138-1.531-1.906-.485-.797-.728-1.195-.688-1.688.062-.753.636-.905.625-1.625-.012-.752-.646-1.163-.469-1.406.149-.203.571.115 1.344-.031a2.456 2.456 0 0 0 1.177-.604c.221-.208.487-.457.448-.708-.052-.335-.635-.604-1.448-.625.167-.212.468-.54.937-.778.985-.501 1.965-.229 2.668-.034.61.169 1.306.362 1.406.813.102.459-.5.801-.344 1.156.128.29.685.42 1.063.25.55-.247.601-1.077.625-1.469.014-.219.062-1-.406-1.75-.394-.632-.878-.799-.813-1.156.058-.315.487-.472.563-.5.328-.12.788-.105 1.063.125.671.562-.271 1.982.375 2.625.464.462 1.505.284 1.614-.018.074-.202-.309-.361-.52-.982-.031-.09-.274-.827.021-1.078.234-.199.577.102.823-.078.351-.258-.139-1.025.196-1.483.428-.584 1.836-.171 1.929-.142.181.055 1.628.517 1.844 1.656.101.531-.076 1.156-.344 1.219-.311.073-.588-.652-1.125-.625-.197.01-.357.118-.469.219-.062.103-.314.546-.166 1.061.072.253.284.674.573.689.363.019.459-.624.781-.656.503-.05 1.063 1.442 1.781 3.469.682 1.922 1.022 2.884 1.063 3.063.864 3.84-.904 5.821.342 7.065.771.769 2.266.829 2.876.248.59-.562.269-1.646.03-3.092-.327-1.974-.135-3.999-.239-5.997-.269-5.146-.403-7.719.616-10.442 1.319-3.526 3.425-4.534 2.823-6.5-.588-1.919-3.238-3.06-3.042-3.375.147-.236 1.545.532 2.031 0 .09-.099.181-.277.125-.406-.117-.271-.762-.052-1.531-.438-.395-.198-.453-.37-.469-.438-.059-.247.098-.558.313-.625.216-.068.335.162.727.296.338.116.927.177 1.211-.109.315-.318.081-.892.375-1.031a.37.37 0 0 1 .344.031c.452.305-.302 1.615.188 2.156.15.166.449.296 1.094.188.128-.049.303-.14.375-.313.185-.44-.517-.887-.375-1.406.109-.397.575-.345.677-.74.086-.333-.213-.504-.583-1.292-.26-.552-.457-.971-.344-1.406.106-.408.376-.406.719-.875.49-.67.146-.952.594-2.094.358-.913.674-.976.719-1.656.026-.388-.059-.633.125-.875.198-.259.455-.185.969-.375.222-.082 1.143-.423 1.313-1.125a1.13 1.13 0 0 0-.156-.875c-.468-.687-1.573-.431-1.688-.802-.05-.161.079-.463 1.042-1.083.227.082.544.224.865.479.297.236.387.403.53.379.25-.042.515-.648.345-1.098-.255-.676-1.321-.55-1.448-1.094-.112-.478.611-1.007.729-1.094.781-.572 1.7-.454 1.979-.406l4.583-28.25H255.25zm-143.246 76.75c.321.138.239 1.238.016 1.286-.123.026-.158-.291-.518-.471-.306-.153-.488-.026-.749-.211-.185-.131-.327-.36-.27-.448.075-.117.42.144.918.047.364-.071.457-.266.603-.203zM235 271.859c.463.204.685.376.667.516-.029.217-.64.356-1.833.417-.234.003-.359-.025-.375-.083-.037-.131.477-.414 1.541-.85zm-7.167 8.224c-.347.327-.918.061-.958.042-.258-.125-.284-.274-.542-.542-.583-.605-1.238-.661-1.208-.833.024-.138.43-.031.875-.292.555-.326.643-.915.833-.875.193.041.019.635.417 1.083.278.313.552.235.708.542.132.258.112.652-.125.875zm2.25-1.208c-.222.07-.474-.149-.542-.208-.569-.495-.159-1.233-.667-1.75-.394-.402-.958-.278-1.016-.559-.044-.213.244-.456.509-.636.073 0 1.369.01 1.923.983.474.83.223 2.034-.207 2.17zm4.5-.208c.333.354.448.84.292 1.25a1.147 1.147 0 0 1-.527.583 1.907 1.907 0 0 0-.348-.5c-.251-.259-.426-.287-.458-.417-.038-.152.128-.417 1.041-.916zm-.375-3.209c-.232.238-.336.487-.583.5-.187.01-.348-.12-.458-.237-.28-.537-.155-.859-.125-.93.233-.542 1.222-.838 2.375-.417.249.129.295.227.292.292-.013.273-.884.16-1.501.792zm3.959-4.583c-.918.424-1.756-.142-1.792-.167-.141-.187-.149-.302-.12-.375.108-.279.761-.01 1.37-.375.456-.274.454-.643.885-.754.267-.069.522.008.699.087a1.81 1.81 0 0 1-1.042 1.584zm2.375 1.375c-.016.579-.094.68-.167.708-.201.079-.552-.316-.708-.542-.085-.122-.174-.251-.203-.398-.08-.409.314-.915.953-1.268a7.05 7.05 0 0 1 .125 1.5z"/><path style="fill:#fff" d="M239.875 277.813c.408.11.6.547.461.863-.129.292-.528.45-.877.283a.652.652 0 0 1-.229-.667.654.654 0 0 1 .645-.479zM252.063 279.438v.001c.017.061 1.231.008 1.396-.418.198-.511-1.104-1.583-1.104-1.583-.101-.06-.406-.223-.707-.12-.477.163-.683.906-.46 1.433.221.522.795.668.875.687zM253.563 272.438c.987-.17 1.825.582 1.833 1.375.008.725-.678 1.444-1.583 1.438-.813.009-1.469-.641-1.479-1.396-.01-.681.509-1.301 1.229-1.417zM252.438 268.833c-.311-.38-.345-.812-.375-1.188-.022-.272-.042-.527.063-.833.236-.694.882-.985.968-1.022.145-.063.724-.313 1.298-.044.752.353.849 1.295.86 1.42.087 1.01-.656 2.207-1.604 2.25-.485.022-.946-.259-1.21-.583zM256.5 265.333c.03 0 .34-.007.479-.229.192-.306-.081-.794-.313-.813-.242-.02-.578.463-.438.792a.512.512 0 0 0 .272.25zM261.185 264.794c.348.152.909-.382 1.148-.669.12-.144.371-.454.458-.938.056-.312.117-.646-.042-.792-.462-.425-2.589.925-2.438 1.458.043.152.25.156.563.542.211.26.189.346.311.399zM260.229 267.583c.531.074.859.582.75 1.021-.092.368-.479.643-.917.604-.742-.196-1.055-.861-.896-1.229.125-.288.57-.472 1.063-.396zM264.563 266.875c.01-.177.89-.571 1.292-.125.236.261.241.738-.042 1.104-.699.133-.919.05-.979-.063-.084-.156.135-.376.021-.625-.092-.198-.298-.204-.292-.291zM272.646 264.25c.29.049.463.262.792.667.422.52.762.938.667 1.375-.109.501-.761.897-1.583.942-.138.017-.592.056-.958-.234-.526-.417-.471-1.199-.313-1.646.213-.605.83-1.199 1.395-1.104zM276.604 263.083c.484.172.985.078 1.208-.208.304-.39.155-1.218-.583-1.625-.922.087-1.449.72-1.374 1.167.072.433.704.651.749.666zM273.208 258.771c1.081-.034 2.191-1.5 1.734-2.682-.309-.799-1.251-1.257-2.109-1.151-.535.066-1.215.375-1.479.979-.493 1.129.642 2.892 1.854 2.854zM276.667 256.125c.005-.041.09-.649.625-.896.065-.03.421-.186.771-.042.361.149.312.453.688.625.338.155.511-.029.729.146.23.185.278.586.167.875-.081.211-.231.322-.447.48-.248.182-.515.378-.865.377-.193-.001-.441-.147-.938-.441-.488-.288-.583-.4-.646-.521a.975.975 0 0 1-.084-.603zM275.813 252.813a.968.968 0 0 0 .859-.54c.304-.667-.506-1.451-.563-1.505a1.933 1.933 0 0 0-.567-.371c-.195.022-.648.102-.854.438-.402.652.327 1.956 1.125 1.978zM276.125 246.313c.062-.023.749-.273 1.083.042.434.408.099 1.603-.556 1.771a.805.805 0 0 1-.777-.25c-.311-.36-.261-1.047.25-1.563zM277.271 242.75c.095-.685.391-.948.521-1.042.713-.516 2.194-.111 3.458 1.271-.612 1.044-1.778 1.499-2.708 1.167-.904-.323-1.227-1.262-1.271-1.396zM278.438 239.896c.14.144.361.323.625.313.383-.016.48-.417.875-.625.737-.388 1.548.405 1.917.125.209-.159.278-.664-.333-2.188-.661.908-1.165 1.083-1.514 1.058-.36-.026-.478-.259-.861-.225-.551.049-1.153.606-1.063 1.083.015.081.071.275.354.459zM277.979 236.771c.203.222.627.319.875.167.363-.223.045-.793.375-1.813.198-.612.404-.688.354-1.041-.082-.587-.753-1.115-1.146-1.001-.267.078-.267.414-.604.503-.285.075-.445-.124-.625-.044-.153.068-.291.324-.229 1.146-.064.235-.116.569.062.771.172.195.395.081.605.271.309.279.045.726.333 1.041z"/></g><g><path style="fill:#fff" d="M102.438 197.663c-.326 7.673.375 20.653 7.859 33.773 18.856 33.051 62.368 34.735 65.25 34.802 5.461-.039 38.651-.804 61.894-26.819 14.496-16.224 17.814-34.088 18.754-41.756H102.438zm126.341 7.533c-.617 1.204-2.11 1.307-2.176 1.31-.512.279-1.184.753-1.331 1.474-.144.705.341 1.026.127 1.637-.293.835-1.374.743-1.606 1.556-.183.64.394 1.026.142 1.383-.38.537-1.824-.147-2.424.541a1.926 1.926 0 0 0-.332.62c-.087.265-.159.482-.091.69.163.5.964.426 1.056.819.073.308-.321.772-.708.798-.46.031-.655-.576-1.067-.553-.217.012-.512.2-.835 1.013-.926-1.32-1.549-1.917-1.87-1.791-.156.061-.24.293-.254.696.393 2.992.237 3.995-.118 4.097-.458.133-1.151-1.265-1.783-1.068-.342.107-.569.65-.421.923.135.25.497.116.843.427.239.215.405.583.338.942-.08.427-.476.777-.992.868a5.053 5.053 0 0 1-1.528-.186c-1.473-.419-2.133-1.368-2.678-1.092-.274.139-.394.525-.549 1.023-.086.277-.136.445-.084.655.092.378.474.744.845.737.434-.008.495-.52 1.014-.614.446-.08 1.006.188 1.056.491.072.429-.913.71-.861 1.229.041.405.671.558.607.777-.052.179-.528.264-.93.164-.225-.056-.518-.193-1.014-.819-.745-.939-.685-1.386-1.31-1.801-.083-.055-.645-.429-.93-.246-.314.203.03.882-.338 1.187-.302.251-.734-.041-.993.215-.2.198-.209.639-.021.931.414.642 1.544.199 2.197.86.327.331.389.791.391 1.126-.061.192-.19.491-.475.635-.571.288-1.302-.281-1.479-.082-.222.251.892 1.199.612 1.743-.156.303-.674.339-1.228.378-1.351.094-2.235-.322-2.343-.115-.084.163.45.44.845 1.228.149.296.224.558.264.727-.925.18-.975.197-1.109.215-1.26.168-2.204-.626-2.366-.409-.156.208.723.929.549 1.187-.195.29-1.398-.474-2.028 0-.407.306-.212.855-.634 1.064-.343.17-.622-.116-1.191-.177-.963-.104-2.094.51-2.147 1.078-.06.64 1.28.917 1.225 1.525-.046.51-1.009.545-2.493 1.341-1.637.878-2.36 1.85-2.863 1.576-.367-.2-.143-.805-.56-1.003-.397-.189-.683.323-1.817.532-.499.092-.793.058-.951.287-.171.248.053.465-.063.819-.146.445-.726.788-1.243.807-.768.028-1.142-.668-1.514-.49-.258.123-.125.481-.412 1.115-.136.3-.407.902-.994 1.14-.643.26-1.499.014-1.922-.485-.424-.5-.144-.939-.507-1.187-.547-.374-1.288.545-2.366.287-.742-.178-.995-.757-1.394-.614-.449.161-.372.98-.676 1.023-.399.057-.628-1.337-1.394-1.474-.447-.08-.579.357-1.331.668-1.155.478-2.402.093-3.275-.177a7.31 7.31 0 0 1-1.669-.757c-2.022-1.492-2.753-1.569-3.042-1.351-.289.218-.082.688-.528 1.371-.339.519-.947.997-1.268.86-.324-.139-.119-.806-.592-1.146-.211-.152-.466-.172-.655-.164-1.405.777-1.97.737-2.218.532-.535-.441.118-1.869-.357-2.109-.347-.175-.797.536-1.46.39-.52-.115-.498-.61-1.056-.737-.257-.058-.636.084-1.394.368-.773.29-.852.403-.887.491-.148.373.308.744.129 1.027-.098.154-.328.194-.552.201-.988.032-1.901-.565-2.451-.86-.594-.318-1.494-.674-2.789-.778-.208-.037-1.477-.279-1.986-1.31a1.988 1.988 0 0 1-.19-.655c-1.189.171-1.487.104-1.521 0-.064-.197.851-.435 1.035-1.146.127-.488-.122-1.079-.423-1.146-.239-.054-.342.261-.803.328-.238.034-.436-.023-.822-.14a6.288 6.288 0 0 1-.91-.351c-2.058-1.025-2.607-.812-3.338-1.597-.239-.256-.453-.571-.761-.553-.304.018-.434.345-.886.413-.032.005-.303.043-.508-.044-.645-.274-.056-1.539-.789-2.479-.19-.244-.751-.558-1.873-1.184a23.928 23.928 0 0 0-.761-.409c-.194-.403-.368-.934-.127-1.31.277-.432.915-.368.93-.573.02-.276-1.107-.851-2.155-.614-.517.117-.658.35-1.265.401-.444.037-1.115-.026-1.186-.278-.093-.334.987-.581 1.268-1.515.103-.343.115-.835-.127-.982-.273-.166-.818.138-1.141.45-.597.578-.495 1.245-1.008 1.401-.044.013-.287.087-.449-.03-.392-.282.186-1.307-.148-1.576-.134-.108-.43-.108-1.12.287a1.96 1.96 0 0 0 .671-.601c.391-.576.158-.983.585-1.607.236-.345.337-.263.566-.62.33-.513.203-.806.389-1.315.354-.965 1.302-1.241 1.189-1.465-.088-.176-.721-.113-1.174.136-.41.225-.608.568-.685.724-.135-.045-1.554-.498-2.282.205-.08.077-.363.35-.296.614.123.485 1.304.445 1.352.778.02.141-.163.347-.887.655.069.196.614 1.796-.092 2.363-.157.126-.522.318-.711.175-.144-.109-.159-.395-.021-.691.374-1.426.221-1.903-.021-2.052-.39-.24-1.118.306-1.437 0-.169-.163-.113-.46-.084-.614.172-.92 1.254-1.412 1.498-1.516l1.798-.653c.002-.151-.021-.362-.169-.491-.28-.244-.694.072-1.014-.123-.437-.266-.062-1.096-.507-1.392-.267-.178-.752-.111-.964.13-.315.356.147.892-.177 1.426-.154.254-.32.234-.676.491-.893.646-1.099 1.679-1.225 1.637-.127-.042.316-1.014-.127-1.474-.227-.235-.493-.137-.634-.368-.249-.41.394-1.04.211-1.228-.145-.15-.603.194-1.437.327a4.074 4.074 0 0 1-.93.041l.57-3.009c-.174-.07-.433-.142-.697-.061-.499.153-.546.709-.972.86-.214.075-.562.063-1.141-.368.39-1.953.055-2.734-.391-3.06-.457-.334-1.018-.181-1.267-.609-.285-.489.325-.9.179-1.776-.115-.689-.629-.777-.676-1.433-.032-.439.151-.896.38-1.146.993-1.084 3.667.824 7.056.368a8.314 8.314 0 0 0 2.916-.982c1.028-.158 1.774-.013 2.282.164.67.233.915.518 1.394.45.685-.097.673-.748 1.438-1.185 1.011-.579 2.633-.359 3.591.326.38.271.501.506.887.573.639.112 1.263-.362 1.69-.778.396-.068.939-.093 1.352.205.508.367.407.925.845 1.31.291.256.848.46 2.023.176 1.057.391 2.26.659 2.878.111.543-.481.171-1.176.761-1.719.716-.66 2.083-.392 3.254-.164 1.108.217 1.19.428 1.986.532 1.183.154 1.989-.186 3.127-.532.73-.222 5.695-1.734 6.659-.392.278.387.106.849.482 1.047.423.223 1-.169 1.732-.532a11.288 11.288 0 0 1 2.789-.942c1.962-.589 3.397-.469 4.352-.246.439.103.333.124 1.69.532 2.919.878 3.531.818 3.93.532.525-.377.323-.892.761-1.064.993-.392 2.559 2.052 3.254 1.719.178-.085.364-.384.226-1.474a5.845 5.845 0 0 1 2.056.45c1.249.531 1.595 1.23 2.409 1.269.49.024 1.187-.19 2.07-1.269 1.781-1.172 2.569-1.149 2.958-.901.49.313.294.948.845 1.269.552.321 1.07-.13 2.662-.368.976-.146 1.832-.275 2.197.143.266.304.099.698-.127 1.781-.351 1.686-.707 3.395 0 3.93.29.219.699.215.887.184.729-.117 1.097-.397 1.299-.644.634-.777.063-1.764.349-3.306a5.367 5.367 0 0 1 .792-1.944c1.932.355 3.44.223 4.49.02 2.265-.437 3.62-1.437 5.704-.942.665.158.82.33 1.521.614 2.524 1.024 4.913.587 6.676.368 2.087-.258 5.067-.429 9.085-.061.063.225.191.889-.161 1.575z"/></g><g><path style="fill:#fff" d="M76.167 109.354c.937-.034 1.937.998 2 2.146.066 1.191-.881 2.412-2 2.417-.791.003-1.481-.602-1.75-1.25-.554-1.335.502-3.267 1.75-3.313zM73.167 104.75c.578-.231 1.398.359 1.583 1.083.163.636-.147 1.437-.667 1.583-.618.174-1.429-.61-1.5-1.417-.039-.446.134-1.069.584-1.249zM70.281 99.781c.427-.115.983.512 1.219 1 .074.153.473.98.031 1.5a.992.992 0 0 1-.969.313c-.367-.096-.554-.411-.625-.531-.477-.805-.199-2.135.344-2.282zM76.813 92.875c.026-.151.192-1.181-.219-2.031-.904-1.872-4.336-2.324-6.438-1.156-.202.112-1.611.895-1.531 1.844.039.464.423.844 1.594 1.5 2.279 1.278 4.568 2.562 5.781 1.594.592-.474.741-1.333.813-1.751zM82.813 90.188c1.212 1.795 1.237 2.589.969 2.969-.244.345-.708.318-1.281 1-.316.376-.337.577-.642.732-.538.273-1.152-.006-1.233-.044a1.667 1.667 0 0 1-.813-.875c-.149-.351-.298-.871-.094-1.344.204-.474.653-.646 1.25-1a9.573 9.573 0 0 0 1.844-1.438zM82.938 98.031c.129-.214.348-.502.705-.673.533-.256.859-.007 1.331-.282.508-.295.529-.816.776-.795.26.022.196.594.656 1.125.52.601 1.076.417 1.313.906.153.318-.033.493-.219 1.438-.249 1.265-.016 1.462-.313 1.844-.447.575-1.379.645-1.992.51-.108-.024-.844-.198-1.338-.867a2.202 2.202 0 0 1-.326-.643c-.273-.872.134-1.517-.236-1.84-.113-.098-.259-.133-.339-.313a.63.63 0 0 1-.018-.41zM89.844 90.344c.187-.113.525-.281.781-.156.562.274.495 1.846-.031 2.063-.32.131-.905-.2-1.083-.732a1.103 1.103 0 0 1 .333-1.175zM78.688 82.313c.067-.428.296-.801.625-.906.614-.196 1.419.595 1.313 1.219a.722.722 0 0 1-.391.526c-.426.195-1.111-.097-1.547-.839zM83.695 85.075c.343-.727 1.63-1.003 2.461-.513.417.246.625.629.719.844.214.779-.019 1.469-.438 1.656-.358.16-.83-.057-.906-.094-.332-.159-.3-.308-.625-.5-.521-.308-.861-.076-1.125-.344-.244-.247-.235-.731-.086-1.049zM91.219 72.969c.238.034.623.058 1.063-.063.685-.189 1.765-.802 1.688-1.62-.048-.514-.54-.96-1.157-1.193-.545.355-.986.682-1.313.938-.644.505-.78.682-.813.906-.069.484.388.907.532 1.032zM92.563 84.781c.187-.448.683-.564.813-.594.377-.088.96-.047 1.25.344.421.567.068 1.656-.651 1.844-.526.137-1.083-.251-1.317-.688-.053-.096-.267-.494-.095-.906zM98.25 68.5c2.262-1.051 4.575-.324 5.313 1.125.531 1.043.417 2.8-.719 3.625-.664.482-1.433.468-1.781.438a2.787 2.787 0 0 1-.5-.188c-2.068-1.008-2.28-4.269-2.313-5zM93.688 77.75c.01.078.093.635.594.938.331.2.896.319 1.313-.031.345-.29.463-.798.281-1.25a.92.92 0 0 0-.519-1.065c-.427-.183-.913.009-1.075.284-.122.208-.025.404-.188.531-.174.136-.406.004-.5.125-.046.057-.064.179.094.468zM86.682 79.641c.723.045 1.25-.453 1.313-.514.712-.693.763-1.958.318-2.302-.204-.158-.379-.018-.603-.21-.346-.295-.125-.791-.428-1.085-.12-.116-.358-.235-.885-.143-.183.019-1.377.161-1.805 1.003-.619 1.219.736 3.166 2.09 3.251z"/><path style="fill:#fff" d="M111.75 68.833c-.213 1.792.118 2.434.5 2.667.241.147.459.104 1.094.281a6.62 6.62 0 0 1 1.365.552 2.848 2.848 0 0 1-1.792 1.584 2.809 2.809 0 0 0-.573 1.24c-.096.512-.027.937.031 1.177l-1-.292c-.366-.542-.367-.909-.313-1.135.15-.619.855-.728 1.188-1.469.189-.421.166-.839.125-1.104a11.09 11.09 0 0 0-3.708.709c-.13.013-.676.083-1.073.552a1.58 1.58 0 0 0-.344.74c-.051.279-.17.696-.5 1.045-.413.436-.887.48-.96.826-.031.145 0 .385.377.755.519.614.797.702.957.643.242-.089.193-.508.476-.991.257-.44.652-.701.984-.86.092.078.833.725.76 1.688a1.886 1.886 0 0 1-.344.938 3.493 3.493 0 0 0-2.094.219 3.477 3.477 0 0 0-1.448 1.198c-.028-.401-.301-.724-.646-.792-.367-.072-.653.177-.688.208l-.333 1.167.333 3.125c-1.462.092-2.02-.245-2.25-.594-.177-.268-.232-.653-.625-.938a1.474 1.474 0 0 0-.75-.26c-.339.143-.767.393-.906.823-.282.873.832 1.862.531 2.219-.223.264-.924-.169-1.469.25a1.011 1.011 0 0 0-.281.344c.971 1.144.871 2.666.068 3.37-.787.69-1.976.355-2.068.328a4.19 4.19 0 0 1-.656 1.24 4.175 4.175 0 0 1-1.344 1.135c.77.491 1.188 1.373 1.063 2.24-.145 1.005-.993 1.813-2.063 1.927-.525 1.964-1.218 2.581-1.781 2.76-.283.09-.927.194-1.125.656a.86.86 0 0 0-.031.531c.134.043.377.142.563.375.381.478.196 1.112.156 1.25-.289.995-1.504 1.287-1.573 1.302v2.917c-.057-.041-.777-.537-1.615-.219-.731.277-.977.956-1.01 1.052l.958 1.333-1.416.955.792 1.583a7.187 7.187 0 0 0-2.542.323 7.015 7.015 0 0 0-.938.375c.057-.406-.135-.779-.438-.906-.412-.174-.88.169-1.031.5-.115.252-.031.566.14 1.184.18.647.297.758.224.983-.131.407-.729.711-1.021.552-.35-.19-.045-.925-.475-1.219-.237-.163-.599-.124-.838.032-.319.209-.358.589-.375.75-.033.318.061.585.156.781.444.919 1.221.937 1.689 1.677.181.287.361.753.28 1.51-.22.395-.697.528-1.031.344-.263-.145-.41-.471-.352-.805l-.117-1.122-1.542-.208c.472-1.203.278-1.573.135-1.708-.101-.096-.208-.104-.906-.375a26.824 26.824 0 0 1-.521-.208l-.104 1.083c.036.272.115.676.313 1.125.319.727.707 1.022 1 1.469.296.45.582 1.185.458 2.406h-1.917c-.208.016-.445.072-.573.25-.227.315.074.749-.094.938-.121.136-.473.131-1.375-.313-.168-.044-.406-.075-.625.031-.706.341-.4 1.7-.813 3.719-.318 1.557-.926 2.828-1.236 2.781-.234-.035-.148-.801-.563-.956-.389-.145-.939.352-1.201.706-.517.699-.421 1.533-.375 1.813l-3.021-4.26-.229 26.417 4.375.125 83.224-81.042H111.75zm5.523.566c.314-.315 1.041-.223 1.807.23a.821.821 0 0 1-.417.279c-.226.059-.333-.037-.559.051-.165.064-.152.132-.336.203-.104.04-.3.115-.455.027-.148-.084-.219-.294-.188-.521a.588.588 0 0 1 .148-.269zm-2.777.709c-.666-.074-1.002-.168-1.009-.282-.002-.034.025-.069.08-.107.099-.104.199-.17.287-.214.669-.332 1.475.23 1.549.283a.567.567 0 0 1-.239.382c-.193.125-.464.102-.668-.062zm.504 4.996c-1.005-.319-1.237-.559-1.229-.729.009-.209.379-.278.771-.625.424-.376.625-.859.729-1.25.128-.129.306-.266.479-.229.29.062.318.56.542 1.021.503 1.034 1.65 1.166 1.604 1.458-.031.194-.576.385-2.896.354zm5.5-2.25c-.355-.198-.489-.406-.714-.361-.21.041-.24.251-.378.241-.265-.018-.226-.785-.616-.943-.324-.131-.623.29-1 .146-.198-.076-.31-.266-.375-.417-.036-.1-.067-.238 0-.333.169-.241.757.092 1.313-.083.253-.08.571-.288.854-.854.017.337.057.823.162 1.29.029.13.074.306.213.376.151.076.256-.048.417.021.177.076.124.26.354.479.122.116.154.081.354.229.143.106.439.355.396.438-.05.093-.551.01-.98-.229zm1.979-1.604c-.215-.049-.493-.152-.646-.396-.181-.288-.039-.535-.229-.708-.233-.213-.592.025-.812-.201-.115-.117-.16-.327-.104-.445.1-.213.622-.331 2.5.104.481.417.54.588.5.667-.073.142-.465-.029-.792.167-.281.168-.379.527-.417.812zm.822.632a.413.413 0 0 1-.155-.197 1.33 1.33 0 0 1 .438-.352c.426-.21.836-.116.958-.083l-.458.435c-.266.251-.589.322-.783.197z"/><g><path style="fill:#fff" d="M280.5 114.833c-.457-.28-.861-.19-1.206-.335-.149.145-.245.411-.314.61-.173.492-.068.667-.234.795-.263.202-.653-.142-.933.077-.204.16-.143.459-.292.497-.127.033-.289-.155-.422-.352-.295-.199-.339-.323-.324-.4.025-.125.204-.116.476-.329.25-.196.241-.317.417-.375.234-.078.358.099.521.063.363-.081.342-1.094.47-1.614-.028-.045-.056-.089-.111-.11-.387-.144-.92.688-1.151.557-.206-.116.214-.773-.083-1.396-.218-.456-.769-.786-1.106-.669-.211.074-.156.26-.498.523-.107.082-.308.169-.678.324.122.184.084.666-.156 1.02-.233.344-.479.303-.656.656-.177.352-.078.685-.172.703-.107.021-.163-.433-.563-.703-.206-.139-.313-.101-.531-.203-.481-.225-.362-.663-.734-.875-.399-.227-.653.151-1.047-.078-.277-.161-.21-.383-.703-.969-.079-.094-.171-.189-.355-.379-.635-.654-.853-.781-.816-.965.032-.16.246-.304.406-.281.216.03.267.305.656.594.34.252.583-.095.97.105.382.197.279.561.686.77.327.168.486-.02.75.156.345.23.223.652.5.844.166.115.482.152 1.141-.203-.174-.122.142-.568-.067-.937-.163-.286-.442-.174-.651-.433-.372-.461.218-1.238-.104-1.542-.241-.227-.768.013-.818-.12-.048-.128.469-.271.531-.625.048-.27-.204-.459-.766-1.172-.216-.275-.386-.51-.5-.672-.273-.131-.539-.19-.734-.078-.192.11-.18.309-.38.396-.235.102-.607-.017-.667-.208-.084-.269.506-.498.5-.938-.003-.251-.2-.456-.375-.594-.124-.042-.71-.228-1.146.052a1.906 1.906 0 0 0-.636.776c.012.417.131.693.24.87.298.484.739.578.918 1.087.072.204.072.392.061.517-.101.105-.394.383-.828.417-.576.045-1.145-.357-1.318-.833-.258-.711.422-1.426.104-1.729-.116-.11-.314-.118-.443-.078-.165.051-.276.199-.411.516-.342.801-.222 1.246-.542 1.458a.638.638 0 0 1-.422.089c-.395-.744-.345-1.17-.224-1.422.119-.248.313-.336.625-.771.205-.285.335-.543.411-.714.229-1.34.238-2.046.026-2.12-.134-.046-.355.16-.664.618-1.377-.118-1.838-.52-2.002-.868-.149-.315-.025-.523-.234-.755-.459-.51-1.537-.039-1.724-.411-.108-.214.226-.416.115-.729-.122-.341-.597-.322-.718-.663-.073-.206.025-.428.108-.571.54-.093.756.009.849.13.174.226-.038.569.172.856.117.159.305.221.448.249.101-.044.281-.139.422-.333.293-.404.16-.882.141-.948 2.007.265 2.55.143 2.609-.052.044-.143-.191-.27-.172-.587.02-.344.31-.438.391-.806.033-.152.039-.386-.125-.711.1-.007.578-.05.948-.458.353-.389.365-.842.365-.948.723.411 1.519.802 1.679.609.031-.038.041-.101-.043-.37a4.432 4.432 0 0 0-.557-1.146c-.013-.367.041-.804.328-1.125.381-.426.909-.355.938-.563.046-.33-1.21-1.043-1.75-.667-.44.306-.036 1.079-.589 1.889-.232.34-.52.521-.952.757-2.19 1.194-3.899 2.125-5.208 1.396a2.16 2.16 0 0 1-.531-.422c-.191-.045-.445-.072-.594.068-.205.192-.028.531-.187.854-.093.189-.318.407-.906.516.514-.506.73-1.168.531-1.703a1.235 1.235 0 0 0-.354-.5 1.532 1.532 0 0 1-.104.229c-.022.04-.202.355-.5.542-.365.229-1.009.328-1.271.042-.3-.328.084-.962-.229-1.188-.148-.106-.356-.054-.448-.031-.327.082-.503.366-.615.552-.282.47-.111.633-.333.896-.29.343-.625.118-1.021.458-.418.359-.358.879-.609.906-.224.024-.435-.372-.453-.406-.28-.538.039-1.02-.25-1.563a.553.553 0 0 0-.208-.229c-.218-.125-.475-.037-.557-.005a2.525 2.525 0 0 0-.63.38c-.476.394-.639.833-.76.793-.161-.053.129-.837-.198-1.085-.197-.149-.386.069-.917-.042a1.811 1.811 0 0 1-.729-.354c-.074-.06-.393-.318-.333-.458.049-.117.303-.018.563-.167a.817.817 0 0 0 .373-.533c.08-.648-2.14-1.446-2.435-1.551a98.699 98.699 0 0 0-6.854-2.125c-3.546-3.931-4.125-5.288-3.938-5.771.033-.084.245-.542.049-.805-.146-.196-.376-.092-.591-.278-.242-.21-.126-.496-.25-1.229-.084-.497-.175-1.033-.5-1.146-.249-.087-.54.109-.563.125-.228.158-.195.331-.407.501-.216.174-.583.264-.698.144-.25-.262.869-1.354.561-1.819-.247-.374-1.147.061-1.582-.472-.159-.195-.143-.38-.417-.625-.227-.203-.446-.262-.438-.375.004-.059.07-.138.365-.219a5.206 5.206 0 0 0 2.969-1.989 5.152 5.152 0 0 0-.833.229c-.311.114-.448.199-.854.354-.504.192-.758.287-.857.201-.127-.11-.001-.37.19-1.097.239-.911.234-1.236.385-1.26.275-.044.43 1.017.893 1.063.307.031.527-.406 1.304-1.657.739-1.19 1.109-1.785 1.396-2.167.77-1.024 1.161-1.229 1.063-1.563-.15-.509-1.248-.678-1.958-.604a3.545 3.545 0 0 0-1.354.458c-.411.249-.471.415-.894.609-.409.188-1.045.35-1.19.141-.16-.232.436-.696.268-1.13-.085-.218-.322-.323-.663-.433-1.167-.375-1.504-.142-2.125-.375-.897-.336-.784-1.042-1.833-1.646a3.621 3.621 0 0 0-1.563-.458l-35.688-1.458 90.031 82.875v-33.969c-.22-.619-.532-.916-.786-1.072zm-18.864-15.315c.149-.16.359-.042.658-.142.245-.081.283-.213.553-.424.352-.274.6-.452.871-.424.213.023.258.157.482.294.708.432 1.614-.088 1.718.141.052.114-.127.344-.318.435-.119.057-.229.054-.272.053-.676-.024-1.198-.231-1.764-.158-.441.056-.812.259-.812.259-.239.131-.349.25-.624.318-.058.014-.469.115-.565-.047-.047-.083-.005-.221.073-.305zm-5.777.451c-.584.092-1.138-.021-1.141-.109-.002-.07.342-.023.656-.281.311-.255.323-.588.484-.594.082-.003.197.078.344.438.413.059.511.13.516.188.012.132-.472.297-.859.358zm7.797 5.265c.299-.142.72-.011.953.354a2.389 2.389 0 0 0-.656.318c-.174.121-.272.227-.391.203-.14-.028-.22-.22-.266-.375.011-.046.082-.367.36-.5zm-.765 3.735c-.128.234-.049.437-.219.578a.478.478 0 0 1-.313.094c-.093-.047-.265-.154-.297-.328-.037-.199.128-.377.313-.578.13-.142.257-.238.344-.297.58-.02.725.026.734.078.017.089-.381.122-.562.453zm1.25 2.515c-.109.224-.032.365-.178.492a.48.48 0 0 1-.509.055.49.49 0 0 1-.276-.448c.079-.091.174-.228.22-.409.09-.357-.089-.572-.006-.94.026-.115.083-.269.219-.438.083-.228.138-.269.172-.266.122.011.011.58.349.949.271.296.643.258.651.418.007.179-.451.193-.642.587zm15.461 4.641c.085-.201.158-.237.205-.238.072-.002.136.077.402.676.183.412.215.518.167.566-.057.057-.202.006-.313-.045a1.637 1.637 0 0 0-.333-.354c-.132-.103-.218-.135-.25-.229-.044-.127.041-.272.122-.376zm-1.998 2.167c.692-.035 1.175.479 1.5.25.172-.121.072-.291.313-.5.179-.156.285-.105.646-.292.322-.167.392-.286.458-.25.144.079-.259.604-.167 1.333.063.5.322.802.146 1.156a.692.692 0 0 1-.199.239c-.174.06-.423.113-.635.001-.307-.163-.26-.527-.553-.632-.236-.084-.336.128-.697.048-.222-.049-.303-.156-.438-.104-.151.058-.136.226-.29.276-.123.039-.28-.02-.368-.116-.148-.162-.024-.348-.154-.472-.149-.143-.406.01-.513-.117-.046-.054-.072-.168.05-.438l-.016-.007c.19-.15.509-.354.917-.375zm.834 3.25c-.322-.051-.526-.278-.604-.375.136-.055.441-.153.771-.042.169.057.406.19.388.292-.02.106-.32.162-.555.125zm.554 3.998a.527.527 0 0 1-.159.231c-.228.187-.63.157-1-.083.122-.398.482-.609.768-.537.263.067.377.353.391.389zm-2.511-11.288c.198-.103.439-.148.439-.148.009.001.166.022.229.162a.284.284 0 0 1 .005.213.432.432 0 0 1-.366.246.436.436 0 0 1-.309-.121l-.004-.001c-.189-.064-.275-.041-.291-.073-.022-.049.123-.187.297-.278zm-1.246 1.352c.093-.143.286-.212.486-.173.32.153.508.457.471.745-.045.352-.419.622-.573.557-.118-.05-.022-.261-.22-.533-.101-.138-.195-.18-.22-.322-.001-.016-.023-.151.056-.274zm-.443 3.417c.207-.183.232-.45.313-.438.067.01.088.201.104.333.026.213.104.84.188 1.063.26.691 1.769.664 1.758.784-.007.083-.731.07-1.632.089-.903.018-1.826.064-1.834-.018-.008-.074.759-.071.938-.479.102-.233-.022-.519-.167-.75-.389-.185-.471-.281-.458-.333.026-.115.482.021.79-.251zm-8.867-5.663c-.182-.05-.288-.371-.191-.608.087-.214.307-.286.344-.297.196.08.326.254.328.438.003.279-.289.52-.481.467zm.778 1.001a.682.682 0 0 1-.297.056c-.011-.015-.128-.179-.063-.368a.41.41 0 0 1 .391-.266c.05.001.278.008.328.125.059.137-.151.362-.359.453zm1.625-2.015c-.036.397-.101.527-.156.609-.031.046-.188.282-.469.359-.294.08-.656-.031-.656-.031s-.244-.251-.234-.469c.009-.222.276-.249.313-.469.034-.206-.166-.398-.391-.609-.504-.474-.764-.419-.828-.656-.114-.425.594-1.063.594-1.063.293.02.632.089.734.313.115.251-.164.491-.047.703.165.298.815.003 1.094.344.12.148.095.421.046.969zm1.473 4.907c-.084.026-.204-.127-.239-.173-.162-.121-.172-.324-.094-.406.078-.081.278-.081.406.071.044.279.011.482-.073.508zm-.035-1.751a1.54 1.54 0 0 1-.813-.188 1.11 1.11 0 0 1 .516-.344c.117-.035.324-.097.531 0 .143.067.312.223.281.344-.04.16-.41.182-.515.188zm.487.908c-.017-.057.11-.111.305-.3.185-.178.305-.357.379-.483.17.243.16.545 0 .719-.219.238-.656.161-.684.064zm1.289 5.009c.008-.341-.089-.511-.188-.604-.09-.085-.188-.112-.229-.229-.041-.116-.01-.278.083-.333.13-.076.357.066.458.208.165.23.108.606-.124.958zm1.271-3.042c-.352.538-.547.836-.656.797-.178-.064.125-.942-.203-1.141-.187-.113-.403.102-.719-.047-.033-.015-.286-.135-.313-.328-.041-.296.495-.413.844-.922.254-.371.427-.978.219-1.406-.329-.676-1.492-.667-1.469-.844.014-.102.393-.035 1.137-.228.326-.084.52-.167.613-.071.121.124-.117.36-.015.659.091.267.332.231.578.578.189.267.095.357.25.578.319.455.978.448.969.547-.012.125-1.056.004-1.172.328-.073.202.295.361.297.766-.001.092-.019.213-.36.734zm1.083 4.313c-.087.001-.16-.111-.208-.208-.014-.036-.129-.359.063-.646a.69.69 0 0 1 .375-.271c.336-.103.733.05.741.182.007.116-.297.101-.574.402-.241.259-.26.539-.397.541zm1.167 3.062c-.165-.048-.363-.129-.378-.257-.01-.086.068-.146.156-.269.078-.109.172-.28.222-.537.04.188.123.409.313.563.26.211.581.177.586.243.002.049-.178.128-.899.257zm1.5-.896c-.203-.133-.258-.296-.375-.479-.361-.564-.866-.615-.829-.812.034-.181.446-.062.829-.397.165-.144.145-.216.563-.833.257-.381.332-.453.375-.438.121.045-.184.75.133 1.097a.605.605 0 0 0 .346.174.778.778 0 0 1 .208-.542.783.783 0 0 1 .6-.229 2.986 2.986 0 0 1-.1 1.646c-.591-.179-.839-.123-.938 0-.203.254.192.848 0 1-.081.064-.226.019-.356-.042a.93.93 0 0 1-.456-.145zm.895 2.021c.247-.268.485-.451.646-.563.08-.054.401-.261.604-.146.253.144.227.732-.042 1.083a.984.984 0 0 1-.5.333c-.139.03-1.028.218-1.136-.025-.066-.147.176-.409.428-.682zm-.286 4.794c-.012-.103.299-.242.932-.419.376-.068.578-.068.604 0 .034.088-.223.289-.771.604-.5-.034-.755-.096-.765-.185zm1.79 1.388c.265-.327.222-.701.213-.765.399.259.576.678.47.938-.129.316-.733.529-1.313.188.078-.013.395-.071.63-.361zm.351 6.693c-.63-.411-.718-.716-.708-.896.005-.106.045-.171.229-.75l.104-.333c.12.03.468.136.667.458.263.427.161 1.063-.292 1.521zm.625-11.437c-.812-.2-.986-.31-.979-.375.009-.083.312-.084.771-.333.09-.049.162-.094.208-.125.222.079.35.297.313.5a.45.45 0 0 1-.313.333zm.395-2.959c-.245.018-.457-.306-.396-.479.076-.214.593-.267.708-.083.099.156-.054.543-.312.562zm.313-1.291c-.096.01-.355.025-.625-.125a1.06 1.06 0 0 1-.375-.354c-.044-.183-.079-.414.021-.479.059-.039.141-.003.209.018.154.046.397.058.77-.122.052.102.149.329.125.625a1.182 1.182 0 0 1-.125.437z"/><path style="fill:#fff" d="M251.438 86.979c-.664.171-1.4.728-1.604 1.542-.228.909.32 1.681.417 1.813.459.451 1.18.999 2.17 1.239.55.133 1.401.339 1.851-.093.494-.474.056-1.282.542-1.667.494-.391 1.23.222 1.532-.074.569-.559-1.123-3.646-1.979-3.45-.254.058-.198.351-.573.608-.688.468-1.367-.173-2.356.082zM244.729 83.885c.505.191 1.453.266 1.876-.406.312-.497.222-1.217-.25-1.729-.129-.456-.487-.798-.923-.878-.407-.074-.884.081-1.077.399-.137.224-.014.335-.146.688-.169.452-.449.474-.5.75-.079.424.469.968 1.02 1.176zM240.042 71.875c.152.063 1.073.435 1.694.008 1.07-.736.338-3.219-.078-3.253-.099-.008-.193.121-.262.245-.28.133-.597.331-.896.625-.287.283-.942.929-.813 1.688.053.306.217.537.355.687zM245.771 72.313c.481.376 1.095.406 2.146.458.915.045 1.436.071 1.78-.274.521-.523.104-1.366.595-1.684.444-.287 1.03.243 1.333-.021.319-.277.082-1.221-.27-1.714-1.22-1.712-5.571-.43-6.112-.266-.459 1.453-.282 2.867.528 3.501zM249.667 75.104c-.398-.439-1.147-.269-1.688-.146-.397.09-.691.157-.875.415-.254.357-.189.927.146 1.46.335.45.881.679 1.409.587.729-.127 1.032-.799 1.091-.941.02-.047.356-.89-.083-1.375zM251.008 80.048c-.13.169-.275.357-.238.577.032.188.188.302.5.521.413.29.619.436.771.375.23-.092.299-.613.167-1.271-.011-.345-.169-.639-.396-.708-.334-.103-.667.328-.804.506zM255.938 80.375c.591.248 1.14.118 1.333.063a.942.942 0 0 0 .333-.5c.096-.411-.205-.697-.75-1.521-.693-1.048-.723-1.368-1.083-1.438-.133-.026-.495-.052-1.021.461-.076.257-.215.866.021 1.56.08.236.351 1.034 1.167 1.375zM255.771 83.604c-.038.508.265.889.36 1 .166.074.534.211.994.146.204-.029.678-.096.945-.468.279-.389.24-.985-.091-1.49-.097-.117-.378-.426-.801-.469-.678-.069-1.355.58-1.407 1.281zM259.598 90.382c.194.133.378.204.506.243.081-.009.683-.09 1.042-.646.025-.039.405-.646.167-1.188-.172-.391-.51-.396-1.188-.979a5.622 5.622 0 0 1-.583-.583c-.656-.012-.9.261-.958.333-.41.509.044 1.408.333 1.979.24.476.476.7.681.841zM265.354 90.646c.353.246.73.51 1.085.37.404-.159.527-.742.499-1.12-.046-.604-.501-.959-.583-1.021-.048-.039-.462-.362-.979-.229-.467.12-.82.56-.813 1 .008.453.397.725.791 1zM260.54 92.735c-.221.187-.074.514-.353.849-.19.228-.314.142-.521.354-.334.342-.355.916-.251 1.313.107.409.356.671.49.791.116.054.81.365 1.512.042.769-.354 1.117-1.272.958-2.042-.17-.822-.866-1.226-.984-1.292-.509-.183-.737-.112-.851-.015zM275.208 93.167c.729-.069 1.158-.109 1.447-.438.562-.64.331-2.072-.572-2.75-.781-.586-1.959-.529-2.466-.033-.165.161-.325.435-.554.824-.196.333-.294.5-.333.667-.106.446.04.996.365 1.345.498.536 1.29.462 2.113.385zM279.646 105.313c.24-.287.239-.761-.042-1.104-.453-.378-1.079-.282-1.333.083-.187.269-.167.678.063 1 .388.409 1.017.374 1.312.021zM281.104 98c-.068.193-.193.442-.438.604-.487.323-1.034.029-1.292.313-.11.121-.181.363 0 .896.05.106.143.265.308.4.254.206.466.18.754.371.112.075.27.205.417.438.162-.162.519-.563.646-1.188.195-.955-.297-1.694-.395-1.834z"/></g><g><path style="fill:#fff" d="M240.75 118C220.399 90.04 185.057 89.945 181 90c-4.662-.557-35.3-3.7-59.75 18.75-18.166 16.68-22.052 37.512-23 44h154.868c-.52-7.346-2.617-21.353-12.368-34.75zm-7.875 27.063c-.236.532-2.001-.215-6.646-.495-2.826-.17-4.259-.243-5.229.349-.558.341-1.42 1.051-2.125.75-.25-.107-.333-.278-.646-.708-.679-.936-1.621-1.963-1.813-1.854-.226.129.613 1.828.271 2.042-.177.11-.479-.296-.833-.188-.363.111-.315.619-.604.979-.7.873-3.209.683-4.17-.559-.398-.513-.386-1.02-.726-1.066-.439-.06-.666.757-1.698 1.181-.334.137-.764.238-.844.111-.116-.187.647-.658.54-.973-.123-.363-1.262-.09-2.769-.277-1.608-.2-1.792-.901-2.667-.688-.779.19-.728.711-2.063 1.396a5.506 5.506 0 0 1-1.667.583c-.753.125-.793-.076-2.021-.083a37.727 37.727 0 0 0-2.333.083c-.656.042-1.1.086-1.208-.125-.136-.267.416-.642.313-.938-.075-.213-.498-.408-2.146-.25-.383.114-.866.307-.896.604-.033.33.516.566.438.813-.058.183-.379.11-.917.333-.582.241-.768.559-.936.471-.232-.122.07-.76-.231-1.075-.213-.222-.63-.184-1.021-.083l-1.021.479c-.193.671-.403.832-.561.853-.297.039-.416-.417-1.022-.749-.176-.096-.801-.438-1.354-.229-.359.135-.37.383-1.095.857-.319.209-.473.263-.55.206-.14-.103.116-.459-.042-.708-.182-.287-.859-.347-1.137-.059-.297.307-.019.889-.279 1.039-.13.074-.316-.002-.458-.083a1.421 1.421 0 0 0-.748-.297c-.4-.026-.665.16-1.106.401-.794.434-1.66.907-2 .646-.215-.165-.014-.467-.271-.833-.272-.388-.788-.461-1.112-.507-.795-.112-1.447.172-1.763.34a12.169 12.169 0 0 1-1.75-.229c-.176-.038-.405-.092-.625.021-.317.163-.258.492-.5.708-.434.387-1.568.172-2.104-.479-.392-.476-.186-.845-.563-1.146-.619-.495-1.851-.033-1.854.208-.002.188.741.214.813.604a.476.476 0 0 1-.239.473c-.285.146-.521-.229-1.178-.389-.678-.166-.942.108-1.315-.162-.212-.153-.302-.368-.456-.734-.228-.544-.122-.704-.333-1-.172-.241-.549-.564-.854-.479-.447.124-.243.988-.854 1.354-.396.237-.814.075-.979.374-.1.181.014.311-.062.522-.08.221-.33.424-.917.542-1.335-.835-1.884-.98-2.042-.813-.213.227.292 1.026.083 1.167-.102.069-.306-.066-.458-.167-.514-.34-.545-.697-.917-.896-.148-.079-.389-.154-.771-.083a37.257 37.257 0 0 0-1.854 0c-.541.014-.859.036-1.229-.146-.086-.042-.123-.07-.629-.345-.429-.233-.536-.286-.662-.259-.258.055-.333.388-.458.583-.393.615-1.626.434-3.27.318-2.804-.198-3.661.017-3.792.391-.077.22.104.473-.063.646-.131.136-.346.087-.771.042-.972-.103-1.314.001-1.375-.166-.062-.17.274-.326.446-.905.05-.167.105-.352.033-.407-.038-.029-.166-.065-1.188.771-.668.547-.787.705-1.021.688-.438-.033-.876-.653-.75-1 .123-.341.715-.209 1.125-.75.081-.106.296-.39.208-.604-.196-.479-1.908-.595-2.604.188-.301.339-.398.829-.625.813-.145-.011-.182-.215-.333-.354-.449-.411-1.534.092-1.75.188-.289.127-1.547.154-4.063.208-4.667.1-5.203-.227-6.833.188-.327.083-.699.196-1.229.167-1.523-.085-1.825-1.204-2.917-1.146-.966.052-1.066.947-2.479 1.146-.692.097-1.328-.025-1.354-.188-.027-.168.62-.222.896-.771.146-.291.026-.417.188-.938.067-.215.161-.52.354-.792.468-.659 1.114-.556 1.271-.958.091-.233.013-.627-.688-1.333.457.283.986.247 1.271-.042.203-.205.225-.48.228-.587.31.264.751.219.96-.038.159-.196.171-.5.021-.75.589.3 1.113.338 1.271.125.202-.272-.244-.892-.292-.958-.414-.577-1.028-.781-1.313-.854.054-.177.152-.42.333-.667.197-.268.65-.754.896-.646.194.086.083.464.292 1.229.074.27.16.49.229.646.142.101.298.181.396.125.164-.094-.002-.475.104-.958.071-.321.286-.795.609-.898.409-.13 1.05.318 1.453 1.169.051.032.397.239.792.104.303-.104.551-.382.583-.667.08-.71-1.207-1.272-1.104-1.5.048-.106.384-.116 1.479.188a3.04 3.04 0 0 0-.438-.896c-.273-.38-.438-.417-.583-.667-.396-.679.02-1.796.33-1.815.271-.017.242.816.941 1.169.337.17.547.08.917.354.287.213.375.427.521.396.162-.034.27-.343.25-.604-.037-.48-.506-.807-.625-.896-.47-.353-1.009-1.184-1.38-3.18a2.611 2.611 0 0 1-.057-.299c.018.108.038.198.057.299.066.269.206.643.547.972.31.299.646.425.833.479a1.79 1.79 0 0 0 0-1.75.932.932 0 0 1 .5.104c.526.291.456 1.037.875 1.146.231.06.309-.153.583-.083.201.051.291.197.646.646.27.341.405.512.448.549.671.587 1.82-.097 2.177.388.171.233-.021.488.208.75.182.208.479.249.708.25.256.049.343.006.375-.042.063-.096-.044-.286-.638-1.099-.356-.487-.407-.542-.445-.693-.106-.422.111-.736.229-1.104.131-.407.188-1.022-.167-1.917.316.284.497.555.604.75.169.309.229.566.5.854.134.142.266.236.354.292.175-.012.264-.072.313-.125.146-.159.056-.392.104-.896.013-.138.032-.252.047-.328l.64.057a.984.984 0 0 0 .263-.211c.243-.278.359-.743.195-.977-.21-.3-.74-.014-1.292-.167-.434-.12-.997-.544-1.438-1.979-.258-.635-.109-1.295.313-1.604.289-.212.628-.201.771-.188-.002.044-.013.466.313.708a.766.766 0 0 0 .396.146.92.92 0 0 0 .396-.438c.195-.478-.089-1.159-.75-1.625-.136-.286-.121-.466-.063-.583.312-.626 2.35-.405 3.833.375.463.243.99.528 1.375 1.125.506.784.461 1.628.435 2.148-.261 5.274.19 4.274-.164 6.498-.272 1.704-.572 2.512-.042 3.167.403.498 1.255.863 1.793.583.985-.511.335-2.875.186-8.25-.1-3.614.107-5.709 1.103-6.086.578-.219.971.311 1.772.003.759-.292.791-.918 1.854-2.104.703-.785.765-.596 1.505-1.392.843-.908 1.826-1.966 1.579-2.837-.263-.926-1.744-1.035-1.688-1.542.048-.435 1.126-.218 2.021-1.125.581-.589.769-1.332 1.292-1.333.206 0 .361.115.375.125.425.323.105 1.032.396 1.229.285.193.774-.363 1.688-.625a3.633 3.633 0 0 1 1.458-.104c.353.041.443.002.458-.042.041-.113-.411-.284-.729-.688-.271-.343-.351-.736-.375-1.021.171-.037.716-.13 1.271.167.291.156.478.361.583.5-.03-.133-.07-.398.021-.708.133-.454.457-.698.563-.771a.98.98 0 0 0 .333.958c.304.242.66.199.728.189.23-.084.513-.223.542-.439.022-.164-.12-.243-.271-.542-.143-.284-.308-.792-.125-.979.133-.136.337.014.583-.063.229-.071.508-.34.667-1.271.049.131.289.736.958 1.063.737.36 1.428.107 1.542.063.225 1.234.454 1.852.688 1.854.096.001.194-.103.292-.313.274-.138.979-.443 1.667-.208.42.144.871.502 1 .604.143.114.256.217.333.292.306-.321.333-.489.292-.583-.075-.171-.366-.088-.625-.313a.825.825 0 0 1-.271-.729c.067-.375.487-.691 1.021-.688.247.049.587.159.854.438.35.365.301.737.577 1.233.059.105.565 1.021.985.955.526-.083.452-1.631 1.038-1.741.32-.06.485.373 1.191.658.45.182.872.204 1.167.191.03.186.092.448.229.476.251.05.496-.742.766-.712.126.014.291.21.421 1.108.144.053.65.22 1.208 0 .297-.117.495-.298.604-.417-.016.26.009.598.229.813.333.324.775.041 1.25.354.439.289.28.674.721 1.003.546.408 1.396.27 1.446.081.053-.201-.815-.369-.979-1.042-.056-.227-.043-.563.146-.708.245-.188.55.126.917-.021.461-.184.455-.87.667-.875.256-.007.479.987.563 1.375.315 1.471.359 2.348.488 3.129.208 1.259.59 1.984.845 2.663.851 2.267.565 4.959-.042 10.25-.393 3.425-.832 5.644.162 6.221.34.197 1.136.369 1.922.134.157-.047.622-.187.936-.517.791-.833.278-2.529.127-3.067-.133-.47-.248-3.674-.479-10.083-.14-3.894 0-5.899 1.179-6.546.31-.171.642-.219.967-.266 1.398-.204 2.497.359 3.667.979 1.466.777 2.747 1.456 2.982 2.494a6.57 6.57 0 0 1 .056 2.207c-.224 1.612-.051 4.853-.204 7.633-.113 2.056-.374 3.284.333 3.808.055.041.519.385 1.042.275.473-.1.745-.517.846-.672.908-1.389-.446-3.875.029-7.203.213-1.493.663-2.241.938-2.625.684-.956 1.573-1.458 2.125-1.708.141-.025.35-.043.58.023.699.2.974.995 1.358 1.894.495 1.16 1.202 2.789 2.444 4.205.467.532.449.395.743.774.277.356 1.03 1.424 1.188 4.375.05.93.137 2.568-.271 4.625-.166.838-.365 1.495-.417 2.646-.048 1.068-.087 2.274.623 2.763.32.221.86.343 1.273.153 1.399-.643 1.065-4.754.624-9.731-.255-2.884-.523-4.371.478-5.376.764-.766 2.213-1.197 2.898-.706.477.342.319.942 1 1.396.514.343.977.249 1.125.604.159.381-.254.77-.104.917.148.145.746-.051 1.042-.479.265-.384.136-.737.354-.854.12-.065.357-.064.875.354.09.194.169.454.063.667-.213.424-1.032.391-1.029.503.003.095.588.006 1.112.331.441.273.836.837.729 1.354a.984.984 0 0 1-.229.438c-.46.549-1.093.346-1.292.729-.144.278-.001.755.271.896.476.246 1.206-.609 1.521-.375.235.174-.033.75.188.875.21.118.488-.38 1.076-.421.407-.029.434.199.903.192.567-.009.87-.347 1.063-.188.111.092.107.284.08.395-.069.291-.366.348-.768.647-.266.198-.787.586-.75 1.021.023.273.267.566.521.583.316.022.468-.394.958-.917.583-.622 1.443-1.18 1.688-1 .282.207-.414 1.274-.083 1.583.246.23.929-.085 1.563-.458.117-.013.266-.018.292.042.055.131-.587.317-.896.875-.301.543.022.879-.313 1.333-.246.334-.45.193-.813.563-.369.376-.491.862-.604 1.313-.158.63-.076.873-.313 1.063-.27.217-.553.042-.729.25-.239.284-.039.997.25 1.063.334.076.504-.776 1.229-.938.359-.08.453.099 1.104.208 1.033.174 1.733-.119 1.786.036.076.219-1.331.802-1.239 1.121.061.212.704.037.952.406.241.359-.148.85.104 1.104.158.16.467.123.646.063.424-.144.523-.558.958-1.271.405-.663.607-.994.917-1.167.875-.487 2.375.14 2.417.688.032.42-.806.691-.729.938.122.393 2.261-.284 2.688.396.424.677-1.154 2.216-.77 2.622.159.168.575.059.79-.038.499-.227.511-.666.813-.792.66-.287 2.24 1.151 1.997 1.698z"/><path style="fill:#fff" d="M157.094 143.5c.007-.067.057-.172.33-.288.614-.261.988.004 1.822-.002.894-.007 1.215-.318 1.786-.053.217.101.371.239.469.344a3.808 3.808 0 0 1-2 .844c-.115.012-.993.09-1.862-.345-.187-.095-.566-.289-.545-.5zM162.688 142.875c.047-.284.164-.429.257-.506.582-.486 2.03.167 2.056.725.005.116-.049.262-.251.437-.064.046-.53.372-1.125.219-.684-.176-.92-.824-.937-.875zM168.75 142.198a.788.788 0 0 1 .109-.457c.16-.254.403-.253.829-.46.605-.296.641-.556.92-.524.339.039.66.468.58.743-.044.151-.201.231-.313.281-.669.302-1.595.388-2.125.417zM173.594 143.969c.037-.293.624-.541 1.09-.395.418.131.596.536.628.614-.025.026-.511.529-1.094.375-.308-.082-.655-.352-.624-.594zM176.094 146.125c-1.048-.232-1.101-.259-1.102-.299-.008-.23 1.741-.743 3.507-.348.615.138 1.104.35 1.44.522-.788.422-1.439.497-1.845.5-.294.002-.866-.124-2-.375zM185.813 144.406c-.239-.167-.076-.522-.313-.938-.327-.574-1.057-.634-1.031-.75.03-.138.998.253 2.074-.049.952-.268 1.179-.85 1.964-.792.396.03.395.183 1.025.403.933.327 2.252.453 2.531-.031.198-.342-.246-.775-.063-.969.287-.302 1.34.785 2.313.469.732-.238.987-1.13 1.281-1.031.187.063.217.468.219.758-.24.548-.548.844-.878.98-.383.159-.549.001-1.309.106-.548.075-1.032.142-1.313.5-.246.314-.081.526-.313.75-.36.348-1.089.155-1.601.019-.672-.178-.626-.311-1.177-.457-.196-.052-1.531-.405-2.16.282a1.21 1.21 0 0 0-.281.563c-.559.31-.828.286-.968.187zM202.75 141.969c.937.714 1.895.936 2.375.563.172-.134.368-.41.344-.719-.032-.41-.436-.686-.688-.781-.595-.227-1.416.142-2.031.937zM219.719 141.594c-.088-.372-1.194-.087-2.938-.563-.968-.264-1.299-.536-1.969-.406-.466.09-.525.264-1.303.709-1.517.869-2.393.836-2.51 1.384-.039.182-.006.482.438.938.99.39 1.38.33 1.531.156.192-.22-.064-.549.156-.906.24-.389.896-.572 1.313-.375.318.15.319.438.594.5.306.069.531-.235.844-.438 1.025-.664 2.066.367 3.24-.31.24-.137.661-.448.604-.689z"/></g></g><g><path style="fill:#768696" d="M175 67c-59.647 0-108 48.129-108 107.5S115.353 282 175 282s108-48.129 108-107.5S234.647 67 175 67zm0 181c-40.782 0-73.842-32.907-73.842-73.5S134.218 101 175 101s73.842 32.907 73.842 73.5S215.782 248 175 248z"/><linearGradient id="clash-a" gradientUnits="userSpaceOnUse" x1="219.552" y1="184.76" x2="133.396" y2="98.604"><stop offset="0" style="stop-color:#6e7e8e"/><stop offset=".522" style="stop-color:#647483"/><stop offset="1" style="stop-color:#6e7e8e"/></linearGradient><path style="fill:url(#clash-a)" d="M150 105c-5.432 1.976-10.05 4.492-10.05 4.492a71.043 71.043 0 0 0-10.575 7.071c-16.021 12.928-22.48 29.448-23.625 32.521l-6.75-.083 6-6 3-6-1-3 7-5-4-5 1-3 3 2 1-3h3l-1-3 1-2c.94.349 2.575.804 4.583.583a9.831 9.831 0 0 0 2.417-.583c.205-.256.756-1.014.75-2.083-.01-1.833-1.644-2.853-1.75-2.917l4-1 19-18 3 3 1-2 .833 1.25 1.167 1.75a4.43 4.43 0 0 0 .833-1.583 4.436 4.436 0 0 0 .167-1.417c.659.475 2.435 1.611 4.667 1.333a5.747 5.747 0 0 0 1.333-.333l1-2 10 4 2.917-8.5c1.04.058 1.929.686 2.25 1.583.333.931-.086 1.763-.167 1.917l5 4c.145-.365.774-2.066 0-4-.836-2.09-2.677-2.87-3-3a3.253 3.253 0 0 1 1.833-1.083 3.266 3.266 0 0 1 2.167.333 56.779 56.779 0 0 0 .666 3.917l1.333-.167 5 7 2-5 3 4 14 3c8.276 2.318 10.305 4.1 10.25 5.375-.022.496-.362 1.02-1.188 1.563.44.087 3.462.732 4.375 3.125.122.318.223.713.25 1.188 4.44-.685 7.64.427 8.063 2.063.057.221.281 1.295-1.375 3 1.925-1.552 3.884-2.318 4.875-1.625.306.214.675.675.813 3.5a34.215 34.215 0 0 1-.125 5.063c.87-.121 1.938-.111 2.604.542.552.54.589 1.286.875 1.292.204.004.497-.372.875-2.083.115.331.29.838.5 1.458.315.931.499 1.5.542 1.625.567 1.675 2.527 3.312 2.75 3.5.813.686 2.275 3.002 5.167 7.604 3.07 4.887 5.796 9.45 7.875 13l-10.813.063c-2.519-6.749-10.401-25.08-30-37.188-14.37-8.877-28.167-10.163-33.813-10.625.001-.004-16.686-1.465-30.499 3.559z"/><path style="fill:#6c7e8c" d="M243.083 129.75c-1.473.759-2.717 1.056-3.583 1.188-1.301.197-2.161.082-2.688.688-.529.609-.406 1.585-.229 2.292l4.354 7.646a15.054 15.054 0 0 0 5.126-7.25l-2.98-4.564z"/><linearGradient id="clash-b" gradientUnits="userSpaceOnUse" x1="172.406" y1="111.5" x2="172.406" y2="85.856"><stop offset="0" style="stop-color:#5d6b76;stop-opacity:.1"/><stop offset="1" style="stop-color:#5d6b76"/></linearGradient><path style="fill:url(#clash-b)" d="M136.813 111.5c.747-3.164 2.071-5.158 3.188-6.417 3.193-3.6 6.661-3.406 10.25-7.021 2.058-2.073 3.146-4.381 3.75-6.063l6 1 1-2a30.123 30.123 0 0 1 10 4 31.792 31.792 0 0 1 2.917-8.5c.604.249 1.494.711 2.25 1.583.83.958.733 1.526 1.521 2.354 1.049 1.102 2.816 1.773 3.375 1.25.505-.472-.036-1.864-.438-2.563-.782-1.361-2.082-1.926-2.625-2.125a3.253 3.253 0 0 1 1.833-1.083 3.266 3.266 0 0 1 2.167.333l.667 3.917L184 90l5 7 2-5 3 4 14 3-4 8c-6.017-2.627-16.825-6.397-30.688-6.125-17.676.347-30.63 7.078-36.499 10.625z"/><path style="fill:#6c7b8e" d="M231.938 112.563c.59-.448.806-1.181.563-1.75-.229-.535-.777-.719-.875-.75l1-.938a7.83 7.83 0 0 0-1.875-1.438c-.872-.475-1.393-.53-2.438-1.063a11.07 11.07 0 0 1-1.688-1.063c.234.057.918.191 1.688-.125a2.777 2.777 0 0 0 1.375-1.25c-.06.178-.22.73 0 1.375a2.19 2.19 0 0 0 1 1.188c3.466.984 5.434 2.827 5.188 4-.205.972-1.952 1.62-3.938 1.814z"/><path style="fill:#5d6b76" d="M169.75 87a10.907 10.907 0 0 1-.333 4.25L171 90.5a5.4 5.4 0 0 0-.333-1.917A5.404 5.404 0 0 0 169.75 87z"/><linearGradient id="clash-c" gradientUnits="userSpaceOnUse" x1="245.424" y1="149.892" x2="251.814" y2="138.823"><stop offset="0" style="stop-color:#5d6b76;stop-opacity:.2"/><stop offset="1" style="stop-color:#5d6b76;stop-opacity:.4"/></linearGradient><path style="fill:url(#clash-c)" d="M247.25 136.188a16.82 16.82 0 0 1-6.313 5.376 36.575 36.575 0 0 1 3.376 7.688l10.813-.063-7.876-13.001z"/><linearGradient id="clash-d" gradientUnits="userSpaceOnUse" x1="149.06" y1="259.005" x2="201.698" y2="167.833"><stop offset="0" style="stop-color:#5d6b76;stop-opacity:.3"/><stop offset="1" style="stop-color:#5d6b76"/></linearGradient><path style="fill:url(#clash-d)" d="M106.167 201a10.835 10.835 0 0 0-1.603 3.242c-.655 2.211-.043 2.861-.48 5.674-.461 2.96-1.336 3.503-.965 5.162.386 1.728 1.701 2.772 2.382 3.338 2.178 1.811 5.237 4.857 9.75 10.417.926-2.045 2.148-3.31 2.776-3.111.64.204.916 2.013.391 4.361.126.196.34.457.67.558 1.019.311 1.882-1.291 3.496-1.808.7-.224 1.748-.31 3.25.333.44.43 1.049 1.15 1.333 2.167.618 2.212-.911 3.66-.833 6.25.028.927.27 2.282 1.333 3.917-.029.216-.077.801.25 1.417.239.449.568.71.75.833.037.389.113.81.25 1.25.686 2.202 2.447 3.432 3.25 3.917-.444-.484-2.271-2.584-2-5.417a6.236 6.236 0 0 1 .583-2.083c1.073.689 2.741 1.989 3.917 4.167.382.709.647 1.389.833 2a3.01 3.01 0 0 1-.833 1.333 3.02 3.02 0 0 1-1.5.75c.918.877 1.611 1.006 2.079.956 1.1-.117 1.565-1.285 3.504-3.123a20.282 20.282 0 0 1 1.667-1.417l8.083 7.667c.614-.296 1.525-.616 2.583-.5.987.108 1.071.483 2.167.75 1.963.478 3.826-.203 4.167-.333.831-.318 1.102-.609 2.083-.833a6.997 6.997 0 0 1 1.833-.167c.052.731.329 1.136.5 1.333.847.974 2.772 1.059 4.667 0l-.583 3.167c5.102.545 9.106.273 11.833-.083 3.824-.5 6.333-1.083 6.333-1.083 3.7-.861 5.003-1.577 7.333-1.5 2.406.079 4.337.951 5.583 1.667.188.067.466.133.667 0 .741-.491-.705-2.946-.083-3.75.531-.685 2.712-.356 8.75 2.75.115-.234.285-.494.5-.5.506-.015.589 1.4 1.583 2.417 1.02 1.043 2.645 1.307 2.833 1 .166-.271-.844-.896-2.083-2.5-.853-1.104-2.64-3.417-1.917-4.75.476-.877 1.852-.986 2.083-1 2.011-.123 2.936 1.713 4.583 1.417.739-.133 1.268-.63 1.583-1l.917-3.917c.824.376 2.242.835 3.5.25 1.316-.612 1.84-2.081 2.583-4.167a17.51 17.51 0 0 0 .75-2.833 16.248 16.248 0 0 1 5.834-4.583c.642.305 1.354.792 1.667 1.583.335.846.035 1.587.25 1.667.332.123 1.285-1.275 2.083-2.917.892-1.834 1.265-3.301 1.417-3.833.873-3.067 2.859-4.847 4.375-6.625 1.921-2.252 4.328-5.955 6.375-12.292l3.5-1.167c-1.451-.419-2.688-1.296-2.833-2.333-.202-1.447 1.677-3.516 4.917-3.75.086-.009 1.215-.141 1.75-1.167.452-.867.133-1.708.083-1.833.363-.164.975-.376 1.667-.25 1.221.223 1.581 1.296 2.374 1.333.502.023 1.268-.365 2.293-2.5h-15.167c-2.62 6.681-7.588 16.626-17 25.833-19.205 18.788-42.992 20.89-50.167 21.25-6.815.013-27.963-.823-47.417-16.167-13.902-10.967-20.359-24.152-23.082-30.834z"/><linearGradient id="clash-e" gradientUnits="userSpaceOnUse" x1="215.37" y1="255.372" x2="216.826" y2="252.852"><stop offset="0" style="stop-color:#5d6b76;stop-opacity:.3"/><stop offset="1" style="stop-color:#5d6b76;stop-opacity:.5"/></linearGradient><path style="fill:url(#clash-e)" d="M216 252.375c1.006.713 1.209 1.89.75 2.5-.417.555-1.278.507-1.375.5l.625-3z"/><linearGradient id="clash-f" gradientUnits="userSpaceOnUse" x1="220.014" y1="251.001" x2="218.205" y2="249.957"><stop offset="0" style="stop-color:#5d6b76;stop-opacity:.1"/><stop offset="1" style="stop-color:#5d6b76;stop-opacity:.7"/></linearGradient><path style="fill:url(#clash-f)" d="M218.469 249.5c.607-.336.894-.205.97-.163.466.257.538 1.329-.001 2.663l-.969-2.5z"/><linearGradient id="clash-g" gradientUnits="userSpaceOnUse" x1="226.583" y1="246.489" x2="233.791" y2="239.281"><stop offset="0" style="stop-color:#5d6b76;stop-opacity:.2"/><stop offset=".995" style="stop-color:#5d6b76;stop-opacity:.5"/></linearGradient><path style="fill:url(#clash-g)" d="M225.375 245.281c.377-.315.937-.782 1.625-1.344.985-.805 1.029-.822 1.469-1.188 1.722-1.431 1.781-1.771 2.719-2.406a8.24 8.24 0 0 1 2.375-1.094c.686.339 1.12.887 1.063 1.375-.081.685-1.103 1.002-1.5 1.125-1.102.341-1.589-.065-2.563.156-.517.117-1.249.429-2.028 1.346a.985.985 0 0 0-.128.154c-.471.698.237 1.609 0 2.031-.166.297-.844.442-3.032-.155z"/></g><g><path style="fill:#fff" d="M44 149h262v52H44z"/><path d="M70 156h21v19H70zM52 175h18v19H52zM91 175h21v19H91zM112 156h21v19h-21zM133 175h21v19h-21zM154 156h21v19h-21zM175 175h21v19h-21zM196 156h21v19h-21zM217 175h21v19h-21zM238 156h21v19h-21zM259 175h21v19h-21zM280 156h18v19h-18z"/></g></g></switch></svg>