<svg xmlns="http://www.w3.org/2000/svg" viewBox="0 0 350 350"><switch><g><path fill="#fff" d="M59.962 59.962H290.037V290.037H59.962z"/><path fill="#191917" d="M69.5 69.5H280.5V280.5H69.5z"/><path fill="#0c0c0c" d="M79 79H271V271H79z"/><g fill="#fff"><path d="M66.953 220.333c.444.306 1.107.675 1.963.833 1.41.261 2.463-.212 2.833.333.262.385.115 1.18.092 1.181-.003 0-.004-.014-.009-.015-.039-.003.045 1.206-.333 2-.412.864-1.189.853-2.426 1.691-.557.377-1.324 1.005-2.074 2.059C66.984 225.722 66.969 223.028 66.953 220.333zM69.958 235.167c.44-.197 1.322.466 1.625 1.292.363.987-.228 1.866-.292 1.958-.286.031-.69.021-1.042-.208C69.218 237.536 69.347 235.44 69.958 235.167zM74.613 244.615c-.351-.39-1.074-.454-1.551-.191-.723.399-1.042 1.64-.395 2.868.234.073.622.151 1.017.004C74.686 246.922 75.223 245.291 74.613 244.615zM76.375 244.625c-.429-.525-.347-.873-.322-.958.025-.086.127-.362 1.239-.792.561-.217 1.043-.343 1.375-.417-.021.155-.207 1.368-1.25 1.917C77.016 244.586 76.628 244.625 76.375 244.625zM74.083 258.958c.391.118.819.177 1.042-.042.24-.236.014-.571.208-1.083.248-.652.841-.702.875-1.083.021-.24-.178-.618-1.337-1.167-.224.035-.62.127-.996.417-.674.519-1.192 1.6-.75 2.333C73.186 258.435 73.429 258.801 74.083 258.958zM82.375 270.333c-.041-.067-.35-.592-.125-1.167.166-.424.62-.865 1.167-.792.388.052.71.347.833.708.127.372.023.755-.167 1C83.745 270.521 83.031 270.655 82.375 270.333zM88 262.458c.014-.082.096-.494.458-.75.569-.402 1.42-.13 1.875.333.102.104.428.435.417.917-.013.593-.532 1.137-1.125 1.208-.546.065-.947-.295-1.083-.417C88.444 263.663 87.877 263.154 88 262.458zM88.625 268c-.423.462-.137 1.356.042 1.917.161.505.526 1.645 1.292 1.792.394.075.467-.211 1.208-.333.974-.161 1.197.202 1.784-.012.897-.328 1.229-1.49 1.3-1.738.194-.682.11-1.271.042-1.583.004-.838-.229-1.18-.458-1.333-.388-.26-.714.058-1.583-.042-.971-.111-1.26-.586-1.667-.375-.412.214-.207.749-.708 1.208C89.407 267.929 88.96 267.634 88.625 268zM92.542 275.292c.625-.795 2.257-.553 2.542.167.171.433-.142 1.05-.667 1.542-.518.491-1.304.501-1.781.074C92.086 276.582 92.196 275.732 92.542 275.292z"/><path d="M255.25,198.125l-72.5,72.5l-109.125-72.5h-6.188v14.25c-0.421,1.054-0.745,2.29-0.188,2.875 c0.826,0.866,2.964-0.349,3.625,0.5c0.591,0.758-0.792,2.144-0.188,3.063c0.635,0.965,2.5-0.048,3.625,1.063 c0.851,0.84,0.073,1.706,1.063,3.125c0.61,0.875,1.071,0.782,2.063,2.063c0.327,0.423,1.174,1.516,0.875,1.938 c-0.291,0.41-1.431-0.146-1.625,0.188c-0.275,0.472,1.914,1.749,1.629,2.922c-0.094,0.385-0.448,0.734-0.801,0.778 c-0.531,0.066-0.737-0.594-1.578-1.075c-0.095-0.054-1.596-0.889-2.5-0.188c-0.585,0.454-0.781,1.445-0.441,2.003 c0.395,0.647,1.609,0.877,1.626,0.872c-0.055-0.008-0.704,2.148-0.81,2.563c-0.92,3.602,5.513,7.457,4.444,10.504 c-0.732,2.086-3.286,2.175-3.632,4.559c-0.175,1.21,0.672,1.611,1.688,4.104c0.764,1.875,1.031,3.369,1.281,4.771 c0.364,2.034,0.305,3.897,0.188,7.625c-0.083,2.624,0.517,5.289,0.063,7.875c-0.044,0.251-0.208,1.14,0.281,1.813 c0.264,0.364,0.779,0.746,1.321,0.664c0.572-0.086,0.901-0.646,1.054-0.914c0.728-1.281,0.215-2.432,0.156-4.281 c-0.073-2.275,0.552-5.258,1.988-5.741c0.484-0.163,0.754,0.059,1.441-0.235c0.188-0.081,1.184-0.507,1.499-1.576 c0.165-0.562,0.212-1.538-0.333-1.979c-0.621-0.503-1.479,0.116-2.083-0.479c-0.23-0.227-0.364-0.571-0.333-0.896 c0.046-0.491,0.454-0.787,0.604-0.896c0.558-0.405,1.209-0.391,1.51-0.381c2.077,0.072,5.445,0.216,6.156,1.151 c0.152,0.201,0.208,0.375,0.208,0.375c0.13,0.405-0.071,0.618-0.042,1.208c0.013,0.263,0.03,0.542,0.208,0.646 c0.181,0.106,0.351-0.072,0.479,0.015c0.258,0.175-0.291,0.987,0.021,1.547c0.177,0.318,0.632,0.557,0.896,0.438 c0.662-0.301,0.039-2.839,0.375-2.917c0.152-0.035,0.232,0.497,0.729,0.729c0.505,0.236,0.822-0.127,1.417,0.042 c0.6,0.17,1.116,0.777,1.01,1.104c-0.143,0.443-1.41,0.315-1.447,0.646c-0.016,0.143,0.207,0.275,0.271,0.313 c0.441,0.261,0.89,0.025,1.333,0.021c0.701-0.007,1.238,0.567,1.604,0.958c1.201,1.284,0.084,3.986-0.333,7.333 c-0.169,1.355-0.293,3.374,0.042,5.917c-1.396,0.958-2.792,1.917-4.188,2.875l3.813,7.375 c0.119,0.616,0.276,1.582,0.333,2.771c0.214,4.44-1.224,6.437-0.104,9.5c0.188,0.513,0.733,2.006,1.688,2.104 c0.701,0.072,1.301-0.642,1.479-0.854c1.055-1.256,0.917-2.798,0.727-6.479c-0.232-4.488-0.219-5.915,0.418-7.625 c0.329-0.882,0.718-1.557,0.988-1.979c1.074-1.958,2.147-3.917,3.221-5.875c0.055-0.108,0.164-0.327,0.282-0.611 c0.893-2.15,0.663-4.072,0.968-8.056c0.07-0.919,0.134-1.487,0.438-1.583c0.419-0.133,1.239,0.648,1.188,1.313 c-0.033,0.426-0.404,0.543-0.364,0.871c0.066,0.54,1.182,0.464,1.364,0.983c0.262,0.747-1.802,1.538-1.763,2.973 c0.013,0.499,0.284,1.161,0.763,1.298c0.225,0.064,0.55,0.029,0.738-0.165c0.284-0.294,0.03-0.719,0.325-1.064 c0.12-0.14,0.377-0.321,0.604-0.271c0.685,0.151,0.49,2.271,1.262,2.459c0.156,0.038,0.291-0.018,0.365-0.048 c0.856-0.354,1.213-2.442,0.493-3.91c-0.471-0.96-1.253-1.351-1.08-1.709c0.123-0.255,0.661-0.353,1-0.167 c0.458,0.252,0.208,0.834,0.729,1.458c0.432,0.517,0.883,0.453,0.958,0.833c0.072,0.362-0.314,0.534-0.5,1.125 c-0.18,0.572-0.025,1.067,0.042,1.354c0.157,0.678,0.206,1.842-0.25,3.979c1.563,0.396,3.125,0.792,4.688,1.188 c-0.369-1.162-0.57-2.153-0.688-2.875c-0.294-1.812-0.116-2.305,0.146-2.604c0.298-0.341,0.479-0.17,1.021-0.625 c0.71-0.596,0.621-1.074,1.25-1.396c0.098-0.05,0.714-0.365,1.146-0.063c0.224,0.157,0.364,0.456,0.333,0.729 c-0.045,0.401-0.426,0.463-0.583,0.792c-0.407,0.849,1.23,2.31,1.063,2.479c-0.095,0.096-0.77-0.229-1.25-0.813 c-0.368-0.448-0.411-0.79-0.774-0.917c-0.282-0.098-0.689-0.041-0.802,0.169c-0.204,0.379,0.642,1.093,1.388,1.998 c0.586,0.711,1.305,1.774,1.875,3.313c33.458,0.875,66.917,1.75,100.375,2.625l13.083-3.167 c0.495-1.574,0.261-2.303-0.052-2.677c-0.201-0.24-0.481-0.391-0.438-0.563c0.096-0.379,1.56-0.049,1.844-0.625 c0.155-0.314-0.105-0.772-0.313-1c-0.255-0.28-0.507-0.296-1.156-0.531c-0.894-0.325-1.341-0.487-1.427-0.771 c-0.16-0.53,0.975-1.307,1.333-1.542c0.235-0.156,0.557-0.426,0.688-0.844c0.147-0.471-0.064-0.76,0.156-1.094 c0.21-0.32,0.703-0.512,0.969-0.344c0.298,0.189,0.205,0.768,0.178,0.936c-0.132,0.815-0.791,1.321-1.074,1.512 c-0.497,0.41-0.603,0.985-0.385,1.271c0.143,0.188,0.44,0.273,0.688,0.219c0.403-0.088,0.393-0.483,0.781-0.625 c0.476-0.174,0.773,0.317,1.188,0.156c0.501-0.194,0.438-1.052,0.771-1.104c0.15-0.024,0.378,0.117,0.729,0.792 c0.073,0.135,0.179,0.341,0.291,0.599c0.431,0.995,0.337,1.347,0.606,1.869c0.348,0.676,1.156,1.346,1.791,1.219 c0.434-0.087,0.435-0.476,1.219-1.156c0.453-0.393,1.072-0.931,1.448-0.781c0.474,0.189,0.366,1.396,0.29,2.994 c-0.054,1.131-0.106,2.755-0.082,4.756c0.087,2.414,0.08,4.344,0.063,5.563c-0.059,4.165-0.35,7.897,1.156,9.25 c0.162,0.146,0.633,0.568,1.188,0.5c0.685-0.085,1.102-0.871,1.281-1.219c0.857-1.667,0.531-3.485,0.317-5.414 c-0.137-1.232-0.186-2.673-0.286-5.555c-0.053-1.544-0.054-3.814,0.24-6.625c-0.091-2.164-0.048-3.923,0.01-5.156 c0.154-3.23,0.483-4.206-0.156-5.844c-0.26-0.666-0.642-1.346-0.396-1.583c0.401-0.387,2.252,0.604,2.184,0.849 c-0.004,0.015-0.014,0.024-0.017,0.026c-0.048,0.042-0.075,0.077-0.427,0.708c-0.325,0.583-0.488,0.876-0.5,0.969 c-0.023,0.172-0.015,0.423,0.135,0.74c0.152,0.029,0.384,0.049,0.615-0.052c0.4-0.175,0.369-0.526,0.719-0.813 c0.55-0.451,1.26-0.102,1.438-0.438c0.057-0.109,0.073-0.315-0.229-0.74c-0.272-0.251-0.652-0.613-1.083-1.073 c-0.577-0.615-1.063-1.138-1.531-1.906c-0.485-0.797-0.728-1.195-0.688-1.688c0.062-0.753,0.636-0.905,0.625-1.625 c-0.012-0.752-0.646-1.163-0.469-1.406c0.149-0.203,0.571,0.115,1.344-0.031c0.101-0.019,0.679-0.136,1.177-0.604 c0.221-0.208,0.487-0.457,0.448-0.708c-0.052-0.335-0.635-0.604-1.448-0.625c0.167-0.212,0.468-0.54,0.937-0.778 c0.985-0.501,1.965-0.229,2.668-0.034c0.61,0.169,1.306,0.362,1.406,0.813c0.102,0.459-0.5,0.801-0.344,1.156 c0.128,0.29,0.685,0.42,1.063,0.25c0.55-0.247,0.601-1.077,0.625-1.469c0.014-0.219,0.062-1-0.406-1.75 c-0.394-0.632-0.878-0.799-0.813-1.156c0.058-0.315,0.487-0.472,0.563-0.5c0.328-0.12,0.788-0.105,1.063,0.125 c0.671,0.562-0.271,1.982,0.375,2.625c0.464,0.462,1.505,0.284,1.614-0.018c0.074-0.202-0.309-0.361-0.52-0.982 c-0.031-0.09-0.274-0.827,0.021-1.078c0.234-0.199,0.577,0.102,0.823-0.078c0.351-0.258-0.139-1.025,0.196-1.483 c0.428-0.584,1.836-0.171,1.929-0.142c0.181,0.055,1.628,0.517,1.844,1.656c0.101,0.531-0.076,1.156-0.344,1.219 c-0.311,0.073-0.588-0.652-1.125-0.625c-0.197,0.01-0.357,0.118-0.469,0.219c-0.062,0.103-0.314,0.546-0.166,1.061 c0.072,0.253,0.284,0.674,0.573,0.689c0.363,0.019,0.459-0.624,0.781-0.656c0.503-0.05,1.063,1.442,1.781,3.469 c0.682,1.922,1.022,2.884,1.063,3.063c0.864,3.84-0.904,5.821,0.342,7.065c0.771,0.769,2.266,0.829,2.876,0.248 c0.59-0.562,0.269-1.646,0.03-3.092c-0.327-1.974-0.135-3.999-0.239-5.997c-0.269-5.146-0.403-7.719,0.616-10.442 c1.319-3.526,3.425-4.534,2.823-6.5c-0.588-1.919-3.238-3.06-3.042-3.375c0.147-0.236,1.545,0.532,2.031,0 c0.09-0.099,0.181-0.277,0.125-0.406c-0.117-0.271-0.762-0.052-1.531-0.438c-0.395-0.198-0.453-0.37-0.469-0.438 c-0.059-0.247,0.098-0.558,0.313-0.625c0.216-0.068,0.335,0.162,0.727,0.296c0.338,0.116,0.927,0.177,1.211-0.109 c0.315-0.318,0.081-0.892,0.375-1.031c0.102-0.049,0.247-0.034,0.344,0.031c0.452,0.305-0.302,1.615,0.188,2.156 c0.15,0.166,0.449,0.296,1.094,0.188c0.128-0.049,0.303-0.14,0.375-0.313c0.185-0.44-0.517-0.887-0.375-1.406 c0.109-0.397,0.575-0.345,0.677-0.74c0.086-0.333-0.213-0.504-0.583-1.292c-0.26-0.552-0.457-0.971-0.344-1.406 c0.106-0.408,0.376-0.406,0.719-0.875c0.49-0.67,0.146-0.952,0.594-2.094c0.358-0.913,0.674-0.976,0.719-1.656 c0.026-0.388-0.059-0.633,0.125-0.875c0.198-0.259,0.455-0.185,0.969-0.375c0.222-0.082,1.143-0.423,1.313-1.125 c0.064-0.265,0.027-0.607-0.156-0.875c-0.468-0.687-1.573-0.431-1.688-0.802c-0.05-0.161,0.079-0.463,1.042-1.083 c0.227,0.082,0.544,0.224,0.865,0.479c0.297,0.236,0.387,0.403,0.53,0.379c0.25-0.042,0.515-0.648,0.345-1.098 c-0.255-0.676-1.321-0.55-1.448-1.094c-0.112-0.478,0.611-1.007,0.729-1.094c0.781-0.572,1.7-0.454,1.979-0.406 c1.528-9.417,3.056-18.833,4.583-28.25H255.25z M112.004,274.875c0.321,0.138,0.239,1.238,0.016,1.286 c-0.123,0.026-0.158-0.291-0.518-0.471c-0.306-0.153-0.488-0.026-0.749-0.211c-0.185-0.131-0.327-0.36-0.27-0.448 c0.075-0.117,0.42,0.144,0.918,0.047C111.765,275.007,111.858,274.812,112.004,274.875z M235,271.859 c0.463,0.204,0.685,0.376,0.667,0.516c-0.029,0.217-0.64,0.356-1.833,0.417c-0.234,0.003-0.359-0.025-0.375-0.083 C233.422,272.578,233.936,272.295,235,271.859z M227.833,280.083c-0.347,0.327-0.918,0.061-0.958,0.042 c-0.258-0.125-0.284-0.274-0.542-0.542c-0.583-0.605-1.238-0.661-1.208-0.833c0.024-0.138,0.43-0.031,0.875-0.292 c0.555-0.326,0.643-0.915,0.833-0.875c0.193,0.041,0.019,0.635,0.417,1.083c0.278,0.313,0.552,0.235,0.708,0.542 C228.09,279.466,228.07,279.86,227.833,280.083z M230.083,278.875c-0.222,0.07-0.474-0.149-0.542-0.208 c-0.569-0.495-0.159-1.233-0.667-1.75c-0.394-0.402-0.958-0.278-1.016-0.559c-0.044-0.213,0.244-0.456,0.509-0.636 c0.073,0,1.369,0.01,1.923,0.983C230.764,277.535,230.513,278.739,230.083,278.875z M234.583,278.667 c0.333,0.354,0.448,0.84,0.292,1.25c-0.135,0.354-0.427,0.529-0.527,0.583c-0.063-0.13-0.17-0.317-0.348-0.5 c-0.251-0.259-0.426-0.287-0.458-0.417C233.504,279.431,233.67,279.166,234.583,278.667z M234.208,275.458 c-0.232,0.238-0.336,0.487-0.583,0.5c-0.187,0.01-0.348-0.12-0.458-0.237c-0.28-0.537-0.155-0.859-0.125-0.93 c0.233-0.542,1.222-0.838,2.375-0.417c0.249,0.129,0.295,0.227,0.292,0.292C235.696,274.939,234.825,274.826,234.208,275.458z M238.167,270.875c-0.918,0.424-1.756-0.142-1.792-0.167c-0.141-0.187-0.149-0.302-0.12-0.375 c0.108-0.279,0.761-0.01,1.37-0.375c0.456-0.274,0.454-0.643,0.885-0.754c0.267-0.069,0.522,0.008,0.699,0.087 C239.186,269.976,238.782,270.591,238.167,270.875z M240.542,272.25c-0.016,0.579-0.094,0.68-0.167,0.708 c-0.201,0.079-0.552-0.316-0.708-0.542c-0.085-0.122-0.174-0.251-0.203-0.398c-0.08-0.409,0.314-0.915,0.953-1.268 C240.536,271.377,240.551,271.89,240.542,272.25z"/><path d="M239.875 277.813c.408.11.6.547.461.863-.129.292-.528.45-.877.283-.202-.163-.292-.426-.229-.667C239.302 278.012 239.568 277.81 239.875 277.813zM252.063 279.438l0 .001c.017.061 1.231.008 1.396-.418.198-.511-1.104-1.583-1.104-1.583h0c-.101-.06-.406-.223-.707-.12-.477.163-.683.906-.46 1.433C251.409 279.273 251.983 279.419 252.063 279.438zM253.563 272.438c.987-.17 1.825.582 1.833 1.375.008.725-.678 1.444-1.583 1.438-.813.009-1.469-.641-1.479-1.396C252.324 273.174 252.843 272.554 253.563 272.438zM252.438 268.833c-.311-.38-.345-.812-.375-1.188-.022-.272-.042-.527.063-.833.236-.694.882-.985.968-1.022.145-.063.724-.313 1.298-.044.752.353.849 1.295.86 1.42.087 1.01-.656 2.207-1.604 2.25C253.163 269.438 252.702 269.157 252.438 268.833zM256.5 265.333c.03 0 .34-.007.479-.229.192-.306-.081-.794-.313-.813-.242-.02-.578.463-.438.792C256.29 265.226 256.424 265.3 256.5 265.333zM261.185 264.794c.348.152.909-.382 1.148-.669.12-.144.371-.454.458-.938.056-.312.117-.646-.042-.792-.462-.425-2.589.925-2.438 1.458.043.152.25.156.563.542C261.085 264.655 261.063 264.741 261.185 264.794zM260.229 267.583c.531.074.859.582.75 1.021-.092.368-.479.643-.917.604-.742-.196-1.055-.861-.896-1.229C259.291 267.691 259.736 267.507 260.229 267.583zM264.563 266.875c.01-.177.89-.571 1.292-.125.236.261.241.738-.042 1.104-.699.133-.919.05-.979-.063-.084-.156.135-.376.021-.625C264.763 266.968 264.557 266.962 264.563 266.875zM272.646 264.25c.29.049.463.262.792.667.422.52.762.938.667 1.375-.109.501-.761.897-1.583.942-.138.017-.592.056-.958-.234-.526-.417-.471-1.199-.313-1.646C271.464 264.749 272.081 264.155 272.646 264.25zM276.604 263.083c.484.172.985.078 1.208-.208.304-.39.155-1.218-.583-1.625-.922.087-1.449.72-1.374 1.167C275.927 262.85 276.559 263.068 276.604 263.083zM273.208 258.771c1.081-.034 2.191-1.5 1.734-2.682-.309-.799-1.251-1.257-2.109-1.151-.535.066-1.215.375-1.479.979C270.861 257.046 271.996 258.809 273.208 258.771zM276.667 256.125c.005-.041.09-.649.625-.896.065-.03.421-.186.771-.042.361.149.312.453.688.625.338.155.511-.029.729.146.23.185.278.586.167.875-.081.211-.231.322-.447.48-.248.182-.515.378-.865.377-.193-.001-.441-.147-.938-.441-.488-.288-.583-.4-.646-.521C276.632 256.501 276.645 256.267 276.667 256.125zM275.813 252.813c.348.009.715-.225.859-.54.304-.667-.506-1.451-.563-1.505-.203-.192-.413-.305-.567-.371-.195.022-.648.102-.854.438C274.286 251.487 275.015 252.791 275.813 252.813zM276.125 246.313c.062-.023.749-.273 1.083.042.434.408.099 1.603-.556 1.771-.268.069-.59-.034-.777-.25C275.564 247.516 275.614 246.829 276.125 246.313zM277.271 242.75c.095-.685.391-.948.521-1.042.713-.516 2.194-.111 3.458 1.271-.612 1.044-1.778 1.499-2.708 1.167C277.638 243.823 277.315 242.884 277.271 242.75zM278.438 239.896c.14.144.361.323.625.313.383-.016.48-.417.875-.625.737-.388 1.548.405 1.917.125.209-.159.278-.664-.333-2.188-.661.908-1.165 1.083-1.514 1.058-.36-.026-.478-.259-.861-.225-.551.049-1.153.606-1.063 1.083C278.099 239.518 278.155 239.712 278.438 239.896zM277.979 236.771c.203.222.627.319.875.167.363-.223.045-.793.375-1.813.198-.612.404-.688.354-1.041-.082-.587-.753-1.115-1.146-1.001-.267.078-.267.414-.604.503-.285.075-.445-.124-.625-.044-.153.068-.291.324-.229 1.146-.064.235-.116.569.062.771.172.195.395.081.605.271C277.955 236.009 277.691 236.456 277.979 236.771zM66.953 220.333c.444.306 1.107.675 1.963.833 1.41.261 2.463-.212 2.833.333.262.385.115 1.18.092 1.181-.003 0-.004-.014-.009-.015-.039-.003.045 1.206-.333 2-.412.864-1.189.853-2.426 1.691-.557.377-1.324 1.005-2.074 2.059C66.984 225.722 66.969 223.028 66.953 220.333zM69.958 235.167c.44-.197 1.322.466 1.625 1.292.363.987-.228 1.866-.292 1.958-.286.031-.69.021-1.042-.208C69.218 237.536 69.347 235.44 69.958 235.167zM74.613 244.615c-.351-.39-1.074-.454-1.551-.191-.723.399-1.042 1.64-.395 2.868.234.073.622.151 1.017.004C74.686 246.922 75.223 245.291 74.613 244.615zM76.375 244.625c-.429-.525-.347-.873-.322-.958.025-.086.127-.362 1.239-.792.561-.217 1.043-.343 1.375-.417-.021.155-.207 1.368-1.25 1.917C77.016 244.586 76.628 244.625 76.375 244.625zM74.083 258.958c.391.118.819.177 1.042-.042.24-.236.014-.571.208-1.083.248-.652.841-.702.875-1.083.021-.24-.178-.618-1.337-1.167-.224.035-.62.127-.996.417-.674.519-1.192 1.6-.75 2.333C73.186 258.435 73.429 258.801 74.083 258.958zM82.375 270.333c-.041-.067-.35-.592-.125-1.167.166-.424.62-.865 1.167-.792.388.052.71.347.833.708.127.372.023.755-.167 1C83.745 270.521 83.031 270.655 82.375 270.333zM88 262.458c.014-.082.096-.494.458-.75.569-.402 1.42-.13 1.875.333.102.104.428.435.417.917-.013.593-.532 1.137-1.125 1.208-.546.065-.947-.295-1.083-.417C88.444 263.663 87.877 263.154 88 262.458zM88.625 268c-.423.462-.137 1.356.042 1.917.161.505.526 1.645 1.292 1.792.394.075.467-.211 1.208-.333.974-.161 1.197.202 1.784-.012.897-.328 1.229-1.49 1.3-1.738.194-.682.11-1.271.042-1.583.004-.838-.229-1.18-.458-1.333-.388-.26-.714.058-1.583-.042-.971-.111-1.26-.586-1.667-.375-.412.214-.207.749-.708 1.208C89.407 267.929 88.96 267.634 88.625 268zM92.542 275.292c.625-.795 2.257-.553 2.542.167.171.433-.142 1.05-.667 1.542-.518.491-1.304.501-1.781.074C92.086 276.582 92.196 275.732 92.542 275.292z"/><path d="M255.25,198.125l-72.5,72.5l-109.125-72.5h-6.188v14.25c-0.421,1.054-0.745,2.29-0.188,2.875 c0.826,0.866,2.964-0.349,3.625,0.5c0.591,0.758-0.792,2.144-0.188,3.063c0.635,0.965,2.5-0.048,3.625,1.063 c0.851,0.84,0.073,1.706,1.063,3.125c0.61,0.875,1.071,0.782,2.063,2.063c0.327,0.423,1.174,1.516,0.875,1.938 c-0.291,0.41-1.431-0.146-1.625,0.188c-0.275,0.472,1.914,1.749,1.629,2.922c-0.094,0.385-0.448,0.734-0.801,0.778 c-0.531,0.066-0.737-0.594-1.578-1.075c-0.095-0.054-1.596-0.889-2.5-0.188c-0.585,0.454-0.781,1.445-0.441,2.003 c0.395,0.647,1.609,0.877,1.626,0.872c-0.055-0.008-0.704,2.148-0.81,2.563c-0.92,3.602,5.513,7.457,4.444,10.504 c-0.732,2.086-3.286,2.175-3.632,4.559c-0.175,1.21,0.672,1.611,1.688,4.104c0.764,1.875,1.031,3.369,1.281,4.771 c0.364,2.034,0.305,3.897,0.188,7.625c-0.083,2.624,0.517,5.289,0.063,7.875c-0.044,0.251-0.208,1.14,0.281,1.813 c0.264,0.364,0.779,0.746,1.321,0.664c0.572-0.086,0.901-0.646,1.054-0.914c0.728-1.281,0.215-2.432,0.156-4.281 c-0.073-2.275,0.552-5.258,1.988-5.741c0.484-0.163,0.754,0.059,1.441-0.235c0.188-0.081,1.184-0.507,1.499-1.576 c0.165-0.562,0.212-1.538-0.333-1.979c-0.621-0.503-1.479,0.116-2.083-0.479c-0.23-0.227-0.364-0.571-0.333-0.896 c0.046-0.491,0.454-0.787,0.604-0.896c0.558-0.405,1.209-0.391,1.51-0.381c2.077,0.072,5.445,0.216,6.156,1.151 c0.152,0.201,0.208,0.375,0.208,0.375c0.13,0.405-0.071,0.618-0.042,1.208c0.013,0.263,0.03,0.542,0.208,0.646 c0.181,0.106,0.351-0.072,0.479,0.015c0.258,0.175-0.291,0.987,0.021,1.547c0.177,0.318,0.632,0.557,0.896,0.438 c0.662-0.301,0.039-2.839,0.375-2.917c0.152-0.035,0.232,0.497,0.729,0.729c0.505,0.236,0.822-0.127,1.417,0.042 c0.6,0.17,1.116,0.777,1.01,1.104c-0.143,0.443-1.41,0.315-1.447,0.646c-0.016,0.143,0.207,0.275,0.271,0.313 c0.441,0.261,0.89,0.025,1.333,0.021c0.701-0.007,1.238,0.567,1.604,0.958c1.201,1.284,0.084,3.986-0.333,7.333 c-0.169,1.355-0.293,3.374,0.042,5.917c-1.396,0.958-2.792,1.917-4.188,2.875l3.813,7.375 c0.119,0.616,0.276,1.582,0.333,2.771c0.214,4.44-1.224,6.437-0.104,9.5c0.188,0.513,0.733,2.006,1.688,2.104 c0.701,0.072,1.301-0.642,1.479-0.854c1.055-1.256,0.917-2.798,0.727-6.479c-0.232-4.488-0.219-5.915,0.418-7.625 c0.329-0.882,0.718-1.557,0.988-1.979c1.074-1.958,2.147-3.917,3.221-5.875c0.055-0.108,0.164-0.327,0.282-0.611 c0.893-2.15,0.663-4.072,0.968-8.056c0.07-0.919,0.134-1.487,0.438-1.583c0.419-0.133,1.239,0.648,1.188,1.313 c-0.033,0.426-0.404,0.543-0.364,0.871c0.066,0.54,1.182,0.464,1.364,0.983c0.262,0.747-1.802,1.538-1.763,2.973 c0.013,0.499,0.284,1.161,0.763,1.298c0.225,0.064,0.55,0.029,0.738-0.165c0.284-0.294,0.03-0.719,0.325-1.064 c0.12-0.14,0.377-0.321,0.604-0.271c0.685,0.151,0.49,2.271,1.262,2.459c0.156,0.038,0.291-0.018,0.365-0.048 c0.856-0.354,1.213-2.442,0.493-3.91c-0.471-0.96-1.253-1.351-1.08-1.709c0.123-0.255,0.661-0.353,1-0.167 c0.458,0.252,0.208,0.834,0.729,1.458c0.432,0.517,0.883,0.453,0.958,0.833c0.072,0.362-0.314,0.534-0.5,1.125 c-0.18,0.572-0.025,1.067,0.042,1.354c0.157,0.678,0.206,1.842-0.25,3.979c1.563,0.396,3.125,0.792,4.688,1.188 c-0.369-1.162-0.57-2.153-0.688-2.875c-0.294-1.812-0.116-2.305,0.146-2.604c0.298-0.341,0.479-0.17,1.021-0.625 c0.71-0.596,0.621-1.074,1.25-1.396c0.098-0.05,0.714-0.365,1.146-0.063c0.224,0.157,0.364,0.456,0.333,0.729 c-0.045,0.401-0.426,0.463-0.583,0.792c-0.407,0.849,1.23,2.31,1.063,2.479c-0.095,0.096-0.77-0.229-1.25-0.813 c-0.368-0.448-0.411-0.79-0.774-0.917c-0.282-0.098-0.689-0.041-0.802,0.169c-0.204,0.379,0.642,1.093,1.388,1.998 c0.586,0.711,1.305,1.774,1.875,3.313c33.458,0.875,66.917,1.75,100.375,2.625l13.083-3.167 c0.495-1.574,0.261-2.303-0.052-2.677c-0.201-0.24-0.481-0.391-0.438-0.563c0.096-0.379,1.56-0.049,1.844-0.625 c0.155-0.314-0.105-0.772-0.313-1c-0.255-0.28-0.507-0.296-1.156-0.531c-0.894-0.325-1.341-0.487-1.427-0.771 c-0.16-0.53,0.975-1.307,1.333-1.542c0.235-0.156,0.557-0.426,0.688-0.844c0.147-0.471-0.064-0.76,0.156-1.094 c0.21-0.32,0.703-0.512,0.969-0.344c0.298,0.189,0.205,0.768,0.178,0.936c-0.132,0.815-0.791,1.321-1.074,1.512 c-0.497,0.41-0.603,0.985-0.385,1.271c0.143,0.188,0.44,0.273,0.688,0.219c0.403-0.088,0.393-0.483,0.781-0.625 c0.476-0.174,0.773,0.317,1.188,0.156c0.501-0.194,0.438-1.052,0.771-1.104c0.15-0.024,0.378,0.117,0.729,0.792 c0.073,0.135,0.179,0.341,0.291,0.599c0.431,0.995,0.337,1.347,0.606,1.869c0.348,0.676,1.156,1.346,1.791,1.219 c0.434-0.087,0.435-0.476,1.219-1.156c0.453-0.393,1.072-0.931,1.448-0.781c0.474,0.189,0.366,1.396,0.29,2.994 c-0.054,1.131-0.106,2.755-0.082,4.756c0.087,2.414,0.08,4.344,0.063,5.563c-0.059,4.165-0.35,7.897,1.156,9.25 c0.162,0.146,0.633,0.568,1.188,0.5c0.685-0.085,1.102-0.871,1.281-1.219c0.857-1.667,0.531-3.485,0.317-5.414 c-0.137-1.232-0.186-2.673-0.286-5.555c-0.053-1.544-0.054-3.814,0.24-6.625c-0.091-2.164-0.048-3.923,0.01-5.156 c0.154-3.23,0.483-4.206-0.156-5.844c-0.26-0.666-0.642-1.346-0.396-1.583c0.401-0.387,2.252,0.604,2.184,0.849 c-0.004,0.015-0.014,0.024-0.017,0.026c-0.048,0.042-0.075,0.077-0.427,0.708c-0.325,0.583-0.488,0.876-0.5,0.969 c-0.023,0.172-0.015,0.423,0.135,0.74c0.152,0.029,0.384,0.049,0.615-0.052c0.4-0.175,0.369-0.526,0.719-0.813 c0.55-0.451,1.26-0.102,1.438-0.438c0.057-0.109,0.073-0.315-0.229-0.74c-0.272-0.251-0.652-0.613-1.083-1.073 c-0.577-0.615-1.063-1.138-1.531-1.906c-0.485-0.797-0.728-1.195-0.688-1.688c0.062-0.753,0.636-0.905,0.625-1.625 c-0.012-0.752-0.646-1.163-0.469-1.406c0.149-0.203,0.571,0.115,1.344-0.031c0.101-0.019,0.679-0.136,1.177-0.604 c0.221-0.208,0.487-0.457,0.448-0.708c-0.052-0.335-0.635-0.604-1.448-0.625c0.167-0.212,0.468-0.54,0.937-0.778 c0.985-0.501,1.965-0.229,2.668-0.034c0.61,0.169,1.306,0.362,1.406,0.813c0.102,0.459-0.5,0.801-0.344,1.156 c0.128,0.29,0.685,0.42,1.063,0.25c0.55-0.247,0.601-1.077,0.625-1.469c0.014-0.219,0.062-1-0.406-1.75 c-0.394-0.632-0.878-0.799-0.813-1.156c0.058-0.315,0.487-0.472,0.563-0.5c0.328-0.12,0.788-0.105,1.063,0.125 c0.671,0.562-0.271,1.982,0.375,2.625c0.464,0.462,1.505,0.284,1.614-0.018c0.074-0.202-0.309-0.361-0.52-0.982 c-0.031-0.09-0.274-0.827,0.021-1.078c0.234-0.199,0.577,0.102,0.823-0.078c0.351-0.258-0.139-1.025,0.196-1.483 c0.428-0.584,1.836-0.171,1.929-0.142c0.181,0.055,1.628,0.517,1.844,1.656c0.101,0.531-0.076,1.156-0.344,1.219 c-0.311,0.073-0.588-0.652-1.125-0.625c-0.197,0.01-0.357,0.118-0.469,0.219c-0.062,0.103-0.314,0.546-0.166,1.061 c0.072,0.253,0.284,0.674,0.573,0.689c0.363,0.019,0.459-0.624,0.781-0.656c0.503-0.05,1.063,1.442,1.781,3.469 c0.682,1.922,1.022,2.884,1.063,3.063c0.864,3.84-0.904,5.821,0.342,7.065c0.771,0.769,2.266,0.829,2.876,0.248 c0.59-0.562,0.269-1.646,0.03-3.092c-0.327-1.974-0.135-3.999-0.239-5.997c-0.269-5.146-0.403-7.719,0.616-10.442 c1.319-3.526,3.425-4.534,2.823-6.5c-0.588-1.919-3.238-3.06-3.042-3.375c0.147-0.236,1.545,0.532,2.031,0 c0.09-0.099,0.181-0.277,0.125-0.406c-0.117-0.271-0.762-0.052-1.531-0.438c-0.395-0.198-0.453-0.37-0.469-0.438 c-0.059-0.247,0.098-0.558,0.313-0.625c0.216-0.068,0.335,0.162,0.727,0.296c0.338,0.116,0.927,0.177,1.211-0.109 c0.315-0.318,0.081-0.892,0.375-1.031c0.102-0.049,0.247-0.034,0.344,0.031c0.452,0.305-0.302,1.615,0.188,2.156 c0.15,0.166,0.449,0.296,1.094,0.188c0.128-0.049,0.303-0.14,0.375-0.313c0.185-0.44-0.517-0.887-0.375-1.406 c0.109-0.397,0.575-0.345,0.677-0.74c0.086-0.333-0.213-0.504-0.583-1.292c-0.26-0.552-0.457-0.971-0.344-1.406 c0.106-0.408,0.376-0.406,0.719-0.875c0.49-0.67,0.146-0.952,0.594-2.094c0.358-0.913,0.674-0.976,0.719-1.656 c0.026-0.388-0.059-0.633,0.125-0.875c0.198-0.259,0.455-0.185,0.969-0.375c0.222-0.082,1.143-0.423,1.313-1.125 c0.064-0.265,0.027-0.607-0.156-0.875c-0.468-0.687-1.573-0.431-1.688-0.802c-0.05-0.161,0.079-0.463,1.042-1.083 c0.227,0.082,0.544,0.224,0.865,0.479c0.297,0.236,0.387,0.403,0.53,0.379c0.25-0.042,0.515-0.648,0.345-1.098 c-0.255-0.676-1.321-0.55-1.448-1.094c-0.112-0.478,0.611-1.007,0.729-1.094c0.781-0.572,1.7-0.454,1.979-0.406 c1.528-9.417,3.056-18.833,4.583-28.25H255.25z M112.004,274.875c0.321,0.138,0.239,1.238,0.016,1.286 c-0.123,0.026-0.158-0.291-0.518-0.471c-0.306-0.153-0.488-0.026-0.749-0.211c-0.185-0.131-0.327-0.36-0.27-0.448 c0.075-0.117,0.42,0.144,0.918,0.047C111.765,275.007,111.858,274.812,112.004,274.875z M235,271.859 c0.463,0.204,0.685,0.376,0.667,0.516c-0.029,0.217-0.64,0.356-1.833,0.417c-0.234,0.003-0.359-0.025-0.375-0.083 C233.422,272.578,233.936,272.295,235,271.859z M227.833,280.083c-0.347,0.327-0.918,0.061-0.958,0.042 c-0.258-0.125-0.284-0.274-0.542-0.542c-0.583-0.605-1.238-0.661-1.208-0.833c0.024-0.138,0.43-0.031,0.875-0.292 c0.555-0.326,0.643-0.915,0.833-0.875c0.193,0.041,0.019,0.635,0.417,1.083c0.278,0.313,0.552,0.235,0.708,0.542 C228.09,279.466,228.07,279.86,227.833,280.083z M230.083,278.875c-0.222,0.07-0.474-0.149-0.542-0.208 c-0.569-0.495-0.159-1.233-0.667-1.75c-0.394-0.402-0.958-0.278-1.016-0.559c-0.044-0.213,0.244-0.456,0.509-0.636 c0.073,0,1.369,0.01,1.923,0.983C230.764,277.535,230.513,278.739,230.083,278.875z M234.583,278.667 c0.333,0.354,0.448,0.84,0.292,1.25c-0.135,0.354-0.427,0.529-0.527,0.583c-0.063-0.13-0.17-0.317-0.348-0.5 c-0.251-0.259-0.426-0.287-0.458-0.417C233.504,279.431,233.67,279.166,234.583,278.667z M234.208,275.458 c-0.232,0.238-0.336,0.487-0.583,0.5c-0.187,0.01-0.348-0.12-0.458-0.237c-0.28-0.537-0.155-0.859-0.125-0.93 c0.233-0.542,1.222-0.838,2.375-0.417c0.249,0.129,0.295,0.227,0.292,0.292C235.696,274.939,234.825,274.826,234.208,275.458z M238.167,270.875c-0.918,0.424-1.756-0.142-1.792-0.167c-0.141-0.187-0.149-0.302-0.12-0.375 c0.108-0.279,0.761-0.01,1.37-0.375c0.456-0.274,0.454-0.643,0.885-0.754c0.267-0.069,0.522,0.008,0.699,0.087 C239.186,269.976,238.782,270.591,238.167,270.875z M240.542,272.25c-0.016,0.579-0.094,0.68-0.167,0.708 c-0.201,0.079-0.552-0.316-0.708-0.542c-0.085-0.122-0.174-0.251-0.203-0.398c-0.08-0.409,0.314-0.915,0.953-1.268 C240.536,271.377,240.551,271.89,240.542,272.25z"/><path d="M239.875 277.813c.408.11.6.547.461.863-.129.292-.528.45-.877.283-.202-.163-.292-.426-.229-.667C239.302 278.012 239.568 277.81 239.875 277.813zM252.063 279.438l0 .001c.017.061 1.231.008 1.396-.418.198-.511-1.104-1.583-1.104-1.583h0c-.101-.06-.406-.223-.707-.12-.477.163-.683.906-.46 1.433C251.409 279.273 251.983 279.419 252.063 279.438zM253.563 272.438c.987-.17 1.825.582 1.833 1.375.008.725-.678 1.444-1.583 1.438-.813.009-1.469-.641-1.479-1.396C252.324 273.174 252.843 272.554 253.563 272.438zM252.438 268.833c-.311-.38-.345-.812-.375-1.188-.022-.272-.042-.527.063-.833.236-.694.882-.985.968-1.022.145-.063.724-.313 1.298-.044.752.353.849 1.295.86 1.42.087 1.01-.656 2.207-1.604 2.25C253.163 269.438 252.702 269.157 252.438 268.833zM256.5 265.333c.03 0 .34-.007.479-.229.192-.306-.081-.794-.313-.813-.242-.02-.578.463-.438.792C256.29 265.226 256.424 265.3 256.5 265.333zM261.185 264.794c.348.152.909-.382 1.148-.669.12-.144.371-.454.458-.938.056-.312.117-.646-.042-.792-.462-.425-2.589.925-2.438 1.458.043.152.25.156.563.542C261.085 264.655 261.063 264.741 261.185 264.794zM260.229 267.583c.531.074.859.582.75 1.021-.092.368-.479.643-.917.604-.742-.196-1.055-.861-.896-1.229C259.291 267.691 259.736 267.507 260.229 267.583zM264.563 266.875c.01-.177.89-.571 1.292-.125.236.261.241.738-.042 1.104-.699.133-.919.05-.979-.063-.084-.156.135-.376.021-.625C264.763 266.968 264.557 266.962 264.563 266.875zM272.646 264.25c.29.049.463.262.792.667.422.52.762.938.667 1.375-.109.501-.761.897-1.583.942-.138.017-.592.056-.958-.234-.526-.417-.471-1.199-.313-1.646C271.464 264.749 272.081 264.155 272.646 264.25zM276.604 263.083c.484.172.985.078 1.208-.208.304-.39.155-1.218-.583-1.625-.922.087-1.449.72-1.374 1.167C275.927 262.85 276.559 263.068 276.604 263.083zM273.208 258.771c1.081-.034 2.191-1.5 1.734-2.682-.309-.799-1.251-1.257-2.109-1.151-.535.066-1.215.375-1.479.979C270.861 257.046 271.996 258.809 273.208 258.771zM276.667 256.125c.005-.041.09-.649.625-.896.065-.03.421-.186.771-.042.361.149.312.453.688.625.338.155.511-.029.729.146.23.185.278.586.167.875-.081.211-.231.322-.447.48-.248.182-.515.378-.865.377-.193-.001-.441-.147-.938-.441-.488-.288-.583-.4-.646-.521C276.632 256.501 276.645 256.267 276.667 256.125zM275.813 252.813c.348.009.715-.225.859-.54.304-.667-.506-1.451-.563-1.505-.203-.192-.413-.305-.567-.371-.195.022-.648.102-.854.438C274.286 251.487 275.015 252.791 275.813 252.813zM276.125 246.313c.062-.023.749-.273 1.083.042.434.408.099 1.603-.556 1.771-.268.069-.59-.034-.777-.25C275.564 247.516 275.614 246.829 276.125 246.313zM277.271 242.75c.095-.685.391-.948.521-1.042.713-.516 2.194-.111 3.458 1.271-.612 1.044-1.778 1.499-2.708 1.167C277.638 243.823 277.315 242.884 277.271 242.75zM278.438 239.896c.14.144.361.323.625.313.383-.016.48-.417.875-.625.737-.388 1.548.405 1.917.125.209-.159.278-.664-.333-2.188-.661.908-1.165 1.083-1.514 1.058-.36-.026-.478-.259-.861-.225-.551.049-1.153.606-1.063 1.083C278.099 239.518 278.155 239.712 278.438 239.896zM277.979 236.771c.203.222.627.319.875.167.363-.223.045-.793.375-1.813.198-.612.404-.688.354-1.041-.082-.587-.753-1.115-1.146-1.001-.267.078-.267.414-.604.503-.285.075-.445-.124-.625-.044-.153.068-.291.324-.229 1.146-.064.235-.116.569.062.771.172.195.395.081.605.271C277.955 236.009 277.691 236.456 277.979 236.771z"/></g><path d="M102.438,197.663c-0.326,7.673,0.375,20.653,7.859,33.773 c18.856,33.051,62.368,34.735,65.25,34.802c5.461-0.039,38.651-0.804,61.894-26.819c14.496-16.224,17.814-34.088,18.754-41.756 H102.438z M228.779,205.196c-0.617,1.204-2.11,1.307-2.176,1.31c-0.512,0.279-1.184,0.753-1.331,1.474 c-0.144,0.705,0.341,1.026,0.127,1.637c-0.293,0.835-1.374,0.743-1.606,1.556c-0.183,0.64,0.394,1.026,0.142,1.383 c-0.38,0.537-1.824-0.147-2.424,0.541c-0.108,0.123-0.245,0.356-0.332,0.62c-0.087,0.265-0.159,0.482-0.091,0.69 c0.163,0.5,0.964,0.426,1.056,0.819c0.073,0.308-0.321,0.772-0.708,0.798c-0.46,0.031-0.655-0.576-1.067-0.553 c-0.217,0.012-0.512,0.2-0.835,1.013c-0.926-1.32-1.549-1.917-1.87-1.791c-0.156,0.061-0.24,0.293-0.254,0.696 c0.393,2.992,0.237,3.995-0.118,4.097c-0.458,0.133-1.151-1.265-1.783-1.068c-0.342,0.107-0.569,0.65-0.421,0.923 c0.135,0.25,0.497,0.116,0.843,0.427c0.239,0.215,0.405,0.583,0.338,0.942c-0.08,0.427-0.476,0.777-0.992,0.868 c-0.356,0.01-0.903-0.008-1.528-0.186c-1.473-0.419-2.133-1.368-2.678-1.092c-0.274,0.139-0.394,0.525-0.549,1.023 c-0.086,0.277-0.136,0.445-0.084,0.655c0.092,0.378,0.474,0.744,0.845,0.737c0.434-0.008,0.495-0.52,1.014-0.614 c0.446-0.08,1.006,0.188,1.056,0.491c0.072,0.429-0.913,0.71-0.861,1.229c0.041,0.405,0.671,0.558,0.607,0.777 c-0.052,0.179-0.528,0.264-0.93,0.164c-0.225-0.056-0.518-0.193-1.014-0.819c-0.745-0.939-0.685-1.386-1.31-1.801 c-0.083-0.055-0.645-0.429-0.93-0.246c-0.314,0.203,0.03,0.882-0.338,1.187c-0.302,0.251-0.734-0.041-0.993,0.215 c-0.2,0.198-0.209,0.639-0.021,0.931c0.414,0.642,1.544,0.199,2.197,0.86c0.327,0.331,0.389,0.791,0.391,1.126 c-0.061,0.192-0.19,0.491-0.475,0.635c-0.571,0.288-1.302-0.281-1.479-0.082c-0.222,0.251,0.892,1.199,0.612,1.743 c-0.156,0.303-0.674,0.339-1.228,0.378c-1.351,0.094-2.235-0.322-2.343-0.115c-0.084,0.163,0.45,0.44,0.845,1.228 c0.149,0.296,0.224,0.558,0.264,0.727c-0.925,0.18-0.975,0.197-1.109,0.215c-1.26,0.168-2.204-0.626-2.366-0.409 c-0.156,0.208,0.723,0.929,0.549,1.187c-0.195,0.29-1.398-0.474-2.028,0c-0.407,0.306-0.212,0.855-0.634,1.064 c-0.343,0.17-0.622-0.116-1.191-0.177c-0.963-0.104-2.094,0.51-2.147,1.078c-0.06,0.64,1.28,0.917,1.225,1.525 c-0.046,0.51-1.009,0.545-2.493,1.341c-1.637,0.878-2.36,1.85-2.863,1.576c-0.367-0.2-0.143-0.805-0.56-1.003 c-0.397-0.189-0.683,0.323-1.817,0.532c-0.499,0.092-0.793,0.058-0.951,0.287c-0.171,0.248,0.053,0.465-0.063,0.819 c-0.146,0.445-0.726,0.788-1.243,0.807c-0.768,0.028-1.142-0.668-1.514-0.49c-0.258,0.123-0.125,0.481-0.412,1.115 c-0.136,0.3-0.407,0.902-0.994,1.14c-0.643,0.26-1.499,0.014-1.922-0.485c-0.424-0.5-0.144-0.939-0.507-1.187 c-0.547-0.374-1.288,0.545-2.366,0.287c-0.742-0.178-0.995-0.757-1.394-0.614c-0.449,0.161-0.372,0.98-0.676,1.023 c-0.399,0.057-0.628-1.337-1.394-1.474c-0.447-0.08-0.579,0.357-1.331,0.668c-1.155,0.478-2.402,0.093-3.275-0.177 c-0.421-0.13-1.014-0.355-1.669-0.757c-2.022-1.492-2.753-1.569-3.042-1.351c-0.289,0.218-0.082,0.688-0.528,1.371 c-0.339,0.519-0.947,0.997-1.268,0.86c-0.324-0.139-0.119-0.806-0.592-1.146c-0.211-0.152-0.466-0.172-0.655-0.164 c-1.405,0.777-1.97,0.737-2.218,0.532c-0.535-0.441,0.118-1.869-0.357-2.109c-0.347-0.175-0.797,0.536-1.46,0.39 c-0.52-0.115-0.498-0.61-1.056-0.737c-0.257-0.058-0.636,0.084-1.394,0.368c-0.773,0.29-0.852,0.403-0.887,0.491 c-0.148,0.373,0.308,0.744,0.129,1.027c-0.098,0.154-0.328,0.194-0.552,0.201c-0.988,0.032-1.901-0.565-2.451-0.86 c-0.594-0.318-1.494-0.674-2.789-0.778c-0.208-0.037-1.477-0.279-1.986-1.31c-0.111-0.226-0.167-0.451-0.19-0.655 c-1.189,0.171-1.487,0.104-1.521,0c-0.064-0.197,0.851-0.435,1.035-1.146c0.127-0.488-0.122-1.079-0.423-1.146 c-0.239-0.054-0.342,0.261-0.803,0.328c-0.238,0.034-0.436-0.023-0.822-0.14c-0.525-0.159-0.896-0.344-0.91-0.351 c-2.058-1.025-2.607-0.812-3.338-1.597c-0.239-0.256-0.453-0.571-0.761-0.553c-0.304,0.018-0.434,0.345-0.886,0.413 c-0.032,0.005-0.303,0.043-0.508-0.044c-0.645-0.274-0.056-1.539-0.789-2.479c-0.19-0.244-0.751-0.558-1.873-1.184 c-0.314-0.176-0.578-0.315-0.761-0.409c-0.194-0.403-0.368-0.934-0.127-1.31c0.277-0.432,0.915-0.368,0.93-0.573 c0.02-0.276-1.107-0.851-2.155-0.614c-0.517,0.117-0.658,0.35-1.265,0.401c-0.444,0.037-1.115-0.026-1.186-0.278 c-0.093-0.334,0.987-0.581,1.268-1.515c0.103-0.343,0.115-0.835-0.127-0.982c-0.273-0.166-0.818,0.138-1.141,0.45 c-0.597,0.578-0.495,1.245-1.008,1.401c-0.044,0.013-0.287,0.087-0.449-0.03c-0.392-0.282,0.186-1.307-0.148-1.576 c-0.134-0.108-0.43-0.108-1.12,0.287c0.363-0.207,0.56-0.438,0.671-0.601c0.391-0.576,0.158-0.983,0.585-1.607 c0.236-0.345,0.337-0.263,0.566-0.62c0.33-0.513,0.203-0.806,0.389-1.315c0.354-0.965,1.302-1.241,1.189-1.465 c-0.088-0.176-0.721-0.113-1.174,0.136c-0.41,0.225-0.608,0.568-0.685,0.724c-0.135-0.045-1.554-0.498-2.282,0.205 c-0.08,0.077-0.363,0.35-0.296,0.614c0.123,0.485,1.304,0.445,1.352,0.778c0.02,0.141-0.163,0.347-0.887,0.655 c0.069,0.196,0.614,1.796-0.092,2.363c-0.157,0.126-0.522,0.318-0.711,0.175c-0.144-0.109-0.159-0.395-0.021-0.691 c0.374-1.426,0.221-1.903-0.021-2.052c-0.39-0.24-1.118,0.306-1.437,0c-0.169-0.163-0.113-0.46-0.084-0.614 c0.172-0.92,1.254-1.412,1.498-1.516c0.599-0.218,1.199-0.436,1.798-0.653c0.002-0.151-0.021-0.362-0.169-0.491 c-0.28-0.244-0.694,0.072-1.014-0.123c-0.437-0.266-0.062-1.096-0.507-1.392c-0.267-0.178-0.752-0.111-0.964,0.13 c-0.315,0.356,0.147,0.892-0.177,1.426c-0.154,0.254-0.32,0.234-0.676,0.491c-0.893,0.646-1.099,1.679-1.225,1.637 c-0.127-0.042,0.316-1.014-0.127-1.474c-0.227-0.235-0.493-0.137-0.634-0.368c-0.249-0.41,0.394-1.04,0.211-1.228 c-0.145-0.15-0.603,0.194-1.437,0.327c-0.397,0.064-0.728,0.055-0.93,0.041c0.19-1.003,0.38-2.006,0.57-3.009 c-0.174-0.07-0.433-0.142-0.697-0.061c-0.499,0.153-0.546,0.709-0.972,0.86c-0.214,0.075-0.562,0.063-1.141-0.368 c0.39-1.953,0.055-2.734-0.391-3.06c-0.457-0.334-1.018-0.181-1.267-0.609c-0.285-0.489,0.325-0.9,0.179-1.776 c-0.115-0.689-0.629-0.777-0.676-1.433c-0.032-0.439,0.151-0.896,0.38-1.146c0.993-1.084,3.667,0.824,7.056,0.368 c1.292-0.174,2.295-0.638,2.916-0.982c1.028-0.158,1.774-0.013,2.282,0.164c0.67,0.233,0.915,0.518,1.394,0.45 c0.685-0.097,0.673-0.748,1.438-1.185c1.011-0.579,2.633-0.359,3.591,0.326c0.38,0.271,0.501,0.506,0.887,0.573 c0.639,0.112,1.263-0.362,1.69-0.778c0.396-0.068,0.939-0.093,1.352,0.205c0.508,0.367,0.407,0.925,0.845,1.31 c0.291,0.256,0.848,0.46,2.023,0.176c1.057,0.391,2.26,0.659,2.878,0.111c0.543-0.481,0.171-1.176,0.761-1.719 c0.716-0.66,2.083-0.392,3.254-0.164c1.108,0.217,1.19,0.428,1.986,0.532c1.183,0.154,1.989-0.186,3.127-0.532 c0.73-0.222,5.695-1.734,6.659-0.392c0.278,0.387,0.106,0.849,0.482,1.047c0.423,0.223,1-0.169,1.732-0.532 c0.648-0.321,1.568-0.694,2.789-0.942c1.962-0.589,3.397-0.469,4.352-0.246c0.439,0.103,0.333,0.124,1.69,0.532 c2.919,0.878,3.531,0.818,3.93,0.532c0.525-0.377,0.323-0.892,0.761-1.064c0.993-0.392,2.559,2.052,3.254,1.719 c0.178-0.085,0.364-0.384,0.226-1.474c0.521,0.021,1.261,0.112,2.056,0.45c1.249,0.531,1.595,1.23,2.409,1.269 c0.49,0.024,1.187-0.19,2.07-1.269c1.781-1.172,2.569-1.149,2.958-0.901c0.49,0.313,0.294,0.948,0.845,1.269 c0.552,0.321,1.07-0.13,2.662-0.368c0.976-0.146,1.832-0.275,2.197,0.143c0.266,0.304,0.099,0.698-0.127,1.781 c-0.351,1.686-0.707,3.395,0,3.93c0.29,0.219,0.699,0.215,0.887,0.184c0.729-0.117,1.097-0.397,1.299-0.644 c0.634-0.777,0.063-1.764,0.349-3.306c0.156-0.839,0.501-1.497,0.792-1.944c1.932,0.355,3.44,0.223,4.49,0.02 c2.265-0.437,3.62-1.437,5.704-0.942c0.665,0.158,0.82,0.33,1.521,0.614c2.524,1.024,4.913,0.587,6.676,0.368 c2.087-0.258,5.067-0.429,9.085-0.061C229.003,203.846,229.131,204.51,228.779,205.196z" fill="#fff"/><g fill="#fff"><path d="M76.167 109.354c.937-.034 1.937.998 2 2.146.066 1.191-.881 2.412-2 2.417-.791.003-1.481-.602-1.75-1.25C73.863 111.332 74.919 109.4 76.167 109.354zM73.167 104.75c.578-.231 1.398.359 1.583 1.083.163.636-.147 1.437-.667 1.583-.618.174-1.429-.61-1.5-1.417C72.544 105.553 72.717 104.93 73.167 104.75zM70.281 99.781c.427-.115.983.512 1.219 1 .074.153.473.98.031 1.5-.217.255-.61.406-.969.313-.367-.096-.554-.411-.625-.531C69.46 101.258 69.738 99.928 70.281 99.781zM76.813 92.875c.026-.151.192-1.181-.219-2.031-.904-1.872-4.336-2.324-6.438-1.156-.202.112-1.611.895-1.531 1.844.039.464.423.844 1.594 1.5 2.279 1.278 4.568 2.562 5.781 1.594C76.592 94.152 76.741 93.293 76.813 92.875zM82.813 90.188c1.212 1.795 1.237 2.589.969 2.969-.244.345-.708.318-1.281 1-.316.376-.337.577-.642.732-.538.273-1.152-.006-1.233-.044-.546-.257-.761-.747-.813-.875-.149-.351-.298-.871-.094-1.344.204-.474.653-.646 1.25-1C81.438 91.347 82.094 90.899 82.813 90.188zM82.938 98.031c.129-.214.348-.502.705-.673.533-.256.859-.007 1.331-.282.508-.295.529-.816.776-.795.26.022.196.594.656 1.125.52.601 1.076.417 1.313.906.153.318-.033.493-.219 1.438-.249 1.265-.016 1.462-.313 1.844-.447.575-1.379.645-1.992.51-.108-.024-.844-.198-1.338-.867-.196-.266-.288-.521-.326-.643-.273-.872.134-1.517-.236-1.84-.113-.098-.259-.133-.339-.313C82.89 98.291 82.911 98.136 82.938 98.031zM89.844 90.344c.187-.113.525-.281.781-.156.562.274.495 1.846-.031 2.063-.32.131-.905-.2-1.083-.732C89.373 91.105 89.504 90.64 89.844 90.344zM78.688 82.313c.067-.428.296-.801.625-.906.614-.196 1.419.595 1.313 1.219-.035.208-.176.427-.391.526C79.809 83.347 79.124 83.055 78.688 82.313zM83.695 85.075c.343-.727 1.63-1.003 2.461-.513.417.246.625.629.719.844.214.779-.019 1.469-.438 1.656-.358.16-.83-.057-.906-.094-.332-.159-.3-.308-.625-.5-.521-.308-.861-.076-1.125-.344C83.537 85.877 83.546 85.393 83.695 85.075zM91.219 72.969c.238.034.623.058 1.063-.063.685-.189 1.765-.802 1.688-1.62-.048-.514-.54-.96-1.157-1.193-.545.355-.986.682-1.313.938-.644.505-.78.682-.813.906C90.618 72.421 91.075 72.844 91.219 72.969zM92.563 84.781c.187-.448.683-.564.813-.594.377-.088.96-.047 1.25.344.421.567.068 1.656-.651 1.844-.526.137-1.083-.251-1.317-.688C92.605 85.591 92.391 85.193 92.563 84.781zM98.25 68.5c2.262-1.051 4.575-.324 5.313 1.125.531 1.043.417 2.8-.719 3.625-.664.482-1.433.468-1.781.438-.181-.049-.347-.113-.5-.188C98.495 72.492 98.283 69.231 98.25 68.5zM93.688 77.75c.01.078.093.635.594.938.331.2.896.319 1.313-.031.345-.29.463-.798.281-1.25.108-.441-.117-.893-.519-1.065-.427-.183-.913.009-1.075.284-.122.208-.025.404-.188.531-.174.136-.406.004-.5.125C93.548 77.339 93.53 77.461 93.688 77.75zM86.682 79.641c.723.045 1.25-.453 1.313-.514.712-.693.763-1.958.318-2.302-.204-.158-.379-.018-.603-.21-.346-.295-.125-.791-.428-1.085-.12-.116-.358-.235-.885-.143-.183.019-1.377.161-1.805 1.003C83.973 77.609 85.328 79.556 86.682 79.641z"/><path d="M111.75 68.833c-.213 1.792.118 2.434.5 2.667.241.147.459.104 1.094.281.592.165 1.055.385 1.365.552-.095.216-.255.506-.521.792-.464.499-.995.706-1.271.792-.162.201-.457.623-.573 1.24-.096.512-.027.937.031 1.177-.333-.097-.667-.194-1-.292-.366-.542-.367-.909-.313-1.135.15-.619.855-.728 1.188-1.469.189-.421.166-.839.125-1.104-.507.009-1.098.054-1.749.17-.766.136-1.424.337-1.959.539-.13.013-.676.083-1.073.552-.24.284-.316.585-.344.74-.051.279-.17.696-.5 1.045-.413.436-.887.48-.96.826-.031.145 0 .385.377.755.519.614.797.702.957.643.242-.089.193-.508.476-.991.257-.44.652-.701.984-.86.092.078.833.725.76 1.688-.033.441-.224.767-.344.938-.302-.062-1.151-.196-2.094.219-.815.359-1.267.937-1.448 1.198-.028-.401-.301-.724-.646-.792-.367-.072-.653.177-.688.208l-.333 1.167c.111 1.042.222 2.083.333 3.125-1.462.092-2.02-.245-2.25-.594-.177-.268-.232-.653-.625-.938-.263-.19-.551-.244-.75-.26-.339.143-.767.393-.906.823-.282.873.832 1.862.531 2.219-.223.264-.924-.169-1.469.25-.151.116-.236.256-.281.344.971 1.144.871 2.666.068 3.37-.787.69-1.976.355-2.068.328-.105.318-.297.773-.656 1.24-.473.614-1.013.959-1.344 1.135.77.491 1.188 1.373 1.063 2.24-.145 1.005-.993 1.813-2.063 1.927-.525 1.964-1.218 2.581-1.781 2.76-.283.09-.927.194-1.125.656-.084.195-.062.394-.031.531.134.043.377.142.563.375.381.478.196 1.112.156 1.25-.289.995-1.504 1.287-1.573 1.302 0 .972 0 1.944 0 2.917-.057-.041-.777-.537-1.615-.219-.731.277-.977.956-1.01 1.052l.958 1.333L86.5 108.5c.264.528.528 1.056.792 1.583-.658-.033-1.552.008-2.542.323-.349.111-.662.241-.938.375.057-.406-.135-.779-.438-.906-.412-.174-.88.169-1.031.5-.115.252-.031.566.14 1.184.18.647.297.758.224.983-.131.407-.729.711-1.021.552-.35-.19-.045-.925-.475-1.219-.237-.163-.599-.124-.838.032-.319.209-.358.589-.375.75-.033.318.061.585.156.781.444.919 1.221.937 1.689 1.677.181.287.361.753.28 1.51-.22.395-.697.528-1.031.344-.263-.145-.41-.471-.352-.805-.039-.374-.078-.748-.117-1.122-.514-.069-1.028-.139-1.542-.208.472-1.203.278-1.573.135-1.708-.101-.096-.208-.104-.906-.375-.222-.086-.402-.159-.521-.208-.035.361-.069.722-.104 1.083.036.272.115.676.313 1.125.319.727.707 1.022 1 1.469.296.45.582 1.185.458 2.406-.639 0-1.278 0-1.917 0-.208.016-.445.072-.573.25-.227.315.074.749-.094.938-.121.136-.473.131-1.375-.313-.168-.044-.406-.075-.625.031-.706.341-.4 1.7-.813 3.719-.318 1.557-.926 2.828-1.236 2.781-.234-.035-.148-.801-.563-.956-.389-.145-.939.352-1.201.706-.517.699-.421 1.533-.375 1.813-1.007-1.42-2.014-2.84-3.021-4.26-.076 8.806-.153 17.611-.229 26.417 1.458.042 2.917.083 4.375.125 27.741-27.014 55.483-54.028 83.224-81.042H111.75zM117.273 69.399c.314-.315 1.041-.223 1.807.23-.156.181-.306.25-.417.279-.226.059-.333-.037-.559.051-.165.064-.152.132-.336.203-.104.04-.3.115-.455.027-.148-.084-.219-.294-.188-.521C117.16 69.54 117.216 69.456 117.273 69.399zM114.496 70.108c-.666-.074-1.002-.168-1.009-.282-.002-.034.025-.069.08-.107.099-.104.199-.17.287-.214.669-.332 1.475.23 1.549.283-.006.038-.044.258-.239.382C114.971 70.295 114.7 70.272 114.496 70.108zM115 75.104c-1.005-.319-1.237-.559-1.229-.729.009-.209.379-.278.771-.625.424-.376.625-.859.729-1.25.128-.129.306-.266.479-.229.29.062.318.56.542 1.021.503 1.034 1.65 1.166 1.604 1.458C117.865 74.944 117.32 75.135 115 75.104zM120.5 72.854c-.355-.198-.489-.406-.714-.361-.21.041-.24.251-.378.241-.265-.018-.226-.785-.616-.943-.324-.131-.623.29-1 .146-.198-.076-.31-.266-.375-.417-.036-.1-.067-.238 0-.333.169-.241.757.092 1.313-.083.253-.08.571-.288.854-.854.017.337.057.823.162 1.29.029.13.074.306.213.376.151.076.256-.048.417.021.177.076.124.26.354.479.122.116.154.081.354.229.143.106.439.355.396.438C121.43 73.176 120.929 73.093 120.5 72.854zM122.479 71.25c-.215-.049-.493-.152-.646-.396-.181-.288-.039-.535-.229-.708-.233-.213-.592.025-.812-.201-.115-.117-.16-.327-.104-.445.1-.213.622-.331 2.5.104.481.417.54.588.5.667-.073.142-.465-.029-.792.167C122.615 70.606 122.517 70.965 122.479 71.25zM123.301 71.882c-.04-.026-.107-.081-.155-.197.081-.099.222-.245.438-.352.426-.21.836-.116.958-.083-.153.145-.306.29-.458.435C123.818 71.936 123.495 72.007 123.301 71.882zM280.5 114.833c-.457-.28-.861-.19-1.206-.335-.149.145-.245.411-.314.61-.173.492-.068.667-.234.795-.263.202-.653-.142-.933.077-.204.16-.143.459-.292.497-.127.033-.289-.155-.422-.352-.295-.199-.339-.323-.324-.4.025-.125.204-.116.476-.329.25-.196.241-.317.417-.375.234-.078.358.099.521.063.363-.081.342-1.094.47-1.614-.028-.045-.056-.089-.111-.11-.387-.144-.92.688-1.151.557-.206-.116.214-.773-.083-1.396-.218-.456-.769-.786-1.106-.669-.211.074-.156.26-.498.523-.107.082-.308.169-.678.324.122.184.084.666-.156 1.02-.233.344-.479.303-.656.656-.177.352-.078.685-.172.703-.107.021-.163-.433-.563-.703-.206-.139-.313-.101-.531-.203-.481-.225-.362-.663-.734-.875-.399-.227-.653.151-1.047-.078-.277-.161-.21-.383-.703-.969-.079-.094-.171-.189-.355-.379-.635-.654-.853-.781-.816-.965.032-.16.246-.304.406-.281.216.03.267.305.656.594.34.252.583-.095.97.105.382.197.279.561.686.77.327.168.486-.02.75.156.345.23.223.652.5.844.166.115.482.152 1.141-.203-.174-.122.142-.568-.067-.937-.163-.286-.442-.174-.651-.433-.372-.461.218-1.238-.104-1.542-.241-.227-.768.013-.818-.12-.048-.128.469-.271.531-.625.048-.27-.204-.459-.766-1.172-.216-.275-.386-.51-.5-.672-.273-.131-.539-.19-.734-.078-.192.11-.18.309-.38.396-.235.102-.607-.017-.667-.208-.084-.269.506-.498.5-.938-.003-.251-.2-.456-.375-.594-.124-.042-.71-.228-1.146.052-.16.103-.311.275-.339.307-.151.175-.242.346-.297.469.012.417.131.693.24.87.298.484.739.578.918 1.087.072.204.072.392.061.517-.101.105-.394.383-.828.417-.576.045-1.145-.357-1.318-.833-.258-.711.422-1.426.104-1.729-.116-.11-.314-.118-.443-.078-.165.051-.276.199-.411.516-.342.801-.222 1.246-.542 1.458-.076.05-.205.107-.422.089-.395-.744-.345-1.17-.224-1.422.119-.248.313-.336.625-.771.205-.285.335-.543.411-.714.229-1.34.238-2.046.026-2.12-.134-.046-.355.16-.664.618-1.377-.118-1.838-.52-2.002-.868-.149-.315-.025-.523-.234-.755-.459-.51-1.537-.039-1.724-.411-.108-.214.226-.416.115-.729-.122-.341-.597-.322-.718-.663-.073-.206.025-.428.108-.571.54-.093.756.009.849.13.174.226-.038.569.172.856.117.159.305.221.448.249.101-.044.281-.139.422-.333.293-.404.16-.882.141-.948 2.007.265 2.55.143 2.609-.052.044-.143-.191-.27-.172-.587.02-.344.31-.438.391-.806.033-.152.039-.386-.125-.711.1-.007.578-.05.948-.458.353-.389.365-.842.365-.948.723.411 1.519.802 1.679.609.031-.038.041-.101-.043-.37-.091-.289-.253-.694-.557-1.146-.013-.367.041-.804.328-1.125.381-.426.909-.355.938-.563.046-.33-1.21-1.043-1.75-.667-.44.306-.036 1.079-.589 1.889-.232.34-.52.521-.952.757-2.19 1.194-3.899 2.125-5.208 1.396-.137-.077-.33-.205-.531-.422-.191-.045-.445-.072-.594.068-.205.192-.028.531-.187.854-.093.189-.318.407-.906.516.514-.506.73-1.168.531-1.703-.046-.124-.142-.314-.354-.5-.021.059-.054.139-.104.229-.022.04-.202.355-.5.542-.365.229-1.009.328-1.271.042-.3-.328.084-.962-.229-1.188-.148-.106-.356-.054-.448-.031-.327.082-.503.366-.615.552-.282.47-.111.633-.333.896-.29.343-.625.118-1.021.458-.418.359-.358.879-.609.906-.224.024-.435-.372-.453-.406-.28-.538.039-1.02-.25-1.563-.04-.074-.1-.167-.208-.229-.218-.125-.475-.037-.557-.005-.155.065-.389.181-.63.38-.476.394-.639.833-.76.793-.161-.053.129-.837-.198-1.085-.197-.149-.386.069-.917-.042-.056-.012-.4-.088-.729-.354-.074-.06-.393-.318-.333-.458.049-.117.303-.018.563-.167.237-.135.357-.407.373-.533.08-.648-2.14-1.446-2.435-1.551-1.526-.539-3.798-1.289-6.854-2.125-3.546-3.931-4.125-5.288-3.938-5.771.033-.084.245-.542.049-.805-.146-.196-.376-.092-.591-.278-.242-.21-.126-.496-.25-1.229-.084-.497-.175-1.033-.5-1.146-.249-.087-.54.109-.563.125-.228.158-.195.331-.407.501-.216.174-.583.264-.698.144-.25-.262.869-1.354.561-1.819-.247-.374-1.147.061-1.582-.472-.159-.195-.143-.38-.417-.625-.227-.203-.446-.262-.438-.375.004-.059.07-.138.365-.219.455-.112 1.177-.354 1.906-.906.492-.372.835-.771 1.063-1.083-.219.041-.507.109-.833.229-.311.114-.448.199-.854.354-.504.192-.758.287-.857.201-.127-.11-.001-.37.19-1.097.239-.911.234-1.236.385-1.26.275-.044.43 1.017.893 1.063.307.031.527-.406 1.304-1.657.739-1.19 1.109-1.785 1.396-2.167.77-1.024 1.161-1.229 1.063-1.563-.15-.509-1.248-.678-1.958-.604-.708.074-1.284.416-1.354.458-.411.249-.471.415-.894.609-.409.188-1.045.35-1.19.141-.16-.232.436-.696.268-1.13-.085-.218-.322-.323-.663-.433-1.167-.375-1.504-.142-2.125-.375-.897-.336-.784-1.042-1.833-1.646-.585-.336-1.166-.431-1.563-.458-11.896-.486-23.792-.972-35.688-1.458l90.031 82.875c0-11.323 0-22.646 0-33.969C281.066 115.286 280.754 114.989 280.5 114.833zM261.636 99.518c.149-.16.359-.042.658-.142.245-.081.283-.213.553-.424.352-.274.6-.452.871-.424.213.023.258.157.482.294.708.432 1.614-.088 1.718.141.052.114-.127.344-.318.435-.119.057-.229.054-.272.053-.676-.024-1.198-.231-1.764-.158-.441.056-.812.259-.812.259-.239.131-.349.25-.624.318-.058.014-.469.115-.565-.047C261.516 99.74 261.558 99.602 261.636 99.518zM255.859 99.969c-.584.092-1.138-.021-1.141-.109-.002-.07.342-.023.656-.281.311-.255.323-.588.484-.594.082-.003.197.078.344.438.413.059.511.13.516.188C256.73 99.743 256.246 99.908 255.859 99.969zM263.656 105.234c.299-.142.72-.011.953.354-.304.096-.517.221-.656.318-.174.121-.272.227-.391.203-.14-.028-.22-.22-.266-.375C263.307 105.688 263.378 105.367 263.656 105.234zM262.891 108.969c-.128.234-.049.437-.219.578-.099.082-.225.095-.313.094-.093-.047-.265-.154-.297-.328-.037-.199.128-.377.313-.578.13-.142.257-.238.344-.297.58-.02.725.026.734.078C263.47 108.605 263.072 108.638 262.891 108.969zM264.141 111.484c-.109.224-.032.365-.178.492-.122.106-.331.141-.509.055-.17-.082-.279-.257-.276-.448.079-.091.174-.228.22-.409.09-.357-.089-.572-.006-.94.026-.115.083-.269.219-.438.083-.228.138-.269.172-.266.122.011.011.58.349.949.271.296.643.258.651.418C264.79 111.076 264.332 111.09 264.141 111.484zM279.602 116.125c.085-.201.158-.237.205-.238.072-.002.136.077.402.676.183.412.215.518.167.566-.057.057-.202.006-.313-.045-.121-.172-.242-.283-.333-.354-.132-.103-.218-.135-.25-.229C279.436 116.374 279.521 116.229 279.602 116.125zM277.604 118.292c.692-.035 1.175.479 1.5.25.172-.121.072-.291.313-.5.179-.156.285-.105.646-.292.322-.167.392-.286.458-.25.144.079-.259.604-.167 1.333.063.5.322.802.146 1.156-.057.115-.139.193-.199.239-.174.06-.423.113-.635.001-.307-.163-.26-.527-.553-.632-.236-.084-.336.128-.697.048-.222-.049-.303-.156-.438-.104-.151.058-.136.226-.29.276-.123.039-.28-.02-.368-.116-.148-.162-.024-.348-.154-.472-.149-.143-.406.01-.513-.117-.046-.054-.072-.168.05-.438-.005-.002-.011-.005-.016-.007C276.877 118.517 277.196 118.313 277.604 118.292zM278.438 121.542c-.322-.051-.526-.278-.604-.375.136-.055.441-.153.771-.042.169.057.406.19.388.292C278.973 121.523 278.673 121.579 278.438 121.542zM278.992 125.54c-.045.121-.11.191-.159.231-.228.187-.63.157-1-.083.122-.398.482-.609.768-.537C278.864 125.218 278.978 125.504 278.992 125.54zM276.481 114.252c.198-.103.439-.148.439-.148.009.001.166.022.229.162.045.099.013.193.005.213-.072.145-.212.24-.366.246-.171.007-.287-.1-.309-.121-.001 0-.002-.001-.004-.001-.189-.064-.275-.041-.291-.073C276.162 114.481 276.307 114.343 276.481 114.252zM275.235 115.604c.093-.143.286-.212.486-.173.32.153.508.457.471.745-.045.352-.419.622-.573.557-.118-.05-.022-.261-.22-.533-.101-.138-.195-.18-.22-.322C275.178 115.862 275.156 115.727 275.235 115.604zM274.792 119.021c.207-.183.232-.45.313-.438.067.01.088.201.104.333.026.213.104.84.188 1.063.26.691 1.769.664 1.758.784-.007.083-.731.07-1.632.089-.903.018-1.826.064-1.834-.018-.008-.074.759-.071.938-.479.102-.233-.022-.519-.167-.75-.389-.185-.471-.281-.458-.333C274.028 119.157 274.484 119.293 274.792 119.021zM265.925 113.358c-.182-.05-.288-.371-.191-.608.087-.214.307-.286.344-.297.196.08.326.254.328.438C266.409 113.17 266.117 113.411 265.925 113.358zM266.703 114.359c-.117.052-.227.058-.297.056-.011-.015-.128-.179-.063-.368.054-.157.211-.265.391-.266.05.001.278.008.328.125C267.121 114.043 266.911 114.268 266.703 114.359zM268.328 112.344c-.036.397-.101.527-.156.609-.031.046-.188.282-.469.359-.294.08-.656-.031-.656-.031s-.244-.251-.234-.469c.009-.222.276-.249.313-.469.034-.206-.166-.398-.391-.609-.504-.474-.764-.419-.828-.656-.114-.425.594-1.063.594-1.063 0 0 0 0 0 0 .293.02.632.089.734.313.115.251-.164.491-.047.703.165.298.815.003 1.094.344C268.402 111.523 268.377 111.796 268.328 112.344zM269.801 117.251c-.084.026-.204-.127-.239-.173-.162-.121-.172-.324-.094-.406.078-.081.278-.081.406.071C269.918 117.022 269.885 117.225 269.801 117.251zM269.766 115.5c-.165.01-.458-.003-.813-.188.083-.097.252-.264.516-.344.117-.035.324-.097.531 0 .143.067.312.223.281.344C270.241 115.472 269.871 115.494 269.766 115.5zM270.253 116.408c-.017-.057.11-.111.305-.3.185-.178.305-.357.379-.483.17.243.16.545 0 .719C270.718 116.582 270.281 116.505 270.253 116.408zM271.542 121.417c.008-.341-.089-.511-.188-.604-.09-.085-.188-.112-.229-.229-.041-.116-.01-.278.083-.333.13-.076.357.066.458.208C271.831 120.689 271.774 121.065 271.542 121.417zM272.813 118.375c-.352.538-.547.836-.656.797-.178-.064.125-.942-.203-1.141-.187-.113-.403.102-.719-.047-.033-.015-.286-.135-.313-.328-.041-.296.495-.413.844-.922.254-.371.427-.978.219-1.406-.329-.676-1.492-.667-1.469-.844.014-.102.393-.035 1.137-.228.326-.084.52-.167.613-.071.121.124-.117.36-.015.659.091.267.332.231.578.578.189.267.095.357.25.578.319.455.978.448.969.547-.012.125-1.056.004-1.172.328-.073.202.295.361.297.766C273.172 117.733 273.154 117.854 272.813 118.375zM273.896 122.688c-.087.001-.16-.111-.208-.208-.014-.036-.129-.359.063-.646.128-.192.318-.253.375-.271.336-.103.733.05.741.182.007.116-.297.101-.574.402C274.052 122.406 274.033 122.686 273.896 122.688zM275.063 125.75c-.165-.048-.363-.129-.378-.257-.01-.086.068-.146.156-.269.078-.109.172-.28.222-.537.04.188.123.409.313.563.26.211.581.177.586.243C275.964 125.542 275.784 125.621 275.063 125.75zM276.563 124.854c-.203-.133-.258-.296-.375-.479-.361-.564-.866-.615-.829-.812.034-.181.446-.062.829-.397.165-.144.145-.216.563-.833.257-.381.332-.453.375-.438.121.045-.184.75.133 1.097.107.117.251.157.346.174-.001-.052-.002-.322.208-.542.239-.249.556-.232.6-.229.045.201.085.48.067.813-.019.349-.096.634-.167.833-.591-.179-.839-.123-.938 0-.203.254.192.848 0 1-.081.064-.226.019-.356-.042C276.896 124.991 276.725 124.961 276.563 124.854zM277.458 126.875c.247-.268.485-.451.646-.563.08-.054.401-.261.604-.146.253.144.227.732-.042 1.083-.166.216-.392.301-.5.333-.139.03-1.028.218-1.136-.025C276.964 127.41 277.206 127.148 277.458 126.875zM277.172 131.669c-.012-.103.299-.242.932-.419.376-.068.578-.068.604 0 .034.088-.223.289-.771.604C277.437 131.82 277.182 131.758 277.172 131.669zM278.962 133.057c.265-.327.222-.701.213-.765.399.259.576.678.47.938-.129.316-.733.529-1.313.188C278.41 133.405 278.727 133.347 278.962 133.057zM279.313 139.75c-.63-.411-.718-.716-.708-.896.005-.106.045-.171.229-.75.045-.143.081-.259.104-.333.12.03.468.136.667.458C279.868 138.656 279.766 139.292 279.313 139.75zM279.938 128.313c-.812-.2-.986-.31-.979-.375.009-.083.312-.084.771-.333.09-.049.162-.094.208-.125.222.079.35.297.313.5C280.221 128.134 280.099 128.262 279.938 128.313zM280.333 125.354c-.245.018-.457-.306-.396-.479.076-.214.593-.267.708-.083C280.744 124.948 280.591 125.335 280.333 125.354zM280.646 124.063c-.096.01-.355.025-.625-.125-.206-.115-.322-.271-.375-.354-.044-.183-.079-.414.021-.479.059-.039.141-.003.209.018.154.046.397.058.77-.122.052.102.149.329.125.625C280.755 123.82 280.693 123.97 280.646 124.063z"/><path d="M251.438 86.979c-.664.171-1.4.728-1.604 1.542-.228.909.32 1.681.417 1.813.459.451 1.18.999 2.17 1.239.55.133 1.401.339 1.851-.093.494-.474.056-1.282.542-1.667.494-.391 1.23.222 1.532-.074.569-.559-1.123-3.646-1.979-3.45-.254.058-.198.351-.573.608C253.106 87.365 252.427 86.724 251.438 86.979zM244.729 83.885c.505.191 1.453.266 1.876-.406.312-.497.222-1.217-.25-1.729-.129-.456-.487-.798-.923-.878-.407-.074-.884.081-1.077.399-.137.224-.014.335-.146.688-.169.452-.449.474-.5.75C243.63 83.133 244.178 83.677 244.729 83.885zM240.042 71.875c.152.063 1.073.435 1.694.008 1.07-.736.338-3.219-.078-3.253-.099-.008-.193.121-.262.245-.28.133-.597.331-.896.625-.287.283-.942.929-.813 1.688C239.74 71.494 239.904 71.725 240.042 71.875zM245.771 72.313c.481.376 1.095.406 2.146.458.915.045 1.436.071 1.78-.274.521-.523.104-1.366.595-1.684.444-.287 1.03.243 1.333-.021.319-.277.082-1.221-.27-1.714-1.22-1.712-5.571-.43-6.112-.266C244.784 70.265 244.961 71.679 245.771 72.313zM249.667 75.104c-.398-.439-1.147-.269-1.688-.146-.397.09-.691.157-.875.415-.254.357-.189.927.146 1.46.335.45.881.679 1.409.587.729-.127 1.032-.799 1.091-.941C249.77 76.432 250.106 75.589 249.667 75.104zM251.008 80.048c-.13.169-.275.357-.238.577.032.188.188.302.5.521.413.29.619.436.771.375.23-.092.299-.613.167-1.271-.011-.345-.169-.639-.396-.708C251.478 79.439 251.145 79.87 251.008 80.048zM255.938 80.375c.591.248 1.14.118 1.333.063.125-.104.28-.269.333-.5.096-.411-.205-.697-.75-1.521-.693-1.048-.723-1.368-1.083-1.438-.133-.026-.495-.052-1.021.461-.076.257-.215.866.021 1.56C254.851 79.236 255.122 80.034 255.938 80.375zM255.771 83.604c-.038.508.265.889.36 1 .166.074.534.211.994.146.204-.029.678-.096.945-.468.279-.389.24-.985-.091-1.49-.097-.117-.378-.426-.801-.469C256.5 82.254 255.823 82.903 255.771 83.604zM259.598 90.382c.194.133.378.204.506.243.081-.009.683-.09 1.042-.646.025-.039.405-.646.167-1.188-.172-.391-.51-.396-1.188-.979-.262-.226-.456-.436-.583-.583-.656-.012-.9.261-.958.333-.41.509.044 1.408.333 1.979C259.157 90.017 259.393 90.241 259.598 90.382zM265.354 90.646c.353.246.73.51 1.085.37.404-.159.527-.742.499-1.12-.046-.604-.501-.959-.583-1.021-.048-.039-.462-.362-.979-.229-.467.12-.82.56-.813 1C264.571 90.099 264.96 90.371 265.354 90.646zM260.54 92.735c-.221.187-.074.514-.353.849-.19.228-.314.142-.521.354-.334.342-.355.916-.251 1.313.107.409.356.671.49.791.116.054.81.365 1.512.042.769-.354 1.117-1.272.958-2.042-.17-.822-.866-1.226-.984-1.292C260.882 92.567 260.654 92.638 260.54 92.735zM275.208 93.167c.729-.069 1.158-.109 1.447-.438.562-.64.331-2.072-.572-2.75-.781-.586-1.959-.529-2.466-.033-.165.161-.325.435-.554.824-.196.333-.294.5-.333.667-.106.446.04.996.365 1.345C273.593 93.318 274.385 93.244 275.208 93.167zM279.646 105.313c.24-.287.239-.761-.042-1.104-.453-.378-1.079-.282-1.333.083-.187.269-.167.678.063 1C278.722 105.701 279.351 105.666 279.646 105.313zM281.104 98c-.068.193-.193.442-.438.604-.487.323-1.034.029-1.292.313-.11.121-.181.363 0 .896.05.106.143.265.308.4.254.206.466.18.754.371.112.075.27.205.417.438.162-.162.519-.563.646-1.188C281.694 98.879 281.202 98.14 281.104 98zM240.75 118C220.399 90.04 185.057 89.945 181 90c-4.662-.557-35.3-3.7-59.75 18.75-18.166 16.68-22.052 37.512-23 44h154.868C252.598 145.404 250.501 131.397 240.75 118zM232.875 145.063c-.236.532-2.001-.215-6.646-.495-2.826-.17-4.259-.243-5.229.349-.558.341-1.42 1.051-2.125.75-.25-.107-.333-.278-.646-.708-.679-.936-1.621-1.963-1.813-1.854-.226.129.613 1.828.271 2.042-.177.11-.479-.296-.833-.188-.363.111-.315.619-.604.979-.7.873-3.209.683-4.17-.559-.398-.513-.386-1.02-.726-1.066-.439-.06-.666.757-1.698 1.181-.334.137-.764.238-.844.111-.116-.187.647-.658.54-.973-.123-.363-1.262-.09-2.769-.277-1.608-.2-1.792-.901-2.667-.688-.779.19-.728.711-2.063 1.396-.329.169-.899.456-1.667.583-.753.125-.793-.076-2.021-.083-.495-.003-1.394.023-2.333.083-.656.042-1.1.086-1.208-.125-.136-.267.416-.642.313-.938-.075-.213-.498-.408-2.146-.25-.383.114-.866.307-.896.604-.033.33.516.566.438.813-.058.183-.379.11-.917.333-.582.241-.768.559-.936.471-.232-.122.07-.76-.231-1.075-.213-.222-.63-.184-1.021-.083-.34.16-.681.319-1.021.479-.193.671-.403.832-.561.853-.297.039-.416-.417-1.022-.749-.176-.096-.801-.438-1.354-.229-.359.135-.37.383-1.095.857-.319.209-.473.263-.55.206-.14-.103.116-.459-.042-.708-.182-.287-.859-.347-1.137-.059-.297.307-.019.889-.279 1.039-.13.074-.316-.002-.458-.083-.17-.127-.426-.275-.748-.297-.4-.026-.665.16-1.106.401-.794.434-1.66.907-2 .646-.215-.165-.014-.467-.271-.833-.272-.388-.788-.461-1.112-.507-.795-.112-1.447.172-1.763.34-.794-.052-1.359-.146-1.75-.229-.176-.038-.405-.092-.625.021-.317.163-.258.492-.5.708-.434.387-1.568.172-2.104-.479-.392-.476-.186-.845-.563-1.146-.619-.495-1.851-.033-1.854.208-.002.188.741.214.813.604.032.175-.077.39-.239.473-.285.146-.521-.229-1.178-.389-.678-.166-.942.108-1.315-.162-.212-.153-.302-.368-.456-.734-.228-.544-.122-.704-.333-1-.172-.241-.549-.564-.854-.479-.447.124-.243.988-.854 1.354-.396.237-.814.075-.979.374-.1.181.014.311-.062.522-.08.221-.33.424-.917.542-1.335-.835-1.884-.98-2.042-.813-.213.227.292 1.026.083 1.167-.102.069-.306-.066-.458-.167-.514-.34-.545-.697-.917-.896-.148-.079-.389-.154-.771-.083-.812-.019-1.43-.011-1.854 0-.541.014-.859.036-1.229-.146-.086-.042-.123-.07-.629-.345-.429-.233-.536-.286-.662-.259-.258.055-.333.388-.458.583-.393.615-1.626.434-3.27.318-2.804-.198-3.661.017-3.792.391-.077.22.104.473-.063.646-.131.136-.346.087-.771.042-.972-.103-1.314.001-1.375-.166-.062-.17.274-.326.446-.905.05-.167.105-.352.033-.407-.038-.029-.166-.065-1.188.771-.668.547-.787.705-1.021.688-.438-.033-.876-.653-.75-1 .123-.341.715-.209 1.125-.75.081-.106.296-.39.208-.604-.196-.479-1.908-.595-2.604.188-.301.339-.398.829-.625.813-.145-.011-.182-.215-.333-.354-.449-.411-1.534.092-1.75.188-.289.127-1.547.154-4.063.208-4.667.1-5.203-.227-6.833.188-.327.083-.699.196-1.229.167-1.523-.085-1.825-1.204-2.917-1.146-.966.052-1.066.947-2.479 1.146-.692.097-1.328-.025-1.354-.188-.027-.168.62-.222.896-.771.146-.291.026-.417.188-.938.067-.215.161-.52.354-.792.468-.659 1.114-.556 1.271-.958.091-.233.013-.627-.688-1.333.457.283.986.247 1.271-.042.203-.205.225-.48.228-.587.31.264.751.219.96-.038.159-.196.171-.5.021-.75.589.3 1.113.338 1.271.125.202-.272-.244-.892-.292-.958-.414-.577-1.028-.781-1.313-.854.054-.177.152-.42.333-.667.197-.268.65-.754.896-.646.194.086.083.464.292 1.229.074.27.16.49.229.646.142.101.298.181.396.125.164-.094-.002-.475.104-.958.071-.321.286-.795.609-.898.409-.13 1.05.318 1.453 1.169.051.032.397.239.792.104.303-.104.551-.382.583-.667.08-.71-1.207-1.272-1.104-1.5.048-.106.384-.116 1.479.188-.067-.222-.192-.553-.438-.896-.273-.38-.438-.417-.583-.667-.396-.679.02-1.796.33-1.815.271-.017.242.816.941 1.169.337.17.547.08.917.354.287.213.375.427.521.396.162-.034.27-.343.25-.604-.037-.48-.506-.807-.625-.896-.47-.353-1.009-1.184-1.38-3.18-.031-.129-.051-.24-.057-.299.018.108.038.198.057.299.066.269.206.643.547.972.31.299.646.425.833.479.079-.14.224-.443.229-.854.005-.434-.15-.755-.229-.896.118-.006.312 0 .5.104.526.291.456 1.037.875 1.146.231.06.309-.153.583-.083.201.051.291.197.646.646.27.341.405.512.448.549.671.587 1.82-.097 2.177.388.171.233-.021.488.208.75.182.208.479.249.708.25.256.049.343.006.375-.042.063-.096-.044-.286-.638-1.099-.356-.487-.407-.542-.445-.693-.106-.422.111-.736.229-1.104.131-.407.188-1.022-.167-1.917.316.284.497.555.604.75.169.309.229.566.5.854.134.142.266.236.354.292.175-.012.264-.072.313-.125.146-.159.056-.392.104-.896.013-.138.032-.252.047-.328.213.019.427.038.64.057.072-.04.171-.106.263-.211.243-.278.359-.743.195-.977-.21-.3-.74-.014-1.292-.167-.434-.12-.997-.544-1.438-1.979-.258-.635-.109-1.295.313-1.604.289-.212.628-.201.771-.188-.002.044-.013.466.313.708.151.113.311.139.396.146.259-.158.356-.34.396-.438.195-.478-.089-1.159-.75-1.625-.136-.286-.121-.466-.063-.583.312-.626 2.35-.405 3.833.375.463.243.99.528 1.375 1.125.506.784.461 1.628.435 2.148-.261 5.274.19 4.274-.164 6.498-.272 1.704-.572 2.512-.042 3.167.403.498 1.255.863 1.793.583.985-.511.335-2.875.186-8.25-.1-3.614.107-5.709 1.103-6.086.578-.219.971.311 1.772.003.759-.292.791-.918 1.854-2.104.703-.785.765-.596 1.505-1.392.843-.908 1.826-1.966 1.579-2.837-.263-.926-1.744-1.035-1.688-1.542.048-.435 1.126-.218 2.021-1.125.581-.589.769-1.332 1.292-1.333.206 0 .361.115.375.125.425.323.105 1.032.396 1.229.285.193.774-.363 1.688-.625.584-.168 1.107-.148 1.458-.104.353.041.443.002.458-.042.041-.113-.411-.284-.729-.688-.271-.343-.351-.736-.375-1.021.171-.037.716-.13 1.271.167.291.156.478.361.583.5-.03-.133-.07-.398.021-.708.133-.454.457-.698.563-.771-.071.368.056.738.333.958.304.242.66.199.728.189.23-.084.513-.223.542-.439.022-.164-.12-.243-.271-.542-.143-.284-.308-.792-.125-.979.133-.136.337.014.583-.063.229-.071.508-.34.667-1.271.049.131.289.736.958 1.063.737.36 1.428.107 1.542.063.225 1.234.454 1.852.688 1.854.096.001.194-.103.292-.313.274-.138.979-.443 1.667-.208.42.144.871.502 1 .604.143.114.256.217.333.292.306-.321.333-.489.292-.583-.075-.171-.366-.088-.625-.313-.199-.172-.317-.471-.271-.729.067-.375.487-.691 1.021-.688.247.049.587.159.854.438.35.365.301.737.577 1.233.059.105.565 1.021.985.955.526-.083.452-1.631 1.038-1.741.32-.06.485.373 1.191.658.45.182.872.204 1.167.191.03.186.092.448.229.476.251.05.496-.742.766-.712.126.014.291.21.421 1.108.144.053.65.22 1.208 0 .297-.117.495-.298.604-.417-.016.26.009.598.229.813.333.324.775.041 1.25.354.439.289.28.674.721 1.003.546.408 1.396.27 1.446.081.053-.201-.815-.369-.979-1.042-.056-.227-.043-.563.146-.708.245-.188.55.126.917-.021.461-.184.455-.87.667-.875.256-.007.479.987.563 1.375.315 1.471.359 2.348.488 3.129.208 1.259.59 1.984.845 2.663.851 2.267.565 4.959-.042 10.25-.393 3.425-.832 5.644.162 6.221.34.197 1.136.369 1.922.134.157-.047.622-.187.936-.517.791-.833.278-2.529.127-3.067-.133-.47-.248-3.674-.479-10.083-.14-3.894 0-5.899 1.179-6.546.31-.171.642-.219.967-.266 1.398-.204 2.497.359 3.667.979 1.466.777 2.747 1.456 2.982 2.494.036.157.194.974.081 2.006-.011.099-.021.173-.025.201-.224 1.612-.051 4.853-.204 7.633-.113 2.056-.374 3.284.333 3.808.055.041.519.385 1.042.275.473-.1.745-.517.846-.672.908-1.389-.446-3.875.029-7.203.213-1.493.663-2.241.938-2.625.684-.956 1.573-1.458 2.125-1.708.141-.025.35-.043.58.023.699.2.974.995 1.358 1.894.495 1.16 1.202 2.789 2.444 4.205.467.532.449.395.743.774.277.356 1.03 1.424 1.188 4.375.05.93.137 2.568-.271 4.625-.166.838-.365 1.495-.417 2.646-.048 1.068-.087 2.274.623 2.763.32.221.86.343 1.273.153 1.399-.643 1.065-4.754.624-9.731-.255-2.884-.523-4.371.478-5.376.764-.766 2.213-1.197 2.898-.706.477.342.319.942 1 1.396.514.343.977.249 1.125.604.159.381-.254.77-.104.917.148.145.746-.051 1.042-.479.265-.384.136-.737.354-.854.12-.065.357-.064.875.354.09.194.169.454.063.667-.213.424-1.032.391-1.029.503.003.095.588.006 1.112.331.441.273.836.837.729 1.354-.044.213-.161.356-.229.438-.46.549-1.093.346-1.292.729-.144.278-.001.755.271.896.476.246 1.206-.609 1.521-.375.235.174-.033.75.188.875.21.118.488-.38 1.076-.421.407-.029.434.199.903.192.567-.009.87-.347 1.063-.188.111.092.107.284.08.395-.069.291-.366.348-.768.647-.266.198-.787.586-.75 1.021.023.273.267.566.521.583.316.022.468-.394.958-.917.583-.622 1.443-1.18 1.688-1 .282.207-.414 1.274-.083 1.583.246.23.929-.085 1.563-.458.117-.013.266-.018.292.042.055.131-.587.317-.896.875-.301.543.022.879-.313 1.333-.246.334-.45.193-.813.563-.369.376-.491.862-.604 1.313-.158.63-.076.873-.313 1.063-.27.217-.553.042-.729.25-.239.284-.039.997.25 1.063.334.076.504-.776 1.229-.938.359-.08.453.099 1.104.208 1.033.174 1.733-.119 1.786.036.076.219-1.331.802-1.239 1.121.061.212.704.037.952.406.241.359-.148.85.104 1.104.158.16.467.123.646.063.424-.144.523-.558.958-1.271.405-.663.607-.994.917-1.167.875-.487 2.375.14 2.417.688.032.42-.806.691-.729.938.122.393 2.261-.284 2.688.396.424.677-1.154 2.216-.77 2.622.159.168.575.059.79-.038.499-.227.511-.666.813-.792C231.538 143.078 233.118 144.516 232.875 145.063z"/><path d="M157.094 143.5c.007-.067.057-.172.33-.288.614-.261.988.004 1.822-.002.894-.007 1.215-.318 1.786-.053.217.101.371.239.469.344l0 0c-.316.257-1.012.744-2 .844-.115.012-.993.09-1.862-.345C157.452 143.905 157.073 143.711 157.094 143.5zM162.688 142.875c.047-.284.164-.429.257-.506.582-.486 2.03.167 2.056.725.005.116-.049.262-.251.437-.064.046-.53.372-1.125.219C162.941 143.574 162.705 142.926 162.688 142.875zM168.75 142.198c-.005-.117.006-.294.109-.457.16-.254.403-.253.829-.46.605-.296.641-.556.92-.524.339.039.66.468.58.743-.044.151-.201.231-.313.281C170.206 142.083 169.28 142.169 168.75 142.198zM173.594 143.969c.037-.293.624-.541 1.09-.395.418.131.596.536.628.614-.025.026-.511.529-1.094.375C173.91 144.481 173.563 144.211 173.594 143.969zM176.094 146.125c-1.048-.232-1.101-.259-1.102-.299-.008-.23 1.741-.743 3.507-.348.615.138 1.104.35 1.44.522-.788.422-1.439.497-1.845.5C177.8 146.502 177.228 146.376 176.094 146.125zM185.813 144.406c-.239-.167-.076-.522-.313-.938-.327-.574-1.057-.634-1.031-.75.03-.138.998.253 2.074-.049.952-.268 1.179-.85 1.964-.792.396.03.395.183 1.025.403.933.327 2.252.453 2.531-.031.198-.342-.246-.775-.063-.969.287-.302 1.34.785 2.313.469.732-.238.987-1.13 1.281-1.031.187.063.217.468.219.758-.24.548-.548.844-.878.98-.383.159-.549.001-1.309.106-.548.075-1.032.142-1.313.5-.246.314-.081.526-.313.75-.36.348-1.089.155-1.601.019-.672-.178-.626-.311-1.177-.457-.196-.052-1.531-.405-2.16.282-.174.19-.247.408-.281.563C186.222 144.529 185.953 144.505 185.813 144.406zM202.75 141.969c.937.714 1.895.936 2.375.563.172-.134.368-.41.344-.719-.032-.41-.436-.686-.688-.781C204.186 140.805 203.365 141.174 202.75 141.969zM219.719 141.594c-.088-.372-1.194-.087-2.938-.563-.968-.264-1.299-.536-1.969-.406-.466.09-.525.264-1.303.709-1.517.869-2.393.836-2.51 1.384-.039.182-.006.482.438.938.99.39 1.38.33 1.531.156.192-.22-.064-.549.156-.906.24-.389.896-.572 1.313-.375.318.15.319.438.594.5.306.069.531-.235.844-.438 1.025-.664 2.066.367 3.24-.31C219.355 142.146 219.776 141.835 219.719 141.594z"/></g><path d="M175,67c-59.647,0-108,48.129-108,107.5S115.353,282,175,282s108-48.129,108-107.5 S234.647,67,175,67z M175,248c-40.782,0-73.842-32.907-73.842-73.5c0-40.593,33.06-73.5,73.842-73.5 c40.782,0,73.842,32.907,73.842,73.5C248.842,215.093,215.782,248,175,248z" fill="#768696"/><linearGradient id="a" gradientUnits="userSpaceOnUse" x1="219.552" y1="184.76" x2="133.396" y2="98.604"><stop offset="0" stop-color="#6e7e8e"/><stop offset=".522" stop-color="#647483"/><stop offset="1" stop-color="#6e7e8e"/></linearGradient><path d="M150,105c-5.432,1.976-10.05,4.492-10.05,4.492c-1.08,0.588-2.13,1.197-3.15,1.824 c-2.676,1.644-5.147,3.409-7.425,5.247c-16.021,12.928-22.48,29.448-23.625,32.521c-2.25-0.028-4.5-0.056-6.75-0.083l6-6l3-6 l-1-3l7-5l-4-5l1-3l3,2l1-3h3l-1-3l1-2c0.94,0.349,2.575,0.804,4.583,0.583c0.964-0.106,1.78-0.341,2.417-0.583 c0.205-0.256,0.756-1.014,0.75-2.083c-0.01-1.833-1.644-2.853-1.75-2.917c1.333-0.333,2.667-0.667,4-1l19-18l3,3l1-2 c0.278,0.417,0.556,0.833,0.833,1.25c0.389,0.583,0.778,1.167,1.167,1.75c0.247-0.301,0.617-0.832,0.833-1.583 c0.164-0.571,0.182-1.071,0.167-1.417c0.659,0.475,2.435,1.611,4.667,1.333c0.501-0.062,0.948-0.187,1.333-0.333 c0.333-0.667,0.667-1.333,1-2l10,4c0.972-2.833,1.944-5.667,2.917-8.5c1.04,0.058,1.929,0.686,2.25,1.583 c0.333,0.931-0.086,1.763-0.167,1.917c1.667,1.333,3.333,2.667,5,4c0.145-0.365,0.774-2.066,0-4c-0.836-2.09-2.677-2.87-3-3 c0.171-0.203,0.779-0.874,1.833-1.083c1.095-0.217,1.94,0.21,2.167,0.333c0.094,0.701,0.204,1.424,0.333,2.167 c0.104,0.6,0.216,1.184,0.333,1.75c0.444-0.056,0.889-0.111,1.333-0.167l5,7l2-5l3,4l14,3c8.276,2.318,10.305,4.1,10.25,5.375 c-0.022,0.496-0.362,1.02-1.188,1.563c0.44,0.087,3.462,0.732,4.375,3.125c0.122,0.318,0.223,0.713,0.25,1.188 c4.44-0.685,7.64,0.427,8.063,2.063c0.057,0.221,0.281,1.295-1.375,3c1.925-1.552,3.884-2.318,4.875-1.625 c0.306,0.214,0.675,0.675,0.813,3.5c0.104,2.131-0.007,3.881-0.125,5.063c0.87-0.121,1.938-0.111,2.604,0.542 c0.552,0.54,0.589,1.286,0.875,1.292c0.204,0.004,0.497-0.372,0.875-2.083c0.115,0.331,0.29,0.838,0.5,1.458 c0.315,0.931,0.499,1.5,0.542,1.625c0.567,1.675,2.527,3.312,2.75,3.5c0.813,0.686,2.275,3.002,5.167,7.604 c3.07,4.887,5.796,9.45,7.875,13c-3.604,0.021-7.208,0.042-10.813,0.063c-2.519-6.749-10.401-25.08-30-37.188 c-14.37-8.877-28.167-10.163-33.813-10.625C180.5,101.437,163.813,99.976,150,105z" fill="url(#a)"/><path d="M243.083,129.75c-1.473,0.759-2.717,1.056-3.583,1.188c-1.301,0.197-2.161,0.082-2.688,0.688 c-0.529,0.609-0.406,1.585-0.229,2.292c1.451,2.549,2.903,5.097,4.354,7.646c0.842-0.648,1.922-1.621,2.938-3 c1.184-1.607,1.829-3.154,2.188-4.25C245.069,132.792,244.076,131.271,243.083,129.75z" fill="#6c7e8c"/><linearGradient id="b" gradientUnits="userSpaceOnUse" x1="172.406" y1="111.5" x2="172.406" y2="85.856"><stop offset="0" stop-color="#5d6b76" stop-opacity=".1"/><stop offset="1" stop-color="#5d6b76"/></linearGradient><path d="M136.813,111.5c0.747-3.164,2.071-5.158,3.188-6.417c3.193-3.6,6.661-3.406,10.25-7.021 c2.058-2.073,3.146-4.381,3.75-6.063c2,0.333,4,0.667,6,1l1-2c1.783,0.363,3.931,0.967,6.25,2c1.43,0.637,2.68,1.328,3.75,2 c0.184-0.964,0.428-1.998,0.75-3.083c0.624-2.103,1.399-3.913,2.167-5.417c0.604,0.249,1.494,0.711,2.25,1.583 c0.83,0.958,0.733,1.526,1.521,2.354c1.049,1.102,2.816,1.773,3.375,1.25c0.505-0.472-0.036-1.864-0.438-2.563 c-0.782-1.361-2.082-1.926-2.625-2.125c0.171-0.203,0.779-0.874,1.833-1.083c1.095-0.217,1.94,0.21,2.167,0.333 c0.222,1.306,0.444,2.611,0.667,3.917L184,90l5,7l2-5l3,4l14,3l-4,8c-6.017-2.627-16.825-6.397-30.688-6.125 C155.636,101.222,142.682,107.953,136.813,111.5z" fill="url(#b)"/><path d="M231.938,112.563c0.59-0.448,0.806-1.181,0.563-1.75c-0.229-0.535-0.777-0.719-0.875-0.75 c0.333-0.313,0.667-0.625,1-0.938c-0.715-0.736-1.39-1.173-1.875-1.438c-0.872-0.475-1.393-0.53-2.438-1.063 c-0.755-0.385-1.325-0.786-1.688-1.063c0.234,0.057,0.918,0.191,1.688-0.125c0.869-0.357,1.269-1.051,1.375-1.25 c-0.06,0.178-0.22,0.73,0,1.375c0.257,0.756,0.854,1.107,1,1.188c3.466,0.984,5.434,2.827,5.188,4 C235.671,111.721,233.924,112.369,231.938,112.563z" fill="#6c7b8e"/><path d="M169.75,87c0.083,0.697,0.12,1.579,0,2.583c-0.075,0.628-0.198,1.187-0.333,1.667 c0.528-0.25,1.056-0.5,1.583-0.75c0.004-0.439-0.043-1.131-0.333-1.917C170.397,87.854,170.022,87.326,169.75,87z" fill="#5d6b76"/><linearGradient id="c" gradientUnits="userSpaceOnUse" x1="245.424" y1="149.892" x2="251.814" y2="138.823"><stop offset="0" stop-color="#5d6b76" stop-opacity=".2"/><stop offset="1" stop-color="#5d6b76" stop-opacity=".4"/></linearGradient><path d="M247.25,136.188c-0.7,0.987-1.749,2.243-3.25,3.438c-1.103,0.878-2.169,1.499-3.063,1.938 c0.646,1.106,1.311,2.377,1.938,3.813c0.604,1.383,1.072,2.688,1.438,3.875c3.604-0.021,7.208-0.042,10.813-0.063 L247.25,136.188z" fill="url(#c)"/><linearGradient id="d" gradientUnits="userSpaceOnUse" x1="149.06" y1="259.005" x2="201.698" y2="167.833"><stop offset="0" stop-color="#5d6b76" stop-opacity=".3"/><stop offset="1" stop-color="#5d6b76"/></linearGradient><path d="M106.167,201c-0.481,0.669-1.166,1.767-1.603,3.242c-0.655,2.211-0.043,2.861-0.48,5.674 c-0.461,2.96-1.336,3.503-0.965,5.162c0.386,1.728,1.701,2.772,2.382,3.338c2.178,1.811,5.237,4.857,9.75,10.417 c0.926-2.045,2.148-3.31,2.776-3.111c0.64,0.204,0.916,2.013,0.391,4.361c0.126,0.196,0.34,0.457,0.67,0.558 c1.019,0.311,1.882-1.291,3.496-1.808c0.7-0.224,1.748-0.31,3.25,0.333c0.44,0.43,1.049,1.15,1.333,2.167 c0.618,2.212-0.911,3.66-0.833,6.25c0.028,0.927,0.27,2.282,1.333,3.917c-0.029,0.216-0.077,0.801,0.25,1.417 c0.239,0.449,0.568,0.71,0.75,0.833c0.037,0.389,0.113,0.81,0.25,1.25c0.686,2.202,2.447,3.432,3.25,3.917 c-0.444-0.484-2.271-2.584-2-5.417c0.081-0.841,0.327-1.545,0.583-2.083c1.073,0.689,2.741,1.989,3.917,4.167 c0.382,0.709,0.647,1.389,0.833,2c-0.079,0.261-0.29,0.831-0.833,1.333c-0.589,0.546-1.233,0.701-1.5,0.75 c0.918,0.877,1.611,1.006,2.079,0.956c1.1-0.117,1.565-1.285,3.504-3.123c0.668-0.633,1.261-1.108,1.667-1.417 c2.694,2.556,5.389,5.111,8.083,7.667c0.614-0.296,1.525-0.616,2.583-0.5c0.987,0.108,1.071,0.483,2.167,0.75 c1.963,0.478,3.826-0.203,4.167-0.333c0.831-0.318,1.102-0.609,2.083-0.833c0.748-0.171,1.393-0.184,1.833-0.167 c0.052,0.731,0.329,1.136,0.5,1.333c0.847,0.974,2.772,1.059,4.667,0c-0.194,1.056-0.389,2.111-0.583,3.167 c5.102,0.545,9.106,0.273,11.833-0.083c3.824-0.5,6.333-1.083,6.333-1.083c3.7-0.861,5.003-1.577,7.333-1.5 c2.406,0.079,4.337,0.951,5.583,1.667c0.188,0.067,0.466,0.133,0.667,0c0.741-0.491-0.705-2.946-0.083-3.75 c0.531-0.685,2.712-0.356,8.75,2.75c0.115-0.234,0.285-0.494,0.5-0.5c0.506-0.015,0.589,1.4,1.583,2.417 c1.02,1.043,2.645,1.307,2.833,1c0.166-0.271-0.844-0.896-2.083-2.5c-0.853-1.104-2.64-3.417-1.917-4.75 c0.476-0.877,1.852-0.986,2.083-1c2.011-0.123,2.936,1.713,4.583,1.417c0.739-0.133,1.268-0.63,1.583-1 c0.306-1.306,0.611-2.611,0.917-3.917c0.824,0.376,2.242,0.835,3.5,0.25c1.316-0.612,1.84-2.081,2.583-4.167 c0.411-1.153,0.629-2.147,0.75-2.833c0.667-0.834,1.619-1.856,2.917-2.833c1.057-0.796,2.07-1.356,2.917-1.75 c0.642,0.305,1.354,0.792,1.667,1.583c0.335,0.846,0.035,1.587,0.25,1.667c0.332,0.123,1.285-1.275,2.083-2.917 c0.892-1.834,1.265-3.301,1.417-3.833c0.873-3.067,2.859-4.847,4.375-6.625c1.921-2.252,4.328-5.955,6.375-12.292 c1.167-0.389,2.333-0.778,3.5-1.167c-1.451-0.419-2.688-1.296-2.833-2.333c-0.202-1.447,1.677-3.516,4.917-3.75 c0.086-0.009,1.215-0.141,1.75-1.167c0.452-0.867,0.133-1.708,0.083-1.833c0.363-0.164,0.975-0.376,1.667-0.25 c1.221,0.223,1.581,1.296,2.374,1.333c0.502,0.023,1.268-0.365,2.293-2.5c-5.056,0-10.111,0-15.167,0 c-2.62,6.681-7.588,16.626-17,25.833c-19.205,18.788-42.992,20.89-50.167,21.25c-6.815,0.013-27.963-0.823-47.417-16.167 C115.347,220.867,108.89,207.682,106.167,201z" fill="url(#d)"/><linearGradient id="e" gradientUnits="userSpaceOnUse" x1="215.37" y1="255.372" x2="216.826" y2="252.852"><stop offset="0" stop-color="#5d6b76" stop-opacity=".3"/><stop offset="1" stop-color="#5d6b76" stop-opacity=".5"/></linearGradient><path d="M216,252.375c1.006,0.713,1.209,1.89,0.75,2.5c-0.417,0.555-1.278,0.507-1.375,0.5 C215.583,254.375,215.792,253.375,216,252.375z" fill="url(#e)"/><linearGradient id="f" gradientUnits="userSpaceOnUse" x1="220.014" y1="251.001" x2="218.205" y2="249.957"><stop offset="0" stop-color="#5d6b76" stop-opacity=".1"/><stop offset="1" stop-color="#5d6b76" stop-opacity=".7"/></linearGradient><path d="M218.469,249.5c0.607-0.336,0.894-0.205,0.97-0.163c0.466,0.257,0.538,1.329-0.001,2.663 C219.115,251.167,218.792,250.333,218.469,249.5z" fill="url(#f)"/><linearGradient id="g" gradientUnits="userSpaceOnUse" x1="226.583" y1="246.489" x2="233.791" y2="239.281"><stop offset="0" stop-color="#5d6b76" stop-opacity=".2"/><stop offset=".995" stop-color="#5d6b76" stop-opacity=".5"/></linearGradient><path d="M225.375,245.281c0.377-0.315,0.937-0.782,1.625-1.344 c0.985-0.805,1.029-0.822,1.469-1.188c1.722-1.431,1.781-1.771,2.719-2.406c0.497-0.337,1.272-0.777,2.375-1.094 c0.686,0.339,1.12,0.887,1.063,1.375c-0.081,0.685-1.103,1.002-1.5,1.125c-1.102,0.341-1.589-0.065-2.563,0.156 c-0.517,0.117-1.249,0.429-2.028,1.346c-0.028,0.027-0.078,0.08-0.128,0.154c-0.471,0.698,0.237,1.609,0,2.031 C228.241,245.733,227.563,245.878,225.375,245.281z" fill="url(#g)"/><path fill="#fff" d="M44 149H306V201H44z"/><path d="M70 156H91V175H70zM52 175H70V194H52zM91 175H112V194H91zM112 156H133V175H112zM133 175H154V194H133zM154 156H175V175H154zM175 175H196V194H175zM196 156H217V175H196zM217 175H238V194H217zM238 156H259V175H238zM259 175H280V194H259zM280 156H298V175H280z"/></g></switch></svg>