<svg xmlns="http://www.w3.org/2000/svg" viewBox="0 0 350 350"><switch><g><path fill="#fff" d="M59.872 60h230.256v230H59.872z"/><path d="M69.18 69.39h211.64v211.404H69.18z"/><path fill="#1b3652" d="M247.63 79H101.87l-23.12 9.298V271h192V89.555z"/><radialGradient id="doc-a" cx="175" cy="175" r="96" gradientTransform="matrix(0 -1 1.5 0 -87.5 350)" gradientUnits="userSpaceOnUse"><stop offset=".643" stop-color="#4fa0e2"/><stop offset="1" stop-color="#3a6082" stop-opacity="0"/></radialGradient><path opacity=".6" fill="url(#doc-a)" d="M79 79h192v192H79z"/><g><path d="M73.25 77.75c-2.411 1.475 1.625 4.544.5 13.75-2.884 23.595.25 46.5.25 46.5 0-.001 2.784 1.519 3.5 1.75 3.469 1.119 9.195-11.638 16.5-20 3.375-4.5 5.5-2.875 10.439-7.948 7.927-8.142 11.123-6.852 15.061-10.052 6.757-5.49 15.686-16.465 13-21.25-3.243-5.776-19.672.83-42.25-.75-6.953-.487-12.291-4.882-17-2zM70.75 213.5c-.381-1.686-2.75-1.647-2.928-3.031-.143-1.112.477-2.514 2.678-4.219 4.307-3.336 8.33-.675 18.25-1.25 13.234-.767 17.792-7.813 22.75-4.5 3.623 2.421 5.104 9.068 3 13.125-2.792 5.384-10.939 4.366-13.75 11.125-.798 1.92-.1 1.903-1 4.25-1.498 3.906-4.013 5.464-10.25 10.75-.546.463-8.219 6.986-7.75 7.625.292.398 3.418-1.921 4.25-1.125 1.038.993-2.269 6.088-2 6.25.31.187 3.34-7.401 9.625-9 1.76-.448 1.79.079 3.375-.375 4.283-1.227 4.693-5.256 9.5-11.375 3.969-5.052 5.123-4.129 8.5-9.125 2.896-4.284 3.829-7.597 4.75-7.375.991.239 1.552 4.475.75 8.25-.456 2.149-1.219 3.515-.5 4.375.982 1.174 3.468-.103 4 .75.615.987-2.351 3.273-5 7.375-1.419 2.197-4.436 6.87-3 8.875 1.349 1.882 5.338-.381 9.358 2.511 1.058.761 1.784 1.283 2.07 2.178 1.699 5.321-15.209 14.396-14.08 16.435.368.665 2.517.339 3.402.126 1.681-.404 1.948-1.152 3.875-1.75 1.041-.323 2.899-.899 3.625-.125.67.714-.28 1.874-.375 4.875-.052 1.641-.071 2.703.625 3.625.911 1.206 2.811 1.86 4 1.25 1.168-.599.843-2.002 1.625-4.375 1.359-4.122 4.609-6.765 8.125-9.625.779-.634 1.525-1.139 1.525-1.139 1.521-.997 2.514-1.211 5.975-3.861a60.041 60.041 0 004.527-3.818c.899-.841 1.652-3.418 3.598-5.682 4.869-5.665 6.715-7.777 7.625-7.5 1.098.334-.118 1.456-2.5 5.5-1.368 2.322-2.803 4.924-6.875 8.25-6.185 5.053-9.242 6.623-10.25 7.5-2.739 2.384-6.422 5.835-7.875 8.875-2.161 4.519.268 7.106-1.25 8.875-3.702 4.315-14.925-5.917-30.5-5.25-12.784.547-18.513 8.01-24 4.25-2.87-1.966-3.452-6.088-4.5-14.25-.934-7.276-.899-13.737-.5-28.5.271-10.028.494-15.913-1.5-16.5a1.582 1.582 0 01-.709-.47c-.662-.774-.055-1.736-.291-2.78z"/><path d="M140.892 235.79c-.669-.406-1.796.107-2.125.958-.318.822.246 1.605.292 1.667.699.324 1.492.197 1.958-.292.648-.68.54-1.93-.125-2.333z" fill="#060809"/><path d="M67.25 166.5c-.824-6.386 11.868-11.078 25.75-30.5 3-4.197 7.25-11.5 20-20.5 5.354-3.779 6.65-8.115 7.75-12.75 1.907-8.035-1.892-12.4.75-15.5 3.867-4.536 18.134-2.379 21 4.25.751 1.738 1.688 6.024-14.25 25.75-9.513 11.774-12.415 13.426-18.75 21-19.279 23.05-19.485 40.134-29 40.5-5.928.228-12.463-6.148-13.25-12.25z"/><path d="M253 89.333c-2.748 2.704 2.057 8.004-1.333 14.667-1.757 3.452-4.875 5.623-7.333 7.333-5.351 3.724-9.397 3.968-10 7-.305 1.537.365 3.336 1.333 3.667 1.166.398 2.787-1.321 5-3.667 2.169-2.299 1.837-2.54 3.146-3.583 2.435-1.942 3.652-1.163 5.75-3.063 1.201-1.088.96-1.43 2.688-3.813.242-.333 4.575-6.253 6.094-5.531.607.289.582 1.64.531 4.344-.037 1.992-.278 3.044.031 4.906.215 1.298.375 2.257.969 2.469.617.22 1.405-.474 4.031-3.375 3.401-3.758 3.886-4.59 5.25-4.906 1.975-.458 2.964.823 4.031.156 1.579-.986 1.138-4.897.313-7.438-2.674-8.223-16.771-12.836-20.501-9.166zM220.313 117.5c-.658 2.456 2.836 5.011 5.813 7.188 1.301.951 1.95 1.234 2.375 1 .824-.454.469-2.662.125-3.875-.915-3.229-3.875-6.912-6.313-6.313-.93.229-1.752 1.072-2 2zM139.5 242.5c1.137-1.282 3.044-.82 3.313-.75.856.222 1.942.842 1.875 1.375-.05.4-.839.723-2.375 1.313-2.379.913-2.812 1.313-3.25 1-.559-.4-.399-1.995.437-2.938zM196.625 273.125c.125-2.457 1.731-3.181 4.625-7.25 1.667-2.344 2.115-3.481 3.875-4.625 1.038-.674 2.636-1.418 3-1 .314.36-.429 1.419-1.375 2.875-3.227 4.967-3.484 6.338-6.375 9.75-1.96 2.312-2.685 2.678-3.125 2.5-.695-.282-.642-1.91-.625-2.25z" fill="#060809"/><path d="M133.438 249.25c.525.298.104 2.473-1.063 3.938-1.346 1.69-3.681 2.43-4.063 1.938-.676-.874 4.152-6.427 5.126-5.876zM154 265.833c1.05.439 1.374 5.139-1.583 7.25-2.137 1.526-4.681.767-5 .667 4.244-6.933 5.895-8.204 6.583-7.917zM276.29 214.571c-3.354-2.255-7.609-.731-13.29 1.304-3.479 1.246-5.08 2.476-6.191 3.769-1.48 1.722-1.991 3.44-2.26 4.206-1.67 4.755-5.913 6.738-13.715 12.9-8.651 6.832-12.931 11.893-13.667 11.25-.687-.601 2.745-5.284 2.333-5.583-.488-.355-5.654 5.978-8.821 9.873-11.143 13.703-16.69 20.595-15.512 22.627.633 1.092 2.552 2.166 8.833 1.208l65.583.958L280 221.5c-.674-4.731-3.077-6.503-3.71-6.929zm-6.04 32.762c-.55.314-1.373.805-2.333 1.458-5.302 3.607-7.893 7.488-10.833 11.042-1.962 2.371-4.938 5.634-9.172 9.167l-3.195-.011c3.47-2.296 5.447-4.655 6.617-6.406 1.193-1.786 1.836-3.373 3.875-4.75 1.533-1.035 2.294-.897 3.85-1.993 1.984-1.398 2.798-3.07 3.567-4.298 1.227-1.96 3.414-4.512 7.625-6.917l-.001 2.708z"/></g><g><path fill="#fff" stroke="#000" stroke-width="6" stroke-miterlimit="10" d="M50.25 141.25h249.5v73.5H50.25zM175.025 125.75h32.25l19.797-6.451L227 104.5l59.167-14.833L198.025 55v43.756l-11.359 7.49-11.641-.008H175l-11.752.008L152 98.668V55L61.333 90.833 123 103.5l.22 16.129 19.53 6.121h32.275z"/><path fill="#fff" stroke="#000" stroke-width="6" stroke-linecap="square" stroke-linejoin="bevel" stroke-miterlimit="10" d="M175.009 303.795l7.875-14.611 8.125-53.754-7.479-85.22-.092-57.267h-16.893l-.075 57.267-7.479 85.22 8.125 53.754 7.875 14.611z"/><circle cx="175.013" cy="92.166" r="10.346" fill="#fff" stroke="#000" stroke-width="6" stroke-miterlimit="10"/><circle cx="175" cy="179" r="62.833" fill="#fff" stroke="#000" stroke-width="6" stroke-miterlimit="10"/><circle cx="175" cy="179" r="53.042"/><path d="M186.667 216.783l-.052-27.978H212.5v-19.62h-26.513l-.101-27.938-21.824-.06-.05 27.998H137.5v19.62h25.885l-.01 28.008 23.292-.03z" fill="#fff"/></g></g></switch></svg>