<svg xmlns="http://www.w3.org/2000/svg" viewBox="0 0 350 350"><switch><g><path fill="#fff" d="M59.872 60H290.128V290H59.872z"/><path d="M69.18 69.39H280.82V280.794H69.18z"/><path fill="#1b3652" d="M247.63 79L101.87 79 78.75 88.298 78.75 271 270.75 271 270.75 89.555z"/><radialGradient id="a" cx="175" cy="175" r="96" gradientTransform="matrix(0 -1 1.5 0 -87.5 350)" gradientUnits="userSpaceOnUse"><stop offset=".643" stop-color="#4fa0e2"/><stop offset="1" stop-color="#3a6082" stop-opacity="0"/></radialGradient><path opacity=".6" fill="url(#a)" d="M79 79H271V271H79z"/><path d="M73.25 77.75c-2.411 1.475 1.625 4.544.5 13.75C70.866 115.095 74 138 74 138c0-.001 2.784 1.519 3.5 1.75 3.469 1.119 9.195-11.638 16.5-20 3.375-4.5 5.5-2.875 10.439-7.948 7.927-8.142 11.123-6.852 15.061-10.052 6.757-5.49 15.686-16.465 13-21.25-3.243-5.776-19.672.83-42.25-.75C83.297 79.263 77.959 74.868 73.25 77.75zM70.75 213.5c-.381-1.686-2.75-1.647-2.928-3.031-.143-1.112.477-2.514 2.678-4.219 4.307-3.336 8.33-.675 18.25-1.25 13.234-.767 17.792-7.813 22.75-4.5 3.623 2.421 5.104 9.068 3 13.125-2.792 5.384-10.939 4.366-13.75 11.125-.798 1.92-.1 1.903-1 4.25-1.498 3.906-4.013 5.464-10.25 10.75-.546.463-8.219 6.986-7.75 7.625.292.398 3.418-1.921 4.25-1.125 1.038.993-2.269 6.088-2 6.25.31.187 3.34-7.401 9.625-9 1.76-.448 1.79.079 3.375-.375 4.283-1.227 4.693-5.256 9.5-11.375 3.969-5.052 5.123-4.129 8.5-9.125 2.896-4.284 3.829-7.597 4.75-7.375.991.239 1.552 4.475.75 8.25-.456 2.149-1.219 3.515-.5 4.375.982 1.174 3.468-.103 4 .75.615.987-2.351 3.273-5 7.375-1.419 2.197-4.436 6.87-3 8.875 1.349 1.882 5.338-.381 9.358 2.511 1.058.761 1.784 1.283 2.07 2.178 1.699 5.321-15.209 14.396-14.08 16.435.368.665 2.517.339 3.402.126 1.681-.404 1.948-1.152 3.875-1.75 1.041-.323 2.899-.899 3.625-.125.67.714-.28 1.874-.375 4.875-.052 1.641-.071 2.703.625 3.625.911 1.206 2.811 1.86 4 1.25 1.168-.599.843-2.002 1.625-4.375 1.359-4.122 4.609-6.765 8.125-9.625.779-.634 1.525-1.139 1.525-1.139 1.521-.997 2.514-1.211 5.975-3.861 2.238-1.713 3.793-3.132 4.527-3.818.899-.841 1.652-3.418 3.598-5.682 4.869-5.665 6.715-7.777 7.625-7.5 1.098.334-.118 1.456-2.5 5.5-1.368 2.322-2.803 4.924-6.875 8.25-6.185 5.053-9.242 6.623-10.25 7.5-2.739 2.384-6.422 5.835-7.875 8.875-2.161 4.519.268 7.106-1.25 8.875-3.702 4.315-14.925-5.917-30.5-5.25-12.784.547-18.513 8.01-24 4.25-2.87-1.966-3.452-6.088-4.5-14.25-.934-7.276-.899-13.737-.5-28.5.271-10.028.494-15.913-1.5-16.5-.073-.021-.427-.141-.709-.47C70.379 215.506 70.986 214.544 70.75 213.5z"/><path d="M140.892,235.79c-0.669-0.406-1.796,0.107-2.125,0.958c-0.318,0.822,0.246,1.605,0.292,1.667 c0.699,0.324,1.492,0.197,1.958-0.292C141.665,237.443,141.557,236.193,140.892,235.79z" fill="#060809"/><path d="M67.25,166.5C66.426,160.114,79.118,155.422,93,136c3-4.197,7.25-11.5,20-20.5c5.354-3.779,6.65-8.115,7.75-12.75 c1.907-8.035-1.892-12.4,0.75-15.5c3.867-4.536,18.134-2.379,21,4.25c0.751,1.738,1.688,6.024-14.25,25.75 c-9.513,11.774-12.415,13.426-18.75,21c-19.279,23.05-19.485,40.134-29,40.5C74.572,178.978,68.037,172.602,67.25,166.5z"/><path d="M253 89.333c-2.748 2.704 2.057 8.004-1.333 14.667-1.757 3.452-4.875 5.623-7.333 7.333-5.351 3.724-9.397 3.968-10 7-.305 1.537.365 3.336 1.333 3.667 1.166.398 2.787-1.321 5-3.667 2.169-2.299 1.837-2.54 3.146-3.583 2.435-1.942 3.652-1.163 5.75-3.063 1.201-1.088.96-1.43 2.688-3.813.242-.333 4.575-6.253 6.094-5.531.607.289.582 1.64.531 4.344-.037 1.992-.278 3.044.031 4.906.215 1.298.375 2.257.969 2.469.617.22 1.405-.474 4.031-3.375 3.401-3.758 3.886-4.59 5.25-4.906 1.975-.458 2.964.823 4.031.156 1.579-.986 1.138-4.897.313-7.438C270.827 90.276 256.73 85.663 253 89.333zM220.313 117.5c-.658 2.456 2.836 5.011 5.813 7.188 1.301.951 1.95 1.234 2.375 1 .824-.454.469-2.662.125-3.875-.915-3.229-3.875-6.912-6.313-6.313C221.383 115.729 220.561 116.572 220.313 117.5zM139.5 242.5c1.137-1.282 3.044-.82 3.313-.75.856.222 1.942.842 1.875 1.375-.05.4-.839.723-2.375 1.313-2.379.913-2.812 1.313-3.25 1C138.504 245.038 138.664 243.443 139.5 242.5zM196.625 273.125c.125-2.457 1.731-3.181 4.625-7.25 1.667-2.344 2.115-3.481 3.875-4.625 1.038-.674 2.636-1.418 3-1 .314.36-.429 1.419-1.375 2.875-3.227 4.967-3.484 6.338-6.375 9.75-1.96 2.312-2.685 2.678-3.125 2.5C196.555 275.093 196.608 273.465 196.625 273.125z" fill="#060809"/><path d="M133.438 249.25c.525.298.104 2.473-1.063 3.938-1.346 1.69-3.681 2.43-4.063 1.938C127.636 254.252 132.464 248.699 133.438 249.25zM154 265.833c1.05.439 1.374 5.139-1.583 7.25-2.137 1.526-4.681.767-5 .667C151.661 266.817 153.312 265.546 154 265.833zM276.29 214.571c-3.354-2.255-7.609-.731-13.29 1.304-3.479 1.246-5.08 2.476-6.191 3.769-1.48 1.722-1.991 3.44-2.26 4.206-1.67 4.755-5.913 6.738-13.715 12.9-8.651 6.832-12.931 11.893-13.667 11.25-.687-.601 2.745-5.284 2.333-5.583-.488-.355-5.654 5.978-8.821 9.873-11.143 13.703-16.69 20.595-15.512 22.627.633 1.092 2.552 2.166 8.833 1.208 21.861.319 43.722.639 65.583.958.139-18.528.278-37.056.417-55.583C279.326 216.769 276.923 214.997 276.29 214.571zM270.25 247.333c-.55.314-1.373.805-2.333 1.458-5.302 3.607-7.893 7.488-10.833 11.042-1.962 2.371-4.938 5.634-9.172 9.167-1.065-.004-2.13-.007-3.195-.011 3.47-2.296 5.447-4.655 6.617-6.406 1.193-1.786 1.836-3.373 3.875-4.75 1.533-1.035 2.294-.897 3.85-1.993 1.984-1.398 2.798-3.07 3.567-4.298 1.227-1.96 3.414-4.512 7.625-6.917C270.25 245.528 270.25 246.431 270.25 247.333z"/><path fill="#fff" stroke="#000" stroke-width="6" stroke-miterlimit="10" d="M50.25 141.25H299.75V214.75H50.25zM175.025 125.75h32.25c6.599-2.15 13.198-4.301 19.797-6.451-.024-4.933-.048-9.866-.072-14.799 19.722-4.944 39.444-9.889 59.167-14.833C256.786 78.111 227.406 66.556 198.025 55c0 14.585 0 29.171 0 43.756-3.786 2.497-7.573 4.993-11.359 7.49-3.88-.003-7.761-.005-11.641-.008H175c-3.917.003-7.835.005-11.752.008-3.749-2.526-7.498-5.052-11.248-7.578 0-14.556 0-29.112 0-43.668-30.222 11.944-60.444 23.889-90.667 35.833C81.889 95.056 102.444 99.278 123 103.5c.073 5.376.147 10.752.22 16.129l19.53 6.121C153.508 125.75 164.267 125.75 175.025 125.75z"/><path fill="#fff" stroke="#000" stroke-width="6" stroke-linecap="square" stroke-linejoin="bevel" stroke-miterlimit="10" d="M175.009 303.795L182.884 289.184 191.009 235.43 183.53 150.21 183.438 92.943 175 92.943 174.982 92.943 166.545 92.943 166.47 150.21 158.991 235.43 167.116 289.184 174.991 303.795z"/><circle cx="175.013" cy="92.166" r="10.346" fill="#fff" stroke="#000" stroke-width="6" stroke-miterlimit="10"/><circle cx="175" cy="179" r="62.833" fill="#fff" stroke="#000" stroke-width="6" stroke-miterlimit="10"/><circle cx="175" cy="179" r="53.042"/><path d="M186.667,216.783c-0.017-9.326-0.034-18.652-0.052-27.978H212.5v-19.62h-26.513 c-0.034-9.313-0.067-18.625-0.101-27.938c-7.275-0.02-14.549-0.04-21.824-0.06c-0.017,9.333-0.033,18.665-0.05,27.998H137.5 v19.62h25.885c-0.003,9.336-0.007,18.672-0.01,28.008C171.139,216.803,178.903,216.793,186.667,216.783z" fill="#fff"/></g></switch></svg>