<svg xmlns="http://www.w3.org/2000/svg" xml:space="preserve" style="enable-background:new 0 0 350 350" viewBox="0 0 350 350"><switch><g><path d="M45 45h260v260H45z" style="opacity:.4"/><path d="M73 73h204v204H73z" style="fill:#bdc8c9"/><path d="M99.667 64.917c7.835-6.008 38.113-27.748 81.58-25.352 38.73 2.135 64.464 22.14 72.587 29.018 4.453-2.352 17.284-8.366 33.05-5.224 13.219 2.635 21.172 10.246 28.117 16.89 0 0 18.446 17.651 22.111 42.361.675 4.55 1.881 13.379-2.696 16.587-1.653 1.158-3.503 1.194-4.05 1.185-4.245-.067-6.929-4.007-17.237-15.34-.735-.808-2.044-2.228-4.128-3.585-1.087-.707-3.706-2.373-7.5-2.917-3.484-.499-6.186.202-8.458.792a28.124 28.124 0 0 0-5.708 2.167c2.92 9.336 6.936 26.49 4 47.667-1.102 7.946-3.698 25.251-15.846 43.119-15.439 22.708-36.563 31.997-46.376 36.159-14.051 5.959-25.983 7.641-34.889 8.833-19.918 2.668-35.611.87-42.359-.105-9.343-1.35-22.241-3.316-37.333-10.474-8.742-4.146-26.41-12.789-40.134-32.191C63.493 199.094 60.353 184.342 58.667 176c-5.201-25.732-.277-47.475 3.646-59.729-6.235-1.685-10.548-.313-12.312.396-4.022 1.616-6.764 4.588-10.109 8.214-2.629 2.85-2.161 2.966-4.447 5.341-3.172 3.298-8.213 8.537-12.5 7.222-2.307-.708-3.549-3.054-4.167-4.222-1.629-3.077-1.394-6.202-1.167-8 2.289-18.132 8.611-28.611 8.611-28.611 5.485-9.092 21.447-35.55 49.056-37 9.868-.518 18.289 2.312 24.389 5.306z"/><path d="M112.917 73c9.081-5.655 32.109-18.307 64-18.042 33.671.28 57.442 14.794 66.194 20.764-.376.201-3.733 2.068-4.333 6.056-.461 3.061.905 6.036 3.222 7.778 2.677 2.013 5.83 1.783 7.708 1.194 1.555-.487 2.271-1.231 4.231-2.889 2.49-2.107 6.518-5.516 10.936-7.819.921-.48 3.519-1.778 7.125-2.708.749-.193 4.995-1.26 9.872-1.072 9.18.353 16.133 4.976 20.453 7.923 6.045 4.124 9.617 8.353 12.731 12.039 7.683 9.095 11.152 17.298 12.278 20.167 2.243 5.716 2.879 9.855 3.111 11.722.318 2.553.361 4.718.333 6.278a17.13 17.13 0 0 1-2.569-1.306c-2.059-1.275-3.318-2.665-3.917-3.319-1.275-1.394-4.579-5.01-6.958-7.181-1.808-1.65-4.06-3.705-7.583-5.25a23.326 23.326 0 0 0-9.694-1.944c-4.697.081-8.083 1.584-10.333 2.611-4.683 2.137-7.968 5.064-10.056 7.333a97.977 97.977 0 0 1 5.042 23.979c.572 7.011 1.887 25.963-7.708 46.818-10.371 22.542-27.418 34.112-34.375 38.703-24.217 15.981-48.387 16.786-62.333 17.25-11.547.384-31.121.823-53.625-8.861-9.796-4.216-30.368-13.068-44.748-35.242-17.43-26.876-14.136-55.385-13.143-63.982a103.865 103.865 0 0 1 5.333-22.889c-1.436-1.705-5.73-6.342-12.986-8.028-1.327-.308-6.587-1.408-12.708.542-4.765 1.518-7.959 4.217-9.625 5.625-3.792 3.205-6.583 6.5-6.583 6.5-.993 1.172-2.623 3.211-5.502 4.873-.745.43-1.391.729-1.831.919A27.572 27.572 0 0 1 24.73 130c-.271-4.05.358-7.811 1.896-12.542 2.569-7.902 6.135-13.785 7.042-15.25 1.354-2.189 4.564-7.113 9.833-12.542 3.793-3.908 8.726-8.901 16.612-12.695 2.767-1.331 6.304-2.994 11.316-3.537 4.891-.53 8.755.27 10.334.655 9.909 2.411 18.355 9.976 19.015 10.577 1.553 1.416 3.023 2.955 5.535 3.458 2.604.522 6.46-.043 8.63-2.984 1.995-2.704 1.414-5.856 1.279-6.585-.588-3.19-2.684-5.043-3.305-5.555z" style="fill:#fff"/><path d="M145.167 48.444a110.195 110.195 0 0 1 37.888-2.889 260.029 260.029 0 0 0-14.722 8.056c-21.453 12.654-38.738 27.002-52.444 40.667a98.953 98.953 0 0 1 2.889-7.222c1.053-2.36 4.451-9.726 13.722-22.556a243.453 243.453 0 0 1 12.667-16.056zm43.083-2.361a126.415 126.415 0 0 1 30.861 8.083C200.698 64.676 180.82 78.152 161 95.5a353.436 353.436 0 0 0-15.083 14 73.895 73.895 0 0 1 1.275-4.297c2.091-6.339 5.188-12.839 14.146-25.587 1.436-2.044 6.505-9.204 14.516-19.033a405.468 405.468 0 0 1 12.396-14.5zm37.542 11.042a127.867 127.867 0 0 1 23.153 15.153 327.203 327.203 0 0 0-18.056 11.056c-21.119 13.89-38.515 28.838-52.667 43.056a111.876 111.876 0 0 1 4.278-11.333c2.699-6.125 7.393-15.281 22.839-34.398a435.206 435.206 0 0 1 20.453-23.534z" style="fill:#bec9ca"/><path d="M174.521 213.938c-1.741.103-1.582 1.296-8.354 8.229-3.302 3.381-5.538 5.347-5.03 6.255.337.602 1.692.419 2.794.272 5.639-.753 17.286-1.029 22.278-.111.417.077 1.583.308 1.875-.167.44-.715-1.363-2.567-2.175-3.408-8.615-8.925-8.975-11.214-11.388-11.07z"/><path d="M117.083 226.542a18.604 18.604 0 0 0 4.417 3.875s2.313 1.449 5.125 2.208c16.354 4.417 49.542 4.5 49.542 4.5s28.413.071 46.25-4.042c4.866-1.122 7.539-3.324 8.625-4.333a16.38 16.38 0 0 0 2.25-2.583 7.98 7.98 0 0 1-.583 3.833c-.957 2.266-2.699 3.404-3.333 3.778.041.285.097.792.056 1.417-.101 1.53-.706 2.639-.889 2.986-2.816 5.331-4.342 11.251-6.653 16.819-.955 2.302-1.174 2.855-1.378 3.385-.552 1.432-1.255 2.813-1.667 4.292-.241.868-.271 1.188-.594 1.396-.819.528-2.275-.47-4.271-1.781-5.387-3.541-4.39-2.587-6.385-4.094-2.111-1.594-3.729-2.815-5.51-4.726-1.498-1.607-3.528-4.148-5.25-7.806a157.296 157.296 0 0 1-44.25.209 28.959 28.959 0 0 1-3.417 5.875c-2.53 3.36-5.25 5.422-7.167 6.875-.459.348.001-.016-4.111 2.819-1.49 1.027-3.222 1.687-4.667 2.778-.432.326-1.146.891-1.847.694-.639-.18-.956-.905-1.083-1.208-1.826-4.339-6.411-19.801-8.583-23.75-.205-.373-.944-1.652-1.375-3.514a12.986 12.986 0 0 1-.333-2.944 7.392 7.392 0 0 1-2.521-3.312 7.348 7.348 0 0 1-.398-3.646z"/><path d="M129.833 239.583a72.42 72.42 0 0 0 14.75 4.666 35.82 35.82 0 0 1-4.896 9.396 35.813 35.813 0 0 1-6.854 7.104l-3-21.166zm75.306 4.695a67.548 67.548 0 0 0 15.112-4.75l-2.861 22.611a91.751 91.751 0 0 1-3.611-3.778c-2.913-3.226-4.717-5.248-6.306-8.194a27.445 27.445 0 0 1-2.334-5.889zm85.486-49.82c1.447-3.362 7.246-17.861.875-32.958-7.023-16.641-25.964-27.208-46.944-25.389 4.355 1.294 33.755 10.524 43.278 37.722 2.687 7.678 3.124 14.88 2.791 20.625z" style="fill:#fff"/><path d="M276.389 153.111c.211 2.189 2.224 25.787-9.889 32.056a13.252 13.252 0 0 1-3.667 1.25c1.107 3.238 4.583 14.657-1.083 24.583-8.138 14.257-29.922 16.302-44.583 9.917-20.765-9.044-23.791-33.497-23.917-34.667.376-3.202 1.328-7.923 4-12.917 8.568-16.011 26.785-19.804 27.806-20 12.73-2.445 29.916 1.117 33.778 1.917 1.604.332 6.488 1.415 12.278-.083a24.274 24.274 0 0 0 5.277-2.056z" style="fill:#bec9ca"/><path d="m216.889 173.222 41-3.889c.411-.349 1.303-1.004 2.528-1.083 0 0 1.375-.089 2.833.875 2.667 1.763 5.931 10.728 3.667 21.292-1.448 6.754-4.504 11.118-5.167 12.042-2.099 2.923-6.148 7.457-12.708 10.208-10.683 4.48-20.378 1.024-22.208.333-.935-.353-12.252-4.828-17.25-16.667-1.933-4.579-2.179-8.503-2.389-11.861 0 0-.374-5.974 1.806-10.917.255-.579.706-1.449 1.639-2.028 1.243-.772 2.593-.564 2.972-.5 1.988.336 3.063 1.875 3.277 2.195z"/><path d="m216.417 178.5 42.417-.75c.564 1.109 5.297 10.818.333 20.917-4.088 8.317-12.571 12.46-20.083 12.75-12.456.481-23.904-9.566-25.167-20.75-.589-5.218 1.161-9.599 2.5-12.167zM59 194.25c-.213-6.967.697-16.42 5.667-25.833 10.364-19.629 34.094-30.962 60.833-30.083-5.052-1.876-21.108-7.089-39.167-.5-5.988 2.185-20.945 7.643-27.75 23.417-6.659 15.435-.864 29.976.417 32.999z" style="fill:#fff"/><path d="M74.583 153.083c-.774 7.052.134 12.684.972 16.194.978 4.095 2.14 8.625 5.833 13.111 2.604 3.164 5.472 5.088 7.444 6.194-.545 1.686-4.011 13.048 2.667 23.5 7.094 11.104 19.886 12.182 22.667 12.417 9.461.798 16.585-2.927 19.5-4.5 12.712-6.861 26.409-23.413 22.417-39.833-2.992-12.307-14.824-20.025-16.361-21-.618-.392-3.102-1.941-6.667-3.389-2.163-.878-9.045-3.475-19.222-3.333-7.168.1-14.458 1.536-21.889 3-2.26.445-6.411 1.31-11.444.056a22.634 22.634 0 0 1-5.917-2.417z" style="fill:#bec9ca"/><path d="m136.444 173.556-42.222-4.111c-.405-.205-1.462-.67-2.778-.444-1.802.309-2.78 1.69-3 2-.412.582-.384.814-1.167 3-.51 1.423-.705 1.837-.944 2.5-.905 2.508-1.115 4.932-1.222 6.167-.024.273-.365 4.53.611 9.056 2.301 10.663 10 17.278 10 17.278 7.597 6.527 18.904 9.174 29.444 5.722 13.661-4.473 18.919-16.859 20.5-22.611 0 0 2.669-9.709-1.208-18.236-.214-.471-.737-1.582-1.917-2.25-1.726-.978-3.594-.294-3.708-.25-1.541.59-2.226 1.857-2.389 2.179z"/><path d="M94.667 177.889h41.667c1.068 2.214 3.524 8.09 1.889 15-2.279 9.631-11.642 17.614-22.722 17.5-11.432-.118-20.355-8.811-22.444-18.333-1.407-6.407.58-11.828 1.61-14.167z" style="fill:#fff"/><path d="M291.611 158.222c-3.626-6.882-8.669-10.954-12.167-13.778-2.228-1.799-10.63-8.301-23.611-11.361-3.036-.716-16.455-3.632-32.917 1.25-6.041 1.792-28.912 8.574-35.917 27.917a34.25 34.25 0 0 0-1.944 9.25h-20.611c-.094-2.999-.632-7.638-3-12.611-3.115-6.541-7.735-10.168-12.444-13.778-7.881-6.042-15.403-8.906-19-10.111-4.989-1.672-20.096-6.507-38.222-1.444-3.767 1.052-13.025 4.028-22.222 11.556-4.19 3.429-10.736 8.786-13.472 17.222-1.22 3.762-1.738 8.305-1.778 8.667 0 0-.554 5.027-.028 10.278 2.767 27.582 24.944 40.833 24.944 40.833 13.646 8.154 27.268 6.974 34.667 6.333 7.481-.648 30.061-2.603 43.028-21.153 7.389-10.569 8.33-21.769 8.417-27.125h19.278c-.121 3.823.161 10.092 2.833 17.167.723 1.914 4.174 10.647 13 18.333 8.507 7.409 17.235 9.688 23.111 11.222 3.357.877 14.398 3.48 28.5 1.222 4.089-.655 8.933-1.43 14.389-3.889 21.213-9.558 27.356-33.593 27.667-34.889 1.117-4.668 4.341-18.126-2.501-31.111zM151.25 200.5c-7.465 15.097-22.578 20.052-27.25 21.583-7.048 2.31-13.151 2.52-17.417 2.667-6.583.226-13.05.448-20.25-2.083-16.836-5.92-24.158-22.142-25.417-25.083-3.306-7.723-3.76-14.844-3.917-17.667-.223-4.025-.449-8.099.833-12.75 3.068-11.125 12.481-17.251 16.833-20.083 10.192-6.633 20.112-7.555 24.583-7.917 13.869-1.123 24.929 3.024 31.167 6.167 5.991 3.018 15.238 7.676 20.583 18.083 3.079 5.996 3.635 11.508 3.917 14.583.334 3.628 1.094 12.875-3.665 22.5zm141.139-16.111c-.601 4.299-2.589 17.191-13.167 27.889-3.888 3.932-7.522 6.137-8.611 6.778-9.277 5.454-18.19 5.687-24.694 5.778-5.968.083-16.282.227-27.583-5.583-4.62-2.375-14.137-7.268-19.778-18.139-7.945-15.312-4.157-34.695 5.333-44.944 5.262-5.682 13.693-10.086 14.389-10.444a59.762 59.762 0 0 1 10.278-4.111c5.035-1.492 19.02-5.429 35-.056 8.093 2.721 13.441 6.736 16.333 8.944 4.013 3.065 7.257 5.6 9.653 10.208 2.05 3.945 2.518 7.561 2.958 10.958.278 2.143.722 6.765-.111 12.722z"/></g></switch></svg>