<svg xmlns="http://www.w3.org/2000/svg" viewBox="0 0 350 350" style="enable-background:new 0 0 350 350" xml:space="preserve"><switch><g><path style="fill:#fff" d="M60 60h230v230H60z"/><path d="M70 70.491h210v210H70z"/><path style="fill:#c5cfd1" d="M80 80.083h190v190H80z"/><path style="fill:#fff" d="m90.5 249.333-24.667 26.5v-13.5zM97.833 256.833 78.166 285h11.667l8-28.167zM244.833 261.667 256.5 284.5H270l-25.167-22.833zM260.333 252.833l24.334 20.334v-15z"/><g><path style="fill:#fff" d="M80.998 207.25a30.974 30.974 0 0 0-.373 6.5c1.268 26.06 35.674 42.486 41.957 45.381L133.25 285 153 267a379.367 379.367 0 0 0 45 0l20.75 18 9.875-26.5c5.471-1.942 16.684-6.762 26.426-17.94 11.548-13.25 14.203-27.603 14.949-33.31H80.998z"/><path d="M26.25 139.5C23.079 116.781 44.738 94.516 46 93.25c5.572-5.591 11.385-11.425 21.25-14.75 17.652-5.949 33.557 1.096 38 3.25 15.027-13.15 29.651-19.005 38.5-21.75 39.043-12.111 72.716 3.116 81.5 7.25A118.743 118.743 0 0 1 251 83.75c8.473-3.547 21.651-7.179 35.75-3.25 33.038 9.206 49.709 53.958 41.5 67.75-.647 1.087-1.971 3.311-4.25 3.75-6.433 1.238-10.335-13.704-22.5-19-3.894-1.695-9.936-2.968-19-.5 1.737 6.308 13.442 51.724-15 90.5-29.466 40.172-78.26 40.822-91.625 41-13.502.18-58.869.785-89.625-35.5-35.445-41.817-20.311-95.852-19-100.25-5.698-1.099-9.532-.121-12 1-5.242 2.382-6.054 6.201-14.5 13.75-7.056 6.307-9.149 6.018-10 5.75-3.357-1.058-4.201-7.11-4.5-9.25z"/><path style="fill:#fff" d="M78.75 87.75c6.123-.304 11 1 11 1 13.58 3.63 19.138 14.794 25.5 12.5 2.586-.932 3.799-3.545 4-4 2.05-4.634-1.622-9.739-2-10.25 8.47-5.273 29.775-16.958 59.25-16.75 31.785.225 54.164 14.148 62.25 19.75-2.653 2.145-3.832 5.591-3 8.75.967 3.67 4.476 6.305 8.5 6.25 1.781-1.852 18.041-18.237 38.75-14.5 14.264 2.574 22.66 13.253 27.833 19.833 10.271 13.065 12.866 26.786 13.667 33.417-.535.761-1.452 1.802-2.75 2-4.576.698-6.443-10.226-15.75-15.5-6.004-3.403-12.364-2.725-16.75-2.25-10.249 1.11-17.203 6.365-20 8.75 3.048 6.926 7.046 18.471 7 33 0 0-.088 27.746-18 51-32.818 42.605-120.849 48.518-160.5 7-8.649-9.056-22.954-28.701-24.5-55.75-.98-17.137 3.53-30.812 6.75-38.5-.9-1.207-7.155-9.322-17.375-9.625-.698-.021-9.312-.159-15 5.375-5.033 4.897-7.375 8.125-7.375 8.125-.664.915-1.829 2.595-4 3.625-1.253.594-3.737 1.409-4.5.75-4.512-3.897 18.941-52.608 47-54z"/><path d="M263.5 89.667c1.557.513 13.065 4.524 17.667 16.667 5.606 14.792-4.408 27.479-4.833 28a12.09 12.09 0 0 0 2.167-.833c7.117-3.563 8.634-13.317 9-15.667 1.569-10.085-5.05-21.693-16.5-30-2.501.61-5.001 1.222-7.501 1.833zM293.333 92.5c9.338 8.305 13.356 19.53 10.061 28.357-.739 1.98-2.331 5.138-6.023 8.168l4.795 1.308c1.887-1.902 4.814-5.368 6.667-10.5 2.824-7.82 1.409-14.676.695-17.379L293.333 92.5zM318.5 119c.478 1.752 1.937 7.947-1.333 14.167-1.425 2.711-3.284 4.541-4.667 5.667 1.002 1.752 2.087 3.356 2.649 3.161.107-.037.164-.129.184-.161 1.248-1.987 7.946-6.455 8.167-12.833.171-4.951-3.638-8.759-5-10.001zM32.833 124.333c-.083.689-.578 5.488 3 9.333 3.13 3.365 7.175 3.63 8 3.667L47 133.5c-1.486.064-4.862-.022-7-2.333-2.081-2.25-1.899-5.43-1.667-9.5.178-3.123.809-5.65 1.333-7.333l-6.833 9.999zM63 91.167c-9.699 8.277-13.564 19.545-10 27.667.762 1.736 2.468 4.707 6.5 7.333l-5.167 1.5a24.224 24.224 0 0 1-4.5-5.667c-4.358-7.619-3.228-15.476-2.667-18.333L63 91.167zM82.833 85a39.199 39.199 0 0 0-8.167 9.167c-1.91 2.983-6.133 9.582-6 18.667.158 10.8 6.373 18.179 8.333 20.333-.764-1.443-7.981-15.664-.667-30.167 5.179-10.269 14.432-14.311 17-15.333L82.833 85z"/><g><path style="fill:#c5cfd1" d="M121.131 108.557a395.329 395.329 0 0 1 49.382-38.186 109.953 109.953 0 0 0-27.679 4.921 85.199 85.199 0 0 0-11.835 13.874 85.33 85.33 0 0 0-9.868 19.391zM150.333 122.167a216.752 216.752 0 0 1 32.788-51.676 109.012 109.012 0 0 1 26.012 4.992 960.135 960.135 0 0 0-58.8 46.684zM180.5 137.667a182.707 182.707 0 0 1 12.667-24.167 183.416 183.416 0 0 1 27.134-33.804 109.392 109.392 0 0 1 18.449 10.303 8.76 8.76 0 0 0-3.211 5.785 1332.513 1332.513 0 0 0-55.039 41.883z"/></g><g><path style="fill:#020202" d="M121.5 234.833c.86.877 2.307 2.222 4.333 3.5 4.318 2.724 8.462 3.373 10.5 3.667 18.838 2.716 60.338 4.272 76.833 0 6.133-1.588 11.333-4 11.333-4a62.747 62.747 0 0 0 4.833-2.5 15.801 15.801 0 0 1-4.773 9.267l-7.56 26.4-21.167-20a151.636 151.636 0 0 1-41.666-.167l-20 20.333-7.109-25.849a23.36 23.36 0 0 1-4.058-6.151 23.283 23.283 0 0 1-1.499-4.5z"/><path style="fill:#fcfcfc" d="m132.833 246.792 14.051 4.533-11.18 14.051-2.871-18.584zM203.583 250.063l13.826-4.609-2.16 18.578z"/></g><g><path style="fill:#c5cfd1" d="M270.333 165a83.836 83.836 0 0 1-6.458 1c-14.261 1.64-23.191-1.082-29.5-1.625-13.385-1.151-33.095 5.949-39.125 20.625-5.98 14.555 1.785 35.86 18.978 43.654 19.8 8.975 43.088-4.056 46.022-15.654 1.182-4.675-1.165-8.236 1.5-15.5 2.339-6.376 5.556-7.472 8-13 1.734-3.922 3.087-10.095.583-19.5z"/><path style="fill:#fff" d="M209.681 186.577c-.458 1.818-2.723 11.574 3.152 21.089 7.043 11.407 19.76 12.713 21.167 12.833 2.268.07 11.558.096 18.889-6.753 7.704-7.197 10.143-19.089 6.111-30.081-16.44.972-32.879 1.942-49.319 2.912z"/><path d="M268.804 180.993c-.779-.726-1.749-.644-3.804-.681a65.92 65.92 0 0 1-4.417-.229 3.687 3.687 0 0 0-3.417-1.75 3.69 3.69 0 0 0-3.167 2.417l-39.667 2.75c-.104-.175-1.228-1.993-3.167-2.083-1.26-.059-2.287.64-2.585.843-.547.372-.688.634-1.019.928-1.874 1.665-4.844-.096-5.813 1.188-.537.711-.258 2.067.394 2.592.387.312.8.247 2.481.22a69.82 69.82 0 0 1 2.313 0c-.615 2.627-2.154 10.713 1.979 19.146 4.777 9.746 14.922 15.451 24.917 15.833 2.331.089 11.173.139 18.927-6.153 8.62-6.994 12.344-18.94 9.864-30.826.783-.14 1.856-.344 3.125-.625 3.094-.685 3.63-1 3.813-1.5.257-.698-.238-1.586-.757-2.07zm-12.637 24.674c-3.588 8.192-11.856 13.675-21.27 14.167-1.17.003-11.958-.154-18.73-9.25-7.755-10.416-2.805-22.565-2.583-23.083l42.083-1.583c.661 1.402 4.657 10.257.5 19.749z"/><g><path style="fill:#c5cfd1" d="M80.589 165c1.373.221 3.42.518 5.911.75 16.807 1.562 23.217-2.699 33.5-2.5 11.078.214 24.63 5.567 32.184 16.515 6.364 9.224 6.373 19.381 6.066 23.985-1.114 2.736-8.553 20.206-26.825 25.547-16.503 4.825-36.981-1.666-40.425-12.047-1.964-5.919 2.548-10.035-.5-18.583-2.08-5.833-5.203-6.483-8.083-12.083-2.183-4.245-4.052-10.995-1.828-21.584z"/><path style="fill:#fff" d="m96.833 184.167 45.5 1c.338.704 5.71 12.41-1.333 23.5-4.666 7.347-12.998 11.618-21.75 11.167-10.606-.18-19.922-6.265-23.583-15.333-3.96-9.811.418-18.851 1.166-20.334z"/><path d="M150.167 185.5c.036-.782-1.519-1.885-3.917-2.083a5.254 5.254 0 0 0-1-1.833c-.347-.41-1.382-1.633-2.844-1.669-1.394-.034-2.77 1.02-3.442 2.617L98.417 180.5c-.09-.138-.898-1.334-2.417-1.438-1.286-.088-2.156.671-2.313.813-.615-.12-7.248-1.385-9.854-.542-.373.121-1.164.377-1.583 1.104 0 0-.453.786-.167 1.896.431 1.67 4.038 2.806 8.792 3.042-.583 2.173-3.174 12.733 2.875 23.208.47.814 8.952 14.923 25.333 14.917.699 0 16.846-.286 24.75-14 5.807-10.076 3.066-20.291 2.5-22.25 2.23-.081 3.799-.988 3.834-1.75zm-12.729 23.375c-.812 1.107-7.173 9.489-17.75 9.688-11.983.225-22.257-10.187-23.313-20.938-.469-4.777.966-8.764 2.125-11.188l42.375.438c.375 1.179 3.698 12.272-3.437 22z"/></g><g><path style="fill:#000505" d="M289.75 184.25c-2.212-25.637-30.415-41.654-51-40.5-4.188.235-38.098 2.607-49.967 26.397-1.5 3.007-2.849 6.759-3.533 11.353H165c-.47-4.952-1.782-8.915-3.25-12-11.407-23.966-46.875-25.645-50-25.75-26.564-.756-48.12 18.395-50.5 40.25-2.764 25.38 20.598 51.964 52 50.75 2.568.264 24.675 2.157 40.25-14.75 11.26-12.223 12.141-26.711 12.25-30.75h18.75c.198 3.175 1.634 21.353 17.25 34.5 17.45 14.69 38.27 11.029 41 10.5 29.017-2.652 48.999-26.823 47-50zm-131.583 8.417c-.628 19.405-17.491 30.376-20.5 32.333-14.928 9.712-35.237 10.403-51.167 1-11.893-7.02-27.182-23.113-23.667-43.167 3.381-19.29 21.724-28.335 23.833-29.333 2.143-.817 31.63-11.533 53.966 6.086 3.081 2.429 18.142 14.31 17.535 33.081zm123.166 16.5c-2.158 3.515-9.682 15.374-24.667 20.5-8.364 2.861-15.368 2.364-20.5 2-7.346-.521-17.744-1.259-27.104-8.276-10.619-7.961-18.509-22.96-15.73-38.224 2.461-13.513 12.232-21.45 14.833-23.5C230.266 144.25 271.05 148.872 284 170.5c3.621 6.048 4.506 12.491 4.5 17.667-.579 5.103-2.211 12.93-7.167 21z"/><path style="fill:#fff" d="M76.333 171a26.148 26.148 0 0 0-3.851 3.837c-9.372 11.533-5.99 27.786-4.864 32.413-1.332-2.176-7.383-12.582-4.493-26.161 2.936-13.792 12.969-20.859 15.041-22.254L76.333 171zM281.333 209.5c1.699-2.271 7.858-11.066 7.083-23.667-.753-12.247-7.566-20.085-9.542-22.208l-8.542-5.792A91.44 91.44 0 0 1 278.999 173c1.628 3.611 3.407 7.556 4.417 12.25.914 4.245 2.008 12.864-2.083 24.25z"/></g></g><path style="fill:#020202" d="M161.833 235.037 175 220.513l12.167 14.524z"/></g></g></switch></svg>