<svg xmlns="http://www.w3.org/2000/svg" viewBox="0 0 350 350"><switch><g><path fill="#fff" d="M60 60H290V290H60z"/><path d="M70 70.491H280V280.491H70z"/><path fill="#c5cfd1" d="M80 80.083H270V270.08299999999997H80z"/><path d="M90.5 249.333L65.833 275.833 65.833 262.333zM97.833 256.833c-6.556 9.389-13.111 18.778-19.667 28.167h11.667C92.5 275.611 95.167 266.222 97.833 256.833zM244.833 261.667c3.889 7.611 7.778 15.222 11.667 22.833 4.5 0 9 0 13.5 0C261.611 276.889 253.222 269.278 244.833 261.667zM260.333 252.833L284.667 273.167 284.667 258.167zM80.998 207.25c-.371 2.281-.473 4.449-.373 6.5 1.268 26.06 35.674 42.486 41.957 45.381 3.556 8.623 7.112 17.246 10.668 25.869 6.583-6 13.167-12 19.75-18 7.102.422 14.615.667 22.5.667 7.885 0 15.398-.246 22.5-.667 6.917 6 13.833 12 20.75 18 3.292-8.833 6.583-17.667 9.875-26.5 5.471-1.942 16.684-6.762 26.426-17.94 11.548-13.25 14.203-27.603 14.949-33.31C206.999 207.25 143.999 207.25 80.998 207.25z" fill="#fff"/><path d="M26.25,139.5C23.079,116.781,44.738,94.516,46,93.25c5.572-5.591,11.385-11.425,21.25-14.75 c17.652-5.949,33.557,1.096,38,3.25c15.027-13.15,29.651-19.005,38.5-21.75c39.043-12.111,72.716,3.116,81.5,7.25 c11.481,5.404,20.07,11.733,25.75,16.5c8.473-3.547,21.651-7.179,35.75-3.25c33.038,9.206,49.709,53.958,41.5,67.75 c-0.647,1.087-1.971,3.311-4.25,3.75c-6.433,1.238-10.335-13.704-22.5-19c-3.894-1.695-9.936-2.968-19-0.5 c1.737,6.308,13.442,51.724-15,90.5c-29.466,40.172-78.26,40.822-91.625,41c-13.502,0.18-58.869,0.785-89.625-35.5 c-35.445-41.817-20.311-95.852-19-100.25c-5.698-1.099-9.532-0.121-12,1c-5.242,2.382-6.054,6.201-14.5,13.75 c-7.056,6.307-9.149,6.018-10,5.75C27.393,147.692,26.549,141.64,26.25,139.5z"/><path d="M78.75,87.75c6.123-0.304,11,1,11,1c13.58,3.63,19.138,14.794,25.5,12.5 c2.586-0.932,3.799-3.545,4-4c2.05-4.634-1.622-9.739-2-10.25c8.47-5.273,29.775-16.958,59.25-16.75 c31.785,0.225,54.164,14.148,62.25,19.75c-2.653,2.145-3.832,5.591-3,8.75c0.967,3.67,4.476,6.305,8.5,6.25 c1.781-1.852,18.041-18.237,38.75-14.5c14.264,2.574,22.66,13.253,27.833,19.833c10.271,13.065,12.866,26.786,13.667,33.417 c-0.535,0.761-1.452,1.802-2.75,2c-4.576,0.698-6.443-10.226-15.75-15.5c-6.004-3.403-12.364-2.725-16.75-2.25 c-10.249,1.11-17.203,6.365-20,8.75c3.048,6.926,7.046,18.471,7,33c0,0-0.088,27.746-18,51 c-32.818,42.605-120.849,48.518-160.5,7c-8.649-9.056-22.954-28.701-24.5-55.75c-0.98-17.137,3.53-30.812,6.75-38.5 c-0.9-1.207-7.155-9.322-17.375-9.625c-0.698-0.021-9.312-0.159-15,5.375c-5.033,4.897-7.375,8.125-7.375,8.125 c-0.664,0.915-1.829,2.595-4,3.625c-1.253,0.594-3.737,1.409-4.5,0.75C27.238,137.853,50.691,89.142,78.75,87.75z" fill="#fff"/><path d="M263.5 89.667c1.557.513 13.065 4.524 17.667 16.667 5.606 14.792-4.408 27.479-4.833 28 .534-.148 1.302-.401 2.167-.833 7.117-3.563 8.634-13.317 9-15.667 1.569-10.085-5.05-21.693-16.5-30C268.5 88.444 266 89.056 263.5 89.667zM293.333 92.5c9.338 8.305 13.356 19.53 10.061 28.357-.739 1.98-2.331 5.138-6.023 8.168 1.598.436 3.197.872 4.795 1.308 1.887-1.902 4.814-5.368 6.667-10.5 2.824-7.82 1.409-14.676.695-17.379C304.13 99.136 298.732 95.818 293.333 92.5zM318.5 119c.478 1.752 1.937 7.947-1.333 14.167-1.425 2.711-3.284 4.541-4.667 5.667 1.002 1.752 2.087 3.356 2.649 3.161.107-.037.164-.129.184-.161 1.248-1.987 7.946-6.455 8.167-12.833C323.671 124.05 319.862 120.242 318.5 119zM32.833 124.333c-.083.689-.578 5.488 3 9.333 3.13 3.365 7.175 3.63 8 3.667 1.056-1.278 2.111-2.556 3.167-3.833-1.486.064-4.862-.022-7-2.333-2.081-2.25-1.899-5.43-1.667-9.5.178-3.123.809-5.65 1.333-7.333C37.389 117.667 35.111 121 32.833 124.333zM63 91.167c-9.699 8.277-13.564 19.545-10 27.667.762 1.736 2.468 4.707 6.5 7.333-1.722.5-3.444 1-5.167 1.5-1.472-1.376-3.108-3.234-4.5-5.667-4.358-7.619-3.228-15.476-2.667-18.333C52.444 99.5 57.722 95.333 63 91.167zM82.833 85c-2.229 1.827-5.373 4.804-8.167 9.167-1.91 2.983-6.133 9.582-6 18.667.158 10.8 6.373 18.179 8.333 20.333-.764-1.443-7.981-15.664-.667-30.167 5.179-10.269 14.432-14.311 17-15.333C89.833 86.778 86.333 85.889 82.833 85z"/><path d="M121.131 108.557c9.219-8.371 19.594-17.001 31.202-25.557 6.179-4.554 12.255-8.755 18.18-12.629-4.343.208-9.275.702-14.643 1.69-4.849.892-9.211 2.031-13.036 3.231-3.619 3.422-7.823 7.996-11.835 13.874C126.083 96.371 123.042 103.207 121.131 108.557zM150.333 122.167C154.034 113.962 158.814 104.73 165 95c6.099-9.593 12.338-17.74 18.121-24.509 3.616.246 7.599.698 11.87 1.465 5.295.95 10.03 2.204 14.142 3.527-12.59 9.217-25.442 19.097-38.466 29.684C163.675 110.85 156.898 116.522 150.333 122.167zM180.5 137.667c3.202-7.404 7.325-15.601 12.667-24.167 8.962-14.371 18.691-25.512 27.134-33.804 3.223 1.411 6.703 3.119 10.34 5.194 2.972 1.696 5.674 3.422 8.109 5.109-.563.452-1.39 1.231-2.08 2.414-.789 1.352-1.04 2.618-1.131 3.371-4.72 3.401-9.456 6.861-14.206 10.381C207.195 116.642 193.589 127.159 180.5 137.667z" fill="#c5cfd1"/><path d="M121.5,234.833c0.86,0.877,2.307,2.222,4.333,3.5c4.318,2.724,8.462,3.373,10.5,3.667 c18.838,2.716,60.338,4.272,76.833,0c6.133-1.588,11.333-4,11.333-4c2.115-0.981,3.785-1.898,4.833-2.5 c-0.174,1.241-0.588,3.119-1.667,5.167c-1.011,1.919-2.224,3.263-3.106,4.1c-2.52,8.8-5.04,17.6-7.56,26.4 c-7.056-6.667-14.111-13.333-21.167-20c-6.606,0.889-14.288,1.48-22.833,1.333c-6.929-0.119-13.245-0.702-18.833-1.5 c-6.667,6.778-13.333,13.556-20,20.333c-2.37-8.616-4.739-17.233-7.109-25.849c-1.249-1.366-2.816-3.399-4.058-6.151 C122.252,237.677,121.791,236.136,121.5,234.833z" fill="#020202"/><path d="M132.833 246.792c4.684 1.511 9.367 3.022 14.051 4.533l-11.18 14.051C134.747 259.181 133.79 252.986 132.833 246.792zM203.583 250.063L217.409 245.454 215.249 264.032z" fill="#fcfcfc"/><path d="M270.333,165c-1.471,0.287-3.713,0.684-6.458,1c-14.261,1.64-23.191-1.082-29.5-1.625 c-13.385-1.151-33.095,5.949-39.125,20.625c-5.98,14.555,1.785,35.86,18.978,43.654c19.8,8.975,43.088-4.056,46.022-15.654 c1.182-4.675-1.165-8.236,1.5-15.5c2.339-6.376,5.556-7.472,8-13C271.484,180.578,272.837,174.405,270.333,165z" fill="#c5cfd1"/><path d="M209.681,186.577c-0.458,1.818-2.723,11.574,3.152,21.089 c7.043,11.407,19.76,12.713,21.167,12.833c2.268,0.07,11.558,0.096,18.889-6.753c7.704-7.197,10.143-19.089,6.111-30.081 C242.56,184.637,226.121,185.607,209.681,186.577z" fill="#fff"/><path d="M268.804,180.993c-0.779-0.726-1.749-0.644-3.804-0.681c-1.016-0.018-2.531-0.069-4.417-0.229 c-0.726-1.179-2.048-1.857-3.417-1.75c-1.428,0.111-2.67,1.058-3.167,2.417c-13.222,0.917-26.444,1.833-39.667,2.75 c-0.104-0.175-1.228-1.993-3.167-2.083c-1.26-0.059-2.287,0.64-2.585,0.843c-0.547,0.372-0.688,0.634-1.019,0.928 c-1.874,1.665-4.844-0.096-5.813,1.188c-0.537,0.711-0.258,2.067,0.394,2.592c0.387,0.312,0.8,0.247,2.481,0.22 c0.981-0.016,1.782-0.009,2.313,0c-0.615,2.627-2.154,10.713,1.979,19.146c4.777,9.746,14.922,15.451,24.917,15.833 c2.331,0.089,11.173,0.139,18.927-6.153c8.62-6.994,12.344-18.94,9.864-30.826c0.783-0.14,1.856-0.344,3.125-0.625 c3.094-0.685,3.63-1,3.813-1.5C269.818,182.365,269.323,181.477,268.804,180.993z M256.167,205.667 c-3.588,8.192-11.856,13.675-21.27,14.167c-1.17,0.003-11.958-0.154-18.73-9.25c-7.755-10.416-2.805-22.565-2.583-23.083 c14.028-0.528,28.056-1.056,42.083-1.583C256.328,187.32,260.324,196.175,256.167,205.667z"/><path d="M80.589,165c1.373,0.221,3.42,0.518,5.911,0.75c16.807,1.562,23.217-2.699,33.5-2.5 c11.078,0.214,24.63,5.567,32.184,16.515c6.364,9.224,6.373,19.381,6.066,23.985c-1.114,2.736-8.553,20.206-26.825,25.547 c-16.503,4.825-36.981-1.666-40.425-12.047c-1.964-5.919,2.548-10.035-0.5-18.583c-2.08-5.833-5.203-6.483-8.083-12.083 C80.234,182.339,78.365,175.589,80.589,165z" fill="#c5cfd1"/><path d="M96.833,184.167c15.167,0.333,30.333,0.667,45.5,1c0.338,0.704,5.71,12.41-1.333,23.5 c-4.666,7.347-12.998,11.618-21.75,11.167c-10.606-0.18-19.922-6.265-23.583-15.333 C91.707,194.69,96.085,185.65,96.833,184.167z" fill="#fff"/><path d="M150.167,185.5c0.036-0.782-1.519-1.885-3.917-2.083c-0.138-0.442-0.417-1.145-1-1.833 c-0.347-0.41-1.382-1.633-2.844-1.669c-1.394-0.034-2.77,1.02-3.442,2.617c-13.516-0.677-27.032-1.354-40.547-2.032 c-0.09-0.138-0.898-1.334-2.417-1.438c-1.286-0.088-2.156,0.671-2.313,0.813c-0.615-0.12-7.248-1.385-9.854-0.542 c-0.373,0.121-1.164,0.377-1.583,1.104c0,0-0.453,0.786-0.167,1.896c0.431,1.67,4.038,2.806,8.792,3.042 c-0.583,2.173-3.174,12.733,2.875,23.208c0.47,0.814,8.952,14.923,25.333,14.917c0.699,0,16.846-0.286,24.75-14 c5.807-10.076,3.066-20.291,2.5-22.25C148.563,187.169,150.132,186.262,150.167,185.5z M137.438,208.875 c-0.812,1.107-7.173,9.489-17.75,9.688c-11.983,0.225-22.257-10.187-23.313-20.938c-0.469-4.777,0.966-8.764,2.125-11.188 c14.125,0.146,28.25,0.292,42.375,0.438C141.25,188.054,144.573,199.147,137.438,208.875z"/><path d="M289.75,184.25c-2.212-25.637-30.415-41.654-51-40.5c-4.188,0.235-38.098,2.607-49.967,26.397 c-1.5,3.007-2.849,6.759-3.533,11.353c-6.75,0-13.5,0-20.25,0c-0.47-4.952-1.782-8.915-3.25-12 c-11.407-23.966-46.875-25.645-50-25.75c-26.564-0.756-48.12,18.395-50.5,40.25c-2.764,25.38,20.598,51.964,52,50.75 c2.568,0.264,24.675,2.157,40.25-14.75c11.26-12.223,12.141-26.711,12.25-30.75c6.25,0,12.5,0,18.75,0 c0.198,3.175,1.634,21.353,17.25,34.5c17.45,14.69,38.27,11.029,41,10.5C271.767,231.598,291.749,207.427,289.75,184.25z M158.167,192.667c-0.628,19.405-17.491,30.376-20.5,32.333c-14.928,9.712-35.237,10.403-51.167,1 c-11.893-7.02-27.182-23.113-23.667-43.167c3.381-19.29,21.724-28.335,23.833-29.333c2.143-0.817,31.63-11.533,53.966,6.086 C143.713,162.015,158.774,173.896,158.167,192.667z M281.333,209.167c-2.158,3.515-9.682,15.374-24.667,20.5 c-8.364,2.861-15.368,2.364-20.5,2c-7.346-0.521-17.744-1.259-27.104-8.276c-10.619-7.961-18.509-22.96-15.73-38.224 c2.461-13.513,12.232-21.45,14.833-23.5C230.266,144.25,271.05,148.872,284,170.5c3.621,6.048,4.506,12.491,4.5,17.667 C287.921,193.27,286.289,201.097,281.333,209.167z" fill="#000505"/><path d="M76.333 171c-1.541 1.248-2.806 2.551-3.851 3.837-9.372 11.533-5.99 27.786-4.864 32.413-1.332-2.176-7.383-12.582-4.493-26.161 2.936-13.792 12.969-20.859 15.041-22.254C77.556 162.89 76.944 166.945 76.333 171zM281.333 209.5c1.699-2.271 7.858-11.066 7.083-23.667-.753-12.247-7.566-20.085-9.542-22.208-2.847-1.931-5.694-3.861-8.542-5.792 2.462 3.486 5.699 8.584 8.667 15.167 1.628 3.611 3.407 7.556 4.417 12.25C284.33 189.495 285.424 198.114 281.333 209.5z" fill="#fff"/><path fill="#020202" d="M161.833 235.037L175 220.513 187.167 235.037z"/></g></switch></svg>