<svg xmlns="http://www.w3.org/2000/svg" xml:space="preserve" style="enable-background:new 0 0 350 350" viewBox="0 0 350 350"><switch><g><path d="M45 45v173.696l28-18.183 55.615-36.117h92.77L277 200.513l28 18.183V45H45z" style="opacity:.4"/><path d="M73 73v127.513l55.615-36.117c-2.324 4.703-3.615 9.835-3.615 15.216 0 22.512 22.386 40.762 50 40.762s50-18.25 50-40.762c0-5.381-1.291-10.513-3.615-15.216L277 200.513V73H73z" style="fill:#942838"/><path d="m241.81 206.77-4.957 4.936c-6.018 5.992-28.262 25.544-61.852 25.544-33.59 0-55.835-19.552-61.852-25.544l-4.957-4.937-4.939 4.955-4.514 4.528-4.514 4.528-4.929 4.944 4.93 4.942c4.892 4.904 13.207 12.143 25.035 18.778 17.431 9.778 36.184 14.737 55.74 14.737s38.309-4.958 55.74-14.737c11.828-6.636 20.143-13.874 25.035-18.778l4.93-4.942-4.929-4.944-4.514-4.528-4.514-4.528-4.939-4.954z"/><path d="M99.181 225.722c5.022 5.034 32.384 31.458 75.819 31.458s70.798-26.425 75.819-31.458l-9.028-9.056C237.3 221.139 213.189 244.25 175 244.25s-62.3-23.111-66.792-27.584l-9.027 9.056z" style="fill:#942838"/><path d="m264.792 229.063-5.018 4.986c-8.233 8.18-38.657 34.869-84.499 34.869h-.26c-45.469-.099-75.739-26.483-83.933-34.566l-4.889-4.823-4.916 4.796-9.111 8.889-5.071 4.948 5.008 5.011c6.247 6.25 16.848 15.475 31.876 23.928 22.038 12.395 45.749 18.763 70.473 18.926.317.002.644.003.959.003 24.97 0 48.946-6.343 71.262-18.852 15.121-8.476 25.745-17.701 31.995-23.946l4.886-4.882-4.817-4.95-9.014-9.264-4.931-5.073z"/><path d="M264.708 239.014c-6.034 5.995-38.464 37.014-89.708 36.903-50.598-.11-82.657-30.49-88.833-36.583l-9.111 8.889c6.693 6.697 41.776 40.436 97.444 40.802 56.796.374 92.739-34.268 99.222-40.747l-9.014-9.264z" style="fill:#942838"/><path d="m287.513 251.595-5.008 4.986c-10.412 10.368-48.898 44.197-106.951 44.197l-.53-.001c-57.764-.202-96.058-33.88-106.418-44.196l-4.938-4.918-4.939 4.917-4.556 4.535-4.556 4.535-4.967 4.944 4.951 4.961c7.609 7.625 20.539 18.883 38.929 29.214 27.04 15.191 56.127 22.932 86.453 23.008l.448.001c30.451 0 59.67-7.734 86.846-22.988 18.434-10.347 31.375-21.609 38.985-29.235l4.882-4.893-4.83-4.944-8.861-9.069-4.94-5.054z"/><path d="M54.556 270.611c8.083 8.1 51.509 49.993 120.444 50.167 69.49.175 113.328-42.172 121.306-50.167l-8.861-9.069c-7.482 7.45-48.151 46.461-112.444 46.236-63.579-.223-103.717-38.652-111.333-46.236l-9.112 9.069z" style="fill:#fff"/><path d="M218.4 35.892a19.866 19.866 0 0 0-14.142 5.858l-8.387 8.387a21.96 21.96 0 0 0-8.426-1.665h-24.278c-2.916 0-5.74.565-8.347 1.633l-8.356-8.356a19.87 19.87 0 0 0-14.142-5.858 19.866 19.866 0 0 0-14.142 5.858L89.072 70.858A19.87 19.87 0 0 0 83.214 85c0 5.342 2.08 10.365 5.858 14.142l8.323 8.323a21.007 21.007 0 0 0-1.326 7.368v25.833c0 2.689.524 5.323 1.503 7.769l-8.5 8.5c-7.798 7.798-7.798 20.486 0 28.284l29.108 29.108a19.872 19.872 0 0 0 14.142 5.858c5.342 0 10.365-2.08 14.142-5.858l8.261-8.261a21.979 21.979 0 0 0 8.135 1.551h24.278a21.9 21.9 0 0 0 8.629-1.78l8.49 8.49a19.868 19.868 0 0 0 14.142 5.858c5.342 0 10.365-2.08 14.142-5.858l29.108-29.108c7.798-7.798 7.798-20.486 0-28.284l-8.419-8.419a20.912 20.912 0 0 0 1.533-7.85v-25.833c0-2.592-.468-5.107-1.355-7.45l8.241-8.241A19.866 19.866 0 0 0 267.507 85c0-5.342-2.08-10.365-5.858-14.142L232.542 41.75a19.87 19.87 0 0 0-14.142-5.858z"/><path d="M240.169 149.597c2.778-1.997 4.594-5.248 4.594-8.93v-25.833c0-3.534-1.674-6.671-4.264-8.683l14.079-14.079c3.905-3.905 3.905-10.237 0-14.142L225.47 48.822c-3.905-3.905-10.237-3.905-14.142 0l-14.365 14.365c-2.193-2.861-5.636-4.714-9.519-4.714h-24.278c-3.855 0-7.276 1.825-9.472 4.65l-14.301-14.301c-3.905-3.905-10.237-3.905-14.142 0L96.143 77.929c-3.905 3.905-3.905 10.237 0 14.142l14.126 14.126a10.97 10.97 0 0 0-4.2 8.636v25.833c0 3.654 1.789 6.882 4.531 8.883l-14.457 14.457c-3.905 3.905-3.905 10.237 0 14.142l29.108 29.108c3.905 3.905 10.237 3.905 14.142 0l14.121-14.121a11.973 11.973 0 0 0 9.346 4.483h24.278c3.965 0 7.47-1.931 9.655-4.896l14.535 14.535c3.905 3.905 10.237 3.905 14.142 0l29.108-29.108c3.905-3.905 3.905-10.237 0-14.142l-14.409-14.41z" style="fill:#fff"/><path d="M159 112h32v32h-32zm-26.677-17.681c-5.247 0-9.5-4.253-9.5-9.5s4.253-9.5 9.5-9.5a9.5 9.5 0 0 1 9.317 11.349l9.498 10.382a22.335 22.335 0 0 0 3.629-12.231c0-12.396-10.049-22.444-22.444-22.444-12.396 0-22.444 10.049-22.444 22.444 0 12.396 10.049 22.444 22.444 22.444 4.458 0 8.608-1.305 12.101-3.546l-10.375-9.563a9.439 9.439 0 0 1-1.726.165zm76.68-9.5c0-5.247 4.253-9.5 9.5-9.5s9.5 4.253 9.5 9.5a9.5 9.5 0 0 1-11.349 9.317l-10.382 9.498a22.335 22.335 0 0 0 12.231 3.629c12.396 0 22.444-10.049 22.444-22.444 0-12.396-10.049-22.444-22.444-22.444-12.396 0-22.444 10.049-22.444 22.444 0 4.458 1.305 8.608 3.546 12.101l9.563-10.375a9.52 9.52 0 0 1-.165-1.726zm-76.68 76.931c-5.247 0-9.5 4.253-9.5 9.5s4.253 9.5 9.5 9.5a9.5 9.5 0 0 0 9.317-11.349l9.498-10.382a22.335 22.335 0 0 1 3.629 12.231c0 12.396-10.049 22.444-22.444 22.444-12.396 0-22.444-10.049-22.444-22.444 0-12.396 10.049-22.444 22.444-22.444 4.458 0 8.608 1.305 12.101 3.546l-10.375 9.563a9.439 9.439 0 0 0-1.726-.165zm76.68 9.5c0 5.247 4.253 9.5 9.5 9.5s9.5-4.253 9.5-9.5a9.5 9.5 0 0 0-11.349-9.317l-10.382-9.498a22.335 22.335 0 0 1 12.231-3.629c12.396 0 22.444 10.049 22.444 22.444 0 12.396-10.049 22.444-22.444 22.444-12.396 0-22.444-10.049-22.444-22.444 0-4.458 1.305-8.608 3.546-12.101l9.563 10.375a9.528 9.528 0 0 0-.165 1.726z"/></g></switch></svg>