<svg xmlns="http://www.w3.org/2000/svg" viewBox="0 0 350 350"><switch><g><path fill="#fff" d="M69.5 69.5L280.5 69.5 280.5 205.085 290.038 211.112 290.038 59.962 59.962 59.962 59.962 211.799 69.5 205.734z"/><path d="M69.5 69.5L69.5 205.734 79 199.693 79 79 271 79 271 199.081 280.5 205.085 280.5 69.5z"/><path d="M233.877 175.62L271 199.081V79H79v120.693l37.859-24.075c8.311 25.772 32.545 43.19 59.397 42.803C202.471 218.043 225.77 200.773 233.877 175.62zM175.183 138.528L79 199.693" fill="#9a273f"/><radialGradient id="a" cx="175" cy="148.718" r="83.895" gradientTransform="matrix(0 -1 1.25 0 -10.898 323.718)" gradientUnits="userSpaceOnUse"><stop offset=".153" stop-color="#cc4d3d"/><stop offset="1" stop-color="#fff" stop-opacity="0"/></radialGradient><path d="M271,199.081V79H79v120.693c12.619-8.025,25.239-16.05,37.858-24.075 c9.827,27.737,36.759,45.158,64.397,42.563c23.799-2.234,44.51-18.97,52.618-42.563 C246.249,183.439,258.624,191.26,271,199.081z" fill="url(#a)"/><path d="M69.482,247.353l-18.19,18.19c7.14,7.703,51.589,54.069,123.832,54.082 c72.28,0.014,116.759-46.383,123.896-54.082c-6.069-6.063-12.139-12.126-18.208-18.19 c-5.988,6.575-43.456,46.349-104.75,46.741C113.699,294.493,75.367,253.813,69.482,247.353z" fill="#050708"/><g fill="#fff"><path d="M192.708,310.188c0.479,0.119,1.196,0.279,2.073,0.406c3.652,0.528,5.396-0.201,10.969-0.938 c4.425-0.585,5.108-0.36,7.969-1.094c1.974-0.506,3.558-1.102,4.625-1.547c-2.825,0.575-5.125,0.928-6.656,1.141 c-4.501,0.624-5.613,0.48-9.75,1.219c-1.391,0.248-2.166,0.425-3.656,0.594C195.95,310.232,194.013,310.233,192.708,310.188z"/><path d="M280.874,262.59c-9.256,7.461-12.213,9.741-12.281,9.66c-0.06-0.072,2.189-1.991,5.063-5.313 c0.387-0.448,1.175-1.359,1.125-1.406c-0.098-0.092-3.286,3.119-6.323,6.219c-3.676,3.343-5.689,4.802-6.865,5.5 c-0.332,0.197-1.557,0.904-2.981,2.125c-0.706,0.605-1.182,1.099-1.301,1.219c-2.728,2.765-11.229,6.406-11.229,6.406 c-5.462,2.339-3.809,2.246-10.542,5.292c-5.944,2.689-12.513,5.661-19.76,7.052c-1.978,0.38-3.862,0.614-7.035,1.461 c-2.164,0.578-4.433,0.83-6.51,1.67c-0.745,0.301-1.933,0.831-3.392,0.588c-0.849-0.142-1.085-0.428-2.031-0.656 c-1.362-0.329-2.438-0.114-3.5,0.063c-1.81,0.301-3.652,0.369-5.469,0.625c-0.375,0.053-9.221,1.27-14.563,0.5 c-0.255-0.037-2.197-0.323-2.406,0.219c-0.117,0.303,0.395,0.643,0.305,0.875c-0.223,0.575-3.564-0.277-5.273-0.687 c-3.534-0.848-5.3-1.272-7.254-1.457c-4.487-0.424-6.373,0.72-9.809-0.762c-0.338-0.146-1.969-0.849-1.875-1.406 c0.156-0.921,4.895-0.62,4.938-1.094c0.048-0.528-5.806-1.457-6.844-1.625c-4.745-0.769-11.42-2.264-19.625-5.469 c2.417,1.784,3.953,3.51,3.604,4.146c-0.354,0.644-2.695,0.258-5.625-0.917c-6.822-2.048-14.762-5.032-23.208-9.458 c-13.559-7.105-23.673-15.437-30.693-22.255c-0.443,0.391-0.885,0.781-1.328,1.172c3.674,2.935,5.334,4.709,4.98,5.321 c-0.085,0.147-0.287,0.227-0.605,0.24c0.628,0.633,1.604,1.575,2.875,2.626c2.954,2.442,3.821,2.429,6.063,4.25 c2.933,2.383,2.487,3.25,5.75,6c1.042,0.879,2.195,1.628,4.5,3.125c4.571,2.97,6.856,4.454,9.125,5.125 c0.331,0.098,1.232,0.348,2.266,0.986c1.166,0.719,1.824,1.513,2.171,1.889c1.188,1.283,2.581,1.819,5.25,2.813 c10.293,3.831,15.439,5.747,17.688,6.375c3.709,1.037,6.198,1.576,10.77,3.173c3.165,1.105,2.575,1.057,4.417,1.639 c4.402,1.391,8.036,1.717,15.125,2.313c1.178,0.099,4.879,0.399,4.897,0.239c0.022-0.19-5.17-0.844-5.147-1.052 c0.018-0.162,3.215,0.132,8.583,0.417c5.665,0.3,8.538,0.312,8.542,0.521c0.004,0.218-3.123,0.469-4.542,0.583 c-2.392,0.192-2.941,0.129-4.503,0.304c-1.14,0.128-2.784,0.378-4.768,0.926c3.754,0.202,9.45,0.406,16.433,0.231 c6.075-0.152,13.696-0.604,13.692-0.96c-0.002-0.149-1.342-0.159-6.23-0.49c-0.183-0.012-1.271-0.082-2.435,0.031 c-0.29,0.028-0.594,0.069-0.919,0.125c-0.679,0.119-1.164,0.259-1.264,0.286c-1.331,0.366-6.114,0.346-6.132-0.028 c-0.014-0.279,2.622-0.756,4.98-0.863c2.463-0.111,3.036,0.253,5.791,0.082c1.871-0.116,3.946-0.428,3.938-0.645 c-0.007-0.192-1.655-0.287-1.729-0.292c-1.453-0.081-2.054,0.157-3.188-0.146c-0.044-0.012-1.056-0.286-1.032-0.467 c0.022-0.164,0.906-0.284,4.948-0.033c0.9,0.008,1.181-0.04,1.188-0.104c0.013-0.119-0.927-0.264-0.917-0.354 c0.016-0.149,2.575,0.216,5.622,0.047c0.469-0.026,2.2-0.134,4.378-0.588c1.869-0.389,2.245-0.694,4-1.125 c1.065-0.262,2.219-0.473,4.979-0.729c4.305-0.399,5.761-0.278,7.708-0.458c1.76-0.163,3.421-0.529,9.434-2.925 c6.901-2.75,14.871-6.317,14.753-6.596c-0.029-0.07-0.598,0.168-7.75,2.646c-4.103,1.421-5.519,1.898-7.188,2.438 c-1.624,0.525-1.945,0.611-3.292,1.063c-3.908,1.311-3.994,1.525-5.542,1.938c-3.565,0.951-6.597,0.747-6.606,0.653 c-0.005-0.052,0.898-0.087,2.21-0.507c1.115-0.357,1.813-0.762,2.401-1.069c2.033-1.061,3.883-1.529,5.391-1.91 c1.904-0.482,2.544-0.387,4.167-0.667c2.833-0.488,4.501-1.399,7.396-2.729c5.946-2.733,5.349-1.851,12.979-5.25 c3.763-1.677,5.645-2.515,7.529-3.588c1.927-1.098,4.517-2.752,9.617-6.016c0.838-0.536,5.151-3.297,5.587-2.751 c0.123,0.154-0.123,0.493,0.017,0.626c0.32,0.302,2.045-1.046,2.708-1.563c4.294-3.342,6.142-4.57,5.969-4.844 c-0.151-0.238-1.636,0.555-1.75,0.344c-0.093-0.172,0.753-0.962,1.829-1.498c1.479-0.737,2.242-0.422,2.983-1.221 c0.376-0.406,0.309-0.627,0.688-1.438c0.472-1.012,1.011-1.601,2.063-2.75c0.743-0.812,1.82-1.872,3.281-2.969 C283.167,264.613,282.02,263.602,280.874,262.59z M190.677,308.082c-0.121,0.046-0.456,0.18-0.913,0.191 c-0.387,0.009-0.706-0.074-0.92-0.147c-0.221-0.049-0.267-0.077-0.266-0.094c0.006-0.065,0.712,0.059,1.5-0.234 c0.204-0.076,0.334-0.15,0.406-0.188c1.102-0.573,3.269-0.215,3.266-0.031C193.747,307.744,191.982,307.587,190.677,308.082z M265.259,280.235c-0.381,0.41-0.535,0.336-1.848,1.163c-0.358,0.225-0.675,0.438-0.728,0.378 c-0.043-0.048,0.109-0.249,0.188-0.353c0.471-0.617,1.028-0.963,1.034-0.967c1.276-0.794,1.84-1.555,1.978-1.433 C265.999,279.127,265.694,279.767,265.259,280.235z"/></g><path d="M90.609,226.188l-18.336,18.336c5.729,6.285,43.129,45.948,103.893,45.477 c59.374-0.461,95.71-38.889,101.583-45.313c-6.146-6.146-12.292-12.292-18.438-18.438 c-4.701,5.247-34.286,37.172-82.979,37.75C126.018,264.597,95.14,231.251,90.609,226.188z" fill="#050708"/><path d="M92.904 253.884c-.705-.446.048-.366.034-.728-.013-.336-.303-.476-.542-.679-.477-.406-1.01-.738-1.474-1.164-.314-.288-.868-1.197-1.305-1.314-.399-.107-.519.042-.627.464-.126.494-.265.056.189.632.185.234.503.431.731.624C90.864 252.525 91.935 253.271 92.904 253.884zM268.458 244.583c-2.602-2.486-5.203-4.973-7.805-7.459.312.779.118 1.531-.737 1.772.476-2.387-2.744.64-3.237 1.03-1.35 1.071-2.473 2.064-3.436 3.482-.938 1.381-2.298 2.029-3.648 2.901-1.791 1.156-3.518 2.416-5.241 3.67 1.653-2.092 3.806-2.961 5.87-4.502 2.373-1.772 3.963-4.214 5.775-6.503-6.761 5.555-13.729 10.903-21.065 15.684 1.395 1.001-4.527 4.197-4.669 3.982.158.24 2.828-2.731 2.906-2.85-1.304.822-2.897 1.498-4.092 2.459-1.045.841-1.857 1.795-3.054 2.478-.273.156-3.954 1.998-4.194 1.459-.014-.031 2.351-1.41 2.396-1.439-2.425 1.085-4.982 1.85-7.457 2.811.335-.106 2.352-.791 2.374-.16.025.729-1.534.444-1.976.536-.47.097-4.638 1.988-4.699 1.878-.13-.234 2.164-1.39 2.34-1.474-2.635 1.068-5.231 2.275-7.936 3.162-.928.304-1.888.594-2.865.684-.94.087-1.826-.215-2.761-.164-1.362.074-2.205.965-3.461 1.317-.964.27-2.057.307-3.036.081-.815-.188-1.436-.696-2.288-.317-.909.405-1.345 1.422-2.405 1.58-.708.105-1.406-.199-2.083-.356-1.264-.293-2.435-.207-3.664.214-1.283.439-2.297.938-3.69.696-.696-.121-2.034-.823-2.668-.36-.115.084-.035.423-.194.56-.193.167-.404.105-.629.138-.675.099-1.55-.054-2.256-.045-1.551.018-3.103.013-4.654-.016-2.828-.053-5.654-.187-8.474-.4-5.219-.394-10.567-.911-15.637-2.272-1.714-.46-3.302-1.248-5.014-1.711-1.934-.523-3.93-.512-5.861-.998-4.24-1.066-8.261-3.233-12.076-5.317-3.728-2.037-7.387-4.218-10.943-6.543-3.986-2.605-7.856-5.4-11.648-8.28-2.753-2.091-5.461-4.243-8.123-6.449-.282-.233-.563-.467-.843-.702-.284-.238-.568-.476-.852-.715-.135.123-.27.246-.405.368-.735.415-1.404 1.276-2.027 1.842-1.487 1.351-2.973 2.702-4.46 4.053.848.857 1.873 1.282 2.822 1.975 1.121.819 1.893 2.027 2.92 2.952 1.738 1.566 3.914 2.545 5.639 4.155.775.724 1.488 1.69 2.446 2.187.395.205.827.251 1.23.425.794.344 1.09.839 1.548 1.503.836 1.215 2.038 1.098 3.309 1.544 1.342.471 2.237 1.49 3.275 2.399 2.014 1.766 4.541 2.989 6.923 4.169 2.937 1.455 5.924 2.832 8.943 4.109 3.213 1.359 6.486 2.576 9.8 3.663 2.53.83 5.168 1.81 7.798 2.265 1.595.276 2.966-.104 4.529-.202 1.238-.078 2.058 1.174 3.196.997 2.427-.378-2.848-1.797-2.861-1.738-.085.38 29.648 5.26 29.688 4.74-.02.254-13.081-.644-13.536-.587-1.425.179-2.613.978-4.061.994-1.683.019-3.389-.346-5.027-.694-3.605-.767-7.046-1.563-10.772-1.536 4.556.875 9.111 1.75 13.667 2.625-6.849-.53-13.653-1.626-20.326-3.256 8.418 2.783 17.119 4.702 25.93 5.691 4.848.544 9.727.809 14.605.791.565-.002 1.038.161 1.31-.39.117-.237.205-.468.011-.652-.433-.41-1.399.44-1.865-.122-.798-.963 1.4-2.304 1.964-2.639 2.965-1.763 6.512-2.681 9.869-3.277-.817.389-2.351 1.228-.793 1.533 1.075.21 2.29.059 3.373-.014 2.228-.15 4.457-.41 6.661-.765 3.73-.601 7.344-1.624 10.998-2.558 4.009-1.026 8.111-1.637 12.173-2.413 3.439-.657 6.39-2.653 9.594-3.97 1.296-.533 2.952-.685 3.955-1.721.38-.393.599-.888 1.037-1.225.537-.413 1.265-.63 1.889-.869 1.692-.646 3.641-.98 4.768-2.501 1.101-1.486 2.361-1.397 4.003-1.902 3.41-1.048 6.672-3.282 9.521-5.371 1.383-1.014 3.264-1.859 4.373-3.161.684-.803 1.032-1.242 2.07-1.547.99-.291 1.757-.832 2.551-1.54.73-.651 1.379-1.385 1.954-2.175.264-.363.671-1.352 1.06-1.57.313-.176.174-.268.293.083.196.581-.446 1.919-.61 2.454C266.638 246.375 267.557 245.488 268.458 244.583zM222.847 269.729c-.432.192-.853.422-1.247.682.507-.838 1.503-1.3 2.471-1.118C223.654 269.408 223.242 269.554 222.847 269.729zM240.188 253.083c-.601.438-1.341.696-2.083.729 1.259-.611 2.414-1.44 3.396-2.438C241.237 252.053 240.775 252.655 240.188 253.083zM243.917 263.438c-.363-.833-1.959.684-2.205.988-.777.956-1.502 1.473-2.667 1.939-1.791.716-3.583 1.28-5.283 2.206-1.985 1.081-3.98 2.134-6.058 3.026-4.288 1.84-8.753 3.288-13.185 4.732-5.574 1.815-11.18 3.53-16.794 5.212 8.899-1.604 17.619-4.161 25.993-7.569 3.673-1.494 7.279-3.151 10.808-4.959C235.444 268.54 244.247 264.195 243.917 263.438zM120.065 270.42c-.053-.46-1.636-.221-1.796-.178C118.432 270.321 120.152 271.18 120.065 270.42z" fill="#9a273f"/><path d="M193.146 281.625c-.367-1.017-3.461-.537-4.211-.448-1.849.219-3.544.861-5.338 1.28-.676.158-1.445.341-2.145.242-.782-.11-1.2-.79-1.986-.875-2.175-.235 1.119 1.207.931 1.622 2.295-.093 4.588-.249 6.875-.469 1.032-.099 2.063-.21 3.092-.334C190.905 282.578 193.499 282.603 193.146 281.625zM259.396 251.521c-4.314 3.612-9.544 6.62-14.552 9.143-2.53 1.274-5.399 2.308-7.639 4.044-.228.177-1.528 1.095-1.288 1.445.167.243 1.251-.24 1.444-.31 1.189-.432 2.356-.993 3.367-1.761 1.002-.761 1.666-1.568 2.933-1.898.937-.244 1.871-.065 2.795-.218 1.105-.183 2.413-1.423 3.37-2.059-.867-.999 1.297-1.758 1.89-2.072 1.324-.703 2.451-1.724 3.72-2.519 2.247-1.408 4.378-2.98 6.445-4.641C260.943 250.687 260.122 250.913 259.396 251.521z" fill="#9a273f"/><path d="M93.875,223.188c4.261,4.814,34.368,37.676,83.375,36.813 c46.592-0.821,74.815-31.501,79.344-36.594c-6.139-6.139-12.278-12.278-18.417-18.417 c-3.316,3.846-25.292,28.479-61.927,29.01c-38.2,0.554-61.376-25.546-64.5-29.188 C105.792,210.938,99.833,217.063,93.875,223.188z" fill="#050708"/><path d="M226.542,238.208c-0.873,0.006-1.961,0.099-3.167,0.417c-2.704,0.713-3.528,1.931-6.882,3.096 c-1.134,0.394-3.132,0.993-3.243,0.737c-0.168-0.39,4.103-2.574,5.092-3.091c4.469-2.333,11.433-6.883,22.454-16.575 c-0.835-0.591-1.669-1.181-2.504-1.772c-5.892,5.866-11.457,9.882-15.625,12.521c0,0-3.958,2.506-14.75,7.25 c-1.228,0.54-2.501,1.036-4.136,1.209c-0.621,0.066-0.879,0.041-1.708,0.142c-1.662,0.204-2.839,0.575-3.45,0.753 c-0.461,0.135-2.166,0.375-5.529,1.009c-4.496,0.848-4.999,1.009-6.344,0.969c-2.077-0.062-2.337-0.49-5.249-0.559 c-1.48-0.035-2.824,0.041-3.658,0.09c-2.028,0.12-3.527,0.316-3.75,0.344c-1.685,0.212-9.712,0.767-19-1.031 c-11.537-2.234-19.787-7.086-24.125-9.688c-2.156-1.293-4.433-2.804-5.906-3.781c-5.459-3.622-9.788-6.848-12.729-9.125 l-1.417,2.083c6.125,4.547,10.817,8.005,14.042,10.375c3.895,2.862,7.485,6.172,11.625,8.667 c1.177,0.709,3.428,2.019,3.24,2.479c-0.272,0.667-5.402-1.062-5.528-0.69c-0.106,0.312,3.298,2.134,7.6,3.107 c2.541,0.575,2.67,0.237,5.125,0.854c3.074,0.773,3.948,1.572,6.715,2.491c0.948,0.315,2.611,0.807,7.056,1.342 c3.257,0.392,8.024,0.956,14.336,0.893c0.126-0.054,0.261-0.109,0.403-0.164c0.95-0.366,1.286-0.351,1.674-0.719 c0.468-0.444,0.331-0.8,0.701-1.281c0.574-0.748,1.629-0.83,2.187-0.881c2.707-0.247,5.359-0.932,8.063-1.213 c1.911-0.198,3.281-0.405,5.781-0.781c3.564-0.537,6.706-1.123,6.778-0.835c0.042,0.168-1.026,0.332-2.122,1.397 c-0.67,0.651-0.661,0.97-1.188,1.344c-0.927,0.659-2.085,0.477-2.688,0.406c-1.792-0.21-0.856,0.304-7.063,0.688 c-2.239,0.138-3.832,0.163-5.781,0.906c-0.18,0.068-0.432,0.171-0.938,0.375c-0.64,0.259-1.158,0.474-1.595,0.656 c5.959-0.224,15.833-0.966,27.116-4.625c14.314-4.642,25.188-12.13,25.125-12.25 C231.567,235.719,230.758,236.081,226.542,238.208z" fill="#9a273f"/><path d="M82.75,90.563c-0.025-0.006,0.174-1.808,1.271-3.934c1.391-2.696,2.819-2.941,5.395-3.875 c2.142-0.777,3.893-3.592,5.55-5.467c2.606-2.948,5.267-5.848,7.975-8.703c7.555-7.963,15.715-17.973,25.538-23.214 c6.547-3.493,13.106-1.627,18.711,2.86c2.432,1.947,4.1,4.842,6.466,6.725c1.283,1.021,0.153,1.016,1.674,0.825 c0.372-0.047,1.112-0.666,1.444-0.847c1.018-0.555,2.064-1.048,3.166-1.412c4.678-1.546,10.018-1.224,14.871-1.384 c4.713-0.155,10.176-0.928,14.747,0.637c1.914,0.655,4.201,2.948,5.65,2.503c1.368-0.42,3.01-2.648,4.083-3.593 c1.556-1.369,3.111-2.737,4.667-4.106c4.303-3.786,8.546-7.046,14.705-5.632c3.661,0.841,6.029,3.181,8.572,5.696 c7.483,7.4,15.335,14.416,22.735,21.909c7.97,8.072,16.192,19.117,9.262,30.39c-1.661,2.701-4.048,5.077-6.359,7.227 c-0.99,0.921-4.397,3.101-4.546,4.176c-0.124,0.891,0.745,1.863,0.978,2.704c1.123,4.043,0.743,8.693,0.669,12.843 c-0.08,4.533-0.132,9.064-0.205,13.596c-0.047,2.954-1.487,6.761-1.145,9.545c0.354,2.881,6.28,7.133,8.499,9.341 c-0.448-1.049-1.116-2.485-2.063-4.125c-1.045-1.809-2.011-3.143-1.813-3.313c0.159-0.136,0.961,0.56,1.25,0.813 c1.182,1.033,3.174,3.097,5.688,7.302c0.494,0.16,0.989,0.321,1.483,0.481c0.234,1.147,0.468,2.294,0.701,3.441 c0.461,2.03,0.932,4.961,0.822,8.492c-0.079,2.516-0.067,6.523-1.957,9.92c-1.986,3.57-5.439,6.062-10.233,8.5 c-3.627,1.845-9.211,6.914-14.026,13.696c-3.733,5.258-3.235,6.911-6.354,9.606c-4.243,3.666-9.621,4.457-13.594,4.531 c0.015,0.189,0.059,0.493,0.251,0.779c0.539,0.8,1.801,0.806,2.638,1.255c1.58,0.848,2.52,1.971,3.329,3.622 c-7.416,1.56-14.301-0.451-20.373-4.796c-2.095-1.499-4.987-4.952-7.2-4.824c-0.81,0.047-9.005,2.603-9.052,1.057 c0.015,0.484,8.308-2.255,9.031-2.656c-0.978-1.021-2.313-3.085-3.563-3.719c-1.031-0.523-2.663,0.057-3.685-0.665 c-2.289-1.617,1.026-1.677,0.373-3.038c0.111,0.232-8.158,0.185-9.06,0.097c-1.052-0.103-5.627-0.731-6.027,0.162 c-0.009,0.021-0.28,0.51-0.088,0.897c0.18,0.364,0.692,0.487,1.644,0.704c0.727,0.165,0.922,0.138,0.934,0.22 c0.035,0.234-1.518,0.909-3.122,0.64c-0.303-0.051-1.274-0.214-1.373-0.683c-0.082-0.387,0.445-0.727,0.366-1.355 c-0.014-0.113-0.058-0.231-0.144-0.356c-0.458-0.665-3.406,0.428-4.099,0.628c3.777,4.67-5.527,3.569-7.633,3.315 c-1.909-0.23-2.337-0.554-3.674,0.335c-0.663,0.441-1.262,1.482-1.829,2.08c-1.781,1.879-3.75,3.576-5.889,5.036 c-2.906,1.983-9.54,6.479-16.934,5.088c-3.113-0.585-5.137-2.015-9.187-4.874c-4.699-3.317-7.997-6.779-10.083-9.25 c-4.725-3.61-9.451-7.221-14.176-10.831c-6.569-5.886-10.111-11.905-11.979-15.76c-2.468-5.092-5.146-10.18-3.528-15.925 c0.853-3.027,2.413-5.866,4.227-8.418c1.922-2.705,5.158-5.069,6.716-7.925c0.86-1.576,0.301-2.474-0.098-4.365 c-0.317-1.501-0.597-3.022-0.735-4.551c-0.137-1.527-0.305-3.066,0.365-4.494c0.239-0.51,2.001-3.135,2.765-2.492 c0.341,0.287-0.359,2.914,1.282,1.877c0.834-0.527,1.018-3.466,1.167-4.189c0.299-1.447,1.466-4.114,1.16-5.532 c-0.279-1.294-2.161-2.234-2.53-3.606c-0.283-1.05,0.142-2.053,0.341-3.085c0.457-2.366,0.058-2.873-1.397-4.716 c-0.368-0.465-4.864-6.756-3.537-7.385c0.455-0.216,1.026,1.409,1.456,1.167c0.493-0.277-5.536-8.967-6.064-10.128 c-0.785-1.723-1.438-3.495-2.027-5.294c-0.269-0.821-0.514-2.952-1.163-3.572c-0.186-0.177-0.642-0.627-1.092-0.523 C82.953,88.853,82.774,90.569,82.75,90.563z" fill="#050708"/><path d="M114.25,151.563c-1.281-0.578-2.996-1.623-3.938-3.5c-0.765-1.525-0.689-2.971-0.688-3.5 c0.021-9.208,0.042-18.417,0.063-27.625c0.109-0.842,0.465-2.664,1.875-4.375c0.852-1.033,1.786-1.66,2.438-2.021 c-4.744-4.749-9.488-9.498-14.232-14.247c-0.444-0.503-2.289-2.702-2.205-5.982c0.067-2.629,1.334-4.442,1.813-5.063 c9.75-9.854,19.5-19.708,29.25-29.562c0.459-0.438,2.42-2.21,5.5-2.313c3.015-0.101,5.06,1.466,5.563,1.875 c4.974,5.026,9.948,10.052,14.922,15.078c0.291-0.645,1.068-2.139,2.766-3.266c1.448-0.961,2.859-1.186,3.563-1.25 c9.375,0,18.75,0,28.125,0c0.687,0.034,2.234,0.204,3.813,1.25c1.709,1.132,2.474,2.641,2.75,3.266 c3.129-2.709,6.38-5.823,9.625-9.391c1.282-1.409,2.489-2.808,3.625-4.188c0.247-0.308,3.079-3.725,7.563-3.375 c3.386,0.264,5.437,2.5,5.875,3c9.104,9.229,18.208,18.458,27.313,27.688c0.564,0.504,2.448,2.315,2.875,5.313 c0.559,3.92-1.823,6.712-2.188,7.125c-4.755,4.682-9.51,9.365-14.266,14.047c0.603,0.253,2.137,0.99,3.266,2.703 c1.006,1.527,1.159,3.025,1.188,3.688c0.043,9.091,0.086,18.181,0.129,27.272c0.028,0.684,0.029,2.821-1.441,4.853 c-1.097,1.516-2.474,2.229-3.141,2.521c5.026,4.972,10.052,9.944,15.078,14.917c0.301,0.384,2.59,3.414,1.625,7.25 c-0.659,2.618-2.454,4.102-3.063,4.563c-9.593,9.552-19.187,19.104-28.78,28.657c-0.573,0.387-2.897,1.863-6.095,1.468 c-3.284-0.405-5.205-2.5-5.647-3.008c-4.527-4.49-9.055-8.981-13.582-13.471c-0.153,0.52-0.637,1.916-2.021,3.042 c-0.796,0.648-1.87,1.161-3.492,1.369c-3.035,0.389-14.088,0.492-29.007,0.13c-1.04-0.27-2.775-0.875-4.439-2.311 c-0.892-0.77-1.523-1.571-1.958-2.229c-4.847,4.826-9.694,9.653-14.542,14.479c-0.682,0.504-2.917,2.022-6.063,1.89 c-4.248-0.179-6.747-3.226-7.124-3.702c-9.104-9.208-18.208-18.417-27.313-27.625c-0.444-0.564-1.954-2.626-1.875-5.625 c0.089-3.359,2.109-5.483,2.563-5.938C104.958,160.813,109.604,156.188,114.25,151.563z" fill="#fff"/><path fill="#050708" d="M160 115.927H190V145.92700000000002H160zM134.32 99.859c-3.885-.218-9.461-3.656-9.383-9.383.073-5.369 5.067-9.179 9.813-9.102 4.529.074 8.726 3.687 9.188 7.625.145 1.24-.101 2.331-.395 3.15 2.929 3.316 5.858 6.631 8.787 9.947 2.116-3.294 3.358-7.203 3.358-11.409 0-11.684-9.472-21.156-21.156-21.156s-21.156 9.472-21.156 21.156 9.472 21.156 21.156 21.156c4.233 0 8.167-1.257 11.475-3.398-3.252-2.911-6.504-5.821-9.756-8.732C135.724 99.822 135.068 99.901 134.32 99.859zM206.359 90.477c.218-3.885 3.656-9.461 9.383-9.383 5.369.073 9.179 5.067 9.102 9.813-.074 4.529-3.687 8.726-7.625 9.188-1.24.145-2.331-.101-3.15-.395-3.316 2.929-6.631 5.858-9.947 8.787 3.294 2.116 7.203 3.358 11.409 3.358 11.684 0 21.156-9.472 21.156-21.156s-9.472-21.156-21.156-21.156-21.156 9.472-21.156 21.156c0 4.233 1.257 8.167 3.398 11.475 2.911-3.252 5.821-6.504 8.732-9.756C206.397 91.88 206.317 91.224 206.359 90.477zM216.034 162.328c3.885.218 9.461 3.656 9.383 9.383-.073 5.369-5.067 9.179-9.813 9.102-4.529-.074-8.726-3.687-9.188-7.625-.145-1.24.101-2.331.395-3.15-2.929-3.316-5.858-6.631-8.787-9.947-2.116 3.294-3.358 7.203-3.358 11.409 0 11.684 9.472 21.156 21.156 21.156s21.156-9.472 21.156-21.156-9.472-21.156-21.156-21.156c-4.233 0-8.167 1.257-11.475 3.398 3.252 2.911 6.504 5.821 9.756 8.732C214.63 162.365 215.286 162.286 216.034 162.328zM144.016 171.711c-.218 3.885-3.656 9.461-9.383 9.383-5.369-.073-9.179-5.067-9.102-9.813.074-4.529 3.687-8.726 7.625-9.188 1.24-.145 2.331.101 3.15.395 3.316-2.929 6.631-5.858 9.947-8.787-3.294-2.116-7.203-3.358-11.409-3.358-11.684 0-21.156 9.472-21.156 21.156s9.472 21.156 21.156 21.156S156 183.184 156 171.5c0-4.233-1.257-8.167-3.398-11.475-2.911 3.252-5.821 6.504-8.732 9.756C143.978 170.307 144.058 170.963 144.016 171.711zM240.917 209.792l1.917-2.708c.359.145.888.317 1.542.375 3.565.315 6.189-3.185 6.369-3.434 1.337-1.838.994-2.925 1.841-5.289.69-1.923 2.111-4.534 5.385-7.195-1.778.344-4.364 1.086-6.929 2.876-1.972 1.376-3.026 2.776-4.75 4.833-1.637 1.952-4.187 4.969-7.542 8.833C239.472 208.653 240.194 209.222 240.917 209.792z"/></g></switch></svg>