<svg xmlns="http://www.w3.org/2000/svg" viewBox="0 0 350 350" style="enable-background:new 0 0 350 350" xml:space="preserve"><switch><g><path style="fill:#fff" d="M69.5 69.5h211v135.585l9.538 6.027V59.962H59.962v151.837l9.538-6.065z"/><path d="M69.5 69.5v136.234l9.5-6.041V79h192v120.081l9.5 6.004V69.5z"/><path style="fill:#9a273f" d="M233.877 175.62 271 199.081V79H79v120.693l37.859-24.075c8.311 25.772 32.545 43.19 59.397 42.803 26.215-.378 49.514-17.648 57.621-42.801zM175.183 138.528 79 199.693"/><radialGradient id="echo-a" cx="175" cy="148.718" r="83.895" gradientTransform="matrix(0 -1 1.25 0 -10.898 323.718)" gradientUnits="userSpaceOnUse"><stop offset=".153" style="stop-color:#cc4d3d"/><stop offset="1" style="stop-color:#fff;stop-opacity:0"/></radialGradient><path style="fill:url(#echo-a)" d="M271 199.081V79H79v120.693l37.858-24.075c9.827 27.737 36.759 45.158 64.397 42.563 23.799-2.234 44.51-18.97 52.618-42.563L271 199.081z"/><g><path style="fill:#050708" d="m69.482 247.353-18.19 18.19c7.14 7.703 51.589 54.069 123.832 54.082 72.28.014 116.759-46.383 123.896-54.082l-18.208-18.19c-5.988 6.575-43.456 46.349-104.75 46.741-62.363.399-100.695-40.281-106.58-46.741z"/><path style="fill:#fff" d="M192.708 310.188c.479.119 1.196.279 2.073.406 3.652.528 5.396-.201 10.969-.938 4.425-.585 5.108-.36 7.969-1.094a33.904 33.904 0 0 0 4.625-1.547c-2.825.575-5.125.928-6.656 1.141-4.501.624-5.613.48-9.75 1.219-1.391.248-2.166.425-3.656.594a38.08 38.08 0 0 1-5.574.219z"/><path style="fill:#fff" d="M280.874 262.59c-9.256 7.461-12.213 9.741-12.281 9.66-.06-.072 2.189-1.991 5.063-5.313.387-.448 1.175-1.359 1.125-1.406-.098-.092-3.286 3.119-6.323 6.219-3.676 3.343-5.689 4.802-6.865 5.5-.332.197-1.557.904-2.981 2.125-.706.605-1.182 1.099-1.301 1.219-2.728 2.765-11.229 6.406-11.229 6.406-5.462 2.339-3.809 2.246-10.542 5.292-5.944 2.689-12.513 5.661-19.76 7.052-1.978.38-3.862.614-7.035 1.461-2.164.578-4.433.83-6.51 1.67-.745.301-1.933.831-3.392.588-.849-.142-1.085-.428-2.031-.656-1.362-.329-2.438-.114-3.5.063-1.81.301-3.652.369-5.469.625-.375.053-9.221 1.27-14.563.5-.255-.037-2.197-.323-2.406.219-.117.303.395.643.305.875-.223.575-3.564-.277-5.273-.687-3.534-.848-5.3-1.272-7.254-1.457-4.487-.424-6.373.72-9.809-.762-.338-.146-1.969-.849-1.875-1.406.156-.921 4.895-.62 4.938-1.094.048-.528-5.806-1.457-6.844-1.625-4.745-.769-11.42-2.264-19.625-5.469 2.417 1.784 3.953 3.51 3.604 4.146-.354.644-2.695.258-5.625-.917a131.352 131.352 0 0 1-23.208-9.458c-13.559-7.105-23.673-15.437-30.693-22.255l-1.328 1.172c3.674 2.935 5.334 4.709 4.98 5.321-.085.147-.287.227-.605.24a39.593 39.593 0 0 0 2.875 2.626c2.954 2.442 3.821 2.429 6.063 4.25 2.933 2.383 2.487 3.25 5.75 6 1.042.879 2.195 1.628 4.5 3.125 4.571 2.97 6.856 4.454 9.125 5.125.331.098 1.232.348 2.266.986 1.166.719 1.824 1.513 2.171 1.889 1.188 1.283 2.581 1.819 5.25 2.813 10.293 3.831 15.439 5.747 17.688 6.375 3.709 1.037 6.198 1.576 10.77 3.173 3.165 1.105 2.575 1.057 4.417 1.639 4.402 1.391 8.036 1.717 15.125 2.313 1.178.099 4.879.399 4.897.239.022-.19-5.17-.844-5.147-1.052.018-.162 3.215.132 8.583.417 5.665.3 8.538.312 8.542.521.004.218-3.123.469-4.542.583-2.392.192-2.941.129-4.503.304-1.14.128-2.784.378-4.768.926 3.754.202 9.45.406 16.433.231 6.075-.152 13.696-.604 13.692-.96-.002-.149-1.342-.159-6.23-.49a15.987 15.987 0 0 0-2.435.031c-.29.028-.594.069-.919.125-.679.119-1.164.259-1.264.286-1.331.366-6.114.346-6.132-.028-.014-.279 2.622-.756 4.98-.863 2.463-.111 3.036.253 5.791.082 1.871-.116 3.946-.428 3.938-.645-.007-.192-1.655-.287-1.729-.292-1.453-.081-2.054.157-3.188-.146-.044-.012-1.056-.286-1.032-.467.022-.164.906-.284 4.948-.033.9.008 1.181-.04 1.188-.104.013-.119-.927-.264-.917-.354.016-.149 2.575.216 5.622.047.469-.026 2.2-.134 4.378-.588 1.869-.389 2.245-.694 4-1.125 1.065-.262 2.219-.473 4.979-.729 4.305-.399 5.761-.278 7.708-.458 1.76-.163 3.421-.529 9.434-2.925 6.901-2.75 14.871-6.317 14.753-6.596-.029-.07-.598.168-7.75 2.646-4.103 1.421-5.519 1.898-7.188 2.438-1.624.525-1.945.611-3.292 1.063-3.908 1.311-3.994 1.525-5.542 1.938-3.565.951-6.597.747-6.606.653-.005-.052.898-.087 2.21-.507 1.115-.357 1.813-.762 2.401-1.069 2.033-1.061 3.883-1.529 5.391-1.91 1.904-.482 2.544-.387 4.167-.667 2.833-.488 4.501-1.399 7.396-2.729 5.946-2.733 5.349-1.851 12.979-5.25 3.763-1.677 5.645-2.515 7.529-3.588 1.927-1.098 4.517-2.752 9.617-6.016.838-.536 5.151-3.297 5.587-2.751.123.154-.123.493.017.626.32.302 2.045-1.046 2.708-1.563 4.294-3.342 6.142-4.57 5.969-4.844-.151-.238-1.636.555-1.75.344-.093-.172.753-.962 1.829-1.498 1.479-.737 2.242-.422 2.983-1.221.376-.406.309-.627.688-1.438.472-1.012 1.011-1.601 2.063-2.75a23.823 23.823 0 0 1 3.281-2.969c-1.142-1.014-2.289-2.025-3.435-3.037zm-90.197 45.492c-.121.046-.456.18-.913.191a2.65 2.65 0 0 1-.92-.147c-.221-.049-.267-.077-.266-.094.006-.065.712.059 1.5-.234.204-.076.334-.15.406-.188 1.102-.573 3.269-.215 3.266-.031-.003.165-1.768.008-3.073.503zm74.582-27.847c-.381.41-.535.336-1.848 1.163-.358.225-.675.438-.728.378-.043-.048.109-.249.188-.353.471-.617 1.028-.963 1.034-.967 1.276-.794 1.84-1.555 1.978-1.433.116.104-.189.744-.624 1.212z"/><g><path style="fill:#050708" d="m90.609 226.188-18.336 18.336c5.729 6.285 43.129 45.948 103.893 45.477 59.374-.461 95.71-38.889 101.583-45.313l-18.438-18.438c-4.701 5.247-34.286 37.172-82.979 37.75-50.314.597-81.192-32.749-85.723-37.812z"/><path style="fill:#9a273f" d="M92.904 253.884c-.705-.446.048-.366.034-.728-.013-.336-.303-.476-.542-.679-.477-.406-1.01-.738-1.474-1.164-.314-.288-.868-1.197-1.305-1.314-.399-.107-.519.042-.627.464-.126.494-.265.056.189.632.185.234.503.431.731.624.954.806 2.025 1.552 2.994 2.165zM268.458 244.583l-7.805-7.459c.312.779.118 1.531-.737 1.772.476-2.387-2.744.64-3.237 1.03-1.35 1.071-2.473 2.064-3.436 3.482-.938 1.381-2.298 2.029-3.648 2.901-1.791 1.156-3.518 2.416-5.241 3.67 1.653-2.092 3.806-2.961 5.87-4.502 2.373-1.772 3.963-4.214 5.775-6.503-6.761 5.555-13.729 10.903-21.065 15.684 1.395 1.001-4.527 4.197-4.669 3.982.158.24 2.828-2.731 2.906-2.85-1.304.822-2.897 1.498-4.092 2.459-1.045.841-1.857 1.795-3.054 2.478-.273.156-3.954 1.998-4.194 1.459-.014-.031 2.351-1.41 2.396-1.439-2.425 1.085-4.982 1.85-7.457 2.811.335-.106 2.352-.791 2.374-.16.025.729-1.534.444-1.976.536-.47.097-4.638 1.988-4.699 1.878-.13-.234 2.164-1.39 2.34-1.474-2.635 1.068-5.231 2.275-7.936 3.162-.928.304-1.888.594-2.865.684-.94.087-1.826-.215-2.761-.164-1.362.074-2.205.965-3.461 1.317a6.29 6.29 0 0 1-3.036.081c-.815-.188-1.436-.696-2.288-.317-.909.405-1.345 1.422-2.405 1.58-.708.105-1.406-.199-2.083-.356-1.264-.293-2.435-.207-3.664.214-1.283.439-2.297.938-3.69.696-.696-.121-2.034-.823-2.668-.36-.115.084-.035.423-.194.56-.193.167-.404.105-.629.138-.675.099-1.55-.054-2.256-.045a149.778 149.778 0 0 1-13.128-.416c-5.219-.394-10.567-.911-15.637-2.272-1.714-.46-3.302-1.248-5.014-1.711-1.934-.523-3.93-.512-5.861-.998-4.24-1.066-8.261-3.233-12.076-5.317a161.596 161.596 0 0 1-10.943-6.543c-3.986-2.605-7.856-5.4-11.648-8.28a244.54 244.54 0 0 1-8.966-7.151l-.852-.715-.405.368c-.735.415-1.404 1.276-2.027 1.842l-4.46 4.053c.848.857 1.873 1.282 2.822 1.975 1.121.819 1.893 2.027 2.92 2.952 1.738 1.566 3.914 2.545 5.639 4.155.775.724 1.488 1.69 2.446 2.187.395.205.827.251 1.23.425.794.344 1.09.839 1.548 1.503.836 1.215 2.038 1.098 3.309 1.544 1.342.471 2.237 1.49 3.275 2.399 2.014 1.766 4.541 2.989 6.923 4.169a164.784 164.784 0 0 0 8.943 4.109 125.804 125.804 0 0 0 9.8 3.663c2.53.83 5.168 1.81 7.798 2.265 1.595.276 2.966-.104 4.529-.202 1.238-.078 2.058 1.174 3.196.997 2.427-.378-2.848-1.797-2.861-1.738-.085.38 29.648 5.26 29.688 4.74-.02.254-13.081-.644-13.536-.587-1.425.179-2.613.978-4.061.994-1.683.019-3.389-.346-5.027-.694-3.605-.767-7.046-1.563-10.772-1.536l13.667 2.625a127.005 127.005 0 0 1-20.326-3.256 128.257 128.257 0 0 0 25.93 5.691c4.848.544 9.727.809 14.605.791.565-.002 1.038.161 1.31-.39.117-.237.205-.468.011-.652-.433-.41-1.399.44-1.865-.122-.798-.963 1.4-2.304 1.964-2.639 2.965-1.763 6.512-2.681 9.869-3.277-.817.389-2.351 1.228-.793 1.533 1.075.21 2.29.059 3.373-.014a72.64 72.64 0 0 0 6.661-.765c3.73-.601 7.344-1.624 10.998-2.558 4.009-1.026 8.111-1.637 12.173-2.413 3.439-.657 6.39-2.653 9.594-3.97 1.296-.533 2.952-.685 3.955-1.721.38-.393.599-.888 1.037-1.225.537-.413 1.265-.63 1.889-.869 1.692-.646 3.641-.98 4.768-2.501 1.101-1.486 2.361-1.397 4.003-1.902 3.41-1.048 6.672-3.282 9.521-5.371 1.383-1.014 3.264-1.859 4.373-3.161.684-.803 1.032-1.242 2.07-1.547.99-.291 1.757-.832 2.551-1.54a13.726 13.726 0 0 0 1.954-2.175c.264-.363.671-1.352 1.06-1.57.313-.176.174-.268.293.083.196.581-.446 1.919-.61 2.454a99.14 99.14 0 0 0 2.758-2.664zm-45.611 25.146a8.66 8.66 0 0 0-1.247.682 2.4 2.4 0 0 1 2.471-1.118 8.818 8.818 0 0 0-1.224.436zm17.341-16.646a3.866 3.866 0 0 1-2.083.729 12.33 12.33 0 0 0 3.396-2.438 3.862 3.862 0 0 1-1.313 1.709zM243.917 263.438c-.363-.833-1.959.684-2.205.988-.777.956-1.502 1.473-2.667 1.939-1.791.716-3.583 1.28-5.283 2.206-1.985 1.081-3.98 2.134-6.058 3.026-4.288 1.84-8.753 3.288-13.185 4.732-5.574 1.815-11.18 3.53-16.794 5.212 8.899-1.604 17.619-4.161 25.993-7.569a136.512 136.512 0 0 0 10.808-4.959c.918-.473 9.721-4.818 9.391-5.575zM120.065 270.42c-.053-.46-1.636-.221-1.796-.178.163.079 1.883.938 1.796.178z"/><path style="fill:#9a273f" d="M193.146 281.625c-.367-1.017-3.461-.537-4.211-.448-1.849.219-3.544.861-5.338 1.28-.676.158-1.445.341-2.145.242-.782-.11-1.2-.79-1.986-.875-2.175-.235 1.119 1.207.931 1.622a124.413 124.413 0 0 0 9.967-.803c.541-.065 3.135-.04 2.782-1.018zM259.396 251.521c-4.314 3.612-9.544 6.62-14.552 9.143-2.53 1.274-5.399 2.308-7.639 4.044-.228.177-1.528 1.095-1.288 1.445.167.243 1.251-.24 1.444-.31 1.189-.432 2.356-.993 3.367-1.761 1.002-.761 1.666-1.568 2.933-1.898.937-.244 1.871-.065 2.795-.218 1.105-.183 2.413-1.423 3.37-2.059-.867-.999 1.297-1.758 1.89-2.072 1.324-.703 2.451-1.724 3.72-2.519 2.247-1.408 4.378-2.98 6.445-4.641-.938.012-1.759.238-2.485.846z"/></g><g><path style="fill:#050708" d="M93.875 223.188c4.261 4.814 34.368 37.676 83.375 36.813 46.592-.821 74.815-31.501 79.344-36.594l-18.417-18.417c-3.316 3.846-25.292 28.479-61.927 29.01-38.2.554-61.376-25.546-64.5-29.188l-17.875 18.376z"/><path style="fill:#9a273f" d="M226.542 238.208c-.873.006-1.961.099-3.167.417-2.704.713-3.528 1.931-6.882 3.096-1.134.394-3.132.993-3.243.737-.168-.39 4.103-2.574 5.092-3.091 4.469-2.333 11.433-6.883 22.454-16.575l-2.504-1.772c-5.892 5.866-11.457 9.882-15.625 12.521 0 0-3.958 2.506-14.75 7.25-1.228.54-2.501 1.036-4.136 1.209-.621.066-.879.041-1.708.142-1.662.204-2.839.575-3.45.753-.461.135-2.166.375-5.529 1.009-4.496.848-4.999 1.009-6.344.969-2.077-.062-2.337-.49-5.249-.559a43.932 43.932 0 0 0-3.658.09c-2.028.12-3.527.316-3.75.344-1.685.212-9.712.767-19-1.031-11.537-2.234-19.787-7.086-24.125-9.688-2.156-1.293-4.433-2.804-5.906-3.781a214.725 214.725 0 0 1-12.729-9.125l-1.417 2.083a3591.584 3591.584 0 0 0 14.042 10.375c3.895 2.862 7.485 6.172 11.625 8.667 1.177.709 3.428 2.019 3.24 2.479-.272.667-5.402-1.062-5.528-.69-.106.312 3.298 2.134 7.6 3.107 2.541.575 2.67.237 5.125.854 3.074.773 3.948 1.572 6.715 2.491.948.315 2.611.807 7.056 1.342 3.257.392 8.024.956 14.336.893.126-.054.261-.109.403-.164.95-.366 1.286-.351 1.674-.719.468-.444.331-.8.701-1.281.574-.748 1.629-.83 2.187-.881 2.707-.247 5.359-.932 8.063-1.213 1.911-.198 3.281-.405 5.781-.781 3.564-.537 6.706-1.123 6.778-.835.042.168-1.026.332-2.122 1.397-.67.651-.661.97-1.188 1.344-.927.659-2.085.477-2.688.406-1.792-.21-.856.304-7.063.688-2.239.138-3.832.163-5.781.906-.18.068-.432.171-.938.375-.64.259-1.158.474-1.595.656 5.959-.224 15.833-.966 27.116-4.625 14.314-4.642 25.188-12.13 25.125-12.25-.013-.028-.822.334-5.038 2.461z"/></g><g><path style="fill:#050708" d="M82.75 90.563c-.025-.006.174-1.808 1.271-3.934 1.391-2.696 2.819-2.941 5.395-3.875 2.142-.777 3.893-3.592 5.55-5.467a336.524 336.524 0 0 1 7.975-8.703c7.555-7.963 15.715-17.973 25.538-23.214 6.547-3.493 13.106-1.627 18.711 2.86 2.432 1.947 4.1 4.842 6.466 6.725 1.283 1.021.153 1.016 1.674.825.372-.047 1.112-.666 1.444-.847 1.018-.555 2.064-1.048 3.166-1.412 4.678-1.546 10.018-1.224 14.871-1.384 4.713-.155 10.176-.928 14.747.637 1.914.655 4.201 2.948 5.65 2.503 1.368-.42 3.01-2.648 4.083-3.593l4.667-4.106c4.303-3.786 8.546-7.046 14.705-5.632 3.661.841 6.029 3.181 8.572 5.696 7.483 7.4 15.335 14.416 22.735 21.909 7.97 8.072 16.192 19.117 9.262 30.39-1.661 2.701-4.048 5.077-6.359 7.227-.99.921-4.397 3.101-4.546 4.176-.124.891.745 1.863.978 2.704 1.123 4.043.743 8.693.669 12.843-.08 4.533-.132 9.064-.205 13.596-.047 2.954-1.487 6.761-1.145 9.545.354 2.881 6.28 7.133 8.499 9.341a38.424 38.424 0 0 0-2.063-4.125c-1.045-1.809-2.011-3.143-1.813-3.313.159-.136.961.56 1.25.813 1.182 1.033 3.174 3.097 5.688 7.302l1.483.481.701 3.441c.461 2.03.932 4.961.822 8.492-.079 2.516-.067 6.523-1.957 9.92-1.986 3.57-5.439 6.062-10.233 8.5-3.627 1.845-9.211 6.914-14.026 13.696-3.733 5.258-3.235 6.911-6.354 9.606-4.243 3.666-9.621 4.457-13.594 4.531.015.189.059.493.251.779.539.8 1.801.806 2.638 1.255 1.58.848 2.52 1.971 3.329 3.622-7.416 1.56-14.301-.451-20.373-4.796-2.095-1.499-4.987-4.952-7.2-4.824-.81.047-9.005 2.603-9.052 1.057.015.484 8.308-2.255 9.031-2.656-.978-1.021-2.313-3.085-3.563-3.719-1.031-.523-2.663.057-3.685-.665-2.289-1.617 1.026-1.677.373-3.038.111.232-8.158.185-9.06.097-1.052-.103-5.627-.731-6.027.162-.009.021-.28.51-.088.897.18.364.692.487 1.644.704.727.165.922.138.934.22.035.234-1.518.909-3.122.64-.303-.051-1.274-.214-1.373-.683-.082-.387.445-.727.366-1.355a.797.797 0 0 0-.144-.356c-.458-.665-3.406.428-4.099.628 3.777 4.67-5.527 3.569-7.633 3.315-1.909-.23-2.337-.554-3.674.335-.663.441-1.262 1.482-1.829 2.08a36.419 36.419 0 0 1-5.889 5.036c-2.906 1.983-9.54 6.479-16.934 5.088-3.113-.585-5.137-2.015-9.187-4.874a53.8 53.8 0 0 1-10.083-9.25l-14.176-10.831c-6.569-5.886-10.111-11.905-11.979-15.76-2.468-5.092-5.146-10.18-3.528-15.925.853-3.027 2.413-5.866 4.227-8.418 1.922-2.705 5.158-5.069 6.716-7.925.86-1.576.301-2.474-.098-4.365-.317-1.501-.597-3.022-.735-4.551-.137-1.527-.305-3.066.365-4.494.239-.51 2.001-3.135 2.765-2.492.341.287-.359 2.914 1.282 1.877.834-.527 1.018-3.466 1.167-4.189.299-1.447 1.466-4.114 1.16-5.532-.279-1.294-2.161-2.234-2.53-3.606-.283-1.05.142-2.053.341-3.085.457-2.366.058-2.873-1.397-4.716-.368-.465-4.864-6.756-3.537-7.385.455-.216 1.026 1.409 1.456 1.167.493-.277-5.536-8.967-6.064-10.128-.785-1.723-1.438-3.495-2.027-5.294-.269-.821-.514-2.952-1.163-3.572-.186-.177-.642-.627-1.092-.523-.778.184-.957 1.9-.981 1.894z"/><path style="fill:#fff" d="M114.25 151.563c-1.281-.578-2.996-1.623-3.938-3.5-.765-1.525-.689-2.971-.688-3.5l.063-27.625c.109-.842.465-2.664 1.875-4.375a8.49 8.49 0 0 1 2.438-2.021L99.768 96.295c-.444-.503-2.289-2.702-2.205-5.982.067-2.629 1.334-4.442 1.813-5.063l29.25-29.562c.459-.438 2.42-2.21 5.5-2.313 3.015-.101 5.06 1.466 5.563 1.875l14.922 15.078a7.767 7.767 0 0 1 2.766-3.266 7.729 7.729 0 0 1 3.563-1.25h28.125a7.62 7.62 0 0 1 3.813 1.25 7.637 7.637 0 0 1 2.75 3.266 112.852 112.852 0 0 0 13.25-13.579c.247-.308 3.079-3.725 7.563-3.375 3.386.264 5.437 2.5 5.875 3l27.313 27.688c.564.504 2.448 2.315 2.875 5.313.559 3.92-1.823 6.712-2.188 7.125l-14.266 14.047a7.33 7.33 0 0 1 3.266 2.703 7.307 7.307 0 0 1 1.188 3.688l.129 27.272c.028.684.029 2.821-1.441 4.853a7.697 7.697 0 0 1-3.141 2.521l15.078 14.917c.301.384 2.59 3.414 1.625 7.25-.659 2.618-2.454 4.102-3.063 4.563l-28.78 28.657c-.573.387-2.897 1.863-6.095 1.468-3.284-.405-5.205-2.5-5.647-3.008l-13.582-13.471a6.207 6.207 0 0 1-2.021 3.042c-.796.648-1.87 1.161-3.492 1.369-3.035.389-14.088.492-29.007.13a11.038 11.038 0 0 1-4.439-2.311 10.838 10.838 0 0 1-1.958-2.229l-14.542 14.479c-.682.504-2.917 2.022-6.063 1.89-4.248-.179-6.747-3.226-7.124-3.702l-27.313-27.625c-.444-.564-1.954-2.626-1.875-5.625.089-3.359 2.109-5.483 2.563-5.938 4.642-4.627 9.288-9.252 13.934-13.877z"/><path style="fill:#050708" d="M160 115.927h30v30h-30zM134.32 99.859c-3.885-.218-9.461-3.656-9.383-9.383.073-5.369 5.067-9.179 9.813-9.102 4.529.074 8.726 3.687 9.188 7.625.145 1.24-.101 2.331-.395 3.15l8.787 9.947a21.034 21.034 0 0 0 3.358-11.409c0-11.684-9.472-21.156-21.156-21.156s-21.156 9.472-21.156 21.156 9.472 21.156 21.156 21.156c4.233 0 8.167-1.257 11.475-3.398l-9.756-8.732a7.458 7.458 0 0 1-1.931.146zM206.359 90.477c.218-3.885 3.656-9.461 9.383-9.383 5.369.073 9.179 5.067 9.102 9.813-.074 4.529-3.687 8.726-7.625 9.188-1.24.145-2.331-.101-3.15-.395l-9.947 8.787a21.034 21.034 0 0 0 11.409 3.358c11.684 0 21.156-9.472 21.156-21.156s-9.472-21.156-21.156-21.156-21.156 9.472-21.156 21.156c0 4.233 1.257 8.167 3.398 11.475l8.732-9.756a7.51 7.51 0 0 1-.146-1.931zM216.034 162.328c3.885.218 9.461 3.656 9.383 9.383-.073 5.369-5.067 9.179-9.813 9.102-4.529-.074-8.726-3.687-9.188-7.625-.145-1.24.101-2.331.395-3.15l-8.787-9.947a21.034 21.034 0 0 0-3.358 11.409c0 11.684 9.472 21.156 21.156 21.156s21.156-9.472 21.156-21.156-9.472-21.156-21.156-21.156a21.046 21.046 0 0 0-11.475 3.398l9.756 8.732a7.458 7.458 0 0 1 1.931-.146zM144.016 171.711c-.218 3.885-3.656 9.461-9.383 9.383-5.369-.073-9.179-5.067-9.102-9.813.074-4.529 3.687-8.726 7.625-9.188 1.24-.145 2.331.101 3.15.395l9.947-8.787a21.034 21.034 0 0 0-11.409-3.358c-11.684 0-21.156 9.472-21.156 21.156s9.472 21.156 21.156 21.156S156 183.184 156 171.5c0-4.233-1.257-8.167-3.398-11.475l-8.732 9.756a7.49 7.49 0 0 1 .146 1.93zM240.917 209.792l1.917-2.708c.359.145.888.317 1.542.375 3.565.315 6.189-3.185 6.369-3.434 1.337-1.838.994-2.925 1.841-5.289.69-1.923 2.111-4.534 5.385-7.195-1.778.344-4.364 1.086-6.929 2.876-1.972 1.376-3.026 2.776-4.75 4.833a672.933 672.933 0 0 1-7.542 8.833l2.167 1.709z"/></g></g></g></switch></svg>