<svg xmlns="http://www.w3.org/2000/svg" viewBox="0 0 350 350" style="enable-background:new 0 0 350 350" xml:space="preserve"><switch><g><path style="fill:#fff" d="M60 60h230v230H60z"/><path d="M70 70.491h210v210H70z"/><path style="fill:#409392" d="M80 80.083h190v190H80z"/><path style="fill:#9fb9a6" d="m80 258.917 8.833 11.166H80zM80 171.667l30.5-41.417-5.75-14.75L80 125.25zM137.75 270.083A206.209 206.209 0 0 1 129 249.5c-9.924-27.39-12.511-52.712-12.5-72.5l45 9c-.557 8.786-.53 27.004 8.75 47.25 9.033 19.708 22.309 31.462 29.25 36.833h-61.75zM270 248.75a293.588 293.588 0 0 1-20.75-9.5C227.046 228.019 208.734 215.202 194 203l34.75-27.509c2.576 4.191 7.612 11.154 16.25 17.009 10.091 6.839 19.937 8.666 25 9.25v47zM270 156.75l-23.25-9.25L250 117l20 4.5zM267.25 80.083 254.25 93H241l10.25-12.917z"/><g><path style="fill:#fff" d="M75.5 282.25 106.75 239l-13 47.25zM66.75 254l26.5-41.879L65 237.75V254zM65 190.25l19.417-21.5L65 178zM234.25 260l12.5 26.25h11.625zM251.75 229.25 284 273.125s.5-15.292 0-14.208c-.5 1.083-32.25-29.667-32.25-29.667zM261 172.75 284.222 194v-11.25l-23.222-10zM280 90.75 256.5 93l4.5 4.75L280 93z"/></g><g><path d="m254.153 79.765 8.135-22.591-17.65 9.894C234.59 55.771 221.848 46.871 207.5 41.44V29l-11.478 8.927A91.123 91.123 0 0 0 174.75 35.5c-28.347.115-54.143 13.372-71.252 33.959a26.667 26.667 0 0 1-5.748-1.209c-4.431-1.46-7.588-3.801-9.5-5.5A33.763 33.763 0 0 1 94 73.5a33.43 33.43 0 0 1 1.447 7.242 90.82 90.82 0 0 0-8.765 19.051 89.661 89.661 0 0 0-4.176 21.002L45 126.25l37.619 9.69c1.103 11.981 4.576 23.305 9.924 33.531L80 182.25l17.424-4.517a94.434 94.434 0 0 0 20.854 22.417L88.25 240.5l38.509-34.493c14.157 8.684 30.724 13.716 48.241 13.743 23.781.037 45.794-9.15 62.434-24.165L266 219l-23.149-28.705a93.571 93.571 0 0 0 14.726-20.549L270 172l-9.477-8.373c4.501-10.315 7.145-21.578 7.477-33.377.517-18.401-4.647-35.768-13.847-50.485z"/><path style="fill:#fff" d="M247.167 87.833C236.022 64.183 208.73 41.91 174.5 42.25c-32.395.321-55.913 20.746-67.348 38.726-3.95 6.211-13.368 22.993-11.985 44.524.555 8.643.972 20.362 9.968 27.837 6.969 5.79 15.525 6.15 19.491 6.038 20.157.377 32.622.346 38.372-.037.05-.003 5.664-.367 11.504-.334 23.401.13 43.833 1.33 43.833 1.33 4.033.237 11.267.697 19.167-2.833 2.443-1.092 8.506-3.892 12.667-10.167 3.583-5.403 4.298-11.185 4.251-18.597-.072-11.237-.164-25.858-7.253-40.904zM99.333 158.667a6.49 6.49 0 0 0-3.468 1.619l8.302 10.548-1-11.5a6.493 6.493 0 0 0-3.834-.667zM110.5 172.75l2.667 14.75 11.5 7.833A92.668 92.668 0 0 0 110.5 172.75zM129.167 164.721A137.502 137.502 0 0 1 110.5 163a177.89 177.89 0 0 0 20.334 25.667 88.751 88.751 0 0 1-1.667-23.946zM135.667 165a353.37 353.37 0 0 0 7.662 40.199L156.667 210 138 165h-2.333zM158 194l4.667-29h-16.5zM166.333 212.121l15.167-.788-12.167-39.666zM202.333 165l-28.417-1.167a255.939 255.939 0 0 0 12.25 37.833A129.69 129.69 0 0 0 202.333 165zM208.333 172.833a144.444 144.444 0 0 1-20.208 38.334 47.621 47.621 0 0 0 25.541-9.5 119.8 119.8 0 0 0-5.333-28.834zM228.667 164.721 214 165.5a130.45 130.45 0 0 1 5.5 21.5c2.265-2.569 5.517-6.953 7.5-13.167a36.448 36.448 0 0 0 1.667-9.112zM234.728 162.744a139.244 139.244 0 0 1-11.894 35.089l17.954-18.157-3.62-18.009-2.44 1.077zM243.167 165l2.166-6.391-3.833 2.214z"/><path style="fill:#cfe4e4" d="M204.75 51.75a26.503 26.503 0 0 0-6.221 1.051c-6.056 1.792-11.217 5.74-21.779 19.199-6.005 7.652-9.008 11.479-9.75 13.25-6.563 15.669 2.039 32.676 6.25 41 3.554 7.027 6.531 12.911 13.25 18 11.03 8.354 23.514 8.029 32.62 7.792 9.724-.253 18.196-.473 24.255-6.917 4.934-5.248 5.796-11.995 5.958-15.458-2.503 1.746-7.763 4.873-14.833 5.083-11.646.347-19.535-7.472-21.833-9.75-11.866-11.761-11.633-28.846-11.542-35.5.129-9.438.193-14.157 2.625-20 2.12-5.095 5.733-10.38 3.583-14.833-.699-1.449-1.799-2.375-2.583-2.917z"/><path style="fill:#090909" d="M143 81.333c1.053 1.453 12.613 16.816 32.875 16.542 19.597-.266 30.625-14.933 31.792-16.542-5.292 2.951-17.48 8.809-33.917 8.417-14.639-.349-25.501-5.486-30.75-8.417z"/><g><path style="fill:#090909" d="M240 117c.086-.205 2.004-5.01-1-9-2.301-3.056-6.486-4.301-10.333-3l-1.417-12-4.417 13.75-33.083 12.5a22.71 22.71 0 0 0 3.75 10c3.071 4.514 6.976 6.722 8.833 7.625l-1.437 15.375 5.354-12.75 15.083.75 4.417 5.5-.25-7.25a30.866 30.866 0 0 0 9.25-7 30.876 30.876 0 0 0 6.037-10l17.588 5v-8L240 117zm-22.208 10.75c-5.116.33-9.823-3.785-10.125-9.25h19c-.255 4.986-4.188 8.948-8.875 9.25z"/><path style="fill:#fff" d="M217.792 127.75c4.687-.302 8.62-4.264 8.875-9.25h-19c.302 5.465 5.008 9.58 10.125 9.25z"/></g><g><path style="fill:#090909" d="m132 108.125-5.875-16.75.875 15c-1.265-.76-5.755-3.244-11.083-1.947a13.358 13.358 0 0 0-4.167 1.822l-11.376-12c-2.158-.308-4.234.732-5.124 2.5-1.091 2.166-.229 5.078 2.162 6.451L108.875 110a24.924 24.924 0 0 0 1.625 15.875l-5.625 7.25L113.75 129a34.774 34.774 0 0 0 9.75 7.375 34.753 34.753 0 0 0 10.5 3.375l1.667 7.375 1.833-6.875c2.045-.291 11.367-1.841 17.375-10.125 3.017-4.16 4.007-8.375 4.375-10.875L132 108.125zm.875 19.625c-5.116.33-9.823-3.785-10.125-9.25h19c-.255 4.986-4.188 8.948-8.875 9.25z"/><path style="fill:#fff" d="M132.875 127.75c4.687-.302 8.62-4.264 8.875-9.25h-19c.302 5.465 5.009 9.58 10.125 9.25z"/></g><g><path style="fill:#487f7e" d="M136.375 263.625a13.497 13.497 0 0 0-6.625.25 13.447 13.447 0 0 0-5 2.75c.057.193.151.48.295.815 1.365 3.174 4.628 4.58 8.83 6.185a201.834 201.834 0 0 0 11.5 4l7-3.75-16-10.25z"/><path style="fill:#fff" d="m145.375 277.625 7-3.75 34.742 10.387z"/><path d="M213.625 286.875c1.892-.854 4.27-2.146 4.125-3.375-.24-2.034-7.259-2.752-9.679-3.009-18.742-1.993-58.938-8.034-58.946-10.116-.005-1.325 16.264-2.296 43.517-6.125 7.58-1.065 37.321-5.427 41.025-14.917.52-1.333.312-2.217.256-2.428-1.287-4.884-14.565-5.514-22.59-5.572-9.765-.071-23.656-1.091-41.667-5.333 46.353-3.953 70.132-10.731 71.333-20.333.518-4.141-3.163-8.808-11.042-14l-93.565 9.5L156.667 221c-11.113 1.505-20.286 2.069-26.952 2.288-8.617.284-15.244.067-17.048 3.712-1.464 2.956 1.001 6.928 1.667 8 5.67 9.136 18.248 10.393 44 14 6.903.967 18.64 2.647 33.667 5-56.305 4.485-70.892 9.202-71 13.125-.157 5.699 30.143 13.179 51.667 15.875a193.449 193.449 0 0 0 14.45 1.262c-21.791-3.639-58.482-10.371-59.867-15.262-.473-1.672.125-2.75.125-2.75 1.341-2.417 6.333-1.922 7.739-1.75-2.63.545-4.001 1.254-4.114 2.125-.44 3.399 18.266 9.278 56.117 17.637 7.692.094 9.336.632 9.383 1.113.206 2.109-29.758 7.917-45.125 10.625-10.153 1.789-14.804 2.379-14.875 3.75-.148 2.874 19.99 6.291 38.833 8.917A243.106 243.106 0 0 0 156.667 302 157.864 157.864 0 0 0 191 295.667a157.6 157.6 0 0 0 22.625-8.792zM224 219.917c1.396-.17 4.348-.724 7.25-2.917a15.013 15.013 0 0 0 4.167-4.879c.515 1.086 1.096 2.763.667 4.546-1.169 4.852-8.839 6.407-27.979 10.485-20.727 4.416-23.794 5.162-32.021 6.432l-.767.118c-11.795 1.81-13.728 2.005-15.983 1.965-1.273-.022-6.232-.109-6.333-.833-.174-1.232 13.612-4.85 70.999-14.917zm-64 26.833c-11.392-1.646-43.946-6.35-44.375-14.75-.079-1.557.961-2.911 1.958-3.875-.055 1.27.09 2.952 1.042 4.5 1.846 3.002 5.624 3.731 7 4 13.128 2.571 25.896 7.584 39.25 8.375 22.112 1.311 43.873 3.914 43.851 4.479-.023.567-22.07 1.123-48.726-2.729zm12.875 15.5c5.537-.754 6.359-.737 12-1.5 5.138-.695 12.79-1.761 22.125-3.75a247.81 247.81 0 0 0 18.25-4.625c4.911-.819 5.839-.781 5.875-.625.176.767-20.641 7.281-43.25 10.75a238.567 238.567 0 0 1-33.458 2.75 359.477 359.477 0 0 1 18.458-3z"/></g><path style="fill:#fff" d="M128.875 227.25a56.7 56.7 0 0 0 14.813 6.938c9.415 2.838 17.597 2.613 22.646 2.063a287.965 287.965 0 0 1-37.459-9.001zM190 256.25c5.182.164 13.258-.272 22.236-3.785a55.379 55.379 0 0 0 11.764-6.34 225.51 225.51 0 0 0-34 10.125z"/></g></g></switch></svg>