<svg xmlns="http://www.w3.org/2000/svg" xml:space="preserve" style="enable-background:new 0 0 350 350" viewBox="0 0 350 350"><switch><g><path d="M45 45h260v260H45z" style="opacity:.4"/><path d="M73 73h204v204H73z" style="fill:#228f90"/><path d="M275.833 227.833 248.3 198.052a103.11 103.11 0 0 0 2.45-2.719c2.009-2.315 7.922-9.353 13.503-20.191l17.414 4.135-13.41-12.836c4.194-10.293 7.481-22.946 7.577-37.497.133-20.116-5.883-35.109-8.336-40.647-.891-2.012-3.953-8.696-9.763-16.858l14.515-20.023-22.751 9.832c-6.479-7.08-14.87-14.301-25.499-20.027-4.15-2.236-8.506-4.157-13.003-5.776l-.538-13.488-8.572 10.689c-31.808-8.178-68.927-1.589-95.331 22.63a93.935 93.935 0 0 0-6.284 6.359l-15.251-6.137 10.627 11.673c-14.961 19.399-19.305 40.633-20.556 52.667l-39.787 7.896 39.747 10.718c1.443 14.77 6.027 27.112 10.902 36.533l-12.37 12.554 17.071-4.382c3.421 5.375 6.519 9.166 8.234 11.173.89 1.041 6.08 6.925 14.845 13.647l-33.067 42.707 41.021-37.102c7.591 4.899 16.897 9.666 27.659 12.866-1.802.182-3.613.356-5.441.513A364.969 364.969 0 0 1 117 228.274a8.11 8.11 0 0 0-8.111 8.111c0 3.68 2.453 6.783 5.811 7.775l-.001.005a484.404 484.404 0 0 0 62.217 12.831 484.607 484.607 0 0 0 21.964 2.531c-1.174.303-2.303.585-3.381.844-22.979 5.541-52.242 8.643-58.333 8.792-.875.021-4.512.06-9.217 1.03a50.079 50.079 0 0 0-3.176.763l-.001.017c-1.774.469-3.088 2.07-3.088 3.991a4.134 4.134 0 0 0 2.667 3.86l-.001.011a192.07 192.07 0 0 0 13.023 4.494c13.666 4.173 24.821 5.722 39.681 7.833 8.46 1.202 12.69 1.803 16.194 1.972 2.285.11 12.091.511 16.937 1.287-12.587 3.671-22.31 6.507-34.146 9.157-16.812 3.764-30.688 5.54-37.287 6.369-1.832.23-3.361.41-4.435.534-.939.297-1.397.533-1.375.708.016.129.294.226.834.289 1.017.119 2.004.475 3.027.53 2.896.158 5.746.81 8.633 1.095 3.693.364 7.372.863 11.062 1.266 13.219 1.444 31.695 6.431 31.729 6.292.037-.15-21.329-5.251-31.021-7.167-5.359-1.059-11.327-1.971-12.75-1.932-.012 0-1.009.027-2.292-.22-.152-.029-1.137-.219-1.125-.333.016-.153 1.826-.08 2.125-.069 4.211.146 14.235-1.598 14.472-1.639 19.067-3.317 20.769-3.236 31.568-5.584a417.347 417.347 0 0 0 23.415-5.807 23.545 23.545 0 0 0 6.221-2.086 2.719 2.719 0 0 0 2.469-2.702 2.725 2.725 0 0 0-2.237-2.679l.008-.049-25.74-3.141a757.09 757.09 0 0 1-7.825-1.142c-15.036-2.273-23.033-3.506-33.574-6.227a221.513 221.513 0 0 1-10.481-2.984c12.002-1.435 20.747-1.893 22.759-2.016 9.47-.576 27.724-3.375 66.488-13.469a6.37 6.37 0 0 0 0-12.74 351.42 351.42 0 0 1-44.793-3.431 351.298 351.298 0 0 1-23.461-4.136c3.447-.416 6.923-.86 10.461-1.364a497.483 497.483 0 0 0 64.024-13.466c.04-.012.081-.021.121-.033l.019-.005-.001-.001c3.931-1.242 6.782-4.916 6.782-9.258 0-4.113-2.562-7.621-6.174-9.035a107.678 107.678 0 0 0 4.72-4.072c11.144 7.99 22.286 15.975 33.428 23.959"/><path d="M90.194 163.806 99.916 175l-5.222-13.806zm15.639 11.458a466.37 466.37 0 0 0 15.944 26.764l-12.111-10.111a81.862 81.862 0 0 1-2.528-9 82.06 82.06 0 0 1-1.305-7.653m2.209-6.097a94.914 94.914 0 0 0 17.375 2.148l2.75 23.103a38.817 38.817 0 0 1-3.375-2.875c-1.144-1.093-2.349-2.377-4.292-4.833a103.649 103.649 0 0 1-5.614-7.829zm25.583 2.147h2.458a432.37 432.37 0 0 0 18.708 45.436l-13.083-3.875a388.984 388.984 0 0 1-8.083-41.561m10.583-.314a112.284 112.284 0 0 0 17.833-.834l-3.958 31.625A689.985 689.985 0 0 1 144.208 171m24.688 4.021-3.021 43.562 15.681.028a1034.823 1034.823 0 0 1-12.66-43.59M186 207.222h1.611a209.321 209.321 0 0 0 5.014-8.972c3.059-5.805 6.233-11.887 9-20.042a105.376 105.376 0 0 0 2.208-7.375l-29.5-.944zm3.667 10.611a112.725 112.725 0 0 0 25.777-8.055 94.711 94.711 0 0 0-.139-12.167 95.175 95.175 0 0 0-4.097-21.278 192.562 192.562 0 0 1-21.541 41.5m29.25-46.519 13.75-.342a146.908 146.908 0 0 1-9.027 21.25zm19.305-1.036 5.111-1 2.278 15.833a176.039 176.039 0 0 1-19.819 19.723 179.998 179.998 0 0 0 12.43-34.556m22.57-45.361-15-3.958a29.194 29.194 0 0 1-6.375 11.521 29.162 29.162 0 0 1-9.821 7.111l.737 10.076-4.889-8.583a30.875 30.875 0 0 1-15.722-.416l-6.833 14.583 1.611-16.944a29.26 29.26 0 0 1-5.333-4.278c-5.073-5.157-7.027-11.013-7.833-14.319a131 131 0 0 0 6.542-2.125c5.976-2.115 10.056-4.047 13-5.375 3.938-1.776 9.634-4.183 17-6.75l3.417-13.25-.042 12.167c3.253-.851 5.948-1.013 7.792-1 2.5.018 3.717.358 4.708 1.125.472.365 1.132 1.011 1.792 2.5 1.441 3.251 1.174 6.657.833 8.667l14.417 2.417c-.393-6.424-2.799-34.048-25.875-56.5-4.703-4.576-24.663-22.947-56.083-24.25-4.134-.171-36.89-.996-63 24.083-12.431 11.94-18.436 25.027-21.292 32.792l11.917 10.5a8.827 8.827 0 0 1 2.243-1.165c1.898-.657 3.554-.479 4.882-.294 4.092.57 7.949 1.612 9.875 2.167l-1.667-16.083 10.042 19.556c6.215 2.176 10.728 4.171 13.778 5.639 1.582.761 4.951 2.43 9.75 4 1.69.553 3.104.945 4.056 1.194-.669 2.655-2.972 10.329-10.347 16.142-4.937 3.891-9.977 5.24-12.736 5.761l-3.917 8.125.083-8a27.91 27.91 0 0 1-8.972-1.278c-7.32-2.312-11.752-7.091-13.639-9.417L99 133.611l7.333-8.5a28.994 28.994 0 0 1-2.042-7.153 28.998 28.998 0 0 1-.069-8.125l-11.944-8.556c-2.124 8.688-2.598 16.039-2.611 21.222-.025 9.76.087 19.874 6.807 27.719.651.76 2.12 2.381 4.36 4.031 5.008 3.691 10.547 5.079 20.083 5.833 10.184.806 17.927.336 18.586.296 0 0 18.705-1.134 36.053-1.212 23.067-.105 41.444 1.167 41.444 1.167.711.049 7.018.487 15.273-.353 10.795-1.099 15.437-3.419 18.124-5.113a30.27 30.27 0 0 0 6.352-5.367 72.466 72.466 0 0 0 4.043-24.583m-85.459-28.834c-10.33.039-18.146-4.767-24.083-8.417a62.887 62.887 0 0 1-11.417-9c5.425 3.17 18.194 9.656 35.667 9.583 17.135-.071 29.657-6.412 35.083-9.583a66.134 66.134 0 0 1-10.444 8.25c-6.455 4.115-14.319 9.128-24.806 9.167" style="fill:#fff"/><path d="M119.167 118.333c-.307 5.981 4.592 10.958 10.333 10.833 5.58-.121 10.192-5.023 9.889-10.833zm92.062-.006c-.307 5.981 4.592 10.958 10.333 10.833 5.58-.121 10.192-5.023 9.889-10.833z" style="fill:#fff"/></g></switch></svg>