<svg xmlns="http://www.w3.org/2000/svg" viewBox="0 0 350 350"><switch><g><path fill="#fff" d="M60 60H290V290H60z"/><path d="M70 70.491H280V280.491H70z"/><path fill="#409392" d="M80 80.083H270V270.08299999999997H80z"/><path d="M80 258.917L88.833 270.083 80 270.083zM80 171.667L110.5 130.25 104.75 115.5 80 125.25zM137.75 270.083c-3.088-6.294-6.058-13.154-8.75-20.583-9.924-27.39-12.511-52.712-12.5-72.5 15 3 30 6 45 9-.557 8.786-.53 27.004 8.75 47.25 9.033 19.708 22.309 31.462 29.25 36.833C178.917 270.083 158.333 270.083 137.75 270.083zM270 248.75c-6.707-2.761-13.646-5.907-20.75-9.5C227.046 228.019 208.734 215.202 194 203c11.583-9.17 23.167-18.339 34.75-27.509 2.576 4.191 7.612 11.154 16.25 17.009 10.091 6.839 19.937 8.666 25 9.25C270 217.417 270 233.083 270 248.75zM270 156.75L246.75 147.5 250 117 270 121.5zM267.25 80.083L254.25 93 241 93 251.25 80.083z" fill="#9fb9a6"/><path d="M75.5 282.25L106.75 239 93.75 286.25zM66.75 254L93.25 212.121 65 237.75 65 254zM65 190.25L84.417 168.75 65 178zM234.25 260L246.75 286.25 258.375 286.25zM251.75 229.25L284 273.125c0 0 .5-15.292 0-14.208C283.5 260 251.75 229.25 251.75 229.25zM261 172.75c7.741 7.083 15.481 14.167 23.222 21.25v-11.25C276.481 179.417 268.741 176.083 261 172.75zM280 90.75L256.5 93 261 97.75 280 93z" fill="#fff"/><path d="M254.153,79.765c2.712-7.53,5.423-15.061,8.135-22.591c-5.883,3.298-11.766,6.596-17.65,9.894 C234.59,55.771,221.848,46.871,207.5,41.44V29l-11.478,8.927c-6.853-1.613-13.977-2.457-21.272-2.427 c-28.347,0.115-54.143,13.372-71.252,33.959c-1.646-0.161-3.61-0.505-5.748-1.209c-4.431-1.46-7.588-3.801-9.5-5.5 c1.824,2.296,4.201,5.885,5.75,10.75c0.865,2.716,1.268,5.193,1.447,7.242c-2.888,4.738-6.175,11.124-8.765,19.051 c-2.192,6.709-3.619,13.744-4.176,21.002L45,126.25l37.619,9.69c1.103,11.981,4.576,23.305,9.924,33.531L80,182.25l17.424-4.517 c5.677,8.557,12.744,16.135,20.854,22.417L88.25,240.5l38.509-34.493c14.157,8.684,30.724,13.716,48.241,13.743 c23.781,0.037,45.794-9.15,62.434-24.165L266,219l-23.149-28.705c5.795-6.136,10.766-13.047,14.726-20.549 c4.141,0.751,8.282,1.503,12.423,2.254c-3.159-2.791-6.318-5.582-9.477-8.373c4.501-10.315,7.145-21.578,7.477-33.377 C268.517,111.849,263.353,94.482,254.153,79.765z"/><path d="M247.167 87.833C236.022 64.183 208.73 41.91 174.5 42.25c-32.395.321-55.913 20.746-67.348 38.726-3.95 6.211-13.368 22.993-11.985 44.524.555 8.643.972 20.362 9.968 27.837 6.969 5.79 15.525 6.15 19.491 6.038 20.157.377 32.622.346 38.372-.037l0 0c.05-.003 5.664-.367 11.504-.334 23.401.13 43.833 1.33 43.833 1.33 4.033.237 11.267.697 19.167-2.833 2.443-1.092 8.506-3.892 12.667-10.167 3.583-5.403 4.298-11.185 4.251-18.597C254.348 117.5 254.256 102.879 247.167 87.833zM99.333 158.667c-1.855.252-3.051 1.239-3.468 1.619 2.767 3.516 5.534 7.032 8.302 10.548-.333-3.833-.667-7.667-1-11.5C102.669 159.075 101.228 158.41 99.333 158.667zM110.5 172.75l2.667 14.75c3.833 2.611 7.667 5.222 11.5 7.833-1.465-3.316-3.317-6.983-5.667-10.833C116.164 179.853 113.219 175.949 110.5 172.75zM129.167 164.721c-2.981-.07-6.155-.243-9.5-.554-3.243-.302-6.303-.704-9.167-1.167 2.404 3.687 5.115 7.544 8.167 11.5 4.116 5.336 8.233 10.045 12.167 14.167-.657-3.16-1.22-6.727-1.549-10.649C128.869 173.073 128.91 168.595 129.167 164.721zM135.667 165c.833 6.352 1.883 13.022 3.202 19.969 1.353 7.124 2.862 13.874 4.46 20.23 4.446 1.6 8.892 3.2 13.338 4.801-6.222-15-12.444-30-18.667-45C137.222 165 136.444 165 135.667 165zM158 194L162.667 165 146.167 165zM166.333 212.121L181.5 211.333 169.333 171.667zM202.333 165l-28.417-1.167c1.153 4.805 2.502 9.817 4.083 15 2.526 8.28 5.31 15.9 8.167 22.833 3.299-5.142 6.817-11.425 10-18.833C198.946 176.365 200.916 170.324 202.333 165zM208.333 172.833c-1.957 5.63-4.546 11.955-8 18.667-3.993 7.758-8.252 14.305-12.208 19.667 3.551-.235 8.582-.966 14.208-3.167 4.916-1.922 8.696-4.344 11.333-6.333-.326-5.403-1.061-11.528-2.5-18.167C210.335 179.661 209.365 176.1 208.333 172.833zM228.667 164.721c-4.889.26-9.778.519-14.667.779.635 1.821 1.249 3.71 1.833 5.667 1.667 5.585 2.843 10.898 3.667 15.833 2.265-2.569 5.517-6.953 7.5-13.167C228.108 170.36 228.532 167.217 228.667 164.721zM234.728 162.744c-.917 4.684-2.171 9.811-3.894 15.256-2.407 7.605-5.225 14.234-8 19.833 5.984-6.052 11.969-12.105 17.954-18.157-1.207-6.003-2.413-12.006-3.62-18.009C236.354 162.026 235.541 162.385 234.728 162.744zM243.167 165L245.333 158.609 241.5 160.823z" fill="#fff"/><path d="M204.75,51.75c-1.479,0.073-3.682,0.299-6.221,1.051c-6.056,1.792-11.217,5.74-21.779,19.199 c-6.005,7.652-9.008,11.479-9.75,13.25c-6.563,15.669,2.039,32.676,6.25,41c3.554,7.027,6.531,12.911,13.25,18 c11.03,8.354,23.514,8.029,32.62,7.792c9.724-0.253,18.196-0.473,24.255-6.917c4.934-5.248,5.796-11.995,5.958-15.458 c-2.503,1.746-7.763,4.873-14.833,5.083c-11.646,0.347-19.535-7.472-21.833-9.75c-11.866-11.761-11.633-28.846-11.542-35.5 c0.129-9.438,0.193-14.157,2.625-20c2.12-5.095,5.733-10.38,3.583-14.833C206.634,53.218,205.534,52.292,204.75,51.75z" fill="#cfe4e4"/><path d="M143 81.333c1.053 1.453 12.613 16.816 32.875 16.542 19.597-.266 30.625-14.933 31.792-16.542-5.292 2.951-17.48 8.809-33.917 8.417C159.111 89.401 148.249 84.264 143 81.333zM240 117c.086-.205 2.004-5.01-1-9-2.301-3.056-6.486-4.301-10.333-3l-1.417-12-4.417 13.75-33.083 12.5c.247 2.028 1.003 5.962 3.75 10 3.071 4.514 6.976 6.722 8.833 7.625l-1.437 15.375 5.354-12.75 15.083.75 4.417 5.5c-.083-2.417-.167-4.833-.25-7.25 2.278-1.125 5.865-3.245 9.25-7 3.414-3.787 5.157-7.608 6.037-10l17.588 5v-8C252.25 118 246.125 117.5 240 117zM217.792 127.75c-5.116.33-9.823-3.785-10.125-9.25 6.333 0 12.667 0 19 0C226.412 123.486 222.479 127.448 217.792 127.75z" fill="#090909"/><path d="M217.792,127.75c4.687-0.302,8.62-4.264,8.875-9.25c-6.333,0-12.667,0-19,0 C207.969,123.965,212.675,128.08,217.792,127.75z" fill="#fff"/><path d="M132,108.125c-1.958-5.583-3.917-11.167-5.875-16.75c0.292,5,0.583,10,0.875,15 c-1.265-0.76-5.755-3.244-11.083-1.947c-1.743,0.424-3.137,1.147-4.167,1.822c-3.792-4-7.584-8-11.376-12 c-2.158-0.308-4.234,0.732-5.124,2.5c-1.091,2.166-0.229,5.078,2.162,6.451c3.821,2.266,7.642,4.533,11.463,6.799 c-0.421,1.85-0.834,4.638-0.5,8c0.341,3.433,1.33,6.132,2.125,7.875l-5.625,7.25c2.958-1.375,5.917-2.75,8.875-4.125 c1.909,2.063,5.096,5.008,9.75,7.375c4.112,2.092,7.878,2.974,10.5,3.375l1.667,7.375c0.611-2.292,1.222-4.583,1.833-6.875 c2.045-0.291,11.367-1.841,17.375-10.125c3.017-4.16,4.007-8.375,4.375-10.875C150.167,115.542,141.083,111.833,132,108.125z M132.875,127.75c-5.116,0.33-9.823-3.785-10.125-9.25c6.333,0,12.667,0,19,0C141.495,123.486,137.562,127.448,132.875,127.75z" fill="#090909"/><path d="M132.875,127.75c4.687-0.302,8.62-4.264,8.875-9.25c-6.333,0-12.667,0-19,0 C123.052,123.965,127.759,128.08,132.875,127.75z" fill="#fff"/><path d="M136.375,263.625c-1.211-0.258-3.697-0.617-6.625,0.25c-2.429,0.719-4.101,1.968-5,2.75 c0.057,0.193,0.151,0.48,0.295,0.815c1.365,3.174,4.628,4.58,8.83,6.185c4.218,1.611,8.08,2.925,11.5,4 c2.333-1.25,4.667-2.5,7-3.75L136.375,263.625z" fill="#487f7e"/><path fill="#fff" d="M145.375 277.625L152.375 273.875 187.117 284.262z"/><path d="M213.625,286.875c1.892-0.854,4.27-2.146,4.125-3.375c-0.24-2.034-7.259-2.752-9.679-3.009 c-18.742-1.993-58.938-8.034-58.946-10.116c-0.005-1.325,16.264-2.296,43.517-6.125c7.58-1.065,37.321-5.427,41.025-14.917 c0.52-1.333,0.312-2.217,0.256-2.428c-1.287-4.884-14.565-5.514-22.59-5.572c-9.765-0.071-23.656-1.091-41.667-5.333 c46.353-3.953,70.132-10.731,71.333-20.333c0.518-4.141-3.163-8.808-11.042-14c-31.188,3.167-62.376,6.333-93.565,9.5 L156.667,221c-11.113,1.505-20.286,2.069-26.952,2.288c-8.617,0.284-15.244,0.067-17.048,3.712 c-1.464,2.956,1.001,6.928,1.667,8c5.67,9.136,18.248,10.393,44,14c6.903,0.967,18.64,2.647,33.667,5 c-56.305,4.485-70.892,9.202-71,13.125c-0.157,5.699,30.143,13.179,51.667,15.875c5.742,0.719,10.676,1.075,14.45,1.262 c-21.791-3.639-58.482-10.371-59.867-15.262c-0.473-1.672,0.125-2.75,0.125-2.75c1.341-2.417,6.333-1.922,7.739-1.75 c-2.63,0.545-4.001,1.254-4.114,2.125c-0.44,3.399,18.266,9.278,56.117,17.637c7.692,0.094,9.336,0.632,9.383,1.113 c0.206,2.109-29.758,7.917-45.125,10.625c-10.153,1.789-14.804,2.379-14.875,3.75c-0.148,2.874,19.99,6.291,38.833,8.917 c-3.08-1.244-6.303-2.472-9.667-3.667c-3.078-1.093-6.081-2.09-9-3c9.572-0.689,21.336-2.406,34.333-6.333 C199.652,293.052,207.215,289.953,213.625,286.875z M224,219.917c1.396-0.17,4.348-0.724,7.25-2.917 c2.268-1.714,3.531-3.693,4.167-4.879c0.515,1.086,1.096,2.763,0.667,4.546c-1.169,4.852-8.839,6.407-27.979,10.485 c-20.727,4.416-23.794,5.162-32.021,6.432c-0.097,0.015-0.32,0.049-0.767,0.118c-11.795,1.81-13.728,2.005-15.983,1.965 c-1.273-0.022-6.232-0.109-6.333-0.833C152.827,233.602,166.613,229.984,224,219.917z M160,246.75 c-11.392-1.646-43.946-6.35-44.375-14.75c-0.079-1.557,0.961-2.911,1.958-3.875c-0.055,1.27,0.09,2.952,1.042,4.5 c1.846,3.002,5.624,3.731,7,4c13.128,2.571,25.896,7.584,39.25,8.375c22.112,1.311,43.873,3.914,43.851,4.479 C208.703,250.046,186.656,250.602,160,246.75z M172.875,262.25c5.537-0.754,6.359-0.737,12-1.5 c5.138-0.695,12.79-1.761,22.125-3.75c4.677-0.997,10.92-2.47,18.25-4.625c4.911-0.819,5.839-0.781,5.875-0.625 c0.176,0.767-20.641,7.281-43.25,10.75c-13.906,2.133-25.534,2.661-33.458,2.75 C158.554,264.465,164.942,263.331,172.875,262.25z"/><path d="M128.875 227.25c3.496 2.302 8.461 5.023 14.813 6.938 9.415 2.838 17.597 2.613 22.646 2.063-6.045-1.031-12.446-2.321-19.146-3.938C140.685 230.744 134.575 229.03 128.875 227.25zM190 256.25c5.182.164 13.258-.272 22.236-3.785 4.853-1.899 8.773-4.228 11.764-6.34-4.503.963-9.223 2.116-14.125 3.5C202.673 251.659 196.04 253.92 190 256.25z" fill="#fff"/></g></switch></svg>