<svg xmlns="http://www.w3.org/2000/svg" viewBox="0 0 350 350"><switch><g><path fill="#fcae1d" d="M79.677 270.033L270.589 270.033 270.589 111.901 223.774 79.121 79.677 79.121z"/><path fill="#c98e2b" d="M60.095 128.904L88.72 118.298 69.884 174.577 139.971 128.309 89.455 219.71 131.09 185.212 88.965 266.704 129.106 221.423 195.925 270.033 270.589 189.078 228.233 273.802 236.555 273.802 265.192 253.731 253.933 289.614 60.095 289.614z"/><path fill="#231f20" d="M270.589 270.033L79.677 270.033 79.677 79.121 223.774 79.121 211.889 70.799 72.31 70.799 72.31 278.355 279.866 278.355 279.866 118.397 270.589 111.901z"/><path fill="#fff" d="M279.866 118.397L279.866 278.355 72.31 278.355 72.31 70.799 211.889 70.799 195.81 59.54 60.095 59.54 60.095 289.614 290.169 289.614 290.169 125.611z"/><path d="M116.46,234.966l-24.394,36.551c101.096,0,101.096,0,101.096,0l8.801-12.238l61.435-90.969 v-32.716l8.036-10.667l-7.741-16.552l-14.104-1.836l5.487-7.098V95.78l-15.493-13.249l-9.635-2.09l-5.935-16.154l-20.376-2.907 l-8.138-11.779l-13.982,0.061l-2.968-5.874l-21.457-8.873l-8.159,22.926l-33.45,36.143l5.956,55.724l19.336,41.446 L116.46,234.966z" fill="#231f20"/><g fill="#fff"><path d="M250.947 152.12L259.154 141.226 259.154 141.226zM259.154 141.226L259.154 165.537 201.962 259.279 263.397 168.31 263.397 135.594zM263.397 135.594L271.433 124.927 263.397 135.594z"/><path d="M259.154,141.226l12.279-16.299l-7.741-16.552l-14.104-1.836l5.487-7.098V95.78l-15.493-13.249 l-9.635-2.09l-5.935-16.154l-20.376-2.907l-8.138-11.779l-13.982,0.061l-2.968-5.874l-19.992-8.293l-1.465-0.579l-8.159,22.926 l-33.45,36.143l5.956,55.724l19.336,41.446l-24.313,43.812l28.718-40.141l13.625,6.527l-15.234-9.697l-17.523-40.968 l-6.119-55.316l32.285-35.744l6.841-19.333l9.828,3.382l6.48,3.234l1.84,3.792l-2.652,0.612l-23.905,39.651l8.24,14.767 l11.259,1.632c5.122,7.186,7.766,13.632,9.219,18.112c4.742,14.616,3.889,30.102,3.427,38.509 c-0.24,4.352-0.618,7.608-0.245,7.669c0.705,0.116,3.795-11.245,4.786-22.928c0.86-10.141-0.03-18.545-0.951-24.147 l10.769,3.753l7.424,15.338l18.479,1.917l5.099,10.402l4.528-3.051l-4.65-9.717l21.988-33.41l10.688,2.774l4.487,12.34 l-14.244,27.193L259.154,141.226L259.154,141.226z M162.882,102.797l-6.69-12.238l20.968-35.001l15.501-1.632l7.995,10.361 l-26.516,38.509H162.882z M185.931,119.114l-8.893-12.646l28.555-39.161l15.093,0.449l5.222,13.951l-28.27,40.385 L185.931,119.114z M224.48,139.184h-16.317l-7.057-12.891l28.27-41.364l11.993,2.284l9.056,10.198L224.48,139.184z"/></g><path fill="#fff" d="M269.597 92.893L259.256 50.305 235.821 62.176 241.756 94.3z"/><path d="M261.203,58.321l-24.03,11.173c1.433,7.757,1.433,7.757,1.433,7.757l24.847-9.662 L261.203,58.321z" fill="#231f20"/><path fill="#fcae1d" d="M238.606 77.252L263.453 67.59 269.597 92.893 241.756 94.3z"/><path fill="#fff" d="M279.866 107.035L290.169 107.937 290.169 88.596 279.866 91.408z"/><path fill="#231f20" d="M270.589 93.941L270.589 106.224 279.866 107.035 279.866 91.408z"/><path fill="#fcae1d" d="M270.589 93.941L255.075 98.176 255.075 99.441 253.924 100.935 260.176 105.313 270.589 106.224zM270.589 106.224L260.176 105.313"/><path d="M227.091 45.768L237.738 51.601 229.457 67.184zM287.791 42.341L273.677 70.799 294.4 54.253 287.791 42.341M289.607 150.933l7.893 5.324c-81.566 100.351-81.566 100.351-81.566 100.351L289.607 150.933z" fill="#050708"/><path fill="#fff" d="M251.926 141.226L170.715 283.959 128.045 289.614 163.698 229.5 110.504 299.42 79.256 299.42 180.016 199.313 167.043 247.612z"/><path fill="#231f20" d="M110.504 299.42L118.52 305.131 134.723 278.355 163.698 229.5z"/><path fill="#fff" d="M60.573 258.259L92.698 215.733 60.573 248.959zM127.148 198.457L67.182 287.631 60.573 278.355z"/></g></switch></svg>