<svg xmlns="http://www.w3.org/2000/svg" viewBox="0 0 350 350" style="enable-background:new 0 0 350 350" xml:space="preserve"><switch><g><path style="fill:#fcae1d" d="M79.677 270.033h190.912V111.901l-46.815-32.78H79.677z"/><path style="fill:#c98e2b" d="m60.095 128.904 28.625-10.606-18.836 56.279 70.087-46.268-50.516 91.401 41.635-34.498-42.125 81.492 40.141-45.281 66.819 48.61 74.664-80.955-42.356 84.724h8.322l28.637-20.071-11.259 35.883H60.095z"/><path style="fill:#231f20" d="M270.589 270.033H79.677V79.121h144.097l-11.885-8.322H72.31v207.556h207.556V118.397l-9.277-6.496z"/><path style="fill:#fff" d="M279.866 118.397v159.958H72.31V70.799h139.579L195.81 59.54H60.095v230.074h230.074V125.611z"/><g><path style="fill:#231f20" d="m116.46 234.966-24.394 36.551h101.096l8.801-12.238 61.435-90.969v-32.716l8.036-10.667-7.741-16.552-14.104-1.836 5.487-7.098V95.78l-15.493-13.249-9.635-2.09-5.935-16.154-20.376-2.907-8.138-11.779-13.982.061-2.968-5.874-21.457-8.873-8.159 22.926-33.45 36.143 5.956 55.724 19.336 41.446-24.315 43.812z"/><path style="fill:#fff" d="m250.947 152.12 8.207-10.894zM259.154 141.226v24.311l-57.192 93.742 61.435-90.969v-32.716zM263.397 135.594l8.036-10.667-8.036 10.667z"/><path style="fill:#fff" d="m259.154 141.226 12.279-16.299-7.741-16.552-14.104-1.836 5.487-7.098V95.78l-15.493-13.249-9.635-2.09-5.935-16.154-20.376-2.907-8.138-11.779-13.982.061-2.968-5.874-19.992-8.293-1.465-.579-8.159 22.926-33.45 36.143 5.956 55.724 19.336 41.446-24.313 43.812 28.718-40.141 13.625 6.527-15.234-9.697-17.523-40.968-6.119-55.316 32.285-35.744 6.841-19.333 9.828 3.382 6.48 3.234 1.84 3.792-2.652.612-23.905 39.651 8.24 14.767 11.259 1.632c5.122 7.186 7.766 13.632 9.219 18.112 4.742 14.616 3.889 30.102 3.427 38.509-.24 4.352-.618 7.608-.245 7.669.705.116 3.795-11.245 4.786-22.928a97.878 97.878 0 0 0-.951-24.147l10.769 3.753 7.424 15.338 18.479 1.917 5.099 10.402 4.528-3.051-4.65-9.717 21.988-33.41 10.688 2.774 4.487 12.34-14.244 27.193 8.206-10.893zm-96.272-38.429-6.69-12.238 20.968-35.001 15.501-1.632 7.995 10.361-26.516 38.509h-11.258zm23.049 16.317-8.893-12.646 28.555-39.161 15.093.449 5.222 13.951-28.27 40.385-11.707-2.978zm38.549 20.07h-16.317l-7.057-12.891 28.27-41.364 11.993 2.284 9.056 10.198-25.945 41.773z"/></g><g><path style="fill:#fff" d="m269.597 92.893-10.341-42.588-23.435 11.871 5.935 32.124z"/><path style="fill:#231f20" d="m261.203 58.321-24.03 11.173 1.433 7.757 24.847-9.662-2.25-9.268z"/><path style="fill:#fcae1d" d="m238.606 77.252 24.847-9.662 6.144 25.303-27.841 1.407z"/><path style="fill:#fff" d="m279.866 107.035 10.303.902V88.596l-10.303 2.812z"/><path style="fill:#231f20" d="M270.589 93.941v12.283l9.277.811V91.408z"/><path style="fill:#fcae1d" d="m270.589 93.941-15.514 4.235v1.265l-1.151 1.494 6.252 4.378 10.413.911zM270.589 106.224l-10.413-.911"/><g><path style="fill:#050708" d="m227.091 45.768 10.647 5.833-8.281 15.583zM287.791 42.341l-14.114 28.458L294.4 54.253l-6.609-11.912M289.607 150.933l7.893 5.324-81.566 100.351 73.673-105.675z"/></g></g><g><path style="fill:#fff" d="m251.926 141.226-81.211 142.733-42.67 5.655 35.653-60.114-53.194 69.92H79.256l100.76-100.107-12.973 48.299z"/><path style="fill:#231f20" d="m110.504 299.42 8.016 5.711 16.203-26.776 28.975-48.855z"/><path style="fill:#fff" d="m60.573 258.259 32.125-42.526-32.125 33.226zM127.148 198.457l-59.966 89.174-6.609-9.276z"/></g></g></switch></svg>