<svg xmlns="http://www.w3.org/2000/svg" viewBox="0 0 350 350" style="enable-background:new 0 0 350 350" xml:space="preserve"><switch><g><path style="fill:#fff" d="M60 60h230v230H60z"/><path d="M69 69h212v212H69z"/><path style="fill:#8c0000" d="M78.5 78.5h193v193h-193z"/><g><path d="M21.833 121.062c1.482-3.385 3.1-5.885 4.333-7.562 1.291-1.756 2.436-2.985 4.167-3.583 1.139-.394 2.095-.364 2.437-.359 3.654.055 8.185-1.609 11.97-2.999 3.08-1.131 7.76-3.217 12.982-7.114a11927.416 11927.416 0 0 1 65.445-49.111c6.709-.535 12.3-.381 16.354-.104 5.305.362 9.042.617 13.729 2.049 6.191 1.89 10.75 4.828 13.583 6.972h123.833v230.917H227a35.672 35.672 0 0 1-4.208 4.865c-5.752 5.543-11.864 7.702-14.729 8.677-9.976 3.396-18.603 2.255-23.757 1.514-8.016-1.152-14.085-3.723-18.333-5.556-3.744-1.615-3.717-1.918-10.764-5.542-9.853-5.067-16.156-8.27-24.625-10.792-6.805-2.026-11.185-2.473-15.307-2.241-3.993.224-7.269.453-10.388 2.796-5.691 4.276-5.754 11.759-5.764 12.924-.015 1.786.001 4.653 1.953 7.144a8.939 8.939 0 0 0 2.322 2.071l-3.647-.094a16.902 16.902 0 0 1-4.309-2.378c-3.943-3.009-5.427-6.954-6.167-9-2.214-6.125-1.156-11.633-.528-14.056l-19.333-4.667a283.89 283.89 0 0 0-41.861 2.639l6.556-17.417a306.248 306.248 0 0 0 23.111-8.5c.31-1.35.691-3.211 1-5.444.767-5.547.59-9.765.556-10.833-.198-6.128-.161-47.207-.069-104.111a9.573 9.573 0 0 0-.569-2c-3.247-7.96-16.459-8.982-18.639-9.125l-17.668.02z"/><path style="fill:#8c0000" d="m91.514 177.597-.014 36.236c.466-.558 2.669-3.072 6.458-3.5 3.23-.365 5.621 1.011 6.333 1.458-.898-.163-2.34-.282-3.875.292-4.508 1.683-5.205 7.603-5.25 8.042-.421 4.091 1.739 7.127 2.375 7.958.522-.514 2.788-2.63 6.083-2.542 3.741.1 7.154 2.998 7.792 6.458.286 1.551-.046 2.89-.333 3.708-.089-.748-.391-2.401-1.667-3.917-.483-.574-2.033-2.415-4.25-2.375-2.102.038-3.769 1.751-4.417 3-1.65 3.182.63 8.532 5.875 13.083a31.377 31.377 0 0 0 4.113 3.504c3.907 2.784 7.431 3.932 11.72 5.33 4.776 1.556 8.467 2.177 9.647 2.363 3.521.557 4.65.411 8.265.726 4.112.358 12.09 1.11 20.495 4.683a51.687 51.687 0 0 1 6.759 3.478 64.155 64.155 0 0 0-3.875-3.042c-2.302-1.668-6.333-4.543-12.125-6.792a47.607 47.607 0 0 0-5.793-1.832 26.758 26.758 0 0 1 5.172-.788c10.114-.534 17.167 4.973 22.746 8.204 15.04 8.71 32.947 8.747 44.667 5.25 10.281-3.067 14.407-8.439 15.25-9.583.803-1.09 8.026-11.194 3.25-19.417-2.259-3.889-7.349-7.611-12.833-6.583-4.845.908-10.093 5.543-9.05 9.775.852 3.457 5.82 6.326 11.726 5.289-.286.787-.841 1.968-1.947 2.978-2.856 2.608-7.043 1.938-8.828 1.653-1.46-.234-3.643-.583-5.568-2.111-3.326-2.641-3.805-7.156-3.997-8.86-.839-7.428-3.732-27.93-7.419-55.779a36.667 36.667 0 0 0 6.889-9.5 36.61 36.61 0 0 0 3.333-10c1.286-.569 5.994-2.461 11.334-.614 4.52 1.563 8.67 5.519 9.544 10.448.184 1.037.645 3.876-.906 6.706-.399.728-1.571 2.867-4.013 3.738-2.597.927-5.66.075-7.958-2.056.547.05 1.381.077 2.375-.097.963-.169 1.625-.285 2.236-.806.889-.758 1.071-1.864 1.111-2.306.138-1.536-.726-3.089-2-3.736-.628-.319-1.165-.318-2.24-.317-.805.001-2.383.004-4.059.698-1.812.751-2.852 1.943-3.967 3.253-3.055 3.586-3.996 7.321-4.199 8.185-.132.56-.554 2.47-.438 6.271.155 5.041 1.12 8.904 1.604 10.75 2.321 8.84 5.686 17.371 7.229 21.146a7.947 7.947 0 0 1 2.354-1 342.72 342.72 0 0 1-1.042-2.354c-1.17-2.675-3-6.858-4.429-10.696-1.717-4.614-2.576-6.921-3.217-10.387-1.083-5.85-.663-10.194-.562-11.146a35.582 35.582 0 0 1 1.576-7.347 38.395 38.395 0 0 0 .34 6.847c.434 3.103.878 6.275 2.833 9.646.874 1.507 2.607 4.011 5.826 6.285-.1.48-.249 1.306-.306 2.34-.265 4.843 1.797 8.754 3.354 11.625.51.941 1.318 2.325 2.479 3.917a17.97 17.97 0 0 1 9.375 1.007c1.303.518 1.179.655 2.571 1.224 2.187.894 3.603 1.473 5.032 1.072 1.965-.551 2.936-2.669 3.244-3.435a40.489 40.489 0 0 0 2.588-10.834V105.304a105.256 105.256 0 0 1-26.146-6.809c-.055.304-.127.768-.165 1.337-.085 1.256.081 1.707-.125 2.417-.055.19-.237.745-.958 1.5-1.802 1.886-5.664 3.651-7.083 4.292-3.382 1.526-4.59 2.06-6.295 3.238-.8.553-1.426 1.051-1.83 1.387a40.403 40.403 0 0 0-2.667-1c-2.288-.767-3.567-1.183-5.208-1.125a9.076 9.076 0 0 0-2.528.458 14.06 14.06 0 0 0 1.861 1.875c1.661 1.383 5.01 3.514 17.444 3.347 6.798-.091 12.417-.816 16.972-1.667a101.343 101.343 0 0 0 7.389-1.667c.128.908.232 2.376-.157 4.082-1.082 4.746-5.088 7.428-6.857 8.612-1.274.853-2.437 1.43-5.208 2.542a137.045 137.045 0 0 1-12.417 4.292 28.575 28.575 0 0 1 2.167 11.333c-.123 7.624-3.316 13.142-4.861 15.472.348-3.93.485-11.508-3-20-1.263-3.076-5.921-13.388-17.333-20.222-17.693-10.595-36.187-3.589-37.667-3-1.915.763-19.754 8.223-25.222 27.833-.444 1.591-4.546 17.229 4 32.056a39.385 39.385 0 0 0 5.778 7.667l-6.949 58.556c-3.113-1.341-5.463-2.203-7.162-2.778-1.251-.423-2.866-.932-3.778-2.444-.441-.731-.55-1.419-.611-1.833-.379-2.553 1.006-4.686 1.556-5.444.674-.027 1.14.128 1.444.278.537.265.665.562 1.167.722.578.184 1.113.015 1.333-.056 1.194-.379 1.796-1.581 2.389-2.764.26-.52.589-1.276.839-2.248l-1.95-.877a39.312 39.312 0 0 0 2.674-4.146c1.246-2.228 2.562-4.58 3.271-7.792.49-2.218 1.499-6.787-.854-10.479-.34-.534-1.085-1.675-2.5-2.542-1.772-1.085-3.586-1.122-4.729-1.146-.997-.02-1.593-.033-2.354.25-.439.163-2.587 1.037-2.833 3.042-.184 1.495.815 2.617 1.083 2.896 1.059 1.1 2.402 1.195 2.708 1.208a4.79 4.79 0 0 1-1.507 2.164c.23.259.87.907 1.736.899.935-.008 1.573-.777 2.191-1.522a6.652 6.652 0 0 0 1.184-2.145c.214.329 1.154 1.855.75 3.812a5.032 5.032 0 0 1-1.396 2.542c-1.415 1.37-3.25 1.44-4.292 1.479-.54.02-4.852.112-7.688-3.271-2.055-2.452-2.165-5.336-2.208-6.458-.021-.561-.043-1.136.083-1.875.622-3.625 3.905-5.808 6.229-7.354a23.632 23.632 0 0 1 5.229-2.604c-1.5.038-3.634.276-6 1.194-4.091 1.588-6.553 4.309-7.665 5.726 1.374-3.784 3.311-5.602 4.373-6.42 1.391-1.072 3.898-2.444 4.458-2.75a51.429 51.429 0 0 1 2.156-1.115 46.446 46.446 0 0 1-2.712-.247c-10.217-1.23-18.588-5.68-24.925-10.415z"/><path style="fill:#8c0000" d="M122.75 172.75a51.681 51.681 0 0 1-3.083-16.167c-.319-11.724 3.514-20.197 4.389-22.056.508-1.08.974-1.956 1.306-2.556l.472-4.213c-.692-.186-2.576-.797-3.774-2.612a5.882 5.882 0 0 1-.726-1.564c.258.188 1.71 1.207 3.667.861 1.67-.295 2.628-1.392 2.875-1.694a27.988 27.988 0 0 1 2.625-5.083c3.551-5.423 8.074-8.148 12.292-10.625 5.382-3.161 13.842-6.966 17.708-7.75.167-.034 1.865-.374 3.722-1.458 1.289-.752 1.932-1.442 2.361-2.111a5.763 5.763 0 0 0 .75-1.778 4.456 4.456 0 0 1 1.889 1.222c.565.62.824 1.262.944 1.639a11.801 11.801 0 0 0 4.583-.778c1.078-.418 4.614-1.788 4.528-3.806-.077-1.79-2.953-2.919-3.167-3a10.524 10.524 0 0 1 3.528-1.5c2.479-.543 6.797-.513 8.354 2.076 1.1 1.827.33 4.109.229 4.397-.301.854-1.634 4.025-12.315 7.091-6.081 1.746-7.94 1.375-13.712 2.992a63.06 63.06 0 0 0-10.083 3.778 101.357 101.357 0 0 1 13.056-3.028c5.682-.922 17.735-2.366 21.121-4.004.489-.237 1.654-.891 3.407-1.274 1.06-.231 1.437-.167 2.141-.428.849-.315 1.88-.993 2.831-2.544.276.325.558.738.778 1.25.853 1.99.099 3.945-.139 4.5.236.005 4.731.037 6.584-2.944.832-1.338.884-2.883.888-3.056.015-.671.04-1.763-.639-2.278-.108-.082-.239-.153-1.306-.417a47.66 47.66 0 0 0-1.444-.333 2.926 2.926 0 0 1 .165-1.096c.162-.449.436-.842 1.669-1.932a36.05 36.05 0 0 1 1.389-1.167c-4.803-2.779-20.339-10.941-40.056-7.417-10.554 1.886-18.335 6.411-22.889 9.611a70.226 70.226 0 0 0-19.651 15.646 70.238 70.238 0 0 0-12.904 21.631c-.401 1.673-6.458 28.469 8.398 40.172 1.789 1.414 4.143 2.81 7.239 3.803zM235.167 261.111a11.088 11.088 0 0 1-3.639 5.194l1.056-.361c-.266.274-.544.548-.833.819-2.314 2.169-4.798 3.652-7.111 4.681l-2.35-.01a29.648 29.648 0 0 0 4.047-2.071c4.24-2.597 7.062-5.797 8.83-8.252zM225.708 271.444a14.924 14.924 0 0 0 3.542-1.583 4.892 4.892 0 0 1-2.042 1.584l-1.5-.001zM228.5 271.444a37.32 37.32 0 0 0 9.639-6.917c5.081-5.053 7.559-10.453 8.75-13.694l.005 20.611H228.5z"/><g><path style="fill:#e9e8ef" d="m37.667 271 1.5-4.5 13.5-4.917c5.384-1.96 6.977-2.539 8.583-4.083 3.995-3.839 4.193-9.91 3.917-13.667v-111.5c-.372-2.525-1.154-4.503-1.948-5.989-5.489-10.27-19.269-11.392-21.052-11.511a84.303 84.303 0 0 0 10.417-4.667c7.975-4.242 12.648-8.383 19.75-14 5.89-4.658 12.097-8.9 18.101-13.411a2506.494 2506.494 0 0 1 35.399-26.089 121.2 121.2 0 0 1 10.167-.25c10.473.185 14.692 1.633 16.667 2.417a32.409 32.409 0 0 1 3.302 1.531l-2.208 1.885 3.552-2.25 1.198.604-21.288 16.34 6.042-3.792-15.556 13.931 33.708-25.167 1.208.5L129 88.667c-5.473 5.521-22.21 23.758-22.444 48.667-.067 7.132-.215 22.767 10.444 31.778a25.169 25.169 0 0 0 5.75 3.639l1.667 3.917c-2.561-.803-6.631-2.403-10.75-5.667 0 0-5.309-4.207-8.97-10.967-7.25-13.385-6.975-39.8 5.601-63.007 2.789-5.147 6.86-11.384 12.848-17.797-3.906-1.529-13.892-4.781-23.868-.507a25.899 25.899 0 0 0-4.639 2.583l-8.847 7.236-.667 165-9.25 8.5.104 7.708a120.882 120.882 0 0 0-22.562-.75 120.78 120.78 0 0 0-15.75 2z"/><path style="fill:#e9e8ef" d="m139.667 91.5 42.417-32.25h4l-10.333 8.667c1.066.167 2.662.435 4.583.833 8.454 1.753 14.505 4.224 16.25 4.917 1.755.697 44.854 17.541 72.101 15.16 10.789-.943 20.107-4.743 20.107-4.743a65.932 65.932 0 0 0 8.486-4.194 152.781 152.781 0 0 1-16.889 16.334v167.222l-2.722 2.5a35.88 35.88 0 0 0 8.139 3.861c3.989 1.308 8.533 2.797 13.652 1.259 1.602-.481 4.765-1.711 7.848-5.12-2.497 3.088-7.214 8.462-13.21 12.532-2.496 1.694-4.84 2.909-7.804 3.19-1.37.13-2.746.048-5.292-.5-5.522-1.188-7.614-2.645-11.458-3.875-3.728-1.193-8.282-2.649-12.854-1.294-5.427 1.608-8.511 6.477-9.91 9.225l.319-179.917a47.704 47.704 0 0 1-5.936-.215c-9.127-.902-15.554-4.216-19.772-6.285 0 0-11.43-5.605-23.722-10.111-11.066-4.056-18.835-6.816-29.23-6.267-1.624.086-7.131.454-13.99 2.5a63.141 63.141 0 0 0-14.78 6.571z"/><path style="fill:#e9e8ef" d="M237.556 77c2.432-3.666 4.797-6.329 6.556-8.111 2.512-2.546 4.217-3.731 5.5-4.5 0 0 1.533-.919 3.164-1.595 4.722-1.956 10.246-1.542 13.002-1.405 0 0 9.325.462 17.722-1 3.149-.548 7.741-1.665 13.167-4.222a34.82 34.82 0 0 1-1.889 3.333c-1.352 2.107-5.125 7.834-12.389 11.667a31.217 31.217 0 0 1-8.832 3.063 41.085 41.085 0 0 1-8.89.659c-6.322-.23-8.358-1.808-15.17-1.632-2.602.067-5.03.368-7.663 1.409A19.991 19.991 0 0 0 237.556 77zM97 272.625a33.715 33.715 0 0 1 6.167-4.708c5.565-3.31 10.615-4.13 12.056-4.333 5.473-.773 9.627.179 14.444 1.333 2.485.595 7.691 1.991 15.234 5.615 4.134 1.986 18.085 9.019 24.988 13.691.991.671 4.116 2.835 8.282 2.851a12.42 12.42 0 0 0 1.384-.073 45.005 45.005 0 0 1-5.222-2.333c-3.747-1.968-6.241-3.957-7.222-4.722-1.597-1.247-11.688-9.012-23.523-13.715a70.597 70.597 0 0 0-9.033-2.896c2.043.293 5.126.819 8.798 1.791 8.618 2.281 15.126 5.602 22.424 9.376 5.713 2.954 5.868 3.375 11.056 5.889 4.941 2.394 8.35 4.046 12.5 5.389 4.223 1.367 12.625 4.086 23 2.389 3.568-.583 9.478-2.034 16-6.167-1.802 3.256-5.99 9.756-13.965 14.421-7.045 4.121-13.536 4.757-16.954 5.054-10.706.931-18.82-2.176-27.984-5.803-14.163-5.606-25.725-13.643-26.597-14.256-2.657-1.868-8.892-6.411-17.806-10.639-3.405-1.615-6.831-3.008-11.333-3.25-5.431-.292-9.563 1.246-10.839 1.759A24.936 24.936 0 0 0 97 272.625zM145.389 253.944a38.317 38.317 0 0 1 3.167-.833s2.109-.46 3.986-.653c3.847-.395 8.659 1.58 10.458 2.333 10.272 4.302 10.175 4.354 12.042 5.083 6.407 2.501 11.48 3.417 16.792 4.375 0 0 7.243 1.307 14.208.875 1.3-.081 2.799-.281 4.479-.854 1.294-.441 2.3-.969 2.958-1.354a3.078 3.078 0 0 1-.423.984c-.195.295-.642.854-2.285 1.495-.697.272-1.69.59-2.938.771a23.958 23.958 0 0 0 6.354-.646c3.763-.903 6.354-2.5 8.312-3.729 3.65-2.292 5.963-4.679 6.459-5.2 3.531-3.703 7.738-8.114 7.208-13.842-.039-.424-.648-5.99-5.458-8.875-2.965-1.778-8.167-2.923-11.625.167-2.212 1.976-4.057 5.994-2.125 9.333 1.769 3.058 6.044 4.404 9.833 2.667-.44.56-2.595 3.183-5.917 3.25-1.378.028-2.405-.395-3.167-.708-.837-.344-4.246-1.747-5.34-5.085-.674-2.057-.144-3.855.27-5.256.272-.923 1.458-4.558 4.962-7.083 4.808-3.466 11.305-2.913 15.651-.451.922.522 3.756 2.178 5.458 5.583 1.132 2.265 1.25 4.278 1.333 6 .063 1.311.159 5.674-2.083 10.958-2.674 6.301-6.978 9.922-11.083 13.375-1.997 1.68-3.583 2.728-5.25 3.583-2.797 1.436-5.15 1.985-6.875 2.375-2.525.571-6.272 1.139-10.917.833a43.927 43.927 0 0 0 8.042-1.667 44.522 44.522 0 0 0 13.458-6.833 133.262 133.262 0 0 1-6.417 2.583s-1.818.678-3.287 1.178c-3.135 1.067-13.851 3.222-27.463-.178-4.085-1.02-9.811-2.886-16.167-6.5a40.847 40.847 0 0 0 7.542 5.666 56.812 56.812 0 0 1-3.514-1.333c-5.229-2.186-6.817-3.778-12.25-6.861-7.981-4.529-11.714-5.154-12.868-5.322a26.056 26.056 0 0 0-5.52-.204zM75.812 96.604a17.347 17.347 0 0 1 4.854-3.479v157.208l-4.854 5.111V96.604zM270 101.167l5.167-1.945v165.236L270 261z"/><g><path style="fill:#fff" d="m37.667 271 1.5-4.5 13.5-4.917c5.384-1.96 6.977-2.539 8.583-4.083 3.995-3.839 4.193-9.91 3.917-13.667v-111.5c-.372-2.525-1.154-4.503-1.948-5.989-5.489-10.27-19.269-11.392-21.052-11.511a84.303 84.303 0 0 0 10.417-4.667c7.975-4.242 12.648-8.383 19.75-14 5.89-4.658 12.097-8.9 18.101-13.411a2506.494 2506.494 0 0 1 35.399-26.089 121.2 121.2 0 0 1 10.167-.25c10.473.185 14.692 1.633 16.667 2.417a32.409 32.409 0 0 1 3.302 1.531l-2.208 1.885 3.552-2.25 1.198.604-21.288 16.34 6.042-3.792-15.556 13.931 33.708-25.167 1.208.5L129 88.667c-5.473 5.521-22.21 23.758-22.444 48.667-.067 7.132-.215 22.767 10.444 31.778a25.169 25.169 0 0 0 5.75 3.639l1.667 3.917c-2.561-.803-6.631-2.403-10.75-5.667 0 0-5.309-4.207-8.97-10.967-7.25-13.385-6.975-39.8 5.601-63.007 2.789-5.147 6.86-11.384 12.848-17.797-3.906-1.529-13.892-4.781-23.868-.507a25.899 25.899 0 0 0-4.639 2.583l-8.847 7.236-.667 165-9.25 8.5.104 7.708a120.882 120.882 0 0 0-22.562-.75 120.78 120.78 0 0 0-15.75 2z"/><path style="fill:#fff" d="m139.667 91.5 42.417-32.25h4l-10.333 8.667c1.066.167 2.662.435 4.583.833 8.454 1.753 14.505 4.224 16.25 4.917 1.755.697 44.854 17.541 72.101 15.16 10.789-.943 20.107-4.743 20.107-4.743a65.932 65.932 0 0 0 8.486-4.194 152.781 152.781 0 0 1-16.889 16.334v167.222l-2.722 2.5a35.88 35.88 0 0 0 8.139 3.861c3.989 1.308 8.533 2.797 13.652 1.259 1.602-.481 4.765-1.711 7.848-5.12-2.497 3.088-7.214 8.462-13.21 12.532-2.496 1.694-4.84 2.909-7.804 3.19-1.37.13-2.746.048-5.292-.5-5.522-1.188-7.614-2.645-11.458-3.875-3.728-1.193-8.282-2.649-12.854-1.294-5.427 1.608-8.511 6.477-9.91 9.225l.319-179.917a47.704 47.704 0 0 1-5.936-.215c-9.127-.902-15.554-4.216-19.772-6.285 0 0-11.43-5.605-23.722-10.111-11.066-4.056-18.835-6.816-29.23-6.267-1.624.086-7.131.454-13.99 2.5a63.141 63.141 0 0 0-14.78 6.571z"/><path style="fill:#fff" d="M237.556 77c2.432-3.666 4.797-6.329 6.556-8.111 2.512-2.546 4.217-3.731 5.5-4.5 0 0 1.533-.919 3.164-1.595 4.722-1.956 10.246-1.542 13.002-1.405 0 0 9.325.462 17.722-1 3.149-.548 7.741-1.665 13.167-4.222a34.82 34.82 0 0 1-1.889 3.333c-1.352 2.107-5.125 7.834-12.389 11.667a31.217 31.217 0 0 1-8.832 3.063 41.085 41.085 0 0 1-8.89.659c-6.322-.23-8.358-1.808-15.17-1.632-2.602.067-5.03.368-7.663 1.409A19.991 19.991 0 0 0 237.556 77zM97 272.625a33.715 33.715 0 0 1 6.167-4.708c5.565-3.31 10.615-4.13 12.056-4.333 5.473-.773 9.627.179 14.444 1.333 2.485.595 7.691 1.991 15.234 5.615 4.134 1.986 18.085 9.019 24.988 13.691.991.671 4.116 2.835 8.282 2.851a12.42 12.42 0 0 0 1.384-.073 45.005 45.005 0 0 1-5.222-2.333c-3.747-1.968-6.241-3.957-7.222-4.722-1.597-1.247-11.688-9.012-23.523-13.715a70.597 70.597 0 0 0-9.033-2.896c2.043.293 5.126.819 8.798 1.791 8.618 2.281 15.126 5.602 22.424 9.376 5.713 2.954 5.868 3.375 11.056 5.889 4.941 2.394 8.35 4.046 12.5 5.389 4.223 1.367 12.625 4.086 23 2.389 3.568-.583 9.478-2.034 16-6.167-1.802 3.256-5.99 9.756-13.965 14.421-7.045 4.121-13.536 4.757-16.954 5.054-10.706.931-18.82-2.176-27.984-5.803-14.163-5.606-25.725-13.643-26.597-14.256-2.657-1.868-8.892-6.411-17.806-10.639-3.405-1.615-6.831-3.008-11.333-3.25-5.431-.292-9.563 1.246-10.839 1.759A24.936 24.936 0 0 0 97 272.625zM145.389 253.944a38.317 38.317 0 0 1 3.167-.833s2.109-.46 3.986-.653c3.847-.395 8.659 1.58 10.458 2.333 10.272 4.302 10.175 4.354 12.042 5.083 6.407 2.501 11.48 3.417 16.792 4.375 0 0 7.243 1.307 14.208.875 1.3-.081 2.799-.281 4.479-.854 1.294-.441 2.3-.969 2.958-1.354a3.078 3.078 0 0 1-.423.984c-.195.295-.642.854-2.285 1.495-.697.272-1.69.59-2.938.771a23.958 23.958 0 0 0 6.354-.646c3.763-.903 6.354-2.5 8.312-3.729 3.65-2.292 5.963-4.679 6.459-5.2 3.531-3.703 7.738-8.114 7.208-13.842-.039-.424-.648-5.99-5.458-8.875-2.965-1.778-8.167-2.923-11.625.167-2.212 1.976-4.057 5.994-2.125 9.333 1.769 3.058 6.044 4.404 9.833 2.667-.44.56-2.595 3.183-5.917 3.25-1.378.028-2.405-.395-3.167-.708-.837-.344-4.246-1.747-5.34-5.085-.674-2.057-.144-3.855.27-5.256.272-.923 1.458-4.558 4.962-7.083 4.808-3.466 11.305-2.913 15.651-.451.922.522 3.756 2.178 5.458 5.583 1.132 2.265 1.25 4.278 1.333 6 .063 1.311.159 5.674-2.083 10.958-2.674 6.301-6.978 9.922-11.083 13.375-1.997 1.68-3.583 2.728-5.25 3.583-2.797 1.436-5.15 1.985-6.875 2.375-2.525.571-6.272 1.139-10.917.833a43.927 43.927 0 0 0 8.042-1.667 44.522 44.522 0 0 0 13.458-6.833 133.262 133.262 0 0 1-6.417 2.583s-1.818.678-3.287 1.178c-3.135 1.067-13.851 3.222-27.463-.178-4.085-1.02-9.811-2.886-16.167-6.5a40.847 40.847 0 0 0 7.542 5.666 56.812 56.812 0 0 1-3.514-1.333c-5.229-2.186-6.817-3.778-12.25-6.861-7.981-4.529-11.714-5.154-12.868-5.322a26.056 26.056 0 0 0-5.52-.204z"/><path d="M75.812 96.604a17.347 17.347 0 0 1 4.854-3.479v157.208l-4.854 5.111V96.604zM270 101.167l5.167-1.945v165.236L270 261z"/></g></g><g><path style="fill:#fff" d="m134.222 245.889 7.111-62.778c-2.052-2.097-11.745-12.436-11.5-28.111.217-13.884 8.161-27.517 21.611-34.056 12.5-6.077 27.419-4.891 38.778 3.056.942.659 16.915 12.255 16.333 32.444-.435 15.074-9.801 24.633-11.889 26.667l7.333 62.778h-67.777z"/><path style="fill:#111" d="m142.833 238.333 6.5-58.5c-9.607-7.698-13.863-20.163-10.889-31.722 3.386-13.16 15.515-22.714 29.389-22.778 14.071-.065 26.353 9.647 29.708 22.917 2.906 11.494-1.337 23.875-10.875 31.583l6.833 58.5h-50.666z"/></g></g></g></switch></svg>