<svg xmlns="http://www.w3.org/2000/svg" xml:space="preserve" style="enable-background:new 0 0 350 350" viewBox="0 0 350 350"><switch><g><path d="M305 305H45V45h260l-57.167 40.167 41.153 9.792-50.681 27.375 60.736 5.625-81.542 52.542 86.927 26.053-70.677 15.135 41.417 29.34-49.85 3.46C251.878 271.325 278.439 288.163 305 305" style="opacity:.4"/><path d="M184.5 241.889 240.116 277H73V73h175.772l-20.814 18.312 27.583 8.229-52.074 28.973 64.199 8.819-73.833 44.333 68.778 23.278-72.286 6.354 57.147 32.73z" style="fill:#a62222"/><path d="M73 73v53.667L202.778 73zm0 149.972V277h129.75z"/><path d="M73 218.417v4.555L269.222 305H305zm0-13.361v3.416l154.722 36.695 27.5.833zm0-47.223V160l209.278-23.667-72.71 2.084zm0-12.208v2.792l160.528-31.334-29.667-.444zm0-18.958v4.416L305 45h-35.556zm100.833-20.25 10.75 4.833-8.333 7.417zM199.771 222.5l20.021 5.292-7.125-9.959zm9.104-127.125 8.708-7.521 4.75 11.438-9.312 6.458z" style="fill:#fff"/><path d="M222.052 141.5c-1.938 0-3.875.165-5.778.477l.148-.104-2.008-2.867-7.997-11.42a15.525 15.525 0 0 0-12.707-6.611c-3.189 0-6.26.969-8.88 2.804l-10.381 7.269c-3.234 2.251-4.451 3.165-6.874 4.987-.503.378-1.545 1.161-2.225 2.609-.56 1.193-.613 2.245-.669 3.358-.022.437-.025.878-.01 1.313v31.164l.633.904 17.832 25.467a6.507 6.507 0 0 0 5.327 2.772 6.468 6.468 0 0 0 3.726-1.176l.107-.075a6.451 6.451 0 0 0 2.27-2.841c4.288 5.23 10.092 9.247 16.93 11.374a35.511 35.511 0 0 0 10.555 1.597c19.575 0 35.5-15.925 35.5-35.5S241.627 141.5 222.052 141.5m-44.302 28.764v-12.108l4.662-1.62 4.515-1.568 1.544 2.205 2.008 2.867.672-.47a35.417 35.417 0 0 0-4.597 17.431c0 2.301.223 4.557.641 6.75z"/><path d="M174.25 171.367v-15.701l14.026-4.873 3.061 4.371 20.211-14.152-7.997-11.42c-3.801-5.429-11.284-6.748-16.713-2.947l-10.381 7.269c-3.191 2.221-4.387 3.12-6.78 4.919-.404.304-.862.667-1.159 1.298-.267.569-.295 1.123-.341 2.046-.022.447-.016.818-.006 1.073v30.125l17.832 25.467a3 3 0 0 0 4.178.737l.107-.075a3 3 0 0 0 .737-4.178z" style="fill:#fff"/><path d="M243.083 153.042s-9.149-8.032-21.031-8.042c-1.634-.001-3.269.165-3.269.165a31.875 31.875 0 0 0-3.175.484l-20.799 14.563a31.862 31.862 0 0 0-3.528 7.98c-.184.643-1.228 4.378-1.23 8.807-.003 6.684 2.364 17.333 11.073 24.625 2.018 1.69 5.756 4.354 11.411 5.936-.905-1.959-2.964-7.116-1.784-13.595.788-4.323 2.69-7.436 3.922-9.138l3.386 2.275-3.31 5.701 6.833 2.111-5.361 6.278 10.222.306-7.684 7.583a39.37 39.37 0 0 0 17.475-3.569l-10.931.653 6.583-7.194-10.444.083 4.405-5.95-7.516-1.634 2.389-4.917-5.59-2.367a36.508 36.508 0 0 1 10.201-9.106c-.804 1.219-2.17 3.689-2.083 6.875.04 1.494.424 4.013 3.292 7.792 4.991 6.576 12.233 10.02 16.272 11.602 1.429-1.22 11.27-9.919 11.239-24.352-.002-1.439-.249-14.546-10.968-23.955m-4.879 24.453c-2.093-1.138-3.01-3.881-1.912-6.203l8.438 3.896c-1.166 2.555-4.246 3.546-6.526 2.307" style="fill:#fff"/><path d="M155.305 205.831c-1.636 0-3.288.15-4.92.429l-.265-.399-1.48-2.113-6.329-9.039a12.6 12.6 0 0 0-10.313-5.365c-2.588 0-5.08.787-7.207 2.276l-8.166 5.718-.022.015-.061.043-6.155 4.497-.072.052a4.048 4.048 0 0 0-1.81 3.353v27.205l.467.666 14.975 21.387a4.585 4.585 0 0 0 3.753 1.953c.943 0 1.851-.286 2.625-.829l.879-.616a4.537 4.537 0 0 0 1.524-1.854c5.336 6.57 13.473 10.779 22.577 10.779 16.035 0 29.08-13.045 29.08-29.08 0-16.033-13.045-29.078-29.08-29.078m-36.534 23.495v-10.171l5.642-1.889 2.394-.802 1.208 1.725 1.48 2.113.372.513.053-.06a29.04 29.04 0 0 0-3.085 20.087z"/><path d="m116.168 230.105.024-.007v-12.801l11.624-3.893-.01-.014 2.323 3.318 16.397-11.481-6.329-9.039c-3.168-4.524-9.403-5.624-13.927-2.456l-8.166 5.718-.039.027.001.001-6.288 4.593a1.475 1.475 0 0 0-.433.411 1.502 1.502 0 0 0-.26.837v26.372l14.975 21.387a2 2 0 0 0 2.785.491l.879-.616a2 2 0 0 0 .491-2.785z" style="fill:#fff"/><path d="M155.305 208.411c-1.731 0-3.421.171-5.059.488l-17.659 12.365a26.372 26.372 0 0 0-3.782 13.647c0 14.636 11.864 26.5 26.5 26.5s26.5-11.864 26.5-26.5-11.865-26.5-26.5-26.5" style="fill:#fff"/><path d="M128.639 108.003c-1.636 0-3.288.15-4.92.429l-.265-.399-1.48-2.113-6.329-9.039a12.6 12.6 0 0 0-10.313-5.365c-2.588 0-5.08.787-7.207 2.276l-8.166 5.718-.022.015-.061.043-6.155 4.497-.072.052a4.048 4.048 0 0 0-1.81 3.353v27.205l.467.666L97.28 156.73a4.585 4.585 0 0 0 3.753 1.953c.943 0 1.851-.286 2.625-.829l.879-.616a4.537 4.537 0 0 0 1.524-1.854c5.336 6.57 13.473 10.779 22.577 10.779 16.035 0 29.08-13.045 29.08-29.08.001-16.034-13.044-29.08-29.079-29.08m-36.533 23.495v-10.171l5.642-1.889 2.394-.802 1.208 1.725 1.48 2.113.372.513.053-.06a29.04 29.04 0 0 0-3.085 20.087z"/><path d="m89.502 132.278.024-.007V119.47l11.624-3.893-.01-.014 2.323 3.318L119.86 107.4l-6.329-9.039c-3.168-4.524-9.403-5.624-13.927-2.456l-8.166 5.718-.039.027.001.001-6.288 4.593a1.475 1.475 0 0 0-.433.411 1.502 1.502 0 0 0-.26.837v26.372l14.975 21.387a2 2 0 0 0 2.785.491l.879-.616a2 2 0 0 0 .491-2.785z" style="fill:#fff"/><path d="M128.639 110.583c-1.731 0-3.421.171-5.059.488l-17.659 12.365a26.372 26.372 0 0 0-3.782 13.647c0 14.636 11.864 26.5 26.5 26.5s26.5-11.864 26.5-26.5c0-14.635-11.865-26.5-26.5-26.5" style="fill:#fff"/></g></switch></svg>