<svg xmlns="http://www.w3.org/2000/svg" viewBox="0 0 350 350" style="enable-background:new 0 0 350 350" xml:space="preserve"><switch><g><path style="fill:#fff" d="M290.112 290H60V60h230.112L95.75 130.764 155 243.5z"/><path d="m284.75 69-43.5 7.875-139.583 44.792 1.667 103.667 158.042 55.667H69V69h215.75z"/><linearGradient id="fuze-a" gradientUnits="userSpaceOnUse" x1="300.5" y1="122.375" x2="67" y2="122.375"><stop offset=".256" style="stop-color:#891716"/><stop offset="1" style="stop-color:#d12c2d"/></linearGradient><path style="fill:url(#fuze-a)" d="m67 162 233.5-77.75-63.5-1.5L67 133.5z"/><linearGradient id="fuze-b" gradientUnits="userSpaceOnUse" x1="67" y1="182.032" x2="298.5" y2="182.032"><stop offset=".256" style="stop-color:#891716"/><stop offset="1" style="stop-color:#d12c2d"/></linearGradient><path style="fill:url(#fuze-b)" d="M67 156.75 262.75 144l35.75 35-68.347 41.065-162.861-25.836L67 156.75z"/><linearGradient id="fuze-c" gradientUnits="userSpaceOnUse" x1="298.5" y1="238" x2="67" y2="238"><stop offset=".256" style="stop-color:#891716"/><stop offset="1" style="stop-color:#d12c2d"/></linearGradient><path style="fill:url(#fuze-c)" d="m67 213.25 214 69L298.5 268 251 237.75l-20.591-17.835L67 193.75v19.5z"/><g><path style="fill:#d65d5d" d="m113.5 146 46.688-15.812 96.437-18.563 25.174 9.064-34.299 19.728z"/><linearGradient id="fuze-d" gradientUnits="userSpaceOnUse" x1="111.94" y1="129.458" x2="278.04" y2="84.952"><stop offset="0" style="stop-color:#db8a89;stop-opacity:0"/><stop offset=".697" style="stop-color:#db8a89"/></linearGradient><path style="fill:url(#fuze-d)" d="m115.24 141.772 13.528-26.712L237 82.75l17.758.419L250 89.75 281 96z"/><linearGradient id="fuze-e" gradientUnits="userSpaceOnUse" x1="121.093" y1="160.081" x2="299.826" y2="95.028"><stop offset=".113" style="stop-color:#db8a89;stop-opacity:0"/><stop offset=".741" style="stop-color:#db8a89"/></linearGradient><path style="fill:url(#fuze-e)" d="m302 101-183.313 38-3.448 5 152.26-15.25 29.25-16.49-6.62-2.51L302 101zm-40.62 16.38 10.74-4.63 4.38 2.94-15.12 1.69z"/><linearGradient id="fuze-f" gradientUnits="userSpaceOnUse" x1="144.506" y1="226.642" x2="287.478" y2="251.852"><stop offset=".113" style="stop-color:#db8a89;stop-opacity:0"/><stop offset=".741" style="stop-color:#db8a89"/></linearGradient><path style="fill:url(#fuze-f)" d="m226.5 264.833-2.5-10 65.333-13.5-31.833-18.5-111.5-4.666-1.5 21z"/></g><g><path style="fill:#fff" d="m65.203 132.047 192.334-66L290 69 65.203 136.214zM248.46 113.327h-34.793L66.167 146v3.167l182.293-35.84M298.5 137.75l-185 8.25-46 9-.5 1.75 229.25-14.5 4.25-2.5M67 218l202 69.5 21.11-6.5L67 213.25zM68 208.5l201.5 46.333 6-3-208.167-45zM229.5 235.333l15.667-8.5L259.833 238zM189.583 103.583l1.917 11.584 9.333-8.417zM248.46 94.125l7.665-7.625 5.255 10.75-6.46 5.5z"/></g><path style="fill:#fff" d="M69.13 69v212h220.98v9H60V60h230.11v9z"/><g><path style="fill:#fff;stroke:#000;stroke-width:5;stroke-miterlimit:10" d="m113 128.583 18.917-12.833-14.213-16.237a4.212 4.212 0 0 0-5.349-.729l-20.801 13.043a3.498 3.498 0 0 0-1.632 2.659c-.523 5.895-2.016 25.052.161 30.18 2.583 6.083 16.5 23.167 18.25 23.667s4.667-5 4.667-5-13.25-16.167-14.417-21.083c-1.167-4.917-1.069-14.673.583-15.875L113 128.583z"/><circle style="fill:#fff;stroke:#000;stroke-width:5;stroke-miterlimit:10" cx="138.25" cy="146.5" r="28.5"/><path style="fill:#fff;stroke:#000;stroke-width:5;stroke-miterlimit:10" d="m144.5 217.083 18.917-12.833-14.213-16.237a4.212 4.212 0 0 0-5.349-.729l-20.801 13.043a3.498 3.498 0 0 0-1.632 2.659c-.523 5.895-2.016 25.052.161 30.18 2.583 6.083 16.5 23.167 18.25 23.667s4.667-5 4.667-5-13.25-16.167-14.417-21.083c-1.167-4.917-1.069-14.673.583-15.875l13.834 2.208z"/><circle style="fill:#fff;stroke:#000;stroke-width:5;stroke-miterlimit:10" cx="169.75" cy="235" r="28.5"/><g><path style="fill:#fff;stroke:#000;stroke-width:5;stroke-miterlimit:10" d="m212.372 159.339 21.378-14.503-16.062-18.349a4.761 4.761 0 0 0-6.045-.824l-23.507 14.74a3.954 3.954 0 0 0-1.844 3.005c-.591 6.661-2.278 28.312.182 34.106 2.919 6.875 18.647 26.181 20.624 26.746 1.978.565 5.274-5.651 5.274-5.651s-14.974-18.27-16.292-23.826c-1.318-5.556-1.208-16.583.659-17.94l15.633 2.496z"/><circle style="fill:#fff;stroke:#000;stroke-width:5;stroke-miterlimit:10" cx="240.907" cy="179.587" r="32.208"/><path d="M260.134 205.428c-18.759-3.866-18.884-26.241-18.884-26.241-13.938 6.438-12.246 30.335-12.246 30.335l12.559 2.272 12.009-2.587 6.562-3.779z"/><path style="fill:#fff" d="m231.583 185 8.667 3.667-2.667 6.824 6.954.426-2.87 5 7.833.416-4.963 6.584 10.63 1.583-18 .833 6.208-6.583-9.625-.667 4.667-4.8-6-.95 2.666-5.583-4.916-2.917z"/><path d="M254.917 175.25c1.908 3.396 5.593 3.374 6.835 3.26a.815.815 0 0 1 .725.319c.797 1.038 2.535 3.802-2.726 2.504-6.417-1.583-5.792-5.604-5.792-5.604s.084-.285.365-.441.593-.038.593-.038z"/></g></g></g></switch></svg>