<svg xmlns="http://www.w3.org/2000/svg" viewBox="0 0 350 350"><switch><g><path fill="#fff" d="M290.112 290L60 290 60 60 290.112 60 95.75 130.764 155 243.5z"/><path d="M284.75,69l-43.5,7.875c-46.528,14.931-93.056,29.861-139.583,44.792c0.556,34.556,1.111,69.111,1.667,103.667 c52.681,18.556,105.361,37.111,158.042,55.667H69V69H284.75z"/><linearGradient id="a" gradientUnits="userSpaceOnUse" x1="300.5" y1="122.375" x2="67" y2="122.375"><stop offset=".256" stop-color="#891716"/><stop offset="1" stop-color="#d12c2d"/></linearGradient><path fill="url(#a)" d="M67 162L300.5 84.25 237 82.75 67 133.5z"/><linearGradient id="b" gradientUnits="userSpaceOnUse" x1="67" y1="182.032" x2="298.5" y2="182.032"><stop offset=".256" stop-color="#891716"/><stop offset="1" stop-color="#d12c2d"/></linearGradient><path d="M67,156.75L262.75,144l35.75,35c-22.782,13.688-45.565,27.376-68.347,41.065 c-54.287-8.612-108.574-17.224-162.861-25.836C67.194,181.736,67.097,169.243,67,156.75z" fill="url(#b)"/><linearGradient id="c" gradientUnits="userSpaceOnUse" x1="298.5" y1="238" x2="67" y2="238"><stop offset=".256" stop-color="#891716"/><stop offset="1" stop-color="#d12c2d"/></linearGradient><path d="M67,213.25l214,69L298.5,268L251,237.75c-6.864-5.945-13.727-11.89-20.591-17.835 C175.939,211.193,121.47,202.472,67,193.75V213.25z" fill="url(#c)"/><path fill="#d65d5d" d="M113.5 146L160.188 130.188 256.625 111.625 281.799 120.689 247.5 140.417z"/><linearGradient id="d" gradientUnits="userSpaceOnUse" x1="111.94" y1="129.458" x2="278.04" y2="84.952"><stop offset="0" stop-color="#db8a89" stop-opacity="0"/><stop offset=".697" stop-color="#db8a89"/></linearGradient><path fill="url(#d)" d="M115.24 141.772L128.768 115.06 237 82.75 254.758 83.169 250 89.75 281 96z"/><linearGradient id="e" gradientUnits="userSpaceOnUse" x1="121.093" y1="160.081" x2="299.826" y2="95.028"><stop offset=".113" stop-color="#db8a89" stop-opacity="0"/><stop offset=".741" stop-color="#db8a89"/></linearGradient><path d="M302,101l-183.313,38l-3.448,5l152.26-15.25l29.25-16.49l-6.62-2.51L302,101z M261.38,117.38l10.74-4.63l4.38,2.94L261.38,117.38z" fill="url(#e)"/><linearGradient id="f" gradientUnits="userSpaceOnUse" x1="144.506" y1="226.642" x2="287.478" y2="251.852"><stop offset=".113" stop-color="#db8a89" stop-opacity="0"/><stop offset=".741" stop-color="#db8a89"/></linearGradient><path fill="url(#f)" d="M226.5 264.833L224 254.833 289.333 241.333 257.5 222.833 146 218.167 144.5 239.167z"/><path d="M65.203 132.047L257.537 66.047 290 69 65.203 136.214zM248.46 113.327L213.667 113.327 66.167 146 66.167 149.167 248.46 113.327M298.5 137.75L113.5 146 67.5 155 67 156.75 296.25 142.25 300.5 139.75M67 218L269 287.5 290.11 281 67 213.25zM68 208.5L269.5 254.833 275.5 251.833 67.333 206.833zM229.5 235.333L245.167 226.833 259.833 238zM189.583 103.583L191.5 115.167 200.833 106.75zM248.46 94.125L256.125 86.5 261.38 97.25 254.92 102.75z" fill="#fff"/><path fill="#fff" d="M69.13 69L69.13 281 290.11 281 290.11 290 60 290 60 60 290.11 60 290.11 69z"/><g fill="#fff" stroke="#000" stroke-width="5" stroke-miterlimit="10"><path d="M113,128.583l18.917-12.833l-14.213-16.237 c-1.373-1.504-3.624-1.811-5.349-0.729l-20.801,13.043c-0.932,0.584-1.535,1.564-1.632,2.659 c-0.523,5.895-2.016,25.052,0.161,30.18c2.583,6.083,16.5,23.167,18.25,23.667s4.667-5,4.667-5s-13.25-16.167-14.417-21.083 c-1.167-4.917-1.069-14.673,0.583-15.875L113,128.583z"/><circle cx="138.25" cy="146.5" r="28.5"/></g><g fill="#fff" stroke="#000" stroke-width="5" stroke-miterlimit="10"><path d="M144.5,217.083l18.917-12.833 l-14.213-16.237c-1.373-1.504-3.624-1.811-5.349-0.729l-20.801,13.043c-0.932,0.584-1.535,1.564-1.632,2.659 c-0.523,5.895-2.016,25.052,0.161,30.18c2.583,6.083,16.5,23.167,18.25,23.667s4.667-5,4.667-5s-13.25-16.167-14.417-21.083 c-1.167-4.917-1.069-14.673,0.583-15.875L144.5,217.083z"/><circle cx="169.75" cy="235" r="28.5"/></g><path d="M212.372,159.339l21.378-14.503 l-16.062-18.349c-1.551-1.699-4.096-2.046-6.045-0.824l-23.507,14.74c-1.053,0.66-1.734,1.767-1.844,3.005 c-0.591,6.661-2.278,28.312,0.182,34.106c2.919,6.875,18.647,26.181,20.624,26.746c1.978,0.565,5.274-5.651,5.274-5.651 s-14.974-18.27-16.292-23.826c-1.318-5.556-1.208-16.583,0.659-17.94L212.372,159.339z" fill="#fff" stroke="#000" stroke-width="5" stroke-miterlimit="10"/><circle cx="240.907" cy="179.587" r="32.208" fill="#fff" stroke="#000" stroke-width="5" stroke-miterlimit="10"/><path d="M260.134,205.428c-18.759-3.866-18.884-26.241-18.884-26.241c-13.938,6.438-12.246,30.335-12.246,30.335l12.559,2.272 l12.009-2.587L260.134,205.428z"/><path fill="#fff" d="M231.583 185L240.25 188.667 237.583 195.491 244.537 195.917 241.667 200.917 249.5 201.333 244.537 207.917 255.167 209.5 237.167 210.333 243.375 203.75 233.75 203.083 238.417 198.283 232.417 197.333 235.083 191.75 230.167 188.833z"/><path d="M254.917,175.25c1.908,3.396,5.593,3.374,6.835,3.26c0.284-0.026,0.551,0.094,0.725,0.319 c0.797,1.038,2.535,3.802-2.726,2.504c-6.417-1.583-5.792-5.604-5.792-5.604s0.084-0.285,0.365-0.441 S254.917,175.25,254.917,175.25z"/></g></switch></svg>