<svg xmlns="http://www.w3.org/2000/svg" viewBox="0 0 350 350"><switch><g><path fill="#fff" d="M59.872 60h230.256v230H59.872z"/><path fill="#891716" d="M78.875 79h192.25v192H78.875z"/><radialGradient id="glaz-a" cx="175.125" cy="175" r="96" gradientTransform="matrix(1 0 0 1.2 0 -35)" gradientUnits="userSpaceOnUse"><stop offset="0" stop-color="#fd6566"/><stop offset=".181" stop-color="#f96263" stop-opacity=".819"/><stop offset=".368" stop-color="#ec5a5b" stop-opacity=".632"/><stop offset=".558" stop-color="#d84c4c" stop-opacity=".442"/><stop offset=".75" stop-color="#bb3838" stop-opacity=".25"/><stop offset=".943" stop-color="#961f1f" stop-opacity=".058"/><stop offset="1" stop-color="#891716" stop-opacity="0"/></radialGradient><path fill="url(#glaz-a)" d="M79.125 79h192v192h-192z"/><path d="M69.18 69.39v211.4h211.64V69.39H69.18zM271 271H79V79h192v192z"/><path d="M77 83.5s2.625-5.75 7.5-7-5.75-3.25-5.75-3.25L75.5 83.5H77zM78.25 86.875s4.625-8.5 10.375-11.25 7.25-2.375 7.25-2.375l.625 3.25S84.32 84 76.75 96.75s-4.75 4.5-4.75 4.5l6.25-14.375zM75.917 100.333s4.667-6.167 10.75-10.417c.649-.453 2.587-1.643 2.827-1.352.245.297-1.473 1.917-6.327 7.196-3.908 4.25-5.895 6.355-6.417 7.24-3 5.083-.833-2.667-.833-2.667z" stroke="#000" stroke-miterlimit="10"/><path d="M169.75 265.25c-36.219-4.944-63.613-32.609-73.125-54.25-6.908-15.716-7.59-31.993-7.59-31.993A86.46 86.46 0 0191 156.75c1.881-8.71 5.847-21.307 15.25-33.375 7.942-10.193 18.447-18.32 17.13-20.125-.924-1.266-8.26-.237-13.26 2.63-.811.465-2.68 1.546-3.889.935-1.537-.776-1.481-3.435-1.481-3.435 2.13-9.5 30.13-28.5 30.13-28.5-9.672-1.835-16.536-.259-20.5 1.12-10.113 3.518-16.576 11.223-29.09 26.489a248.658 248.658 0 00-9.79 12.761c-.093 1.395-.112 3.016.338 3.131.434.111 1.122-1.226 1.329-1.631 2.25-4.417 8.167-10.5 8.167-10.5.86-.949 1.865-1.986 2.063-1.841.342.249-1.902 3.865-2.147 4.258-3.584 5.748-7.97 10.298-8 10.333l-4.17 3.42 1.67 122.66s-6.33 3.42 2.08 13.75c8.42 10.34 18.25 15.25 18.25 15.25l19.62-.18c-.69-.26-1.5-.58-2.45-.98-12-5-23.5-19.67-24.42-21.84-.91-2.16-3.75-13.16 2.17-.91s23.83 21.16 23.83 21.16 2.4 1.51 3.57 2.55l84.6-.76s28.12 11.13 46.5 1c18.38-10.12 25-22.37 25-22.37l.88-50.25c-19.597 43.879-63.086 69.421-104.63 63.75zm102.63-46.63c.667.856-.731 3.319-2.478 4.826-1.6 1.381-3.714 2.153-3.96 1.798-.114-.165.009-.719 1.057-1.555 2.75-2.19 3.94-5.38 3.94-5.38.881-.107 1.264.083 1.441.311z"/><path d="M258.083 75.583s10.75 2.083 17.5 15.083-1.203 1.417-1.203 1.417S266 78.917 258.083 76.75c-7.916-2.167 0-1.167 0-1.167zM237.939 74.12c11.447 9.288 13.753 11.72 13.498 12.067-.265.361-3.508-1.245-6.25-3.25-4.753-3.476-6.094-6.759-10.571-8.55-.564-.226-1.675-.626-1.631-.806.092-.375 4.954.539 4.954.539zM228.083 74.5s19.167 12.75 25.583 20.167c.807.932 2.911 3.633 2.565 3.977-.364.362-3.243-2.075-7.169-5.269-11.907-9.688-17.86-14.532-24.063-18.022-2.158-1.214-4.89-2.622-4.74-2.979.179-.422 4.276.9 7.824 2.126z" stroke="#000" stroke-miterlimit="10"/><g><circle cx="176.667" cy="175" r="83" fill="none" stroke="#fff" stroke-width="7" stroke-miterlimit="10"/><circle cx="176.667" cy="175" r="49.803" fill="#fff"/><circle cx="176.667" cy="175" r="25"/><g><path d="M173.667 113.5h6v123h-6z"/><path d="M113.833 172.25H239.5v5.5H113.833zM171.74 105.125v-53.5h9.854v53.5z"/><path fill="#fff" d="M173.865 105.125v-53.5h5.5v53.5z"/><path d="M171.74 299.791v-53.5h9.854v53.5z"/><path fill="#fff" d="M173.865 299.791v-53.5h5.5v53.5z"/><path d="M246.917 169.729h53.5v9.854h-53.5z"/><path fill="#fff" d="M246.917 171.854h53.5v5.5h-53.5z"/><path d="M52.25 170.163h53.5v9.854h-53.5z"/><path fill="#fff" d="M52.25 172.288h53.5v5.5h-53.5z"/></g><circle cx="176.667" cy="175" r="5.833" fill="#fff"/></g></g></switch></svg>