<svg xmlns="http://www.w3.org/2000/svg" viewBox="0 0 350 350" style="enable-background:new 0 0 350 350" xml:space="preserve"><switch><g><path style="opacity:.4" d="M45 45h260v260H45z"/><path style="fill:#a62222" d="M73 73h204v204H73z"/><circle style="fill:#fff" cx="175" cy="175" r="56"/><path style="fill:#fff" d="M175 79.5c-52.743 0-95.5 42.757-95.5 95.5s42.757 95.5 95.5 95.5 95.5-42.757 95.5-95.5-42.757-95.5-95.5-95.5zm0 184.5c-49.153 0-89-39.847-89-89s39.847-89 89-89 89 39.847 89 89-39.847 89-89 89z"/><path d="M243.475 171.75h-41.173c-1.483-12.588-11.464-22.569-24.052-24.052v-41.031h-6.5v41.031c-12.588 1.483-22.569 11.464-24.052 24.052h-41.173a.1.1 0 0 0-.1.1v6.3a.1.1 0 0 0 .1.1h41.173c1.483 12.588 11.464 22.569 24.052 24.052v41.031h6.5v-41.031c12.588-1.483 22.569-11.464 24.052-24.052h41.173a.1.1 0 0 0 .1-.1v-6.3a.1.1 0 0 0-.1-.1zM175 180.5a5.5 5.5 0 1 1 0-11 5.5 5.5 0 1 1 0 11zM35.75 167.251h60.5v15.498h-60.5z"/><path style="fill:#fff" d="M35.75 171.75h60.5v6.499h-60.5z"/><path d="M253.75 167.251h60.5v15.498h-60.5z"/><path style="fill:#fff" d="M253.75 171.75h60.5v6.499h-60.5z"/><path d="M182.749 35.75v60.5h-15.498v-60.5z"/><path transform="rotate(90 175 66)" style="fill:#fff" d="M144.75 62.75h60.5v6.499h-60.5z"/><path d="M182.749 253.75v60.5h-15.498v-60.5z"/><path transform="rotate(90 175 284)" style="fill:#fff" d="M144.75 280.75h60.5v6.499h-60.5z"/></g></switch></svg>