<svg xmlns="http://www.w3.org/2000/svg" xml:space="preserve" style="enable-background:new 0 0 350 350" viewBox="0 0 350 350"><switch><g><path d="M45 45h260v260H45z" style="opacity:.4"/><path d="M73 73h204v204H73z" style="fill:#115a19"/><path d="m108.611 241.5-17.056 13.722L73 277h204l-17.5-23.722-11.833-4.111-26.5-42.444-5.333-2.5-10.056 5.5a12.642 12.642 0 0 0-2.194-1.931c-1.346-.93-2.526-1.354-3.694-1.764a22.548 22.548 0 0 0-4.583-1.083l-1.597.681-2.708 2.653-6.271-6.444-20.924.611-9.083 1.806-6.917-3.167-5.972 4.958-26.335 38.165z" style="fill:#fff"/><path d="m253.111 258.667-10.5-3.333-27.542-45.278-9.486 6.194-4.944-5.194c-.14-.118-.774-.629-1.67-.556a2.236 2.236 0 0 0-1.08.389l-4.083 3.194-2.111 3.111a11.623 11.623 0 0 0-1.097-1.347 11.855 11.855 0 0 0-2.75-2.153l-6.118-4.517-13.118-.177-3.667 2.111-12.056-.889-3.944-3.444-30.736 44.097-3.24-.312-5.01-2.646-13.236 11.056-22.736 28.181 20.153.056 78 17.292 85.306-18.722h12.333zm-136.861 6.805-14.458 7.569 8.847-20.208 3.444 1.806 5.694.444zm113.125-3.451-10.958-17.083-18.611-18.91-.028 15.667-4.917 6.444L199 264.472l-21.306-10.5-5.194-17.944-11.708 25.222-7.167-9.792-11.823 16.207-5.427 9.113.347-7.375a479.966 479.966 0 0 0-1.8-11.487c-.188-1.11-.375-2.183-.589-3.749-.421-3.084-.549-5.175-.765-8.204a718.15 718.15 0 0 0-.694-8.942l17.056-24.479 10.07 8.18 20.556 8.056 14.278-8.667 10.188 1.472 8.799-5.903v6.306l4.014 6.951.438 4.427 5.618 7.566-1.653-9.667-1.5-3.875 4.514 7.403 4.125 13.396-2.021 5.979z"/><path d="M151.167 112.333a232.936 232.936 0 0 1 1.458 8.458c2.135 13.911 2.112 22.187 2.09 24.333-.01 1.04-.033 1.888-.049 2.417a805.703 805.703 0 0 1-1.125-6.042c-1.061-5.816-2.445-13.754-4.333-26.125-1.513-9.911-.468-3.787-3.125-26.333-.153-1.3-.578-4.898.106-9.449.338-2.247.818-3.87.935-4.259.276-.916 1.423-4.545 4.417-8.75 2.173-3.053 5.498-7.722 11.875-10.625 6.496-2.957 12.38-2.362 14.458-2.125 5.327.607 9.16 2.604 11.417 3.806 3.67 1.955 6.15 4.1 7.25 5.111 1.171 1.075 3.45 3.198 5.542 6.542 2.623 4.192 3.702 8.308 4.167 11.292a121.66 121.66 0 0 1 .416 13.084c.243.549.595 1.4.932 2.467.721 2.282 2.307 8.511-2.432 24.033a118.841 118.841 0 0 1-3.583 10.083c.313-2.395.822-6.136 1.542-10.75.753-4.831 1.097-6.516 1.375-9.333.265-2.69.493-6.65.167-11.583a309.91 309.91 0 0 1-.763 5.36c-1.496 9.893-2.464 16.293-4.785 23.778C197.501 132.934 196 137 196 137c-.992 2.687-1.579 4.059-2.262 6.401a49.548 49.548 0 0 0-1.572 7.516 1029.414 1029.414 0 0 1-.167-22.084 838.888 838.888 0 0 0-2.417 9.333c-2.415 9.556-3.762 14.924-5.028 21.667a213.774 213.774 0 0 0-2.056 13.25 113.923 113.923 0 0 0-2.167-14.916 427.28 427.28 0 0 0-3.833 24.855 937.01 937.01 0 0 1-2.833-11.479c-1.679-6.99-2.471-10.639-4.167-17.333a550.888 550.888 0 0 0-1.833-7.042l-.167 23.5a708.281 708.281 0 0 1-1.771-7.479c-1.842-7.978-2.5-11.485-3.896-16.132a211.248 211.248 0 0 0-1.667-5.278c-.792-2.377-1.049-2.98-1.444-4.222-.81-2.542-1.039-4.119-1.652-7.408-2.007-10.772-3.311-14.077-5.32-17.002a22.923 22.923 0 0 0-.581-.814" style="fill:#fff"/><path d="M153.271 88.25a16.076 16.076 0 0 1 .118-5.403c.196-.999.55-1.948 1.25-3.806 1.234-3.273 1.952-5.143 3.417-7.347.55-.828 1.049-1.571 1.889-2.444 1.839-1.912 3.747-2.821 4.573-3.205.855-.398 4.047-1.781 9.621-1.433 2.582.161 11.352.709 18.528 7.556 1.327 1.266 4.623 4.679 6.528 9.889.967 2.645 1.152 4.595 1.194 5.111.063.765.2 3.022-.993 7.625-.883 3.406-1.973 7.609-4.976 12.072-1.447 2.151-1.8 2.075-4.462 5.845-1.564 2.216-2.723 4.056-3.708 6.458a27.242 27.242 0 0 0-1 2.889 142.63 142.63 0 0 0 .625-7.806c-.201.512-.515 1.323-.884 2.323-1.313 3.558-1.856 5.547-2.867 8.56-.454 1.353-1.15 3.35-2.096 5.784a102.023 102.023 0 0 0-.194-11.195 409.824 409.824 0 0 0-1.917 16.611c-.233-.731-.581-1.849-.972-3.222-.838-2.938-1.393-4.886-1.917-7.472-.368-1.82-.63-3.505-1.667-5.722a20.13 20.13 0 0 0-.444-.889 129.276 129.276 0 0 1 2.139 15c-.13-.184-.325-.462-.556-.806-1.908-2.844-2.751-4.935-4.533-8.895-1.79-3.979-1.419-2.934-2.606-5.633-1.266-2.878-1.59-3.843-2.667-5.333-.922-1.276-1.133-1.19-2.799-3.257-.92-1.141-1.929-2.394-2.812-3.917-.437-.753-1.136-2.078-2.125-5.333-1.303-4.292-2.187-7.201-2.139-11.174.018-1.459.166-3.481.746-5.875a4.968 4.968 0 0 0-.718.736c-.294.372-.484.724-.681 1.153a16.054 16.054 0 0 0-.895 2.555"/></g></switch></svg>