<svg xmlns="http://www.w3.org/2000/svg" viewBox="0 0 350 350"><switch><g><path fill-rule="evenodd" clip-rule="evenodd" fill="#fff" d="M60 60h230v230H60z"/><path fill-rule="evenodd" clip-rule="evenodd" d="M70 70h210v210H70z"/><linearGradient id="goyo-a" gradientUnits="userSpaceOnUse" x1="175" y1="80" x2="175" y2="270"><stop offset="0" stop-color="#156609"/><stop offset="1" stop-color="#115107"/></linearGradient><path fill-rule="evenodd" clip-rule="evenodd" fill="url(#goyo-a)" d="M80 80h190v190H80z"/><g><linearGradient id="goyo-b" gradientUnits="userSpaceOnUse" x1="126.773" y1="317.963" x2="127.345" y2="317.963" gradientTransform="scale(-111.9632 111.9632) rotate(-1.79 -10091.16 4249.163)"><stop offset="0" stop-color="#499247"/><stop offset="1" stop-color="#1b6219" stop-opacity="0"/></linearGradient><path d="M80 80h18l18 3-36-1v-2z" fill-rule="evenodd" clip-rule="evenodd" fill="url(#goyo-b)"/><linearGradient id="goyo-c" gradientUnits="userSpaceOnUse" x1="125.98" y1="326.498" x2="126.552" y2="326.498" gradientTransform="matrix(-211.5771 3.4971 .4561 27.597 26608.559 -9363.324)"><stop offset="0" stop-color="#499247"/><stop offset="1" stop-color="#1b6219" stop-opacity="0"/></linearGradient><path d="M126 88l-46-3v6l46-3z" fill-rule="evenodd" clip-rule="evenodd" fill="url(#goyo-c)"/><linearGradient id="goyo-d" gradientUnits="userSpaceOnUse" x1="126.416" y1="316.64" x2="126.988" y2="316.64" gradientTransform="scale(-179.2094 179.2094) rotate(5.599 3295.014 -1141.483)"><stop offset="0" stop-color="#499247"/><stop offset="1" stop-color="#1b6219" stop-opacity="0"/></linearGradient><path d="M132 93l-52 2v6l52-8z" fill-rule="evenodd" clip-rule="evenodd" fill="url(#goyo-d)"/><linearGradient id="goyo-e" gradientUnits="userSpaceOnUse" x1="128.635" y1="317.829" x2="129.207" y2="317.829" gradientTransform="scale(-80.7378 80.7378) rotate(17.65 1082.918 -259.236)"><stop offset="0" stop-color="#499247"/><stop offset="1" stop-color="#1b6219" stop-opacity="0"/></linearGradient><path d="M114 107l-34 9v3l34-12z" fill-rule="evenodd" clip-rule="evenodd" fill="url(#goyo-e)"/><linearGradient id="goyo-f" gradientUnits="userSpaceOnUse" x1="126.349" y1="315.825" x2="126.921" y2="315.825" gradientTransform="scale(-239.0176 239.0176) rotate(22.813 844.487 -156.314)"><stop offset="0" stop-color="#499247"/><stop offset="1" stop-color="#1b6219" stop-opacity="0"/></linearGradient><path d="M128 107l-48 16v8l48-24z" fill-rule="evenodd" clip-rule="evenodd" fill="url(#goyo-f)"/><linearGradient id="goyo-g" gradientUnits="userSpaceOnUse" x1="126.948" y1="315.886" x2="127.519" y2="315.886" gradientTransform="scale(-177.65 177.65) rotate(28.836 676.263 -90.133)"><stop offset="0" stop-color="#499247"/><stop offset="1" stop-color="#1b6219" stop-opacity="0"/></linearGradient><path d="M136 109l-56 26v8l56-34" fill-rule="evenodd" clip-rule="evenodd" fill="url(#goyo-g)"/><linearGradient id="goyo-h" gradientUnits="userSpaceOnUse" x1="127.32" y1="315.479" x2="127.892" y2="315.479" gradientTransform="scale(-153.6356 153.6356) rotate(41.309 480.61 -11.798)"><stop offset="0" stop-color="#499247"/><stop offset="1" stop-color="#1b6219" stop-opacity="0"/></linearGradient><path d="M125 128l-45 36v5l45-41z" fill-rule="evenodd" clip-rule="evenodd" fill="url(#goyo-h)"/><linearGradient id="goyo-i" gradientUnits="userSpaceOnUse" x1="126.313" y1="315.177" x2="126.885" y2="315.177" gradientTransform="scale(-281.9161 281.9161) rotate(44.497 447.599 2.82)"><stop offset="0" stop-color="#499247"/><stop offset="1" stop-color="#1b6219" stop-opacity="0"/></linearGradient><path d="M139 123l-38 43-21 20v-9l17-18 42-36z" fill-rule="evenodd" clip-rule="evenodd" fill="url(#goyo-i)"/><linearGradient id="goyo-j" gradientUnits="userSpaceOnUse" x1="127.052" y1="315.058" x2="127.624" y2="315.058" gradientTransform="scale(-182.464 182.464) rotate(50.054 399.802 20.96)"><stop offset="0" stop-color="#499247"/><stop offset="1" stop-color="#1b6219" stop-opacity="0"/></linearGradient><path d="M144 125l-34.5 48L80 205v-7l25-31 39-42z" fill-rule="evenodd" clip-rule="evenodd" fill="url(#goyo-j)"/><linearGradient id="goyo-k" gradientUnits="userSpaceOnUse" x1="126.314" y1="314.716" x2="126.885" y2="314.716" gradientTransform="scale(-270.6221 270.6221) rotate(62.276 322.917 52.645)"><stop offset="0" stop-color="#499247"/><stop offset="1" stop-color="#1b6219" stop-opacity="0"/></linearGradient><path d="M143 146L82 270h-2v-15l63-109z" fill-rule="evenodd" clip-rule="evenodd" fill="url(#goyo-k)"/><linearGradient id="goyo-l" gradientUnits="userSpaceOnUse" x1="126.718" y1="314.43" x2="127.29" y2="314.43" gradientTransform="scale(-191.945 191.945) rotate(66.938 300.132 61.267)"><stop offset="0" stop-color="#499247"/><stop offset="1" stop-color="#1b6219" stop-opacity="0"/></linearGradient><path d="M154 135l-17 51-40 84 33-87 24-48z" fill-rule="evenodd" clip-rule="evenodd" fill="url(#goyo-l)"/><linearGradient id="goyo-m" gradientUnits="userSpaceOnUse" x1="126.392" y1="314.387" x2="126.964" y2="314.387" gradientTransform="scale(-244.5251 244.5251) rotate(73.379 273.46 72.227)"><stop offset="0" stop-color="#499247"/><stop offset="1" stop-color="#1b6219" stop-opacity="0"/></linearGradient><path d="M142 182l-25 88 33-89 8-42-16 43z" fill-rule="evenodd" clip-rule="evenodd" fill="url(#goyo-m)"/><linearGradient id="goyo-n" gradientUnits="userSpaceOnUse" x1="126.33" y1="314.137" x2="126.902" y2="314.137" gradientTransform="scale(-243.5792 243.5792) rotate(82.161 242.681 84.46)"><stop offset="0" stop-color="#499247"/><stop offset="1" stop-color="#1b6219" stop-opacity="0"/></linearGradient><path d="M168 156l-7 49-7 65h5l9-114z" fill-rule="evenodd" clip-rule="evenodd" fill="url(#goyo-n)"/><linearGradient id="goyo-o" gradientUnits="userSpaceOnUse" x1="126.216" y1="313.947" x2="126.788" y2="313.947" gradientTransform="scale(-237.8635 237.8635) rotate(88.736 222.92 92.374)"><stop offset="0" stop-color="#499247"/><stop offset="1" stop-color="#1b6219"/></linearGradient><path d="M169 196l3 74 5-74-4-57-4 57z" fill-rule="evenodd" clip-rule="evenodd" fill="url(#goyo-o)"/><linearGradient id="goyo-p" gradientUnits="userSpaceOnUse" x1="126.063" y1="313.904" x2="126.634" y2="313.904" gradientTransform="scale(255.9118 -255.9118) rotate(-85.297 -107.277 224.76)"><stop offset="0" stop-color="#499247"/><stop offset="1" stop-color="#1b6219"/></linearGradient><path d="M188 195l-9-53 3 54 7 74-1-75z" fill-rule="evenodd" clip-rule="evenodd" fill="url(#goyo-p)"/><linearGradient id="goyo-q" gradientUnits="userSpaceOnUse" x1="125.907" y1="313.428" x2="126.479" y2="313.428" gradientTransform="scale(210.8824 -210.8824) rotate(-74.12 -144.562 239.108)"><stop offset="0" stop-color="#499247"/><stop offset="1" stop-color="#1b6219" stop-opacity="0"/></linearGradient><path d="M192 149l34 121h9l-43-121z" fill-rule="evenodd" clip-rule="evenodd" fill="url(#goyo-q)"/><linearGradient id="goyo-r" gradientUnits="userSpaceOnUse" x1="125.698" y1="314.322" x2="126.27" y2="314.322" gradientTransform="matrix(76.9371 190.5943 487.075 -196.6164 -162565.828 38004.39)"><stop offset="0" stop-color="#499247"/><stop offset="1" stop-color="#1b6219" stop-opacity="0"/></linearGradient><path d="M192 132l26 55 28 83-32.5-74-21.5-64z" fill-rule="evenodd" clip-rule="evenodd" fill="url(#goyo-r)"/><linearGradient id="goyo-s" gradientUnits="userSpaceOnUse" x1="125.68" y1="313.993" x2="126.252" y2="313.993" gradientTransform="matrix(87.4286 174.8571 331.0623 -165.5315 -114738.469 30134.334)"><stop offset="0" stop-color="#499247"/><stop offset="1" stop-color="#1b6219" stop-opacity="0"/></linearGradient><path d="M195 128l34 55 41 87-45-78-30-64z" fill-rule="evenodd" clip-rule="evenodd" fill="url(#goyo-s)"/><linearGradient id="goyo-t" gradientUnits="userSpaceOnUse" x1="125.313" y1="313.441" x2="125.885" y2="313.441" gradientTransform="scale(256.4267 -256.4267) rotate(-51.645 -261.25 285.253)"><stop offset="0" stop-color="#499247"/><stop offset="1" stop-color="#1b6219"/></linearGradient><path d="M213.5 135l56.5 66v10l-56.5-76" fill-rule="evenodd" clip-rule="evenodd" fill="url(#goyo-t)"/><linearGradient id="goyo-u" gradientUnits="userSpaceOnUse" x1="125.027" y1="313.534" x2="125.599" y2="313.534" gradientTransform="matrix(174.8571 183.6 201.3672 -191.7781 -84776.39 37309.148)"><stop offset="0" stop-color="#499247"/><stop offset="1" stop-color="#1b6219" stop-opacity="0"/></linearGradient><path d="M208 123l40 36 22 23v9l-28.25-29L208 123z" fill-rule="evenodd" clip-rule="evenodd" fill="url(#goyo-u)"/><linearGradient id="goyo-v" gradientUnits="userSpaceOnUse" x1="124.836" y1="312.565" x2="125.408" y2="312.565" gradientTransform="matrix(150.3771 120.6514 105.0835 -130.9736 -51409.758 25992.836)"><stop offset="0" stop-color="#499247"/><stop offset="1" stop-color="#1b6219" stop-opacity="0"/></linearGradient><path d="M270 171l-62-54 41 28 21 19v7z" fill-rule="evenodd" clip-rule="evenodd" fill="url(#goyo-v)"/><linearGradient id="goyo-w" gradientUnits="userSpaceOnUse" x1="124.212" y1="310.177" x2="124.784" y2="310.177" gradientTransform="matrix(131.1429 68.1943 38.1888 -73.44 -27916.14 14421.651)"><stop offset="0" stop-color="#499247"/><stop offset="1" stop-color="#1b6219" stop-opacity="0"/></linearGradient><path d="M232.5 120l37.5 21v-3l-37.5-18z" fill-rule="evenodd" clip-rule="evenodd" fill="url(#goyo-w)"/><linearGradient id="goyo-x" gradientUnits="userSpaceOnUse" x1="124.043" y1="309.334" x2="124.615" y2="309.334" gradientTransform="matrix(127.6457 62.9486 31.4743 -63.8229 -25334.2 12046.217)"><stop offset="0" stop-color="#499247"/><stop offset="1" stop-color="#1b6219" stop-opacity="0"/></linearGradient><path d="M218 107l52 26v-8l-52-18" fill-rule="evenodd" clip-rule="evenodd" fill="url(#goyo-x)"/><linearGradient id="goyo-y" gradientUnits="userSpaceOnUse" x1="124.285" y1="310.61" x2="124.857" y2="310.61" gradientTransform="matrix(234.3086 69.9429 24.7585 -82.941 -36609.3 17166.182)"><stop offset="0" stop-color="#499247"/><stop offset="1" stop-color="#1b6219" stop-opacity="0"/></linearGradient><path d="M213.5 101l56.5 20v-8l-56.5-12z" fill-rule="evenodd" clip-rule="evenodd" fill="url(#goyo-y)"/><linearGradient id="goyo-z" gradientUnits="userSpaceOnUse" x1="122.381" y1="291.906" x2="122.953" y2="291.906" gradientTransform="matrix(111.9086 3.4971 .4371 -13.9886 -13585.111 3751.868)"><stop offset="0" stop-color="#499247"/><stop offset="1" stop-color="#1b6219" stop-opacity="0"/></linearGradient><path d="M238 95l32 4v-2l-32-2z" fill-rule="evenodd" clip-rule="evenodd" fill="url(#goyo-z)"/><linearGradient id="goyo-A" gradientUnits="userSpaceOnUse" x1="122.896" y1="300.103" x2="123.468" y2="300.103" gradientTransform="matrix(143.3829 2.6229 .3991 -21.8192 -17496.932 6314.688)"><stop offset="0" stop-color="#499247"/><stop offset="1" stop-color="#1b6219" stop-opacity="0"/></linearGradient><path d="M224 89l46 4v-7l-46 3z" fill-rule="evenodd" clip-rule="evenodd" fill="url(#goyo-A)"/><linearGradient id="goyo-B" gradientUnits="userSpaceOnUse" x1="123.362" y1="298.584" x2="123.934" y2="298.584" gradientTransform="matrix(194.0914 -20.9829 -1.9075 -17.6447 -23157.863 7942.554)"><stop offset="0" stop-color="#499247"/><stop offset="1" stop-color="#1b6219" stop-opacity="0"/></linearGradient><path d="M215 85l55-2v-3h-31l-24 5z" fill-rule="evenodd" clip-rule="evenodd" fill="url(#goyo-B)"/></g><g fill-rule="evenodd" clip-rule="evenodd"><path d="M280 290H76v-10l13-15 21-18 1 1 16-16-12 18 29-39 2 1 4-6 8 5 13-4-8 1 12-3h14l6 3 2 2 2 3v2l7-5 4-1h3l2 1 1 2 3-2h3l4 3 1 4 15 24-2-5 7 9 6 11 12 4 15 20v10zM95 263l-16 17h2l14-17z" fill="#fff"/><path d="M78 290l20-25 14-11 5 3h3l31-45 5 3 12 1 3-2h14l10 8 2-3 5-4 8 7 9-7 28 47 11 3 15 25-9 1-13 6h-3l-2-1 5-1 3-3-10 4-3 3-6 1 5-3h-9l-22 7 4-4-7 3 1-3-8 5h-13l2 2-13 5-40-11 16 8-19-5-15-4 5 3-30-9v-2l-5-1h-2l2 2-9-3z"/><path d="M112 259l3 2 7 1-4 10-14 7 8-20zM135 243l4 33v8l5-10 12-16 7.595 10L175 242l6 18 21 12-4-18 5-6v-16l19 18 12 19-1-4-2-4 3-7-4-13-5-7 3 13-6-8v-4l-4-7v-7l-10 6-10-1-15 9-20-8-11-9-17 25z" fill="#fff"/></g><g fill-rule="evenodd" clip-rule="evenodd"><path d="M174.326 196.026a.485.485 0 01-.797-.328 44647.292 44647.292 0 00-1.171-12.535l-1.203-7.432a.5.5 0 00-.994.086l.004.278c0 .034.004.067.011.1l1.149 5.3a.5.5 0 01-.91.375l-.503-.788a.518.518 0 01-.074-.204l-.521-3.971a.499.499 0 00-.081-.214l-1.838-2.737a.502.502 0 01-.082-.225l-1.355-12.595a.497.497 0 01.071-.315l.575-.934a.501.501 0 00-.603-.73 23.74 23.74 0 01-.325.123.488.488 0 01-.591-.205l-.001-.002a.496.496 0 00-.923.276l.521 12.039a.496.496 0 01-.019.158l-.779 2.744a.52.52 0 00-.018.167l.208 3.381a.5.5 0 01-.981.165l-3.627-12.973a.489.489 0 01-.017-.099l-.314-4.395a.54.54 0 00-.03-.138l-3.509-9.498a.577.577 0 01-.023-.084l-2.028-11.137a.415.415 0 00-.02-.077l-2.176-6.15a.508.508 0 01-.026-.208l.113-1.387a.498.498 0 00-.174-.421l-.994-.846a.503.503 0 01-.174-.343l-.205-2.711a.51.51 0 00-.072-.224 405.68 405.68 0 01-.636-1.037.492.492 0 01-.074-.264l.027-4.865a.507.507 0 00-.116-.323l-2.414-2.896a.499.499 0 00-.884.329l.088 4.713c0 .02.002.04.005.06l1.339 9.53a.451.451 0 00.01.053l1.492 5.891a.436.436 0 01.011.052l1.084 7.504a.164.164 0 01.002.022l.726 7.391a.5.5 0 01-.911.331l-.945-1.385a.498.498 0 01-.068-.148l-.293-1.058a.501.501 0 01.056-.396l.271-.439a.506.506 0 00.074-.262v-1.01a.499.499 0 00-.205-.403l-.321-.235a.5.5 0 01-.204-.433l.208-3.531a.495.495 0 00-.025-.187l-.337-1.012a.506.506 0 01-.023-.208l.179-1.767a.498.498 0 00-.022-.206 2826.613 2826.613 0 01-.488-1.497l-.59-2.501a.576.576 0 00-.018-.059l-1.25-3.351a.495.495 0 01-1.386-3.582l-1.652-9.969-.004-.031-1.084-10.671a.47.47 0 01-.002-.075l.137-2.745a.497.497 0 00-.02-.167l-.8-2.704a1965.07 1965.07 0 00-.726-1.781.505.505 0 01-.029-.28l.377-2.036a.497.497 0 01.125-.248l.816-.882a.502.502 0 00.131-.375l-.202-2.856a.498.498 0 00-.124-.295l-1.474-1.671a.498.498 0 01-.124-.355l.185-3.806a.489.489 0 01.065-.224l1.488-2.598a.5.5 0 00-.003-.502l-.379-.643a.516.516 0 01-.062-.175l-.343-2.13a.5.5 0 00-.297-.38l-.427-.183a.502.502 0 01-.233-.715l.835-1.405a.496.496 0 00.065-.178l.29-1.85a.515.515 0 01.035-.12l1.893-4.408.007-.015 2.122-4.527a.48.48 0 01.061-.099l7.012-8.8a.517.517 0 01.077-.078l3.586-2.885a.531.531 0 01.09-.058l5.075-2.537a.532.532 0 01.078-.032l6.428-1.953a.397.397 0 01.083-.018l4.259-.532a.492.492 0 01.115-.001l4.399.473a.511.511 0 01.143.037l3.454 1.477a.53.53 0 00.067.023l3.751 1.008a.46.46 0 01.108.043 3685.17 3685.17 0 012.777 1.504 26619.216 26619.216 0 015.504 3.643l11.9 9.451c.046.037.085.08.115.13l2.445 3.973a.464.464 0 01.051.111l1.31 4.125c.013.04.02.081.023.123l.279 4.851a.5.5 0 01-.015.149 2485.76 2485.76 0 01-.558 2.239l-.307 1.793a.495.495 0 00.076.361l1.035 1.565c.057.087.086.19.082.294l-.079 2.184-.001.013-.053 5.14a.5.5 0 00.405.496l.029.005a.5.5 0 01.402.544l-.189 1.772a.454.454 0 00.608.477h.001a.452.452 0 01.607.461l-.393 5.111a.495.495 0 00.065.286l1.463 2.561a.501.501 0 01-.065.586l-2.061 2.254a.502.502 0 00-.131.337v2.594c0 .125.047.246.131.338l.765.838a.5.5 0 010 .675l-.834.909a.498.498 0 00-.13.305l-.267 4.026a.498.498 0 01-.078.237l-1.684 2.635a.552.552 0 00-.042.08l-.921 2.261-.017.039-.615 1.203a.5.5 0 00-.053.266l.177 2.276a.509.509 0 01-.074.304l-.88 1.407a.51.51 0 00-.056.126l-.715 2.476a.395.395 0 00-.016.076l-.046.369a.5.5 0 01-.891.245l-.559-.718a.501.501 0 01.086-.701l.365-.286a.499.499 0 00.15-.592l-.302-.696a.5.5 0 01.06-.502l.862-1.134a.537.537 0 00.077-.146l.575-1.752a.5.5 0 00-.089-.475l-.842-1.017a.5.5 0 01-.053-.558l.324-.594a.5.5 0 00-.13-.632l-.382-.301a.501.501 0 01-.184-.475l.232-1.389a.498.498 0 01.451-.416l.023-.002a.5.5 0 00.436-.647 254.957 254.957 0 01-.249-.8l-.288-1.257a.509.509 0 01-.004-.202l.894-4.835a.5.5 0 01.95-1.892l.606.038a.5.5 0 00.5-.324l.221-.594a.5.5 0 00-.345-.659l-.456-.116a.5.5 0 01-.375-.453l-.216-3.475a.498.498 0 01.263-.471l.503-.27a.5.5 0 00.229-.622l-.693-1.784a.501.501 0 00-.883-.094l-.513.776a.496.496 0 00-.082.241l-.495 7.145a.504.504 0 01-.135.309l-.742.784a.496.496 0 00-.136.349l.026 2.278a.507.507 0 01-.007.086l-.421 2.58a.502.502 0 01-.177.307l-.573.469a.501.501 0 00-.176.474l.248 1.396c.011.061.033.12.066.174l.447.731a.5.5 0 01.033.457l-.553 1.299a.503.503 0 01-.313.282l-.515.158a.501.501 0 00-.352.515l.119 1.576a.5.5 0 01-.258.475c-.07.04-.147.082-.22.122a.5.5 0 00-.246.55l.446 1.947c.01.043.014.087.012.132l-.109 2.794a.527.527 0 01-.021.125l-.689 2.285c-.006.023-.012.045-.015.069l-.593 3.869a.819.819 0 01-.01.048l-.529 2.066a.501.501 0 01-.323.349l-.691.235a.5.5 0 00-.338.439l-.342 4.982a.5.5 0 01-.057.2l-1.462 2.761a.54.54 0 00-.051.148l-.753 4.296a.58.58 0 01-.021.082l-1.469 4.118a.5.5 0 01-.97-.148l-.21-5.328a.494.494 0 01.022-.171l.361-1.141a.5.5 0 00-.257-.599l-.634-.312a.5.5 0 01-.172-.759l.583-.736a.502.502 0 00.106-.35l-.205-2.587a.483.483 0 00-.066-.212l-.317-.546a.499.499 0 01-.005-.492l.741-1.348a.498.498 0 00.061-.267l-.137-2.709a.5.5 0 00-.985-.095l-2.568 10.341-.002.007-1.805 6.847-.001.005-1.69 6.67a.105.105 0 01-.004.017l-.757 2.608a.5.5 0 01-.319.335l-.934.317a.5.5 0 00-.339.473v2.059a.5.5 0 00.347.476l.877.282a.499.499 0 01.345.522l-.12 1.299a.497.497 0 01-.127.289l-.83.92a.5.5 0 00-.128.31l-.244 4.872a.486.486 0 01-.058.21l-.566 1.062a.5.5 0 00-.057.276l.142 1.709a.498.498 0 00.18.343l.536.444c.086.071.146.17.17.279l.148.685a.502.502 0 01-.073.383l-.868 1.303a.503.503 0 00-.08.342l.183 1.404c.03.228-.1.447-.314.53l-.412.16a.498.498 0 01-.476-.063l-.465-.34a.504.504 0 01-.201-.343l-.208-1.712a.502.502 0 01.092-.354l.831-1.146a.5.5 0 00.092-.351l-.156-1.343a.499.499 0 00-.496-.442h-.072a.5.5 0 01-.498-.456l-.095-1.087a.524.524 0 00-.048-.174l-.603-1.252a.503.503 0 01-.003-.429l.612-1.309a.503.503 0 00.011-.397l-.44-1.1a.5.5 0 00-.406-.311l-.112-.013a.501.501 0 00-.559.504l.035 2.238a.5.5 0 01-.964.194 14.86 14.86 0 00-.097-.241.504.504 0 01-.024-.078l-.726-3.269a.414.414 0 00-.619-.266l-.001.001a.153.153 0 00-.075.138l.225 6.161-.001.055-1.017 13.865a.44.44 0 01-.158.307c.001 0 .001 0 0 0z" fill="#fff"/><path d="M158.051 60.533a.502.502 0 01-.255.054l-1.159-.065a.5.5 0 01-.422-.717l.226-.468a.504.504 0 01.369-.276l1.333-.219a.488.488 0 00.162-.056l1.917-1.068a.616.616 0 01.052-.025l2.597-1.074a.495.495 0 00.072-.038l2.518-1.562a.494.494 0 01.236-.075l4.835-.267.03-.001 4.94.023a.48.48 0 01.136.019l2.45.707c.019.005.039.01.06.013l2.26.36c.185.029.338.16.397.338l.404 1.23a.499.499 0 00.183.25l.292.211c.222.16.533.112.696-.109l.051-.071a.5.5 0 01.586-.169l.26.103a.494.494 0 01.225.176l.841 1.189a.357.357 0 00.03.038l.527.608a.5.5 0 01-.078.728l-.091.068a.494.494 0 01-.274.099l-1.877.096a.502.502 0 01-.376-.142 490.42 490.42 0 00-1.168-1.146l-1.79-1.462a.494.494 0 00-.164-.089l-3.5-1.123a.466.466 0 00-.116-.022l-2.662-.2a.442.442 0 00-.063-.001 14241.785 14241.785 0 00-4.055.209l-3.704.587c-.021.004-.042.008-.062.014l-2.326.68a.513.513 0 00-.14.066l-1.974 1.338a.365.365 0 01-.054.032l-2.375 1.209zM175.352 140.381a.403.403 0 01.709-.019l1.565 2.759a.51.51 0 01.051.131l.756 3.159a.515.515 0 01.013.141l-.387 7.521a.485.485 0 01-.032.151l-.545 1.445a.484.484 0 00-.032.196l.225 5.702a.497.497 0 01-.519.519h-.01a.5.5 0 01-.455-.342l-.379-1.137a.501.501 0 01-.006-.297l.506-1.758a.497.497 0 00-.05-.393l-.969-1.636a.511.511 0 01-.07-.247l-.104-6.635a.505.505 0 00-.052-.216l-.429-.857a.499.499 0 01-.052-.246l.054-1.23a.504.504 0 01.223-.394l.119-.079a.498.498 0 00.222-.387l.121-2.027a.504.504 0 01.074-.233l.201-.325a.5.5 0 00-.055-.6c-.122-.134-.262-.287-.355-.391a.499.499 0 01-.127-.277l-.227-1.911a.156.156 0 01.016-.087zM172.168 140.738a.5.5 0 00.948-.219l.028-7.988.004-.058.269-2.221a.499.499 0 01.989-.025l.061.353.006.045.322 4.028c.019.24.224.422.465.412h.001a.447.447 0 00.428-.447v-5.012a.5.5 0 01.955-.208l2.742 6.01c.02.046.034.094.041.144l.235 1.831a.503.503 0 00.654.411l.497-.166a.498.498 0 00.304-.283l.554-1.342a.505.505 0 00.038-.2l-.029-1.749a.5.5 0 01.207-.415l.37-.266a.498.498 0 00.174-.586l-.482-1.245a.5.5 0 01-.017-.308l.449-1.7a.435.435 0 01.03-.083l.407-.873a.503.503 0 00.032-.335l-.395-1.549a.495.495 0 01-.008-.213l.336-1.845.008-.039.538-2.029a.454.454 0 01.501-.334c.224.03.391.22.393.446l.028 3.948a.5.5 0 00.625.481l.078-.02a.5.5 0 00.372-.532l-.232-2.439a.5.5 0 01.054-.277l1.505-2.908.008-.017.864-1.831a.505.505 0 01.071-.11l2.57-3.028a.055.055 0 00.007-.009l3.498-4.318a.481.481 0 003.545-5.123l1.474-3.754a.488.488 0 00.018-.054l1.739-6.541a.5.5 0 01.187-.274l1.031-.759a.502.502 0 00.202-.376l.234-4.303a.523.523 0 00-.019-.167l-1.038-3.563a.497.497 0 00-.036-.09l-1.501-2.897a.56.56 0 00-.041-.066l-1.87-2.55a.334.334 0 01-.062-.239v-.002a.474.474 0 01.827-.257l1.725 1.949a.536.536 0 01.079.121l1.352 2.913c.01.021.025.039.043.053l.002.002a.36.36 0 00.572-.345l-.407-2.416a.482.482 0 00-.065-.175l-2.243-3.727a.474.474 0 00-.092-.112l-4.278-3.889-.009-.009-3.384-2.92-.035-.028-3.784-2.723a.489.489 0 00-.069-.042l-4.814-2.407a.516.516 0 00-.049-.021l-5.746-2.141-3.425-1.272a.566.566 0 00-.106-.026l-1.638-.225a.385.385 0 00-.319.659l.005.005 1.231 1.197c.062.06.107.135.131.219l.234.806a.497.497 0 01-.025.346l-.161.356a.504.504 0 01-.41.291l-.347.031a.5.5 0 01-.286-.06l-.549-.302a.482.482 0 00-.07-.031l-1.037-.378a.51.51 0 00-.226-.027l-2.164.237-.028.002-1.945.104a.508.508 0 00-.095.015l-.822.205a.508.508 0 00-.233.132l-.403.404a.502.502 0 01-.571.097l-.275-.133a.498.498 0 01-.266-.579l.096-.36a.5.5 0 01.406-.366 745.8 745.8 0 001.019-.158.499.499 0 01.453.165l.119.136a.502.502 0 00.498.156l.355-.089a.497.497 0 00.314-.24l.089-.157a.5.5 0 01.389-.253l2.026-.19.014-.001 1.635-.199a.446.446 0 00.353-.258.444.444 0 00-.034-.436v-.001a.317.317 0 00-.272-.141l-4.725.102a.564.564 0 00-.092.011l-2.442.516a.475.475 0 00-.11.037l-2.575 1.211-.047.025-2.963 1.803a.518.518 0 00-.109.089l-3.266 3.553a.54.54 0 00-.047.06l-3.389 5.056a.563.563 0 00-.038.068l-1.902 4.092a.452.452 0 00-.038.118l-.37 1.972a.532.532 0 00-.009.105l.054 2.19a.512.512 0 00.05.206l.801 1.655a.542.542 0 00.026.048l.746 1.188a.319.319 0 00.03.042l.212.271a.503.503 0 01.107.318l-.14 7.897c0 .017 0 .034.002.051l.316 3.695a.605.605 0 00.015.085l.842 3.193a.821.821 0 00.017.053l.1.256a.465.465 0 00.896-.231v-.001a.488.488 0 01-.829-3.462l-.247-3.593-.001-.041.071-5.672v-.013l-.031-2.318a.5.5 0 01.248-.439l.294-.171a.498.498 0 01.585.059l.077.069c.19.17.222.454.074.662l-.46.648a.498.498 0 00-.087.219l-.192 1.344a.57.57 0 00-.005.083l.142 5.731c0 .023.002.045.006.067l.709 4.432.006.03.848 3.819a.548.548 0 00.022.072l1.436 3.711a.452.452 0 00.052.1l1.39 2.051.025.034 1.954 2.415.008.01 2.029 2.378a.483.483 0 01.075.12l.913 2.027a.564.564 0 01.037.121l.287 1.693a.498.498 0 00.123.252l.961 1.057.03.037 1.012 1.35c.033.043.058.09.075.141l.333 1a.5.5 0 01.022.217l-.301 2.547a.456.456 0 00.002.133l.15 1.005a.502.502 0 00.416.42l.1.016a.501.501 0 00.559-.353l.298-1.02a.507.507 0 00.013-.056l.204-1.191a.535.535 0 00.007-.07l.104-3.552a.16.16 0 01.054-.114l.002-.001a.423.423 0 01.698.237l.413 2.119a.481.481 0 00.069.171l.995 1.574a.503.503 0 01.076.225l.196 2.283a.484.484 0 00.058.196l.327.603a.499.499 0 01.048.349l-.138.604v.002l-.25 1.124a.497.497 0 00.034.318l.557 1.206a.59.59 0 01.029.08l.524 1.957.004.018.43 1.884a.492.492 0 00.147.255l.816.76a.501.501 0 01.146.25l.525 2.2a.574.574 0 00.038.105l.055.111z"/></g></g></switch></svg>