<svg xmlns="http://www.w3.org/2000/svg" viewBox="0 0 350 350"><switch><g><path fill-rule="evenodd" clip-rule="evenodd" fill="#fff" d="M60 60H290V290H60z"/><path fill-rule="evenodd" clip-rule="evenodd" d="M70 70H280V280H70z"/><linearGradient id="a" gradientUnits="userSpaceOnUse" x1="175" y1="80" x2="175" y2="270"><stop offset="0" stop-color="#156609"/><stop offset="1" stop-color="#115107"/></linearGradient><path fill-rule="evenodd" clip-rule="evenodd" fill="url(#a)" d="M80 80H270V270H80z"/><linearGradient id="b" gradientUnits="userSpaceOnUse" x1="126.773" y1="317.963" x2="127.345" y2="317.963" gradientTransform="scale(-111.9632 111.9632) rotate(-1.79 -10091.16 4249.163)"><stop offset="0" stop-color="#499247"/><stop offset="1" stop-color="#1b6219" stop-opacity="0"/></linearGradient><path d="M80,80h18l18,3l-36-1V80z" fill-rule="evenodd" clip-rule="evenodd" fill="url(#b)"/><linearGradient id="c" gradientUnits="userSpaceOnUse" x1="125.98" y1="326.498" x2="126.552" y2="326.498" gradientTransform="matrix(-211.5771 3.4971 .4561 27.597 26608.559 -9363.324)"><stop offset="0" stop-color="#499247"/><stop offset="1" stop-color="#1b6219" stop-opacity="0"/></linearGradient><path d="M126,88l-46-3v6L126,88z" fill-rule="evenodd" clip-rule="evenodd" fill="url(#c)"/><linearGradient id="d" gradientUnits="userSpaceOnUse" x1="126.416" y1="316.64" x2="126.988" y2="316.64" gradientTransform="scale(-179.2094 179.2094) rotate(5.599 3295.014 -1141.483)"><stop offset="0" stop-color="#499247"/><stop offset="1" stop-color="#1b6219" stop-opacity="0"/></linearGradient><path d="M132,93l-52,2v6L132,93z" fill-rule="evenodd" clip-rule="evenodd" fill="url(#d)"/><linearGradient id="e" gradientUnits="userSpaceOnUse" x1="128.635" y1="317.829" x2="129.207" y2="317.829" gradientTransform="scale(-80.7378 80.7378) rotate(17.65 1082.918 -259.236)"><stop offset="0" stop-color="#499247"/><stop offset="1" stop-color="#1b6219" stop-opacity="0"/></linearGradient><path d="M114,107l-34,9v3L114,107z" fill-rule="evenodd" clip-rule="evenodd" fill="url(#e)"/><linearGradient id="f" gradientUnits="userSpaceOnUse" x1="126.349" y1="315.825" x2="126.921" y2="315.825" gradientTransform="scale(-239.0176 239.0176) rotate(22.813 844.487 -156.314)"><stop offset="0" stop-color="#499247"/><stop offset="1" stop-color="#1b6219" stop-opacity="0"/></linearGradient><path d="M128,107l-48,16v8L128,107z" fill-rule="evenodd" clip-rule="evenodd" fill="url(#f)"/><linearGradient id="g" gradientUnits="userSpaceOnUse" x1="126.948" y1="315.886" x2="127.519" y2="315.886" gradientTransform="scale(-177.65 177.65) rotate(28.836 676.263 -90.133)"><stop offset="0" stop-color="#499247"/><stop offset="1" stop-color="#1b6219" stop-opacity="0"/></linearGradient><path d="M136,109l-56,26v8L136,109" fill-rule="evenodd" clip-rule="evenodd" fill="url(#g)"/><linearGradient id="h" gradientUnits="userSpaceOnUse" x1="127.32" y1="315.479" x2="127.892" y2="315.479" gradientTransform="scale(-153.6356 153.6356) rotate(41.309 480.61 -11.798)"><stop offset="0" stop-color="#499247"/><stop offset="1" stop-color="#1b6219" stop-opacity="0"/></linearGradient><path d="M125,128l-45,36v5L125,128z" fill-rule="evenodd" clip-rule="evenodd" fill="url(#h)"/><linearGradient id="i" gradientUnits="userSpaceOnUse" x1="126.313" y1="315.177" x2="126.885" y2="315.177" gradientTransform="scale(-281.9161 281.9161) rotate(44.497 447.599 2.82)"><stop offset="0" stop-color="#499247"/><stop offset="1" stop-color="#1b6219" stop-opacity="0"/></linearGradient><path d="M139,123l-38,43l-21,20v-9l17-18L139,123z" fill-rule="evenodd" clip-rule="evenodd" fill="url(#i)"/><linearGradient id="j" gradientUnits="userSpaceOnUse" x1="127.052" y1="315.058" x2="127.624" y2="315.058" gradientTransform="scale(-182.464 182.464) rotate(50.054 399.802 20.96)"><stop offset="0" stop-color="#499247"/><stop offset="1" stop-color="#1b6219" stop-opacity="0"/></linearGradient><path d="M144,125l-34.5,48L80,205v-7l25-31L144,125z" fill-rule="evenodd" clip-rule="evenodd" fill="url(#j)"/><linearGradient id="k" gradientUnits="userSpaceOnUse" x1="126.314" y1="314.716" x2="126.885" y2="314.716" gradientTransform="scale(-270.6221 270.6221) rotate(62.276 322.917 52.645)"><stop offset="0" stop-color="#499247"/><stop offset="1" stop-color="#1b6219" stop-opacity="0"/></linearGradient><path d="M143,146L82,270h-2v-15L143,146z" fill-rule="evenodd" clip-rule="evenodd" fill="url(#k)"/><linearGradient id="l" gradientUnits="userSpaceOnUse" x1="126.718" y1="314.43" x2="127.29" y2="314.43" gradientTransform="scale(-191.945 191.945) rotate(66.938 300.132 61.267)"><stop offset="0" stop-color="#499247"/><stop offset="1" stop-color="#1b6219" stop-opacity="0"/></linearGradient><path d="M154,135l-17,51l-40,84l33-87L154,135z" fill-rule="evenodd" clip-rule="evenodd" fill="url(#l)"/><linearGradient id="m" gradientUnits="userSpaceOnUse" x1="126.392" y1="314.387" x2="126.964" y2="314.387" gradientTransform="scale(-244.5251 244.5251) rotate(73.379 273.46 72.227)"><stop offset="0" stop-color="#499247"/><stop offset="1" stop-color="#1b6219" stop-opacity="0"/></linearGradient><path d="M142,182l-25,88l33-89l8-42L142,182z" fill-rule="evenodd" clip-rule="evenodd" fill="url(#m)"/><linearGradient id="n" gradientUnits="userSpaceOnUse" x1="126.33" y1="314.137" x2="126.902" y2="314.137" gradientTransform="scale(-243.5792 243.5792) rotate(82.161 242.681 84.46)"><stop offset="0" stop-color="#499247"/><stop offset="1" stop-color="#1b6219" stop-opacity="0"/></linearGradient><path d="M168,156l-7,49l-7,65h5L168,156z" fill-rule="evenodd" clip-rule="evenodd" fill="url(#n)"/><linearGradient id="o" gradientUnits="userSpaceOnUse" x1="126.216" y1="313.947" x2="126.788" y2="313.947" gradientTransform="scale(-237.8635 237.8635) rotate(88.736 222.92 92.374)"><stop offset="0" stop-color="#499247"/><stop offset="1" stop-color="#1b6219"/></linearGradient><path d="M169,196l3,74l5-74l-4-57L169,196z" fill-rule="evenodd" clip-rule="evenodd" fill="url(#o)"/><linearGradient id="p" gradientUnits="userSpaceOnUse" x1="126.063" y1="313.904" x2="126.634" y2="313.904" gradientTransform="scale(255.9118 -255.9118) rotate(-85.297 -107.277 224.76)"><stop offset="0" stop-color="#499247"/><stop offset="1" stop-color="#1b6219"/></linearGradient><path d="M188,195l-9-53l3,54l7,74L188,195z" fill-rule="evenodd" clip-rule="evenodd" fill="url(#p)"/><linearGradient id="q" gradientUnits="userSpaceOnUse" x1="125.907" y1="313.428" x2="126.479" y2="313.428" gradientTransform="scale(210.8824 -210.8824) rotate(-74.12 -144.562 239.108)"><stop offset="0" stop-color="#499247"/><stop offset="1" stop-color="#1b6219" stop-opacity="0"/></linearGradient><path d="M192,149l34,121h9L192,149z" fill-rule="evenodd" clip-rule="evenodd" fill="url(#q)"/><linearGradient id="r" gradientUnits="userSpaceOnUse" x1="125.698" y1="314.322" x2="126.27" y2="314.322" gradientTransform="matrix(76.9371 190.5943 487.075 -196.6164 -162565.828 38004.39)"><stop offset="0" stop-color="#499247"/><stop offset="1" stop-color="#1b6219" stop-opacity="0"/></linearGradient><path d="M192,132l26,55l28,83l-32.5-74L192,132z" fill-rule="evenodd" clip-rule="evenodd" fill="url(#r)"/><linearGradient id="s" gradientUnits="userSpaceOnUse" x1="125.68" y1="313.993" x2="126.252" y2="313.993" gradientTransform="matrix(87.4286 174.8571 331.0623 -165.5315 -114738.469 30134.334)"><stop offset="0" stop-color="#499247"/><stop offset="1" stop-color="#1b6219" stop-opacity="0"/></linearGradient><path d="M195,128l34,55l41,87l-45-78L195,128z" fill-rule="evenodd" clip-rule="evenodd" fill="url(#s)"/><linearGradient id="t" gradientUnits="userSpaceOnUse" x1="125.313" y1="313.441" x2="125.885" y2="313.441" gradientTransform="scale(256.4267 -256.4267) rotate(-51.645 -261.25 285.253)"><stop offset="0" stop-color="#499247"/><stop offset="1" stop-color="#1b6219"/></linearGradient><path d="M213.5,135l56.5,66v10L213.5,135" fill-rule="evenodd" clip-rule="evenodd" fill="url(#t)"/><linearGradient id="u" gradientUnits="userSpaceOnUse" x1="125.027" y1="313.534" x2="125.599" y2="313.534" gradientTransform="matrix(174.8571 183.6 201.3672 -191.7781 -84776.39 37309.148)"><stop offset="0" stop-color="#499247"/><stop offset="1" stop-color="#1b6219" stop-opacity="0"/></linearGradient><path d="M208,123l40,36l22,23v9l-28.25-29L208,123z" fill-rule="evenodd" clip-rule="evenodd" fill="url(#u)"/><linearGradient id="v" gradientUnits="userSpaceOnUse" x1="124.836" y1="312.565" x2="125.408" y2="312.565" gradientTransform="matrix(150.3771 120.6514 105.0835 -130.9736 -51409.758 25992.836)"><stop offset="0" stop-color="#499247"/><stop offset="1" stop-color="#1b6219" stop-opacity="0"/></linearGradient><path d="M270,171l-62-54l41,28l21,19V171z" fill-rule="evenodd" clip-rule="evenodd" fill="url(#v)"/><linearGradient id="w" gradientUnits="userSpaceOnUse" x1="124.212" y1="310.177" x2="124.784" y2="310.177" gradientTransform="matrix(131.1429 68.1943 38.1888 -73.44 -27916.14 14421.651)"><stop offset="0" stop-color="#499247"/><stop offset="1" stop-color="#1b6219" stop-opacity="0"/></linearGradient><path d="M232.5,120l37.5,21v-3L232.5,120z" fill-rule="evenodd" clip-rule="evenodd" fill="url(#w)"/><linearGradient id="x" gradientUnits="userSpaceOnUse" x1="124.043" y1="309.334" x2="124.615" y2="309.334" gradientTransform="matrix(127.6457 62.9486 31.4743 -63.8229 -25334.2 12046.217)"><stop offset="0" stop-color="#499247"/><stop offset="1" stop-color="#1b6219" stop-opacity="0"/></linearGradient><path d="M218,107l52,26v-8L218,107" fill-rule="evenodd" clip-rule="evenodd" fill="url(#x)"/><linearGradient id="y" gradientUnits="userSpaceOnUse" x1="124.285" y1="310.61" x2="124.857" y2="310.61" gradientTransform="matrix(234.3086 69.9429 24.7585 -82.941 -36609.3 17166.182)"><stop offset="0" stop-color="#499247"/><stop offset="1" stop-color="#1b6219" stop-opacity="0"/></linearGradient><path d="M213.5,101l56.5,20v-8L213.5,101z" fill-rule="evenodd" clip-rule="evenodd" fill="url(#y)"/><linearGradient id="z" gradientUnits="userSpaceOnUse" x1="122.381" y1="291.906" x2="122.953" y2="291.906" gradientTransform="matrix(111.9086 3.4971 .4371 -13.9886 -13585.111 3751.868)"><stop offset="0" stop-color="#499247"/><stop offset="1" stop-color="#1b6219" stop-opacity="0"/></linearGradient><path d="M238,95l32,4v-2L238,95z" fill-rule="evenodd" clip-rule="evenodd" fill="url(#z)"/><linearGradient id="A" gradientUnits="userSpaceOnUse" x1="122.896" y1="300.103" x2="123.468" y2="300.103" gradientTransform="matrix(143.3829 2.6229 .3991 -21.8192 -17496.932 6314.688)"><stop offset="0" stop-color="#499247"/><stop offset="1" stop-color="#1b6219" stop-opacity="0"/></linearGradient><path d="M224,89l46,4v-7L224,89z" fill-rule="evenodd" clip-rule="evenodd" fill="url(#A)"/><linearGradient id="B" gradientUnits="userSpaceOnUse" x1="123.362" y1="298.584" x2="123.934" y2="298.584" gradientTransform="matrix(194.0914 -20.9829 -1.9075 -17.6447 -23157.863 7942.554)"><stop offset="0" stop-color="#499247"/><stop offset="1" stop-color="#1b6219" stop-opacity="0"/></linearGradient><path d="M215,85l55-2v-3h-31L215,85z" fill-rule="evenodd" clip-rule="evenodd" fill="url(#B)"/><g fill-rule="evenodd" clip-rule="evenodd"><path d="M280,290H76v-10l13-15l21-18l1,1l16-16l-12,18l29-39l2,1 l4-6l8,5l13-4l-8,1l12-3h14l6,3l2,2l2,3v2l7-5l4-1h3l2,1l1,2l3-2h3l4,3l1,4l15,24l-2-5l7,9l6,11l12,4l15,20V290z M95,263l-16,17 h2L95,263z" fill="#fff"/><path d="M78,290l20-25l14-11l5,3h3l31-45l5,3l12,1l3-2h14l10,8l2-3l5-4l8,7l9-7 l28,47l11,3l15,25l-9,1l-13,6h-3l-2-1l5-1l3-3l-10,4l-3,3l-6,1l5-3h-9l-22,7l4-4l-7,3l1-3l-8,5h-13l2,2l-13,5l-40-11l16,8l-19-5 l-15-4l5,3l-30-9v-2l-5-1h-2l2,2L78,290z"/><path d="M112 259l3 2 7 1-4 10-14 7L112 259zM135 243l4 33v8l5-10 12-16 7.595 10L175 242l6 18 21 12-4-18 5-6v-16l19 18 12 19-1-4-2-4 3-7-4-13-5-7 3 13-6-8v-4l-4-7v-7l-10 6-10-1-15 9-20-8-11-9L135 243z" fill="#fff"/></g><g fill-rule="evenodd" clip-rule="evenodd"><path d="M174.326,196.026c-0.138,0.116-0.33,0.146-0.497,0.077 c-0.168-0.069-0.283-0.225-0.3-0.405c-0.276-2.962-1.125-12.058-1.167-12.501c-0.001-0.012-0.002-0.023-0.004-0.034 c-0.045-0.275-0.634-3.919-1.203-7.432c-0.042-0.258-0.276-0.441-0.537-0.418s-0.46,0.243-0.457,0.504 c0.002,0.129,0.003,0.225,0.004,0.278c0,0.034,0.004,0.067,0.011,0.1c0.086,0.398,0.679,3.132,1.149,5.3 c0.052,0.237-0.074,0.476-0.298,0.568s-0.481,0.011-0.612-0.193c-0.224-0.352-0.412-0.645-0.503-0.788 c-0.039-0.062-0.064-0.132-0.074-0.204c-0.077-0.59-0.442-3.367-0.521-3.971c-0.01-0.077-0.038-0.15-0.081-0.214 c-0.298-0.445-1.532-2.281-1.838-2.737c-0.045-0.067-0.073-0.144-0.082-0.225c-0.131-1.221-1.202-11.169-1.355-12.595 c-0.012-0.11,0.013-0.221,0.071-0.315c0.12-0.195,0.344-0.558,0.575-0.934c0.112-0.182,0.096-0.416-0.04-0.581 c-0.137-0.165-0.363-0.225-0.563-0.149c-0.117,0.045-0.227,0.087-0.325,0.123c-0.22,0.084-0.47-0.003-0.591-0.205 c0-0.001,0-0.002-0.001-0.002c-0.116-0.196-0.351-0.287-0.569-0.222c-0.218,0.066-0.364,0.271-0.354,0.498 c0.158,3.649,0.484,11.179,0.521,12.039c0.002,0.053-0.004,0.107-0.019,0.158c-0.116,0.41-0.659,2.323-0.779,2.744 c-0.015,0.054-0.021,0.11-0.018,0.167c0.022,0.359,0.111,1.807,0.208,3.381c0.015,0.255-0.164,0.481-0.416,0.523 c-0.252,0.043-0.496-0.112-0.565-0.358c-1.388-4.964-3.441-12.308-3.627-12.973c-0.009-0.033-0.015-0.066-0.017-0.099 c-0.033-0.456-0.276-3.859-0.314-4.395c-0.004-0.047-0.014-0.094-0.03-0.138c-0.301-0.816-3.271-8.855-3.509-9.498 c-0.01-0.027-0.017-0.055-0.023-0.084c-0.132-0.726-1.901-10.44-2.028-11.137c-0.004-0.026-0.011-0.052-0.02-0.077 c-0.17-0.479-1.904-5.383-2.176-6.15c-0.023-0.067-0.032-0.138-0.026-0.208c0.022-0.272,0.081-0.997,0.113-1.387 c0.013-0.16-0.051-0.317-0.174-0.421c-0.268-0.229-0.746-0.635-0.994-0.846c-0.101-0.087-0.164-0.21-0.174-0.343 c-0.045-0.588-0.17-2.249-0.205-2.711c-0.006-0.079-0.031-0.156-0.072-0.224c-0.142-0.231-0.485-0.789-0.636-1.037 c-0.049-0.079-0.075-0.171-0.074-0.264c0.004-0.73,0.022-4.047,0.027-4.865c0-0.118-0.041-0.232-0.116-0.323 c-0.374-0.448-1.565-1.877-2.414-2.896c-0.136-0.163-0.36-0.223-0.559-0.148c-0.198,0.074-0.329,0.265-0.325,0.477 c0.032,1.713,0.082,4.399,0.088,4.713c0,0.02,0.002,0.04,0.005,0.06c0.079,0.568,1.263,8.993,1.339,9.53 c0.002,0.018,0.006,0.036,0.01,0.053c0.104,0.411,1.39,5.488,1.492,5.891c0.005,0.017,0.008,0.034,0.011,0.052 c0.067,0.47,1.039,7.191,1.084,7.504c0.001,0.007,0.002,0.015,0.002,0.022c0.025,0.255,0.465,4.731,0.726,7.391 c0.022,0.228-0.112,0.441-0.327,0.519s-0.455,0.001-0.584-0.188c-0.411-0.603-0.811-1.189-0.945-1.385 c-0.03-0.045-0.054-0.095-0.068-0.148c-0.057-0.205-0.209-0.754-0.293-1.058c-0.037-0.134-0.017-0.277,0.056-0.396 c0.085-0.137,0.197-0.32,0.271-0.439c0.048-0.079,0.074-0.17,0.074-0.262c0-0.236,0-0.714,0-1.01 c0-0.159-0.076-0.309-0.205-0.403c-0.1-0.073-0.219-0.16-0.321-0.235c-0.137-0.1-0.214-0.263-0.204-0.433 c0.047-0.786,0.179-3.038,0.208-3.531c0.004-0.063-0.005-0.127-0.025-0.187c-0.073-0.221-0.26-0.781-0.337-1.012 c-0.022-0.067-0.03-0.138-0.023-0.208c0.035-0.345,0.144-1.424,0.179-1.767c0.007-0.069,0-0.139-0.022-0.206 c-0.105-0.32-0.427-1.303-0.477-1.456c-0.004-0.013-0.008-0.027-0.011-0.041c-0.053-0.225-0.526-2.229-0.59-2.501 c-0.005-0.02-0.011-0.04-0.018-0.059c-0.121-0.325-1.207-3.235-1.25-3.351c-0.001-0.002-0.002-0.005-0.002-0.007 c-0.046-0.116-1.194-3.059-1.356-3.475c-0.013-0.032-0.022-0.066-0.028-0.1c-0.125-0.754-1.582-9.549-1.652-9.969 c-0.002-0.01-0.003-0.021-0.004-0.031c-0.045-0.44-1.016-9.995-1.084-10.671c-0.003-0.025-0.003-0.05-0.002-0.075 c0.015-0.301,0.115-2.305,0.137-2.745c0.003-0.056-0.004-0.113-0.02-0.167c-0.128-0.434-0.728-2.46-0.8-2.704 c-0.005-0.016-0.01-0.032-0.017-0.047c-0.073-0.179-0.545-1.334-0.709-1.734c-0.036-0.088-0.046-0.186-0.029-0.28 c0.078-0.417,0.3-1.621,0.377-2.036c0.017-0.093,0.061-0.179,0.125-0.248c0.187-0.203,0.596-0.645,0.816-0.882 c0.093-0.102,0.141-0.237,0.131-0.375c-0.043-0.606-0.163-2.312-0.202-2.856c-0.008-0.109-0.051-0.213-0.124-0.295 c-0.304-0.345-1.145-1.298-1.474-1.671c-0.086-0.098-0.131-0.225-0.124-0.355c0.035-0.732,0.157-3.229,0.185-3.806 c0.003-0.079,0.026-0.156,0.065-0.224c0.24-0.419,1.135-1.982,1.488-2.598c0.089-0.156,0.088-0.347-0.003-0.502 c-0.125-0.212-0.296-0.504-0.379-0.643c-0.031-0.054-0.052-0.113-0.062-0.175c-0.056-0.347-0.254-1.577-0.343-2.13 c-0.027-0.169-0.139-0.312-0.297-0.38c-0.124-0.053-0.279-0.119-0.427-0.183c-0.132-0.056-0.234-0.167-0.278-0.304 c-0.045-0.137-0.028-0.287,0.045-0.411c0.285-0.479,0.695-1.169,0.835-1.405c0.033-0.055,0.055-0.115,0.065-0.178 c0.055-0.35,0.245-1.562,0.29-1.85c0.007-0.041,0.018-0.081,0.035-0.12c0.218-0.509,1.812-4.218,1.893-4.408 c0.002-0.005,0.004-0.01,0.007-0.015c0.089-0.191,1.888-4.028,2.122-4.527c0.016-0.035,0.037-0.069,0.061-0.099 c0.525-0.658,6.503-8.161,7.012-8.8c0.023-0.029,0.049-0.055,0.077-0.078c0.384-0.308,3.208-2.581,3.586-2.885 c0.028-0.022,0.058-0.042,0.09-0.058c0.493-0.246,4.635-2.317,5.075-2.537c0.025-0.013,0.051-0.023,0.078-0.032 c0.521-0.158,5.904-1.794,6.428-1.953c0.027-0.009,0.055-0.015,0.083-0.018c0.417-0.052,3.776-0.472,4.259-0.532 c0.038-0.005,0.077-0.005,0.115-0.001c0.484,0.052,3.854,0.414,4.399,0.473c0.049,0.005,0.097,0.018,0.143,0.037 c0.463,0.199,3.128,1.338,3.454,1.477c0.022,0.009,0.044,0.017,0.067,0.023c0.351,0.094,3.304,0.888,3.751,1.008 c0.038,0.01,0.074,0.024,0.108,0.043c0.362,0.195,2.512,1.358,2.739,1.481c0.013,0.007,0.026,0.015,0.038,0.023 c0.336,0.222,5.137,3.397,5.469,3.617c0.012,0.008,0.024,0.017,0.035,0.026c0.48,0.381,10.951,8.697,11.9,9.451 c0.046,0.037,0.085,0.08,0.115,0.13c0.318,0.516,2.177,3.538,2.445,3.973c0.022,0.035,0.039,0.072,0.051,0.111 c0.15,0.472,1.159,3.648,1.31,4.125c0.013,0.04,0.02,0.081,0.023,0.123c0.03,0.531,0.245,4.269,0.279,4.851 c0.002,0.05-0.002,0.1-0.015,0.149c-0.092,0.37-0.502,2.011-0.55,2.202c-0.003,0.012-0.006,0.025-0.008,0.037 c-0.027,0.161-0.227,1.324-0.307,1.793c-0.022,0.126,0.005,0.255,0.076,0.361c0.241,0.364,0.814,1.231,1.035,1.565 c0.057,0.087,0.086,0.19,0.082,0.294c-0.018,0.51-0.075,2.071-0.079,2.184c-0.001,0.005-0.001,0.009-0.001,0.013 c-0.002,0.177-0.04,3.878-0.053,5.14c-0.002,0.241,0.168,0.45,0.405,0.496c0.01,0.002,0.019,0.003,0.029,0.005 c0.255,0.05,0.43,0.286,0.402,0.544c-0.05,0.473-0.13,1.218-0.189,1.772c-0.017,0.156,0.048,0.31,0.172,0.407 s0.289,0.123,0.436,0.07c0.001,0,0.001,0,0.001,0c0.145-0.053,0.307-0.028,0.429,0.065c0.123,0.094,0.19,0.243,0.178,0.396 c-0.106,1.385-0.338,4.398-0.393,5.111c-0.008,0.099,0.015,0.199,0.065,0.286c0.256,0.449,1.092,1.911,1.463,2.561 c0.108,0.189,0.081,0.425-0.065,0.586c-0.511,0.558-1.67,1.827-2.061,2.254c-0.084,0.092-0.131,0.213-0.131,0.337 c0,0.54,0,2.055,0,2.594c0,0.125,0.047,0.246,0.131,0.338c0.182,0.199,0.518,0.566,0.765,0.838c0.175,0.191,0.175,0.484,0,0.675 c-0.269,0.293-0.645,0.703-0.834,0.909c-0.077,0.084-0.123,0.192-0.13,0.305c-0.048,0.716-0.226,3.406-0.267,4.026 c-0.006,0.085-0.032,0.166-0.078,0.237c-0.302,0.472-1.497,2.343-1.684,2.635c-0.016,0.025-0.03,0.052-0.042,0.08 c-0.12,0.296-0.837,2.055-0.921,2.261c-0.005,0.013-0.011,0.026-0.017,0.039c-0.067,0.13-0.459,0.897-0.615,1.203 c-0.042,0.082-0.06,0.174-0.053,0.266c0.035,0.442,0.14,1.803,0.177,2.276c0.008,0.106-0.018,0.213-0.074,0.304 c-0.21,0.335-0.736,1.176-0.88,1.407c-0.024,0.039-0.043,0.081-0.056,0.126c-0.108,0.373-0.633,2.19-0.715,2.476 c-0.008,0.025-0.013,0.05-0.016,0.076c-0.008,0.064-0.025,0.202-0.046,0.369c-0.025,0.201-0.169,0.367-0.364,0.42 c-0.195,0.054-0.403-0.015-0.527-0.175c-0.197-0.253-0.4-0.513-0.559-0.718c-0.169-0.218-0.13-0.531,0.086-0.701 c0.121-0.094,0.251-0.196,0.365-0.286c0.179-0.14,0.241-0.384,0.15-0.592c-0.095-0.219-0.215-0.496-0.302-0.696 c-0.073-0.166-0.049-0.358,0.06-0.502c0.255-0.335,0.71-0.934,0.862-1.134c0.033-0.044,0.059-0.094,0.077-0.146 c0.094-0.287,0.419-1.275,0.575-1.752c0.054-0.163,0.02-0.342-0.089-0.475c-0.222-0.268-0.603-0.728-0.842-1.017 c-0.13-0.158-0.151-0.379-0.053-0.558c0.097-0.178,0.22-0.405,0.324-0.594c0.116-0.214,0.062-0.481-0.13-0.632 c-0.126-0.099-0.267-0.21-0.382-0.301c-0.143-0.113-0.214-0.295-0.184-0.475c0.061-0.364,0.165-0.987,0.232-1.389 c0.037-0.226,0.223-0.397,0.451-0.416c0.008-0.001,0.015-0.001,0.023-0.002c0.151-0.012,0.289-0.093,0.373-0.219 c0.085-0.126,0.108-0.283,0.063-0.428c-0.102-0.325-0.212-0.679-0.238-0.763c-0.004-0.012-0.008-0.024-0.011-0.037 c-0.031-0.136-0.221-0.965-0.288-1.257c-0.015-0.066-0.016-0.135-0.004-0.202c0.125-0.676,0.832-4.497,0.894-4.835 c0.003-0.016,0.007-0.032,0.012-0.047c0.043-0.15,0.282-0.982,0.427-1.484c0.065-0.225,0.277-0.375,0.511-0.361 c0.192,0.012,0.419,0.027,0.606,0.038c0.22,0.014,0.423-0.118,0.5-0.324c0.066-0.177,0.147-0.397,0.221-0.594 c0.049-0.132,0.04-0.28-0.026-0.406s-0.182-0.217-0.319-0.253c-0.154-0.039-0.317-0.08-0.456-0.116 c-0.21-0.054-0.362-0.237-0.375-0.453c-0.05-0.803-0.169-2.714-0.216-3.475c-0.012-0.195,0.09-0.379,0.263-0.471 c0.15-0.081,0.338-0.182,0.503-0.27c0.222-0.12,0.321-0.387,0.229-0.622c-0.176-0.453-0.464-1.195-0.693-1.784 c-0.068-0.174-0.227-0.296-0.413-0.316c-0.186-0.02-0.367,0.066-0.47,0.222c-0.202,0.304-0.407,0.616-0.513,0.776 c-0.048,0.072-0.076,0.155-0.082,0.241c-0.062,0.896-0.423,6.109-0.495,7.145c-0.008,0.115-0.056,0.225-0.135,0.309 c-0.188,0.198-0.545,0.576-0.742,0.784c-0.089,0.094-0.138,0.219-0.136,0.349c0.006,0.542,0.023,2.007,0.026,2.278 c0,0.028-0.002,0.057-0.007,0.086c-0.048,0.293-0.328,2.007-0.421,2.58c-0.02,0.121-0.083,0.23-0.177,0.307 c-0.153,0.125-0.395,0.323-0.573,0.469c-0.14,0.114-0.207,0.296-0.176,0.474c0.073,0.41,0.202,1.139,0.248,1.396 c0.011,0.061,0.033,0.12,0.066,0.174c0.095,0.155,0.307,0.502,0.447,0.731c0.084,0.138,0.097,0.309,0.033,0.457 c-0.146,0.342-0.413,0.97-0.553,1.299c-0.058,0.135-0.172,0.238-0.313,0.282c-0.147,0.045-0.344,0.105-0.515,0.158 c-0.223,0.069-0.369,0.283-0.352,0.515c0.034,0.447,0.088,1.164,0.119,1.576c0.014,0.195-0.086,0.381-0.258,0.475 c-0.07,0.04-0.147,0.082-0.22,0.122c-0.195,0.108-0.296,0.332-0.246,0.55c0.133,0.58,0.383,1.671,0.446,1.947 c0.01,0.043,0.014,0.087,0.012,0.132c-0.015,0.392-0.094,2.409-0.109,2.794c-0.002,0.043-0.009,0.084-0.021,0.125 c-0.104,0.343-0.61,2.025-0.689,2.285c-0.006,0.023-0.012,0.045-0.015,0.069c-0.057,0.369-0.545,3.558-0.593,3.869 c-0.003,0.016-0.006,0.032-0.01,0.048c-0.049,0.193-0.384,1.499-0.529,2.066c-0.042,0.163-0.163,0.294-0.323,0.349 c-0.2,0.068-0.478,0.163-0.691,0.235c-0.191,0.065-0.324,0.238-0.338,0.439c-0.073,1.063-0.299,4.35-0.342,4.982 c-0.005,0.07-0.024,0.138-0.057,0.2c-0.238,0.448-1.255,2.37-1.462,2.761c-0.024,0.046-0.041,0.096-0.051,0.148 c-0.097,0.553-0.681,3.884-0.753,4.296c-0.005,0.028-0.012,0.055-0.021,0.082c-0.111,0.311-0.851,2.385-1.469,4.118 c-0.08,0.226-0.309,0.363-0.546,0.327c-0.237-0.037-0.415-0.236-0.424-0.475c-0.083-2.106-0.19-4.812-0.21-5.328 c-0.003-0.058,0.005-0.116,0.022-0.171c0.066-0.206,0.239-0.755,0.361-1.141c0.074-0.236-0.035-0.49-0.257-0.599 c-0.19-0.094-0.424-0.209-0.634-0.312c-0.136-0.066-0.234-0.191-0.268-0.338c-0.033-0.148,0.002-0.303,0.096-0.421 c0.205-0.259,0.442-0.559,0.583-0.736c0.078-0.099,0.116-0.224,0.106-0.35c-0.044-0.559-0.17-2.149-0.205-2.587 c-0.005-0.075-0.028-0.147-0.066-0.212c-0.075-0.13-0.212-0.366-0.317-0.546c-0.088-0.152-0.09-0.338-0.005-0.492 c0.205-0.373,0.586-1.066,0.741-1.348c0.045-0.082,0.066-0.174,0.061-0.267c-0.019-0.389-0.077-1.524-0.137-2.709 c-0.012-0.248-0.204-0.449-0.451-0.473c-0.247-0.023-0.474,0.137-0.534,0.378c-0.987,3.975-2.527,10.173-2.568,10.341 c-0.001,0.002-0.002,0.004-0.002,0.007c-0.046,0.171-1.768,6.705-1.805,6.847c-0.001,0.001-0.001,0.003-0.001,0.005 c-0.036,0.139-1.624,6.41-1.69,6.67c-0.001,0.006-0.002,0.011-0.004,0.017c-0.04,0.136-0.562,1.937-0.757,2.608 c-0.045,0.157-0.164,0.282-0.319,0.335c-0.254,0.086-0.651,0.221-0.934,0.317c-0.202,0.069-0.339,0.259-0.339,0.473 c0,0.532,0,1.524,0,2.059c0,0.217,0.14,0.409,0.347,0.476c0.258,0.083,0.611,0.196,0.877,0.282 c0.223,0.071,0.367,0.288,0.345,0.522c-0.037,0.404-0.093,1.009-0.12,1.299c-0.01,0.107-0.054,0.209-0.127,0.289 c-0.201,0.223-0.623,0.69-0.83,0.92c-0.077,0.085-0.122,0.195-0.128,0.31c-0.041,0.818-0.211,4.211-0.244,4.872 c-0.003,0.073-0.023,0.145-0.058,0.21c-0.123,0.23-0.428,0.803-0.566,1.062c-0.045,0.084-0.065,0.181-0.057,0.276 c0.03,0.361,0.107,1.29,0.142,1.709c0.011,0.134,0.076,0.257,0.18,0.343c0.156,0.13,0.39,0.323,0.536,0.444 c0.086,0.071,0.146,0.17,0.17,0.279c0.04,0.186,0.105,0.485,0.148,0.685c0.028,0.133,0.002,0.271-0.073,0.383 c-0.214,0.321-0.664,0.997-0.868,1.303c-0.067,0.1-0.095,0.222-0.08,0.342c0.042,0.319,0.128,0.98,0.183,1.404 c0.03,0.228-0.1,0.447-0.314,0.53c-0.136,0.053-0.287,0.112-0.412,0.16c-0.159,0.062-0.339,0.038-0.476-0.063 c-0.145-0.106-0.331-0.242-0.465-0.34c-0.111-0.082-0.184-0.206-0.201-0.343c-0.05-0.414-0.159-1.315-0.208-1.712 c-0.015-0.125,0.018-0.252,0.092-0.354c0.204-0.282,0.627-0.865,0.831-1.146c0.074-0.101,0.106-0.227,0.092-0.351 c-0.036-0.309-0.107-0.922-0.156-1.343c-0.029-0.252-0.242-0.442-0.496-0.442c-0.024,0-0.048,0-0.072,0 c-0.259,0-0.475-0.198-0.498-0.456c-0.033-0.378-0.077-0.883-0.095-1.087c-0.006-0.061-0.022-0.119-0.048-0.174 c-0.112-0.233-0.436-0.905-0.603-1.252c-0.065-0.135-0.066-0.293-0.003-0.429c0.158-0.337,0.46-0.984,0.612-1.309 c0.058-0.125,0.062-0.269,0.011-0.397c-0.112-0.279-0.314-0.786-0.44-1.1c-0.068-0.17-0.224-0.29-0.406-0.311 c-0.036-0.004-0.074-0.009-0.112-0.013c-0.144-0.017-0.287,0.029-0.394,0.125c-0.107,0.097-0.167,0.235-0.165,0.379 c0.009,0.541,0.022,1.393,0.035,2.238c0.004,0.241-0.165,0.45-0.401,0.498c-0.236,0.048-0.473-0.08-0.563-0.304 c-0.044-0.111-0.078-0.196-0.097-0.241c-0.01-0.025-0.018-0.051-0.024-0.078c-0.068-0.305-0.507-2.28-0.726-3.269 c-0.029-0.13-0.119-0.239-0.242-0.291c-0.122-0.053-0.262-0.043-0.377,0.025l-0.001,0.001c-0.049,0.029-0.077,0.082-0.075,0.138 c0.027,0.742,0.21,5.746,0.225,6.161c0,0.019,0,0.037-0.001,0.055c-0.047,0.639-0.898,12.249-1.017,13.865 C174.475,195.838,174.419,195.949,174.326,196.026C174.327,196.026,174.327,196.026,174.326,196.026L174.326,196.026z" fill="#fff"/><path d="M158.051 60.533c-.079.04-.167.059-.255.054-.234-.013-.731-.041-1.159-.065-.166-.01-.318-.102-.402-.246-.085-.144-.092-.321-.02-.471.082-.168.164-.338.226-.468.071-.146.209-.249.369-.276.384-.063 1.089-.179 1.333-.219.057-.009.112-.028.162-.056.34-.19 1.714-.954 1.917-1.068.017-.009.035-.018.052-.025.258-.107 2.293-.949 2.597-1.074.025-.011.049-.023.072-.038.272-.168 2.057-1.276 2.518-1.562.071-.045.152-.07.236-.075.75-.041 4.567-.252 4.835-.267.01-.001.02-.001.03-.001.279.001 4.356.02 4.94.023.046 0 .092.006.136.019.373.108 2.195.633 2.45.707.019.005.039.01.06.013.224.036 1.633.26 2.26.36.185.029.338.16.397.338.117.357.312.951.404 1.23.033.101.097.188.183.25.079.057.186.134.292.211.222.16.533.112.696-.109.017-.024.034-.048.051-.071.135-.183.375-.252.586-.169.093.036.187.074.26.103.091.035.169.097.225.176.212.299.746 1.055.841 1.189.009.013.019.026.03.038.065.075.311.36.527.608.091.105.134.243.119.381-.014.138-.086.264-.197.347-.032.024-.063.047-.091.068-.079.06-.175.094-.274.099-.39.02-1.423.073-1.877.096-.139.007-.276-.044-.376-.142-.317-.313-1.018-1.002-1.134-1.115-.011-.011-.022-.021-.034-.031-.167-.136-1.465-1.197-1.79-1.462-.049-.04-.104-.07-.164-.089-.516-.166-3.086-.99-3.5-1.123-.038-.012-.077-.02-.116-.022-.372-.028-2.386-.179-2.662-.2-.021-.002-.042-.002-.063-.001-.358.018-3.671.187-4.002.204-.018 0-.036.002-.053.005-.315.05-3.361.533-3.704.587-.021.004-.042.008-.062.014-.25.073-1.946.569-2.326.68-.05.015-.097.037-.14.066-.325.22-1.763 1.195-1.974 1.338-.017.012-.035.023-.054.032C160.19 59.444 158.517 60.296 158.051 60.533L158.051 60.533zM175.352 140.381c.067-.133.201-.218.349-.222.149-.004.287.074.36.203.509.898 1.38 2.434 1.565 2.759.023.041.04.085.051.131.103.428.652 2.726.756 3.159.011.046.015.094.013.141-.038.729-.348 6.763-.387 7.521-.003.052-.013.103-.032.151-.098.261-.434 1.151-.545 1.445-.024.062-.035.129-.032.196.026.656.17 4.308.225 5.702.006.139-.047.275-.146.373-.099.099-.234.152-.373.146-.004 0-.007 0-.01 0-.208-.008-.389-.144-.455-.342-.116-.347-.294-.881-.379-1.137-.032-.096-.034-.2-.006-.297.107-.37.384-1.333.506-1.758.039-.132.02-.275-.05-.393-.235-.396-.778-1.314-.969-1.636-.044-.075-.068-.16-.07-.247-.014-.876-.091-5.819-.104-6.635-.001-.075-.019-.149-.052-.216-.101-.2-.323-.645-.429-.857-.038-.076-.056-.161-.052-.246.012-.267.039-.881.054-1.23.008-.159.09-.305.223-.394.039-.026.08-.053.119-.079.131-.087.213-.23.222-.387.03-.507.099-1.647.121-2.027.005-.083.031-.163.074-.233.053-.085.129-.209.201-.325.118-.19.095-.434-.055-.6-.122-.134-.262-.287-.355-.391-.07-.077-.115-.174-.127-.277-.052-.441-.197-1.661-.227-1.911-.003-.029.002-.059.015-.085C175.351 140.382 175.352 140.381 175.352 140.381L175.352 140.381zM172.168 140.738c.102.208.335.318.561.266.226-.052.386-.253.387-.485.01-2.843.027-7.573.028-7.988.001-.019.002-.039.004-.058.022-.177.138-1.141.269-2.221.03-.246.235-.433.483-.439.248-.007.464.17.506.414.031.178.052.304.061.353.002.015.004.03.006.045.022.275.237 2.964.322 4.028.019.24.224.422.465.412h.001c.239-.01.428-.207.428-.447 0-.94 0-3.24 0-5.012 0-.236.164-.439.394-.489s.464.067.561.281c1.016 2.226 2.508 5.497 2.742 6.01.02.046.034.094.041.144.034.269.154 1.201.235 1.831.019.148.104.28.23.36.127.079.282.098.424.051.177-.059.36-.12.497-.166.138-.046.249-.149.304-.283.149-.361.447-1.083.554-1.342.026-.063.039-.131.038-.2-.005-.317-.022-1.281-.029-1.749-.003-.164.074-.319.207-.415.111-.079.248-.178.37-.266.185-.133.257-.374.174-.586-.148-.383-.376-.97-.482-1.245-.038-.098-.044-.206-.017-.308.107-.406.388-1.472.449-1.7.007-.028.017-.056.03-.083.066-.142.289-.619.407-.873.049-.105.06-.223.032-.335-.096-.374-.318-1.247-.395-1.549-.018-.07-.021-.143-.008-.213.07-.384.304-1.671.336-1.845.002-.013.005-.026.008-.039.045-.167.368-1.389.538-2.029.058-.222.273-.365.501-.334l0 0c.224.03.391.22.393.446.006.858.021 2.902.028 3.948.001.154.073.299.195.393.122.094.281.126.43.088.026-.007.052-.014.078-.02.238-.062.396-.287.372-.532-.065-.685-.19-2-.232-2.439-.009-.096.01-.192.054-.277.291-.563 1.427-2.757 1.505-2.908.003-.006.006-.011.008-.017.057-.121.719-1.523.864-1.831.019-.04.043-.077.071-.11.331-.39 2.469-2.908 2.57-3.028.003-.003.005-.006.007-.009.122-.15 3.282-4.052 3.498-4.318.008-.01.015-.019.022-.029.197-.284 3.122-4.493 3.469-4.991.022-.032.04-.066.054-.103.174-.443 1.351-3.44 1.474-3.754.007-.017.013-.036.018-.054.112-.421 1.473-5.538 1.739-6.541.03-.11.095-.207.187-.274.246-.181.754-.556 1.031-.759.12-.089.194-.227.202-.376.047-.854.205-3.767.234-4.303.003-.056-.004-.113-.019-.167-.147-.504-.925-3.176-1.038-3.563-.009-.031-.021-.061-.036-.09-.177-.341-1.343-2.591-1.501-2.897-.012-.023-.026-.045-.041-.066-.192-.261-1.53-2.086-1.87-2.55-.05-.069-.073-.154-.062-.239 0-.001 0-.001 0-.002.022-.185.152-.341.33-.396.179-.056.373-.001.497.139.638.721 1.512 1.708 1.725 1.949.032.037.058.077.079.121.191.412 1.216 2.62 1.352 2.913.01.021.025.039.043.053.001.001.002.001.002.002.117.089.277.098.403.021.126-.076.193-.221.169-.366-.145-.859-.349-2.073-.407-2.416-.01-.062-.032-.121-.065-.175-.307-.511-1.97-3.274-2.243-3.727-.025-.042-.056-.08-.092-.112-.489-.445-4.128-3.753-4.278-3.889-.003-.003-.006-.006-.009-.009-.138-.118-3.133-2.704-3.384-2.92-.011-.01-.023-.019-.035-.028-.267-.192-3.428-2.467-3.784-2.723-.022-.016-.045-.03-.069-.042-.423-.211-4.466-2.233-4.814-2.407-.016-.008-.033-.015-.049-.021-.41-.153-5.698-2.123-5.746-2.141l-3.425-1.272c-.035-.012-.07-.021-.106-.026-.206-.029-.962-.132-1.638-.225-.165-.023-.326.063-.399.213-.072.151-.04.331.08.446l.005.005c.039.037.934.908 1.231 1.197.062.06.107.135.131.219.057.197.169.581.234.806.033.115.025.238-.025.346-.047.104-.108.238-.161.356-.075.163-.231.274-.41.291-.118.01-.249.022-.347.031-.099.009-.199-.012-.286-.06-.17-.093-.452-.248-.549-.302-.023-.012-.046-.023-.07-.031-.157-.058-.782-.285-1.037-.378-.072-.026-.149-.035-.226-.027-.441.049-2.001.219-2.164.237-.009.001-.018.002-.028.002-.16.009-1.657.089-1.945.104-.032.002-.064.007-.095.015-.145.036-.595.149-.822.205-.088.022-.168.068-.233.132-.101.102-.265.266-.403.404-.151.15-.379.189-.571.097-.088-.043-.184-.089-.275-.133-.217-.104-.328-.347-.266-.579.031-.119.066-.248.096-.36.051-.192.21-.335.406-.366.298-.046.737-.114 1.019-.158.169-.027.34.036.453.165.039.044.08.091.119.136.124.141.316.201.498.156.117-.029.248-.062.355-.089.133-.033.247-.12.314-.24.029-.05.059-.105.089-.157.08-.143.226-.238.389-.253.577-.054 1.92-.18 2.026-.19.005 0 .009-.001.014-.001.086-.011.973-.118 1.635-.199.154-.018.288-.116.353-.258.066-.141.053-.307-.034-.436V64.51c-.06-.09-.163-.144-.272-.141-.821.018-4.282.093-4.725.102-.031.001-.062.005-.092.011-.31.066-2.099.444-2.442.516-.038.008-.075.02-.11.037-.349.164-2.333 1.097-2.575 1.211-.016.008-.032.016-.047.025-.255.155-2.559 1.557-2.963 1.803-.04.025-.077.054-.109.089-.385.419-2.978 3.24-3.266 3.553-.017.019-.033.039-.047.06-.275.41-3.112 4.644-3.389 5.056-.014.022-.027.044-.038.068-.174.375-1.683 3.621-1.902 4.092-.018.038-.031.077-.038.118-.058.31-.317 1.687-.37 1.972-.007.035-.009.07-.009.105.008.298.044 1.776.054 2.19.002.071.019.141.05.206.165.341.713 1.473.801 1.655.008.017.017.033.026.048.098.155.651 1.037.746 1.188.009.015.019.029.03.042.038.049.135.172.212.271.071.091.109.203.107.318-.02 1.144-.132 7.443-.14 7.897 0 .017 0 .034.002.051.026.309.283 3.3.316 3.695.003.029.008.057.015.085.095.358.766 2.902.842 3.193.005.018.011.036.017.053.017.041.051.131.1.256.085.221.322.342.551.283.229-.059.377-.28.345-.514 0 0 0 0 0-.001-.001-.009-.003-.019-.006-.029-.054-.223-.721-2.978-.81-3.349-.007-.028-.011-.056-.013-.084-.027-.388-.228-3.321-.247-3.593-.001-.014-.001-.027-.001-.041.004-.362.069-5.463.071-5.672 0-.004 0-.009 0-.013-.001-.113-.022-1.661-.031-2.318-.003-.18.092-.348.248-.439.092-.054.197-.115.294-.171.187-.11.423-.086.585.059.025.023.051.046.077.069.19.17.222.454.074.662-.161.227-.357.504-.46.648-.046.065-.076.14-.087.219-.045.314-.164 1.148-.192 1.344-.004.027-.005.055-.005.083.012.498.131 5.284.142 5.731 0 .023.002.045.006.067.063.393.666 4.166.709 4.432.002.01.003.02.006.03.054.243.764 3.44.848 3.819.006.025.013.049.022.072.137.355 1.269 3.28 1.436 3.711.013.036.031.069.052.1.199.294 1.266 1.867 1.39 2.051.008.011.016.023.025.034.167.206 1.86 2.299 1.954 2.415.003.004.006.007.008.01.095.111 1.731 2.029 2.029 2.378.031.036.056.077.075.12.144.32.776 1.723.913 2.027.017.039.029.079.037.121.045.267.222 1.308.287 1.693.016.094.059.182.123.252.242.267.854.94.961 1.057.01.012.02.024.03.037.109.145.819 1.091 1.012 1.35.033.043.058.09.075.141.068.205.255.765.333 1 .023.07.031.144.022.217-.054.457-.259 2.185-.301 2.547-.006.044-.005.089.002.133.026.175.099.663.15 1.005.033.216.201.385.416.42.033.005.066.01.1.016.248.04.488-.112.559-.353.111-.38.262-.896.298-1.02.005-.018.01-.037.013-.056.028-.165.173-1.009.204-1.191.004-.023.006-.046.007-.07.01-.342.091-3.08.104-3.552.002-.044.021-.085.054-.114.001-.001.001-.001.002-.001.114-.101.273-.133.417-.084.145.049.252.171.281.321.143.734.351 1.801.413 2.119.012.061.035.119.069.171.18.285.793 1.254.995 1.574.043.068.069.145.076.225.037.431.161 1.882.196 2.283.005.069.025.135.058.196.078.143.23.423.327.603.058.107.075.231.048.349-.051.225-.132.581-.138.604 0 0 0 .001 0 .002-.008.034-.174.784-.25 1.124-.024.107-.012.219.034.318.147.318.476 1.032.557 1.206.012.026.021.053.029.08.073.275.488 1.825.524 1.957.001.006.003.012.004.018.028.122.328 1.435.43 1.884.022.098.073.187.147.255.2.187.617.575.816.76.072.067.123.154.146.25.111.467.454 1.902.525 2.2.009.036.022.071.038.105C172.127 140.654 172.145 140.692 172.168 140.738L172.168 140.738z"/></g></g></switch></svg>