<svg xmlns="http://www.w3.org/2000/svg" viewBox="0 0 350 350" style="enable-background:new 0 0 350 350" xml:space="preserve"><switch><g><path style="fill:#fff" d="M290.029 240.802C301.144 221.415 307.5 198.95 307.5 175s-6.356-46.415-17.471-65.802V59.962h-49.242C221.403 48.853 198.944 42.5 175 42.5s-46.403 6.353-65.787 17.462H59.954v49.265C48.85 128.608 42.5 151.062 42.5 175s6.35 46.392 17.454 65.773v49.264h49.258C128.596 301.147 151.056 307.5 175 307.5s46.404-6.353 65.788-17.463h49.241v-49.235z"/><path d="M280.492 237.292C291.293 219.039 297.5 197.746 297.5 175s-6.207-44.039-17.008-62.292V69.5h-43.214c-18.25-10.796-39.537-17-62.278-17s-44.028 6.204-62.278 17h-43.23v43.236C58.701 130.982 52.5 152.266 52.5 175s6.201 44.018 16.992 62.264V280.5h43.23c18.25 10.796 39.538 17 62.278 17s44.029-6.204 62.278-17h43.214v-43.208z"/><linearGradient id="gridlock-a" gradientUnits="userSpaceOnUse" x1="119.491" y1="78.855" x2="230.509" y2="271.145"><stop offset="0" style="stop-color:#a71e4d"/><stop offset=".114" style="stop-color:#bf1656"/><stop offset=".254" style="stop-color:#d50e5f"/><stop offset=".387" style="stop-color:#e20a64"/><stop offset=".507" style="stop-color:#e70866"/><stop offset=".623" style="stop-color:#de0b63"/><stop offset=".811" style="stop-color:#c61359"/><stop offset="1" style="stop-color:#a71e4d"/></linearGradient><circle style="fill:url(#gridlock-a)" cx="175" cy="175" r="111"/><path d="M66 207.667 86.667 197l21.666 37L84 251.667zM237 114.667l23.333 35.666L286 135.667 264 95z"/><g><path d="m175 60-49.25 11.25L126 173l28.5-11.544V213.5c-.089.331-.247.866-.5 1.5-2.196 5.499-7.495 8.208-11 10a38.01 38.01 0 0 1-8 3v56a97.178 97.178 0 0 0 40 6 97.177 97.177 0 0 0 40-6v-56a38.01 38.01 0 0 1-8-3c-3.505-1.792-8.804-4.501-11-10a13.594 13.594 0 0 1-.5-1.5v-52.044L224 173l.25-101.75L175 60zm0 207c-8.008 0-14.5-6.492-14.5-14.5S166.992 238 175 238s14.5 6.492 14.5 14.5S183.008 267 175 267z"/><path style="fill:#fff" d="M198 226a29.897 29.897 0 0 1-8-11v-57a18.06 18.06 0 0 0-9-3c.171 30.95.155 53.527 0 57-.025.558-.135 1.854-1 3-1.732 2.294-4.8 2.021-5 2-.2.021-3.268.294-5-2-.865-1.146-.975-2.442-1-3-.155-3.473-.171-26.05 0-57a18.06 18.06 0 0 0-9 3v57a29.897 29.897 0 0 1-8 11 29.867 29.867 0 0 1-11 6v18h12c.113-1.868.738-8.409 6-14 6.294-6.687 14.478-6.974 16-7 1.522.026 9.706.313 16 7 5.262 5.591 5.887 12.132 6 14h12v-18a29.867 29.867 0 0 1-11-6zM209 273v-18h-12c-.113 1.868-.738 8.409-6 14-6.294 6.687-14.478 6.974-16 7-1.522-.026-9.706-.313-16-7-5.262-5.591-5.887-12.132-6-14h-12v18l.035 6.506h11.988l-.024-3.506c1.87 1.62 9.9 8.204 22 8 12.344-.208 20.244-7.334 22-9l.024 4.494 11.991.017L209 273z"/><g><path style="fill:#fff" d="M175.125 105.188A139.22 139.22 0 0 0 132 112v50l18-8c8.836-3.927 16.055-5.786 25-6 8.945.214 16.164 2.073 25 6l18 8v-50a139.203 139.203 0 0 0-42.875-6.812zM175 68a135.662 135.662 0 0 0-43 7v12c10.454-2.975 25.203-6 43-6s32.546 3.025 43 6V75a135.662 135.662 0 0 0-43-7z"/><path style="fill:#fff" d="M175.125 86.938A155.584 155.584 0 0 0 132 93v12c10.454-2.975 25.203-6 43-6s32.546 3.025 43 6V93a155.595 155.595 0 0 0-42.875-6.062z"/><circle cx="175" cy="126" r="10"/><linearGradient id="gridlock-b" gradientUnits="userSpaceOnUse" x1="147" y1="129.813" x2="159" y2="129.813"><stop offset="0" style="stop-color:#ffdce8"/><stop offset="1" style="stop-color:#edc3cd"/></linearGradient><path style="opacity:.8;fill:url(#gridlock-b)" d="M147 113a34.019 34.019 0 0 1 12-2.375V145a31.58 31.58 0 0 0-12 4v-36z"/><linearGradient id="gridlock-c" gradientUnits="userSpaceOnUse" x1="132" y1="135.719" x2="138.125" y2="135.719"><stop offset="0" style="stop-color:#edc3cd"/><stop offset="1" style="stop-color:#ffdce8"/></linearGradient><path style="fill:url(#gridlock-c)" d="M132 116v40.75a14.978 14.978 0 0 1 6.126-3.001v-39.063a16.897 16.897 0 0 0-3.688.5c-.927.234-1.743.522-2.438.814z"/><linearGradient id="gridlock-d" gradientUnits="userSpaceOnUse" x1="207.625" y1="133.906" x2="211.75" y2="133.906"><stop offset="0" style="stop-color:#ffdce8"/><stop offset="1" style="stop-color:#edc3cd"/></linearGradient><path style="fill:url(#gridlock-d)" d="M207.625 113.438v38.75a30.4 30.4 0 0 0 4.126 2.188v-39.688a9.286 9.286 0 0 0-4.126-1.25z"/><linearGradient id="gridlock-e" gradientUnits="userSpaceOnUse" x1="146.787" y1="76.517" x2="158.848" y2="76.517"><stop offset="0" style="stop-color:#ffdce8"/><stop offset="1" style="stop-color:#edc3cd"/></linearGradient><path style="opacity:.8;fill:url(#gridlock-e)" d="M146.823 75.419a62.355 62.355 0 0 1 12.01-2.127l.015 4.245a48.546 48.546 0 0 0-12.061 2.206l.036-4.324z"/><linearGradient id="gridlock-f" gradientUnits="userSpaceOnUse" x1="132" y1="80.328" x2="138.125" y2="80.328"><stop offset="0" style="stop-color:#edc3cd"/><stop offset="1" style="stop-color:#ffdce8"/></linearGradient><path style="fill:url(#gridlock-f)" d="M132 79.167v4.083a29.45 29.45 0 0 1 6.125-1.938v-3.906A17.546 17.546 0 0 0 132 79.167z"/><linearGradient id="gridlock-g" gradientUnits="userSpaceOnUse" x1="207.292" y1="78.688" x2="211.792" y2="78.688"><stop offset="0" style="stop-color:#ffdce8"/><stop offset="1" style="stop-color:#edc3cd"/></linearGradient><path style="fill:url(#gridlock-g)" d="M207.292 75.708v4.625a30.338 30.338 0 0 1 4.5 1.333l-.042-4.376a23.124 23.124 0 0 0-4.458-1.582z"/><linearGradient id="gridlock-h" gradientUnits="userSpaceOnUse" x1="146.787" y1="93.913" x2="158.848" y2="93.913"><stop offset="0" style="stop-color:#ffdce8"/><stop offset="1" style="stop-color:#edc3cd"/></linearGradient><path style="opacity:.8;fill:url(#gridlock-h)" d="M146.823 92.815a62.355 62.355 0 0 1 12.01-2.127l.015 4.245a48.546 48.546 0 0 0-12.061 2.206l.036-4.324z"/><linearGradient id="gridlock-i" gradientUnits="userSpaceOnUse" x1="132" y1="97.724" x2="138.125" y2="97.724"><stop offset="0" style="stop-color:#edc3cd"/><stop offset="1" style="stop-color:#ffdce8"/></linearGradient><path style="fill:url(#gridlock-i)" d="M132 96.563v4.083a29.45 29.45 0 0 1 6.125-1.938v-3.906A17.546 17.546 0 0 0 132 96.563z"/><linearGradient id="gridlock-j" gradientUnits="userSpaceOnUse" x1="207.292" y1="96.083" x2="211.792" y2="96.083"><stop offset="0" style="stop-color:#ffdce8"/><stop offset="1" style="stop-color:#edc3cd"/></linearGradient><path style="fill:url(#gridlock-j)" d="M207.292 93.104v4.625a30.338 30.338 0 0 1 4.5 1.333l-.042-4.376a23.124 23.124 0 0 0-4.458-1.582z"/></g></g></g></switch></svg>