<svg xmlns="http://www.w3.org/2000/svg" viewBox="0 0 350 350"><switch><g><path d="M290.029,240.802C301.144,221.415,307.5,198.95,307.5,175s-6.356-46.415-17.471-65.802V59.962 h-49.242C221.403,48.853,198.944,42.5,175,42.5s-46.403,6.353-65.787,17.462H59.954v49.265C48.85,128.608,42.5,151.062,42.5,175 s6.35,46.392,17.454,65.773v49.264h49.258C128.596,301.147,151.056,307.5,175,307.5s46.404-6.353,65.788-17.463h49.241V240.802z" fill="#fff"/><path d="M280.492,237.292C291.293,219.039,297.5,197.746,297.5,175s-6.207-44.039-17.008-62.292V69.5h-43.214 c-18.25-10.796-39.537-17-62.278-17s-44.028,6.204-62.278,17H69.492v43.236C58.701,130.982,52.5,152.266,52.5,175 s6.201,44.018,16.992,62.264V280.5h43.23c18.25,10.796,39.538,17,62.278,17s44.029-6.204,62.278-17h43.214V237.292z"/><linearGradient id="a" gradientUnits="userSpaceOnUse" x1="119.491" y1="78.855" x2="230.509" y2="271.145"><stop offset="0" stop-color="#a71e4d"/><stop offset=".114" stop-color="#bf1656"/><stop offset=".254" stop-color="#d50e5f"/><stop offset=".387" stop-color="#e20a64"/><stop offset=".507" stop-color="#e70866"/><stop offset=".623" stop-color="#de0b63"/><stop offset=".811" stop-color="#c61359"/><stop offset="1" stop-color="#a71e4d"/></linearGradient><circle cx="175" cy="175" r="111" fill="url(#a)"/><path d="M66 207.667L86.667 197 108.333 234 84 251.667zM237 114.667L260.333 150.333 286 135.667 264 95zM175 60l-49.25 11.25c.083 33.917.167 67.833.25 101.75 9.5-3.848 19-7.696 28.5-11.544 0 17.348 0 34.696 0 52.044-.089.331-.247.866-.5 1.5-2.196 5.499-7.495 8.208-11 10-1.79.915-4.489 2.112-8 3 0 18.667 0 37.333 0 56 5.05 1.892 11.451 3.813 19 5 8.156 1.283 15.329 1.345 21 1 5.671.345 12.844.283 21-1 7.549-1.187 13.95-3.108 19-5 0-18.667 0-37.333 0-56-3.511-.888-6.21-2.085-8-3-3.505-1.792-8.804-4.501-11-10-.253-.634-.411-1.169-.5-1.5 0-17.348 0-34.696 0-52.044 9.5 3.848 19 7.696 28.5 11.544.083-33.917.167-67.833.25-101.75C207.833 67.5 191.417 63.75 175 60zM175 267c-8.008 0-14.5-6.492-14.5-14.5S166.992 238 175 238s14.5 6.492 14.5 14.5S183.008 267 175 267z"/><path d="M198 226c-4.674-4.03-6.964-8.543-8-11 0-19 0-38 0-57-.976-.65-2.314-1.405-4-2-1.966-.694-3.718-.928-5-1 .171 30.95.155 53.527 0 57-.025.558-.135 1.854-1 3-1.732 2.294-4.8 2.021-5 2-.2.021-3.268.294-5-2-.865-1.146-.975-2.442-1-3-.155-3.473-.171-26.05 0-57-1.282.072-3.034.306-5 1-1.686.595-3.024 1.35-4 2 0 19 0 38 0 57-1.036 2.457-3.326 6.97-8 11-4.221 3.639-8.506 5.261-11 6v18c4 0 8 0 12 0 .113-1.868.738-8.409 6-14 6.294-6.687 14.478-6.974 16-7 1.522.026 9.706.313 16 7 5.262 5.591 5.887 12.132 6 14 4 0 8 0 12 0v-18C206.506 231.261 202.221 229.639 198 226zM209 273v-18c-4 0-8 0-12 0-.113 1.868-.738 8.409-6 14-6.294 6.687-14.478 6.974-16 7-1.522-.026-9.706-.313-16-7-5.262-5.591-5.887-12.132-6-14-4 0-8 0-12 0v18c.012 2.169.024 4.337.035 6.506 3.996 0 7.992 0 11.988 0-.008-1.169-.016-2.337-.024-3.506 1.87 1.62 9.9 8.204 22 8 12.344-.208 20.244-7.334 22-9 .008 1.498.016 2.996.024 4.494 3.997.006 7.994.012 11.991.017C209.01 277.341 209.005 275.17 209 273z" fill="#fff"/><path d="M175.125 105.188c-18.323-.016-33.211 3.59-43.125 6.812 0 16.667 0 33.333 0 50 6-2.667 12-5.333 18-8 8.836-3.927 16.055-5.786 25-6 8.945.214 16.164 2.073 25 6 6 2.667 12 5.333 18 8 0-16.667 0-33.333 0-50C208.119 108.789 193.324 105.204 175.125 105.188zM175 68c-10.292 0-25.574 1.172-43 7 0 4 0 8 0 12 10.454-2.975 25.203-6 43-6s32.546 3.025 43 6c0-4 0-8 0-12C200.574 69.172 185.292 68 175 68z" fill="#fff"/><path d="M175.125,86.938C157.237,86.923,142.436,89.998,132,93c0,4,0,8,0,12c10.454-2.975,25.203-6,43-6 s32.546,3.025,43,6c0-4,0-8,0-12C207.602,90.009,192.893,86.952,175.125,86.938z" fill="#fff"/><circle cx="175" cy="126" r="10"/><linearGradient id="b" gradientUnits="userSpaceOnUse" x1="147" y1="129.813" x2="159" y2="129.813"><stop offset="0" stop-color="#ffdce8"/><stop offset="1" stop-color="#edc3cd"/></linearGradient><path d="M147,113c1.499-0.592,3.301-1.181,5.375-1.625 c2.515-0.538,4.77-0.723,6.625-0.75c0,11.458,0,22.917,0,34.375c-1.903,0.23-4.268,0.69-6.875,1.625 c-2.023,0.725-3.736,1.573-5.125,2.375C147,137,147,125,147,113z" opacity=".8" fill="url(#b)"/><linearGradient id="c" gradientUnits="userSpaceOnUse" x1="132" y1="135.719" x2="138.125" y2="135.719"><stop offset="0" stop-color="#edc3cd"/><stop offset="1" stop-color="#ffdce8"/></linearGradient><path d="M132,116v40.75c0.739-0.604,1.757-1.319,3.063-1.938 c1.149-0.544,2.206-0.866,3.063-1.063c0-13.021,0-26.042,0-39.063c-1.024,0.025-2.285,0.149-3.688,0.5 C133.511,115.42,132.695,115.708,132,116z" fill="url(#c)"/><linearGradient id="d" gradientUnits="userSpaceOnUse" x1="207.625" y1="133.906" x2="211.75" y2="133.906"><stop offset="0" stop-color="#ffdce8"/><stop offset="1" stop-color="#edc3cd"/></linearGradient><path d="M207.625,113.438c0,12.917,0,25.833,0,38.75c0.557,0.353,1.162,0.711,1.813,1.063 c0.806,0.436,1.582,0.807,2.313,1.125c0-13.229,0-26.458,0-39.688c-0.469-0.273-1.075-0.573-1.813-0.812 C209.041,113.584,208.24,113.475,207.625,113.438z" fill="url(#d)"/><linearGradient id="e" gradientUnits="userSpaceOnUse" x1="146.787" y1="76.517" x2="158.848" y2="76.517"><stop offset="0" stop-color="#ffdce8"/><stop offset="1" stop-color="#edc3cd"/></linearGradient><path d="M146.823,75.419c1.699-0.476,3.567-0.923,5.593-1.294 c2.304-0.422,4.456-0.682,6.417-0.833c0.005,1.415,0.01,2.83,0.015,4.245c-1.805,0.098-3.841,0.31-6.052,0.712 c-2.25,0.409-4.262,0.939-6.009,1.494C146.799,78.301,146.811,76.86,146.823,75.419z" opacity=".8" fill="url(#e)"/><linearGradient id="f" gradientUnits="userSpaceOnUse" x1="132" y1="80.328" x2="138.125" y2="80.328"><stop offset="0" stop-color="#edc3cd"/><stop offset="1" stop-color="#ffdce8"/></linearGradient><path d="M132,79.167c0,1.361,0,2.722,0,4.083c0.987-0.436,2.115-0.869,3.375-1.25 c0.974-0.294,1.896-0.518,2.75-0.688c0-1.302,0-2.604,0-3.906c-0.996,0.097-2.207,0.301-3.542,0.719 C133.587,78.437,132.723,78.806,132,79.167z" fill="url(#f)"/><linearGradient id="g" gradientUnits="userSpaceOnUse" x1="207.292" y1="78.688" x2="211.792" y2="78.688"><stop offset="0" stop-color="#ffdce8"/><stop offset="1" stop-color="#edc3cd"/></linearGradient><path d="M207.292,75.708c0,1.542,0,3.083,0,4.625c0.718,0.153,1.485,0.344,2.292,0.583 c0.795,0.236,1.532,0.49,2.208,0.75c-0.014-1.459-0.028-2.917-0.042-4.376c-0.575-0.273-1.201-0.541-1.875-0.791 C208.957,76.158,208.089,75.902,207.292,75.708z" fill="url(#g)"/><linearGradient id="h" gradientUnits="userSpaceOnUse" x1="146.787" y1="93.913" x2="158.848" y2="93.913"><stop offset="0" stop-color="#ffdce8"/><stop offset="1" stop-color="#edc3cd"/></linearGradient><path d="M146.823,92.815c1.699-0.476,3.567-0.923,5.593-1.294 c2.304-0.422,4.456-0.682,6.417-0.833c0.005,1.415,0.01,2.83,0.015,4.245c-1.805,0.098-3.841,0.31-6.052,0.712 c-2.25,0.409-4.262,0.939-6.009,1.494C146.799,95.697,146.811,94.256,146.823,92.815z" opacity=".8" fill="url(#h)"/><linearGradient id="i" gradientUnits="userSpaceOnUse" x1="132" y1="97.724" x2="138.125" y2="97.724"><stop offset="0" stop-color="#edc3cd"/><stop offset="1" stop-color="#ffdce8"/></linearGradient><path d="M132,96.563c0,1.361,0,2.722,0,4.083c0.987-0.436,2.115-0.869,3.375-1.25 c0.974-0.294,1.896-0.518,2.75-0.688c0-1.302,0-2.604,0-3.906c-0.996,0.097-2.207,0.301-3.542,0.719 C133.587,95.833,132.723,96.202,132,96.563z" fill="url(#i)"/><linearGradient id="j" gradientUnits="userSpaceOnUse" x1="207.292" y1="96.083" x2="211.792" y2="96.083"><stop offset="0" stop-color="#ffdce8"/><stop offset="1" stop-color="#edc3cd"/></linearGradient><path d="M207.292,93.104c0,1.542,0,3.083,0,4.625c0.718,0.153,1.485,0.344,2.292,0.583 c0.795,0.236,1.532,0.49,2.208,0.75c-0.014-1.459-0.028-2.917-0.042-4.376c-0.575-0.273-1.201-0.541-1.875-0.791 C208.957,93.554,208.089,93.298,207.292,93.104z" fill="url(#j)"/></g></switch></svg>