<svg xmlns="http://www.w3.org/2000/svg" viewBox="0 0 350 350" style="enable-background:new 0 0 350 350" xml:space="preserve"><switch><g><path style="opacity:.4" d="M45 45h260v260H45z"/><path style="fill:#dcc53d" d="M251.525 73.076h-38.172l3.31-13.417-17.011 13.417h-10.793L175.212 27.5l-14.203 45.576h-10.954l-15.484-13.015 1.801 13.015H98.403L72.965 98.543v153.428l25.438 25.556h44.755l-.729 5.111 6.051-5.111h13.57l12.903 38.973 13.421-38.973h13.956l5.997 5.537v-5.537h43.185l25.521-25.556V98.562l-25.508-25.486z"/><path d="m224.316 230.283-.531-7.312-17.041-20.587c-3.633-10.227-5.368-16.028-5.952-19.167-.16-.863-.561-3.277-2.256-5.759-.931-1.364-1.891-2.214-2.426-2.682-4.765-4.166-11.614-9.789-12.324-10.371L175 143.107l-8.786 21.297c-.71.582-7.558 6.205-12.324 10.371-.535.468-1.495 1.318-2.426 2.682-1.695 2.483-2.096 4.897-2.256 5.759-.584 3.139-2.319 8.94-5.952 19.167l-17.041 20.587-.531 7.312 15.659-12.352-.921 31.661a193.707 193.707 0 0 0 9.991 9.939l.012.011-4.121 15.11 10.037-9.867a194.381 194.381 0 0 0 12 9.441l6.661 35.282 6.661-35.282a194.381 194.381 0 0 0 12-9.441l10.037 9.867-4.121-15.11.012-.011a194.108 194.108 0 0 0 9.991-9.939l-.921-31.661c5.216 4.118 10.436 8.235 15.655 12.353zm-62.354-56.118L175 160.831l13.038 13.334 6.802 17.889L175 173.143l-19.84 18.911 6.802-17.889zM175 266.95l-10.629-9.301L175 248.905l10.629 8.744L175 266.95zm21.115-14.27L175 234.132l-21.115 18.548-6.519-7.525L175 217.986l27.634 27.169-6.519 7.525zm7.795-26.373A740078.45 740078.45 0 0 0 175 201.848l-28.91 24.459v-12.104L175 187.462l28.91 26.741v12.104z"/><path d="M323.799 216.191a129.482 129.482 0 0 0-2.87-13.098l-53.462-66.979a714.4 714.4 0 0 0-68.129-25.449l12.754-9.477-10.629-10.116 9.672-22.362-16.474 17.357-12.967-5.431L175 38.894l-6.696 41.742-12.967 5.431-16.474-17.357 9.672 22.362-10.629 10.116 12.754 9.477a715.857 715.857 0 0 0-68.129 25.449L29.07 203.093a129.696 129.696 0 0 0-4.571 31.2l66.96-3.195 45.712-39.405a70.904 70.904 0 0 0 2.86-15.008l23.004-20.873a57.903 57.903 0 0 0 3.355-6.44c1.682-3.789 2.155-5.954 3.295-8.998.959-2.561 2.564-6.211 5.314-10.436 2.751 4.225 4.355 7.874 5.314 10.436 1.14 3.044 1.613 5.209 3.295 8.998a57.903 57.903 0 0 0 3.355 6.44l23.004 20.873a70.945 70.945 0 0 0 2.86 15.008l45.712 39.405 66.96 3.195a129.532 129.532 0 0 0-1.7-18.102z"/><path style="fill:#fff" d="m33.357 225.704 16.581-.497 5.456-18.322c13.689-16.321 23.656-28.137 25.755-30.776.438-.55 1.715-2.187 3.934-3.629a15.977 15.977 0 0 1 2.969-1.506c2.928-1.145 9.79-3.218 18.926-5.61l35.428-42.026-51.867 17.606-54.702 65.943-2.48 18.817z"/><path style="fill:#fff" d="m152.84 128.075 4.969 4.15c-11.85 15.43-20.329 26.39-21.634 27.826-.18.198-.952 1.017-1.563 2.33a9.023 9.023 0 0 0-.692 2.174c-.355 1.855-1.961 10.951-4.09 23.418l-39.857 34.182 2.019-15.27 14.88-15.93-6.696 1.1-13.392 13.808-3.72 16.292-19.982 1.917 4.464-20.126 22.851-27.503 27.315-6.892 35.128-41.476zm163.803 97.629-10.062-1.207-1.701-12.352c-15.749-20.219-27.283-34.905-29.76-38.122a27.426 27.426 0 0 0-4.358-4.472s-1.579-1.26-3.507-2.343c-3.337-1.872-13.938-4.93-28.484-7.56l-31.177-36.311 51.867 17.606 54.702 65.943 2.48 18.818z"/><path style="fill:#fff" d="m197.16 128.075-4.969 4.15c11.85 15.43 20.329 26.39 21.634 27.826.18.198.952 1.017 1.563 2.33.46.989.625 1.819.692 2.174.355 1.855 1.961 10.951 4.09 23.418l39.857 34.182 14.26.457-.018-8.763-29.441-36.737h7.971c12.878 16.401 21.245 26.786 23.595 29.07.503.489 2.645 2.468 4.145 5.75.317.693.526 1.27.638 1.597l.342 9.533 15.584.969-.195-11.034-31.886-39.399-37.016-9.101a497538.106 497538.106 0 0 0-30.846-36.422z"/></g></switch></svg>