<svg xmlns="http://www.w3.org/2000/svg" viewBox="0 0 350 350"><switch><g><path fill="#fff" d="M59.954 59.962H290.029V290.037H59.954z"/><path d="M69.492 69.5H280.492V280.5H69.492z"/><path fill="#9a273f" d="M78.992 79H270.992V271H78.992z"/><radialGradient id="a" cx="174.992" cy="175" r="96" gradientTransform="matrix(0 -1 1.75 0 -131.258 349.992)" gradientUnits="userSpaceOnUse"><stop offset="0" stop-color="#cc7a78"/><stop offset="1" stop-color="#fff" stop-opacity="0"/></radialGradient><path fill="url(#a)" d="M78.992 79H270.992V271H78.992z"/><g fill="#050708"><path d="M312.667,180.917c-0.712-9.141-3.988-15.72-5.917-19.5c0,0-8.909-17.461-32.917-28.583 c-2.689-1.246-6.118-2.493-9.524-1.219c-2.457,0.919-3.982,2.806-4.81,4.073c-2.005-1.546-5.278-4.485-7.813-9.188 c-2.203-4.087-2.96-7.857-3.25-10.25c2.128-1.696,3.52-3.44,4.375-4.688c0.671-0.978,1.66-2.444,2.375-4.625 c0.629-1.92,0.787-3.606,0.813-4.771c-0.96,2.589-2.524,5.9-5.125,9.271c-1.282,1.662-2.591,3.047-3.813,4.188 c-0.07,0.411-0.149,1.042-0.125,1.813c0.041,1.323,0.354,2.012,0.14,2.125c-0.253,0.133-1.08-0.623-1.452-1.562 c-0.457-1.153-0.101-2.261,0.063-2.688c1.939-2.106,4.084-4.763,6.13-8.016c2.757-4.384,4.498-8.521,5.62-11.859 c-0.042-3.674-0.398-8.217-1.5-13.313c-1.056-4.884-2.525-9.015-3.938-12.292c0.962-1.223,2.219-3.244,2.25-5.771 c0.014-1.128-0.181-5.182-7.438-10.563c-14.071-10.434-31.187-9.812-31.187-9.812c-17.224,0.625-29.369,9.833-35.938,14.812 c-5.823,4.415-10.033,8.884-12.813,12.188c-0.016,1.273,0.017,2.653,0.125,4.125c0.105,1.44,0.268,2.782,0.464,4.016 c-1.91,1.104-4.374,2.314-7.359,3.296c-2.731,0.899-5.214,1.382-7.271,1.646c1.496,0.405,2.232,0.745,2.208,1.021 c-0.047,0.554-3.172,0.846-9.375,0.875c-1.7-2.933-6.437-10.206-15.833-14.917c-9.926-4.976-19.099-4.107-22.411-3.633 c1.026-0.199,2.478-0.461,4.233-0.71c1.088-0.155,2.306-0.347,3.375-0.406c1.566-0.087,3.869-0.102,6.781,0.563 c-3.17-0.918-7.688-1.788-13.063-1.396c-2.319,0.169-4.396,0.545-6.191,0.992c-0.804-0.923-2.055-2.061-3.823-2.625 c-5.096-1.626-10.501,2.781-14.402,6.05c-4.259,3.568-14.425,12.341-17.833,27.75c-1.504,6.8-1.124,12.325-0.844,15.986 c0.653,8.554,2.902,14.605,4.928,19.93c3.49,9.173,6.271,16.197,12.167,17.667c1.534,0.383,2.886,0.291,3.75,0.167 c0.898,1.908,2.54,6.064,2.167,11.5c-0.342,4.985-2.213,8.629-3.292,10.417c-3.661,1.023-13.507,4.297-21.458,13.917 C56.72,195.624,55,204.783,54.5,208.625c-1.171,0.62-3.436,2.04-4.667,4.708c-1.143,2.477-0.893,4.945-0.417,7.167 c2.918,13.599,11.833,23,11.833,23c8.069,8.483,16.874,11.978,20.833,13.5c13.352,5.134,23.992,3.822,34.247,2.557 c5.584-0.689,10.437-1.894,12.586-5.723c1.019-1.815,1.135-3.694,1.083-4.958c1.798-0.188,4.044-0.241,6.583,0.125 c5.089,0.734,8.878,2.794,11.083,4.25c0.157-0.119,1.986-1.45,4.124-0.709c1.491,0.517,2.199,1.718,2.376,2.042 c-0.203,0.477-0.405,1.095-0.5,1.833c-0.223,1.734,0.272,3.131,0.583,3.833c-0.469,3.116-1.249,11.247,3.312,19.475 c2.057,3.711,4.579,6.32,6.563,8.025c-0.75,0.042-1.5,0.083-2.25,0.125c2.054,3.7,4.383,5.587,6.125,6.625 c2.61,1.555,4.64,1.647,6.417,3.833c1.665,2.049,1.367,3.797,2,5.083c3.02,6.142,29.473,6.321,46.333-8.75 c6.703-5.992,10.472-13.17,12.833-17.667c3.529-6.719,4.695-11.443,6.417-18.417c0.497-2.013,2.424-10.131-0.25-14.667 c-0.872-1.478-2.083-2.667-2.083-2.667c-1.873-1.837-3.892-2.687-5.083-3.083c0.58-2.562,1.807-6.518,4.583-10.667 c3.204-4.787,7-7.635,9.333-9.125c0.817,0.447,2.223,1.083,4.083,1.292c1.739,0.195,3.163-0.062,4.042-0.292 c6.712,2.125,12.413,2.336,16.046,2.196c4.207-0.162,9.839-0.379,15.912-3.737c3.727-2.061,6.282-4.565,7.833-6.333 c0.999,0.462,2.938,1.198,5.083,0.75C309.521,210.574,313.667,193.759,312.667,180.917z M255.543,138.335 c-2.423-1.789-5.729-4.733-8.21-9.043c-0.357-0.621-1.669-2.958-2.732-6.283c-0.62-1.939-0.973-3.646-1.185-4.967 c0.587,2.562,1.82,6.51,4.583,10.667c3.004,4.518,6.505,7.308,8.75,8.833C256.348,137.806,255.945,138.071,255.543,138.335z"/><path d="M150.031 264.172c-.062-.001-.098-2.568-.109-7.703-1.039-.865-2.258-1.756-3.672-2.594-3.991-2.366-7.848-3.315-10.625-3.719.718.047 1.716.144 2.891.359.748.137 3.996.769 7.888 2.832 1.193.633 2.726 1.548 4.393 2.84-.047.061-.108.145-.172.25 0 0-.165.27-.255.545-.1.306-.077.535-.074.877.003.277-.006.676-.063 1.172C150.15 262.459 150.082 264.172 150.031 264.172zM158.078 287.75c-.098.095 6.393 6.854 6.594 6.672.052-.047-.351-.531-.234-.656.188-.201 1.488.767 1.547.688.056-.075-.781-.75-.781-.75-2.37-1.911-3.973-3.133-5.203-4.188C158.684 288.388 158.108 287.721 158.078 287.75zM241.5 232.833c.361-.901.822-1.865 1.417-2.854 2.185-3.633 5.106-5.828 7.146-7.063-1.437 1.163-3.08 2.672-4.729 4.583C243.689 229.405 242.44 231.246 241.5 232.833zM142.75 75.875c-3.189-3.426-10.728-10.469-21.796-11.653-2.178-.233-4.218-.21-6.079-.035 2.762.139 6.012.557 9.553 1.536C133.148 68.132 139.261 72.73 142.75 75.875z"/></g><path d="M57.75,216.875c2.958-1.094,5.917-2.188,8.875-3.281c1.236,11.451,9.348,20.946,20.25,23.781 c10.561,2.746,21.474-1.346,28-9.375c6.775-8.335,8.388-20.377,3-30.25c-4.671-8.56-13.766-13.953-23.75-14.125 c15.975-1.554,28.653-8.85,31.89-19.365c0.439-1.427,2.08-6.756-0.348-11.677c-3.734-7.568-14.567-9.057-23.25-10.25 c-7.212-0.991-13.323-0.622-17.583-0.083c-0.762-1.109-18.442-27.707-5.842-52.137c4.767-9.242,12.054-14.658,16.758-17.488 c2.083,2.264,4.167,4.528,6.25,6.792c-1.572,0.738-12.763,6.218-15.75,18.667c-2.835,11.812,2.817,25.307,14.75,31.083 c11.429,5.532,24.978,2.22,32.742-6.769c8.979-10.396,6.092-23.61,5.758-25.023c2.468,6.316,5.868,10.471,8.083,12.792 c3.095,3.242,9.691,10.151,19.583,10.417c1.779,0.048,6.453,0.173,9.75-2c7.81-5.147,8.117-23.34-1.167-44.208 c1.356-1.447,3.313-3.411,5.833-5.542c5.825-4.922,20.615-17.421,39.17-15.787c11.231,0.989,19.652,6.788,24.497,11.005 c-1.583,2.524-3.167,5.049-4.75,7.573c-0.956-0.998-10.799-10.937-24.583-8.792c-12.345,1.921-22.539,12.708-23.167,25.833 c-0.55,11.511,6.374,22.395,17,26.667c12.658,5.088,24.051-1.827,25.25-2.583c-2.471,2.169-5.696,5.486-8.5,10.167 c-2.692,4.495-6.931,11.572-5.417,20.333c0.248,1.437,1.345,7.779,5.265,11.007c7.358,6.058,24.999,1.422,41.652-14.09 c21.085,9.074,35.294,26.119,35.852,44.418c0.13,4.251-0.406,10.907-4.227,18.79c-2.958-0.833-5.917-1.667-8.875-2.5 c5.966-10.427,4.608-23.458-3.25-32.125c-7.724-8.52-19.833-10.729-29.839-7.016c-9.053,3.36-16.386,11.568-17.744,22.016 c-1.932,14.861,9.508,24.364,10.146,24.875c-13.983-7.757-28.504-8.945-37.065-2.162c-1.141,0.904-5.545,4.393-6.331,9.87 c-1.138,7.922,6.039,14.804,12.5,21c3.464,3.322,8.316,7.263,14.833,10.792c-1.597,21.799-12.658,40.152-29.417,47.042 c-7.586,3.119-14.943,3.314-20.583,2.708c-0.167-3-0.333-6-0.5-9c11.791,2.472,23.846-3.037,29.583-13.458 c5.943-10.796,3.387-23.738-4.25-31.917c-6.756-7.236-17.623-10.888-27.917-7.667c-12.003,3.756-16.567,14.773-17.167,16.292 c3.074-15.604-0.358-29.778-9.5-35.792c-1.415-0.931-5.204-3.423-9.857-2.912c-10.996,1.207-17.567,18.173-20.726,26.329 c-1.556,4.017-2.498,7.423-3.042,9.625c-1.644,0.441-32.535,8.228-51.708-11.625C61.955,230.542,59.049,222.29,57.75,216.875z" fill="#fff"/><g fill="#9a273f"><circle cx="112.938" cy="104.604" r="10.854"/><circle cx="220.188" cy="90.188" r="10.854"/><circle cx="267.438" cy="187.271" r="10.854"/><circle cx="189.188" cy="262.188" r="10.854"/><circle cx="93.771" cy="210.854" r="10.854"/></g><path d="M189.667,170.167c-0.215,6.848-6.321,14.308-14.75,14.417c-8.236,0.106-15.099-6.855-15.167-15 c-0.074-8.923,8.039-15.384,15.083-15.25c5.471,0.104,9.308,4.169,10.25,5.167 C186.011,160.483,189.844,164.543,189.667,170.167z" fill="#9a273f"/><path d="M174 152.75c-5.549.196-10.703 3.256-13.654 7.93-2.958 4.686-2.418 9.229-1.118 14.353 1.148 4.524 4.986 8.638 9.463 10.259 3.795 1.374 10.063 1.631 13.634-.284 6.475-3.471 10.075-10.233 9.173-17.388C190.438 159.21 182.375 152.454 174 152.75zM175.708 182.5c-3.54.045-7.155-.341-9.708-3-2.291-2.386-3.543-5.541-3.787-8.826-.546-7.36 3.046-13.025 10.602-14.294 6.327-1.062 17.306 3.828 16.704 11.283-.25 3.09-.733 7.623-2.968 9.948-1.433 1.491-3.157 2.214-5.09 2.78C179.809 180.877 177.323 182.479 175.708 182.5zM154.313 135.188c1.867-1.287 4.848-3.007 8.844-4.031 3.146-.806 5.901-.919 7.906-.844-2.291.291-4.884.765-7.688 1.531C159.842 132.81 156.807 134.013 154.313 135.188zM153.125 147.594c-1.079.909-2.214 2.007-3.32 3.328-3.545 4.235-5.069 8.71-5.774 11.704 1.382-3.161 3.213-6.687 5.656-10.344C150.828 150.574 151.985 149.013 153.125 147.594zM158.438 143.594c.135-.274.552-1.034 1.469-1.531.872-.473 1.692-.436 2-.406-.529.248-1.084.527-1.656.844C159.593 142.863 158.989 143.231 158.438 143.594zM167.566 140.1c.113-.142.479-.566 1.121-.725.778-.193 1.397.142 1.531.219-.467.033-.993.098-1.563.219C168.26 139.896 167.896 139.995 167.566 140.1zM181.813 140.125c.509-.045 1.553-.069 2.719.438 1.001.435 1.641 1.064 1.969 1.438-.549-.296-1.153-.593-1.813-.875C183.658 140.685 182.687 140.363 181.813 140.125zM171.469 132.74c2.376-.46 6.958-1.014 12.344.541 4.331 1.251 7.414 3.355 9.188 4.781-2.242-1.329-5.327-2.852-9.188-3.938C178.827 132.722 174.474 132.59 171.469 132.74zM176.188 130.656c2.432-.058 6.317.202 10.469 2.156 1.562.735 2.87 1.572 3.938 2.375-1.731-.708-3.577-1.399-5.534-2.055C181.927 132.084 178.951 131.279 176.188 130.656z" fill="#050708"/><path d="M215.016,160.109c-0.497-2.077-1.125-3.74-1.599-4.859c0.134,0.662,0.323,1.64,0.521,2.828 c0.976,5.859,1.569,9.63,0.586,13.764c-0.3,1.26-0.865,3.052-2.029,5.103c0.14-2.023,0.297-3.668,0.412-4.788 c0,0,0.494-4.77-0.125-9.281c-0.049-0.36-0.156-0.993-0.469-1.063c-0.215-0.047-0.447,0.189-0.58,0.349 c0.051,2.668-0.088,5.829-0.638,9.339c-0.433,2.759-1.04,5.22-1.688,7.344c0.042-0.696,0.111-1.75,0.219-3.031 c0.459-5.456,0.938-6.948,0.719-9.5c-0.11-1.281-0.42-3.107-1.344-5.281c0.134,1.841,0.207,4.392-0.075,7.405 c-0.175,1.873-1.1,10.481-5.314,17.452c-5.6,9.264-18.022,17.312-31.987,15.862c-1.862-0.193-14.493-1.71-22.528-12.572 c-9.159-12.384-6.451-28.947-2.472-34.678c0.426-0.614,2.894-4.023,2.417-4.458c-0.307-0.28-1.75,0.746-2.167,1.042 c-1.657,1.178-2.252,2.252-2.5,2.125c-0.327-0.168,0.139-2.332,1.333-4.542c1.228-2.273,2.861-3.918,5.417-6.458 c1.431-1.422,2.478-2.341,2.333-2.542c-0.143-0.198-1.361,0.432-2.375,1c3.791-3.7,4.368-4.457,4.292-4.542 c-0.247-0.275-8.957,4.682-14.375,13.708c-6.025,10.037-5.216,20.501-4.791,23.948c1.111,9.009,5.173,15.266,6.916,17.885 c2.196,3.302,4.474,5.754,6.208,7.417c-3.305-2.728-5.397-5.389-6.667-7.25c-3.562-5.221-5.46-11.191-6.458-14.333 c-0.61-1.92-1.22-4.121-1.375-4.083c-0.069,0.017-0.063,0.483,0.792,5.292c0.877,4.936,1.326,7.012,1.208,7.042 c-0.158,0.04-1.27-3.603-1.792-5.667C132,168.049,135.688,156.908,136,156c1.32-3.836,5.577-14.341,16.787-21.404 c0.848-0.534,16.101-9.82,33.046-4.638c14.756,4.513,23.181,17.669,23.833,17.042c0.404-0.388-2.792-5.459-7.977-9.842 c-13.176-11.138-29.568-9.698-34.065-9.116c-5.122,0.662-9.131,2.062-11.542,3.042c1.017-0.684,2.538-1.612,4.5-2.458 c3.585-1.546,6.72-1.99,6.667-2.375c-0.036-0.263-1.533-0.256-1.707-0.254c-7.002,0.06-15.185,5.74-15.185,5.74 c-3.373,2.341-8.647,6.002-12.691,11.598c-7.948,10.999-10.941,29.198-3.083,44.083c10.949,20.741,39.283,28.071,58.5,18 c17.606-9.227,22.054-29.418,22.542-34.01C216.269,165.341,215.016,160.109,215.016,160.109z M160.271,205.958 c-3.901-1.626-6.809-3.727-8.729-5.333c6.295,4.245,10.546,5.596,12.875,6.104c0.907,0.198,3.675,0.737,6.417,1.229 c4.115,0.739,4.942,0.794,4.937,0.833C175.756,208.911,168.012,209.184,160.271,205.958z" fill="#050708"/></g></switch></svg>