<svg xmlns="http://www.w3.org/2000/svg" viewBox="0 0 350 350" style="enable-background:new 0 0 350 350" xml:space="preserve"><switch><g><path style="opacity:.4" d="M45 45h260v260H45z"/><path style="fill:#942838" d="M277 277H73V73h204v105.111c4.417 1.342 7.557 5.204 7.882 9.634.365 4.972-2.888 9.706-7.882 11.255v78z"/><path d="M321.402 184.402c-1.009-22.906-17.824-44.054-43.883-55.191a9.798 9.798 0 0 0-8.435.349c-.711.376-1.174.736-1.721 1.16a17.402 17.402 0 0 0-2.945 2.905c-2.995-2.104-8.358-6.546-11.458-14.042a30.652 30.652 0 0 1-1.974-7.099c2.774-2.75 7.336-8.06 9.744-15.951a37.964 37.964 0 0 0 1.632-10.987c0-7.414-2.156-14.32-5.863-20.146l1.562-2.528a9.8 9.8 0 0 0-1.629-12.295c-7.002-6.574-14.943-11.009-23.605-13.181a51.123 51.123 0 0 0-12.424-1.518c-18.829-.001-37.792 9.836-52.026 26.989-4.043 4.872-1.426 10.21-1.426 10.211.32 1.149.768 2.042 1.1 2.62-3.268 2.204-9.922 5.951-18.632 5.803a29.798 29.798 0 0 1-6.332-.794c-2.665-4.688-5.69-7.784-7.772-9.623-10.297-9.097-22.446-9.492-25.479-9.5a38.49 38.49 0 0 0-8.687.975l-2.065-2.453a9.147 9.147 0 0 0-1.964-1.779c-2.22-1.485-4.499-1.576-5.547-1.604-.6-.016-1.534-.035-2.695.275a8.816 8.816 0 0 0-2.42 1.069 60.755 60.755 0 0 0-14.336 12.219c-1.73 2.016-5.781 6.738-8.807 13.668-3.957 9.062-4.063 17.888-4.009 23.757 0 0 .184 20.174 12.136 37.811.719 1.062 2.239 3.305 4.891 4.14.998.314 2.017.386 3.253.472 1.988.139 3.642.045 4.793-.071a29.563 29.563 0 0 1 1.514 12.66 29.575 29.575 0 0 1-4.081 12.299c-3.571.696-12.06 2.856-19.614 10.173-9.778 9.471-11.297 21.1-11.611 24.361l-2.751.93a9.8 9.8 0 0 0-6.072 11.248c3.204 14.641 13.695 27.487 18.453 31.2 0 0 15.292 11.933 37.246 12.733 1.531.056 3.847.044 4.167.042 6.769-.04 12.744-.593 18.583-2.312 2.155-.635 3.792-1.281 5.062-2.792 1.041-1.237 1.534-2.696 2.131-4.458a26.02 26.02 0 0 0 1.035-4.16 28.384 28.384 0 0 1 4.936.035c8.924.845 15.328 5.752 18.523 8.675-.069.33-.167.827-.269 1.432 0 0-.518 3.093-.516 6.213.009 11.887 7.597 22.241 7.597 22.241 5.601 7.643 12.569 11.304 16.083 12.854-.083 1.065-.22 4.563 2.146 7.667 1.705 2.237 3.866 3.162 4.833 3.562 1.549.641 3.149.938 6.75.917 5.286-.031 9.293-.715 9.729-.792 3.13-.549 8.418-1.475 13.649-3.615 12.377-5.062 19.511-14.899 22.476-19.094 4.894-6.924 7.122-13.201 8.736-17.75 1.462-4.12 2.289-8.135 3.944-16.167.099-.482.385-1.903.404-3.792.021-2.082.048-4.803-1.515-7.097-1.067-1.566-2.755-2.756-3.548-3.152a11.339 11.339 0 0 0-2.464-1.417c.956-3.81 3.378-10.945 9.859-16.583a29.5 29.5 0 0 1 5.067-3.545 37.541 37.541 0 0 0 8.144 3.387 37.766 37.766 0 0 0 10.275 1.421c11.612 0 21.994-5.252 28.903-13.503l2.943.695a9.8 9.8 0 0 0 11.133-5.397c3.779-8.108 5.51-16.446 5.143-24.78zm-231.93 37.209a8.5 8.5 0 1 1 .001-17.001 8.5 8.5 0 0 1-.001 17.001zm20.167-112.528a8.5 8.5 0 1 1 .001-17.001 8.5 8.5 0 0 1-.001 17.001zM175 179.917c-5.799 0-10.5-4.701-10.5-10.5s4.701-10.5 10.5-10.5 10.5 4.701 10.5 10.5-4.701 10.5-10.5 10.5zm14.806 95.694a8.5 8.5 0 1 1 .001-17.001 8.5 8.5 0 0 1-.001 17.001zm33.491-181.283c-4.833 0-8.75-3.917-8.75-8.75s3.917-8.75 8.75-8.75 8.75 3.917 8.75 8.75-3.918 8.75-8.75 8.75zm49.759 102.469a8.5 8.5 0 1 1 .001-17.001 8.5 8.5 0 0 1-.001 17.001z"/><path style="fill:#fff" d="M311.611 184.833c-.853-19.361-15.865-37.175-37.944-46.611-18.014 15.14-35.747 21.411-42.958 15.851-1.328-1.024-3.745-3.564-5.292-7.157-2.634-6.117-1.288-11.895-.333-15.75 3.067-12.386 12.081-20.241 16.083-23.333a34.68 34.68 0 0 1-9.938 4.511s-4.246 1.211-8.242 1.211c-15.74 0-28.5-12.76-28.5-28.5s12.76-28.5 28.5-28.5c8.552 0 16.218 3.772 21.442 9.736l5.294-8.569c-4.404-4.135-10.805-8.694-19.281-10.82-18.58-4.661-39.615 4.256-54.524 22.223 3.97 9.008 5.657 16.809 6.449 22.166 2.122 14.338-.991 19.07-1.866 20.292-.767 1.072-2.931 3.799-6.667 5.333-5.581 2.293-10.962.401-14-.667-14.476-5.089-22.171-22.686-23.5-25.833a35.052 35.052 0 0 1 1.212 4.967s.482 2.677.482 5.228c0 15.74-12.76 28.5-28.5 28.5-16.278 0-28.374-14.01-28.5-28.5-.094-10.878 6.565-21.178 17.056-26.472l-6.5-7.722a51.046 51.046 0 0 0-12.028 10.25c-1.71 1.993-4.874 5.735-7.264 11.208-3.457 7.917-3.328 14.948-3.194 19.55.435 14.949 6.586 26.71 10.486 32.909a105.92 105.92 0 0 1 12.25-.167c6.427.284 11.486.507 17.5 2.583 5.739 1.981 11.399 3.936 13.917 9.333 2.369 5.08.617 10.341-.027 12.273-2.721 8.165-9.934 12.145-13.556 14.143-3.957 2.183-7.555 3.112-10.861 3.972a62.072 62.072 0 0 1-11.472 1.861 33.664 33.664 0 0 1 5.49.438c2.21.36 8.699 1.487 14.385 5.896 10.649 8.257 10.742 22.02 10.736 22.708-.021 2.315-.37 9.193-5.056 15.958-.557.804-8.863 12.371-23.444 12.542-12.794.15-23.508-8.51-27.278-18.25a24.785 24.785 0 0 1-1.611-7.514l-9.222 3.528c1.09 4.982 4.443 16.809 15.167 25.778 11.737 9.816 25.33 10.378 32.333 10.667a64.77 64.77 0 0 0 19-2.056 92.948 92.948 0 0 1 3.132-10.925c3.727-10.527 7.997-16.552 10.785-19.936 3.228-3.92 5.749-5.854 8.917-6.667.463-.119 2.63-.647 5.417-.25 9.76 1.392 14.998 12.419 15.417 13.333 1.922 4.195 2.14 7.707 2.436 12.411a60.601 60.601 0 0 1-1.477 17.589c.769-2.565 3.024-8.841 9.167-14 1.826-1.534 8.572-6.812 18.542-6.778 1.278.004 14.068.267 22.458 10.986 5.61 7.167 6.025 14.883 6.042 17.514.062 9.524-4.66 18.174-11.312 23.257-1.049.802-4.404 3.24-9.458 4.688-6.08 1.742-11.264 1.089-13.951.556l.528 9.889c5.938.615 14.542.499 23.434-3.467 17.412-7.767 28.61-27.033 29.76-49.519-21.921-12.08-31.683-29.344-27.667-37.875 1.852-3.932 7.502-7.859 13-9.583 4.776-1.498 8.705-1.105 12.319-.706 4.62.511 12.787 2.102 21.973 7.956-2.669-1.929-8.923-7.019-11.633-15.863-.291-.948-1.255-4.571-1.255-8.387 0-15.74 12.76-28.5 28.5-28.5s28.5 12.76 28.5 28.5c0 3.821-1.049 7.68-1.049 7.681a31.547 31.547 0 0 1-2.687 6.82l9.708 2.292c3.963-8.513 4.43-15.668 4.23-20.21zM175 211.667c-23.196 0-42-18.804-42-42s18.804-42 42-42 42 18.804 42 42-18.804 42-42 42z"/><path style="fill:#fff" d="M175 135.833c-18.502 0-33.5 14.998-33.5 33.5s14.998 33.5 33.5 33.5 33.5-14.998 33.5-33.5-14.998-33.5-33.5-33.5zm0 54.5c-11.598 0-21-9.402-21-21s9.402-21 21-21 21 9.402 21 21-9.402 21-21 21z"/></g></switch></svg>