<svg xmlns="http://www.w3.org/2000/svg" viewBox="0 0 350 350" style="enable-background:new 0 0 350 350" xml:space="preserve"><switch><g><path style="fill:#fff" d="M59.954 59.962h230.075v230.075H59.954z"/><path d="M69.492 69.5h211v211h-211z"/><path style="fill:#9a273f" d="M78.992 79h192v192h-192z"/><radialGradient id="hibana-a" cx="174.992" cy="175" r="96" gradientTransform="matrix(0 -1 1.75 0 -131.258 349.992)" gradientUnits="userSpaceOnUse"><stop offset="0" style="stop-color:#cc7a78"/><stop offset="1" style="stop-color:#fff;stop-opacity:0"/></radialGradient><path style="fill:url(#hibana-a)" d="M78.992 79h192v192h-192z"/><g><path style="fill:#050708" d="M312.667 180.917c-.712-9.141-3.988-15.72-5.917-19.5 0 0-8.909-17.461-32.917-28.583-2.689-1.246-6.118-2.493-9.524-1.219-2.457.919-3.982 2.806-4.81 4.073a29.004 29.004 0 0 1-7.813-9.188 28.957 28.957 0 0 1-3.25-10.25 21.622 21.622 0 0 0 4.375-4.688c.671-.978 1.66-2.444 2.375-4.625.629-1.92.787-3.606.813-4.771a35.176 35.176 0 0 1-5.125 9.271 34.847 34.847 0 0 1-3.813 4.188 9.113 9.113 0 0 0-.125 1.813c.041 1.323.354 2.012.14 2.125-.253.133-1.08-.623-1.452-1.562-.457-1.153-.101-2.261.063-2.688a55.31 55.31 0 0 0 11.75-19.875 66.591 66.591 0 0 0-5.438-25.605c.962-1.223 2.219-3.244 2.25-5.771.014-1.128-.181-5.182-7.438-10.563-14.071-10.434-31.187-9.812-31.187-9.812-17.224.625-29.369 9.833-35.938 14.812a79.632 79.632 0 0 0-12.813 12.188 48.102 48.102 0 0 0 .589 8.141 39.16 39.16 0 0 1-14.63 4.942c1.496.405 2.232.745 2.208 1.021-.047.554-3.172.846-9.375.875-1.7-2.933-6.437-10.206-15.833-14.917-9.926-4.976-19.099-4.107-22.411-3.633a84.774 84.774 0 0 1 4.233-.71c1.088-.155 2.306-.347 3.375-.406a23.734 23.734 0 0 1 6.781.563c-3.17-.918-7.688-1.788-13.063-1.396a36.615 36.615 0 0 0-6.191.992c-.804-.923-2.055-2.061-3.823-2.625-5.096-1.626-10.501 2.781-14.402 6.05-4.259 3.568-14.425 12.341-17.833 27.75-1.504 6.8-1.124 12.325-.844 15.986.653 8.554 2.902 14.605 4.928 19.93 3.49 9.173 6.271 16.197 12.167 17.667 1.534.383 2.886.291 3.75.167a23.355 23.355 0 0 1 2.167 11.5 23.316 23.316 0 0 1-3.292 10.417c-3.661 1.023-13.507 4.297-21.458 13.917-7.196 8.706-8.916 17.865-9.416 21.707-1.171.62-3.436 2.04-4.667 4.708-1.143 2.477-.893 4.945-.417 7.167 2.918 13.599 11.833 23 11.833 23 8.069 8.483 16.874 11.978 20.833 13.5 13.352 5.134 23.992 3.822 34.247 2.557 5.584-.689 10.437-1.894 12.586-5.723 1.019-1.815 1.135-3.694 1.083-4.958a26.675 26.675 0 0 1 6.583.125c5.089.734 8.878 2.794 11.083 4.25.157-.119 1.986-1.45 4.124-.709 1.491.517 2.199 1.718 2.376 2.042a6.94 6.94 0 0 0-.5 1.833c-.223 1.734.272 3.131.583 3.833-.469 3.116-1.249 11.247 3.312 19.475a29.362 29.362 0 0 0 6.563 8.025l-2.25.125c2.054 3.7 4.383 5.587 6.125 6.625 2.61 1.555 4.64 1.647 6.417 3.833 1.665 2.049 1.367 3.797 2 5.083 3.02 6.142 29.473 6.321 46.333-8.75 6.703-5.992 10.472-13.17 12.833-17.667 3.529-6.719 4.695-11.443 6.417-18.417.497-2.013 2.424-10.131-.25-14.667-.872-1.478-2.083-2.667-2.083-2.667a13.208 13.208 0 0 0-5.083-3.083 31.84 31.84 0 0 1 4.583-10.667c3.204-4.787 7-7.635 9.333-9.125a11.1 11.1 0 0 0 4.083 1.292 11.099 11.099 0 0 0 4.042-.292c6.712 2.125 12.413 2.336 16.046 2.196 4.207-.162 9.839-.379 15.912-3.737a29.304 29.304 0 0 0 7.833-6.333c.999.462 2.938 1.198 5.083.75 8.025-1.675 12.171-18.49 11.171-31.332zm-57.124-42.582c-2.423-1.789-5.729-4.733-8.21-9.043-.357-.621-1.669-2.958-2.732-6.283a33.984 33.984 0 0 1-1.185-4.967 32.332 32.332 0 0 0 4.583 10.667 32.343 32.343 0 0 0 8.75 8.833l-1.206.793z"/><path style="fill:#050708" d="M150.031 264.172c-.062-.001-.098-2.568-.109-7.703a28.237 28.237 0 0 0-3.672-2.594c-3.991-2.366-7.848-3.315-10.625-3.719.718.047 1.716.144 2.891.359.748.137 3.996.769 7.888 2.832a30.502 30.502 0 0 1 4.393 2.84 2.773 2.773 0 0 0-.172.25s-.165.27-.255.545c-.1.306-.077.535-.074.877.003.277-.006.676-.063 1.172-.083 3.428-.151 5.141-.202 5.141zM158.078 287.75c-.098.095 6.393 6.854 6.594 6.672.052-.047-.351-.531-.234-.656.188-.201 1.488.767 1.547.688.056-.075-.781-.75-.781-.75-2.37-1.911-3.973-3.133-5.203-4.188-1.317-1.128-1.893-1.795-1.923-1.766zM241.5 232.833a19.85 19.85 0 0 1 1.417-2.854c2.185-3.633 5.106-5.828 7.146-7.063a36.96 36.96 0 0 0-8.563 9.917zM142.75 75.875c-3.189-3.426-10.728-10.469-21.796-11.653a30.358 30.358 0 0 0-6.079-.035c2.762.139 6.012.557 9.553 1.536 8.72 2.409 14.833 7.007 18.322 10.152z"/><g><path style="fill:#fff" d="m57.75 216.875 8.875-3.281c1.236 11.451 9.348 20.946 20.25 23.781 10.561 2.746 21.474-1.346 28-9.375 6.775-8.335 8.388-20.377 3-30.25-4.671-8.56-13.766-13.953-23.75-14.125 15.975-1.554 28.653-8.85 31.89-19.365.439-1.427 2.08-6.756-.348-11.677-3.734-7.568-14.567-9.057-23.25-10.25a67.187 67.187 0 0 0-17.583-.083c-.762-1.109-18.442-27.707-5.842-52.137 4.767-9.242 12.054-14.658 16.758-17.488l6.25 6.792c-1.572.738-12.763 6.218-15.75 18.667-2.835 11.812 2.817 25.307 14.75 31.083 11.429 5.532 24.978 2.22 32.742-6.769 8.979-10.396 6.092-23.61 5.758-25.023 2.468 6.316 5.868 10.471 8.083 12.792 3.095 3.242 9.691 10.151 19.583 10.417 1.779.048 6.453.173 9.75-2 7.81-5.147 8.117-23.34-1.167-44.208a69.547 69.547 0 0 1 5.833-5.542c5.825-4.922 20.615-17.421 39.17-15.787 11.231.989 19.652 6.788 24.497 11.005l-4.75 7.573c-.956-.998-10.799-10.937-24.583-8.792-12.345 1.921-22.539 12.708-23.167 25.833-.55 11.511 6.374 22.395 17 26.667 12.658 5.088 24.051-1.827 25.25-2.583a42.807 42.807 0 0 0-8.5 10.167c-2.692 4.495-6.931 11.572-5.417 20.333.248 1.437 1.345 7.779 5.265 11.007 7.358 6.058 24.999 1.422 41.652-14.09 21.085 9.074 35.294 26.119 35.852 44.418.13 4.251-.406 10.907-4.227 18.79l-8.875-2.5c5.966-10.427 4.608-23.458-3.25-32.125-7.724-8.52-19.833-10.729-29.839-7.016-9.053 3.36-16.386 11.568-17.744 22.016-1.932 14.861 9.508 24.364 10.146 24.875-13.983-7.757-28.504-8.945-37.065-2.162-1.141.904-5.545 4.393-6.331 9.87-1.138 7.922 6.039 14.804 12.5 21 3.464 3.322 8.316 7.263 14.833 10.792-1.597 21.799-12.658 40.152-29.417 47.042-7.586 3.119-14.943 3.314-20.583 2.708l-.5-9c11.791 2.472 23.846-3.037 29.583-13.458 5.943-10.796 3.387-23.738-4.25-31.917-6.756-7.236-17.623-10.888-27.917-7.667-12.003 3.756-16.567 14.773-17.167 16.292 3.074-15.604-.358-29.778-9.5-35.792-1.415-.931-5.204-3.423-9.857-2.912-10.996 1.207-17.567 18.173-20.726 26.329a79.481 79.481 0 0 0-3.042 9.625c-1.644.441-32.535 8.228-51.708-11.625-6.96-7.208-9.866-15.46-11.165-20.875z"/></g><g><circle style="fill:#9a273f" cx="112.938" cy="104.604" r="10.854"/><circle style="fill:#9a273f" cx="220.188" cy="90.188" r="10.854"/><circle style="fill:#9a273f" cx="267.438" cy="187.271" r="10.854"/><circle style="fill:#9a273f" cx="189.188" cy="262.188" r="10.854"/><circle style="fill:#9a273f" cx="93.771" cy="210.854" r="10.854"/></g><g><path style="fill:#9a273f" d="M189.667 170.167c-.215 6.848-6.321 14.308-14.75 14.417-8.236.106-15.099-6.855-15.167-15-.074-8.923 8.039-15.384 15.083-15.25 5.471.104 9.308 4.169 10.25 5.167.928.982 4.761 5.042 4.584 10.666z"/><path style="fill:#050708" d="M174 152.75c-5.549.196-10.703 3.256-13.654 7.93-2.958 4.686-2.418 9.229-1.118 14.353 1.148 4.524 4.986 8.638 9.463 10.259 3.795 1.374 10.063 1.631 13.634-.284 6.475-3.471 10.075-10.233 9.173-17.388-1.06-8.41-9.123-15.166-17.498-14.87zm1.708 29.75c-3.54.045-7.155-.341-9.708-3-2.291-2.386-3.543-5.541-3.787-8.826-.546-7.36 3.046-13.025 10.602-14.294 6.327-1.062 17.306 3.828 16.704 11.283-.25 3.09-.733 7.623-2.968 9.948-1.433 1.491-3.157 2.214-5.09 2.78-1.652.486-4.138 2.088-5.753 2.109zM154.313 135.188a27.718 27.718 0 0 1 8.844-4.031 27.685 27.685 0 0 1 7.906-.844 55.79 55.79 0 0 0-16.75 4.875zM153.125 147.594a27.08 27.08 0 0 0-3.32 3.328c-3.545 4.235-5.069 8.71-5.774 11.704a66.747 66.747 0 0 1 9.094-15.032zM158.438 143.594a3.522 3.522 0 0 1 1.469-1.531 3.516 3.516 0 0 1 2-.406c-.529.248-1.084.527-1.656.844-.658.362-1.262.73-1.813 1.093zM167.566 140.1a2.093 2.093 0 0 1 1.121-.725 2.116 2.116 0 0 1 1.531.219 11.377 11.377 0 0 0-2.652.506zM181.813 140.125a5.598 5.598 0 0 1 2.719.438 5.588 5.588 0 0 1 1.969 1.438 22.182 22.182 0 0 0-4.688-1.876zM171.469 132.74c2.376-.46 6.958-1.014 12.344.541a26.366 26.366 0 0 1 9.188 4.781 38.423 38.423 0 0 0-9.188-3.938 38.52 38.52 0 0 0-12.344-1.384zM176.188 130.656c2.432-.058 6.317.202 10.469 2.156a22.466 22.466 0 0 1 3.938 2.375 91.131 91.131 0 0 0-5.534-2.055 91.277 91.277 0 0 0-8.873-2.476z"/><path style="fill:#050708" d="M215.016 160.109a30.904 30.904 0 0 0-1.599-4.859c.134.662.323 1.64.521 2.828.976 5.859 1.569 9.63.586 13.764-.3 1.26-.865 3.052-2.029 5.103.14-2.023.297-3.668.412-4.788 0 0 .494-4.77-.125-9.281-.049-.36-.156-.993-.469-1.063-.215-.047-.447.189-.58.349a53.702 53.702 0 0 1-2.326 16.683c.042-.696.111-1.75.219-3.031.459-5.456.938-6.948.719-9.5-.11-1.281-.42-3.107-1.344-5.281a44.671 44.671 0 0 1-.075 7.405c-.175 1.873-1.1 10.481-5.314 17.452-5.6 9.264-18.022 17.312-31.987 15.862-1.862-.193-14.493-1.71-22.528-12.572-9.159-12.384-6.451-28.947-2.472-34.678.426-.614 2.894-4.023 2.417-4.458-.307-.28-1.75.746-2.167 1.042-1.657 1.178-2.252 2.252-2.5 2.125-.327-.168.139-2.332 1.333-4.542 1.228-2.273 2.861-3.918 5.417-6.458 1.431-1.422 2.478-2.341 2.333-2.542-.143-.198-1.361.432-2.375 1 3.791-3.7 4.368-4.457 4.292-4.542-.247-.275-8.957 4.682-14.375 13.708-6.025 10.037-5.216 20.501-4.791 23.948 1.111 9.009 5.173 15.266 6.916 17.885a44.181 44.181 0 0 0 6.208 7.417c-3.305-2.728-5.397-5.389-6.667-7.25-3.562-5.221-5.46-11.191-6.458-14.333-.61-1.92-1.22-4.121-1.375-4.083-.069.017-.063.483.792 5.292.877 4.936 1.326 7.012 1.208 7.042-.158.04-1.27-3.603-1.792-5.667-3.041-12.037.647-23.178.959-24.086 1.32-3.836 5.577-14.341 16.787-21.404.848-.534 16.101-9.82 33.046-4.638 14.756 4.513 23.181 17.669 23.833 17.042.404-.388-2.792-5.459-7.977-9.842-13.176-11.138-29.568-9.698-34.065-9.116a46.55 46.55 0 0 0-11.542 3.042 27.76 27.76 0 0 1 4.5-2.458c3.585-1.546 6.72-1.99 6.667-2.375-.036-.263-1.533-.256-1.707-.254-7.002.06-15.185 5.74-15.185 5.74-3.373 2.341-8.647 6.002-12.691 11.598-7.948 10.999-10.941 29.198-3.083 44.083 10.949 20.741 39.283 28.071 58.5 18 17.606-9.227 22.054-29.418 22.542-34.01.644-6.067-.609-11.299-.609-11.299zm-54.745 45.849c-3.901-1.626-6.809-3.727-8.729-5.333 6.295 4.245 10.546 5.596 12.875 6.104.907.198 3.675.737 6.417 1.229 4.115.739 4.942.794 4.937.833-.015.12-7.759.393-15.5-2.833z"/></g></g></g></switch></svg>