<svg xmlns="http://www.w3.org/2000/svg" viewBox="0 0 350 350" style="enable-background:new 0 0 350 350" xml:space="preserve"><switch><g><path style="opacity:.4" d="M45 45h260v260H45z"/><path style="fill:#8c638c" d="M73 73h204v204H73z"/><path d="M73 277h162.562l6.528-4.323c18.442-12.209 19.65-12.974 21.785-14.51 3.072-2.212 11.286-8.191 19.333-17.167 3.835-4.277 12.013-14.12 18.395-28.868 9.324-21.544 9.007-40.133 8.891-44.025-.144-4.842-.86-16.505-5.661-30.378a104.538 104.538 0 0 0-3.778-9.396c-8.546-18.582-20.887-30.473-25.077-34.303-4.084-3.733-14.448-12.626-30.228-19.488a110.93 110.93 0 0 0-17.611-5.958 56.885 56.885 0 0 0-5.389-3.75s-5.484-3.364-12.139-5.611c-6.264-2.116-19.554-5.085-31.319-5.181C162.43 53.904 123.422 59.462 73 73a536.428 536.428 0 0 0-38 60.424l-.654 1.216a4.089 4.089 0 0 0-.188 2.337 43.704 43.704 0 0 0 2.738 8.065c.865 1.914 1.632 3.242 2.646 5 1.361 2.358 3.129 5.424 5.812 8.75 2.003 2.484 3.689 4.087 5.788 6.068 6.516 6.151 12.673 10.187 17.192 13.141a147.263 147.263 0 0 0 4.667 2.927L73 277z"/><path style="fill:#fff" d="M117.167 193.667a36.8 36.8 0 0 0 2.889-4.611c1.454-2.757 2.287-5.2 3.25-8.056.109-.322.449-1.404 1.13-3.566 1.508-4.79 2.217-7.155 4.086-7.815.256-.09.477-.129.618-.147a1234.69 1234.69 0 0 1 53.138-13.473 162.587 162.587 0 0 1-2.833-6.5c-2.395-5.837-3.769-10.152-5.722-16.333-3.55-11.238-4.501-16.119-4.868-18.125-.293-1.599-.5-2.925-.632-3.819l49.722-6.722c.127-5.79-.066-27.71-15.833-43.611-7.826-7.892-16.945-11.738-20.556-13.222-8.502-3.496-14.987-4.12-26.444-5.222-9.151-.88-24.028-2.201-42.648 1.423-6.355 1.237-11.58 2.254-18.324 5.133-2.485 1.061-14.022 6.15-25.538 18.043-7.172 7.405-10.789 13.786-17.324 25.317a241.374 241.374 0 0 0-14.132 29.451 52.37 52.37 0 0 0-1.229 3.479c-.566 1.801-.7 2.571-.586 3.468.089.699.301 1.256.475 1.629l7.278 12.736 13.75-24.292c.182-.347.491-.538.763-.49.191.034.305.175.335.212.215.266.202.701-.014 1.111a682.025 682.025 0 0 1-1.667 5.611c-2.802 9.289-3.664 11.439-4.583 15.167-.729 2.957-1.577 7.238-1.917 12.639l5.028 4.667a65.738 65.738 0 0 1 6.139-19.875c.131-.2.35-.312.559-.28.311.047.431.388.458.464a.821.821 0 0 1 .025.441 129.54 129.54 0 0 0-1.75 23.583 473.887 473.887 0 0 0 9.417 6.292c11.709 7.623 13.081 7.779 17.708 11.514 5.188 4.188 10.172 8.307 13.111 15.444 1.832 4.448 2.234 8.522 2.278 11.278a43.002 43.002 0 0 0 8.666-13.278l5.777.335z"/><path style="fill:#8c638c" d="m176.083 117.25 30.083-3.208a50.033 50.033 0 0 0-1.125 15.292 31.406 31.406 0 0 0 2.903 3.778s1.935 2.157 4.611 4.214c5.338 4.101 13.075 7.264 14.403 7.8.051.365.101.919.042 1.583-.295 3.317-2.967 5.64-4.292 6.792-1.838 1.598-3.472 3.441-5.431 4.889-.066.049-.292.212-.333.472-.058.365.282.698.389.806.544.546 2.637 2.857 5.708 6.25.064.053.53.451.514 1.083a1.33 1.33 0 0 1-.264.75l-2.5 3.5a.862.862 0 0 0 .042 1.041l2.417 3.417c.15.255.244.504.299.743.63 2.741-3.586 5.616-3.924 5.841a1.157 1.157 0 0 0-.19.195c-.557.726-.061 1.892.023 2.083.157.483.6 1.845 1.181 3.625 1.373 4.209 1.736 5.289 1.694 6.889-.014.539-.068 2.089-.778 3.639-1.893 4.134-7.028 5.167-7.847 5.319l-36.5-2.25a63.995 63.995 0 0 0-9.875 9.833c-4.1 5.092-6.406 9.565-7.708 12.125-1.406 2.764-2.506 5.62-4.708 11.333-.645 1.675-1.382 3.645-1.958 6.333-.487 2.271-.907 4.319-.542 6.958.152 1.1.433 2.993 1.625 4.958.887 1.463 1.892 2.326 3.917 3.875 5.391 4.124 7.756 5.263 11.208 8.333a44.954 44.954 0 0 1 2.778 2.694H80.501V255.25c.186-.416.486-1.076.875-1.875 0 0 1.969-4.044 4.957-8.431 2.34-3.437 8.109-10.826 16.501-19.944l.312-13.771a31.77 31.77 0 0 0 5.91-4.507 31.87 31.87 0 0 0 6.007-8.014l5.743-.139c.586-1.067 1.523-2.771 2.692-4.888 1.373-2.485 1.639-2.959 2.086-3.822 1.152-2.225 1.68-3.524 2.695-5.787a194.288 194.288 0 0 1 3.305-6.99c.107-.227.239-.461.403-.694.919-1.311 2.291-1.83 3.02-2.039l57.827-13.35a167.706 167.706 0 0 1-16.751-43.749z"/><path style="fill:#fff" d="M237.583 78.167a58.872 58.872 0 0 1 6.472 11.444c2.863 6.723 3.76 12.316 4.312 15.914a75.8 75.8 0 0 1 .841 13.684l-10.458 1.958a38.326 38.326 0 0 0-2.028 6c-1.392 5.617-1.259 10.562-.833 14.083a38.12 38.12 0 0 0 4.389 5.417c5.851 6 12.467 8.793 16.75 10.139.209.066.522.201.743.497.172.229.358.649.104 1.906-.156.774-.423 1.582-.656 2.031-.714 1.374-3.913 4.78-8.719 8.844-.051.035-.512.37-.531.979-.018.593.397.951.448.993l5.875 5.955c.083.099.293.377.322.788.041.571-.298.962-.364 1.035l-2.396 3.604a1.794 1.794 0 0 0 .417.917c.516.606 1.266 1.621 1.5 1.948.305.427.457.64.578.894.626 1.314.106 2.796-.071 3.304-.693 1.978-2.315 2.984-2.866 3.293-.428.112-.607.353-.662.436-.137.207-.156.427-.188.792 0 0-.027.31-.009.563.061.876 1.641 5.647 2.03 6.972.846 2.879.662 5.103.556 5.972-.106.87-.206 1.634-.637 2.548-1.037 2.201-3.026 3.21-3.981 3.695-1.571.798-2.968 1.009-4.562 1.25a21.661 21.661 0 0 1-2.936.241 876.492 876.492 0 0 0-32.71-2.345 62.808 62.808 0 0 0-7.965 7.458c-4.731 5.274-7.35 9.998-9.014 13.042 0 0-4.959 9.072-7.292 20.792-.257 1.289-.687 3.763.133 6.583.608 2.092 1.624 3.414 1.909 3.771a10.453 10.453 0 0 0 3.208 2.674h39.5a46.014 46.014 0 0 0 5.875-1.403c1.14-.352 3.797-1.222 9.556-4.111 3.831-1.922 7.31-3.872 9.113-4.969 15.889-9.671 27.769-24.628 27.769-24.628 5.214-6.565 22.852-29.439 22.903-62.167.025-15.883-4.101-28.489-6.591-34.875-1.133-2.905-4.921-12.203-12.25-22.208-15.443-21.086-36.301-31.246-47.584-35.71z"/></g></switch></svg>