<svg xmlns="http://www.w3.org/2000/svg" viewBox="0 0 350 350"><switch><g><path fill="#fff" d="M60 60h229.999v229.995H60z"/><path d="M69.534 69.534h210.93v210.927H69.534z"/><linearGradient id="iana-a" gradientUnits="userSpaceOnUse" x1="79.031" y1="174.998" x2="270.968" y2="174.998"><stop offset="0" stop-color="#8f6692"/><stop offset="1" stop-color="#906693"/></linearGradient><path fill="url(#iana-a)" d="M79.031 79.031h191.937v191.933H79.031z"/><path d="M73.022 276.538v-18.857a63.955 63.955 0 017.385-16.088 64.069 64.069 0 0114.374-15.824 94.716 94.716 0 00-.147-15.316c-.367-4.056-.905-7.111-1.022-7.729-1.845-9.678-13.988-16.126-28.472-26.345-27.342-19.29-31.313-29.644-32.204-36.457a27.845 27.845 0 01-.206-4.846c41.982-46.599 86.88-69.986 111.766-73.747 11.776-1.78 30.977-.965 41.275-.527 6.349.27 14.49.807 23.472 5.243A48.67 48.67 0 01215.87 70c9.782 2.987 23.442 8.245 37.978 17.802 4.986 3.278 16.112 10.685 25.507 21.329 17.932 20.316 25.355 47.667 24.965 69.034-.75 41.143-30.84 80.549-75.956 98.374l-155.342-.001z"/><path d="M97.615 210.077c-.236-3.506-1.058-8.859-4.088-14.374-2.08-3.787-5.193-7.634-18.593-17.011a296.739 296.739 0 00-19.632-12.61 94.733 94.733 0 01.593-13.352c.719-6.235 1.776-9.984 1.168-10.184-.712-.235-3.189 4.548-4.679 9.344a40.606 40.606 0 00-1.78 10.236 28.727 28.727 0 01-5.192-4.549c.075-5.686.92-10.109 1.681-13.104.822-3.233 2.392-8.135 4.617-15.078 1.229-3.836 1.707-5.251 1.416-5.394-.765-.376-5.89 8.512-8.308 12.907a182.663 182.663 0 00-5.637 11.126 32.023 32.023 0 01-5.885-8.703 31.93 31.93 0 01-2.374-7.566 204.517 204.517 0 0110.78-24.28c8.655-16.513 16.68-31.823 30.857-42.923 20.408-15.98 44.331-16.005 60.33-16.022 20.425-.022 46.399-.049 63.752 19.236 14.442 16.049 15.033 36.718 14.841 44.589a274.042 274.042 0 01-45.363 5.67c1.037 8.877 3.339 19.949 8.407 31.879a114.425 114.425 0 006.33 12.659l-57.527 13.22a223.708 223.708 0 01-10.813 23.275l-6.066-.527a24.273 24.273 0 01-3.956 6.989 24.256 24.256 0 01-4.879 4.547z" fill="#fff"/><linearGradient id="iana-b" gradientUnits="userSpaceOnUse" x1="76.912" y1="195.026" x2="220.058" y2="195.026"><stop offset="0" stop-color="#bcaebd"/><stop offset="1" stop-color="#8f6993"/></linearGradient><path d="M169.945 122.121a403.633 403.633 0 0029.407-3.033 74.391 74.391 0 00-.989 15.033 46.993 46.993 0 0021.693 15.165 9.651 9.651 0 01-.462 3.231c-.622 1.909-1.719 3.16-3.89 5.275a107.426 107.426 0 01-6.066 5.473l7.451 7.451a11.833 11.833 0 01-3.231 4.945 10.73 10.73 0 011.846 2.571c.432.843 1.042 2.032.999 3.223-.103 2.899-4.025 4.665-4.23 4.755-.052.831-.06 2.056.198 3.495.632 3.521 2.226 4.783 2.769 7.055.759 3.179-.965 6.559-2.289 8.132-2.938 3.493-8.097 3.069-22.373 2.01-2.811-.209-9.517-.705-19.712-1.439a70.943 70.943 0 00-11.077 11.703c-5.666 7.553-8.324 14.264-9.099 16.319-1.967 5.215-2.663 9.225-2.967 11.571-.392 3.023-.588 4.534-.307 6.241.791 4.819 4.123 7.918 8.912 12.254a64.66 64.66 0 009.989 7.415H76.913a61.961 61.961 0 013.191-15.911c4.595-13.417 12.784-22.125 17.71-26.58v-12.857a26.886 26.886 0 007.582-6.066 26.811 26.811 0 004.268-6.748l5.671.369a327.001 327.001 0 0011.522-23.885l59.637-14.341a130.074 130.074 0 01-9.237-18.303 130.267 130.267 0 01-7.312-24.523z" fill="url(#iana-b)"/><linearGradient id="iana-c" gradientUnits="userSpaceOnUse" x1="238.156" y1="83.257" x2="238.156" y2="286.542"><stop offset="0" stop-color="#fff"/><stop offset=".113" stop-color="#fcfbfc"/><stop offset=".233" stop-color="#f1eef2"/><stop offset=".357" stop-color="#e1d9e2"/><stop offset=".483" stop-color="#c9bbcb"/><stop offset=".604" stop-color="#ad97b0"/></linearGradient><path d="M232.222 83.257a74.803 74.803 0 018.932 21.326 74.686 74.686 0 012.145 19.158 58.454 58.454 0 01-10.55 2.242 39.143 39.143 0 00-2.673 10.644 39.07 39.07 0 00.167 9.532 53.28 53.28 0 0011.306 10.117 53.186 53.186 0 009.925 5.18c.15.933.23 2.298-.265 3.767-.613 1.819-1.773 2.805-4.122 4.9a421.817 421.817 0 00-5.371 4.877l6.593 7.292c.034.496.013 1.12-.167 1.809-.551 2.104-2.187 3.249-2.734 3.598 2.019 1.127 3.156 3.367 2.866 5.633-.277 2.168-1.813 3.991-3.921 4.653 4.279 12.661 1.858 17.083.105 18.836-3.602 3.601-9.797 1.339-29.54.689-5.166-.17-9.417-.169-12.235-.14a74.703 74.703 0 00-8.87 9.193c-7.744 9.543-20.324 29.907-13.154 40.846.667 1.018 1.749 2.326 3.562 3.558h37.714c43.658-10.566 74.829-49.136 75.824-93.158.946-41.791-25.49-80.122-65.537-94.552z" fill="url(#iana-c)"/><radialGradient id="iana-d" cx="238.427" cy="177.11" r="88.479" fx="152.085" fy="157.784" gradientTransform="matrix(.3076 .9515 -2.9688 .9598 690.89 -219.744)" gradientUnits="userSpaceOnUse"><stop offset=".336" stop-color="#fff"/><stop offset=".436" stop-color="#fcfbfc" stop-opacity=".806"/><stop offset=".538" stop-color="#f2eff3" stop-opacity=".609"/><stop offset=".64" stop-color="#e2dae3" stop-opacity=".41"/><stop offset=".743" stop-color="#ccbece" stop-opacity=".211"/><stop offset=".845" stop-color="#af9ab2" stop-opacity=".013"/><stop offset=".851" stop-color="#ad97b0" stop-opacity="0"/></radialGradient><path d="M232.493 83.257a74.803 74.803 0 018.932 21.326 74.686 74.686 0 012.145 19.158 58.454 58.454 0 01-10.55 2.242 39.143 39.143 0 00-2.673 10.644 39.07 39.07 0 00.167 9.532 53.28 53.28 0 0011.306 10.117 53.156 53.156 0 009.925 5.18c.15.933.23 2.298-.265 3.767-.613 1.819-1.773 2.805-4.122 4.9a421.817 421.817 0 00-5.371 4.877l6.593 7.292c.034.496.013 1.12-.167 1.809-.551 2.104-2.187 3.249-2.734 3.598 2.019 1.127 3.156 3.367 2.866 5.633-.277 2.168-1.813 3.991-3.921 4.653 4.279 12.661 1.858 17.083.105 18.836-3.602 3.601-9.797 1.339-29.54.689-5.166-.17-9.417-.169-12.235-.14a74.703 74.703 0 00-8.87 9.193c-7.744 9.543-20.324 29.907-13.154 40.846.667 1.018 1.749 2.326 3.562 3.558h37.714c43.658-10.566 74.829-49.136 75.825-93.158.946-41.791-25.491-80.122-65.538-94.552z" fill="url(#iana-d)"/><g fill="#fff"><circle cx="249.684" cy="185.182" r="1.395"/><path d="M243.749 176.356a.839.839 0 101.678 0 .839.839 0 00-1.678 0z"/><circle cx="247.136" cy="198.421" r="1.275"/><circle cx="249.684" cy="194.008" r="1.269"/><path d="M252.232 190.965a1.37 1.37 0 100-2.74 1.37 1.37 0 000 2.74zM254.78 186.59a1.408 1.408 0 10.001-2.815 1.408 1.408 0 00-.001 2.815zM252.232 182.205a1.436 1.436 0 100-2.872 1.436 1.436 0 000 2.872zM249.684 177.825a1.47 1.47 0 100-2.939 1.47 1.47 0 000 2.939zM247.136 173.434a1.492 1.492 0 000-2.984 1.48 1.48 0 00-.534.103c-.239.214-.505.452-.783.703a1.47 1.47 0 00-.174.686c0 .825.668 1.492 1.491 1.492z"/><circle cx="249.684" cy="202.834" r="1.267"/><path d="M252.232 199.73a1.309 1.309 0 100-2.618 1.309 1.309 0 000 2.618zM254.78 195.351a1.343 1.343 0 100-2.685 1.343 1.343 0 000 2.685zM257.328 190.965a1.37 1.37 0 100-2.74 1.37 1.37 0 000 2.74zM259.876 186.59a1.408 1.408 0 10.001-2.815 1.408 1.408 0 00-.001 2.815zM257.328 182.205a1.436 1.436 0 100-2.872 1.436 1.436 0 000 2.872zM254.78 177.825a1.47 1.47 0 100-2.939 1.47 1.47 0 000 2.939zM252.232 173.438a1.496 1.496 0 100-2.993 1.496 1.496 0 000 2.993zM251.011 167.53c0-.39-.175-.732-.443-.975-.418.661-.98 1.271-1.728 1.976.231.194.518.325.844.325a1.325 1.325 0 001.327-1.326zM252.232 206.019a1.228 1.228 0 100 2.457 1.228 1.228 0 000-2.457z"/><circle cx="254.78" cy="202.834" r="1.267"/><path d="M257.328 199.73a1.309 1.309 0 100-2.618 1.309 1.309 0 000 2.618zM259.876 195.351a1.343 1.343 0 100-2.685 1.343 1.343 0 000 2.685zM262.424 190.965a1.37 1.37 0 100-2.74 1.37 1.37 0 000 2.74zM264.972 186.59a1.408 1.408 0 10.001-2.815 1.408 1.408 0 00-.001 2.815z"/><circle cx="262.424" cy="180.769" r="1.436"/><path d="M259.876 177.825a1.47 1.47 0 100-2.939 1.47 1.47 0 000 2.939zM255.832 171.943a1.496 1.496 0 102.993 0 1.496 1.496 0 00-2.993 0zM254.78 169.048a1.518 1.518 0 100-3.037 1.518 1.518 0 000 3.037zM252.232 164.381a1.264 1.264 0 000-2.528c-.261 0-.49.098-.692.234.054.587.06 1.271-.063 2.018.213.162.467.276.755.276zM249.684 210.468a1.193 1.193 0 100 2.386 1.193 1.193 0 000-2.386zM254.78 210.468a1.193 1.193 0 100 2.386 1.193 1.193 0 000-2.386zM257.328 206.019a1.228 1.228 0 100 2.457 1.228 1.228 0 000-2.457zM259.876 201.568a1.267 1.267 0 100 2.533 1.267 1.267 0 000-2.533zM262.424 199.73a1.309 1.309 0 100-2.618 1.309 1.309 0 000 2.618zM264.972 195.351a1.343 1.343 0 100-2.685 1.343 1.343 0 000 2.685zM267.519 190.965a1.37 1.37 0 100-2.74 1.37 1.37 0 000 2.74zM270.067 186.59a1.408 1.408 0 10.001-2.815 1.408 1.408 0 00-.001 2.815zM267.519 182.205a1.436 1.436 0 100-2.872 1.436 1.436 0 000 2.872zM264.972 177.825a1.47 1.47 0 100-2.939 1.47 1.47 0 000 2.939zM262.424 173.438a1.496 1.496 0 100-2.993 1.496 1.496 0 000 2.993zM261.394 167.53a1.518 1.518 0 10-3.037 0 1.518 1.518 0 003.037 0z"/><circle cx="257.328" cy="163.117" r="1.543"/><circle cx="254.78" cy="158.704" r="1.574"/><path d="M249.175 158.704a.51.51 0 101.018 0 .51.51 0 00-1.018 0zM247.136 214.973a1.101 1.101 0 100 2.202 1.101 1.101 0 000-2.202zM252.232 214.919a1.154 1.154 0 100 2.309 1.154 1.154 0 000-2.309zM257.328 214.919a1.154 1.154 0 100 2.309 1.154 1.154 0 000-2.309zM259.876 210.468a1.193 1.193 0 100 2.386 1.193 1.193 0 000-2.386z"/><circle cx="262.424" cy="207.247" r="1.228"/><path d="M264.972 201.568a1.267 1.267 0 100 2.533 1.267 1.267 0 000-2.533zM267.519 199.73a1.309 1.309 0 100-2.618 1.309 1.309 0 000 2.618zM270.067 195.351a1.343 1.343 0 100-2.685 1.343 1.343 0 000 2.685zM272.615 190.965a1.37 1.37 0 100-2.74 1.37 1.37 0 000 2.74zM275.163 186.59a1.408 1.408 0 10.001-2.815 1.408 1.408 0 00-.001 2.815zM272.615 182.205a1.436 1.436 0 100-2.872 1.436 1.436 0 000 2.872zM270.067 177.825a1.47 1.47 0 100-2.939 1.47 1.47 0 000 2.939zM267.519 173.438a1.496 1.496 0 100-2.993 1.496 1.496 0 000 2.993zM266.49 167.53a1.518 1.518 0 10-3.037 0 1.518 1.518 0 003.037 0z"/><circle cx="262.424" cy="163.117" r="1.543"/><path d="M258.302 158.704a1.574 1.574 0 103.147 0 1.574 1.574 0 00-3.147 0z"/><circle cx="257.328" cy="154.291" r="1.6"/><circle cx="252.232" cy="154.291" r="1.6"/><circle cx="247.136" cy="154.291" r="1.578"/><circle cx="242.041" cy="154.291" r=".789"/><path d="M219.11 219.38a1.107 1.107 0 100 2.214 1.107 1.107 0 000-2.214zM224.205 219.38a1.107 1.107 0 100 2.214 1.107 1.107 0 000-2.214zM229.301 219.393a1.093 1.093 0 100 2.186 1.093 1.093 0 000-2.186zM234.397 219.435a1.052 1.052 0 100 2.104 1.052 1.052 0 000-2.104z"/><circle cx="239.493" cy="220.487" r="1.065"/><path d="M244.588 219.38a1.107 1.107 0 100 2.214 1.107 1.107 0 000-2.214zM249.684 219.38a1.107 1.107 0 100 2.214 1.107 1.107 0 000-2.214zM254.78 219.38a1.107 1.107 0 100 2.214 1.107 1.107 0 000-2.214zM259.876 219.38a1.107 1.107 0 100 2.214 1.107 1.107 0 000-2.214z"/><circle cx="262.424" cy="216.074" r="1.154"/><path d="M264.972 210.468a1.193 1.193 0 100 2.386 1.193 1.193 0 000-2.386z"/><circle cx="267.519" cy="207.247" r="1.228"/><circle cx="270.067" cy="202.834" r="1.267"/><path d="M272.615 199.73a1.309 1.309 0 100-2.618 1.309 1.309 0 000 2.618zM275.163 195.351a1.343 1.343 0 100-2.685 1.343 1.343 0 000 2.685zM277.711 190.965a1.37 1.37 0 100-2.74 1.37 1.37 0 000 2.74zM280.259 186.59a1.408 1.408 0 10.001-2.815 1.408 1.408 0 00-.001 2.815zM277.711 182.205a1.436 1.436 0 100-2.872 1.436 1.436 0 000 2.872zM275.163 177.825a1.47 1.47 0 100-2.939 1.47 1.47 0 000 2.939zM272.615 173.438a1.496 1.496 0 100-2.993 1.496 1.496 0 000 2.993zM271.586 167.53a1.518 1.518 0 10-3.037 0 1.518 1.518 0 003.037 0z"/><circle cx="267.519" cy="163.117" r="1.543"/><path d="M263.398 158.704a1.574 1.574 0 103.149 0 1.574 1.574 0 00-3.149 0z"/><circle cx="262.424" cy="154.291" r="1.6"/><path d="M258.262 149.877a1.613 1.613 0 103.226 0 1.613 1.613 0 00-3.226 0zM253.167 149.877a1.613 1.613 0 103.226 0 1.613 1.613 0 00-3.226 0zM248.071 149.877a1.613 1.613 0 103.226 0 1.613 1.613 0 00-3.226 0zM246.202 149.877a1.613 1.613 0 10-3.226 0 1.613 1.613 0 003.226 0z"/><circle cx="239.493" cy="149.877" r="1.572"/><path d="M216.562 223.828a1.072 1.072 0 100 2.144 1.072 1.072 0 000-2.144zM221.657 223.828a1.072 1.072 0 100 2.144 1.072 1.072 0 000-2.144zM226.753 223.828a1.072 1.072 0 100 2.144 1.072 1.072 0 000-2.144zM231.849 223.828a1.072 1.072 0 100 2.144 1.072 1.072 0 000-2.144zM236.945 223.828a1.072 1.072 0 100 2.144 1.072 1.072 0 000-2.144zM242.041 223.828a1.072 1.072 0 100 2.144 1.072 1.072 0 000-2.144zM247.136 223.828a1.072 1.072 0 100 2.144 1.072 1.072 0 000-2.144zM252.232 223.828a1.072 1.072 0 100 2.144 1.072 1.072 0 000-2.144zM257.328 223.828a1.072 1.072 0 100 2.144 1.072 1.072 0 000-2.144zM262.424 223.828a1.072 1.072 0 100 2.144 1.072 1.072 0 000-2.144zM264.972 219.38a1.107 1.107 0 100 2.214 1.107 1.107 0 000-2.214z"/><circle cx="267.519" cy="216.074" r="1.154"/><path d="M270.067 210.468a1.193 1.193 0 100 2.386 1.193 1.193 0 000-2.386zM272.615 206.019a1.228 1.228 0 100 2.457 1.228 1.228 0 000-2.457z"/><circle cx="275.163" cy="202.834" r="1.267"/><path d="M277.711 199.73a1.309 1.309 0 100-2.618 1.309 1.309 0 000 2.618zM280.259 195.351a1.343 1.343 0 100-2.685 1.343 1.343 0 000 2.685zM282.807 190.965a1.37 1.37 0 100-2.74 1.37 1.37 0 000 2.74zM285.355 186.59a1.408 1.408 0 10.001-2.815 1.408 1.408 0 00-.001 2.815zM282.807 182.205a1.436 1.436 0 100-2.872 1.436 1.436 0 000 2.872zM280.259 177.825a1.47 1.47 0 100-2.939 1.47 1.47 0 000 2.939zM277.711 173.438a1.496 1.496 0 100-2.993 1.496 1.496 0 000 2.993zM276.681 167.53a1.518 1.518 0 10-3.037 0 1.518 1.518 0 003.037 0z"/><circle cx="272.615" cy="163.117" r="1.543"/><circle cx="270.067" cy="158.704" r="1.574"/><circle cx="267.519" cy="154.291" r="1.6"/><path d="M263.358 149.877a1.613 1.613 0 103.226 0 1.613 1.613 0 00-3.226 0z"/><circle cx="262.424" cy="145.464" r="1.638"/><path d="M257.328 143.826a1.639 1.639 0 100 3.278 1.639 1.639 0 000-3.278zM252.232 143.826a1.638 1.638 0 100 3.276 1.638 1.638 0 000-3.276z"/><circle cx="247.136" cy="145.464" r="1.638"/><circle cx="242.041" cy="145.464" r="1.638"/><path d="M238.583 145.464a1.638 1.638 0 10-3.276 0 1.638 1.638 0 003.276 0zM230.814 145.464a1.035 1.035 0 102.07 0 1.035 1.035 0 00-2.07 0zM214.014 219.38a1.107 1.107 0 100 2.214 1.107 1.107 0 000-2.214z"/><circle cx="214.014" cy="229.313" r="1.025"/><circle cx="219.11" cy="229.313" r="1.025"/><circle cx="224.205" cy="229.313" r="1.025"/><path d="M229.301 228.288a1.025 1.025 0 100 2.05 1.025 1.025 0 000-2.05z"/><circle cx="234.397" cy="229.313" r="1.025"/><circle cx="239.493" cy="229.313" r="1.025"/><path d="M244.588 228.288a1.025 1.025 0 100 2.05 1.025 1.025 0 000-2.05z"/><circle cx="249.684" cy="229.313" r="1.025"/><circle cx="254.78" cy="229.313" r="1.025"/><circle cx="259.876" cy="229.313" r="1.025"/><circle cx="264.972" cy="229.313" r="1.025"/><path d="M267.519 223.828a1.072 1.072 0 100 2.144 1.072 1.072 0 000-2.144zM270.067 219.38a1.107 1.107 0 100 2.214 1.107 1.107 0 000-2.214zM272.615 214.919a1.154 1.154 0 100 2.309 1.154 1.154 0 000-2.309zM275.163 210.468a1.193 1.193 0 100 2.386 1.193 1.193 0 000-2.386z"/><circle cx="277.711" cy="207.247" r="1.228"/><path d="M280.259 201.568a1.267 1.267 0 100 2.533 1.267 1.267 0 000-2.533zM282.807 199.73a1.309 1.309 0 100-2.618 1.309 1.309 0 000 2.618zM285.355 195.351a1.343 1.343 0 100-2.685 1.343 1.343 0 000 2.685zM287.903 190.965a1.37 1.37 0 100-2.74 1.37 1.37 0 000 2.74zM290.451 186.59a1.408 1.408 0 10.001-2.815 1.408 1.408 0 00-.001 2.815zM287.903 182.205a1.436 1.436 0 100-2.872 1.436 1.436 0 000 2.872zM285.355 177.825a1.47 1.47 0 100-2.939 1.47 1.47 0 000 2.939zM282.807 173.438a1.496 1.496 0 100-2.993 1.496 1.496 0 000 2.993zM281.777 167.53a1.518 1.518 0 10-3.037 0 1.518 1.518 0 003.037 0z"/><circle cx="277.711" cy="163.117" r="1.543"/><circle cx="275.163" cy="158.704" r="1.574"/><circle cx="272.615" cy="154.291" r="1.6"/><path d="M268.454 149.877a1.613 1.613 0 103.226 0 1.613 1.613 0 00-3.226 0z"/><circle cx="267.519" cy="145.464" r="1.638"/><circle cx="264.972" cy="141.051" r="1.661"/><circle cx="259.876" cy="141.051" r="1.661"/><circle cx="254.78" cy="141.051" r="1.661"/><circle cx="249.684" cy="141.051" r="1.661"/><path d="M246.249 141.051a1.661 1.661 0 10-3.323 0 1.661 1.661 0 003.323 0z"/><circle cx="239.493" cy="141.051" r="1.661"/><circle cx="234.397" cy="141.051" r="1.661"/><path d="M208.918 219.38a1.107 1.107 0 100 2.214 1.107 1.107 0 000-2.214zM211.466 223.828a1.072 1.072 0 100 2.144 1.072 1.072 0 000-2.144zM211.466 232.741a.985.985 0 100 1.97.985.985 0 000-1.97zM216.562 232.741a.985.985 0 100 1.97.985.985 0 000-1.97zM221.657 232.741a.985.985 0 100 1.97.985.985 0 000-1.97zM226.753 232.741a.985.985 0 100 1.97.985.985 0 000-1.97zM231.849 232.741a.985.985 0 100 1.97.985.985 0 000-1.97zM236.945 232.741a.985.985 0 100 1.97.985.985 0 000-1.97zM242.041 232.741a.985.985 0 100 1.97.985.985 0 000-1.97zM247.136 232.741a.985.985 0 100 1.97.985.985 0 000-1.97zM252.232 232.741a.985.985 0 100 1.97.985.985 0 000-1.97zM257.328 232.741a.985.985 0 100 1.97.985.985 0 000-1.97zM262.424 232.741a.985.985 0 100 1.97.985.985 0 000-1.97zM267.519 232.741a.985.985 0 100 1.97.985.985 0 000-1.97z"/><circle cx="270.067" cy="229.313" r="1.025"/><path d="M272.615 223.828a1.072 1.072 0 100 2.144 1.072 1.072 0 000-2.144zM275.163 219.38a1.107 1.107 0 100 2.214 1.107 1.107 0 000-2.214z"/><circle cx="277.711" cy="216.074" r="1.154"/><path d="M280.259 210.468a1.193 1.193 0 100 2.386 1.193 1.193 0 000-2.386z"/><circle cx="282.807" cy="207.247" r="1.228"/><circle cx="285.355" cy="202.834" r="1.267"/><path d="M287.903 199.73a1.309 1.309 0 100-2.618 1.309 1.309 0 000 2.618zM290.451 192.665a1.343 1.343 0 100 2.685 1.343 1.343 0 000-2.685zM292.998 190.965a1.37 1.37 0 100-2.74 1.37 1.37 0 000 2.74zM295.546 183.786a1.396 1.396 0 100 2.792 1.396 1.396 0 000-2.792zM292.998 179.333a1.436 1.436 0 100 2.872 1.436 1.436 0 000-2.872zM290.451 174.887a1.47 1.47 0 100 2.939 1.47 1.47 0 000-2.939zM287.903 170.447a1.496 1.496 0 100 2.993 1.496 1.496 0 000-2.993zM286.873 167.53a1.518 1.518 0 10-3.037 0 1.518 1.518 0 003.037 0z"/><circle cx="282.807" cy="163.117" r="1.543"/><path d="M280.259 157.13a1.574 1.574 0 100 3.149 1.574 1.574 0 000-3.149z"/><circle cx="277.711" cy="154.291" r="1.6"/><path d="M273.55 149.877a1.613 1.613 0 103.226 0 1.613 1.613 0 00-3.226 0zM272.615 143.826a1.638 1.638 0 100 3.276 1.638 1.638 0 000-3.276z"/><circle cx="270.067" cy="141.051" r="1.661"/><path d="M267.519 134.964a1.674 1.674 0 100 3.348 1.674 1.674 0 000-3.348zM262.424 134.964a1.674 1.674 0 100 3.348 1.674 1.674 0 000-3.348zM257.328 134.964a1.674 1.674 0 100 3.348 1.674 1.674 0 000-3.348zM252.232 134.964a1.674 1.674 0 100 3.348 1.674 1.674 0 000-3.348zM247.136 134.964a1.674 1.674 0 100 3.348 1.674 1.674 0 000-3.348zM240.366 136.638a1.674 1.674 0 103.348 0 1.674 1.674 0 00-3.348 0zM235.27 136.638a1.674 1.674 0 103.348 0 1.674 1.674 0 00-3.348 0zM233.523 136.638a1.674 1.674 0 10-3.348 0 1.674 1.674 0 003.348 0zM203.822 219.38a1.107 1.107 0 100 2.214 1.107 1.107 0 000-2.214zM206.37 223.828a1.072 1.072 0 100 2.144 1.072 1.072 0 000-2.144zM208.918 228.288a1.025 1.025 0 100 2.05 1.025 1.025 0 000-2.05z"/><circle cx="208.918" cy="238.139" r=".937"/><circle cx="214.014" cy="238.139" r=".937"/><circle cx="219.11" cy="238.139" r=".937"/><circle cx="224.205" cy="238.139" r=".937"/><circle cx="229.301" cy="238.139" r=".937"/><circle cx="234.397" cy="238.139" r=".937"/><circle cx="239.493" cy="238.139" r=".937"/><circle cx="244.588" cy="238.139" r=".937"/><circle cx="249.684" cy="238.139" r=".937"/><circle cx="254.78" cy="238.139" r=".937"/><circle cx="259.876" cy="238.139" r=".937"/><circle cx="264.972" cy="238.139" r=".937"/><circle cx="270.067" cy="238.139" r=".937"/><path d="M272.615 232.741a.985.985 0 100 1.97.985.985 0 000-1.97z"/><circle cx="275.163" cy="229.313" r="1.025"/><path d="M277.711 223.828a1.072 1.072 0 100 2.144 1.072 1.072 0 000-2.144zM280.259 219.38a1.107 1.107 0 100 2.214 1.107 1.107 0 000-2.214z"/><circle cx="282.807" cy="216.074" r="1.154"/><path d="M285.355 210.468a1.193 1.193 0 100 2.386 1.193 1.193 0 000-2.386zM287.903 208.476a1.228 1.228 0 100-2.457 1.228 1.228 0 000 2.457z"/><circle cx="290.451" cy="202.834" r="1.267"/><circle cx="292.998" cy="198.421" r="1.301"/><path d="M295.546 177.825a1.47 1.47 0 100-2.939 1.47 1.47 0 000 2.939zM292.998 173.438a1.496 1.496 0 100-2.993 1.496 1.496 0 000 2.993zM291.969 167.53a1.518 1.518 0 10-3.037 0 1.518 1.518 0 003.037 0z"/><circle cx="287.903" cy="163.117" r="1.543"/><circle cx="285.355" cy="158.704" r="1.574"/><circle cx="282.807" cy="154.291" r="1.6"/><path d="M280.259 148.264a1.613 1.613 0 100 3.226 1.613 1.613 0 000-3.226z"/><circle cx="277.711" cy="145.464" r="1.638"/><circle cx="275.163" cy="141.051" r="1.661"/><path d="M272.615 134.964a1.674 1.674 0 100 3.348 1.674 1.674 0 000-3.348zM268.372 132.225a1.695 1.695 0 103.39 0 1.695 1.695 0 00-3.39 0zM263.276 132.225a1.695 1.695 0 103.39 0 1.695 1.695 0 00-3.39 0zM258.18 132.225a1.695 1.695 0 103.39 0 1.695 1.695 0 00-3.39 0zM253.085 132.225a1.695 1.695 0 103.39 0 1.695 1.695 0 00-3.39 0zM247.989 132.225a1.695 1.695 0 103.39 0 1.695 1.695 0 00-3.39 0zM242.893 132.225a1.695 1.695 0 103.39 0 1.695 1.695 0 00-3.39 0zM239.493 130.53a1.695 1.695 0 100 3.39 1.695 1.695 0 000-3.39zM234.397 133.921a1.695 1.695 0 100-3.39 1.695 1.695 0 000 3.39zM199.574 220.487c0-.072-.024-.137-.041-.203-.33.323-.666.657-1.012 1.009.068.017.133.042.206.042a.849.849 0 00.847-.848zM201.274 223.828a1.072 1.072 0 100 2.144 1.072 1.072 0 000-2.144z"/><circle cx="203.822" cy="229.313" r="1.025"/><path d="M206.37 232.741a.985.985 0 100 1.97.985.985 0 000-1.97zM206.37 241.663a.89.89 0 100 1.78.89.89 0 000-1.78z"/><circle cx="211.466" cy="242.552" r=".89"/><path d="M216.562 241.663a.89.89 0 100 1.778.89.89 0 000-1.778zM221.657 241.663a.89.89 0 100 1.78.89.89 0 000-1.78z"/><circle cx="226.753" cy="242.552" r=".89"/><path d="M231.849 241.663a.89.89 0 100 1.778.89.89 0 000-1.778zM236.945 241.663a.89.89 0 100 1.78.89.89 0 000-1.78zM242.041 241.663a.89.89 0 100 1.78.89.89 0 000-1.78z"/><circle cx="247.136" cy="242.552" r=".89"/><path d="M252.232 241.663a.89.89 0 100 1.778.89.89 0 000-1.778zM257.328 241.663a.89.89 0 100 1.78.89.89 0 000-1.78z"/><circle cx="262.424" cy="242.552" r=".89"/><circle cx="267.519" cy="242.552" r=".876"/><path d="M277.711 233.027a.7.7 0 000 1.398c.037 0 .068-.015.103-.021.192-.253.39-.502.58-.756a.69.69 0 00-.683-.621zM280.259 228.445a.868.868 0 100 1.736.868.868 0 000-1.736zM282.807 223.926a.974.974 0 100 1.948.974.974 0 000-1.948z"/><circle cx="285.355" cy="220.487" r=".972"/><path d="M287.903 215.112a.96.96 0 100 1.922.95.95 0 00.617-.239.946.946 0 00.344-.722c0-.012-.006-.021-.007-.033a.957.957 0 00-.954-.928zM294.028 167.53a1.518 1.518 0 103.036 0 1.518 1.518 0 00-3.036 0z"/><circle cx="292.998" cy="163.117" r="1.543"/><circle cx="290.451" cy="158.704" r="1.574"/><circle cx="287.903" cy="154.291" r="1.6"/><path d="M285.355 148.264a1.613 1.613 0 100 3.226 1.613 1.613 0 000-3.226z"/><circle cx="282.807" cy="145.464" r="1.638"/><path d="M280.259 139.39a1.661 1.661 0 100 3.323 1.661 1.661 0 000-3.323zM277.711 134.964a1.674 1.674 0 100 3.348 1.674 1.674 0 000-3.348zM273.468 132.225a1.695 1.695 0 103.39 0 1.695 1.695 0 00-3.39 0zM272.615 126.103a1.709 1.709 0 100 3.418 1.709 1.709 0 000-3.418zM267.519 126.103a1.709 1.709 0 100 3.418 1.709 1.709 0 000-3.418z"/><circle cx="262.424" cy="127.812" r="1.709"/><path d="M257.328 126.103a1.709 1.709 0 100 3.418 1.709 1.709 0 000-3.418zM252.232 126.103a1.709 1.709 0 100 3.418 1.709 1.709 0 000-3.418z"/><circle cx="247.136" cy="127.812" r="1.709"/><circle cx="242.041" cy="127.812" r="1.709"/><path d="M236.945 129.521a1.709 1.709 0 100-3.418 1.709 1.709 0 000 3.418zM196.179 223.871c-.031 0-.058.015-.089.018-.308.344-.617.694-.93 1.058a1.023 1.023 0 002.047-.048c0-.567-.46-1.028-1.028-1.028z"/><circle cx="198.726" cy="229.313" r="1.025"/><path d="M201.274 232.741a.985.985 0 100 1.97.985.985 0 000-1.97z"/><circle cx="203.822" cy="238.139" r=".937"/><path d="M203.822 246.123a.842.842 0 100 1.684.842.842 0 000-1.684zM208.918 246.123a.842.842 0 100 1.684.842.842 0 000-1.684zM214.014 246.123a.842.842 0 100 1.684.842.842 0 000-1.684zM219.11 246.123a.842.842 0 100 1.684.842.842 0 000-1.684zM224.205 246.123a.842.842 0 100 1.684.842.842 0 000-1.684zM229.301 246.123a.842.842 0 100 1.684.842.842 0 000-1.684zM234.397 246.123a.842.842 0 100 1.684.842.842 0 000-1.684zM239.493 246.123a.842.842 0 100 1.684.842.842 0 000-1.684zM244.588 246.123a.842.842 0 100 1.684.842.842 0 000-1.684zM249.684 246.123a.842.842 0 100 1.684.842.842 0 000-1.684zM254.78 246.123a.842.842 0 100 1.684.842.842 0 000-1.684zM259.876 246.123a.842.842 0 100 1.684.842.842 0 000-1.684zM264.972 246.248a.717.717 0 100 1.434.717.717 0 000-1.434zM294.022 158.704c0 .842.682 1.524 1.524 1.524.345 0 .659-.119.914-.311a94.803 94.803 0 00-.482-2.668 1.51 1.51 0 00-.433-.07c-.841 0-1.523.683-1.523 1.525z"/><circle cx="292.998" cy="154.291" r="1.6"/><path d="M292.064 149.877a1.613 1.613 0 10-3.226 0 1.613 1.613 0 003.226 0zM287.903 143.826a1.638 1.638 0 100 3.276 1.638 1.638 0 000-3.276z"/><circle cx="285.355" cy="141.051" r="1.661"/><path d="M282.807 134.964a1.674 1.674 0 100 3.348 1.674 1.674 0 000-3.348zM280.259 130.53a1.695 1.695 0 100 3.39 1.695 1.695 0 000-3.39zM277.711 126.103a1.709 1.709 0 100 3.418 1.709 1.709 0 000-3.418z"/><circle cx="275.163" cy="123.399" r="1.722"/><circle cx="270.067" cy="123.399" r="1.722"/><path d="M263.25 123.399a1.722 1.722 0 103.444 0 1.722 1.722 0 00-3.444 0z"/><circle cx="259.876" cy="123.399" r="1.722"/><circle cx="254.78" cy="123.399" r="1.722"/><circle cx="249.684" cy="123.399" r="1.722"/><path d="M244.588 125.121a1.722 1.722 0 000-3.444c-.517 0-.975.233-1.291.593.001.502.001 1.003-.007 1.477-.115.036-.241.068-.357.104.2.73.862 1.27 1.655 1.27zM240.724 124.474c-.553.145-1.107.289-1.688.423l-.134.029c.184.071.382.114.591.114.493 0 .93-.222 1.231-.566zM193.631 228.288a1.025 1.025 0 100 2.05 1.025 1.025 0 000-2.05zM196.179 232.741a.985.985 0 100 1.97.985.985 0 000-1.97z"/><circle cx="198.726" cy="238.139" r=".937"/><path d="M201.274 241.663a.89.89 0 100 1.778.89.89 0 000-1.778zM201.274 250.584a.794.794 0 100 1.588.794.794 0 000-1.588zM206.37 250.584a.794.794 0 100 1.588.794.794 0 000-1.588zM211.466 250.584a.794.794 0 100 1.588.794.794 0 000-1.588zM216.562 250.584a.794.794 0 100 1.588.794.794 0 000-1.588zM221.657 250.584a.794.794 0 100 1.588.794.794 0 000-1.588zM226.753 250.584a.794.794 0 100 1.588.794.794 0 000-1.588zM231.849 250.584a.794.794 0 100 1.588.794.794 0 000-1.588zM236.945 250.584a.794.794 0 100 1.588.794.794 0 000-1.588zM242.041 250.584a.794.794 0 100 1.588.794.794 0 000-1.588zM247.136 250.584a.794.794 0 100 1.588.794.794 0 000-1.588zM252.232 250.584a.794.794 0 100 1.588.794.794 0 000-1.588z"/><circle cx="257.328" cy="251.378" r=".782"/><path d="M262.421 251.378l.003.003.003-.003-.003-.003zM292.998 146.983c.131 0 .256-.022.377-.053a98.415 98.415 0 00-.942-2.874 1.518 1.518 0 00.565 2.927zM288.803 141.051c0 .91.738 1.648 1.648 1.648.511 0 .961-.237 1.264-.602a96.754 96.754 0 00-1.03-2.67c-.077-.011-.154-.023-.234-.023-.911 0-1.648.737-1.648 1.647zM286.228 136.638a1.67 1.67 0 003.338.107c-.214-.487-.448-.965-.67-1.449a1.66 1.66 0 00-.994-.333 1.676 1.676 0 00-1.674 1.675zM283.659 132.225a1.695 1.695 0 103.39 0 1.695 1.695 0 00-3.39 0zM281.098 127.812a1.709 1.709 0 103.418 0 1.709 1.709 0 00-3.418 0zM278.537 123.399a1.722 1.722 0 103.444 0 1.722 1.722 0 00-3.444 0zM277.711 120.72c.948 0 1.716-.762 1.731-1.707-.399-.558-.793-1.12-1.203-1.67a1.706 1.706 0 00-.528-.091 1.734 1.734 0 100 3.468zM272.615 120.72a1.734 1.734 0 100-3.467 1.734 1.734 0 000 3.467zM267.519 120.72a1.734 1.734 0 100-3.467 1.734 1.734 0 000 3.467z"/><circle cx="262.424" cy="118.986" r="1.734"/><path d="M257.328 120.72a1.734 1.734 0 100-3.467 1.734 1.734 0 000 3.467zM252.232 120.72a1.734 1.734 0 100-3.467 1.734 1.734 0 000 3.467z"/><circle cx="247.136" cy="118.986" r="1.734"/><path d="M191.083 232.741a.985.985 0 100 1.97.985.985 0 000-1.97zM193.631 237.202a.937.937 0 100 1.874.937.937 0 000-1.874zM196.179 241.663a.89.89 0 100 1.778.89.89 0 000-1.778zM198.726 246.123a.842.842 0 100 1.684.842.842 0 000-1.684zM198.726 255.049a.743.743 0 100 1.487.743.743 0 000-1.487zM203.822 255.049a.743.743 0 100 1.487.743.743 0 000-1.487zM208.918 255.049a.743.743 0 100 1.487.743.743 0 000-1.487zM214.014 255.049a.743.743 0 100 1.487.743.743 0 000-1.487zM219.11 255.049a.743.743 0 100 1.487.743.743 0 000-1.487zM224.205 255.049a.743.743 0 100 1.487.743.743 0 000-1.487zM229.301 255.049a.743.743 0 100 1.487.743.743 0 000-1.487zM234.397 255.049a.743.743 0 100 1.487.743.743 0 000-1.487zM239.493 255.049a.743.743 0 100 1.487.743.743 0 000-1.487zM244.588 255.049a.743.743 0 100 1.487.743.743 0 000-1.487zM249.684 255.049a.743.743 0 100 1.487.743.743 0 000-1.487z"/><circle cx="188.535" cy="238.139" r=".937"/><circle cx="191.083" cy="242.552" r=".89"/><path d="M193.631 246.123a.842.842 0 100 1.684.842.842 0 000-1.684zM196.179 250.584a.794.794 0 100 1.588.794.794 0 000-1.588zM196.179 259.517a.687.687 0 100 1.374.687.687 0 000-1.374zM201.274 259.517a.687.687 0 100 1.374.687.687 0 000-1.374zM206.37 259.517a.687.687 0 100 1.374.687.687 0 000-1.374zM211.466 259.517a.687.687 0 100 1.374.687.687 0 000-1.374zM216.562 259.517a.687.687 0 100 1.374.687.687 0 000-1.374zM221.657 259.517a.687.687 0 100 1.374.687.687 0 000-1.374zM226.753 259.517a.687.687 0 100 1.374.687.687 0 000-1.374zM231.849 259.517a.687.687 0 100 1.374.687.687 0 000-1.374zM236.945 259.517a.687.687 0 100 1.374.687.687 0 000-1.374zM242.041 259.517a.687.687 0 100 1.374.687.687 0 000-1.374zM185.987 241.663a.89.89 0 100 1.78.89.89 0 000-1.78zM188.535 246.123a.842.842 0 100 1.684.842.842 0 000-1.684zM191.083 250.584a.794.794 0 100 1.588.794.794 0 000-1.588zM193.631 255.049a.743.743 0 100 1.487.743.743 0 000-1.487z"/><circle cx="193.631" cy="264.617" r=".634"/><circle cx="198.726" cy="264.617" r=".634"/><circle cx="203.822" cy="264.617" r=".634"/><circle cx="208.918" cy="264.617" r=".634"/><circle cx="214.014" cy="264.617" r=".634"/><circle cx="219.11" cy="264.617" r=".634"/><circle cx="224.205" cy="264.617" r=".634"/><path d="M229.301 263.983a.634.634 0 100 1.268.634.634 0 000-1.268z"/><circle cx="234.397" cy="264.617" r=".634"/><path d="M183.439 246.123a.842.842 0 100 1.684.842.842 0 000-1.684zM185.987 250.584a.794.794 0 100 1.588.794.794 0 000-1.588zM188.535 255.049a.743.743 0 100 1.487.743.743 0 000-1.487zM191.083 259.517a.687.687 0 100 1.374.687.687 0 000-1.374z"/><circle cx="191.083" cy="269.031" r=".586"/><path d="M196.179 268.444a.586.586 0 100 1.172.586.586 0 000-1.172zM201.274 268.444a.586.586 0 100 1.172.586.586 0 000-1.172zM206.37 268.444a.586.586 0 100 1.172.586.586 0 000-1.172z"/><circle cx="211.466" cy="269.031" r=".586"/><path d="M216.562 268.444a.586.586 0 100 1.172.586.586 0 000-1.172z"/><circle cx="221.657" cy="269.031" r=".573"/><path d="M180.891 250.584a.794.794 0 100 1.588.794.794 0 000-1.588zM183.439 255.049a.743.743 0 100 1.487.743.743 0 000-1.487zM185.987 259.517a.687.687 0 100 1.374.687.687 0 000-1.374z"/><circle cx="188.535" cy="264.617" r=".634"/><path d="M180.891 259.517a.687.687 0 100 1.374.687.687 0 000-1.374z"/><circle cx="183.439" cy="264.617" r=".634"/><path d="M185.987 268.444a.586.586 0 100 1.172.586.586 0 000-1.172zM296.599 171.943c0 .704.488 1.29 1.143 1.449a93.874 93.874 0 00-.11-2.864 1.489 1.489 0 00-1.033 1.415zM296.47 180.769c0 .67.461 1.228 1.081 1.387.063-.93.097-1.865.133-2.8a1.43 1.43 0 00-1.214 1.413zM293.784 194.008c0 .742.601 1.343 1.343 1.343.228 0 .433-.071.621-.172.14-.67.275-1.341.4-2.016a1.32 1.32 0 00-1.021-.499 1.344 1.344 0 00-1.343 1.344zM290.056 210.639a1.193 1.193 0 100 2.386c.055 0 .103-.024.156-.031.264-.628.507-1.266.758-1.899a1.165 1.165 0 00-.914-.456zM291.286 207.247c0 .494.301.918.729 1.099.268-.74.534-1.48.784-2.227-.104-.03-.207-.065-.32-.065a1.194 1.194 0 00-1.193 1.193zM247.136 206.055c-.262 0-.491.101-.688.244.107.731.177 1.407.222 2.047a1.193 1.193 0 10.466-2.291zM239.493 263.983a.634.634 0 00-.634.634c0 .197.095.366.237.483l.322-.146.381-.172c.108-.049.217-.097.325-.147 0-.006.004-.011.004-.018a.636.636 0 00-.635-.634zM247.136 259.517a.687.687 0 100 1.374.687.687 0 000-1.374zM254.78 255.049a.743.743 0 00-.743.743c0 .327.215.596.508.695.321-.219.649-.429.968-.652.001-.015.009-.028.009-.044a.741.741 0 00-.742-.742z"/><circle cx="226.753" cy="269.031" r=".573"/></g></g></switch></svg>