<svg xmlns="http://www.w3.org/2000/svg" viewBox="0 0 350 350"><switch><g><path fill="#fff" d="M60 60H289.999V289.995H60z"/><path d="M69.534 69.534H280.464V280.461H69.534z"/><linearGradient id="a" gradientUnits="userSpaceOnUse" x1="79.031" y1="174.998" x2="270.968" y2="174.998"><stop offset="0" stop-color="#8f6692"/><stop offset="1" stop-color="#906693"/></linearGradient><path fill="url(#a)" d="M79.031 79.031H270.968V270.964H79.031z"/><path d="M73.022,276.538c0-6.286,0-12.571,0-18.857c1.299-4.326,3.51-10.035,7.385-16.088 c4.845-7.57,10.372-12.679,14.374-15.824c0.253-3.514,0.438-8.843-0.147-15.316c-0.367-4.056-0.905-7.111-1.022-7.729 c-1.845-9.678-13.988-16.126-28.472-26.345c-27.342-19.29-31.313-29.644-32.204-36.457c-0.268-2.052-0.255-3.759-0.206-4.846 c41.982-46.599,86.88-69.986,111.766-73.747c11.776-1.78,30.977-0.965,41.275-0.527c6.349,0.27,14.49,0.807,23.472,5.243 c2.905,1.434,5.154,2.909,6.627,3.955c9.782,2.987,23.442,8.245,37.978,17.802c4.986,3.278,16.112,10.685,25.507,21.329 c17.932,20.316,25.355,47.667,24.965,69.034c-0.75,41.143-30.84,80.549-75.956,98.374 C176.582,276.538,124.802,276.538,73.022,276.538z"/><path d="M97.615,210.077c-0.236-3.506-1.058-8.859-4.088-14.374c-2.08-3.787-5.193-7.634-18.593-17.011 c-4.861-3.401-11.477-7.811-19.632-12.61c-0.084-3.16-0.048-7.787,0.593-13.352c0.719-6.235,1.776-9.984,1.168-10.184 c-0.712-0.235-3.189,4.548-4.679,9.344c-1.289,4.148-1.669,7.761-1.78,10.236c-0.808-0.552-1.677-1.206-2.571-1.978 c-1.024-0.883-1.892-1.759-2.621-2.571c0.075-5.686,0.92-10.109,1.681-13.104c0.822-3.233,2.392-8.135,4.617-15.078 c1.229-3.836,1.707-5.251,1.416-5.394c-0.765-0.376-5.89,8.512-8.308,12.907c-2.507,4.557-4.386,8.431-5.637,11.126 c-1.753-1.849-4.063-4.721-5.885-8.703c-1.309-2.863-1.997-5.493-2.374-7.566c2.215-6.017,5.668-14.528,10.78-24.28 c8.655-16.513,16.68-31.823,30.857-42.923c20.408-15.98,44.331-16.005,60.33-16.022c20.425-0.022,46.399-0.049,63.752,19.236 c14.442,16.049,15.033,36.718,14.841,44.589c-6.477,1.366-13.471,2.596-20.941,3.575c-8.697,1.14-16.873,1.787-24.422,2.095 c1.037,8.877,3.339,19.949,8.407,31.879c1.991,4.686,4.153,8.905,6.33,12.659c-19.176,4.407-38.352,8.813-57.527,13.22 c-1.499,3.781-3.183,7.727-5.077,11.802c-1.89,4.068-3.816,7.893-5.736,11.473c-2.022-0.176-4.044-0.352-6.066-0.527 c-0.656,1.801-1.831,4.371-3.956,6.989C100.788,207.629,99.01,209.097,97.615,210.077z" fill="#fff"/><linearGradient id="b" gradientUnits="userSpaceOnUse" x1="76.912" y1="195.026" x2="220.058" y2="195.026"><stop offset="0" stop-color="#bcaebd"/><stop offset="1" stop-color="#8f6993"/></linearGradient><path d="M169.945,122.121c5.182-0.342,10.538-0.797,16.055-1.385 c4.582-0.488,9.034-1.042,13.352-1.648c-0.489,2.899-0.861,6.146-0.989,9.692c-0.067,1.871-0.061,3.654,0,5.341 c2.025,2.529,5.03,5.746,9.231,8.769c4.701,3.383,9.193,5.295,12.462,6.396c0.019,0.788-0.041,1.941-0.462,3.231 c-0.622,1.909-1.719,3.16-3.89,5.275c-1.59,1.549-3.615,3.424-6.066,5.473c2.484,2.484,4.967,4.967,7.451,7.451 c-0.249,0.734-0.652,1.689-1.319,2.703c-0.651,0.991-1.348,1.727-1.912,2.242c0.523,0.54,1.241,1.39,1.846,2.571 c0.432,0.843,1.042,2.032,0.999,3.223c-0.103,2.899-4.025,4.665-4.23,4.755c-0.052,0.831-0.06,2.056,0.198,3.495 c0.632,3.521,2.226,4.783,2.769,7.055c0.759,3.179-0.965,6.559-2.289,8.132c-2.938,3.493-8.097,3.069-22.373,2.01 c-2.811-0.209-9.517-0.705-19.712-1.439c-5.036,4.239-8.635,8.448-11.077,11.703c-5.666,7.553-8.324,14.264-9.099,16.319 c-1.967,5.215-2.663,9.225-2.967,11.571c-0.392,3.023-0.588,4.534-0.307,6.241c0.791,4.819,4.123,7.918,8.912,12.254 c2.272,2.056,5.58,4.753,9.989,7.415c-29.868,0-59.736,0-89.604,0c0.3-4.435,1.138-9.917,3.191-15.911 c4.595-13.417,12.784-22.125,17.71-26.58c0-4.286,0-8.571,0-12.857c1.966-1.058,4.867-2.931,7.582-6.066 c2.149-2.481,3.466-4.927,4.268-6.748c1.89,0.123,3.781,0.246,5.671,0.369c1.542-2.891,3.078-5.875,4.599-8.951 c2.523-5.103,4.824-10.09,6.923-14.934c19.879-4.78,39.758-9.56,59.637-14.341c-3.088-5.079-6.324-11.186-9.237-18.303 C173.526,137.521,171.303,129.127,169.945,122.121z" fill="url(#b)"/><linearGradient id="c" gradientUnits="userSpaceOnUse" x1="238.156" y1="83.257" x2="238.156" y2="286.542"><stop offset="0" stop-color="#fff"/><stop offset=".113" stop-color="#fcfbfc"/><stop offset=".233" stop-color="#f1eef2"/><stop offset=".357" stop-color="#e1d9e2"/><stop offset=".483" stop-color="#c9bbcb"/><stop offset=".604" stop-color="#ad97b0"/></linearGradient><path d="M232.222,83.257c2.971,4.829,6.644,12.021,8.932,21.326 c1.848,7.515,2.234,14.138,2.145,19.158c-1.32,0.411-2.74,0.801-4.255,1.15c-2.248,0.518-4.36,0.864-6.295,1.092 c-1.045,2.568-2.203,6.19-2.673,10.644c-0.398,3.78-0.183,7.043,0.167,9.532c2.495,2.972,6.181,6.71,11.306,10.117 c3.61,2.4,7.044,4.043,9.925,5.18c0.15,0.933,0.23,2.298-0.265,3.767c-0.613,1.819-1.773,2.805-4.122,4.9 c-1.176,1.049-3.025,2.711-5.371,4.877c2.198,2.431,4.396,4.862,6.593,7.292c0.034,0.496,0.013,1.12-0.167,1.809 c-0.551,2.104-2.187,3.249-2.734,3.598c2.019,1.127,3.156,3.367,2.866,5.633c-0.277,2.168-1.813,3.991-3.921,4.653 c4.279,12.661,1.858,17.083,0.105,18.836c-3.602,3.601-9.797,1.339-29.54,0.689c-5.166-0.17-9.417-0.169-12.235-0.14 c-2.225,1.942-5.471,5.005-8.87,9.193c-7.744,9.543-20.324,29.907-13.154,40.846c0.667,1.018,1.749,2.326,3.562,3.558 c12.571,0,25.143,0,37.714,0c43.658-10.566,74.829-49.136,75.824-93.158C298.705,136.018,272.269,97.687,232.222,83.257z" fill="url(#c)"/><radialGradient id="d" cx="238.427" cy="177.11" r="88.479" fx="152.085" fy="157.784" gradientTransform="matrix(.3076 .9515 -2.9688 .9598 690.89 -219.744)" gradientUnits="userSpaceOnUse"><stop offset=".336" stop-color="#fff"/><stop offset=".436" stop-color="#fcfbfc" stop-opacity=".806"/><stop offset=".538" stop-color="#f2eff3" stop-opacity=".609"/><stop offset=".64" stop-color="#e2dae3" stop-opacity=".41"/><stop offset=".743" stop-color="#ccbece" stop-opacity=".211"/><stop offset=".845" stop-color="#af9ab2" stop-opacity=".013"/><stop offset=".851" stop-color="#ad97b0" stop-opacity="0"/></radialGradient><path d="M232.493,83.257c2.971,4.829,6.644,12.021,8.932,21.326 c1.848,7.515,2.234,14.138,2.145,19.158c-1.32,0.411-2.74,0.801-4.255,1.15c-2.248,0.518-4.36,0.864-6.295,1.092 c-1.045,2.568-2.203,6.19-2.673,10.644c-0.398,3.78-0.183,7.043,0.167,9.532c2.495,2.972,6.181,6.71,11.306,10.117 c3.61,2.4,7.043,4.043,9.925,5.18c0.15,0.933,0.23,2.298-0.265,3.767c-0.613,1.819-1.773,2.805-4.122,4.9 c-1.176,1.049-3.025,2.711-5.371,4.877c2.198,2.431,4.396,4.862,6.593,7.292c0.034,0.496,0.013,1.12-0.167,1.809 c-0.551,2.104-2.187,3.249-2.734,3.598c2.019,1.127,3.156,3.367,2.866,5.633c-0.277,2.168-1.813,3.991-3.921,4.653 c4.279,12.661,1.858,17.083,0.105,18.836c-3.602,3.601-9.797,1.339-29.54,0.689c-5.166-0.17-9.417-0.169-12.235-0.14 c-2.225,1.942-5.471,5.005-8.87,9.193c-7.744,9.543-20.324,29.907-13.154,40.846c0.667,1.018,1.749,2.326,3.562,3.558 c12.571,0,25.143,0,37.714,0c43.658-10.566,74.829-49.136,75.825-93.158C298.977,136.018,272.54,97.687,232.493,83.257z" fill="url(#d)"/><g fill="#fff"><circle cx="249.684" cy="185.182" r="1.395"/><path d="M243.749,176.356c0,0.464,0.376,0.839,0.839,0.839c0.464,0,0.839-0.376,0.839-0.839 s-0.376-0.839-0.839-0.839C244.125,175.517,243.749,175.892,243.749,176.356z"/><circle cx="247.136" cy="198.421" r="1.275"/><circle cx="249.684" cy="194.008" r="1.269"/><path d="M252.232 190.965c.757 0 1.37-.613 1.37-1.37 0-.757-.613-1.37-1.37-1.37-.756 0-1.37.613-1.37 1.37C250.862 190.352 251.476 190.965 252.232 190.965zM254.78 186.59c.778 0 1.408-.63 1.408-1.408 0-.778-.63-1.408-1.408-1.408s-1.408.63-1.408 1.408C253.372 185.96 254.002 186.59 254.78 186.59zM252.232 182.205c.793 0 1.436-.643 1.436-1.436 0-.793-.643-1.436-1.436-1.436-.793 0-1.436.643-1.436 1.436C250.796 181.562 251.439 182.205 252.232 182.205zM249.684 177.825c.811 0 1.469-.658 1.469-1.469 0-.811-.658-1.469-1.469-1.469-.811 0-1.469.658-1.469 1.469C248.215 177.167 248.873 177.825 249.684 177.825zM247.136 173.434c.824 0 1.492-.668 1.492-1.492s-.668-1.492-1.492-1.492c-.189 0-.368.039-.534.103-.239.214-.505.452-.783.703-.108.206-.174.437-.174.686C245.645 172.767 246.313 173.434 247.136 173.434z"/><circle cx="249.684" cy="202.834" r="1.267"/><path d="M252.232 199.73c.723 0 1.309-.586 1.309-1.309 0-.723-.586-1.309-1.309-1.309-.723 0-1.309.586-1.309 1.309C250.923 199.144 251.509 199.73 252.232 199.73zM254.78 195.351c.742 0 1.343-.601 1.343-1.343 0-.742-.601-1.343-1.343-1.343s-1.343.601-1.343 1.343C253.437 194.75 254.038 195.351 254.78 195.351zM257.328 190.965c.756 0 1.37-.613 1.37-1.37 0-.757-.613-1.37-1.37-1.37-.757 0-1.37.613-1.37 1.37C255.958 190.352 256.571 190.965 257.328 190.965zM259.876 186.59c.778 0 1.408-.63 1.408-1.408 0-.778-.63-1.408-1.408-1.408-.778 0-1.408.63-1.408 1.408C258.468 185.96 259.098 186.59 259.876 186.59zM257.328 182.205c.793 0 1.436-.643 1.436-1.436 0-.793-.643-1.436-1.436-1.436-.793 0-1.436.643-1.436 1.436C255.892 181.562 256.535 182.205 257.328 182.205zM254.78 177.825c.811 0 1.469-.658 1.469-1.469 0-.811-.658-1.469-1.469-1.469s-1.469.658-1.469 1.469C253.311 177.167 253.969 177.825 254.78 177.825zM252.232 173.438c.826 0 1.496-.67 1.496-1.496s-.67-1.496-1.496-1.496-1.496.67-1.496 1.496S251.406 173.438 252.232 173.438zM251.011 167.53c0-.39-.175-.732-.443-.975-.418.661-.98 1.271-1.728 1.976.231.194.518.325.844.325C250.417 168.857 251.011 168.263 251.011 167.53zM252.232 206.019c-.678 0-1.228.55-1.228 1.228 0 .678.55 1.228 1.228 1.228.678 0 1.228-.55 1.228-1.228C253.461 206.569 252.911 206.019 252.232 206.019z"/><circle cx="254.78" cy="202.834" r="1.267"/><path d="M257.328 199.73c.723 0 1.309-.586 1.309-1.309 0-.723-.586-1.309-1.309-1.309-.723 0-1.309.586-1.309 1.309C256.019 199.144 256.605 199.73 257.328 199.73zM259.876 195.351c.742 0 1.343-.601 1.343-1.343 0-.742-.601-1.343-1.343-1.343-.742 0-1.343.601-1.343 1.343C258.533 194.75 259.134 195.351 259.876 195.351zM262.424 190.965c.757 0 1.37-.613 1.37-1.37 0-.757-.613-1.37-1.37-1.37s-1.37.613-1.37 1.37C261.054 190.352 261.667 190.965 262.424 190.965zM264.972 186.59c.778 0 1.408-.63 1.408-1.408 0-.778-.63-1.408-1.408-1.408-.778 0-1.408.63-1.408 1.408C263.563 185.96 264.194 186.59 264.972 186.59z"/><circle cx="262.424" cy="180.769" r="1.436"/><path d="M259.876 177.825c.811 0 1.469-.658 1.469-1.469 0-.811-.658-1.469-1.469-1.469-.811 0-1.469.658-1.469 1.469C258.407 177.167 259.065 177.825 259.876 177.825zM255.832 171.943c0 .826.67 1.496 1.496 1.496s1.496-.67 1.496-1.496-.67-1.496-1.496-1.496S255.832 171.117 255.832 171.943zM254.78 169.048c.838 0 1.518-.68 1.518-1.518 0-.838-.68-1.518-1.518-1.518s-1.518.68-1.518 1.518C253.262 168.368 253.942 169.048 254.78 169.048zM252.232 164.381c.698 0 1.264-.566 1.264-1.264 0-.698-.566-1.264-1.264-1.264-.261 0-.49.098-.692.234.054.587.06 1.271-.063 2.018C251.69 164.267 251.944 164.381 252.232 164.381zM249.684 210.468c-.659 0-1.193.534-1.193 1.193s.534 1.193 1.193 1.193 1.193-.534 1.193-1.193S250.343 210.468 249.684 210.468zM254.78 210.468c-.659 0-1.193.534-1.193 1.193s.534 1.193 1.193 1.193 1.193-.534 1.193-1.193S255.439 210.468 254.78 210.468zM257.328 206.019c-.678 0-1.228.55-1.228 1.228 0 .678.55 1.228 1.228 1.228.678 0 1.228-.55 1.228-1.228C258.556 206.569 258.006 206.019 257.328 206.019zM259.876 201.568c-.7 0-1.267.567-1.267 1.267s.567 1.267 1.267 1.267c.7 0 1.267-.567 1.267-1.267S260.575 201.568 259.876 201.568zM262.424 199.73c.723 0 1.309-.586 1.309-1.309 0-.723-.586-1.309-1.309-1.309s-1.309.586-1.309 1.309C261.115 199.144 261.701 199.73 262.424 199.73zM264.972 195.351c.742 0 1.343-.601 1.343-1.343 0-.742-.601-1.343-1.343-1.343-.742 0-1.343.601-1.343 1.343C263.628 194.75 264.23 195.351 264.972 195.351zM267.519 190.965c.757 0 1.37-.613 1.37-1.37 0-.757-.613-1.37-1.37-1.37-.756 0-1.37.613-1.37 1.37C266.15 190.352 266.763 190.965 267.519 190.965zM270.067 186.59c.778 0 1.408-.63 1.408-1.408 0-.778-.63-1.408-1.408-1.408-.778 0-1.408.63-1.408 1.408C268.659 185.96 269.29 186.59 270.067 186.59zM267.519 182.205c.793 0 1.436-.643 1.436-1.436 0-.793-.643-1.436-1.436-1.436-.793 0-1.436.643-1.436 1.436C266.083 181.562 266.726 182.205 267.519 182.205zM264.972 177.825c.811 0 1.469-.658 1.469-1.469 0-.811-.658-1.469-1.469-1.469-.811 0-1.469.658-1.469 1.469C263.503 177.167 264.16 177.825 264.972 177.825zM262.424 173.438c.826 0 1.496-.67 1.496-1.496s-.67-1.496-1.496-1.496-1.496.67-1.496 1.496S261.598 173.438 262.424 173.438zM261.394 167.53c0-.838-.68-1.518-1.518-1.518-.838 0-1.518.68-1.518 1.518 0 .839.68 1.518 1.518 1.518C260.714 169.048 261.394 168.368 261.394 167.53z"/><circle cx="257.328" cy="163.117" r="1.543"/><circle cx="254.78" cy="158.704" r="1.574"/><path d="M249.175 158.704c0 .281.228.509.509.509s.509-.228.509-.509-.228-.509-.509-.509S249.175 158.423 249.175 158.704zM247.136 214.973c-.608 0-1.101.493-1.101 1.101 0 .608.493 1.101 1.101 1.101.608 0 1.101-.493 1.101-1.101C248.237 215.465 247.744 214.973 247.136 214.973zM252.232 214.919c-.637 0-1.154.517-1.154 1.154s.517 1.154 1.154 1.154c.638 0 1.154-.517 1.154-1.154S252.87 214.919 252.232 214.919zM257.328 214.919c-.637 0-1.154.517-1.154 1.154s.517 1.154 1.154 1.154 1.154-.517 1.154-1.154S257.965 214.919 257.328 214.919zM259.876 210.468c-.659 0-1.193.534-1.193 1.193s.534 1.193 1.193 1.193 1.193-.534 1.193-1.193S260.534 210.468 259.876 210.468z"/><circle cx="262.424" cy="207.247" r="1.228"/><path d="M264.972 201.568c-.7 0-1.267.567-1.267 1.267s.567 1.267 1.267 1.267c.7 0 1.267-.567 1.267-1.267S265.671 201.568 264.972 201.568zM267.519 199.73c.723 0 1.309-.586 1.309-1.309 0-.723-.586-1.309-1.309-1.309-.723 0-1.309.586-1.309 1.309C266.211 199.144 266.797 199.73 267.519 199.73zM270.067 195.351c.742 0 1.343-.601 1.343-1.343 0-.742-.601-1.343-1.343-1.343-.742 0-1.343.601-1.343 1.343C268.724 194.75 269.326 195.351 270.067 195.351zM272.615 190.965c.756 0 1.37-.613 1.37-1.37 0-.757-.613-1.37-1.37-1.37-.757 0-1.37.613-1.37 1.37C271.245 190.352 271.859 190.965 272.615 190.965zM275.163 186.59c.778 0 1.408-.63 1.408-1.408 0-.778-.63-1.408-1.408-1.408-.778 0-1.408.63-1.408 1.408C273.755 185.96 274.385 186.59 275.163 186.59zM272.615 182.205c.793 0 1.436-.643 1.436-1.436 0-.793-.643-1.436-1.436-1.436-.793 0-1.436.643-1.436 1.436C271.179 181.562 271.822 182.205 272.615 182.205zM270.067 177.825c.811 0 1.469-.658 1.469-1.469 0-.811-.658-1.469-1.469-1.469s-1.469.658-1.469 1.469C268.598 177.167 269.256 177.825 270.067 177.825zM267.519 173.438c.826 0 1.496-.67 1.496-1.496s-.67-1.496-1.496-1.496-1.496.67-1.496 1.496S266.693 173.438 267.519 173.438zM266.49 167.53c0-.838-.68-1.518-1.518-1.518-.839 0-1.518.68-1.518 1.518 0 .839.68 1.518 1.518 1.518C265.81 169.048 266.49 168.368 266.49 167.53z"/><circle cx="262.424" cy="163.117" r="1.543"/><path d="M258.302,158.704c0,0.869,0.704,1.574,1.574,1.574s1.574-0.705,1.574-1.574 s-0.705-1.574-1.574-1.574S258.302,157.835,258.302,158.704z"/><circle cx="257.328" cy="154.291" r="1.6"/><circle cx="252.232" cy="154.291" r="1.6"/><circle cx="247.136" cy="154.291" r="1.578"/><circle cx="242.041" cy="154.291" r=".789"/><path d="M219.11 219.38c-.611 0-1.107.495-1.107 1.107s.495 1.107 1.107 1.107 1.107-.495 1.107-1.107S219.721 219.38 219.11 219.38zM224.205 219.38c-.611 0-1.107.495-1.107 1.107s.495 1.107 1.107 1.107 1.107-.495 1.107-1.107S224.816 219.38 224.205 219.38zM229.301 219.393c-.604 0-1.093.49-1.093 1.093s.49 1.093 1.093 1.093 1.093-.49 1.093-1.093S229.905 219.393 229.301 219.393zM234.397 219.435c-.581 0-1.052.471-1.052 1.052 0 .581.471 1.052 1.052 1.052s1.052-.471 1.052-1.052C235.449 219.906 234.978 219.435 234.397 219.435z"/><circle cx="239.493" cy="220.487" r="1.065"/><path d="M244.588 219.38c-.611 0-1.107.495-1.107 1.107s.495 1.107 1.107 1.107c.611 0 1.107-.495 1.107-1.107S245.2 219.38 244.588 219.38zM249.684 219.38c-.611 0-1.107.495-1.107 1.107s.495 1.107 1.107 1.107 1.107-.495 1.107-1.107S250.295 219.38 249.684 219.38zM254.78 219.38c-.611 0-1.107.495-1.107 1.107s.495 1.107 1.107 1.107 1.107-.495 1.107-1.107S255.391 219.38 254.78 219.38zM259.876 219.38c-.611 0-1.107.495-1.107 1.107s.495 1.107 1.107 1.107 1.107-.495 1.107-1.107S260.487 219.38 259.876 219.38z"/><circle cx="262.424" cy="216.074" r="1.154"/><path d="M264.972,210.468c-0.659,0-1.193,0.534-1.193,1.193s0.534,1.193,1.193,1.193 c0.659,0,1.193-0.534,1.193-1.193S265.63,210.468,264.972,210.468z"/><circle cx="267.519" cy="207.247" r="1.228"/><circle cx="270.067" cy="202.834" r="1.267"/><path d="M272.615 199.73c.723 0 1.309-.586 1.309-1.309 0-.723-.586-1.309-1.309-1.309-.723 0-1.309.586-1.309 1.309C271.306 199.144 271.892 199.73 272.615 199.73zM275.163 195.351c.742 0 1.343-.601 1.343-1.343 0-.742-.601-1.343-1.343-1.343-.742 0-1.343.601-1.343 1.343C273.82 194.75 274.421 195.351 275.163 195.351zM277.711 190.965c.757 0 1.37-.613 1.37-1.37 0-.757-.613-1.37-1.37-1.37s-1.37.613-1.37 1.37C276.341 190.352 276.955 190.965 277.711 190.965zM280.259 186.59c.778 0 1.408-.63 1.408-1.408 0-.778-.63-1.408-1.408-1.408-.778 0-1.408.63-1.408 1.408C278.851 185.96 279.481 186.59 280.259 186.59zM277.711 182.205c.793 0 1.436-.643 1.436-1.436 0-.793-.643-1.436-1.436-1.436-.793 0-1.436.643-1.436 1.436C276.275 181.562 276.918 182.205 277.711 182.205zM275.163 177.825c.811 0 1.469-.658 1.469-1.469 0-.811-.658-1.469-1.469-1.469-.811 0-1.469.658-1.469 1.469C273.694 177.167 274.352 177.825 275.163 177.825zM272.615 173.438c.826 0 1.496-.67 1.496-1.496s-.67-1.496-1.496-1.496-1.496.67-1.496 1.496S271.789 173.438 272.615 173.438zM271.586 167.53c0-.838-.68-1.518-1.518-1.518s-1.518.68-1.518 1.518c0 .839.68 1.518 1.518 1.518S271.586 168.368 271.586 167.53z"/><circle cx="267.519" cy="163.117" r="1.543"/><path d="M263.398,158.704c0,0.869,0.705,1.574,1.574,1.574s1.574-0.705,1.574-1.574 s-0.704-1.574-1.574-1.574S263.398,157.835,263.398,158.704z"/><circle cx="262.424" cy="154.291" r="1.6"/><path d="M258.262 149.877c0 .891.722 1.613 1.613 1.613.891 0 1.613-.722 1.613-1.613s-.722-1.613-1.613-1.613C258.985 148.264 258.262 148.986 258.262 149.877zM253.167 149.877c0 .891.722 1.613 1.613 1.613s1.613-.722 1.613-1.613-.722-1.613-1.613-1.613S253.167 148.986 253.167 149.877zM248.071 149.877c0 .891.722 1.613 1.613 1.613.891 0 1.613-.722 1.613-1.613s-.722-1.613-1.613-1.613C248.793 148.264 248.071 148.986 248.071 149.877zM246.202 149.877c0-.891-.722-1.613-1.613-1.613-.891 0-1.613.722-1.613 1.613s.722 1.613 1.613 1.613C245.48 151.491 246.202 150.769 246.202 149.877z"/><circle cx="239.493" cy="149.877" r="1.572"/><path d="M216.562 223.828c-.592 0-1.072.48-1.072 1.072 0 .592.48 1.072 1.072 1.072.592 0 1.072-.48 1.072-1.072C217.634 224.308 217.154 223.828 216.562 223.828zM221.657 223.828c-.592 0-1.072.48-1.072 1.072 0 .592.48 1.072 1.072 1.072.592 0 1.072-.48 1.072-1.072C222.73 224.308 222.25 223.828 221.657 223.828zM226.753 223.828c-.592 0-1.072.48-1.072 1.072 0 .592.48 1.072 1.072 1.072s1.072-.48 1.072-1.072C227.825 224.308 227.345 223.828 226.753 223.828zM231.849 223.828c-.592 0-1.072.48-1.072 1.072 0 .592.48 1.072 1.072 1.072.592 0 1.072-.48 1.072-1.072C232.921 224.308 232.441 223.828 231.849 223.828zM236.945 223.828c-.592 0-1.072.48-1.072 1.072 0 .592.48 1.072 1.072 1.072.592 0 1.072-.48 1.072-1.072C238.017 224.308 237.537 223.828 236.945 223.828zM242.041 223.828c-.592 0-1.072.48-1.072 1.072 0 .592.48 1.072 1.072 1.072s1.072-.48 1.072-1.072C243.113 224.308 242.633 223.828 242.041 223.828zM247.136 223.828c-.592 0-1.072.48-1.072 1.072 0 .592.48 1.072 1.072 1.072s1.072-.48 1.072-1.072C248.209 224.308 247.729 223.828 247.136 223.828zM252.232 223.828c-.592 0-1.072.48-1.072 1.072 0 .592.48 1.072 1.072 1.072.592 0 1.072-.48 1.072-1.072C253.304 224.308 252.824 223.828 252.232 223.828zM257.328 223.828c-.592 0-1.072.48-1.072 1.072 0 .592.48 1.072 1.072 1.072.592 0 1.072-.48 1.072-1.072C258.4 224.308 257.92 223.828 257.328 223.828zM262.424 223.828c-.592 0-1.072.48-1.072 1.072 0 .592.48 1.072 1.072 1.072s1.072-.48 1.072-1.072C263.496 224.308 263.016 223.828 262.424 223.828zM264.972 219.38c-.611 0-1.107.495-1.107 1.107s.495 1.107 1.107 1.107 1.107-.495 1.107-1.107S265.583 219.38 264.972 219.38z"/><circle cx="267.519" cy="216.074" r="1.154"/><path d="M270.067 210.468c-.659 0-1.193.534-1.193 1.193s.534 1.193 1.193 1.193 1.193-.534 1.193-1.193S270.726 210.468 270.067 210.468zM272.615 206.019c-.678 0-1.228.55-1.228 1.228 0 .678.55 1.228 1.228 1.228.678 0 1.228-.55 1.228-1.228C273.844 206.569 273.294 206.019 272.615 206.019z"/><circle cx="275.163" cy="202.834" r="1.267"/><path d="M277.711 199.73c.723 0 1.309-.586 1.309-1.309 0-.723-.586-1.309-1.309-1.309-.723 0-1.309.586-1.309 1.309C276.402 199.144 276.988 199.73 277.711 199.73zM280.259 195.351c.742 0 1.343-.601 1.343-1.343 0-.742-.601-1.343-1.343-1.343-.742 0-1.343.601-1.343 1.343C278.916 194.75 279.517 195.351 280.259 195.351zM282.807 190.965c.757 0 1.37-.613 1.37-1.37 0-.757-.613-1.37-1.37-1.37s-1.37.613-1.37 1.37C281.437 190.352 282.05 190.965 282.807 190.965zM285.355 186.59c.778 0 1.408-.63 1.408-1.408 0-.778-.63-1.408-1.408-1.408-.778 0-1.408.63-1.408 1.408C283.947 185.96 284.577 186.59 285.355 186.59zM282.807 182.205c.793 0 1.436-.643 1.436-1.436 0-.793-.643-1.436-1.436-1.436-.793 0-1.436.643-1.436 1.436C281.371 181.562 282.014 182.205 282.807 182.205zM280.259 177.825c.811 0 1.469-.658 1.469-1.469 0-.811-.658-1.469-1.469-1.469-.811 0-1.469.658-1.469 1.469C278.79 177.167 279.448 177.825 280.259 177.825zM277.711 173.438c.826 0 1.496-.67 1.496-1.496s-.67-1.496-1.496-1.496-1.496.67-1.496 1.496S276.885 173.438 277.711 173.438zM276.681 167.53c0-.838-.68-1.518-1.518-1.518s-1.518.68-1.518 1.518c0 .839.68 1.518 1.518 1.518S276.681 168.368 276.681 167.53z"/><circle cx="272.615" cy="163.117" r="1.543"/><circle cx="270.067" cy="158.704" r="1.574"/><circle cx="267.519" cy="154.291" r="1.6"/><path d="M263.358,149.877c0,0.891,0.722,1.613,1.613,1.613c0.891,0,1.613-0.722,1.613-1.613 s-0.722-1.613-1.613-1.613C264.081,148.264,263.358,148.986,263.358,149.877z"/><circle cx="262.424" cy="145.464" r="1.638"/><path d="M257.328 143.826c-.905 0-1.639.734-1.639 1.638s.734 1.638 1.639 1.638 1.638-.734 1.638-1.638S258.233 143.826 257.328 143.826zM252.232 143.826c-.905 0-1.638.734-1.638 1.638s.734 1.638 1.638 1.638 1.638-.734 1.638-1.638S253.137 143.826 252.232 143.826z"/><circle cx="247.136" cy="145.464" r="1.638"/><circle cx="242.041" cy="145.464" r="1.638"/><path d="M238.583 145.464c0-.905-.734-1.638-1.638-1.638-.905 0-1.638.734-1.638 1.638s.734 1.638 1.638 1.638C237.85 147.103 238.583 146.369 238.583 145.464zM230.814 145.464c0 .572.464 1.035 1.035 1.035.572 0 1.035-.464 1.035-1.035 0-.572-.464-1.035-1.035-1.035C231.277 144.429 230.814 144.893 230.814 145.464zM214.014 219.38c-.611 0-1.107.495-1.107 1.107s.495 1.107 1.107 1.107 1.107-.495 1.107-1.107S214.625 219.38 214.014 219.38z"/><circle cx="214.014" cy="229.313" r="1.025"/><circle cx="219.11" cy="229.313" r="1.025"/><circle cx="224.205" cy="229.313" r="1.025"/><path d="M229.301,228.288c-0.566,0-1.025,0.459-1.025,1.025c0,0.566,0.459,1.025,1.025,1.025 c0.566,0,1.025-0.459,1.025-1.025C230.326,228.747,229.867,228.288,229.301,228.288z"/><circle cx="234.397" cy="229.313" r="1.025"/><circle cx="239.493" cy="229.313" r="1.025"/><path d="M244.588,228.288c-0.566,0-1.025,0.459-1.025,1.025c0,0.566,0.459,1.025,1.025,1.025 c0.566,0,1.025-0.459,1.025-1.025C245.613,228.747,245.154,228.288,244.588,228.288z"/><circle cx="249.684" cy="229.313" r="1.025"/><circle cx="254.78" cy="229.313" r="1.025"/><circle cx="259.876" cy="229.313" r="1.025"/><circle cx="264.972" cy="229.313" r="1.025"/><path d="M267.519 223.828c-.592 0-1.072.48-1.072 1.072 0 .592.48 1.072 1.072 1.072s1.072-.48 1.072-1.072C268.592 224.308 268.112 223.828 267.519 223.828zM270.067 219.38c-.611 0-1.107.495-1.107 1.107s.495 1.107 1.107 1.107 1.107-.495 1.107-1.107S270.679 219.38 270.067 219.38zM272.615 214.919c-.637 0-1.154.517-1.154 1.154s.517 1.154 1.154 1.154 1.154-.517 1.154-1.154S273.253 214.919 272.615 214.919zM275.163 210.468c-.659 0-1.193.534-1.193 1.193s.534 1.193 1.193 1.193 1.193-.534 1.193-1.193S275.822 210.468 275.163 210.468z"/><circle cx="277.711" cy="207.247" r="1.228"/><path d="M280.259 201.568c-.7 0-1.267.567-1.267 1.267s.567 1.267 1.267 1.267c.7 0 1.267-.567 1.267-1.267S280.959 201.568 280.259 201.568zM282.807 199.73c.723 0 1.309-.586 1.309-1.309 0-.723-.586-1.309-1.309-1.309-.723 0-1.309.586-1.309 1.309C281.498 199.144 282.084 199.73 282.807 199.73zM285.355 195.351c.742 0 1.343-.601 1.343-1.343 0-.742-.601-1.343-1.343-1.343-.742 0-1.343.601-1.343 1.343C284.011 194.75 284.613 195.351 285.355 195.351zM287.903 190.965c.757 0 1.37-.613 1.37-1.37 0-.757-.613-1.37-1.37-1.37-.756 0-1.37.613-1.37 1.37C286.533 190.352 287.146 190.965 287.903 190.965zM290.451 186.59c.778 0 1.408-.63 1.408-1.408 0-.778-.63-1.408-1.408-1.408-.778 0-1.408.63-1.408 1.408C289.042 185.96 289.673 186.59 290.451 186.59zM287.903 182.205c.793 0 1.436-.643 1.436-1.436 0-.793-.643-1.436-1.436-1.436-.793 0-1.436.643-1.436 1.436C286.466 181.562 287.109 182.205 287.903 182.205zM285.355 177.825c.811 0 1.469-.658 1.469-1.469 0-.811-.658-1.469-1.469-1.469-.811 0-1.469.658-1.469 1.469C283.886 177.167 284.543 177.825 285.355 177.825zM282.807 173.438c.826 0 1.496-.67 1.496-1.496s-.67-1.496-1.496-1.496-1.496.67-1.496 1.496S281.981 173.438 282.807 173.438zM281.777 167.53c0-.838-.68-1.518-1.518-1.518-.839 0-1.518.68-1.518 1.518 0 .839.68 1.518 1.518 1.518C281.097 169.048 281.777 168.368 281.777 167.53z"/><circle cx="277.711" cy="163.117" r="1.543"/><circle cx="275.163" cy="158.704" r="1.574"/><circle cx="272.615" cy="154.291" r="1.6"/><path d="M268.454,149.877c0,0.891,0.722,1.613,1.613,1.613s1.613-0.722,1.613-1.613 s-0.722-1.613-1.613-1.613S268.454,148.986,268.454,149.877z"/><circle cx="267.519" cy="145.464" r="1.638"/><circle cx="264.972" cy="141.051" r="1.661"/><circle cx="259.876" cy="141.051" r="1.661"/><circle cx="254.78" cy="141.051" r="1.661"/><circle cx="249.684" cy="141.051" r="1.661"/><path d="M246.249,141.051c0-0.917-0.744-1.661-1.661-1.661c-0.917,0-1.661,0.744-1.661,1.661 c0,0.917,0.744,1.661,1.661,1.661C245.506,142.712,246.249,141.969,246.249,141.051z"/><circle cx="239.493" cy="141.051" r="1.661"/><circle cx="234.397" cy="141.051" r="1.661"/><path d="M208.918 219.38c-.611 0-1.107.495-1.107 1.107s.495 1.107 1.107 1.107c.611 0 1.107-.495 1.107-1.107S209.529 219.38 208.918 219.38zM211.466 223.828c-.592 0-1.072.48-1.072 1.072 0 .592.48 1.072 1.072 1.072s1.072-.48 1.072-1.072C212.538 224.308 212.058 223.828 211.466 223.828zM211.466 232.741c-.544 0-.985.441-.985.985s.441.985.985.985.985-.441.985-.985S212.01 232.741 211.466 232.741zM216.562 232.741c-.544 0-.985.441-.985.985s.441.985.985.985c.544 0 .985-.441.985-.985S217.106 232.741 216.562 232.741zM221.657 232.741c-.544 0-.985.441-.985.985s.441.985.985.985c.544 0 .985-.441.985-.985S222.201 232.741 221.657 232.741zM226.753 232.741c-.544 0-.985.441-.985.985s.441.985.985.985.985-.441.985-.985S227.297 232.741 226.753 232.741zM231.849 232.741c-.544 0-.985.441-.985.985s.441.985.985.985.985-.441.985-.985S232.393 232.741 231.849 232.741zM236.945 232.741c-.544 0-.985.441-.985.985s.441.985.985.985c.544 0 .985-.441.985-.985S237.489 232.741 236.945 232.741zM242.041 232.741c-.544 0-.985.441-.985.985s.441.985.985.985.985-.441.985-.985S242.584 232.741 242.041 232.741zM247.136 232.741c-.544 0-.985.441-.985.985s.441.985.985.985.985-.441.985-.985S247.68 232.741 247.136 232.741zM252.232 232.741c-.544 0-.985.441-.985.985s.441.985.985.985c.544 0 .985-.441.985-.985S252.776 232.741 252.232 232.741zM257.328 232.741c-.544 0-.985.441-.985.985s.441.985.985.985c.544 0 .985-.441.985-.985S257.872 232.741 257.328 232.741zM262.424 232.741c-.544 0-.985.441-.985.985s.441.985.985.985.985-.441.985-.985S262.968 232.741 262.424 232.741zM267.519 232.741c-.544 0-.985.441-.985.985s.441.985.985.985c.544 0 .985-.441.985-.985S268.063 232.741 267.519 232.741z"/><circle cx="270.067" cy="229.313" r="1.025"/><path d="M272.615 223.828c-.592 0-1.072.48-1.072 1.072 0 .592.48 1.072 1.072 1.072.592 0 1.072-.48 1.072-1.072C273.688 224.308 273.207 223.828 272.615 223.828zM275.163 219.38c-.611 0-1.107.495-1.107 1.107s.495 1.107 1.107 1.107 1.107-.495 1.107-1.107S275.774 219.38 275.163 219.38z"/><circle cx="277.711" cy="216.074" r="1.154"/><path d="M280.259,210.468c-0.659,0-1.193,0.534-1.193,1.193s0.534,1.193,1.193,1.193 c0.659,0,1.193-0.534,1.193-1.193S280.918,210.468,280.259,210.468z"/><circle cx="282.807" cy="207.247" r="1.228"/><circle cx="285.355" cy="202.834" r="1.267"/><path d="M287.903 199.73c.723 0 1.309-.586 1.309-1.309 0-.723-.586-1.309-1.309-1.309-.723 0-1.309.586-1.309 1.309C286.594 199.144 287.18 199.73 287.903 199.73zM290.451 192.665c-.742 0-1.343.601-1.343 1.343 0 .742.601 1.343 1.343 1.343.742 0 1.343-.601 1.343-1.343C291.794 193.266 291.192 192.665 290.451 192.665zM292.998 190.965c.756 0 1.37-.613 1.37-1.37 0-.757-.613-1.37-1.37-1.37-.757 0-1.37.613-1.37 1.37C291.629 190.352 292.242 190.965 292.998 190.965zM295.546 183.786c-.771 0-1.396.625-1.396 1.396s.625 1.396 1.396 1.396 1.396-.625 1.396-1.396S296.317 183.786 295.546 183.786zM292.998 179.333c-.793 0-1.436.643-1.436 1.436 0 .793.643 1.436 1.436 1.436.793 0 1.436-.643 1.436-1.436C294.435 179.976 293.792 179.333 292.998 179.333zM290.451 174.887c-.811 0-1.469.658-1.469 1.469 0 .811.658 1.469 1.469 1.469s1.469-.658 1.469-1.469C291.92 175.545 291.262 174.887 290.451 174.887zM287.903 170.447c-.826 0-1.496.67-1.496 1.496s.67 1.496 1.496 1.496 1.496-.67 1.496-1.496S288.729 170.447 287.903 170.447zM286.873 167.53c0-.838-.68-1.518-1.518-1.518s-1.518.68-1.518 1.518c0 .839.68 1.518 1.518 1.518S286.873 168.368 286.873 167.53z"/><circle cx="282.807" cy="163.117" r="1.543"/><path d="M280.259,157.13c-0.869,0-1.574,0.705-1.574,1.574s0.705,1.574,1.574,1.574 c0.869,0,1.574-0.705,1.574-1.574S281.128,157.13,280.259,157.13z"/><circle cx="277.711" cy="154.291" r="1.6"/><path d="M273.55 149.877c0 .891.722 1.613 1.613 1.613.891 0 1.613-.722 1.613-1.613s-.722-1.613-1.613-1.613C274.272 148.264 273.55 148.986 273.55 149.877zM272.615 143.826c-.905 0-1.638.734-1.638 1.638s.734 1.638 1.638 1.638 1.638-.734 1.638-1.638S273.52 143.826 272.615 143.826z"/><circle cx="270.067" cy="141.051" r="1.661"/><path d="M267.519 134.964c-.925 0-1.674.75-1.674 1.674 0 .925.75 1.674 1.674 1.674.925 0 1.674-.75 1.674-1.674C269.194 135.714 268.444 134.964 267.519 134.964zM262.424 134.964c-.925 0-1.674.75-1.674 1.674 0 .925.75 1.674 1.674 1.674.925 0 1.674-.75 1.674-1.674C264.098 135.714 263.348 134.964 262.424 134.964zM257.328 134.964c-.925 0-1.674.75-1.674 1.674 0 .925.75 1.674 1.674 1.674.925 0 1.674-.75 1.674-1.674C259.002 135.714 258.253 134.964 257.328 134.964zM252.232 134.964c-.925 0-1.674.75-1.674 1.674 0 .925.75 1.674 1.674 1.674.925 0 1.674-.75 1.674-1.674C253.906 135.714 253.157 134.964 252.232 134.964zM247.136 134.964c-.925 0-1.674.75-1.674 1.674 0 .925.75 1.674 1.674 1.674.925 0 1.674-.75 1.674-1.674C248.811 135.714 248.061 134.964 247.136 134.964zM240.366 136.638c0 .925.75 1.674 1.674 1.674.925 0 1.674-.75 1.674-1.674 0-.925-.75-1.674-1.674-1.674C241.116 134.964 240.366 135.714 240.366 136.638zM235.27 136.638c0 .925.75 1.674 1.674 1.674.925 0 1.674-.75 1.674-1.674 0-.925-.75-1.674-1.674-1.674C236.02 134.964 235.27 135.714 235.27 136.638zM233.523 136.638c0-.925-.75-1.674-1.674-1.674-.925 0-1.674.75-1.674 1.674 0 .925.75 1.674 1.674 1.674C232.774 138.313 233.523 137.563 233.523 136.638zM203.822 219.38c-.611 0-1.107.495-1.107 1.107s.495 1.107 1.107 1.107 1.107-.495 1.107-1.107S204.433 219.38 203.822 219.38zM206.37 223.828c-.592 0-1.072.48-1.072 1.072 0 .592.48 1.072 1.072 1.072.592 0 1.072-.48 1.072-1.072C207.442 224.308 206.962 223.828 206.37 223.828zM208.918 228.288c-.566 0-1.025.459-1.025 1.025 0 .566.459 1.025 1.025 1.025.566 0 1.025-.459 1.025-1.025C209.943 228.747 209.484 228.288 208.918 228.288z"/><circle cx="208.918" cy="238.139" r=".937"/><circle cx="214.014" cy="238.139" r=".937"/><circle cx="219.11" cy="238.139" r=".937"/><circle cx="224.205" cy="238.139" r=".937"/><circle cx="229.301" cy="238.139" r=".937"/><circle cx="234.397" cy="238.139" r=".937"/><circle cx="239.493" cy="238.139" r=".937"/><circle cx="244.588" cy="238.139" r=".937"/><circle cx="249.684" cy="238.139" r=".937"/><circle cx="254.78" cy="238.139" r=".937"/><circle cx="259.876" cy="238.139" r=".937"/><circle cx="264.972" cy="238.139" r=".937"/><circle cx="270.067" cy="238.139" r=".937"/><path d="M272.615,232.741c-0.544,0-0.985,0.441-0.985,0.985s0.441,0.985,0.985,0.985 c0.544,0,0.985-0.441,0.985-0.985S273.159,232.741,272.615,232.741z"/><circle cx="275.163" cy="229.313" r="1.025"/><path d="M277.711 223.828c-.592 0-1.072.48-1.072 1.072 0 .592.48 1.072 1.072 1.072s1.072-.48 1.072-1.072C278.783 224.308 278.303 223.828 277.711 223.828zM280.259 219.38c-.611 0-1.107.495-1.107 1.107s.495 1.107 1.107 1.107c.611 0 1.107-.495 1.107-1.107S280.87 219.38 280.259 219.38z"/><circle cx="282.807" cy="216.074" r="1.154"/><path d="M285.355 210.468c-.659 0-1.193.534-1.193 1.193s.534 1.193 1.193 1.193 1.193-.534 1.193-1.193S286.013 210.468 285.355 210.468zM287.903 208.476c.678 0 1.228-.55 1.228-1.228 0-.678-.55-1.228-1.228-1.228-.678 0-1.228.55-1.228 1.228C286.674 207.926 287.224 208.476 287.903 208.476z"/><circle cx="290.451" cy="202.834" r="1.267"/><circle cx="292.998" cy="198.421" r="1.301"/><path d="M295.546 177.825c.811 0 1.469-.658 1.469-1.469 0-.811-.658-1.469-1.469-1.469-.811 0-1.469.658-1.469 1.469C294.077 177.167 294.735 177.825 295.546 177.825zM292.998 173.438c.826 0 1.496-.67 1.496-1.496s-.67-1.496-1.496-1.496-1.496.67-1.496 1.496S292.172 173.438 292.998 173.438zM291.969 167.53c0-.838-.68-1.518-1.518-1.518s-1.518.68-1.518 1.518c0 .839.68 1.518 1.518 1.518S291.969 168.368 291.969 167.53z"/><circle cx="287.903" cy="163.117" r="1.543"/><circle cx="285.355" cy="158.704" r="1.574"/><circle cx="282.807" cy="154.291" r="1.6"/><path d="M280.259,148.264c-0.891,0-1.613,0.722-1.613,1.613s0.722,1.613,1.613,1.613 c0.891,0,1.613-0.722,1.613-1.613S281.15,148.264,280.259,148.264z"/><circle cx="277.711" cy="145.464" r="1.638"/><circle cx="275.163" cy="141.051" r="1.661"/><path d="M272.615 134.964c-.925 0-1.674.75-1.674 1.674 0 .925.75 1.674 1.674 1.674.925 0 1.674-.75 1.674-1.674C274.29 135.714 273.54 134.964 272.615 134.964zM268.372 132.225c0 .936.759 1.695 1.695 1.695s1.695-.759 1.695-1.695c0-.936-.759-1.695-1.695-1.695S268.372 131.289 268.372 132.225zM263.276 132.225c0 .936.759 1.695 1.695 1.695.936 0 1.695-.759 1.695-1.695 0-.936-.759-1.695-1.695-1.695C264.035 130.53 263.276 131.289 263.276 132.225zM258.18 132.225c0 .936.759 1.695 1.695 1.695.936 0 1.695-.759 1.695-1.695 0-.936-.759-1.695-1.695-1.695C258.939 130.53 258.18 131.289 258.18 132.225zM253.085 132.225c0 .936.759 1.695 1.695 1.695s1.695-.759 1.695-1.695c0-.936-.759-1.695-1.695-1.695S253.085 131.289 253.085 132.225zM247.989 132.225c0 .936.759 1.695 1.695 1.695.936 0 1.695-.759 1.695-1.695 0-.936-.759-1.695-1.695-1.695C248.748 130.53 247.989 131.289 247.989 132.225zM242.893 132.225c0 .936.759 1.695 1.695 1.695.936 0 1.695-.759 1.695-1.695 0-.936-.759-1.695-1.695-1.695C243.652 130.53 242.893 131.289 242.893 132.225zM239.493 130.53c-.936 0-1.695.759-1.695 1.695 0 .936.759 1.695 1.695 1.695s1.695-.759 1.695-1.695C241.188 131.289 240.429 130.53 239.493 130.53zM234.397 133.921c.936 0 1.695-.759 1.695-1.695 0-.936-.759-1.695-1.695-1.695s-1.695.759-1.695 1.695C232.701 133.162 233.461 133.921 234.397 133.921zM199.574 220.487c0-.072-.024-.137-.041-.203-.33.323-.666.657-1.012 1.009.068.017.133.042.206.042C199.194 221.334 199.574 220.955 199.574 220.487zM201.274 223.828c-.592 0-1.072.48-1.072 1.072 0 .592.48 1.072 1.072 1.072.592 0 1.072-.48 1.072-1.072C202.347 224.308 201.867 223.828 201.274 223.828z"/><circle cx="203.822" cy="229.313" r="1.025"/><path d="M206.37 232.741c-.544 0-.985.441-.985.985s.441.985.985.985.985-.441.985-.985S206.914 232.741 206.37 232.741zM206.37 241.663c-.491 0-.89.398-.89.89s.398.89.89.89.889-.398.889-.89S206.861 241.663 206.37 241.663z"/><circle cx="211.466" cy="242.552" r=".89"/><path d="M216.562 241.663c-.491 0-.889.398-.889.89s.398.89.889.89c.491 0 .89-.398.89-.89S217.053 241.663 216.562 241.663zM221.657 241.663c-.491 0-.89.398-.89.89s.398.89.89.89c.491 0 .889-.398.889-.89S222.149 241.663 221.657 241.663z"/><circle cx="226.753" cy="242.552" r=".89"/><path d="M231.849 241.663c-.491 0-.889.398-.889.89s.398.89.889.89.89-.398.89-.89S232.34 241.663 231.849 241.663zM236.945 241.663c-.491 0-.89.398-.89.89s.398.89.89.89c.491 0 .889-.398.889-.89S237.436 241.663 236.945 241.663zM242.041 241.663c-.491 0-.89.398-.89.89s.398.89.89.89.889-.398.889-.89S242.532 241.663 242.041 241.663z"/><circle cx="247.136" cy="242.552" r=".89"/><path d="M252.232 241.663c-.491 0-.889.398-.889.89s.398.89.889.89c.491 0 .89-.398.89-.89S252.723 241.663 252.232 241.663zM257.328 241.663c-.491 0-.89.398-.89.89s.398.89.89.89c.491 0 .889-.398.889-.89S257.819 241.663 257.328 241.663z"/><circle cx="262.424" cy="242.552" r=".89"/><circle cx="267.519" cy="242.552" r=".876"/><path d="M277.711 233.027c-.386 0-.699.313-.699.699s.313.699.699.699c.037 0 .068-.015.103-.021.192-.253.39-.502.58-.756C278.354 233.3 278.069 233.027 277.711 233.027zM280.259 228.445c-.479 0-.868.388-.868.868 0 .479.388.868.868.868.479 0 .868-.388.868-.868C281.127 228.834 280.738 228.445 280.259 228.445zM282.807 223.926c-.538 0-.974.436-.974.974 0 .538.436.974.974.974.538 0 .974-.436.974-.974C283.781 224.362 283.345 223.926 282.807 223.926z"/><circle cx="285.355" cy="220.487" r=".972"/><path d="M287.903 215.112c-.531 0-.961.43-.961.961 0 .531.43.961.961.961.238 0 .449-.096.617-.239.206-.176.344-.429.344-.722 0-.012-.006-.021-.007-.033C288.839 215.526 288.422 215.112 287.903 215.112zM294.028 167.53c0 .839.68 1.518 1.518 1.518.839 0 1.518-.68 1.518-1.518 0-.838-.68-1.518-1.518-1.518C294.708 166.012 294.028 166.691 294.028 167.53z"/><circle cx="292.998" cy="163.117" r="1.543"/><circle cx="290.451" cy="158.704" r="1.574"/><circle cx="287.903" cy="154.291" r="1.6"/><path d="M285.355,148.264c-0.891,0-1.613,0.722-1.613,1.613s0.722,1.613,1.613,1.613 c0.891,0,1.613-0.722,1.613-1.613S286.246,148.264,285.355,148.264z"/><circle cx="282.807" cy="145.464" r="1.638"/><path d="M280.259 139.39c-.917 0-1.661.744-1.661 1.661 0 .917.744 1.661 1.661 1.661.917 0 1.661-.744 1.661-1.661C281.92 140.134 281.176 139.39 280.259 139.39zM277.711 134.964c-.925 0-1.674.75-1.674 1.674 0 .925.75 1.674 1.674 1.674.925 0 1.674-.75 1.674-1.674C279.385 135.714 278.636 134.964 277.711 134.964zM273.468 132.225c0 .936.759 1.695 1.695 1.695s1.695-.759 1.695-1.695c0-.936-.759-1.695-1.695-1.695S273.468 131.289 273.468 132.225zM272.615 126.103c-.944 0-1.709.765-1.709 1.709 0 .944.765 1.709 1.709 1.709.944 0 1.709-.765 1.709-1.709C274.324 126.868 273.559 126.103 272.615 126.103zM267.519 126.103c-.944 0-1.709.765-1.709 1.709 0 .944.765 1.709 1.709 1.709.944 0 1.709-.765 1.709-1.709C269.228 126.868 268.463 126.103 267.519 126.103z"/><circle cx="262.424" cy="127.812" r="1.709"/><path d="M257.328 126.103c-.944 0-1.709.765-1.709 1.709 0 .944.765 1.709 1.709 1.709.944 0 1.709-.765 1.709-1.709C259.037 126.868 258.272 126.103 257.328 126.103zM252.232 126.103c-.944 0-1.709.765-1.709 1.709 0 .944.765 1.709 1.709 1.709.944 0 1.709-.765 1.709-1.709C253.941 126.868 253.176 126.103 252.232 126.103z"/><circle cx="247.136" cy="127.812" r="1.709"/><circle cx="242.041" cy="127.812" r="1.709"/><path d="M236.945 129.521c.944 0 1.709-.765 1.709-1.709 0-.944-.765-1.709-1.709-1.709-.944 0-1.709.765-1.709 1.709C235.236 128.756 236.001 129.521 236.945 129.521zM196.179 223.871c-.031 0-.058.015-.089.018-.308.344-.617.694-.93 1.058.026.544.468.98 1.019.98.568 0 1.028-.46 1.028-1.028C197.207 224.332 196.747 223.871 196.179 223.871z"/><circle cx="198.726" cy="229.313" r="1.025"/><path d="M201.274,232.741c-0.544,0-0.985,0.441-0.985,0.985s0.441,0.985,0.985,0.985 c0.544,0,0.985-0.441,0.985-0.985S201.818,232.741,201.274,232.741z"/><circle cx="203.822" cy="238.139" r=".937"/><path d="M203.822 246.123c-.465 0-.842.377-.842.842s.377.842.842.842.842-.377.842-.842S204.287 246.123 203.822 246.123zM208.918 246.123c-.465 0-.842.377-.842.842s.377.842.842.842c.465 0 .842-.377.842-.842S209.383 246.123 208.918 246.123zM214.014 246.123c-.465 0-.842.377-.842.842s.377.842.842.842c.465 0 .842-.377.842-.842S214.479 246.123 214.014 246.123zM219.11 246.123c-.465 0-.842.377-.842.842s.377.842.842.842.842-.377.842-.842S219.575 246.123 219.11 246.123zM224.205 246.123c-.465 0-.842.377-.842.842s.377.842.842.842.842-.377.842-.842S224.67 246.123 224.205 246.123zM229.301 246.123c-.465 0-.842.377-.842.842s.377.842.842.842c.465 0 .842-.377.842-.842S229.766 246.123 229.301 246.123zM234.397 246.123c-.465 0-.842.377-.842.842s.377.842.842.842.842-.377.842-.842S234.862 246.123 234.397 246.123zM239.493 246.123c-.465 0-.842.377-.842.842s.377.842.842.842.842-.377.842-.842S239.958 246.123 239.493 246.123zM244.588 246.123c-.465 0-.842.377-.842.842s.377.842.842.842c.465 0 .842-.377.842-.842S245.053 246.123 244.588 246.123zM249.684 246.123c-.465 0-.842.377-.842.842s.377.842.842.842.842-.377.842-.842S250.149 246.123 249.684 246.123zM254.78 246.123c-.465 0-.842.377-.842.842s.377.842.842.842.842-.377.842-.842S255.245 246.123 254.78 246.123zM259.876 246.123c-.465 0-.842.377-.842.842s.377.842.842.842c.465 0 .842-.377.842-.842S260.341 246.123 259.876 246.123zM264.972 246.248c-.396 0-.717.321-.717.717s.321.717.717.717c.396 0 .717-.321.717-.717S265.367 246.248 264.972 246.248zM294.022 158.704c0 .842.682 1.524 1.524 1.524.345 0 .659-.119.914-.311-.148-.893-.309-1.782-.482-2.668-.138-.041-.281-.07-.433-.07C294.704 157.179 294.022 157.862 294.022 158.704z"/><circle cx="292.998" cy="154.291" r="1.6"/><path d="M292.064 149.877c0-.891-.722-1.613-1.613-1.613s-1.613.722-1.613 1.613.722 1.613 1.613 1.613S292.064 150.769 292.064 149.877zM287.903 143.826c-.905 0-1.638.734-1.638 1.638s.734 1.638 1.638 1.638c.905 0 1.638-.734 1.638-1.638S288.808 143.826 287.903 143.826z"/><circle cx="285.355" cy="141.051" r="1.661"/><path d="M282.807 134.964c-.925 0-1.674.75-1.674 1.674 0 .925.75 1.674 1.674 1.674.925 0 1.674-.75 1.674-1.674C284.481 135.714 283.732 134.964 282.807 134.964zM280.259 130.53c-.936 0-1.695.759-1.695 1.695 0 .936.759 1.695 1.695 1.695.936 0 1.695-.759 1.695-1.695C281.954 131.289 281.195 130.53 280.259 130.53zM277.711 126.103c-.944 0-1.709.765-1.709 1.709 0 .944.765 1.709 1.709 1.709s1.709-.765 1.709-1.709C279.42 126.868 278.655 126.103 277.711 126.103z"/><circle cx="275.163" cy="123.399" r="1.722"/><circle cx="270.067" cy="123.399" r="1.722"/><path d="M263.25,123.399c0,0.951,0.771,1.722,1.722,1.722c0.951,0,1.722-0.771,1.722-1.722 c0-0.951-0.771-1.722-1.722-1.722C264.021,121.677,263.25,122.448,263.25,123.399z"/><circle cx="259.876" cy="123.399" r="1.722"/><circle cx="254.78" cy="123.399" r="1.722"/><circle cx="249.684" cy="123.399" r="1.722"/><path d="M244.588 125.121c.951 0 1.722-.771 1.722-1.722 0-.951-.771-1.722-1.722-1.722-.517 0-.975.233-1.291.593.001.502.001 1.003-.007 1.477-.115.036-.241.068-.357.104C243.133 124.581 243.795 125.121 244.588 125.121zM240.724 124.474c-.553.145-1.107.289-1.688.423-.045.01-.089.019-.134.029.184.071.382.114.591.114C239.986 125.04 240.423 124.818 240.724 124.474zM193.631 228.288c-.566 0-1.025.459-1.025 1.025 0 .566.459 1.025 1.025 1.025.566 0 1.025-.459 1.025-1.025C194.655 228.747 194.197 228.288 193.631 228.288zM196.179 232.741c-.544 0-.985.441-.985.985s.441.985.985.985.985-.441.985-.985S196.722 232.741 196.179 232.741z"/><circle cx="198.726" cy="238.139" r=".937"/><path d="M201.274 241.663c-.491 0-.889.398-.889.89s.398.89.889.89c.491 0 .89-.398.89-.89S201.766 241.663 201.274 241.663zM201.274 250.584c-.439 0-.794.356-.794.794 0 .439.356.794.794.794.439 0 .794-.356.794-.794C202.069 250.94 201.713 250.584 201.274 250.584zM206.37 250.584c-.439 0-.794.356-.794.794 0 .439.356.794.794.794s.794-.356.794-.794C207.164 250.94 206.809 250.584 206.37 250.584zM211.466 250.584c-.439 0-.794.356-.794.794 0 .439.356.794.794.794s.794-.356.794-.794C212.26 250.94 211.905 250.584 211.466 250.584zM216.562 250.584c-.439 0-.794.356-.794.794 0 .439.356.794.794.794.439 0 .794-.356.794-.794C217.356 250.94 217 250.584 216.562 250.584zM221.657 250.584c-.439 0-.794.356-.794.794 0 .439.356.794.794.794.439 0 .794-.356.794-.794C222.452 250.94 222.096 250.584 221.657 250.584zM226.753 250.584c-.439 0-.794.356-.794.794 0 .439.356.794.794.794s.794-.356.794-.794C227.547 250.94 227.192 250.584 226.753 250.584zM231.849 250.584c-.439 0-.794.356-.794.794 0 .439.356.794.794.794s.794-.356.794-.794C232.643 250.94 232.288 250.584 231.849 250.584zM236.945 250.584c-.439 0-.794.356-.794.794 0 .439.356.794.794.794.439 0 .794-.356.794-.794C237.739 250.94 237.383 250.584 236.945 250.584zM242.041 250.584c-.439 0-.794.356-.794.794 0 .439.356.794.794.794s.794-.356.794-.794C242.835 250.94 242.479 250.584 242.041 250.584zM247.136 250.584c-.439 0-.794.356-.794.794 0 .439.356.794.794.794s.794-.356.794-.794C247.931 250.94 247.575 250.584 247.136 250.584zM252.232 250.584c-.439 0-.794.356-.794.794 0 .439.356.794.794.794.439 0 .794-.356.794-.794C253.026 250.94 252.671 250.584 252.232 250.584z"/><circle cx="257.328" cy="251.378" r=".782"/><path d="M262.421 251.378L262.424 251.381 262.427 251.378 262.424 251.375zM292.998 146.983c.131 0 .256-.022.377-.053-.301-.963-.612-1.922-.942-2.874-.558.225-.953.769-.953 1.407C291.479 146.303 292.159 146.983 292.998 146.983zM288.803 141.051c0 .91.738 1.648 1.648 1.648.511 0 .961-.237 1.264-.602-.332-.895-.672-1.786-1.03-2.67-.077-.011-.154-.023-.234-.023C289.54 139.404 288.803 140.141 288.803 141.051zM286.228 136.638c0 .925.75 1.674 1.674 1.674.888 0 1.607-.693 1.664-1.567-.214-.487-.448-.965-.67-1.449-.279-.207-.62-.333-.994-.333C286.978 134.964 286.228 135.714 286.228 136.638zM283.659 132.225c0 .936.759 1.695 1.695 1.695s1.695-.759 1.695-1.695c0-.936-.759-1.695-1.695-1.695S283.659 131.289 283.659 132.225zM281.098 127.812c0 .944.765 1.709 1.709 1.709s1.709-.765 1.709-1.709c0-.944-.765-1.709-1.709-1.709S281.098 126.868 281.098 127.812zM278.537 123.399c0 .951.771 1.722 1.722 1.722.951 0 1.722-.771 1.722-1.722 0-.951-.771-1.722-1.722-1.722C279.308 121.677 278.537 122.448 278.537 123.399zM277.711 120.72c.948 0 1.716-.762 1.731-1.707-.399-.558-.793-1.12-1.203-1.67-.167-.054-.342-.091-.528-.091-.958 0-1.734.776-1.734 1.734S276.754 120.72 277.711 120.72zM272.615 120.72c.958 0 1.734-.776 1.734-1.734s-.776-1.734-1.734-1.734-1.734.776-1.734 1.734S271.658 120.72 272.615 120.72zM267.519 120.72c.958 0 1.734-.776 1.734-1.734s-.776-1.734-1.734-1.734-1.734.776-1.734 1.734S266.562 120.72 267.519 120.72z"/><circle cx="262.424" cy="118.986" r="1.734"/><path d="M257.328 120.72c.958 0 1.734-.776 1.734-1.734s-.776-1.734-1.734-1.734-1.734.776-1.734 1.734S256.37 120.72 257.328 120.72zM252.232 120.72c.958 0 1.734-.776 1.734-1.734s-.776-1.734-1.734-1.734-1.734.776-1.734 1.734S251.275 120.72 252.232 120.72z"/><circle cx="247.136" cy="118.986" r="1.734"/><path d="M191.083 232.741c-.544 0-.985.441-.985.985s.441.985.985.985.985-.441.985-.985S191.627 232.741 191.083 232.741zM193.631 237.202c-.518 0-.937.42-.937.937s.42.937.937.937c.518 0 .937-.42.937-.937S194.148 237.202 193.631 237.202zM196.179 241.663c-.491 0-.889.398-.889.89s.398.89.889.89.89-.398.89-.89S196.67 241.663 196.179 241.663zM198.726 246.123c-.465 0-.842.377-.842.842s.377.842.842.842.842-.377.842-.842S199.191 246.123 198.726 246.123zM198.726 255.049c-.41 0-.743.333-.743.743 0 .41.333.743.743.743s.743-.333.743-.743C199.469 255.381 199.137 255.049 198.726 255.049zM203.822 255.049c-.41 0-.743.333-.743.743 0 .41.332.743.743.743s.743-.333.743-.743C204.565 255.381 204.232 255.049 203.822 255.049zM208.918 255.049c-.41 0-.743.333-.743.743 0 .41.333.743.743.743.41 0 .743-.333.743-.743C209.661 255.381 209.328 255.049 208.918 255.049zM214.014 255.049c-.41 0-.743.333-.743.743 0 .41.333.743.743.743s.743-.333.743-.743C214.756 255.381 214.424 255.049 214.014 255.049zM219.11 255.049c-.41 0-.743.333-.743.743 0 .41.332.743.743.743s.743-.333.743-.743C219.852 255.381 219.52 255.049 219.11 255.049zM224.205 255.049c-.41 0-.743.333-.743.743 0 .41.332.743.743.743s.743-.333.743-.743C224.948 255.381 224.615 255.049 224.205 255.049zM229.301 255.049c-.41 0-.743.333-.743.743 0 .41.333.743.743.743.41 0 .743-.333.743-.743C230.044 255.381 229.711 255.049 229.301 255.049zM234.397 255.049c-.41 0-.743.333-.743.743 0 .41.333.743.743.743s.743-.333.743-.743C235.14 255.381 234.807 255.049 234.397 255.049zM239.493 255.049c-.41 0-.743.333-.743.743 0 .41.332.743.743.743s.743-.333.743-.743C240.235 255.381 239.903 255.049 239.493 255.049zM244.588 255.049c-.41 0-.743.333-.743.743 0 .41.333.743.743.743.41 0 .743-.333.743-.743C245.331 255.381 244.999 255.049 244.588 255.049zM249.684 255.049c-.41 0-.743.333-.743.743 0 .41.333.743.743.743s.743-.333.743-.743C250.427 255.381 250.094 255.049 249.684 255.049z"/><circle cx="188.535" cy="238.139" r=".937"/><circle cx="191.083" cy="242.552" r=".89"/><path d="M193.631 246.123c-.465 0-.842.377-.842.842s.377.842.842.842c.465 0 .842-.377.842-.842S194.096 246.123 193.631 246.123zM196.179 250.584c-.439 0-.794.356-.794.794 0 .439.356.794.794.794s.794-.356.794-.794C196.973 250.94 196.617 250.584 196.179 250.584zM196.179 259.517c-.38 0-.687.308-.687.687 0 .38.308.687.687.687s.687-.308.687-.687C196.866 259.825 196.558 259.517 196.179 259.517zM201.274 259.517c-.38 0-.687.308-.687.687 0 .38.308.687.687.687.38 0 .687-.308.687-.687C201.962 259.825 201.654 259.517 201.274 259.517zM206.37 259.517c-.38 0-.687.308-.687.687 0 .38.308.687.687.687.38 0 .687-.308.687-.687C207.057 259.825 206.75 259.517 206.37 259.517zM211.466 259.517c-.38 0-.687.308-.687.687 0 .38.308.687.687.687s.687-.308.687-.687C212.153 259.825 211.845 259.517 211.466 259.517zM216.562 259.517c-.38 0-.687.308-.687.687 0 .38.308.687.687.687.38 0 .687-.308.687-.687C217.249 259.825 216.941 259.517 216.562 259.517zM221.657 259.517c-.38 0-.687.308-.687.687 0 .38.308.687.687.687.38 0 .687-.308.687-.687C222.345 259.825 222.037 259.517 221.657 259.517zM226.753 259.517c-.38 0-.687.308-.687.687 0 .38.308.687.687.687s.687-.308.687-.687C227.44 259.825 227.133 259.517 226.753 259.517zM231.849 259.517c-.38 0-.687.308-.687.687 0 .38.308.687.687.687.38 0 .687-.308.687-.687C232.536 259.825 232.229 259.517 231.849 259.517zM236.945 259.517c-.38 0-.687.308-.687.687 0 .38.308.687.687.687.38 0 .687-.308.687-.687C237.632 259.825 237.324 259.517 236.945 259.517zM242.041 259.517c-.38 0-.687.308-.687.687 0 .38.308.687.687.687.38 0 .687-.308.687-.687C242.728 259.825 242.42 259.517 242.041 259.517zM185.987 241.663c-.491 0-.89.398-.89.89s.398.89.89.89c.491 0 .889-.398.889-.89S186.478 241.663 185.987 241.663zM188.535 246.123c-.465 0-.842.377-.842.842s.377.842.842.842.842-.377.842-.842S189 246.123 188.535 246.123zM191.083 250.584c-.439 0-.794.356-.794.794 0 .439.356.794.794.794s.794-.356.794-.794C191.877 250.94 191.521 250.584 191.083 250.584zM193.631 255.049c-.41 0-.743.333-.743.743 0 .41.333.743.743.743.41 0 .743-.333.743-.743C194.373 255.381 194.041 255.049 193.631 255.049z"/><circle cx="193.631" cy="264.617" r=".634"/><circle cx="198.726" cy="264.617" r=".634"/><circle cx="203.822" cy="264.617" r=".634"/><circle cx="208.918" cy="264.617" r=".634"/><circle cx="214.014" cy="264.617" r=".634"/><circle cx="219.11" cy="264.617" r=".634"/><circle cx="224.205" cy="264.617" r=".634"/><path d="M229.301,263.983c-0.35,0-0.634,0.284-0.634,0.634s0.284,0.634,0.634,0.634 c0.35,0,0.634-0.284,0.634-0.634S229.651,263.983,229.301,263.983z"/><circle cx="234.397" cy="264.617" r=".634"/><path d="M183.439 246.123c-.465 0-.842.377-.842.842s.377.842.842.842.842-.377.842-.842S183.904 246.123 183.439 246.123zM185.987 250.584c-.439 0-.794.356-.794.794 0 .439.356.794.794.794.439 0 .794-.356.794-.794C186.781 250.94 186.426 250.584 185.987 250.584zM188.535 255.049c-.41 0-.743.333-.743.743 0 .41.332.743.743.743s.743-.333.743-.743C189.278 255.381 188.945 255.049 188.535 255.049zM191.083 259.517c-.38 0-.687.308-.687.687 0 .38.308.687.687.687s.687-.308.687-.687C191.77 259.825 191.462 259.517 191.083 259.517z"/><circle cx="191.083" cy="269.031" r=".586"/><path d="M196.179 268.444c-.324 0-.586.263-.586.586s.263.586.586.586.586-.263.586-.586S196.502 268.444 196.179 268.444zM201.274 268.444c-.324 0-.586.263-.586.586s.263.586.586.586c.324 0 .586-.263.586-.586S201.598 268.444 201.274 268.444zM206.37 268.444c-.324 0-.586.263-.586.586s.263.586.586.586c.324 0 .586-.263.586-.586S206.694 268.444 206.37 268.444z"/><circle cx="211.466" cy="269.031" r=".586"/><path d="M216.562,268.444c-0.324,0-0.586,0.263-0.586,0.586s0.263,0.586,0.586,0.586 c0.324,0,0.586-0.263,0.586-0.586S216.886,268.444,216.562,268.444z"/><circle cx="221.657" cy="269.031" r=".573"/><path d="M180.891 250.584c-.439 0-.794.356-.794.794 0 .439.356.794.794.794.439 0 .794-.356.794-.794C181.685 250.94 181.33 250.584 180.891 250.584zM183.439 255.049c-.41 0-.743.333-.743.743 0 .41.332.743.743.743s.743-.333.743-.743C184.182 255.381 183.849 255.049 183.439 255.049zM185.987 259.517c-.38 0-.687.308-.687.687 0 .38.308.687.687.687.38 0 .687-.308.687-.687C186.674 259.825 186.367 259.517 185.987 259.517z"/><circle cx="188.535" cy="264.617" r=".634"/><path d="M180.891,259.517c-0.38,0-0.687,0.308-0.687,0.687c0,0.38,0.308,0.687,0.687,0.687 c0.38,0,0.687-0.308,0.687-0.687C181.578,259.825,181.271,259.517,180.891,259.517z"/><circle cx="183.439" cy="264.617" r=".634"/><path d="M185.987 268.444c-.324 0-.586.263-.586.586s.263.586.586.586c.324 0 .586-.263.586-.586S186.311 268.444 185.987 268.444zM296.599 171.943c0 .704.488 1.29 1.143 1.449-.022-.957-.059-1.912-.11-2.864C297.033 170.724 296.599 171.279 296.599 171.943zM296.47 180.769c0 .67.461 1.228 1.081 1.387.063-.93.097-1.865.133-2.8C296.997 179.462 296.47 180.052 296.47 180.769zM293.784 194.008c0 .742.601 1.343 1.343 1.343.228 0 .433-.071.621-.172.14-.67.275-1.341.4-2.016-.246-.298-.604-.499-1.021-.499C294.385 192.665 293.784 193.266 293.784 194.008zM290.056 210.639c-.659 0-1.193.534-1.193 1.193s.534 1.193 1.193 1.193c.055 0 .103-.024.156-.031.264-.628.507-1.266.758-1.899C290.752 210.822 290.431 210.639 290.056 210.639zM291.286 207.247c0 .494.301.918.729 1.099.268-.74.534-1.48.784-2.227-.104-.03-.207-.065-.32-.065C291.82 206.055 291.286 206.589 291.286 207.247zM247.136 206.055c-.262 0-.491.101-.688.244.107.731.177 1.407.222 2.047.143.061.3.094.465.094.659 0 1.193-.534 1.193-1.193S247.795 206.055 247.136 206.055zM239.493 263.983c-.35 0-.634.284-.634.634 0 .197.095.366.237.483.108-.048.215-.097.322-.146.127-.057.254-.115.381-.172.108-.049.217-.097.325-.147 0-.006.004-.011.004-.018C240.127 264.267 239.843 263.983 239.493 263.983zM247.136 259.517c-.38 0-.687.308-.687.687 0 .38.308.687.687.687s.687-.308.687-.687C247.824 259.825 247.516 259.517 247.136 259.517zM254.78 255.049c-.41 0-.743.333-.743.743 0 .327.215.596.508.695.321-.219.649-.429.968-.652.001-.015.009-.028.009-.044C255.523 255.381 255.19 255.049 254.78 255.049z"/><circle cx="226.753" cy="269.031" r=".573"/></g></g></switch></svg>