<svg xmlns="http://www.w3.org/2000/svg" viewBox="0 0 350 350" style="enable-background:new 0 0 350 350" xml:space="preserve"><switch><g><path style="fill:#fff" d="M59.872 60h230.256v230H59.872z"/><path d="M69.18 69.39h211.64v211.404H69.18z"/><radialGradient id="iq-a" cx="175" cy="175" r="96.5" gradientUnits="userSpaceOnUse"><stop offset=".086" style="stop-color:#f9c133"/><stop offset=".2" style="stop-color:#f79520"/></radialGradient><path style="fill:url(#iq-a);stroke:#000;stroke-miterlimit:10" d="M78.5 78.5h193v193h-193z"/><radialGradient id="iq-b" cx="175" cy="175" r="96" gradientTransform="matrix(1 0 0 1.25 0 -43.75)" gradientUnits="userSpaceOnUse"><stop offset=".583" style="stop-color:#fbd778"/><stop offset=".724" style="stop-color:#fcdd79;stop-opacity:.6622"/><stop offset=".905" style="stop-color:#feed7d;stop-opacity:.2263"/><stop offset="1" style="stop-color:#fff87f;stop-opacity:0"/></radialGradient><path style="opacity:.6;fill:url(#iq-b)" d="M79 79h192v192H79z"/><g><path d="M262.44 99.39c-.296-2.024 4.441-4.452 4.927-4.684 2.42-1.151 4.823-1.826 4.823-1.826L277.25 82c-1.501.748-3.776 1.9-6.521 3.368-5.885 3.145-8.474 4.821-8.729 4.476-.377-.511 4.789-4.904 5.283-5.324a79.707 79.707 0 0 1 7.298-5.52L75.67 75.67l-2.5 4.16 42.205 34.514c3.147 2.849 3.47 3.797 3.25 4.156-.858 1.403-11.035-4.382-12.531-2.375-.913 1.225 1.877 4.727 2.344 5.313 8.002 10.042 52.008 40.119 69.313 51.813 0 0 64-63.5 87.75-67.87 4.043-.778 4.839-1.441 4.844-1.896.014-1.408-7.546-1.635-7.905-4.095zM137 136.984c-2.714-2.2-3.21-2.399-5.041-3.89-3.28-2.671-6.93-6.3-6.629-6.674.304-.379 4.787 2.383 8.753 5.851 4.559 3.987 7.703 8.267 7.479 8.479-.127.121-1.309-1.128-4.562-3.766zm12.08 11.936c-.934-.149-4-4.25-4-4.25 2.378.372 4.942 4.4 4 4.25zm-56-57.75c4.5.16 39.071 27.909 40.92 29.497 4.417 3.793 35.58 27.253 35.58 27.253-9.62-.88-76.5-56.75-76.5-56.75zm85.5 55.64s9.003-5.852 10.5-5.39c1.28.395-5.601 5.893-10.5 5.39zm18.34-8.81s18.251-11.844 21.08-11.58c3.979.372-14.896 10.497-21.08 11.58zM261.75 253.75c-2.25-4.25-87-55.75-87-55.75L73.17 257.75l2.08 18L273 277.5V267s-9-9-11.25-13.25zm-172.021 5.167A57.35 57.35 0 0 1 78 264.5v-2.75a102.437 102.437 0 0 0 7.333-3.208c9.62-4.664 14.975-9.124 15.261-8.751.278.362-4.413 5.097-10.865 9.126zm86.501-54.867c-.76-.49-1.72-.51-2.5-.05-8.67 5.1-58.86 34.49-61.61 33.75-1-1.59 59.42-36.53 62.88-36.75 3.46-.22 31.03 18.13 33.5 20.62-2.15 1.77-26.48-13.82-32.27-17.57z"/></g><g><path d="M100.37 130.541a3428150.9 3428150.9 0 0 0 74.568 53.084l.273 11.75-18.96 2.5c-2.065 2.358-17.198 19.055-41.875 18.517-23.55-.514-37.632-16.328-39.804-18.852l-45.321-61.79 71.119-5.209z"/><path style="fill:#fff" d="m42.903 141.919 55.742-4.201 71.105 52.531-16.368.497c-10.359 14.253-27.141 21.814-43.548 19.42-17.439-2.545-27.296-15.292-29.366-18.101-12.522-16.714-25.043-33.43-37.565-50.146z"/><path d="m98.502 147.422 41.59 29.852c2.005 4.471 1.598 7.793 1.242 9.392-2.224 9.981-15.935 13.176-17.832 13.618-5.196 1.211-9.394.764-11.835.382-13.628-2.132-25.043-13.059-27.833-15.833-3.64-3.619-7.534-8.789-8.884-16.6-1.231-7.123.536-13.009 1.676-15.983a49.084 49.084 0 0 1 21.876-4.828z"/><path style="fill:#fff" d="M105.563 148.75V169l-7.188-5.25 2.5 35.5 2.625 1.66 1.125-20.41 11.125 13.625 1.25-39.25z"/><g><path d="m170.719 195.656 23.812 1.834c1.846 2.251 17.354 20.519 42.802 19.843 29.378-.781 44.378-26.075 45.167-27.458L322 135.75l-72.667-5.209-74.396 53.084-4.218 12.031z"/><path style="fill:#fff" d="m308.595 142.422-56.512-4.672-71.583 52.333 15.367.389c11.071 14.188 28.516 21.524 45.655 18.992 20.518-3.031 31.367-18.844 33.116-21.486l33.957-45.556z"/><path d="M268.333 149.333a50.16 50.16 0 0 0-18.666.25l-40.917 28.663c.199 2.485 1.154 10.387 7.5 16.25 3.856 3.563 8.095 4.887 10.248 5.534 5.413 1.628 9.861 1.238 12.627.969 11.149-1.087 18.798-6.732 21.625-8.875 1.831-1.388 5.202-3.981 8.5-8.375 3.228-4.301 10.166-13.504 7.375-23.375-.532-1.881-2.25-6.73-8.292-11.041z"/><path style="fill:#fff" d="M244.438 148.497v20.25l7.187-5.25-2.5 35.5-2.625 1.66-1.125-20.41-11.125 13.625-1.25-39.25z"/></g></g></g></switch></svg>