<svg xmlns="http://www.w3.org/2000/svg" xml:space="preserve" style="enable-background:new 0 0 350 350" viewBox="0 0 350 350"><switch><g><path d="M45 45h260v260H45z" style="opacity:.4"/><path d="M73 73h204v204H73z" style="fill:#fbbb3f"/><path d="m73 73 102 79.458L277 73zm204 204-102-79.458L73 277z"/><path d="m94.722 112.167 81.007 58.479 81.132-58.562a452.321 452.321 0 0 1 55.528 3.944c7.273.97 14.313 2.09 21.111 3.326a12299.74 12299.74 0 0 1-21.736 29.438c-2.038 2.743-3.535 4.75-3.535 4.75-3.733 5.006-3.55 4.728-4.231 5.665-3.461 4.766-3.7 5.779-6.651 9.876a97.75 97.75 0 0 1-5.069 6.444 107.827 107.827 0 0 1-9.75 10.611c-2.747 2.613-7.309 6.91-14.126 11.241-2.424 1.54-5.32 3.36-9.527 5.079-2.21.903-5.367 2.171-9.708 2.875-4.807.78-8.543.459-11.25.208-1.504-.139-6.444-.66-12.75-2.75-8.425-2.792-14.305-6.731-19.608-10.338a109.786 109.786 0 0 1-8.309-6.246l-21.458-3.917-21.431 3.625a85.482 85.482 0 0 1-12.486 9.292c-4.125 2.522-10.232 6.195-18.869 8.484-3.367.892-9.34 2.476-16.7 2.03-13.806-.836-23.577-8.271-30.083-13.222-8.973-6.828-15.135-14.757-18-18.444-1.829-2.353-4.84-6.446-7.292-9.861a437.983 437.983 0 0 1-7.368-10.59c-9.457-12.683-15.042-20.247-17.525-23.718-.599-.837-2.521-3.539-5.274-7.039A191.147 191.147 0 0 0 18 119.416a444.111 444.111 0 0 1 11.713-1.976 449.49 449.49 0 0 1 65.009-5.273"/><path d="M92.444 119.653a409.98 409.98 0 0 0-61.056 5.084l32.556 44.569c4.596 5.748 10.73 12.387 18.306 18.236 4.712 3.638 8.408 5.755 11.958 7.333 2.225.989 5.051 2.225 8.931 2.958 1.1.208 6.106 1.098 13.25-.056 7.947-1.283 13.528-4.287 18.417-6.972 4.278-2.35 10.177-6.107 16.361-11.917l16.926-2.885c.15-.02.58-.098.907-.463.127-.142.204-.288.25-.403zm-6.402 61.514c-2.787-1.855-6.719-4.508-10.708-8.917-2.836-3.134-7.01-7.747-9.05-15.075-.697-2.505-1.898-7.017-.769-12.729 1.003-5.077 3.366-8.671 4.818-10.558a43.709 43.709 0 0 1 8.792-2.514c1.985-.345 3.658-.487 4.916-.594 2.72-.231 4.224-.359 6.079-.199 1.535.132 3.823.506 6.533 1.654l1.347.986 2.319 22.556-7.986-6 2.889 36.5a66.211 66.211 0 0 1-9.18-5.11M136.5 176.5c-1.283 2.308-2.59 3.768-2.897 4.105-4.123 4.536-9.331 6.125-13.353 7.353-1.274.389-3.007.911-5.268 1.262-3.213.499-9.379.947-17.205-1.832l1.194-21.882 11.333 13.993 2.194-36.028 27.083 19.361c.139 2.823-.021 8.166-3.081 13.668m162.573-54.355A534.669 534.669 0 0 0 259 119.667l-76.778 55.472a1.974 1.974 0 0 0 1.386 1.014l16.809 2.902a78.275 78.275 0 0 0 15.104 11.028c7.589 4.252 15.81 8.858 26.826 8.444 8.949-.336 15.848-3.837 19.097-5.528 4.876-2.537 8.251-5.336 11.43-7.974 5.68-4.712 9.429-9.068 11.904-11.971 4.089-4.796 7.181-9.253 8.444-11.083 1.707-2.473 2.159-3.294 4.319-6.41 3.045-4.392 5.448-7.526 6.667-9.125 3.078-4.039 7.924-10.524 16.125-21.743a536.524 536.524 0 0 0-21.26-2.548m-62.462 67.022c-.724-.097-9.084-1.301-15.889-6.167-1.86-1.33-2.942-2.46-3.667-3.333-2.224-2.678-3.07-5.322-3.778-7.611a30.786 30.786 0 0 1-1.361-9.222l27.167-19.25 2.25 35.875 11.333-13.979 1.292 21.896c-3.414 1.185-9.663 2.823-17.347 1.791m49.434-33.882c-.339 1.691-1.521 6.749-7.003 13.715-7.158 9.095-16.064 14.35-22.5 17.292l2.75-36.292-7.667 5.708 1.917-22.583 1.208-.833a37.078 37.078 0 0 1 4.417-1.042c9.183-1.579 17.15.632 22.292 2.708a27.113 27.113 0 0 1 4.221 8.849c.4 1.49 1.582 6.403.365 12.478" style="fill:#fff"/></g></switch></svg>