<svg xmlns="http://www.w3.org/2000/svg" viewBox="0 0 350 350" style="enable-background:new 0 0 350 350" xml:space="preserve"><switch><g><path style="opacity:.4" d="M45 45h260v260H45z"/><path style="fill:#fbbb3f" d="M277 277h-59.958l-41.959 32.667L132.333 277H73v-28.444l-20.75-5.472a320.895 320.895 0 0 0 7.417-66.972 320.903 320.903 0 0 0-6.889-67.778L73 100.89V73.001h58.408l43.633-30.5 43.736 30.5h58.222v28.556l20.333 6.889a295.293 295.293 0 0 0-7.667 57.444c-1.05 30.618 2.839 56.674 7.333 76.278l-20 6.5C277 258.111 277 267.556 277 277z"/><path style="fill:#fff" d="M302.924 236.606c-4.135-13.89-4.854-18.354-4.854-18.354-2.129-13.225-2.781-23.432-2.833-24.292a311.77 311.77 0 0 1 .016-38.24s1.239-20.031 5.401-35.898c.971-3.703 2.148-6.52 2.986-8.528 1.556-3.726 2.573-5.323 3.542-6.569a21.573 21.573 0 0 1 4.106-4.028 24.697 24.697 0 0 1-5.217 1.389c-4.658.705-8.334-.127-10.792-.708-9.175-2.169-13.763-3.253-17.75-4.667-8.273-2.933-15.325-5.969-22.375-9.25-6.707-3.122-15.338-7.162-26.434-13.49-10.737-6.123-17.478-10.793-28.517-18.44-3.106-2.084-10.625-7.354-16.883-14.319-4.51-5.02-6.358-8.686-7.413-11.439a31.597 31.597 0 0 1-.906-2.729 37.552 37.552 0 0 1-1.014 2.669c-2.448 5.772-5.722 9.605-7.232 11.159-17.396 17.92-50.018 35.424-50.018 35.424A551.849 551.849 0 0 1 96.85 86.444s-26.689 12.954-45.835 15.493c-5.157.684-9.733-.303-9.733-.303a26.13 26.13 0 0 1-2.302-.607c.962.86 2.371 2.227 3.82 4.101 3.792 4.905 5.198 9.843 6.91 17.472 1.906 8.493 2.859 12.74 3.444 17.667 2.207 18.567 1.909 36.467 1.695 44.418 0 0-.936 34.77-8.788 54.135-1.844 4.548-4.907 7.745-4.907 7.745a22.549 22.549 0 0 1-2.44 2.2c.711-.227 1.76-.528 3.051-.776 4.14-.796 7.451-.401 8.927-.214 14.1 1.793 28.851 7.991 28.851 7.992 12.739 5.353 19.109 8.029 27.944 12.444 0 0 46.618 23.296 63.722 45.654 1.63 2.13 2.556 4.457 2.556 4.458a24.208 24.208 0 0 1 1.236 4.637c.092-.463.254-1.21.514-2.111.062-.217 1.06-3.597 3.143-6.934 4.777-7.65 15.505-15.546 20.495-19.092 8.031-5.718 12.046-8.578 17.494-11.973 8.547-5.327 20.314-12.142 36.548-19.888 0 0 24.137-11.518 42.254-14.855 6.635-1.222 12.568-.128 12.568-.128 1.308.241 2.352.519 2.974.697a18.233 18.233 0 0 1-2.024-1.59c-3.924-3.558-5.29-7.951-6.043-10.48zM179 51.325a251.944 251.944 0 0 0 14.259 11.662c14.635 11.105 26.816 17.832 35.575 22.624 21.693 11.868 38.803 18.097 43 19.597a277.276 277.276 0 0 0 14.251 4.663l-25.795 14.006a80.73 80.73 0 0 1-3.833-.613c-9.814-1.813-17.022-5.03-24.104-8.462-10.277-4.98-24.042-11.65-36.186-20.413-3.075-2.219-8.538-6.195-14.814-12.408A118.246 118.246 0 0 1 179 79.584V51.325zm-40.667 121.786a113.794 113.794 0 0 0-1.142-14.566l29.624 16.084-29.607 16.075a113.858 113.858 0 0 0 1.125-17.593zm3.317-21.249a100.938 100.938 0 0 0 16.814-7.606 100.962 100.962 0 0 0 12.537-8.425v31.966l-29.351-15.935zM171 181.461v32.082a91.062 91.062 0 0 0-12.816-8.768 91.055 91.055 0 0 0-16.646-7.318L171 181.461zm12.582-6.832 29.617-16.081a91.211 91.211 0 0 0-1.532 16.674 91.146 91.146 0 0 0 1.317 15.371l-29.402-15.964zm25.164 22.767a90.4 90.4 0 0 0-14.629 6.224 90.502 90.502 0 0 0-15.118 10.156v-32.532l29.747 16.152zM179 168.014v-32.317a87.614 87.614 0 0 0 12.944 8.97 87.528 87.528 0 0 0 16.664 7.271L179 168.014zm-8-44.807a131.358 131.358 0 0 1-17.554 11.948 131.384 131.384 0 0 1-23.389 10.413l-26.78-14.54a201.352 201.352 0 0 0 42.445-19.083A200.855 200.855 0 0 0 171 94.049v29.158zm-45.287 29.105a117.94 117.94 0 0 1 2.121 20.188 117.965 117.965 0 0 1-2.105 24.438l-26.831 14.568c2-11.11 3.523-24.721 3.269-40.256a207.82 207.82 0 0 0-3.278-33.502l26.824 14.564zm4.226 51.443a118.48 118.48 0 0 1 23.144 9.995A118.484 118.484 0 0 1 171 226.182v29.239a212.089 212.089 0 0 0-30.417-20.671 212.31 212.31 0 0 0-37.461-16.435l26.817-14.56zM179 226.375a117.556 117.556 0 0 1 20.75-14.125 117.646 117.646 0 0 1 20.547-8.583l26.711 14.503A205.376 205.376 0 0 0 179 255.472v-29.097zm45.456-29.552a106.73 106.73 0 0 1 .292-44.545l26.866-14.587a189.69 189.69 0 0 0-.458 73.629l-26.7-14.497zm-4.162-51.23a131.335 131.335 0 0 1-23.167-10.254A131.425 131.425 0 0 1 179 123.016V93.984a200.952 200.952 0 0 0 29.229 20.204 201.185 201.185 0 0 0 38.794 16.893l-26.729 14.512zM125.25 83.5A291.145 291.145 0 0 0 171 51.264v28.319a94.765 94.765 0 0 1-8.722 8.472c-3.765 3.215-7.197 5.634-12 8.722-6.542 4.207-16.982 10.863-31.944 17.667-8.456 3.845-13.362 5.466-15.389 6.111a117.85 117.85 0 0 1-12.863 3.307l-26.2-14.225A291.383 291.383 0 0 0 125.25 83.5zm-66.026 32.712s0-.001 0 0l26.394 14.331a106.87 106.87 0 0 1 2.874 9.853c.706 2.938 1.682 7.552 2.462 14.667.551 5.03 1.69 17.583.401 33.875-.714 9.024-1.811 14.609-2.104 16.063a117.993 117.993 0 0 1-3.633 13.716L59.072 233.13a263.544 263.544 0 0 0 6.595-53.685 263.812 263.812 0 0 0-6.443-63.233zM171 298.105a298.069 298.069 0 0 0-49.333-34.216 298.051 298.051 0 0 0-57.594-24.372l25.785-14c2.933.578 7.019 1.497 11.801 2.955 8.442 2.572 14.296 5.372 21.688 8.945 2.269 1.097 11.944 5.816 23.987 13.306 9.039 5.621 12.976 8.799 15.778 11.278a92.555 92.555 0 0 1 7.889 7.875v28.229zM266.25 246c-17.734 6.654-30.391 13.681-41.667 20-9.916 5.557-18.337 10.316-28.917 18.167a217.375 217.375 0 0 0-16.667 13.7v-27.992a84.97 84.97 0 0 1 5.75-6.125c4.95-4.777 9.915-8.401 19.083-13.917 5.963-3.587 18.906-11.105 33.667-17.389 5.678-2.417 10.89-4.339 17.167-5.889 2.335-.576 4.275-.968 5.558-1.209l25.972 14.102A252.033 252.033 0 0 0 266.25 246zm-1.886-27.51a65.256 65.256 0 0 1-2.364-6.74c-1.276-4.399-1.839-8.081-2.399-13.182-.653-5.944-1.337-12.177-1.434-20.985-.02-1.813-.071-8.828.667-18.083 1.147-14.393 3.142-20.906 4-23.5a74.573 74.573 0 0 1 2.073-5.526l25.883-14.053a255.648 255.648 0 0 0-6.678 61.913 255.534 255.534 0 0 0 6.718 54.527l-26.466-14.371z"/><path d="M175 27.042c.186.657.477 1.61.906 2.729 1.055 2.753 2.903 6.419 7.413 11.439 6.258 6.965 13.777 12.236 16.883 14.319 11.039 7.647 17.78 12.317 28.517 18.44 11.096 6.328 19.727 10.369 26.434 13.49 7.05 3.281 14.102 6.317 22.375 9.25 3.987 1.413 8.575 2.498 17.75 4.667 1.788.423 4.221.978 7.208.978 1.118 0 2.315-.078 3.584-.27a24.758 24.758 0 0 0 5.217-1.389 21.573 21.573 0 0 0-4.106 4.028c-.968 1.246-1.986 2.844-3.542 6.569-.838 2.007-2.015 4.825-2.986 8.528-4.161 15.868-5.401 35.898-5.401 35.898a311.77 311.77 0 0 0-.016 38.24c.053.859.704 11.067 2.833 24.292 0 0 .719 4.465 4.854 18.354.753 2.529 2.119 6.922 6.042 10.479.796.722 1.52 1.248 2.024 1.59a31.695 31.695 0 0 0-2.974-.697s-2.443-.451-5.947-.451c-1.956 0-4.244.141-6.621.578-18.116 3.337-42.254 14.855-42.254 14.855-16.233 7.746-28.001 14.561-36.548 19.888-5.448 3.396-9.463 6.255-17.494 11.973-4.99 3.545-15.719 11.442-20.495 19.092-2.084 3.337-3.081 6.717-3.143 6.934-.26.901-.422 1.648-.514 2.111a24.208 24.208 0 0 0-1.236-4.637s-.926-2.327-2.556-4.458c-17.104-22.357-63.722-45.654-63.722-45.654-8.835-4.415-15.205-7.092-27.945-12.444 0 0-14.752-6.198-28.851-7.992a29.506 29.506 0 0 0-3.868-.265 26.685 26.685 0 0 0-8.11 1.255 22.549 22.549 0 0 0 2.44-2.2s3.063-3.198 4.907-7.745c7.852-19.365 8.788-54.135 8.788-54.135.214-7.951.512-25.851-1.695-44.418-.586-4.927-1.539-9.174-3.444-17.667-1.712-7.629-3.118-12.567-6.91-17.472a30.631 30.631 0 0 0-3.82-4.101 26.13 26.13 0 0 0 2.302.607s2.524.544 5.936.544a28.98 28.98 0 0 0 3.797-.241C70.161 99.396 96.85 86.442 96.85 86.442a553.618 553.618 0 0 0 19.887-10.148s32.622-17.504 50.018-35.424c1.509-1.555 4.784-5.387 7.232-11.16A37.754 37.754 0 0 0 175 27.042m-84.919 96.821a117.85 117.85 0 0 0 12.863-3.307c2.027-.645 6.933-2.266 15.389-6.111 14.962-6.804 25.403-13.46 31.944-17.667 4.803-3.088 8.235-5.508 12-8.722a94.765 94.765 0 0 0 8.722-8.472v-28.32a291.277 291.277 0 0 1-45.75 32.236 291.445 291.445 0 0 1-61.368 26.138l26.2 14.225m170.208.014 25.795-14.006a276.957 276.957 0 0 1-14.251-4.663c-4.197-1.5-21.307-7.729-43-19.597-8.758-4.791-20.94-11.519-35.575-22.624a252.305 252.305 0 0 1-14.259-11.662v28.258c.518.544 1.333 1.389 2.353 2.397 6.277 6.213 11.739 10.189 14.814 12.408 12.144 8.763 25.908 15.433 36.186 20.413 7.083 3.432 14.29 6.65 24.104 8.462 1.604.297 2.937.493 3.833.614m-39.995 21.716 26.729-14.513a201.212 201.212 0 0 1-38.794-16.893A200.952 200.952 0 0 1 179 93.983v29.032a131.273 131.273 0 0 0 41.294 22.578m-90.237-.025A131.199 131.199 0 0 0 171 123.207V94.048a200.577 200.577 0 0 1-25.278 17.896 201.33 201.33 0 0 1-42.445 19.083l26.78 14.541M59.071 233.13l26.546-14.413a117.816 117.816 0 0 0 3.632-13.716c.293-1.454 1.389-7.039 2.104-16.063 1.29-16.292.15-28.844-.401-33.875-.779-7.115-1.756-11.729-2.462-14.667a106.87 106.87 0 0 0-2.874-9.853l-26.394-14.33v-.001.001a263.812 263.812 0 0 1 6.443 63.233 263.338 263.338 0 0 1-6.594 53.684m231.758-.27a255.525 255.525 0 0 1-6.718-54.527 255.598 255.598 0 0 1 6.678-61.913l-25.883 14.053a74.747 74.747 0 0 0-2.073 5.526c-.858 2.594-2.853 9.107-4 23.5-.738 9.256-.687 16.27-.667 18.083.097 8.808.781 15.041 1.434 20.985.56 5.101 1.123 8.783 2.399 13.182a64.781 64.781 0 0 0 2.364 6.74l26.466 14.371M179 168.014l29.609-16.076a87.528 87.528 0 0 1-16.664-7.271 87.56 87.56 0 0 1-12.944-8.97v32.317m-8.001-.216v-31.966a100.886 100.886 0 0 1-12.537 8.425 100.853 100.853 0 0 1-16.814 7.605L171 167.798m80.156 43.521a189.802 189.802 0 0 1-3.378-36.708 189.854 189.854 0 0 1 3.836-36.921l-26.866 14.587a106.737 106.737 0 0 0-.292 44.544l26.7 14.498m-152.259.187 26.831-14.568a117.896 117.896 0 0 0 2.105-24.438 117.94 117.94 0 0 0-2.121-20.188l-26.824-14.564a207.831 207.831 0 0 1 3.278 33.502 207.879 207.879 0 0 1-3.269 40.256m38.311-20.801 29.607-16.075-29.624-16.084a113.99 113.99 0 0 1 1.142 14.566 113.876 113.876 0 0 1-1.125 17.593m75.776-.112a91.156 91.156 0 0 1-1.317-15.371 91.211 91.211 0 0 1 1.532-16.674l-29.617 16.081 29.402 15.964M179 213.777a90.4 90.4 0 0 1 15.118-10.156 90.4 90.4 0 0 1 14.629-6.224L179 181.245v32.532m-8-.234v-32.082l-29.461 15.996a91.124 91.124 0 0 1 16.646 7.318A91.022 91.022 0 0 1 171 213.543m8 41.929a205.435 205.435 0 0 1 31.667-21.583 205.556 205.556 0 0 1 36.341-15.719l-26.711-14.503a117.646 117.646 0 0 0-20.547 8.583A117.556 117.556 0 0 0 179 226.375v29.097m-8-.051v-29.239a118.484 118.484 0 0 0-17.917-12.432 118.445 118.445 0 0 0-23.144-9.995l-26.817 14.56a212.236 212.236 0 0 1 37.461 16.435A212.17 212.17 0 0 1 171 255.421m8 42.446a217.375 217.375 0 0 1 16.667-13.7c10.58-7.851 19-12.609 28.917-18.167 11.276-6.319 23.933-13.346 41.667-20a251.901 251.901 0 0 1 19.947-6.552l-25.972-14.102c-1.283.242-3.223.633-5.558 1.209-6.276 1.55-11.489 3.472-17.167 5.889-14.761 6.284-27.704 13.802-33.667 17.389-9.168 5.516-14.133 9.14-19.083 13.917a84.97 84.97 0 0 0-5.75 6.125v27.992m-8.001.238v-28.23a92.555 92.555 0 0 0-7.889-7.875c-2.802-2.478-6.739-5.657-15.778-11.278-12.044-7.489-21.718-12.209-23.987-13.306-7.391-3.573-13.246-6.373-21.688-8.945a120.742 120.742 0 0 0-11.801-2.955l-25.785 14a298.051 298.051 0 0 1 57.594 24.372A298.038 298.038 0 0 1 171 298.105m.976-272.793a38.85 38.85 0 0 1-1.212 3.031s-2.126 5.561-6.521 10.088c-16.776 17.281-48.841 34.605-49.163 34.778a550.511 550.511 0 0 1-19.759 10.083c-.261.127-26.426 12.74-44.767 15.172-1.055.14-2.178.211-3.337.211-2.739 0-4.692-.363-5.206-.467a23.237 23.237 0 0 1-3.189-.889l-2.955 5.222c.605.646 1.499 1.619 2.556 2.834 0 0 .893.968 1.607 1.891 3.196 4.134 4.515 8.307 6.264 16.098 1.877 8.366 2.82 12.565 3.384 17.313 1.544 12.991 2.106 27.765 1.672 43.911-.009.341-1.013 34.368-8.533 52.914-1.553 3.83-4.177 6.625-4.198 6.647-1.202 1.352-2.085 2.293-2.705 2.894l2.863 5.273a28.524 28.524 0 0 1 3.648-.893c2.272-.398 4.003-.416 4.398-.416 1.564 0 2.776.154 3.427.237 13.445 1.71 27.793 7.686 27.937 7.746l.001.001c12.652 5.316 19.003 7.984 27.735 12.348.459.23 46.093 23.195 62.507 44.649 1.219 1.593 1.983 3.383 2.077 3.609.225.54.366 1.093.656 2.086.375 1.279.653 2.344.839 3.082h6a34.99 34.99 0 0 1 .877-2.951s.957-3.18 2.749-6.05c3.127-5.008 9.706-11.095 19.554-18.092 7.966-5.672 11.962-8.518 17.319-11.857 11.161-6.957 23.003-13.4 36.203-19.699.237-.113 23.955-11.362 41.38-14.571a33.212 33.212 0 0 1 5.987-.52c.891 0 2.845.033 5.319.394 1.475.215 2.737.488 3.735.739l2.955-5.222a20.688 20.688 0 0 1-2.761-2.445c-3.13-3.317-4.429-6.839-5.039-8.885-3.973-13.344-4.747-17.876-4.755-17.921-2.084-12.949-2.727-22.853-2.794-23.94a308.928 308.928 0 0 1 .016-37.81c.012-.197 1.269-19.884 5.293-35.227.909-3.467 2.02-6.126 2.83-8.067 1.2-2.873 1.996-4.258 2.621-5.156a25.57 25.57 0 0 1 4.542-4.833l-2.863-5.273a31.42 31.42 0 0 1-5.622 1.244c-.622.079-1.731.23-3.06.23-2.662 0-4.913-.532-6.402-.884-9.04-2.137-13.577-3.209-17.386-4.559-7.146-2.533-13.952-5.347-22.068-9.124-6.322-2.942-14.98-6.972-26.177-13.357-10.604-6.047-17.249-10.651-28.257-18.277l-.043-.03c-4.449-2.985-10.876-7.794-16.229-13.752-4.557-5.072-6.319-9.354-6.748-10.353a35.396 35.396 0 0 1-1.198-3.206l-6.004.001zM72.83 110.514a295.281 295.281 0 0 0 54.151-23.972A295.443 295.443 0 0 0 167.5 58.76v19.46a91.66 91.66 0 0 1-7.495 7.174c-3.823 3.264-7.281 5.649-11.62 8.44-6.158 3.96-16.464 10.587-31.5 17.424-5.779 2.628-10.826 4.634-15.001 5.962a114.934 114.934 0 0 1-11.252 2.959l-17.802-9.665zM182.5 78.17V58.918a256.614 256.614 0 0 0 8.643 6.857c15.141 11.489 27.7 18.36 36.011 22.906 19.61 10.728 35.673 17.024 43.502 19.823 2.15.768 4.32 1.514 6.499 2.233l-17.517 9.511a80.847 80.847 0 0 1-2.545-.426c-9.48-1.751-16.39-4.864-23.214-8.17-10.031-4.861-23.767-11.517-35.664-20.101-2.862-2.065-8.189-5.909-14.4-12.057-.441-.437-.881-.88-1.315-1.324zm0 43.162v-20.063a204.925 204.925 0 0 0 24.002 15.963 205.068 205.068 0 0 0 31.801 14.601l-18.335 9.955a128.236 128.236 0 0 1-21.121-9.497 128.26 128.26 0 0 1-16.347-10.959zm-70.517 10.44a204.963 204.963 0 0 0 35.534-16.823 204.403 204.403 0 0 0 19.982-13.617v20.187a128.28 128.28 0 0 1-15.783 10.593 128.213 128.213 0 0 1-21.335 9.65l-18.398-9.99zm-47.9 94.654a267.539 267.539 0 0 0 5.083-46.914 267.532 267.532 0 0 0-4.954-56.609l18.528 10.06a103.91 103.91 0 0 1 2.348 8.25c.653 2.716 1.61 7.146 2.386 14.23 1.147 10.472 1.282 21.958.391 33.217-.623 7.872-1.549 13.183-2.046 15.648-.814 4.04-1.855 8.07-3.101 11.999l-18.635 10.119zm203.587-93.47 18.072-9.813a259.329 259.329 0 0 0-5.131 55.242 259.51 259.51 0 0 0 5.165 47.749l-18.635-10.118a61.9 61.9 0 0 1-1.78-5.241c-1.216-4.192-1.74-7.659-2.282-12.589-.648-5.902-1.318-12.005-1.413-20.641-.034-3.131.005-9.602.656-17.767.772-9.691 2.062-17.321 3.834-22.679a71.428 71.428 0 0 1 1.514-4.143zM149.956 152.39a104.375 104.375 0 0 0 10.236-5.089 103.888 103.888 0 0 0 7.308-4.564v19.179l-17.544-9.526zm32.544 9.741v-19.327a90.48 90.48 0 0 0 17.633 9.753l-17.633 9.574zm-79.004 42.896a212 212 0 0 0 2.171-33.834 211.905 211.905 0 0 0-2.177-26.965l19.087 10.363a114.796 114.796 0 0 1 1.758 17.973 114.711 114.711 0 0 1-1.744 22.095l-5.239 2.845-13.856 7.523zm124.341-50.444 19.008-10.321a193.698 193.698 0 0 0-2.567 30.329 193.79 193.79 0 0 0 2.208 30.209l-18.916-10.27a103.449 103.449 0 0 1-1.82-19.765c.03-6.761.732-13.543 2.087-20.182zm-86.402 29.844c.316-3.79.45-7.592.398-11.364a117.517 117.517 0 0 0-.406-8.236l18.054 9.802-18.046 9.798zm49.482-9.798 17.806-9.668a94.64 94.64 0 0 0-.556 10.263c.002 2.994.148 6.006.438 9.009l-17.688-9.604zM182.5 206.69v-19.562l17.816 9.673a93.51 93.51 0 0 0-7.848 3.732 93.887 93.887 0 0 0-9.968 6.157zm-32.529-9.829 17.529-9.518v19.17a94.297 94.297 0 0 0-7.594-4.785 94.458 94.458 0 0 0-9.935-4.867zm32.529 31.147a114.293 114.293 0 0 1 18.899-12.671 114.36 114.36 0 0 1 18.537-7.883l18.407 9.994a209.482 209.482 0 0 0-29.369 13.377 209.622 209.622 0 0 0-26.474 17.372v-20.189zm-70.755-10.392 18.555-10.075a115.274 115.274 0 0 1 21.062 9.255 115.359 115.359 0 0 1 16.139 11.031v20.387a216.244 216.244 0 0 0-25.208-16.52 216.624 216.624 0 0 0-30.548-14.078zm70.755 53.561a81.82 81.82 0 0 1 4.68-4.908c4.739-4.573 9.569-8.089 18.457-13.436 7.831-4.711 19.953-11.514 33.233-17.168 6.372-2.713 11.191-4.367 16.635-5.711a97.556 97.556 0 0 1 4.154-.931l17.487 9.495a256.65 256.65 0 0 0-12.127 4.206c-18.345 6.884-31.543 14.28-42.148 20.224-9.419 5.279-18.316 10.265-29.291 18.409a222.198 222.198 0 0 0-11.081 8.787v-18.967h.001zM72.953 238.678 90.41 229.2c3.434.716 6.869 1.596 10.229 2.619 8.355 2.546 14.3 5.42 21.184 8.748 3.449 1.667 12.658 6.284 23.662 13.127 8.741 5.436 12.523 8.464 15.307 10.927a89.23 89.23 0 0 1 6.708 6.598v19.414a302.221 302.221 0 0 0-44.139-29.806 302.245 302.245 0 0 0-50.408-22.149z"/></g></switch></svg>