<svg xmlns="http://www.w3.org/2000/svg" viewBox="0 0 350 350"><switch><g><path d="M290.038,290.038c-31.013,0-62.025,0-93.038,0c-7.333,7.71-14.667,15.419-22,23.129 c-7.335-7.71-14.67-15.419-22.005-23.129c-31.011,0-62.022,0-93.033,0c0-68.013,0-136.025,0-204.038 C76.142,69.944,92.321,53.889,108.5,37.833C116,45.222,123.5,52.611,131,60c29.333,0,58.667,0,88,0 c7.5-7.389,15-14.778,22.5-22.167c16.179,16.028,32.358,32.056,48.538,48.083C290.038,153.957,290.038,221.997,290.038,290.038z" fill="#fff"/><path d="M280.5,280.5c-28.833,0-57.667,0-86.5,0c-6.333,6.5-12.667,13-19,19.5c-6.335-6.5-12.669-13-19.004-19.5 c-28.832,0-57.664,0-86.496,0c0-63.667,0-127.333,0-191c13-12.944,26-25.889,39-38.833c6.167,6.278,12.333,12.556,18.5,18.833 c32,0,64,0,96,0c6.167-6.278,12.333-12.556,18.5-18.833c13,12.944,26,25.889,39,38.833C280.5,153.167,280.5,216.833,280.5,280.5 z"/><path d="M271,271H79c0-58.005,0-116.01,0-174.016c0-1.773,0-3.546,0-5.318 C88.833,82.444,98.667,73.222,108.5,64c4.833,5,9.667,10,14.5,15c34.667,0,69.333,0,104,0c4.833-5,9.667-10,14.5-15 c9.833,9.25,19.667,18.5,29.5,27.75c0,1.85,0,3.701,0,5.551C271,155.201,271,213.1,271,271z" fill="#28c1cd"/><path d="M126.815 117.815c2.9.75 16.694 10.083 20.845 12.613 5.009 3.053 12.901 6.52 25.319 7.912-2.265.338-4.794.588-7.549.659-1.722.045-3.353.015-4.879-.066 3.909.674 8.772 1.161 14.341.923 3.926-.168 7.435-.663 10.442-1.269-.547.315-1.355.747-2.374 1.162-3.185 1.299-5.986 1.451-9.124 1.459-4.691.012-7.487.02-11.745-.618-4.125-.618-9.965-1.893-16.673-4.756 4.59 2.274 10.265 4.474 16.945 5.835 1.858.379 3.653.664 5.374.874-.298.057-.601.112-.907.165-1.047.18-2.065.321-3.049.429 2.823.099 5.783.123 8.868.049 1.875-.045 3.7-.124 5.473-.231-.968-.035-2.042-.128-3.198-.313-.753-.121-1.458-.268-2.11-.429 1.936-.042 4.724-.217 8.011-.841 2.302-.437 7.2-1.541 18.181-7.088 3.528-1.782 8.092-4.23 13.302-7.418-3.298 2.841-7.727 6.147-13.352 9.148-6.061 3.234-11.667 5.131-16.088 6.28 5.499-.82 12.537-2.485 20.143-5.984 14.591-6.711 23.632-16.655 28.253-22.632-35.388 0-70.775 0-106.163 0-.254 1.22-.303 2.579.471 3.429C126.047 117.632 126.664 117.776 126.815 117.815zM79 219.242c4.335 4.046 8.701 8.199 13.093 12.462 3.481 3.378 6.893 6.742 10.236 10.088-.915-.47-1.839-.964-2.769-1.484-4.514-2.521-8.488-5.257-11.967-8.011 4.265 4.826 8.208 7.618 11.063 9.288.029.017 5.96 3.485 10.943 8.564.396.404 1.012 1.048.917 1.166-.33.411-8.909-5.979-12.538-8.682-4.736-3.528-11.239-8.474-18.978-14.687 0 .626 0 1.253 0 1.879 3.369 2.537 6.822 5.285 10.324 8.258 1.97 1.673 3.865 3.34 5.687 4.995-.652-.325-1.312-.67-1.978-1.038-2.998-1.657-5.591-3.477-7.813-5.291 2.958 2.592 5.431 4.643 7.146 6.038 3.005 2.446 4.213 3.314 7.293 5.83 2.821 2.305 4.866 4.075 6.725 5.687 4.866 4.219 10.011 8.13 14.637 12.61.348.337 2.449 2.375 2.819 2.077.366-.295-1.225-2.668-.94-2.868.214-.15 1.256 1.076 3.232 2.997.839.815 1.545 1.463 2.01 1.883-.173-.548-.464-1.351-.94-2.258-1.817-3.466-4.526-5.015-8.06-7.269-1.789-1.141-5.05-3.431-11.571-8.011-2.26-1.587-3.85-2.729-5.835-4.451-2.222-1.927-3.912-3.691-5.044-4.945 2.434 2.042 6.281 4.978 11.522 7.813 2.307 1.248 2.444 1.157 4.549 2.324 5.271 2.923 8.015 5.494 12.956 9.396 2.345 1.852 5.739 4.44 10.038 7.401 3.013 0 6.026 0 9.039 0L79 215.181V219.242zM213.659 271c3.815-2.648 7.208-4.997 10.088-6.989 10.43-7.213 9.497-6.525 10.269-7.088 3.451-2.514 5.459-4.126 5.665-3.9.18.198-1.142 1.676-4.132 4.938-2.999 3.272-5.447 5.907-7.055 7.632 2.165-1.631 3.864-3.015 4.953-3.923 5.531-4.609 9.013-8.305 15.621-13.514 1.755-1.383 2.346-1.782 2.403-1.717.187.211-5.226 5.284-7.681 7.582-4.369 4.089-10.697 9.892-18.857 16.978.593 0 1.187 0 1.78 0 9.116-7.746 11.881-9.882 12.014-9.733.15.169-2.963 3.395-4.498 4.985-1.279 1.325-1.884 1.904-1.846 1.945.1.111 4.528-3.842 9.989-8.473 8.527-7.23 9.735-7.769 16.521-13.465 3.176-2.665 5.105-4.388 6.951-5.425 1.021-.574 1.549-.987 2.604-1.813 1.328-1.04 1.759-1.571 1.677-1.695-.073-.109-.5.172-1.215.113-.336-.028-.608-.12-.791-.198.352-.395.849-.874 1.516-1.319.494-.329.963-.561 1.363-.725 0-.593 0-1.187 0-1.78-.991.657-2.483 1.695-4.198 3.099-2.43 1.99-2.507 2.422-6.824 6.495-3.181 3-3.851 3.438-5.5 5.313-.658.748-1.153 1.363-2.102 2.297-1.48 1.456-2.631 2.278-4.035 3.335-1.237.931-3.026 2.311-5.209 4.121 9.289-9.516 18.579-19.033 27.868-28.549v-14.347L205.202 271H213.659z" fill="#0897ae"/><path fill="#fff" d="M79 95.359L79 192.314 175 287.088 271 192.314 271 95.332 175 176.846z"/><path d="M59.962 126.176l15.961 10.385v23.077c1.942 2.242 4.866 5.506 8.604 9.264 9.961 10.012 14.942 15.019 20.571 17.308 9.418 3.829 18.768 1.773 33.132-1.385 6.392-1.405 11.595-3.114 15.231-4.451-31.166-21.066-62.333-42.132-93.499-63.198V126.176zM98.209 150.802c12.198 7.824 24.396 15.648 36.593 23.473-7.042 8.304-19.154 10.23-28.286 4.615C97.125 173.116 93.468 160.952 98.209 150.802zM175 191.352L175 191.352 175 191.352 175 191.352 175 191.352 162.692 215.484 175 277.857 175 277.857 175 277.857 175 277.857 175 277.857 187.304 215.484zM175 176.846L175 176.846 175 176.846 175 176.846 274.045 92.747 259.807 78.505 175 163.923 90.165 78.505 75.923 92.747 175 176.846zM196.531 180.374c3.635 1.337 8.836 3.045 15.226 4.451 14.359 3.158 23.706 5.214 33.121 1.385 5.628-2.289 10.607-7.295 20.565-17.308 3.737-3.758 6.66-7.022 8.602-9.264V136.56L290 126.176v-9C258.844 138.242 227.688 159.308 196.531 180.374zM243.461 178.89c-9.129 5.614-21.237 3.688-28.276-4.615 12.194-7.824 24.388-15.648 36.581-23.473C256.505 160.952 252.85 173.116 243.461 178.89z"/><path d="M175 287.088L76.714 190.058 76.714 213.242 155.996 280.5 175 300 194.004 280.5 273.286 213.242 273.286 190.058zM119.44 110.121c3.086-.687 7.756-1.905 13.187-4.088 10.491-4.217 12.964-7.689 22.151-11.431 4.497-1.832 11.235-4.576 19.948-4.624 10.689-.058 19.077 3.972 25.286 6.956 8.068 3.877 10.653 6.846 19.918 10.134 4.674 1.659 8.673 2.554 11.335 3.053-.45.365-1.132.904-1.986 1.522-6.712 4.853-13.055 6.599-15.025 7.181-11.812 3.495-10.678 7.216-25.055 12.132-8.075 2.761-12.251 2.965-14.67 2.934-1.619-.021-5.6-.186-13.681-2.934-17.21-5.852-23.894-13.537-31.78-15.033-.838-.159-4.024-.674-6.989-3.033C120.803 111.876 119.947 110.822 119.44 110.121z"/><circle cx="175" cy="111.571" r="17" fill="#fff"/><circle cx="175" cy="111.802" r="8.5" fill="#0496a7"/></g></switch></svg>