<svg xmlns="http://www.w3.org/2000/svg" viewBox="0 0 350 350"><switch><g><path d="M290.038 290.038H197l-22 23.129-22.005-23.129H59.962V86L108.5 37.833 131 60h88l22.5-22.167 48.538 48.083v204.122z" fill="#fff"/><path d="M280.5 280.5H194L175 300l-19.004-19.5H69.5v-191l39-38.833L127 69.5h96l18.5-18.833 39 38.833v191z"/><path d="M271 271H79V96.984v-5.318L108.5 64 123 79h104l14.5-15L271 91.75V271z" fill="#28c1cd"/><path d="M126.815 117.815c2.9.75 16.694 10.083 20.845 12.613 5.009 3.053 12.901 6.52 25.319 7.912a61.95 61.95 0 01-12.428.593 67.428 67.428 0 0014.341.923 67.44 67.44 0 0010.442-1.269c-.547.315-1.355.747-2.374 1.162-3.185 1.299-5.986 1.451-9.124 1.459-4.691.012-7.487.02-11.745-.618-4.125-.618-9.965-1.893-16.673-4.756a69.302 69.302 0 0016.945 5.835c1.858.379 3.653.664 5.374.874a50.542 50.542 0 01-3.956.594 150.234 150.234 0 0014.341-.182 26.244 26.244 0 01-5.308-.742 48.645 48.645 0 008.011-.841c2.302-.437 7.2-1.541 18.181-7.088a187.12 187.12 0 0013.302-7.418 73.383 73.383 0 01-29.44 15.428 74.425 74.425 0 0020.143-5.984c14.591-6.711 23.632-16.655 28.253-22.632H125.101c-.254 1.22-.303 2.579.471 3.429.475.525 1.092.669 1.243.708zM79 219.242a923.824 923.824 0 0123.329 22.55 89.865 89.865 0 01-14.736-9.495c4.265 4.826 8.208 7.618 11.063 9.288.029.017 5.96 3.485 10.943 8.564.396.404 1.012 1.048.917 1.166-.33.411-8.909-5.979-12.538-8.682A661.843 661.843 0 0179 227.946v1.879a226.284 226.284 0 0116.011 13.253 52.523 52.523 0 01-9.791-6.329 255.365 255.365 0 007.146 6.038c3.005 2.446 4.213 3.314 7.293 5.83a278.143 278.143 0 016.725 5.687c4.866 4.219 10.011 8.13 14.637 12.61.348.337 2.449 2.375 2.819 2.077.366-.295-1.225-2.668-.94-2.868.214-.15 1.256 1.076 3.232 2.997a75.943 75.943 0 002.01 1.883 13.83 13.83 0 00-.94-2.258c-1.817-3.466-4.526-5.015-8.06-7.269-1.789-1.141-5.05-3.431-11.571-8.011-2.26-1.587-3.85-2.729-5.835-4.451a57.893 57.893 0 01-5.044-4.945 68.907 68.907 0 0011.522 7.813c2.307 1.248 2.444 1.157 4.549 2.324 5.271 2.923 8.015 5.494 12.956 9.396a190.76 190.76 0 0010.038 7.401h9.039L79 215.181v4.061zM213.659 271c3.815-2.648 7.208-4.997 10.088-6.989 10.43-7.213 9.497-6.525 10.269-7.088 3.451-2.514 5.459-4.126 5.665-3.9.18.198-1.142 1.676-4.132 4.938a1227.622 1227.622 0 01-7.055 7.632 128.28 128.28 0 004.953-3.923c5.531-4.609 9.013-8.305 15.621-13.514 1.755-1.383 2.346-1.782 2.403-1.717.187.211-5.226 5.284-7.681 7.582a679.742 679.742 0 01-18.857 16.978h1.78c9.116-7.746 11.881-9.882 12.014-9.733.15.169-2.963 3.395-4.498 4.985-1.279 1.325-1.884 1.904-1.846 1.945.1.111 4.528-3.842 9.989-8.473 8.527-7.23 9.735-7.769 16.521-13.465 3.176-2.665 5.105-4.388 6.951-5.425 1.021-.574 1.549-.987 2.604-1.813 1.328-1.04 1.759-1.571 1.677-1.695-.073-.109-.5.172-1.215.113a2.563 2.563 0 01-.791-.198 7.797 7.797 0 012.879-2.044v-1.78a51.955 51.955 0 00-4.198 3.099c-2.43 1.99-2.507 2.422-6.824 6.495-3.181 3-3.851 3.438-5.5 5.313-.658.748-1.153 1.363-2.102 2.297-1.48 1.456-2.631 2.278-4.035 3.335a140.572 140.572 0 00-5.209 4.121l27.868-28.549V215.18L205.202 271h8.457z" fill="#0897ae"/><g><path fill="#fff" d="M79 95.359v96.955l96 94.774 96-94.774V95.332l-96 81.514z"/><path d="M59.962 126.176l15.961 10.385v23.077a183.885 183.885 0 008.604 9.264c9.961 10.012 14.942 15.019 20.571 17.308 9.418 3.829 18.768 1.773 33.132-1.385a116.839 116.839 0 0015.231-4.451l-93.499-63.198v9zm38.247 24.626l36.593 23.473c-7.042 8.304-19.154 10.23-28.286 4.615-9.391-5.774-13.048-17.938-8.307-28.088zM175 191.352l-12.308 24.132L175 277.857l12.304-62.373zM175 176.846l99.045-84.099-14.238-14.242L175 163.923 90.165 78.505 75.923 92.747 175 176.846zM196.531 180.374a116.934 116.934 0 0015.226 4.451c14.359 3.158 23.706 5.214 33.121 1.385 5.628-2.289 10.607-7.295 20.565-17.308a184.146 184.146 0 008.602-9.264V136.56L290 126.176v-9l-93.469 63.198zm46.93-1.484c-9.129 5.614-21.237 3.688-28.276-4.615l36.581-23.473c4.739 10.15 1.084 22.314-8.305 28.088z"/><path d="M175 287.088l-98.286-97.03v23.184l79.282 67.258L175 300l19.004-19.5 79.282-67.258v-23.184z"/></g><g><path d="M119.44 110.121a84.802 84.802 0 0013.187-4.088c10.491-4.217 12.964-7.689 22.151-11.431 4.497-1.832 11.235-4.576 19.948-4.624 10.689-.058 19.077 3.972 25.286 6.956 8.068 3.877 10.653 6.846 19.918 10.134a75.5 75.5 0 0011.335 3.053c-.45.365-1.132.904-1.986 1.522-6.712 4.853-13.055 6.599-15.025 7.181-11.812 3.495-10.678 7.216-25.055 12.132-8.075 2.761-12.251 2.965-14.67 2.934-1.619-.021-5.6-.186-13.681-2.934-17.21-5.852-23.894-13.537-31.78-15.033-.838-.159-4.024-.674-6.989-3.033a14.065 14.065 0 01-2.639-2.769z"/><circle cx="175" cy="111.571" r="17" fill="#fff"/><circle cx="175" cy="111.802" r="8.5" fill="#0496a7"/></g></g></switch></svg>