<svg xmlns="http://www.w3.org/2000/svg" viewBox="0 0 350 350" style="enable-background:new 0 0 350 350" xml:space="preserve"><switch><g><path style="fill:#fff" d="M59.872 60h230.256v230H59.872z"/><path style="fill:#891716" d="M78.875 79h192.25v192H78.875z"/><radialGradient id="kapkan-a" cx="175.125" cy="175" r="96" gradientTransform="matrix(1 0 0 1.2 0 -35)" gradientUnits="userSpaceOnUse"><stop offset="0" style="stop-color:#fd6566;stop-opacity:.95"/><stop offset="1" style="stop-color:#891716;stop-opacity:0"/></radialGradient><path style="fill:url(#kapkan-a)" d="M79.125 79h192v192h-192z"/><path style="fill:none;stroke:#f87070;stroke-width:3;stroke-miterlimit:10" d="M278.333 155.333 149 275M75.333 154.667l201-35"/><path style="fill:#df6c6d;stroke:#f87070;stroke-width:3;stroke-miterlimit:10" d="m84.333 76.333 167.667 199"/><g><path style="fill:none;stroke:#000;stroke-width:3;stroke-miterlimit:10" d="M94.761 76.456 272 215.667M91 274 273.718 98.387M76.667 118.667l199.666 118.666M76.667 196.333l198.666-58.666M76 139l136.333 140M109.333 274.667 216 76"/></g><path d="M69.18 69.39v211.4h211.64V69.39H69.18zM271 271H79V79h192v192z"/><g><path d="M106 48.375h137.75v72.75H106z"/><path style="fill:none;stroke:#000;stroke-width:9;stroke-miterlimit:10" d="M237.833 68.25c.54-.05 1.867 0 2.417 0 9.18 0 16.63 7.44 16.63 16.63 0 9.18-7.45 16.62-16.63 16.62-.55 0-2.043.05-2.583 0"/><path style="fill:none;stroke:#fff;stroke-width:2;stroke-miterlimit:10" d="M237.833 68.25c.54-.05 1.867 0 2.417 0 9.18 0 16.63 7.44 16.63 16.63 0 9.18-7.45 16.62-16.63 16.62-.55 0-2.043.05-2.583 0"/><path style="fill:#fff" d="M111.12 53.5h127.5v62.38h-127.5z"/><path d="M116.125 60h117.5v7.25h-117.5zM116.125 95.75h117.5V103h-117.5zM109 82.188h132.109v5.375H109z"/><g><path style="fill:#fff" d="M156.25 51.5h37.5v66.38h-37.5z"/><path d="M191.75 53.5v62.38h-33.5V53.5h33.5m4-4h-41.5v70.38h41.5V49.5z"/></g><g><path style="fill:#fff;stroke:#000;stroke-width:4;stroke-miterlimit:10" d="M168.17 243.17v-66.12c-3.82-2.51-6.38-7.09-6.38-12.34 0-7.94 5.86-14.38 13.09-14.38 7.22 0 13.08 6.44 13.08 14.38 0 5.28-2.59 9.9-6.46 12.39v65.89c.29.463 4.717 7.275 12.75 7.291 4.659.01 10.044-2.268 12.524-6.977 1.137-2.159 1.36-4.254 1.376-5.614h-9.13c10.69-1.25 8.13-37.63 8.13-37.63s15.37 13.13 15.43 39.88c0 0-4.06 23.25-28.37 23.62 0 0-13.31-2-19.19-9.12H175c-5.88 7.12-19.19 9.12-19.19 9.12-24.31-.37-28.37-23.62-28.37-23.62.06-26.75 15.44-39.88 15.44-39.88s-2.57 36.38 8.12 37.63h-9.12c-.013 1.291.153 3.446 1.367 5.605 3.428 6.092 11.749 6.061 12.586 6.046 7.178-.136 11.618-5.305 12.337-6.171z"/><circle cx="175.01" cy="164.5" r="2.49"/><path style="fill:#fff" d="M172.52 114.333h4.98v41h-4.98z"/></g></g></g></switch></svg>