<svg xmlns="http://www.w3.org/2000/svg" xml:space="preserve" style="enable-background:new 0 0 350 350" viewBox="0 0 350 350"><switch><g><path d="M45 45h260v260H45z" style="opacity:.4"/><path d="M73 73h204v204H73z" style="fill:#a62222"/><path d="M252.75 46.955V33H97.25v80.667h155.5V99.653c12.269-2.699 21.306-13.482 21.306-26.347 0-12.867-9.037-23.652-21.306-26.351m0 37.739V62.968c3.929 1.939 6.551 5.777 6.833 10.06.318 4.821-2.381 9.443-6.833 11.666m-74.738 50.084h-6.442l-.579.14c-2.547.616-7.24 2.342-10.059 6.989-1.655 2.729-2.247 5.881-1.919 10.22.453 5.993 2.465 11.92 5.986 17.641v65.043c-.127 1.101-.721 5.054-4.072 7.804-2.334 1.915-4.844 2.293-6.163 2.491-3.565.537-6.339-.419-7.945-.994-1.86-.666-3.958-1.417-5.736-3.486-1.414-1.646-1.994-3.389-2.25-4.431l13.806 2.556-7.645-10.675a22.485 22.485 0 0 1-1.941-3.065c-1.61-3.068-2.09-5.866-2.524-8.452a42.313 42.313 0 0 1-.499-4.345l-.154-33.379-9.125 16.417c-2.27 3.755-7.651 13.254-9.834 24.285-.942 4.762-1.159 9.154-1.249 11.103-.255 5.539.177 8.169.5 9.695a30.356 30.356 0 0 0 1.417 4.75c.712 1.825 2.732 6.84 7.583 11.208 3.168 2.853 6.145 4.171 8.583 5.25 7.622 3.374 14.2 3.381 16.116 3.338 1.703-.038 4.627-.113 8.264-1.158 5.406-1.552 9.574-4.359 12.662-7.238 3.088 2.879 7.256 5.686 12.662 7.238a29.94 29.94 0 0 0 8.264 1.157c6.992 0 12.653-2.356 16.036-3.763 2.162-.9 5.122-2.131 8.295-4.86 4.17-3.585 7.118-8.343 8.762-14.143 1.206-4.254 1.16-7.6 1.106-11.475-.023-1.64-.19-6.004-1.249-11.104-2.033-9.793-6.531-18.257-9.947-23.634l-9.47-17.124.265 20.196c.027 1.293.212 11.279-.803 18.627-.317 2.297-.807 4.734-2.181 7.409a20.194 20.194 0 0 1-1.941 3.065l-8.006 10.654 13.854-2.542c-.233 1.016-.763 2.68-2.083 4.25-1.552 1.845-3.373 2.582-5.229 3.333-1.544.625-3.607 1.46-6.401 1.442-1.451-.009-4.975-.026-8.068-2.599-3.091-2.571-3.874-6.161-4.072-7.804v-65.042c3.52-5.721 5.533-11.648 5.986-17.641.328-4.339-.264-7.491-1.919-10.22-2.819-4.647-7.512-6.374-10.059-6.989z"/><path d="M153.667 53H107.75v-8h45.917v-7H102.25v32h51.417zm94.083-1.673V38h-52.083v7h46.083v8h-46.083v17h52.083V56.37c9.053.651 16.194 7.975 16.194 16.936s-7.141 16.285-16.194 16.936V76.667h-52.083v8.611h46.083v8h-46.083v15.389h52.083V95.281c11.855-.516 21.306-10.156 21.306-21.975 0-11.82-9.451-21.463-21.306-21.979m-94.083 41.951H107.75v-8h45.917v-8.611H102.25v32h51.417z" style="fill:#fff"/><path d="M224.917 230.708c-.012-.838-.091-5.08-1.145-10.157-2.015-9.706-6.623-17.799-9.272-21.968.305 3.887.649 11.167-.501 18.727-.643 4.225-1.546 7.176-3.04 10.023a27.356 27.356 0 0 1-2.375 3.75 15.248 15.248 0 0 0 7.438-1.687c.232 1.188.439 2.882.271 4.896-.079.938-.517 5.265-3.375 9.083-5.256 7.022-14.632 6.899-16.376 6.835-2.206-.081-6.874-.251-11.083-3.751-5-4.159-5.738-10.012-5.875-11.375v-66.771c2.658-4.034 5.486-9.767 6-16.562.291-3.852-.331-5.803-1.208-7.25-2.036-3.357-5.7-4.418-6.958-4.722h-.167v-31.111h13.417V38h-32.001v70.667h13.583v31.111h-.083c-1.258.304-4.922 1.365-6.958 4.722-.878 1.447-1.5 3.398-1.208 7.25.514 6.795 3.342 12.528 6 16.562v66.771c-.137 1.363-.875 7.216-5.875 11.375-4.208 3.5-8.877 3.671-11.083 3.751-1.744.064-11.12.188-16.376-6.835-2.858-3.819-3.296-8.145-3.375-9.083a17.784 17.784 0 0 1 .271-4.896 15.248 15.248 0 0 0 7.438 1.687 27.453 27.453 0 0 1-2.375-3.75c-1.494-2.847-2.397-5.797-3.04-10.023-1.151-7.56-.806-14.84-.501-18.727-2.649 4.169-7.257 12.262-9.272 21.968-1.054 5.077-1.133 9.319-1.145 10.157-.051 3.664-.09 6.49.917 10.042.538 1.899 2.171 7.382 7.212 11.716 2.518 2.165 4.864 3.164 6.955 4.034 4.25 1.768 12.01 4.998 21 2.417 7.554-2.169 12.109-7.324 14.042-9.865 1.933 2.541 6.488 7.696 14.042 9.865 8.99 2.581 16.75-.648 21-2.417 2.091-.87 4.437-1.869 6.955-4.034 5.041-4.334 6.673-9.817 7.212-11.716 1.004-3.55.965-6.377.914-10.041m-48.278-74.569a42.09 42.09 0 0 1-1.875 6.236 36.199 36.199 0 0 1-1.618-4.799c-.118-.451-.261-1.118-.548-2.451-.656-3.048-1.018-5.1-.303-6.305.071-.12.222-.368.51-.58.169-.125.609-.401 1.945-.345.988.042 1.482.063 1.835.267 1.588.916.594 5.49.054 7.977" style="fill:#fff"/></g></switch></svg>