<svg xmlns="http://www.w3.org/2000/svg" viewBox="0 0 350 350"><switch><g><path fill="#fff" d="M59.872 60H290.128V290H59.872z"/><path fill="#891716" d="M78.875 79H271.125V271H78.875z"/><radialGradient id="a" cx="175.125" cy="175" r="96" gradientTransform="matrix(1 0 0 1.2 0 -35)" gradientUnits="userSpaceOnUse"><stop offset="0" stop-color="#fd6566" stop-opacity=".95"/><stop offset="1" stop-color="#891716" stop-opacity="0"/></radialGradient><path fill="url(#a)" d="M79.125 79H271.125V271H79.125z"/><g stroke="#f87070" stroke-width="3" stroke-miterlimit="10"><path fill="none" d="M278.333 155.333L149 275M75.333 154.667L276.333 119.667"/><path fill="#df6c6d" d="M84.333 76.333L252 275.333"/></g><path d="M94.761 76.456L272 215.667M91 274L273.718 98.387M76.667 118.667L276.333 237.333M76.667 196.333L275.333 137.667M76 139L212.333 279M109.333 274.667L216 76" fill="none" stroke="#000" stroke-width="3" stroke-miterlimit="10"/><path d="M69.18,69.39v211.4h211.64V69.39H69.18z M271,271H79V79h192V271z"/><path d="M106 48.375H243.75V121.125H106z"/><path d="M237.833,68.25c0.54-0.05,1.867,0,2.417,0 c9.18,0,16.63,7.44,16.63,16.63c0,9.18-7.45,16.62-16.63,16.62c-0.55,0-2.043,0.05-2.583,0" fill="none" stroke="#000" stroke-width="9" stroke-miterlimit="10"/><path d="M237.833,68.25c0.54-0.05,1.867,0,2.417,0 c9.18,0,16.63,7.44,16.63,16.63c0,9.18-7.45,16.62-16.63,16.62c-0.55,0-2.043,0.05-2.583,0" fill="none" stroke="#fff" stroke-width="2" stroke-miterlimit="10"/><path fill="#fff" d="M111.12 53.5H238.62V115.88H111.12z"/><path d="M116.125 60H233.625V67.25H116.125zM116.125 95.75H233.625V103H116.125zM109 82.188H241.109V87.563H109z"/><path fill="#fff" d="M156.25 51.5H193.75V117.88H156.25z"/><path d="M191.75,53.5v62.38h-33.5V53.5H191.75 M195.75,49.5h-4h-33.5h-4v4v62.38v4h4h33.5h4v-4V53.5V49.5L195.75,49.5z"/><path d="M168.17,243.17c0-22.04,0-44.08,0-66.12 c-3.82-2.51-6.38-7.09-6.38-12.34c0-7.94,5.86-14.38,13.09-14.38c7.22,0,13.08,6.44,13.08,14.38c0,5.28-2.59,9.9-6.46,12.39 v65.89c0.29,0.463,4.717,7.275,12.75,7.291c4.659,0.01,10.044-2.268,12.524-6.977c1.137-2.159,1.36-4.254,1.376-5.614h-9.13 c10.69-1.25,8.13-37.63,8.13-37.63s15.37,13.13,15.43,39.88c0,0-4.06,23.25-28.37,23.62c0,0-13.31-2-19.19-9.12H175 c-5.88,7.12-19.19,9.12-19.19,9.12c-24.31-0.37-28.37-23.62-28.37-23.62c0.06-26.75,15.44-39.88,15.44-39.88 s-2.57,36.38,8.12,37.63h-9.12c-0.013,1.291,0.153,3.446,1.367,5.605c3.428,6.092,11.749,6.061,12.586,6.046 C163.011,249.205,167.451,244.036,168.17,243.17z" fill="#fff" stroke="#000" stroke-width="4" stroke-miterlimit="10"/><circle cx="175.01" cy="164.5" r="2.49"/><path fill="#fff" d="M172.52 114.333H177.5V155.333H172.52z"/></g></switch></svg>