<svg xmlns="http://www.w3.org/2000/svg" xml:space="preserve" style="enable-background:new 0 0 350 350" viewBox="0 0 350 350"><switch><g><path d="M315.227 311.494 254.777 305H45V45h260v75.938l32.167-2.826-28.444 49.472 22.686 35.079L291.21 236z" style="opacity:.4"/><path d="M282.5 284.083 231.203 277H73V73h204v71.477l24.361-5.977-23.931 30.542 21.611 29.5-34.764 28.597z" style="fill:#fea52f"/><path d="m222.969 168.814 78.392-30.314-53.917 48.833 51.597 11.208-56.833 11.917 40.292 73.625-82.222-71.528z" style="fill:#fff"/><path d="M154.167 30.333A297.309 297.309 0 0 0 97.723 47 295.59 295.59 0 0 0 73 58.417v220.028l35.458 2.431 27.625-22.083 50.875 7.083-9.998 11.541a49.084 49.084 0 0 0 12.716 1.108c18.029-.799 30.22-11.501 33.657-14.607 3.162-2.858 7.811-7.7 11.889-15l-7.083-7.139a23.303 23.303 0 0 0 1.587-2.126c6.385-9.662 3.985-21.814 2.233-27.944-2.266 2.987-5.774 6.82-10.895 10.094a41.452 41.452 0 0 1-6.147 3.239 62.656 62.656 0 0 1-.333-2.708s-.34-3.367-.315-7c.127-18.142 6.983-33.984 6.983-33.984 2.858-6.604 6.177-14.062 13.709-21.066a50.106 50.106 0 0 1 6.956-5.408 25.343 25.343 0 0 1 4.427 4.587c3.429 4.608 4.471 9.36 5.157 12.649.431 2.068.626 3.797.722 4.944a22 22 0 0 0 4.667-3.667c3.296-3.408 4.586-6.989 5.5-9.611 1.773-5.088 2-9.737 1.819-13.111l6.292-8.167-7.75-11.083 11.417-20.875a302.6 302.6 0 0 0-52.055-15.541l-4.333-13.556-23.611-3.667a399.71 399.71 0 0 0-32.612-41 30.02 30.02 0 0 0-7.39-6.445"/><path d="m240.333 120 17.028 4.306 4.667-9.167-47.736-13.472-2.959-10.167-25.583-4.417a190.856 190.856 0 0 0-36.166-43.666 525.509 525.509 0 0 0-22.861 6.861c-11.078 3.603-21.191 6.922-33.667 12.444A262.4 262.4 0 0 0 73 72.639v10.556a108.365 108.365 0 0 1 43.199-12.488c4.906-.354 11.494-.49 19.259.336-20.893 6.897-36.584 12.531-43.597 15.264-3.219 1.255-7.369 2.973-12.306 5.722a92.843 92.843 0 0 0-6.556 4.014V134.5l32.25-17.333L73 158.5v101.056a52.011 52.011 0 0 0 15.917-5.472 2910.847 2910.847 0 0 0 75.417-120.528l-40.688 103.215a182.875 182.875 0 0 0 21.632 8.396c3.247 1.029 18.5 5.761 39.889 8 6.4.67 14.624 1.25 24.25 1.208a85.62 85.62 0 0 1-9 12.479 47.92 47.92 0 0 0 10.493-5.543s4.381-3.069 9.653-9.687c.316-.396.843-1.108 1.125-2.146a5.603 5.603 0 0 0 .188-1.688c-3.766-2.93-22.281-17.737-27.535-37.338-1.643-6.131-2.007-12.454-2.007-12.454-.671-11.653 2.154-20.356 2.917-22.583 2.657-7.756 6.533-13.535 9.625-17.354l-47.514 36.882 27.361-51.556 36.889-3.444a25.798 25.798 0 0 0-5.327 10.74c-.486 2.126-1.329 7.068.382 12.899a25.468 25.468 0 0 0 2.833 6.306c1.117-3.367 3.305-8.508 7.727-13.534.901-1.025 2.374-2.682 4.648-4.438 1.204-.93 5.08-3.778 15.667-6.583a103.416 103.416 0 0 1 13.597-2.639A174.717 174.717 0 0 0 240.333 120m-67.75-10.667 14.125-15.542 33.208 17.958z" style="fill:#fea52f"/><path d="M184.444 100.736c.386.004.978.02 1.696.075 2.971.229 5.135.913 6.225 1.249 2.71.834 6.633 1.921 11.645 3.305-.346.458-2.553 3.354-4.438 4.781 0 0-1.25.947-2.062.771-.452-.098-.917-.323-.917-.323a4.03 4.03 0 0 1-.34-.184 57.508 57.508 0 0 1-11.809-9.674m63.473 50.972a21.302 21.302 0 0 1 2.906-1.042 21.693 21.693 0 0 1 7.552-.708c.415 1.734.971 4.808.542 8.125-.24 1.855-.772 3.665-.944 4.25a22.562 22.562 0 0 1-.917 2.556c-.747 1.745-1.179 2.752-1.625 2.722-.626-.042-.636-2.085-1.708-5.194-.522-1.512-1.022-2.487-2.021-4.434a54.1 54.1 0 0 0-3.785-6.275m-19.229 68.75c.158 1.965.188 5.782-1.688 9.979a20.237 20.237 0 0 1-3.979 5.854 11.8 11.8 0 0 1-2.5-1.208c-2.726-1.744-4.059-4.202-4.646-5.521a32.439 32.439 0 0 0 4.833-2.375 32.85 32.85 0 0 0 7.98-6.729" style="fill:#fff"/></g></switch></svg>