<svg xmlns="http://www.w3.org/2000/svg" viewBox="0 0 350 350"><switch><g><path fill="#fff" d="M60.008 59.919H290.08299999999997V289.99399999999997H60.008z"/><path fill="#231f20" d="M69.502 69.966H280.896V281.36H69.502z"/><path fill="#666e24" d="M78.351 79.307H271.06399999999996V272.02H78.351z"/><g fill="#231f20"><path d="M90.805 167.388c-.15-.778-.3-1.557-.451-2.335-1.255.086-2.615.251-4.056.533-3.974.775-7.212 2.167-9.627 3.482 3.384-.401 5.981-.707 7.62-.86 1.195-.112 1.889-.143 2.827-.533C87.744 167.414 90.309 167.168 90.805 167.388zM92.567 166.118L94.41 165.421 94.697 166.732zM80.604 200.367L77.491 202.538 77.9 201.719zM86.422 215.033c-.123.082-1.393 1.475-1.393 1.475l1.434-.942L86.422 215.033zM97.688 219.826L96.213 220.277 97.77 220.646zM76.507 234.739c.716-.118 1.81-.268 3.155-.328 2.275-.102 2.98.156 4.261-.246.976-.306 1.114-.627 2.909-1.844 1.906-1.292 3.45-2.082 4.425-2.581 2.199-1.126 3.514-1.783 5.408-1.966.995-.097 1.825-.031 2.376.041 1.393-1.202 2.786-2.403 4.179-3.605l2.376 6.022c-.719-.217-1.889-.469-3.318-.328-2.027.2-3.467 1.081-4.138 1.557-1.52-.054-2.731.103-3.523.246-3.492.628-6.895 2.425-8.562 3.974-.173.16-.611.582-1.311.983-.996.571-1.958.776-2.622.86-1.426-.135-2.497.055-3.195.246-.842.23-2.096.722-2.091.737 0 0 .002 0 .002 0C76.87 238.503 76.808 237.637 76.507 234.739z"/><path d="M77.286 239.45c1.134-.46 1.978-.771 2.581-.983.362-.127.783-.271 1.188-.655.397-.377.594-.811.696-1.106.341.164.683.328 1.024.492-.428.611-.872 1.018-1.188 1.27-.397.317-1.083.863-2.089 1.106-.73.176-1.151.078-1.516.451-.269.274-.346.638-.369.901C77.504 240.433 77.395 239.942 77.286 239.45zM82.448 239.204L83.226 239.368 83.431 238.508zM86.094 237.525L86.176 236.582 86.749 236.992zM94.533 241.089L96.172 240.433 96.131 240.843 95.639 241.294zM99.941 246.865L101.047 245.636 101.334 246.292zM96.909 249.528c0-.123 1.393-1.721 1.393-1.721l.123.819L96.909 249.528zM96.254 250.347L95.271 250.757 96.008 250.02zM90.969 254.035L90.068 254.116 90.109 254.772zM77.245 247.316c.159-.124.336-.248.533-.369.61-.373 1.2-.579 1.68-.696-.001.226-.032.713-.328 1.229-.271.474-.631.74-.819.86 1.175-.685 2.1-1.307 2.745-1.762.82-.578 2.459-1.783 4.22-2.212.277-.067.74-.16.983.082.318.316.082 1.025 0 1.27-.523 1.566-1.994 2.453-4.425 4.261-.536.399-1.35 1.014-2.335 1.803.15.341.3.683.451 1.024-.494.67-1.28 1.52-2.458 2.13-.253.131-.5.239-.737.328C76.917 252.614 77.081 249.965 77.245 247.316z"/><path d="M75.975 263.211c.435-.388 1.076-.939 1.885-1.557 1.002-.766 3.796-2.808 8.767-4.875 4.228-1.758 4.756-1.34 6.678-2.786 1.682-1.265 1.553-1.792 3.728-3.523 2.688-2.139 3.305-1.669 5.203-3.441 1.877-1.752 1.717-2.625 3.646-4.547 1.55-1.544 3.141-2.462 4.22-2.991 3.824 7.961 7.647 15.923 11.471 23.884-.696.07-1.699.212-2.868.533-1.956.536-2.639 1.094-6.391 3.155-3.776 2.074-4.693 2.392-5.981 3.81-.798.878-1.32 1.718-1.639 2.294-2.403-.109-4.807-.218-7.21-.328l6.924-7.538-15.404 7.497h-6.965c.444-.59.934-1.194 1.475-1.803 1.668-1.878 3.394-3.322 4.957-4.425-1.518.299-3.808.945-6.227 2.458-1.816 1.136-3.129 2.4-4.015 3.4-1.243-.137-2.485-.273-3.728-.41L75.975 263.211zM108.093 211.858L108.831 215.422 106.711 218.28 104.406 215.699zM105.697 211.766c.449-.412.989-.856 1.628-1.29.82-.557 1.6-.963 2.274-1.26.102.287.205.574.307.86-.522.42-1.045.84-1.567 1.26-.286.005-.595.023-.922.061C106.759 211.474 106.181 211.613 105.697 211.766zM103.515 199.23l-1.506.215c.291.417.709.924 1.29 1.413.941.792 1.892 1.184 2.52 1.383C105.052 201.237 104.283 200.234 103.515 199.23zM258.159 83.486c.409-.327 1.091-.083 1.459.24.294.258.404.58.446.743-.009.101-.055.485-.377.784-.449.417-1.04.302-1.099.289-.095-.059-.581-.375-.694-.983C257.879 84.478 257.754 83.808 258.159 83.486zM262 97.977c.667.016 1.027.711 1.041.74-.02.131-.077.385-.266.636-.252.335-.581.458-.706.497-.135-.047-.582-.222-.81-.682-.069-.14-.241-.487-.081-.798C261.384 97.97 261.957 97.975 262 97.977zM265.818 96.311c-.016.048-.148.468.116.856.24.353.623.409.682.416.162-.004.309-.092.382-.231.091-.175.022-.346.012-.37-.032-.094-.124-.324-.359-.497C266.292 96.219 265.885 96.297 265.818 96.311zM258.876 102.536c-.066.226-.138.571-.102.983.029.338.1.36.369 1.27.152.514.186.697.348 1.168.081.233.154.424.205.553.055-.054.144-.155.205-.307.066-.165.067-.31.061-.389-.05-.467-.153-1.051-.369-1.7C259.378 103.467 259.113 102.939 258.876 102.536zM253.242 111.323c2.663.225 5.326.451 7.989.676.103-.332.225-.682.369-1.045.233-.588.486-1.114.737-1.577.512-.057 1.279-.09 2.171.082 1.544.298 2.434 1.012 3.953 1.905.857.504 2.107 1.178 3.728 1.844.137 8.446.273 16.892.41 25.339-4.793.348-9.586.696-14.38 1.045C256.561 130.168 254.902 120.746 253.242 111.323zM264.242 107.124L264.324 108.046 264.652 107.472z"/></g><path d="M175.527,54.808c-6.99-0.233-18.939,0.301-32.119,5.981c-8.738,3.766-14.503,8.278-17.698,10.816 c-4.765,3.783-18.577,15.029-26.137,34.659c-3.165,8.218-4.109,14.982-5.162,22.532c-1.491,10.688-1.283,18.577-1.065,26.875 c0,0,0.428,16.27,5.654,37.445c0.164,0.664,0.423,1.514,0.901,2.458c0.734,1.45,1.599,2.36,2.458,3.277 c1.269,1.354,2.444,2.798,3.769,4.097c1.755,1.721,4.471,4.515,8.849,9.341c0.3,1.229,0.601,2.458,0.901,3.687 c-0.194,0.018-2.124,0.232-3.032,1.885c-0.461,0.84-0.445,1.662-0.41,2.048c-7.265-4.862-14.53-9.723-21.795-14.585 c11.039,24.533,19.016,42.259,20.73,46.13c0.303,0.684,1.235,2.799,2.622,5.572c1.009,2.016,1.885,3.634,2.458,4.67 c2.758,3.834,5.517,7.685,8.276,11.553c1.599,2.242,3.199,4.49,4.798,6.744c2.909,4.314,5.871,8.648,8.885,13.002 c5.817,8.4,11.638,16.593,17.452,24.581c1.584-14.339,3.168-28.677,4.752-43.016c10.269,0,20.539,0,30.808,0l4.261,42.688 c15.103-21.221,30.207-42.443,45.31-63.664c4.844-13.677,27.623-80.27,15.65-131.425c-1.784-7.621-5.097-21.153-15.486-34.987 c-3.769-5.019-16.865-21.954-40.804-29.169C190.298,54.973,181.478,54.607,175.527,54.808z" fill="#231f20"/><path d="M178.148,117.284c-0.215,4.089-0.337,7.539-0.41,10.078c0.002,0.011,0.005,0.023,0.007,0.034 c0.144-4.014,0.287-7.64,0.45-11.011C178.18,116.686,178.164,116.994,178.148,117.284z" fill="none"/><path d="M174.154 135.781c-.731-21.264-1.037-31.605-3.257-46.335-1.618-10.74-3.598-19.459-5.039-25.216-3.822.272-9.359 1.06-15.568 3.441-9.843 3.776-15.888 9.453-20.73 14.093-4.178 4.004-14.329 13.952-20.238 30.398-3.267 9.092-3.928 16.53-4.506 23.024-.905 10.165-.207 18.146.655 28.022.296 3.389.096.203 2.458 17.452.616 4.498 1.062 7.872 3.114 11.881 1.303 2.546 2.94 4.735 4.179 6.391 2.872 3.84 5.379 6.342 5.817 6.801 2.846 2.982 5.4 10.934 3.851 33.02-4.534-3.059-9.068-6.118-13.601-9.177 3.687 8.357 7.374 16.715 11.061 25.072 9.054 12.079 18.108 24.157 27.162 36.236 1.925-22.88 3.851-45.761 5.776-68.642-1.628-3.798-4.472-8.914-9.423-13.56-2.309-2.167-5.502-5.101-10.652-6.883-3.38-1.169-6.384-1.42-8.439-1.434-4.138-16.879-8.276-33.757-12.413-50.636l16.899 14.503 29.804 5.961v26.056l13.458 5.715c.417-.153.834-.307 1.251-.46l.048-19.4C175.014 160.524 174.461 144.693 174.154 135.781zM179.296 101.307c-.598 5.929-.884 11.007-1.099 15.078-.164 3.371-.307 6.997-.45 11.011 1.882 8.851 3.764 17.703 5.646 26.554.24 1.142 1.342 5.728 5.695 8.767 2.744 1.916 5.51 2.329 6.883 2.438 2.509-.201 5.607-.694 9.013-1.823 6.113-2.027 10.49-5.198 13.151-7.497 1.073-1.297 2.921-3.567 5.121-6.473 7.219-9.534 8.346-12.859 14.38-20.033.922-1.097 3.405-4.002 6.637-7.538.131-.143.249-.271.377-.41-2.404-10.463-6.135-17.687-7.075-19.46-1.381-2.606-5.044-9.149-11.553-16.223-4.236-4.605-10.625-11.414-21.201-16.285-7.111-3.275-13.744-4.581-18.823-5.093-1.532 5.795-2.68 11.016-3.545 15.479C181.638 83.989 180.267 91.674 179.296 101.307z" fill="#fff"/><path d="M180.852 88.893c-1.477 9.406-2.162 17.296-2.656 27.492.215-4.071.502-9.149 1.099-15.078.971-9.633 2.343-17.318 3.155-21.508.865-4.463 2.013-9.683 3.545-15.479-.02-.002-.043-.005-.063-.007C184.429 70.146 182.469 78.594 180.852 88.893zM190.521 170.542c9.784-2.001 19.569-4.001 29.353-6.002l17.145-14.625-7.989 34.229 9.279-7.866-11 14.871-1.782 6.883 7.128-2.274-31.709 25.81 7.62-.737-12.106 8.296c-.15.857-.331 2.082-.43 3.564-.139 2.069-.056 3.686 0 4.547.335 5.136 1.732 14.265 1.844 14.994 1.23 8.06.719 7.912 1.905 15.117.765 4.648 1.586 8.402 2.151 10.815-.328.041-.655.082-.983.123l1.045 9.771 27.53-34.106-3.257-34.229c-.018-1.562.08-3.761.615-6.33.171-.824.468-2.25 1.045-3.749 1.331-3.459 3.202-4.833 6.575-8.91 1.02-1.234 2.481-3.08 4.117-5.469.623-.741 1.483-1.875 2.274-3.38 1.834-3.489 2.077-6.65 2.212-8.112.9-9.748 3.128-10.669 3.81-21.692.156-2.513.126-4.823.061-9.341-.191-13.327-.287-19.99-1.29-26.117-.299-1.828-.653-3.573-1.037-5.244-.128.139-.246.266-.377.41-3.232 3.536-5.714 6.441-6.637 7.538-6.034 7.174-7.161 10.499-14.38 20.033-2.2 2.906-4.048 5.176-5.121 6.473-2.66 2.299-7.037 5.471-13.151 7.497-3.406 1.129-6.504 1.622-9.013 1.823-1.373-.108-4.138-.521-6.883-2.438-4.352-3.039-5.454-7.625-5.695-8.767-1.882-8.851-3.764-17.703-5.646-26.554-.089 2.492-.179 5.129-.273 7.955-.842 25.05-1.377 41.403-1.598 48.178-.018-.483-.035-.947-.053-1.425l-.048 19.4c4.929-1.813 9.859-3.626 14.788-5.439C190.548 187.557 190.534 179.05 190.521 170.542z" fill="#fff"/><path d="M190.521,170.542c9.784-2.001,19.569-4.001,29.353-6.002l17.145-14.625 l-7.989,34.229l9.279-7.866l-11,14.871l-1.782,6.883l7.128-2.274l-31.709,25.81l7.62-0.737l-12.106,8.296 c-0.15,0.857-0.331,2.082-0.43,3.564c-0.139,2.069-0.056,3.686,0,4.547c0.335,5.136,1.732,14.265,1.844,14.994 c1.23,8.06,0.719,7.912,1.905,15.117c0.765,4.648,1.586,8.402,2.151,10.815c-0.328,0.041-0.655,0.082-0.983,0.123l1.045,9.771 l27.53-34.106l-3.257-34.229c-0.018-1.562,0.08-3.761,0.615-6.33c0.171-0.824,0.468-2.25,1.045-3.749 c1.331-3.459,3.202-4.833,6.575-8.91c1.02-1.234,2.481-3.08,4.117-5.469c0.623-0.741,1.483-1.875,2.274-3.38 c1.834-3.489,2.077-6.65,2.212-8.112c0.9-9.748,3.128-10.669,3.81-21.692c0.156-2.513,0.126-4.823,0.061-9.341 c-0.191-13.327-0.287-19.99-1.29-26.117c-0.299-1.828-0.653-3.573-1.037-5.244c-0.128,0.139-0.246,0.266-0.377,0.41 c-3.232,3.536-5.714,6.441-6.637,7.538c-6.034,7.174-7.161,10.499-14.38,20.033c-2.2,2.906-4.048,5.176-5.121,6.473 c-2.66,2.299-7.037,5.471-13.151,7.497c-3.406,1.129-6.504,1.622-9.013,1.823c-1.373-0.108-4.138-0.521-6.883-2.438 c-4.352-3.039-5.454-7.625-5.695-8.767c-1.882-8.851-3.764-17.703-5.646-26.554c-0.089,2.492-0.179,5.129-0.273,7.955 c-0.842,25.05-1.377,41.403-1.598,48.178c-0.018-0.483-0.035-0.947-0.053-1.425l-0.048,19.4 c4.929-1.813,9.859-3.626,14.788-5.439C190.548,187.557,190.534,179.05,190.521,170.542z" opacity=".25" fill="#848414"/><path d="M247.999,199.814c1.516,2.083,3.032,4.165,4.547,6.248l-14.011,24.007l-3.523-12.864 c0.457-1.564,0.915-3.127,1.372-4.691c2.124-1.488,4.247-2.977,6.371-4.465c-0.942,0.157-1.885,0.314-2.827,0.471 C242.618,205.617,245.308,202.716,247.999,199.814z" fill="#727929"/><path d="M176.797,261.573c3.976-2.696,7.348-4.876,9.832-6.452c9.005-5.715,12.261-7.256,14.564-8.235 c3.094-1.315,5.722-2.149,7.436-2.642c0.089-0.719,0.445-2.842,2.212-4.732c1.757-1.879,3.835-2.38,4.547-2.52 c-0.287-1.762-0.574-3.523-0.86-5.285c0.77-0.118,1.802-0.412,2.581-1.229c0.721-0.756,0.753-1.466,1.352-2.642 c0.383-0.752,0.817-1.339,2.212-2.827c3.518-3.751,5.277-5.627,7.313-6.698c1.152-0.606,3.01-1.397,5.592-1.721 c0.615,0.061,1.229,0.123,1.844,0.184c0.927,0.394,2.131,1.044,3.257,2.151c1.185,1.165,1.276,1.843,1.782,1.844 c0.856,0,1.52-1.945,3.933-9.341c0.746-2.287,1.129-3.469,2.212-4.793c1.276-1.561,2.81-2.443,3.933-2.95 c0.063-0.863,0.077-2.107-0.184-3.564c-0.351-1.955-1.031-3.356-1.352-3.994c-1.905-3.794-4.975-8.267-6.145-10.078 c-3.188-4.936-5.562-8.609-5.285-13.212c0.189-3.143,1.535-5.412,3.318-8.419c2.251-3.795,3.966-4.864,8.112-9.771 c1.522-1.801,3.576-4.361,5.838-7.62c0.146-1.755,0.575-4.484,1.966-7.497c0.894-1.937,2.902-6.286,7.743-8.972 c3.478-1.93,6.875-2.145,8.849-2.089c31.384,27.338,36.633,38.139,34.167,42.525c-1.096,1.949-5.175,5.228-9.095,4.793 c-1.28-0.142-3.352-1.283-7.497-3.564c-4.047-2.227-4.469-2.704-5.776-2.704c-2.934,0-3.705,2.403-6.883,2.95 c-3.088,0.532-5.774-1.15-6.883-1.844c-7.455-4.666-7.036-17.343-7.866-17.329c-0.756,0.012-1.589,10.544-2.089,53.094 c4.121-8.755,11.13-12.425,15.117-10.693c2.674,1.162,4.802,5.106,3.933,8.235c-1.379,4.959-9.211,3.974-13.028,9.586 c-1.761,2.589-2.917,6.95-0.492,14.748c1.6-1.554,2.851-2.757,3.564-3.441c2.59-2.485,3.99-3.796,5.408-5.961 c0.98-1.496,1.467-2.262,1.352-3.134c-0.247-1.864-2.532-2.534-2.581-4.425c-0.02-0.784,0.352-1.44,0.684-1.883 c0.76-0.86,1.951-1.895,3.31-1.804c2.958,0.198,4.544,5.582,4.855,6.637c2.105,7.146-0.847,14.054-3.441,19.91 c-1.243,2.807-3.254,6.754-6.452,11.123c-0.362,6.207-0.724,12.413-1.086,18.62c-2.243,1.467-5.99,3.404-10.856,3.728 c-6.533,0.436-11.634-2.263-14.093-3.564c-1.458-0.771-2.609-1.53-3.4-2.089c-2.746,1.432-4.989,1.307-5.94,1.188 c-2.353-0.295-4.058-1.467-5.858-2.704c-1.298-0.892-2.363-1.834-3.81-3.114c-1.883-1.665-2.718-2.6-4.384-3.032 c-0.4-0.104-1.287-0.325-2.376-0.164c-2.407,0.355-3.18,2.189-5.08,3.195c-1.191,0.631-3.167,1.118-6.473,0.082 c-2.242-1.505-3.902-1.633-4.998-1.475c-0.745,0.107-1.061,0.322-3.769,1.311c0,0-0.433,0.158-3.032,1.065 c-3.34,1.166-7.668,1.576-11.963,2.048C184.413,260.624,181.045,261.011,176.797,261.573z" fill="#708035"/><path fill="#2f2b2c" d="M246.565 245.718L245.336 245.226 247.425 247.562zM246.237 250.143L247.261 250.306 244.68 248.504zM258.527 241.171c.757-1.31 2.427-2.889 6.514-3.851-2.25.079-3.674.76-4.547 1.352-1.248.846-1.693 1.726-3.933 4.466-.985 1.204-1.822 2.163-2.376 2.786.508-.285 1.247-.754 2.007-1.475C257.582 243.132 258.151 241.823 258.527 241.171zM252.628 191.518c-.692-1.323-1.383-2.647-2.075-3.97.229.503.425 1.159.354 1.922-.016.174-.045.338-.082.492L252.628 191.518zM250.553 187.547c-.101-.223-.206-.425-.302-.577C250.352 187.163 250.453 187.355 250.553 187.547zM246.931 184.336c.134.157.262.302.371.422C247.197 184.644 247.068 184.496 246.931 184.336zM246.858 184.25c.026.031.048.056.073.086C246.907 184.308 246.883 184.279 246.858 184.25z"/><path d="M300.11,216.098c-0.506-0.065-0.124-2.482-1.024-4.629c-0.944-2.253-3.043-3.596-4.957-4.425 c-0.287,0.014-0.574,0.027-0.86,0.041c-1.546-1.085-1.983-1.5-1.926-1.598c0.188-0.32,5.743,2.565,5.776,2.499 c0.044-0.087-9.805-5.163-9.464-5.94c0.078-0.177,0.631-0.017,0.778-0.287c0.265-0.486-1.116-1.754-2.376-2.786l-2.417,0.737 c1.12,1.12,2.24,2.24,3.359,3.359c-0.149,0.137-0.304,0.329-0.328,0.574c-0.088,0.908,1.731,1.524,4.793,3.4 c2.056,1.26,1.742,1.293,3.155,2.048c1.817,0.972,3.701,1.647,3.605,2.048c-0.036,0.149-0.309,0.102-0.492,0.328 c-0.393,0.485,0.209,1.513,0.533,2.212c0.525,1.135,0.541,2.778,0.574,6.063c0.005,0.539,0,1.377-0.574,1.966 c-0.281,0.289-0.607,0.424-0.819,0.492c-0.08,1.281-0.089,2.335-0.082,3.073c0.021,2.225,0.031,3.338,0.123,4.015 c0.171,1.266,0.444,2.246-0.123,2.95c-0.196,0.243-0.442,0.391-0.492,0.737c-0.076,0.532,0.421,0.766,0.492,1.393 c0.023,0.206-0.008,0.378-0.451,1.311c-0.69,1.456-0.852,1.538-0.942,2.007c-0.149,0.771,0.16,1.206,0.287,1.844 c0.165,0.831,0.042,2.109-1.393,3.974c1.69-1.66,2.195-3.054,2.376-3.851c0.33-1.452,0.369-2.171,0.369-2.171 c0.045-0.828-0.039-1.302,0.246-1.967c0.234-0.545,0.476-0.658,0.737-1.065c0.202-0.315,0.415-0.803,0.246-3.155 c-0.161-2.233-0.432-2.901-0.082-4.138c0.095-0.337,0.109-0.264,0.328-0.942c0.455-1.411,0.756-2.837,0.656-2.868 c-0.132-0.041-0.85,2.386-1.065,2.335c-0.23-0.054,0.221-2.933,1.024-7.21c0.161-0.303,0.381-0.736,0.615-1.27 c0.724-1.658,1.07-3.124,0.983-3.154C301.192,214.013,300.59,216.16,300.11,216.098z" fill="#231f20"/><path d="M290.4 246.333c-1.37 1.089-2.689 1.932-3.851 2.581 1.132-.35 3.032-1.101 4.875-2.745 1.378-1.229 2.235-2.519 2.745-3.441C293.207 243.833 291.964 245.089 290.4 246.333zM282.371 251.617c-.722 1.024-.969 2.035-1.065 2.622.806-1.338 1.611-2.677 2.417-4.015C283.332 250.518 282.828 250.968 282.371 251.617z" fill="#2f2b2c"/><path d="M317.972,153.418c-1.087-2.156-2.535-2.755-5.51-5.305c-0.983-0.843-2.373-2.105-3.851-3.851 c-1.905-2.251-2.104-3.119-2.171-3.523c-0.157-0.95,0.072-1.442-0.102-3.667c-0.071-0.905-0.109-1.366-0.246-1.782 c-0.469-1.426-1.653-2.29-2.499-2.765c0.43,0.553,0.86,1.106,1.29,1.659c-0.173,0.02-0.429,0.039-0.737,0.02 c-1.18-0.071-2.012-0.626-2.458-0.901c-0.779-0.48-2.732-1.685-4.834-1.7c-1.213-0.009-1.263,0.386-2.417,0.328 c-1.846-0.094-3.152-1.178-3.687-1.577c-1.407-1.049-3.938-2.178-8.87-2.335c-4.106-0.734-7.132,0.151-8.542,0.676 c-4.091,1.524-6.396,4.427-8.542,7.128c-1.359,1.711-2.588,3.289-3.38,5.776c-0.54,1.697-0.699,3.269-0.697,4.592 c-1.028,1.517-2.569,3.713-4.568,6.284c-1.766,2.272-3.632,4.504-6.309,7.702c-3.917,4.679-5.038,5.904-5.981,8.439 c-0.34,0.914-1.011,2.762-1.065,5.121c-0.115,4.968,2.578,8.763,4.062,10.512c-1.12-1.335-3.042-4.09-3.53-8.054 c-0.539-4.376,0.987-7.668,1.475-8.685c0.36-0.751,0.695-1.292,3.564-4.875c2.998-3.744,4.497-5.616,6.965-8.439 c1.447-1.655,3.305-3.723,5.506-6.052c0.021,0.168,0.042,0.334,0.065,0.481c-2.258,2.866-4.15,5.172-5.49,6.78 c-4.462,5.359-6.692,8.038-7.067,8.439c-0.553,0.593-1.1,1.162-1.721,2.089c0,0-1.942,2.901-2.335,6.411 c-0.389,3.475,1.907,7.014,6.514,13.95c3.042,4.58,4.622,6.284,5.797,10.119c0.713,2.327,0.943,4.35,1.024,5.715 c0.009,0.569-0.057,1.386-0.451,2.233c-0.75,1.613-2.042,1.937-3.339,3.011c-1.489,1.233-2.147,3.027-3.462,6.616 c-1.076,2.936-0.731,3.171-1.741,5.469c-0.501,1.139-2.337,5.317-3.974,5.1c-0.528-0.07-0.651-0.546-2.52-2.765 c-0.594-0.706-1.095-1.266-1.413-1.618c0.471-1.106,0.942-2.212,1.413-3.318c-0.84,0.724-1.68,1.448-2.52,2.171 c0.143,0.341,0.287,0.683,0.43,1.024c-0.314-0.02-0.628-0.041-0.942-0.061c-0.851-0.093-2.216-0.153-3.81,0.205 c-4.484,1.007-7.155,4.512-8.603,6.411c-0.757,0.993-1.795,2.532-2.704,4.629c-0.399,0.319-1.005,0.816-1.721,1.454 c-1.002,0.894-1.372,1.308-1.823,1.7c-0.701,0.609-1.836,1.368-3.667,1.864c3.393-0.587,6.787-1.174,10.181-1.762 c-0.564,0.416-1.158,0.834-1.782,1.25c-1.207,0.804-2.382,1.502-3.503,2.11c0.962-0.196,2.382-0.595,3.892-1.495 c1.13-0.674,1.115-0.915,2.438-1.721c1.93-1.175,2.634-1.071,3.912-2.069c0.825-0.644,1.439-1.397,1.905-2.151 c2.842,2.369,4.545,4.7,5.592,6.452c1.823,3.051,2.071,5.043,4.322,6.207c1.55,0.801,3.237,0.79,4.998,0.778 c1.762-0.012,2.81-0.331,3.646-0.819c0.444-0.259,0.737-0.512,0.881-0.635c1.874-1.596,3.312-2.166,6.821-4.609 c0.827-0.576,0.423-0.318,4.384-3.257c1.827-1.355,3.322-2.456,4.302-3.175c0.159-0.722,0.292-1.736,0.164-2.929 c-0.226-2.113-1.145-3.632-1.68-4.384c-0.51-0.777-0.507-1.122-0.389-1.29c0.102-0.146,0.283-0.147,0.717-0.287 c0.397-0.128,0.71-0.277,0.922-0.389c-0.519-0.061-1.038-0.123-1.557-0.184c0.218-0.914,0.63-2.187,1.454-3.544 c1.038-1.709,2.279-2.811,3.114-3.441c0.027,2.595,0.055,5.189,0.082,7.784c1.825-1.375,3.046-2.769,3.81-3.769 c1.347-1.764,2.296-3.045,2.007-4.547c-0.222-1.156-1.079-1.933-1.618-2.335c1.017-1.543,2.035-3.086,3.052-4.629 c2.114,2.059,3.19,4.047,3.749,5.326c0.613,1.404,0.697,2.171,0.656,2.806c-0.096,1.494-0.899,2.538-1.741,3.605 c-0.832,1.053-1.075,1.022-4.117,3.81c-1.293,1.184-1.702,1.605-2.151,2.151c-0.903,1.098-1.027,1.558-1.844,2.765 c-1.587,2.346-2.04,1.965-3.195,3.81c-1.22,1.947-0.929,2.711-2.13,3.952c-0.892,0.922-1.915,1.393-2.649,1.648 c0.623-0.056,1.245-0.112,1.868-0.168c0.652-0.526,1.303-1.053,1.955-1.579c-0.514,1.453-1.029,2.907-1.543,4.36h-5.326 c-3.048,2.6-5.367,4.724-6.954,6.216c0,0-1.309,1.231-3.533,2.919c-3.201,2.429-4.318,2.724-5.254,2.489 c-0.896-0.226-1.505-0.908-1.874-1.444c-0.143-0.369-0.287-0.737-0.43-1.106c-1.359-1.277-2.717-2.553-4.076-3.83 c0.222-0.331,0.444-0.663,0.666-0.994c-0.358-0.277-0.717-0.553-1.075-0.83c-0.174,0.092-0.348,0.184-0.522,0.277 c-1.028-1.396-2.055-2.792-3.083-4.188c-0.102,0.178-0.314,0.494-0.697,0.758c-0.414,0.285-0.818,0.363-1.024,0.389 c-0.246-0.492-0.492-0.983-0.737-1.475c-1.673,1.351-3.154,1.825-4.199,2.007c-1.817,0.317-2.955-0.066-6.207-0.307 c-1.795-0.133-3.256-0.144-4.179-0.134c-0.515,0.111-1.7,0.44-2.765,1.475c-1.302,1.266-1.587,2.773-1.659,3.268 c0,1.106,0,2.212,0,3.318c-2.646-0.591-4.502-0.285-5.715,0.112c-0.914,0.299-1.641,0.707-3.195,1.137 c-1.37,0.379-2.528,0.539-3.288,0.615c0.502-0.451,1.004-0.901,1.506-1.352c-4.698,2.564-6.054,3.77-6.176,4.363 c-0.016,0.08-0.088,0.529-0.408,0.984c-0.286,0.406-0.629,0.617-0.79,0.717c-1.034,0.646-2.387,1.642-2.335,1.741 c0.051,0.097,1.586-0.391,3.011-1.127c0.275-0.142,0.642-0.343,1.168-0.38c0.617-0.043,0.881,0.18,1.383,0.215 c0.647,0.046,1.009-0.268,1.874-0.737c1.053-0.57,1.868-0.837,3.441-1.352c0.489-0.16,2.137-0.699,2.212-0.522 c0.068,0.16-1.202,0.789-3.042,1.874c-1.536,0.907-2.771,1.72-3.626,2.304c3.574-1.547,7.149-3.093,10.723-4.64 c0.798,0.186,7.634,1.746,9.832,0.553c0.943-0.512,1.567-0.922,1.567-0.922c1.191-0.783,1.436-1.142,2.151-1.444 c0.485-0.205,1.223-0.398,2.274-0.277c0.856,0.101,2.081,0.371,3.257,1.179c0.913,0.627,1.364,1.167,2.274,2.304 c0,0,1.562,1.618,3.134,2.888c2.809,2.269,7.043,4.28,8.665,3.257c0.174-0.11,0.863-0.599,1.936-1.168 c0.369-0.196,0.674-0.343,0.86-0.43c1.136,1.004,2.912,2.364,5.346,3.441c1.567,0.693,3.657,1.118,7.835,1.966 c4.042,0.821,5.383,0.911,6.729,0.86c1.755-0.066,3.195-0.36,4.179-0.615c3.011-4.138,6.022-8.276,9.033-12.413 c0.105-0.521,0.324-1.25,0.83-1.966c0.776-1.1,1.734-1.469,3.042-2.12c0,0,2.998-1.493,5.438-3.411 c0.727-0.571,1.7-1.42,2.735-2.612c1.097-1.475,1.53-2.767,1.721-3.687c0.195-0.94,0.123-1.425,0.399-2.796 c0.277-1.375,0.603-2.141,0.83-2.858c0.673-2.125,0.52-4.54,0.215-9.371c-0.061-0.961-0.128-1.692,0.092-2.704 c0.288-1.322,0.954-2.6,0.768-2.704c-0.08-0.045-0.208,0.191-0.369,0.154c-0.338-0.077-0.609-1.3-0.123-2.182 c0.334-0.605,0.726-0.509,1.014-1.075c0.467-0.92-0.034-2.228-0.369-2.243c-0.23-0.011-0.238,0.594-0.553,0.676 c-0.685,0.178-1.294-2.51-3.38-4.455c-1.161-1.083-1.243-0.503-4.271-2.427c-2.52-1.602-3.617-2.737-3.933-3.073 c-0.953-1.013-1.597-1.974-1.997-2.642c0.113-0.379,0.225-0.758,0.338-1.137c-2.68-1.256-5.035-1.075-5.746,0.031 c-0.139,0.216-0.367,0.704-0.154,1.628c-0.22-0.358-0.554-0.885-0.983-1.506c-1.419-2.048-2.559-3.195-2.98-3.718 c-0.951-1.178-1.659-3.405-0.492-8.019c-0.746-1.482-1.56-3.592-1.813-6.207c-0.085-0.874-0.095-1.688-0.061-2.427 c0.737-0.082,1.475-0.164,2.212-0.246c0.186,0.255,0.33,0.368,0.43,0.338c0.162-0.049,0.214-0.469,0.154-1.26 c-0.973,0.082-1.946,0.164-2.919,0.246c0.031-0.174,0.061-0.348,0.092-0.522c-0.006-0.047-0.026-0.285-0.017-0.616 c0.029-0.027,0.048-0.055,0.078-0.082c0.823-0.725,1.797-0.808,2.171-0.819c-0.291-0.159-0.633-0.318-1.024-0.451 c-0.324-0.11-0.633-0.179-0.931-0.233c0.216-0.596,0.576-1.211,1.197-1.702c0.878-0.694,1.84-0.807,2.274-0.83 c0.335-1.209,0.669-2.417,1.004-3.626c-0.076,0.113-0.207,0.309-0.369,0.553c-0.82,1.233-0.958,1.457-1.188,1.475 c-0.105,0.008-0.436-0.011-0.881-0.819c0.236-0.657,0.574-1.432,1.065-2.253c0.645-1.08,1.352-1.904,1.946-2.499 c0.306,0.449,3.64,5.245,6.145,4.568c0.67-0.181,1.633-0.85,2.888-1.721c0.857-0.595,1.285-0.892,1.639-1.249 c0.38-0.384,0.52-0.614,0.86-0.758c0.603-0.256,1.287-0.011,1.782,0.246c-0.351,0.564-0.938,1.353-1.864,2.069 c-1.428,1.104-2.889,1.439-3.646,1.557c0.776,0.086,2.913,0.218,4.998-1.086c0.985-0.616,1.641-1.353,2.048-1.905 c3.049,1.385,5.325,2.829,6.883,3.933c1.852,1.313,3.108,2.443,5.285,3.011c1.813,0.473,3.441,0.342,4.568,0.143 c1.105-0.628,2.312-1.396,3.564-2.335c1.393-1.044,2.563-2.096,3.552-3.083c-0.234,0.44-0.491,0.887-0.786,1.341 c-0.874,1.341-1.81,2.38-2.622,3.154c0.674-0.475,1.419-1.102,2.13-1.925c2.21-2.557,2.749-5.439,2.909-6.883 c-0.254,1.074-0.692,2.482-1.471,4.013c-0.513,0.213-1.027,0.425-1.54,0.637c0.299-0.944,0.696-2.005,1.229-3.134 c0.514-1.088,1.058-2.038,1.577-2.847c0.198-0.034,0.396-0.068,0.594-0.102c0.095-0.399,0.23-0.971,0.389-1.659 c0.912-3.942,0.957-4.51,0.901-5.182c-0.11-1.318-0.547-2.327-0.369-2.397c0.194-0.076,0.791,1.091,0.881,1.045 C318.686,155.057,318.311,154.092,317.972,153.418z M314.51,164.971c-1.11,2.473-2.497,4.324-3.626,5.592 c-0.041,0.287-0.082,0.574-0.123,0.86c-0.26,0.366-0.936,1.213-2.151,1.721c-1.265,0.529-2.387,0.387-2.827,0.307 c1.937-1.472,4.189-3.622,6.022-6.637c0,0,1.753-2.882,2.642-6.944c0.238-1.086,0.42-2.314-0.061-3.626 c-0.382-1.042-1.023-1.697-1.352-2.028c-3.734-3.747-6.423-5.308-7.927-7.866c-0.615-1.047-1.315-2.741-1.29-5.346 c0.817,2.689,2.031,4.174,3.011,5.039c0.727,0.642,1.388,0.998,2.458,2.151c1.127,1.215,1.05,1.528,2.028,2.458 c1.086,1.032,1.584,1.031,2.888,2.089c0.951,0.772,1.672,1.574,2.212,2.274C316.498,157.136,316.35,160.871,314.51,164.971z" fill="#231f20"/><path d="M290.605,164.755c0.44-0.366,1.125-0.849,2.059-1.198c1.272-0.476,2.396-0.479,3.042-0.43 c-0.394,0.369-1.055,0.893-1.997,1.26C292.377,164.906,291.196,164.833,290.605,164.755z" fill="#708035"/><path d="M299.823,168.699c0.212,0.308,0.6,0.788,1.229,1.188c0.799,0.508,1.57,0.624,1.966,0.655 c-0.337-0.325-0.797-0.71-1.393-1.065C300.946,169.072,300.311,168.838,299.823,168.699z" fill="#fff"/><path d="M269.527 191.087c.138.167.295.391.43.676.219.461.286.884.307 1.168-.246.553-.492 1.106-.737 1.659-.287-.86-.574-1.721-.86-2.581C268.954 191.702 269.24 191.395 269.527 191.087zM272.477 196.864L273.952 199.199 272.354 197.847z" fill="#708035"/><path d="M273.429 214.117c.309-.553.641-1.117.999-1.69.153-.246.307-.486.461-.722.08.152.179.382.23.676.051.29.038.537.015.707-.163.18-.405.408-.737.615C274.027 213.932 273.679 214.052 273.429 214.117zM252.198 259.115c-.143.343-.126.724.074.979.297.378.983.455 1.504.035-.388-.023-.627-.145-.775-.254-.102-.076-.151-.139-.44-.416C252.409 259.31 252.282 259.192 252.198 259.115zM257.223 261.528c.127.215.363.544.763.81.806.535 1.672.41 1.897.37-.377-.035-.948-.135-1.573-.44C257.827 262.033 257.468 261.752 257.223 261.528z" fill="#fff"/></g></switch></svg>