<svg xmlns="http://www.w3.org/2000/svg" viewBox="0 0 350 350"><switch><g><path fill="#fff" d="M60.008 59.919h230.075v230.075H60.008z"/><path fill="#231f20" d="M69.502 69.966h211.394V281.36H69.502z"/><path fill="#666e24" d="M78.351 79.307h192.713V272.02H78.351z"/><g fill="#231f20"><path d="M90.805 167.388l-.451-2.335a32.78 32.78 0 00-4.056.533 33.555 33.555 0 00-9.627 3.482c3.384-.401 5.981-.707 7.62-.86 1.195-.112 1.889-.143 2.827-.533.626-.261 3.191-.507 3.687-.287zM92.567 166.118l1.843-.697.287 1.311zM80.604 200.367l-3.113 2.171.409-.819zM86.422 215.033c-.123.082-1.393 1.475-1.393 1.475l1.434-.942-.041-.533zM97.688 219.826l-1.475.451 1.557.369zM76.507 234.739c.716-.118 1.81-.268 3.155-.328 2.275-.102 2.98.156 4.261-.246.976-.306 1.114-.627 2.909-1.844 1.906-1.292 3.45-2.082 4.425-2.581 2.199-1.126 3.514-1.783 5.408-1.966a10.485 10.485 0 012.376.041l4.179-3.605 2.376 6.022a8.582 8.582 0 00-3.318-.328 8.654 8.654 0 00-4.138 1.557 16.48 16.48 0 00-3.523.246c-3.492.628-6.895 2.425-8.562 3.974-.173.16-.611.582-1.311.983a7.02 7.02 0 01-2.622.86c-1.426-.135-2.497.055-3.195.246-.842.23-2.096.722-2.091.737h.002c.032-.004-.03-.87-.331-3.768z"/><path d="M77.286 239.45a57.964 57.964 0 012.581-.983c.362-.127.783-.271 1.188-.655.397-.377.594-.811.696-1.106l1.024.492a6.068 6.068 0 01-1.188 1.27c-.397.317-1.083.863-2.089 1.106-.73.176-1.151.078-1.516.451-.269.274-.346.638-.369.901l-.327-1.476zM82.448 239.204l.778.164.205-.86zM86.094 237.525l.082-.943.573.41zM94.533 241.089l1.639-.656-.041.41-.492.451zM99.941 246.865l1.106-1.229.287.656zM96.909 249.528c0-.123 1.393-1.721 1.393-1.721l.123.819-1.516.902zM96.254 250.347l-.983.41.737-.737zM90.969 254.035l-.901.081.041.656zM77.245 247.316a5.811 5.811 0 012.213-1.065 2.495 2.495 0 01-1.147 2.089 37.602 37.602 0 002.745-1.762c.82-.578 2.459-1.783 4.22-2.212.277-.067.74-.16.983.082.318.316.082 1.025 0 1.27-.523 1.566-1.994 2.453-4.425 4.261a82.727 82.727 0 00-2.335 1.803l.451 1.024c-.494.67-1.28 1.52-2.458 2.13-.253.131-.5.239-.737.328.162-2.65.326-5.299.49-7.948z"/><path d="M75.975 263.211a32.174 32.174 0 011.885-1.557c1.002-.766 3.796-2.808 8.767-4.875 4.228-1.758 4.756-1.34 6.678-2.786 1.682-1.265 1.553-1.792 3.728-3.523 2.688-2.139 3.305-1.669 5.203-3.441 1.877-1.752 1.717-2.625 3.646-4.547a15.838 15.838 0 014.22-2.991l11.471 23.884c-.696.07-1.699.212-2.868.533-1.956.536-2.639 1.094-6.391 3.155-3.776 2.074-4.693 2.392-5.981 3.81a12.172 12.172 0 00-1.639 2.294l-7.21-.328 6.924-7.538-15.404 7.497h-6.965a28.685 28.685 0 016.432-6.228 18.48 18.48 0 00-6.227 2.458 18.413 18.413 0 00-4.015 3.4l-3.728-.41 1.474-8.807zM108.093 211.858l.738 3.564-2.12 2.858-2.305-2.581zM105.697 211.766a14.244 14.244 0 013.902-2.55l.307.86-1.567 1.26a9.29 9.29 0 00-2.642.43zM103.515 199.23l-1.506.215a7.329 7.329 0 003.81 2.796l-2.304-3.011zM258.159 83.486c.409-.327 1.091-.083 1.459.24.294.258.404.58.446.743a1.233 1.233 0 01-.377.784c-.449.417-1.04.302-1.099.289-.095-.059-.581-.375-.694-.983-.015-.081-.14-.751.265-1.073zM262 97.977c.667.016 1.027.711 1.041.74-.02.131-.077.385-.266.636a1.423 1.423 0 01-.706.497c-.135-.047-.582-.222-.81-.682-.069-.14-.241-.487-.081-.798.206-.4.779-.395.822-.393zM265.818 96.311c-.016.048-.148.468.116.856.24.353.623.409.682.416a.441.441 0 00.382-.231.45.45 0 00.012-.37 1.03 1.03 0 00-.359-.497c-.359-.266-.766-.188-.833-.174zM258.876 102.536a2.674 2.674 0 00-.102.983c.029.338.1.36.369 1.27.152.514.186.697.348 1.168.081.233.154.424.205.553a.876.876 0 00.266-.696 8.231 8.231 0 00-1.086-3.278zM253.242 111.323l7.989.676a14.44 14.44 0 011.106-2.622 7.245 7.245 0 012.171.082c1.544.298 2.434 1.012 3.953 1.905a29.279 29.279 0 003.728 1.844l.41 25.339-14.38 1.045c-1.658-9.424-3.317-18.846-4.977-28.269zM264.242 107.124l.082.922.328-.574z"/></g><path d="M175.527 54.808c-6.99-.233-18.939.301-32.119 5.981-8.738 3.766-14.503 8.278-17.698 10.816-4.765 3.783-18.577 15.029-26.137 34.659-3.165 8.218-4.109 14.982-5.162 22.532-1.491 10.688-1.283 18.577-1.065 26.875 0 0 .428 16.27 5.654 37.445.164.664.423 1.514.901 2.458.734 1.45 1.599 2.36 2.458 3.277 1.269 1.354 2.444 2.798 3.769 4.097 1.755 1.721 4.471 4.515 8.849 9.341l.901 3.687c-.194.018-2.124.232-3.032 1.885a3.602 3.602 0 00-.41 2.048l-21.795-14.585c11.039 24.533 19.016 42.259 20.73 46.13.303.684 1.235 2.799 2.622 5.572a128.42 128.42 0 002.458 4.67 3545.662 3545.662 0 0113.074 18.297 1283.213 1283.213 0 0026.337 37.583l4.752-43.016h30.808l4.261 42.688 45.31-63.664c4.844-13.677 27.623-80.27 15.65-131.425-1.784-7.621-5.097-21.153-15.486-34.987-3.769-5.019-16.865-21.954-40.804-29.169-10.055-3.03-18.875-3.396-24.826-3.195z" fill="#231f20"/><g><path d="M178.148 117.284a424.2 424.2 0 00-.41 10.078l.007.034c.144-4.014.287-7.64.45-11.011l-.047.899z" fill="none"/><path d="M174.154 135.781c-.731-21.264-1.037-31.605-3.257-46.335a269.024 269.024 0 00-5.039-25.216 54.232 54.232 0 00-15.568 3.441c-9.843 3.776-15.888 9.453-20.73 14.093-4.178 4.004-14.329 13.952-20.238 30.398-3.267 9.092-3.928 16.53-4.506 23.024-.905 10.165-.207 18.146.655 28.022.296 3.389.096.203 2.458 17.452.616 4.498 1.062 7.872 3.114 11.881 1.303 2.546 2.94 4.735 4.179 6.391 2.872 3.84 5.379 6.342 5.817 6.801 2.846 2.982 5.4 10.934 3.851 33.02l-13.601-9.177 11.061 25.072 27.162 36.236 5.776-68.642c-1.628-3.798-4.472-8.914-9.423-13.56-2.309-2.167-5.502-5.101-10.652-6.883a26.361 26.361 0 00-8.439-1.434l-12.413-50.636 16.899 14.503 29.804 5.961v26.056l13.458 5.715 1.251-.46.048-19.4a15558.7 15558.7 0 01-1.667-46.323zM179.296 101.307c-.598 5.929-.884 11.007-1.099 15.078a855.33 855.33 0 00-.45 11.011l5.646 26.554c.24 1.142 1.342 5.728 5.695 8.767 2.744 1.916 5.51 2.329 6.883 2.438a38.368 38.368 0 009.013-1.823c6.113-2.027 10.49-5.198 13.151-7.497a192.138 192.138 0 005.121-6.473c7.219-9.534 8.346-12.859 14.38-20.033a258.345 258.345 0 016.637-7.538l.377-.41c-2.404-10.463-6.135-17.687-7.075-19.46-1.381-2.606-5.044-9.149-11.553-16.223-4.236-4.605-10.625-11.414-21.201-16.285-7.111-3.275-13.744-4.581-18.823-5.093a237.199 237.199 0 00-3.545 15.479 239.134 239.134 0 00-3.157 21.508z" fill="#fff"/><path d="M180.852 88.893c-1.477 9.406-2.162 17.296-2.656 27.492.215-4.071.502-9.149 1.099-15.078a240.432 240.432 0 013.155-21.508 237.347 237.347 0 013.545-15.479l-.063-.007a260.638 260.638 0 00-5.08 24.58zM190.521 170.542l29.353-6.002 17.145-14.625-7.989 34.229 9.279-7.866-11 14.871-1.782 6.883 7.128-2.274-31.709 25.81 7.62-.737-12.106 8.296a33.979 33.979 0 00-.43 8.111c.335 5.136 1.732 14.265 1.844 14.994 1.23 8.06.719 7.912 1.905 15.117a165.157 165.157 0 002.151 10.815l-.983.123 1.045 9.771 27.53-34.106-3.257-34.229c-.018-1.562.08-3.761.615-6.33.171-.824.468-2.25 1.045-3.749 1.331-3.459 3.202-4.833 6.575-8.91a75.624 75.624 0 004.117-5.469 18.98 18.98 0 002.274-3.38c1.834-3.489 2.077-6.65 2.212-8.112.9-9.748 3.128-10.669 3.81-21.692.156-2.513.126-4.823.061-9.341-.191-13.327-.287-19.99-1.29-26.117a83.658 83.658 0 00-1.037-5.244c-.128.139-.246.266-.377.41a259.95 259.95 0 00-6.637 7.538c-6.034 7.174-7.161 10.499-14.38 20.033a192.138 192.138 0 01-5.121 6.473c-2.66 2.299-7.037 5.471-13.151 7.497a38.368 38.368 0 01-9.013 1.823c-1.373-.108-4.138-.521-6.883-2.438-4.352-3.039-5.454-7.625-5.695-8.767l-5.646-26.554c-.089 2.492-.179 5.129-.273 7.955-.842 25.05-1.377 41.403-1.598 48.178l-.053-1.425-.048 19.4 14.788-5.439-.039-25.521z" fill="#fff"/><path d="M190.521 170.542l29.353-6.002 17.145-14.625-7.989 34.229 9.279-7.866-11 14.871-1.782 6.883 7.128-2.274-31.709 25.81 7.62-.737-12.106 8.296a33.979 33.979 0 00-.43 8.111c.335 5.136 1.732 14.265 1.844 14.994 1.23 8.06.719 7.912 1.905 15.117a165.157 165.157 0 002.151 10.815l-.983.123 1.045 9.771 27.53-34.106-3.257-34.229c-.018-1.562.08-3.761.615-6.33.171-.824.468-2.25 1.045-3.749 1.331-3.459 3.202-4.833 6.575-8.91a75.624 75.624 0 004.117-5.469 18.98 18.98 0 002.274-3.38c1.834-3.489 2.077-6.65 2.212-8.112.9-9.748 3.128-10.669 3.81-21.692.156-2.513.126-4.823.061-9.341-.191-13.327-.287-19.99-1.29-26.117a83.658 83.658 0 00-1.037-5.244c-.128.139-.246.266-.377.41a259.95 259.95 0 00-6.637 7.538c-6.034 7.174-7.161 10.499-14.38 20.033a192.138 192.138 0 01-5.121 6.473c-2.66 2.299-7.037 5.471-13.151 7.497a38.368 38.368 0 01-9.013 1.823c-1.373-.108-4.138-.521-6.883-2.438-4.352-3.039-5.454-7.625-5.695-8.767l-5.646-26.554c-.089 2.492-.179 5.129-.273 7.955-.842 25.05-1.377 41.403-1.598 48.178l-.053-1.425-.048 19.4 14.788-5.439-.039-25.521z" opacity=".25" fill="#848414"/></g><path d="M247.999 199.814l4.547 6.248-14.011 24.007-3.523-12.864 1.372-4.691 6.371-4.465-2.827.471 8.071-8.706z" fill="#727929"/><g><path d="M176.797 261.573a385.8 385.8 0 019.832-6.452c9.005-5.715 12.261-7.256 14.564-8.235a64.988 64.988 0 017.436-2.642 8.523 8.523 0 012.212-4.732 8.525 8.525 0 014.547-2.52l-.86-5.285c.77-.118 1.802-.412 2.581-1.229.721-.756.753-1.466 1.352-2.642.383-.752.817-1.339 2.212-2.827 3.518-3.751 5.277-5.627 7.313-6.698 1.152-.606 3.01-1.397 5.592-1.721l1.844.184a10.437 10.437 0 013.257 2.151c1.185 1.165 1.276 1.843 1.782 1.844.856 0 1.52-1.945 3.933-9.341.746-2.287 1.129-3.469 2.212-4.793 1.276-1.561 2.81-2.443 3.933-2.95a14.31 14.31 0 00-.184-3.564 14.377 14.377 0 00-1.352-3.994c-1.905-3.794-4.975-8.267-6.145-10.078-3.188-4.936-5.562-8.609-5.285-13.212.189-3.143 1.535-5.412 3.318-8.419 2.251-3.795 3.966-4.864 8.112-9.771a101.066 101.066 0 005.838-7.62 22.297 22.297 0 011.966-7.497c.894-1.937 2.902-6.286 7.743-8.972 3.478-1.93 6.875-2.145 8.849-2.089 31.384 27.338 36.633 38.139 34.167 42.525-1.096 1.949-5.175 5.228-9.095 4.793-1.28-.142-3.352-1.283-7.497-3.564-4.047-2.227-4.469-2.704-5.776-2.704-2.934 0-3.705 2.403-6.883 2.95-3.088.532-5.774-1.15-6.883-1.844-7.455-4.666-7.036-17.343-7.866-17.329-.756.012-1.589 10.544-2.089 53.094 4.121-8.755 11.13-12.425 15.117-10.693 2.674 1.162 4.802 5.106 3.933 8.235-1.379 4.959-9.211 3.974-13.028 9.586-1.761 2.589-2.917 6.95-.492 14.748a805.86 805.86 0 013.564-3.441c2.59-2.485 3.99-3.796 5.408-5.961.98-1.496 1.467-2.262 1.352-3.134-.247-1.864-2.532-2.534-2.581-4.425-.02-.784.352-1.44.684-1.883.76-.86 1.951-1.895 3.31-1.804 2.958.198 4.544 5.582 4.855 6.637 2.105 7.146-.847 14.054-3.441 19.91a59.797 59.797 0 01-6.452 11.123l-1.086 18.62c-2.243 1.467-5.99 3.404-10.856 3.728-6.533.436-11.634-2.263-14.093-3.564a31.013 31.013 0 01-3.4-2.089c-2.746 1.432-4.989 1.307-5.94 1.188-2.353-.295-4.058-1.467-5.858-2.704-1.298-.892-2.363-1.834-3.81-3.114-1.883-1.665-2.718-2.6-4.384-3.032-.4-.104-1.287-.325-2.376-.164-2.407.355-3.18 2.189-5.08 3.195-1.191.631-3.167 1.118-6.473.082-2.242-1.505-3.902-1.633-4.998-1.475-.745.107-1.061.322-3.769 1.311 0 0-.433.158-3.032 1.065-3.34 1.166-7.668 1.576-11.963 2.048-2.175.241-5.543.628-9.791 1.19z" fill="#708035"/><path fill="#2f2b2c" d="M246.565 245.718l-1.229-.492 2.089 2.336zM246.237 250.143l1.024.163-2.581-1.802zM258.527 241.171c.757-1.31 2.427-2.889 6.514-3.851-2.25.079-3.674.76-4.547 1.352-1.248.846-1.693 1.726-3.933 4.466a89.086 89.086 0 01-2.376 2.786 10.074 10.074 0 002.007-1.475c1.39-1.317 1.959-2.626 2.335-3.278zM252.628 191.518l-2.075-3.97c.229.503.425 1.159.354 1.922a3.458 3.458 0 01-.082.492l1.803 1.556zM250.553 187.547a4.939 4.939 0 00-.302-.577l.302.577zM246.931 184.336zM246.858 184.25l.073.086-.073-.086z"/><path d="M300.11 216.098c-.506-.065-.124-2.482-1.024-4.629-.944-2.253-3.043-3.596-4.957-4.425l-.86.041c-1.546-1.085-1.983-1.5-1.926-1.598.188-.32 5.743 2.565 5.776 2.499.044-.087-9.805-5.163-9.464-5.94.078-.177.631-.017.778-.287.265-.486-1.116-1.754-2.376-2.786l-2.417.737 3.359 3.359c-.149.137-.304.329-.328.574-.088.908 1.731 1.524 4.793 3.4 2.056 1.26 1.742 1.293 3.155 2.048 1.817.972 3.701 1.647 3.605 2.048-.036.149-.309.102-.492.328-.393.485.209 1.513.533 2.212.525 1.135.541 2.778.574 6.063.005.539 0 1.377-.574 1.966a1.97 1.97 0 01-.819.492 42.703 42.703 0 00-.082 3.073c.021 2.225.031 3.338.123 4.015.171 1.266.444 2.246-.123 2.95-.196.243-.442.391-.492.737-.076.532.421.766.492 1.393.023.206-.008.378-.451 1.311-.69 1.456-.852 1.538-.942 2.007-.149.771.16 1.206.287 1.844.165.831.042 2.109-1.393 3.974 1.69-1.66 2.195-3.054 2.376-3.851.33-1.452.369-2.171.369-2.171.045-.828-.039-1.302.246-1.967.234-.545.476-.658.737-1.065.202-.315.415-.803.246-3.155-.161-2.233-.432-2.901-.082-4.138.095-.337.109-.264.328-.942.455-1.411.756-2.837.656-2.868-.132-.041-.85 2.386-1.065 2.335-.23-.054.221-2.933 1.024-7.21.161-.303.381-.736.615-1.27.724-1.658 1.07-3.124.983-3.154-.106-.035-.708 2.112-1.188 2.05z" fill="#231f20"/><path d="M290.4 246.333a28.606 28.606 0 01-3.851 2.581 13.174 13.174 0 004.875-2.745 13.119 13.119 0 002.745-3.441 28.617 28.617 0 01-3.769 3.605zM282.371 251.617a6.322 6.322 0 00-1.065 2.622l2.417-4.015a6.238 6.238 0 00-1.352 1.393z" fill="#2f2b2c"/><path d="M317.972 153.418c-1.087-2.156-2.535-2.755-5.51-5.305a33.69 33.69 0 01-3.851-3.851c-1.905-2.251-2.104-3.119-2.171-3.523-.157-.95.072-1.442-.102-3.667-.071-.905-.109-1.366-.246-1.782-.469-1.426-1.653-2.29-2.499-2.765l1.29 1.659c-.173.02-.429.039-.737.02-1.18-.071-2.012-.626-2.458-.901-.779-.48-2.732-1.685-4.834-1.7-1.213-.009-1.263.386-2.417.328-1.846-.094-3.152-1.178-3.687-1.577-1.407-1.049-3.938-2.178-8.87-2.335-4.106-.734-7.132.151-8.542.676-4.091 1.524-6.396 4.427-8.542 7.128-1.359 1.711-2.588 3.289-3.38 5.776a15 15 0 00-.697 4.592 119.173 119.173 0 01-4.568 6.284c-1.766 2.272-3.632 4.504-6.309 7.702-3.917 4.679-5.038 5.904-5.981 8.439-.34.914-1.011 2.762-1.065 5.121-.115 4.968 2.578 8.763 4.062 10.512-1.12-1.335-3.042-4.09-3.53-8.054-.539-4.376.987-7.668 1.475-8.685.36-.751.695-1.292 3.564-4.875 2.998-3.744 4.497-5.616 6.965-8.439a212.443 212.443 0 015.506-6.052c.021.168.042.334.065.481a318.557 318.557 0 01-5.49 6.78c-4.462 5.359-6.692 8.038-7.067 8.439-.553.593-1.1 1.162-1.721 2.089 0 0-1.942 2.901-2.335 6.411-.389 3.475 1.907 7.014 6.514 13.95 3.042 4.58 4.622 6.284 5.797 10.119a24.46 24.46 0 011.024 5.715c.009.569-.057 1.386-.451 2.233-.75 1.613-2.042 1.937-3.339 3.011-1.489 1.233-2.147 3.027-3.462 6.616-1.076 2.936-.731 3.171-1.741 5.469-.501 1.139-2.337 5.317-3.974 5.1-.528-.07-.651-.546-2.52-2.765a60.103 60.103 0 00-1.413-1.618l1.413-3.318-2.52 2.171.43 1.024-.942-.061a11.636 11.636 0 00-3.81.205c-4.484 1.007-7.155 4.512-8.603 6.411a22.125 22.125 0 00-2.704 4.629c-.399.319-1.005.816-1.721 1.454-1.002.894-1.372 1.308-1.823 1.7-.701.609-1.836 1.368-3.667 1.864l10.181-1.762a45.106 45.106 0 01-5.285 3.36 12.43 12.43 0 003.892-1.495c1.13-.674 1.115-.915 2.438-1.721 1.93-1.175 2.634-1.071 3.912-2.069a8.105 8.105 0 001.905-2.151c2.842 2.369 4.545 4.7 5.592 6.452 1.823 3.051 2.071 5.043 4.322 6.207 1.55.801 3.237.79 4.998.778 1.762-.012 2.81-.331 3.646-.819.444-.259.737-.512.881-.635 1.874-1.596 3.312-2.166 6.821-4.609.827-.576.423-.318 4.384-3.257 1.827-1.355 3.322-2.456 4.302-3.175a9.105 9.105 0 00.164-2.929 9.304 9.304 0 00-1.68-4.384c-.51-.777-.507-1.122-.389-1.29.102-.146.283-.147.717-.287.397-.128.71-.277.922-.389l-1.557-.184c.218-.914.63-2.187 1.454-3.544a12.344 12.344 0 013.114-3.441l.082 7.784a19.652 19.652 0 003.81-3.769c1.347-1.764 2.296-3.045 2.007-4.547-.222-1.156-1.079-1.933-1.618-2.335l3.052-4.629c2.114 2.059 3.19 4.047 3.749 5.326.613 1.404.697 2.171.656 2.806-.096 1.494-.899 2.538-1.741 3.605-.832 1.053-1.075 1.022-4.117 3.81-1.293 1.184-1.702 1.605-2.151 2.151-.903 1.098-1.027 1.558-1.844 2.765-1.587 2.346-2.04 1.965-3.195 3.81-1.22 1.947-.929 2.711-2.13 3.952-.892.922-1.915 1.393-2.649 1.648l1.868-.168 1.955-1.579-1.543 4.36h-5.326a192.276 192.276 0 00-6.954 6.216s-1.309 1.231-3.533 2.919c-3.201 2.429-4.318 2.724-5.254 2.489-.896-.226-1.505-.908-1.874-1.444l-.43-1.106-4.076-3.83.666-.994-1.075-.83-.522.277-3.083-4.188a2.32 2.32 0 01-1.721 1.147l-.737-1.475c-1.673 1.351-3.154 1.825-4.199 2.007-1.817.317-2.955-.066-6.207-.307a49.452 49.452 0 00-4.179-.134c-.515.111-1.7.44-2.765 1.475-1.302 1.266-1.587 2.773-1.659 3.268v3.318c-2.646-.591-4.502-.285-5.715.112-.914.299-1.641.707-3.195 1.137a19.69 19.69 0 01-3.288.615l1.506-1.352c-4.698 2.564-6.054 3.77-6.176 4.363-.016.08-.088.529-.408.984-.286.406-.629.617-.79.717-1.034.646-2.387 1.642-2.335 1.741.051.097 1.586-.391 3.011-1.127.275-.142.642-.343 1.168-.38.617-.043.881.18 1.383.215.647.046 1.009-.268 1.874-.737 1.053-.57 1.868-.837 3.441-1.352.489-.16 2.137-.699 2.212-.522.068.16-1.202.789-3.042 1.874a65.32 65.32 0 00-3.626 2.304l10.723-4.64c.798.186 7.634 1.746 9.832.553.943-.512 1.567-.922 1.567-.922 1.191-.783 1.436-1.142 2.151-1.444.485-.205 1.223-.398 2.274-.277.856.101 2.081.371 3.257 1.179.913.627 1.364 1.167 2.274 2.304 0 0 1.562 1.618 3.134 2.888 2.809 2.269 7.043 4.28 8.665 3.257.174-.11.863-.599 1.936-1.168.369-.196.674-.343.86-.43a20.765 20.765 0 005.346 3.441c1.567.693 3.657 1.118 7.835 1.966 4.042.821 5.383.911 6.729.86a19.594 19.594 0 004.179-.615l9.033-12.413c.105-.521.324-1.25.83-1.966.776-1.1 1.734-1.469 3.042-2.12 0 0 2.998-1.493 5.438-3.411.727-.571 1.7-1.42 2.735-2.612 1.097-1.475 1.53-2.767 1.721-3.687.195-.94.123-1.425.399-2.796.277-1.375.603-2.141.83-2.858.673-2.125.52-4.54.215-9.371-.061-.961-.128-1.692.092-2.704.288-1.322.954-2.6.768-2.704-.08-.045-.208.191-.369.154-.338-.077-.609-1.3-.123-2.182.334-.605.726-.509 1.014-1.075.467-.92-.034-2.228-.369-2.243-.23-.011-.238.594-.553.676-.685.178-1.294-2.51-3.38-4.455-1.161-1.083-1.243-.503-4.271-2.427-2.52-1.602-3.617-2.737-3.933-3.073a15.43 15.43 0 01-1.997-2.642l.338-1.137c-2.68-1.256-5.035-1.075-5.746.031-.139.216-.367.704-.154 1.628a33.82 33.82 0 00-.983-1.506c-1.419-2.048-2.559-3.195-2.98-3.718-.951-1.178-1.659-3.405-.492-8.019a17.561 17.561 0 01-1.813-6.207 16.99 16.99 0 01-.061-2.427l2.212-.246c.186.255.33.368.43.338.162-.049.214-.469.154-1.26l-2.919.246.092-.522a4.89 4.89 0 01-.017-.616c.029-.027.048-.055.078-.082.823-.725 1.797-.808 2.171-.819a6.503 6.503 0 00-1.024-.451 6.398 6.398 0 00-.931-.233c.216-.596.576-1.211 1.197-1.702.878-.694 1.84-.807 2.274-.83l1.004-3.626-.369.553c-.82 1.233-.958 1.457-1.188 1.475-.105.008-.436-.011-.881-.819a12.855 12.855 0 013.011-4.752c.306.449 3.64 5.245 6.145 4.568.67-.181 1.633-.85 2.888-1.721.857-.595 1.285-.892 1.639-1.249.38-.384.52-.614.86-.758.603-.256 1.287-.011 1.782.246a7.863 7.863 0 01-1.864 2.069 7.98 7.98 0 01-3.646 1.557c.776.086 2.913.218 4.998-1.086a7.469 7.469 0 002.048-1.905 41.574 41.574 0 016.883 3.933c1.852 1.313 3.108 2.443 5.285 3.011 1.813.473 3.441.342 4.568.143a33.193 33.193 0 007.116-5.418c-.234.44-.491.887-.786 1.341a17.739 17.739 0 01-2.622 3.154 11.762 11.762 0 002.13-1.925c2.21-2.557 2.749-5.439 2.909-6.883a17.999 17.999 0 01-1.471 4.013l-1.54.637a25.077 25.077 0 012.806-5.981l.594-.102c.095-.399.23-.971.389-1.659.912-3.942.957-4.51.901-5.182-.11-1.318-.547-2.327-.369-2.397.194-.076.791 1.091.881 1.045.08-.035-.295-1-.634-1.674zm-3.462 11.553a21.898 21.898 0 01-3.626 5.592l-.123.86a5.04 5.04 0 01-2.151 1.721 5.043 5.043 0 01-2.827.307c1.937-1.472 4.189-3.622 6.022-6.637 0 0 1.753-2.882 2.642-6.944.238-1.086.42-2.314-.061-3.626-.382-1.042-1.023-1.697-1.352-2.028-3.734-3.747-6.423-5.308-7.927-7.866-.615-1.047-1.315-2.741-1.29-5.346.817 2.689 2.031 4.174 3.011 5.039.727.642 1.388.998 2.458 2.151 1.127 1.215 1.05 1.528 2.028 2.458 1.086 1.032 1.584 1.031 2.888 2.089a13.684 13.684 0 012.212 2.274c.084 2.121-.064 5.856-1.904 9.956z" fill="#231f20"/><path d="M290.605 164.755a7.115 7.115 0 012.059-1.198 7.157 7.157 0 013.042-.43 6.24 6.24 0 01-1.997 1.26 6.302 6.302 0 01-3.104.368z" fill="#708035"/><path d="M299.823 168.699c.212.308.6.788 1.229 1.188.799.508 1.57.624 1.966.655a7.634 7.634 0 00-3.195-1.843z" fill="#fff"/><path d="M269.527 191.087a3.284 3.284 0 01.737 1.844l-.737 1.659-.86-2.581.86-.922zM272.477 196.864l1.475 2.335-1.598-1.352z" fill="#708035"/><path d="M273.429 214.117a40.137 40.137 0 011.46-2.412 2.308 2.308 0 01.245 1.383 3.479 3.479 0 01-1.705 1.029zM252.198 259.115c-.143.343-.126.724.074.979.297.378.983.455 1.504.035-.388-.023-.627-.145-.775-.254-.102-.076-.151-.139-.44-.416a14.861 14.861 0 00-.363-.344zM257.223 261.528c.127.215.363.544.763.81.806.535 1.672.41 1.897.37a4.546 4.546 0 01-2.66-1.18z" fill="#fff"/></g></g></switch></svg>