<svg xmlns="http://www.w3.org/2000/svg" viewBox="0 0 350 350"><switch><g><path d="M60,150.25c-0.013,46.596-0.025,93.192-0.038,139.788C136.642,290.025,213.321,290.013,290,290 c0.013-76.679,0.025-153.358,0.038-230.038c-42.457,0.013-84.914,0.025-127.371,0.038c-9.638-2.125-16.69-1.757-21.324-1.031 c-1.856,0.291-5.069,0.912-7.842,1.448c-7.738,1.495-9.484,2.029-13.333,2.667c-2.954,0.489-7.305,1.066-12.75,1.25 c0.874,1.348,2.398,3.446,4.75,5.5c5.082,4.439,8.765,4.159,16.917,8.667c4.239,2.344,9.476,5.948,9,7 c-0.208,0.46-1.458,0.321-6.083-0.583c-8.31-1.624-12.465-2.436-14.833-3.5c-3.31-1.487-5.568-3.269-10.083-6.833 c-4.735-3.738-5.075-4.783-9.333-7.833c-3.725-2.668-7.019-4.414-9.083-5.417c-3.068-1.491-7.492-3.641-13.081-4.59 c-4.281-0.727-8.3-0.205-16.336,0.84c-8.303,1.079-14.517,2.756-18.083,3.833c-1.998,0.603-3.653,1.166-4.833,1.583 c0.736,0.284,1.875,0.735,3.25,1.333c2.642,1.149,4.529,2.133,5.083,2.417c5.133,2.633,7.987,2.774,12.167,5 c1.928,1.027,7.439,3.961,10.593,9.956c1.909,3.627,3.85,10.076,1.24,12.544c-1.425,1.348-2.936,0.307-9.167,0.417 c-4.756,0.084-8.386,0.77-12.25,1.5c-2.464,0.466-5.718,1.187-9.5,2.333c3.896,1.395,7.154,2.636,9.583,3.583 C56.668,105.724,58.515,106.888,60,108c2.768,2.072,4.804,4.351,6.5,6.25c2.404,2.691,3.606,4.037,4.749,6.064 c3.097,5.492,2.769,10.417,5.241,13.103c2.103,2.285,2.947,2.895,2.947,2.895c0.522,0.377,0.922,0.603,1.344,1.156 c0.883,1.156,1.165,2.801,0.728,3.067c-0.361,0.219-1.17-0.526-1.509-0.817c-2.707-2.32-7.152-2.816-10.219-3.158 c-4.274-0.477-7.585,0.214-11.656,1.064c-1.796,0.375-3.269,0.778-4.289,1.08c1.529,1.163,2.776,2.014,3.633,2.576 c1.289,0.846,2.403,1.505,2.571,2.66c0.049,0.335,0.004,0.622-0.039,0.809C60,146.583,60,148.417,60,150.25z M137.625,80.938 c-3.225-2.383-8.625-5.592-14.188-7.563c0,0-0.001,0-0.001-0.001c-3.702-1.317-6.33-3.092-7.519-3.958 c-1.004-0.731-2.265-1.748-3.604-3.104c4.763-0.521,9.751-1.197,14.938-2.063c4.317-0.721,8.459-1.521,12.417-2.375 c-4.846,1.706-8.615,2.546-11.229,3c-4.669,0.81-4.687,0.813-4.687,0.813c-2.556,0.465-5.111,0.931-7.667,1.396 c0.309,0.397,0.811,1.003,1.5,1.667c3.16,3.046,6.14,3.349,11.167,5.333c1.805,0.713,4.817,1.92,8.313,4.167 c3.502,2.251,5.817,4.358,6.846,5.567c0.975,1.144,1.95,2.289,2.925,3.433c-0.226,0.107-0.452,0.214-0.678,0.322 c-0.496,0.004-0.992,0.008-1.489,0.012C142.027,84.443,139.494,82.318,137.625,80.938z M80.688,136.375 c0,0-1.145-1.236-3.188-4.063c-3.373-4.668-2.131-7.785-4.743-13.532c-0.759-1.671-2.107-4.143-4.57-6.843 c0.442,0.391,1.206,1.097,2.063,2.063c3.801,4.285,5.661,9.456,7.031,13.267c0.319,0.888,0.797,2.28,1.719,4.108 c0.355,0.703,1.074,2.116,2.188,3.688c2.516,3.552,4.056,3.7,5,6.125c0.325,0.835,0.676,2.187,0.438,4.125 c-0.688-0.688-1.375-1.375-2.063-2.063c0.01-0.392-0.008-1.018-0.188-1.75C83.845,139.343,82.38,138.202,80.688,136.375z" fill="#fff"/><path d="M280.5,280.5c-25.083,0-50.167,0-75.25,0c-4.194-5.206-10.292-12.865-17.5-22.25 c-19.553-25.459-29.33-38.188-34.5-49.25c-7.184-15.372-17.36-36.997-8.917-58.833c6.315-16.332,20.129-25.266,27.333-29.167 c-0.056-17.096-0.111-34.192-0.167-51.288c36.333-0.071,72.667-0.141,109-0.212C280.5,139.833,280.5,210.167,280.5,280.5z" fill="#191917"/><path d="M271,271c-24.959,0.028-49.919,0.056-74.878,0.083c-1.528-7.866-4.72-20.216-12.122-33.583 c-13.879-25.064-30.043-31.106-37.5-53.5c-2.606-7.825-4.587-18.964-2.167-33.833c9-8.167,18-16.333,27-24.5 c0.056-15.639,0.111-31.277,0.167-46.916c33.167,0.083,66.333,0.166,99.5,0.249C271,143,271,207,271,271z" fill="#768696"/><path d="M169.5,67.625c0.476-0.277,1.244-0.627,2.167-0.583c1.81,0.086,3.153,1.638,5.583,5.083 c2.923,4.144,2.676,4.304,3.875,5.792c3.657,4.538,8.338,6.002,8.25,6.167c-0.087,0.162-4.904-0.704-8.417-4.625 c-1.738-1.94-5.222-6.931-6.75-9.292c-0.287-0.443-1.109-1.726-2.38-1.861c-0.342-0.036-0.626,0.021-0.788,0.063 c0.248,0.303,0.66,0.805,1.168,1.423c8.907,10.825,11.344,13.199,14.854,14.833c0.764,0.356,2.041,0.892,3.75,1.313 c-0.356-0.334-0.728-0.785-0.625-1.188c0.397-1.552,7.478-0.956,8.438-0.875c4.117,0.346,9.168,0.771,14.375,3.875 c4.482,2.671,4.555,4.63,10.125,9.438c4.075,3.518,7.9,5.804,10.5,7.188c-6.375,5.042-12.75,10.083-19.125,15.125 c-14.375-5.208-28.75-10.417-43.125-15.625C170.75,91.792,170.125,79.708,169.5,67.625z" fill="#fff"/><path d="M205.417 248.354c1.004-.171 1.525.045 1.817.305.664.591.233 1.487.933 2.091.647.558 1.424.146 1.833.75.224.331.177.728.125 1.167-.134 1.126-.775 1.618-.542 1.958.186.271.748.182.833.167.707-.124.825-.75 1.231-.73.499.024.461.977 1.352 1.772.733.654 1.207.41 1.542.958.517.848-.356 1.857.083 2.292.511.506 1.915-.645 2.708-.083.522.37.462 1.256.458 1.625-.021 2.126 1.512 3.799 3.542 6.125 1.951 2.235 4.041 3.537 5.417 4.25-4.812 0-9.624 0-14.436 0-.563-1.329-1.123-1.698-1.564-1.75-.605-.072-1.11.45-1.5.167-.314-.228-.139-.636-.5-1-.408-.411-1.087-.348-1.25-.333-1.012.094-1.326.891-1.792.917-.592.032-1.46-1.185-2.708-6.367C203.806 257.873 204.611 253.114 205.417 248.354zM250.696 234.366c.53-.164 1.099-.019 1.447.369.426.475.449 1.237.02 1.792-.468.008-.68-.129-.787-.256-.233-.274-.038-.574-.282-.887-.253-.326-.658-.253-.718-.488C250.349 234.793 250.388 234.63 250.696 234.366zM221.25 227.875c-.212-.469.015-1.053.313-1.146.475-.147 1.383.878 1.167 1.375-.108.249-.472.304-.542.313C221.802 228.465 221.412 228.233 221.25 227.875zM221.5 229.583c-.034-.326-.285-.577-.542-.667-.264-.092-.49.002-.938.188-.473.196-.709.294-.729.458-.048.401 1.186 1.186 1.836.773C221.344 230.198 221.533 229.904 221.5 229.583zM223.604 231.5c.514-.601 1.188-.694 1.479-.438.225.198.241.622.083.896-.32.554-1.375.522-1.604.125C223.46 231.906 223.53 231.667 223.604 231.5zM211.354 222.396c.549-.153 1.535 1.129 1.313 1.479-.191.301-1.472.22-1.688-.5C210.866 222.999 211.054 222.48 211.354 222.396zM181.417 198.396c.165-.206.646-.127.938.021.853.432.837 1.836.833 1.979-.143.048-.713.222-1.13-.075-.21-.149-.312-.463-.515-1.092C181.321 198.549 181.379 198.442 181.417 198.396zM187.021 202.313c.541.008.895.377.875.688-.018.281-.339.46-.375.479-.603.068-1.022-.301-1.021-.604C186.501 202.655 186.722 202.43 187.021 202.313zM175.229 199.625c-.005-.191-1.702-.221-3.021-.958-.425-.238-.61-.436-.667-.5-.454-.508-.325-.879-.688-1.104-.417-.259-.77.119-1.159-.161-.241-.173-.142-.345-.487-.902-.185-.299-.345-.561-.656-.742-.384-.223-.781-.205-.948-.195-.522.03-.864.268-1.375.625-.391.273-.381.352-.375.375.037.138.436.078 1.188.208.314.054.583.102.877.23.404.176.621.402.873.624.44.386.541.373 1.438.979 1.878 1.27 1.76 1.552 2.5 1.792C173.983 200.302 175.234 199.79 175.229 199.625zM165.479 192.813c-.023.414-.623.695-.875.813-1.046.489-2.121.183-2.75.021-1.117-.287-2.696-.6-4.833-.75-.979-1.778-1.958-3.556-2.938-5.333 1.095.185 1.737-.046 2.124-.296.498-.323.663-.739 1.272-.891.085-.021.663-.157 1.167.125.608.341.63 1.025.917 1.708.396.944 1.191 1.467 2.783 2.512C164.264 191.981 165.513 192.204 165.479 192.813zM153.875 182.854c.368.393.96.925 1.813 1.292.752.324 1.216.307 1.271.521.069.272-.545.84-3.771 2.167L153.875 182.854zM257.391 267.578c.255.083.373.509.328.828-.072.514-.599.973-.938.859-.245-.082-.356-.452-.344-.719C256.462 267.987 257.045 267.465 257.391 267.578zM260.516 269.156c.154-.051.364.038.426.179.056.128-.143.234-.129.493.004.077.021.076.023.148.006.208-.121.452-.241.457-.151.007-.333-.364-.328-.699C260.267 269.656 260.267 269.239 260.516 269.156zM262.281 270.433c.029.002.37.03.522.306.057.104.067.207.068.27-.455.001-.91.001-1.365.002C261.653 270.643 261.972 270.413 262.281 270.433z" fill="#566675"/><g fill="#556775"><path d="M249.97,78.951c0.375,0.358,0.902,0.84,1.571,1.382c1.506,1.22,2.22,1.519,2.667,2.5 c0.331,0.727,0.42,1.622,0.167,1.748c-0.287,0.144-0.767-0.825-2.307-2.192c-1.244-1.104-2.156-1.914-3.152-2.179 c-0.147-0.039-0.558-0.136-0.958-0.461c-0.324-0.263-0.511-0.571-0.625-0.805c-4.625-0.011-9.25-0.022-13.875-0.032 c-0.037,0.348-0.175,1.113-0.792,1.629c-0.77,0.645-1.844,0.53-2.125,0.5c-0.771-0.082-1.043-0.386-1.625-0.25 c-0.471,0.11-0.8,0.426-1,0.667c-0.454,0.098-0.696-0.026-0.791-0.087c-0.51-0.33-0.633-1.353-0.1-2.474 c-5.28-0.012-10.559-0.025-15.839-0.037c0.694,0.054,1.387,0.197,1.5,0.577c0.115,0.387-0.478,0.662-0.625,1.188 c-0.379,1.355,2.252,4.201,4.964,4.163c2.052-0.029,3.442-1.7,3.786-1.351c0.564,0.572-2.162,4.237-1.75,4.563 c0.195,0.154,0.811-0.672,1.75-0.938c1.546-0.437,3.317,0.824,4.813,2.313c-0.239,0.123-2.191,1.153-2.029,2.128 c0.065,0.393,0.426,0.497,1.967,1.434c1.84,1.119,2.102,1.444,2.563,1.313c0.856-0.244,0.669-1.572,1.563-2.125 c0.577-0.357,1.668-0.43,3.938,1c-0.786-0.599-1.355-1.176-1.75-1.625c-0.756-0.859-0.785-1.147-1.313-1.438 c-1.008-0.556-1.815-0.008-2.25-0.563c-0.31-0.395-0.225-1.089,0.063-1.5c0.336-0.48,0.781-0.338,1.25-0.75 c0.805-0.707,0.298-1.833,0.75-2.125c1.057-0.682,5.133,4.622,6.563,3.839c0.537-0.294,0.237-1.194,1-1.714 c0.938-0.639,2.425,0.017,2.813,0.188c2.268,1,2.451,2.928,4.074,3.03c0.773,0.049,0.789-0.385,1.87-0.355 c1.285,0.036,2.272,0.677,2.681,0.95c0.638,0.425,1.072,0.892,1.337,1.216c-0.016,1.623,0.374,2.833,0.663,3.534 c0.288,0.697,0.489,1.184,0.969,1.695c0.797,0.849,1.398,0.737,2.094,1.617c0.52,0.657,0.352,0.932,0.81,1.595 c0.701,1.016,1.753,1.324,2.378,1.593c3.082,1.328,3.778,5.162,4.375,4.938c0.663-0.249,0.268-5.145-1.938-6.063 c-0.562-0.234-1.343-0.252-1.721-0.899c-0.26-0.446-0.307-1.152,0.033-1.476c0.703-0.672,2.697,0.637,2.938,0.25 c0.136-0.218-0.359-0.858-0.875-1.25c-0.691-0.526-1.193-0.435-1.438-0.875c-0.12-0.216-0.201-0.601,0.125-1.313 c0.199-0.019,0.496-0.022,0.815,0.096c0.814,0.3,1.131,1.147,1.372,1.592c0.961,1.77,2.826,1.042,5.125,3.125 c0.202,0.183,0.21,0.209,1.938,2.438c1.129,1.457,2.044,2.631,2.625,3.375V79C263.99,78.984,256.98,78.967,249.97,78.951z M224.083,82.083c-0.572,0.144-1.23-0.35-1.208-0.792c0.017-0.347,0.453-0.609,0.792-0.68c0.395-0.082,0.987,0.026,1.125,0.43 C224.93,81.449,224.541,81.968,224.083,82.083z M227.501,85.038c-0.715-0.259-0.636-1.091-1.48-1.476 c-0.233-0.107-0.471-0.149-0.646-0.395c-0.148-0.208-0.171-0.449-0.167-0.625c0.377-0.672,0.761-0.739,0.875-0.75 c0.661-0.065,1.219,0.865,1.625,1.542c0.394,0.657,0.598,1.263,0.708,1.677C227.986,85.153,227.691,85.107,227.501,85.038z M236.208,84.917c-0.632,0.784-1.459,1.089-1.875,1.208c-0.16-0.088-0.768-0.448-0.958-1.167 c-0.168-0.636,0.014-1.467,0.5-1.708c0.215-0.107,0.371-0.04,0.75,0c1.331,0.14,1.945-0.418,2.208-0.125 C237.12,83.443,236.644,84.376,236.208,84.917z M255.25,95.875c-0.106-0.427,0.108-0.853,0.458-1 c0.418-0.175,0.97,0.07,1.125,0.583c0.159,0.481,0.082,0.956-0.167,1.125C256.351,96.799,255.635,96.604,255.25,95.875z M256.458,100.417c-0.313-0.034-0.557-0.512-0.542-0.917c0.016-0.403,0.29-0.775,0.708-0.958 c0.051,0.028,0.542,0.311,0.583,0.833C257.25,99.901,256.82,100.455,256.458,100.417z"/><path d="M233.458 78.913c-2.139-.017-4.278-.035-6.417-.052-.006.012-.01.024-.016.037C229.17 78.903 231.314 78.908 233.458 78.913L233.458 78.913zM249.875 78.861c-.861 0-1.722 0-2.583 0 .011.025.028.056.042.084.879.002 1.758.004 2.637.006C249.94 78.922 249.903 78.888 249.875 78.861z"/></g><path d="M249.031 89.281c-.673.099-1.55-.625-1.527-1.24.03-.817 1.628-.974 1.652-1.697.028-.86-2.191-1.93-2.87-1.361-.586.491.303 1.928-.505 2.705-.253.243-.675.425-1.063.344-.876-.182-.671-1.512-1.813-2.375-.916-.693-1.732-.352-2-.969-.271-.623.274-1.63.785-1.687.424-.048.654.577 1.121.5.298-.049.624-.373.625-.688.003-.776-1.969-.955-2.094-1.938-.07-.55.497-.903.294-1.391-.13-.313-.486-.461-.732-.533.74-.005 1.479-.009 2.219-.014-.001.165.014.409.094.688.229.801.812 1.25 1.656 1.906 2.147 1.668 2.01 1.583 2.125 1.656 1.711 1.082 2.567 1.623 3.813 1.938.337.085 1.079.248 1.159.654.061.308-.31.496-.253.846.083.504.938.636.906.844-.037.241-1.177-.072-2.156.5C249.615 88.468 249.654 89.19 249.031 89.281zM258.094 80.5c-.181-.192-.8-.806-1.5-.688-.153.026-.366.096-.844.531-1.042.948-1.183 1.662-1.56 1.642-.346-.018-.441-.631-.908-1.361-.548-.856-1.287-1.369-1.845-1.674 2.136 0 4.272 0 6.408 0 .342.345.826.835 1.406 1.424 1.953 1.986 2.164 2.232 2.125 2.281C261.316 82.729 260.678 82.383 258.094 80.5zM264.75 83.844c.368-.248.998.108 1.313.469.467.536.363 1.229.344 1.344-.708.224-1.409.014-1.719-.469C264.418 84.768 264.402 84.079 264.75 83.844zM271 92.872c-.008-1.235-.378-1.883-.719-2.247-.226-.241-.381-.296-.969-.844-.175-.163-.587-.549-1-1.031-.458-.535-1.23-1.553-1.094-1.688.116-.114.688.601 2.072 1.317.356.184.726.348 1.115.745.3.306.484.62.594.845C271 90.938 271 91.905 271 92.872zM206.583 256c.296-.079.488.353 1 .5.892.257 1.509-.992 2.208-.833.561.127.779 1.016.943 1.555.671 2.209 1.521 2.112 3.011 4.945.148.281 2.572 4.944 1.598 5.697-.614.475-2.763-.462-3.927-1.947-.526-.671-.702-1.264-1.25-1.333-.549-.069-.827.468-2.042 1.25-.979.63-1.602 1.03-2 .833-.532-.263-.012-1.357-.167-4.042 0 0-.085-1.718.083-4.75C206.081 257.165 206.152 256.116 206.583 256z" fill="#44525f"/><path d="M221.25 272.042c.085-.11.214-.31.25-.583.073-.558-.301-.996-.375-1.083-.296-.346-.497-.283-.667-.583-.176-.311-.007-.463-.08-.918-.135-.846-.895-1.426-1.045-1.54-.288-.219-.378-.197-.667-.458-.212-.192-.363-.383-.632-.789-.461-.697-.496-.856-.743-1.211-.345-.495-.641-.707-1-1.042-1.005-.939-.9-1.352-2.292-3.125-.484-.616-.876-1.049-1.208-1.417-.849-.938-1.62-1.677-2.208-2.208 1.265.799 2.239 1.424 2.875 1.833 1.563 1.006 1.687 1.104 2.125 1.292.536.23.984.356 1.583.792.341.248.693.504.958.958.411.704.09.987.455 1.573.401.643.875.443 1.42 1.177.224.302.082.251.583 1.25.421.84.649 1.128.792 1.292.306.351.593.553.75.667 1.428 1.035 1.68 1.671 3.292 2.833.379.273.968.673 1.745 1.096 1.238.065 2.476.13 3.713.195-1.042-2.3-1.679-2.812-2.083-2.75-.144.022-.31.125-.583.083-.363-.056-.742-.341-.875-.75-.101-.312-.098-.815.167-1 .721-.505 2.88 1.698 3.208 1.375.106-.105-.038-.416-.25-.875-.168-.364-.431-.808-.875-1.292-.408-.445-.546-.462-1.083-1.042-.401-.433-.65-.705-.576-.835.096-.169.716-.057 1.201.168 1.051.488 1.601 1.57 1.833 2.042.448.909.342 1.244.75 1.5.572.359 1.026-.144 1.875.042.731.16.999.665 2.042 1.792.47.508 1.162 1.211 2.083 2C232.222 272.347 226.736 272.194 221.25 272.042zM206.5 258.167c.142-.109.379-.26.702-.343.161-.042.898-.231 1.307.164.257.248.293.638.324.971.042.453-.069.589.042.708.266.287 1.055-.342 1.448-.094.234.148.357.629.011 1.969-.081.077-.206.172-.375.208-.495.108-1.067-.346-1.333-.833-.339-.621.002-.961-.375-1.417-.342-.413-.953-.533-1-.542-.43-.079-.702.04-.833-.125C206.294 258.679 206.391 258.394 206.5 258.167zM211.708 263.292c.071-.127.181-.271.333-.29.352-.045.613.621 1.148 1.466.966 1.527 1.889 2.155 1.644 2.615-.057.108-.159.17-.25.208-.085.111-.266.319-.458.292-.188-.027-.294-.266-.342-.37-.38-.821-1.079-1.688-1.366-2.005-.51-.564-.847-.642-.917-1.083C211.448 263.794 211.584 263.495 211.708 263.292z" fill="#191917"/><path d="M216.042 265.833c.248-.256.439-.255.5-.25.371.03.742.604.75 1.458-.229.116-.4.101-.483.085C216.393 267.047 216.05 266.526 216.042 265.833zM224.333 263.917c.294-.182.639-.254.86-.117.323.201.432.882-.027 1.493-.479.219-1.014-.012-1.167-.418C223.879 264.553 224.008 264.15 224.333 263.917zM225.474 267.792c-.048.004-.432.045-.641.375-.187.295-.157.7.083 1 .762-.323 1.184-.761 1.108-1.04C226.013 268.086 225.949 267.895 225.474 267.792zM216.458 269.625c-.232.265-.173.667.09.845.319.216.764-.017.796-.204C217.376 270.079 217.016 269.827 216.458 269.625zM230.625 234.563c.149-.207.516-.254.75-.125.274.151.276.497.375.813.373 1.193 1.855 1.12 2.5 2.438.098.201.224.529.25 1-.642-.438-1.208-.839-1.688-1.188-1.028-.746-1.758-1.319-2.125-2.188C230.502 234.873 230.543 234.676 230.625 234.563zM239.313 241.625c.308.194 1.494.973 1.563 1.875.008.108.027.353-.125.5-.226.219-.704.1-.938-.034C239.268 243.653 239.094 242.718 239.313 241.625zM232.313 247.25c.014-.306.5-.508.813-.563.622-.108 1.366.232 1.375.563.009.345-.782.776-1.438.625C232.735 247.799 232.299 247.546 232.313 247.25zM246.875 248.625c.141-.086.664-.397 1.095-.215.583.246.905 1.352.405 2.652-.195-.179-.508-.439-.938-.688-.414-.239-.623-.286-.75-.5C246.57 249.676 246.514 249.318 246.875 248.625zM252.5 248.938c.351.111.439.802.375 1.25-.071.503-.354.846-.5 1-.657.127-1.233-.122-1.375-.5-.169-.448.323-.945.625-1.25C251.872 249.188 252.211 248.846 252.5 248.938zM252.625 244.875c.345-.145.684-.219.875-.063.242.198.062.612.312.809.3.237.852-.123.938.003.053.078-.086.326-.875 1.042-.077-.124-.215-.315-.438-.48-.566-.419-1.151-.28-1.259-.545C252.131 245.527 252.165 245.311 252.625 244.875zM251.583 252.458c-.641.256-.957.677-.875.917.082.24.558.286.625.292.129-.066.206-.148.25-.208C251.775 253.2 251.767 252.813 251.583 252.458zM253.708 255.25c.242-.17.562-.168.792 0 .205.15.306.41.26.667-.219.322-.658.382-.927.167C253.6 255.897 253.535 255.535 253.708 255.25zM258.208 245.792c.021.158.091.506.375.75.552.474 1.557.251 1.667-.083.05-.151-.074-.355-.208-.458-.252-.193-.484.009-.792-.167-.277-.159-.259-.421-.458-.458C258.68 245.354 258.497 245.403 258.208 245.792zM259.917 250.833c.253-.167.662.034.882.203.417.32.259.605.659 1.089.395.477.7.381 1 .875.154.254.318.683.167.833-.214.212-.952-.237-1.042-.292-.367-.227-.377-.347-1.083-1.083-.551-.575-.776-.743-.792-1.083C259.707 251.337 259.695 250.98 259.917 250.833zM260.875 255.123c.139-.579.277-.7.375-.707.213-.014.259.511.869 1.71.141.277.337.64.381 1.165.014.173.008.318 0 .417-.315.094-.708.159-.917-.042-.205-.197-.108-.533-.125-.958C261.442 256.314 261.325 255.771 260.875 255.123zM264.125 247.833c-.102.073.102.79.667 1.208.372.275.607.205 1 .375.369.16.684.449 1.375 1.75.71 1.337.586 1.424 1.167 2.458.648 1.154 1.178 1.715 1.333 1.875.543.559 1.022.869 1.208 1 .778.546 1.743 1.677 2.542 4.25 0-1.513 0-3.026 0-4.54-.758-.92-1.459-1.624-2-2.127-1.004-.933-1.355-1.078-1.67-1.144-.599-.125-.994.052-1.247-.231-.266-.298.034-.647-.083-1.333-.082-.475-.415-.886-1.083-1.708-.578-.712-.876-1.07-1.292-1.167-.395-.092-.552.064-1-.083C264.444 248.22 264.211 247.772 264.125 247.833zM265.042 256.792c.021-.218.07-.714.25-.75.264-.053.682.913.785 1.153.341.79.236.983.506 1.222.49.435 1.099.037 1.417.417.388.465-.264 1.371.083 1.667.256.218.665-.227 1.235-.051.564.175 1.081.896.907 1.513-.079.28-.327.632-.643.66-.341.03-.47-.345-1.249-.789-.322-.184-.643-.362-.815-.241-.18.127-.015.456-.268.783-.036.047-.207.266-.415.257-.31-.013-.581-.528-.633-.978-.055-.468.151-.661.006-.863-.161-.225-.478-.07-1.001-.201-.068-.017-1.042-.276-1.291-1.049-.103-.319-.111-.815.167-1.083.318-.308.738-.051.958-.333C265.242 257.868 264.966 257.563 265.042 256.792zM262.958 261.125c.227-.227.408-.251.5-.25.461.007.948.695 1.083 1.758-.147.169-.457.472-.782.428C263.294 262.997 262.85 262.228 262.958 261.125zM267.542 263.792c.181-.224.702-.186 1.042.042.467.313.248.755.75 1.5.387.574.71.596.792 1.042.077.42-.111.935-.35.974-.325.052-.364-.838-1.317-1.766-.325-.316-.672-.555-.875-1.083C267.518 264.33 267.385 263.985 267.542 263.792zM268.917 100.208c-.207.106-.189.893.208 1.417.313.412.614.333 1.583.833.906.467 1.26.855 1.375.75.126-.115-.133-.737-.583-1.167-.493-.471-.734-.252-1.25-.75-.276-.267-.4-.517-.863-.86C269.025 100.163 268.94 100.197 268.917 100.208zM270.792 97.833c-.579-.072-.855-.811-.708-1 .205-.264 1.499.198 1.5.583C271.584 97.636 271.166 97.88 270.792 97.833zM265.125 92.917c.486-.131.866.05.919.267.048.197-.178.411-.211.442-.369.175-.742.027-.833-.208C264.91 93.185 265.116 92.928 265.125 92.917zM263.25 99.708c-.285-.041-.557.141-.625.417-.07.282.094.577.375.667.335-.07.557-.348.542-.625C263.526 99.889 263.278 99.726 263.25 99.708zM244.042 78.929c-.177.115-.466.338-.459.613.008.28.319.455.645.668 1.032.673 1.468 1.241 2.813 1.999.131.074.39.217.5.125.123-.103-.005-.444-.042-.542-.397-1.056-1.41-.964-2.083-2.083-.191-.318-.307-.654-.667-.792C244.49 78.817 244.226 78.869 244.042 78.929zM253.042 85.167c.135-.067.492-.222.917-.125.362.083.785.35.75.542-.04.219-.691.41-1.167.167C253.222 85.587 253.086 85.282 253.042 85.167zM256.333 87.292c.12-.116.547-.497 1.208-.542.474-.032.837.125 1 .208-.153.441-.539.762-1 .833C257.078 87.863 256.611 87.67 256.333 87.292zM255 88.292c.63-.315.667-.333.667-.333l0 0c0 0 .264.514.458.833.147.242.371.565.708.917-.109.079-.487.335-.912.242C255.358 89.828 254.906 89.139 255 88.292z" fill="#191917"/><path d="M214.506,215.243c0.544-0.102,1.033,0.206,1.14,0.626c0.105,0.413-0.186,0.831-0.505,0.982 c-0.67,0.317-1.692-0.445-1.624-0.949C213.575,215.48,214.391,215.271,214.506,215.243z"/><path d="M136.25,239.625c0.743,0.625,1.954,1.58,3.563,2.563c2.55,1.558,4.717,2.342,5.688,2.688 c11.107,3.951,15.979,5.493,20.875,7.75c3.326,1.533,6.185,2.851,9.625,5.438c2.771,2.083,9.004,6.892,12.313,15.438 c1.094,2.826,1.577,5.307,1.813,7c0.708,0,1.417,0,2.125,0c-0.131-1.207-0.419-2.95-1.125-4.938 c-1.043-2.935-2.495-4.992-3.867-6.756c-2.856-3.669-5.654-7.263-10.299-10.867c-10.382-8.057-17.527-6.495-36.896-16.314 C138.394,240.779,137.056,240.062,136.25,239.625z" fill="#191917"/><path d="M302.875 189.75c-5.545-7.396-11.847-15.089-19-22.875-3.186-3.469-6.36-6.758-9.5-9.875 0-5.333 0-10.667 0-16-4.759-2.309-9.518-4.619-14.277-6.928 1.625-.869 5.224-3.103 7.152-7.447 2.633-5.935 1.061-13.359-3.969-18.906-2.147 2.402-7.851 8.134-17.281 10.656-8.234 2.202-15.11.833-18.25 0 4.742-3.336 9.873-7.333 15.141-12.094 6.235-5.636 11.41-11.211 15.651-16.311-6.93.589-14.63 1.604-22.917 3.28-9 1.82-17.073 4.091-24.125 6.452-1.425-.463-3.631-1.122-6.375-1.702-6.418-1.357-7.8-.593-13.125-1.875-4.163-1.002-8.184-2.026-10.625-5.375-.583-.8-.56-1.024-2-3.25-1.426-2.203-3.221-4.722-4.347-6.031-3.234-3.758-7.639-5.317-10.713-6.404-5.13-1.815-9.446-1.93-14.482-2.064-3.398-.091-6.227.076-8.208.25.855.372 2.124.909 3.681 1.507 4.19 1.609 5.021 1.571 6.694 2.368 3.916 1.866 6.001 5.24 6.625 6.25 2.015 3.261 1.375 4.764 3.111 8.756 1.37 3.151 3.264 5.652 5.181 7.619-5.214-.497-9.448-.507-12.417-.417-3.307.101-5.09.329-8.325.105-2.867-.199-5.388-.65-8.938-1.524-4.852-1.194-11.024-2.713-18.903-6.165-4.368-1.914-9.998-4.418-16.417-9.083C95.41 77.937 95.036 76.034 90.583 73c-4.283-2.918-11.208-6.112-22.333-6.25 1.748 1.051 4.387 2.834 7.083 5.583C76.73 73.757 79.417 76.739 84 85.5c2.818 5.385 2.67 5.92 4.583 9.583 3.136 6.006 6.993 13.391 14.333 18.417 3.878 2.655 8.03 3.937 16.333 6.5 8.408 2.595 13.296 3.107 13.25 4.167-.054 1.234-6.765 2.219-12.5 2.167-2.92-.026-14.993-.136-23.35-7.051-1.231-1.018-3.189-2.853-4.687-4.328-3.631-3.575-5.338-5.807-6.463-6.954-2.48-2.529-7.232-4.997-17.25-4.375 2.647 1.571 4.72 3.122 6.222 4.352 2.069 1.694 3.385 2.772 4.778 4.607 1.688 2.224 2.498 4.257 3.405 6.534 1.307 3.281 1.098 3.947 2.095 6.299.955 2.253 2.089 4.783 4.5 6.833 1.499 1.274 2.738 1.717 3.833 2.25 5.341 2.598 8.297 7.839 9.75 10.417 3.71 6.579 3.895 12.91 3.792 15.833-4.366-2.709-8.128-3.958-10.853-4.593-2.84-.662-5.832-.955-9.105-3.241-1.273-.889-2.402-1.948-3.167-2.667-3.393-3.185-3.106-4.052-5.083-5.333-1.671-1.083-3.42-1.361-6.917-1.917-2.326-.37-4.278-.474-5.625-.5 3.326 1.068 7.984 3.186 9.385 7.359.391 1.164.403 2.117.407 2.808.049 9.494-.819 19.365-.547 27.081.098 2.763.199 5.33.858 8.594.358 1.775.686 2.561 1.022 4.908.235 1.646.557 3.278.833 4.917.721 4.266 2.011 4.789 6 14.166 1.351 3.176 2.449 4.514 3.416 5.917 0 0 1.666 2.415 3.697 4.632 5.644 6.161 24.465 19.924 33.303 26.618 0 0 5.873 4.449 16.25 13.75 1.591 1.426 3.282 3.001 5.167 5.25 1.707 2.037 2.578 3.077 3.659 4.741 1.282 1.974 2.324 4.005 4.747 5.403.284.164.524.283.678.356.038-.184.074-.407.11-.62-.09-.055-.176-.107-.277-.172-1.412-1.485-2.503-2.813-3.292-3.833-.584-.755-1.506-1.949-2.583-3.625-.949-1.476-1.126-1.94-1.833-2.792-.991-1.193-2.036-1.961-2.75-2.417.111-.472.222-.944.333-1.417.128.05.328.132.565.247 2.39 1.16 3.575 3.261 4.001 3.988 1.832 3.126 4.457 6.144 6.054 8.162.053-.764.071-1.601.005-2.522-.278-3.877-1.776-7.07-3.834-10.167-4.925-7.413-10.185-9.551-15.917-15.917-1.882-2.09-3.241-3.599-4.646-5.792-.81-1.265-.976-1.727-1.771-2.625-1.174-1.327-2.142-1.822-2.854-3.375-.333-.725-.488-1.417-.438-1.438.05-.02.264.64.813 1.25.44.489.939.771 1.313.938-.247-.871-.469-1.854-.625-2.938-.302-2.093-.269-3.947-.125-5.438.703.963 1.729 2.284 3.083 3.75 4.182 4.53 8.231 6.924 9.083 7.417 3.322 1.92 5.971 2.642 9.167 3.583 13.078 3.852 20.156 5.937 26.622 10.14 2.238 1.455 5.49 3.87 8.918 7.726.035-.474.14-.993.459-1.116 1.221-.472 4.906 5.1 6.833 10.25.898 2.399 1.838 5.84 1.958 10.25 4.042 0 8.083 0 12.125 0l.25-4.25c-.106-11.123.141-22.941.875-35.375.885-14.982 2.369-29.017 4.208-42-11.569 3.833-23.139 7.667-34.708 11.5-5.05-3.432-13.145-10.03-18.625-21-2.322-4.648-4.545-9.098-4.625-15.25-.111-8.546 3.887-14.943 11.625-27.25 3.829-6.089 8.206-12.022 8.5-11.833.177.114-1.21 2.414-2.958 5.792 0 0-3.515 6.791-6.292 14.25-3.679 9.884-5.518 14.825-4.333 19.867.959 4.079 3.141 6.696 7.083 11.424 4.502 5.4 9.068 9.024 12.25 11.25 10.125-2.36 17.811-4.201 22.333-5.292 10.309-2.486 15.056-3.692 18.149-1.004 1.768 1.537 2.32 4.436 3.351 10.17.986 5.483 1.308 10.08 1.417 13.25 3.502 1.772 7.812 3.619 12.875 5.125 6.231 1.853 11.844 2.666 16.375 3 .972 2.123 3.175 6.112 7.62 8.935 1.519.965 3.92 2.187 8.38 2.94 8.606 1.454 16.57-.24 22-2 2.667 1.259 5.333 2.518 8 3.777l9.625-9.652c.903-12.065 1.806-24.131 2.708-36.196C308.514 190.369 305.694 190.06 302.875 189.75zM101.5 230.833c-.278.266-3.615-2.829-5.417-4.5-3.437-3.188-1.822-2.046-2.833-2.875-.789-.646-1.789-1.356-1.667-2.125.038-.24.176-.422.292-.542.07-.034.174-.073.302-.078.697-.028 1.254.99 1.448 1.328.695 1.213 1.592 2.199 2.752 3.473 1.754 1.928 3.83 2.819 4.995 4.903C101.452 230.563 101.562 230.774 101.5 230.833zM108.208 236.083c-.039.03-.12.026-.792-.458-1.107-.798-1.66-1.197-1.583-1.375.084-.194.873-.161 1.458.208C108.065 234.946 108.377 235.954 108.208 236.083zM119.094 244.188c-.108.139-.398.145-.719 0-.583-.403-1.054-.743-1.375-.979-.928-.681-1.223-.94-2.188-1.646-1.023-.749-.852-.575-1.313-.938-1.457-1.145-1.316-1.422-2.156-1.875-.193-.104-.621-.316-.969-.781-.148-.198-.239-.384-.292-.51.249-.012.62-.001 1.042.125.723.216 1.177.644 1.417.875.534.516.482.735.958 1.25.288.312.52.461 1.417 1 1.027.617 2.011 1.306 3.042 1.917.181.108.806.416 1.083 1.042C119.098 243.794 119.205 244.044 119.094 244.188zM143 262.708c.194.225.359.45.5.667-.125.472-.25.944-.375 1.417-.478-.53-.993-1.167-1.5-1.917-.459-.678-.828-1.327-1.125-1.917C141.199 261.236 142.172 261.75 143 262.708zM132.833 254.458c.763-.083 1.243.594 2.292 1.542 1.776 1.604 2.456 1.517 3 2.667.303.64.368 1.251.375 1.667-2.139-1.847-4.278-3.694-6.417-5.542C132.248 254.658 132.504 254.494 132.833 254.458zM127.583 249.958c0 0 2.984 1.805 3.417 3.167.117.37.152.748.152.748.013.144.015.262.015.336-1.181-1.145-2.236-1.958-3-2.5-1.252-.888-1.561-.931-2.583-1.792-.846-.712-1.05-1.033-2.208-1.958-.774-.618-1.16-.927-1.403-1.075-.786-.48-1.281-.601-1.43-1.05-.129-.389.073-.805.25-1.083.186.01.459.052.716.223.338.224.414.515.617.819.341.512.7.552 1.308.976.746.52.863.916 1.442 1.524C125.557 249.007 125.793 248.876 127.583 249.958zM75.042 196.75c.238.199.537.497.792.917.114.188.201.369.266.532.48-2.269.661-2.752.734-2.741.134.021-.228 1.682.167 3.995.125.729.275 1.235.542 2.13.303 1.017.768 2.409 1.479 4.042-.403-.494-1.013-1.317-1.555-2.44-.489-1.014-.672-1.682-1.248-3.317C75.962 199.139 75.569 198.062 75.042 196.75z" fill="#191917"/><path d="M74.629,189.865c0.119-0.747,0.204-0.893,0.26-0.891c0.167,0.008,0.058,1.37,0.444,3.385 c0.217,1.135,0.476,1.875,0.559,3.334c0.018,0.314,0.023,0.574,0.024,0.75c-0.106-0.172-0.209-0.354-0.307-0.547 C74.556,193.826,74.51,191.459,74.629,189.865z" fill="#191917"/><path d="M182.5 117.333c11.528 3.528 23.056 7.056 34.583 10.583 7.833 7.972 15.667 15.944 23.5 23.917-6.301-.555-12.602-1.11-18.902-1.665-4.338-1.778-8.676-3.557-13.014-5.335.781-2.321 1.457-5.667.167-8.917-1.676-4.221-5.63-5.662-13-9.917C192.491 124.07 187.865 121.227 182.5 117.333zM220.75 117.833c8.222-6.583 16.444-13.167 24.667-19.75-5.096.092-9.09 1.174-11.667 2.083-3.562 1.257-8.353 2.949-12.167 7.583-2.417 2.937-3.535 5.955-4.083 7.917C218.583 116.389 219.667 117.111 220.75 117.833zM289 197.083L293.417 207.25 280.667 199.333z" fill="#7b8e9d"/><path d="M68.5 47.25c2.683-.814 6.841-1.667 11.833-1.083 3.011.352 7.574.885 11.583 4.083 1.482 1.182 1.588 1.691 5.833 6.333 2.092 2.288 3.848 4.113 5 5.292-5.289.015-8.702-1.413-10.833-2.708-2.318-1.409-2.388-2.216-6.035-4.825-1.789-1.28-4.586-3.256-8.549-4.842C75.288 48.681 72.297 47.712 68.5 47.25zM97.688 190.688c.202-.111.774.84 1.938 1.938 1.129 1.065 2.148 1.638 3.125 2.188 6.671 3.751 13.562 6.125 13.563 6.125 9.367 3.226 14.051 4.839 17 7.375 5.844 5.024 8.175 11.712 8.688 13.875.193.815.463 2.401.612 3.356.349 2.226.747 4.764.325 4.894-.268.082-.755-.844-1.063-1.375-1.135-1.962-2.671-3.233-5.742-5.773-4.916-4.067-12.928-8.29-14.133-8.914-9.403-4.872-10.446-4.436-13.813-7.438-3.786-3.376-6.223-7.008-6.945-8.121-1.309-2.017-1.945-3.469-2.555-4.879C98.515 193.537 97.361 190.867 97.688 190.688zM227.938 124.594c14.243 7.691 28.486 15.382 42.729 23.073l-6.333 10.833L301 194.167l10.333-3.488-2.708 36.196-9.958-27.542-7.01-11.521-6.969 1.844-34.406-30.906c1.433-1.46 3.514-4.068 3.719-7.5.185-3.1-1.193-6.324-7.438-12.5C242.654 134.884 236.591 129.617 227.938 124.594zM239 109.625c2.688 2.25 5.375 4.5 8.063 6.75.916 1.467 2.293 4.118 2.688 7.688.243 2.201.039 4.079-.226 5.443-7.258-3.71-14.516-7.42-21.774-11.13C231.5 115.458 235.25 112.542 239 109.625zM215.25 135.188L221.438 146.5 237.898 149.1 227.274 138.288z" fill="#fff"/></g></switch></svg>