<svg xmlns="http://www.w3.org/2000/svg" viewBox="0 0 350 350" style="enable-background:new 0 0 350 350" xml:space="preserve"><switch><g><path style="fill:#fff" d="m60 150.25-.038 139.788L290 290l.038-230.038L162.667 60c-9.638-2.125-16.69-1.757-21.324-1.031-1.856.291-5.069.912-7.842 1.448-7.738 1.495-9.484 2.029-13.333 2.667a98.138 98.138 0 0 1-12.75 1.25 26.276 26.276 0 0 0 4.75 5.5c5.082 4.439 8.765 4.159 16.917 8.667 4.239 2.344 9.476 5.948 9 7-.208.46-1.458.321-6.083-.583-8.31-1.624-12.465-2.436-14.833-3.5-3.31-1.487-5.568-3.269-10.083-6.833-4.735-3.738-5.075-4.783-9.333-7.833a62.799 62.799 0 0 0-9.083-5.417c-3.068-1.491-7.492-3.641-13.081-4.59-4.281-.727-8.3-.205-16.336.84-8.303 1.079-14.517 2.756-18.083 3.833a109.066 109.066 0 0 0-4.833 1.583c.736.284 1.875.735 3.25 1.333 2.642 1.149 4.529 2.133 5.083 2.417 5.133 2.633 7.987 2.774 12.167 5 1.928 1.027 7.439 3.961 10.593 9.956 1.909 3.627 3.85 10.076 1.24 12.544-1.425 1.348-2.936.307-9.167.417-4.756.084-8.386.77-12.25 1.5a91.117 91.117 0 0 0-9.5 2.333 365.998 365.998 0 0 1 9.583 3.583c9.332 3.64 11.179 4.804 12.664 5.916 2.768 2.072 4.804 4.351 6.5 6.25 2.404 2.691 3.606 4.037 4.749 6.064 3.097 5.492 2.769 10.417 5.241 13.103 2.103 2.285 2.947 2.895 2.947 2.895.522.377.922.603 1.344 1.156.883 1.156 1.165 2.801.728 3.067-.361.219-1.17-.526-1.509-.817-2.707-2.32-7.152-2.816-10.219-3.158-4.274-.477-7.585.214-11.656 1.064a54.02 54.02 0 0 0-4.289 1.08 63.63 63.63 0 0 0 3.633 2.576c1.289.846 2.403 1.505 2.571 2.66.049.335.004.622-.039.809L60 150.25zm77.625-69.312c-3.225-2.383-8.625-5.592-14.188-7.563l-.001-.001a29.915 29.915 0 0 1-7.519-3.958 29.306 29.306 0 0 1-3.604-3.104 267.045 267.045 0 0 0 27.355-4.438c-4.846 1.706-8.615 2.546-11.229 3l-4.687.813-7.667 1.396c.309.397.811 1.003 1.5 1.667 3.16 3.046 6.14 3.349 11.167 5.333 1.805.713 4.817 1.92 8.313 4.167 3.502 2.251 5.817 4.358 6.846 5.567l2.925 3.433-.678.322-1.489.012c-2.642-3.141-5.175-5.266-7.044-6.646zm-56.937 55.437s-1.145-1.236-3.188-4.063c-3.373-4.668-2.131-7.785-4.743-13.532-.759-1.671-2.107-4.143-4.57-6.843A24.289 24.289 0 0 1 70.25 114c3.801 4.285 5.661 9.456 7.031 13.267.319.888.797 2.28 1.719 4.108a28.166 28.166 0 0 0 2.188 3.688c2.516 3.552 4.056 3.7 5 6.125.325.835.676 2.187.438 4.125l-2.063-2.063a6.64 6.64 0 0 0-.188-1.75c-.53-2.157-1.995-3.298-3.687-5.125z"/><path style="fill:#191917" d="M280.5 280.5h-75.25a1222.308 1222.308 0 0 1-17.5-22.25c-19.553-25.459-29.33-38.188-34.5-49.25-7.184-15.372-17.36-36.997-8.917-58.833 6.315-16.332 20.129-25.266 27.333-29.167l-.167-51.288 109-.212.001 211z"/><path style="fill:#768696" d="m271 271-74.878.083c-1.528-7.866-4.72-20.216-12.122-33.583-13.879-25.064-30.043-31.106-37.5-53.5-2.606-7.825-4.587-18.964-2.167-33.833l27-24.5.167-46.916L271 79v192z"/><path style="fill:#fff" d="M169.5 67.625c.476-.277 1.244-.627 2.167-.583 1.81.086 3.153 1.638 5.583 5.083 2.923 4.144 2.676 4.304 3.875 5.792 3.657 4.538 8.338 6.002 8.25 6.167-.087.162-4.904-.704-8.417-4.625-1.738-1.94-5.222-6.931-6.75-9.292-.287-.443-1.109-1.726-2.38-1.861a2.219 2.219 0 0 0-.788.063l1.168 1.423c8.907 10.825 11.344 13.199 14.854 14.833.764.356 2.041.892 3.75 1.313-.356-.334-.728-.785-.625-1.188.397-1.552 7.478-.956 8.438-.875 4.117.346 9.168.771 14.375 3.875 4.482 2.671 4.555 4.63 10.125 9.438a57.174 57.174 0 0 0 10.5 7.188L214.5 119.501l-43.125-15.625-1.875-36.251z"/><g><path style="fill:#566675" d="M205.417 248.354c1.004-.171 1.525.045 1.817.305.664.591.233 1.487.933 2.091.647.558 1.424.146 1.833.75.224.331.177.728.125 1.167-.134 1.126-.775 1.618-.542 1.958.186.271.748.182.833.167.707-.124.825-.75 1.231-.73.499.024.461.977 1.352 1.772.733.654 1.207.41 1.542.958.517.848-.356 1.857.083 2.292.511.506 1.915-.645 2.708-.083.522.37.462 1.256.458 1.625-.021 2.126 1.512 3.799 3.542 6.125a18.49 18.49 0 0 0 5.417 4.25h-14.436c-.563-1.329-1.123-1.698-1.564-1.75-.605-.072-1.11.45-1.5.167-.314-.228-.139-.636-.5-1-.408-.411-1.087-.348-1.25-.333-1.012.094-1.326.891-1.792.917-.592.032-1.46-1.185-2.708-6.367l2.418-14.281zM250.696 234.366c.53-.164 1.099-.019 1.447.369.426.475.449 1.237.02 1.792-.468.008-.68-.129-.787-.256-.233-.274-.038-.574-.282-.887-.253-.326-.658-.253-.718-.488-.027-.103.012-.266.32-.53zM221.25 227.875c-.212-.469.015-1.053.313-1.146.475-.147 1.383.878 1.167 1.375-.108.249-.472.304-.542.313a.93.93 0 0 1-.938-.542zM221.5 229.583c-.034-.326-.285-.577-.542-.667-.264-.092-.49.002-.938.188-.473.196-.709.294-.729.458-.048.401 1.186 1.186 1.836.773a.824.824 0 0 0 .373-.752zM223.604 231.5c.514-.601 1.188-.694 1.479-.438.225.198.241.622.083.896-.32.554-1.375.522-1.604.125-.102-.177-.032-.416.042-.583zM211.354 222.396c.549-.153 1.535 1.129 1.313 1.479-.191.301-1.472.22-1.688-.5-.113-.376.075-.895.375-.979zM181.417 198.396c.165-.206.646-.127.938.021.853.432.837 1.836.833 1.979-.143.048-.713.222-1.13-.075-.21-.149-.312-.463-.515-1.092-.222-.68-.164-.787-.126-.833zM187.021 202.313c.541.008.895.377.875.688-.018.281-.339.46-.375.479-.603.068-1.022-.301-1.021-.604.001-.221.222-.446.521-.563zM175.229 199.625c-.005-.191-1.702-.221-3.021-.958-.425-.238-.61-.436-.667-.5-.454-.508-.325-.879-.688-1.104-.417-.259-.77.119-1.159-.161-.241-.173-.142-.345-.487-.902-.185-.299-.345-.561-.656-.742-.384-.223-.781-.205-.948-.195-.522.03-.864.268-1.375.625-.391.273-.381.352-.375.375.037.138.436.078 1.188.208.314.054.583.102.877.23.404.176.621.402.873.624.44.386.541.373 1.438.979 1.878 1.27 1.76 1.552 2.5 1.792 1.254.406 2.505-.106 2.5-.271zM165.479 192.813c-.023.414-.623.695-.875.813-1.046.489-2.121.183-2.75.021-1.117-.287-2.696-.6-4.833-.75l-2.938-5.333c1.095.185 1.737-.046 2.124-.296.498-.323.663-.739 1.272-.891.085-.021.663-.157 1.167.125.608.341.63 1.025.917 1.708.396.944 1.191 1.467 2.783 2.512 1.918 1.259 3.167 1.482 3.133 2.091zM153.875 182.854c.368.393.96.925 1.813 1.292.752.324 1.216.307 1.271.521.069.272-.545.84-3.771 2.167l.687-3.98zM257.391 267.578c.255.083.373.509.328.828-.072.514-.599.973-.938.859-.245-.082-.356-.452-.344-.719.025-.559.608-1.081.954-.968zM260.516 269.156c.154-.051.364.038.426.179.056.128-.143.234-.129.493.004.077.021.076.023.148.006.208-.121.452-.241.457-.151.007-.333-.364-.328-.699 0-.078 0-.495.249-.578zM262.281 270.433c.029.002.37.03.522.306a.58.58 0 0 1 .068.27l-1.365.002c.147-.368.466-.598.775-.578z"/><path style="fill:#556775" d="M249.97 78.951c.375.358.902.84 1.571 1.382 1.506 1.22 2.22 1.519 2.667 2.5.331.727.42 1.622.167 1.748-.287.144-.767-.825-2.307-2.192-1.244-1.104-2.156-1.914-3.152-2.179-.147-.039-.558-.136-.958-.461a2.337 2.337 0 0 1-.625-.805l-13.875-.032c-.037.348-.175 1.113-.792 1.629-.77.645-1.844.53-2.125.5-.771-.082-1.043-.386-1.625-.25-.471.11-.8.426-1 .667-.454.098-.696-.026-.791-.087-.51-.33-.633-1.353-.1-2.474l-15.839-.037c.694.054 1.387.197 1.5.577.115.387-.478.662-.625 1.188-.379 1.355 2.252 4.201 4.964 4.163 2.052-.029 3.442-1.7 3.786-1.351.564.572-2.162 4.237-1.75 4.563.195.154.811-.672 1.75-.938 1.546-.437 3.317.824 4.813 2.313-.239.123-2.191 1.153-2.029 2.128.065.393.426.497 1.967 1.434 1.84 1.119 2.102 1.444 2.563 1.313.856-.244.669-1.572 1.563-2.125.577-.357 1.668-.43 3.938 1a12.024 12.024 0 0 1-1.75-1.625c-.756-.859-.785-1.147-1.313-1.438-1.008-.556-1.815-.008-2.25-.563-.31-.395-.225-1.089.063-1.5.336-.48.781-.338 1.25-.75.805-.707.298-1.833.75-2.125 1.057-.682 5.133 4.622 6.563 3.839.537-.294.237-1.194 1-1.714.938-.639 2.425.017 2.813.188 2.268 1 2.451 2.928 4.074 3.03.773.049.789-.385 1.87-.355 1.285.036 2.272.677 2.681.95a6.086 6.086 0 0 1 1.337 1.216 8.98 8.98 0 0 0 .663 3.534c.288.697.489 1.184.969 1.695.797.849 1.398.737 2.094 1.617.52.657.352.932.81 1.595.701 1.016 1.753 1.324 2.378 1.593 3.082 1.328 3.778 5.162 4.375 4.938.663-.249.268-5.145-1.938-6.063-.562-.234-1.343-.252-1.721-.899-.26-.446-.307-1.152.033-1.476.703-.672 2.697.637 2.938.25.136-.218-.359-.858-.875-1.25-.691-.526-1.193-.435-1.438-.875-.12-.216-.201-.601.125-1.313.199-.019.496-.022.815.096.814.3 1.131 1.147 1.372 1.592.961 1.77 2.826 1.042 5.125 3.125.202.183.21.209 1.938 2.438 1.129 1.457 2.044 2.631 2.625 3.375V79l-21.032-.049zm-25.887 3.132c-.572.144-1.23-.35-1.208-.792.017-.347.453-.609.792-.68.395-.082.987.026 1.125.43.138.408-.251.927-.709 1.042zm3.418 2.955c-.715-.259-.636-1.091-1.48-1.476-.233-.107-.471-.149-.646-.395-.148-.208-.171-.449-.167-.625.377-.672.761-.739.875-.75.661-.065 1.219.865 1.625 1.542.394.657.598 1.263.708 1.677-.43.142-.725.096-.915.027zm8.707-.121c-.632.784-1.459 1.089-1.875 1.208-.16-.088-.768-.448-.958-1.167-.168-.636.014-1.467.5-1.708.215-.107.371-.04.75 0 1.331.14 1.945-.418 2.208-.125.287.318-.189 1.251-.625 1.792zm19.042 10.958c-.106-.427.108-.853.458-1 .418-.175.97.07 1.125.583.159.481.082.956-.167 1.125-.315.216-1.031.021-1.416-.708zm1.208 4.542c-.313-.034-.557-.512-.542-.917.016-.403.29-.775.708-.958.051.028.542.311.583.833.043.526-.387 1.08-.749 1.042z"/><path style="fill:#556775" d="m233.458 78.913-6.417-.052-.016.037 6.433.015zM249.875 78.861h-2.583c.011.025.028.056.042.084l2.637.006-.096-.09z"/><g><path style="fill:#44525f" d="M249.031 89.281c-.673.099-1.55-.625-1.527-1.24.03-.817 1.628-.974 1.652-1.697.028-.86-2.191-1.93-2.87-1.361-.586.491.303 1.928-.505 2.705-.253.243-.675.425-1.063.344-.876-.182-.671-1.512-1.813-2.375-.916-.693-1.732-.352-2-.969-.271-.623.274-1.63.785-1.687.424-.048.654.577 1.121.5.298-.049.624-.373.625-.688.003-.776-1.969-.955-2.094-1.938-.07-.55.497-.903.294-1.391-.13-.313-.486-.461-.732-.533l2.219-.014c-.001.165.014.409.094.688.229.801.812 1.25 1.656 1.906 2.147 1.668 2.01 1.583 2.125 1.656 1.711 1.082 2.567 1.623 3.813 1.938.337.085 1.079.248 1.159.654.061.308-.31.496-.253.846.083.504.938.636.906.844-.037.241-1.177-.072-2.156.5-.852.499-.813 1.221-1.436 1.312zM258.094 80.5c-.181-.192-.8-.806-1.5-.688-.153.026-.366.096-.844.531-1.042.948-1.183 1.662-1.56 1.642-.346-.018-.441-.631-.908-1.361-.548-.856-1.287-1.369-1.845-1.674h6.408c.342.345.826.835 1.406 1.424 1.953 1.986 2.164 2.232 2.125 2.281-.06.074-.698-.272-3.282-2.155zM264.75 83.844c.368-.248.998.108 1.313.469.467.536.363 1.229.344 1.344-.708.224-1.409.014-1.719-.469-.27-.42-.286-1.109.062-1.344zM271 92.872c-.008-1.235-.378-1.883-.719-2.247-.226-.241-.381-.296-.969-.844a12.856 12.856 0 0 1-1-1.031c-.458-.535-1.23-1.553-1.094-1.688.116-.114.688.601 2.072 1.317.356.184.726.348 1.115.745.3.306.484.62.594.845l.001 2.903zM206.583 256c.296-.079.488.353 1 .5.892.257 1.509-.992 2.208-.833.561.127.779 1.016.943 1.555.671 2.209 1.521 2.112 3.011 4.945.148.281 2.572 4.944 1.598 5.697-.614.475-2.763-.462-3.927-1.947-.526-.671-.702-1.264-1.25-1.333-.549-.069-.827.468-2.042 1.25-.979.63-1.602 1.03-2 .833-.532-.263-.012-1.357-.167-4.042 0 0-.085-1.718.083-4.75.041-.71.112-1.759.543-1.875z"/></g><g><path style="fill:#191917" d="M221.25 272.042c.085-.11.214-.31.25-.583.073-.558-.301-.996-.375-1.083-.296-.346-.497-.283-.667-.583-.176-.311-.007-.463-.08-.918-.135-.846-.895-1.426-1.045-1.54-.288-.219-.378-.197-.667-.458-.212-.192-.363-.383-.632-.789-.461-.697-.496-.856-.743-1.211-.345-.495-.641-.707-1-1.042-1.005-.939-.9-1.352-2.292-3.125-.484-.616-.876-1.049-1.208-1.417a31.097 31.097 0 0 0-2.208-2.208c1.265.799 2.239 1.424 2.875 1.833 1.563 1.006 1.687 1.104 2.125 1.292.536.23.984.356 1.583.792.341.248.693.504.958.958.411.704.09.987.455 1.573.401.643.875.443 1.42 1.177.224.302.082.251.583 1.25.421.84.649 1.128.792 1.292.306.351.593.553.75.667 1.428 1.035 1.68 1.671 3.292 2.833.379.273.968.673 1.745 1.096l3.713.195c-1.042-2.3-1.679-2.812-2.083-2.75-.144.022-.31.125-.583.083a1.137 1.137 0 0 1-.875-.75c-.101-.312-.098-.815.167-1 .721-.505 2.88 1.698 3.208 1.375.106-.105-.038-.416-.25-.875a4.99 4.99 0 0 0-.875-1.292c-.408-.445-.546-.462-1.083-1.042-.401-.433-.65-.705-.576-.835.096-.169.716-.057 1.201.168 1.051.488 1.601 1.57 1.833 2.042.448.909.342 1.244.75 1.5.572.359 1.026-.144 1.875.042.731.16.999.665 2.042 1.792.47.508 1.162 1.211 2.083 2l-16.458-.459zM206.5 258.167c.142-.109.379-.26.702-.343.161-.042.898-.231 1.307.164.257.248.293.638.324.971.042.453-.069.589.042.708.266.287 1.055-.342 1.448-.094.234.148.357.629.011 1.969a.788.788 0 0 1-.375.208c-.495.108-1.067-.346-1.333-.833-.339-.621.002-.961-.375-1.417-.342-.413-.953-.533-1-.542-.43-.079-.702.04-.833-.125-.124-.154-.027-.439.082-.666zM211.708 263.292c.071-.127.181-.271.333-.29.352-.045.613.621 1.148 1.466.966 1.527 1.889 2.155 1.644 2.615a.48.48 0 0 1-.25.208c-.085.111-.266.319-.458.292-.188-.027-.294-.266-.342-.37-.38-.821-1.079-1.688-1.366-2.005-.51-.564-.847-.642-.917-1.083-.052-.331.084-.63.208-.833z"/><path style="fill:#191917" d="M216.042 265.833c.248-.256.439-.255.5-.25.371.03.742.604.75 1.458a.738.738 0 0 1-.483.085c-.416-.079-.759-.6-.767-1.293zM224.333 263.917c.294-.182.639-.254.86-.117.323.201.432.882-.027 1.493-.479.219-1.014-.012-1.167-.418-.12-.322.009-.725.334-.958zM225.474 267.792c-.048.004-.432.045-.641.375-.187.295-.157.7.083 1 .762-.323 1.184-.761 1.108-1.04-.011-.041-.075-.232-.55-.335zM216.458 269.625c-.232.265-.173.667.09.845.319.216.764-.017.796-.204.032-.187-.328-.439-.886-.641zM230.625 234.563c.149-.207.516-.254.75-.125.274.151.276.497.375.813.373 1.193 1.855 1.12 2.5 2.438.098.201.224.529.25 1a69.123 69.123 0 0 1-1.688-1.188c-1.028-.746-1.758-1.319-2.125-2.188-.185-.44-.144-.637-.062-.75zM239.313 241.625c.308.194 1.494.973 1.563 1.875.008.108.027.353-.125.5-.226.219-.704.1-.938-.034-.545-.313-.719-1.248-.5-2.341zM232.313 247.25c.014-.306.5-.508.813-.563.622-.108 1.366.232 1.375.563.009.345-.782.776-1.438.625-.328-.076-.764-.329-.75-.625zM246.875 248.625c.141-.086.664-.397 1.095-.215.583.246.905 1.352.405 2.652a5.36 5.36 0 0 0-.938-.688c-.414-.239-.623-.286-.75-.5-.117-.198-.173-.556.188-1.249zM252.5 248.938c.351.111.439.802.375 1.25a1.847 1.847 0 0 1-.5 1c-.657.127-1.233-.122-1.375-.5-.169-.448.323-.945.625-1.25.247-.25.586-.592.875-.5zM252.625 244.875c.345-.145.684-.219.875-.063.242.198.062.612.312.809.3.237.852-.123.938.003.053.078-.086.326-.875 1.042a1.732 1.732 0 0 0-.438-.48c-.566-.419-1.151-.28-1.259-.545-.047-.114-.013-.33.447-.766zM251.583 252.458c-.641.256-.957.677-.875.917.082.24.558.286.625.292a.7.7 0 0 0 .25-.208c.192-.259.184-.646 0-1.001zM253.708 255.25a.682.682 0 0 1 .792 0c.205.15.306.41.26.667-.219.322-.658.382-.927.167-.233-.187-.298-.549-.125-.834zM258.208 245.792c.021.158.091.506.375.75.552.474 1.557.251 1.667-.083.05-.151-.074-.355-.208-.458-.252-.193-.484.009-.792-.167-.277-.159-.259-.421-.458-.458-.112-.022-.295.027-.584.416zM259.917 250.833c.253-.167.662.034.882.203.417.32.259.605.659 1.089.395.477.7.381 1 .875.154.254.318.683.167.833-.214.212-.952-.237-1.042-.292-.367-.227-.377-.347-1.083-1.083-.551-.575-.776-.743-.792-1.083-.001-.038-.013-.395.209-.542zM260.875 255.123c.139-.579.277-.7.375-.707.213-.014.259.511.869 1.71.141.277.337.64.381 1.165.014.173.008.318 0 .417-.315.094-.708.159-.917-.042-.205-.197-.108-.533-.125-.958-.016-.394-.133-.937-.583-1.585zM264.125 247.833c-.102.073.102.79.667 1.208.372.275.607.205 1 .375.369.16.684.449 1.375 1.75.71 1.337.586 1.424 1.167 2.458.648 1.154 1.178 1.715 1.333 1.875.543.559 1.022.869 1.208 1 .778.546 1.743 1.677 2.542 4.25v-4.54a21.998 21.998 0 0 0-2-2.127c-1.004-.933-1.355-1.078-1.67-1.144-.599-.125-.994.052-1.247-.231-.266-.298.034-.647-.083-1.333-.082-.475-.415-.886-1.083-1.708-.578-.712-.876-1.07-1.292-1.167-.395-.092-.552.064-1-.083-.598-.196-.831-.644-.917-.583zM265.042 256.792c.021-.218.07-.714.25-.75.264-.053.682.913.785 1.153.341.79.236.983.506 1.222.49.435 1.099.037 1.417.417.388.465-.264 1.371.083 1.667.256.218.665-.227 1.235-.051.564.175 1.081.896.907 1.513-.079.28-.327.632-.643.66-.341.03-.47-.345-1.249-.789-.322-.184-.643-.362-.815-.241-.18.127-.015.456-.268.783-.036.047-.207.266-.415.257-.31-.013-.581-.528-.633-.978-.055-.468.151-.661.006-.863-.161-.225-.478-.07-1.001-.201-.068-.017-1.042-.276-1.291-1.049-.103-.319-.111-.815.167-1.083.318-.308.738-.051.958-.333.201-.258-.075-.563.001-1.334zM262.958 261.125c.227-.227.408-.251.5-.25.461.007.948.695 1.083 1.758-.147.169-.457.472-.782.428-.465-.064-.909-.833-.801-1.936zM267.542 263.792c.181-.224.702-.186 1.042.042.467.313.248.755.75 1.5.387.574.71.596.792 1.042.077.42-.111.935-.35.974-.325.052-.364-.838-1.317-1.766-.325-.316-.672-.555-.875-1.083-.066-.171-.199-.516-.042-.709zM268.917 100.208c-.207.106-.189.893.208 1.417.313.412.614.333 1.583.833.906.467 1.26.855 1.375.75.126-.115-.133-.737-.583-1.167-.493-.471-.734-.252-1.25-.75-.276-.267-.4-.517-.863-.86-.362-.268-.447-.234-.47-.223zM270.792 97.833c-.579-.072-.855-.811-.708-1 .205-.264 1.499.198 1.5.583 0 .22-.418.464-.792.417zM265.125 92.917c.486-.131.866.05.919.267.048.197-.178.411-.211.442-.369.175-.742.027-.833-.208-.09-.233.116-.49.125-.501zM263.25 99.708a.562.562 0 0 0-.625.417.563.563 0 0 0 .375.667c.335-.07.557-.348.542-.625-.016-.278-.264-.441-.292-.459zM244.042 78.929c-.177.115-.466.338-.459.613.008.28.319.455.645.668 1.032.673 1.468 1.241 2.813 1.999.131.074.39.217.5.125.123-.103-.005-.444-.042-.542-.397-1.056-1.41-.964-2.083-2.083-.191-.318-.307-.654-.667-.792-.259-.1-.523-.048-.707.012zM253.042 85.167c.135-.067.492-.222.917-.125.362.083.785.35.75.542-.04.219-.691.41-1.167.167-.32-.164-.456-.469-.5-.584zM256.333 87.292c.12-.116.547-.497 1.208-.542.474-.032.837.125 1 .208a1.263 1.263 0 0 1-2.208.334zM255 88.292l.667-.333s.264.514.458.833c.147.242.371.565.708.917-.109.079-.487.335-.912.242-.563-.123-1.015-.812-.921-1.659z"/><path d="M214.506 215.243c.544-.102 1.033.206 1.14.626.105.413-.186.831-.505.982-.67.317-1.692-.445-1.624-.949.058-.422.874-.631.989-.659z"/></g></g><g><path style="fill:#191917" d="M136.25 239.625c.743.625 1.954 1.58 3.563 2.563a29.729 29.729 0 0 0 5.688 2.688c11.107 3.951 15.979 5.493 20.875 7.75 3.326 1.533 6.185 2.851 9.625 5.438 2.771 2.083 9.004 6.892 12.313 15.438a31.407 31.407 0 0 1 1.813 7h2.125a21.776 21.776 0 0 0-1.125-4.938c-1.043-2.935-2.495-4.992-3.867-6.756-2.856-3.669-5.654-7.263-10.299-10.867-10.382-8.057-17.527-6.495-36.896-16.314a158.271 158.271 0 0 1-3.815-2.002z"/><path style="fill:#191917" d="M302.875 189.75a298.255 298.255 0 0 0-28.5-32.75v-16l-14.277-6.928c1.625-.869 5.224-3.103 7.152-7.447 2.633-5.935 1.061-13.359-3.969-18.906-2.147 2.402-7.851 8.134-17.281 10.656-8.234 2.202-15.11.833-18.25 0a159.171 159.171 0 0 0 30.792-28.405c-6.93.589-14.63 1.604-22.917 3.28-9 1.82-17.073 4.091-24.125 6.452A62.518 62.518 0 0 0 205.125 98c-6.418-1.357-7.8-.593-13.125-1.875-4.163-1.002-8.184-2.026-10.625-5.375-.583-.8-.56-1.024-2-3.25-1.426-2.203-3.221-4.722-4.347-6.031-3.234-3.758-7.639-5.317-10.713-6.404-5.13-1.815-9.446-1.93-14.482-2.064a71.829 71.829 0 0 0-8.208.25c.855.372 2.124.909 3.681 1.507 4.19 1.609 5.021 1.571 6.694 2.368 3.916 1.866 6.001 5.24 6.625 6.25 2.015 3.261 1.375 4.764 3.111 8.756 1.37 3.151 3.264 5.652 5.181 7.619a98.847 98.847 0 0 0-12.417-.417c-3.307.101-5.09.329-8.325.105-2.867-.199-5.388-.65-8.938-1.524-4.852-1.194-11.024-2.713-18.903-6.165-4.368-1.914-9.998-4.418-16.417-9.083-6.507-4.73-6.881-6.633-11.334-9.667-4.283-2.918-11.208-6.112-22.333-6.25a35.648 35.648 0 0 1 7.083 5.583C76.73 73.757 79.417 76.739 84 85.5c2.818 5.385 2.67 5.92 4.583 9.583 3.136 6.006 6.993 13.391 14.333 18.417 3.878 2.655 8.03 3.937 16.333 6.5 8.408 2.595 13.296 3.107 13.25 4.167-.054 1.234-6.765 2.219-12.5 2.167-2.92-.026-14.993-.136-23.35-7.051-1.231-1.018-3.189-2.853-4.687-4.328-3.631-3.575-5.338-5.807-6.463-6.954-2.48-2.529-7.232-4.997-17.25-4.375a50.43 50.43 0 0 1 6.222 4.352c2.069 1.694 3.385 2.772 4.778 4.607 1.688 2.224 2.498 4.257 3.405 6.534 1.307 3.281 1.098 3.947 2.095 6.299.955 2.253 2.089 4.783 4.5 6.833 1.499 1.274 2.738 1.717 3.833 2.25 5.341 2.598 8.297 7.839 9.75 10.417 3.71 6.579 3.895 12.91 3.792 15.833-4.366-2.709-8.128-3.958-10.853-4.593-2.84-.662-5.832-.955-9.105-3.241-1.273-.889-2.402-1.948-3.167-2.667-3.393-3.185-3.106-4.052-5.083-5.333-1.671-1.083-3.42-1.361-6.917-1.917a40.838 40.838 0 0 0-5.625-.5c3.326 1.068 7.984 3.186 9.385 7.359.391 1.164.403 2.117.407 2.808.049 9.494-.819 19.365-.547 27.081.098 2.763.199 5.33.858 8.594.358 1.775.686 2.561 1.022 4.908.235 1.646.557 3.278.833 4.917.721 4.266 2.011 4.789 6 14.166 1.351 3.176 2.449 4.514 3.416 5.917 0 0 1.666 2.415 3.697 4.632 5.644 6.161 24.465 19.924 33.303 26.618 0 0 5.873 4.449 16.25 13.75 1.591 1.426 3.282 3.001 5.167 5.25 1.707 2.037 2.578 3.077 3.659 4.741 1.282 1.974 2.324 4.005 4.747 5.403.284.164.524.283.678.356.038-.184.074-.407.11-.62-.09-.055-.176-.107-.277-.172a49.557 49.557 0 0 1-3.292-3.833 48.183 48.183 0 0 1-2.583-3.625c-.949-1.476-1.126-1.94-1.833-2.792a11.881 11.881 0 0 0-2.75-2.417l.333-1.417c.128.05.328.132.565.247 2.39 1.16 3.575 3.261 4.001 3.988 1.832 3.126 4.457 6.144 6.054 8.162.053-.764.071-1.601.005-2.522-.278-3.877-1.776-7.07-3.834-10.167-4.925-7.413-10.185-9.551-15.917-15.917-1.882-2.09-3.241-3.599-4.646-5.792-.81-1.265-.976-1.727-1.771-2.625-1.174-1.327-2.142-1.822-2.854-3.375-.333-.725-.488-1.417-.438-1.438.05-.02.264.64.813 1.25.44.489.939.771 1.313.938a22.747 22.747 0 0 1-.75-8.376 42.204 42.204 0 0 0 3.083 3.75c4.182 4.53 8.231 6.924 9.083 7.417 3.322 1.92 5.971 2.642 9.167 3.583 13.078 3.852 20.156 5.937 26.622 10.14 2.238 1.455 5.49 3.87 8.918 7.726.035-.474.14-.993.459-1.116 1.221-.472 4.906 5.1 6.833 10.25.898 2.399 1.838 5.84 1.958 10.25h12.125l.25-4.25a516.738 516.738 0 0 1 5.083-77.375l-34.708 11.5c-5.05-3.432-13.145-10.03-18.625-21-2.322-4.648-4.545-9.098-4.625-15.25-.111-8.546 3.887-14.943 11.625-27.25 3.829-6.089 8.206-12.022 8.5-11.833.177.114-1.21 2.414-2.958 5.792 0 0-3.515 6.791-6.292 14.25-3.679 9.884-5.518 14.825-4.333 19.867.959 4.079 3.141 6.696 7.083 11.424a62.836 62.836 0 0 0 12.25 11.25 2966.83 2966.83 0 0 0 22.333-5.292c10.309-2.486 15.056-3.692 18.149-1.004 1.768 1.537 2.32 4.436 3.351 10.17a92.949 92.949 0 0 1 1.417 13.25 77.38 77.38 0 0 0 12.875 5.125 77.404 77.404 0 0 0 16.375 3c.972 2.123 3.175 6.112 7.62 8.935 1.519.965 3.92 2.187 8.38 2.94 8.606 1.454 16.57-.24 22-2l8 3.777 9.625-9.652 2.708-36.196a6808.02 6808.02 0 0 1-8.454-.925zM101.5 230.833c-.278.266-3.615-2.829-5.417-4.5-3.437-3.188-1.822-2.046-2.833-2.875-.789-.646-1.789-1.356-1.667-2.125.038-.24.176-.422.292-.542a.76.76 0 0 1 .302-.078c.697-.028 1.254.99 1.448 1.328.695 1.213 1.592 2.199 2.752 3.473 1.754 1.928 3.83 2.819 4.995 4.903.08.146.19.357.128.416zm6.708 5.25c-.039.03-.12.026-.792-.458-1.107-.798-1.66-1.197-1.583-1.375.084-.194.873-.161 1.458.208.774.488 1.086 1.496.917 1.625zm10.886 8.105c-.108.139-.398.145-.719 0a58.52 58.52 0 0 1-1.375-.979c-.928-.681-1.223-.94-2.188-1.646-1.023-.749-.852-.575-1.313-.938-1.457-1.145-1.316-1.422-2.156-1.875-.193-.104-.621-.316-.969-.781a2.428 2.428 0 0 1-.292-.51 3.12 3.12 0 0 1 1.042.125c.723.216 1.177.644 1.417.875.534.516.482.735.958 1.25.288.312.52.461 1.417 1 1.027.617 2.011 1.306 3.042 1.917.181.108.806.416 1.083 1.042.057.126.164.376.053.52zM143 262.708c.194.225.359.45.5.667l-.375 1.417a17.48 17.48 0 0 1-2.625-3.834c.699.278 1.672.792 2.5 1.75zm-10.167-8.25c.763-.083 1.243.594 2.292 1.542 1.776 1.604 2.456 1.517 3 2.667.303.64.368 1.251.375 1.667a31663.9 31663.9 0 0 1-6.417-5.542c.165-.134.421-.298.75-.334zm-5.25-4.5s2.984 1.805 3.417 3.167c.117.37.152.748.152.748.013.144.015.262.015.336a25.46 25.46 0 0 0-3-2.5c-1.252-.888-1.561-.931-2.583-1.792-.846-.712-1.05-1.033-2.208-1.958-.774-.618-1.16-.927-1.403-1.075-.786-.48-1.281-.601-1.43-1.05-.129-.389.073-.805.25-1.083.186.01.459.052.716.223.338.224.414.515.617.819.341.512.7.552 1.308.976.746.52.863.916 1.442 1.524.681.714.917.583 2.707 1.665zM75.042 196.75a3.699 3.699 0 0 1 1.058 1.449c.48-2.269.661-2.752.734-2.741.134.021-.228 1.682.167 3.995.125.729.275 1.235.542 2.13a35.479 35.479 0 0 0 1.479 4.042 12.37 12.37 0 0 1-1.555-2.44c-.489-1.014-.672-1.682-1.248-3.317a77.627 77.627 0 0 0-1.177-3.118z"/><path style="fill:#191917" d="M74.629 189.865c.119-.747.204-.893.26-.891.167.008.058 1.37.444 3.385.217 1.135.476 1.875.559 3.334.018.314.023.574.024.75a7.602 7.602 0 0 1-.307-.547c-1.053-2.07-1.099-4.437-.98-6.031z"/><g><path style="fill:#7b8e9d" d="m182.5 117.333 34.583 10.583 23.5 23.917-18.902-1.665-13.014-5.335c.781-2.321 1.457-5.667.167-8.917-1.676-4.221-5.63-5.662-13-9.917a151.944 151.944 0 0 1-13.334-8.666zM220.75 117.833l24.667-19.75c-5.096.092-9.09 1.174-11.667 2.083-3.562 1.257-8.353 2.949-12.167 7.583-2.417 2.937-3.535 5.955-4.083 7.917l3.25 2.167zM289 197.083l4.417 10.167-12.75-7.917z"/></g><g><path style="fill:#fff" d="M68.5 47.25c2.683-.814 6.841-1.667 11.833-1.083 3.011.352 7.574.885 11.583 4.083 1.482 1.182 1.588 1.691 5.833 6.333a220.442 220.442 0 0 0 5 5.292c-5.289.015-8.702-1.413-10.833-2.708-2.318-1.409-2.388-2.216-6.035-4.825-1.789-1.28-4.586-3.256-8.549-4.842a35.084 35.084 0 0 0-8.832-2.25zM97.688 190.688c.202-.111.774.84 1.938 1.938 1.129 1.065 2.148 1.638 3.125 2.188 6.671 3.751 13.562 6.125 13.563 6.125 9.367 3.226 14.051 4.839 17 7.375 5.844 5.024 8.175 11.712 8.688 13.875.193.815.463 2.401.612 3.356.349 2.226.747 4.764.325 4.894-.268.082-.755-.844-1.063-1.375-1.135-1.962-2.671-3.233-5.742-5.773-4.916-4.067-12.928-8.29-14.133-8.914-9.403-4.872-10.446-4.436-13.813-7.438-3.786-3.376-6.223-7.008-6.945-8.121-1.309-2.017-1.945-3.469-2.555-4.879-.173-.402-1.327-3.072-1-3.251zM227.938 124.594l42.729 23.073-6.333 10.833L301 194.167l10.333-3.488-2.708 36.196-9.958-27.542-7.01-11.521-6.969 1.844-34.406-30.906c1.433-1.46 3.514-4.068 3.719-7.5.185-3.1-1.193-6.324-7.438-12.5-3.909-3.866-9.972-9.133-18.625-14.156zM239 109.625l8.063 6.75a18.36 18.36 0 0 1 2.688 7.688 18.117 18.117 0 0 1-.226 5.443l-21.774-11.13c3.749-2.918 7.499-5.834 11.249-8.751zM215.25 135.188l6.188 11.312 16.46 2.6-10.624-10.812z"/></g></g></g></switch></svg>