<svg xmlns="http://www.w3.org/2000/svg" xml:space="preserve" style="enable-background:new 0 0 350 350" viewBox="0 0 350 350"><switch><g><path d="M45 45h260v260H45z" style="opacity:.4"/><path d="M73 73h204v204H73z" style="fill:#657785"/><path d="M45 305V135.083a42.763 42.763 0 0 0-12.666-9.583 95.855 95.855 0 0 1 12.667-2.556V88.5a87.753 87.753 0 0 0-20.278-10A93.658 93.658 0 0 1 45 75.25V48.194a99.842 99.842 0 0 0-18.036-8.424A99.109 99.109 0 0 0 17.598 37c2.639-.729 6.16-1.643 10.347-2.556 1.844-.402 9.724-2.093 20.778-3.333 5.494-.617 8.298-.92 11.056-.667 5.703.524 9.947 2.298 12.5 3.389 4.876 2.083 8.426 4.569 12.611 7.5A107.369 107.369 0 0 1 89.821 45h21.264l-5-4.542a83.543 83.543 0 0 0 8.139-.347c8.633-.792 10.344-2.315 17.333-3.333 9.632-1.403 17.375-.113 22.389.722 3.684.614 6.676 1.386 9.722 2.556 2.107.809 4.871 1.891 8 4.111 3.089 2.191 5.04 4.431 6.146 5.716 3.068 3.567 2.916 4.695 6.521 8.728 1.882 2.106 3.263 3.297 5.167 4.056 1.95.777 3.607.765 4.5.778 3.008.044 6.769.909 14.292 2.639.982.226 6.685 1.559 12.377 3.939 4.544 1.9 8.194 4.096 19.414 12.686a635.283 635.283 0 0 1 17.375 13.792 30.843 30.843 0 0 1 3.153 9.889 30.56 30.56 0 0 1 .222 6.278l-102.056-2.333-35.556 69.556 50.667 44.222 24.667 8.222V305z" style="fill:#fff"/><path d="M190.562 305h19.021a473.157 473.157 0 0 1 5.806-111.889l-41.278 13.444c-5.317-4.058-14.212-11.696-20.861-22.597-5.915-9.699-6.541-16.225-6.667-18.792a32.532 32.532 0 0 1 .125-4.833c.322-3.221 1.302-8.286 10.417-23.125A262.86 262.86 0 0 1 164 126.625a269.901 269.901 0 0 1 6.556-9.181 325.904 325.904 0 0 0-10.264 20.972c-6.3 14.141-7.567 19.722-6.25 25.625.74 3.315 2.175 6.195 2.792 7.417 2.732 5.411 6.112 8.773 9.708 12.292a74.683 74.683 0 0 0 9.903 8.139l37.316-7.715a15.632 15.632 0 0 1 2.407-.548c.508-.074 1.938-.276 3.417-.125.815.083 3.97.407 5.972 2.694.404.462.996 1.272 1.889 5.028.907 3.814 1.167 6.555 1.167 6.556.389 4.103.86 8.786 1.389 14.222a46.74 46.74 0 0 0 4.915 2.838c3.126 1.561 6.622 2.868 15.007 4.706 3.88.85 8.844 1.823 14.688 2.678 2.366 4.596 5.206 7.399 7.056 8.944.905.756 2.072 1.72 3.833 2.611 1.503.761 3.286 1.392 8.861 2.028 3.618.413 6.818.778 11.278.653 2.927-.082 5.319-.164 8.429-.997a29.07 29.07 0 0 0 4.654-1.683l9.889 4.833 10.833-11.444-8.882-39.375 11.896-3.5-8.708-2.375-34.083-39.194 5.556-15.167-22.556-10.75c1.964-1.099 8.716-5.181 9.757-12.242.3-2.036.039-3.734-.215-5.313-.94-5.833-3.606-10.282-5.833-13.188-2.763 2.946-6.825 6.527-12.417 9.396a44.567 44.567 0 0 1-5.875 2.5c.996 1.676 2.625 5.001 2.458 9.292a15.964 15.964 0 0 1-.569 3.639l-24.889-12.028 17.25-13.403 18.778-20.153c-19.348 2.339-33.595 5.254-39.115 6.679-5.472 1.412-10.829 3.071-10.829 3.071-2.064.64-3.821 1.215-5.167 1.667a32.942 32.942 0 0 0-3.833-1.278c-2.742-.73-4.619-.849-7.611-1.167-3.533-.376-5.798-.616-8.389-1.111-3.365-.643-5.9-1.127-9-2.611-1.815-.869-4.907-2.387-7.6-5.504-.48-.556-.318-.433-3.233-4.662-2.384-3.458-3.59-5.202-4.26-5.906-2.363-2.484-4.804-3.844-6.198-4.608-.592-.324-2.439-1.308-5.208-2.208-3.872-1.259-7.093-1.558-9.715-1.743-6.57-.464-12.734-.452-17.618-.299a130.072 130.072 0 0 1 11.778 4.931c2.681 1.283 4.669 2.352 6.49 4.466 1.43 1.659 2.189 3.303 2.712 4.457 1.035 2.282.871 2.96 2.561 8.126.252.769.667 2.014 1.343 3.579 1.066 2.468 1.795 3.454 2.617 4.212a8.332 8.332 0 0 0 1.611 1.16 23.704 23.704 0 0 0-5.658-.923c-2.413-.096-3.879.223-6.161.45-2.847.284-4.826.214-8.542.083-2.267-.08-7.533-.363-14.125-1.708-7.45-1.521-12.844-3.634-16.458-5.069-5.805-2.306-10.045-4.564-12.722-6a140.456 140.456 0 0 1-10.278-6.111c-2.447-1.597-3.771-2.462-5.591-3.873-3.596-2.786-4.069-3.782-7.95-6.968-2.889-2.371-4.334-3.557-6.597-4.799-3.893-2.135-7.311-2.859-9.569-3.319-5.89-1.2-10.562-.719-12.343-.484-1.664.22-3.05.521-4.06.775 4.715.297 12.708 1.628 17.528 7.389 3.016 3.605 5.705 10.041 6.75 12.542.717 1.716.899 2.329 1.583 4.125 2.604 6.83 5.383 14.12 10.861 21.111 3.762 4.802 7.36 7.627 8.278 8.333 3.208 2.468 5.916 3.843 8.556 5.167 6.472 3.245 11.974 4.732 16.556 5.944 2.694.713 6.127 1.514 10.167 2.194-4.001 1.488-10.208 3.131-17.722 2.528-7.206-.578-12.416-2.965-15.889-4.556 0 0-5.792-2.653-11.389-7.056-1.698-1.336-3.44-2.724-5.222-5-.944-1.206-1.04-1.564-1.889-2.556-2.085-2.437-4.418-3.682-5.667-4.333-3.594-1.875-6.757-2.241-10.444-2.667a48.336 48.336 0 0 0-7.528-.278 19.791 19.791 0 0 1 6.528 2.778c4.074 2.7 6.082 6.281 7.444 8.778 2.18 3.994 1.347 4.456 4.111 10.333 1.022 2.173 2.277 4.815 4.49 7.94 2.205 3.112 4.347 5.28 6.065 7.005 2.591 2.601 2.872 2.48 6 5.5 3.402 3.284 5.103 4.927 6.608 7.244 2.635 4.058 3.473 7.801 3.725 9.089.642 3.282.505 6.068.278 7.917a24.563 24.563 0 0 1-8.292-.788c-1.012-.276-4.59-1.325-8.673-4.359-5.798-4.309-4.878-6.873-10.868-11.547-1.949-1.52-4.558-3.514-8.512-4.563-3.793-1.006-7.204-.712-8.706-.516a23.095 23.095 0 0 0-3.033.606c1.243.541 3.033 1.488 4.75 3.139.954.917 4.899 4.949 5.675 15.997.349 4.973-.239 7.158-.675 12.67-.545 6.894-1.389 18.781 2.333 31.333 1.531 5.162 3.313 8.682 5.556 13.111 5.458 10.779 11.496 18.094 14.306 21.306 5.509 6.296 10.481 10.38 13.972 13.222 3.551 2.891 7.214 5.565 12.778 9.194 7.599 4.958 33.218 21.139 42.181 28.486 1.263 1.036 3.844 3.246 4.875 6.875.594 2.088.485 3.98.278 5.306.331-.617.893-1.79 1.167-3.333 1.852-10.431-12.082-22.799-20.444-30.222-2.294-2.036-6.015-5.179-9-10.667a34.133 34.133 0 0 1-3.111-8 13.941 13.941 0 0 0 2.222 4.056c1.512 1.907 3.168 2.935 4.109 3.491 7.38 4.367 13.052 6.151 13.052 6.151 3.487 1.097 12.648 4.031 21.228 7.385 5.493 2.147 9.685 4.051 14.16 7.342 2.76 2.03 4.619 3.845 5.539 4.786 1.91 1.953 4.804 4.962 7.046 9.669 1.218 2.557 1.753 4.586 2.422 7.12 1.139 4.318 1.479 7.719 1.729 10.333.229 2.474.412 5.639.325 9.334"/><path d="m226.694 127.139 6.5 11.694 16.945 3.111-11.278-11.5zm9.223-20.806 48.889 26.583-6.917 13.222 42.674 41.653 11.896-3.5-3.014 42.875-11.556-33.611-8.389-13.444-7.944 2.056-40.278-35.833c1.044-.905 2.975-2.847 3.826-5.882.267-.952.934-3.817-.659-8.229-1.76-4.875-5.063-8.271-12.904-14.481a247.699 247.699 0 0 0-15.624-11.409" style="fill:#fff"/></g></switch></svg>