<svg xmlns="http://www.w3.org/2000/svg" viewBox="0 0 350 350"><switch><g><path fill="#fff" d="M60 60H290V290H60z"/><path d="M69.492 69.5H280.492V280.5H69.492z"/><path fill="#28c1cd" d="M78.992 79H270.992V271H78.992z"/><path d="M273.391 138.045c-7.847-.798-15.825-1.537-23.93-2.21-12.403-1.03-24.54-1.857-36.396-2.505.264-1.275.527-2.549.791-3.824 19.329.155 38.659.31 57.988.466-2.089-8.909-5.362-17.361-9.646-25.182-2.749-.302-7.679-.805-12.738-1.13-13.492-.869-101.807-3.966-101.835-5.473-.015-.789 24.197-2.219 107.209-4.904C236.529 68.543 207.14 52.5 174 52.5c-22.292 0-42.885 7.263-59.553 19.544C120.5 72.326 128.19 72.662 137.11 73c12.978.492 19.032.628 19.067 1.312.048.935-10.22 2.471-18.803 3.039-1.561.103-4.193.25-15.692.33-5.937.041-10.841.041-14.249.034-18.033 15.957-30.288 38.289-33.238 63.47 16.829.635 33.658 1.269 50.486 1.903L73.511 153.9c.313 35.605 19.137 66.786 47.321 84.392.098-.004.19-.008.289-.011 10.181-.391 17.753-.39 19.83-.396 12.075-.032 16.764-.754 49.104-1.83 16.229-.54 28.929-.82 39.099-.989 1.03-.017 2.008-.033 2.937-.047 8.21-5.826 15.503-12.857 21.632-20.83-2.931-.311-5.676-.457-8.184-.486-17-.127-42.015-.301-72.429-.462-48.477-.256-71.336-.271-71.374-1.418-.036-1.076 20.03-2.598 27.495-3.165 21.872-1.66 38.305-1.799 39.989-1.813 18.905-.164 47.219-.89 91.23-2.578 3.588-6.037 6.565-12.479 8.838-19.246h-30.376l4.088-6.198 28.018.469c2.266-8.382 3.482-17.195 3.482-26.293C274.5 147.918 274.119 142.925 273.391 138.045zM150.643 242.352c-9.04.067-16.392-.002-21.016-.066-.52.041-1.04.083-1.56.124 13.768 7.087 29.383 11.09 45.933 11.09 18.509 0 35.845-5.009 50.738-13.737-7.027.33-12.983.594-17.573.792C169.951 242.161 156.188 242.31 150.643 242.352z" fill="#fff"/><path d="M288.659,165.604c-7-6.385-14-12.769-21-19.154c-5.286-0.725-10.571-1.451-15.857-2.176 c-2.89-2.769-5.78-5.538-8.67-8.308c-6.429-0.363-12.857-0.725-19.286-1.088c-2.626-4.56-5.253-9.121-7.879-13.681 l-43.253-0.791c-3.571-3.319-7.143-6.637-10.714-9.956c-15.106,3.616-30.212,7.232-45.318,10.847 c-8.361,7.846-16.722,15.691-25.083,23.537c-8.456,1.956-16.912,3.912-25.368,5.868c-5.742,5.088-11.484,10.176-17.225,15.264 c-0.011,1.225-0.022,2.451-0.033,3.676c-4.36,1.179-8.72,2.357-13.08,3.536c-0.008,0.607-0.016,1.214-0.025,1.821 c-1.512,0.177-3.097,0.413-4.746,0.723c-0.826,0.155-1.628,0.322-2.408,0.497c-0.042,0.225-0.076,0.483-0.087,0.769 c-0.018,0.458,0.027,0.857,0.087,1.176c1.264,0.263,2.566,0.514,3.906,0.751c1.344,0.237,2.657,0.447,3.937,0.633 c0.023,1.385,0.046,2.77,0.068,4.155c3.005,1.281,6.01,2.562,9.015,3.843c0.911,0.747,1.889,1.626,2.887,2.652 c1.013,1.041,1.875,2.057,2.604,3c13.934,0.297,27.868,0.593,41.802,0.89c1.037,2.179,2.073,4.357,3.11,6.536 c6.184,1.148,12.859,2.106,19.983,2.744c3.291,0.295,6.491,0.505,9.593,0.643c1.192,2.11,2.385,4.22,3.577,6.33 c5.451,1.582,10.901,3.165,16.352,4.747c6.445,6.132,12.89,12.264,19.335,18.396c0.003,3.226,0.005,6.452,0.008,9.678 c-2.162,5.329-4.324,10.658-6.486,15.986c-1.437,0.046-4.109,0.319-7.022,1.83c-2.831,1.468-4.568,3.418-5.44,4.549 c-11.324-1.385-22.648-2.769-33.973-4.154c-10.522,3.033-21.044,6.066-31.566,9.099l-12.396,4.154l-21.956,7.121 c-3.173,2.827-6.346,5.654-9.519,8.481c-0.915,3.255-1.83,6.511-2.745,9.766c0.907-0.643,1.813-1.286,2.72-1.929 c0.964-1.995,1.929-3.989,2.893-5.983c2.266-1.698,4.533-3.396,6.799-5.093c7.763-0.033,15.526-0.066,23.289-0.099 c5.472-2.216,11.52-4.286,18.126-6.008c1.887-0.492,3.742-0.936,5.563-1.335c3.658-0.803,6.541-0.874,9.775-1.063 c2.163-0.127,5.009-0.234,8.374-0.198c-5.407,4.56-10.813,9.121-16.22,13.681c-3.978,2.066-7.956,4.132-11.934,6.198 c-1.661,0.395-3.649,0.71-5.901,0.758c-0.921,0.02-1.791-0.007-2.604-0.066c0.56,0.912,1.121,1.824,1.681,2.736 c4.601-0.052,9.203-0.104,13.804-0.155c5.749-3.143,10.386-5.737,13.559-7.526c4.799-2.705,8.085-4.603,14.044-7.912 c3.055-1.696,5.561-3.069,7.187-3.956c5-1.484,10-2.967,15-4.451c7.275,0.041,14.549,0.082,21.824,0.124 c14.901,5.365,29.802,10.731,44.703,16.096c3.505,2.967,7.011,5.934,10.516,8.901c0.527,2.868,1.055,5.736,1.582,8.604 c0.967-0.989,1.934-1.978,2.901-2.967c-0.011-3.253-0.022-6.505-0.033-9.758c-1.516-2.484-3.033-4.967-4.549-7.451 c-3-1.67-6-3.341-9-5.011c0.045-0.388,0.125-0.834,0.264-1.319c0.204-0.711,0.475-1.297,0.725-1.747 c2.509-0.103,5.199-0.309,8.044-0.659c3.623-0.446,6.958-1.059,9.973-1.747c6.462-0.031,12.923-0.062,19.385-0.093 c1.533,0.614,3.066,1.227,4.599,1.841c3.351,3.84,7.083,7.837,11.225,11.901c3.625,3.557,7.19,6.797,10.632,9.742 c2.146,0.183,4.292,0.366,6.438,0.55c2.799-1.991,5.598-3.982,8.397-5.974c0.103-0.831,0.207-1.662,0.31-2.493 c-2.526,0.991-5.053,1.981-7.579,2.972c-0.669-0.11-1.345-0.225-2.027-0.346c-0.634-0.113-1.26-0.228-1.879-0.346 c-4.005-6.049-8.011-12.099-12.016-18.148c3.445-0.231,6.89-0.462,10.335-0.692l0.791-8.572 c-5.644,0.162-11.288,0.325-16.933,0.487c-2.696-1.014-5.393-2.028-8.089-3.042c-11.275,0.181-22.549,0.363-33.824,0.544 c-0.695-0.509-1.568-1.068-2.621-1.582c-1.116-0.545-2.15-0.9-3.016-1.137c-2.769-0.181-5.538-0.363-8.308-0.544 c-1.389-1.185-2.984-2.428-4.797-3.659c-2.132-1.449-4.174-2.617-6.033-3.56c-0.445-2.011-0.89-4.022-1.335-6.033 c-0.62-1.588-1.24-3.177-1.861-4.765c0.554-1.857,1.109-3.713,1.663-5.57c-0.082-2.571-0.165-5.143-0.247-7.714 c-0.973-2.044-1.945-4.088-2.918-6.132c-0.031-2.406-0.062-4.812-0.093-7.218c1.449-2.935,2.897-5.869,4.346-8.804 c1.882,0.002,3.811-0.029,5.786-0.099c4.564-0.161,8.893-0.51,12.962-0.987c4.281-2.482,8.709-5.196,13.247-8.162 c4.831-3.158,9.351-6.318,13.566-9.429c3.261,0.039,6.654,0.007,10.17-0.115c2.717-0.095,5.356-0.238,7.912-0.42 c0.725-1.216,1.471-2.61,2.176-4.179c0.625-1.391,1.125-2.711,1.527-3.928c11.409-0.119,22.817-0.239,34.226-0.358 c0.346-0.208,0.828-0.551,1.286-1.088c0.393-0.461,0.639-0.913,0.791-1.253c4.549-0.066,9.099-0.132,13.648-0.198 c0.219-0.195,0.516-0.51,0.742-0.969c0.456-0.926,0.314-1.811,0.247-2.13c3.574-1.562,7.149-3.124,10.723-4.686 c0.085-0.256,0.187-0.67,0.156-1.183c-0.023-0.387-0.114-0.703-0.198-0.923C309.824,169.978,299.242,167.791,288.659,165.604z M98.282,197.477c-0.241-0.276-0.563-0.712-0.798-1.312c-0.328-0.836-0.328-1.579-0.297-1.995 c7.022-0.269,14.044-0.538,21.066-0.808c0.967,1.396,1.934,2.791,2.901,4.187C113.53,197.525,105.906,197.501,98.282,197.477z M139.747,206.319c-2.406-0.289-4.78-0.552-7.121-0.791c-2.484-4.132-4.967-8.264-7.451-12.396 c0.508-0.408,1.121-0.843,1.846-1.253c1.2-0.679,2.327-1.077,3.231-1.319c2.198,2.286,4.396,4.571,6.593,6.857 c2.923,1.253,5.846,2.505,8.769,3.758c0.11,1.978,0.22,3.956,0.33,5.934C143.907,206.834,141.841,206.57,139.747,206.319z M158.473,212.714c-1.698-0.281-3.395-0.563-5.093-0.844c-0.186-0.995-0.4-2.011-0.644-3.046 c-1.081-4.581-2.555-8.653-4.154-12.198c-0.271-1.458-0.478-3.58-0.066-6.066c0.232-1.4,0.607-2.597,0.989-3.56 c1.824-0.022,3.648-0.044,5.473-0.066c0.769,0.967,1.538,1.934,2.308,2.901c0.264,5.363,0.527,10.725,0.791,16.088 c0.315,0.741,0.714,1.925,0.791,3.429C158.942,210.787,158.695,211.958,158.473,212.714z M208.549,203.22 c-4.555,0.253-9.11,0.505-13.665,0.758c0.571-1.539,1.516-3.524,3.107-5.53c3.252-4.099,7.296-5.877,9.321-6.602 c2.761,0,5.522,0,8.283,0c1.522-0.371,3.374-0.699,5.494-0.823c1.85-0.108,3.507-0.037,4.915,0.106 C220.187,195.159,214.368,199.19,208.549,203.22z M251.151,188.607c-3.033,0.223-6.066,0.445-9.099,0.668 c0.766-1.078,1.756-2.307,3.016-3.56c1.237-1.23,2.447-2.2,3.511-2.953c1.97-0.029,3.939-0.059,5.909-0.088 C253.376,184.651,252.264,186.629,251.151,188.607z"/><path d="M41.604 271.387c1.83-1.294 3.659-2.588 5.489-3.882 4.302 2.324 8.604 4.648 12.907 6.973v-10.236l-11.423-2.571c-2.275 2.505-4.549 5.011-6.824 7.517-.086.289-.17.667-.198 1.113C41.528 270.727 41.559 271.097 41.604 271.387zM129.132 307.791c.824.335 1.648.67 2.473 1.005.94-2.324 1.879-4.648 2.819-6.973 6.874-3.941 13.747-7.883 20.621-11.824h-22.088l-3.824 10.473V307.791zM235.253 290c2.736 4.156 5.473 8.311 8.209 12.467 3.184.509 6.368 1.019 9.553 1.528.856.656 1.75 1.397 2.662 2.23.64.585 1.233 1.165 1.78 1.731 1.286-.014 2.572-.029 3.858-.043-.841-1.898-1.682-3.796-2.523-5.693-.953-.503-1.992-1.004-3.115-1.484-1.796-.766-3.496-1.343-5.044-1.78-1.104-2.985-2.209-5.971-3.313-8.956C243.297 290 239.275 290 235.253 290zM290 278.055c3.41-1.802 6.82-3.604 10.231-5.407 1.363-4.835 2.725-9.67 4.088-14.505-.901.121-1.802.242-2.703.363l-5.868 6.824L290 265.231V278.055z"/></g></switch></svg>