<svg xmlns="http://www.w3.org/2000/svg" viewBox="0 0 350 350" style="enable-background:new 0 0 350 350" xml:space="preserve"><switch><g><path style="opacity:.4" d="M45 45h260v260H45z"/><path style="fill:#1c7687" d="M73 73h204v204H73z"/><path style="fill:#fff" d="M242.337 186.074c-11.621-.514-25.799-2.613-25.754-4.158.05-1.704 17.393-2.496 30.25-3.083a692.573 692.573 0 0 1 31.907-.724 108.646 108.646 0 0 0 3.58-27.721c0-5.21-.375-10.331-1.085-15.344a431.473 431.473 0 0 0-55.713-6.419l-7.771-2.5h61.843a107.752 107.752 0 0 0-10.119-26.98l-105.252-5.089c-3.998-.261-10.94-.743-15.364-1.239-.652-.073-1.941-.224-1.955-.505-.021-.44 3.094-.923 4.458-1.13 3.29-.5 9.279-1.175 20.222-1.535a2443.28 2443.28 0 0 1 30.876-1.265c21.742-.752 35.318-.928 57.374-2.297l1.317-.083c-19.76-26.756-51.517-44.112-87.331-44.112-24.424 0-46.962 8.072-65.095 21.692l.574.028c7.163.322 41.241 1.247 46.042 1.658.337.029 1.046.099 1.076.317.075.536-4.031 1.517-4.889 1.722-5.033 1.203-9.054 1.446-10.986 1.569-7.948.508-4.608.533-13.484 1.079-6.828.42-6.985.293-15.605.801-5.601.33-8.769.575-12.443 1.048-18 17.14-30.112 40.403-33.011 66.448 1.508.136 3.307.284 5.334.416 16.829 1.099 24.731-.402 39.583 1.708 3.999.568 11.411 1.622 11.417 3.069.007 1.753-10.839 3.111-14.242 3.538-9.784 1.226-23.865 1.939-42.704-.252-.04 1.215-.068 2.434-.068 3.659 0 39.151 20.739 73.454 51.827 92.535 17.065-.359 34.263-.802 51.603-1.341a5138.115 5138.115 0 0 0 67.65-2.553 109.134 109.134 0 0 0 23.204-22.209c-28.927-.284-51.58-.281-67.881-.208-11.509.052-35.366.207-67.667-.446-7.8-.158-14.228-.325-18.513-.444-3.16-.038-5.52-.274-7.104-.488-.771-.104-1.709-.25-1.73-.527-.012-.17.318-.445 2.667-1.042 3.237-.822 5.042-1 5.042-1 2.145-.212 8.084-.774 16.25-1.375l27.833-1.708 118.485-3.565a107.955 107.955 0 0 0 9.274-19.81h-27.218c-1.752.007-4.036-.017-6.704-.135zm-77.087 60.718c-13.473.276-19.32.142-34.125.458-2.076.044-4.06.092-5.951.141 14.632 7.352 31.154 11.498 48.646 11.498 19.47 0 37.74-5.133 53.538-14.113-14.198.403-25.937.794-34.565 1.099-15.906.562-18.47.731-27.543.917z"/><path d="M243.938 305h13.701l3.667 9.444 8.972 3.75 3.264 6.243h-4.958l-4.823-4.104-10.531-1.833-9.292-13.5zm-120.869 11.583-.097 7.972 2.882.976 3.368-7.67L150.694 305h-22.847l-4.778 11.583zm193.959-32.777 4.555-16.167-2.833.333-6.333 7.584-7.417.166v14.972zM45 273.083l-13.528-2.556-8.278 9.167.833 1.861 6-4.111 14.972 7.75v-12.111z"/><path d="M319.583 169.139 297.5 163.5l-27.972-21.75-12.174-.771-8.982-8.238-18.081-1.033-11.139-14.917-46.444-.875-11.583-10.667L112 116.792 85.583 141.75 57 148.917l-17.917 15.75v3.792l-19.534 5.553.062 4.599 9.944 3.833.445 3.667 14.729 8.056 39.41 1.403 4.819 7.847 32.208 3.917 4.583 6.958 18.25 5.042 20.458 18.75.083 9-7.25 17.542-7.875 2.583-7.042 5.042-40.486-.75-61.194 20.556-10.215 8.819-4.083 12.146 3.812-1.729 4.583-6.375 8.083-5.646 23.667-4.021 22.708-7.875 16.486-2.611.736 1.514-19.493 13.91L75 305.875l-9.354 1.521 4.146 5.042 14.812-3.146 36.533-19.066 16.509-5.08 22.354.021 46.6 18.578 12.004 10.151 1.929 8.918 4.342-4.523-.042-10.438-4.688-8.146-9.542-5.562 1.5-3.021 19.604-2.667 20.458.181 3.833 1.694 22.625 25.458 7.125 1.583 9.667-7.042 1.042-4.042-9.583 2.875-3.333-1.542-19.674-30.418-9.243-2.415-33.181 1.458-7.056-3.222-9.25-1.028-11.556-7.528-3.611-11.694 1.889-6.972-.444-7.889-3.194-6.139.306-8.278 4.347-8.667 20.042-1.292 28.611-17.708 21.25-1.5 3.535-9.375 29.708.375 2.688-2.938h8.333l.854-3.312 11.938-5.167-.25-4.774zM92.396 198.438l-1-2.792 23.083-.708 2.542 4.167-24.625-.667zm37.271 8.812-7.917-13.521 4.917-2.188 5.583 6.292 10.542 5.083 1.125 6.208-14.25-1.874zm27.166 8.208-4.5-1.75-5.667-18.542 1.083-7.042 5.458-.917 2.708 3.542-.25 15.417 2.083 5.333-.915 3.959zm53.313-10.979-13.604.875 6.333-7.417 6.375-4.271 20.208-1.417-19.312 12.23zm46.993-15.507-9.444 1.139 6.5-6.931 5.986.069-3.042 5.723z"/></g></switch></svg>