<svg xmlns="http://www.w3.org/2000/svg" viewBox="0 0 350 350"><switch><g><path d="M176.375 281.625c-9.931-2.104-24.821-4.201-44-2.875l-25.125-44-37.125 24.125-33 39.875 22.829-37.125V59.962h230.075v152.075c.076 1.979.294 4.941.971 8.463 1.291 6.718 3.442 11.259 4.5 13.75.262.616 5.338 12.822 5 24.25-.434 14.656-9.686 25.182-11.667 27.333-10.243 11.124-23.079 13.416-30.083 14.667-15.098 2.696-27.535-.902-34.5-3-7.233-2.178-7.207-3.228-18.036-7.265-4.519-1.684-16.302-5.741-29.839-8.61z" fill="#fff"/><path d="M69.492 259.625V69.5h211v141c1.095 14.858 3.581 26.43 5.758 34.5 1.909 7.075 3.705 11.919 2.5 18.75-1.844 10.449-9.233 17.169-11.75 19.25-10.456 8.643-22.969 8.537-30.078 8.365-15.426-.373-26.473-6.052-32.672-8.865-13.943-6.327-35.443-12.713-67.5-11.5l-14.5-7.5L97 227.25l-12.313 22.5-15.195 9.875z"/><linearGradient id="mozzie-a" gradientUnits="userSpaceOnUse" x1="110.216" y1="60.973" x2="241.946" y2="289.135"><stop offset="0" stop-color="#bc1956"/><stop offset=".639" stop-color="#df0b63"/><stop offset="1" stop-color="#b11d52"/></linearGradient><path d="M200.667 268c-14.845-5.152-29.288-7.701-58.186-6.756l-58.814 1.923 12.5-20.833-20.833 18.667 3.5-8.167L78.992 79h192v160.054c.245 1.654.665 4.12 1.383 7.071 1.287 5.288 2.258 6.895 2.75 9.5.948 5.015-.52 10.335-2.612 13.71-5.237 8.448-17.152 9.169-23.356 9.544-5.09.308-9.654-.209-21.108-3.016-10.72-2.627-16.08-3.941-27.382-7.863z" fill="url(#mozzie-a)"/><path d="M108.75 233c-13.251 18.382-24.824 32.219-33.25 41.75-6.644 7.515-22.151 24.589-22.25 24.501v-.001c.002-.214 24.121-5.153 43.5-8 10.946-1.608 25.942-3.367 44.137-4.133A51.899 51.899 0 01134 278a51.81 51.81 0 01-3.625-7.375l-8.125-15.25-12.375 7L108.75 233z" fill="#fff"/><path d="M147.582 270.97a276.224 276.224 0 00-37.957 2.78 43.773 43.773 0 005.433 3.863 44.213 44.213 0 0011.63 4.887A437.173 437.173 0 0071 290.375a269.264 269.264 0 0033.125-41.875l1.125 18.625a143.663 143.663 0 0125.584-5.5l16.748 9.345z"/><linearGradient id="mozzie-b" gradientUnits="userSpaceOnUse" x1="121.786" y1="259.883" x2="239.622" y2="55.786"><stop offset="0" stop-opacity=".2"/><stop offset=".577" stop-opacity=".846"/><stop offset="1"/></linearGradient><path d="M95.25 72.25a60.043 60.043 0 01-11 11.5 145.774 145.774 0 0120.75-9A4751.112 4751.112 0 0182 98.5a188.984 188.984 0 0131.5-22.25 282.486 282.486 0 01-31.5 34.5 398.285 398.285 0 0142.75-28A379.882 379.882 0 0182 128.25a1065.683 1065.683 0 0160.5-43.5L125.75 175a53.623 53.623 0 01-15.625 12.625A108.376 108.376 0 0093 205.25a146.778 146.778 0 0014.75-10.375c4.996-3.991 5.582-4.986 11.125-9.375 1.484-1.175 3.91-3.058 15.25-11 4.454-3.119 8.449-5.889 11.875-8.25a139.344 139.344 0 01-7.75 27.25c-4.107 5.878-8.256 9.499-11.375 11.75-3.352 2.42-6.188 3.746-11.042 7.917-2.431 2.089-2.716 2.612-5.451 4.986-4.056 3.52-6.991 5.459-9.882 7.514-9.028 6.414-15.862 12.69-15.75 12.833.084.107 4.069-3.154 11-7.875 18.55-12.635 21.638-11.568 32.625-20.5 3.501-2.846 7.832-6.73 15.25-11.375A116.113 116.113 0 01151 194.5l84.375 12.5a37.485 37.485 0 00-1.237 5.878c-.748 5.852.566 6.638-.263 9.872-.454 1.769-3.045 4.787-8.208 10.75-2.408 2.781-3.612 4.171-4.667 5.25a67.47 67.47 0 01-9.75 8.25c6.992-2.662 11.891-5.798 15.116-8.221 3.188-2.395 5.965-5.016 11.967-9.279a154.706 154.706 0 015.917-4c3.589-1.322 4.533-1.368 4.663-1.116.357.692-5.578 3.26-5.485 6.88.043 1.685 1.351 2.016 1.447 3.486.281 4.273-10.314 8.416-10.322 8.4-.011-.022 19.213-9.66 20.225-8.069.41.645-2.608 2.386-3.979 6.734-.899 2.853.086 3.313-.549 6.56-.25 1.279-.733 2.898-5.25 10a232.853 232.853 0 01-4.375 6.625c8.978-6.091 14.571-11.194 18.065-14.809 1.107-1.145 3.521-3.711 3.886-3.428.41.318-1.982 4.088-4.076 7.237a26.715 26.715 0 0011.25-9.25l3.512-7.678 2.157-54.822.081-105.75-180.25-4.25z" fill="url(#mozzie-b)"/><linearGradient id="mozzie-c" gradientUnits="userSpaceOnUse" x1="86.513" y1="210.394" x2="89.379" y2="206.979"><stop offset="0" stop-opacity=".2"/><stop offset=".517" stop-opacity=".846"/><stop offset="1"/></linearGradient><path d="M90 207.5c-.244-.091-1.529-.54-2.813.125-.879.456-1.808 1.461-1.575 1.962.352.754 3.505.713 4.262-.837.207-.421.197-.874.126-1.25z" opacity=".2" fill="url(#mozzie-c)"/><linearGradient id="mozzie-d" gradientUnits="userSpaceOnUse" x1="82.695" y1="214.08" x2="83.887" y2="212.659"><stop offset="0" stop-opacity=".2"/><stop offset=".517" stop-opacity=".846"/><stop offset="1"/></linearGradient><path d="M82.75 214.125c.26.177.792-.19 1.063-.5.059-.068.45-.516.313-.75-.151-.257-.946-.26-1.313.188-.275.334-.295.903-.063 1.062z" opacity=".2" fill="url(#mozzie-d)"/><linearGradient id="mozzie-e" gradientUnits="userSpaceOnUse" x1="197.617" y1="262.639" x2="206.4" y2="252.171"><stop offset="0" stop-opacity=".2"/><stop offset=".517" stop-opacity=".846"/><stop offset="1"/></linearGradient><path d="M205.5 253.167c-.153.065-.374.162-.638.285a22.08 22.08 0 00-4.445 2.799c-1.981 1.63-4.704 4.583-4.25 5.167.525.674 5.057-2.13 6.881-3.345 1.292-.861 5.321-3.547 4.869-4.572-.206-.468-1.29-.467-2.417-.334z" opacity=".2" fill="url(#mozzie-e)"/><linearGradient id="mozzie-f" gradientUnits="userSpaceOnUse" x1="207.036" y1="266.882" x2="235.422" y2="233.052"><stop offset="0" stop-opacity=".2"/><stop offset="1" stop-opacity=".4"/></linearGradient><path d="M240.125 237c.313.348-1.774 2.371-11.875 13.375 0 0-2.216 2.414-12.013 11.128-1.77 1.574-3.782 3.317-6.737 3.622-3.715.383-7.266-1.677-7.125-2.5.149-.869 2.966-.773 6-1.5 7.777-1.865 9.582-7.489 20-16.25 5.093-4.283 11.225-8.458 11.75-7.875z" fill="url(#mozzie-f)"/><linearGradient id="mozzie-g" gradientUnits="userSpaceOnUse" x1="87.283" y1="133.127" x2="122.819" y2="71.577"><stop offset="0" stop-opacity=".2"/><stop offset=".577" stop-opacity=".846"/><stop offset="1"/></linearGradient><path d="M84.333 110.667A412.65 412.65 0 00126 84.167C106.159 97.631 92.535 112.56 83 126.5c-.683.998-1.349 1.998-2 3l35.333-20.667L148.667 86.5l-24.5-10.5H99.833c-2.331-.363-6.924-.715-11.583 1.625-4.083 2.05-7.508 5.81-6.875 6.875.981 1.65 11.402-3.67 12.324-2.045.462.815-1.805 2.775-5.18 6.213a140.504 140.504 0 00-8.893 9.957 73.903 73.903 0 0013-5.75c8.214-4.626 12.489-9.122 13.125-8.5.753.736-4.183 8.059-11 14.625-7.106 6.845-14.089 10.78-13.5 11.875.235.438 1.57.211 3.082-.208z" opacity=".15" fill="url(#mozzie-g)"/><linearGradient id="mozzie-h" gradientUnits="userSpaceOnUse" x1="241.404" y1="274.09" x2="253.382" y2="259.815"><stop offset="0" stop-opacity=".2"/><stop offset=".517" stop-opacity=".846"/><stop offset="1"/></linearGradient><path d="M239.833 272.75c.243.494 2.594-.162 3.583-.5 5.349-1.829 8.665-7.311 10.583-11.917a81.284 81.284 0 01-9 8c-2.797 2.134-5.444 3.853-5.166 4.417z" opacity=".2" fill="url(#mozzie-h)"/><path d="M278.342 64.709L261.666 88l23.333-15.333L281.666 64l-3.324.709z" fill="#fff"/><g><path d="M52.314 190.875l-4-7.375 92.853-100c8.402-5.174 15.719-7.881 20.861-9.398 9.244-2.727 14.169-2.407 24.473-5.436a102.628 102.628 0 0017.939-7.167l-4 6.25a56.602 56.602 0 0022.75-5.5l.5 3c2.688.461 6.5.815 11 .25a37.508 37.508 0 0011.75-3.5 32.459 32.459 0 00-5.5 6.75 32.01 32.01 0 00-1.5 2.75l17.5 15.5a365.203 365.203 0 0128.569 45.706l13.909-6.623c-1.552 5.03-3.652 8.519-5.25 10.75-3.433 4.791-6.422 6.378-9.871 11.866a38.033 38.033 0 00-3.615 7.455 24.44 24.44 0 008.008-1.904 34.11 34.11 0 01-10.25 10.5l-2.548 19.461L150.939 295l-33-36.375 3.25-20.125 21.229-7.509A104.31 104.31 0 00137.939 203a104.364 104.364 0 00-12.5-26.75l-58.266 12.781-14.859 1.844z" fill="#090909"/><path d="M57.5 183.25L118 122l-1 21.75a1073.37 1073.37 0 0029.5-11c-3.515 1.581-8.865 3.4-15.5 3.5a38.134 38.134 0 01-6.75-.5l4.563-23.954c2.065-3.895 5.558-9.53 11.187-15.046 4.819-4.722 12.826-10.947 36-18 10.915-3.322 26.266-7.154 45.263-9.25 8.032 2.771 26.383 10.43 38.237 29.25a65.975 65.975 0 017.101 15.392l12.149 20.108-9 44.5L151 285l-23-26.25 1-15.25a108.754 108.754 0 0022-9c4.42-2.405 13.53-7.766 34.25-27.75A508.648 508.648 0 00210.125 181a279.651 279.651 0 00-22.875 14c1.202-6.624 1.957-14.981 1-24.5a86.64 86.64 0 00-1.516-9.614 918.482 918.482 0 0118.891-11.511A7709.304 7709.304 0 0157.5 183.25z" fill="#fff"/><path d="M65.203 175.451c3.412.329 7.016.528 10.797.549 14.714.081 27.437-2.575 37.5-5.75 76.134-18.684 92.873-22.246 93-21.75.201.783-40.664 12.853-88.069 23.187A1140.686 1140.686 0 0157.5 183.25l7.703-7.799zM204 84.5c13.247 1.027 22.751 6.731 23.75 13.5.199 1.347.139 3.264-1.013 5.715A435.805 435.805 0 00252 101.5l-9 4.375A157.743 157.743 0 01254 131a13.09 13.09 0 005.25-1 13.163 13.163 0 005.25-4c-1.276 4.384-2.84 7.633-4 9.75-1.329 2.425-1.573 2.454-4.499 7.343-2.537 4.239-2.951 5.253-5.168 8.907a158.07 158.07 0 01-4.333 6.75l5.167-2.417-5.917 37.917 20.75-17 9-41.75-11.813-20.063a85.016 85.016 0 00-9.188-19.021 75.988 75.988 0 00-33.238-23.167 63.952 63.952 0 01-9.456 5.474c-5.92 2.784-10.977 4.056-10.807 5.026.052.285.567.636 3.002.751z" fill="#ebcad3"/><path d="M143.631 189.682l16.055.327 13.064-19.071-29.119 18.744z" fill="#ff0971"/></g></g></switch></svg>