<svg xmlns="http://www.w3.org/2000/svg" xml:space="preserve" style="enable-background:new 0 0 350 350" viewBox="0 0 350 350"><switch><g><path d="M45 45h260v260H45z" style="opacity:.4"/><path d="M277 277h-72.149l-47.184-9.167-73.444-1.611 9.653-29.014L73 261.153V73h185l3.333 18.667L277 102z" style="fill:#d31850"/><path d="m108.778 234.889 2.444 20.611a119.53 119.53 0 0 1 11.889-2.889c17.216-3.26 32.534-2.229 44.333-.167l19.111 12.778c45.81 19.723 83.115 18.263 92.556 2.222 1.682-2.859 5.918-12.022-3.444-31.611l6.313-69.83 6.632 54.108a100.783 100.783 0 0 0 2.821 12.604c1.371 4.701 2.616 7.689 3.235 9.396 2.559 7.057 2.25 13.807 2.167 15.222-.114 1.93-.708 9.239-5.5 17-1.582 2.563-5.198 7.728-11.611 11.833-2.944 1.885-5.408 2.862-7.611 3.722-1.336.521-7.625 2.918-17.278 3.833-2.692.255-12.526 1.048-24.5-1.431-4.829-.999-9.478-2.422-12.458-3.333-5.192-1.588-8.942-2.988-10.333-3.5-9.045-3.331-20.382-7.506-32.5-9.917-3.283-.653-16.056-3.053-32.875-2.208a140.309 140.309 0 0 0-16.625 1.833l12.458 10.708-88.958 13.819z" style="fill:#fff"/><path d="M288.333 246.25c-1.842-6.158-3.07-12.284-4.583-19.833-.435-2.17-.977-5.034-1.25-8.806a64.31 64.31 0 0 1-.167-4.944c.017-4.991.175-22.665.448-46.719l31.983-41.392-27.806 10.042L277 112.306V80.722l-12.167 5.944L275.194 73h-32.361l-1.389-1.222 16.118-15.549L191.708 73h-88.292L89.499 90.583l24.75-9.292-18.292 21.375 30.333-16a3125.606 3125.606 0 0 0-32.333 35.708l36.625-21.75-45.917 57.208 102.778-5.722 25.668 77.668 33.611-20.111-16.155 22.811 26.988-17.644-13.478 22.005a390.235 390.235 0 0 1 19.298-11.38l-8.514 17.819 12.597-5.028 5.5 7.625a16.06 16.06 0 0 1 2.75 6.083c.2.92.871 4.404-.367 8.158-1.66 5.033-5.801 7.671-8.508 9.342-4.86 3-11.079 4.966-20.75 4.958-3.986-.003-9.739-.296-25.667-4.583-17.725-4.771-20.474-6.762-33-9.5-4.106-.897-11.091-2.4-20.333-3.25-22.251-2.046-39.048 1.396-44.647 2.67a133.933 133.933 0 0 0-17.325 5.191l-1.556-14.056-36.444 38.722L122 281.056l-13.222-9.667a260.444 260.444 0 0 1 11.889-2.5c8.317-1.548 16.227-2.603 20.667-3 16.268-1.454 31.105 1.89 37.778 3.442 15.105 3.513 34.762 10.727 40.055 12.669 1.194.438 4.331 1.601 8.667 2.667.279.068 7 1.696 13.611 2.111 4.997.314 27.596 1.734 39.556-10.556 4.439-4.561 6.833-10.305 6.833-10.306.745-1.786 1.876-4.568 2.083-8.333.126-2.3-.131-4.258-.304-5.53-.392-2.871-1.028-4.963-1.28-5.803"/><path d="M267.667 95.5 233.5 66.833l-72.138 12.499-68.445 68.501-43.194 44.306 45.139-7.972 39.222-9.75 16.417 50.861-19.389 6.667c-.07 3.097-.209 5.597-.319 7.264-.136 2.049-.334 4.457-.418 7.667-.029 1.119-.073 3.42.619 6.272.047.195.089.356.118.464a258.628 258.628 0 0 0 27.334 34 389 389 0 0 0 4.806-6.861c.52-.765 1.395-2.061 2.792-3.625a31.286 31.286 0 0 1 1.792-1.847l16.708-15.444 93.569-89.389 6.667-36.889zm-104.111 92.556-15.118-.451L177 167.723z"/><path d="m71.111 180.444 57.444-58.333 38.694-3.556-26.562-7.035a65.008 65.008 0 0 1 6.854-8.646c1.481-1.573 5.173-5.338 10.792-9.208 0 0 6.036-4.159 13.778-7.389 10.017-4.179 31.717-9.446 60.444-12.944l31.778 27.222 12.472 33.806-5.139 34.097-110.375 103.25-3.167 4.583a319.507 319.507 0 0 1-19.764-25.57 5.914 5.914 0 0 1-.417-1c-.316-1.018-.269-1.867-.25-2.222.073-1.367.248-5.167.556-10.292a129.117 129.117 0 0 0 9.219-3.011c3.332-1.229 5.823-2.159 8.948-3.836 0 0 2.493-1.338 5.127-3.143 4.666-3.196 14.879-11.893 27.789-24.107a33.646 33.646 0 0 0 2.355-5.77c.612-2.016.9-3.652 1.151-5.304.6-3.949 1.204-7.923 1.286-13.495.051-3.446.113-7.687-.833-13.208a60.564 60.564 0 0 0-3.514-12.389l-95.667 24z" style="fill:#fff"/></g></switch></svg>