<svg xmlns="http://www.w3.org/2000/svg" viewBox="0 0 350 350"><switch><g><path d="M176.375,281.625c-9.931-2.104-24.821-4.201-44-2.875c-8.375-14.667-16.75-29.333-25.125-44 c-12.375,8.042-24.75,16.083-37.125,24.125c-11,13.292-22,26.583-33,39.875c7.61-12.375,15.219-24.75,22.829-37.125 c0-67.221,0-134.442,0-201.663c76.692,0,153.384,0,230.075,0c0,50.692,0,101.383,0,152.075c0.076,1.979,0.294,4.941,0.971,8.463 c1.291,6.718,3.442,11.259,4.5,13.75c0.262,0.616,5.338,12.822,5,24.25c-0.434,14.656-9.686,25.182-11.667,27.333 c-10.243,11.124-23.079,13.416-30.083,14.667c-15.098,2.696-27.535-0.902-34.5-3c-7.233-2.178-7.207-3.228-18.036-7.265 C201.695,288.551,189.912,284.494,176.375,281.625z" fill="#fff"/><path d="M69.492,259.625c0-63.375,0-126.75,0-190.125c70.333,0,140.667,0,211,0c0,47,0,94,0,141 c1.095,14.858,3.581,26.43,5.758,34.5c1.909,7.075,3.705,11.919,2.5,18.75c-1.844,10.449-9.233,17.169-11.75,19.25 c-10.456,8.643-22.969,8.537-30.078,8.365c-15.426-0.373-26.473-6.052-32.672-8.865c-13.943-6.327-35.443-12.713-67.5-11.5 c-4.833-2.5-9.667-5-14.5-7.5c-11.75-12.083-23.5-24.167-35.25-36.25c-4.104,7.5-8.208,15-12.313,22.5 C79.622,253.042,74.557,256.333,69.492,259.625z"/><linearGradient id="a" gradientUnits="userSpaceOnUse" x1="110.216" y1="60.973" x2="241.946" y2="289.135"><stop offset="0" stop-color="#bc1956"/><stop offset=".639" stop-color="#df0b63"/><stop offset="1" stop-color="#b11d52"/></linearGradient><path d="M200.667,268c-14.845-5.152-29.288-7.701-58.186-6.756 c-19.605,0.641-39.209,1.282-58.814,1.923c4.167-6.944,8.333-13.889,12.5-20.833c-6.944,6.222-13.889,12.444-20.833,18.667 c1.167-2.722,2.333-5.444,3.5-8.167C78.886,194.889,78.939,136.944,78.992,79h192c0,53.351,0,106.703,0,160.054 c0.245,1.654,0.665,4.12,1.383,7.071c1.287,5.288,2.258,6.895,2.75,9.5c0.948,5.015-0.52,10.335-2.612,13.71 c-5.237,8.448-17.152,9.169-23.356,9.544c-5.09,0.308-9.654-0.209-21.108-3.016C217.329,273.236,211.969,271.922,200.667,268z" fill="url(#a)"/><path d="M108.75,233c-13.251,18.382-24.824,32.219-33.25,41.75c-6.644,7.515-22.151,24.589-22.25,24.501 l0-0.001c0.002-0.214,24.121-5.153,43.5-8c10.946-1.608,25.942-3.367,44.137-4.133c-2.153-2.279-4.614-5.294-6.887-9.117 c-1.57-2.642-2.743-5.15-3.625-7.375c-2.708-5.083-5.417-10.167-8.125-15.25l-12.375,7 C109.5,252.583,109.125,242.792,108.75,233z" fill="#fff"/><path d="M147.582,270.97c-7.092,0.03-14.684,0.334-22.707,1.03c-5.315,0.461-10.403,1.057-15.25,1.75 c1.525,1.269,3.329,2.597,5.433,3.863c4.304,2.59,8.396,4.042,11.63,4.887c-9.277,0.707-19.115,1.755-29.438,3.25 c-9.241,1.339-18.002,2.911-26.25,4.625c4.882-5.049,9.928-10.663,15-16.875c7.091-8.685,13.08-17.128,18.125-25 c0.375,6.208,0.75,12.417,1.125,18.625c3.681-1.151,7.717-2.25,12.083-3.208c4.814-1.056,9.34-1.789,13.501-2.292 C136.417,264.74,142,267.855,147.582,270.97z"/><linearGradient id="b" gradientUnits="userSpaceOnUse" x1="121.786" y1="259.883" x2="239.622" y2="55.786"><stop offset="0" stop-opacity=".2"/><stop offset=".577" stop-opacity=".846"/><stop offset="1"/></linearGradient><path d="M95.25,72.25c-1.384,1.898-3.077,3.984-5.125,6.125 c-2.042,2.134-4.045,3.911-5.875,5.375c2.783-1.473,5.784-2.946,9-4.375c4.113-1.828,8.052-3.351,11.75-4.625 c-3.403,3.538-6.819,7.08-10.25,10.625C90.495,89.772,86.245,94.147,82,98.5c4.313-3.761,9.22-7.696,14.75-11.625 c5.865-4.167,11.512-7.676,16.75-10.625c-4.125,5.347-8.736,10.926-13.875,16.625C93.611,99.543,87.676,105.484,82,110.75 c6.965-5.23,14.544-10.564,22.75-15.875c6.86-4.44,13.549-8.469,20-12.125c-5.366,6.746-11.309,13.746-17.875,20.875 C98.389,112.839,90.009,121.021,82,128.25c8.888-6.874,18.136-13.802,27.75-20.75c11.107-8.027,22.04-15.603,32.75-22.75 c-5.583,30.083-11.167,60.167-16.75,90.25c-1.648,1.945-3.711,4.099-6.25,6.25c-3.359,2.846-6.623,4.901-9.375,6.375 c-2.7,2.211-5.573,4.782-8.5,7.75c-3.373,3.421-6.228,6.77-8.625,9.875c3.554-2.184,8.785-5.61,14.75-10.375 c4.996-3.991,5.582-4.986,11.125-9.375c1.484-1.175,3.91-3.058,15.25-11c4.454-3.119,8.449-5.889,11.875-8.25 c-0.786,4.44-1.871,9.311-3.375,14.5c-1.352,4.663-2.85,8.92-4.375,12.75c-4.107,5.878-8.256,9.499-11.375,11.75 c-3.352,2.42-6.188,3.746-11.042,7.917c-2.431,2.089-2.716,2.612-5.451,4.986c-4.056,3.52-6.991,5.459-9.882,7.514 c-9.028,6.414-15.862,12.69-15.75,12.833c0.084,0.107,4.069-3.154,11-7.875c18.55-12.635,21.638-11.568,32.625-20.5 c3.501-2.846,7.832-6.73,15.25-11.375c3.039-1.903,5.63-3.328,7.375-4.25c28.125,4.167,56.25,8.333,84.375,12.5 c-0.396,1.338-0.916,3.367-1.237,5.878c-0.748,5.852,0.566,6.638-0.263,9.872c-0.454,1.769-3.045,4.787-8.208,10.75 c-2.408,2.781-3.612,4.171-4.667,5.25c-3.715,3.799-7.213,6.488-9.75,8.25c6.992-2.662,11.891-5.798,15.116-8.221 c3.188-2.395,5.965-5.016,11.967-9.279c2.46-1.747,4.534-3.111,5.917-4c3.589-1.322,4.533-1.368,4.663-1.116 c0.357,0.692-5.578,3.26-5.485,6.88c0.043,1.685,1.351,2.016,1.447,3.486c0.281,4.273-10.314,8.416-10.322,8.4 c-0.011-0.022,19.213-9.66,20.225-8.069c0.41,0.645-2.608,2.386-3.979,6.734c-0.899,2.853,0.086,3.313-0.549,6.56 c-0.25,1.279-0.733,2.898-5.25,10c-1.053,1.656-2.532,3.934-4.375,6.625c8.978-6.091,14.571-11.194,18.065-14.809 c1.107-1.145,3.521-3.711,3.886-3.428c0.41,0.318-1.982,4.088-4.076,7.237c1.65-0.721,3.787-1.853,6-3.625 c2.469-1.977,4.157-4.05,5.25-5.625c1.171-2.559,2.341-5.119,3.512-7.678c0.719-18.274,1.438-36.548,2.157-54.822 c0.027-35.25,0.054-70.5,0.081-105.75C215.417,75.083,155.333,73.667,95.25,72.25z" fill="url(#b)"/><linearGradient id="c" gradientUnits="userSpaceOnUse" x1="86.513" y1="210.394" x2="89.379" y2="206.979"><stop offset="0" stop-opacity=".2"/><stop offset=".517" stop-opacity=".846"/><stop offset="1"/></linearGradient><path d="M90,207.5c-0.244-0.091-1.529-0.54-2.813,0.125 c-0.879,0.456-1.808,1.461-1.575,1.962c0.352,0.754,3.505,0.713,4.262-0.837C90.081,208.329,90.071,207.876,90,207.5z" opacity=".2" fill="url(#c)"/><linearGradient id="d" gradientUnits="userSpaceOnUse" x1="82.695" y1="214.08" x2="83.887" y2="212.659"><stop offset="0" stop-opacity=".2"/><stop offset=".517" stop-opacity=".846"/><stop offset="1"/></linearGradient><path d="M82.75,214.125c0.26,0.177,0.792-0.19,1.063-0.5 c0.059-0.068,0.45-0.516,0.313-0.75c-0.151-0.257-0.946-0.26-1.313,0.188C82.538,213.397,82.518,213.966,82.75,214.125z" opacity=".2" fill="url(#d)"/><linearGradient id="e" gradientUnits="userSpaceOnUse" x1="197.617" y1="262.639" x2="206.4" y2="252.171"><stop offset="0" stop-opacity=".2"/><stop offset=".517" stop-opacity=".846"/><stop offset="1"/></linearGradient><path d="M205.5,253.167c-0.153,0.065-0.374,0.162-0.638,0.285 c-0.376,0.175-2.45,1.157-4.445,2.799c-1.981,1.63-4.704,4.583-4.25,5.167c0.525,0.674,5.057-2.13,6.881-3.345 c1.292-0.861,5.321-3.547,4.869-4.572C207.711,253.033,206.627,253.034,205.5,253.167z" opacity=".2" fill="url(#e)"/><linearGradient id="f" gradientUnits="userSpaceOnUse" x1="207.036" y1="266.882" x2="235.422" y2="233.052"><stop offset="0" stop-opacity=".2"/><stop offset="1" stop-opacity=".4"/></linearGradient><path d="M240.125,237c0.313,0.348-1.774,2.371-11.875,13.375c0,0-2.216,2.414-12.013,11.128 c-1.77,1.574-3.782,3.317-6.737,3.622c-3.715,0.383-7.266-1.677-7.125-2.5c0.149-0.869,2.966-0.773,6-1.5 c7.777-1.865,9.582-7.489,20-16.25C233.468,240.592,239.6,236.417,240.125,237z" fill="url(#f)"/><linearGradient id="g" gradientUnits="userSpaceOnUse" x1="87.283" y1="133.127" x2="122.819" y2="71.577"><stop offset="0" stop-opacity=".2"/><stop offset=".577" stop-opacity=".846"/><stop offset="1"/></linearGradient><path d="M84.333,110.667c1.138-0.631,2.277-1.27,3.417-1.917 c13.632-7.733,26.364-15.986,38.25-24.583c-19.841,13.464-33.465,28.393-43,42.333c-0.683,0.998-1.349,1.998-2,3 c11.778-6.889,23.556-13.778,35.333-20.667L148.667,86.5l-24.5-10.5H99.833c-2.331-0.363-6.924-0.715-11.583,1.625 c-4.083,2.05-7.508,5.81-6.875,6.875c0.981,1.65,11.402-3.67,12.324-2.045c0.462,0.815-1.805,2.775-5.18,6.213 c-3.872,3.944-6.849,7.435-8.893,9.957c3.157-1.047,7.789-2.815,13-5.75c8.214-4.626,12.489-9.122,13.125-8.5 c0.753,0.736-4.183,8.059-11,14.625c-7.106,6.845-14.089,10.78-13.5,11.875C81.486,111.313,82.821,111.086,84.333,110.667z" opacity=".15" fill="url(#g)"/><linearGradient id="h" gradientUnits="userSpaceOnUse" x1="241.404" y1="274.09" x2="253.382" y2="259.815"><stop offset="0" stop-opacity=".2"/><stop offset=".517" stop-opacity=".846"/><stop offset="1"/></linearGradient><path d="M239.833,272.75c0.243,0.494,2.594-0.162,3.583-0.5 c5.349-1.829,8.665-7.311,10.583-11.917c-3.487,3.585-6.638,6.199-9,8C242.202,270.467,239.555,272.186,239.833,272.75z" opacity=".2" fill="url(#h)"/><path d="M278.342,64.709c-5.559,7.764-11.117,15.527-16.676,23.291 c7.778-5.111,15.556-10.222,23.333-15.333c-1.111-2.889-2.222-5.778-3.333-8.667C280.559,64.236,279.451,64.473,278.342,64.709z" fill="#fff"/><path d="M52.314,190.875c-1.333-2.458-2.667-4.917-4-7.375c30.951-33.333,61.902-66.667,92.853-100 c8.402-5.174,15.719-7.881,20.861-9.398c9.244-2.727,14.169-2.407,24.473-5.436c7.874-2.314,14.01-5.149,17.939-7.167 c-1.333,2.083-2.667,4.167-4,6.25c3.55-0.103,8.038-0.566,13.061-1.917c3.802-1.023,7.048-2.322,9.689-3.583 c0.167,1,0.333,2,0.5,3c2.688,0.461,6.5,0.815,11,0.25c5.118-0.643,9.132-2.224,11.75-3.5c-1.775,1.666-3.749,3.883-5.5,6.75 c-0.576,0.943-1.072,1.865-1.5,2.75c5.833,5.167,11.667,10.333,17.5,15.5c8.893,12.139,17.503,25.444,25.5,40 c1.048,1.907,2.071,3.809,3.069,5.706c4.636-2.208,9.272-4.415,13.909-6.623c-1.552,5.03-3.652,8.519-5.25,10.75 c-3.433,4.791-6.422,6.378-9.871,11.866c-1.885,2.999-2.99,5.703-3.615,7.455c1.214-0.078,2.661-0.262,4.258-0.654 c1.451-0.356,2.707-0.806,3.75-1.25c-1.177,1.889-2.869,4.197-5.25,6.5c-1.758,1.701-3.489,3.008-5,4 c-0.849,6.487-1.699,12.974-2.548,19.461C234.24,221.141,192.589,258.07,150.939,295c-11-12.125-22-24.25-33-36.375 c1.083-6.708,2.167-13.417,3.25-20.125c7.076-2.503,14.153-5.006,21.229-7.509c-0.16-7.164-1.117-16.928-4.479-27.991 c-3.528-11.607-8.472-20.589-12.5-26.75c-19.422,4.26-38.844,8.52-58.266,12.781C62.22,189.645,57.267,190.26,52.314,190.875z" fill="#090909"/><path d="M57.5,183.25C77.667,162.833,97.833,142.417,118,122c-0.333,7.25-0.667,14.5-1,21.75 c5.196-1.851,10.447-3.767,15.75-5.75c4.648-1.738,9.231-3.489,13.75-5.25c-3.515,1.581-8.865,3.4-15.5,3.5 c-2.505,0.038-4.773-0.176-6.75-0.5c1.521-7.985,3.042-15.97,4.563-23.954c2.065-3.895,5.558-9.53,11.187-15.046 c4.819-4.722,12.826-10.947,36-18c10.915-3.322,26.266-7.154,45.263-9.25c8.032,2.771,26.383,10.43,38.237,29.25 c3.413,5.419,5.632,10.722,7.101,15.392c4.05,6.703,8.099,13.405,12.149,20.108c-3,14.833-6,29.667-9,44.5L151,285l-23-26.25 l1-15.25c5.473-1.57,13.303-4.267,22-9c4.42-2.405,13.53-7.766,34.25-27.75c6.636-6.4,15.229-15.039,24.875-25.75 c-3.26,1.786-6.599,3.7-10,5.75c-4.555,2.746-8.846,5.51-12.875,8.25c1.202-6.624,1.957-14.981,1-24.5 c-0.347-3.454-0.88-6.666-1.516-9.614c3.534-2.212,7.123-4.425,10.766-6.636c2.722-1.652,5.431-3.277,8.125-4.875 c-29.395,7.028-59.104,13.948-89.125,20.75C96.732,174.604,77.065,178.978,57.5,183.25z" fill="#fff"/><path d="M65.203 175.451C68.615 175.78 72.219 175.979 76 176c14.714.081 27.437-2.575 37.5-5.75 76.134-18.684 92.873-22.246 93-21.75.201.783-40.664 12.853-88.069 23.187-25.264 5.507-46.366 9.21-60.931 11.563C60.068 180.65 62.636 178.051 65.203 175.451zM204 84.5c13.247 1.027 22.751 6.731 23.75 13.5.199 1.347.139 3.264-1.013 5.715 4.713-.275 9.553-.634 14.513-1.09 3.659-.337 7.243-.714 10.75-1.125-3 1.458-6 2.917-9 4.375 2.324 4.258 4.664 9.01 6.875 14.25 1.595 3.779 2.957 7.418 4.125 10.875 1.156.019 3.09-.099 5.25-1 2.808-1.171 4.491-3.036 5.25-4-1.276 4.384-2.84 7.633-4 9.75-1.329 2.425-1.573 2.454-4.499 7.343-2.537 4.239-2.951 5.253-5.168 8.907-1.796 2.959-3.344 5.293-4.333 6.75 1.722-.806 3.444-1.611 5.167-2.417-1.972 12.639-3.944 25.278-5.917 37.917 6.917-5.667 13.833-11.333 20.75-17 3-13.917 6-27.833 9-41.75-3.938-6.688-7.875-13.375-11.813-20.063-.85-2.519-1.896-5.227-3.188-8.063-1.919-4.213-3.999-7.865-6-10.958-3.284-3.961-8.15-9.013-14.917-13.75-6.889-4.823-13.418-7.689-18.321-9.417-1.975 1.382-5.193 3.47-9.456 5.474-5.92 2.784-10.977 4.056-10.807 5.026C201.05 84.034 201.565 84.385 204 84.5z" fill="#ebcad3"/><path d="M143.631,189.682c5.352,0.109,10.704,0.218,16.055,0.327c4.355-6.357,8.709-12.714,13.064-19.071 C163.044,177.186,153.337,183.434,143.631,189.682z" fill="#ff0971"/></g></switch></svg>