<svg xmlns="http://www.w3.org/2000/svg" viewBox="0 0 350 350"><switch><g><path d="M41.226,230h9.675v-15h7v-16h4v-16h-9v-16h9v-16h7v-16h2v-15h-2v-15h-9V90h-10V75h-6V60h232v15 h10v15h6v15h10v15h2.675v15h-2.675v16h-7v16h-3v16h-3v16h-13v16h8v15h-7v15h10v15h6v15h9v15h-233v-15h-12v-15h-2v-15H41.226 V230z" fill="#fff"/><path d="M64.901,245h-8v-15h3v-15h7v-16h7v-16h-9v-16h7v-16h6v-16h3v-15h4v-15h-16V90h-7V75h198v15h23v15h8v15h-4v15h5v16h-6 v16h-7v16h-8v16h-4v16h7v15h-12v15h16v15h-6v15h21v5h-214v-5h6v-15h-20V245z M52.901,70h214v5h-214V70z"/><path d="M110.901,260h161v10h-161V260z M80.901,199h19v-16h-21v-16h164v16h12v16h12v16h-12v15h-7v15h12 v15h-173v-15h-10v-15h-8v-15h12V199z M224.901,90h49v15h4v15h-9v15h10v16h-10v16h-185v-16h12v-16h18v-15h-10v-15h-8V90h-24v-9 h153V90z" fill="#906f79"/><path d="M121.901,167c-2.152-5.168-2-15-2-15s-0.012-0.361-0.006-1h5.058 c0.021-2.611,0.326-9.859,2.868-16h3.941c0.586-1.416,1.291-2.772,2.139-4c5.425-7.857,13-10,13-10s0.103-0.363,0.348-1h83.288 c0.255,0.637,0.364,1,0.364,1s7.575,2.143,13,10c0.848,1.228,1.553,2.584,2.139,4h-3.942c2.542,6.141,2.846,13.389,2.868,16 h-5.059c0.006,0.639-0.006,1-0.006,1s0.152,9.832-2,15h-8c-2.15,5.162-7.986,15.973-8,16l-1,9c0,0,6.977,2.94,15,7h-3 c5.222,2.643,9.149,7.924,9.718,16h-2.886c0.298,4.227-0.325,9.22-2.163,15h-5.114c-1.079,3.394-2.578,7.059-4.555,11 c-0.689,1.374-1.412,2.661-2.162,3.864h10.779c-9.858,15.687-24.468,17.128-31.753,13c-8.237-4.667-20.015-11.796-21.776-12.864 h-0.41l-10.814,7.864L160.952,245h-0.41c-1.761,1.068-13.539,8.197-21.777,12.864c-7.263,4.116-21.81,2.695-31.667-12.864 h-10.95c-0.781-1.243-1.532-2.574-2.247-4c-1.977-3.941-3.476-7.606-4.555-11h5.114c-1.838-5.78-2.46-10.773-2.163-15h2.886 c0.569-8.076,4.496-13.357,9.718-16h3c8.023-4.06,15-7,15-7l-1-9l-0.066-0.123c-0.651-1.209-5.916-11.032-7.934-15.877 L121.901,167L121.901,167z M155.321,105h-10c6.223-4.406,15.353-8,28.58-8h2c13.016,0.072,22.084,3.638,28.317,8h10 c7.972,5.58,11.303,12.463,12.319,15h-83.288C144.223,117.463,147.441,110.58,155.321,105z" fill="#fff"/><path d="M225.838,260c-4.309,2.204-9.031,3.332-13.865,2.877c-3.015-0.283-5.835-1.438-8.568-2.877H225.838z M142.451,260 c-0.358,0.205-0.717,0.409-1.075,0.612c-6.333,3.553-13.817,2.863-20.722-0.612H142.451z M183.998,244.864 c-0.566-4.526-0.143-9.625,1.294-14.864h4.112c-1.632,5.326-2.121,10.473-1.48,14.864h0.612 c2.421,1.473,4.848,2.942,7.285,4.392c-0.428-1.386-0.742-2.855-0.941-4.392h3.928c0.472,3.109,1.514,5.833,3.121,7.965 c1.48,0.848,2.965,1.684,4.457,2.504c6.115,3.295,14.543,0.881,20.184-3.599c2.497-1.983,4.665-4.312,6.533-6.87h6.916 l-0.071,0.123c-3.596,6.2-8.986,11.675-15.246,14.877H202.27c-1.791-0.943-3.545-2.008-5.291-3.029 c-4.169-2.439-8.316-4.915-12.456-7.404l-1.605-0.968l-11.153,8.111l-11.152-8.111c-6.383,3.855-12.807,7.693-19.298,11.401 h-21.797c-6.187-3.113-11.91-8.463-15.926-15h7.021c4.865,6.897,12.5,12.242,20.528,11.967 c3.659-0.125,7.081-1.995,10.477-4.024c1.574-2.097,2.604-4.765,3.083-7.807h-0.609c1.989-1.196,3.975-2.397,5.96-3.6 l4.827,3.511l0.077-0.047h10.91l5.899,4.291l5.713-4.155H166.8l4.95-3.6c1.937,1.175,3.875,2.356,5.816,3.536l0.099-0.072 H183.998L183.998,244.864z M154.731,245h-6.098c-0.196,1.457-0.495,2.854-0.898,4.175 C150.072,247.792,152.403,246.399,154.731,245z M91.955,215c0.312-4.731,1.791-9.268,4.995-13.307 c0.796-1.004,1.705-1.891,2.692-2.693h3c2.655-2.156,5.879-3.69,9.017-5.191c2.581-1.235,5.182-2.429,7.799-3.586l0.217-0.095 c-0.256-2.301-0.023-4.964-0.975-6.75c-0.067-0.126-0.135-0.252-0.202-0.378l-0.066-0.122 c-2.777-5.172-5.821-10.307-7.63-15.878h6.371c0.051,0.117,0.102,0.234,0.155,0.35c2.28,5.025,4.883,9.887,7.491,14.742 l1.31,11.795c-2.744,1.167-5.482,2.356-8.195,3.592c1.513,0.35,3.043,0.86,4.572,1.521h-3c6.535,2.824,13.052,8.402,18.104,16 h-2.886c0.625,0.939,1.227,1.909,1.804,2.909c2.3,3.983,3.995,8.078,5.096,12.091h-4.111c-1.025-3.345-2.501-6.76-4.43-10.102 c-1-1.732-2.077-3.368-3.216-4.898h2.886c-7.631-10.262-17.979-15.79-25.773-13.696c-0.304,0.155-0.607,0.311-0.909,0.468 c-4.718,2.495-7.153,7.757-7.757,13.228h-2.886c-0.21,1.901-0.198,3.828,0.015,5.673c0.365,3.15,1.074,6.285,2.049,9.327h-5.114 c1.614,5.031,3.958,9.81,6.686,13.99c0.221,0.34,0.45,0.677,0.685,1.01h-7.021c-0.696-1.134-1.341-2.303-1.929-3.502 c-0.448-0.917-0.882-1.841-1.3-2.772c-1.261-2.812-2.428-5.745-3.367-8.726h5.115c-1.569-4.98-2.501-10.094-2.178-15H91.955 L91.955,215z M137.787,245h-3.929c0.671-4.421,0.189-9.619-1.46-15h4.112C137.961,235.291,138.379,240.44,137.787,245 L137.787,245z M200.192,215c5.052-7.598,11.569-13.176,18.104-16h3c1.552-0.671,3.105-1.187,4.64-1.537 c-1.835-0.817-3.684-1.612-5.527-2.41l-2.736-1.166l1.21-10.887l0.1-0.908c2.674-4.977,5.43-9.734,7.356-15.092h6.47 c-0.632,2.049-1.418,4.052-2.371,5.998c-1.648,3.366-3.377,6.692-5.135,10.002l-0.201,0.378l-0.283,0.53l-0.692,6.22 c5.928,2.608,12.129,4.943,16.81,8.872h-3c3.053,2.563,5.46,5.804,6.723,10.242c0.54,1.898,0.874,3.822,1.03,5.758h-2.886 c0.404,5.018-0.384,10.11-1.86,15h-5.114c-1.62,5.367-4.068,10.489-6.675,15h-6.916c3.292-4.507,5.651-9.723,7.232-15h5.114 c0.724-2.418,1.286-4.849,1.698-7.231c0.437-2.52,0.591-5.184,0.355-7.769h2.885c-0.488-5.341-2.645-10.343-7.427-13.03 c-0.38-0.214-0.764-0.424-1.149-0.632c-7.808-2.187-18.226,3.345-25.898,13.662h-2.886c-1.138,1.531-2.216,3.166-3.215,4.898 c-1.93,3.342-3.405,6.757-4.43,10.102h-4.111c1.1-4.013,2.795-8.108,5.095-12.091c0.577-1,1.179-1.97,1.804-2.909H200.192 L200.192,215z M148.416,215l12-12l-4-4h3l-11.203-11.203l8.485-8.485l15.203,15.203l15.203-15.203l8.485,8.485L184.386,199h-3 l-4,4l12,12h-2.885l3.202,3.203l-8.485,8.485L169.53,215h2.886l-3.515-3.515L165.386,215h-2.885l-11.689,11.688l-8.485-8.485 L145.53,215H148.416L148.416,215z M133.594,167c-1.739-4.192-2.693-9.527-2.693-16h5.058c0-8.72,2.958-13.444,6.051-16h3.942 c3.392-2.803,6.949-3,6.949-3s2.006,0,4.123,0c3.204,0,6.362,0.77,9.206,2.245l1.457,0.755h-3.942l21.214,11l21.215-11h3.941 l1.457-0.755c2.844-1.475,6.002-2.245,9.206-2.245c2.117,0,4.123,0,4.123,0s3.556,0.197,6.949,3h-3.942 c3.094,2.556,6.051,7.28,6.051,16h-5.058c0,6.473-0.954,11.808-2.693,16h-8c-3.171,7.647-8.951,11.488-16.307,11.488 c-11.388,0-17-7.488-17-7.488s-3.205-2.541-7.108-4h8c-1.572-0.588-3.257-1-4.892-1h-2c-1.635,0-3.32,0.412-4.892,1h-8 c-3.903,1.459-7.108,4-7.108,4s-5.612,7.488-17,7.488c-7.356,0-13.136-3.841-16.307-11.488H133.594L133.594,167z M121.82,151 c0.023-5.578,0.789-11.068,2.727-16h3.941c1.19-3.028,2.821-5.846,4.993-8.345c2.33-2.681,5.133-4.956,8.252-6.655h8.785 c-0.401,0.93-0.728,1.81-0.728,1.81l-0.483,1.613c-6.037,1.76-10.729,5.932-13.714,11.577h-3.942 c-2.402,4.542-3.699,10.038-3.702,16h-5.059c0,0.326,0.004,0.653,0.011,0.981c-0.054,5.131,0.271,10.388,2.272,15.019h-6.371 c-0.631-1.944-1.112-3.941-1.379-6.011c-0.424-3.294-0.676-6.657-0.662-9.989H121.82L121.82,151z M241.975,151 c0.037-4.054-0.332-5.644-0.721-7.895c-0.486-2.808-1.391-5.57-2.685-8.105h3.942c-2.621-5.134-6.84-9.338-12.414-11.109 l-1.575-0.459c-0.375-1.189-0.825-2.333-1.346-3.432h8.887c5.905,3.249,10.178,8.611,12.789,15h-3.942 c2,4.894,3.024,10.391,3.056,16h-5.058v0.094c0.004,1.053-0.004,1.358-0.007,1.875c-0.057,4.831-0.706,9.542-2.092,14.031h-6.47 c1.596-4.438,2.622-9.289,2.562-15.019c0.008-0.342,0.013-0.669,0.016-0.981H241.975L241.975,151z M150.634,105h-10 c9.536-7.895,23.068-11.101,35.695-10.997c11.796,0.163,23.819,3.866,32.547,10.997h10c4.451,3.636,8.045,8.163,10.316,13.566 c0,0,1.403,0.658,2.417,1.19c0.152,0.08,0.304,0.161,0.454,0.244h-8.887c-3.15-6.654-8.859-11.66-15.847-15h-10 c-6.96-3.327-15.19-5-23.424-5c-7.73,0.021-15.712,1.559-22.524,5h10c-6.011,3.037-11.11,7.556-14.318,13.825 c-0.182,0.356-0.37,0.77-0.545,1.175h-8.785c0.897-0.489,1.822-0.931,2.768-1.321c0,0,2.053-4.479,4.228-7.444 C146.444,108.895,148.432,106.823,150.634,105L150.634,105z"/><linearGradient id="a" gradientUnits="userSpaceOnUse" x1="178.962" y1="135.483" x2="179.662" y2="135.483" gradientTransform="matrix(127.1429 0 0 -8.5714 -22581.857 1263.286)"><stop offset="0" stop-color="#fff" stop-opacity="0"/><stop offset=".5" stop-color="#fff" stop-opacity=".5"/><stop offset="1" stop-color="#fff" stop-opacity="0"/></linearGradient><path fill="url(#a)" d="M171.901 99H260.901V105H171.901z"/><linearGradient id="b" gradientUnits="userSpaceOnUse" x1="179.467" y1="155.803" x2="180.167" y2="155.803" gradientTransform="matrix(150 0 0 -21.4286 -26816.143 3451.143)"><stop offset="0" stop-color="#fff" stop-opacity="0"/><stop offset=".5" stop-color="#fff" stop-opacity=".75"/><stop offset="1" stop-color="#fff" stop-opacity="0"/></linearGradient><path fill="url(#b)" d="M103.901 105H208.901V120H103.901z"/><linearGradient id="c" gradientUnits="userSpaceOnUse" x1="177.025" y1="157.5" x2="177.725" y2="157.5" gradientTransform="matrix(71.4286 0 0 -22.8571 -12414.715 3759)"><stop offset="0" stop-color="#fff"/><stop offset="1" stop-color="#fff" stop-opacity="0"/></linearGradient><path fill="url(#c)" d="M229.901 151H279.901V167H229.901z"/><linearGradient id="d" gradientUnits="userSpaceOnUse" x1="174.014" y1="157.8" x2="174.714" y2="157.8" gradientTransform="matrix(32.8571 0 0 -22.8571 -5614.714 3781.857)"><stop offset="0" stop-color="#fff" stop-opacity="0"/><stop offset="1" stop-color="#fff"/></linearGradient><path fill="url(#d)" d="M102.901 167H125.901V183H102.901z"/><linearGradient id="e" gradientUnits="userSpaceOnUse" x1="177.071" y1="158.1" x2="177.772" y2="158.1" gradientTransform="matrix(68.5714 0 0 -22.8571 -11946.144 3804.714)"><stop offset="0" stop-color="#fff" stop-opacity="0"/><stop offset=".5" stop-color="#fff" stop-opacity=".75"/><stop offset="1" stop-color="#fff" stop-opacity="0"/></linearGradient><path fill="url(#e)" d="M195.901 183H243.901V199H195.901z"/><linearGradient id="f" gradientUnits="userSpaceOnUse" x1="175.903" y1="155.743" x2="176.603" y2="155.743" gradientTransform="matrix(54.2857 0 0 -16.8571 -9336.144 2876.286)"><stop offset="0" stop-color="#fff"/><stop offset="1" stop-color="#fff" stop-opacity="0"/></linearGradient><path fill="url(#f)" d="M212.901 245H250.901V256.8H212.901z"/><linearGradient id="g" gradientUnits="userSpaceOnUse" x1="178.694" y1="158.003" x2="179.394" y2="158.003" gradientTransform="matrix(92.8571 0 0 -21.4286 -16526.143 3608.286)"><stop offset="0" stop-color="#fff" stop-opacity="0"/><stop offset=".5" stop-color="#fff" stop-opacity=".75"/><stop offset="1" stop-color="#fff" stop-opacity="0"/></linearGradient><path fill="url(#g)" d="M66.901 215H131.901V230H66.901z"/></g></switch></svg>