<svg xmlns="http://www.w3.org/2000/svg" viewBox="0 0 350 350" style="enable-background:new 0 0 350 350" xml:space="preserve"><switch><g><path style="opacity:.4" d="M45 45h260v260H45z"/><path d="M68.5 73a197.58 197.58 0 0 1 4.792 14.667 198.428 198.428 0 0 1 4.75 21h13.417c1.38 7.277 2.385 17.158 1.018 28.659a93.303 93.303 0 0 1-3.268 15.737h-4.448a208.551 208.551 0 0 1-5.816 14.826c-2.447 5.602-2.719 5.556-6.924 14.528-5.88 12.546-7.718 17.695-8.854 23.708a66.502 66.502 0 0 0-.806 5.534H57.8a133.024 133.024 0 0 0 4.992 44.452h6.781L76.042 277h198.692a123.381 123.381 0 0 1-6.566-20.889h-6.812a161.162 161.162 0 0 1-2.965-15c-.931-6.269-1.855-12.716-1.444-21.111.172-3.517.53-6.404.816-8.341h4.424c1.824-9.016 4.216-16.123 6.149-21.103 2.522-6.497 4.351-9.595 7.89-17.72a264.525 264.525 0 0 0 7.694-19.773h4.561a78.422 78.422 0 0 0 3.036-12.375c1.212-7.543 1.027-13.437.874-17.632a107.2 107.2 0 0 0-1.507-14.389h-13.456a149.888 149.888 0 0 0-9.864-35.666L68.5 73z"/><path style="fill:#88666f" d="M262.333 268.229H82.395a187.287 187.287 0 0 1-3.729-12.105l-6.729-.014a213.245 213.245 0 0 1-3.738-17.422c-2.204-12.881-2.063-19.247-1.824-22.94.11-1.706.259-3.119.375-4.091h4.542a72.052 72.052 0 0 1 2.583-11.076c1.266-3.977 2.517-6.705 5.696-13.381 6.098-12.808 6.454-13.188 8.096-16.91A147.809 147.809 0 0 0 94 153.061h4.444a94.315 94.315 0 0 0 2.889-14.312c1.469-12.029.374-22.399-1.141-30.083H86.687a158.632 158.632 0 0 0-5.895-26.917h180.695a139.057 139.057 0 0 1 7.069 26.917h13.278a98.02 98.02 0 0 1 1.556 12.778c.25 4.524.579 11.26-1 19.722a71.447 71.447 0 0 1-3.306 11.896h-4.389a354.154 354.154 0 0 1-4.361 10.979c-4.467 10.72-5.94 12.766-9.75 22.292-3.373 8.432-4.717 13.078-5.611 16.75a103.102 103.102 0 0 0-1.708 8.576h-4.523a136.783 136.783 0 0 0 3.717 44.452h6.708a81.983 81.983 0 0 0 3.166 12.118z"/><path style="fill:#1d1d1b" d="M239.955 206.751c-.901-2.795-2.031-4.709-3.039-6.084-.995-1.358-3.334-4.465-7.5-6.042a14.547 14.547 0 0 0-2.198-.638l-3.855-2.104-4.454-2.431a57.576 57.576 0 0 0 .993-8.658l2.525-2.754 3.667-4 .676-.738.3-.955a75.509 75.509 0 0 0 3.16-15.643c.374-4.05.388-7.875.042-11.694-.304-3.358-.83-6.131-1.565-8.242-1.4-4.019-3.364-6.701-4.203-7.846-1.166-1.591-2.371-3.237-4.553-4.725-.987-.673-1.774-1.039-2.686-1.463a54.936 54.936 0 0 1-3.974-2.015 39.532 39.532 0 0 0-5.824-9.042c-11.602-13.501-29.254-14.959-36.305-14.959l-.454.001h-.099c-19.104.073-30.088 7.76-35.939 14.196a40.557 40.557 0 0 0-6.581 9.826c-.939.494-1.878 1.003-2.805 1.519-2.877 1.601-4.321 2.405-5.613 3.474-2.814 2.328-4.071 4.935-5.286 7.455-2.606 5.406-3.115 10.277-3.36 12.619-.274 2.624-.297 5.53-.07 8.883.394 5.805 1.483 11.7 3.237 17.522l.287.951.661.742 3.924 4.409 2.31 2.596a39.742 39.742 0 0 0 .932 8.637l-4.175 2.23-3.41 2.016a16.48 16.48 0 0 0-1.991.578c-2.339.841-3.896 1.999-4.688 2.597-.209.158-3.198 2.455-5.286 5.913-3.261 5.4-3.054 11.525-2.883 15.284.617 13.566 7.406 23.227 10.402 26.955 3.432 4.271 6.682 6.72 8.35 7.876 2.23 1.544 5.752 3.932 10.839 4.926 1.071.209 2.616.501 4.675.425 1.297-.048 5.369-.252 9.319-2.975a16.283 16.283 0 0 0 2.438-2.063l7.145-4.354 7.871-4.475 6.925 5.332 2.729 2.101 2.741-2.086 6.997-5.325 11.639 6.943 2.222 1.281c.207.154.525.392.91.688 1.257.968 2.134 1.713 2.311 1.861 1.662 1.383 4.48 2.31 5.006 2.483 4.102 1.349 10.536.462 16.216-2.316 4.95-2.422 7.907-5.586 10.222-8.111 3.02-3.294 9.187-10.977 11.528-22.556.64-3.147 2.037-10.459-.403-18.025z"/><path style="fill:#fff" d="M228.792 200s.828.205 1.563.523c2.095.908 4.062 4.581 4.062 4.581 1.347 2.516 1.844 4.68 1.932 5.075 1.29 5.803.195 11.629-.238 13.71-.786 3.782-3.154 12.675-10.472 20.639-.662.721-3.937 4.23-9.056 7.139-3.275 1.861-5.562 2.486-7.806 2.556a13.926 13.926 0 0 1-3.153-.264c-1.555-.506-2.66-1.197-3.424-1.794-7.662-5.975-5.803-21.656-1.617-31.331 1.349-3.117 2.831-5.362 3.625-6.551 1.846-2.768 5.5-8.12 12.042-11.824 1.4-.792 4.037-2.135 7.292-2.625 2.716-.41 4.51.004 5.25.166zm-118.459.556c1.57-.577 4.135-1.279 7.242-1.004 1.929.171 5.175.815 9.873 4.332 8.137 6.091 12.099 14.245 13.385 17.171 1.509 3.434 5.339 12.148 3.375 21.278-.502 2.333-1.571 7.302-5.761 10.273-.764.542-1.462.896-1.948 1.116-1.475.16-3.66.249-6.222-.222-4.624-.85-7.717-3.017-9.278-4.111-8.062-5.648-15.777-18.322-16.637-31.513-.476-7.295 1.38-11.144 2.303-12.765a18.632 18.632 0 0 1 3.668-4.555z"/><path style="fill:#fff" d="M225.792 145.417c-.396-4.381-1.102-6.504-1.333-7.167-1.155-3.315-2.751-5.53-3.583-6.667-1.109-1.513-1.945-2.635-3.458-3.667-.986-.673-1.627-.876-3.417-1.75a58.877 58.877 0 0 1-4.222-2.278c-1.022-2.417-2.765-5.836-5.722-9.278-11.582-13.478-29.856-13.404-33.334-13.39-3.991.016-21.139-.018-32.722 12.724-3.371 3.708-5.331 7.463-6.458 10.076-.991.507-2.399 1.244-4.069 2.174-2.64 1.469-3.96 2.204-4.934 3.01-2.056 1.701-2.977 3.61-4.101 5.942-2.22 4.605-2.682 8.687-2.938 11.132-.133 1.274-.344 3.862-.056 8.111.272 4.016 1.004 9.719 3.056 16.528l7.417 8.333a35.136 35.136 0 0 0 1.667 12.584l-7.333 3.917a37.666 37.666 0 0 1 6.778 2.917c13.383 7.392 18.236 20.851 19.472 24.444 2.841 8.255 2.514 14.922 2.415 16.491a39.697 39.697 0 0 1-1.238 7.631l13.49-8.233 9.417 7.25 9.417-7.167 14.25 8.5a32.822 32.822 0 0 1-1.528-5.806c-2.059-12.33 3.602-22.423 5.889-26.5 2.047-3.65 5.716-10.018 13.262-14.994a37.797 37.797 0 0 1 9.335-4.45l-7.431-4.056A52.926 52.926 0 0 0 215.447 179l7.333-8a70.756 70.756 0 0 0 2.972-14.708c.33-3.596.375-7.169.04-10.875zm-33.289 69.83-7.76 7.76-14.12-14.12-14.12 14.12-7.76-7.76 14.12-14.12-14.12-14.12 7.76-7.76 14.12 14.12 14.12-14.12 7.76 7.76-14.12 14.12 14.12 14.12zm26.886-60.664c-.357 3.378-1.074 10.169-6.167 16.111-1.391 1.623-3.822 4.391-8.054 6.005-4.343 1.656-8.237 1.201-10 .873-4.714-.877-8.252-3.461-12.334-6.442-.268-.196-4.465-3.264-8.994-5.221-.691-.298-1.779-.739-3.215-.743-1.553-.004-2.77.503-4.972 1.625-3.627 1.848-5.05 2.773-5.05 2.773-6.637 4.316-10.001 6.49-12.228 7.227-1.439.477-4.329 1.401-8 1-7.294-.797-11.728-6.176-12.75-7.417-2.745-3.331-3.789-6.715-4.417-8.75a29.913 29.913 0 0 1-1.292-7.667c-.163-4.557-.472-13.199 5.463-18.269 5.914-5.052 14.247-3.328 15.62-3.023l27.566 13.75 28.101-13.75c1.083-.324 8.168-2.324 14 1.833 4.016 2.862 5.334 7.144 6.065 9.516 1.294 4.204.966 7.651.658 10.569z"/></g></switch></svg>