<svg xmlns="http://www.w3.org/2000/svg" xml:space="preserve" style="enable-background:new 0 0 350 350" viewBox="0 0 350 350"><switch><g><path d="M45 45h260v260H45z" style="opacity:.4"/><path d="M73 73h204v204H73z" style="fill:#25387d"/><path d="M73 73v93.917c.104.481.275 1.169.556 1.972 1.162 3.329 3.117 5.537 4.24 6.705 7.75 8.059 18.616 15.853 18.616 15.853s9.457 6.783 20.977 15.22c3.941 2.886 7.177 5.289 9.361 6.917v25.979l22.861 28.16v26.556l25.681 19.361.396-30.451L201.722 263v-27l22.667-16.444v-7.514l23.389-17.375a136.476 136.476 0 0 0 12.681-7.375s7.39-4.852 12.132-10.12c.941-1.045 2.112-2.484 3.077-4.547a17.49 17.49 0 0 0 1.333-4.125V73h-44.438a62.198 62.198 0 0 0-9.125-11.604c-12.202-12.19-26.273-15.955-32.488-17.536-2.989-.76-11.373-2.703-22.447-2.349-7.923.254-21.301.682-34.919 9.072-11.352 6.994-17.8 16.396-21.142 22.417H73z"/><path d="M109.889 168.167v24.125l12.5 9.389V189.5a18.58 18.58 0 0 0-.264-1.75c-.755-3.783-2.495-6.375-3.931-8.444a202.327 202.327 0 0 0-8.305-11.139zm54.694-117.834a79.583 79.583 0 0 0-19.5 4.625 79.011 79.011 0 0 0-9.417 4.264 126.653 126.653 0 0 0-7.375 11.153c-1.394 2.371-15.266 26.459-16.514 52.958-.387 8.223.558 14.191.889 16.111a70.356 70.356 0 0 0 3.099 11.758c1.668 4.655 2.598 5.69 7.401 15.047 6.267 12.206 7.579 16.08 8.351 18.737a64.598 64.598 0 0 1 2.052 9.902v42.465l12.5 14.924v-54.761c-.192-7.391-1.564-13.07-2.792-16.906-2.584-8.076-5.752-11.821-13.461-28.852-1.002-2.214-2.058-4.603-3.039-7.926-2.029-6.873-2.168-12.434-2.222-15.444-.341-18.906 7.994-38.719 8.338-39.52 2.844-6.622 6.682-15.356 14.94-24.536a77.531 77.531 0 0 1 16.75-13.999z" style="fill:#fff"/><path d="M188.021 92.552a74.631 74.631 0 0 1 8.201 13.837c3.18 6.989 4.449 12.657 5.827 18.977a147.146 147.146 0 0 1 3.146 23.412l11.694-8.444a111.453 111.453 0 0 0-2.389-17.667c-1.316-6.044-3.939-17.629-11.642-30.527a92.937 92.937 0 0 0-13.469-17.431c-5.828 4.411-16.022 13.333-23.626 28.012a83.191 83.191 0 0 0-9.179 33.755v154.399l12.5 9.604V140.591c-.082-6.962.772-19.665 7.929-33.029a66.522 66.522 0 0 1 11.008-15.01z" style="fill:#fff"/><path d="M187.347 114.222c-2.529 6.028-3.798 11.292-4.475 15.13-1.007 5.704-1.043 10.158-1.038 11.592.006 1.98.104 3.4.167 4.389.239 3.782.472 9.345.417 17v106.843l12.5-9.669V151.75a149.913 149.913 0 0 0-1.544-16.931c-1.215-8.138-2.504-12.078-3.262-14.173a59.129 59.129 0 0 0-2.765-6.424zm37.877 55.857c1.459-2.614 2.866-4.33 5.074-8.761a83.777 83.777 0 0 0 2.191-4.822s3.234-7.835 4.658-16.823c1.872-11.816.515-30.188-6.648-47.839-4.485-11.05-9.44-17.371-11.333-19.667a67.858 67.858 0 0 0-8.111-8.278 59.173 59.173 0 0 0-11.028 3.833c10.712 11.932 16.369 23.313 19.361 30.667 4.602 11.311 5.566 19.655 5.778 21.667.909 8.641.001 15.259-.346 17.489-.746 4.805-1.545 9.952-4.556 15.781-1.523 2.949-2.779 4.458-5.722 10.14-.515.995-2.102 4.086-3.432 7.089-1.786 4.034-4.111 10.171-5.875 18.472l.126 35.751 12.374-9.001v-20.399a178.537 178.537 0 0 1 3.264-13.17c1.82-6.299 2.729-9.448 4.225-12.129zm3.026 17.643v12.991l12.5-9.544v-22.975a224.854 224.854 0 0 0-3.889 4.972c-2.549 3.355-3.849 5.075-5.083 7.139a43.963 43.963 0 0 0-3.528 7.417zm-93.75-52.444 12.167 9.056c-.228-7.014.112-16.89 2.75-28.334 1.077-4.674 2.686-11.474 6.583-19.667 6.748-14.183 16.038-23.463 22.014-28.528a86.701 86.701 0 0 1 20.264-12.806l-5.833-3.014a59.795 59.795 0 0 0-11.611-1.652 88.344 88.344 0 0 0-14.125 10.479c-27.149 24.72-31.36 59.944-32.209 74.466z" style="fill:#fff"/></g></switch></svg>