<svg xmlns="http://www.w3.org/2000/svg" viewBox="0 0 350 350" style="enable-background:new 0 0 350 350" xml:space="preserve"><switch><g><path style="opacity:.4" d="M45 45h260v260H45z"/><path style="fill:#a2794b" d="M73 73h204v204H73z"/><path style="fill:#fff" d="M106.722 146.778A1958666.88 1958666.88 0 0 0 45 111.056v19.167l61.722 16.555zM233.056 27l-16.195 25.778-16.111 55.236 28.833-53.347zm10.236 174.708L305 217.444v18.778l-61.708-34.514zm-93.973 38.028-17.431 59.681-17.66 25.896 5.146-30.104 29.945-55.473z"/><path d="m205.666 226.137 75.823 55.29-55.262-75.734c5.408-8.962 8.522-19.463 8.522-30.693 0-11.238-3.119-21.746-8.533-30.712l55.22-75.705-75.787 55.271a59.214 59.214 0 0 0-30.4-8.354c-11.242 0-21.754 3.121-30.723 8.539l-75.888-55.4 55.461 75.968a59.21 59.21 0 0 0-8.35 30.394 59.214 59.214 0 0 0 8.333 30.364l-55.395 76.053 75.925-55.407c8.95 5.387 19.43 8.49 30.637 8.49a59.22 59.22 0 0 0 30.417-8.364z"/><circle style="fill:#fff" cx="175.25" cy="175" r="51"/><path style="fill:#fff" d="m127.449 210.429-32.741 44.904 44.761-32.796a59.772 59.772 0 0 1-12.02-12.108z"/><path d="m94.708 255.333 44.761-32.796-6.413-5.593-38.348 38.389z"/><path style="fill:#fff" d="m139.566 127.386-44.9-32.761 32.842 44.862a59.886 59.886 0 0 1 12.058-12.101z"/><path d="M132.992 133.117 94.666 94.625l32.842 44.862a60.138 60.138 0 0 1 5.484-6.37z"/><path style="fill:#fff" d="m222.879 139.337 32.51-44.781-44.792 32.585a59.804 59.804 0 0 1 12.282 12.196z"/><path d="m217.11 132.724 38.279-38.168-44.792 32.585a59.69 59.69 0 0 1 6.513 5.583z"/><path style="fill:#fff" d="m210.713 222.776 44.731 32.557-32.563-44.672a59.807 59.807 0 0 1-12.168 12.115z"/><path d="m255.444 255.333-32.563-44.672a59.9 59.9 0 0 1-5.647 6.496l38.21 38.176z"/><path d="M197.083 153.083 175 12.125l-22.083 140.958L12.278 175 153 197.222l22 140.556 22-140.556L337.722 175z"/><path style="fill:#fff" d="M191.333 158.958 175 56.667l-16.333 102.291-102.25 15.993L158.583 191 175 293.5 191.417 191l102.166-16.049z"/><path d="M175 175v118.5L191.417 191zm0 0-16.333-16.042L175 56.667zm0 0 16.333-16.042 102.25 15.993zm0 0-16.417 16-102.166-16.049z"/></g></switch></svg>