<svg xmlns="http://www.w3.org/2000/svg" viewBox="0 0 350 350" style="enable-background:new 0 0 350 350" xml:space="preserve"><switch><g><path style="fill:#fff" d="M59.962 59.962h230.075v230.075H59.962z"/><path d="M69.5 69.5h211v211h-211z"/><path style="fill:#aa8450" d="M79 79h192v192H79z"/><radialGradient id="nomad-a" cx="175" cy="175" r="96" gradientTransform="matrix(0 -1 1.1 0 -17.5 350)" gradientUnits="userSpaceOnUse"><stop offset="0" style="stop-color:#e4c8a0"/><stop offset=".963" style="stop-color:#e4c8a0;stop-opacity:.0372"/><stop offset="1" style="stop-color:#e4c8a0;stop-opacity:0"/></radialGradient><path style="fill:url(#nomad-a)" d="M79 79h192v192H79z"/><g><path d="m85.75 264.167 69.938-51.968-19.438-16.323-50.5 68.291z"/><path style="fill:#fff" d="m97.25 252.625 39.625-39-6.188-6.25a1312028.55 1312028.55 0 0 1-33.437 45.25z"/><path d="M84.813 84.625 133.667 150l17.529-17.53z"/><path style="fill:#fff" d="m96.667 96.042 39.083 40.324 6.188-5.929-45.271-34.395z"/><g><path d="m199.833 132.607 65.334-47.982-47.5 65.375z"/><path style="fill:#fff" d="m253 97-39.417 38.833 6.292 5.229L253 97z"/></g><g><path d="m200.833 216.914 64.334 47.253-46.148-65z"/><path style="fill:#fff" d="m252.438 251.875-44.313-34.25 6.125-4.938 38.188 39.188z"/></g><g><path d="M217.642 137.049c-3.557-3.864-18.769-19.346-42.031-19.303-27.48.051-49.968 21.739-54.753 42.244-1.564 6.705-1.216 13.199-1.077 15.537.236 3.945 1.38 18.251 11.259 31.833 3.955 5.438 8.549 9.687 11.431 12.005l-1.681.634a40.379 40.379 0 0 0 8.625 6.333s6.671 3.637 13.542 3.667c0 0 1.484.211 1.708-.292.025-.056.018-.087.083-.552.071-.504.088-.532.078-.594-.086-.551-1.766-.708-1.766-.708-2.814-.264-5.442-1.327-5.438-1.354.007-.043 6.619 1.56 7.678.871.181.008.358.014.534.023 5.257.244 9.603 1.957 10.578 2.148 5.186 1.018 20.356-1.773 32.93-11.175 3.434-2.567 23.541-17.603 23.915-43.347.298-20.266-11.83-33.86-15.615-37.97zm-68.095 86.076c-.136.226-1.447-.324-2-.594a7.186 7.186 0 0 1-2.539-2.101l.117-.024c2.055-.371 4.64 2.357 4.422 2.719z"/><path style="fill:#fff" d="M126.124 159.996c5.301-17.174 18.012-26.118 22.876-29.121 11.869-7.33 23.208-7.814 26-7.875 9.892-.215 17.155 2.613 18.875 3.313 6.993 2.845 11.419 6.714 15.25 10.063 3.067 2.681 6.446 5.684 9.458 10.708a38.478 38.478 0 0 1 3.792 8.542 27.219 27.219 0 0 0-1.75-6.708 26.973 26.973 0 0 0-1.5-3.125 48.756 48.756 0 0 1 5.917 10.708c1.569 3.95 6.954 19.031.458 35-2.738 6.731-6.525 11.011-8.917 13.667-13.368 14.843-31.394 19.47-40.75 21.083-7.739-1.121-13.841-3.247-18.042-5.042-8.485-3.625-11.938-6.421-13.25-7.667a31.744 31.744 0 0 1-5.299-6.595 31.426 31.426 0 0 1 3.008 6.387c.345 1.018.618 1.995.833 2.917-4.991-4.143-11.83-11.069-16.5-21.417a57.522 57.522 0 0 1-3.167-8.917c.036-2.262.14-5.58.463-9.578.453-5.581 1.071-12.536 2.245-16.343z"/><path d="M198.958 140.125a34.291 34.291 0 0 0-13.093-6.503 34.197 34.197 0 0 0-12.199-.789 61.772 61.772 0 0 1 25.292 7.292zM215.958 160.417c-2.526-4.305-7.012-8.38-7.333-8.125-.248.196 1.858 3.059 2.928 4.812 5.584 9.144 4.02 22.515.322 31.604-1.673 4.111-7.956 17.605-23.458 22.958-14.774 5.102-27.353-.839-29.819-2.07-14.701-7.333-19.291-21.387-20.462-25.188-3.475-11.275-1.376-20.947-.219-25.076a59.913 59.913 0 0 1 3.202-6.625c3.171-5.643 6.537-9.48 8.465-11.5 2.075-2.175 2.901-2.683 2.857-2.736-.119-.142-9.997 5.794-15.148 16.569-.676 1.414-1.081 2.515-1.75 4.333a79.514 79.514 0 0 0-4.167 16.667l1.75 9.917c.785 2.578 6.156 19.219 23.667 27.167 15.589 7.075 29.808 2.272 32.757 1.202 1.508-.547 18.038-6.851 25.474-24.442 1.467-3.472 7.631-18.055.934-29.467zm-73.209 38.764a47.088 47.088 0 0 1-6.7-10.939l.628.17c.09.188.182.376.274.563 2.218 4.499 5.116 9.096 8.907 13.63a46.53 46.53 0 0 1-3.109-3.424zM123.594 201.5c.256-.211 3.502 3.124 6.181 6.655 1.688 2.224 3.461 4.936 3.257 5.095-.232.18-2.961-2.988-3.375-3.469-3.072-3.566-6.343-8.05-6.063-8.281z"/></g><g><path d="m174.973 44.46-1.637 7.509-1.159 7.881-.928 7.918-1.17 7.881-1.01 7.907-1.202 7.876-1.607 7.81-1.611 7.809-.784 7.941-1.248 7.869-1.516 7.83-1.347 7.854-.608 7.976-1.293 8.151-7.966 1.139-7.609 1.511-7.743.759-7.61 1.495-7.544 1.865-7.613 1.493-7.745.734-7.597 1.57-7.623 1.426-7.551 1.826-7.78.567-7.496 2.155-7.651 1.286-7.767.671-7.463 1.814 7.976 1.582 8.155 1.036 8.066 1.588 8.075 1.54 8.258.407 8.041 1.751 8.191.813 8.011 1.929 8.087 1.452 8.239.531 7.977 2.173 8.104 1.363 8.2.81 8.1 1.384 1.184 7.823 1.066 7.85 1.996 7.693.923 7.874 1.447 7.788 1.495 7.778 1.049 7.852 1.831 7.72.699 7.911 1.284 7.815 1.567 7.77 1.429 7.791 1.432 7.795 1.023 7.733 1.791-7.604.901-7.893 1.063-7.863 1.724-7.748 1.2-7.842 1.901-7.716.839-7.903 1.491-7.788 1.101-7.857 1.697-7.753 1.118-7.859 2.154-7.673.933-7.894 1.105-8.128 8.152-1.11 7.823-1.501 7.833-1.441 7.97-.626 7.786-1.732 7.877-1.186 7.909-.986 7.75-1.934 7.911-.975 7.824-1.51 7.818-1.557 8.017-.356 7.762-1.915 7.637-1.186-7.621-1.135-7.797-1.574-7.897-.94-7.88-1.054-7.816-1.47-7.784-1.66-7.948-.616-7.802-1.54-7.816-1.456-7.883-1.041-7.882-1.063-7.853-1.237-7.82-1.475-7.692-1.332-1.557-7.924-1.502-8.08-1.103-8.147-1.38-8.101-1.698-8.049-1.675-8.05-1.183-8.134-.883-8.185-1.915-8.008-.988-8.17-1.131-8.148-1.553-8.073-1.739-8.046z"/><path style="fill:#fff" d="m175 175 16.179-16.002-16.177-94.993L175 175zM175 175l16.563 15.917L282.5 175zM175 175l-106.667-.063 90.417-16.188L175 175zM175 175v107.781l-15.259-92.805L175 175z"/></g></g><g><path style="fill:#fff" d="m66.987 118.78.217 1.508.736 1.624.32 1.86 1.027 1.579 1.473 1.249 2.185.493 2.106.28 1.686.506 1.941-.21 1.57.947 1.27 1.364 1.632.773 1.61.856 1.452 1.055 1.494.921 1.103 1.495 1.779.5 1.12 1.511 1.579.786 1.547.835 1.33 1.196 1.554.829 1.829.362 1.365 1.153 1.636.689 1.411 1.076 1.643.669 1.543.844 1.415 1.079 1.778.431 1.187 1.491 1.62.721 2.045.979-2.312-.337-1.49-1.383-1.938.114-1.597-1.026-1.74-.547-1.88-.083-1.782-.405-1.781-.411-1.531-1.247-1.829-.251-1.729-.582-1.893-.037-1.513-1.307-1.743-.536-1.779-.42-1.738-.552-1.978.244-1.751-.509-1.499-1.352-1.854-.169-1.638-.887-1.917.043-1.623-.94-1.786-.391-1.782-.41-1.897-.022-1.593-1.041-1.764-.467-1.773-.436-1.724-.592.262-1.795.793-1.658.21-1.813.703-1.681.384-1.77.334-1.781.851-1.645.42-1.74zM146.438 105l-15.98-26h7.99zM197.168 114.261l.468-2.019.498-1.684 1.318-1.433.543-1.689-.273-1.906.705-1.642.731-1.648-.136-2.02.491-1.883.736-1.846-.387-2.024.301-1.908.734-1.744 1.594-1.021 1.402-1.46.72-1.882 1.18-1.28-.066-1.717.047-1.658.934-1.764.608-1.76 1.256-1.409.772-1.771.821-1.737 1.418-1.303.96-1.628.797-1.697.892-1.634 1.425-1.442.145-1.953.348-1.871 1.058-1.599.928-1.632.604-1.789.673-1.785.81-1.521 1.081-1.358 1.115-1.319 1.239-1.215.677-1.612-.322 1.811.173 1.858-.15 1.831-.425 1.794-.398 1.795-.043 1.854-.217 1.828-.209 1.836-.751 1.716-.485 1.774-.98 1.639.35 2.003-.863 1.666-.803 1.606-.016 1.864-1.272 1.432-.276 1.784-.498 1.71-.478 1.724-.548 1.703-1 1.502-.904 1.538-1.13 1.419-.367 1.801-.555 1.718-1.4 1.258-.944 1.499-.908 1.517-.921 1.509-.326 1.897-1.594 1.076-.352 1.91-1.265 1.285-1.461 1.126-.554 1.801-1.4 1.161-.867 1.582-1.135 1.363-1.66.912-.619 1.81zM248 144.5l23-14.875v7.136l-23 7.739zM211.188 271l-5.604-24.583L221.313 271h-10.125zM79 211.667l27.5-8.542L79 220.417v-8.75zM123.408 300.724l1.353-1.292 1.034-1.472.83-1.616 1.039-1.464 1.145-1.393 1.224-1.346.993-1.502.626-1.733 1.035-1.474.916-1.545.859-1.578.487-1.787 1.164-1.406 1.232-1.381.216-1.916.947-1.533 1.153-1.437.728-1.647.726-1.647.904-1.568.703-1.656.296-1.824.437-1.759 1.193-1.466.477-1.744.905-1.59.226-1.824.541-1.715.36-1.774.302-1.782.935-1.604.034-1.858.765-1.695.084-1.866.796-1.696.22-1.829.523-1.766.076-1.85.283-1.808.46-1.777.377-1.523-.787 1.296-1.063 1.464-1.273 1.323-.396 1.884-1.538 1.166-.215 1.99-1.072 1.461-1.526 1.194-.407 1.862-.912 1.56-1.117 1.444-1.159 1.426-.808 1.626-.485 1.795-1.171 1.432-.965 1.545-.013 1.961-1.213 1.361-.798 1.569-.784 1.574-.393 1.737-1.083 1.459-.495 1.715.119 1.9-.772 1.611-.634 1.664-.017 1.832-.848 1.596-.297 1.791-.767 1.731-1.32 1.462-.304 1.954-1.215 1.477-.497 1.829-1.114 1.554-.25 1.876-.248 1.789-.642 1.737-.399 1.8.486 1.828zM233.359 196.577l1.561.904 1.333.9 1.1 1.605 1.425 1.14 1.635.806 1.535.971 1.848.41 1.295 1.427 1.902.26 1.456 1.139 1.724.581 1.538.995 1.688.651 1.757.475 1.828.237 1.697.711 1.745.592 1.456 1.248 1.544.997 2.042-.027 1.239 1.606 1.917.281 1.38 1.298 1.778.573 1.457 1.147 1.753.64 1.366 1.285 1.746.659 1.479 1.093 1.66.814 1.193 1.534 1.624.867 1.773.663 1.587 1.515-.427-2.191.704-1.868-.844-1.867-.065-1.867.432-1.837-1.769-.53-1.786-.342-1.881-.125-1.489-1.149-1.797-.611-1.416-1.231-1.71-.93-.958-1.719-1.788-.651-1.634-.889-1.615-.246-1.688.003-1.376-1.138-1.505-.802-1.75-.303-1.541-.982-1.716-.113-1.684.12-1.793.454-1.641-.762-1.585-.81-1.765-.215-1.723-.384-1.575-.802-1.572-.798-1.735-.374-1.701-.476-1.403-1.201-1.838-.147-1.495-.982-1.653-.598-1.673-.569z"/></g></g></switch></svg>