<svg xmlns="http://www.w3.org/2000/svg" viewBox="0 0 350 350"><switch><g><path fill="#fff" d="M60 60H290V290H60z"/><path d="M280.465,280.465h-56.563c1.455-1.613,3.838-4.672,5.275-9.177c1.374-4.308,1.272-8.021,1.055-10.154 c-27.517-0.132-55.033-0.264-82.55-0.396l13.304,19.726H69.535c0-55.023,0-110.047,0-165.07c10.786,3.114,14.809,1.988,16.279,0 c2.98-4.03-4.027-12.294-11.934-33.165c-1.933-5.102-3.358-9.476-4.345-12.696c70.31,0,140.621,0,210.931,0V280.465z"/><linearGradient id="a" gradientUnits="userSpaceOnUse" x1="83" y1="181.733" x2="267" y2="181.733"><stop offset="0" stop-color="#8e6694"/><stop offset="1" stop-color="#5d445c"/></linearGradient><path d="M267,83H83v184h68.905c3.027,4.488,6.054,8.977,9.082,13.465c20.972,0,41.944,0,62.916,0 c1.207-1.337,2.753-3.339,4.038-6.046c1.384-2.915,1.95-5.563,2.199-7.419c12.287,0,24.574,0,36.861,0V83z" fill="url(#a)"/><path d="M271.879,187c-3.618,0.114-5.666-0.326-6.89-0.791c-0.226-0.086-1.116-0.436-1.319-0.165 c-0.294,0.394,1.03,1.876,0.941,1.948c-0.073,0.059-0.738-1.13-1.864-1.322c-0.694-0.119-1.363,0.175-1.714,0.33 c-0.91,0.4-1.33,0.975-1.554,0.83c-0.251-0.162,0.147-0.966-0.094-1.126c-0.233-0.154-0.702,0.526-1.418,0.89 c-1.764,0.896-3.932-0.687-4.484,0.066c-0.245,0.334,0.087,0.774-0.165,0.956c-0.43,0.31-1.327-1.019-2.637-0.89 c-0.534,0.053-0.623,0.297-1.385,0.363c-0.615,0.053-1.079-0.061-1.385-0.132c-0.918-0.213-2.235-0.518-3.231-0.527 c-0.736-0.007-1.52,0.269-3.087,0.82c-1.622,0.571-2.824,1.161-2.946,0.96c-0.096-0.158,0.608-0.59,0.495-0.89 c-0.127-0.336-1.161-0.199-2.473-0.132c-0.742,0.038-1.814,0.065-3.132,0c0.351,0.429,0.732,1.003,0.544,1.355 c-0.234,0.438-1.16,0.174-1.97,0.252c-2.223,0.216-3.018,2.965-5.587,5.684c-0.803,0.851-2.107,2.045-4.097,3.159 c2.486,0.012,4.503-0.044,5.901-0.099c1.482-0.058,3.287-0.154,3.294-0.077c0.006,0.068-1.812,0.186-1.81,0.341 c0.002,0.156,1.852,0.281,3.396,0.297c0.949,0.01,2.468,0.02,4.484-0.231c1.717-0.214,3.161-0.537,3.198-0.396 c0.031,0.118-0.956,0.392-0.923,0.56c0.039,0.2,1.471,0.03,3.659-0.066c2.114-0.092,3.522-0.054,3.527,0.033 c0.005,0.081-0.945,0.156-0.942,0.28c0.004,0.151,1.423,0.269,2.656,0.28c1.053,0.01,1.358-0.063,2.44-0.066 c0.97-0.002,1.753,0.054,2.242,0.099c-1.665,0.036-2.049,0.117-2.052,0.19c-0.002,0.04,0.109,0.091,1.113,0.297 c0.903,0.185,1.354,0.278,1.995,0.371c0.605,0.088,1.362,0.177,2.242,0.231c0.815-0.133,1.749-0.25,1.797-0.082 c0.035,0.121-0.395,0.378-0.791,0.519c-0.966,0.343-1.447-0.109-2.588-0.008c-0.858,0.076-0.793,0.35-1.844,0.531 c-0.872,0.151-1.456,0.055-2.318-0.026c-0.836-0.079-2.041-0.154-3.561-0.117c0.208,0.109,0.416,0.217,0.624,0.326 c-0.176,0.014-0.43,0.031-0.735,0.047c-1.017,0.05-1.533,0.076-2.049-0.001c-0.424-0.063-1.057-0.226-1.786-0.7 c0.026,0.07,0.062,0.146,0.112,0.223c0.21,0.328,0.531,0.466,0.689,0.521c-0.649-0.057-1.174-0.091-1.539-0.112 c-0.555-0.031-0.63-0.025-0.853-0.066c-0.747-0.135-0.881-0.377-1.21-0.281c-0.389,0.113-0.324,0.487-0.809,0.759 c-0.456,0.256-0.96,0.174-1.121,0.148c-0.792-0.128-0.934-0.657-1.401-0.577c-0.458,0.079-0.477,0.615-1.022,0.878 c-0.472,0.228-1.018,0.095-1.434-0.074c0.479-0.345,0.562-0.515,0.527-0.606c-0.086-0.229-1.04-0.261-1.681,0.198 c-0.355,0.254-0.299,0.432-0.685,0.676c-0.552,0.349-1.262,0.361-1.342,0.181c-0.049-0.109,0.165-0.218,0.128-0.363 c-0.075-0.292-1.11-0.502-1.508-0.087c-0.384,0.4,0.046,1.152-0.247,1.354c-0.119,0.082-0.309,0.015-1.36-0.637 c-0.886-0.55-1.237-0.807-1.512-0.67c-0.111,0.056-0.172,0.178-0.293,0.422c-0.129,0.26-0.323,0.652-0.223,0.989 c0.153,0.511,0.894,0.592,0.865,0.717c-0.038,0.163-1.367,0.306-1.793-0.321c-0.215-0.316-0.152-0.759-0.482-1.558 c-0.028-0.068-0.079-0.186-0.198-0.272c-0.255-0.183-0.666-0.107-0.94,0.062c-0.281,0.173-0.249,0.34-0.507,0.532 c-0.274,0.204-0.593,0.225-0.902,0.223c-0.786-0.005-1.178-0.008-2.25-0.297c-0.709-0.191-1.796-0.25-3.387,0.42 c-1.089,1.379-2.482,2.913-4.24,4.426c-0.943,0.812-1.868,1.512-2.745,2.114c-0.479,3.978-0.871,8.187-1.137,12.61 c-0.238,3.956-0.356,7.753-0.379,11.374c1.888,0.083,2.588,0.027,2.604-0.099c0.015-0.117-0.564-0.259-0.544-0.346 c0.037-0.159,2.015,0.139,2.015,0.139c0.971-0.188,1.199-0.139,1.199-0.139c0.364,0.078,0.342,0.254,0.795,0.491 c0.148,0.077,0.914,0.458,1.691,0.245c0.624-0.171,1.016-0.658,1.136-0.551c0.077,0.069-0.097,0.264-0.012,0.408 c0.133,0.225,0.719,0.016,1.508-0.012c0.242-0.009,0.623,0.039,1.387,0.134c1.278,0.16,1.406,0.234,1.859,0.27 c0.567,0.045,1.385,0.009,2.42-0.382c-0.042,0.201-0.13,0.428-0.326,0.568c-0.186,0.132-0.394,0.132-0.391,0.168 c0.003,0.04,0.264,0.04,0.664,0.058c0.715,0.032,0.793,0.071,0.94-0.012c0.244-0.139,0.168-0.326,0.457-0.593 c0.288-0.266,0.718-0.408,0.841-0.284c0.129,0.131-0.195,0.446-0.074,0.705c0.181,0.388,1.19,0.281,1.508,0.247 c1.131-0.12,1.948-0.548,2.015-0.42c0.044,0.084-0.314,0.263-0.28,0.412c0.074,0.33,1.97,0.121,3.396,0.082 c1.118-0.03,2.677,0.025,4.574,0.408c-0.337,0.107-0.831,0.23-1.434,0.26c-0.88,0.044-1.159-0.152-2.142-0.118 c-0.828,0.029-0.772,0.173-1.506,0.186c-1.268,0.023-1.929-0.396-2.086-0.158c-0.209,0.318,0.792,1.346,0.753,1.378 c-0.031,0.026-0.481-0.772-1.324-1.09c-0.478-0.181-0.522,0.005-1.619-0.125c-0.87-0.103-1.288-0.272-1.472-0.048 c-0.191,0.232,0.095,0.615-0.1,0.79c-0.209,0.188-0.747-0.069-0.986-0.183c-0.628-0.3-0.861-0.659-1.067-0.564 c-0.198,0.092-0.068,0.463-0.294,0.624c-0.246,0.175-0.531-0.229-1.137-0.272c-0.476-0.033-0.471,0.197-1.385,0.319 c-0.29,0.039-0.359,0.024-0.782,0.084c-0.668,0.094-0.601,0.144-0.815,0.137c-0.644-0.021-0.992-0.466-1.275-0.283 c-0.129,0.084-0.094,0.201-0.206,0.237c-0.284,0.092-0.548-0.653-1.001-0.655c-0.287-0.001-0.335,0.297-0.804,0.495 c-0.321,0.136-0.596,0.121-0.878,0.111c-1.162-0.039,0.205,0.103-2.402,0.023c-1.164-0.036-1.746-0.054-1.87-0.064 c-0.729-0.059-1.261-0.142-1.891,0.11c-0.268,0.108-0.471,0.243-0.604,0.343c1.052,2.789,2.089,5.691,3.099,8.703 c0.982,2.928,1.88,5.788,2.703,8.571c0.412,0.15,1.031,0.298,1.583,0.032c0.614-0.295,0.581-0.83,1.252-1.268 c0.89-0.581,2.006-0.33,2.011-0.28c0.004,0.04-0.697,0.025-0.824,0.363c-0.065,0.173,0.038,0.39,0.165,0.511 c0.25,0.239,0.659,0.166,0.94,0.115c0.554-0.099,0.658-0.318,1.121-0.346c0.22-0.013,0.391,0.032,0.723,0.124 c1.6,0.442,1.522,0.446,1.617,0.452c1.074,0.071,1.652-1.033,2.093-0.775c0.384,0.225,0.05,1.125,0.542,1.413 c0.183,0.107,0.385,0.075,0.701,0.024c0.118-0.019,0.418-0.077,1.147-0.481c0.558-0.309,0.641-0.419,0.94-0.462 c0.043-0.006,0.628-0.083,0.775,0.181c0.146,0.262-0.239,0.681-0.144,0.762c0.086,0.073,0.368-0.295,0.787-0.367 c0.434-0.074,0.692,0.225,1.154,0.445c0.789,0.376,1.592,0.244,2.374,0.115c1.098-0.18,1.104-0.521,1.929-0.527 c0.387-0.003,0.423,0.072,1.83,0.445c1.5,0.398,1.953,0.443,2.143,0.214c0.19-0.229-0.04-0.542,0.148-0.709 c0.259-0.229,0.816,0.253,1.734,0.481c0.792,0.196,0.947-0.021,2.041,0.063c0.965,0.074,1.227,0.273,2.159,0.462 c0.923,0.187,1.684,0.167,3.206,0.128c1.027-0.027,2.392-0.11,4.005-0.346c-0.96,0.669-1.798,0.948-2.384,1.081 c-1.004,0.227-1.227,0.011-2.833,0.315c-0.673,0.127-0.954,0.226-1.484,0.187c-0.319-0.023-0.612-0.088-1.392-0.153 c-0.479-0.04-0.569-0.032-0.672-0.008c-0.578,0.138-0.607,0.493-1.022,0.597c-0.744,0.186-1.348-0.852-1.941-0.581 c-0.171,0.078-0.134,0.171-0.445,0.363c-0.2,0.123-0.549,0.339-0.857,0.247c-0.303-0.09-0.251-0.382-0.56-0.593 c-0.504-0.345-1.462-0.132-1.698,0.346c-0.137,0.279,0.031,0.526-0.099,0.61c-0.232,0.149-0.718-0.673-1.5-0.659 c-0.321,0.005-0.308,0.145-0.727,0.195c-0.682,0.081-0.834-0.276-1.433-0.261c-0.791,0.02-1.195,0.659-1.507,0.451 c-0.226-0.151-0.081-0.534-0.335-0.67c-0.256-0.137-0.66,0.115-0.773,0.186c-0.376,0.235-0.427,0.49-0.633,0.493 c-0.228,0.003-0.246-0.414-0.503-0.484c-0.248-0.068-0.463,0.237-0.717,0.419c-0.986,0.708-2.675-0.341-2.967,0.132 c-0.124,0.201,0.156,0.435,0.031,0.604c-0.221,0.3-1.211-0.288-2.79-0.539c-0.794-0.126-1.829-0.182-1.917,0.092 c-0.066,0.203,0.444,0.426,0.382,0.614c-0.078,0.238-0.971,0.129-3.286-0.009c-0.402-0.024-0.766-0.044-1.257,0.006 c-0.646,0.065-1.167,0.216-1.515,0.337c0.888,2.766,1.776,5.532,2.664,8.298c0.355,0.942,0.786,2.534,0.379,4.329 c-0.464,2.044-1.781,3.321-2.681,4.169c-3.96,3.737-8.042,7.02-10.121,8.654c-0.123,1.053-0.245,2.106-0.368,3.159 c-0.808,0.536-1.962,1.262-3.396,2.034c-1.408,0.759-5.672,3.055-10.05,3.905c-1.767,0.343-10.178,1.976-17.011-3.363 c-4.107-3.209-5.781-7.482-6.47-9.828c-6.209-9.696-12.417-19.393-18.626-29.089c2.686,0.55,3.662,0.216,3.986-0.298 c0.195-0.31,0.255-0.848,0.588-0.914c0.301-0.059,0.458,0.336,0.94,0.47c0.276,0.076,0.445,0.008,1.335-0.297 c1.463-0.5,1.921-0.628,2.299-0.396c0.158,0.097,0.109,0.138,0.272,0.247c0.498,0.335,1.117,0.063,2.275-0.247 c0.898-0.241,2.136-0.564,2.342-0.213c0.061,0.104-0.027,0.169,0.031,0.287c0.227,0.462,2.078,0.511,2.918-0.321 c0.129-0.128,0.361-0.402,0.643-0.371c0.209,0.023,0.256,0.194,0.51,0.26c0.203,0.053,0.365-0.006,0.726-0.136 c0.637-0.23,0.956-0.345,0.964-0.346c0.659-0.06,0.961,0.475,1.434,0.272c0.123-0.053,0.297-0.173,0.42-0.272 c0.263-0.212,0.239-0.285,0.346-0.321c0.33-0.111,0.587,0.576,1.286,0.742c0.361,0.086,0.684-0.004,0.816-0.049 c0.48-0.166,0.478-0.454,0.865-0.569c0.515-0.152,0.711,0.301,1.212,0.173c0.488-0.125,0.434-0.59,1.063-0.791 c0.08-0.026,0.531-0.17,0.816,0.049c0.108,0.083,0.084,0.135,0.185,0.235c0.273,0.269,0.805,0.247,1.174,0.111 c0.299-0.11,0.284-0.219,0.717-0.42c0.294-0.137,0.543-0.2,0.653-0.225c0.67-0.151,1.213-0.041,1.365-0.003 c0.379,0.095,0.344,0.164,0.643,0.23c0.829,0.184,1.489-0.259,1.583-0.102c0.088,0.147-0.502,0.51-0.412,0.742 c0.097,0.25,0.937,0.229,1.635,0.042c0.789-0.211,0.887-0.498,1.35-0.452c0.633,0.063,0.672,0.619,1.243,0.681 c0.832,0.091,1.451-1.017,1.854-0.791c0.169,0.094,0.095,0.308,0.247,0.519c0.406,0.562,1.776,0.213,2.275,0.099 c1.509-0.346,0.806,0.142,4.426-0.223c1.439-0.145,3.253-0.393,5.341-0.841c-1.77-0.454-3.179-0.466-4.171-0.381 c-0.58,0.05-2.601,0.268-3.741-0.039c-0.64-0.172-1.261-0.42-1.261-0.42c-0.374-0.149-0.635-0.276-0.696-0.305 c-1.569-0.734-6.209,0.319-7.76-0.487c-0.08-0.042-0.349-0.19-0.742-0.297c-0.184-0.05-0.745-0.196-1.334-0.093 c-0.984,0.171-1.074,0.866-1.677,0.818c-0.749-0.06-1.113-1.173-1.464-1.046c-0.227,0.082-0.068,0.544-0.346,0.865 c-0.551,0.636-2.23,0.048-2.58-0.074c-0.673-0.236-2.095-0.859-2.807-1.171c-0.171-0.075-0.491-0.216-0.803-0.098 c-0.428,0.161-0.369,0.627-0.709,0.791c-0.499,0.242-1.105-0.53-2.242-0.973c-0.705-0.274-1.34-0.315-1.731-0.313 c0.551,0.633,0.587,0.898,0.511,1.022c-0.182,0.296-1.199,0.017-3.227-0.553c-0.618-0.174-1.227-0.307-2.443-0.575 c-0.776-0.171-1.347-0.284-1.493-0.054c-0.183,0.29,0.456,0.894,0.313,1.058c-0.131,0.15-0.727-0.294-1.508-0.618 c-0.752-0.312-0.843-0.168-3.536-0.519c-0.979-0.128-1.696-0.242-1.807,0.009c-0.094,0.213,0.342,0.477,0.249,0.708 c-0.178,0.44-2.006,0.055-2.168,0.021c-0.321-0.068-0.775-0.273-1.695-0.633c-0.547-0.214-0.874-0.35-1.03-0.207 c-0.235,0.215,0.18,0.819-0.028,0.992c-0.216,0.179-0.969-0.217-1.484-0.717c-0.331-0.321-0.49-0.614-0.618-0.569 c-0.183,0.065,0.066,0.688-0.247,0.989c-0.283,0.272-0.875,0.137-1.178,0.013c-0.403-0.165-0.414-0.361-0.924-0.582 c-0.112-0.049-0.379-0.155-0.717-0.198c-0.526-0.066-0.835,0.072-1.187,0.124c-0.649,0.095-0.872-0.191-1.681-0.371 c-1.369-0.305-1.612,0.315-3.536,0.124c-0.604-0.06-0.742-0.137-1.261-0.124c-0.734,0.019-1.047,0.189-1.75,0.13 c-0.425-0.035-0.712-0.131-0.937-0.196c-1.925-0.562-3.49-0.186-3.544-0.478c-0.063-0.34,1.977-1.341,2.786-0.742 c0.164,0.122,0.457,0.442,0.785,0.374c0.115-0.024,0.126-0.073,0.303-0.176c0.073-0.043,0.565-0.331,1.022-0.231 c0.296,0.065,0.282,0.228,0.56,0.313c0.385,0.119,0.695-0.106,1.071-0.247c0.321-0.121,0.364-0.058,1.978-0.033 c1.5,0.023,1.897-0.024,1.962-0.214c0.069-0.202-0.276-0.451-0.214-0.527c0.085-0.106,0.719,0.387,1.467,0.626 c0.674,0.215,1.305,0.181,1.78,0.099c-1.457-2.389-3.083-4.885-4.896-7.451c-2.788-3.945-3.421-5.751-5.67-7.451 c-1.822-1.377-2.44-1.177-4.615-2.505c-3.857-2.356-5.986-5.472-7.076-7.067c-3.994-5.844-4.569-11.868-4.66-14.56 c-1.246-1.056-2.492-2.113-3.738-3.169c-0.4-0.015-0.885-0.065-1.425-0.19c-0.578-0.133-1.063-0.316-1.446-0.49 c-3.478-3.111-7.06-6.566-10.666-10.393c-7.381-7.834-13.315-15.585-18.066-22.681c-6.371-8.113-14.124-18.997-21.758-32.571 c-4.575-8.136-11.342-20.304-17.143-37.319c-3.795-11.131-7.998-26.745-9.758-46.022c4.071,8.339,10.261,19.888,19.121,32.835 c10.528,15.383,22.037,28.663,23.473,27.692c0.923-0.624-3.349-6.434-6.066-17.538c-1.627-6.649-1.849-11.733-2.075-17.655 c-0.291-7.634-0.071-18.306,2.207-31.136c1.545,5.966,3.946,14.629,7.385,24.923c4.512,13.505,11.572,34.274,25.319,57.626 c2.376,4.036,7.694,11.394,18.33,26.11c1.989,2.752,5.237,7.176,10.813,11.473c3.17,2.442,6.082,4.065,8.11,5.077 c2.061-0.095,4.121-0.19,6.181-0.285c-0.307-0.468-0.288-0.671-0.223-0.77c0.224-0.34,1.465-0.196,2.439,0.29 c0.408,0.203,0.702,0.433,0.98,0.309c0.325-0.145,0.213-0.59,0.512-0.748c0.45-0.237,0.962,0.633,1.854,0.569 c0.319-0.023,0.326-0.14,1.162-0.519c0.198-0.09,0.876-0.398,1.508-0.569c1.171-0.316,2.444-0.232,2.497,0.025 c0.043,0.206-0.727,0.403-0.685,0.624c0.049,0.254,1.157,0.46,1.904-0.029c0.38-0.249,0.377-0.716,0.61-0.718 c0.266-0.002,0.308,0.545,0.668,0.668c0.404,0.137,0.763-0.412,1.354-0.749c1.342-0.765,3.226-0.067,3.22,0.081 c-0.001,0.019-0.033,0.031-0.742,0.148c-1.319,0.219-1.61,0.246-1.632,0.371c-0.033,0.189,0.583,0.439,0.841,0.544 c0.396,0.161,0.88,0.357,1.434,0.272c0.57-0.088,0.535-0.369,1.187-0.618c0.883-0.338,1.18,0.089,2.159-0.231 c0.61-0.199,0.564-0.388,1.22-0.577c0.77-0.222,1.611-0.187,1.665,0.016c0.056,0.21-0.745,0.519-0.692,0.659 c0.046,0.122,0.719,0.075,1.368-0.214c0.803-0.358,1.166-0.952,1.352-0.841c0.165,0.099-0.137,0.553,0.074,0.841 c0.248,0.337,0.889,0.022,2.225,0.012c0.867-0.007,1.377,0.12,1.419-0.016c0.037-0.121-0.33-0.349-0.776-0.578 c2.155-0.666,2.939-0.724,3.041-0.507c0.102,0.216-0.517,0.611-0.379,0.94c0.125,0.298,0.812,0.408,1.286,0.165 c0.33-0.17,0.334-0.397,0.614-0.672c0.687-0.675,2.003-0.619,2.102-0.346c0.108,0.296-1.175,0.957-1.1,1.088 c0.046,0.081,0.537-0.18,1.372-0.408c0.574-0.157,1.062-0.29,1.694-0.297c0.79-0.008,1.061,0.189,1.801,0.036 c0.266-0.055,0.214-0.077,0.696-0.21c0.833-0.229,1.54-0.424,1.731-0.173c0.194,0.255-0.299,0.772-0.124,0.964 c0.158,0.173,0.668-0.128,1.335-0.371c1.474-0.536,2.369-0.297,2.407-0.552c0.042-0.287-1.04-0.913-1.986-0.758 c-0.237,0.039-0.343,0.107-0.618,0.099c-0.58-0.016-0.797-0.335-1.236-0.42c-0.506-0.098-0.817,0.21-1.36,0.445 c-1.517,0.658-3.286,0.074-3.288-0.099c-0.002-0.126,0.936-0.15,0.94-0.321c0.004-0.177-0.992-0.442-2.022-0.42 c-0.723,0.016-0.8,0.158-1.81,0.222c-0.666,0.042-1.271,0.138-1.731-0.223c-0.099-0.078-0.101-0.105-0.198-0.185 c-0.446-0.374-1.071-0.363-1.582-0.272c0.501,0.285,0.6,0.398,0.581,0.445c-0.046,0.118-0.839-0.143-2.065-0.359 c-0.951-0.168-1.431-0.252-2.052-0.247c-1.524,0.012-2.682,0.556-2.819,0.272c-0.056-0.117,0.128-0.237,0.074-0.371 c-0.123-0.304-1.235-0.075-2.345,0.049c-1.659,0.186-3.308,0.14-3.342-0.074c-0.023-0.148,0.736-0.313,0.713-0.453 c-0.032-0.197-1.55-0.057-3.408-0.041c-1.807,0.015-4.036-0.087-4.055-0.346c-0.012-0.164,0.878-0.273,0.865-0.42 c-0.02-0.24-2.409-0.45-5.091-0.175c-1.791,0.183-3.583,0.57-3.686,0.249c-0.058-0.182,0.484-0.42,0.42-0.668 c-0.083-0.325-1.118-0.317-1.953-0.321c0,0-1.337-0.007-3.733-0.107c-1.678-0.07-1.329-0.247-3.833-0.461 c-1.756-0.151-2.365-0.101-3.56-0.396c-0.941-0.232-1.685-0.538-2.176-0.766c0.926,0.081,1.917,0.135,2.967,0.148 c1.311,0.016,2.535-0.034,3.659-0.124c-0.033-0.898-0.066-1.797-0.099-2.695c-6.11-4.814-12.219-9.629-18.329-14.443 c-1.039-6.793-2.077-13.586-3.116-20.378c6.11,0.407,12.22,0.813,18.33,1.22c4.989,4.703,9.978,9.407,14.967,14.11l0.396,6.725 c1.035-1.566,2.355-3.33,4.022-5.143c1.51-1.642,3-2.992,4.352-4.088c0.719-0.182,1.811-0.415,3.165-0.527 c1.497-0.124,2.648-0.046,2.719-0.362c0.074-0.334-1.125-0.807-1.07-0.924c0.042-0.09,0.809,0.068,1.516,0.56 c0.423,0.294,0.365,0.388,0.692,0.593c0.702,0.44,1.816,0.541,2.308,0.033c0.328-0.339,0.214-0.778,0.462-0.857 c0.341-0.109,0.952,0.352,1.022,0.857c0.041,0.297-0.127,0.454-0.033,0.56c0.184,0.21,0.997-0.206,1.411-0.418 c0.938-0.48,0.916-0.661,1.325-0.703c0.782-0.081,1.521,0.51,1.582,0.56c0.311,0.255,0.293,0.376,0.527,0.462 c0.518,0.189,1.248-0.167,1.516-0.692c0.049-0.096,0.174-0.34,0.099-0.593c-0.074-0.252-0.291-0.331-0.264-0.396 c0.052-0.123,0.858,0.119,1.978,0.363c0.89,0.193,1.026,0.18,1.121,0.165c0.881-0.143,1.309-0.98,1.516-0.857 c0.233,0.138-0.27,1.214-0.033,1.352c0.099,0.057,0.273-0.079,0.692-0.429c1.007-0.841,1.41-1.232,1.598-1.128 c0.16,0.089,0.02,0.46,0.215,0.568c0.075,0.041,0.216,0.053,0.641-0.233c0.658-0.442,0.875-0.845,1.008-0.789 c0.19,0.08-0.217,0.924,0.132,1.253c0.275,0.259,0.95,0.133,1.088-0.165c0.111-0.241-0.183-0.479-0.066-0.659 c0.131-0.202,0.668-0.167,1.088,0.033c0.653,0.311,0.66,0.85,1.088,0.89c0.43,0.04,0.548-0.493,1.055-0.495 c0.518-0.002,0.663,0.554,1.121,0.495c0.351-0.045,0.674-0.425,0.692-0.758c0.012-0.223-0.109-0.475-0.198-0.659 c-0.112-0.232-0.178-0.274-0.152-0.321c0.089-0.168,0.964,0.239,1.966,0.255c0.166,0.003,0.425-0.004,0.728-0.099 c0.248-0.078,0.35-0.16,0.484-0.218c0.663-0.289,1.667,0.2,1.644,0.433c-0.009,0.086-0.164,0.184-0.729,0.26 c-0.239,0.187-0.375,0.425-0.313,0.581c0.082,0.207,0.495,0.221,0.758,0.165c0.455-0.097,0.491-0.41,0.791-0.429 c0.534-0.034,0.927,0.922,1.154,0.824c0.116-0.051,0.01-0.302,0.165-0.56c0.169-0.28,0.516-0.351,0.923-0.429 c0.625-0.119,1.21-0.23,1.615,0.099c0.38,0.308,0.27,0.734,0.56,0.824c0.324,0.101,0.491-0.418,1.154-0.692 c0.312-0.129,0.318-0.032,2.075-0.108c0.53-0.023,0.67-0.038,0.859-0.089c0.517-0.14,0.855-0.402,0.956-0.297 c0.082,0.085-0.114,0.284-0.033,0.429c0.047,0.083,0.219,0.208,1.319-0.033c0.969-0.213,1.064-0.36,1.516-0.363 c0.567-0.003,0.741,0.226,1.319,0.396c0.722,0.211,1.015,0.018,2.604-0.165c1.321-0.152,2.835-0.217,2.868-0.033 c0.019,0.108-0.481,0.238-0.462,0.33c0.031,0.145,1.29-0.067,2.802-0.165c1.427-0.092,2.359-0.152,3.527,0.066 c1.155,0.215,1.177,0.448,2.275,0.593c0.866,0.115,1.47,0.052,2.683-0.07c0.874-0.088,2.065-0.207,3.943-0.391 c-1.149-0.093-1.931-0.411-2.44-0.692c-0.378-0.209-0.488-0.334-0.824-0.412c-0.955-0.223-1.41,0.469-2.06,0.198 c-0.54-0.225-0.405-0.775-1.081-1.08c-0.042-0.019-0.824-0.36-1.194,0.041c-0.291,0.315-0.115,0.86-0.099,0.907 c-0.834-0.962-1.286-1.483-1.286-1.483c0,0,0,0,0,0c0,0,0,0,0,0c-0.004-0.003-0.253,0.198-0.346,0.412 c-0.131,0.301,0.096,0.514-0.016,0.643c-0.134,0.155-0.636,0.055-0.989-0.231c-0.444-0.36-0.343-0.788-0.709-0.907 c-0.191-0.062-0.206,0.037-0.725,0.016c-0.431-0.017-0.564-0.098-0.676,0c-0.198,0.173,0.02,0.6-0.115,0.676 c-0.153,0.086-0.404-0.477-0.973-0.577c-0.169-0.03-0.387-0.003-0.824,0.049c-0.407,0.049-0.379,0.079-0.495,0.066 c-0.406-0.045-0.512-0.38-0.956-0.61c-0.165-0.086-0.431-0.185-0.824-0.181c0.029,0.037,0.514,0.655,0.363,0.841 c-0.127,0.156-0.657-0.048-0.923-0.181c-0.446-0.224-0.466-0.409-0.758-0.445c-0.263-0.033-0.292,0.112-0.824,0.247 c-0.514,0.131-0.694,0.049-0.82,0.214c-0.183,0.24,0.063,0.586-0.073,0.681c-0.146,0.102-0.635-0.155-0.837-0.582 c-0.183-0.387-0.045-0.741-0.172-0.787c-0.148-0.053-0.283,0.441-0.718,0.556c-0.275,0.072-0.373-0.085-0.836-0.061 c-0.234,0.012-0.357,0.06-0.615,0.127c-0.256,0.067-0.578,0.116-1.22,0.214c-2.042,0.312-3.21,0.49-4.121-0.115 c-0.439-0.292-0.488-0.546-0.923-0.643c-0.575-0.128-0.936,0.217-1.682,0.477c-0.633,0.221-1.202,0.222-2.34,0.223 c-0.772,0.001-2.451,0.003-2.571-0.495c-0.07-0.29,0.434-0.567,0.341-0.735c-0.108-0.196-0.853,0.068-1.66,0.228 c-0.486,0.096-1.096,0.118-2.315,0.161c-1.49,0.052-4.042,0.063-4.063-0.19c-0.011-0.127,0.62-0.214,0.607-0.365 c-0.013-0.151-0.651-0.107-1.975-0.298c-0.604-0.087-0.972-0.168-1.104,0.019c-0.161,0.228,0.182,0.633,0.048,0.765 c-0.151,0.15-0.716-0.244-1.152-0.457c-0.472-0.23-0.84-0.272-2.687-0.275c-1.643-0.003-3.286-0.107-4.929-0.066 c-0.183,0.005-0.896,0.023-0.915-0.099c-0.023-0.145,0.953-0.324,0.94-0.47c-0.022-0.237-2.593,0.466-5.736-0.124 c-1.313-0.246-2.894-0.75-3.684,0.025c-0.187,0.184-0.556,0.661-0.775,0.569c-0.136-0.057-0.067-0.274-0.198-0.478 c-0.37-0.577-1.808-0.226-1.846-0.412c-0.021-0.101,0.401-0.192,0.396-0.321c-0.01-0.248-1.585-0.339-3.338-0.569 c-0.773-0.101-1.372-0.208-2.571-0.42c-1.042-0.185-2.532-0.487-4.352-0.989c1.705,0.078,3.444,0.134,5.218,0.166 c3.575,0.065,7.023,0.027,10.335-0.092c4.431-3.858,9.315-7.827,14.67-11.802c4.22-3.133,8.346-5.982,12.33-8.571 c1.028-0.145,1.863-0.149,2.448-0.124c0.895,0.039,1.536,0.161,1.755-0.173c0.244-0.371-0.219-1.024-0.074-1.113 c0.165-0.101,0.643,0.826,1.558,0.989c0.406,0.073,0.755-0.031,0.816-0.049c0.719-0.221,0.882-0.81,1.285-0.748 c0.293,0.045,0.266,0.366,0.693,0.55c0.346,0.15,0.845,0.147,1.038-0.099c0.22-0.28-0.112-0.671,0.077-0.866 c0.229-0.236,1.018,0.027,1.56,0.462c0.442,0.355,0.732,0.836,0.829,0.78c0.039-0.023-0.001-0.105,0.029-0.216 c0.078-0.293,0.54-0.406,0.645-0.432c0.768-0.189,1.108,0.291,1.51,0.07c0.395-0.217,0.182-0.742,0.592-0.985 c0.527-0.312,1.425,0.234,1.479,0.267c0.433,0.269,0.448,0.491,0.796,0.549c0.338,0.056,0.704-0.09,0.942-0.286 c0.176-0.145,0.14-0.201,0.294-0.332c0.366-0.313,1.047-0.408,1.36-0.124c0.276,0.251,0.055,0.606,0.321,0.841 c0.353,0.311,1.184,0.105,1.286-0.223c0.023-0.076-0.002-0.128-0.206-0.618c-0.217-0.521-0.228-0.557-0.206-0.6 c0.133-0.266,1.232-0.307,1.915,0.245c0.227,0.184,0.425,0.446,0.796,0.487c0.082,0.009,0.316,0.035,0.429-0.099 c0.181-0.215-0.156-0.601-0.008-0.775c0.152-0.179,0.719-0.014,1.113,0.247c0.325,0.216,0.336,0.381,0.668,0.569 c0.219,0.124,0.436,0.154,0.865,0.223c0.482,0.077,0.727,0.112,0.89-0.033c0.158-0.141,0.164-0.367,0.165-0.396 c0.007-0.569-0.843-0.935-0.783-1.055c0.051-0.103,0.683,0.176,1.579,0.349c0.644,0.125,1.587,0.308,1.743,0.013 c0.177-0.335-0.025-1.04,0.429-0.692c0.52,0.399,0.507,0.582,0.89,0.791c0.523,0.285,1.306,0.339,1.477,0.044 c0.111-0.192-0.103-0.417-0.003-0.51c0.124-0.115,0.481,0.205,1.13,0.433c0.35,0.123,0.998,0.35,1.352,0.066 c0.2-0.161,0.161-0.368,0.297-0.396c0.264-0.054,0.406,0.73,1.055,1.154c0.575,0.376,1.41,0.379,1.615,0.066 c0.175-0.266-0.165-0.688-0.033-0.791c0.152-0.119,0.63,0.415,1.451,0.857c0.482,0.26,1.415,0.763,1.912,0.429 c0.448-0.302,0.251-1.089,0.643-1.206c0.166-0.049,0.306,0.061,0.676,0.283c0,0,0.416,0.25,1.253,0.659 c0.806,0.394,1.721,0.089,2.176-0.033c1.562-0.419,2.315,0.091,6.923-0.099c1.378-0.057,3.568-0.298,7.95-0.78 c1.914-0.211,3.485-0.392,4.528-0.514c-0.207-0.257-0.583-0.66-1.162-0.964c-1.04-0.547-2.411-0.606-2.621-0.173 c-0.117,0.241,0.193,0.496,0.049,0.692c-0.186,0.253-0.892,0.085-1.362-0.136c-0.344-0.161-0.449-0.298-0.69-0.458 c-0.917-0.612-2.131-0.46-3.511-0.288c-0.365,0.046-0.657,0.099-0.824,0.132c-0.148-0.229-0.413-0.553-0.832-0.684 c-0.208-0.065-0.379-0.059-0.467-0.056c-0.482,0.015-1.129,0.012-2.031-0.011c0.107,0.09,0.41,0.355,0.347,0.488 c-0.043,0.091-0.237,0.073-0.593,0.049c-1.165-0.078-1.135-0.024-1.459-0.099c-0.492-0.114-0.45-0.214-0.964-0.371 c-0.89-0.272-1.929-0.254-2.027,0.038c-0.056,0.166,0.222,0.328,0.173,0.432c-0.091,0.193-1.067-0.311-2.53-0.577 c-0.207-0.038-0.747-0.129-1.451-0.165c-0.583-0.03-1.079-0.011-1.451,0.016c0.215-0.213,0.466-0.496,0.396-0.61 c-0.108-0.176-0.844,0.274-1.995,0.511c-0.354,0.073-0.639,0.108-3.522,0.103c-0.547-0.001-1.003-0.003-1.324-0.004 c0.68-0.913,0.733-1.217,0.643-1.319c-0.165-0.186-0.786,0.323-1.936,0.545c-0.507,0.098-0.683,0.063-2.015,0.039 c-2.239-0.039-3.37,0.046-3.417-0.205c-0.034-0.184,0.543-0.4,0.495-0.527c-0.054-0.142-0.736,0.208-1.467-0.016 c-0.7-0.214-0.974-0.81-1.17-0.709c-0.272,0.14,0.226,1.29-0.066,1.467c-0.244,0.148-0.717-0.582-1.813-1.104 c-0.164-0.078-1.507-0.719-1.962-0.264c-0.327,0.327,0.005,1.019-0.225,1.121c-0.172,0.076-0.421-0.283-1.159-0.857 c-0.829-0.645-0.998-0.566-1.04-0.539c-0.198,0.126,0.033,0.63-0.163,0.754c-0.176,0.111-0.459-0.235-0.973-0.478 c-0.636-0.301-1.263-0.274-1.879-0.247c-0.763,0.033-0.943,0.198-1.5,0.066c-0.315-0.074-0.392-0.159-0.758-0.214 c-0.314-0.047-0.919-0.139-1.154,0.148c-0.277,0.339,0.11,1.023,0.001,1.073c-0.116,0.052-0.354-0.795-1.039-1.056 c-0.334-0.128-0.371,0.038-1.302-0.016c-0.645-0.038-0.779-0.126-1.006,0c-0.374,0.208-0.284,0.602-0.641,0.76 c-0.386,0.171-0.794-0.154-0.908-0.002c-0.119,0.158,0.294,0.55,0.198,0.676c-0.115,0.15-0.834-0.231-1.731-0.659 c-0.691-0.33-1.332-0.613-1.593-0.721c-0.676-0.279-1.36-0.43-3.047-0.548c-1.624-0.114-2.736-0.095-3.783-0.097 c-2.533-0.006-4.994-0.134-4.994-0.199c0-0.049,1.38-0.116,7.516-0.198c-0.213-0.24-0.223-0.331-0.198-0.371 c0.094-0.147,0.745,0.28,1.582,0.297c0.539,0.01,0.572-0.162,1.286-0.297c1.392-0.262,2.219,0.204,2.473-0.198 c0.201-0.318-0.17-0.848-0.014-0.94c0.125-0.073,0.329,0.285,0.855,0.445c0.077,0.023,0.663,0.194,0.915-0.074 c0.13-0.138,0.082-0.297,0.173-0.321c0.154-0.042,0.462,0.365,0.618,0.791c0.115,0.313,0.098,0.502,0.223,0.544 c0.133,0.045,0.268-0.135,0.47-0.272c0.208-0.141,0.553-0.281,1.137-0.223c0.42-0.008,0.841-0.016,1.261-0.025 c6.066-3.825,11.32-6.247,15.088-7.775c5.827-2.362,10.81-3.683,20.271-7.803c1.859-0.81,3.381-1.505,4.399-1.977 c6.143,0,12.286,0,18.429,0V187z"/><path d="M237.692 188.846c-.259-.272-1.313.138-1.319.494-.004.254.52.682.989.462C237.782 189.605 237.863 189.026 237.692 188.846zM243.429 188.846c-.391-.164-.961.313-.923.659.041.38.823.691 1.121.429C243.888 189.704 243.805 189.004 243.429 188.846zM246.923 188.319c-.351-.305-1.844.513-1.78 1.055.038.325.649.638 1.154.495C247.045 189.656 247.19 188.551 246.923 188.319zM254.67 198.571c-.152.051-.231.289-.198.462.088.452.977.601 1.088.429C255.683 199.271 255.007 198.459 254.67 198.571zM259.022 199.593c-.139.076-.148.413 0 .626.24.347.822.26.89.099C260.004 200.1 259.268 199.459 259.022 199.593zM233.473 236.352c-.082.259.603.864.94.692.203-.103.29-.494.144-.724C234.319 235.948 233.547 236.117 233.473 236.352zM232.446 257.986c-.049.136.845.724 1.891.779.286.015.865.005.878-.099C235.244 258.437 232.527 257.764 232.446 257.986zM254.967 256.297c-.214-.233-1.546.448-1.482.726.041.181.712.351 1.153-.001C254.9 256.812 255.079 256.419 254.967 256.297zM178.945 133c.187-.321 2.263.331 2.242.758-.01.208-.517.368-.89.363C179.437 134.109 178.818 133.219 178.945 133zM175.385 133.56c-.062.165.64.79 1.385.659.175-.031.53-.134.527-.264C177.29 133.665 175.474 133.323 175.385 133.56zM233.143 102.407c-.062.089.43.657 1.121.89.239.081.662.176.692.099C235.021 103.23 233.247 102.259 233.143 102.407z"/><path d="M115.747 192.275c-13.424-13.833-28.993-32.549-43.121-56.703-8.94-15.284-15.586-29.812-20.571-42.725C62.15 108.8 77.191 128.698 99 147.835c12.312 10.804 24.378 19.257 35.209 25.846.104.726 1.098 8.675-5.011 14.374C123.644 193.236 116.674 192.402 115.747 192.275zM129.775 130.181c.462 3.132.923 6.264 1.385 9.396 5.374 4.071 10.747 8.143 16.121 12.214.478-3.56.956-7.121 1.434-10.681-3.56-3.28-7.121-6.56-10.681-9.841C135.28 130.907 132.527 130.544 129.775 130.181zM157.476 200.362c2.376 8.271 4.752 16.543 7.129 24.814 2.231-4.253 4.462-8.505 6.692-12.758C166.69 208.399 162.083 204.38 157.476 200.362z" fill="#fff"/><linearGradient id="b" gradientUnits="userSpaceOnUse" x1="228.715" y1="92.204" x2="261.065" y2="92.204"><stop offset="0" stop-color="#3d3c3d"/><stop offset="1" stop-color="#0f0f0f"/></linearGradient><path d="M255.108,86.238c-2.14,0.424-4.827,1.035-7.889,1.927 c-3.722,1.084-6.196,2.058-10.813,3.89c-5.172,2.053-7.757,3.092-7.69,3.727c0.152,1.462,7.668,1.834,14.416,2.141 c7.652,0.348,13.879,0.262,17.933,0.136c-1.179-0.261-2.888-0.702-4.878-1.454c-3.5-1.322-5.335-2.015-5.802-3.429 C249.751,91.258,251.782,88.449,255.108,86.238z" fill="url(#b)"/><linearGradient id="c" gradientUnits="userSpaceOnUse" x1="189.247" y1="118.75" x2="249.242" y2="118.75"><stop offset="0" stop-color="#3d3c3d"/><stop offset="1" stop-color="#0f0f0f"/></linearGradient><path d="M207.659,109.725c13.861-0.137,27.722-0.275,41.582-0.412 c-1.78,0.262-4.589,0.664-8.043,1.108c-11.587,1.491-15.714,1.565-21.869,3.722c-3.351,1.174-9.067,3.177-8.947,5.425 c0.032,0.606,0.529,1.982,12.31,5.586c4.635,1.418,8.491,2.408,11.077,3.033c-11.467-0.985-20.939-1.528-27.758-1.846 c-9.527-0.445-16.265-0.562-16.747-2.769c-0.093-0.426-0.092-1.57,8.637-7.582C201.94,113.207,205.362,111.095,207.659,109.725 z" fill="url(#c)"/><linearGradient id="d" gradientUnits="userSpaceOnUse" x1="157.514" y1="150.929" x2="219.791" y2="150.929"><stop offset="0" stop-color="#3d3c3d"/><stop offset="1" stop-color="#0f0f0f"/></linearGradient><path d="M219.791,142.033c-3.29-0.199-6.608-0.376-9.956-0.527 c-13.578-0.615-26.753-0.787-39.495-0.593c-1.959,2.02-4.487,4.675-7.385,7.846c-5.137,5.623-5.607,6.493-5.405,7.361 c0.61,2.627,6.936,3.374,18.988,4.046c6.637,0.37,16.036,0.774,27.494,0.857c-16.782-3.481-25.121-6.66-25.018-9.536 C179.145,147.853,192.737,144.702,219.791,142.033z" fill="url(#d)"/><linearGradient id="e" gradientUnits="userSpaceOnUse" x1="163.002" y1="271.05" x2="201.95" y2="271.05"><stop offset="0" stop-color="#3d3c3d"/><stop offset="1" stop-color="#0f0f0f"/></linearGradient><path d="M195.495,254.896c-0.008-0.365-5.881-0.709-27.989-0.791 c-0.936,0.08-3.677,0.41-4.352,2.077c-0.609,1.504,0.77,3.339,1.335,4.104c9.562,12.951,12.432,26.211,23.192,27.593 c4.463,0.573,8.536-1.122,9.643-1.582c1.26-0.525,4.681-1.948,4.626-3.748c-0.022-0.697-0.558-1.206-1.461-2.038 c-1.537-1.417-3.151-2.164-4.302-2.571c-1.064-0.25-2.521-0.399-3.956,0.198c-3.354,1.397-3.733,5.691-5.59,5.773 c-0.79,0.035-1.894-0.689-3.315-3.907c-0.359-1.82-0.665-3.764-0.887-5.823c-0.603-5.6-0.432-10.635,0.049-14.885 c1.522-0.857,3.584-1.874,6.132-2.72C192.714,255.217,195.5,255.147,195.495,254.896z" fill="url(#e)"/><linearGradient id="f" gradientUnits="userSpaceOnUse" x1="126.766" y1="207.48" x2="199.714" y2="207.48"><stop offset="0" stop-color="#3d3c3d"/><stop offset="1" stop-color="#0f0f0f"/></linearGradient><path d="M176.013,228.685c-2.104-5.015,6.009-9.775,5.141-16.894 c-0.619-5.078-5.491-8.759-9.956-11.209c-2.899-1.604-4.442-3.343-4.629-5.218c-0.546-5.48,10.502-12.114,33.146-19.903 c-10.946-0.052-21.929-0.128-32.951-0.231c-6.734-0.063-13.453-0.134-20.158-0.216c-0.793,0.121-1.905,0.416-2.869,1.237 c-1.785,1.52-1.775,3.748-2.341,6.264c-0.096,0.426-1.187,5.094-4,8.452c-3.155,3.766-5.692,2.561-8.341,6.29 c-2.137,3.008-2.258,6.288-2.285,7.416c-0.02,0.832-0.04,4.732,2.494,8.436c0.997,1.457,3.112,3.026,7.3,6.104 c4.553,3.346,4.666,3.128,5.969,4.429c1.705,1.702,2.176,2.738,5.291,7.566c0.995,1.542,2.495,3.836,4.401,6.626 c15.533,0.703,31.066,1.407,46.599,2.11c-2.468-1.141-6.492-2.975-11.538-5.143 C178.517,231.036,176.828,230.628,176.013,228.685z M172.022,234.411c-3.013-0.439-5.26-1.071-5.604-1.175 c-4.741-1.433-7.377-11.142-9.198-17.802c-1.172-4.288-3.001-10.951-6.038-21.883c0.112-0.312,0.314-0.754,0.685-1.198 c0.58-0.694,1.26-1.015,1.619-1.154c1.413-0.553,2.973-1.093,4.673-1.579c2.211-0.632,4.277-1.064,6.144-1.36 c-1.084,0.829-2.659,2.249-3.919,4.442c-0.518,0.902-0.777,1.353-0.857,1.813c-0.29,1.672,0.881,3.956,9.099,10.088 c5.458,4.073,6.91,4.534,7.253,6.462c0.22,1.24-0.163,2.124-3.6,8.261c-3.459,6.178-4.109,7.153-3.932,8.628 c0.225,1.878,1.768,4.358,7.713,6.864C175.102,234.765,173.701,234.655,172.022,234.411z" fill="url(#f)"/><path d="M85.781 89.036L86.229 89.249 87 89.229 87.771 89.441 88.566 88.557 89.335 88.747 90.123 88.246 90.863 89.209 91.626 89.359 92.396 89.32 93.153 89.594 93.929 89.419 94.722 88.993 95.455 89.476 96.25 89.152 96.911 89.91 98.217 89.542 96.438 90.08 97.566 89.642 98.291 90.383 99.032 89.91 99.804 90.744 100.533 90.216 101.277 89.997 102.051 90.531 102.835 90.235 103.606 89.63 104.386 89.329 105.202 89.86 105.92 89.572 106.877 89.554 108.061 89.467 108.164 90.061 108.36 89.978 109.206 91.067 109.994 90.476 110.884 89.838 111.7 90.303 112.448 90.761 113.256 90.633 114.21 90.392 115.161 89.751 115.672 90.988 116.261 90.021 117.081 89.121 117.992 89.733 118.14 90.17 119.043 90.83 119.819 90.106 120.595 89.939 121.265 90.343 122.047 90.314 122.734 90.596 123.469 90.958 124.247 90.943 125.056 91.922 125.486 90.759 126.5 91.242 127.213 90.247 127.159 91.266 127.029 92.371 127.785 90.751 128.818 91.589 129.226 91.528 130.006 90.436 130.635 90.838 131.654 91.276 132.787 91.282 133.858 91.425 133.786 92.594 134.695 92.636 135.124 91.633 136.386 92.614 137.181 91.971 137.337 91.278 137.427 92.045 138.662 91.928 139.08 92.148 139.443 91.746 139.804 90.761 141.065 91.25 141.189 92.291 142.203 91.88 143.115 91.863 143.713 91.168 144.783 90.828 145.276 91.705 145.84 92.388 146.603 91.361 147.211 92.493 147.993 91.485 148.733 91.823 149.48 91.939 150.227 91.974 150.97 91.458 151.722 91.47 152.486 91.614 153.503 92.118 152.818 93.052 152.037 93.267 151.199 92.789 150.243 92.456 149.267 93.16 148.457 93.101 148.217 93.493 147.898 93.53 147.209 93.074 146.438 93.324 145.705 92.945 144.895 92.92 144.439 93.845 144.654 94.462 143.848 94.074 143.033 94.458 142.533 93.551 141.725 93.882 141.093 93.446 140.338 93.895 139.641 93.757 139.711 94.498 138.999 93.542 137.949 94.157 137.402 93.679 136.585 94 135.973 94.553 135.437 94.736 134.787 94.56 134.64 95.079 134.158 95.035 133.49 94.288 133.085 95.043 132.629 95.234 131.313 95.293 131.677 95.774 131.206 96.362 130.757 95.594 129.846 95.208 130.471 96.114 129.439 95.845 128.365 95.347 128.472 96.371 127.052 96.313 126.48 95.452 125.817 96.216 125.294 95.817 124.89 95.336 124.41 95.939 123.515 96.002 123.177 95.913 122.842 96.185 123.042 95.82 122.405 95.838 122.284 96.603 121.584 95.716 120.72 96.025 120.071 96.402 120.976 97.072 119.981 97.294 119.576 97.317 118.729 97.584 118.19 97.009 117.103 96.878 116.354 96.305 116.622 97.33 114.641 96.615 115.384 97.592 115.205 98.207 114.204 98.464 114.005 97.557 113.623 97.653 112.958 98.134 112.129 97.482 111.445 97.781 110.897 98.368 110.204 97.922 109.576 97.513 109.381 97.724 109.761 97.252 108.775 96.5 108.073 97.25 107.185 97.368 106.46 98.048 105.672 97.867 105.189 96.727 104.31 97.259 103.797 97.414 103.129 98.015 102.204 98.34 103.214 99.164 102.263 99.557 102.182 99.186 101.056 98.748 101.611 97.614 100.905 98.434 99.743 98.296 100.679 99.259 100.763 100.062 99.657 100.403 98.669 99.851 97.941 99.083 97.108 99.538 96.828 99.777 95.744 99.273 95.79 100.49 94.941 99.894 94.373 100.32 93.693 100.069 94.335 99.452 93.914 98.947 93.196 99.034 92.496 99.86 91.758 98.64 91.097 99.379 90.661 100.071 89.526 99.389 89.696 100.78 88.848 100.527 88.744 99.963 87.998 99.364 88.502 98.419 87.65 97.85 87.359 97.125 88.131 96.106 87.765 95.402 86.922 94.831 86.552 94.128 86.269 93.401 86.637 92.494 86.37 91.762 86.386 90.953 85.461 90.403 85.063 89.708z"/><path d="M116.751 88.84L117.416 88.662 118.129 88.685 118.768 88.899 118.036 89.273 117.326 89.222zM123.13 89.945L123.776 89.632 124.479 89.75 123.956 90.474zM110.464 98.646L111.189 98.406 111.969 98.448 112.746 98.488 113.419 98.784 112.978 99.15 112.385 99.343 111.662 99.356 110.972 99.129zM122.571 96.83L122.171 97.26 122.177 97.857 123.006 98.195 123.062 97.496zM130.964 96.844L130.37 97.089 130.04 97.666 130.238 98.375 130.872 98.339 131.304 97.864 131.32 97.288zM150.629 94.033L151.124 93.503 151.805 93.165 152.543 92.977 153.28 93.031 153.135 93.701 152.661 94.218 151.971 94.491 151.219 94.45zM134.703 90.81L134.282 91.101 135.102 91.73 135.038 90.83zM95.015 111.631L96.119 111.98 96.736 112.566 97.505 112.535 98.506 112.931 98.479 111.816 99.346 111.844 100.152 112.57 100.985 112.401 101.884 112.414 102.699 112.717 103.861 112.813 104.41 111.717 105.415 112.331 104.915 112.894 105.744 113.159 106.411 112.653 107.093 112.769 107.797 112.811 108.405 112.693 108.212 112.286 108.987 112.106 109.847 111.889 110.581 112.81 111.374 112.493 110.897 112.858 110.168 112.663 109.426 113.041 110.712 113.267 111.382 113.891 112.229 113.432 113.15 112.987 112.898 112.478 113.094 112.758 113.677 113.183 114.439 113.348 115.034 113.678 115.907 113.903 116.765 114.498 117.479 113.955 118.671 114.12 117.936 113.044 117.546 112.907 117.847 112.696 118.519 112.823 119.29 112.877 118.761 113.547 118.744 114.391 119.621 115.068 119.601 114.46 120.188 113.887 120.018 113.524 120.511 114.058 120.985 114.371 121.889 114.063 122.639 113.999 123.648 113.723 124.365 113.679 125.441 113.965 124.631 114.78 125.374 115.407 126.532 115.161 126.11 114.403 126.721 114.514 127.321 115.027 128.108 114.415 128.815 114.821 129.375 114.282 129.909 114.047 130.551 114.293 131.595 113.952 132.1 114.85 132.648 114.219 132.5 113.864 133.245 113.66 133.944 114.122 134.89 113.976 135.247 114.75 135.967 115.147 136.58 114.951 137.311 114.801 138.007 114.506 138.465 114.782 138.919 115.339 139.953 115.342 139.462 114.177 140.233 114.954 141.104 114.703 141.966 115.099 142.457 116.127 143.767 115.882 143.957 115.065 144.341 114.276 144.985 114.845 145.302 115.345 145.806 114.875 146.773 115.172 147.441 114.413 148.334 114.602 149.186 114.429 149.578 115.182 149.097 115.37 148.368 115.399 147.618 115.844 147.155 116.22 146.899 116.817 145.82 116.522 145.443 115.968 144.71 116.291 143.862 116.608 142.985 116.865 143.675 117.729 142.418 117.49 141.524 116.936 141.408 116.113 140.471 116.342 140.233 117.455 139.398 117.245 138.924 116.415 138.758 117.219 138.288 117.247 137.471 117.197 137.2 117.774 136.426 117.827 135.514 118.212 135.338 117.198 134.584 116.375 134.374 117.556 134.343 118.508 133.371 118.278 133.14 117.397 132.392 117.035 131.543 117.283 130.577 116.555 130.208 117.491 130.226 118.128 129.813 118.087 128.977 118.267 128.254 118.571 127.345 118.305 127.928 117.415 126.376 117.427 126.295 118.118 125.831 117.833 124.791 118.363 123.949 118.339 122.766 118.849 123.159 117.749 121.781 117.6 121.605 118.205 121.216 117.92 120.362 118.042 119.672 118.49 119.96 117.501 119.142 118.31 118.494 117.908 117.775 118.729 116.981 118.208 117.051 119.297 115.576 119.004 116.183 119.893 115.345 119.539 114.667 119.933 113.977 120.075 113.273 119.632 112.35 119.898 111.19 120.071 111.608 119.399 111.482 119.199 110.807 119.333 109.907 119.216 110.026 120.043 109.05 120.514 108.317 120.382 107.592 119.475 106.894 119.994 105.758 120.166 106.418 119.357 105.768 119.399 104.952 119.762 104.628 119.717 104.252 120.249 103.576 119.573 102.821 119.819 102.981 119.31 102.808 119.646 102.053 119.509 101.232 119.082 100.485 119.21 99.809 119.747 99.073 119.934 98.382 120.349 97.612 120.372 96.685 120.306 96.353 119.463 96.967 118.578 96.017 117.998 96.582 117.122 95.647 116.539 95.869 115.731 96.214 114.898 95.167 114.337 95.988 113.412 95.831 112.677z"/><path d="M104.824 110.905L105.413 110.645 106.08 110.584 106.677 110.884 107.061 111.358 107.176 111.977 106.473 111.729 105.787 111.449zM123.988 109.857L124.736 109.398 125.437 110.153 124.671 110.216zM124.253 112.364L123.951 113.156 124.638 113.654 125.471 113.516 125.071 112.719zM130.222 109.363L130.853 109.915 131.686 110.199 132.524 110.085 132.301 109.245 131.542 108.754 130.761 108.845zM122.131 119.095L122.86 119.039 123.616 119.2 124.371 119.394 125.122 119.596 125.843 119.848 125.019 119.996 125.014 120.276 124.232 120.192 123.474 119.899 122.727 119.579zM139.725 119.102L140.584 119.021 141.409 119.399 141.916 119.976 141.084 120.141 140.193 120.044 139.472 119.552zM143.732 118.458L143.867 119.018 144.329 119.349 144.666 118.823zM149.112 116.697L149.776 116.733 150.398 116.974 150.887 117.309 151.246 117.712 150.552 117.704 149.839 117.519 149.156 117.241 148.565 116.854zM151.618 115.343L152.472 115.923 153.042 115.702 153.272 115.144 152.416 114.988zM102.478 110.515L102.95 110.944 102.252 111.188zM81.551 203.744L82.371 203.825 83.205 204.019 83.998 204.375 84.852 204.444 85.588 204.499 86.274 204.937 87.136 204.96 86.131 205.023 86.867 205.231 87.577 205.177 88.288 205.104 88.992 205.158 89.781 205.488 90.57 205.672 91.401 205.625 92.119 205.436 92.846 205.486 93.589 205.542 94.259 205.222 94.977 205.431 95.673 205.501 96.325 205.667 97.133 205.397 97.784 205.995 98.548 205.954 99.294 205.854 100.021 205.705 100.763 205.828 101.495 205.806 102.231 205.652 103.048 205.614 103.841 205.917 104.668 205.83 105.519 205.758 106.115 206.284 105.16 206.419 104.471 206.888 103.716 206.852 102.967 206.798 102.227 206.817 101.486 206.859 100.745 206.605 100.002 206.815 99.224 206.9 99.673 207.346 99.138 207.616 98.373 207.514 97.614 207.568 96.871 207.33 96.11 207.328 95.301 207.607 94.602 207.212 93.836 207.382 93.108 207.354 92.455 207.224 91.815 207.352 91.128 207.135 90.483 207.637 89.762 207.616 89.046 207.621 88.134 207.861 87.209 207.965 86.46 208.017 85.69 207.595 84.949 208.041 84.187 207.971 83.424 207.839 82.664 207.9 81.815 208.131 81.76 207.299 81.732 206.57 81.694 205.842 81.653 205.114 81.553 204.392zM80.766 227.726L81.329 227.599 82.002 227.874 82.713 227.718 83.017 228.317 83.927 228.516 84.568 228.835 84.865 228.249 84.938 227.628 85.472 227.172 86.337 227.757 86.873 228.453 87.793 228.271 88.321 228.645 88.953 228.61 88.968 227.949 88.949 227.389 89.482 227.71 89.697 228.488 90.507 228.51 91.284 229.027 92.306 228.826 92.285 228.069 92.261 227.567 93.016 227.089 93.503 227.927 94.41 228.272 93.795 229.554 94.418 229.015 95.121 229.211 95.689 228.819 95.77 228.14 96.585 227.867 97.381 227.955 97.998 228.512 98.559 229.036 99.369 229.081 99.92 229.678 101.241 229.5 101.202 229.968 101.522 230.119 102.217 230.25 103.103 230.522 104.281 230.314 103.856 229.809 103.503 229.571 104.006 229.049 104.748 229.328 105.295 229.718 105.998 230.413 106.399 230.455 107.01 230.112 108.111 230.275 107.701 229.58 108.76 229.347 109.749 229.549 110.43 230.312 111.275 229.995 112 230.018 112.801 230.158 113.604 230.23 114.357 229.722 115.174 229.583 115.999 229.597 116.712 230.315 117.531 230.238 118.179 230.494 117.499 231.248 116.589 231.796 115.837 231.075 114.964 231.286 114.272 231.189 113.565 231.426 113.594 232.334 112.917 231.714 112.052 232.092 111.177 231.589 111.312 232.54 110.599 232.451 109.871 231.707 109.636 232.555 109.452 233.018 108.365 232.853 107.787 232.42 107.854 233.015 108.024 234.148 106.884 233.692 106.766 232.479 106.043 232.982 105.603 233.363 105.106 232.945 104.391 232.565 103.729 232.531 103.441 232.845 102.333 233.415 102.225 234.311 102.689 234.864 101.704 234.401 101.102 233.526 100.302 234.019 100.139 234.973 100.546 234.146 100.393 233.235 99.398 232.432 99.583 233.597 98.741 233.028 98.048 233.026 97.337 233.042 96.635 233.106 95.954 232.788 95.108 232.886 94.496 233.573 95.055 234.393 94.432 233.989 93.726 234.157 92.906 234.56 92.063 234.291 92.471 233.481 91.441 233.863 90.521 233.676 89.868 233.534 89.809 234.083 89.818 234.738 89.327 234.216 88.939 233.586 88.011 233.98 87.355 234.159 86.664 234.498 85.946 234.226 85.188 234.218 84.48 233.812 83.702 233.816 82.88 234.313 82.162 233.822 81.37 234.176 80.4 234.046 80.549 233.051 80.448 232.272 80.912 231.493 80.306 230.714 80.542 229.935 80.696 229.157 80.46 228.378zM113.403 233.382L113.795 234.139 114.593 234.439 115.13 233.911 114.658 233.489 114.03 233.292zM121.739 231.831L121.926 232.452 122.505 232.768 123.3 232.098 122.565 231.713zM120.035 230.647L119.171 230.897 118.586 231.571 119.309 231.844 119.909 231.379zM117.364 232.72L116.631 233.154 117.122 233.618 117.793 233.683 117.788 233.112z"/><path d="M101.295 228.575L101.93 229.177 102.808 229.285 103.289 228.943 102.689 228.599 101.983 228.501zM86.048 226.727L86.532 227.392 87.231 227.868 88.045 227.98 88.248 227.526 87.677 226.961 86.876 226.69zM90.134 227.224L90.412 227.76 90.981 227.971 91.434 227.623 90.842 227.236zM80.331 252.085L81.143 252.379 81.844 252.641 82.599 253.301 83.076 252.306 83.728 252.036 83.643 253.327 84.51 253.364 85.138 253.222 85.097 252.097 85.837 252.211 85.923 252.497 86.928 252.16 87.413 253.275 87.959 252.463 88.372 251.887 88.788 251.728 89.358 252.062 89.984 252.277 90.703 252.56 91.423 252.797 92.202 252.077 92.927 252.35 93.557 252.286 94.199 252.699 94.727 252.307 95.315 251.454 95.678 252.206 96.453 252.862 96.719 254.031 97.893 253.62 97.312 252.681 98.378 253.367 99.637 253.161 99.13 251.996 100.457 251.878 100.842 252.347 101.378 252.633 102.237 252.451 103.034 253.31 103.909 253.364 104.457 253.5 104.723 254.247 105.266 253.448 105.895 253.016 106.357 252.887 107.34 252.513 107.648 253.535 107.679 253.608 107.909 254.128 108.358 254.558 108.296 254.501 108.121 253.663 109.265 253.861 110.027 253.488 110.146 254.383 110.723 255.114 111.627 254.759 111.746 254.155 112.317 254.12 113.275 253.961 114.231 254.036 114.922 254.682 115.722 254.385 116.109 253.717 116.654 254.219 116.97 254.651 116.952 255.111 117.339 255.308 117.253 254.802 117.033 253.716 117.832 254.702 118.801 254.366 119.843 254.921 120.448 253.111 120.519 254.173 120.675 255.16 121.255 254.296 121.621 253.597 122.087 254.808 122.651 255.119 123.036 255.125 123.901 255.182 124.545 254.713 125.02 254.223 124.959 253.663 125.604 253.681 126.448 254.309 126.094 255.365 125.999 256.311 126.817 256.622 127.054 255.618 127.153 255.009 126.75 254.113 128.026 253.883 128.278 255.015 128.575 256.054 129.393 256.154 129.922 255.68 130.499 255.44 130.985 254.965 131.872 255.367 132.153 255.316 131.958 255.369 131.526 256.255 132.446 255.856 132.845 257.022 134.035 256.421 134.278 257.184 134.864 256.779 135.544 257.094 135.527 256.41 134.78 255.303 136.326 255.426 136.378 256.591 137.453 257.331 138.215 256.832 138.68 256.34 139.46 256.804 139.179 257.741 138.419 258.002 137.603 258.311 137.007 257.696 136.599 256.988 136.247 257.635 136.525 258.301 135.204 258.276 134.301 258.066 133.286 258.983 133.69 257.543 132.816 257.374 132.335 257.918 130.978 257.474 131.947 258.126 132.925 259.035 132.037 258.31 131.077 258.512 130.236 258.788 129.149 259.1 129.6 258.114 128.445 258.36 127.859 259.438 127.046 258.672 126.319 258.977 126.417 259.418 125.997 259.876 125.156 259.71 124.369 259.356 123.531 259.499 124.617 258.879 123.731 258.618 123.019 259.365 122.205 259.07 121.737 258.519 121.49 257.547 120.51 257.874 119.614 257.538 120.399 258.051 120.813 258.902 119.524 258.759 120.135 259.588 119.285 259.346 118.515 259.576 117.734 260.067 116.836 259.602 117.753 258.894 116.518 258.77 115.487 258.468 114.709 259.083 113.759 258.762 113.092 259.668 112.192 259.284 111.374 259.87 110.527 259.434 109.771 259.725 110.769 260.266 109.632 260.451 108.572 260.775 108.519 259.369 108.421 258.541 107.752 258.856 107.539 259.336 106.922 259.796 105.935 259.255 104.979 259.765 105.975 259.277 104.97 258.836 104.187 259.051 103.413 259.173 103.007 259.981 102.093 259.506 102.701 260.348 102.004 261.158 102.559 261.996 101.635 261.852 100.891 262.537 100.26 262.029 99.333 261.615 99.577 260.886 99.232 260.412 98.452 260.049 97.655 260.658 96.906 260.071 96.198 260.763 95.562 261.083 95.073 260.797 95.423 261.131 94.543 261.062 93.765 260.867 92.922 261.019 92.205 260.748 91.52 261.225 90.644 261.37 89.762 261.263 89.205 261.36 89.446 261.353 89.996 262.06 88.897 261.798 88.087 262.232 87.153 261.846 87.165 260.984 87.913 260.294 87.137 261.083 86.457 261.389 85.557 261.369 84.749 261.411 84.274 262.353 83.511 262.785 82.672 262.986 81.806 262.074 81 262.441 80.261 262.383 79.684 261.661 80.421 260.889 80.767 260.108 80.021 259.302 80.102 258.515 79.878 257.72 80.38 256.943 80.844 256.164 79.857 255.353 80.94 254.588 80.452 253.788 80.942 253.01z"/><path d="M111.12 251.785L111.654 252.335 112.209 252.846 112.838 253.239 113.535 252.964 114.256 252.741 114.969 252.504 115.401 252.177 114.575 251.966 113.725 251.858 112.887 251.686 112.058 251.489zM122.11 253.033L122.279 253.671 122.32 254.328 122.903 254.292 123.542 253.984 123.744 253.4 122.976 253.09zM132.413 252.798L132.903 253.398 133.68 253.522 134.234 253.287 134.532 252.804 133.864 252.528 133.103 252.519zM138.2 252.778L137.963 253.288 138.134 253.855 138.586 254.236 139.161 254.225 138.886 253.356zM140.836 255.813L140.472 256.307 140.605 256.923 141.357 257.115 141.322 256.372zM142.351 257.278L141.705 257.974 142.337 258.313 143.034 258.138 142.899 257.556zM145.499 254.964L144.884 255.323 144.527 255.915 145.167 255.847 145.822 255.751 146.481 255.74 147.11 255.832 146.709 255.343 146.154 254.997zM145.852 256.595L145.196 256.742 144.743 257.218 145.476 257.395zM136.79 258.227L137.168 258.975 138.232 259 137.616 258.425zM116.867 260.705L116.907 261.318 117.389 261.712 118.312 261.25 117.677 260.735zM113.699 260.355L113.851 261.375 114.39 261.089 114.57 260.508zM148.221 258.004L147.754 258.705 148.381 258.995zM150.66 257.223L150.433 257.515 150.926 257.617zM105.777 260.534L105.908 261.46 106.57 261.898 107.384 261.928 108.079 261.6 107.702 261.071 107.106 260.722 106.453 260.49zM97.179 261.045L96.585 261.243 95.978 261.562 95.246 261.799 94.505 261.977 93.795 262.193 94.325 262.683 95.014 262.941 95.728 262.94 96.4 262.71 96.976 262.278 97.266 261.668zM92.737 262.196L92.035 262.94 91.199 263.041 90.327 263.112 89.364 263.682 90.192 264.029 91.119 264.023 91.91 263.886 92.551 263.435 92.825 262.832zM88.016 263.686L87.235 263.697 86.645 264.245 86.802 265.264 87.419 264.938 87.86 264.359z"/></g></switch></svg>