<svg xmlns="http://www.w3.org/2000/svg" viewBox="0 0 350 350" style="enable-background:new 0 0 350 350" xml:space="preserve"><switch><g><path style="fill:#fff" d="M60 60h230v230H60z"/><path d="M280.465 280.465h-56.563a25.124 25.124 0 0 0 5.275-9.177 25.108 25.108 0 0 0 1.055-10.154l-82.55-.396 13.304 19.726H69.535v-165.07c10.786 3.114 14.809 1.988 16.279 0 2.98-4.03-4.027-12.294-11.934-33.165a207.322 207.322 0 0 1-4.345-12.696h210.931v210.932z"/><linearGradient id="oryx-a" gradientUnits="userSpaceOnUse" x1="83" y1="181.733" x2="267" y2="181.733"><stop offset="0" style="stop-color:#8e6694"/><stop offset="1" style="stop-color:#5d445c"/></linearGradient><path style="fill:url(#oryx-a)" d="M267 83H83v184h68.905l9.082 13.465h62.916A25.072 25.072 0 0 0 230.14 267h36.861V83z"/><g><path d="M271.879 187c-3.618.114-5.666-.326-6.89-.791-.226-.086-1.116-.436-1.319-.165-.294.394 1.03 1.876.941 1.948-.073.059-.738-1.13-1.864-1.322-.694-.119-1.363.175-1.714.33-.91.4-1.33.975-1.554.83-.251-.162.147-.966-.094-1.126-.233-.154-.702.526-1.418.89-1.764.896-3.932-.687-4.484.066-.245.334.087.774-.165.956-.43.31-1.327-1.019-2.637-.89-.534.053-.623.297-1.385.363-.615.053-1.079-.061-1.385-.132-.918-.213-2.235-.518-3.231-.527-.736-.007-1.52.269-3.087.82-1.622.571-2.824 1.161-2.946.96-.096-.158.608-.59.495-.89-.127-.336-1.161-.199-2.473-.132-.742.038-1.814.065-3.132 0 .351.429.732 1.003.544 1.355-.234.438-1.16.174-1.97.252-2.223.216-3.018 2.965-5.587 5.684-.803.851-2.107 2.045-4.097 3.159 2.486.012 4.503-.044 5.901-.099 1.482-.058 3.287-.154 3.294-.077.006.068-1.812.186-1.81.341.002.156 1.852.281 3.396.297.949.01 2.468.02 4.484-.231 1.717-.214 3.161-.537 3.198-.396.031.118-.956.392-.923.56.039.2 1.471.03 3.659-.066 2.114-.092 3.522-.054 3.527.033.005.081-.945.156-.942.28.004.151 1.423.269 2.656.28 1.053.01 1.358-.063 2.44-.066a24.01 24.01 0 0 1 2.242.099c-1.665.036-2.049.117-2.052.19-.002.04.109.091 1.113.297.903.185 1.354.278 1.995.371a27.1 27.1 0 0 0 2.242.231c.815-.133 1.749-.25 1.797-.082.035.121-.395.378-.791.519-.966.343-1.447-.109-2.588-.008-.858.076-.793.35-1.844.531-.872.151-1.456.055-2.318-.026a29.975 29.975 0 0 0-3.561-.117l.624.326c-.176.014-.43.031-.735.047-1.017.05-1.533.076-2.049-.001-.424-.063-1.057-.226-1.786-.7.026.07.062.146.112.223.21.328.531.466.689.521a50.905 50.905 0 0 0-1.539-.112c-.555-.031-.63-.025-.853-.066-.747-.135-.881-.377-1.21-.281-.389.113-.324.487-.809.759-.456.256-.96.174-1.121.148-.792-.128-.934-.657-1.401-.577-.458.079-.477.615-1.022.878-.472.228-1.018.095-1.434-.074.479-.345.562-.515.527-.606-.086-.229-1.04-.261-1.681.198-.355.254-.299.432-.685.676-.552.349-1.262.361-1.342.181-.049-.109.165-.218.128-.363-.075-.292-1.11-.502-1.508-.087-.384.4.046 1.152-.247 1.354-.119.082-.309.015-1.36-.637-.886-.55-1.237-.807-1.512-.67-.111.056-.172.178-.293.422-.129.26-.323.652-.223.989.153.511.894.592.865.717-.038.163-1.367.306-1.793-.321-.215-.316-.152-.759-.482-1.558a.598.598 0 0 0-.198-.272c-.255-.183-.666-.107-.94.062-.281.173-.249.34-.507.532-.274.204-.593.225-.902.223-.786-.005-1.178-.008-2.25-.297-.709-.191-1.796-.25-3.387.42a32 32 0 0 1-6.985 6.54 211.872 211.872 0 0 0-1.516 23.984c1.888.083 2.588.027 2.604-.099.015-.117-.564-.259-.544-.346.037-.159 2.015.139 2.015.139.971-.188 1.199-.139 1.199-.139.364.078.342.254.795.491.148.077.914.458 1.691.245.624-.171 1.016-.658 1.136-.551.077.069-.097.264-.012.408.133.225.719.016 1.508-.012.242-.009.623.039 1.387.134 1.278.16 1.406.234 1.859.27.567.045 1.385.009 2.42-.382-.042.201-.13.428-.326.568-.186.132-.394.132-.391.168.003.04.264.04.664.058.715.032.793.071.94-.012.244-.139.168-.326.457-.593.288-.266.718-.408.841-.284.129.131-.195.446-.074.705.181.388 1.19.281 1.508.247 1.131-.12 1.948-.548 2.015-.42.044.084-.314.263-.28.412.074.33 1.97.121 3.396.082 1.118-.03 2.677.025 4.574.408-.337.107-.831.23-1.434.26-.88.044-1.159-.152-2.142-.118-.828.029-.772.173-1.506.186-1.268.023-1.929-.396-2.086-.158-.209.318.792 1.346.753 1.378-.031.026-.481-.772-1.324-1.09-.478-.181-.522.005-1.619-.125-.87-.103-1.288-.272-1.472-.048-.191.232.095.615-.1.79-.209.188-.747-.069-.986-.183-.628-.3-.861-.659-1.067-.564-.198.092-.068.463-.294.624-.246.175-.531-.229-1.137-.272-.476-.033-.471.197-1.385.319-.29.039-.359.024-.782.084-.668.094-.601.144-.815.137-.644-.021-.992-.466-1.275-.283-.129.084-.094.201-.206.237-.284.092-.548-.653-1.001-.655-.287-.001-.335.297-.804.495-.321.136-.596.121-.878.111-1.162-.039.205.103-2.402.023-1.164-.036-1.746-.054-1.87-.064-.729-.059-1.261-.142-1.891.11a2.659 2.659 0 0 0-.604.343 248.696 248.696 0 0 1 5.802 17.274c.412.15 1.031.298 1.583.032.614-.295.581-.83 1.252-1.268.89-.581 2.006-.33 2.011-.28.004.04-.697.025-.824.363-.065.173.038.39.165.511.25.239.659.166.94.115.554-.099.658-.318 1.121-.346.22-.013.391.032.723.124 1.6.442 1.522.446 1.617.452 1.074.071 1.652-1.033 2.093-.775.384.225.05 1.125.542 1.413.183.107.385.075.701.024.118-.019.418-.077 1.147-.481.558-.309.641-.419.94-.462.043-.006.628-.083.775.181.146.262-.239.681-.144.762.086.073.368-.295.787-.367.434-.074.692.225 1.154.445.789.376 1.592.244 2.374.115 1.098-.18 1.104-.521 1.929-.527.387-.003.423.072 1.83.445 1.5.398 1.953.443 2.143.214.19-.229-.04-.542.148-.709.259-.229.816.253 1.734.481.792.196.947-.021 2.041.063.965.074 1.227.273 2.159.462.923.187 1.684.167 3.206.128a33.738 33.738 0 0 0 4.005-.346c-.96.669-1.798.948-2.384 1.081-1.004.227-1.227.011-2.833.315-.673.127-.954.226-1.484.187-.319-.023-.612-.088-1.392-.153-.479-.04-.569-.032-.672-.008-.578.138-.607.493-1.022.597-.744.186-1.348-.852-1.941-.581-.171.078-.134.171-.445.363-.2.123-.549.339-.857.247-.303-.09-.251-.382-.56-.593-.504-.345-1.462-.132-1.698.346-.137.279.031.526-.099.61-.232.149-.718-.673-1.5-.659-.321.005-.308.145-.727.195-.682.081-.834-.276-1.433-.261-.791.02-1.195.659-1.507.451-.226-.151-.081-.534-.335-.67-.256-.137-.66.115-.773.186-.376.235-.427.49-.633.493-.228.003-.246-.414-.503-.484-.248-.068-.463.237-.717.419-.986.708-2.675-.341-2.967.132-.124.201.156.435.031.604-.221.3-1.211-.288-2.79-.539-.794-.126-1.829-.182-1.917.092-.066.203.444.426.382.614-.078.238-.971.129-3.286-.009a7.152 7.152 0 0 0-1.257.006 6.628 6.628 0 0 0-1.515.337l2.664 8.298c.355.942.786 2.534.379 4.329-.464 2.044-1.781 3.321-2.681 4.169-3.96 3.737-8.042 7.02-10.121 8.654l-.368 3.159a43.164 43.164 0 0 1-3.396 2.034c-1.408.759-5.672 3.055-10.05 3.905-1.767.343-10.178 1.976-17.011-3.363-4.107-3.209-5.781-7.482-6.47-9.828l-18.626-29.089c2.686.55 3.662.216 3.986-.298.195-.31.255-.848.588-.914.301-.059.458.336.94.47.276.076.445.008 1.335-.297 1.463-.5 1.921-.628 2.299-.396.158.097.109.138.272.247.498.335 1.117.063 2.275-.247.898-.241 2.136-.564 2.342-.213.061.104-.027.169.031.287.227.462 2.078.511 2.918-.321.129-.128.361-.402.643-.371.209.023.256.194.51.26.203.053.365-.006.726-.136.637-.23.956-.345.964-.346.659-.06.961.475 1.434.272.123-.053.297-.173.42-.272.263-.212.239-.285.346-.321.33-.111.587.576 1.286.742.361.086.684-.004.816-.049.48-.166.478-.454.865-.569.515-.152.711.301 1.212.173.488-.125.434-.59 1.063-.791.08-.026.531-.17.816.049.108.083.084.135.185.235.273.269.805.247 1.174.111.299-.11.284-.219.717-.42.294-.137.543-.2.653-.225a3.08 3.08 0 0 1 1.365-.003c.379.095.344.164.643.23.829.184 1.489-.259 1.583-.102.088.147-.502.51-.412.742.097.25.937.229 1.635.042.789-.211.887-.498 1.35-.452.633.063.672.619 1.243.681.832.091 1.451-1.017 1.854-.791.169.094.095.308.247.519.406.562 1.776.213 2.275.099 1.509-.346.806.142 4.426-.223a48.715 48.715 0 0 0 5.341-.841c-1.77-.454-3.179-.466-4.171-.381-.58.05-2.601.268-3.741-.039-.64-.172-1.261-.42-1.261-.42-.374-.149-.635-.276-.696-.305-1.569-.734-6.209.319-7.76-.487-.08-.042-.349-.19-.742-.297-.184-.05-.745-.196-1.334-.093-.984.171-1.074.866-1.677.818-.749-.06-1.113-1.173-1.464-1.046-.227.082-.068.544-.346.865-.551.636-2.23.048-2.58-.074-.673-.236-2.095-.859-2.807-1.171-.171-.075-.491-.216-.803-.098-.428.161-.369.627-.709.791-.499.242-1.105-.53-2.242-.973a4.712 4.712 0 0 0-1.731-.313c.551.633.587.898.511 1.022-.182.296-1.199.017-3.227-.553-.618-.174-1.227-.307-2.443-.575-.776-.171-1.347-.284-1.493-.054-.183.29.456.894.313 1.058-.131.15-.727-.294-1.508-.618-.752-.312-.843-.168-3.536-.519-.979-.128-1.696-.242-1.807.009-.094.213.342.477.249.708-.178.44-2.006.055-2.168.021-.321-.068-.775-.273-1.695-.633-.547-.214-.874-.35-1.03-.207-.235.215.18.819-.028.992-.216.179-.969-.217-1.484-.717-.331-.321-.49-.614-.618-.569-.183.065.066.688-.247.989-.283.272-.875.137-1.178.013-.403-.165-.414-.361-.924-.582a2.677 2.677 0 0 0-.717-.198c-.526-.066-.835.072-1.187.124-.649.095-.872-.191-1.681-.371-1.369-.305-1.612.315-3.536.124-.604-.06-.742-.137-1.261-.124-.734.019-1.047.189-1.75.13-.425-.035-.712-.131-.937-.196-1.925-.562-3.49-.186-3.544-.478-.063-.34 1.977-1.341 2.786-.742.164.122.457.442.785.374.115-.024.126-.073.303-.176.073-.043.565-.331 1.022-.231.296.065.282.228.56.313.385.119.695-.106 1.071-.247.321-.121.364-.058 1.978-.033 1.5.023 1.897-.024 1.962-.214.069-.202-.276-.451-.214-.527.085-.106.719.387 1.467.626a3.735 3.735 0 0 0 1.78.099 132.197 132.197 0 0 0-4.896-7.451c-2.788-3.945-3.421-5.751-5.67-7.451-1.822-1.377-2.44-1.177-4.615-2.505-3.857-2.356-5.986-5.472-7.076-7.067-3.994-5.844-4.569-11.868-4.66-14.56l-3.738-3.169a7.627 7.627 0 0 1-2.871-.68 174.493 174.493 0 0 1-10.666-10.393 175.182 175.182 0 0 1-18.066-22.681 255.656 255.656 0 0 1-21.758-32.571c-4.575-8.136-11.342-20.304-17.143-37.319-3.795-11.131-7.998-26.745-9.758-46.022a260.63 260.63 0 0 0 19.121 32.835c10.528 15.383 22.037 28.663 23.473 27.692.923-.624-3.349-6.434-6.066-17.538-1.627-6.649-1.849-11.733-2.075-17.655-.291-7.634-.071-18.306 2.207-31.136a377.206 377.206 0 0 0 7.385 24.923c4.512 13.505 11.572 34.274 25.319 57.626 2.376 4.036 7.694 11.394 18.33 26.11 1.989 2.752 5.237 7.176 10.813 11.473a49.542 49.542 0 0 0 8.11 5.077l6.181-.285c-.307-.468-.288-.671-.223-.77.224-.34 1.465-.196 2.439.29.408.203.702.433.98.309.325-.145.213-.59.512-.748.45-.237.962.633 1.854.569.319-.023.326-.14 1.162-.519.198-.09.876-.398 1.508-.569 1.171-.316 2.444-.232 2.497.025.043.206-.727.403-.685.624.049.254 1.157.46 1.904-.029.38-.249.377-.716.61-.718.266-.002.308.545.668.668.404.137.763-.412 1.354-.749 1.342-.765 3.226-.067 3.22.081-.001.019-.033.031-.742.148-1.319.219-1.61.246-1.632.371-.033.189.583.439.841.544.396.161.88.357 1.434.272.57-.088.535-.369 1.187-.618.883-.338 1.18.089 2.159-.231.61-.199.564-.388 1.22-.577.77-.222 1.611-.187 1.665.016.056.21-.745.519-.692.659.046.122.719.075 1.368-.214.803-.358 1.166-.952 1.352-.841.165.099-.137.553.074.841.248.337.889.022 2.225.012.867-.007 1.377.12 1.419-.016.037-.121-.33-.349-.776-.578 2.155-.666 2.939-.724 3.041-.507.102.216-.517.611-.379.94.125.298.812.408 1.286.165.33-.17.334-.397.614-.672.687-.675 2.003-.619 2.102-.346.108.296-1.175.957-1.1 1.088.046.081.537-.18 1.372-.408.574-.157 1.062-.29 1.694-.297.79-.008 1.061.189 1.801.036.266-.055.214-.077.696-.21.833-.229 1.54-.424 1.731-.173.194.255-.299.772-.124.964.158.173.668-.128 1.335-.371 1.474-.536 2.369-.297 2.407-.552.042-.287-1.04-.913-1.986-.758-.237.039-.343.107-.618.099-.58-.016-.797-.335-1.236-.42-.506-.098-.817.21-1.36.445-1.517.658-3.286.074-3.288-.099-.002-.126.936-.15.94-.321.004-.177-.992-.442-2.022-.42-.723.016-.8.158-1.81.222-.666.042-1.271.138-1.731-.223-.099-.078-.101-.105-.198-.185-.446-.374-1.071-.363-1.582-.272.501.285.6.398.581.445-.046.118-.839-.143-2.065-.359-.951-.168-1.431-.252-2.052-.247-1.524.012-2.682.556-2.819.272-.056-.117.128-.237.074-.371-.123-.304-1.235-.075-2.345.049-1.659.186-3.308.14-3.342-.074-.023-.148.736-.313.713-.453-.032-.197-1.55-.057-3.408-.041-1.807.015-4.036-.087-4.055-.346-.012-.164.878-.273.865-.42-.02-.24-2.409-.45-5.091-.175-1.791.183-3.583.57-3.686.249-.058-.182.484-.42.42-.668-.083-.325-1.118-.317-1.953-.321 0 0-1.337-.007-3.733-.107-1.678-.07-1.329-.247-3.833-.461-1.756-.151-2.365-.101-3.56-.396a11.974 11.974 0 0 1-2.176-.766 39.68 39.68 0 0 0 6.626.024l-.099-2.695-18.329-14.443-3.116-20.378 18.33 1.22 14.967 14.11.396 6.725a40.985 40.985 0 0 1 8.374-9.231 19.421 19.421 0 0 1 3.165-.527c1.497-.124 2.648-.046 2.719-.362.074-.334-1.125-.807-1.07-.924.042-.09.809.068 1.516.56.423.294.365.388.692.593.702.44 1.816.541 2.308.033.328-.339.214-.778.462-.857.341-.109.952.352 1.022.857.041.297-.127.454-.033.56.184.21.997-.206 1.411-.418.938-.48.916-.661 1.325-.703.782-.081 1.521.51 1.582.56.311.255.293.376.527.462.518.189 1.248-.167 1.516-.692.049-.096.174-.34.099-.593-.074-.252-.291-.331-.264-.396.052-.123.858.119 1.978.363.89.193 1.026.18 1.121.165.881-.143 1.309-.98 1.516-.857.233.138-.27 1.214-.033 1.352.099.057.273-.079.692-.429 1.007-.841 1.41-1.232 1.598-1.128.16.089.02.46.215.568.075.041.216.053.641-.233.658-.442.875-.845 1.008-.789.19.08-.217.924.132 1.253.275.259.95.133 1.088-.165.111-.241-.183-.479-.066-.659.131-.202.668-.167 1.088.033.653.311.66.85 1.088.89.43.04.548-.493 1.055-.495.518-.002.663.554 1.121.495.351-.045.674-.425.692-.758.012-.223-.109-.475-.198-.659-.112-.232-.178-.274-.152-.321.089-.168.964.239 1.966.255a2.25 2.25 0 0 0 .728-.099c.248-.078.35-.16.484-.218.663-.289 1.667.2 1.644.433-.009.086-.164.184-.729.26-.239.187-.375.425-.313.581.082.207.495.221.758.165.455-.097.491-.41.791-.429.534-.034.927.922 1.154.824.116-.051.01-.302.165-.56.169-.28.516-.351.923-.429.625-.119 1.21-.23 1.615.099.38.308.27.734.56.824.324.101.491-.418 1.154-.692.312-.129.318-.032 2.075-.108.53-.023.67-.038.859-.089.517-.14.855-.402.956-.297.082.085-.114.284-.033.429.047.083.219.208 1.319-.033.969-.213 1.064-.36 1.516-.363.567-.003.741.226 1.319.396.722.211 1.015.018 2.604-.165 1.321-.152 2.835-.217 2.868-.033.019.108-.481.238-.462.33.031.145 1.29-.067 2.802-.165 1.427-.092 2.359-.152 3.527.066 1.155.215 1.177.448 2.275.593.866.115 1.47.052 2.683-.07.874-.088 2.065-.207 3.943-.391-1.149-.093-1.931-.411-2.44-.692-.378-.209-.488-.334-.824-.412-.955-.223-1.41.469-2.06.198-.54-.225-.405-.775-1.081-1.08-.042-.019-.824-.36-1.194.041-.291.315-.115.86-.099.907a6208.07 6208.07 0 0 0-1.286-1.483 1.237 1.237 0 0 0-.346.412c-.131.301.096.514-.016.643-.134.155-.636.055-.989-.231-.444-.36-.343-.788-.709-.907-.191-.062-.206.037-.725.016-.431-.017-.564-.098-.676 0-.198.173.02.6-.115.676-.153.086-.404-.477-.973-.577-.169-.03-.387-.003-.824.049-.407.049-.379.079-.495.066-.406-.045-.512-.38-.956-.61a1.705 1.705 0 0 0-.824-.181c.029.037.514.655.363.841-.127.156-.657-.048-.923-.181-.446-.224-.466-.409-.758-.445-.263-.033-.292.112-.824.247-.514.131-.694.049-.82.214-.183.24.063.586-.073.681-.146.102-.635-.155-.837-.582-.183-.387-.045-.741-.172-.787-.148-.053-.283.441-.718.556-.275.072-.373-.085-.836-.061-.234.012-.357.06-.615.127-.256.067-.578.116-1.22.214-2.042.312-3.21.49-4.121-.115-.439-.292-.488-.546-.923-.643-.575-.128-.936.217-1.682.477-.633.221-1.202.222-2.34.223-.772.001-2.451.003-2.571-.495-.07-.29.434-.567.341-.735-.108-.196-.853.068-1.66.228-.486.096-1.096.118-2.315.161-1.49.052-4.042.063-4.063-.19-.011-.127.62-.214.607-.365-.013-.151-.651-.107-1.975-.298-.604-.087-.972-.168-1.104.019-.161.228.182.633.048.765-.151.15-.716-.244-1.152-.457-.472-.23-.84-.272-2.687-.275-1.643-.003-3.286-.107-4.929-.066-.183.005-.896.023-.915-.099-.023-.145.953-.324.94-.47-.022-.237-2.593.466-5.736-.124-1.313-.246-2.894-.75-3.684.025-.187.184-.556.661-.775.569-.136-.057-.067-.274-.198-.478-.37-.577-1.808-.226-1.846-.412-.021-.101.401-.192.396-.321-.01-.248-1.585-.339-3.338-.569-.773-.101-1.372-.208-2.571-.42a47.649 47.649 0 0 1-4.352-.989 191.058 191.058 0 0 0 15.553.074 241.977 241.977 0 0 1 27-20.373 13.36 13.36 0 0 1 2.448-.124c.895.039 1.536.161 1.755-.173.244-.371-.219-1.024-.074-1.113.165-.101.643.826 1.558.989.406.073.755-.031.816-.049.719-.221.882-.81 1.285-.748.293.045.266.366.693.55.346.15.845.147 1.038-.099.22-.28-.112-.671.077-.866.229-.236 1.018.027 1.56.462.442.355.732.836.829.78.039-.023-.001-.105.029-.216.078-.293.54-.406.645-.432.768-.189 1.108.291 1.51.07.395-.217.182-.742.592-.985.527-.312 1.425.234 1.479.267.433.269.448.491.796.549.338.056.704-.09.942-.286.176-.145.14-.201.294-.332.366-.313 1.047-.408 1.36-.124.276.251.055.606.321.841.353.311 1.184.105 1.286-.223.023-.076-.002-.128-.206-.618-.217-.521-.228-.557-.206-.6.133-.266 1.232-.307 1.915.245.227.184.425.446.796.487.082.009.316.035.429-.099.181-.215-.156-.601-.008-.775.152-.179.719-.014 1.113.247.325.216.336.381.668.569.219.124.436.154.865.223.482.077.727.112.89-.033.158-.141.164-.367.165-.396.007-.569-.843-.935-.783-1.055.051-.103.683.176 1.579.349.644.125 1.587.308 1.743.013.177-.335-.025-1.04.429-.692.52.399.507.582.89.791.523.285 1.306.339 1.477.044.111-.192-.103-.417-.003-.51.124-.115.481.205 1.13.433.35.123.998.35 1.352.066.2-.161.161-.368.297-.396.264-.054.406.73 1.055 1.154.575.376 1.41.379 1.615.066.175-.266-.165-.688-.033-.791.152-.119.63.415 1.451.857.482.26 1.415.763 1.912.429.448-.302.251-1.089.643-1.206.166-.049.306.061.676.283 0 0 .416.25 1.253.659.806.394 1.721.089 2.176-.033 1.562-.419 2.315.091 6.923-.099 1.378-.057 3.568-.298 7.95-.78 1.914-.211 3.485-.392 4.528-.514a3.72 3.72 0 0 0-1.162-.964c-1.04-.547-2.411-.606-2.621-.173-.117.241.193.496.049.692-.186.253-.892.085-1.362-.136-.344-.161-.449-.298-.69-.458-.917-.612-2.131-.46-3.511-.288-.365.046-.657.099-.824.132-.148-.229-.413-.553-.832-.684-.208-.065-.379-.059-.467-.056a37.57 37.57 0 0 1-2.031-.011c.107.09.41.355.347.488-.043.091-.237.073-.593.049-1.165-.078-1.135-.024-1.459-.099-.492-.114-.45-.214-.964-.371-.89-.272-1.929-.254-2.027.038-.056.166.222.328.173.432-.091.193-1.067-.311-2.53-.577a11.703 11.703 0 0 0-2.902-.149c.215-.213.466-.496.396-.61-.108-.176-.844.274-1.995.511-.354.073-.639.108-3.522.103l-1.324-.004c.68-.913.733-1.217.643-1.319-.165-.186-.786.323-1.936.545-.507.098-.683.063-2.015.039-2.239-.039-3.37.046-3.417-.205-.034-.184.543-.4.495-.527-.054-.142-.736.208-1.467-.016-.7-.214-.974-.81-1.17-.709-.272.14.226 1.29-.066 1.467-.244.148-.717-.582-1.813-1.104-.164-.078-1.507-.719-1.962-.264-.327.327.005 1.019-.225 1.121-.172.076-.421-.283-1.159-.857-.829-.645-.998-.566-1.04-.539-.198.126.033.63-.163.754-.176.111-.459-.235-.973-.478-.636-.301-1.263-.274-1.879-.247-.763.033-.943.198-1.5.066-.315-.074-.392-.159-.758-.214-.314-.047-.919-.139-1.154.148-.277.339.11 1.023.001 1.073-.116.052-.354-.795-1.039-1.056-.334-.128-.371.038-1.302-.016-.645-.038-.779-.126-1.006 0-.374.208-.284.602-.641.76-.386.171-.794-.154-.908-.002-.119.158.294.55.198.676-.115.15-.834-.231-1.731-.659a39.108 39.108 0 0 0-1.593-.721c-.676-.279-1.36-.43-3.047-.548-1.624-.114-2.736-.095-3.783-.097-2.533-.006-4.994-.134-4.994-.199 0-.049 1.38-.116 7.516-.198-.213-.24-.223-.331-.198-.371.094-.147.745.28 1.582.297.539.01.572-.162 1.286-.297 1.392-.262 2.219.204 2.473-.198.201-.318-.17-.848-.014-.94.125-.073.329.285.855.445.077.023.663.194.915-.074.13-.138.082-.297.173-.321.154-.042.462.365.618.791.115.313.098.502.223.544.133.045.268-.135.47-.272.208-.141.553-.281 1.137-.223l1.261-.025c6.066-3.825 11.32-6.247 15.088-7.775 5.827-2.362 10.81-3.683 20.271-7.803 1.859-.81 3.381-1.505 4.399-1.977h18.429V187z"/><path d="M237.692 188.846c-.259-.272-1.313.138-1.319.494-.004.254.52.682.989.462.42-.197.501-.776.33-.956zM243.429 188.846c-.391-.164-.961.313-.923.659.041.38.823.691 1.121.429.261-.23.178-.93-.198-1.088zM246.923 188.319c-.351-.305-1.844.513-1.78 1.055.038.325.649.638 1.154.495.748-.213.893-1.318.626-1.55zM254.67 198.571c-.152.051-.231.289-.198.462.088.452.977.601 1.088.429.123-.191-.553-1.003-.89-.891zM259.022 199.593c-.139.076-.148.413 0 .626.24.347.822.26.89.099.092-.218-.644-.859-.89-.725zM233.473 236.352c-.082.259.603.864.94.692.203-.103.29-.494.144-.724-.238-.372-1.01-.203-1.084.032zM232.446 257.986c-.049.136.845.724 1.891.779.286.015.865.005.878-.099.029-.229-2.688-.902-2.769-.68zM254.967 256.297c-.214-.233-1.546.448-1.482.726.041.181.712.351 1.153-.001.262-.21.441-.603.329-.725zM178.945 133c.187-.321 2.263.331 2.242.758-.01.208-.517.368-.89.363-.86-.012-1.479-.902-1.352-1.121zM175.385 133.56c-.062.165.64.79 1.385.659.175-.031.53-.134.527-.264-.007-.29-1.823-.632-1.912-.395zM233.143 102.407c-.062.089.43.657 1.121.89.239.081.662.176.692.099.065-.166-1.709-1.137-1.813-.989z"/><path style="fill:#fff" d="M115.747 192.275c-13.424-13.833-28.993-32.549-43.121-56.703a295.065 295.065 0 0 1-20.571-42.725C62.15 108.8 77.191 128.698 99 147.835a251.664 251.664 0 0 0 35.209 25.846c.104.726 1.098 8.675-5.011 14.374-5.554 5.181-12.524 4.347-13.451 4.22zM129.775 130.181l1.385 9.396 16.121 12.214 1.434-10.681-10.681-9.841-8.259-1.088zM157.476 200.362l7.129 24.814 6.692-12.758-13.821-12.056z"/><g><linearGradient id="oryx-b" gradientUnits="userSpaceOnUse" x1="228.715" y1="92.204" x2="261.065" y2="92.204"><stop offset="0" style="stop-color:#3d3c3d"/><stop offset="1" style="stop-color:#0f0f0f"/></linearGradient><path style="fill:url(#oryx-b)" d="M255.108 86.238a92.446 92.446 0 0 0-7.889 1.927c-3.722 1.084-6.196 2.058-10.813 3.89-5.172 2.053-7.757 3.092-7.69 3.727.152 1.462 7.668 1.834 14.416 2.141 7.652.348 13.879.262 17.933.136a35.54 35.54 0 0 1-4.878-1.454c-3.5-1.322-5.335-2.015-5.802-3.429-.634-1.918 1.397-4.727 4.723-6.938z"/><linearGradient id="oryx-c" gradientUnits="userSpaceOnUse" x1="189.247" y1="118.75" x2="249.242" y2="118.75"><stop offset="0" style="stop-color:#3d3c3d"/><stop offset="1" style="stop-color:#0f0f0f"/></linearGradient><path style="fill:url(#oryx-c)" d="m207.659 109.725 41.582-.412c-1.78.262-4.589.664-8.043 1.108-11.587 1.491-15.714 1.565-21.869 3.722-3.351 1.174-9.067 3.177-8.947 5.425.032.606.529 1.982 12.31 5.586a192.558 192.558 0 0 0 11.077 3.033 710.959 710.959 0 0 0-27.758-1.846c-9.527-.445-16.265-.562-16.747-2.769-.093-.426-.092-1.57 8.637-7.582a177.115 177.115 0 0 1 9.758-6.265z"/><linearGradient id="oryx-d" gradientUnits="userSpaceOnUse" x1="157.514" y1="150.929" x2="219.791" y2="150.929"><stop offset="0" style="stop-color:#3d3c3d"/><stop offset="1" style="stop-color:#0f0f0f"/></linearGradient><path style="fill:url(#oryx-d)" d="M219.791 142.033a653.04 653.04 0 0 0-49.451-1.12 364.22 364.22 0 0 0-7.385 7.846c-5.137 5.623-5.607 6.493-5.405 7.361.61 2.627 6.936 3.374 18.988 4.046 6.637.37 16.036.774 27.494.857-16.782-3.481-25.121-6.66-25.018-9.536.131-3.634 13.723-6.785 40.777-9.454z"/><linearGradient id="oryx-e" gradientUnits="userSpaceOnUse" x1="163.002" y1="271.05" x2="201.95" y2="271.05"><stop offset="0" style="stop-color:#3d3c3d"/><stop offset="1" style="stop-color:#0f0f0f"/></linearGradient><path style="fill:url(#oryx-e)" d="M195.495 254.896c-.008-.365-5.881-.709-27.989-.791-.936.08-3.677.41-4.352 2.077-.609 1.504.77 3.339 1.335 4.104 9.562 12.951 12.432 26.211 23.192 27.593 4.463.573 8.536-1.122 9.643-1.582 1.26-.525 4.681-1.948 4.626-3.748-.022-.697-.558-1.206-1.461-2.038a12.443 12.443 0 0 0-4.302-2.571c-1.064-.25-2.521-.399-3.956.198-3.354 1.397-3.733 5.691-5.59 5.773-.79.035-1.894-.689-3.315-3.907a67.442 67.442 0 0 1-.887-5.823 67.748 67.748 0 0 1 .049-14.885 34.903 34.903 0 0 1 6.132-2.72c4.094-1.359 6.88-1.429 6.875-1.68z"/><linearGradient id="oryx-f" gradientUnits="userSpaceOnUse" x1="126.766" y1="207.48" x2="199.714" y2="207.48"><stop offset="0" style="stop-color:#3d3c3d"/><stop offset="1" style="stop-color:#0f0f0f"/></linearGradient><path style="fill:url(#oryx-f)" d="M176.013 228.685c-2.104-5.015 6.009-9.775 5.141-16.894-.619-5.078-5.491-8.759-9.956-11.209-2.899-1.604-4.442-3.343-4.629-5.218-.546-5.48 10.502-12.114 33.146-19.903a7171.961 7171.961 0 0 1-53.109-.447c-.793.121-1.905.416-2.869 1.237-1.785 1.52-1.775 3.748-2.341 6.264-.096.426-1.187 5.094-4 8.452-3.155 3.766-5.692 2.561-8.341 6.29-2.137 3.008-2.258 6.288-2.285 7.416-.02.832-.04 4.732 2.494 8.436.997 1.457 3.112 3.026 7.3 6.104 4.553 3.346 4.666 3.128 5.969 4.429 1.705 1.702 2.176 2.738 5.291 7.566a301.963 301.963 0 0 0 4.401 6.626l46.599 2.11a463.946 463.946 0 0 0-11.538-5.143c-8.769-3.765-10.458-4.173-11.273-6.116zm-3.991 5.726c-3.013-.439-5.26-1.071-5.604-1.175-4.741-1.433-7.377-11.142-9.198-17.802a5316.55 5316.55 0 0 0-6.038-21.883c.112-.312.314-.754.685-1.198a3.99 3.99 0 0 1 1.619-1.154 52.16 52.16 0 0 1 10.817-2.939 15.017 15.017 0 0 0-3.919 4.442c-.518.902-.777 1.353-.857 1.813-.29 1.672.881 3.956 9.099 10.088 5.458 4.073 6.91 4.534 7.253 6.462.22 1.24-.163 2.124-3.6 8.261-3.459 6.178-4.109 7.153-3.932 8.628.225 1.878 1.768 4.358 7.713 6.864a45.793 45.793 0 0 1-4.038-.407z"/></g></g><g><path d="m85.781 89.036.448.213.771-.02.771.212.795-.884.769.19.788-.501.74.963.763.15.77-.039.757.274.776-.175.793-.426.733.483.795-.324.661.758 1.306-.368-1.779.538 1.128-.438.725.741.741-.473.772.834.729-.528.744-.219.774.534.784-.296.771-.605.78-.301.816.531.718-.288.957-.018 1.184-.087.103.594.196-.083.846 1.089.788-.591.89-.638.816.465.748.458.808-.128.954-.241.951-.641.511 1.237.589-.967.82-.9.911.612.148.437.903.66.776-.724.776-.167.67.404.782-.029.687.282.735.362.778-.015.809.979.43-1.163 1.014.483.713-.995-.054 1.019-.13 1.105.756-1.62 1.033.838.408-.061.78-1.092.629.402 1.019.438 1.133.006 1.071.143-.072 1.169.909.042.429-1.003 1.262.981.795-.643.156-.693.09.767 1.235-.117.418.22.363-.402.361-.985 1.261.489.124 1.041 1.014-.411.912-.017.598-.695 1.07-.34.493.877.564.683.763-1.027.608 1.132.782-1.008.74.338.747.116.747.035.743-.516.752.012.764.144 1.017.504-.685.934-.781.215-.838-.478-.956-.333-.976.704-.81-.059-.24.392-.319.037-.689-.456-.771.25-.733-.379-.81-.025-.456.925.215.617-.806-.388-.815.384-.5-.907-.808.331-.632-.436-.755.449-.697-.138.07.741-.712-.956-1.05.615-.547-.478-.817.321-.612.553-.536.183-.65-.176-.147.519-.482-.044-.668-.747-.405.755-.456.191-1.316.059.364.481-.471.588-.449-.768-.911-.386.625.906-1.032-.269-1.074-.498.107 1.024-1.42-.058-.572-.861-.663.764-.523-.399-.404-.481-.48.603-.895.063-.338-.089-.335.272.2-.365-.637.018-.121.765-.7-.887-.864.309-.649.377.905.67-.995.222-.405.023-.847.267-.539-.575-1.087-.131-.749-.573.268 1.025-1.981-.715.743.977-.179.615-1.001.257-.199-.907-.382.096-.665.481-.829-.652-.684.299-.548.587-.693-.446-.628-.409-.195.211.38-.472-.986-.752-.702.75-.888.118-.725.68-.788-.181-.483-1.14-.879.532-.513.155-.668.601-.925.325 1.01.824-.951.393-.081-.371-1.126-.438.555-1.134-.706.82-1.162-.138.936.963.084.803-1.106.341-.988-.552-.728-.768-.833.455-.28.239-1.084-.504.046 1.217-.849-.596-.568.426-.68-.251.642-.617-.421-.505-.718.087-.7.826-.738-1.22-.661.739-.436.692-1.135-.682.17 1.391-.848-.253-.104-.564-.746-.599.504-.945-.852-.569-.291-.725.772-1.019-.366-.704-.843-.571-.37-.703-.283-.727.368-.907-.267-.732.016-.809-.925-.55-.398-.695z"/><path d="m116.751 88.84.665-.178.713.023.639.214-.732.374-.71-.051zM123.13 89.945l.646-.313.703.118-.523.724zM110.464 98.646l.725-.24.78.042.777.04.673.296-.441.366-.593.193-.723.013-.69-.227zM122.571 96.83l-.4.43.006.597.829.338.056-.699zM130.964 96.844l-.594.245-.33.577.198.709.634-.036.432-.475.016-.576zM150.629 94.033l.495-.53.681-.338.738-.188.737.054-.145.67-.474.517-.69.273-.752-.041zM134.703 90.81l-.421.291.82.629-.064-.9zM95.015 111.631l1.104.349.617.586.769-.031 1.001.396-.027-1.115.867.028.806.726.833-.169.899.013.815.303 1.162.096.549-1.096 1.005.614-.5.563.829.265.667-.506.682.116.704.042.608-.118-.193-.407.775-.18.86-.217.734.921.793-.317-.477.365-.729-.195-.742.378 1.286.226.67.624.847-.459.921-.445-.252-.509.196.28.583.425.762.165.595.33.873.225.858.595.714-.543 1.192.165-.735-1.076-.39-.137.301-.211.672.127.771.054-.529.67-.017.844.877.677-.02-.608.587-.573-.17-.363.493.534.474.313.904-.308.75-.064 1.009-.276.717-.044 1.076.286-.81.815.743.627 1.158-.246-.422-.758.611.111.6.513.787-.612.707.406.56-.539.534-.235.642.246 1.044-.341.505.898.548-.631-.148-.355.745-.204.699.462.946-.146.357.774.72.397.613-.196.731-.15.696-.295.458.276.454.557 1.034.003-.491-1.165.771.777.871-.251.862.396.491 1.028 1.31-.245.19-.817.384-.789.644.569.317.5.504-.47.967.297.668-.759.893.189.852-.173.392.753-.481.188-.729.029-.75.445-.463.376-.256.597-1.079-.295-.377-.554-.733.323-.848.317-.877.257.69.864-1.257-.239-.894-.554-.116-.823-.937.229-.238 1.113-.835-.21-.474-.83-.166.804-.47.028-.817-.05-.271.577-.774.053-.912.385-.176-1.014-.754-.823-.21 1.181-.031.952-.972-.23-.231-.881-.748-.362-.849.248-.966-.728-.369.936.018.637-.413-.041-.836.18-.723.304-.909-.266.583-.89-1.552.012-.081.691-.464-.285-1.04.53-.842-.024-1.183.51.393-1.1-1.378-.149-.176.605-.389-.285-.854.122-.69.448.288-.989-.818.809-.648-.402-.719.821-.794-.521.07 1.089-1.475-.293.607.889-.838-.354-.678.394-.69.142-.704-.443-.923.266-1.16.173.418-.672-.126-.2-.675.134-.9-.117.119.827-.976.471-.733-.132-.725-.907-.698.519-1.136.172.66-.809-.65.042-.816.363-.324-.045-.376.532-.676-.676-.755.246.16-.509-.173.336-.755-.137-.821-.427-.747.128-.676.537-.736.187-.691.415-.77.023-.927-.066-.332-.843.614-.885-.95-.58.565-.876-.935-.583.222-.808.345-.833-1.047-.561.821-.925-.157-.735z"/><path d="m104.824 110.905.589-.26.667-.061.597.3.384.474.115.619-.703-.248-.686-.28zM123.988 109.857l.748-.459.701.755-.766.063zM124.253 112.364l-.302.792.687.498.833-.138-.4-.797zM130.222 109.363l.631.552.833.284.838-.114-.223-.84-.759-.491-.781.091zM122.131 119.095l.729-.056.756.161.755.194.751.202.721.252-.824.148-.005.28-.782-.084-.758-.293-.747-.32zM139.725 119.102l.859-.081.825.378.507.577-.832.165-.891-.097-.721-.492zM143.732 118.458l.135.56.462.331.337-.526zM149.112 116.697l.664.036.622.241.489.335.359.403-.694-.008-.713-.185-.683-.278-.591-.387zM151.618 115.343l.854.58.57-.221.23-.558-.856-.156zM102.478 110.515l.472.429-.698.244z"/><g><path d="m81.551 203.744.82.081.834.194.793.356.854.069.736.055.686.438.862.023-1.005.063.736.208.71-.054.711-.073.704.054.789.33.789.184.831-.047.718-.189.727.05.743.056.67-.32.718.209.696.07.652.166.808-.27.651.598.764-.041.746-.1.727-.149.742.123.732-.022.736-.154.817-.038.793.303.827-.087.851-.072.596.526-.955.135-.689.469-.755-.036-.749-.054-.74.019-.741.042-.741-.254-.743.21-.778.085.449.446-.535.27-.765-.102-.759.054-.743-.238-.761-.002-.809.279-.699-.395-.766.17-.728-.028-.653-.13-.64.128-.687-.217-.645.502-.721-.021-.716.005-.912.24-.925.104-.749.052-.77-.422-.741.446-.762-.07-.763-.132-.76.061-.849.231-.055-.832-.028-.729-.038-.728-.041-.728-.1-.722z"/></g><g><path d="m80.766 227.726.563-.127.673.275.711-.156.304.599.91.199.641.319.297-.586.073-.621.534-.456.865.585.536.696.92-.182.528.374.632-.035.015-.661-.019-.56.533.321.215.778.81.022.777.517 1.022-.201-.021-.757-.024-.502.755-.478.487.838.907.345-.615 1.282.623-.539.703.196.568-.392.081-.679.815-.273.796.088.617.557.561.524.81.045.551.597 1.321-.178-.039.468.32.151.695.131.886.272 1.178-.208-.425-.505-.353-.238.503-.522.742.279.547.39.703.695.401.042.611-.343 1.101.163-.41-.695 1.059-.233.989.202.681.763.845-.317.725.023.801.14.803.072.753-.508.817-.139.825.014.713.718.819-.077.648.256-.68.754-.91.548-.752-.721-.873.211-.692-.097-.707.237.029.908-.677-.62-.865.378-.875-.503.135.951-.713-.089-.728-.744-.235.848-.184.463-1.087-.165-.578-.433.067.595.17 1.133-1.14-.456-.118-1.213-.723.503-.44.381-.497-.418-.715-.38-.662-.034-.288.314-1.108.57-.108.896.464.553-.985-.463-.602-.875-.8.493-.163.954.407-.827-.153-.911-.995-.803.185 1.165-.842-.569-.693-.002-.711.016-.702.064-.681-.318-.846.098-.612.687.559.82-.623-.404-.706.168-.82.403-.843-.269.408-.81-1.03.382-.92-.187-.653-.142-.059.549.009.655-.491-.522-.388-.63-.928.394-.656.179-.691.339-.718-.272-.758-.008-.708-.406-.778.004-.822.497-.718-.491-.792.354-.97-.13.149-.995-.101-.779.464-.779-.606-.779.236-.779.154-.778-.236-.779zM113.403 233.382l.392.757.798.3.537-.528-.472-.422-.628-.197zM121.739 231.831l.187.621.579.316.795-.67-.735-.385zM120.035 230.647l-.864.25-.585.674.723.273.6-.465zM117.364 232.72l-.733.434.491.464.671.065-.005-.571z"/><path d="m101.295 228.575.635.602.878.108.481-.342-.6-.344-.706-.098zM86.048 226.727l.484.665.699.476.814.112.203-.454-.571-.565-.801-.271zM90.134 227.224l.278.536.569.211.453-.348-.592-.387z"/></g><g><path d="m80.331 252.085.812.294.701.262.755.66.477-.995.652-.27-.085 1.291.867.037.628-.142-.041-1.125.74.114.086.286 1.005-.337.485 1.115.546-.812.413-.576.416-.159.57.334.626.215.719.283.72.237.779-.72.725.273.63-.064.642.413.528-.392.588-.853.363.752.775.656.266 1.169 1.174-.411-.581-.939 1.066.686 1.259-.206-.507-1.165 1.327-.118.385.469.536.286.859-.182.797.859.875.054.548.136.266.747.543-.799.629-.432.462-.129.983-.374.308 1.022.031.073.23.52.449.43-.062-.057-.175-.838 1.144.198.762-.373.119.895.577.731.904-.355.119-.604.571-.035.958-.159.956.075.691.646.8-.297.387-.668.545.502.316.432-.018.46.387.197-.086-.506-.22-1.086.799.986.969-.336 1.042.555.605-1.81.071 1.062.156.987.58-.864.366-.699.466 1.211.564.311.385.006.865.057.644-.469.475-.49-.061-.56.645.018.844.628-.354 1.056-.095.946.818.311.237-1.004.099-.609-.403-.896 1.276-.23.252 1.132.297 1.039.818.1.529-.474.577-.24.486-.475.887.402.281-.051-.195.053-.432.886.92-.399.399 1.166 1.19-.601.243.763.586-.405.68.315-.017-.684-.747-1.107 1.546.123.052 1.165 1.075.74.762-.499.465-.492.78.464-.281.937-.76.261-.816.309-.596-.615-.408-.708-.352.647.278.666-1.321-.025-.903-.21-1.015.917.404-1.44-.874-.169-.481.544-1.357-.444.969.652.978.909-.888-.725-.96.202-.841.276-1.087.312.451-.986-1.155.246-.586 1.078-.813-.766-.727.305.098.441-.42.458-.841-.166-.787-.354-.838.143 1.086-.62-.886-.261-.712.747-.814-.295-.468-.551-.247-.972-.98.327-.896-.336.785.513.414.851-1.289-.143.611.829-.85-.242-.77.23-.781.491-.898-.465.917-.708-1.235-.124-1.031-.302-.778.615-.95-.321-.667.906-.9-.384-.818.586-.847-.436-.756.291.998.541-1.137.185-1.06.324-.053-1.406-.098-.828-.669.315-.213.48-.617.46-.987-.541-.956.51.996-.488-1.005-.441-.783.215-.774.122-.406.808-.914-.475.608.842-.697.81.555.838-.924-.144-.744.685-.631-.508-.927-.414.244-.729-.345-.474-.78-.363-.797.609-.749-.587-.708.692-.636.32-.489-.286.35.334-.88-.069-.778-.195-.843.152-.717-.271-.685.477-.876.145-.882-.107-.557.097.241-.007.55.707-1.099-.262-.81.434-.934-.386.012-.862.748-.69-.776.789-.68.306-.9-.02-.808.042-.475.942-.763.432-.839.201-.866-.912-.806.367-.739-.058-.577-.722.737-.772.346-.781-.746-.806.081-.787-.224-.795.502-.777.464-.779-.987-.811 1.083-.765-.488-.8.49-.778z"/><path d="m111.12 251.785.534.55.555.511.629.393.697-.275.721-.223.713-.237.432-.327-.826-.211-.85-.108-.838-.172-.829-.197zM122.11 253.033l.169.638.041.657.583-.036.639-.308.202-.584-.768-.31zM132.413 252.798l.49.6.777.124.554-.235.298-.483-.668-.276-.761-.009zM138.2 252.778l-.237.51.171.567.452.381.575-.011-.275-.869zM140.836 255.813l-.364.494.133.616.752.192-.035-.743zM142.351 257.278l-.646.696.632.339.697-.175-.135-.582zM145.499 254.964l-.615.359-.357.592.64-.068.655-.096.659-.011.629.092-.401-.489-.555-.346zM145.852 256.595l-.656.147-.453.476.733.177zM136.79 258.227l.378.748 1.064.025-.616-.575zM116.867 260.705l.04.613.482.394.923-.462-.635-.515zM113.699 260.355l.152 1.02.539-.286.18-.581zM148.221 258.004l-.467.701.627.29zM150.66 257.223l-.227.292.493.102zM105.777 260.534l.131.926.662.438.814.03.695-.328-.377-.529-.596-.349-.653-.232zM97.179 261.045l-.594.198-.607.319-.732.237-.741.178-.71.216.53.49.689.258.714-.001.672-.23.576-.432.29-.61zM92.737 262.196l-.702.744-.836.101-.872.071-.963.57.828.347.927-.006.791-.137.641-.451.274-.603zM88.016 263.686l-.781.011-.59.548.157 1.019.617-.326.441-.579z"/></g></g></g></switch></svg>