<svg xmlns="http://www.w3.org/2000/svg" viewBox="0 0 350 350" style="enable-background:new 0 0 350 350" xml:space="preserve"><switch><g><path style="opacity:.4" d="M60 60h230v230H60z"/><path d="M262.4 158.3c.8-.8 1.6-1.5 2.4-2.3v-45.1h-28.2l-14.3-14.3H118.5L95 120.2v20.2H72.3l-6.4 6.3v85.8L78 244.6h7l179.9 6.7h21.5l19.6-19.6v-27.6c-14.5-15.3-29.1-30.6-43.6-45.8zM99.389 189.835H87v-26.167h12.389v26.167zm185.944 42.444c-5.523 0-10-4.477-10-10s4.477-10 10-10 10 4.477 10 10-4.477 10-10 10z"/><path style="fill:#f9a11b" d="M262.3 158.3c.8-.8 1.6-1.5 2.4-2.3v-13.8l-17.6-17.6h-18.5l33.7 33.7zM157.264 131.4H178.9l48.1 48.1h13.1c-12-12.1-23.9-24.3-35.9-36.4l-18.375-18.375-30.025-.125-7.302 6.8h8.766z"/><path style="fill:#f9a11b" d="M120.1 99.8h84l4.6 4.6 9.05 9.4h33.95l13.2 13.2V91.4l-6.4-6.4h-59.4l-8.5 7.1h-31.3l-7.9-7.1H91.6L85 91.4v64.8l7.5 7.5v28.2l118.3.3 7.8 7.8 21 8.6v9.6l8.566 26.4H85.1v14.1l6.2 6.2h167.1l6.5-6.5V205l-16-16h-25.5l-48-48h-37.21l-11.49 10.7h-24.2l-4.5-4.5v-25.4l22.1-22zm132.2-9c4 0 7.2 3.2 7.2 7.2s-3.2 7.2-7.2 7.2-7.2-3.2-7.2-7.2 3.2-7.2 7.2-7.2zM96.6 105.3c-4 0-7.2-3.2-7.2-7.2s3.2-7.2 7.2-7.2 7.2 3.2 7.2 7.2c0 3.9-3.2 7.2-7.2 7.2z"/><g><path d="M248.764 282.415c-1.398 0-2.75.187-4.05.506l-5.462-5.462h2.943l5.97-5.97V223.24l-4.947-4.947h-3.053v-9.722l-10.278-10.278h-33.389v-34.594l1.356-1.356a31.855 31.855 0 0 0 15.261 3.867c17.673 0 32-14.327 32-32s-14.327-32-32-32c-17.673 0-32 14.327-32 32 0 4.857 1.088 9.459 3.024 13.583l-7.641 7.654v51.922l6.502 5.939v5h-3l-5 5-5-5h-3v-5l6.5-6v-51.861l-7.641-7.654a31.863 31.863 0 0 0 3.024-13.583c0-17.673-14.327-32-32-32-17.673 0-32 14.327-32 32s14.327 32 32 32a31.855 31.855 0 0 0 15.261-3.867l1.356 1.356v34.594h-33.389l-10.278 10.278v9.722h-3.053l-4.947 4.947v48.249l5.97 5.97h2.943l-5.462 5.462a17.005 17.005 0 0 0-4.05-.506c-9.389 0-17 7.611-17 17s7.611 17 17 17 17-7.611 17-17c0-.373-.032-.738-.056-1.104l12.453-12.453v-8.399h3.128l4.998-4.998 4.998 4.998h3.244v6.278l11.719 11.719 16.279.001h.002l16.279-.001 11.719-11.719v-6.278h3.244l4.998-4.998 4.998 4.998h3.128v8.399l12.453 12.453c-.024.367-.056.732-.056 1.104 0 9.389 7.611 17 17 17s17-7.611 17-17-7.609-17-16.998-17zm-109.868-59.108-5-5h10l-5 5zm36.105 52.702h-3l3-3 3 3h-3zm36.548-52.702-5-5h10l-5 5z"/><path style="fill:#fff" d="M133.901 232.858v-7.8c-.8-.8-1.7-1.6-2.5-2.4h-6.4v-8c.6-.5 1.1-1 1.7-1.5h23.3c.6.5 1.1 1 1.7 1.5v8h-6.2c-.8.8-1.7 1.6-2.5 2.4v7.8h27.8v-7.8c-.9-.9-1.7-1.7-2.6-2.5h-6.4v-11.7c2.2-1.7 4.4-3.3 6.6-5v-48.4l-9.9-9.9c2.4-3.9 3.7-8.4 3.7-13.3 0-14.1-11.4-25.5-25.5-25.5s-25.5 11.4-25.5 25.5 11.4 25.5 25.5 25.5c5.4 0 10.3-1.7 14.4-4.5 2.2 2.3 4.4 4.6 6.6 7v38.8c-.9.6-1.7 1.3-2.6 1.9h-33.1c-2.4 2.3-4.8 4.5-7.2 6.8v12.9h-6.2c-.8.8-1.7 1.6-2.5 2.4v7.8h27.8zm3.2-83.1c-8.3 0-15-6.7-15-15s6.7-15 15-15 15 6.7 15 15-6.7 15-15 15zM106.101 240.158h27.8v15.3h-27.8zM143.001 240.158h27.8v15.3h-27.8zM106.101 262.158v7.9l3 3h6.2v5.5l-9.2 9.2c-1.5-.7-3.2-1.1-5-1.1-6.9 0-12.5 5.6-12.5 12.5s5.6 12.5 12.5 12.5 12.5-5.6 12.5-12.5c0-.6-.1-1.2-.1-1.8l13.4-13.4v-8.2l-3.3-2.8h7.5l3-3v-7.9h-28v.1zM198.299 222.658v-8c.6-.5 1.1-1 1.7-1.5h23.3c.6.5 1.1 1 1.7 1.5v8h-6.4c-.8.8-1.7 1.6-2.5 2.4v7.8h27.8v-7.8c-.8-.8-1.7-1.6-2.5-2.4h-6.2v-12.9c-2.4-2.3-4.8-4.5-7.2-6.8h-33.1c-.9-.6-1.7-1.3-2.6-1.9v-38.8c2.2-2.4 4.4-4.7 6.6-7 4.1 2.8 9 4.5 14.4 4.5 14.1 0 25.5-11.4 25.5-25.5s-11.4-25.5-25.5-25.5-25.5 11.4-25.5 25.5c0 4.9 1.3 9.4 3.7 13.3l-9.9 9.9v48.4c2.2 1.7 4.4 3.3 6.6 5v11.7h-6.4c-.9.8-1.7 1.6-2.6 2.5v7.8h27.8v-7.8c-.8-.8-1.7-1.6-2.5-2.4h-6.2zm14.6-102.9c8.3 0 15 6.7 15 15s-6.7 15-15 15-15-6.7-15-15 6.7-15 15-15zM216.099 240.158h27.8v15.3h-27.8zM179.199 240.158h27.8v15.3h-27.8zM248.899 286.658c-1.8 0-3.5.4-5 1.1l-9.2-9.2v-1.557l-5.559-2.556v-1.487h5.559l6.306-.006 2.894-2.894v-8h-28v7.9l3 3h4.2v11l13.4 13.4c0 .6-.1 1.2-.1 1.8 0 6.9 5.6 12.5 12.5 12.5s12.5-5.6 12.5-12.5-5.6-12.5-12.5-12.5zM179.199 270.058l3 3h4.5v4.5l-2.2 2.2H165.501l-2.2-2.2v-1.883h-.009l-3.624-1.521v-1.196h8.233l2.9-2.9v-7.9h-27.8v7.9l3 3h5.3v9.7l9 9H189.699l9-9v-5.824l-5.507-2.532v-1.444h5.559l5.346.001 2.901-2.901v-7.9h-27.8v7.9z"/></g></g></switch></svg>