<svg xmlns="http://www.w3.org/2000/svg" viewBox="0 0 350 350"><switch><g><path fill="#fff" d="M59.962 59.962h230.075v230.075H59.962z"/><path d="M69.5 69.5h211v211h-211z"/><path fill="#d75b2b" d="M79 79h192v192H79z"/><radialGradient id="pulse-a" cx="175" cy="175" r="96" gradientTransform="rotate(-45.001 132.75 192.502) scale(1 1.1999)" gradientUnits="userSpaceOnUse"><stop offset="0" stop-color="#fff"/><stop offset=".918" stop-color="#fff" stop-opacity=".082"/><stop offset="1" stop-color="#fff" stop-opacity="0"/></radialGradient><path fill="url(#pulse-a)" d="M79 79h192v192H79z"/><g><g fill="#202020"><path d="M240.899 63.195a67.479 67.479 0 01-3.743.502c-8.689.987-9.364 1.079-10.135 1.199-.746.116-3.896.608-6.688 1.396-5.437 1.535-8.126 3.803-14.917 8.125a211.875 211.875 0 01-11.739 6.946c-7.552 5.054-14.526 8.282-16.254 8.611-9.934 6.347-16.441 11.937-15.09 15.36.977 2.473 5.886 2.483 14.333 2.5 24.883.051 56.253-8.477 62.75-25.083.301-.77 2.957-7.559.333-10-2.371-2.206-7.682-.19-8.167-1.583-.291-.836 1.417-2.21 2.542-2.917 2.153-1.354 4.865-1.96 10.375-1.5 6.642.555 9.182 1.978 9.57 1.233.575-1.104-4.043-6.105-8.445-5.733-1.027.086-1.622.43-4.725.944z"/><path d="M236.563 70.031c.147.191.404.225.594.25.517.068 1.305-.117 1.5-.688.239-.698-.54-1.595-1.156-1.563-.757.041-1.337 1.483-.938 2.001zM246.063 68.594c-.132-.531-1.203-.835-2-.594-1.461.442-1.773 2.647-1.281 3.031.645.504 3.524-1.46 3.281-2.437zM240.589 68.062c-.161.267.103.848.472.876.377.029.725-.527.599-.812-.139-.315-.889-.365-1.071-.064zM249.875 68.469c-1.148-.523-4.835 3.779-4.219 4.656.43.611 3.381.177 4.313-1.906.445-.995.483-2.488-.094-2.75zM243.625 73.219c-.242-.124-.999.581-.875.906.071.186.438.273.688.156.435-.202.385-.961.187-1.062z"/></g><path d="M69.5 226.816c18.552 14.676 35.497 21.334 46.658 24.622 6.534 1.925 15.213 4.022 32.863 6.273 11.206 1.429 23.416 4.822 34.769 3.028 8.242-1.302 14.726-4.718 23.329-4.982 9.122-.28 14.031.475 20.847-5.623 2.286-2.045 4.914-2.887 7.351-4.509 3.744-2.491 5.357-6.836 9.201-8.991 3.444-1.93 4.965-1.191 7.843-4.884 2.692-3.454 4.765-5.159 8.138-7.726 6.212-4.726 9.539-12.295 13.362-18.886 1.624-2.8 4.1-5.905 5.002-9.066.388-1.358.082-2.869.468-4.143.983-3.241.475-1.942 2.761-4.282 5.909-6.049 6.091-8.491 4.271-16.871-1.169-5.381 5.701-13.096 3.268-16.995-3.666-5.874-17.145.206-21.471 1.609-19.606 6.356-29.746 8.448-37.067 12.016-18.228 8.885-69.451 27.829-161.593 59.41zM69.497 192.71l.003-13.991a53.093 53.093 0 016.792-5.802c.967-.855 2.769-2.445 5.034-4.418 22.596-19.682 27.049-21.536 33.675-29.749 2.101-2.604 3.555-4.774 6.75-7.375 4.04-3.288 6.396-3.628 9.75-7.375 2.471-2.76 1.544-2.969 4-5.563 1.144-1.208 4.535-4.789 9.857-6.834 2.072-.796 3.586-1.033 5.268-2.604 1.157-1.081 1.324-1.793 2.688-3.375.366-.424 1.302-1.473 4.313-3.75 2.516-1.902 5.466-4.112 9.747-6.265 1.726-.868 2.33-1.054 5.357-2.335 9.354-3.961 10.678-5.189 16.771-7.525 4.083-1.565 6.372-2.442 9.833-3.167 6.697-1.401 9.503-.472 16.833-2 4.752-.99 4.062-1.441 8.25-2.333 8.155-1.737 14.86-.897 23.521.188 2.94.368 6.941.881 12.188 2.125a102.62 102.62 0 0119.542 6.771v27l-210.25 95.083c.024-5.568.051-11.137.078-16.706z"/></g><g><path d="M295.5 107c-5.389 35.751-17.727 61.96-26.75 77.75-12.431 21.753-25.242 44.171-52.25 57.25-18.945 9.174-37.112 9.993-48.338 9.487L66.75 220.5v-20.75a3824.076 3824.076 0 0154-45.5c45.315-37.471 62.817-50.182 88.75-58 19.529-5.888 32.793-5.671 40.5-5 21.134 1.84 36.931 10.268 45.5 15.75z"/><path d="M249.291 165.292c-.332 37.632-31.855 73.105-73.291 72.833-39.985-.263-72.891-33.706-72.417-74.125A674.455 674.455 0 01200 95.125c30.005 12.066 49.555 40.196 49.291 70.167z" fill="#fff"/><g fill="none" stroke="#000" stroke-width="4" stroke-miterlimit="10"><circle cx="176" cy="164.46" r="14.46"/><circle cx="176" cy="164.46" r="34.75"/><path d="M177.67 110.88c28.84.88 51.93 24.53 51.93 53.58 0 29.61-23.99 53.6-53.6 53.6s-53.6-23.99-53.6-53.6c0-3.17.28-6.28.81-9.3"/></g><g fill="none" stroke="#000" stroke-width="4" stroke-miterlimit="10"><path d="M111.5 164.47l29.75-.01M210.75 164.46l41.083.011M176 129.71V113M176 199.21v42.495"/></g><circle cx="211.849" cy="124.612" r="6.901"/><circle cx="146.42" cy="180.734" r="6.643"/><circle cx="161.54" cy="214.232" r="7.096"/><linearGradient id="pulse-b" gradientUnits="userSpaceOnUse" x1="179.589" y1="162.579" x2="225.338" y2="208.328"><stop offset="0" stop-color="#d75b2b"/><stop offset="1" stop-color="#7f2907"/></linearGradient><path d="M235.83 184.43c-5.07 16.25-16.46 29.71-31.3 37.48L175 165.46l60.83 18.97z" opacity=".8" fill="url(#pulse-b)"/><path d="M247.5 86.25c-44.893-2.023-76.939 21.225-86.5 28.75l-98.167 82.167.333 25.833c32.052 13.014 58.864 20.842 78.108 25.659 15.517 3.884 25.038 5.54 36.725 5.341 7.77-.132 30.638-.781 52.5-13.833 20.665-12.338 30.125-29.604 41.667-51.333 9.602-18.077 22.531-47.77 28-88.25-10.908-5.687-29.167-13.275-52.666-14.334zM257.833 193c-16.266 26.766-28.943 35.402-35.333 39.167-19.201 11.313-38.453 12.121-45.375 12.333-11.672.358-21.137-1.384-36.625-5.5-17.676-4.698-42.063-12.188-71-24.313l-.125-10.813c6.043-5.8 85.483-81.475 135.458-101.042 6.248-2.446 17.941-6.909 33.833-7.5 22.419-.833 40.426 6.514 51 12-7.146 40.066-21.45 68.583-31.833 85.668z" fill="#fff"/></g></g></switch></svg>