<svg xmlns="http://www.w3.org/2000/svg" viewBox="0 0 350 350"><switch><g><path fill="#fff" d="M59.962 59.962H290.037V290.037H59.962z"/><path d="M69.5 69.5H280.5V280.5H69.5z"/><path fill="#d75b2b" d="M79 79H271V271H79z"/><radialGradient id="a" cx="175" cy="175" r="96" gradientTransform="matrix(.7071 -.70712 .84847 .84844 -97.239 150.255)" gradientUnits="userSpaceOnUse"><stop offset="0" stop-color="#fff"/><stop offset=".918" stop-color="#fff" stop-opacity=".082"/><stop offset="1" stop-color="#fff" stop-opacity="0"/></radialGradient><path fill="url(#a)" d="M79 79H271V271H79z"/><g fill="#202020"><path d="M240.899,63.195c-1.482,0.245-2.553,0.367-3.743,0.502c-8.689,0.987-9.364,1.079-10.135,1.199 c-0.746,0.116-3.896,0.608-6.688,1.396c-5.437,1.535-8.126,3.803-14.917,8.125c-2.737,1.742-6.719,4.187-11.739,6.946 c-7.552,5.054-14.526,8.282-16.254,8.611c-9.934,6.347-16.441,11.937-15.09,15.36c0.977,2.473,5.886,2.483,14.333,2.5 c24.883,0.051,56.253-8.477,62.75-25.083c0.301-0.77,2.957-7.559,0.333-10c-2.371-2.206-7.682-0.19-8.167-1.583 c-0.291-0.836,1.417-2.21,2.542-2.917c2.153-1.354,4.865-1.96,10.375-1.5c6.642,0.555,9.182,1.978,9.57,1.233 c0.575-1.104-4.043-6.105-8.445-5.733C244.597,62.337,244.002,62.681,240.899,63.195z"/><path d="M236.563 70.031c.147.191.404.225.594.25.517.068 1.305-.117 1.5-.688.239-.698-.54-1.595-1.156-1.563C236.744 68.071 236.164 69.513 236.563 70.031zM246.063 68.594c-.132-.531-1.203-.835-2-.594-1.461.442-1.773 2.647-1.281 3.031C243.427 71.535 246.306 69.571 246.063 68.594zM240.589 68.062c-.161.267.103.848.472.876.377.029.725-.527.599-.812C241.521 67.811 240.771 67.761 240.589 68.062zM249.875 68.469c-1.148-.523-4.835 3.779-4.219 4.656.43.611 3.381.177 4.313-1.906C250.414 70.224 250.452 68.731 249.875 68.469zM243.625 73.219c-.242-.124-.999.581-.875.906.071.186.438.273.688.156C243.873 74.079 243.823 73.32 243.625 73.219z"/></g><path d="M69.5 226.816c18.552 14.676 35.497 21.334 46.658 24.622 6.534 1.925 15.213 4.022 32.863 6.273 11.206 1.429 23.416 4.822 34.769 3.028 8.242-1.302 14.726-4.718 23.329-4.982 9.122-.28 14.031.475 20.847-5.623 2.286-2.045 4.914-2.887 7.351-4.509 3.744-2.491 5.357-6.836 9.201-8.991 3.444-1.93 4.965-1.191 7.843-4.884 2.692-3.454 4.765-5.159 8.138-7.726 6.212-4.726 9.539-12.295 13.362-18.886 1.624-2.8 4.1-5.905 5.002-9.066.388-1.358.082-2.869.468-4.143.983-3.241.475-1.942 2.761-4.282 5.909-6.049 6.091-8.491 4.271-16.871-1.169-5.381 5.701-13.096 3.268-16.995-3.666-5.874-17.145.206-21.471 1.609-19.606 6.356-29.746 8.448-37.067 12.016C212.865 176.291 161.642 195.235 69.5 226.816zM69.497 192.71c.001-4.664.002-9.327.003-13.991.886-.896 1.865-1.822 2.942-2.757 1.327-1.153 2.622-2.163 3.85-3.045.967-.855 2.769-2.445 5.034-4.418 22.596-19.682 27.049-21.536 33.675-29.749 2.101-2.604 3.555-4.774 6.75-7.375 4.04-3.288 6.396-3.628 9.75-7.375 2.471-2.76 1.544-2.969 4-5.563 1.144-1.208 4.535-4.789 9.857-6.834 2.072-.796 3.586-1.033 5.268-2.604 1.157-1.081 1.324-1.793 2.688-3.375.366-.424 1.302-1.473 4.313-3.75 2.516-1.902 5.466-4.112 9.747-6.265 1.726-.868 2.33-1.054 5.357-2.335 9.354-3.961 10.678-5.189 16.771-7.525 4.083-1.565 6.372-2.442 9.833-3.167 6.697-1.401 9.503-.472 16.833-2 4.752-.99 4.062-1.441 8.25-2.333 8.155-1.737 14.86-.897 23.521.188 2.94.368 6.941.881 12.188 2.125 8.22 1.949 14.834 4.585 19.542 6.771v27c-70.083 31.694-140.167 63.389-210.25 95.083C69.443 203.848 69.47 198.279 69.497 192.71z"/><path d="M295.5,107c-5.389,35.751-17.727,61.96-26.75,77.75c-12.431,21.753-25.242,44.171-52.25,57.25 c-18.945,9.174-37.112,9.993-48.338,9.487c-33.804-10.329-67.608-20.658-101.412-30.987c0-6.917,0-13.833,0-20.75 c19.732-16.94,37.862-32.155,54-45.5c45.315-37.471,62.817-50.182,88.75-58c19.529-5.888,32.793-5.671,40.5-5 C271.134,93.09,286.931,101.518,295.5,107z"/><path d="M249.291,165.292c-0.332,37.632-31.855,73.105-73.291,72.833 c-39.985-0.263-72.891-33.706-72.417-74.125c14.366-12.304,30.522-25.094,48.542-37.875c16.606-11.778,32.682-22.05,47.875-31 C230.005,107.191,249.555,135.321,249.291,165.292z" fill="#fff"/><g fill="none" stroke="#000" stroke-width="4" stroke-miterlimit="10"><circle cx="176" cy="164.46" r="14.46"/><circle cx="176" cy="164.46" r="34.75"/><path d="M177.67,110.88 c28.84,0.88,51.93,24.53,51.93,53.58c0,29.61-23.99,53.6-53.6,53.6s-53.6-23.99-53.6-53.6c0-3.17,0.28-6.28,0.81-9.3"/></g><path d="M111.5 164.47L141.25 164.46M210.75 164.46L251.833 164.471M176 129.71L176 113M176 199.21L176 241.705" fill="none" stroke="#000" stroke-width="4" stroke-miterlimit="10"/><circle cx="211.849" cy="124.612" r="6.901"/><circle cx="146.42" cy="180.734" r="6.643"/><circle cx="161.54" cy="214.232" r="7.096"/><linearGradient id="b" gradientUnits="userSpaceOnUse" x1="179.589" y1="162.579" x2="225.338" y2="208.328"><stop offset="0" stop-color="#d75b2b"/><stop offset="1" stop-color="#7f2907"/></linearGradient><path d="M235.83,184.43c-5.07,16.25-16.46,29.71-31.3,37.48L175,165.46 L235.83,184.43z" opacity=".8" fill="url(#b)"/><path d="M247.5,86.25c-44.893-2.023-76.939,21.225-86.5,28.75 c-32.722,27.389-65.444,54.778-98.167,82.167c0.111,8.611,0.222,17.222,0.333,25.833c32.052,13.014,58.864,20.842,78.108,25.659 c15.517,3.884,25.038,5.54,36.725,5.341c7.77-0.132,30.638-0.781,52.5-13.833c20.665-12.338,30.125-29.604,41.667-51.333 c9.602-18.077,22.531-47.77,28-88.25C289.258,94.897,270.999,87.309,247.5,86.25z M257.833,193 c-16.266,26.766-28.943,35.402-35.333,39.167c-19.201,11.313-38.453,12.121-45.375,12.333 c-11.672,0.358-21.137-1.384-36.625-5.5c-17.676-4.698-42.063-12.188-71-24.313c-0.042-3.604-0.083-7.208-0.125-10.813 c6.043-5.8,85.483-81.475,135.458-101.042c6.248-2.446,17.941-6.909,33.833-7.5c22.419-0.833,40.426,6.514,51,12 C282.52,147.398,268.216,175.915,257.833,193z" fill="#fff"/></g></switch></svg>