<svg xmlns="http://www.w3.org/2000/svg" viewBox="0 0 350 350"><path d="M45 45.005h260v260H45z" style="fill:#0e0e0e;isolation:isolate;opacity:.4"/><path d="M83.181 51.953c14.229-.08 1.327 20.005 1.327 20.005.49-2.616 14.556-9.891 21.007-9.891s17.859 6.948 18.595 9.891c0-20.603 43.591-33.159 49.524-33.125s40.531 10.171 48.348 33.125c2.626-7.879 9.48-11.913 16.838-16.451s15.503-9.416 19.869-19.481c1.25-2.882 7.811 3.721 12.009 9.149s7.674 13.796 7.674 26.783v43.874c8.098 4.815 14.627 19.65 0 42.196v51.609c8.81 5.01 10.365 29.279 0 39.126v29.452h-69.197c-16.05.713-30.62 36.462-36.028 36.379s-12.488-27.106-33.888-36.379h-67.77V233.15c-5.931-4.562-8.861-7.445-8.861-17.121s5.059-15.363 8.861-16.732v-9.992c-3.914-2.192-15.6-16.372-15.6-34.835s15.6-31.661 15.6-31.661v-12.695c-4.417-6.755-8.054-16.902-8.054-25.963 0-29.243 19.745-32.198 19.745-32.198Z" style="fill:#f16927"/><path d="M190.888 283.93c9.159-29.181 65.622-22.889 62.731-40.451-39.086 14.992-39.931-.348-39.931-6.26s5.725-13.382 12.087-13.382 8.759 3.805 8.866 6.91c-10.184-.042-12.868 11.216 2.142 11.216 9.901 0 10.779-8.167 10.779-11.851s-4.697-19.53-27.399-17.067c18.098-9.209 10.789-24.288 10.789-24.288 12.476 2.035 22.62-1.043 29.646-4.629s11.518-8.695 10.933-7.681c-6.459 11.187-15.153 15.092-19.263 19.94s-6.011 8.877-6.011 15.023 5.946 9.625 11.218 9.656 11.118-6.223 1.619-12.059c0 0 2.84-2.571 6.397-2.445 10.338.366 23.143 26.363-.381 48.92-11.665 11.185-52.901 6.731-74.223 28.449Zm-32.227 2.21c-26.01-30.261-73.93-8.599-73.65-33.904.244-22.05 27.505-16.284 27.859.241-19.833-11.843-14.593 10.396-2.97 10.396 7.268 0 13.966-.474 13.966-9.932 0-24.24-38.224-44.978-38.224-33.137 0 2.638 2.567 3.613 5.941 5.941-11 4.501-21.535-.075-21.535-10.662 0-9.358 5.805-13.347 13.862-13.347 2.398 0 38.39 1.406 74.751 84.405Z" style="stroke:#000;stroke-linejoin:round"/><path d="M173.837 308.58c1.226-31.198-27.383-65.666-27.383-65.666l18.801 14.032c1.499-6.267-8.855-16.621-8.855-16.621 9.673-3.815 10.899-12.839 10.899-17.711 0-18.768-31.334-59.944-31.334-59.944s17.847 18.528 20.435 17.983c2.452-4.36-22.206-31.198-23.16-46.456 0 0 15.395 13.351 20.435 12.942 2.18-5.722-22.888-24.931-22.888-24.931V79.021c0-24.99 37.599-36.599 42.642-36.599s41.253 10.781 41.45 36.259c.034 4.359 0 42.709 0 42.709-18.27 13.079-20.504 21.071-26.873 33.65 1.362 3.406 21.934-16.348 21.934-16.348-28.391 30.551-42.402 68.066-7.902 77.11-10.626 3.951-19.209 17.438-18.392 22.206 6.676 1.771 20.027-10.081 20.027-10.081-7.221 6.948-17.711 20.027-15.667 25.34 5.313 2.588 14.032-8.038 14.032-8.038-14.986 17.983-26.702 45.094-28.201 63.35Z" style="stroke:#000;stroke-linecap:round;stroke-linejoin:round"/><path d="M224.236 122.889v-36.88c-.587-20.78 20.969-23.226 31.714-36.549 1.594-1.977 3.09-5.37 4.392-6.673.97-.97 4.727 4.072 6.718 6.822 7.988 11.032 20.337 53.146-43.067 78.418 18.863-9.875 31.156-37.829 31.156-47.126 0-22.859-36.939-3.752-11.535 8.151.374 8.854-19.378 33.835-19.378 33.835Zm-98.453 29.646s-3.614-5.025-3.614-10.602V91.678c0-14.42-8.459-23.039-18.011-23.039s-14.267 6.274-14.119 16.845 4.919 18.319 13.176 18.319c4.12 0 6.756-.878 6.756-7.013 0-9.854-9.823-4.392-9.823-9.371 0-1.88.367-4.515 5.697-4.515 12.627 0 19.382 33.968-2.471 33.968-14.73 0-26.499-14.297-26.499-33.89 0-18.331 7.665-21.375 6.071-23.419s-14.03 2.816-14.03 24.779c0 15.216 19.518 51.084 56.867 68.193Z" style="stroke:#000;stroke-linejoin:round"/><path d="m169.488 210.448-2.835-103.646H136.41V91.05l15.122 2.52c.441.031-15.437-10.396-15.437-10.396s-1.57-8.991 3.685-15.658l17.737 7.467-13.861-13.861c5.261-7.113 24.216-15.55 29.576-15.55s17.759 5.784 17.759 5.784l-9.846 16.067 15.606-12.346c5.1 2.784 8.36 6.629 10.307 11.061-6.148 5.003-18.982 18.296-18.982 18.296l22.486-9.766v17.154L196.2 106.795h-14.492l-5.289 164.769.44-210.813-3.324-3.542-4.048 153.239Z" style="fill:#fff;stroke:#fff;stroke-linejoin:round"/><path d="M202.041 106.77h8.488v-8.814z" style="fill:#fff;stroke:#fff"/><path d="M74.272 129.441c-2.481 2.481-36.497 49.148 30.493 69.432 19.443 5.887 37.553 6.116 37.553 13.522 0 4.169-9.664 1.389-9.664 10.858 0 14.456 23.041 12.897 23.041-3.221 0-35.744-55.948-73.66-67.217-83.55-3.68 29.669 13.612 46.03 13.612 46.03-.1-14.62 21.87-14.723 21.87-1.352 0 35.048-50.645-.97-50.645-28.752 0-11.256.261-14.513.957-22.967Zm120.334 62.105c0-23.638 14.714-39.173 31.92-50.088s32.786-8.504 48.767-35.032c-11.908 41.833-63.534 32.655-63.534 57.339 0 11.363 7.858 13.058 14.317 13.058 17.845 0 12.747-24.315-3.917-16.186 6.232-9.89 34.991 1.099 58.042-35.894 4.945 28.113-23.823 52.054-40.095 55.109s-35.885-1.163-35.885 5.229 14.275-1.516 14.168 10.535c-.078 8.713-23.782 17.444-23.782-4.069Z" style="fill:#fff;stroke:#fff;stroke-linejoin:round"/></svg>