<svg xmlns="http://www.w3.org/2000/svg" viewBox="0 0 350 350"><switch><g><path fill="#fff" d="M60 60H290V290H60z"/><path d="M69.977 69.992H279.977V279.992H69.977z"/><path fill="#666668" d="M77 77H273V273H77z"/><path d="M76.5,110.688c54.417,54.333,108.833,108.667,163.25,163c11.292,0.042,22.583,0.083,33.875,0.125 c-0.042-11.604-0.083-23.208-0.125-34.813c-54.208-54.146-108.417-108.292-162.625-162.438 c-11.498-0.062-22.996-0.124-34.494-0.187C76.421,87.813,76.46,99.25,76.5,110.688z"/><path d="M181.75,262.25c6.622-1.012,12.913-4.238,18.369-8.015c5.481-3.794,10.731-8.572,14.066-14.414 c3.965-6.946,2.842-14.759,4.605-22.251c0.881-3.746,2.384-7.328,4.423-10.59c2.009-3.213,4.526-6.085,6.67-9.208 c2.149-3.131,4.102-6.521,5.176-10.186c1.106-3.774,0.939-7.679,1.003-11.565c0.069-4.208,0.572-8.41,0.376-12.622 c-0.133-2.853-0.284-6.573-3.014-8.216c-0.7-0.421-1.455-0.672-2.256-0.811c-0.37-0.065-1.094,0.018-1.424-0.129 c-0.123,0.002-0.245,0.005-0.368,0.007c-0.026-0.342-0.038-0.684-0.037-1.027c0.01-1.473,0.296-2.956,1.028-4.247 c0.761-1.342,1.984-2.191,3.01-3.299c1.291-1.395,1.816-3.115,1.87-4.986c0.163-5.64,1.063-11.222,1.186-16.86 c0.081-3.713-0.178-7.428-0.573-11.117c-0.208-1.943-0.657-3.712-1.451-5.378c-0.172-0.361-0.624-1.266-1.623-2.647 c-1.142-1.578-3.755-5.106-8.534-7.688c-0.943-0.51-2.334-1.179-4.125-1.75c-28.048-1.175-48.572-1.103-52.75-0.5 c-3.961,0.572-7.375,1.875-7.375,1.875c-0.261,0.099-1.698,0.689-3.382,1.516c-3.758,1.846-8.764,4.899-16.018,11.053 c-3.488,2.959-9.141,8.152-16.896,15.921c-5.486,5.497-10.761,11.239-15.375,17.496c-4.311,5.847-8.825,12.598-10.69,19.704 c-0.886,3.376-0.716,6.96,1.617,9.732c2.357,2.802,6.1,3.337,7.694,3.554c3.613,0.49,6.516-0.451,7.946-1.029 c-0.049,5.893-0.098,11.785-0.147,17.678c0.287,1.6,0.92,3.843,2.492,5.988c1.868,2.549,3.44,2.748,5.758,5.137 c1.7,1.751,2.675,3.876,4.625,8.125c1.799,3.92,2.975,6.481,3.75,10.125c1.105,5.193,0.056,6.288,1.125,10.5 c1.022,4.027,2.914,6.705,4.895,9.452c5.863,8.132,13.334,12.042,17.141,14.57C162.596,261.498,172.171,263.714,181.75,262.25z"/><path d="M229.333,158.5c0.713,0,1.167,0.5,1.167,0.5s0.524,0.44,0.75,1.25 c0.313,1.122,0.307,10.316,0,22.917c-1.201,4.475-3.047,7.406-4.5,9.25c-2.136,2.71-6.676,7.196-8.892,10.578 c-0.519,0.791-0.989,1.6-0.989,1.6s-1.197,2.058-2.119,4.28c-1.756,4.236-1.752,18.674-6.088,27.704 c-2.545,5.302-6.376,8.175-14.037,13.921c0,0-7.583,5.649-14.315,6.689c-0.174,0.027-0.319,0.046-0.435,0.061 c-4.543,0.58-8.161-0.232-10.375-0.75c-1.898-0.444-6.56-1.706-13.625-6.5c-8.785-5.961-13.832-9.385-16.542-15.833 c-2.635-6.271-0.458-9.115-4.333-20.667c-1.151-3.43-2.066-5.361-3-7c-2.064-3.622-4.067-7.136-7.833-10.167 c-2.873-2.312-3.465-3.285-3.637-3.839c0,0-0.115-0.315-0.197-0.661c-0.643-2.729-0.552-14.647-0.5-19.167 c6.712-3.855,13.425-7.71,20.137-11.565c1.025-0.549,2.289-1.125,3.78-1.601c1.959-0.626,3.723-0.892,5.125-1 C175.694,158.5,202.514,158.5,229.333,158.5z" fill="#fff"/><path d="M222.75,164.125c-5.255,1.319-12.515,2.962-21.25,4.375c-5.88,0.951-17.071,2.754-27.625,2.875 c-9.352,0.107-24.85-1.033-44.125-8.875c-0.828,3.201-1.639,8.005-1,13.75c0.362,3.254,1.103,6.035,1.875,8.25 c1.904,2.076,6.83,6.885,14.875,9c9.29,2.442,16.894-0.246,19.405-1.259c3.365-4.518,6.73-9.035,10.095-13.553 c1.404,2.22,2.981,4.545,4.75,6.938c1.857,2.512,3.707,4.801,5.5,6.875c2.827,0.863,14.023,3.918,25.502-1.87 c5.957-3.003,9.661-7.214,11.636-9.883c0.324-1.747,0.588-3.669,0.736-5.748C223.42,170.857,223.178,167.177,222.75,164.125z"/><path d="M103.125,163.75c0.446-4.128,3.128-8.082,5.388-11.428 c3.008-4.454,6.415-8.639,9.931-12.7c3.182-3.675,6.438-7.337,9.924-10.731c1.913-1.863,8.038-8.123,17.419-16.159 c10.29-8.814,13.397-10.348,16.338-11.358c4.372-1.501,8.612-1.922,10.683-2.117c3.884-0.365,5.074,0.076,13.958,0.208 c4.467,0.067,8.933,0.133,13.4,0.2c4.626,0.069,9.345-0.127,13.958,0.208c4.879,0.355,9.839,2.785,12.954,6.553 c1.204,1.457,2.153,3.117,2.814,4.887c0.717,1.922,0.769,3.535,0.703,5.575c-0.15,4.632-0.3,9.265-0.45,13.897 c-0.072,2.223-0.144,4.447-0.216,6.67c-0.066,2.046,0.041,4.058-1.124,5.855c-0.77,1.188-1.971,1.903-2.901,2.936 c-0.813,0.902-1.357,2.006-1.704,3.162c-0.227,0.753-0.369,1.529-0.459,2.31c-0.046,0.398,0.032,1.032-0.103,1.399 c-0.004,0.169-0.008,0.337-0.012,0.506c-0.372,0.008-0.743,0.017-1.115,0.025c-2.172,0.047-4.344,0.091-6.517,0.13 c-4.198,0.076-8.395,0.136-12.594,0.181c-6.976,0.074-13.952,0.104-20.928,0.085c-11.959-0.031-23.995-0.694-35.946-0.15 c-2.9,0.132-5.862,0.385-8.618,1.361c-2.081,0.737-3.873,1.938-5.703,3.139c-3.998,2.623-8.102,5.11-12.342,7.324 c-2.411,1.259-4.88,2.453-7.451,3.352c-2.214,0.774-5.098,1.665-7.329,0.528C102.965,168.519,102.902,165.818,103.125,163.75z" fill="#f8c701"/><path d="M112.031 160.662c.294.425 5.49-3.007 33.303-19.912 4.664-2.835 55.255-35.246 54-37.333-.64-1.065-14.661 5.946-22.106 10.055-1.192.658-4.416 2.455-8.54 5.029-7.746 4.833-13.139 9.081-15.188 10.5C142.417 136.674 111.246 159.527 112.031 160.662zM136.541 155.822c16.108-7.484 33.589-11.975 51.322-13.073 6.815-.422 13.73-.399 20.513.456 1.181.149 7.555.414 8.061 1.983.529 1.638-14.201 1.245-16.084 1.249-6.687.014-9.052-.159-14.741.292-1.48.117-5.001.426-9.004 1.086-12.123 2.001-15.6 5.074-25.524 6.936C147.766 155.372 142.809 156.032 136.541 155.822zM212.432 110.922L208.934 117.897 201.557 118.963 206.995 124.27 205.678 131.768 212.432 128.271 219.127 131.768 217.921 124.27 223.348 118.963 215.95 117.897z"/><path fill="#fff" d="M212.432 114.098L209.98 118.963 204.351 119.908 208.392 123.888 207.427 129.296 212.452 126.743 217.297 129.296 216.453 123.888 220.393 119.908 214.905 118.963z"/></g></switch></svg>