<svg xmlns="http://www.w3.org/2000/svg" viewBox="0 0 350 350" style="enable-background:new 0 0 350 350" xml:space="preserve"><switch><g><path style="fill:#fff" d="M60 60h230v230H60z"/><path d="M69.977 69.992h210v210h-210z"/><path style="fill:#666668" d="M77 77h196v196H77z"/><path d="m76.5 110.688 163.25 163 33.875.125L273.5 239 110.875 76.562l-34.494-.187.119 34.313z"/><g><path d="M181.75 262.25c6.622-1.012 12.913-4.238 18.369-8.015 5.481-3.794 10.731-8.572 14.066-14.414 3.965-6.946 2.842-14.759 4.605-22.251a35.216 35.216 0 0 1 4.423-10.59c2.009-3.213 4.526-6.085 6.67-9.208 2.149-3.131 4.102-6.521 5.176-10.186 1.106-3.774.939-7.679 1.003-11.565.069-4.208.572-8.41.376-12.622-.133-2.853-.284-6.573-3.014-8.216-.7-.421-1.455-.672-2.256-.811-.37-.065-1.094.018-1.424-.129l-.368.007a13.034 13.034 0 0 1-.037-1.027c.01-1.473.296-2.956 1.028-4.247.761-1.342 1.984-2.191 3.01-3.299 1.291-1.395 1.816-3.115 1.87-4.986.163-5.64 1.063-11.222 1.186-16.86.081-3.713-.178-7.428-.573-11.117-.208-1.943-.657-3.712-1.451-5.378-.172-.361-.624-1.266-1.623-2.647-1.142-1.578-3.755-5.106-8.534-7.688a23.947 23.947 0 0 0-4.125-1.75c-28.048-1.175-48.572-1.103-52.75-.5-3.961.572-7.375 1.875-7.375 1.875a49.88 49.88 0 0 0-3.382 1.516c-3.758 1.846-8.764 4.899-16.018 11.053-3.488 2.959-9.141 8.152-16.896 15.921-5.486 5.497-10.761 11.239-15.375 17.496-4.311 5.847-8.825 12.598-10.69 19.704-.886 3.376-.716 6.96 1.617 9.732 2.357 2.802 6.1 3.337 7.694 3.554 3.613.49 6.516-.451 7.946-1.029l-.147 17.678c.287 1.6.92 3.843 2.492 5.988 1.868 2.549 3.44 2.748 5.758 5.137 1.7 1.751 2.675 3.876 4.625 8.125 1.799 3.92 2.975 6.481 3.75 10.125 1.105 5.193.056 6.288 1.125 10.5 1.022 4.027 2.914 6.705 4.895 9.452 5.863 8.132 13.334 12.042 17.141 14.57 8.059 5.35 17.634 7.566 27.213 6.102z"/><path style="fill:#fff" d="M229.333 158.5c.713 0 1.167.5 1.167.5s.524.44.75 1.25c.313 1.122.307 10.316 0 22.917-1.201 4.475-3.047 7.406-4.5 9.25-2.136 2.71-6.676 7.196-8.892 10.578-.519.791-.989 1.6-.989 1.6s-1.197 2.058-2.119 4.28c-1.756 4.236-1.752 18.674-6.088 27.704-2.545 5.302-6.376 8.175-14.037 13.921 0 0-7.583 5.649-14.315 6.689-.174.027-.319.046-.435.061-4.543.58-8.161-.232-10.375-.75-1.898-.444-6.56-1.706-13.625-6.5-8.785-5.961-13.832-9.385-16.542-15.833-2.635-6.271-.458-9.115-4.333-20.667-1.151-3.43-2.066-5.361-3-7-2.064-3.622-4.067-7.136-7.833-10.167-2.873-2.312-3.465-3.285-3.637-3.839 0 0-.115-.315-.197-.661-.643-2.729-.552-14.647-.5-19.167l20.137-11.565a22.489 22.489 0 0 1 8.905-2.601h80.458z"/><path d="M222.75 164.125a253.853 253.853 0 0 1-21.25 4.375c-5.88.951-17.071 2.754-27.625 2.875-9.352.107-24.85-1.033-44.125-8.875a38.098 38.098 0 0 0-1 13.75 37.734 37.734 0 0 0 1.875 8.25c1.904 2.076 6.83 6.885 14.875 9 9.29 2.442 16.894-.246 19.405-1.259L175 178.688a115.76 115.76 0 0 0 10.25 13.813c2.827.863 14.023 3.918 25.502-1.87 5.957-3.003 9.661-7.214 11.636-9.883a51.605 51.605 0 0 0 .362-16.623z"/><path style="fill:#ee5d26" d="M103.125 163.75c.446-4.128 3.128-8.082 5.388-11.428 3.008-4.454 6.415-8.639 9.931-12.7 3.182-3.675 6.438-7.337 9.924-10.731 1.913-1.863 8.038-8.123 17.419-16.159 10.29-8.814 13.397-10.348 16.338-11.358 4.372-1.501 8.612-1.922 10.683-2.117 3.884-.365 5.074.076 13.958.208l13.4.2c4.626.069 9.345-.127 13.958.208 4.879.355 9.839 2.785 12.954 6.553a17.03 17.03 0 0 1 2.814 4.887c.717 1.922.769 3.535.703 5.575l-.45 13.897-.216 6.67c-.066 2.046.041 4.058-1.124 5.855-.77 1.188-1.971 1.903-2.901 2.936-.813.902-1.357 2.006-1.704 3.162a13.249 13.249 0 0 0-.459 2.31c-.046.398.032 1.032-.103 1.399l-.012.506-1.115.025a1766.29 1766.29 0 0 1-19.111.311c-6.976.074-13.952.104-20.928.085-11.959-.031-23.995-.694-35.946-.15-2.9.132-5.862.385-8.618 1.361-2.081.737-3.873 1.938-5.703 3.139-3.998 2.623-8.102 5.11-12.342 7.324-2.411 1.259-4.88 2.453-7.451 3.352-2.214.774-5.098 1.665-7.329.528-2.118-1.079-2.181-3.78-1.958-5.848z"/><path d="M112.031 160.662c.294.425 5.49-3.007 33.303-19.912 4.664-2.835 55.255-35.246 54-37.333-.64-1.065-14.661 5.946-22.106 10.055a186.568 186.568 0 0 0-8.54 5.029c-7.746 4.833-13.139 9.081-15.188 10.5-11.083 7.673-42.254 30.526-41.469 31.661zM136.541 155.822c16.108-7.484 33.589-11.975 51.322-13.073 6.815-.422 13.73-.399 20.513.456 1.181.149 7.555.414 8.061 1.983.529 1.638-14.201 1.245-16.084 1.249-6.687.014-9.052-.159-14.741.292-1.48.117-5.001.426-9.004 1.086-12.123 2.001-15.6 5.074-25.524 6.936-3.318.621-8.275 1.281-14.543 1.071zM212.432 110.922l-3.498 6.975-7.377 1.066 5.438 5.307-1.317 7.498 6.754-3.497 6.695 3.497-1.206-7.498 5.427-5.307-7.398-1.066z"/><path style="fill:#fff" d="m212.432 114.098-2.452 4.865-5.629.945 4.041 3.98-.965 5.408 5.025-2.553 4.845 2.553-.844-5.408 3.94-3.98-5.488-.945z"/></g></g></switch></svg>