<svg xmlns="http://www.w3.org/2000/svg" xml:space="preserve" style="enable-background:new 0 0 350 350" viewBox="0 0 350 350"><switch><g><path d="M45 45h260v260H45z" style="opacity:.4"/><path d="M73 73h204v204H73z" style="fill:#69686d"/><path d="M277 243 107 73H73v38.333L238.667 277H277z"/><path d="M236.53 144.144a6.999 6.999 0 0 0 1.915-4.811V113.06a16.953 16.953 0 0 0-.962-6.465 18.154 18.154 0 0 0-1.977-3.872c-5.189-7.611-16.783-10.207-19.055-10.65-7.109-1.381-13.061-1.571-18.435-1.571-2.312 0-4.733.04-7.297.082-15.005.246-19.005.323-20.861.642-7.234 1.242-21.262 4.957-33.931 15.891-1.766 1.525-3.846 3.779-8.402 8.717-12.467 13.512-19.132 22.418-23.061 27.941-11.324 15.918-13.691 23.092-9.38 28.428 1.35 1.671 3.914 3.664 8.461 3.664.174 0 .345-.003.514-.008l6.931-.098c.006.407-.003.815.015 1.22.141 3.081.688 5.591 1.217 8.018l.106.486.098.452c.973 4.49 1.742 8.036 3.863 12.121 1.635 3.15 3.16 4.852 4.385 6.221.999 1.116 1.789 1.998 2.939 3.982 1.609 2.775 2.381 5.129 3.129 7.405 1.37 4.175 1.604 6.586 1.852 9.139.197 2.033.401 4.136 1.126 6.729 3.014 10.784 11.21 16.687 18.442 21.896 6.53 4.703 14.654 10.555 26.014 10.555.281 0 .565-.004.849-.011 9.436-.244 16.243-4.451 22.825-8.519 7.637-4.72 12.079-9.768 15.019-13.107 2.872-3.263 4.432-5.656 5.565-8.534 1.065-2.707 1.316-4.744 1.605-7.103.117-.953.25-2.034.461-3.362.003-.018.458-2.804 1.717-7.926.997-4.053 2.544-6.173 4.685-9.108 2.179-2.986 4.89-6.702 7.095-12.751 2.4-6.586 2.845-12.192 3.275-17.614a86.897 86.897 0 0 0-.497-18.379 6.997 6.997 0 0 0-4.66-5.684v-3.072z"/><path d="M230.889 108.944s-.423-1.187-1.167-2.278c-3.838-5.629-14.611-7.722-14.611-7.722-8.347-1.622-14.953-1.514-24.278-1.361-12.26.201-18.39.301-19.792.542-5.116.878-18.401 3.814-30.542 14.292-1.465 1.265-3.588 3.565-7.833 8.167-11.924 12.924-18.511 21.643-22.5 27.25-11.527 16.204-10.359 19.08-9.639 19.972.769.952 2.203 1.098 3.361 1.056l7.861-.111a581.262 581.262 0 0 1 21.583-10.75c8.643-4.085 12.145-5.949 17.578-7.742 5.854-1.932 11.452-3.156 13.338-3.563a151.028 151.028 0 0 1 9.889-1.778c3.051-.42 5.546-.656 7.194-.792 14.959-1.227 22.519.741 24.875 1.417 3.023.867 5.134 1.8 5.069 2.042-.127.477-8.889-.982-12.278-1-1.535-.008-2.573.053-4.528.167a121.372 121.372 0 0 0-13.417 1.528c-6.808 1.182-12.76 2.909-17.287 4.438l61.342.174v-4.974a4.93 4.93 0 0 1 .458-2.04 4.943 4.943 0 0 1 1.25-1.653l4.625-4.889v-26.444a9.987 9.987 0 0 0-.551-3.948" style="fill:#337abb"/><path d="m118.083 172.333 17.778-9.222a43.578 43.578 0 0 1 14.944-4.611h79.028a79.79 79.79 0 0 1 .457 16.896c-.417 5.262-.799 10.079-2.874 15.77-3.95 10.839-9.487 12.364-12 22.583-1.364 5.546-1.833 8.5-1.833 8.5-.722 4.548-.58 6.24-1.667 9-.78 1.983-1.88 3.716-4.306 6.472-2.86 3.25-6.693 7.605-13.444 11.778-6.235 3.854-11.78 7.281-19.326 7.476-9.443.244-16.337-4.721-22.591-9.226-6.635-4.779-13.438-9.679-15.791-18.1-1.375-4.918-.353-7.892-3.068-16.167-.861-2.622-1.787-5.393-3.724-8.733-3.062-5.282-4.743-5.248-7.167-9.917-1.749-3.369-2.34-6.256-3.333-10.833-.551-2.539-1.049-4.676-1.171-7.339a32.914 32.914 0 0 1 .088-4.327" style="fill:#fff"/><path d="M201.983 101.882a66.502 66.502 0 0 0-11.816 3.618c-4.983 2.05-9.062 4.442-20.991 12.678-5.481 3.784-8.72 6.11-12.852 9.036-11.161 7.904-15.117 10.472-21.913 15.231-6.797 4.759-16.53 11.776-28.411 21.056a1345.29 1345.29 0 0 1 21.833-12.667c10.18-5.776 14.883-8.265 23.333-13.5 3.687-2.284 8.356-5.186 14.333-9.333 7.246-5.028 10.016-7.446 16.833-12.5a379.827 379.827 0 0 1 19.651-13.619M222 162.667c1.304 10.445.124 18.407-1.417 21.167-1.221 2.187-2.803 3.801-2.803 3.801s-1.233 1.258-2.838 2.325c-5.038 3.349-14.284 5.05-20.943 5.374-1.404.068-3.403.11-5.778-.667 0 0-1.993-.652-3.778-1.889-4.875-3.379-6.338-10.152-6.556-11.222h-6.333c-1.597 3.667-6.529 13.876-14.556 14.556-1.256.106-2.334-.042-4.75-.611-4.405-1.038-10.763-2.886-18.472-6.389a11.283 11.283 0 0 1-3.444-2.333c-3.443-3.444-3.561-8.304-3.667-12.667-.061-2.531.112-6.399 1.422-11.023a1048.402 1048.402 0 0 0 23.355 5.579c17.342 3.935 20.538 4.201 23.667 4.222 6.419.043 13.033-1.526 26-4.667A482.296 482.296 0 0 0 222 162.667m-10.111-54.535-2.547 6.398-1.239 3.112-3.343.216-6.872.445 5.298 4.399 2.577 2.14-.827 3.246-1.7 6.673 5.821-3.679 2.832-1.79 2.832 1.79 5.821 3.679-1.7-6.673-.827-3.246 2.577-2.14 5.298-4.399-6.872-.445-3.343-.216-1.239-3.112z"/><path d="m211.889 115.544 1.879 4.722 5.072.328-3.91 3.247 1.255 4.925-4.296-2.716-4.296 2.716 1.255-4.925-3.91-3.247 5.071-.328z" style="fill:#fff"/></g></switch></svg>