<svg xmlns="http://www.w3.org/2000/svg" viewBox="0 0 350 350"><switch><g><path d="M181.007 290H59.872V60h230.256v57.524l-.112 12.43-49.788-56.208L115 201l22.75 65.5 98.762 23.494-55.505.006z" fill="#fff"/><path d="M180.833 280.794H69.18V69.39h211.64v70.11L241.5 102l-16.667 73-81.178 27.735 37.178 78.059z"/><g fill="#fff"><path d="M270.167 185.167L272.5 203.5l15-15.333zM247.333 233l15 25.833 16.5-27.333zM276 258.833l11.5 7.5V252zM243.333 281.5l12.334-11.667 3.833 17z"/></g><g fill="#62565a"><path d="M44.025 231.666c-.556-1.031-2.763-.933-3.146-.18-.247.485.232 1.305.809 1.708.528.369 1.485.632 2.067.09.439-.408.528-1.141.27-1.618zM34.15 179.166c-.556-1.031-2.763-.933-3.146-.18-.247.485.232 1.305.809 1.708.528.369 1.485.632 2.067.09.439-.408.528-1.141.27-1.618zM162.75 247.75c-.54-1.88-3.58-6.78-35.37-6.37-20.08.25-16.48 2.17-26.5 1.37-6.77-.54-22.52-2.55-42.38-5.87-2.6-.44-5.31-.91-5.62-.13-.86 2.07 15.86 11.58 31.5 17.75 7.21 2.85 3.94.94 20.5 6.5 7.51 2.52 11.97 4.19 18 3.25 2.7-.42 3.09-.96 7.12-1.63 2.45-.4 7.6-1.21 13.88-.5 10.08 1.16 15.4 2.57 15.4 2.57.82.22 2.99.82 3.47.06.44-.68-.78-2.04-1.37-3-2.87-4.63 2.47-10.15 1.37-14zm-56.42 4.08c-.48-.4-1.74-1.45-1.5-2 .41-.92 4.73.18 5.34.34 4.56 1.18 10.19 4 9.83 5.16-.42 1.35-8.91.46-13.67-3.5zm26.67 6.84c-.24.55-1.77.35-2.5.16-.46-.11-1.46-.37-1.5-.83-.05-.54 1.2-1.39 2.33-1.17 1.06.21 1.89 1.33 1.67 1.84zM106.875 222.125c-2.987 2.183-8.851-7.083-29.125-18.875-14.531-8.451-33.195-16.298-37.125-17.125-.259-.055-1.386-.274-1.375-.5.018-.371 3.097-.648 5.5-.5 4.449.275 7.737 2.083 8.75 2.625 8.382 4.488 33 12.75 44.375 16 .54.154 1.958.331 3.5 1.25 6.274 3.741 8.406 15.002 5.5 17.125zM142.38 144.25c-.62-.68-1.24-1.04-1.38-1.13-5.1-3.05-29.75-26.99-29.75-27-13.956-12.249-13.956-12.249-17.826-16.599-.39-.43-4.058-2.975-5.758-2.855-.61.05-1.263.563-1.833.833-.56.27-.365 2.156-.365 2.156.719.578.188.75 4.781 5.964.971 1.102 3.21 3.82 2.5 4.88-.37.56-1.47.52-2.13.38-1.45-.33-1.95-1.48-3.12-2.63-1.44-1.42-4.39-3.32-6.25-2.37-1.55.78-2.18 3.47-1.37 5.12.5 1.04 1.51 1.51 1.74 1.62 6.61 3.24 35.21 33.46 42.5 36.63.48.2 2.05.38 3.13 1.63 1.65 1.9.44 4.03 1.5 5.37 2.25 2.85 13.73.73 15.25-5.13.491-1.879.141-4.919-1.619-6.869zm-25.21-8.75c-.37.17-1.12-.75-1.34-1-3.6-4.25-16.03-11.18-14.83-14 .24-.57 1.05-.96 1.67-1 1.12-.07 2.02.98 2.33 1.33 3.8 4.29 10.98 7.04 12.17 12.5.08.4.42 1.97 0 2.17zM78.375 96.125c-2.617.571-6.032-5.079-7.542-9.125-.791-2.12-1.349-3.615-.833-4 1.487-1.111 11.659 7.2 10.083 11.5-.272.743-.928 1.455-1.708 1.625zM59.491 76.487c-1.541.891-7.064-2.702-6.861-5.86.041-.642.292-.848.363-.901 1.204-.899 5.949.965 6.815 4.18.048.172.56 2.074-.317 2.581zM103.417 104.875c-2.431-1.462-10.505-9.799-12.792-11.167-.124-.074-.678-.395-1.042-1.042-.326-.579-.553-1.515-.167-2.083.557-.82 2.184-.573 2.667-.5 6.254.95 10.443 11.587 12.667 13.125.113.078.563.369.583.792.023.473-.498 1-1.042 1.083-.409.063-.756-.137-.874-.208zM120.375 112.875c-6.874-3.485-8.108-8.346-12.375-10.875-.268-.159-.896-.515-1-1.125-.223-1.305 2.004-3.411 3.75-3.125 1.297.212 1.481 1.606 4.125 3.125 1.218.7 1.516.598 1.625.5.393-.351-.594-1.586-.688-3.75-.031-.72-.08-1.849.5-2.188.614-.358 1.625.346 2.313.813 5.987 4.069 7.832 4.101 9.063 6.938.203.469.451 1.051.563 1.875.528 3.904-2.654 8.409-5.688 8.5-.585.017-1.09-.131-2.188-.688zM95.333 84.667c-1.294-2.795-5.936-4.614-10-9.667-1.444-1.795-3.544-4.906-3.083-5.333.965-.895 11.652 11.341 15.667 13.917.279.179 1.048.64 1 1.167-.064.704-1.58 1.412-2.583 1-.634-.261-.919-.908-1.001-1.084zM90.333 84.417c-2.663-4.476-7.139-8.21-12.75-12.833-1.486-1.225-2.069-1.408-2.25-1.25-.621.542 3.099 5.877 6.583 9.75 0 0 2.089 2.322 7.583 5.833.422.269 1.321.829 1.583.583.177-.165.075-.699-.749-2.083zM130.333 76.333c-.932-1.252-2.773-2.597-3.833-2-.603.339-.717 1.172-.75 1.417-.272 1.986 1.723 4.36 3.667 4.333.098-.001 1.297-.034 1.75-.833.578-1.02-.511-2.483-.834-2.917zM217.167 104c-.127-2.05-1.029-5.478-2.833-12.333-.911-3.461-1.538-5.58-.333-7.167.854-1.125 2.637-1.992 4-1.5 2.271.82 1.387 4.692 4.5 6.833.148.102 2.31 1.56 3.333.833 1.641-1.166.249-7.883-3.167-13-1.694-2.537-3.225-3.693-2.833-5.333.416-1.74 2.779-3.122 4.833-3 4.136.245 6.58 6.556 7.333 8.5 2.462 6.359-.342 8.349 1.667 11.667 3.815 6.302 15.198 2.044 18.583 8.125 1.78 3.198.76 8.195-1.75 10.375-2.739 2.38-5.765.111-9.625 3-2.128 1.592-1.92 2.814-5.042 5-3.164 2.216-4.83 2.065-5.5 1.667-1.501-.893-1.762-.023-2.667-8.917-.33-3.247.074-4.639-1-5.038-1.117-.415-1.921.264-2.333 1.788-.689 2.545 0 4.917-.198 7.429-1.231 15.605-6.645 2.949-8.135 1.904-1.168-.819 1.569-4.369 1.167-10.833zM243.667 71.333c-.745-.743-2.045-1.043-2.833-.5-1.157.797-1.041 3.293.333 4.167.758.482 1.941.498 2.667-.167.953-.873.749-2.585-.167-3.5zM118.833 61.833c-.635-.369-2.61.583-2.5 2 .078 1.001 1.165 1.843 1.833 1.667 1.06-.279 1.446-3.214.667-3.667zM104.5 50.833c-.796-.648-2.141-1.032-2.667-.5-.576.583-.04 2.134.833 3 .826.818 2.277 1.344 2.833.833.619-.566.137-2.407-.999-3.333zM271.333 72c-.825-.046-1.673 1.953-1.833 3.5-.094.902-.077 2.847.833 3.167.699.245 1.691-.548 2.167-1.333 1.212-2.002-.135-5.276-1.167-5.334zM142.5 94c-.562.644-4.655-2.633-5.667-1.667-.494.472-.009 1.724.167 2.167 1.374 3.451 4.719 5.207 9.5 7.833 7.754 4.259 8.922 5.115 9.667 4.5 1.484-1.225-.958-6.44-2-8.667-2.893-6.179-7.373-9.897-16.333-17.333-.468-.388-1.303-1.071-1.667-.833-.776.507.86 5.043 3.167 8.833 1.794 2.951 3.553 4.723 3.166 5.167z"/></g><g><radialGradient id="sledge-a" cx="13.708" cy="75.804" r="236.88" gradientUnits="userSpaceOnUse"><stop offset=".367" stop-color="#fff"/><stop offset=".976" stop-color="#906f79"/></radialGradient><path d="M47.75 200.5l115.042 66.333 55.802-20.927-98.969-42.656-71.875-2.75z" fill="url(#sledge-a)"/><radialGradient id="sledge-b" cx="31.489" cy="63.188" r="236.044" gradientUnits="userSpaceOnUse"><stop offset=".296" stop-color="#fff"/><stop offset=".944" stop-color="#906f79"/></radialGradient><path d="M251.5 216.438l-16.587-96.103-69.663-79.584 32.25 123-157.5-43 96.188 74.781L251.5 216.438z" fill="url(#sledge-b)"/><radialGradient id="sledge-c" cx="120.005" cy="43.05" r="195.936" gradientUnits="userSpaceOnUse"><stop offset=".571" stop-color="#fff"/><stop offset=".944" stop-color="#906f79"/></radialGradient><path d="M259.667 61.754l30.911 69.059-16.703 18.188-20.583-37.333 6.375-49.914z" fill="url(#sledge-c)"/><path d="M244.919 247.865l-61.282 22.504 52.625 10.375.25 9.25L140.416 274l76.083-28.167L57 181l192.969 33.656L222.25 52.75l51.689 94.626 23.907-26.049-7.833 61.417h-11.25l3.25-27.125-10.625 9.625-28.125-51.625 17.558 110.615-109.183-17.365 93.281 40.996z" fill="#fff"/></g><g><path fill="#fff" d="M65.069 234.588l131.717-131.795 19.743 19.742L64.295 274.986z"/><path d="M196.786 107.036l15.501 15.501-144.85 145.056.607-31.74 128.742-128.817m-.001-8.486l-4.243 4.245L63.876 231.537l-.075.075-1.709 1.71-.046 2.417-.304 15.87-.304 15.87-.285 14.899 10.53-10.545 144.85-145.056 4.237-4.243-4.24-4.24-15.501-15.501-4.244-4.243z"/><path fill="#fff" d="M59.872 217.167h9.308V287.5h-9.308z"/><g><path d="M193.23 192.48l-73.246-73.598 20.688-18.655 1.993 2.435c.92 1.124 5.925 6.733 14.132 6.775 8.927 0 14.164-6.549 14.732-7.296l2.092-2.751 57.124 57.81.041 10.403-25.573 24.945-11.983-.068z" fill="#fff"/><path d="M173.917 103.958l53.833 54.479.031 7.906L204 189.541l-9.516-.054L124.334 119l16.01-14.438c.778.95 6.607 7.824 16.438 7.875h.109c10.358.001 16.368-7.615 17.026-8.479m-.589-9.131l-4.185 5.497c-.477.626-4.869 6.114-12.253 6.114h-.077c-6.862-.035-11.056-4.735-11.828-5.677l-3.987-4.869-4.673 4.214-8.005 7.219-8.005 7.219-4.681 4.221 4.446 4.467 35.075 35.244 35.075 35.244 1.745 1.753 2.474.014 4.772.027 4.745.027 2.462.014 1.762-1.719 15.854-15.465 7.927-7.733 1.82-1.776-.01-2.543-.021-5.271-.01-2.635-.01-2.45-1.722-1.743-53.833-54.479-4.857-4.914z"/></g></g></g></switch></svg>