<svg xmlns="http://www.w3.org/2000/svg" viewBox="0 0 350 350" style="enable-background:new 0 0 350 350" xml:space="preserve"><switch><g><path style="fill:#fff" d="M177.426 59.99c4.402-5.492 11.094-9 18.582-9 5.12 0 9.867 1.64 13.766 4.433a41.801 41.801 0 0 1 25.236-8.433c19.837 0 36.481 13.782 40.87 32.284 7.256 4.168 12.133 11.89 12.133 20.718 0 .902-.051 1.792-.15 2.668 6.799 5.501 11.15 13.914 11.15 23.333 0 7.874-3.04 15.045-8.01 20.399a21.954 21.954 0 0 1 1.01 6.602c0 3.272-.716 6.379-2 9.171V290H60.002V59.99h117.424z"/><path d="M178.007 69.99h1.58c3.149-7.627 10.662-13.001 19.421-13.001 4.851 0 9.32 1.649 12.878 4.416a35.85 35.85 0 0 1 23.124-8.416c17.716 0 32.46 12.824 35.449 29.687 6.67 2.11 11.553 8.843 11.553 16.815 0 1.442-.16 2.843-.461 4.184 6.873 4.399 11.461 12.305 11.461 21.317 0 8.397-3.983 15.834-10.087 20.369a14.916 14.916 0 0 1 2.087 7.632c0 2.738-.735 5.306-2.019 7.516l-.004.007-.047.08-.048.082-.002.003a15.091 15.091 0 0 1-2.88 3.488v.001a14.944 14.944 0 0 1-10 3.823 14.93 14.93 0 0 1-7.5-2.009l-3.5 6.062a21.886 21.886 0 0 0 11 2.947c3.6 0 6.999-.867 10-2.402V280H70.002V69.99H161.4c-5.738 4.771-9.394 11.963-9.394 20.001h6c0-11.038 8.963-20.001 20.001-20.001z"/><path style="fill:#906f79" d="M270.011 269.999H80.003V179.03a17.905 17.905 0 0 1 10-3.035c1.379 0 2.721.155 4.012.45.288-6.921 5.998-12.451 12.989-12.451 3.95 0 7.49 1.765 9.875 4.549-2.644-7.315-9.653-12.55-17.876-12.55a18.914 18.914 0 0 0-11.564 3.927 19.094 19.094 0 0 0-7.437-6.163v-15.01a12.94 12.94 0 0 1 7.042-2.72c.489-5.62 5.212-10.035 10.958-10.035 1.042 0 2.05.145 3.005.416a15.961 15.961 0 0 1 11.996-5.416h47.002V94.991c0-9.383 7.617-17.001 17.001-17.001 2.525 0 4.923.552 7.078 1.541a15.376 15.376 0 0 1-.078-1.541c0-8.279 6.721-15.001 15.001-15.001 5.257 0 9.886 2.71 12.566 6.808 5.889-5.465 13.776-8.808 22.436-8.808 16.062 0 29.459 11.5 32.4 26.707 5.575 1.847 9.601 7.104 9.601 13.295 0 1.941-.396 3.791-1.112 5.472 6.611 3.539 11.112 10.512 11.112 18.529 0 7.452-3.89 14.003-9.748 17.731a10.956 10.956 0 0 1 2.748 7.27c0 5.388-3.882 9.877-9 10.818v7.182a14.93 14.93 0 0 1-7.5-2.009l-3.5 6.062a21.886 21.886 0 0 0 11 2.947v15.223a32.159 32.159 0 0 0-11.504 9.457 23.898 23.898 0 0 0-15.497-5.679c-11.004 0-20.29 7.422-23.117 17.53 3.053-4.54 8.238-7.529 14.117-7.529 8.434 0 15.443 6.156 16.774 14.217a24.025 24.025 0 0 1 3.227-.216 23.908 23.908 0 0 1 16.001 6.118v45.885z"/><path style="fill:#fff" d="m197.008 72.991-48.002 59.003-61.003 91.004 64.003-80.003 45.002-70.004zM231.01 69.99l-32.001 34.001 5 4L231.01 69.99zM259.011 112.992l-22.001 21.001-20.001 23.001 23.001-20.001 19.001-24.001zM276.011 116.992l-31.001 32.001-33.001 27.001 34.001-34.001 30.001-25.001zM235.01 171.995l36.002-27.001-29.001 27.001-43.002 35.002 36.001-35.002z"/><path style="fill:#fff;fill-opacity:.2" d="M182.738 269.999H80.003v-30.681c4.071 3.118 10.542 7.355 16.001 7.68 8.71.519 14.546.635 26.001-6s41.975-17.39 20.001-49.002-2.05-48.534 34.001-46.002c36.052 2.532 49.002 23.001 49.002 23.001s4.056 14.12 4.071 29.46a24.051 24.051 0 0 0-9.187 13.071 17.05 17.05 0 0 1 8.9-6.712c-1.735 15.805-12.05 32.107-16.785 36.185-5.017 4.32-19.2 16.245-23.001 20.001-2.025 2-4.448 5.844-6.269 8.999z"/><radialGradient id="smoke-a" cx="171.49" cy="281.488" r=".678" gradientTransform="matrix(169.5133 0 0 -169.5133 -28894.842 47891.008)" gradientUnits="userSpaceOnUse"><stop offset="0" style="stop-color:#fff;stop-opacity:.25"/><stop offset=".51" style="stop-color:#fff;stop-opacity:.25"/><stop offset=".8" style="stop-color:#fff;stop-opacity:0"/><stop offset="1" style="stop-color:#fff;stop-opacity:0"/></radialGradient><path style="fill:url(#smoke-a)" d="M60.002 59.99h230.01V290H60.002z"/><g><path d="M175.007 80.991c-.196.016-57.003 4.566-57.003 59.003 0 6.741 1.465 13.322 5 25.001 3.894 12.867 4 28.001 4 28.001l18.001 12.001v7l-10 11 21.001 20.001 5-5 7 7 7-6 7 6 7-7 5 5 21.001-20.001-10-11v-7l18.001-12.001s.106-15.135 4-28.001c3.535-11.68 5-18.26 5-25.001.002-54.455-56.843-58.99-57.001-59.003zm-11.001 90.485c-.11 2.474-.426 4.955-1.217 7.287-2.144 6.325-9.031 6.406-14.284 3.205-6.85-4.176-7.259-13.518-6.456-21.647.009-.079-.046-.272.025-.237 7.345 3.716 14.623 7.563 21.934 11.346l-.002.046zm4.001 38.52 7-15.001 7 15.001h-14zm33.502-28.028c-5.252 3.201-12.14 3.12-14.284-3.205-.791-2.332-1.107-4.813-1.217-7.287l-.002-.046c7.311-3.782 14.589-7.629 21.934-11.346.071-.035.016.158.025.237.803 8.13.394 17.471-6.456 21.647z"/><path style="fill:#fff" d="M223.491 116.799c-8.178-18.5-28.15-29.503-48.279-31.768l-.205-.022-.205.022c-20.129 2.265-40.101 13.269-48.279 31.768-5.048 11.42-5.569 24.523-2.669 36.385.617 2.528 1.319 5.035 2.05 7.532 2.838 9.695 4.604 19.732 5.033 29.845l.01.255 18.059 12.039v10.688l-8.411 9.253 15.344 14.613 5.068-5.068 7.209 7.209 6.791-6.552 6.791 6.552 7.209-7.209 5.068 5.068 15.344-14.613-8.411-9.253v-10.688l18.059-12.039.01-.255c.429-10.113 2.195-20.15 5.033-29.845.731-2.497 1.433-5.004 2.05-7.532 2.9-11.861 2.379-24.964-2.669-36.385zm-66.485 71.197c-26.193 0-18.001-34.001-18.001-34.001l29.001 15.001c.001-.001 1.09 19-11 19zm4 26.001 14.001-28.001 14.001 28.001h-28.002zm32.002-26.001c-12.089 0-11-19.001-11-19.001l29.001-15.001s8.192 34.002-18.001 34.002z"/><path style="fill:#fff" d="M128.823 217.46c2.485-2.485 12.165 3.157 21.601 12.594 9.435 9.436 15.079 19.115 12.593 21.601l-12.593 12.593c-5.47 5.47-17.573 2.251-27.009-7.185-9.435-9.435-12.656-21.538-7.185-27.008l12.593-12.595z"/><path d="m118.925 227.358 9.898-9.898c2.485-2.485 12.165 3.157 21.601 12.594 9.435 9.436 15.079 19.115 12.593 21.601l-9.898 9.898-2.694 2.694c-5.47 5.47-17.573 2.251-27.009-7.185-9.435-9.435-12.656-21.538-7.185-27.008l2.694-2.696zm.863 4.794-.722.722c-3.072 3.106-1.264 8.093.152 11.336 4.343 9.937 14.168 19.023 24.289 18.697 1.47-.047 3.022-.433 4.096-1.496l.722-.722c-1.734-4.388-6.107-10.514-12.065-16.472-5.958-5.957-12.083-10.331-16.472-12.065zm4.667-4.667c4.388 1.734 10.514 6.107 16.472 12.065 5.957 5.958 10.331 12.084 12.065 16.473l6.541-6.541c-.756-3.367-3.151-6.365-5.46-9.323-5.919-7.579-12.82-14.947-21.545-18.686-.6-.257-1.532-.528-1.532-.528l-6.541 6.54z"/><g><path style="fill:#fff" d="M221.191 217.46c-2.485-2.485-12.165 3.157-21.601 12.594-9.435 9.436-15.079 19.115-12.593 21.601l12.593 12.593c5.47 5.47 17.573 2.251 27.009-7.185 9.435-9.435 12.656-21.538 7.185-27.008l-12.593-12.595z"/><path d="m231.09 227.358-9.898-9.898c-2.485-2.485-12.165 3.157-21.601 12.594-9.435 9.436-15.079 19.115-12.593 21.601l9.898 9.898 2.694 2.694c5.47 5.47 17.573 2.251 27.009-7.185 9.435-9.435 12.656-21.538 7.185-27.008l-2.694-2.696zm-.864 4.794.722.722c3.072 3.106 1.264 8.093-.152 11.336-4.343 9.937-14.168 19.023-24.289 18.697-1.47-.047-3.022-.433-4.096-1.496l-.722-.722c1.734-4.388 6.107-10.514 12.065-16.472 5.958-5.957 12.083-10.331 16.472-12.065zm-4.667-4.667c-4.388 1.734-10.514 6.107-16.472 12.065-5.957 5.958-10.331 12.084-12.065 16.473l-6.541-6.541c.756-3.367 3.151-6.365 5.46-9.323 5.919-7.579 12.82-14.947 21.545-18.686.6-.257 1.532-.528 1.532-.528l6.541 6.54z"/></g></g></g></switch></svg>