<svg xmlns="http://www.w3.org/2000/svg" viewBox="0 0 350 350" style="enable-background:new 0 0 350 350" xml:space="preserve"><switch><g><path style="opacity:.4" d="M45 45h260v260H45z"/><path d="M73 73h204v204H73z"/><path style="fill:#88666f" d="M73 181.444c1.354-1.181 3.293-2.522 5.846-3.381 2.529-.85 4.69-.901 6.209-.925a24.4 24.4 0 0 1 3.889.25c.05-.952.397-5.713 4.361-9.194 3.28-2.881 7.004-3.1 8.223-3.154 6.903-.303 11.468 4.749 12.138 5.515-4.553-9.572-13.344-15.121-21.5-14.028-4.882.654-8.34 3.528-10.111 5.306a26.526 26.526 0 0 0-9.056-7.333v-14.889a9.902 9.902 0 0 1 3.958-3.215 9.808 9.808 0 0 1 3.819-.84c.291-.942 2.229-6.87 8.213-9.378 3.128-1.311 5.991-1.113 7.454-.9.605-.7 5.521-6.193 13.389-5.833 6.797.311 10.914 4.766 11.667 5.611L157.291 118c-5.923-13.147-3.557-27.538 5.292-35.5 6.892-6.201 15.522-6.527 18.499-6.5a19.255 19.255 0 0 1 13.168-14.083 19.26 19.26 0 0 1 18.917 4.583c8.892-8.084 21.517-10.682 32.833-6.75 11.518 4.002 19.889 14.146 21.667 26.25 1.325.47 6.464 2.465 9.667 8.083 3.249 5.701 2.279 11.225 2 12.583.488.343 10.882 7.915 9.833 20.333-.789 9.342-7.488 14.747-8.667 15.667.831 1.919 3.335 8.367.917 15.75-1.157 3.531-3.038 6.049-4.417 7.583v30.167l-.556-3.667a30.744 30.744 0 0 0-13.277 10.167c-1.515-1.61-5.476-5.374-11.667-6.5-7.48-1.361-13.302 2.024-16.222 3.722-7.627 4.435-11.132 11.163-12.444 14.111a25.203 25.203 0 0 1 7.444-5.056c1.535-.678 3.665-1.597 6.5-1.833 1.407-.117 6.76-.48 11.556 3.167 5.82 4.425 6.281 11.304 6.333 12.333a26.746 26.746 0 0 1 9.146-.164c2.572.404 6.648 1.096 10.354 4.219a17.107 17.107 0 0 1 2.833 3.056v47.278H73v-95.555z"/><path style="fill:#fff" d="M197.583 73.333a1968.362 1968.362 0 0 1-110 150.084 2372.431 2372.431 0 0 1 37.917-55.25c33.635-47.551 55.025-74.041 61.5-82 4.39-5.396 8.069-9.827 10.583-12.834zM231 71.083a277.448 277.448 0 0 0-12.292 12.458c-5.394 5.823-10.88 11.746-16.625 19.833-4.031 5.675-9.063 13.647-13.75 23.958A1092.563 1092.563 0 0 0 231 71.083zm28.25 42.125a233.136 233.136 0 0 1-9.908 13.041c-4.802 5.876-8.382 9.666-12.397 13.917-2.803 2.967-4.398 4.54-6.596 6.298a51.76 51.76 0 0 1-8.848 5.702 153.082 153.082 0 0 1 9.079-11.822c4.853-5.719 8.963-9.708 12.037-12.677a215.61 215.61 0 0 1 11.273-10.113 224.497 224.497 0 0 1 5.36-4.346zm17.542 2.834c.305.326-6.561 7.197-15.083 15.708-9.696 9.684-14.544 14.526-18.625 18.25-4.906 4.477-9.095 8.038-16.375 15.083a429.593 429.593 0 0 0-5.333 5.25l4.542-8.583a821.262 821.262 0 0 1 6.292-6.25c1.952-1.919 17.893-17.518 39.45-35.527 2.624-2.194 4.962-4.113 5.132-3.931zm-7.125 29.708a433.544 433.544 0 0 1-29.75 27.417l-22.25 18.417-.25-6.042a908.124 908.124 0 0 1 52.25-39.792z"/><path style="fill:#fff" d="M262.583 165.667c.859.99 2.542 2.653 5.167 3.667 3.313 1.279 6.206.782 7.958.458 1.492-.276 7.208-1.426 11.208-6.708 4.983-6.579 3.211-14.162 2.958-15.167 1.523-1.512 8.662-8.918 8.792-20.5.159-14.202-10.357-22.66-11.604-23.629.207-2.316.549-9.553-4.187-16.329-2.48-3.548-5.441-5.666-7.417-6.833-.931-3.348-4.9-16.08-17.794-24.431-10.334-6.692-20.632-6.833-24.442-6.694-11.538.42-19.635 5.444-22.764 7.625-1.63-1.223-6.608-4.63-13.792-4.667-6.049-.03-10.483 2.345-12.5 3.625-6.449 4.092-8.879 10.108-9.583 12.083-2.189-.023-6.36.229-10.875 2.5-1.887.949-6.314 3.251-9.208 8.375-3.743 6.626-2.3 13.326-1.875 15.042l5.25-.625c.253-1.2 2.498-11.025 11.805-15.329 5.59-2.585 10.816-1.831 12.861-1.421.318-1.643 1.683-7.633 7.042-11.25 6.304-4.255 15.564-3.492 22.625 2.25 1.08-.932 14.046-11.734 30.695-7.245 12.264 3.307 21.662 13.6 24.152 26.425 1.642.723 4.478 2.262 6.736 5.319 4.717 6.387 2.882 13.936 2.583 15.083.711.328 10.302 4.947 11.836 15.485 1.172 8.052-2.846 16.219-10.169 20.557.409.478 5.421 6.526 3.417 13.167-1.986 6.583-10.091 11.173-18.875 9.167z"/><path d="M184.396 80.062c.404-7.328 5.599-13.361 12.312-14.646 5.602-1.072 11.479 1.31 15.083 6.083.616-.608 13.317-12.714 30.276-8.315 11.773 3.054 20.812 12.821 23.141 25.002 1.067.43 5.817 2.476 8.375 7.896 2.59 5.488 1.086 10.52.736 11.597 7.077 4.01 11.342 11.479 10.958 19.264-.471 9.571-7.743 15.042-8.736 15.764 3.789 5.58 3.597 12.818-.319 17.736-4.988 6.263-13.241 5.277-13.639 5.222.841.371 8.693 3.688 15.139-.5 3.515-2.284 4.969-5.733 5.667-7.389 2.356-5.591 1.387-10.719.903-12.694 1.47-1.472 7.953-8.286 8.097-18.806.031-2.254-.167-9.25-4.944-15.833a25.626 25.626 0 0 0-5.486-5.528c.198-1.999.384-6.628-2.042-11.708-2.662-5.575-6.907-8.424-8.611-9.444-.951-3.48-3.441-10.731-10.014-17.264-9.475-9.416-20.788-10.734-23.456-10.978-13.673-1.249-23.403 5.33-25.835 7.082-1.644-1.202-6.184-4.179-12.625-4.229-1.736-.014-8.857.144-14.667 5.667-3.348 3.182-4.791 6.749-5.403 8.625-1.877-.212-6.901-.523-12.128 2.382-4.473 2.486-6.703 5.998-7.344 7.077-2.907 4.892-2.79 9.649-2.658 11.417a60.467 60.467 0 0 1 5.367-6.042c3.783-3.721 6.897-6.713 11.55-7.828a19.954 19.954 0 0 1 3.991-.506c2.694-.06 4.884.45 6.312.896z"/><path d="m239.033 233.174-2.364-2.858-4.79-4.884-2.815-2.87-5.685-5.797-1.918-1.955-2.618.805a46.342 46.342 0 0 0-7.032 2.822l-.898-.888-5.955-5.887v-7.37l16.571-10.304 2.158-1.342-.035-2.541a82.967 82.967 0 0 1 .382-9.142c.551-5.67 1.512-9.392 2.625-13.702.323-1.25.655-2.539.991-3.922 3.059-12.591 4.743-19.526 3.828-28.783-.9-9.092-3.973-16.108-5.13-18.75-1.533-3.498-3.849-8.785-8.546-14.147-5.579-6.369-11.578-9.511-15.547-11.591-8.208-4.3-17.237-6.933-26.837-7.828l-.435-.041-.435.044a72.753 72.753 0 0 0-16.346 3.583c-6.33 2.179-15.895 5.473-24.569 14.565-10.329 10.828-12.824 23.007-13.764 27.592-1.483 7.24-1.299 13.437-1.057 16.487.266 3.358.871 6.248 1.874 11.037 1.099 5.248 1.928 8.448 2.659 11.271.449 1.732.837 3.228 1.214 4.928 1.307 5.883 2.002 12.122 2.065 18.544l.024 2.465 2.09 1.307 16.344 10.22v7.511l-2.266 2.329-3.542 3.639-.874.898a46.118 46.118 0 0 0-7.354-2.93l-2.581-.777-1.903 1.909-8.361 8.389-4.851 4.867-2.363 2.774c-.855 2.802-1.137 5.66-.838 8.494.55 5.211 2.885 8.748 4.761 11.59 1.575 2.385 3.566 4.707 5.758 6.715 1.755 1.607 4.406 4.034 8.69 5.862 1.76.751 4.705 2.007 8.561 2.007.547 0 1.102-.026 1.65-.077a18.32 18.32 0 0 0 4.492-1.001l2.795-1.895 5.033-5.033 8.583-8.583 1.896-1.896-.765-2.57a47.314 47.314 0 0 0-2.832-7.239l.601-.49 1.74-1.42 4.014 3.868 2.991 2.883 3.112-2.751 3.472-3.069.486-.43.477.424 3.458 3.069 3.081 2.735 2.995-2.828 2.699-2.548 1.306-1.233 1.353 1.127.685.57a45.933 45.933 0 0 0-2.804 7.105l-.748 2.498 1.796 1.891 8.417 8.861 4.845 5.101 3.228 2.073a16.752 16.752 0 0 0 5.976 1.102c5.853 0 10.557-2.995 12.818-4.435 3.325-2.117 5.399-4.34 7.228-6.3 2.262-2.424 4.398-4.713 6.017-8.515 1.61-3.781 1.882-7.157 1.9-8.833a22.569 22.569 0 0 0-.881-6.506zm-76.046-57.052c-.452 2.134-.758 3.404-1.776 4.675-.383.478-1.18 1.472-2.536 1.991a4.54 4.54 0 0 1-1.695.301c-.694 0-1.442-.115-2.347-.265-1.076-.179-4.35-.722-6.985-2.902-5.196-4.299-5.056-13.026-4.972-18.24.004-.273.012-.546.022-.818l8.713 4.121 12.047 5.698a22.662 22.662 0 0 1-.471 5.439zm4.015 32.711 7.013-13.352 7.067 13.352h-14.08zm19.789-35.45a18.227 18.227 0 0 1-.17-2.687l5.529-2.623 15.106-7.166c.1 1.982.1 3.954 0 5.904-.248 4.85-.979 7.075-1.589 8.472-.438 1.005-.935 2.144-1.948 3.317-2.024 2.344-4.585 3.133-5.961 3.557-1.731.534-3.366 1.038-4.781 1.038-.64 0-1.176-.103-1.687-.325-1.547-.669-3.582-2.859-4.499-9.487z"/><path style="fill:#fff" d="M227 135c-.813-8.215-3.517-14.517-4.774-17.387-1.611-3.678-3.655-8.245-7.809-12.988-4.925-5.623-10.108-8.4-14.25-10.569-4.957-2.597-13.492-6.245-25.167-7.333a68.14 68.14 0 0 0-15.333 3.361c-5.972 2.056-14.86 5.117-22.778 13.417-9.248 9.694-11.663 20.761-12.611 25.389-1.521 7.426-1.108 13.602-.979 15.228.239 3.011.76 5.538 1.792 10.47 1.761 8.412 2.846 11.573 3.862 16.145 1 4.503 2.089 11.076 2.172 19.476l18.458 11.542v11.833l-7.083 7.278a38.802 38.802 0 0 1 14.027 14.389l4.833-3.944 6.889 6.639 6.944-6.139 6.917 6.139 6.906-6.521 4.42 3.681a36.162 36.162 0 0 1 5.84-7.91 36.156 36.156 0 0 1 8.472-6.444l-7.292-7.208v-11.75l18.694-11.625c-.03-2.222.008-5.582.403-9.639.748-7.69 2.201-11.989 3.722-18.25 2.985-12.277 4.565-18.785 3.725-27.28zm-73.105 52.263c-1.288-.214-5.547-.921-9.117-3.874-6.861-5.677-6.697-15.947-6.603-21.779.05-3.115.427-5.698.77-7.499l28.778 13.611c.533 4.057.099 7.294-.333 9.333-.49 2.312-.965 4.431-2.667 6.556-.588.734-1.993 2.445-4.442 3.381-2.381.91-4.453.592-6.386.271zm5.661 26.07 14.444-27.5 14.556 27.5h-29zm52.194-46.291c-.284 5.545-1.167 8.229-1.958 10.042-.545 1.25-1.237 2.803-2.667 4.458-2.812 3.256-6.293 4.378-8.042 4.917-3.025.932-6.33 1.951-9.583.542-5.71-2.474-6.822-10.51-7.167-13a22.982 22.982 0 0 1 0-6.25l28.75-13.639c.809 5.298.831 9.73.667 12.93zm-82 52.958-8.361 8.389a42.076 42.076 0 0 1 5.111 2.403c5.444 3.019 8.832 6.479 11.625 9.375 2.657 2.755 5.484 5.729 8.042 10.458a40.682 40.682 0 0 1 2.542 5.708l8.583-8.583c-1.132-3.8-4.252-12.354-12.5-19.5-5.667-4.91-11.469-7.175-15.042-8.25zm63 27.528 8.417 8.861a47.708 47.708 0 0 1 2.917-6.056c3.456-6.047 7.367-9.813 9.542-11.875 2.278-2.161 5.599-5.264 10.81-7.967a42.499 42.499 0 0 1 4.231-1.908l-8.5-8.667c-3.604 1.108-11.138 3.96-17.875 11.083-5.963 6.306-8.477 12.97-9.542 16.529zm-77.458-13.361c.741.039 1.854.145 3.167.458 3.414.816 5.766 2.466 7.417 3.708 7.425 5.586 13.405 12.482 15.292 16.667 1.297 2.875 1.406 5.586 1.406 5.586.028.698-.003 1.268-.031 1.622-.779.28-1.944.621-3.388.755-3.465.322-6.128-.778-8.029-1.589-3.505-1.496-5.729-3.496-7.417-5.042a31.834 31.834 0 0 1-5.042-5.875c-1.707-2.586-3.607-5.464-4.042-9.583-.305-2.891.229-5.274.667-6.707zm92.291 28.291a13.88 13.88 0 0 1 .042-2.708c.312-2.749 1.395-4.848 2.5-6.625 5.201-8.364 13.954-14.508 15.495-15.59 1.31-.92 3.22-2.165 5.947-2.769a14.835 14.835 0 0 1 3.141-.349c.355 1.234.732 3.032.707 5.214-.009.852-.102 3.741-1.541 7.12-1.283 3.012-2.973 4.857-5.167 7.208-1.777 1.904-3.512 3.764-6.355 5.574-2.347 1.495-7.194 4.581-12.729 3.509-.891-.173-1.6-.416-2.04-.584z"/></g></switch></svg>