<svg xmlns="http://www.w3.org/2000/svg" viewBox="0 0 350 350"><switch><g><path d="M177.426,59.99c4.402-5.492,11.094-9,18.582-9c5.12,0,9.867,1.64,13.766,4.433 c7.027-5.294,15.769-8.433,25.236-8.433c19.837,0,36.481,13.782,40.87,32.284c7.256,4.168,12.133,11.89,12.133,20.718 c0,0.902-0.051,1.792-0.15,2.668c6.799,5.501,11.15,13.914,11.15,23.333c0,7.874-3.04,15.045-8.01,20.399 c0.656,2.084,1.01,4.302,1.01,6.602c0,3.272-0.716,6.379-2,9.171V290H60.002V59.99H177.426z" fill="#fff"/><path d="M178.007,69.99h1.58c3.149-7.627,10.662-13.001,19.421-13.001c4.851,0,9.32,1.649,12.878,4.416 c6.257-5.252,14.324-8.416,23.124-8.416c17.716,0,32.46,12.824,35.449,29.687c6.67,2.11,11.553,8.843,11.553,16.815 c0,1.442-0.16,2.843-0.461,4.184c6.873,4.399,11.461,12.305,11.461,21.317c0,8.397-3.983,15.834-10.087,20.369 c1.326,2.236,2.087,4.846,2.087,7.632c0,2.738-0.735,5.306-2.019,7.516l-0.004,0.007l-0.047,0.08l-0.048,0.082l-0.002,0.003 c-0.781,1.304-1.754,2.48-2.88,3.488v0.001c-2.655,2.377-6.16,3.823-10,3.823c-2.731,0-5.293-0.732-7.5-2.009l-3.5,6.062 c3.237,1.874,6.994,2.947,11,2.947c3.6,0,6.999-0.867,10-2.402V280H70.002V69.99H161.4c-5.738,4.771-9.394,11.963-9.394,20.001 h6C158.006,78.953,166.969,69.99,178.007,69.99L178.007,69.99z"/><path d="M270.011,269.999H80.003V179.03c2.861-1.917,6.301-3.035,10-3.035 c1.379,0,2.721,0.155,4.012,0.45c0.288-6.921,5.998-12.451,12.989-12.451c3.95,0,7.49,1.765,9.875,4.549 c-2.644-7.315-9.653-12.55-17.876-12.55c-4.349,0-8.359,1.464-11.564,3.927c-1.899-2.642-4.459-4.777-7.437-6.163v-15.01 c1.971-1.541,4.397-2.527,7.042-2.72c0.489-5.62,5.212-10.035,10.958-10.035c1.042,0,2.05,0.145,3.005,0.416 c2.932-3.321,7.221-5.416,11.996-5.416h47.002V94.991c0-9.383,7.617-17.001,17.001-17.001c2.525,0,4.923,0.552,7.078,1.541 c-0.051-0.506-0.078-1.021-0.078-1.541c0-8.279,6.721-15.001,15.001-15.001c5.257,0,9.886,2.71,12.566,6.808 c5.889-5.465,13.776-8.808,22.436-8.808c16.062,0,29.459,11.5,32.4,26.707c5.575,1.847,9.601,7.104,9.601,13.295 c0,1.941-0.396,3.791-1.112,5.472c6.611,3.539,11.112,10.512,11.112,18.529c0,7.452-3.89,14.003-9.748,17.731 c1.71,1.939,2.748,4.484,2.748,7.27c0,5.388-3.882,9.877-9,10.818v7.182c-2.731,0-5.293-0.732-7.5-2.009l-3.5,6.062 c3.237,1.874,6.994,2.947,11,2.947v15.223c-4.539,2.214-8.478,5.47-11.504,9.457c-4.182-3.542-9.591-5.679-15.497-5.679 c-11.004,0-20.29,7.422-23.117,17.53c3.053-4.54,8.238-7.529,14.117-7.529c8.434,0,15.443,6.156,16.774,14.217 c1.055-0.143,2.133-0.216,3.227-0.216c6.145,0,11.753,2.314,16.001,6.118V269.999L270.011,269.999z" fill="#906f79"/><path d="M197.008 72.991l-48.002 59.003-61.003 91.004 64.003-80.003L197.008 72.991zM231.01 69.99l-32.001 34.001 5 4L231.01 69.99zM259.011 112.992l-22.001 21.001-20.001 23.001 23.001-20.001L259.011 112.992zM276.011 116.992l-31.001 32.001-33.001 27.001 34.001-34.001L276.011 116.992zM235.01 171.995l36.002-27.001-29.001 27.001-43.002 35.002L235.01 171.995z" fill="#fff"/><path d="M182.738,269.999H80.003v-30.681c4.071,3.118,10.542,7.355,16.001,7.68 c8.71,0.519,14.546,0.635,26.001-6s41.975-17.39,20.001-49.002s-2.05-48.534,34.001-46.002 c36.052,2.532,49.002,23.001,49.002,23.001s4.056,14.12,4.071,29.46c-4.399,3.142-7.694,7.732-9.187,13.071 c2.108-3.135,5.233-5.53,8.9-6.712c-1.735,15.805-12.05,32.107-16.785,36.185c-5.017,4.32-19.2,16.245-23.001,20.001 C186.982,263,184.559,266.844,182.738,269.999z" fill="#fff" fill-opacity=".2"/><radialGradient id="a" cx="171.49" cy="281.488" r=".678" gradientTransform="matrix(169.5133 0 0 -169.5133 -28894.842 47891.008)" gradientUnits="userSpaceOnUse"><stop offset="0" stop-color="#fff" stop-opacity=".25"/><stop offset=".51" stop-color="#fff" stop-opacity=".25"/><stop offset=".8" stop-color="#fff" stop-opacity="0"/><stop offset="1" stop-color="#fff" stop-opacity="0"/></radialGradient><path fill="url(#a)" d="M60.002 59.99H290.012V290H60.002z"/><path d="M175.007,80.991c-0.196,0.016-57.003,4.566-57.003,59.003c0,6.741,1.465,13.322,5,25.001 c3.894,12.867,4,28.001,4,28.001l18.001,12.001v7l-10,11l21.001,20.001l5-5l7,7l7-6l7,6l7-7l5,5l21.001-20.001l-10-11v-7 l18.001-12.001c0,0,0.106-15.135,4-28.001c3.535-11.68,5-18.26,5-25.001C232.01,85.539,175.165,81.004,175.007,80.991z M164.006,171.476c-0.11,2.474-0.426,4.955-1.217,7.287c-2.144,6.325-9.031,6.406-14.284,3.205 c-6.85-4.176-7.259-13.518-6.456-21.647v0c0.009-0.079-0.046-0.272,0.025-0.237c7.345,3.716,14.623,7.563,21.934,11.346 L164.006,171.476z M168.007,209.996l7-15.001l7,15.001H168.007z M201.509,181.968c-5.252,3.201-12.14,3.12-14.284-3.205 c-0.791-2.332-1.107-4.813-1.217-7.287l-0.002-0.046c7.311-3.782,14.589-7.629,21.934-11.346 c0.071-0.035,0.016,0.158,0.025,0.237v0C208.768,168.451,208.359,177.792,201.509,181.968z"/><path d="M223.491,116.799c-8.178-18.5-28.15-29.503-48.279-31.768l-0.205-0.022 c-0.068,0.007-0.137,0.015-0.205,0.022c-20.129,2.265-40.101,13.269-48.279,31.768c-5.048,11.42-5.569,24.523-2.669,36.385 c0.617,2.528,1.319,5.035,2.05,7.532c2.838,9.695,4.604,19.732,5.033,29.845l0.01,0.255l18.059,12.039v10.688l-8.411,9.253 l15.344,14.613l5.068-5.068l7.209,7.209l6.791-6.552l6.791,6.552l7.209-7.209l5.068,5.068l15.344-14.613l-8.411-9.253v-10.688 l18.059-12.039l0.01-0.255c0.429-10.113,2.195-20.15,5.033-29.845c0.731-2.497,1.433-5.004,2.05-7.532 C229.06,141.323,228.539,128.22,223.491,116.799z M157.006,187.996c-26.193,0-18.001-34.001-18.001-34.001l29.001,15.001 C168.007,168.995,169.096,187.996,157.006,187.996z M161.006,213.997l14.001-28.001l14.001,28.001H161.006z M193.008,187.996 c-12.089,0-11-19.001-11-19.001l29.001-15.001C211.009,153.994,219.201,187.996,193.008,187.996z" fill="#fff"/><path d="M128.823,217.46c2.485-2.485,12.165,3.157,21.601,12.594 c9.435,9.436,15.079,19.115,12.593,21.601l-12.593,12.593c-5.47,5.47-17.573,2.251-27.009-7.185 c-9.435-9.435-12.656-21.538-7.185-27.008L128.823,217.46L128.823,217.46z" fill="#fff"/><path d="M118.925,227.358l9.898-9.898c2.485-2.485,12.165,3.157,21.601,12.594c9.435,9.436,15.079,19.115,12.593,21.601 l-9.898,9.898l-2.694,2.694c-5.47,5.47-17.573,2.251-27.009-7.185c-9.435-9.435-12.656-21.538-7.185-27.008L118.925,227.358 L118.925,227.358L118.925,227.358z M119.788,232.152l-0.722,0.722c-3.072,3.106-1.264,8.093,0.152,11.336 c4.343,9.937,14.168,19.023,24.289,18.697c1.47-0.047,3.022-0.433,4.096-1.496l0.722-0.722 c-1.734-4.388-6.107-10.514-12.065-16.472C130.302,238.26,124.177,233.886,119.788,232.152L119.788,232.152z M124.455,227.485 c4.388,1.734,10.514,6.107,16.472,12.065c5.957,5.958,10.331,12.084,12.065,16.473l6.541-6.541 c-0.756-3.367-3.151-6.365-5.46-9.323c-5.919-7.579-12.82-14.947-21.545-18.686c-0.6-0.257-1.532-0.528-1.532-0.528 L124.455,227.485L124.455,227.485z"/><path d="M221.191,217.46c-2.485-2.485-12.165,3.157-21.601,12.594 c-9.435,9.436-15.079,19.115-12.593,21.601l12.593,12.593c5.47,5.47,17.573,2.251,27.009-7.185 c9.435-9.435,12.656-21.538,7.185-27.008L221.191,217.46L221.191,217.46z" fill="#fff"/><path d="M231.09,227.358l-9.898-9.898c-2.485-2.485-12.165,3.157-21.601,12.594c-9.435,9.436-15.079,19.115-12.593,21.601 l9.898,9.898l2.694,2.694c5.47,5.47,17.573,2.251,27.009-7.185c9.435-9.435,12.656-21.538,7.185-27.008L231.09,227.358 L231.09,227.358L231.09,227.358z M230.226,232.152l0.722,0.722c3.072,3.106,1.264,8.093-0.152,11.336 c-4.343,9.937-14.168,19.023-24.289,18.697c-1.47-0.047-3.022-0.433-4.096-1.496l-0.722-0.722 c1.734-4.388,6.107-10.514,12.065-16.472C219.712,238.26,225.837,233.886,230.226,232.152L230.226,232.152z M225.559,227.485 c-4.388,1.734-10.514,6.107-16.472,12.065c-5.957,5.958-10.331,12.084-12.065,16.473l-6.541-6.541 c0.756-3.367,3.151-6.365,5.46-9.323c5.919-7.579,12.82-14.947,21.545-18.686c0.6-0.257,1.532-0.528,1.532-0.528 L225.559,227.485L225.559,227.485z"/></g></switch></svg>