<svg xmlns="http://www.w3.org/2000/svg" viewBox="0 0 350 350"><switch><g><path d="M279.583,118.104c3.515-5.687,7.03-11.374,10.545-17.061V60H59.872v230h230.256v-30.851 c-3.483-1.406-6.965-2.813-10.448-4.219C279.648,209.321,279.616,163.713,279.583,118.104z" fill="#fff"/><path d="M280.82,280.794H69.18V69.39h211.64v105.702c-0.667,5.173-1.334,10.345-2.001,15.518 c0.667,6.577,1.334,13.154,2.001,19.731C280.82,233.825,280.82,257.31,280.82,280.794z"/><path fill="#891716" d="M78.75 79H271V271H78.75z"/><radialGradient id="a" cx="175" cy="175" r="96" gradientTransform="matrix(0 -1 1.5 0 -87.5 350)" gradientUnits="userSpaceOnUse"><stop offset="0" stop-color="#fd6566" stop-opacity=".75"/><stop offset=".5" stop-color="#f96263" stop-opacity=".726"/><stop offset="1" stop-color="#891716" stop-opacity="0"/></radialGradient><path fill="url(#a)" d="M79 79H271V271H79z"/><path d="M230.083 101.233c1.711-1.151 3.191-.953 4.747-1.292 2.317-.506 2.528-1.708 5.337-3.524 3.179-2.055 4.185-1.339 9.794-3.569 3.283-1.305 2.972-1.564 6.844-3.278 5.479-2.426 10.91-4.036 11.028-3.736.181.456-11.675 6.004-18 8.75-3.038 1.319-4.898 2.034-7.25 3.75-.908.662-2.271 1.752-4.5 3.083-1.464.874-2.218 1.319-3.25 1.667-2.728.92-5.985.801-6.25-.083C228.394 102.369 229.758 101.452 230.083 101.233zM198.079 98.151c-.139-.572 4.099-2.477 8.505-3.485 3.595-.823 4.644-.44 7-1.667.76-.396 1.871-1.071 3.667-1.667.827-.274 3.12-.97 3.25-.667.239.557-6.926 4.229-12.833 6.25-.554.19-2.725.919-5.667 1.25C200.959 98.284 198.187 98.596 198.079 98.151zM90.208 140c-.166-.609-.401-1.471-.083-2.125.392-.807 1.339-.712 2.875-1.333.645-.261 1.513-.882 3.25-2.125 2.969-2.125 3.674-2.902 3.917-2.708.35.28-.593 2.311-1.958 3.917-.745.876-1.009.911-3.042 2.583-2.723 2.239-3.713 3.379-4.375 3.042C90.51 141.106 90.41 140.738 90.208 140zM116.958 116.75c.802-.547 2.117-1.445 2.792-1 .692.457.628 2.275-.188 3.496-.797 1.195-1.623.786-4.646 2.504-1.753.996-2.732 1.552-3.618 2.732-.471.628-.571.972-1.091 1.309-1.458.946-3.86.307-3.958-.375-.062-.426.806-.658 3.042-2.042 1.602-.991 2.824-1.748 4.042-2.875C115.155 118.813 115.122 118.003 116.958 116.75zM215.333 108.583c-.565-.155-.768.99-2.333 1.75-1.255.61-2.02.308-2.688 1.084-.347.403-.689 1.122-.437 1.583.496.911 3.017.295 3.542.167 1.066-.26 1.774-.433 2.25-1.083C216.556 110.868 216.053 108.781 215.333 108.583zM208.413 111.808c-.334-.435-4.031 1.462-3.871 1.942.106.319 2.03.343 3.208-.833C208.02 112.647 208.563 112.003 208.413 111.808zM120.903 220.091c.434-.534.486-1.385.19-1.56-.527-.313-2.417 1.379-2.177 1.885C119.075 220.75 120.287 220.848 120.903 220.091zM114.075 216.896c-.091.277.492.713.787.885.705.413 1.44.304 2.164.197.456-.068 1.88-.33 1.869-.639C118.877 216.788 114.308 216.186 114.075 216.896zM256.481 237.327c2.713.316 3.639.253 4.269 1.048.964 1.216.365 3.343.031 3.375-.296.028-.205-1.607-1.375-2.469-.889-.655-1.741-.3-3.219-.406-2.829-.203-5.172-1.898-5.063-2.25C251.206 236.366 252.601 236.876 256.481 237.327zM159.906 241.813c-.178.048.131 1.263.938 5.688.465 2.549.578 3.333 1.331 3.912 1.308 1.005 3.614.674 3.887-.1.261-.737-1.494-1.397-3.313-3.75C160.489 244.637 160.176 241.739 159.906 241.813zM114.375 267.125c-9.566-8.179-15.49-13.244-19.125-21-1.584-3.379-2.064-5.841-4.625-7.125-1.879-.942-3.085-.352-9.875-.125-5.807.194-6.23-.194-7.125.5-4.056 3.146-1.951 16.222 4.813 20.188 1.092.64 2.442 1.046 5.143 1.857 3.905 1.174 6.775 1.547 9.42 1.955 3.571.551 8.297 1.281 12.25 2.375 9.153 2.534 14.728 7.185 15.063 6.688C120.55 272.085 117.635 269.912 114.375 267.125zM93 261.813c-.409.301-.84-.07-4-1.438-5.089-2.203-5.692-1.988-7.375-3.25-1.187-.89-4.174-3.13-3.75-5.438.462-2.513 4.822-4.289 7.795-3.188.987.366 1.642.982 2.33 1.75C91.682 254.363 94.432 260.76 93 261.813z"/><path d="M277.5,123.375c-2.889,5.665-5.846,11.374-8.875,17.125c-2.622,4.978-5.247,9.895-7.875,14.75 c-2.657,1.296-4.857,1.685-6.313,1.813c-4.214,0.37-6.367-1.044-9.281,0.5c-1.157,0.613-1.075,0.95-2.938,2 c-1.976,1.114-3.669,1.633-4.406,1.844c-2.656,0.761-5.982,1.112-6.188,0.469c-0.219-0.684,2.904-2.669,6.042-3.667 c1.88-0.598,2.997-0.597,5.5-1.583c1.987-0.783,3.22-1.269,3.167-1.708c-0.169-1.386-12.966-0.832-15.417,0 c-0.067,0.023-0.667,0.229-1.5,0.333c-0.919,0.115-2.002,0.26-2.292-0.167c-0.57-0.838,0.971-3.494,3.292-4.75 c1.804-0.976,2.781-0.404,6.208-1c0.694-0.121,3.108-0.571,5.5-1.625c3.828-1.686,7.388-4.824,6.917-5.792 c-0.47-0.965-4.912,0.313-5.125,0.375c-2.06,0.603-2.869,1.267-4.167,1.833c-1.564,0.683-2.999,0.859-9.625,0.333 c-5.688-0.452-8.532-0.677-9.75-1c-5.933-1.571-6.688-3.791-10.958-3.833c-0.933-0.009-2.445,0.081-3.417-0.917 c-1.048-1.076-0.494-2.417-1.667-3.5c-1.097-1.013-2.821-0.984-2.958-0.667c-0.136,0.314,1.332,0.792,1.833,2.292 c0.092,0.276,0.426,1.408-0.125,2.042c-0.558,0.643-1.724,0.427-3.458,0.083c-1.542-0.306-2.658-0.527-3.958-1.292 c-1.864-1.096-1.732-1.913-3.667-2.792c-0.498-0.226-0.994-0.393-1.458-0.917c-0.521-0.587-1.1-1.73-0.708-2.333 c0.61-0.938,2.873,0.504,5.375-0.667c1.008-0.471,1.844-1.268,1.708-1.625c-0.221-0.583-2.832,0.514-4.042-0.75 c-0.459-0.48-0.694-1.277-0.417-1.75c0.418-0.714,1.92-0.547,2.417-0.5c5.212,0.489,15.978-1.462,15.976-1.88 c-0.001-0.143-1.267-0.297-2.161-0.334c-3.937-0.162-4.881,0.034-5.69-0.662c-0.953-0.82-0.298-1.655-1.114-2.321 c-1.552-1.267-4.298,1.462-8.766,0.923c-0.694-0.084-2.343-0.313-2.745-1.31c-0.255-0.633,0.168-1.138-0.199-1.624 c-0.532-0.704-1.833-0.193-2.176-0.793c-0.269-0.47,0.269-1.243,0.333-1.333c0.997-1.4,3.327-1.208,5.625-1.292 c5.014-0.182,9.027-1.645,9-1.875c-0.016-0.137-1.488-0.02-3.458,0.042c-9.552,0.301-10.484-1.33-15.292-0.208 c-1.938,0.452-2.942,0.95-4.333,0.458c-2.253-0.795-2.72-3.371-4.25-3.188c-0.804,0.097-1.383,0.677-2,1.313 c-1.583,1.629-1.629,2.922-2.375,4.125c-1.213,1.954-2.957,1.547-10.625,4.5c-3.09,1.19-4.144,1.771-4.083,2.292 c0.064,0.543,1.331,0.933,2.375,0.958c2.069,0.051,2.542-1.346,5.375-2.458c2.412-0.947,2.925-0.27,5-1.375 c1.695-0.903,1.296-1.324,3.125-2.375c2.116-1.216,4.021-1.44,5.958-1.667c1.599-0.188,2.077-0.055,2.438,0.125 c1.262,0.63,2.192,2.383,1.75,3.563c-0.501,1.338-2.486,1.182-5.875,2.375c-2.735,0.962-3.893,1.925-5.688,2.875 c-3.153,1.668-5.402,1.777-13.5,2.932c-11.907,1.699-17.861,2.549-20.25,3.443c-3.747,1.401-5.668,2.691-7.313,1.688 c-3.467-2.115-1.268-11.72-1.938-11.813c-0.665-0.092-0.556,9.687-5.438,12c-3.935,1.864-9.57-1.853-11.375,0.5 c-0.101,0.132-0.491,0.64-0.375,1.188c0.164,0.78,1.245,1.138,4.313,2c3.41,0.959,4.397,1.169,5.313,2.188 c0.19,0.211,0.702,0.819,1,1.75c0.747,2.333-0.293,5.321-1.688,5.625c-1.217,0.265-1.557-1.762-3.5-2.5 c-3.475-1.321-6.448,3.623-13,4.938c-1.17,0.235-2.545,0.372-6.75-0.063c-4.711-0.487-11.987-1.589-21.5-4.375 c-0.793,1.144-1.587,2.288-2.38,3.432l-0.74,54.63c2.715,12.462,4.301,15.498,5.276,15.406c1.31-0.124,0.949-5.841,3.884-6.846 c1.102-0.378,3.748,0.368,9.04,1.86c0.417,0.117,1.853,0.524,2.399-0.107c0.447-0.518,0.006-1.395,0.582-1.973 c0.336-0.337,0.814-0.366,1.109-0.38c2.033-0.094,4.905,1.851,6.95,4.29c0.346,0.412,0.853,1.06,1.224,0.938 c0.518-0.171,0.104-1.621,0.938-2.813c0.165-0.235,0.585-0.756,1.839-1.245c4.272-1.666,9.693,0.362,10.036,0.495 c1.163,0.45,2.091,0.809,3.24,1.542c1.634,1.043,2.077,1.799,3.479,2.083c1.062,0.215,1.875,0.141,1.917,0.375 c0.072,0.399-2.286,0.946-2.229,1.313c0.058,0.37,2.472-0.129,5.688,0.344c2.775,0.408,4.682,1.325,4.969,0.813 c0.119-0.212-0.155-0.461-0.635-1.385c-0.64-1.231-1.171-2.157-0.958-2.708c0.697-1.807,5.543-1.479,7.396-1.354 c3.021,0.204,4.142,0.727,7.521,1.438c5.411,1.139,4.825,0.353,14.375,1.542c3.444,0.429,6.013,0.881,6.333,0.083 c0.224-0.558-0.768-1.442-1.004-1.652c-3.156-2.808-7.237-0.663-14.496-1.89c-3.148-0.532-2.455-0.949-6.458-1.708 c-3.366-0.639-6.173-0.784-10.667-1c-5.082-0.245-7.071-0.104-9.542-1.583c-1.565-0.938-3.078-2.363-2.875-2.708 c0.235-0.399,2.671,0.814,5.125,1.625c4.846,1.601,8.772,1.303,11.958,1.208c16.57-0.492,23.676,4.192,42.588,2.13 c3.566-0.389,12.835-1.152,19.807,0.682c0.314,0.083,3.14,1.059,6.875,2.5c3.861,1.489,5.019,2.082,6.813,2.781 c3.559,1.387,4.922,1.362,18.031,3.594c6.554,1.116,8.662,1.539,8.719,1.313c0.09-0.361-5.046-2.336-10.781-3.625 c-4.132-0.929-6.215-0.971-9.969-2.5c-1.211-0.493-5.804-2.364-5.563-3.531c0.271-1.313,6.513-1.068,9.063-0.969 c5.768,0.226,8.764,1.177,13.188,1.688c0,0,0.954,0.099,2.516,0.242c9.382,0.855,34.295,1.176,35.922,1.196 c0.771-9.042,1.542-18.083,2.313-27.125c5.604,2.667,11.208,5.333,16.813,8c-5.563-7.396-11.125-14.792-16.688-22.188 c4.375-6.688,8.75-13.375,13.125-20.063c-0.1,0.058-0.201,0.116-0.301,0.174c-4.233,2.442-8.466,4.884-12.699,7.326 C277.875,148.042,277.688,135.708,277.5,123.375z"/><path d="M185.38,205.69l-0.07-19.19l22,0.25l9.6-6.53l21.65-0.06l6.72,5.06l21.47-0.012V162.38 l-21.13-0.13l-5.5,4.75h-23l-9.62-5h-22v-20.12h-7.12l-6.13,10.37H76v47.13l59.69,0.06l8.75-7.82l11.5-0.06l7.25,14.13 M162.06,167.44H91.12v-5.06h70.94V167.44z M188.94,181.12l-0.94,1.07h-2.81l-1.13-1.07v-14.06l1.06-1.94h2.69l1.13,1.44 V181.12z M197.88,181.12l-0.94,1.07h-2.82l-1.12-1.07v-14.06l1.06-1.94h2.69l1.13,1.44V181.12z M206.69,181.25l-0.94,1.06 h-2.81l-1.13-1.06v-14.06l1.07-1.94h2.68l1.13,1.44V181.25z" fill="#fff"/><path fill="#f9f7f7" d="M269 154.5L283.75 121.75 281 153.875 305.25 134.5 281.625 173.655 302.875 204.625 280.625 191.5 282.375 222.568 269 192.375 273.625 193 274.25 182.19 284.375 186.75 275.25 173.655 286.125 157.099 274.5 165.875 276.33 153 269 157.099z"/><g fill="#fff"><path d="M67.333 250.667L175.013 212.833 287.625 258.125 285.625 265.625 175.013 221.875 67.333 259.625z"/><circle cx="174.75" cy="218.565" r="12.875" stroke="#000" stroke-width="4" stroke-miterlimit="10"/></g><path fill="#fff" d="M137 136.857H159.448V144H137z"/><path transform="rotate(-16.544 151.886 124.512)" fill="#fff" d="M140.667 120.931H163.115V128.07399999999998H140.667z"/><path transform="rotate(-30 145.34 109.788)" fill="#fff" d="M134.123 106.211H156.571V113.354H134.123z"/><path transform="rotate(-16.544 135.388 90.233)" fill="#fff" d="M124.167 86.653H146.615V93.796H124.167z"/><path transform="rotate(-30 64.51 51.004)" fill="#fff" d="M51.292 45.431H77.74000000000001V56.574H51.292z"/><path d="M72.45,42.297l3.571,6.186L56.581,59.707l-3.571-6.186L72.45,42.297 M73.915,36.833l-3.464,2L51.01,50.057l-3.464,2 l2,3.464l3.571,6.186l2,3.464l3.464-2l19.441-11.224l3.464-2l-2-3.464l-3.571-6.186L73.915,36.833L73.915,36.833z"/><path transform="rotate(-45.001 129.727 68.731)" fill="#fff" d="M116.416 62.834H143.043V74.626H116.416z"/><path d="M134.974,57.974l5.51,5.51l-16,16l-5.51-5.51L134.974,57.974 M134.974,52.318l-2.828,2.828l-16,16l-2.828,2.828 l2.828,2.828l5.51,5.51l2.828,2.828l2.828-2.828l16-16l2.828-2.828l-2.828-2.828l-5.51-5.51L134.974,52.318L134.974,52.318z"/><path transform="rotate(-54.578 114.353 61.245)" fill="#fff" d="M101.303 55.743H127.39699999999999V66.747H101.303z"/><path d="M117.899,50.213l5.707,4.059l-12.805,18.005l-5.707-4.059L117.899,50.213 M116.958,44.635l-2.318,3.26l-12.805,18.005 l-2.318,3.26l3.26,2.318l5.707,4.059l3.26,2.318l2.318-3.26l12.805-18.005l2.318-3.26l-3.26-2.318l-5.707-4.059 L116.958,44.635L116.958,44.635z"/><path transform="rotate(-45.001 89.65 55.463)" fill="#fff" d="M76.144 49.827H103.155V61.095H76.144z"/><path d="M95.214,44.756l5.14,5.14L84.083,66.167l-5.14-5.14L95.214,44.756 M95.214,39.099l-2.828,2.828L76.115,58.199 l-2.828,2.828l2.828,2.828l5.14,5.14l2.828,2.828l2.828-2.828l16.271-16.271l2.828-2.828l-2.828-2.828l-5.14-5.14 L95.214,39.099L95.214,39.099z"/></g></switch></svg>