<svg xmlns="http://www.w3.org/2000/svg" viewBox="0 0 350 350" style="enable-background:new 0 0 350 350" xml:space="preserve"><switch><g><path style="fill:#fff" d="M60 60h230v230H60z"/><path d="M280.492 280.5h-211v-211h211v41.676L290 96.539v158.604l-9.508-15.521V280.5z"/><radialGradient id="tachanka-a" cx="174.992" cy="175" r="96" gradientUnits="userSpaceOnUse"><stop offset=".433" style="stop-color:#e85859"/><stop offset=".629" style="stop-color:#c84648"/><stop offset="1" style="stop-color:#831e22"/></radialGradient><path style="fill:url(#tachanka-a)" d="M78.992 79h192v192h-192z"/><path d="M273.199 141.026c-2.882 1.109-4.651.103-5.941-.244-2.737-.736-3.25-2.283-7.11-3.499-1.809-.569-2.671.557-4.069-.158-2.408-1.231-2.202-2.458-4.004-3.512-2.385-1.395-3.798.044-9.075-.465-1.87-.181-3.069-1.265-4.04-1.512 2.599 5.402 3.086 7.826 2.665 8.105-.242.161-.718-1.794-1.79-2.34-1.842-.939-5.629-1.518-6.25-.762-.393.478.072 1.093-.348 1.832-.286.503-.297 1.246-3.357 1.25-2.744.004-4.255-.214-4.32-.528-.073-.355 1.42-.76 1.347-1.108-.091-.43-1.972-1.364-3.76-.834-1.467.434-1.33 2.002-2.31 2.388-3.337 1.312-7.468-2.534-7.748-2.099-.149.232.165.585-.072 1.174-.193.481-.814.617-1.598.583-1.264-.055-2.362-.411-2.394-1.01-.02-.376-.533-1.405-.151-1.572 3.665-1.598 7.787-5.38 7.405-5.942-.271-.398-2.559 2.143-6.411 2.673-2.325.32-2.747-.537-5.517-.061-2.215.38-2.895 1.483-4.017 1.192-1.671-.434-1.921-1.736-3.83-2.899-2.473-1.506-5.045-1.98-5.204-1.473-.106.337 2.008.319 2.718 1.848.264.568-.121 1.576-.253 1.773-.365.538-2.957-.707-5.93-1.986-1.651-.71-3.386-1.373-5.522-1.487-2.243-.12-4.067-.695-5.591-.3-1.877.487-3.405 1.531-5.337.519-1.836-.962-2.808-2.977-3.451-2.637-1.255.663 1.142 6.467-.894 7.893-.727.509-1.155.28-2.173.996-1.356.953-.846 2.869-1.734 3.037-.559.106-1.141-.442-2.483-1.6-.457-.395-1.085.262-1.578.071-.728-.283-.616-.769-.792-.41-.252.514.636 1.015.451 1.582-.37 1.138-7.409-.561-7.835.642-.241.682 2.096 1.793 1.844 2.554-.305.923-4.029-.105-4.495-.156-2.158-.234-4.363-.589-6.423-.649a100.858 100.858 0 0 0-6.448.016c-3.768.138-6.621 1.206-6.633 1.345-.021.244 7.03.684 7.188 2.207.153 1.473-5.378 3.014-5.194 3.689.109.401 2.179.153 7.431.262 1.696.035 2.49.285 2.695.808.453 1.152-2.942 3.122-2.597 3.787.294.565 2.844-.823 7.02-1.032 3.419-.172 7.012.625 7.001 1.004-.005.178-1.309-.347-2.82.039-1.887.481-2.574.528-3.683.86-.735.221-.766 1.638-6.552 1.574-3.668-.041-3.762-1.203-4.349-1.313-1.802-.338-2.906-.137-3.22.297-.383.531.296 1.318.031 1.58-.251.248-.946-.837-3.144-1.664-1.241-.466-3.839-.976-4.126-.472-.32.563 1.787 1.913 1.541 2.685-.27.846-2.497.412-5.261.252-2.861-.165-5.082.265-5.231.867-.172.695 3.388 1.488 3.547 3.747.066.935-.744 1.193-.579 1.286.278.156.652-2.609 2.889-3.471 1.339-.515 3.986.02 4.831 1.23.831 1.191-.052 3.431-1.266 4.346-1.953 1.473-4.683-.676-9.445-1.423-2.305-.361-3.333.54-5.526 1.082-1.376.34-3.379-.368-5.969.087-3.993.7-6.282 1.132-8.445 1.153-2.395.023-4.413.91-8.355 1.537-1.855.295-4.409-.269-7.202.52-2.064.583-4.708 1.131-7.172 2.127.033 2.374-.011 5.022.022 7.396s.446 4.742.479 7.116-.147 4.75-.114 7.124-.181 4.751-.148 7.124.241 4.745.274 7.118.951 4.166.984 6.539c3.487.867 5.868 1.06 8.274 1.126 4.101.113 7.077.62 8.91-.384.912-.5 2.748-2.354 6.032-3.295 1.28-.367 2.736-.392 6.798-.754 5.704-.509 9.75-1.112 9.938-.288.126.55-1.023 1.354-5.429 4.3-1.671 1.118-2.247.825-3.528 1.551-2.879 1.631-3.831 1.913-3.761 2.329.07.413 1.144.752 2.896.347 1.203-.278 2.083-.696 3.211-1.376 1.711-1.031 2.276-1.63 3.582-2.553.858-.606 1.092-1.455 4.206-2.981 6.462-3.168 8.085-3.446 8.274-3.188.274.373-1.789 1.918-2.97 2.926-.843.719-1.105 1.506-1.01 1.839.067.236.346.575.91.617 2.421.179 3.7.154 4.548-.223.366-.163-.158-1.009 1.637-3.208 2.66-3.26 4.133-2.683 5.386-3.429.697-.415.015-1.892.741-2.434 1.477-1.101 2.127-1.948 2.871-2.015.945-.086 2.669 1.924 2.633 3.11-.066 2.165-4.4 3.032-4.148 4.065.138.566 1.026.743 2.288.55 1.74-.266 2.102-1.367 4.245-2.761 1.27-.826 3.323-1.157 5.591-1.43 2.583-.311 5.207.108 5.197.701-.014.772-4.101.337-6.927 3.192-1.51 1.525-1.434 2.821-3.136 3.804-1.559.901-3.098-.644-4.836-.439-1.088.128-2.192 1.643-6.74 5.648-2.459 2.165-4.398 3.446-5.607 4.772-2.193 2.406-2.926 4.272-5.486 5.146-1.949.665-2.545.193-5.159 1.211-2.687 1.047-4.514 1.509-6.778 3-1.524 1.003-3.587 2.365-7.946 4.744-1.838 1.003-4.281 2.756-7.558 4.319-2.331 1.112-4.981 2.412-7.954 3.579-2.241.88-5.037 2.447-8.971 3.626-.374 1.769-2.119 2.554-2.492 4.323-.374 1.769-.245 3.819-.618 5.588.808-.515 1.817-2.12 3.234-3.22 1.676-1.301 2.927-.888 6.898-4.587 3.019-2.811 4.496-3.544 6.375-4.731.571-.36 1.163-1.216 1.607-1.48 2.084-1.242 3.362-2.777 4.386-3.335 5.492-2.995 8.458-3.929 9.648-4.184 1.347-.288 3.06.218 5.349-.619 1.433-.525 1.377-1.694 2.501-2.164 2.224-.928 3.886-.946 5.603-1.085 1.628-.132 3.023-1.158 5.324-1.996.467-.17 1.536.477 3.126-.327 2.514-1.27 4.035-3.51 5.962-4.762 2.265-1.472 4.287-2.833 6.304-4.186 2.048-1.374 4.585-1.999 7.008-3.146 3.352-1.585 4.793-1.683 7.284-1.886 1.683-.137 4.022.508 7.628-.239 1.969-.408 4.037-2.347 7.01-3.167 1.794-.494 4.536-.713 5.414.336.861 1.029-.129 3.627-1.73 6.207-1.087 1.751-2.333 3.79-3.889 5.289-2.202 2.122-4.481 3.514-6.865 4.919-4.548 2.681-6.271 3.092-8.618 5.862-.789.932-2.057 1.006-3.376 2.165-1.424 1.251-1.676 1.777-3.514 3.435 0 0-.436 1.125-1.671 2.744-.622.816-1.284.526-1.245.573.193.234 2.198-.438 4.809-1.538 2.24-.944 2.62-1.162 4.175-2.101 1.416-.855 1.481-2.349 2.397-3.42 1.629-1.905 2.64-2.526 6.513-5.247.394-.277 3.302-1.48 8.179-5.198 3.083-2.35 4.695-4.767 6.257-6.141 4.384-3.856 4.596-3.913 7.13-4.968 2.091-.87 4.224-1.246 6.669-1.245 2.053.001 4.109 1.121 6.638 1.6 2.031.385 4.354.245 6.812.867 2.043.517 4.348.728 6.754 1.368.467.124 4.709 1.653 10.492 2.067 4.293.307 7.602-.241 7.655-.728.048-.445-2.88-.962-2.818-1.501.039-.343 1.545.192 2.769.062 5.826-.616 7.378-1.457 7.416-1.814.042-.401-1.71-.747-1.666-1.051.091-.631 7.633.289 8.031-1.178.206-.759-1.918-1.543-1.703-2.348.275-1.033 5.138-.893 8.401-.002.651.178 2.191.97 3.866 2.352.995.821 2.968 1.629 2.888 2.686-.108 1.428-2.895 1.912-2.694 2.538.165.512 1.86 1.261 3.229.728 1.466-.571 1.478-3.084 2.417-3.049.948.035.855 2.398 1.148 3.367.387 1.278.328 2.342.735 2.624.456.316 2.844-.592 3.29-1.719.413-1.043-1.516-2.486-1.113-2.98.798-.978 5.516 1.556 5.699 1.17.094-.199-1.961-.534-3.342-1.953-.994-1.021-1.398-2.045-1.346-2.224.173-.596 2.471.169 3.835-.557.402-.214.72-.801 2.574-4.34 1.292-2.467 1.863-2.334 2.543-2.558.66-.217 1.559-.765 3.535 1.262 0-2.319-.517-4.571-.517-6.891 0-2.319 1.404-4.638 1.404-6.958s-.741-4.638-.741-6.958-.541-4.638-.541-6.958c0-2.319.739-4.638.739-6.958s.576-4.638.576-6.958-.67-4.638-.67-6.958c0-2.319-.127-4.638-.127-6.958s.149-4.638.149-6.958-.39-4.326-.39-6.645zM223.754 118.685c-.192.416-.002 1.302 1.417 2.963.794.93 2.361 1.294 2.954 2.507 1.212 2.477.072 4.155 1.195 4.901.923.613 1.517-.016 3.297.487 1.628.46 1.833.807 3.436 1.195 1.537.372 2.841.058 2.891-.338.052-.413-1.573-.218-2.596-1.609-.722-.982-.792-1.069-1.589-1.692-.691-.54-.119-1.624-1.02-2.162-1.015-.606-2.476-1.336-2.177-1.828.338-.557 2.282.268 2.403-.062.123-.336-1.226-2.35-2.977-2.601-1.375-.197-1.856 1.361-2.72 1.008-1.306-.534-1.347-1.445-2.777-2.168-.949-.481-1.547-1.014-1.737-.601zM235.992 121.209c-.131.419 1.565 1.129 2.81 2.953.653.956.518 1.22 1.046 1.731.998.964 1.989 1.066 3.727 1.678 2.156.76 3.284 1.564 3.58 1.334.381-.296-.659-2.931-2.697-3.921-1.161-.564-2-.366-2.987-1.254-.75-.674-.926-.717-1.624-1.344-1.308-1.174-3.698-1.683-3.855-1.177zM249.248 127.155c-.267.274 1.128 2.386 2.741 2.497.159.011-.201.01-.114-.202.241-.583-2.288-2.642-2.627-2.295zM205.369 103.168c-.281.532 3.069 2.311 6.004 3.521.498.205 2.667 1.839 2.881 1.488.214-.351-1.745-2.135-3.042-3.02-2.337-1.596-5.585-2.476-5.843-1.989zM202.286 97.261c.634.354-2.504 8.268-3.21 8.085-.432-.112.001-3.098 1.52-5.459.486-.756 1.399-2.788 1.69-2.626zM195.962 106.501c-.927-.575-4.339 1.895-3.953 2.777.201.459 1.719-.27 2.399-.467.789-.228 2.79-.313 2.952-1.4.021-.141-.986-.654-1.398-.91zM198.605 121.286c-.823-.126-2.652 3.837-1.993 4.325.382.284 1.321-.949 1.81-2.246.443-1.174.645-2.008.183-2.079zM145.827 119.704c.029.315 1.2.797 1.922 1.199 1.064.594 1.82.258 2.492.716 1.801 1.227 5.061 2.502 5.445 1.843.373-.64-2.084-2.921-2.464-3.24-1.072-.9-3.093-2.345-4.923-1.874-.751.192-2.513.909-2.472 1.356zM140.609 121.738c-.213.405.118 1.031.793 1.425 1.02.596 1.996.112 2.248.012.3-.118.282-.259.269-.629-.029-.844-2.888-1.611-3.31-.808z"/><path d="M154.003 126.777c-.188-.049.401.505-.348 1.659-1.616 2.491-3.61 2.292-3.672 3.597-.055 1.161.874 2.376 1.817 2.207.896-.161 1.419-1.536 1.991-3.779.485-1.905.518-3.603.212-3.684zM122.929 151.161c1.498-1.062 3.564-1.506 5.292-.608 1.623.843 2.198 2.15 2.044 2.342-.15.188-.93-.272-2.875-.512-.75-.093-.745.354-3.46.492-1.542.079-2.483-.58-2.586-.836-.13-.322 1.166-.581 1.585-.878zM92.031 142.577c1.635-.993 3.778-1.716 5.513-1.846 2.95-.222 5.986 1.243 5.978 1.437-.006.141-2.642.012-2.663.277-.019.24 1.905.246 2.904.322.942.072 1.76.307 2.327.182 1.121-.247 1.8-.756 1.956-.577.228.263-.747 1.207-1.316 2.663-.561 1.437-.451 2.604-.792 2.657-.487.076-.689-2.016-2.133-2.809-.716-.393-1.434.007-2.197.478-1.04.643-1.284 1.294-1.769 1.328-.496.035-.849-.904-1.832-1.827-2.04-1.917-6.636.019-6.889-.634-.069-.18.04-1.121.913-1.651zM113.826 157.006c.008-.491-3.867-1.077-6.851-1.2-2.402-.099-4.31.277-5.908.519-2.687.407-4.016.157-5.34-1.042-1.52-1.377-1.91-3.36-2.378-3.29-.439.066.597 2.788-.571 3.764-1.525 1.275-4.96-1.024-5.128-.635-.104.242.363 1.837 2.041 2.518 2.64 1.071 5.366.432 5.895.405 3.144-.158 6.245-.131 8.972-.151 5.123-.036 9.26-.379 9.268-.888zM80.321 151.02c.671-.311 2.313.122 2.579.462.233.298 1.463 2.99 1.013 3.535-.416.503-3.415-.076-4.318-1.462-.728-1.118.17-2.277.726-2.535zM91.905 161.928c2.011-.498 3.776-.187 3.69.273-.133.717-5.803.691-5.944-.078-.065-.36 1.507-.011 2.254-.195zM138.544 244.523c-1.099-.741-2.302.523-4.338-.008-1.062-.277-1.065.145-1.395.395-.433.327-.227.622.252 1.438.656 1.118 1.581 1.969 3.166 1.866 1.087-.071 3.462-.193 3.645-1.366.102-.658-.732-1.922-1.33-2.325zM139.104 249.545c-.23-.253-2.487 3.267-6.947 5.287-2.329 1.055-3.798.927-3.799.927-1.246.395-3.086.169-3.779 1.189-.239.351-.154 1.124-.216 1.273-.167.397-.446 1.769-.199 1.953.268.199.953-1.409 1.947-2.23 1.379-1.139 1.986-.597 5.469-2.477 3.655-1.973 4.575-3.602 5.779-4.883.638-.68 1.869-.903 1.745-1.039zM176.687 241.137c-.429-.626-5.136.69-8.444 3.094-2.04 1.483-3.47 2.825-4.556 4.295-1.022 1.384-.673 3.962-2.323 5.888-1.874 2.189-4.698 3.101-6.446 4.501-3.613 2.896-6.881 4.966-6.76 5.15.152.232 5.304-2.341 9.797-5.382 1.999-1.353 3.071-3.439 4.683-4.754 1.681-1.37 3.92-2.001 5.617-3.599 1.453-1.37 2.726-3.154 4.493-4.88 3.07-2.997 4.157-3.995 3.939-4.313zM148.063 229.843c-.331-.513-2.001.748-3.926 2.001-1.458.949-3.365 1.688-3.136 2.06.157.255 1.671.358 4.379-.692.768-.297.893-1.498 1.574-2.114.517-.468 1.346-.887 1.109-1.255zM127.473 242.538c-.611.056-1.987 2.299-1.123 3.387.563.709 2.384.738 2.771.33.66-.693-.839-3.791-1.648-3.717zM130.098 247.962c-.697-.658-3.033.758-2.872 1.817.094.615.874 2.028 1.958 1.671 1.531-.503 1.399-3.03.914-3.488zM135.483 241.975c-.296-.522 3.039-3.619 3.646-3.232.286.183-.849 1.097-1.102 1.573-.672 1.264-2.334 2.029-2.544 1.659zM118.91 259.232c.098.178-1.572.896-4.523 2.608-1.6.929-3.267 2.232-5.136 3.155-3.37 1.665-6.119 2.203-7.98 2.895-.803.299-4.525 2.259-4.616 2.043-.082-.195 3.107-1.362 8.799-4.08 2.905-1.387 5.243-2.512 7.114-3.417 5.622-2.719 6.264-3.345 6.342-3.204zM128.68 263.976c-.264-.348-3.52 2.019-6.116 4.369-1.104.999-1.71 1.898-2.115 2.406-.542.679-2.01 1.828-1.838 2.002.233.237 2.943-1.885 5.646-4.212 2.699-2.323 4.648-4.267 4.423-4.565zM86.518 238.115c.121.322-3.594.373-7.203 3.664-1.794 1.636-2.677 4.361-3.415 4.047-.542-.23-.735-2.177-.42-3.029.437-1.186 1.949-1.905 2.82-2.219 7.252-2.615 8.15-2.643 8.218-2.463zM190.322 240.018c-.212-.224-.902.687-1.921 2.139-.664.945-2.253 2.767-2.022 2.913.462.294 4.32-4.653 3.943-5.052zM185.423 237.702c-.367-.157-1.058.049-.81.971.124.46.234.365.564.273.621-.174.706-1.048.246-1.244zM113.162 236.635c1.394-.496 4.184.174 4.314.819.083.41-1.332 1.116-1.529 1.264-1.495 1.117-3.997.517-4.166-.225-.117-.513.604-1.581 1.381-1.858zM203.17 266.813c-1.335.535-1.482 1.259-2.863 2.636-1.44 1.436-2.941 1.649-2.826 2.039.097.329 1.435.9 2.27.549.768-.323 1.098-1.3 1.463-1.839 1.704-2.512 3.532-3.389 3.29-3.831-.144-.261-.725.202-1.334.446zM235.039 242.876c-.159-.197-3.852 1.966-3.41 3.327.283.872 1.195.859 1.468.304.132-.269 1.348-.13 1.309-.807-.015-.256-.851-.656.109-1.963.752-1.025.571-.804.524-.861zM243.131 245.745c-.443-.257-.392-1.962.554-3.796 1.575-3.055 4.22-5.249 4.986-4.817.576.325.684 2.127-.205 3.716-.311.555-.984.645-1.966 1.719-2.45 2.679-3.094 3.337-3.369 3.178zM241.874 234.083c-.453-.366.294-4.102 2.84-6.093.879-.688 2.036-.11 6.741-1.561 5.664-1.746 6.793-2.463 6.857-2.325.186.394-2.956 3.971-6.227 4.707-1.581.356-2.296-.874-3.476-.263-1.376.711-.863 2.194-2.611 3.85-.844.799-3.696 2.031-4.124 1.685zM238.858 225.346c.063.177 1.253-.673 5.468-1.816 3.812-1.034 5.204-.701 5.206-1.023.002-.633-3.708-2.595-5.903-1.671-1.237.521-.762 2.466-2.897 3.822-1.384.879-1.918.566-1.874.688z"/><g><path style="fill:#fff" d="M78.992 217.577a1.5 1.5 0 0 1-1.5-1.5v-45.309a1.5 1.5 0 0 1 1.441-1.499c6.38-.249 12.825-.774 19.157-1.56a228.414 228.414 0 0 0 22.843-4.029 1.503 1.503 0 0 1 1.835 1.485l-.022 1.372a12.409 12.409 0 0 0 4.146-1.504 12.47 12.47 0 0 0 4.678-4.843 1.5 1.5 0 0 1 1.319-.786h29.752a1.5 1.5 0 0 1 1.5 1.5v41.919a1.5 1.5 0 0 1-1.5 1.5h-37.417a1.5 1.5 0 0 1-1.4-2.039 48.873 48.873 0 0 0 3.243-16.159h-8.606a98.324 98.324 0 0 1-12.607 15.196A98.342 98.342 0 0 1 84.25 217.39a1.5 1.5 0 0 1-.723.186h-4.535zm76.466-19.962-.228-1.145a36.234 36.234 0 0 1-3.5-.752c-5.086-1.359-9.828-3.809-14.103-7.285h-2.008a40.977 40.977 0 0 1-.627 5.172 40.802 40.802 0 0 1-.964 4.01h21.43z"/><path d="M162.643 160.905v41.919h-37.417a50.286 50.286 0 0 0 3.362-18.198h-10.929a96.58 96.58 0 0 1-12.857 15.626 96.825 96.825 0 0 1-21.274 15.824h-4.536v-45.308a228.906 228.906 0 0 0 42.277-5.626l-.049 3.066a13.983 13.983 0 0 0 6.429-1.879 14.042 14.042 0 0 0 5.242-5.424h29.752m-30.676 38.21h25.319l-.791-3.973a34.79 34.79 0 0 1-4.378-.873c-6.225-1.663-10.875-4.766-13.952-7.336h-3.989a39.166 39.166 0 0 1-2.209 12.182m30.676-41.21H132.89a3 3 0 0 0-2.639 1.573 10.976 10.976 0 0 1-4.114 4.26c-.651.38-1.297.665-1.915.878a3.004 3.004 0 0 0-2.953-2.474c-.224 0-.449.025-.671.076a226.995 226.995 0 0 1-22.693 4.002 226.853 226.853 0 0 1-19.03 1.55 3 3 0 0 0-2.883 2.998v45.308a3 3 0 0 0 3 3h4.536c.505 0 1.002-.128 1.445-.371a99.79 99.79 0 0 0 21.933-16.315 99.745 99.745 0 0 0 12.351-14.765h6.242a47.47 47.47 0 0 1-3.074 14.12 3.002 3.002 0 0 0 2.799 4.078h37.417a3 3 0 0 0 3-3v-41.919a2.997 2.997 0 0 0-2.998-2.999zm-25.631 32.029h.087c3.382 2.681 7.041 4.751 10.924 6.181h-12.039a42.12 42.12 0 0 0 1.028-6.181z"/><path style="fill:#fff" d="M165.676 230.915v-83h39v83h-39zm29.517-17.13v-4h-20v4h20zm0-15.685v-4h-20v4h20zm0-15.685v-4h-20v4h20zm0-15.685v-4h-20v4h20z"/><path d="M203.176 149.415v80h-36v-80h36m-29.483 18.815h23v-7h-23v7m0 15.685h23v-7h-23v7m0 15.685h23v-7h-23v7m0 15.685h23v-7h-23v7m32.483-68.87h-42v86h42v-86zm-29.483 17.815h17v1h-17v-1zm0 15.685h17v1h-17v-1zm0 15.685h17v1h-17v-1zm0 15.685h17v1h-17v-1z"/><g><path style="fill:#fff" d="M206.181 147.915h11v83h-11z"/><path d="M215.681 149.415v80h-8v-80h8m3-3h-14v86h14v-86z"/></g><path style="fill:#fff" d="M222 162.374h32.835v-4.352l14.934 3.208v20.924l-14.934 1.761v-2.256h-15.658v7.756h7.985v13.607h-23.703v-13.607h7.859v-7.953H222zM269.918 158.121l15.874-38.308-4.253 32.967 26.11-21.264-24.527 39.56 22.846 31.945-24.626-15.527 1.385 34.22-11.488-35.247 6.972 8.973-2.374-16.088 12.824 7.253-11.637-15.033 11.209-17.538-12.725 8.934 2.374-13.896a13221.83 13221.83 0 0 0-7.964 9.049z"/></g><g><path style="fill:#fff" d="M154.731 113.148h3v19h-3zM160.236 113.148h21v19h-21zM183.715 132.148v-19c5.904-.661 10.982 4.009 11 9.467.018 5.481-5.07 10.196-11 9.533z"/></g><g><path transform="rotate(-19.369 148.206 94.492)" style="fill:#fff" d="M146.693 84.994h3v19h-3z"/><path transform="rotate(-19.369 161.89 89.68)" style="fill:#fff" d="M151.377 80.183h21v19h-21z"/><path style="fill:#fff" d="m177.272 94.34-6.303-17.924c5.351-2.582 11.69.139 13.518 5.282 1.835 5.164-1.401 11.299-7.215 12.642z"/></g><g><path transform="rotate(-42.507 125.212 78.431)" style="fill:#fff" d="M122.7 67.933h5v21h-5z"/><path d="m119.888 70.415 12.837 14.008-2.212 2.027-12.837-14.008 2.212-2.027m.123-2.826-1.475 1.351-2.212 2.027-1.475 1.351 1.351 1.475 12.837 14.008 1.351 1.475 1.475-1.351 2.212-2.027 1.475-1.351-1.351-1.475-12.837-14.008-1.351-1.475z"/><path transform="rotate(-42.503 135.901 68.636)" style="fill:#fff" d="M124.394 58.132h23.001v21h-23.001z"/><path d="m137.218 54.535 12.837 14.008-15.483 14.187-12.837-14.008 15.483-14.187m.123-2.826-1.475 1.351-15.482 14.188-1.475 1.351 1.351 1.475 12.837 14.008 1.351 1.475 1.475-1.351 15.482-14.188 1.475-1.351-1.351-1.475-12.837-14.008-1.351-1.475z"/><g><path style="fill:#fff" d="m137.704 52.876.588-.674a10.994 10.994 0 0 1 8.292-3.753c2.972 0 5.779 1.195 7.703 3.28 1.97 2.135 2.93 5.099 2.634 8.13a11.002 11.002 0 0 1-4.448 7.816l-.723.527-14.046-15.326z"/><path d="M146.583 49.449c2.604 0 5.165 1.005 6.968 2.959 3.716 4.028 3.15 10.942-1.669 14.46L139.045 52.86c2.004-2.296 4.795-3.411 7.538-3.411m0-2a11.995 11.995 0 0 0-9.045 4.096l-1.176 1.348 1.208 1.319 12.837 14.008 1.209 1.319 1.445-1.055a12.007 12.007 0 0 0 4.854-8.527c.324-3.314-.73-6.56-2.894-8.905-2.112-2.29-5.188-3.603-8.438-3.603z"/></g></g><g><path transform="rotate(-10.391 77.068 57.991)" style="fill:#fff" d="M74.591 47.497h5v21.001h-5z"/><path d="m76.854 48.383 3.425 18.689-2.951.541-3.425-18.689 2.951-.541m1.607-2.328-1.967.361-2.951.541-1.967.361.361 1.967 3.425 18.689.361 1.967 1.967-.361 2.951-.541 1.967-.361-.361-1.967-3.425-18.689-.361-1.967z"/><path transform="rotate(-10.391 91.346 55.384)" style="fill:#fff" d="M79.859 44.883h23v21.001h-23z"/><path d="m99.974 44.146 3.425 18.689-20.656 3.785-3.425-18.689 20.656-3.785m1.607-2.328-1.967.361-20.656 3.786-1.967.361.361 1.967 3.425 18.689.361 1.967 1.967-.361 20.656-3.786 1.967-.361-.361-1.967-3.425-18.689-.361-1.967z"/><g><path style="fill:#fff" d="m101.268 43 .856-.258a10.909 10.909 0 0 1 3.157-.468c5.154 0 9.728 3.685 10.641 8.57.533 2.855-.229 5.875-2.091 8.284a11.006 11.006 0 0 1-7.923 4.256l-.892.063L101.268 43z"/><path d="M105.281 43.274c4.652 0 8.825 3.294 9.658 7.754 1.006 5.388-3.149 10.942-9.101 11.36l-3.425-18.689a9.923 9.923 0 0 1 2.868-.425m0-2c-1.164 0-2.323.172-3.446.51l-1.713.516.322 1.759 3.425 18.689.323 1.76 1.785-.125a12.007 12.007 0 0 0 8.644-4.641c2.037-2.635 2.869-5.945 2.283-9.081-.998-5.352-5.996-9.387-11.623-9.387z"/></g></g></g></switch></svg>