<svg xmlns="http://www.w3.org/2000/svg" viewBox="0 0 350 350"><switch><g><path d="M279.583 118.104l10.545-17.061V60H59.872v230h230.256v-30.851l-10.448-4.219-.097-136.826z" fill="#fff"/><path d="M280.82 280.794H69.18V69.39h211.64v105.702l-2.001 15.518 2.001 19.731v70.453z"/><path fill="#891716" d="M78.75 79H271v192H78.75z"/><radialGradient id="tachanka-a" cx="175" cy="175" r="96" gradientTransform="matrix(0 -1 1.5 0 -87.5 350)" gradientUnits="userSpaceOnUse"><stop offset="0" stop-color="#fd6566" stop-opacity=".75"/><stop offset=".5" stop-color="#f96263" stop-opacity=".726"/><stop offset="1" stop-color="#891716" stop-opacity="0"/></radialGradient><path fill="url(#tachanka-a)" d="M79 79h192v192H79z"/><g><path d="M230.083 101.233c1.711-1.151 3.191-.953 4.747-1.292 2.317-.506 2.528-1.708 5.337-3.524 3.179-2.055 4.185-1.339 9.794-3.569 3.283-1.305 2.972-1.564 6.844-3.278 5.479-2.426 10.91-4.036 11.028-3.736.181.456-11.675 6.004-18 8.75-3.038 1.319-4.898 2.034-7.25 3.75-.908.662-2.271 1.752-4.5 3.083-1.464.874-2.218 1.319-3.25 1.667-2.728.92-5.985.801-6.25-.083-.189-.632 1.175-1.549 1.5-1.768zM198.079 98.151c-.139-.572 4.099-2.477 8.505-3.485 3.595-.823 4.644-.44 7-1.667.76-.396 1.871-1.071 3.667-1.667.827-.274 3.12-.97 3.25-.667.239.557-6.926 4.229-12.833 6.25-.554.19-2.725.919-5.667 1.25-1.042.119-3.814.431-3.922-.014zM90.208 140c-.166-.609-.401-1.471-.083-2.125.392-.807 1.339-.712 2.875-1.333.645-.261 1.513-.882 3.25-2.125 2.969-2.125 3.674-2.902 3.917-2.708.35.28-.593 2.311-1.958 3.917-.745.876-1.009.911-3.042 2.583-2.723 2.239-3.713 3.379-4.375 3.042-.282-.145-.382-.513-.584-1.251zM116.958 116.75c.802-.547 2.117-1.445 2.792-1 .692.457.628 2.275-.188 3.496-.797 1.195-1.623.786-4.646 2.504-1.753.996-2.732 1.552-3.618 2.732-.471.628-.571.972-1.091 1.309-1.458.946-3.86.307-3.958-.375-.062-.426.806-.658 3.042-2.042 1.602-.991 2.824-1.748 4.042-2.875 1.822-1.686 1.789-2.496 3.625-3.749zM215.333 108.583c-.565-.155-.768.99-2.333 1.75-1.255.61-2.02.308-2.688 1.084-.347.403-.689 1.122-.437 1.583.496.911 3.017.295 3.542.167 1.066-.26 1.774-.433 2.25-1.083.889-1.216.386-3.303-.334-3.501zM208.413 111.808c-.334-.435-4.031 1.462-3.871 1.942.106.319 2.03.343 3.208-.833.27-.27.813-.914.663-1.109zM120.903 220.091c.434-.534.486-1.385.19-1.56-.527-.313-2.417 1.379-2.177 1.885.159.334 1.371.432 1.987-.325zM114.075 216.896c-.091.277.492.713.787.885.705.413 1.44.304 2.164.197.456-.068 1.88-.33 1.869-.639-.018-.551-4.587-1.153-4.82-.443zM256.481 237.327c2.713.316 3.639.253 4.269 1.048.964 1.216.365 3.343.031 3.375-.296.028-.205-1.607-1.375-2.469-.889-.655-1.741-.3-3.219-.406-2.829-.203-5.172-1.898-5.063-2.25.082-.259 1.477.251 5.357.702zM159.906 241.813c-.178.048.131 1.263.938 5.688.465 2.549.578 3.333 1.331 3.912 1.308 1.005 3.614.674 3.887-.1.261-.737-1.494-1.397-3.313-3.75-2.26-2.926-2.573-5.824-2.843-5.75zM114.375 267.125c-9.566-8.179-15.49-13.244-19.125-21-1.584-3.379-2.064-5.841-4.625-7.125-1.879-.942-3.085-.352-9.875-.125-5.807.194-6.23-.194-7.125.5-4.056 3.146-1.951 16.222 4.813 20.188 1.092.64 2.442 1.046 5.143 1.857 3.905 1.174 6.775 1.547 9.42 1.955 3.571.551 8.297 1.281 12.25 2.375 9.153 2.534 14.728 7.185 15.063 6.688.236-.353-2.679-2.526-5.939-5.313zM93 261.813c-.409.301-.84-.07-4-1.438-5.089-2.203-5.692-1.988-7.375-3.25-1.187-.89-4.174-3.13-3.75-5.438.462-2.513 4.822-4.289 7.795-3.188.987.366 1.642.982 2.33 1.75 3.682 4.114 6.432 10.511 5 11.564z"/><path d="M277.5 123.375a1463.596 1463.596 0 01-16.75 31.875c-2.657 1.296-4.857 1.685-6.313 1.813-4.214.37-6.367-1.044-9.281.5-1.157.613-1.075.95-2.938 2a20.34 20.34 0 01-4.406 1.844c-2.656.761-5.982 1.112-6.188.469-.219-.684 2.904-2.669 6.042-3.667 1.88-.598 2.997-.597 5.5-1.583 1.987-.783 3.22-1.269 3.167-1.708-.169-1.386-12.966-.832-15.417 0-.067.023-.667.229-1.5.333-.919.115-2.002.26-2.292-.167-.57-.838.971-3.494 3.292-4.75 1.804-.976 2.781-.404 6.208-1 .694-.121 3.108-.571 5.5-1.625 3.828-1.686 7.388-4.824 6.917-5.792-.47-.965-4.912.313-5.125.375-2.06.603-2.869 1.267-4.167 1.833-1.564.683-2.999.859-9.625.333-5.688-.452-8.532-.677-9.75-1-5.933-1.571-6.688-3.791-10.958-3.833-.933-.009-2.445.081-3.417-.917-1.048-1.076-.494-2.417-1.667-3.5-1.097-1.013-2.821-.984-2.958-.667-.136.314 1.332.792 1.833 2.292.092.276.426 1.408-.125 2.042-.558.643-1.724.427-3.458.083-1.542-.306-2.658-.527-3.958-1.292-1.864-1.096-1.732-1.913-3.667-2.792-.498-.226-.994-.393-1.458-.917-.521-.587-1.1-1.73-.708-2.333.61-.938 2.873.504 5.375-.667 1.008-.471 1.844-1.268 1.708-1.625-.221-.583-2.832.514-4.042-.75-.459-.48-.694-1.277-.417-1.75.418-.714 1.92-.547 2.417-.5 5.212.489 15.978-1.462 15.976-1.88-.001-.143-1.267-.297-2.161-.334-3.937-.162-4.881.034-5.69-.662-.953-.82-.298-1.655-1.114-2.321-1.552-1.267-4.298 1.462-8.766.923-.694-.084-2.343-.313-2.745-1.31-.255-.633.168-1.138-.199-1.624-.532-.704-1.833-.193-2.176-.793-.269-.47.269-1.243.333-1.333.997-1.4 3.327-1.208 5.625-1.292 5.014-.182 9.027-1.645 9-1.875-.016-.137-1.488-.02-3.458.042-9.552.301-10.484-1.33-15.292-.208-1.938.452-2.942.95-4.333.458-2.253-.795-2.72-3.371-4.25-3.188-.804.097-1.383.677-2 1.313-1.583 1.629-1.629 2.922-2.375 4.125-1.213 1.954-2.957 1.547-10.625 4.5-3.09 1.19-4.144 1.771-4.083 2.292.064.543 1.331.933 2.375.958 2.069.051 2.542-1.346 5.375-2.458 2.412-.947 2.925-.27 5-1.375 1.695-.903 1.296-1.324 3.125-2.375 2.116-1.216 4.021-1.44 5.958-1.667 1.599-.188 2.077-.055 2.438.125 1.262.63 2.192 2.383 1.75 3.563-.501 1.338-2.486 1.182-5.875 2.375-2.735.962-3.893 1.925-5.688 2.875-3.153 1.668-5.402 1.777-13.5 2.932-11.907 1.699-17.861 2.549-20.25 3.443-3.747 1.401-5.668 2.691-7.313 1.688-3.467-2.115-1.268-11.72-1.938-11.813-.665-.092-.556 9.687-5.438 12-3.935 1.864-9.57-1.853-11.375.5-.101.132-.491.64-.375 1.188.164.78 1.245 1.138 4.313 2 3.41.959 4.397 1.169 5.313 2.188.19.211.702.819 1 1.75.747 2.333-.293 5.321-1.688 5.625-1.217.265-1.557-1.762-3.5-2.5-3.475-1.321-6.448 3.623-13 4.938-1.17.235-2.545.372-6.75-.063-4.711-.487-11.987-1.589-21.5-4.375l-2.38 3.432-.74 54.63c2.715 12.462 4.301 15.498 5.276 15.406 1.31-.124.949-5.841 3.884-6.846 1.102-.378 3.748.368 9.04 1.86.417.117 1.853.524 2.399-.107.447-.518.006-1.395.582-1.973.336-.337.814-.366 1.109-.38 2.033-.094 4.905 1.851 6.95 4.29.346.412.853 1.06 1.224.938.518-.171.104-1.621.938-2.813.165-.235.585-.756 1.839-1.245 4.272-1.666 9.693.362 10.036.495 1.163.45 2.091.809 3.24 1.542 1.634 1.043 2.077 1.799 3.479 2.083 1.062.215 1.875.141 1.917.375.072.399-2.286.946-2.229 1.313.058.37 2.472-.129 5.688.344 2.775.408 4.682 1.325 4.969.813.119-.212-.155-.461-.635-1.385-.64-1.231-1.171-2.157-.958-2.708.697-1.807 5.543-1.479 7.396-1.354 3.021.204 4.142.727 7.521 1.438 5.411 1.139 4.825.353 14.375 1.542 3.444.429 6.013.881 6.333.083.224-.558-.768-1.442-1.004-1.652-3.156-2.808-7.237-.663-14.496-1.89-3.148-.532-2.455-.949-6.458-1.708-3.366-.639-6.173-.784-10.667-1-5.082-.245-7.071-.104-9.542-1.583-1.565-.938-3.078-2.363-2.875-2.708.235-.399 2.671.814 5.125 1.625 4.846 1.601 8.772 1.303 11.958 1.208 16.57-.492 23.676 4.192 42.588 2.13 3.566-.389 12.835-1.152 19.807.682.314.083 3.14 1.059 6.875 2.5 3.861 1.489 5.019 2.082 6.813 2.781 3.559 1.387 4.922 1.362 18.031 3.594 6.554 1.116 8.662 1.539 8.719 1.313.09-.361-5.046-2.336-10.781-3.625-4.132-.929-6.215-.971-9.969-2.5-1.211-.493-5.804-2.364-5.563-3.531.271-1.313 6.513-1.068 9.063-.969 5.768.226 8.764 1.177 13.188 1.688 0 0 .954.099 2.516.242 9.382.855 34.295 1.176 35.922 1.196l2.313-27.125 16.813 8-16.688-22.188 13.125-20.063-.301.174-12.699 7.326-.564-37.002z"/></g><g><path d="M185.38 205.69l-.07-19.19 22 .25 9.6-6.53 21.65-.06 6.72 5.06 21.47-.012V162.38l-21.13-.13-5.5 4.75h-23l-9.62-5h-22v-20.12h-7.12l-6.13 10.37H76v47.13l59.69.06 8.75-7.82 11.5-.06 7.25 14.13m-1.13-38.25H91.12v-5.06h70.94v5.06zm26.88 13.68l-.94 1.07h-2.81l-1.13-1.07v-14.06l1.06-1.94h2.69l1.13 1.44v14.56zm8.94 0l-.94 1.07h-2.82l-1.12-1.07v-14.06l1.06-1.94h2.69l1.13 1.44v14.56zm8.81.13l-.94 1.06h-2.81l-1.13-1.06v-14.06l1.07-1.94h2.68l1.13 1.44v14.56z" fill="#fff"/><path fill="#f9f7f7" d="M269 154.5l14.75-32.75-2.75 32.125 24.25-19.375-23.625 39.155 21.25 30.97-22.25-13.125 1.75 31.068L269 192.375l4.625.625.625-10.81 10.125 4.56-9.125-13.095 10.875-16.556-11.625 8.776L276.33 153l-7.33 4.099z"/><g fill="#fff"><path d="M67.333 250.667l107.68-37.834 112.612 45.292-2 7.5-110.612-43.75-107.68 37.75z"/><circle cx="174.75" cy="218.565" r="12.875" stroke="#000" stroke-width="4" stroke-miterlimit="10"/></g><g><path fill="#fff" d="M137 136.857h22.448V144H137zM140.112 124.273l21.518-6.39 2.034 6.847-21.519 6.39zM133.838 112.299l19.44-11.224 3.571 6.186-19.44 11.224zM123.612 89.996l21.519-6.391 2.034 6.847-21.52 6.391zM50.277 52.787L73.18 39.563l5.571 9.65-22.904 13.224z"/><path d="M72.45 42.297l3.571 6.186-19.44 11.224-3.571-6.186 19.44-11.224m1.465-5.464l-3.464 2L51.01 50.057l-3.464 2 2 3.464 3.571 6.186 2 3.464 3.464-2 19.441-11.224 3.464-2-2-3.464-3.571-6.186-2-3.464z"/><path fill="#fff" d="M116.145 73.973l18.828-18.828 8.338 8.339-18.828 18.827z"/><path d="M134.974 57.974l5.51 5.51-16 16-5.51-5.51 16-16m0-5.656l-2.828 2.828-16 16-2.828 2.828 2.828 2.828 5.51 5.51 2.828 2.828 2.828-2.828 16-16 2.828-2.828-2.828-2.828-5.51-5.51-2.828-2.828z"/><g><path fill="#fff" d="M102.305 68.69l15.124-21.264 8.968 6.378-15.124 21.264z"/><path d="M117.899 50.213l5.707 4.059-12.805 18.005-5.707-4.059 12.805-18.005m-.941-5.578l-2.318 3.26L101.835 65.9l-2.318 3.26 3.26 2.318 5.707 4.059 3.26 2.318 2.318-3.26 12.805-18.005 2.318-3.26-3.26-2.318-5.707-4.059-3.26-2.318z"/></g><g><path fill="#fff" d="M76.115 61.028l19.1-19.1 7.967 7.968-19.1 19.1z"/><path d="M95.214 44.756l5.14 5.14-16.271 16.271-5.14-5.14 16.271-16.271m0-5.657l-2.828 2.828-16.271 16.272-2.828 2.828 2.828 2.828 5.14 5.14 2.828 2.828 2.828-2.828 16.271-16.271 2.828-2.828-2.828-2.828-5.14-5.14-2.828-2.829z"/></g></g></g></g></switch></svg>