<svg xmlns="http://www.w3.org/2000/svg" xml:space="preserve" style="enable-background:new 0 0 350 350" viewBox="0 0 350 350"><switch><g><path d="M45 45h260v260H45z" style="opacity:.4"/><path d="M73 73h204v204H73z" style="fill:#577524"/><path d="M328.125 280.25a205.241 205.241 0 0 0-7.529-28.853l3.932-16.953-6.893 8.821a198.567 198.567 0 0 0-10.746-23.154c-2.97-5.444-6.569-11.943-11.39-18.963l2.686-6.286-6.027 1.618a137.97 137.97 0 0 0-17.991-19.814c-.566-.513-1.13-1.01-1.694-1.506a98.816 98.816 0 0 0-3.183-12.74l2.599-24.643-6.654 14.181a99.671 99.671 0 0 0-18.524-27.443l13.79-5.683-17.761 1.734a100.003 100.003 0 0 0-5.081-4.476c-1.694-7.598-3.979-14.584-6.557-20.97l12.12 3.545-16.943-14.289c-3.916-7.936-8.031-14.748-11.502-20.489a193.671 193.671 0 0 0-10.563-15.678l2.285-9.461-6.856 3.577a197.558 197.558 0 0 0-24.269-25.119 218.171 218.171 0 0 0-21.242 21.285l-.8-12.66-5.684 20.489a210.128 210.128 0 0 0-8.649 11.789 206.966 206.966 0 0 0-11.201 18.435l-7.632-.712 3.87 8.081a156.522 156.522 0 0 0-3.307 7.304c-.522 1.24-1.08 2.575-1.66 4.005l-6.07-7.558 4.563 11.409a131.753 131.753 0 0 0-4.977 16.17 100.162 100.162 0 0 0-14.937 14.745l-9.538-6.88 5.982 11.476a99.16 99.16 0 0 0-14.577 29.093l-17.071-1.486 15.658 6.538a99.642 99.642 0 0 0-1.906 9.581 214.482 214.482 0 0 0-18.916 22.843l-5.197-7.823 2.75 11.317c-.43.628-.864 1.245-1.291 1.883l-14.265-3.478 11.562 7.627a197.415 197.415 0 0 0-5.089 8.485 208.952 208.952 0 0 0-8.983 17.842l-3.517-.592 1.698 4.795a204.138 204.138 0 0 0-4.365 11.288 208.043 208.043 0 0 0-8 29.417 237.725 237.725 0 0 0 21.285 5.798l-7.452 7.452 14.341-6.032c15.917 3.034 33.737 4.658 52.742 3.365 2.068-.141 4.07-.312 6.007-.505l10.382 10.005-5.179-10.593c12.612-1.6 21.663-4.013 25.271-5.043 10.781 4.001 22.442 6.191 34.616 6.191 12.929 0 25.282-2.468 36.615-6.955a216.926 216.926 0 0 0 25.048 4.375l-2.482 5.247 8.265-4.664c4.77.415 9.729.683 14.857.77l6.878 12.061 2.613-12.116c3.658-.103 7.387-.297 11.192-.607 4.287-.349 8.428-.825 12.435-1.391l11.773 7.558-5.65-8.512a213.301 213.301 0 0 0 31.985-8.068M140.16 249.967a30.87 30.87 0 0 1-4.161-10.856l-.444 13.444c-5.495-3.353-17.658-11.826-25.333-27.778-4.958-10.304-6.136-19.767-6.383-25.697l14.383-9.192L123 200.999l-8.111.333a31.21 31.21 0 0 0 10.365 3.762 208.916 208.916 0 0 0 10.817 18.678 186.471 186.471 0 0 0-5.737 10.672l8.209-6.957 12.569 16.624zm37.007-106.745c-6.47-.007-12.489.322-17.988.845L158 139.874l-4.625 5.021a321.649 321.649 0 0 0-9.541 1.271 72.34 72.34 0 0 1 1-18 66.528 66.528 0 0 1 17.944-5.611 66.402 66.402 0 0 1 13.833-.778 114.677 114.677 0 0 1-5.111 15.722l10.5-15.333c3.313.281 7.192.849 11.444 1.944a68.86 68.86 0 0 1 2.845.805 71.008 71.008 0 0 1 10.059 4.076 127.307 127.307 0 0 1 .652 15.841l-2.5-.167-11.833-13.5 6.167 13.333a188.018 188.018 0 0 0-21.667-1.276m62.03 81.626a67.472 67.472 0 0 1-2.68 4.946l-3.101-11.711-.37 16.977a74.389 74.389 0 0 1-16.464 16.189l-15.333-7.417 14.939-22.074 3.727 13.824-.86-18.599a214.735 214.735 0 0 0 6.789-13.152l16.738-1.666-12.829-6.998 2.662-6.585 13.75 9.25c-.463 7.698-2.175 17.217-6.968 27.016"/><path d="M205.333 87c-4.075-6.14-7.673-10.95-10.272-14.595-2.742-3.846-2.378-3.6-5.122-7.506a223.42 223.42 0 0 0-11.162-14.565L182 46.611a1147.884 1147.884 0 0 1 14.111 21.278 1149.295 1149.295 0 0 1 19.212 30.75 109.246 109.246 0 0 1 12.232 5.917 183.082 183.082 0 0 0-12.778-29.111 182.72 182.72 0 0 0-14.411-22.304l3.188-10.362-13.444 9.778 3.699-7.611a186.582 186.582 0 0 0-10.477-11.389l-3 4.667-8.667-10.333a203.651 203.651 0 0 0-18.889 20.778c-11.066 14.002-17.57 26.013-19.667 30-.24.457-.486.924-.734 1.399l-8.044-1.843 5.216 7.389c-3.348 6.784-6.964 15.125-9.771 25.611a133.32 133.32 0 0 0-3.934 22.025l-8.177 8.42 7.639.322a139.36 139.36 0 0 0 .139 11.789l3.244-.848a95.293 95.293 0 0 1-.466-8.596c-.048-5.384.27-21.467 10.556-45.444C141.628 68.934 162.314 44.656 171 35l3.333 3.111a104.52 104.52 0 0 0-10.556 10.222c-5.036 5.614-8.152 10.311-12 16.111-5.189 7.821-8.616 14.144-9.894 16.547-4.266 8.023-6.903 14.358-8.542 18.323-2.314 5.6-4.505 10.901-6.676 18.353-3.254 11.167-4.364 19.956-4.718 23.083a131.993 131.993 0 0 0-.797 11.536l6.013-1.573c.284-5.044.684-9.346 1.057-12.712.906-8.165 1.744-11.738 2.111-13.222.869-3.509 1.738-5.942 3-9.444a9319.488 9319.488 0 0 1 7.107-19.653 208.963 208.963 0 0 0-4.201 17.234 209.336 209.336 0 0 0-3.968 36.462l4.839-1.266a96.167 96.167 0 0 1 .444-17.778c.432-3.65 1.93-14.513 8.556-29.889 3.816-8.855 8.315-16.833 12.958-23.88l-2.958-6.453 15.333 11-6.216-13.297a184.055 184.055 0 0 1 9.771-11.925 180.668 180.668 0 0 1 24.611 37.667 109.71 109.71 0 0 1 9.704 2.834 23.52 23.52 0 0 0-.724-2.874c-.98-3.058-2.339-5.138-3.254-6.517m-5.555-24.334c.91.638 3.738 2.709 7.777 8.445a67.02 67.02 0 0 1 5.222 8.778v5.444a21.665 21.665 0 0 1-2.111-2.222c-1.498-1.82-2.31-3.42-2.556-3.889-1.196-2.291-4.841-8.222-11.278-18.333a25.09 25.09 0 0 1 2.946 1.777" style="fill:#fff"/><path d="M145.222 124.556a82.131 82.131 0 0 1 17.333-4.778c4.94-.792 15.231-2.346 27.952.342 19.542 4.13 31.727 15.504 35.715 19.324A76.617 76.617 0 0 1 237.444 153a142.949 142.949 0 0 1 12 5.889 143.3 143.3 0 0 1 19.333 12.778c-2-8.217-6.431-21.891-16.868-35.881-3.598-4.822-12.655-16.044-27.146-24.914-29.712-18.187-61.415-13.727-71.097-11.983a166.718 166.718 0 0 0-8.444 25.667m-20.594 129.97c2.012-.442 3.989-.896 5.928-1.36-4.235-3.293-26.88-21.564-29.778-53.167-1.863-20.324 5.38-35.918 8.889-42.417a100.293 100.293 0 0 1-1.11-13.583h-6.89l7.044-7.161a100.174 100.174 0 0 1 2.039-15.139c-5.017 4.362-29.457 26.523-32.417 63.966-3.243 41.028 21.833 68.388 25.889 72.667a326.817 326.817 0 0 0 14.167-2.5c.469-.093.917-.195 1.383-.289l-10.216-12.322z" style="fill:#fff"/><path d="M193.389 160.5c4.34.324 8.287.99 11.793 1.807l2.596-11.196c-16.479-2.397-30.424-2.512-40.784-2.021-2.485.118-5.139.249-7.992.467a11.134 11.134 0 0 1-1.002-2.224 11.393 11.393 0 0 1-.5-4.5 38.825 38.825 0 0 0-3.417 4.667 38.462 38.462 0 0 0-1.525 2.688A129.128 129.128 0 0 0 137.111 153a135.54 135.54 0 0 0-21.667 7.299 64.249 64.249 0 0 0-2.722 5.373 88.166 88.166 0 0 0 3.166-.894c3.837-1.162 6.505-2.254 7.921-2.81 5.692-2.234 10.546-3.409 16.523-4.857 8.537-2.068 14.99-2.894 21.889-3.778 4.143-.531 8.971-1.048 14.822-1.239 3.012-.098 5.581.077 10.719.427 2.051.14 5.013.377 8.305 2.01.538.267.971.514 1.267.691-1.729-.215-4.22-.485-7.225-.667-4.955-.299-11.412-.363-23.749.999-7.286.804-15.025 1.659-25.362 3.889a212.557 212.557 0 0 0-29.281 8.584c-.204.506-.411 1.001-.608 1.527a62.828 62.828 0 0 0-1.182 3.522c3.846-1.479 10.759-3.909 19.626-5.967 7.125-1.653 16.589-3.315 27.944-3.889a329.034 329.034 0 0 0-14.944 4.222 329.318 329.318 0 0 0-34.369 12.738 64.832 64.832 0 0 0-.964 7.928 112.347 112.347 0 0 1 19.88-9.436c2.489-.895 11.341-3.975 24.343-5.786 19.635-2.735 37.779-1.046 51 1.222l1.887-8.137a111.988 111.988 0 0 0-8.109-2.974 112.667 112.667 0 0 0-9.889-2.701 77.692 77.692 0 0 1 7.057.204" style="fill:#fff"/><path d="m234.5 200.25-11.726-6.841a186.685 186.685 0 0 0 10.67-35.631 89.32 89.32 0 0 0-9.07-10.69 97.46 97.46 0 0 1-4.875 29.246 97.487 97.487 0 0 1-13.528 26.5 154.547 154.547 0 0 0 12.062-61.506c-.403-.332-.793-.668-1.207-.997a85.89 85.89 0 0 0-4.327-3.218 88.453 88.453 0 0 1-.167 7.667c-.165 2.539-.671 8.613-2.778 17-5.006 19.93-13.491 36.557-19.174 46.258l-8.13.071 3.874 6.794a73.55 73.55 0 0 1-1.593 2.336 148.927 148.927 0 0 1-7.088 9.041l6.158 5.328a126.021 126.021 0 0 0 3.064-3.939c7.681-10.315 12.828-20.512 16.333-29.333a73.061 73.061 0 0 1-3.833 14c-.903 2.349-2.236 5.453-6.833 13.667a381.248 381.248 0 0 1-5.069 8.773l7.069 6.116a187.01 187.01 0 0 0 23.796-37.113l-4.796-3.526H234.5zm-77.722 29.306c-8.084-10.403-13.045-18.326-14.222-20.222a214.216 214.216 0 0 1-14.128-26.813l-5.261 1.896a176.876 176.876 0 0 0 24.278 45.25 176.642 176.642 0 0 0 29.474 31.012 62.718 62.718 0 0 0 7.583-.423c-12.122-11.626-21.228-22.34-27.724-30.7" style="fill:#fff"/><path d="M184.778 247.444a93.583 93.583 0 0 1-7.333-9.889c3.5 3.182 7.238 6.416 11.222 9.667a275.367 275.367 0 0 0 11.679 9.006 61.72 61.72 0 0 0 5.766-2.673c-7.504-3.579-12.58-7.41-15.889-10.333-1.552-1.372-2.67-2.503-7.111-6.556-4.693-4.283-7.887-7.073-8.734-7.83-7.063-6.311-12.103-15.235-16.71-23.392-3.963-7.018-8.768-16.665-13-28.778l-13.061 4.708a289.174 289.174 0 0 0 7.723 14.133c1.919 3.29 8.174 13.868 18.115 27.381 7.416 10.081 17.647 22.825 31.136 36.75a60.706 60.706 0 0 0 6.727-1.627l.006-.002a93.451 93.451 0 0 1-10.536-10.565M269.75 282a182.592 182.592 0 0 0 34.75-15.166 109.099 109.099 0 0 1-26.583 17.084 159.371 159.371 0 0 0 42.639-8.528 249.368 249.368 0 0 0-11.333-34.278c-1.832-4.435-3.777-9.139-6.276-14.296.523 4.567.763 9.779.387 15.518a86.596 86.596 0 0 1-1.583 11.75c.266-4.964.244-10.595-.333-16.75a113.986 113.986 0 0 0-3.924-20.78c-.296-.509-.593-1.019-.902-1.537a275.883 275.883 0 0 0-2.633-4.334l-6.069 2.207 7.611-15.639-9.747 1.462c-6.233-8.192-14.779-17.537-26.404-26.026a124.904 124.904 0 0 0-22.015-12.853l-2.333 9.944c1.816.99 4.289 2.406 7.129 4.254 2.375 1.546 6.108 4.213 11.204 8.385 4.9 4.011 12.21 10.057 19.667 19.167 5.397 6.594 12.742 17.08 18.5 31.833a165.239 165.239 0 0 0-9.36-14.339c-.87-1.192-6.214-8.472-13.14-15.827-12.994-13.799-27.445-23.496-35.226-28.326l-1.523 5.77c11.672 6.778 20.081 14.049 25.638 19.528 15.708 15.487 23.557 31.375 27.861 40.278a162.647 162.647 0 0 1 8.083 20 212.31 212.31 0 0 1-15.389 2.167 212.225 212.225 0 0 1-29.167 1 91.493 91.493 0 0 1-4.369 4.623c2.145.089 4.307.164 6.508.21 9.251.193 18.07-.023 26.41-.535a136.87 136.87 0 0 1-8.993 2.285c-10.665 2.327-20.623 3.148-29.552 3.142a91.223 91.223 0 0 1-12.503 8.774 187.545 187.545 0 0 0 29.877 3.032l6.112 11.742 2.422-9.519L267.417 277z" style="fill:#fff"/><path d="M265.417 218.5a22.989 22.989 0 0 0-1.732-2.354 104.694 104.694 0 0 1-4.629 8.187 105.302 105.302 0 0 1-8.389 11.556c3.179-6.275 5.697-11.217 7.667-15 .505-.969 1.48-2.834 2.556-5.444.227-.55.434-1.079.629-1.592-2.409-2.399-6.648-6.877-12.352-12.936-.818 7.266-3.413 21.11-13.167 35-3.083 4.39-15.448 20.986-38.511 28.307a73.967 73.967 0 0 1-22.135 3.443 94.846 94.846 0 0 1-7.854 5.917 96.036 96.036 0 0 1-22.417 11.167c8.289 2.633 23.484 6.26 42.25 3.75 25.818-3.454 43.129-16.484 50.333-22.667 19.133-16.418 26.668-35.754 29.417-44.233a22.965 22.965 0 0 0-1.666-3.101M157.167 247a105.816 105.816 0 0 1-19.667 10.333c-14.109 5.609-27.484 7.365-39.199 7.706l1.199 5.794-9.5-13.916-4.404 8.03a442.115 442.115 0 0 1-6.275-.288 185.956 185.956 0 0 1-23.655-2.742 212.053 212.053 0 0 1 20.25-41.25 106.53 106.53 0 0 1-1.917-7.5 106.886 106.886 0 0 1-2.417-21.583 201.411 201.411 0 0 0-22.417 32.583 199.065 199.065 0 0 0-6.911 13.794l2.022 3.651-8.694-2.652 3.26 6.897a203.228 203.228 0 0 0-9.844 31.477 215.305 215.305 0 0 0 17.263 4.416c9.005-.103 22.418-.457 34.515-1.583 10.86-1.011 13.244-1.955 23.389-3.278.851-.111 3.117-.402 6-1.278a35.94 35.94 0 0 0 4.907-1.892 21.879 21.879 0 0 1-3.962 2.836c-3.211 1.791-6.026 2.275-7.778 2.611-4.256.816-8.351 2.334-12.581 3.278-3.799.848-8.561 1.95-14.731 3.442 5.296.349 10.103.465 14.312.447 14.446-.064 30.797-.282 50.5-7.5 14.018-5.135 24.571-11.924 31.486-17.083zM35 271.736a400.499 400.499 0 0 1 10.667-26.403c.799-1.785 3.555-7.904 8.667-18 6.838-13.505 9.361-17.284 10.667-19.167a111.416 111.416 0 0 1 3.722-5.056l-1.583 3.499-1.584 3.501c-1.961 4.335-8.971 18.664-12.944 27.111-3.336 7.09-5.601 11.905-8.333 18.778a251.104 251.104 0 0 0-5.951 16.647 1809.4 1809.4 0 0 1-3.328-.91M52.222 275a89.82 89.82 0 0 1-8.685-1.534 40.278 40.278 0 0 1 1.629-8.716c.716-2.354 1.482-4.089 2.167-5.583 1.435-3.133 3.88-8.187 7.667-14.917-2.156 5-4.242 10.881-5.833 17.583a106.092 106.092 0 0 0-1.667 8.583c.496.266 1.26.657 2.216 1.075 3.321 1.454 6.38 2.102 12.84 2.841 2.733.313 6.149.651 10.111.917A90.593 90.593 0 0 1 52.222 275m104.222-11.167c-3.352 2.371-7.521 3.965-15.722 7.056-3.546 1.336-5.357 2.015-7.222 2.556a64.261 64.261 0 0 1-11.944 2.265l41-17.377c-2.39 2.692-4.625 4.448-6.112 5.5" style="fill:#fff"/></g></switch></svg>