<svg xmlns="http://www.w3.org/2000/svg" viewBox="0 0 350 350" style="enable-background:new 0 0 350 350" xml:space="preserve"><switch><g><path style="opacity:.4" d="M60 60h230v230H60z"/><path style="fill:#864236" d="M85 85h180v180H85z"/><path d="m178.5 181.729 65 37.542v75l-65-37.5z"/><path style="fill:#fff" d="m192 205.542 38 21.583v43.333l-38-21.25z"/><path d="m171.5 181.729-65 37.542v75l65-37.5z"/><path style="fill:#fff" d="m158.292 205.75-38 21.583v43.334l38-21.25z"/><path d="M103.583 137.5 39 175l64.583 37.5L169 175l-65.417-37.5z"/><path style="fill:#fff" d="M103.833 152.5 66.5 175l37.333 22.5L141.5 175l-37.667-22.5z"/><g><path d="M245.583 212.5 181 175l64.583-37.5L311 175l-65.417 37.5z"/><path style="fill:#fff" d="M245.833 197.5 208.5 175l37.333-22.5L283.5 175l-37.667 22.5z"/></g><g><path d="m178.5 169.271 65-37.542v-75l-65 37.5z"/><path style="fill:#fff" d="m192 145.458 38-21.583V80.542l-38 21.25z"/><g><path d="m171.5 169.271-65-37.542v-75l65 37.5z"/><path style="fill:#fff" d="m158.292 145.25-38-21.583V80.333l38 21.25z"/></g></g><g><circle style="fill:#fff" cx="175" cy="125" r="9.5"/><circle style="fill:#fff" cx="175" cy="175" r="9.5"/><circle style="fill:#fff" cx="175" cy="225" r="9.5"/></g></g></switch></svg>