<svg xmlns="http://www.w3.org/2000/svg" viewBox="0 0 350 350" style="enable-background:new 0 0 350 350" xml:space="preserve"><switch><g><path style="opacity:.4" d="M45 45h260v260H45z"/><path style="fill:#7f3c32" d="M73 73h204v204H73z"/><path d="M179.266 168.362V83.779l73.087-42.197v84.583z"/><path style="fill:#fff" d="M194.244 141.967V92.828l42.847-24.738v49.139z"/><path d="M171.303 168.362V83.779L98.216 41.582v84.583z"/><path style="fill:#fff" d="M156.325 141.967V92.828L113.478 68.09v49.139z"/><path d="m95.087 132.931 73 42-73 42-73-42z"/><path style="fill:#fff" d="m52.757 174.932 42.33-25.541 42.328 25.536-42.328 25.545-42.33-25.54z"/><path d="m254.913 132.931 73 42-73 42-73-42z"/><path style="fill:#fff" d="m212.582 174.932 42.331-25.541 42.328 25.536-42.328 25.545-42.331-25.54z"/><path d="M171.303 182.638v84.583l-73.087 42.197v-84.583z"/><path style="fill:#fff" d="M156.325 209.033v49.139l-42.847 24.738v-49.139z"/><path d="M179.266 182.638v84.583l73.087 42.197v-84.583z"/><path style="fill:#fff" d="M194.244 209.033v49.139l42.847 24.738v-49.139z"/><circle style="fill:#fff" cx="175.284" cy="231.24" r="10.807"/><circle style="fill:#fff" cx="175.284" cy="118.623" r="10.807"/><circle style="fill:#fff" cx="175.284" cy="174.931" r="10.807"/></g></switch></svg>