<svg xmlns="http://www.w3.org/2000/svg" viewBox="0 0 350 350"><switch><g><path fill="#fff" d="M59.962 59.962H290.037V290.037H59.962z"/><path d="M69.5 69.5H280.5V280.5H69.5z"/><path fill="#1b3652" d="M79 79H271V271H79z"/><radialGradient id="a" cx="175" cy="175" r="96" gradientTransform="matrix(0 -1 1.75 0 -131.25 350)" gradientUnits="userSpaceOnUse"><stop offset=".416" stop-color="#4fa0e2"/><stop offset="1" stop-color="#3a6082" stop-opacity="0"/></radialGradient><path opacity=".5" fill="url(#a)" d="M79 79H271V271H79z"/><g opacity=".5"><path d="M85.193 220.233c.884.296-.908 6.047.354 6.638.903.423 3.14-1.774 5.12-4.222 1.969-2.434 3.461-4.641 4.41-4.206 1.379.632-.696 6.129 1.312 7.348 1.99 1.208 6.414-3.522 7.666-2.454.651.555-.466 2.397-1.202 4.38-.955 2.574-1.617 5.032-2.626 6.546-1.085 1.629-1.868 1.868-1.76 1.963.14.122 1.668-.44 2.72-1.567 3.02-3.235 4.023-6.234 5.01-7.783 1.442-2.264 4.111-4.866 10.276-6.791 2.507.986 5.218 1.025 7.725 2.011 2.507.986 4.735 2.68 7.242 3.666 2.507.986 5.381 1.503 7.888 2.489.797 1.926 1.618 5.186.946 8.244-.678 3.088-3.019 4.58-5.906 7.069-1.855 1.599-3.664 4.007-6.379 6.756-1.919 1.943-3.715 3.846-5.158 5.647-2.667 3.329-4.565 5.799-4.086 6.305.746.787 5.744-3.983 7.196-2.809.925.748.037 3.302-1.869 6.84-1.165 2.161-2.049 4.953-3.814 6.993-2.786 3.221-6.23 4.521-8.32 5.785-3.075.589-5.582 1.641-7.883 1.559-3.344-.12-5.758-1.574-7.718-2.338-2.606-1.017-4.409-2.461-7.799-2.692-2.574-.176-4.457 1.319-8.114.606-.999-.195-1.251-.278-3.118-.679-2.41-.518-4.717-1.079-6.048-1.276.042-2.778.803-5.728.844-8.505.042-2.778.282-5.553.324-8.33.042-2.778.028-5.556.069-8.334.042-2.778-1.055-5.57-1.013-8.348-.002-.592 1.106-1.338 1.228-2.284 0 0 .809-2.292 1.477-4.522.897-2.997 2.646-3.102 6.019-6.694C83.612 223.614 84.5 220.002 85.193 220.233zM104.796 188.128c-1.772.84-3.832 2.11-6.142 3.736-1.796 1.264-3.75 2.7-5.593 4.571-1.728 1.754-3.126 3.855-4.419 5.666-2.223 3.117-3.649 5.585-3.065 6.127 1.05.973 7.605-5.265 8.167-4.665.347.371-1.72 3.209-4.111 5.816-2.246 2.449-4.827 4.852-5.874 4.263-1.339-.752.16-5.991.967-8.192.863-2.351 2.15-4.243 3.354-5.853 1.717-2.296 3.622-3.738 4.768-4.726 1.914-1.652 3.757-3.024 5.613-4.022C100.854 189.564 102.998 188.655 104.796 188.128zM86.533 215.522c-.372-.503-2.546.007-3.684 1.458-.698.89-1.082 2.272-.677 2.601.467.379 1.932-.663 2.596-1.248C85.703 217.51 86.887 216.001 86.533 215.522zM96.794 217.092c-2.29-1.132-3.828-3.238-3.517-5.181.445-2.78 4.231-3.625 4.937-3.814 2.294-.617 3.373-.005 5.477-.08 1.982-.07 4.812-.844 8.112-4.414-1.225 8.688-2.878 10.824-4.225 10.974-1.626.181-2.51-2.494-5.912-3.224-2.432-.522-5.445.097-5.824 1.424-.509 1.78 3.672 4.219 3.26 4.854C98.897 217.945 97.872 217.527 96.794 217.092z"/><path d="M100.625 216.75c-.348-.42.07-1.437.62-2.005.719-.743 1.678-.734 1.876-.732.104.108.837.872.642 1.684C103.459 216.965 101.13 217.36 100.625 216.75zM129.661 256.094c.76.881 2.582.533 3.654-.278 1.325-1.003 2.021-3.094 1.231-3.989-.78-.883-2.87-.443-4.031.689C129.546 253.461 128.895 255.207 129.661 256.094zM140.685 251.351c-.857-.322-1.429-1.506-1.305-2.413.205-1.501 2.303-2.023 4.999-3.494 4.703-2.567 6.491-5.459 6.795-5.186.331.299-1.691 3.818-4.153 6.792C144.836 249.688 142.256 251.941 140.685 251.351zM144.977 256.805c.466.721 5.019-.469 7.764-3.625 2.4-2.76 2.545-6.03 2.56-7.277-.965-.652-1.598-.727-2.051-.654-2.021.325-2.175 3.379-5.149 7.591C146.186 255.551 144.697 256.372 144.977 256.805zM130.068 272.368c.662.673 3.462-.435 5.119-2.249 2.569-2.812 2.74-7.506 1.682-7.982-1.16-.522-4.032 3.891-5.191 5.894C130.803 269.545 129.442 271.731 130.068 272.368zM134.847 273.828c.869 1.003 5.475-1.076 8.366-4.113 2.663-2.798 4.314-6.849 3.397-7.614-.723-.603-2.945.881-4.144 1.725C137.869 267.062 133.822 272.645 134.847 273.828zM150.736 267.699c.294.36 1.722-.067 2.526-1.001.958-1.114.938-2.831.495-3.026C153.002 263.339 150.203 267.045 150.736 267.699zM157.798 264.083c-1.002-.709-1.192-3.255.143-4.454 1.497-1.344 4.371-.498 4.716.548.01.03.133.417-.049.726-.478.811-2.222-.125-3.081.687-.808.763-.113 2.399-.822 2.706C158.336 264.455 157.854 264.123 157.798 264.083zM167.495 264.317c.476.526 1.76.344 2.144-.435.275-.558.072-1.401-.523-1.674-.53-.243-1.113.084-1.417.427C167.279 263.108 167.125 263.908 167.495 264.317zM165.134 241.801c.975.745.105 4.158-1.276 7.334-1.383 3.182-3.275 6.066-4.471 5.857-1.378-.241-2.629-4.762-.892-8.46C160.105 243.106 164.04 240.965 165.134 241.801zM163.143 257.161c.48.327 3.282-2.484 4.829-5.986.972-2.202 1.778-5.301 1.305-5.49C168.321 245.302 162.282 256.576 163.143 257.161zM116.394 150.279c-.81-.736-3.136-2.021-4.977-3.746-2.655-2.489-4.431-5.108-6.322-6.965-2.828-2.777-4.661-5.195-6.45-6.812-2.937-2.656-5.248-3.614-8.251-4.231-1.643-.337-3.788.006-8.026-.324-3.362-.262-6.59-.793-8.441-.841.46-3.604 1.047-7.163 1.287-10.268.287-3.7.772-7.035.821-10.073.063-3.864.046-7.224-.127-10.111-.095-1.591-.76-4.589-.396-7.42.347-2.694 1.782-4.753 3.759-5.892 1.589-.915 2.915-1.54 5.513-3.493 2.077-1.561 2.585-1.99 3.976-2.921 2.802-1.874 7.638-1.264 10.567.735 2.599 1.774 3.975 4.244 4.628 7.307.509 2.385.854 5.146 1.718 8.371.647 2.418 1.615 4.913 3.122 7.829 1.203 2.327 3.132 4.815 7.163 9.986 1.656 2.124 3.232 4.828 5.459 7.508 1.822 2.193 4.166 4.255 6.375 6.756 1.935 2.191 3.222 4.807 5.457 7.194-1.656 3.687-2.971 2.57-5.883 5.372-2.915 2.804-2.389 3.3-5.041 6.353C119.628 147.701 119.655 147.886 116.394 150.279zM195.054 105.522c.377.262-.051 1.224-1.232 5-2.188 6.998-1.894 8.059-3.363 9.347-3.029 2.656-9.141 1.743-9.677-.02-.263-.863.899-1.76 3.367-4.035 2.196-2.025 3.912-3.881 5.36-5.38C192.904 106.92 194.494 105.133 195.054 105.522zM197.44 116.713c.256.035 2.603.363 4.232-1.365 1.647-1.747 1.756-4.74.763-5.361-1.475-.922-6.479 2.608-5.974 5.255C196.539 115.644 196.751 116.151 197.44 116.713zM213.015 121.462c.368.56 2.493-.543 5.644-1.777 5.325-2.084 8.192-2.772 10.372-4.813 3.282-3.073 2.01-4.37 5.551-8.404 3.467-3.95 5.331-3.842 7.847-6.943 1.686-2.078 3.373-5.457 3.084-11.756-3.567 1.223-6.262 2.315-8.322 3.735-3.434 2.368-4.895 5.061-5.724 7.182-1.814 4.642-.274 8.094-3.462 11.409-2.414 2.511-4.335 1.574-9.142 4.912C215.547 117.31 212.504 120.686 213.015 121.462zM232.829 144.992c2.199-1.717 5.755-3.984 9.62-7.62 2.237-2.105 3.583-3.838 4.761-5.05 2.117-2.18 3.013-3.604 5.267-4.62 2.393-1.078 5.03-.8 7.394-.923 2.585-.134 5.097-.36 7.399-.129 3.647.366 6.901 1.744 8.958 2.399.788-2.682.864-6.535 1.195-10.473.26-3.095.192-6.43-.289-10.102-.359-2.742-.549-5.11-1.204-7.303-3.065.667-5.97 1.568-9.035 2.235-3.065.667-6.123 1.364-9.188 2.03-3.065.667-6.32.782-9.384 1.449-3.783 3.183-3.364 3.654-6.635 7.362-3.269 3.707-3.006 3.939-6.276 7.646-3.272 3.709-3.654 3.372-6.925 7.082-3.272 3.709-3.644 3.453-5.832 7.889-2.477 5.022-4.715 5.407-2.584 10.586C222.608 153.622 226.362 146.662 232.829 144.992zM242.796 149.746c.196.422 1.876.298 3.042-.501 1.328-.91 1.985-2.689 1.627-3.008C246.833 145.675 242.434 148.969 242.796 149.746zM249.927 146.643c.133.06.427.058 2.384-2.351 2.194-2.699 3.304-4.083 3.05-4.399-.388-.482-3.288.593-4.706 2.869C249.653 144.373 249.446 146.428 249.927 146.643z"/><path d="M259.355 139.871c-.825-.384-.901-2.739-.07-4.56.998-2.188 2.929-2.978 6.18-4.791 1.875-1.046 4.552-2.551 7.616-4.766-3.555 3.929-6.399 7.175-8.387 9.437C261.77 138.516 260.208 140.268 259.355 139.871zM252.007 133.661c.669.893 3.146.56 4.458-.86 1.175-1.273 1.48-3.476.608-4.121-.801-.592-2.393.271-3.092.795C252.512 130.575 251.329 132.755 252.007 133.661zM245.136 160.166c.762-1.209 2.122-2.732 3.722-4.585 1.02-1.182 3.799-4.457 9.629-8.309 2.611-1.725 4.447-2.531 5.911-3.247 2.112-1.032 3.381-1.9 5.56-3.824 2.965-2.618 4.947-5.567 6.005-7.518 1.111 3.547 1.987 7.275 3.098 10.821-.84 1.707-2.254 3.961-4.871 5.112-2.172.956-3.216.164-5.009 1.362-1.932 1.291-1.817 3.32-4.004 4.213-.791.323-.808.184-1.876.573-1.926.702-3.8 2.122-3.542 2.816.24.644 2.258.472 2.551.454 1.295-.082 1.57-.3 1.769-.109.69.662-2.659 7.197-5.741 6.854-2.455-.273-2.786-4.729-5.179-5.07-1.257-.179-2.966 1.003-5.801 6.217C246.684 164.07 245.812 162.023 245.136 160.166zM256.848 175.023c.118.013 1.971.155 3.157-1.328 1.195-1.494.601-3.22.564-3.326-1.733-.62-3.487.111-4.115 1.482C256.003 172.837 256.134 174.066 256.848 175.023zM254.485 165.954c.877.938-.631 5.243-3.728 6.017-2.191.547-4.133-.92-4.452-1.174.499-.809 1.404-1.902 2.751-2.914C250.768 166.597 253.713 165.128 254.485 165.954z"/></g><path d="M85.125,100.313 c2.639-5.898-4.269-11.307-1.375-16.25c1.933-3.301,7.406-4.976,10.875-3.375c4.111,1.897,3.344,7.442,7.563,16.625 c2.36,5.138,5.135,8.921,7.063,11.271c13.619,14.548,24.527,26.558,31.75,34.583c0,0,65.331,72.587,96.583,96.667 c4.436,3.418,7.484,5.766,12.333,8.167c14.131,6.994,22.854,4.181,25.833,10c2.83,5.528-1.472,15.041-6.417,16.25 c-4.352,1.064-6.492-4.965-12.333-4.583c-6.553,0.429-8.073,8.291-14.25,8.167c-3.618-0.073-7.451-2.858-8.833-6.103 c-1.717-4.032,1.023-7.2-1-12.73c-0.732-2.001-1.785-3.483-2.575-4.434C195.894,217.961,161.447,181.355,127,144.75 c-8.765-7.368-16.053-13.533-22.5-19.167c-3.572-3.121-6.34-5.603-10.833-6.583c-5.292-1.155-7.816,0.898-12.25-1.083 c-3.524-1.574-7.432-5.329-6.942-8.624C75.118,104.971,82.693,105.749,85.125,100.313z" fill="#fff" stroke="#000" stroke-width="4" stroke-miterlimit="10"/><path d="M108.104,277.77c-2.848,0-5.356-1.111-5.83-1.335c-2.922-1.372-4.16-3.329-5.155-4.901 c-0.823-1.301-1.262-1.94-2.235-2.256c-0.297-0.096-0.583-0.143-0.876-0.143c-1.105,0-2.259,0.674-3.595,1.453 c-1.663,0.97-3.548,2.07-5.876,2.07c0,0,0,0,0,0c-0.588,0-1.182-0.073-1.764-0.216c-5.004-1.23-8.952-7.368-8.123-12.629 c0.427-2.708,2.087-5.042,5.384-7.568c5.707-4.371,11.327-5.494,15.843-6.397c1.213-0.242,2.359-0.472,3.396-0.742 c7.167-1.869,11.225-6.244,17.949-13.493c0.69-0.744,1.406-1.515,2.151-2.312c0.159-0.17,16.855-17.933,102.34-101.741 c2.467-2.419,4.836-5.058,7.127-7.61c1.965-2.189,3.997-4.453,6.108-6.602c0.7-0.711,1.821-1.853,3.01-3.642 c1.35-2.032,1.77-3.354,2.35-5.186c0.351-1.105,0.748-2.358,1.412-3.926c1.459-3.443,2.816-5.12,3.906-6.468 c1.042-1.286,1.729-2.136,2.267-4.28c0.48-1.916,0.411-3.187,0.349-4.308c-0.076-1.395-0.163-2.975,1.207-4.5 c1.434-1.598,3.879-2.478,6.884-2.478c4.922,0,10.804,2.384,12.127,6.371c0.842,2.539-0.405,4.619-1.406,6.291 c-0.991,1.653-1.581,2.735-1.239,4.105c0.27,1.08,0.905,1.552,2.317,2.516c1.503,1.025,3.373,2.302,4.867,4.999 c2.17,3.917,3.127,9.582,0.374,13.407c-2.828,3.931-8.387,4.397-10.646,4.416h-0.114c-1.469,0-2.658-0.214-3.707-0.403 c-0.852-0.153-1.588-0.286-2.354-0.286c-0.6,0-1.171,0.081-1.797,0.253c-0.008,0.003-1.571,0.456-3.115,1.59 c-3.828,2.812-16.702,16.66-31.608,32.694c-19.741,21.234-44.308,47.66-62.43,64.332l-37.5,34.5 c-0.839,0.823-1.475,1.789-1.845,2.826c-0.579,1.62-0.377,3.063-0.215,4.221l0.065,0.481 c0.564,4.472-0.417,12.692-5.456,15.715C111.35,277.373,109.819,277.77,108.104,277.77z" fill="#fff"/><path d="M256.333,80.562c4.244,0,9.234,2,10.23,5.001c1.146,3.453-3.768,5.913-2.688,10.25c0.916,3.676,4.81,3.37,7.375,8 c1.679,3.03,2.837,8.023,0.5,11.271c-2.544,3.535-8.196,3.577-9.042,3.583c-0.032,0-0.064,0-0.096,0 c-2.452,0-4.066-0.689-6.058-0.689c-0.71,0-1.468,0.088-2.329,0.325c0,0-1.877,0.518-3.767,1.906 c-9.055,6.651-61.973,67.51-94.208,97.167c-12.5,11.5-25,23-37.5,34.5c-0.767,0.752-1.775,1.945-2.375,3.625 c-0.836,2.342-0.414,4.329-0.25,5.625c0.57,4.518-0.645,11.437-4.5,13.75c-1.108,0.665-2.342,0.894-3.521,0.894 c-2.469,0-4.691-1.009-4.979-1.144c-4.623-2.171-4.089-6.106-7.625-7.25c-0.516-0.167-1.012-0.24-1.492-0.24 c-3.339,0-5.944,3.523-9.472,3.523c-0.415,0-0.843-0.049-1.286-0.158c-3.991-0.981-7.3-6.094-6.625-10.375 c0.3-1.904,1.418-3.835,4.625-6.292c6.835-5.236,13.539-5.491,18.527-6.792c8.515-2.222,12.981-7.742,21.056-16.375 c0,0,15.837-16.931,102.281-101.679c4.631-4.54,8.714-9.613,13.261-14.238c0.675-0.686,1.936-1.96,3.25-3.938 c2.387-3.591,2.238-5.426,3.938-9.438c2.771-6.54,5.015-6.028,6.271-11.042c1.155-4.61-0.462-6.214,1.104-7.958 C252.066,81.117,254.096,80.562,256.333,80.562 M256.333,76.562c-3.632,0-6.527,1.086-8.372,3.141 c-1.924,2.143-1.798,4.431-1.715,5.946c0.056,1.027,0.114,2.09-0.292,3.713c-0.43,1.715-0.885,2.277-1.881,3.508 c-1.108,1.368-2.624,3.243-4.193,6.945c-0.7,1.653-1.113,2.954-1.477,4.102c-0.551,1.737-0.915,2.885-2.109,4.682 c-1.085,1.633-2.123,2.688-2.743,3.319c-2.173,2.21-4.22,4.492-6.201,6.698c-2.374,2.645-4.615,5.143-7.036,7.515 c-85.453,83.777-101.749,101.106-102.401,101.802c-0.748,0.8-1.465,1.573-2.157,2.319 c-6.477,6.982-10.386,11.196-16.988,12.919c-0.98,0.256-2.098,0.479-3.282,0.716c-4.719,0.943-10.592,2.117-16.668,6.771 c-3.736,2.862-5.631,5.59-6.144,8.844c-0.994,6.307,3.592,13.4,9.621,14.882c0.738,0.181,1.492,0.273,2.241,0.273 c2.87,0,5.096-1.299,6.885-2.343c0.948-0.553,2.022-1.18,2.587-1.18c0.056,0,0.136,0.005,0.261,0.046 c0.262,0.085,0.426,0.261,1.16,1.422c1.013,1.602,2.544,4.023,5.996,5.643c0.761,0.357,3.493,1.524,6.679,1.524 c2.082,0,3.959-0.493,5.579-1.464c5.894-3.536,7.063-12.511,6.41-17.681c-0.02-0.16-0.044-0.33-0.069-0.508 c-0.152-1.087-0.296-2.113,0.117-3.271c0.262-0.734,0.722-1.432,1.368-2.074l37.448-34.452 c18.178-16.724,42.775-43.181,62.538-64.44c14.839-15.961,27.654-29.746,31.33-32.447c1.228-0.902,2.483-1.279,2.496-1.283 c0.414-0.114,0.816-0.172,1.232-0.172c0.587,0,1.21,0.112,1.998,0.254c1.075,0.194,2.413,0.435,4.06,0.435l0.127,0 c2.563-0.019,8.891-0.568,12.258-5.247c3.265-4.537,2.228-11.077-0.248-15.546c-1.724-3.112-3.9-4.597-5.488-5.681 c-1.278-0.872-1.426-1.034-1.504-1.348c-0.137-0.549,0.12-1.101,1.014-2.593c1.083-1.807,2.72-4.539,1.589-7.949 C268.673,79.221,262.027,76.562,256.333,76.562L256.333,76.562z"/><path d="M177.672,250.875c-0.672-0.004-1.281-0.273-1.727-0.708c-0.441,0.39-1.02,0.625-1.653,0.625 h-6.333c-0.885,0-1.663-0.46-2.107-1.153c-0.019,0.018-0.038,0.034-0.058,0.051c-0.456,0.392-1.035,0.603-1.627,0.603 c-0.123,0-0.247-0.009-0.37-0.027l-5.311-0.792c-0.679-0.101-1.261-0.47-1.645-0.99c-0.015,0.011-0.03,0.021-0.045,0.032 c-0.423,0.293-0.92,0.443-1.421,0.443c-0.298,0-0.597-0.053-0.883-0.161l-6.949-2.625c-0.976-0.369-1.62-1.305-1.617-2.348 l0.025-7.749c0-0.094,0.006-0.187,0.017-0.279c0.043-0.373,0.02-0.588-0.001-0.691c-0.133-0.044-0.467-0.122-1.179-0.122 c-1.314,0-3.215,0.256-5.622,0.578c-1.23,0.166-2.486,0.426-2.499,0.429c-0.449,0.094-0.937,0.206-1.464,0.34 c-1.197,0.306-2.141,0.619-2.974,0.895c-1.053,0.35-1.963,0.65-2.899,0.76c-0.269,0.031-0.541,0.047-0.818,0.047 c-10.619,0-25.361-24.513-26.468-50.549c-0.418-9.844-0.989-23.268,8.024-34.85c5.094-6.546,12.143-11.189,20.973-13.821 v-7.478c0-7.995,6.505-14.5,14.5-14.5h23.417v-13.411c0-0.226,0.03-0.449,0.09-0.666c0.77-2.784,3.304-4.729,6.162-4.729 c0.097,0,0.194,0.002,0.291,0.007c2.788,0.128,5.148,2.048,5.873,4.777c0.056,0.209,0.084,0.425,0.084,0.642v13.38h21.083 c7.995,0,14.5,6.505,14.5,14.5v7.646c11.824,3.138,20.496,9.09,25.796,17.712c6.045,9.835,5.531,19.801,5.034,29.438 c-1.418,27.463-16.325,51.899-27.08,51.899c0,0,0,0,0,0c-0.273,0-0.543-0.014-0.81-0.043c-1.041-0.112-2.119-0.469-3.485-0.92 c-1.936-0.639-4.587-1.515-8.514-2.139c-0.7-0.11-1.441-0.214-2.113-0.214c-0.832,0-1.193,0.164-1.267,0.251 c-0.068,0.078-0.147,0.318-0.145,0.733l0.208,8.534c0.028,1.167-0.755,2.198-1.886,2.484l-6.416,1.625 c-0.203,0.051-0.409,0.076-0.614,0.076c-0.455,0-0.903-0.124-1.295-0.361c-0.356,0.728-1.057,1.262-1.904,1.379l-6.334,0.875 c-0.114,0.016-0.228,0.023-0.341,0.023c-0.41,0-0.812-0.101-1.171-0.291c-0.459,0.529-1.136,0.864-1.891,0.864 C182.808,250.906,177.672,250.875,177.672,250.875z M198.359,136.61c2.184,0,5.352,0.103,9.017,0.536v-5.063 c0-3.032-2.467-5.5-5.5-5.5h-17.523c5.071,0.386,9.053,1.522,11.302,5.081c0.909,1.438,1.424,3.097,1.541,4.956 C197.555,136.614,197.943,136.61,198.359,136.61z M146.209,126.583c-3.033,0-5.5,2.468-5.5,5.5v4.758 c2.596-0.31,5.261-0.466,7.956-0.466c1.945,0,3.615,0.082,4.917,0.18c0.131-1.896,0.67-3.583,1.612-5.038 c2.194-3.389,5.896-4.535,10.583-4.934H146.209z" fill="#fff"/><path d="M175.212,100.527c0.058,0,0.116,0.001,0.174,0.004c1.673,0.077,3.132,1.262,3.573,2.922c0,5.293,0,10.587,0,15.88 h23.583c6.6,0,12,5.4,12,12v9.599c9.43,2.198,19.946,6.949,26.167,17.068c5.616,9.136,5.16,18.444,4.667,28 c-1.35,26.141-15.535,49.529-24.583,49.529c-0.183,0-0.363-0.01-0.542-0.029c-2.019-0.218-5.169-1.978-11.875-3.042 c-0.762-0.121-1.644-0.245-2.506-0.245c-1.227,0-2.414,0.251-3.161,1.12c-0.638,0.742-0.753,1.698-0.75,2.375 c0.069,2.861,0.139,5.722,0.208,8.583c-2.139,0.542-4.278,1.083-6.417,1.625c0.028-1.792,0.056-3.583,0.083-5.375 c0.091-1.092-0.771-2-1.749-2c0,0-0.001,0-0.001,0c-0.865,0-1.657,0.711-1.75,1.667c-0.042,2.25-0.083,4.5-0.125,6.75 c-2.111,0.292-4.222,0.583-6.333,0.875c0-3.028,0-6.056,0-9.083c0.223-1.243-0.631-2.22-1.375-2.25 c-0.012,0-0.024-0.001-0.036-0.001c-0.721,0-1.599,0.858-1.527,2.063c-0.042,3.281-0.083,6.563-0.125,9.844 c-1.708-0.01-3.417-0.021-5.125-0.031c0.01-3.5,0.021-7,0.031-10.5c0.15-1.224-0.714-2.199-1.552-2.25 c-0.024-0.001-0.047-0.002-0.071-0.002c-0.875,0-1.853,0.965-1.721,2.252c-0.028,3.472-0.056,6.944-0.083,10.417 c-2.111,0-4.222,0-6.333,0c0-3.083,0-6.167,0-9.25c0.068-1.329-0.971-2.302-1.951-2.302c-0.058,0-0.117,0.003-0.174,0.011 c-0.864,0.106-1.656,1.02-1.625,2.167c-0.014,2.958-0.028,5.917-0.042,8.875c-1.771-0.264-3.542-0.528-5.313-0.792 c-0.02-2.223-0.041-4.445-0.061-6.668c0.175-1.079-0.643-2.043-1.625-2.082c-0.021-0.001-0.041-0.001-0.062-0.001 c-0.922,0-1.756,0.817-1.73,1.846c0,2.121,0,4.242,0,6.363c-2.316-0.875-4.632-1.75-6.949-2.625 c0.008-2.583,0.017-5.167,0.026-7.75c0.171-1.484-0.238-2.22-0.534-2.583c-0.606-0.744-1.619-1.017-3.129-1.017 c-1.481,0-3.439,0.263-5.955,0.6c-1.341,0.18-2.676,0.459-2.676,0.459c-0.483,0.1-1.007,0.22-1.573,0.365 c-2.748,0.702-4.266,1.445-5.543,1.593c-0.174,0.02-0.35,0.03-0.529,0.03c-8.496,0-22.879-22.469-23.971-48.155 c-0.42-9.879-0.962-22.335,7.5-33.208c5.895-7.574,13.91-11.492,21.5-13.457v-9.376c0-6.6,5.4-12,12-12h25.917 c0-5.304,0-10.608,0-15.911C171.934,101.706,173.492,100.527,175.212,100.527 M194.593,139.232 c0.308-0.025,1.67-0.122,3.767-0.122c2.791,0,6.883,0.17,11.516,0.905v-7.933c0-4.4-3.6-8-8-8h-22.917 c0,1.601,0,3.203,0,4.804c7.659,0.094,12.372,0.615,14.583,4.113C194.849,135.066,194.838,137.465,194.593,139.232 M138.209,139.724c3.884-0.65,7.497-0.848,10.456-0.848c4.136,0,6.993,0.387,7.519,0.466 c-0.258-1.847-0.265-4.345,1.108-6.466c2.205-3.405,6.746-3.938,14.167-4.004c0-1.596,0-3.192,0-4.788h-25.25 c-4.4,0-8,3.6-8,8V139.724 M175.212,95.527L175.212,95.527c-3.979,0-7.504,2.699-8.572,6.562 c-0.12,0.434-0.181,0.882-0.181,1.332v10.911h-20.917c-9.374,0-17,7.626-17,17v5.647c-8.508,2.861-15.374,7.598-20.446,14.115 c-9.578,12.307-8.984,26.26-8.551,36.449c0.532,12.509,4.016,25.253,9.812,35.926c2.785,5.129,10.228,17.059,19.156,17.059 c0.37,0,0.742-0.021,1.105-0.063c1.192-0.138,2.265-0.494,3.4-0.87c0.794-0.263,1.693-0.561,2.804-0.845 c0.452-0.115,0.908-0.221,1.354-0.314c0.015-0.003,1.188-0.247,2.322-0.399c1.555-0.209,2.891-0.388,3.948-0.483l-0.008,2.373 l-0.013,3.888c-0.007,2.086,1.282,3.957,3.233,4.694l3.474,1.313l3.474,1.312c0.572,0.216,1.171,0.323,1.767,0.323 c0.343,0,0.684-0.035,1.019-0.105c0.521,0.295,1.102,0.499,1.723,0.592l5.313,0.792c0.246,0.037,0.492,0.055,0.737,0.055 c0.438,0,0.872-0.058,1.291-0.169c0.736,0.426,1.59,0.669,2.501,0.669h6.333c0.553,0,1.085-0.09,1.582-0.256 c0.553,0.215,1.154,0.335,1.783,0.339l2.57,0.016l2.555,0.016c0.01,0,0.021,0,0.031,0c0.871,0,1.691-0.223,2.406-0.616 c0.217,0.029,0.436,0.043,0.656,0.043c0.228,0,0.456-0.016,0.684-0.047l3.402-0.47l2.932-0.405 c0.903-0.125,1.722-0.486,2.398-1.016c0.152,0.014,0.306,0.021,0.459,0.021c0.41,0,0.822-0.05,1.227-0.153l6.417-1.625 c2.263-0.573,3.828-2.635,3.771-4.968l-0.104-4.292l-0.062-2.571c0.197,0.027,0.397,0.057,0.594,0.089 c3.727,0.591,6.164,1.396,8.122,2.043c1.447,0.478,2.696,0.891,4,1.031c0.354,0.038,0.717,0.058,1.078,0.058 c6.5,0,13.642-6.42,19.593-17.614c5.695-10.711,9.333-24.071,9.983-36.657c0.518-10.019,1.053-20.379-5.4-30.876 c-5.282-8.592-14.024-14.864-25.426-18.291v-5.757c0-9.374-7.626-17-17-17h-18.583v-10.88c0-0.433-0.056-0.865-0.168-1.284 c-1.006-3.788-4.291-6.453-8.174-6.633C175.482,95.53,175.347,95.527,175.212,95.527L175.212,95.527L175.212,95.527z M196.861,129.083h5.015c1.626,0,3,1.374,3,3v2.301c-2.115-0.175-3.993-0.246-5.524-0.267 c-0.321-1.362-0.849-2.628-1.583-3.789C197.487,129.883,197.184,129.468,196.861,129.083L196.861,129.083z M143.209,134.084 v-2.001c0-1.626,1.374-3,3-3h7.667c-0.274,0.336-0.534,0.694-0.781,1.075c-0.748,1.155-1.291,2.415-1.63,3.773 c-0.856-0.034-1.794-0.055-2.801-0.055C146.83,133.875,145.007,133.945,143.209,134.084L143.209,134.084z"/><path d="M128,180.667c-7.503,6.036-10.821,15.785-8.5,24.833c2.612,10.182,11.936,17.807,22.167,17.833 c12.138,0.031,23.234-10.642,23.667-24.667c-5.627-2.215-11.539-4.752-17.667-7.667 C140.541,187.611,133.984,184.121,128,180.667z"/><path d="M156.688,196.064h-9.906v-13.523c0-1.657-1.343-3-3-3h-4c-1.657,0-3,1.343-3,3v13.523h-9.898 c-1.657,0-3,1.343-3,3v4c0,1.657,1.343,3,3,3h9.898v9.398c0,1.657,1.343,3,3,3h4c1.657,0,3-1.343,3-3v-9.398h9.906 c1.657,0,3-1.343,3-3v-4C159.688,197.407,158.345,196.064,156.688,196.064z M141.786,205.502c-2.485,0-4.5-2.015-4.5-4.5 s2.015-4.5,4.5-4.5s4.5,2.015,4.5,4.5S144.271,205.502,141.786,205.502z" fill="#fff"/><path d="M222.937,182c7.503,6.036,10.821,15.785,8.5,24.833c-2.612,10.182-11.936,17.807-22.167,17.833 c-12.138,0.031-23.234-10.642-23.667-24.667c5.627-2.215,11.539-4.752,17.667-7.667 C210.396,188.944,216.953,185.455,222.937,182z"/><path d="M223.162,196.064h-9.906v-13.523c0-1.657-1.343-3-3-3h-4c-1.657,0-3,1.343-3,3v13.523h-9.898 c-1.657,0-3,1.343-3,3v4c0,1.657,1.343,3,3,3h9.898v9.398c0,1.657,1.343,3,3,3h4c1.657,0,3-1.343,3-3v-9.398h9.906 c1.657,0,3-1.343,3-3v-4C226.162,197.407,224.819,196.064,223.162,196.064z M208.26,205.502c-2.485,0-4.5-2.015-4.5-4.5 s2.015-4.5,4.5-4.5s4.5,2.015,4.5,4.5S210.745,205.502,208.26,205.502z" fill="#fff"/><circle cx="175" cy="213.313" r="3"/><path d="M134.335,107.479c-1.224,0-2.415-0.282-3.444-0.815c-1.972-1.021-3.427-2.968-3.991-5.339 c-0.632-2.657-0.054-5.482,1.585-7.75l0.11-0.143c3.01-3.676,19.395-22.012,46.446-22.012h0.132 c26.804,0.059,43.102,18.11,46.254,21.939c1.882,2.051,2.775,4.745,2.453,7.407c-0.277,2.292-1.419,4.246-3.133,5.361 c-1.067,0.693-2.362,1.06-3.745,1.06c-2.287,0.001-4.605-0.99-6.359-2.718c-15.6-15.665-25.541-17.821-33.963-17.821 c-0.505,0-0.995,0.006-1.468,0.013c-20.611,0.297-32.587,15.699-33.885,17.454l-0.086,0.117l-0.098,0.108 C139.347,106.336,136.865,107.479,134.335,107.479z" fill="#fff"/><path d="M175.042,74.42c0.042,0,0.083,0,0.125,0c26.391,0.058,41.967,18.43,44,20.913c2.69,2.87,2.047,6.914-0.054,8.281 c-0.588,0.382-1.32,0.575-2.109,0.575c-1.406,0-2.991-0.613-4.253-1.856c-17.354-17.427-28.5-18.684-36.069-18.684 c-0.52,0-1.023,0.006-1.51,0.013c-22.239,0.321-34.849,16.772-36.253,18.671c-1.277,1.415-2.997,2.146-4.581,2.146 c-0.737,0-1.445-0.158-2.064-0.479c-2.559-1.325-3.676-5.456-1.354-8.667C132.926,92.878,148.578,74.421,175.042,74.42 M175.042,68.42L175.042,68.42c-28.41,0.001-45.609,19.253-48.768,23.112l-0.114,0.139l-0.105,0.146 c-2.151,2.975-2.907,6.693-2.073,10.201c0.766,3.222,2.782,5.886,5.53,7.309c1.454,0.753,3.122,1.151,4.824,1.151 c3.377,0,6.671-1.504,9.036-4.127l0.196-0.217l0.174-0.235c1.207-1.633,12.347-15.962,31.515-16.239 c0.459-0.007,0.933-0.012,1.424-0.012c5.232,0,14.97,0,31.818,16.918l0.021,0.021l0.021,0.02 c2.311,2.276,5.396,3.581,8.464,3.581c1.966,0,3.826-0.534,5.38-1.545c2.46-1.6,4.091-4.339,4.476-7.515 c0.425-3.509-0.727-7.044-3.165-9.735c-3.433-4.15-20.513-22.912-48.515-22.973L175.042,68.42L175.042,68.42z"/><path d="M236.216,95.669c-2.438,0-4.705-1.088-6.218-2.986c-3.456-4.527-22.117-26.888-54.042-27.35 c-0.331-0.005-0.663-0.008-0.991-0.008c-33.211,0-52.885,24.513-55.019,27.308l-0.069,0.091l-0.076,0.086 c-1.605,1.799-3.896,2.83-6.288,2.831c-2.146,0-4.185-0.844-5.595-2.314c-2.541-2.648-2.8-6.899-0.617-10.107l0.061-0.09 l0.067-0.085c4.325-5.463,27.904-32.716,67.505-32.716c0.311,0,0.619,0.002,0.932,0.005 c39.314,0.429,62.576,27.621,66.84,33.067l0.113,0.145l0.094,0.156c2.103,3.488,1.188,8.089-2.083,10.474 C239.488,95.152,237.893,95.669,236.216,95.669z" fill="#fff"/><path d="M174.933,53.328c0.3,0,0.598,0.002,0.9,0.005c39.067,0.426,61.705,28.333,64.51,31.917 c1.317,2.185,0.738,5.028-1.281,6.5c-0.849,0.618-1.848,0.919-2.846,0.919c-1.452,0-2.899-0.636-3.873-1.857 C229.99,87.727,210.302,62.83,176,62.333c-0.345-0.005-0.693-0.008-1.036-0.008c-34.94,0-55.265,25.687-57.402,28.487 c-1.106,1.239-2.607,1.828-4.049,1.828c-1.302,0-2.556-0.479-3.43-1.39c-1.51-1.574-1.717-4.265-0.302-6.344 C112.465,81.516,135.586,53.328,174.933,53.328 M174.933,47.328c-40.985,0-65.382,28.201-69.857,33.854l-0.134,0.169 l-0.121,0.178c-2.976,4.372-2.585,10.207,0.932,13.873c1.973,2.057,4.801,3.237,7.76,3.237c3.245,0,6.353-1.397,8.527-3.833 l0.153-0.171l0.139-0.182c2.041-2.674,20.861-26.127,52.632-26.127c0.314,0,0.633,0.002,0.949,0.007 c30.54,0.442,48.392,21.835,51.661,26.119l0.039,0.051l0.04,0.05c2.086,2.616,5.207,4.116,8.564,4.116 c2.316,0,4.522-0.716,6.38-2.07c4.517-3.292,5.785-9.638,2.886-14.446l-0.189-0.313l-0.225-0.288 c-4.412-5.636-28.484-33.774-69.169-34.218C175.575,47.33,175.255,47.328,174.933,47.328L174.933,47.328z"/><path d="M124.667,100.527c-0.339-0.455-0.753-1.157-0.885-2.09c-0.045-0.317-0.012-0.342-0.063-0.578 c-0.21-0.982-1.051-1.828-1.965-2.136c-0.813-0.274-1.092,0.077-1.825-0.059c-0.71-0.132-1.663-0.686-2.595-2.664 c2.139-2.947,21.374-28.5,55.833-29.333c34.603-0.837,55.087,23.964,57.333,26.783c0.185,3.432-0.441,4.519-1.112,4.82 c-0.51,0.229-0.975-0.028-1.597,0.397c-0.535,0.366-0.739,0.943-1.125,2.083c-0.165,0.487-0.365,1.168-0.518,2.01 c-10.504-18.077-29.925-29.198-50.816-29.094C154.337,70.772,134.948,82.201,124.667,100.527z"/></g></switch></svg>