<svg xmlns="http://www.w3.org/2000/svg" viewBox="0 0 350 350"><switch><g><path fill="#fff" d="M59.962 59.962h230.075v230.075H59.962z"/><path d="M69.5 69.5h211v211h-211z"/><path fill="#1b3652" d="M79 79h192v192H79z"/><radialGradient id="twitch-a" cx="175" cy="175" r="96" gradientTransform="matrix(0 -1 1.75 0 -131.25 350)" gradientUnits="userSpaceOnUse"><stop offset=".416" stop-color="#4fa0e2"/><stop offset="1" stop-color="#3a6082" stop-opacity="0"/></radialGradient><path opacity=".5" fill="url(#twitch-a)" d="M79 79h192v192H79z"/><g opacity=".5"><path d="M85.193 220.233c.884.296-.908 6.047.354 6.638.903.423 3.14-1.774 5.12-4.222 1.969-2.434 3.461-4.641 4.41-4.206 1.379.632-.696 6.129 1.312 7.348 1.99 1.208 6.414-3.522 7.666-2.454.651.555-.466 2.397-1.202 4.38-.955 2.574-1.617 5.032-2.626 6.546-1.085 1.629-1.868 1.868-1.76 1.963.14.122 1.668-.44 2.72-1.567 3.02-3.235 4.023-6.234 5.01-7.783 1.442-2.264 4.111-4.866 10.276-6.791 2.507.986 5.218 1.025 7.725 2.011 2.507.986 4.735 2.68 7.242 3.666 2.507.986 5.381 1.503 7.888 2.489.797 1.926 1.618 5.186.946 8.244-.678 3.088-3.019 4.58-5.906 7.069-1.855 1.599-3.664 4.007-6.379 6.756-1.919 1.943-3.715 3.846-5.158 5.647-2.667 3.329-4.565 5.799-4.086 6.305.746.787 5.744-3.983 7.196-2.809.925.748.037 3.302-1.869 6.84-1.165 2.161-2.049 4.953-3.814 6.993-2.786 3.221-6.23 4.521-8.32 5.785-3.075.589-5.582 1.641-7.883 1.559-3.344-.12-5.758-1.574-7.718-2.338-2.606-1.017-4.409-2.461-7.799-2.692-2.574-.176-4.457 1.319-8.114.606-.999-.195-1.251-.278-3.118-.679-2.41-.518-4.717-1.079-6.048-1.276.042-2.778.803-5.728.844-8.505.042-2.778.282-5.553.324-8.33.042-2.778.028-5.556.069-8.334.042-2.778-1.055-5.57-1.013-8.348-.002-.592 1.106-1.338 1.228-2.284 0 0 .809-2.292 1.477-4.522.897-2.997 2.646-3.102 6.019-6.694 3.406-3.63 4.294-7.242 4.987-7.011zM104.796 188.128c-1.772.84-3.832 2.11-6.142 3.736-1.796 1.264-3.75 2.7-5.593 4.571-1.728 1.754-3.126 3.855-4.419 5.666-2.223 3.117-3.649 5.585-3.065 6.127 1.05.973 7.605-5.265 8.167-4.665.347.371-1.72 3.209-4.111 5.816-2.246 2.449-4.827 4.852-5.874 4.263-1.339-.752.16-5.991.967-8.192.863-2.351 2.15-4.243 3.354-5.853 1.717-2.296 3.622-3.738 4.768-4.726 1.914-1.652 3.757-3.024 5.613-4.022 2.393-1.285 4.537-2.194 6.335-2.721zM86.533 215.522c-.372-.503-2.546.007-3.684 1.458-.698.89-1.082 2.272-.677 2.601.467.379 1.932-.663 2.596-1.248.935-.823 2.119-2.332 1.765-2.811zM96.794 217.092c-2.29-1.132-3.828-3.238-3.517-5.181.445-2.78 4.231-3.625 4.937-3.814 2.294-.617 3.373-.005 5.477-.08 1.982-.07 4.812-.844 8.112-4.414-1.225 8.688-2.878 10.824-4.225 10.974-1.626.181-2.51-2.494-5.912-3.224-2.432-.522-5.445.097-5.824 1.424-.509 1.78 3.672 4.219 3.26 4.854-.205.314-1.23-.104-2.308-.539z"/><path d="M100.625 216.75c-.348-.42.07-1.437.62-2.005.719-.743 1.678-.734 1.876-.732.104.108.837.872.642 1.684-.304 1.268-2.633 1.663-3.138 1.053zM129.661 256.094c.76.881 2.582.533 3.654-.278 1.325-1.003 2.021-3.094 1.231-3.989-.78-.883-2.87-.443-4.031.689-.969.945-1.62 2.691-.854 3.578zM140.685 251.351c-.857-.322-1.429-1.506-1.305-2.413.205-1.501 2.303-2.023 4.999-3.494 4.703-2.567 6.491-5.459 6.795-5.186.331.299-1.691 3.818-4.153 6.792-2.185 2.638-4.765 4.891-6.336 4.301zM144.977 256.805c.466.721 5.019-.469 7.764-3.625 2.4-2.76 2.545-6.03 2.56-7.277-.965-.652-1.598-.727-2.051-.654-2.021.325-2.175 3.379-5.149 7.591-1.915 2.711-3.404 3.532-3.124 3.965zM130.068 272.368c.662.673 3.462-.435 5.119-2.249 2.569-2.812 2.74-7.506 1.682-7.982-1.16-.522-4.032 3.891-5.191 5.894-.875 1.514-2.236 3.7-1.61 4.337zM134.847 273.828c.869 1.003 5.475-1.076 8.366-4.113 2.663-2.798 4.314-6.849 3.397-7.614-.723-.603-2.945.881-4.144 1.725-4.597 3.236-8.644 8.819-7.619 10.002zM150.736 267.699c.294.36 1.722-.067 2.526-1.001.958-1.114.938-2.831.495-3.026-.755-.333-3.554 3.373-3.021 4.027zM157.798 264.083c-1.002-.709-1.192-3.255.143-4.454 1.497-1.344 4.371-.498 4.716.548.01.03.133.417-.049.726-.478.811-2.222-.125-3.081.687-.808.763-.113 2.399-.822 2.706-.369.159-.851-.173-.907-.213zM167.495 264.317c.476.526 1.76.344 2.144-.435.275-.558.072-1.401-.523-1.674-.53-.243-1.113.084-1.417.427-.42.473-.574 1.273-.204 1.682zM165.134 241.801c.975.745.105 4.158-1.276 7.334-1.383 3.182-3.275 6.066-4.471 5.857-1.378-.241-2.629-4.762-.892-8.46 1.61-3.426 5.545-5.567 6.639-4.731zM163.143 257.161c.48.327 3.282-2.484 4.829-5.986.972-2.202 1.778-5.301 1.305-5.49-.956-.383-6.995 10.891-6.134 11.476zM116.394 150.279c-.81-.736-3.136-2.021-4.977-3.746-2.655-2.489-4.431-5.108-6.322-6.965-2.828-2.777-4.661-5.195-6.45-6.812-2.937-2.656-5.248-3.614-8.251-4.231-1.643-.337-3.788.006-8.026-.324-3.362-.262-6.59-.793-8.441-.841.46-3.604 1.047-7.163 1.287-10.268.287-3.7.772-7.035.821-10.073.063-3.864.046-7.224-.127-10.111-.095-1.591-.76-4.589-.396-7.42.347-2.694 1.782-4.753 3.759-5.892 1.589-.915 2.915-1.54 5.513-3.493 2.077-1.561 2.585-1.99 3.976-2.921 2.802-1.874 7.638-1.264 10.567.735 2.599 1.774 3.975 4.244 4.628 7.307.509 2.385.854 5.146 1.718 8.371.647 2.418 1.615 4.913 3.122 7.829 1.203 2.327 3.132 4.815 7.163 9.986 1.656 2.124 3.232 4.828 5.459 7.508 1.822 2.193 4.166 4.255 6.375 6.756 1.935 2.191 3.222 4.807 5.457 7.194-1.656 3.687-2.971 2.57-5.883 5.372-2.915 2.804-2.389 3.3-5.041 6.353-2.697 3.108-2.67 3.293-5.931 5.686zM195.054 105.522c.377.262-.051 1.224-1.232 5-2.188 6.998-1.894 8.059-3.363 9.347-3.029 2.656-9.141 1.743-9.677-.02-.263-.863.899-1.76 3.367-4.035 2.196-2.025 3.912-3.881 5.36-5.38 3.395-3.514 4.985-5.301 5.545-4.912zM197.44 116.713c.256.035 2.603.363 4.232-1.365 1.647-1.747 1.756-4.74.763-5.361-1.475-.922-6.479 2.608-5.974 5.255.078.402.29.909.979 1.471zM213.015 121.462c.368.56 2.493-.543 5.644-1.777 5.325-2.084 8.192-2.772 10.372-4.813 3.282-3.073 2.01-4.37 5.551-8.404 3.467-3.95 5.331-3.842 7.847-6.943 1.686-2.078 3.373-5.457 3.084-11.756-3.567 1.223-6.262 2.315-8.322 3.735-3.434 2.368-4.895 5.061-5.724 7.182-1.814 4.642-.274 8.094-3.462 11.409-2.414 2.511-4.335 1.574-9.142 4.912-3.316 2.303-6.359 5.679-5.848 6.455zM232.829 144.992c2.199-1.717 5.755-3.984 9.62-7.62 2.237-2.105 3.583-3.838 4.761-5.05 2.117-2.18 3.013-3.604 5.267-4.62 2.393-1.078 5.03-.8 7.394-.923 2.585-.134 5.097-.36 7.399-.129 3.647.366 6.901 1.744 8.958 2.399.788-2.682.864-6.535 1.195-10.473.26-3.095.192-6.43-.289-10.102-.359-2.742-.549-5.11-1.204-7.303-3.065.667-5.97 1.568-9.035 2.235-3.065.667-6.123 1.364-9.188 2.03-3.065.667-6.32.782-9.384 1.449-3.783 3.183-3.364 3.654-6.635 7.362-3.269 3.707-3.006 3.939-6.276 7.646-3.272 3.709-3.654 3.372-6.925 7.082-3.272 3.709-3.644 3.453-5.832 7.889-2.477 5.022-4.715 5.407-2.584 10.586 2.537 6.172 6.291-.788 12.758-2.458zM242.796 149.746c.196.422 1.876.298 3.042-.501 1.328-.91 1.985-2.689 1.627-3.008-.632-.562-5.031 2.732-4.669 3.509zM249.927 146.643c.133.06.427.058 2.384-2.351 2.194-2.699 3.304-4.083 3.05-4.399-.388-.482-3.288.593-4.706 2.869-1.002 1.611-1.209 3.666-.728 3.881z"/><path d="M259.355 139.871c-.825-.384-.901-2.739-.07-4.56.998-2.188 2.929-2.978 6.18-4.791 1.875-1.046 4.552-2.551 7.616-4.766-3.555 3.929-6.399 7.175-8.387 9.437-2.924 3.325-4.486 5.077-5.339 4.68zM252.007 133.661c.669.893 3.146.56 4.458-.86 1.175-1.273 1.48-3.476.608-4.121-.801-.592-2.393.271-3.092.795-1.469 1.1-2.652 3.28-1.974 4.186zM245.136 160.166c.762-1.209 2.122-2.732 3.722-4.585 1.02-1.182 3.799-4.457 9.629-8.309 2.611-1.725 4.447-2.531 5.911-3.247 2.112-1.032 3.381-1.9 5.56-3.824 2.965-2.618 4.947-5.567 6.005-7.518 1.111 3.547 1.987 7.275 3.098 10.821-.84 1.707-2.254 3.961-4.871 5.112-2.172.956-3.216.164-5.009 1.362-1.932 1.291-1.817 3.32-4.004 4.213-.791.323-.808.184-1.876.573-1.926.702-3.8 2.122-3.542 2.816.24.644 2.258.472 2.551.454 1.295-.082 1.57-.3 1.769-.109.69.662-2.659 7.197-5.741 6.854-2.455-.273-2.786-4.729-5.179-5.07-1.257-.179-2.966 1.003-5.801 6.217-.674-1.856-1.546-3.903-2.222-5.76zM256.848 175.023c.118.013 1.971.155 3.157-1.328 1.195-1.494.601-3.22.564-3.326-1.733-.62-3.487.111-4.115 1.482-.451.986-.32 2.215.394 3.172zM254.485 165.954c.877.938-.631 5.243-3.728 6.017-2.191.547-4.133-.92-4.452-1.174.499-.809 1.404-1.902 2.751-2.914 1.712-1.286 4.657-2.755 5.429-1.929z"/></g><g><path d="M85.125 100.313c2.639-5.898-4.269-11.307-1.375-16.25 1.933-3.301 7.406-4.976 10.875-3.375 4.111 1.897 3.344 7.442 7.563 16.625a52.008 52.008 0 007.063 11.271 2396.31 2396.31 0 0131.75 34.583s65.331 72.587 96.583 96.667c4.436 3.418 7.484 5.766 12.333 8.167 14.131 6.994 22.854 4.181 25.833 10 2.83 5.528-1.472 15.041-6.417 16.25-4.352 1.064-6.492-4.965-12.333-4.583-6.553.429-8.073 8.291-14.25 8.167-3.618-.073-7.451-2.858-8.833-6.103-1.717-4.032 1.023-7.2-1-12.73a15.037 15.037 0 00-2.575-4.434L127 144.75c-8.765-7.368-16.053-13.533-22.5-19.167-3.572-3.121-6.34-5.603-10.833-6.583-5.292-1.155-7.816.898-12.25-1.083-3.524-1.574-7.432-5.329-6.942-8.624.643-4.322 8.218-3.544 10.65-8.98z" fill="#fff" stroke="#000" stroke-width="4" stroke-miterlimit="10"/><path d="M108.104 277.77c-2.848 0-5.356-1.111-5.83-1.335-2.922-1.372-4.16-3.329-5.155-4.901-.823-1.301-1.262-1.94-2.235-2.256a2.808 2.808 0 00-.876-.143c-1.105 0-2.259.674-3.595 1.453-1.663.97-3.548 2.07-5.876 2.07a7.406 7.406 0 01-1.764-.216c-5.004-1.23-8.952-7.368-8.123-12.629.427-2.708 2.087-5.042 5.384-7.568 5.707-4.371 11.327-5.494 15.843-6.397 1.213-.242 2.359-.472 3.396-.742 7.167-1.869 11.225-6.244 17.949-13.493.69-.744 1.406-1.515 2.151-2.312.159-.17 16.855-17.933 102.34-101.741 2.467-2.419 4.836-5.058 7.127-7.61 1.965-2.189 3.997-4.453 6.108-6.602.7-.711 1.821-1.853 3.01-3.642 1.35-2.032 1.77-3.354 2.35-5.186.351-1.105.748-2.358 1.412-3.926 1.459-3.443 2.816-5.12 3.906-6.468 1.042-1.286 1.729-2.136 2.267-4.28.48-1.916.411-3.187.349-4.308-.076-1.395-.163-2.975 1.207-4.5 1.434-1.598 3.879-2.478 6.884-2.478 4.922 0 10.804 2.384 12.127 6.371.842 2.539-.405 4.619-1.406 6.291-.991 1.653-1.581 2.735-1.239 4.105.27 1.08.905 1.552 2.317 2.516 1.503 1.025 3.373 2.302 4.867 4.999 2.17 3.917 3.127 9.582.374 13.407-2.828 3.931-8.387 4.397-10.646 4.416h-.114c-1.469 0-2.658-.214-3.707-.403-.852-.153-1.588-.286-2.354-.286-.6 0-1.171.081-1.797.253-.008.003-1.571.456-3.115 1.59-3.828 2.812-16.702 16.66-31.608 32.694-19.741 21.234-44.308 47.66-62.43 64.332l-37.5 34.5c-.839.823-1.475 1.789-1.845 2.826-.579 1.62-.377 3.063-.215 4.221l.065.481c.564 4.472-.417 12.692-5.456 15.715-1.301.785-2.832 1.182-4.547 1.182z" fill="#fff"/><path d="M256.333 80.562c4.244 0 9.234 2 10.23 5.001 1.146 3.453-3.768 5.913-2.688 10.25.916 3.676 4.81 3.37 7.375 8 1.679 3.03 2.837 8.023.5 11.271-2.544 3.535-8.196 3.577-9.042 3.583h-.096c-2.452 0-4.066-.689-6.058-.689a8.63 8.63 0 00-2.329.325s-1.877.518-3.767 1.906c-9.055 6.651-61.973 67.51-94.208 97.167l-37.5 34.5c-.767.752-1.775 1.945-2.375 3.625-.836 2.342-.414 4.329-.25 5.625.57 4.518-.645 11.437-4.5 13.75-1.108.665-2.342.894-3.521.894-2.469 0-4.691-1.009-4.979-1.144-4.623-2.171-4.089-6.106-7.625-7.25a4.808 4.808 0 00-1.492-.24c-3.339 0-5.944 3.523-9.472 3.523-.415 0-.843-.049-1.286-.158-3.991-.981-7.3-6.094-6.625-10.375.3-1.904 1.418-3.835 4.625-6.292 6.835-5.236 13.539-5.491 18.527-6.792 8.515-2.222 12.981-7.742 21.056-16.375 0 0 15.837-16.931 102.281-101.679 4.631-4.54 8.714-9.613 13.261-14.238.675-.686 1.936-1.96 3.25-3.938 2.387-3.591 2.238-5.426 3.938-9.438 2.771-6.54 5.015-6.028 6.271-11.042 1.155-4.61-.462-6.214 1.104-7.958 1.128-1.257 3.158-1.812 5.395-1.812m0-4c-3.632 0-6.527 1.086-8.372 3.141-1.924 2.143-1.798 4.431-1.715 5.946.056 1.027.114 2.09-.292 3.713-.43 1.715-.885 2.277-1.881 3.508-1.108 1.368-2.624 3.243-4.193 6.945-.7 1.653-1.113 2.954-1.477 4.102-.551 1.737-.915 2.885-2.109 4.682-1.085 1.633-2.123 2.688-2.743 3.319-2.173 2.21-4.22 4.492-6.201 6.698-2.374 2.645-4.615 5.143-7.036 7.515-85.453 83.777-101.749 101.106-102.401 101.802-.748.8-1.465 1.573-2.157 2.319-6.477 6.982-10.386 11.196-16.988 12.919-.98.256-2.098.479-3.282.716-4.719.943-10.592 2.117-16.668 6.771-3.736 2.862-5.631 5.59-6.144 8.844-.994 6.307 3.592 13.4 9.621 14.882a9.42 9.42 0 002.241.273c2.87 0 5.096-1.299 6.885-2.343.948-.553 2.022-1.18 2.587-1.18.056 0 .136.005.261.046.262.085.426.261 1.16 1.422 1.013 1.602 2.544 4.023 5.996 5.643.761.357 3.493 1.524 6.679 1.524 2.082 0 3.959-.493 5.579-1.464 5.894-3.536 7.063-12.511 6.41-17.681-.02-.16-.044-.33-.069-.508-.152-1.087-.296-2.113.117-3.271.262-.734.722-1.432 1.368-2.074l37.448-34.452c18.178-16.724 42.775-43.181 62.538-64.44 14.839-15.961 27.654-29.746 31.33-32.447 1.228-.902 2.483-1.279 2.496-1.283a4.578 4.578 0 011.232-.172c.587 0 1.21.112 1.998.254 1.075.194 2.413.435 4.06.435h.127c2.563-.019 8.891-.568 12.258-5.247 3.265-4.537 2.228-11.077-.248-15.546-1.724-3.112-3.9-4.597-5.488-5.681-1.278-.872-1.426-1.034-1.504-1.348-.137-.549.12-1.101 1.014-2.593 1.083-1.807 2.72-4.539 1.589-7.949-1.686-5.081-8.332-7.74-14.026-7.74z"/><path d="M177.672 250.875a2.487 2.487 0 01-1.727-.708c-.441.39-1.02.625-1.653.625h-6.333a2.5 2.5 0 01-2.107-1.153l-.058.051a2.497 2.497 0 01-1.997.576l-5.311-.792a2.5 2.5 0 01-1.645-.99l-.045.032a2.494 2.494 0 01-2.304.282l-6.949-2.625a2.502 2.502 0 01-1.617-2.348l.025-7.749c0-.094.006-.187.017-.279.043-.373.02-.588-.001-.691-.133-.044-.467-.122-1.179-.122-1.314 0-3.215.256-5.622.578-1.23.166-2.486.426-2.499.429-.449.094-.937.206-1.464.34-1.197.306-2.141.619-2.974.895-1.053.35-1.963.65-2.899.76a7.13 7.13 0 01-.818.047c-10.619 0-25.361-24.513-26.468-50.549-.418-9.844-.989-23.268 8.024-34.85 5.094-6.546 12.143-11.189 20.973-13.821v-7.478c0-7.995 6.505-14.5 14.5-14.5h23.417v-13.411c0-.226.03-.449.09-.666.77-2.784 3.304-4.729 6.162-4.729.097 0 .194.002.291.007 2.788.128 5.148 2.048 5.873 4.777.056.209.084.425.084.642v13.38h21.083c7.995 0 14.5 6.505 14.5 14.5v7.646c11.824 3.138 20.496 9.09 25.796 17.712 6.045 9.835 5.531 19.801 5.034 29.438-1.418 27.463-16.325 51.899-27.08 51.899-.273 0-.543-.014-.81-.043-1.041-.112-2.119-.469-3.485-.92-1.936-.639-4.587-1.515-8.514-2.139-.7-.11-1.441-.214-2.113-.214-.832 0-1.193.164-1.267.251-.068.078-.147.318-.145.733l.208 8.534a2.5 2.5 0 01-1.886 2.484l-6.416 1.625a2.518 2.518 0 01-1.909-.285 2.5 2.5 0 01-1.904 1.379l-6.334.875a2.504 2.504 0 01-1.512-.268 2.497 2.497 0 01-1.891.864l-5.141-.031zm20.687-114.265c2.184 0 5.352.103 9.017.536v-5.063c0-3.032-2.467-5.5-5.5-5.5h-17.523c5.071.386 9.053 1.522 11.302 5.081.909 1.438 1.424 3.097 1.541 4.956.359-.006.747-.01 1.163-.01zm-52.15-10.027a5.506 5.506 0 00-5.5 5.5v4.758a67.212 67.212 0 017.956-.466c1.945 0 3.615.082 4.917.18.131-1.896.67-3.583 1.612-5.038 2.194-3.389 5.896-4.535 10.583-4.934h-19.568z" fill="#fff"/><path d="M175.212 100.527c.058 0 .116.001.174.004 1.673.077 3.132 1.262 3.573 2.922v15.88h23.583c6.6 0 12 5.4 12 12v9.599c9.43 2.198 19.946 6.949 26.167 17.068 5.616 9.136 5.16 18.444 4.667 28-1.35 26.141-15.535 49.529-24.583 49.529-.183 0-.363-.01-.542-.029-2.019-.218-5.169-1.978-11.875-3.042-.762-.121-1.644-.245-2.506-.245-1.227 0-2.414.251-3.161 1.12-.638.742-.753 1.698-.75 2.375l.208 8.583-6.417 1.625.083-5.375c.091-1.092-.771-2-1.749-2h-.001c-.865 0-1.657.711-1.75 1.667l-.125 6.75-6.333.875v-9.083c.223-1.243-.631-2.22-1.375-2.25l-.036-.001c-.721 0-1.599.858-1.527 2.063l-.125 9.844-5.125-.031.031-10.5c.15-1.224-.714-2.199-1.552-2.25l-.071-.002c-.875 0-1.853.965-1.721 2.252l-.083 10.417h-6.333v-9.25c.068-1.329-.971-2.302-1.951-2.302a1.26 1.26 0 00-.174.011c-.864.106-1.656 1.02-1.625 2.167l-.042 8.875-5.313-.792-.061-6.668c.175-1.079-.643-2.043-1.625-2.082l-.062-.001c-.922 0-1.756.817-1.73 1.846v6.363l-6.949-2.625.026-7.75c.171-1.484-.238-2.22-.534-2.583-.606-.744-1.619-1.017-3.129-1.017-1.481 0-3.439.263-5.955.6-1.341.18-2.676.459-2.676.459-.483.1-1.007.22-1.573.365-2.748.702-4.266 1.445-5.543 1.593-.174.02-.35.03-.529.03-8.496 0-22.879-22.469-23.971-48.155-.42-9.879-.962-22.335 7.5-33.208 5.895-7.574 13.91-11.492 21.5-13.457v-9.376c0-6.6 5.4-12 12-12h25.917v-15.911c.475-1.718 2.033-2.897 3.753-2.897m19.381 38.705c.308-.025 1.67-.122 3.767-.122 2.791 0 6.883.17 11.516.905v-7.933c0-4.4-3.6-8-8-8h-22.917v4.804c7.659.094 12.372.615 14.583 4.113 1.307 2.067 1.296 4.466 1.051 6.233m-56.384.492a63.805 63.805 0 0110.456-.848c4.136 0 6.993.387 7.519.466-.258-1.847-.265-4.345 1.108-6.466 2.205-3.405 6.746-3.938 14.167-4.004v-4.788h-25.25c-4.4 0-8 3.6-8 8v7.64m37.003-44.197c-3.979 0-7.504 2.699-8.572 6.562-.12.434-.181.882-.181 1.332v10.911h-20.917c-9.374 0-17 7.626-17 17v5.647c-8.508 2.861-15.374 7.598-20.446 14.115-9.578 12.307-8.984 26.26-8.551 36.449.532 12.509 4.016 25.253 9.812 35.926 2.785 5.129 10.228 17.059 19.156 17.059.37 0 .742-.021 1.105-.063 1.192-.138 2.265-.494 3.4-.87.794-.263 1.693-.561 2.804-.845a32.08 32.08 0 011.354-.314c.015-.003 1.188-.247 2.322-.399 1.555-.209 2.891-.388 3.948-.483l-.008 2.373-.013 3.888a5 5 0 003.233 4.694l3.474 1.313 3.474 1.312a5.002 5.002 0 002.786.218 4.99 4.99 0 001.723.592l5.313.792a4.951 4.951 0 002.028-.114c.736.426 1.59.669 2.501.669h6.333c.553 0 1.085-.09 1.582-.256a4.998 4.998 0 001.783.339l2.57.016 2.555.016h.031a4.98 4.98 0 002.406-.616 4.95 4.95 0 001.34-.004l3.402-.47 2.932-.405a4.985 4.985 0 002.398-1.016 5.018 5.018 0 001.686-.132l6.417-1.625a4.999 4.999 0 003.771-4.968l-.104-4.292-.062-2.571c.197.027.397.057.594.089 3.727.591 6.164 1.396 8.122 2.043 1.447.478 2.696.891 4 1.031.354.038.717.058 1.078.058 6.5 0 13.642-6.42 19.593-17.614 5.695-10.711 9.333-24.071 9.983-36.657.518-10.019 1.053-20.379-5.4-30.876-5.282-8.592-14.024-14.864-25.426-18.291v-5.757c0-9.374-7.626-17-17-17h-18.583v-10.88c0-.433-.056-.865-.168-1.284-1.006-3.788-4.291-6.453-8.174-6.633a9.042 9.042 0 00-.404-.009zm21.649 33.556h5.015c1.626 0 3 1.374 3 3v2.301a80.659 80.659 0 00-5.524-.267 12.343 12.343 0 00-1.583-3.789 11.57 11.57 0 00-.908-1.245zm-53.652 5.001v-2.001c0-1.626 1.374-3 3-3h7.667a12.434 12.434 0 00-2.411 4.848 70.681 70.681 0 00-2.801-.055 70.34 70.34 0 00-5.455.208z"/><path d="M128 180.667c-7.503 6.036-10.821 15.785-8.5 24.833 2.612 10.182 11.936 17.807 22.167 17.833 12.138.031 23.234-10.642 23.667-24.667A279.134 279.134 0 01128 180.667z"/><path d="M156.688 196.064h-9.906v-13.523a3 3 0 00-3-3h-4a3 3 0 00-3 3v13.523h-9.898a3 3 0 00-3 3v4a3 3 0 003 3h9.898v9.398a3 3 0 003 3h4a3 3 0 003-3v-9.398h9.906a3 3 0 003-3v-4a3 3 0 00-3-3zm-14.902 9.438a4.5 4.5 0 110-9 4.5 4.5 0 010 9z" fill="#fff"/><g><path d="M222.937 182c7.503 6.036 10.821 15.785 8.5 24.833-2.612 10.182-11.936 17.807-22.167 17.833-12.138.031-23.234-10.642-23.667-24.667A279.134 279.134 0 00222.937 182z"/><path d="M223.162 196.064h-9.906v-13.523a3 3 0 00-3-3h-4a3 3 0 00-3 3v13.523h-9.898a3 3 0 00-3 3v4a3 3 0 003 3h9.898v9.398a3 3 0 003 3h4a3 3 0 003-3v-9.398h9.906a3 3 0 003-3v-4a3 3 0 00-3-3zm-14.902 9.438a4.5 4.5 0 110-9 4.5 4.5 0 010 9z" fill="#fff"/></g><circle cx="175" cy="213.313" r="3"/><g><path d="M134.335 107.479a7.512 7.512 0 01-3.444-.815c-1.972-1.021-3.427-2.968-3.991-5.339-.632-2.657-.054-5.482 1.585-7.75l.11-.143c3.01-3.676 19.395-22.012 46.446-22.012h.132c26.804.059 43.102 18.11 46.254 21.939 1.882 2.051 2.775 4.745 2.453 7.407-.277 2.292-1.419 4.246-3.133 5.361-1.067.693-2.362 1.06-3.745 1.06-2.287.001-4.605-.99-6.359-2.718-15.6-15.665-25.541-17.821-33.963-17.821-.505 0-.995.006-1.468.013-20.611.297-32.587 15.699-33.885 17.454l-.086.117-.098.108c-1.796 1.996-4.278 3.139-6.808 3.139z" fill="#fff"/><path d="M175.042 74.42h.125c26.391.058 41.967 18.43 44 20.913 2.69 2.87 2.047 6.914-.054 8.281-.588.382-1.32.575-2.109.575-1.406 0-2.991-.613-4.253-1.856-17.354-17.427-28.5-18.684-36.069-18.684-.52 0-1.023.006-1.51.013-22.239.321-34.849 16.772-36.253 18.671-1.277 1.415-2.997 2.146-4.581 2.146a4.472 4.472 0 01-2.064-.479c-2.559-1.325-3.676-5.456-1.354-8.667 2.006-2.455 17.658-20.912 44.122-20.913m0-6c-28.41.001-45.609 19.253-48.768 23.112l-.114.139-.105.146c-2.151 2.975-2.907 6.693-2.073 10.201.766 3.222 2.782 5.886 5.53 7.309a10.525 10.525 0 004.824 1.151c3.377 0 6.671-1.504 9.036-4.127l.196-.217.174-.235c1.207-1.633 12.347-15.962 31.515-16.239.459-.007.933-.012 1.424-.012 5.232 0 14.97 0 31.818 16.918l.021.021.021.02c2.311 2.276 5.396 3.581 8.464 3.581 1.966 0 3.826-.534 5.38-1.545 2.46-1.6 4.091-4.339 4.476-7.515.425-3.509-.727-7.044-3.165-9.735-3.433-4.15-20.513-22.912-48.515-22.973h-.139z"/><g><path d="M236.216 95.669a7.908 7.908 0 01-6.218-2.986c-3.456-4.527-22.117-26.888-54.042-27.35a65.798 65.798 0 00-.991-.008c-33.211 0-52.885 24.513-55.019 27.308l-.069.091-.076.086a8.445 8.445 0 01-6.288 2.831c-2.146 0-4.185-.844-5.595-2.314-2.541-2.648-2.8-6.899-.617-10.107l.061-.09.067-.085c4.325-5.463 27.904-32.716 67.505-32.716.311 0 .619.002.932.005 39.314.429 62.576 27.621 66.84 33.067l.113.145.094.156c2.103 3.488 1.188 8.089-2.083 10.474a7.792 7.792 0 01-4.614 1.493z" fill="#fff"/><path d="M174.933 53.328c.3 0 .598.002.9.005 39.067.426 61.705 28.333 64.51 31.917 1.317 2.185.738 5.028-1.281 6.5a4.822 4.822 0 01-2.846.919 4.947 4.947 0 01-3.873-1.857C229.99 87.727 210.302 62.83 176 62.333a71.782 71.782 0 00-1.036-.008c-34.94 0-55.265 25.687-57.402 28.487a5.422 5.422 0 01-4.049 1.828c-1.302 0-2.556-.479-3.43-1.39-1.51-1.574-1.717-4.265-.302-6.344 2.684-3.39 25.805-31.578 65.152-31.578m0-6c-40.985 0-65.382 28.201-69.857 33.854l-.134.169-.121.178c-2.976 4.372-2.585 10.207.932 13.873 1.973 2.057 4.801 3.237 7.76 3.237 3.245 0 6.353-1.397 8.527-3.833l.153-.171.139-.182c2.041-2.674 20.861-26.127 52.632-26.127.314 0 .633.002.949.007 30.54.442 48.392 21.835 51.661 26.119l.039.051.04.05a10.893 10.893 0 008.564 4.116 10.76 10.76 0 006.38-2.07c4.517-3.292 5.785-9.638 2.886-14.446l-.189-.313-.225-.288c-4.412-5.636-28.484-33.774-69.169-34.218a78.293 78.293 0 00-.967-.006z"/></g></g><path d="M124.667 100.527a4.563 4.563 0 01-.885-2.09c-.045-.317-.012-.342-.063-.578-.21-.982-1.051-1.828-1.965-2.136-.813-.274-1.092.077-1.825-.059-.71-.132-1.663-.686-2.595-2.664 2.139-2.947 21.374-28.5 55.833-29.333 34.603-.837 55.087 23.964 57.333 26.783.185 3.432-.441 4.519-1.112 4.82-.51.229-.975-.028-1.597.397-.535.366-.739.943-1.125 2.083a14.133 14.133 0 00-.518 2.01c-10.504-18.077-29.925-29.198-50.816-29.094-20.995.106-40.384 11.535-50.665 29.861z"/></g></g></switch></svg>