<svg xmlns="http://www.w3.org/2000/svg" viewBox="0 0 350 350" style="enable-background:new 0 0 350 350" xml:space="preserve"><switch><g><path style="fill:#fff" d="M59.962 59.962h230.075v230.075H59.962z"/><path style="fill:#231f20" d="M69.5 69.5h211v211h-211z"/><path style="fill:#c79326" d="M79 79h192v192H79z"/><radialGradient id="valkyrie-a" cx="175" cy="175" r="96" gradientTransform="matrix(0 -1 1.2 0 -35 350)" gradientUnits="userSpaceOnUse"><stop offset="0" style="stop-color:#ffde50"/><stop offset="1" style="stop-color:#fff;stop-opacity:0"/></radialGradient><path style="fill:url(#valkyrie-a)" d="M79 79h192v192H79z"/><g><path style="fill:#231f20" d="M175.016 69.547A96.065 96.065 0 0 0 182 82c5.221 7.863 10.964 16.55 21 21 3.296 1.461 3.227.775 9 3a93.282 93.282 0 0 1 16 8 74690.297 74690.297 0 0 1 111-94l-26 55 17-13-29 49 18-12a953.058 953.058 0 0 1-45 67l2 31a168.48 168.48 0 0 0-27 12c-12.102 6.705-21.196 13.694-21 14 .182.283 8.315-5.162 22-12 9.845-4.919 15.892-7.226 16-7 .222.464-25.862 9.002-47 31-.946.984-.379.432-8 9a3382.593 3382.593 0 0 1-27 30h-18a283.435 283.435 0 0 0-28-31 282.418 282.418 0 0 0-13.89-12.414C102.793 216.094 88.762 206.361 89 206c.327-.496 27.056 17.328 28 16 .512-.721-6.542-7.117-14-12-11.367-7.442-22.435-10.561-30-12l2-33a1208.205 1208.205 0 0 1-44-66l18 12-29-49 17 13-26-55a2340.437 2340.437 0 0 0 112 94 180.032 180.032 0 0 1 7-4c12.511-6.78 14.861-6.117 21-10 8.258-5.223 13.002-12.172 17-18a81.237 81.237 0 0 0 7.016-12.453z"/><path style="fill:#fff" d="M32 46a1278.086 1278.086 0 0 0 86 70c-3.843 4.834-10.329 14.481-12 28-3.513 28.423 17.4 48.575 20 51 .335-6.985-.359-12.451-1-16-1.944-10.77-5.39-14.963-4-23 .621-3.59 1.859-5.939 4-10 2.387-4.528 6.612-11.206 14-18a321.142 321.142 0 0 1 35 74 147.066 147.066 0 0 0-8.875-17.063c-4.668-7.693-10.696-16.017-19.5-21-2.546-1.441-5.038-2.44-7.313-1.5-3.588 1.484-4.231 6.802-4.313 7.563v28a216.54 216.54 0 0 1 9 14 217.878 217.878 0 0 1 17 36 186.412 186.412 0 0 0-32-29 186.755 186.755 0 0 0-49-25 84.733 84.733 0 0 1 11-22 271.286 271.286 0 0 1 43 40 187.332 187.332 0 0 0-15-19c-8.812-9.784-14.961-16.611-25-23-4.988-3.174-7.53-4.073-12-8-4.798-4.215-7.868-8.451-12-15-4.141-6.563-9.447-15.603-15-27a531.508 531.508 0 0 0 39 31v-7a154.472 154.472 0 0 1-10-7s-9.056-6.887-16-14c-13.73-14.064-22.897-34.242-25-39a1199.405 1199.405 0 0 0 52 41v-7a385.387 385.387 0 0 0-20-16c-11.302-8.433-17.571-12.119-24-21-1.973-2.725-3.315-5.15-6-10A235.92 235.92 0 0 1 32 46zM318 46a1278.086 1278.086 0 0 1-86 70c3.843 4.834 10.329 14.481 12 28 3.513 28.423-17.4 48.575-20 51-.335-6.985.359-12.451 1-16 1.944-10.77 5.39-14.963 4-23-.621-3.59-1.859-5.939-4-10-2.387-4.528-6.612-11.206-14-18a275.471 275.471 0 0 0-34 74c2.121-4.042 19.459-36.724 29.667-38.833 1.585-.327 4.934-1.019 7.208.917 2.103 1.79 2.153 4.861 2.125 5.917v28a216.54 216.54 0 0 0-9 14 217.878 217.878 0 0 0-17 36 186.412 186.412 0 0 1 32-29 186.755 186.755 0 0 1 49-25 84.733 84.733 0 0 0-11-22 271.286 271.286 0 0 0-43 40 187.332 187.332 0 0 1 15-19c8.812-9.784 14.961-16.611 25-23 4.988-3.174 7.53-4.073 12-8 4.798-4.215 7.868-8.451 12-15 4.141-6.563 9.447-15.603 15-27a531.508 531.508 0 0 1-39 31v-7a154.472 154.472 0 0 0 10-7s9.056-6.887 16-14c13.73-14.064 22.897-34.242 25-39a1199.405 1199.405 0 0 1-52 41v-7a385.387 385.387 0 0 1 20-16c11.302-8.433 17.571-12.119 24-21 1.973-2.725 3.315-5.15 6-10A235.857 235.857 0 0 0 318 46zM139.469 120.844a3.484 3.484 0 0 1-.573-1.927 3.49 3.49 0 0 1 .65-1.993A105.818 105.818 0 0 0 162 98a105.579 105.579 0 0 0 13-18 104.396 104.396 0 0 0 14 19 104.521 104.521 0 0 0 22 18c.1.075 1 .775 1 2 0 .125-.02 1.265-1 2a211.09 211.09 0 0 0-36 69 244.987 244.987 0 0 0-18.286-42.176 244.728 244.728 0 0 0-17.245-26.98z"/><path style="fill:#050708" d="M120.083 177.417c-4.837-6.179-6.785-11.859-7.667-15.5-4.457-18.406 5.683-37.004 9.083-40.333.374-.366 2.005-1.858 2.82-4.337.573-1.743.526-3.315.424-4.282 7.873-4.577 12.427-6.732 15.198-7.837.006-.003 1.118-.446 2.635-1.082 5.611-2.353 7.419-3.421 8.07-3.816a34.46 34.46 0 0 0 3.049-2.083l-24.029 18.52a25.853 25.853 0 0 1 4.417 4.75 25.534 25.534 0 0 1 1.583 2.5 112.198 112.198 0 0 0-13.167 14.833c-6.942 9.389-7.638 13.456-7.819 15.593-.268 3.15.28 5.673 1.236 10.074a70.97 70.97 0 0 0 4.167 13zM230.431 177.095c4.837-6.179 6.785-11.859 7.667-15.5 4.457-18.406-5.683-37.004-9.083-40.333-.373-.365-1.999-1.858-2.82-4.337-.578-1.746-.537-3.32-.439-4.288a99.062 99.062 0 0 0-6.771-3.614s-4.804-2.329-9.353-3.892c-.778-.267-1.509-.487-1.509-.487-.71-.213-1.131-.317-1.538-.427a26.793 26.793 0 0 1-3.584-1.217 24.892 24.892 0 0 1-2.042-.992 33.162 33.162 0 0 1-2.409-1.409l22.3 15.747a25.853 25.853 0 0 0-4.417 4.75 25.534 25.534 0 0 0-1.583 2.5 112.198 112.198 0 0 1 13.167 14.833c6.942 9.389 7.638 13.456 7.819 15.593.268 3.151-.28 5.673-1.236 10.074a71.013 71.013 0 0 1-4.169 12.999zM143.25 170.917c-5.027 1.602-3.582 13.941-3.37 17.702.174 3.099.366 5.332 1.734 8.123a2412.41 2412.41 0 0 0 7.268 14.69c9.099 18.235 18.432 36.25 26.118 55.152 8.405-20.571 18.977-40.046 28.939-59.878 4.554-9.067 9.061-19.339 6.349-29.706-3.053-11.669-13.281 2.038-16.698 6.496-7.476 9.753-12.573 21.676-18.424 32.421-5.409-9.261-9.899-19.052-15.355-28.266-2.072-3.499-4.518-6.85-7.089-9.998-1.831-2.244-5.923-7.867-9.472-6.736z"/><path style="fill:#050708" d="M165.125 262.563a165.305 165.305 0 0 1 10 16.813 171.829 171.829 0 0 1 10.501-17.188 206.173 206.173 0 0 0-10.625 13.375 46.917 46.917 0 0 0-9.876-13z"/><path style="fill:#231f20" d="M175.109 173.797c-.248-3.725-.586-9.044-.938-15.44-.776-14.145-1.164-21.218-1.172-27.919-.01-8.996.427-16.083 1.255-29.534.316-5.124.625-9.393.854-12.398.206 2.97.497 7.291.813 12.507.933 15.416 1.4 23.123 1.391 29.426-.005 3.808-.453 11.969-1.349 28.29a3889.87 3889.87 0 0 1-.854 15.068z"/></g><g><path style="fill:#fff" d="m157 185.5-78.333 98.833H125.5z"/><path style="fill:#231f20" d="M149.833 198.917 87.917 280.5h32.416z"/></g><g><path style="fill:#fff" d="m193 185.583 32.333 98.083h45L193 185.583z"/><path style="fill:#231f20" d="m200.5 198.833 30.083 81.667h31.167z"/></g></g></switch></svg>