<svg xmlns="http://www.w3.org/2000/svg" viewBox="0 0 350 350" style="enable-background:new 0 0 350 350" xml:space="preserve"><switch><g><path style="opacity:.4" d="M45 45h260v260H45z"/><path style="fill:#bd8833" d="M73 73h204v204H73z"/><path d="M66.833 197.278a170.186 170.186 0 0 1 28.722 11.389c14.787 7.482 24.708 15.224 31.889 20.889 10.567 8.337 24.332 20.657 38.306 37.917l9.396 17.09 9.771-17.479a237.49 237.49 0 0 1 27.25-28.417c7.294-6.438 18.978-16.633 36.583-26.438a189.634 189.634 0 0 1 34.812-15.042L277 183.749v-19.542l6.562-4.708 38.979-67.306-18.041 14.328 30.347-52.132-19.625 15.5L342.514 16l-113.076 93.062-30.146-13.771a125.118 125.118 0 0 1-24.125-32.694A123.56 123.56 0 0 1 151.5 95.124l-30.333 13.931L8.167 16 35.25 69.694 15.528 54.25l30.625 52.222-18.055-14.28 38.68 67.308L73 163.889v20.528l-6.167 12.861z"/><path style="fill:#fff" d="m26.5 38.889 88.333 72.917a69.74 69.74 0 0 0-7.861 15c-1.536 4.076-4.221 11.399-4.306 21.278-.066 7.65 1.458 13.345 1.958 15.097.765 2.681 1.969 6.057 4.75 11.292 2.891 5.44 7.666 13.225 15.375 21.875.105-.144.217-.324.312-.542a2.947 2.947 0 0 0 .239-1.313l-.03-3.729a380.054 380.054 0 0 0-6.604-37.083 60.683 60.683 0 0 1 3.111-7.819c4.625-9.618 10.975-16.287 15.972-20.556a272.944 272.944 0 0 1 11.164 18.845c6.713 12.454 10.999 22.745 15.225 32.967a504.3 504.3 0 0 1 7.111 18.188 143.513 143.513 0 0 0-6.806-11.778c-4.763-7.409-8.186-11.235-9.278-12.431-6.183-6.77-9.65-8.063-10.833-8.458-2.105-.702-6.263-2.09-9.259.209-2.278 1.748-2.659 4.687-2.745 5.708l.087 29.166a39.264 39.264 0 0 1 6.24 10.156l6.677 13.26 13.833 29.5a225.743 225.743 0 0 0-32.042-29.042c-7.385-5.499-19.724-14.574-37.903-22.625a180.185 180.185 0 0 0-13.722-5.417l12.667-26.25-16.528-11.833-22.389-38.75 40.542 31.931.458-7.319-30.667-23.611L37 78.972l54.694 42.778.222-6.833-45.5-36.611L26.5 38.889zm297.583 0-88.333 72.917a69.74 69.74 0 0 1 7.861 15c1.536 4.076 4.221 11.399 4.306 21.278.066 7.65-1.458 13.345-1.958 15.097-.765 2.681-1.969 6.057-4.75 11.292-2.891 5.44-7.666 13.225-15.375 21.875a2.854 2.854 0 0 1-.312-.542 2.947 2.947 0 0 1-.239-1.313l.03-3.729a380.054 380.054 0 0 1 6.604-37.083 60.683 60.683 0 0 0-3.111-7.819c-4.625-9.618-10.975-16.287-15.972-20.556a272.944 272.944 0 0 0-11.164 18.845c-6.713 12.454-10.999 22.745-15.225 32.967a504.3 504.3 0 0 0-7.111 18.188 143.513 143.513 0 0 1 6.806-11.778c4.763-7.409 8.186-11.235 9.278-12.431 6.183-6.77 9.65-8.063 10.833-8.458 2.105-.702 6.263-2.09 9.259.209 2.278 1.748 2.659 4.687 2.745 5.708l-.087 29.166-3.125 4.229a785.902 785.902 0 0 0-23.625 48.687 225.743 225.743 0 0 1 32.042-29.042c7.385-5.499 19.724-14.574 37.903-22.625a180.185 180.185 0 0 1 13.722-5.417l-12.667-26.25 16.528-11.833 22.389-38.75-40.542 31.931-.458-7.319 30.667-23.611 22.583-38.75-54.694 42.778-.222-6.833 45.25-36.444 20.164-39.584zM175.194 75.111a121.795 121.795 0 0 1-19.583 24.611 121.59 121.59 0 0 1-18.236 14.528A259.352 259.352 0 0 1 150.222 134c8.21 13.972 13.19 25.448 16.389 32.889a338.099 338.099 0 0 1 8.493 21.799 416.368 416.368 0 0 1 11.8-28.479c4.397-9.586 8.799-19.103 16.04-30.875a231.954 231.954 0 0 1 10.11-15.083 126.46 126.46 0 0 1-17.388-13.861 126.954 126.954 0 0 1-20.472-25.279z"/><path style="fill:#fff" d="m85.167 277 72.583-93.875L127.333 277zm108-93.583L223.417 277h42z"/></g></switch></svg>