<svg xmlns="http://www.w3.org/2000/svg" viewBox="0 0 350 350"><switch><g><path fill="#fff" d="M59.962 59.962H290.037V290.037H59.962z"/><path fill="#231f20" d="M69.5 69.5H280.5V280.5H69.5z"/><path fill="#c79326" d="M79 79H271V271H79z"/><radialGradient id="a" cx="175" cy="175" r="96" gradientTransform="matrix(0 -1 1.2 0 -35 350)" gradientUnits="userSpaceOnUse"><stop offset="0" stop-color="#ffde50"/><stop offset="1" stop-color="#fff" stop-opacity="0"/></radialGradient><path fill="url(#a)" d="M79 79H271V271H79z"/><path d="M175.016,69.547c2.521,5.391,5.077,9.58,6.984,12.453c5.221,7.863,10.964,16.55,21,21 c3.296,1.461,3.227,0.775,9,3c7.072,2.725,12.496,5.804,16,8c13.654-11.586,32.337-27.425,46-39 c21.658-18.347,43.325-36.681,65-55c-8.667,18.333-17.333,36.667-26,55c5.667-4.333,11.333-8.667,17-13 c-9.667,16.333-19.333,32.667-29,49l18-12c-9.177,14.999-19.153,30.371-30,46c-4.996,7.198-10.001,14.198-15,21 c0.667,10.333,1.333,20.667,2,31c-6.614,2.268-16.171,6-27,12c-12.102,6.705-21.196,13.694-21,14c0.182,0.283,8.315-5.162,22-12 c9.845-4.919,15.892-7.226,16-7c0.222,0.464-25.862,9.002-47,31c-0.946,0.984-0.379,0.432-8,9 c-11.418,12.837-20.759,23.15-27,30c-6,0-12,0-18,0c-7.712-9.915-16.959-20.458-28-31c-4.688-4.476-9.336-8.607-13.89-12.414 C102.793,216.094,88.762,206.361,89,206c0.327-0.496,27.056,17.328,28,16c0.512-0.721-6.542-7.117-14-12 c-11.367-7.442-22.435-10.561-30-12c0.667-11,1.333-22,2-33c-4.669-6.529-9.338-13.195-14-20 c-10.661-15.562-20.646-30.919-30-46c6,4,12,8,18,12c-9.667-16.333-19.333-32.667-29-49c5.667,4.333,11.333,8.667,17,13 c-8.667-18.333-17.333-36.667-26-55c20.705,18.51,42.364,37.21,65,56c15.815,13.128,31.493,25.79,47,38 c1.624-0.977,4.032-2.391,7-4c12.511-6.78,14.861-6.117,21-10c8.258-5.223,13.002-12.172,17-18 C171.28,77.219,173.522,72.847,175.016,69.547z" fill="#231f20"/><path d="M32 46c15.95 14.176 32.938 28.561 51 43 11.815 9.445 23.495 18.438 35 27-3.843 4.834-10.329 14.481-12 28-3.513 28.423 17.4 48.575 20 51 .335-6.985-.359-12.451-1-16-1.944-10.77-5.39-14.963-4-23 .621-3.59 1.859-5.939 4-10 2.387-4.528 6.612-11.206 14-18 5.977 9.334 12.126 19.999 18 32 7.389 15.095 12.879 29.313 17 42-3.172-7.205-6.377-12.947-8.875-17.063-4.668-7.693-10.696-16.017-19.5-21-2.546-1.441-5.038-2.44-7.313-1.5-3.588 1.484-4.231 6.802-4.313 7.563 0 9.333 0 18.667 0 28 3.018 4.321 6.042 8.984 9 14 7.522 12.752 12.985 25.003 17 36-7.662-8.76-18.166-19.124-32-29-18.331-13.086-35.9-20.596-49-25 1.177-3.575 2.783-7.653 5-12 1.966-3.856 4.037-7.187 6-10 9.198 6.864 19.052 15.119 29 25 5.112 5.078 9.768 10.107 14 15-5.483-7.947-10.747-14.278-15-19-8.812-9.784-14.961-16.611-25-23-4.988-3.174-7.53-4.073-12-8-4.798-4.215-7.868-8.451-12-15-4.141-6.563-9.447-15.603-15-27 7.16 6.261 14.821 12.621 23 19 5.409 4.219 10.75 8.215 16 12 0-2.333 0-4.667 0-7-2.622-1.685-6.082-4.02-10-7 0 0-9.056-6.887-16-14-13.73-14.064-22.897-34.242-25-39 9.932 8.286 20.263 16.631 31 25 7.058 5.502 14.062 10.833 21 16 0-2.333 0-4.667 0-7-8.218-7.027-15.165-12.392-20-16-11.302-8.433-17.571-12.119-24-21-1.973-2.725-3.315-5.15-6-10C38.321 60.742 34.449 51.993 32 46zM318 46c-15.95 14.176-32.938 28.561-51 43-11.815 9.445-23.495 18.438-35 27 3.843 4.834 10.329 14.481 12 28 3.513 28.423-17.4 48.575-20 51-.335-6.985.359-12.451 1-16 1.944-10.77 5.39-14.963 4-23-.621-3.59-1.859-5.939-4-10-2.387-4.528-6.612-11.206-14-18-5.957 9.111-12.16 19.776-18 32-7.299 15.28-12.392 29.566-16 42 2.121-4.042 19.459-36.724 29.667-38.833 1.585-.327 4.934-1.019 7.208.917 2.103 1.79 2.153 4.861 2.125 5.917 0 9.333 0 18.667 0 28-3.018 4.321-6.042 8.984-9 14-7.522 12.752-12.985 25.003-17 36 7.662-8.76 18.166-19.124 32-29 18.331-13.086 35.9-20.596 49-25-1.177-3.575-2.783-7.653-5-12-1.966-3.856-4.037-7.187-6-10-9.198 6.864-19.052 15.119-29 25-5.112 5.078-9.768 10.107-14 15 5.483-7.947 10.747-14.278 15-19 8.812-9.784 14.961-16.611 25-23 4.988-3.174 7.53-4.073 12-8 4.798-4.215 7.868-8.451 12-15 4.141-6.563 9.447-15.603 15-27-7.16 6.261-14.821 12.621-23 19-5.409 4.219-10.75 8.215-16 12 0-2.333 0-4.667 0-7 2.622-1.685 6.082-4.02 10-7 0 0 9.056-6.887 16-14 13.73-14.064 22.897-34.242 25-39-9.932 8.286-20.263 16.631-31 25-7.058 5.502-14.062 10.833-21 16 0-2.333 0-4.667 0-7 8.218-7.027 15.165-12.392 20-16 11.302-8.433 17.571-12.119 24-21 1.973-2.725 3.315-5.15 6-10C311.679 60.742 315.551 51.993 318 46zM139.469 120.844c-.169-.256-.579-.951-.573-1.927.007-1.03.474-1.747.65-1.993C145.939 112.903 154.073 106.841 162 98c5.745-6.407 9.95-12.677 13-18 3.175 5.521 7.685 12.2 14 19 7.833 8.435 15.786 14.194 22 18 .1.075 1 .775 1 2 0 .125-.02 1.265-1 2-6.501 8.269-13.652 18.634-20.333 31.167C183.224 166.127 178.309 179.132 175 190c-4.047-12.407-9.846-26.843-18.286-42.176C151.052 137.538 145.142 128.558 139.469 120.844z" fill="#fff"/><path d="M120.083 177.417c-4.837-6.179-6.785-11.859-7.667-15.5-4.457-18.406 5.683-37.004 9.083-40.333.374-.366 2.005-1.858 2.82-4.337.573-1.743.526-3.315.424-4.282 7.873-4.577 12.427-6.732 15.198-7.837.006-.003 1.118-.446 2.635-1.082 5.611-2.353 7.419-3.421 8.07-3.816.732-.444 1.804-1.132 3.049-2.083-8.01 6.173-16.019 12.347-24.029 18.52 1.378 1.153 2.951 2.708 4.417 4.75.619.862 1.141 1.704 1.583 2.5-5.926 5.602-10.223 10.852-13.167 14.833-6.942 9.389-7.638 13.456-7.819 15.593-.268 3.15.28 5.673 1.236 10.074C117.12 169.957 118.776 174.382 120.083 177.417zM230.431 177.095c4.837-6.179 6.785-11.859 7.667-15.5 4.457-18.406-5.683-37.004-9.083-40.333-.373-.365-1.999-1.858-2.82-4.337-.578-1.746-.537-3.32-.439-4.288-2.612-1.526-4.922-2.718-6.771-3.614 0 0-4.804-2.329-9.353-3.892-.778-.267-1.509-.487-1.509-.487-.71-.213-1.131-.317-1.538-.427-.638-.172-2.023-.551-3.584-1.217-.868-.37-1.501-.705-2.042-.992-.985-.522-1.798-1.016-2.409-1.409 7.433 5.249 14.866 10.498 22.3 15.747-1.378 1.153-2.951 2.708-4.417 4.75-.619.862-1.141 1.704-1.583 2.5 5.926 5.602 10.223 10.852 13.167 14.833 6.942 9.389 7.638 13.456 7.819 15.593.268 3.151-.28 5.673-1.236 10.074C233.395 169.635 231.738 174.061 230.431 177.095zM143.25 170.917c-5.027 1.602-3.582 13.941-3.37 17.702.174 3.099.366 5.332 1.734 8.123 2.406 4.905 4.829 9.802 7.268 14.69 9.099 18.235 18.432 36.25 26.118 55.152 8.405-20.571 18.977-40.046 28.939-59.878 4.554-9.067 9.061-19.339 6.349-29.706-3.053-11.669-13.281 2.038-16.698 6.496-7.476 9.753-12.573 21.676-18.424 32.421-5.409-9.261-9.899-19.052-15.355-28.266-2.072-3.499-4.518-6.85-7.089-9.998C150.891 175.409 146.799 169.786 143.25 170.917z" fill="#050708"/><path d="M165.125,262.563c2.869,4.233,5.688,8.811,8.375,13.75c0.558,1.026,1.1,2.047,1.625,3.063 c0.962-1.806,1.982-3.641,3.063-5.5c2.445-4.208,4.947-8.101,7.438-11.688c-2.104,2.434-4.235,5.016-6.375,7.75 c-1.487,1.9-2.903,3.777-4.25,5.625c-0.966-1.879-2.21-3.989-3.813-6.188C169.122,266.542,166.997,264.294,165.125,262.563z" fill="#050708"/><path d="M175.109,173.797c-0.248-3.725-0.586-9.044-0.938-15.44c-0.776-14.145-1.164-21.218-1.172-27.919 c-0.01-8.996,0.427-16.083,1.255-29.534c0.316-5.124,0.625-9.393,0.854-12.398c0.206,2.97,0.497,7.291,0.813,12.507 c0.933,15.416,1.4,23.123,1.391,29.426c-0.005,3.808-0.453,11.969-1.349,28.29C175.619,165.012,175.319,170.217,175.109,173.797 z" fill="#231f20"/><path fill="#fff" d="M157 185.5L78.667 284.333 125.5 284.333z"/><path fill="#231f20" d="M149.833 198.917L87.917 280.5 120.333 280.5z"/><path d="M193,185.583c10.778,32.694,21.556,65.389,32.333,98.083h45 C244.556,250.972,218.778,218.278,193,185.583z" fill="#fff"/><path fill="#231f20" d="M200.5 198.833L230.583 280.5 261.75 280.5z"/></g></switch></svg>