<svg xmlns="http://www.w3.org/2000/svg" viewBox="0 0 350 350" style="enable-background:new 0 0 350 350" xml:space="preserve"><switch><g><path style="fill:#fff" d="M273 60.146h18v230h-18z"/><path d="M273 68.521h9v212h-9z"/><path d="m291 133.25-18 5.438v4.062l18-6.875z"/><path style="fill:#fff" d="M251.5 60.146h20v230h-20z"/><path d="M251.5 68.521h20v9h-20zM251.5 271.521h20v9h-20z"/><linearGradient id="vigil-a" gradientUnits="userSpaceOnUse" x1="261.5" y1="77.521" x2="261.5" y2="271.521"><stop offset="0" style="stop-color:#fff"/><stop offset="1" style="stop-color:#c5cfd1"/></linearGradient><path style="fill:url(#vigil-a)" d="M251.5 77.521h20v194h-20z"/><path d="m251.5 144.875 20-5.5v4.563l-6 2.688a34.47 34.47 0 0 1-4.375 12.938 34.488 34.488 0 0 1-9.625 10.625v-25.314z"/><path style="fill:#fff" d="M230 56.76h20v230h-20z"/><path d="M230 66.875h20v9h-20zM230 268.188h20v9h-20z"/><linearGradient id="vigil-b" gradientUnits="userSpaceOnUse" x1="240" y1="75.875" x2="240" y2="268.188"><stop offset="0" style="stop-color:#fff"/><stop offset="1" style="stop-color:#c5cfd1"/></linearGradient><path style="fill:url(#vigil-b)" d="M230 75.875h20v192.313h-20z"/><path d="m230 146.5 20-5.25v27a34.785 34.785 0 0 1-6.75 4.063c-5.242 2.391-10.051 3-13.25 3.125V146.5z"/><g><path style="fill:#fff" d="M208.5 56.76h20v230h-20z"/><path d="M208.5 66.875h20v9h-20zM208.5 268.188h20v9h-20z"/><linearGradient id="vigil-c" gradientUnits="userSpaceOnUse" x1="218.5" y1="75.875" x2="218.5" y2="268.188"><stop offset="0" style="stop-color:#fff"/><stop offset="1" style="stop-color:#c5cfd1"/></linearGradient><path style="fill:url(#vigil-c)" d="M208.5 75.875h20v192.313h-20z"/><path d="m208.5 152.188 20-5.688v29c-2.753.3-6.77.412-11.438-.625a35.116 35.116 0 0 1-8.563-3.115l.001-19.572z"/></g><g><path style="fill:#fff" d="M187 72.167h20v230h-20z"/><path d="M187 81h20v9h-20zM187 284.125h20v9h-20z"/><linearGradient id="vigil-d" gradientUnits="userSpaceOnUse" x1="197" y1="90" x2="197" y2="284.125"><stop offset="0" style="stop-color:#fff"/><stop offset="1" style="stop-color:#c5cfd1"/></linearGradient><path style="fill:url(#vigil-d)" d="M187 90h20v194.125h-20z"/><path d="m187 159.375 4.625 12.385L207 167.958v20.458A40.32 40.32 0 0 1 193 175l-6 2.5v-18.125z"/></g><g><path style="fill:#fff" d="M165.417 75h20v230h-20z"/><path d="M165.417 84.875h20v9h-20zM165.583 287.01h20v9h-20z"/><linearGradient id="vigil-e" gradientUnits="userSpaceOnUse" x1="175.5" y1="93.875" x2="175.5" y2="287.01"><stop offset="0" style="stop-color:#fff"/><stop offset="1" style="stop-color:#c5cfd1"/></linearGradient><path style="fill:url(#vigil-e)" d="M165.417 93.875h20.167V287.01h-20.167z"/></g><g><path style="fill:#fff" d="M143.99 70.438h20v230h-20z"/><path d="M144.01 281.635h20v9h-20z"/><linearGradient id="vigil-f" gradientUnits="userSpaceOnUse" x1="154" y1="88.5" x2="154" y2="281.635"><stop offset="0" style="stop-color:#fff"/><stop offset="1" style="stop-color:#c5cfd1"/></linearGradient><path style="fill:url(#vigil-f)" d="M143.99 88.5h20.021v193.135H143.99z"/><path d="M143.99 79.5h20v9h-20zM143.99 164.875l13.635 4.375 6.385-12.625v17.5l-6.135-2.094a23.29 23.29 0 0 1-3.75 7.469c-3.539 4.682-7.964 6.801-10.135 7.667v-22.292z"/></g><g><path style="fill:#fff" d="M122.563 63.406h20v230h-20z"/><path d="M122.563 72.313h20v9h-20zM122.563 274.313h20v9h-20z"/><linearGradient id="vigil-g" gradientUnits="userSpaceOnUse" x1="132.5" y1="81.313" x2="132.5" y2="274.313"><stop offset="0" style="stop-color:#fff"/><stop offset="1" style="stop-color:#c5cfd1"/></linearGradient><path style="fill:url(#vigil-g)" d="M122.438 81.313h20.125v193h-20.125z"/><path d="m122.438 152.125 20.125 5.125v21.625a107.177 107.177 0 0 1-20.126 1.389l.001-28.139z"/></g><g><path style="fill:#fff" d="M101 59.938h20v230h-20z"/><path d="M101 69.563h20v9h-20zM101 272.563h20v9h-20z"/><linearGradient id="vigil-h" gradientUnits="userSpaceOnUse" x1="111" y1="78.563" x2="111" y2="272.563"><stop offset="0" style="stop-color:#fff"/><stop offset="1" style="stop-color:#c5cfd1"/></linearGradient><path style="fill:url(#vigil-h)" d="M101 78.563h20v194h-20z"/><path d="m101 144.875 20 5.625v27.906a39.593 39.593 0 0 1-12-2.781 39.472 39.472 0 0 1-8-4.375v-26.375z"/></g><g><path style="fill:#fff" d="M79.5 65.042h20v230h-20z"/><path d="M79.5 74.063h20v9h-20zM79.5 276.25h20v9h-20z"/><linearGradient id="vigil-i" gradientUnits="userSpaceOnUse" x1="89.5" y1="83.063" x2="89.5" y2="276.25"><stop offset="0" style="stop-color:#fff"/><stop offset="1" style="stop-color:#c5cfd1"/></linearGradient><path style="fill:url(#vigil-i)" d="M79.5 83.063h20v193.188h-20z"/><path d="m79.5 144.75 20 5.375v25.438c-2.807-1.797-8.981-6.323-12.25-14.563a29.502 29.502 0 0 1-2-8.875l-5.75-3v-4.375z"/></g><g><path style="fill:#fff" d="M60 59.958h18v230H60z"/><path d="M69 68.583h9v212h-9z"/><path d="m60 134.125 18 6.625v6.625l-18-11.5v-1.75z"/></g></g></switch></svg>