<svg xmlns="http://www.w3.org/2000/svg" xml:space="preserve" style="enable-background:new 0 0 350 350" viewBox="0 0 350 350"><switch><g><path d="M45 45h260v260H45z" style="opacity:.4"/><path d="M280.694 136.639v4.889l16.556-6.861v-1.945z"/><path d="M257.5 73H277v204h-19.5z" style="fill:#bec9ca"/><path d="M257.5 142.444 277 137.5v5.5l-6 2.5a21.316 21.316 0 0 1-.444 4.444c-.929 4.461-3.065 7.439-5.166 10.304a43.083 43.083 0 0 1-7.889 8.196z"/><path d="M234.438 63.417h19.5v204h-19.5z" style="fill:#bec9ca"/><path d="m234.438 139.792 19.5-4.917v27.875a38.537 38.537 0 0 1-19.5 6.916z"/><path d="M211.375 79.472h19.5v204h-19.5z" style="fill:#bec9ca"/><path d="m211.375 161.667 19.5-4.667v29.056a56.067 56.067 0 0 1-19.5-2.333z"/><path d="M188.312 69.521h19.5v204h-19.5z" style="fill:#bec9ca"/><path d="m188.312 144.778 4.41 10.5 15.09-3.611v19.646c-1.898-.791-5.395-2.556-8.396-6.208a21.425 21.425 0 0 1-3.688-6.604l-7.417 1.583v-15.306z"/><path d="M165.25 64.083h19.5v204h-19.5zM142.188 69h19.5v204h-19.5z" style="fill:#bec9ca"/><path d="m142.188 151.528 15.396 3.806 4.104-9.361v15.056l-5.215-1.556a20.499 20.499 0 0 1-5.5 8.278 20.485 20.485 0 0 1-8.785 4.708z"/><path d="M119.125 73h19.5v204h-19.5z" style="fill:#bec9ca"/><path d="m119.125 151.375 19.5 4.847v22.333a63.779 63.779 0 0 1-19.5 2.101z"/><path d="M96.062 74.271h19.5v204h-19.5z" style="fill:#bec9ca"/><path d="m96.062 145.75 19.5 4.792V180.5a32.75 32.75 0 0 1-8.208-1.283 33.078 33.078 0 0 1-11.292-5.842z"/><path d="M73 73h19.5v204H73z" style="fill:#bec9ca"/><path d="m73 137.396 19.5 4.792v25.938a45.036 45.036 0 0 1-5.042-4.833c-2.468-2.767-5.563-6.237-7.128-11.522a23.494 23.494 0 0 1-.955-6.186L73 143.002zm-3.639-.729v4.777L52.417 134.5v-1.944z"/></g></switch></svg>