<svg xmlns="http://www.w3.org/2000/svg" viewBox="0 0 350 350" style="enable-background:new 0 0 350 350" xml:space="preserve"><switch><g><path style="fill:#fff" d="m298.543 251.615-9.538 8.637-22.985 15.075 2.661-3.272c-13.846 7.935-26.123 13.483-35.604 17.308-13.309 5.369-21.382 8.626-33.354 10.434-10.619 1.604-20.428 1.483-20.423 2.176.004.561 6.441.981 10.093 1.1a95.228 95.228 0 0 0 15.053-.695h94.098l-.001-50.763z"/><path d="M289.005 292.841v-32.589l-3.923 2.573-3.955 2.594.114 19.939-26.835-.049a125.737 125.737 0 0 1-13.962 7.533l48.561-.001z"/><path style="fill:#28c1cd" d="m254.407 285.308 26.835.049-.114-19.939-6.944 4.554a90.95 90.95 0 0 1-19.777 15.336z"/><g><path style="fill:#fff" d="M69.5 69.5h211v59.445a88.82 88.82 0 0 0-6.412-2.242 89.854 89.854 0 0 0-19.722-3.704l-1.151.185c7.75 1.247 19.079 4.141 30.861 11.398 11.145 6.865 17.601 14.496 18.923 16.088 9.127 10.989 13.001 22.403 14.753 29.654.092-5.055-.286-20.561-11.395-34.311-5.616-6.952-11.982-10.987-16.32-13.224V59.962H59.962L60 171.11a100.358 100.358 0 0 0-16.649 17.934 215.634 215.634 0 0 1 10.022-9.89c3.256-3.01 6.47-5.966 11.011-9.462 4.197-3.231 8.1-5.823 11.44-7.863-13.4 13.309-16.129 16.353-15.973 16.516.202.212 5.018-4.604 12.781-10.347 8.27-6.118 15.505-10.048 19.445-12.054a135.232 135.232 0 0 1 23.011-9.165l1.484-13.385a159.572 159.572 0 0 0-33.28 18.247 158.615 158.615 0 0 0-13.797 11.093L69.5 69.5z"/><path d="M274.661 126.879c1.317.41 2.59.853 2.59.853a75.765 75.765 0 0 1 3.248 1.213V69.5h-211l-.005 93.236 9.505-7.474a117.83 117.83 0 0 1 2.709-2.383c25.212-21.502 53.016-26.743 78.082-31.154 0 0 38.685-6.807 90.396-.132 9.57 1.236 23.412 4.956 24.475 5.286z"/><path style="fill:#28c1cd" d="M79 155.262V79h192v46.838c-1.147-.286-2.82-.683-4.855-1.093-.968-.195-5.461-1.088-11.779-1.746-1.445-.15-3.412-.333-5.762-.482a11.873 11.873 0 0 0 1.975 1.255 55.214 55.214 0 0 1-1.942-.201c-2.889-.351-4.983-.841-5.209-.89-4.008-.877-81.562-8.998-126.857 10.714-11.896 5.177-22.846 11.868-22.846 11.868A185.831 185.831 0 0 0 79 155.262z"/><path style="fill:#0395a8" d="M79 155.262v-9.603a36.127 36.127 0 0 1 4.415-3.239c3.173-1.978 5.538-2.769 5.563-4.228.02-1.182-1.507-2.125-1.137-2.695.271-.419 1.19-.056 1.385-.42.351-.657-2.26-2.521-2.018-2.888.117-.177.832.09 1.738.427 1.317.491 1.411.692 2.187.903 1.268.344 2.246.14 2.271.326.024.172-.829.277-1.675 1.061-.257.238-.548.571-.501.628.06.073.639-.333 2.584-1.582.488-.314.733-.471.754-.482 1.634-.876 2.474-.17 3.795-.828 1.043-.519.806-1.102 2.015-1.681.892-.427 1.537-.359 2.194-.46 1.018-.157 2.441-.78 4.037-2.964a74.38 74.38 0 0 0-7.912-.223c-3.733.094-6.758.17-10.44 1.113-2.261.58-5.563 1.69-9.255 3.98v-2.077a8.183 8.183 0 0 0 3.005-1.879c1.77-1.748 2.214-3.814 2.341-4.599.071.552.29 1.602 1.104 2.11.98.612 2.293.106 2.885-.132 0 0 9.486-3.805 11.614-4.622 6.851-2.627 13.136-.613 13.259-1.609.046-.369-.805-.73-2.225-1.335-1.717-.731-5.39-2.233-9.482-.977a11.06 11.06 0 0 0-1.916.791 1.85 1.85 0 0 1-.025-1.026s.185-.65.942-1.149c.956-.63 8.463-3.353 18.838-6.837 81.94-8.462 109.896-9.749 115.372-8.396.573.142 6.849 1.782 7.612.236.34-.689-.475-1.89-.618-2.102-1.065-1.569-2.926-2.018-2.843-2.25.074-.207 1.522.279 1.706-.074.211-.404-1.422-1.551-1.286-1.755.117-.176 1.371.602 3.288 1.137 1.286.359 2.085.57 2.571.148.726-.63.231-2.219.173-2.398a54.337 54.337 0 0 0 2.918 2.176c1.031.717 1.56 1.082 2.217 1.409 1.403.699 1.83.544 3.487 1.151.782.286 2.231.816 3.671 1.898 1.761 1.323 2.416 2.65 2.83 2.456.181-.085.335-.469.033-1.995 1.685-.096 2.984.126 3.857.346 1.981.499 3.353 1.386 5.835 1.409.357.003.649-.012.835-.025v3.165a14.843 14.843 0 0 0-3.766.088c-1.398.213-1.791.482-3.555.949-3.512.93-5.062.688-5.2 1.331-.126.589 1.122 1.022 3.19 3.136a22.299 22.299 0 0 1 1.475 1.666c-.34.329-.89.78-1.663 1.082-2.256.881-4.651-.196-6.126-.86-.911-.41-.8-.473-2.72-1.484a64.189 64.189 0 0 0-3.437-1.681 8.368 8.368 0 0 1 2.52.343c1.468.438 2.095 1.08 2.475.844.311-.194.461-.983-.569-3.907a21.102 21.102 0 0 0-2.299-.668c-5.07-1.164-9.601-.22-12.626.791 1.493 2.541 3.811 5.421 7.401 6.89 2.416.988 4.678 1.039 4.665 1.187-.014.156-2.527.145-12.841-.511l-93.824 2.329c-11.123 7.611-20.672 12.833-27.527 16.265-8.172 4.091-16.239 7.502-27.406 14.746A176.006 176.006 0 0 0 79 155.262zM258.865 96.703c1.447-.006 2.335.404 2.893.816.589.435.854.903 1.214.818.504-.119.896-1.248.492-1.832-.29-.419-.895-.42-1.708-.409a7.86 7.86 0 0 0-2.891.607zM271 111.308a4.55 4.55 0 0 0-1-.429c-1.273-.371-2.392-.083-2.93.099.007.772.249 1.185.458 1.417.676.752 1.728.417 2.736 1.253.386.32.612.684.736.923v-3.263zM267.231 117.736a7.118 7.118 0 0 0-.231 2.044c.046 1.344.457 1.895.161 2.189-.474.471-2.43-.038-2.831-1.332-.288-.93.372-1.792.494-1.945.861-1.075 2.275-.968 2.407-.956zM254.637 119.253c.372-.058 1.653-.212 2.934.56a4.342 4.342 0 0 1 1.582 1.681c-3.294-.876-4.912-1.531-4.855-1.965.015-.105.128-.197.339-.276z"/><path style="fill:#0395a8" d="M236.407 96.094a18.29 18.29 0 0 0-8.241-1.138c-.305-.003-.459.008-.462.033-.01.108 2.89.476 8.703 1.105z"/></g><g><path style="fill:#28c1cd" d="m198.956 244.56-22.945 37.681c70.706-24.77 112.481-62.38 108.198-92.473-2.668-18.745-22.551-29.949-29.077-33.626-67.279-37.912-189.851 24.856-191.67 75.56-.475 13.25 7.371 23.681 8.901 25.714 17.686 23.51 56.794 23.074 81 16.121 21.03-6.04 36.018-18.496 45.593-28.977z"/><path style="fill:#0395a8" d="M178.187 259.725c-18.612 6.898-34.23 8.26-44.044 8.374-18.289.211-27.53-3.789-31.451-5.736a55.235 55.235 0 0 1-10.154-6.527 67.873 67.873 0 0 0 12.758 5.44c10.328 3.2 19.12 3.284 19.154 3.033.031-.232-7.428-.449-17.473-3.973-4.976-1.746-9.815-3.489-15.033-7.566-3.29-2.57-9.907-7.742-11.918-16.566a23.815 23.815 0 0 1-.544-6.676c.562 3.799 1.856 8.607 4.896 13.352 6.429 10.038 16.78 13.728 24.973 16.648 5.788 2.063 11.151 3.052 15.989 3.396 5.601.397 10.643-.06 10.648-.363.006-.349-6.734-.097-16.022-1.945-7.533-1.499-13.078-3.65-13.038-3.791.036-.127 4.849 1.407 12.082 2.473 2.786.41 5.122.632 6.758.758.118.009-3.468-.64-6.462-1.253-5.919-1.211-17.939-3.672-27.231-12.132-3.149-2.867-4.969-5.498-5.077-5.407-.14.119 2.903 4.554 7.714 8.571 2.763 2.307 4.757 3.347 4.747 3.363-.02.031-8.775-3.337-14.11-11.275-4.642-6.906-4.642-14.072-4.615-15.495.116-6.205 2.393-10.809 3.659-12.989.053.735.105 1.821.066 3.132-.101 3.408-.687 4.047-1.154 7.648-.672 5.182-.052 8.436.475 10.254.012.041.054.189.119.394a24.358 24.358 0 0 0 3.099 6.396 21.636 21.636 0 0 1-2.011-4.648s-.579-1.938-.808-4.17c-.345-3.365.477-11.904 2.819-23.093 15.066-11.391 28.695-18.639 38.374-23.143 48.055-22.361 92.643-20.762 109.286-19.978 4.378.206 7.945.493 10.187.692-.554.469-1.506 1.412-1.385 2.473.13 1.138 1.427 1.815 2.275 2.275 0 0 4.9 2.659 9.593 6.429 1.711 1.374 2.706 2.587 4.154 4.352 2.501 3.049 8.505 10.368 8.604 19.286.056 5.029-1.824 5.317-3.115 12.857-1.068 6.237-.726 11.549-.247 15.132l2.176-1.385c-.466-3.413-.83-8.663.297-14.835 1.321-7.24 3.103-7.038 3.363-11.176.903-14.394-19.906-28.904-22.549-30.462-.411-.242-2.765-1.574-2.571-2.077.061-.16.363-.191.544-.198a45.215 45.215 0 0 1 11.967 6.725c7.83 6.144 11.766 13.46 13.599 17.604.364 1.709.791 4.37.692 7.615-.146 4.8-1.342 7.618-2.176 11.374-.71 3.201-1.357 7.978-.692 14.242l27.495-16.615c.41-8.751.087-29.027-13.253-46.484-16.966-22.202-43.87-25.292-61.319-27.297-50.01-5.745-88.668 17.893-111.165 31.648-28.402 17.366-59.712 36.511-59.341 64.681.231 17.53 12.634 31.317 21.165 38.967 19.707 4.54 35.882 5.581 47.143 5.637 11.677.059 18.501-.939 22.929-1.78a104.617 104.617 0 0 0 26.126-8.67l9.033-7.516z"/><g><path style="fill:#fff" d="M86.283 281.772c-.389.116-.74.524-.668.816.096.385.923.531 1.516.363.179-.051.506-.144.544-.346.065-.347-.716-1.034-1.392-.833zM118.08 279.658c.063.068.491.543.371 1.088-.166.751-1.214.907-1.328.924-.998.149-1.751-.579-1.861-.689 1.237.135 1.689-.099 1.854-.371.139-.229.119-.556.408-.779a.917.917 0 0 1 .556-.173zM118.599 281.475c.402.359.998.294 1.273-.062.223-.287.214-.736-.049-1.063a6.605 6.605 0 0 1-.334.272c-.284.217-.398.269-.556.42-.094.09-.218.228-.334.433zM76.022 278.891c-.169-.086-.656.343-.581.556.046.132.32.217.507.111.266-.149.208-.599.074-.667zM39.676 244.758a3.609 3.609 0 0 0-.577 1.83 3.63 3.63 0 0 0 .557 2.046c.131-.619.275-1.105.382-1.436.225-.693.431-1.135.214-1.451-.09-.13-.185-.142-.33-.346a1.462 1.462 0 0 1-.246-.643zM39.824 248.813a.714.714 0 0 0 .033.412.75.75 0 0 0 .445.412 1.757 1.757 0 0 0-.478-.824z"/><path style="fill:#fff" d="M285.692 154.56c-4.535-4.406-17.677-16.066-44.308-21.956-54.938-12.15-104.631 14.11-134.077 29.67-11.458 6.055-18.448 11.192-32.11 21.231-11.11 8.164-17.298 15.443-22.495 22.205a113.823 113.823 0 0 0-3.903 5.397c1.279.469 1.496.749 1.475.915-.066.531-2.579.038-4.181 1.521-.671.622-.292.775-1.3 2.633-1.526 2.814-2.722 3.061-2.819 4.747-.031.539.05 1.231-.371 1.508-.472.311-1.206-.142-1.335.074-.122.204.547.59.865 1.484.162.455.296 1.216-.034 1.474-.307.239-.732-.177-1.004.01-.623.427.929 3.066.158 3.768-.401.366-1.053-.14-1.395.213-.687.709 1.325 3.407.692 3.981-.278.252-.85-.101-.989.124-.199.323 1.013 1.009 1.36 2.324.11.416.024.485-.112 1.998-.178 1.979-.26 2.978.062 3.441.548.788 1.457.619 1.755 1.484.147.427.098.965-.124 1.063-.418.185-1.27-1.274-1.582-1.113-.202.105-.071.833.148 1.434.425 1.163.978 1.288 1.508 2.25.751 1.363.736 3.101.173 3.412-.292.162-.641-.112-.791.074-.186.23.088.968.619 1.244.573.298 1.049-.149 1.408.165.311.271.316.919.067 1.31-.246.387-.683.433-.66.568.034.2.965-.055 1.568.441.355.292.24.551.587 1.239.366.727.593.634 1.405 1.684.739.956.716 1.245 1.236 1.533.581.321.828.08 1.236.371.601.428.334 1.144.717 2.423.167.558.691 2.308 1.899 2.7.718.233 1.329-.128 1.711.316.257.298.082.579.371.964.336.449.729.287 1.187.618.563.408.348.918 1.022 2.613.417 1.05.701 1.353 1.031 1.507.354.166.67.118.98.092 1.555-.131 3.011.281 3.853.709.84.427 1.547 1.114 1.446 1.31-.113.221-1.28-.118-2.085-.354-1.212-.356-1.752-.652-1.863-.495-.107.153.241.665.688.964.44.294.668.176 1.274.454.607.278.521.462 1.022.692.639.294.905.054 1.945.214.805.124 1.56.41 1.541.527-.027.171-1.674-.049-1.706.136-.023.132.778.455 1.645.575.807.112.917-.056 1.322.105.746.297.681.99 1.401 1.706.486.483 1.115.662 2.374 1.022.777.222 1.635.467 2.797.499.854.024 1.549-.077 1.629.158.089.261-.699.596-.614.921.08.307.917.537 1.339.218.496-.375.147-1.302.602-1.516.215-.101.479.026.61.132.36.293.308.933.124 1.335-.214.466-.591.573-.538.717.075.204.928.26 1.255-.149.285-.357.045-.908.198-.964.16-.058.349.578.964.94.502.296 1.198.369 1.409.099.188-.24-.075-.66.049-.725.112-.059.464.209.569.577.115.405-.136.686-.025.791.222.21 1.327-.804 1.551-.616.089.075.059.354-.43 1.226.247.17.627.392 1.128.543.574.172 1.066.32 1.545.14.789-.297.702-1.165 1.815-1.759.163-.087.292-.136.461-.2a5.64 5.64 0 0 1 1.922-.367 17.365 17.365 0 0 0-1.119 2.247c.454.175 1.097.337 1.582.037.421-.26.335-.628.791-1.113.666-.707 1.86-.997 2.238-.606.075.078.16.227.136.532l-1.434.717-.89.828c-.007.094-.064 1.098.743 1.757a2.05 2.05 0 0 0 2.112.283c.692-.307.98-.914 1.051-1.076-.806.374-1.58.281-1.881-.133-.06-.083-.155-.253-.146-.547.804-.185 1.338-.497 1.681-.754.383-.287.713-.643 1.335-.791.514-.122.687.029.725.065.122.118.138.299.126.526-.049.916-.489 1.166-.381 1.535.151.516 1.236.792 2.077.643.667-.118.681-.415 1.212-.396.599.022.807.409 1.632.593.386.086.713.085.915.074l-.42-3.486c1.065-.398 1.833-.255 2.201-.148.462.134 1.019.422.989.643-.028.206-.537.14-.816.519-.237.323-.206.83-.004 1.164.415.687 1.578.685 2.031.245.177-.172.096-.264.272-.47.448-.522 1.175-.155 1.83-.569.472-.299.381-.671.749-1.096.653-.754 1.895-.682 2.91-.61 1.937.138 3.849.285 5.86.47a5.571 5.571 0 0 0-.89-1.261 175.741 175.741 0 0 0 14.192-.495 2.339 2.339 0 0 1-.865-.915 2.19 2.19 0 0 1-.162-.413 85.657 85.657 0 0 0 16.456-2.183 85.64 85.64 0 0 0 11.885-3.701c-16.623 3.575-30.212 2.874-38.835 1.78-14.793-1.876-31.48-3.992-42.132-17.341-2.391-2.997-7.203-9.975-8.159-19.681-1.612-16.366 8.89-28.807 14.489-35.44 4.799-5.685 13.535-14.396 39.429-26.242 16.924-7.743 43.914-19.789 81.626-22.286 28.829-1.908 40.785 3.296 44.308 4.945 6.214 2.909 24.498 11.468 29.059 29.935 3.775 15.284-3.976 28.751-7.598 35.043-5.924 10.293-13.374 16.129-21.527 22.516-7.463 5.847-14.481 9.579-28.516 17.044-10.353 5.506-18.314 9.74-29.967 14.341-5.443 2.149-14.412 5.654-26.571 8.703-14.02 3.516-23.993 4.349-23.918 5.143.073.764 9.345.547 15.808.198 8.219-.445 19.507-1.108 33.956-4.484 20.255-4.732 33.624-11.734 33.758-11.407.115.281-9.829 5.114-22.874 9.708-10.271 3.618-17.774 5.435-17.732 5.59.059.219 13.077-2.147 27.749-6.99 26.424-8.722 44.456-20.935 55.187-28.319 13.283-9.139 19.937-15.676 24.47-20.747a115.51 115.51 0 0 0 10.121-13.102 304.023 304.023 0 0 1-9.717 10.706c-1.584 1.665-5.46 5.737-5.687 5.538-.363-.317 11.09-10.266 17.407-26.258 1.512-3.829 3.643-9.223 3.989-15.841 1.034-19.731-14.61-34.928-19.713-39.886zM54.56 205.94a34.706 34.706 0 0 0-1.83 3.313c-.992.693-1.838 1.184-2.027.989-.385-.395 2.124-3.424 2.769-4.203a47.356 47.356 0 0 1 4.797-4.995 34.66 34.66 0 0 0-3.709 4.896zm70.035 71.517c.53.054 1.049.116 1.558.185a31.067 31.067 0 0 1-6.478-.173 31.413 31.413 0 0 1-1.446-.223 46.9 46.9 0 0 1 6.366.211z"/><path style="fill:#fff" d="M121.648 279.67c.069.133.221.378.511.544.642.366 1.347-.004 1.401-.033-.15-.144-.584-.523-1.236-.577a1.958 1.958 0 0 0-.676.066zM129.246 274.013c.933-.994 1.61-1.155 2.078-1.085.791.12 1.265.947 2.011.758.279-.071.228-.19.61-.379.798-.394 1.284-.003 2.192-.214.869-.202 1.332-.771 1.385-.709.041.048-.238.399-1.648 1.731l-6.628-.102zM142.731 273.761c.381-.198.775-.481.791-.841.022-.501-.707-.78-.618-1.038.095-.275 1.08-.415 1.682.073.481.39.651 1.126.419 1.855l-2.274-.049zM140.308 274.008c-.489-.117-1.339-.427-1.31-.692.028-.264.929-.533 1.686-.285.703.23 1.054.832 1.157 1.027a3.868 3.868 0 0 1-1.533-.05z"/><path style="fill:#fff" d="M144.942 271.852c-.11.108-.164.305-.096.447.223.464 1.738.306 1.78.049.041-.25-1.282-.888-1.684-.496zM151.22 272.681c.184.187.973.945 2.209.989.731.026 1.621-.199 1.615-.396-.005-.177-.742-.396-3.824-.593z"/></g></g><g><path style="fill:#fff" d="m272.044 185.055-4.357 13.547c.012-.257.054-1.308.317-2.684.487-2.546 1.376-4.327 1.617-4.838.838-1.773 1.79-4.984 2.225-11.299a35.058 35.058 0 0 0-6.231-10.121 270.566 270.566 0 0 0-8.703 6.396c-5.633 4.313-10.008 8.012-10.632 7.409-.308-.298.608-1.352 1.401-3.981.518-1.717.711-3.201.791-4.22l.264-28.879-1.887-7.71L243 127l3.626-13.533-18.923-19.854a35.258 35.258 0 0 0-5.209-1.063c-4.797-.605-7.281.097-7.665.247-.211.083-.355.121-.643.198-.71.189-.889.142-.989.099-.093-.04-.296-.152-.445-.495a147.552 147.552 0 0 0-15.824-2.176c.194.183.305.391.247.495-.067.119-.378.135-.742-.049l-1.83-9.099c.353-.369.827-.899 1.335-1.582.527-.709.845-1.253 1.038-1.187.272.092-.051 1.266.251 1.388.261.106.88-.617 1.282-1.388.639-1.224.37-1.873.93-3.049.374-.785.796-1.129 1.196-1.599.931-1.092 1.213-2.234 1.912-6.33.418-2.45.735-4.491.956-5.967l-5.769-5.901-.692-9.198-12.725-11.473a36.284 36.284 0 0 0-18.593 0l-11.077 10.681-1.187 8.407a89.852 89.852 0 0 1-5.789 5.803 154.163 154.163 0 0 0 8.756 18.626 133.733 133.733 0 0 1-2.374 11.473 259.857 259.857 0 0 1-33.23 3.14l-18.148 19.657 4.846 13.648a55.693 55.693 0 0 0-6.379 20.127l-.198 19.83a20.735 20.735 0 0 1-1.929 11.918l-15.577-11.621c-5.616 7.44-6.417 13.067-6.033 16.912.083.829.813 3.965 2.275 10.236.762 3.272 1.417 6.568 2.176 9.841.481 2.074.813 3.444.953 5.485.152 2.229-.105 2.646.135 4.751.17 1.487.504 2.748 1.164 5.21a99.009 99.009 0 0 0 1.382 4.68c4.81 1.942 7.684 4.008 9.453 5.604.363.327 1.683 1.542 3.593 3.066 1.778 1.419 4.24 3.245 4.385 3.074.048-.057-.186-.313-.989-1.212-2.859-3.202-2.941-3.388-2.918-3.412.04-.041.447.334 1.187.915.523.411 1.979 1.527 3.536 2.374 1.103.6 1.943.894 2.448 1.088 1.855.711 3.34 1.656 7.566 4.624 5.003 3.513 7.504 5.27 7.401 5.44-.286.47-11.573-5.943-11.67-5.769-.073.131 6.781 4.129 6.692 4.286-.029.051-.785-.346-.813-.296-.049.09 2.291 1.461 3.78 2.34a506.22 506.22 0 0 1 5.882 3.527 2.062 2.062 0 0 0 .325 1.056 315.921 315.921 0 0 0 10.574 4.516c2.781 1.128 4.007 1.576 5.868 2.637 2.663 1.518 3.924 2.749 7.022 5.341 4.644 3.885 9.31 7.393 9.424 7.259.101-.119-3.331-3.197-5.599-5.182-5.769-5.049-9.318-7.676-9.264-7.747.091-.12 10.31 6.847 21.865 16.917a246.537 246.537 0 0 1 9.32 8.552 338.68 338.68 0 0 0 6.941-6.331c3.651-3.425 4.456-4.336 6.584-5.928 1.491-1.116 1.509-.979 6.842-4.308 4.031-2.516 6.047-3.775 7.807-5.044 3.424-2.469 5.136-3.703 5.915-4.45 1.257-1.205 2.901-1.937 4.253-3.035.267-.217 1.111-.912 1.811-.663.328.117.399.362.662.401.568.085.986-.955 1.648-1.78.545-.679 1.182-1.051 2.456-1.797 3.152-1.844 9.767-4.272 14.357-6.907 6.111-3.507 7.693-6.841 11.747-7.934.074-.02 2.193-.59 4.736-1.923.215-.113 2.722-1.436 2.571-1.813-.161-.402-3.216.565-3.305.295-.055-.168 1.089-.668 1.755-.988 2.937-1.41 3.721-2.75 6.363-4.681 1.188-.869 3.019-2.053 5.571-3.132a6.078 6.078 0 0 0 .601-1.979c.669-2.149 1.059-3.209 1.171-3.18.151.039-.206 2.065-1.071 6.081l-8.127 5.886 9.297-5.786c.352-2.291.609-4.037.717-5.143.031-.323.095-1.05.494-1.879.198-.41.418-.721.577-.923l1.174-1.648v-12.462c1.005-5.194 2.155-8.101 3.079-9.824.236-.439.909-1.646 1.15-3.37.23-1.635-.027-3.037-.29-3.986zm-188.11-14.967c-.159.342-.394.84-.692 1.434-.647 1.291-1.171 2.206-1.533 2.843-.537.946-1.311 2.323-2.324 4.179a45.699 45.699 0 0 1 4.327-9.322 5.379 5.379 0 0 1 3.186 2.68 4719.32 4719.32 0 0 1-2.964-1.814zM191.786 43.445l4.515 4.418c.227 3.419.339 4.899.397 5.505.003.028.023.239.036.525.025.549.036 1.665-.085 1.684-.105.016-.361-.788-.94-3.56l-.115-4.071-1.034-1.207a368.24 368.24 0 0 1-2.774-3.294z"/><path style="fill:#fff" d="M105.779 125.83c-.141.054-1.82-3.835-3.338-7.949a124.702 124.702 0 0 1-1.644-4.747c.399-.476.912-1.081 1.516-1.776 6.544-7.529 12.554-12.726 12.676-12.602.108.111-4.469 4.387-11.423 12.511-.652.762-1.21 1.423-1.644 1.941.271.955.662 2.311 1.15 3.931 1.73 5.743 2.828 8.645 2.707 8.691zM116.143 96.736a116.694 116.694 0 0 1 4.747-4.846l15.585-.033a120.885 120.885 0 0 1-15.453.692 43.58 43.58 0 0 1-4.879 4.187zM143.505 91.198a71.807 71.807 0 0 0 8.868-2.11c.907-1.932 1.829-4.657 1.846-7.945a17.762 17.762 0 0 0-.099-1.978c.392.438.85 1.086 1.055 1.945.388 1.628-.426 2.784-1.121 5.538a24 24 0 0 0-.56 3.033 88.86 88.86 0 0 1-9.989 1.517z"/><g><path d="m263.736 176.516-49.747 35.209 21.887-22.633c1.73-1.46 4.941-4.594 6.729-9.642a22.021 22.021 0 0 0 1.253-6.989V143.78l-6.429-17.011 3.956-12.198-16.121-15.495a257.48 257.48 0 0 1-33.898-3.462l-2.79-16.925 7.908-16.206-4.945-5.044-1.088-9.198a145.711 145.711 0 0 0-8.604-8.505 34.911 34.911 0 0 0-13.846 0 57.67 57.67 0 0 0-8.901 8.802l-1.53 9.083-4.701 3.774 8.44 17.67-3.099 15.758a126.604 126.604 0 0 1-34.813 4.055L108.315 114.9l3.742 11.571-6.707 17.209v31.615c.028.361.084.914.211 1.577.567 2.959 1.992 5.237 5.441 9.335a115.318 115.318 0 0 0 6.264 6.857l18.659 19.253-50.143-35.275-2.346 3.737a538352.8 538352.8 0 0 1 8.906 38.659 2870.303 2870.303 0 0 1 65.468 41.315l17.191 16.179 18.681-17.934 63.824-39.956 8.505-38.473-2.275-4.053zm-115.22 19.715c-.724.183-2.06-.227-9.099-11.341a282.9 282.9 0 0 1-7.714-12.923 357.974 357.974 0 0 0 2.374-13.154c1.895-11.764 1.825-15.123 1.78-16.418-.061-1.742-.37-4.59-.989-10.286-.42-3.865-.808-7.067-1.088-9.297 3.484 8.97 6.333 16.107 8.209 20.769 4.083 10.149 5.437 13.246 6.725 18.89 1.649 7.224 1.837 12.694 1.953 16.716.193 6.617.476 16.38-2.151 17.044zm52.51 0c-2.626-.663-2.343-10.426-2.151-17.042.117-4.022.305-9.492 1.953-16.716 1.288-5.645 2.642-8.741 6.725-18.89a1861.38 1861.38 0 0 0 8.209-20.769c-.28 2.229-.668 5.432-1.088 9.297-.619 5.696-.928 8.544-.989 10.286-.045 1.295-.114 4.654 1.78 16.418a355.842 355.842 0 0 0 2.374 13.154 282.9 282.9 0 0 1-7.714 12.923c-7.039 11.112-8.375 11.522-9.099 11.339z"/></g></g></g></switch></svg>