<svg xmlns="http://www.w3.org/2000/svg" xml:space="preserve" style="enable-background:new 0 0 350 350" viewBox="0 0 350 350"><switch><g><path d="M45 45h260v260H45z" style="opacity:.4"/><path d="M249.802 277H277v-18.75c-.419.374-.968.837-1.639 1.333-.84.622-1.503 1.023-1.632 1.103-1.049.647-7.749 5.2-23.927 16.314zm15.031-126.5c-26.744-7.646-96.795-23.519-161.583 12.292-11.573 6.397-21.598 13.68-30.25 21.214-5.328 4.519-12.964 11.829-19.042 21.411-3.778 5.956-5.346 10.254-6.042 12.375 0 0-1.906 5.812-2.292 11.083-1 13.683 12.623 32.421 31.042 40.347 4.17 1.795 10.37 3.803 27.217 4.097 13.621.238 33.673-.655 58.172-6.374l13.694 16.097a129.97 129.97 0 0 0 23.083-2.208 129.97 129.97 0 0 0 15.291-3.833 205.609 205.609 0 0 0 50.153-24.722 162.96 162.96 0 0 0 10.688-8.369c5.157-4.395 9.169-7.814 13.368-12.964 2.755-3.38 6.935-8.59 9.917-16.278 1.056-2.722 4.287-11.75 3.458-21.417-1.814-21.155-22.07-33.685-24.708-35.264-1.921-1.348-3.993-2.716-12.166-7.487z" style="fill:#2cc5d0"/><path d="M241.556 119.889c10.585 1.37 19.889 4.222 19.889 4.222a115.812 115.812 0 0 1 15.556 6.031V73H73v91.788c25.591-17.455 49.169-27.272 65.906-32.92 0 0 54.116-18.261 102.65-11.979z" style="fill:#2cc5d0"/><path d="M158.611 267.722a114.318 114.318 0 0 1-13.736 3.986c-2.26.505-4.977 1.041-9.5 1.708-7.828 1.154-17.424 2.57-30 2.458-5.449-.048-9.511-.084-15.149-.946-5.635-.861-12.091-1.901-19.533-5.646-3.327-1.674-9.392-4.803-14.97-11.339-4.651-5.45-6.743-10.669-7.389-12.389-3.013-8.031-2.623-14.793-2.5-16.444.085-1.144.497-5.956 3.056-12.222 2.501-6.126 6.182-11.509 13.344-18.822 7.137-7.287 13.496-12.166 21.267-17.845a759.893 759.893 0 0 1 29.667-20.611l7.611 5.167c-18.162 17.703-31.354 31.633-36.611 38.056a57.67 57.67 0 0 0-5.944 8.722c-3.154 5.702-4.345 10.197-4.669 11.489-.556 2.216-1.23 4.904-1.219 8.483.016 5.187 1.461 9.048 2.222 11.028 3.853 10.017 11.309 15.454 13.528 17.028 3.946 2.799 7.396 4.137 10.694 5.417 1.61.624 6.879 2.593 16.291 3.974 3.085.453 15.997 2.22 33.764.193a149.875 149.875 0 0 0 9.776-1.445zM35.617 197.728a146.013 146.013 0 0 1 8.279-10.645c6.418-7.509 12.043-12.547 16.021-16.083 7.555-6.717 13.861-11.299 16.083-12.889 15.354-10.98 30.776-22.009 51.417-23.444a65.712 65.712 0 0 1 10.472.111 806.314 806.314 0 0 1-27.429 13.85c-11.082 5.329-16.03 7.388-25.626 12.664-7.497 4.122-13.451 7.8-18.444 11.097-4.482 2.96-9.123 6.043-14.833 10.71-4.415 3.609-8.073 7.023-9.722 8.568a213.24 213.24 0 0 0-6.218 6.061z" style="fill:#fff"/><path d="M140.944 285.556c11.923.615 22.179.104 30.227-.677 8.143-.791 21.481-2.161 37.995-7.462 12.372-3.971 21.451-8.504 26.889-11.25a202.72 202.72 0 0 0 20.168-11.667c17.073-11.254 27.197-21.673 32.443-27.612 3.65-4.132 5.765-7.032 7.625-10.556 4.888-9.258 5.354-17.779 5.431-20.222.448-14.222-6.009-24.446-8.611-28.444-2.732-4.197-5.463-7.053-7.611-9.278 0 0-7.159-7.413-16.944-13.222-13.99-8.304-46.233-20.637-85.111-14.167a134.342 134.342 0 0 0-10.444 2.167c29.076 9.777 51.658 17.547 65.581 22.134 1.945.641 8.834 2.904 16.586 8.033 4.861 3.216 10.838 7.27 15.083 15 1.029 1.874 3.266 6.348 4.121 12.525 1.394 10.072-1.824 17.897-3.439 21.686-2.136 5.012-4.586 8.311-7.016 11.539-6.335 8.414-12.9 13.753-17 16.917-24.142 18.626-50.105 29.161-53.28 30.427-11.896 4.743-22.022 7.552-26.87 8.637-4.786 1.071-10.636 2.38-13.905 2.827-.537.074-1.846.239-3.584.665-1.656.406-2.291.703-3.778 1.111a31.34 31.34 0 0 1-4.556.889zm170.181-108.035c.089-2.169.108-5.36-.292-9.188-.562-5.377-1.443-13.04-6.245-21.009-3.195-5.303-6.828-8.587-8.171-9.741-3.126-2.687-5.835-4.143-9.5-6.083-7.077-3.747-12.988-5.669-14.75-6.222-5.578-1.753-13.909-3.732-24.375-3.944a82.799 82.799 0 0 1 18.819 4.944 83.328 83.328 0 0 1 13.278 6.667c3.593 2.223 8.506 5.263 13.617 10.491 8.578 8.775 12.312 18.191 14.383 23.564a79.32 79.32 0 0 1 3.236 10.521zM178.688 293.375c.727.096 1.791.229 3.078.361 2.848.291 10.359.938 20.512.07 6.009-.514 17.959-1.624 32.056-7.111 5.515-2.147 9.652-4.299 11.917-5.486 4.28-2.243 10.292-5.431 17.125-10.875a92.307 92.307 0 0 0 10.375-9.667c-5.988 3.81-14 8.541-23.792 13.333-6.237 3.052-15.742 7.663-27.897 11.557-10.03 3.213-24.75 6.864-43.374 7.818z" style="fill:#fff"/><path d="m174.934 36.132-1.316.247-6.667 1.25-2.27.426-1.637 1.629-8.083 8.042-1.72 1.711-.392 2.394-.996 6.082-2.549 2.327-4.09 3.734 2.366 5.008 7.044 14.911-1.411 7.498-16.988 2.776H123.17l-2.208 2.266-14.722 15.111-3.131 3.214 1.351 4.279 2.878 9.115-5.341 13.944-.496 1.296v32.474l-15.5-10.365-7.167 15.75 10.75 40.583 63.139 39.764 22.677 21.448 23.35-21.823 62.722-39.611 9.861-42.472-6.778-14.194-15.25 10.972-.028-30.917v-1.349l-.47-1.264-5.304-14.27 2.866-9.225 1.323-4.259-3.111-3.197-14.597-15-2.208-2.269h-13.443l-16.804-3.018-1.411-7.15 6.899-15.107 2.262-4.952-4.008-3.685-2.537-2.332-.905-5.86-.368-2.382-1.687-1.722-8.042-8.208-1.704-1.739-2.4-.407-7.375-1.25-1.319-.224z" style="fill:#fff"/><path d="m261.167 176.417-49.042 35.208 26.708-28.042a28.267 28.267 0 0 0 2.944-7.638V145l-6.194-16.667 3.625-11.667-14.597-15h-10.944l-22.5-4.042-2.875-14.542 7.903-17.306-4.472-4.111-1.306-8.458L182.375 45 175 43.75 168.333 45l-8.083 8.042-1.417 8.653-4.472 4.083 8.083 17.111-2.833 15.056-22.778 3.722h-10.5l-14.722 15.111 3.667 11.611L109 144.778v30.944c.395 2.443 1.257 5.115 2.994 7.607.147.211.298.417.45.616l26.444 27.944-49.222-35.278-2.222 4 8.444 36.833 61.194 38.389 18.333 17 19-17.5 60.611-38.389 8.389-36.319-2.248-4.208zm-110.124 17.919c-.196.188-.758.725-1.487.704-.906-.026-1.566-.901-1.857-1.303-2.231-3.077-7.54-12.441-10.323-16.486a39.262 39.262 0 0 0-3.542-4.417c1.733-9.541 3.06-17.16 3.933-22.128.198-1.126.576-3.277.609-6.163.032-2.755-.282-4.828-.667-7.333-.661-4.307-1.265-5.613-1.708-9.833a58.231 58.231 0 0 1-.25-3.25l13.5 35.208c.184.598.466 1.553.763 2.737 1.036 4.119 1.336 7.328 1.457 8.591.507 5.317 2.142 21.215-.428 23.673zm55.103-4.878c-.768 1.349-1.906 2.468-2.646 3.833-.182.335-.56 1.062-1.375 1.521-.474.267-1.138.467-1.646.375-1.21-.22-2.281-2.238-2.104-4.979a163.73 163.73 0 0 1 .083-9.75c.254-6.647.418-10.914 1.708-16.333.622-2.611 1.498-5.046 3.25-9.917 1.931-5.368 3.447-8.936 4.792-12.208a431.21 431.21 0 0 0 6.917-18c-.838 8.943-1.534 13.459-2.056 15.915-.065.306-.243 1.123-.374 2.251-.41 3.533.092 6.224.306 7.417.655 3.652 1.991 12.097 3.917 23.375a65.992 65.992 0 0 0-5.958 8.417c-1.604 2.696-3.262 5.359-4.814 8.083z"/></g></switch></svg>