<svg xmlns="http://www.w3.org/2000/svg" viewBox="0 0 350 350"><switch><g><path d="M298.543,251.615c-3.179,2.879-6.358,5.758-9.538,8.637 c-7.662,5.025-15.324,10.05-22.985,15.075c0.887-1.091,1.774-2.181,2.661-3.272c-13.846,7.935-26.123,13.483-35.604,17.308 c-13.309,5.369-21.382,8.626-33.354,10.434c-10.619,1.604-20.428,1.483-20.423,2.176c0.004,0.561,6.441,0.981,10.093,1.1 c6.251,0.205,11.436-0.238,15.053-0.695c31.366,0,62.732,0,94.098,0C298.543,285.457,298.543,268.536,298.543,251.615z" fill="#fff"/><path d="M289.005,292.841c0-10.863,0-21.726,0-32.589c-1.308,0.858-2.615,1.715-3.923,2.573 c-1.318,0.865-2.637,1.729-3.955,2.594c0.038,6.646,0.076,13.292,0.114,19.939c-8.945-0.016-17.89-0.033-26.835-0.049 c-2.158,1.347-4.488,2.709-6.989,4.055c-2.407,1.295-4.74,2.449-6.973,3.478C256.632,292.841,272.819,292.841,289.005,292.841z"/><path d="M254.407,285.308l26.835,0.049l-0.114-19.939c-2.315,1.518-4.629,3.036-6.944,4.554 c-3.21,3.289-7.179,6.86-11.997,10.324C259.497,282.23,256.88,283.887,254.407,285.308z" fill="#28c1cd"/><path d="M69.5,69.5h211c0,19.815,0,39.63,0,59.445c-2.012-0.791-4.15-1.547-6.412-2.242 c-7.216-2.217-13.92-3.271-19.722-3.704c-0.384,0.062-0.767,0.124-1.151,0.185c7.75,1.247,19.079,4.141,30.861,11.398 c11.145,6.865,17.601,14.496,18.923,16.088c9.127,10.989,13.001,22.403,14.753,29.654c0.092-5.055-0.286-20.561-11.395-34.311 c-5.616-6.952-11.982-10.987-16.32-13.224c0-24.276,0-48.551,0-72.827H59.962C59.975,97.012,59.987,134.061,60,171.11 c-2.596,2.188-5.364,4.746-8.176,7.714c-3.37,3.557-6.168,7.032-8.473,10.22c3.672-3.868,7.075-7.166,10.022-9.89 c3.256-3.01,6.47-5.966,11.011-9.462c4.197-3.231,8.1-5.823,11.44-7.863c-13.4,13.309-16.129,16.353-15.973,16.516 c0.202,0.212,5.018-4.604,12.781-10.347c8.27-6.118,15.505-10.048,19.445-12.054c5.802-2.955,13.53-6.359,23.011-9.165 c0.495-4.462,0.989-8.923,1.484-13.385c-9.844,3.966-21.391,9.737-33.28,18.247c-5.155,3.69-9.741,7.442-13.797,11.093 C69.496,131.658,69.498,100.579,69.5,69.5z" fill="#fff"/><path d="M274.661,126.879c1.317,0.41,2.59,0.853,2.59,0.853c0.348,0.121,0.658,0.232,0.928,0.33 c0.991,0.359,1.782,0.668,2.32,0.883c0-19.815,0-39.63,0-59.445h-211c-0.002,31.079-0.004,62.158-0.005,93.236 c3.168-2.491,6.337-4.983,9.505-7.474c0.632-0.573,1.563-1.406,2.709-2.383c25.212-21.502,53.016-26.743,78.082-31.154 c0,0,38.685-6.807,90.396-0.132C259.756,122.829,273.598,126.549,274.661,126.879z"/><path d="M79,155.262V79h192v46.838c-1.147-0.286-2.82-0.683-4.855-1.093 c-0.968-0.195-5.461-1.088-11.779-1.746c-1.445-0.15-3.412-0.333-5.762-0.482c0.317,0.248,0.679,0.506,1.088,0.758 c0.308,0.19,0.605,0.355,0.887,0.497c-0.476-0.041-1.145-0.104-1.942-0.201c-2.889-0.351-4.983-0.841-5.209-0.89 c-4.008-0.877-81.562-8.998-126.857,10.714c-11.896,5.177-22.846,11.868-22.846,11.868 C87.677,148.96,82.724,152.463,79,155.262z" fill="#28c1cd"/><g fill="#0395a8"><path d="M79 155.262v-9.603c.97-.832 2.457-2.019 4.415-3.239 3.173-1.978 5.538-2.769 5.563-4.228.02-1.182-1.507-2.125-1.137-2.695.271-.419 1.19-.056 1.385-.42.351-.657-2.26-2.521-2.018-2.888.117-.177.832.09 1.738.427 1.317.491 1.411.692 2.187.903 1.268.344 2.246.14 2.271.326.024.172-.829.277-1.675 1.061-.257.238-.548.571-.501.628.06.073.639-.333 2.584-1.582.488-.314.733-.471.754-.482 1.634-.876 2.474-.17 3.795-.828 1.043-.519.806-1.102 2.015-1.681.892-.427 1.537-.359 2.194-.46 1.018-.157 2.441-.78 4.037-2.964-1.928-.158-4.649-.304-7.912-.223-3.733.094-6.758.17-10.44 1.113-2.261.58-5.563 1.69-9.255 3.98 0-.692 0-1.385 0-2.077.724-.258 1.902-.789 3.005-1.879 1.77-1.748 2.214-3.814 2.341-4.599.071.552.29 1.602 1.104 2.11.98.612 2.293.106 2.885-.132 0 0 9.486-3.805 11.614-4.622 6.851-2.627 13.136-.613 13.259-1.609.046-.369-.805-.73-2.225-1.335-1.717-.731-5.39-2.233-9.482-.977-.858.263-1.52.582-1.916.791-.081-.278-.134-.642-.025-1.026 0 0 .185-.65.942-1.149.956-.63 8.463-3.353 18.838-6.837 81.94-8.462 109.896-9.749 115.372-8.396.573.142 6.849 1.782 7.612.236.34-.689-.475-1.89-.618-2.102-1.065-1.569-2.926-2.018-2.843-2.25.074-.207 1.522.279 1.706-.074.211-.404-1.422-1.551-1.286-1.755.117-.176 1.371.602 3.288 1.137 1.286.359 2.085.57 2.571.148.726-.63.231-2.219.173-2.398.897.717 1.869 1.447 2.918 2.176 1.031.717 1.56 1.082 2.217 1.409 1.403.699 1.83.544 3.487 1.151.782.286 2.231.816 3.671 1.898 1.761 1.323 2.416 2.65 2.83 2.456.181-.085.335-.469.033-1.995 1.685-.096 2.984.126 3.857.346 1.981.499 3.353 1.386 5.835 1.409.357.003.649-.012.835-.025 0 1.055 0 2.11 0 3.165-.881-.091-2.201-.151-3.766.088-1.398.213-1.791.482-3.555.949-3.512.93-5.062.688-5.2 1.331-.126.589 1.122 1.022 3.19 3.136.631.645 1.124 1.227 1.475 1.666-.34.329-.89.78-1.663 1.082-2.256.881-4.651-.196-6.126-.86-.911-.41-.8-.473-2.72-1.484-1.433-.754-2.634-1.318-3.437-1.681.571-.009 1.476.032 2.52.343 1.468.438 2.095 1.08 2.475.844.311-.194.461-.983-.569-3.907-.719-.254-1.486-.481-2.299-.668-5.07-1.164-9.601-.22-12.626.791 1.493 2.541 3.811 5.421 7.401 6.89 2.416.988 4.678 1.039 4.665 1.187-.014.156-2.527.145-12.841-.511l-93.824 2.329c-11.123 7.611-20.672 12.833-27.527 16.265-8.172 4.091-16.239 7.502-27.406 14.746C84.795 150.977 81.316 153.513 79 155.262zM258.865 96.703c1.447-.006 2.335.404 2.893.816.589.435.854.903 1.214.818.504-.119.896-1.248.492-1.832-.29-.419-.895-.42-1.708-.409C261.097 96.105 260.079 96.206 258.865 96.703zM271 111.308c-.272-.157-.606-.314-1-.429-1.273-.371-2.392-.083-2.93.099.007.772.249 1.185.458 1.417.676.752 1.728.417 2.736 1.253.386.32.612.684.736.923C271 113.484 271 112.396 271 111.308zM267.231 117.736c-.117.447-.261 1.164-.231 2.044.046 1.344.457 1.895.161 2.189-.474.471-2.43-.038-2.831-1.332-.288-.93.372-1.792.494-1.945C265.685 117.617 267.099 117.724 267.231 117.736zM254.637 119.253c.372-.058 1.653-.212 2.934.56.92.555 1.388 1.315 1.582 1.681-3.294-.876-4.912-1.531-4.855-1.965C254.313 119.424 254.426 119.332 254.637 119.253z"/><path d="M236.407,96.094c-1.148-0.44-2.689-0.899-4.549-1.105c-1.417-0.157-2.671-0.127-3.692-0.033 c-0.305-0.003-0.459,0.008-0.462,0.033C227.694,95.097,230.594,95.465,236.407,96.094z"/></g><path d="M198.956,244.56c-7.648,12.56-15.297,25.121-22.945,37.681 c70.706-24.77,112.481-62.38,108.198-92.473c-2.668-18.745-22.551-29.949-29.077-33.626 c-67.279-37.912-189.851,24.856-191.67,75.56c-0.475,13.25,7.371,23.681,8.901,25.714c17.686,23.51,56.794,23.074,81,16.121 C174.393,267.497,189.381,255.041,198.956,244.56z" fill="#28c1cd"/><path d="M178.187,259.725c-18.612,6.898-34.23,8.26-44.044,8.374 c-18.289,0.211-27.53-3.789-31.451-5.736c-4.455-2.214-7.854-4.666-10.154-6.527c3.387,1.873,7.656,3.859,12.758,5.44 c10.328,3.2,19.12,3.284,19.154,3.033c0.031-0.232-7.428-0.449-17.473-3.973c-4.976-1.746-9.815-3.489-15.033-7.566 c-3.29-2.57-9.907-7.742-11.918-16.566c-0.622-2.732-0.637-5.087-0.544-6.676c0.562,3.799,1.856,8.607,4.896,13.352 c6.429,10.038,16.78,13.728,24.973,16.648c5.788,2.063,11.151,3.052,15.989,3.396c5.601,0.397,10.643-0.06,10.648-0.363 c0.006-0.349-6.734-0.097-16.022-1.945c-7.533-1.499-13.078-3.65-13.038-3.791c0.036-0.127,4.849,1.407,12.082,2.473 c2.786,0.41,5.122,0.632,6.758,0.758c0.118,0.009-3.468-0.64-6.462-1.253c-5.919-1.211-17.939-3.672-27.231-12.132 c-3.149-2.867-4.969-5.498-5.077-5.407c-0.14,0.119,2.903,4.554,7.714,8.571c2.763,2.307,4.757,3.347,4.747,3.363 c-0.02,0.031-8.775-3.337-14.11-11.275c-4.642-6.906-4.642-14.072-4.615-15.495c0.116-6.205,2.393-10.809,3.659-12.989 c0.053,0.735,0.105,1.821,0.066,3.132c-0.101,3.408-0.687,4.047-1.154,7.648c-0.672,5.182-0.052,8.436,0.475,10.254 c0.012,0.041,0.054,0.189,0.119,0.394c0.885,2.827,2.139,4.981,3.099,6.396c-0.64-1.105-1.42-2.671-2.011-4.648 c0,0-0.579-1.938-0.808-4.17c-0.345-3.365,0.477-11.904,2.819-23.093c15.066-11.391,28.695-18.639,38.374-23.143 c48.055-22.361,92.643-20.762,109.286-19.978c4.378,0.206,7.945,0.493,10.187,0.692c-0.554,0.469-1.506,1.412-1.385,2.473 c0.13,1.138,1.427,1.815,2.275,2.275c0,0,4.9,2.659,9.593,6.429c1.711,1.374,2.706,2.587,4.154,4.352 c2.501,3.049,8.505,10.368,8.604,19.286c0.056,5.029-1.824,5.317-3.115,12.857c-1.068,6.237-0.726,11.549-0.247,15.132 c0.725-0.462,1.451-0.923,2.176-1.385c-0.466-3.413-0.83-8.663,0.297-14.835c1.321-7.24,3.103-7.038,3.363-11.176 c0.903-14.394-19.906-28.904-22.549-30.462c-0.411-0.242-2.765-1.574-2.571-2.077c0.061-0.16,0.363-0.191,0.544-0.198 c3.302,1.245,7.595,3.295,11.967,6.725c7.83,6.144,11.766,13.46,13.599,17.604c0.364,1.709,0.791,4.37,0.692,7.615 c-0.146,4.8-1.342,7.618-2.176,11.374c-0.71,3.201-1.357,7.978-0.692,14.242c9.165-5.538,18.33-11.077,27.495-16.615 c0.41-8.751,0.087-29.027-13.253-46.484c-16.966-22.202-43.87-25.292-61.319-27.297c-50.01-5.745-88.668,17.893-111.165,31.648 c-28.402,17.366-59.712,36.511-59.341,64.681c0.231,17.53,12.634,31.317,21.165,38.967c19.707,4.54,35.882,5.581,47.143,5.637 c11.677,0.059,18.501-0.939,22.929-1.78c11.169-2.123,20.045-5.72,26.126-8.67 C172.165,264.736,175.176,262.231,178.187,259.725z" fill="#0395a8"/><g fill="#fff"><path d="M86.283 281.772c-.389.116-.74.524-.668.816.096.385.923.531 1.516.363.179-.051.506-.144.544-.346C87.74 282.258 86.959 281.571 86.283 281.772zM118.08 279.658c.063.068.491.543.371 1.088-.166.751-1.214.907-1.328.924-.998.149-1.751-.579-1.861-.689 1.237.135 1.689-.099 1.854-.371.139-.229.119-.556.408-.779C117.707 279.689 117.924 279.66 118.08 279.658zM118.599 281.475c.402.359.998.294 1.273-.062.223-.287.214-.736-.049-1.063-.074.065-.189.161-.334.272-.284.217-.398.269-.556.42C118.839 281.132 118.715 281.27 118.599 281.475zM76.022 278.891c-.169-.086-.656.343-.581.556.046.132.32.217.507.111C76.214 279.409 76.156 278.959 76.022 278.891zM39.676 244.758c-.179.276-.546.925-.577 1.83-.035 1.028.384 1.772.557 2.046.131-.619.275-1.105.382-1.436.225-.693.431-1.135.214-1.451-.09-.13-.185-.142-.33-.346C39.756 245.166 39.699 244.921 39.676 244.758zM39.824 248.813c-.015.069-.039.232.033.412.118.295.4.397.445.412-.03-.117-.083-.275-.181-.445C40.022 249.022 39.911 248.897 39.824 248.813z"/><path d="M285.692,154.56c-4.535-4.406-17.677-16.066-44.308-21.956 c-54.938-12.15-104.631,14.11-134.077,29.67c-11.458,6.055-18.448,11.192-32.11,21.231 c-11.11,8.164-17.298,15.443-22.495,22.205c-1.68,2.185-2.999,4.067-3.903,5.397c1.279,0.469,1.496,0.749,1.475,0.915 c-0.066,0.531-2.579,0.038-4.181,1.521c-0.671,0.622-0.292,0.775-1.3,2.633c-1.526,2.814-2.722,3.061-2.819,4.747 c-0.031,0.539,0.05,1.231-0.371,1.508c-0.472,0.311-1.206-0.142-1.335,0.074c-0.122,0.204,0.547,0.59,0.865,1.484 c0.162,0.455,0.296,1.216-0.034,1.474c-0.307,0.239-0.732-0.177-1.004,0.01c-0.623,0.427,0.929,3.066,0.158,3.768 c-0.401,0.366-1.053-0.14-1.395,0.213c-0.687,0.709,1.325,3.407,0.692,3.981c-0.278,0.252-0.85-0.101-0.989,0.124 c-0.199,0.323,1.013,1.009,1.36,2.324c0.11,0.416,0.024,0.485-0.112,1.998c-0.178,1.979-0.26,2.978,0.062,3.441 c0.548,0.788,1.457,0.619,1.755,1.484c0.147,0.427,0.098,0.965-0.124,1.063c-0.418,0.185-1.27-1.274-1.582-1.113 c-0.202,0.105-0.071,0.833,0.148,1.434c0.425,1.163,0.978,1.288,1.508,2.25c0.751,1.363,0.736,3.101,0.173,3.412 c-0.292,0.162-0.641-0.112-0.791,0.074c-0.186,0.23,0.088,0.968,0.619,1.244c0.573,0.298,1.049-0.149,1.408,0.165 c0.311,0.271,0.316,0.919,0.067,1.31c-0.246,0.387-0.683,0.433-0.66,0.568c0.034,0.2,0.965-0.055,1.568,0.441 c0.355,0.292,0.24,0.551,0.587,1.239c0.366,0.727,0.593,0.634,1.405,1.684c0.739,0.956,0.716,1.245,1.236,1.533 c0.581,0.321,0.828,0.08,1.236,0.371c0.601,0.428,0.334,1.144,0.717,2.423c0.167,0.558,0.691,2.308,1.899,2.7 c0.718,0.233,1.329-0.128,1.711,0.316c0.257,0.298,0.082,0.579,0.371,0.964c0.336,0.449,0.729,0.287,1.187,0.618 c0.563,0.408,0.348,0.918,1.022,2.613c0.417,1.05,0.701,1.353,1.031,1.507c0.354,0.166,0.67,0.118,0.98,0.092 c1.555-0.131,3.011,0.281,3.853,0.709c0.84,0.427,1.547,1.114,1.446,1.31c-0.113,0.221-1.28-0.118-2.085-0.354 c-1.212-0.356-1.752-0.652-1.863-0.495c-0.107,0.153,0.241,0.665,0.688,0.964c0.44,0.294,0.668,0.176,1.274,0.454 c0.607,0.278,0.521,0.462,1.022,0.692c0.639,0.294,0.905,0.054,1.945,0.214c0.805,0.124,1.56,0.41,1.541,0.527 c-0.027,0.171-1.674-0.049-1.706,0.136c-0.023,0.132,0.778,0.455,1.645,0.575c0.807,0.112,0.917-0.056,1.322,0.105 c0.746,0.297,0.681,0.99,1.401,1.706c0.486,0.483,1.115,0.662,2.374,1.022c0.777,0.222,1.635,0.467,2.797,0.499 c0.854,0.024,1.549-0.077,1.629,0.158c0.089,0.261-0.699,0.596-0.614,0.921c0.08,0.307,0.917,0.537,1.339,0.218 c0.496-0.375,0.147-1.302,0.602-1.516c0.215-0.101,0.479,0.026,0.61,0.132c0.36,0.293,0.308,0.933,0.124,1.335 c-0.214,0.466-0.591,0.573-0.538,0.717c0.075,0.204,0.928,0.26,1.255-0.149c0.285-0.357,0.045-0.908,0.198-0.964 c0.16-0.058,0.349,0.578,0.964,0.94c0.502,0.296,1.198,0.369,1.409,0.099c0.188-0.24-0.075-0.66,0.049-0.725 c0.112-0.059,0.464,0.209,0.569,0.577c0.115,0.405-0.136,0.686-0.025,0.791c0.222,0.21,1.327-0.804,1.551-0.616 c0.089,0.075,0.059,0.354-0.43,1.226c0.247,0.17,0.627,0.392,1.128,0.543c0.574,0.172,1.066,0.32,1.545,0.14 c0.789-0.297,0.702-1.165,1.815-1.759c0.163-0.087,0.292-0.136,0.461-0.2c0.778-0.296,1.466-0.36,1.922-0.367 c-0.293,0.495-0.582,1.04-0.854,1.636c-0.094,0.207-0.183,0.41-0.265,0.611c0.454,0.175,1.097,0.337,1.582,0.037 c0.421-0.26,0.335-0.628,0.791-1.113c0.666-0.707,1.86-0.997,2.238-0.606c0.075,0.078,0.16,0.227,0.136,0.532 c-0.478,0.239-0.956,0.478-1.434,0.717c-0.297,0.276-0.593,0.552-0.89,0.828c-0.007,0.094-0.064,1.098,0.743,1.757 c0.603,0.492,1.434,0.584,2.112,0.283c0.692-0.307,0.98-0.914,1.051-1.076c-0.806,0.374-1.58,0.281-1.881-0.133 c-0.06-0.083-0.155-0.253-0.146-0.547c0.804-0.185,1.338-0.497,1.681-0.754c0.383-0.287,0.713-0.643,1.335-0.791 c0.514-0.122,0.687,0.029,0.725,0.065c0.122,0.118,0.138,0.299,0.126,0.526c-0.049,0.916-0.489,1.166-0.381,1.535 c0.151,0.516,1.236,0.792,2.077,0.643c0.667-0.118,0.681-0.415,1.212-0.396c0.599,0.022,0.807,0.409,1.632,0.593 c0.386,0.086,0.713,0.085,0.915,0.074c-0.14-1.162-0.28-2.324-0.42-3.486c1.065-0.398,1.833-0.255,2.201-0.148 c0.462,0.134,1.019,0.422,0.989,0.643c-0.028,0.206-0.537,0.14-0.816,0.519c-0.237,0.323-0.206,0.83-0.004,1.164 c0.415,0.687,1.578,0.685,2.031,0.245c0.177-0.172,0.096-0.264,0.272-0.47c0.448-0.522,1.175-0.155,1.83-0.569 c0.472-0.299,0.381-0.671,0.749-1.096c0.653-0.754,1.895-0.682,2.91-0.61c1.937,0.138,3.849,0.285,5.86,0.47 c-0.098-0.19-0.22-0.4-0.371-0.618c-0.176-0.254-0.354-0.467-0.519-0.643c3.473,0.019,7.079-0.063,10.805-0.272 c1.143-0.064,2.272-0.138,3.387-0.223c-0.232-0.142-0.613-0.425-0.865-0.915c-0.075-0.146-0.127-0.287-0.162-0.413 c4.66-0.163,10.258-0.738,16.456-2.183c4.499-1.049,8.476-2.361,11.885-3.701c-16.623,3.575-30.212,2.874-38.835,1.78 c-14.793-1.876-31.48-3.992-42.132-17.341c-2.391-2.997-7.203-9.975-8.159-19.681c-1.612-16.366,8.89-28.807,14.489-35.44 c4.799-5.685,13.535-14.396,39.429-26.242c16.924-7.743,43.914-19.789,81.626-22.286c28.829-1.908,40.785,3.296,44.308,4.945 c6.214,2.909,24.498,11.468,29.059,29.935c3.775,15.284-3.976,28.751-7.598,35.043c-5.924,10.293-13.374,16.129-21.527,22.516 c-7.463,5.847-14.481,9.579-28.516,17.044c-10.353,5.506-18.314,9.74-29.967,14.341c-5.443,2.149-14.412,5.654-26.571,8.703 c-14.02,3.516-23.993,4.349-23.918,5.143c0.073,0.764,9.345,0.547,15.808,0.198c8.219-0.445,19.507-1.108,33.956-4.484 c20.255-4.732,33.624-11.734,33.758-11.407c0.115,0.281-9.829,5.114-22.874,9.708c-10.271,3.618-17.774,5.435-17.732,5.59 c0.059,0.219,13.077-2.147,27.749-6.99c26.424-8.722,44.456-20.935,55.187-28.319c13.283-9.139,19.937-15.676,24.47-20.747 c4.555-5.095,7.891-9.742,10.121-13.102c-2.355,2.723-5.641,6.423-9.717,10.706c-1.584,1.665-5.46,5.737-5.687,5.538 c-0.363-0.317,11.09-10.266,17.407-26.258c1.512-3.829,3.643-9.223,3.989-15.841 C306.439,174.715,290.795,159.518,285.692,154.56z M54.56,205.94c-0.724,1.156-1.326,2.271-1.83,3.313 c-0.992,0.693-1.838,1.184-2.027,0.989c-0.385-0.395,2.124-3.424,2.769-4.203c1.646-1.987,3.289-3.638,4.797-4.995 C57.078,202.357,55.787,203.98,54.56,205.94z M124.595,277.457c0.53,0.054,1.049,0.116,1.558,0.185 c-1.336,0.104-2.52,0.109-3.511,0.074c-0.592-0.021-1.65-0.075-2.967-0.247c-0.574-0.075-1.065-0.155-1.446-0.223 C120.203,277.178,122.334,277.227,124.595,277.457z"/><path d="M121.648 279.67c.069.133.221.378.511.544.642.366 1.347-.004 1.401-.033-.15-.144-.584-.523-1.236-.577C122.049 279.582 121.815 279.624 121.648 279.67zM129.246 274.013c.933-.994 1.61-1.155 2.078-1.085.791.12 1.265.947 2.011.758.279-.071.228-.19.61-.379.798-.394 1.284-.003 2.192-.214.869-.202 1.332-.771 1.385-.709.041.048-.238.399-1.648 1.731C133.665 274.081 131.455 274.047 129.246 274.013zM142.731 273.761c.381-.198.775-.481.791-.841.022-.501-.707-.78-.618-1.038.095-.275 1.08-.415 1.682.073.481.39.651 1.126.419 1.855C144.247 273.794 143.489 273.777 142.731 273.761zM140.308 274.008c-.489-.117-1.339-.427-1.31-.692.028-.264.929-.533 1.686-.285.703.23 1.054.832 1.157 1.027C141.488 274.116 140.94 274.16 140.308 274.008z"/><path d="M144.942 271.852c-.11.108-.164.305-.096.447.223.464 1.738.306 1.78.049C146.667 272.098 145.344 271.46 144.942 271.852zM151.22 272.681c.184.187.973.945 2.209.989.731.026 1.621-.199 1.615-.396C155.039 273.097 154.302 272.878 151.22 272.681z"/></g><g fill="#fff"><path d="M272.044,185.055c-1.452,4.516-2.905,9.031-4.357,13.547c0.012-0.257,0.054-1.308,0.317-2.684 c0.487-2.546,1.376-4.327,1.617-4.838c0.838-1.773,1.79-4.984,2.225-11.299c-0.577-1.439-1.339-3.061-2.349-4.772 c-1.287-2.18-2.654-3.954-3.882-5.349c-2.082,1.467-5.112,3.645-8.703,6.396c-5.633,4.313-10.008,8.012-10.632,7.409 c-0.308-0.298,0.608-1.352,1.401-3.981c0.518-1.717,0.711-3.201,0.791-4.22c0.088-9.626,0.176-19.253,0.264-28.879 c-0.629-2.57-1.258-5.14-1.887-7.71c-1.283-3.892-2.566-7.783-3.849-11.675l3.626-13.533 c-6.308-6.618-12.615-13.236-18.923-19.854c-2.076-0.588-3.865-0.894-5.209-1.063c-4.797-0.605-7.281,0.097-7.665,0.247 c-0.211,0.083-0.355,0.121-0.643,0.198c-0.71,0.189-0.889,0.142-0.989,0.099c-0.093-0.04-0.296-0.152-0.445-0.495 c-2.045-0.395-4.173-0.761-6.379-1.088c-3.291-0.487-6.445-0.84-9.445-1.088c0.194,0.183,0.305,0.391,0.247,0.495 c-0.067,0.119-0.378,0.135-0.742-0.049c-0.61-3.033-1.22-6.066-1.83-9.099c0.353-0.369,0.827-0.899,1.335-1.582 c0.527-0.709,0.845-1.253,1.038-1.187c0.272,0.092-0.051,1.266,0.251,1.388c0.261,0.106,0.88-0.617,1.282-1.388 c0.639-1.224,0.37-1.873,0.93-3.049c0.374-0.785,0.796-1.129,1.196-1.599c0.931-1.092,1.213-2.234,1.912-6.33 c0.418-2.45,0.735-4.491,0.956-5.967c-1.923-1.967-3.846-3.934-5.769-5.901c-0.231-3.066-0.462-6.132-0.692-9.198 c-4.242-3.824-8.484-7.648-12.725-11.473c-2.304-0.611-5.437-1.199-9.173-1.212c-3.852-0.013-7.075,0.59-9.42,1.212 l-11.077,10.681c-0.396,2.802-0.791,5.604-1.187,8.407c-0.722,0.793-1.48,1.596-2.275,2.407 c-1.188,1.211-2.363,2.342-3.514,3.396c1.307,3.343,2.818,6.864,4.569,10.516c1.378,2.874,2.783,5.578,4.187,8.11 c-0.331,2.045-0.722,4.169-1.187,6.363c-0.374,1.765-0.772,3.469-1.187,5.11c-5.103,0.816-10.534,1.528-16.269,2.077 c-5.953,0.569-11.62,0.904-16.961,1.063c-6.049,6.552-12.099,13.104-18.148,19.657c1.615,4.549,3.231,9.099,4.846,13.648 c-1.493,2.749-3.102,6.261-4.377,10.484c-1.085,3.593-1.679,6.872-2.002,9.643c-0.066,6.61-0.132,13.22-0.198,19.83 c0.219,1.622,0.346,3.997-0.198,6.775c-0.418,2.138-1.109,3.873-1.731,5.143c-5.192-3.874-10.385-7.747-15.577-11.621 c-5.616,7.44-6.417,13.067-6.033,16.912c0.083,0.829,0.813,3.965,2.275,10.236c0.762,3.272,1.417,6.568,2.176,9.841 c0.481,2.074,0.813,3.444,0.953,5.485c0.152,2.229-0.105,2.646,0.135,4.751c0.17,1.487,0.504,2.748,1.164,5.21 c0.339,1.262,0.793,2.852,1.382,4.68c4.81,1.942,7.684,4.008,9.453,5.604c0.363,0.327,1.683,1.542,3.593,3.066 c1.778,1.419,4.24,3.245,4.385,3.074c0.048-0.057-0.186-0.313-0.989-1.212c-2.859-3.202-2.941-3.388-2.918-3.412 c0.04-0.041,0.447,0.334,1.187,0.915c0.523,0.411,1.979,1.527,3.536,2.374c1.103,0.6,1.943,0.894,2.448,1.088 c1.855,0.711,3.34,1.656,7.566,4.624c5.003,3.513,7.504,5.27,7.401,5.44c-0.286,0.47-11.573-5.943-11.67-5.769 c-0.073,0.131,6.781,4.129,6.692,4.286c-0.029,0.051-0.785-0.346-0.813-0.296c-0.049,0.09,2.291,1.461,3.78,2.34 c1.458,0.861,3.466,2.056,5.882,3.527c0.004,0.149,0.026,0.354,0.102,0.586c0.065,0.198,0.149,0.355,0.223,0.47 c4.423,1.983,8.041,3.489,10.574,4.516c2.781,1.128,4.007,1.576,5.868,2.637c2.663,1.518,3.924,2.749,7.022,5.341 c4.644,3.885,9.31,7.393,9.424,7.259c0.101-0.119-3.331-3.197-5.599-5.182c-5.769-5.049-9.318-7.676-9.264-7.747 c0.091-0.12,10.31,6.847,21.865,16.917c3.895,3.394,7.058,6.367,9.32,8.552c2.957-2.624,5.323-4.813,6.941-6.331 c3.651-3.425,4.456-4.336,6.584-5.928c1.491-1.116,1.509-0.979,6.842-4.308c4.031-2.516,6.047-3.775,7.807-5.044 c3.424-2.469,5.136-3.703,5.915-4.45c1.257-1.205,2.901-1.937,4.253-3.035c0.267-0.217,1.111-0.912,1.811-0.663 c0.328,0.117,0.399,0.362,0.662,0.401c0.568,0.085,0.986-0.955,1.648-1.78c0.545-0.679,1.182-1.051,2.456-1.797 c3.152-1.844,9.767-4.272,14.357-6.907c6.111-3.507,7.693-6.841,11.747-7.934c0.074-0.02,2.193-0.59,4.736-1.923 c0.215-0.113,2.722-1.436,2.571-1.813c-0.161-0.402-3.216,0.565-3.305,0.295c-0.055-0.168,1.089-0.668,1.755-0.988 c2.937-1.41,3.721-2.75,6.363-4.681c1.188-0.869,3.019-2.053,5.571-3.132c0.161-0.32,0.327-0.721,0.451-1.196 c0.074-0.282,0.121-0.545,0.15-0.783l0,0l0,0c0.669-2.149,1.059-3.209,1.171-3.18c0.151,0.039-0.206,2.065-1.071,6.081 c-2.709,1.962-5.418,3.924-8.127,5.886c3.099-1.929,6.198-3.857,9.297-5.786c0.352-2.291,0.609-4.037,0.717-5.143 c0.031-0.323,0.095-1.05,0.494-1.879c0.198-0.41,0.418-0.721,0.577-0.923c0.391-0.549,0.783-1.099,1.174-1.648v-12.462 c1.005-5.194,2.155-8.101,3.079-9.824c0.236-0.439,0.909-1.646,1.15-3.37C272.564,187.406,272.307,186.004,272.044,185.055z M83.934,170.088c-0.159,0.342-0.394,0.84-0.692,1.434c-0.647,1.291-1.171,2.206-1.533,2.843 c-0.537,0.946-1.311,2.323-2.324,4.179c0.771-2.31,1.808-4.811,3.214-7.393c0.365-0.669,0.737-1.312,1.113-1.929 c0.464,0.145,1.26,0.462,2.027,1.162c0.6,0.547,0.956,1.123,1.159,1.518C85.91,171.298,84.922,170.693,83.934,170.088z M191.786,43.445c1.505,1.473,3.01,2.945,4.515,4.418c0.227,3.419,0.339,4.899,0.397,5.505 c0.003,0.028,0.023,0.239,0.036,0.525c0.025,0.549,0.036,1.665-0.085,1.684c-0.105,0.016-0.361-0.788-0.94-3.56 c-0.038-1.357-0.077-2.714-0.115-4.071c-0.344-0.401-0.689-0.803-1.034-1.207C193.622,45.638,192.697,44.54,191.786,43.445z"/><path d="M105.779 125.83c-.141.054-1.82-3.835-3.338-7.949-.722-1.956-1.272-3.599-1.644-4.747.399-.476.912-1.081 1.516-1.776 6.544-7.529 12.554-12.726 12.676-12.602.108.111-4.469 4.387-11.423 12.511-.652.762-1.21 1.423-1.644 1.941.271.955.662 2.311 1.15 3.931C104.802 122.882 105.9 125.784 105.779 125.83zM116.143 96.736c.668-.724 1.36-1.455 2.077-2.191.899-.923 1.79-1.808 2.67-2.655 5.195-.011 10.39-.022 15.585-.033-2.79.305-5.771.533-8.926.643-2.267.079-4.446.09-6.527.049-.916.912-1.943 1.854-3.09 2.796C117.326 95.843 116.728 96.305 116.143 96.736zM143.505 91.198c1.554-.267 3.196-.602 4.912-1.022 1.39-.34 2.71-.707 3.956-1.088.907-1.932 1.829-4.657 1.846-7.945.004-.696-.033-1.356-.099-1.978.392.438.85 1.086 1.055 1.945.388 1.628-.426 2.784-1.121 5.538-.192.76-.411 1.787-.56 3.033-1.424.3-2.92.578-4.484.824C147.091 90.808 145.252 91.033 143.505 91.198z"/></g><path d="M263.736,176.516c-16.582,11.736-33.165,23.473-49.747,35.209c7.296-7.544,14.591-15.089,21.887-22.633 c1.73-1.46,4.941-4.594,6.729-9.642c0.968-2.733,1.223-5.192,1.253-6.989c0-9.56,0-19.121,0-28.681l-6.429-17.011l3.956-12.198 c-5.374-5.165-10.747-10.33-16.121-15.495c-3.995-0.142-8.136-0.382-12.412-0.742c-7.632-0.641-14.808-1.588-21.486-2.72 c-0.93-5.642-1.86-11.284-2.79-16.925c2.636-5.402,5.272-10.804,7.908-16.206l-4.945-5.044 c-0.363-3.066-0.725-6.132-1.088-9.198c-1.201-1.29-2.464-2.6-3.791-3.923c-1.628-1.622-3.236-3.148-4.813-4.582 c-1.918-0.388-4.332-0.708-7.121-0.692c-2.615,0.015-4.89,0.321-6.725,0.692c-1.183,0.939-2.411,1.991-3.659,3.165 c-2.053,1.932-3.787,3.848-5.242,5.637c-0.51,3.028-1.02,6.055-1.53,9.083c-1.567,1.258-3.134,2.516-4.701,3.774 c2.813,5.89,5.626,11.78,8.44,17.67c-1.033,5.253-2.066,10.505-3.099,15.758c-6.029,1.568-13.135,2.946-21.154,3.63 c-4.904,0.418-9.479,0.521-13.659,0.425c-5.027,5.341-10.055,10.681-15.082,16.022c1.247,3.857,2.495,7.714,3.742,11.571 c-2.236,5.736-4.471,11.473-6.707,17.209c0,10.538,0,21.077,0,31.615c0.028,0.361,0.084,0.914,0.211,1.577 c0.567,2.959,1.992,5.237,5.441,9.335c1.62,1.924,3.706,4.273,6.264,6.857c6.22,6.418,12.44,12.835,18.659,19.253 c-16.714-11.758-33.429-23.516-50.143-35.275c-0.782,1.246-1.564,2.491-2.346,3.737c2.969,12.886,5.938,25.773,8.906,38.659 c17.803,10.902,35.692,22.124,53.654,33.676c3.954,2.543,7.892,5.09,11.814,7.639c5.73,5.393,11.461,10.786,17.191,16.179 c6.227-5.978,12.454-11.956,18.681-17.934c21.275-13.319,42.549-26.637,63.824-39.956l8.505-38.473L263.736,176.516z M148.516,196.231c-0.724,0.183-2.06-0.227-9.099-11.341c-3.392-5.356-5.999-9.866-7.714-12.923 c1.056-5.288,1.829-9.772,2.374-13.154c1.895-11.764,1.825-15.123,1.78-16.418c-0.061-1.742-0.37-4.59-0.989-10.286 c-0.42-3.865-0.808-7.067-1.088-9.297c3.484,8.97,6.333,16.107,8.209,20.769c4.083,10.149,5.437,13.246,6.725,18.89 c1.649,7.224,1.837,12.694,1.953,16.716C150.86,185.804,151.143,195.567,148.516,196.231z M201.026,196.231 c-2.626-0.663-2.343-10.426-2.151-17.042c0.117-4.022,0.305-9.492,1.953-16.716c1.288-5.645,2.642-8.741,6.725-18.89 c1.876-4.662,4.724-11.799,8.209-20.769c-0.28,2.229-0.668,5.432-1.088,9.297c-0.619,5.696-0.928,8.544-0.989,10.286 c-0.045,1.295-0.114,4.654,1.78,16.418c0.545,3.382,1.317,7.866,2.374,13.154c-1.715,3.057-4.322,7.567-7.714,12.923 C203.086,196.004,201.75,196.414,201.026,196.231z"/></g></switch></svg>