<svg xmlns="http://www.w3.org/2000/svg" viewBox="0 0 350 350" style="enable-background:new 0 0 350 350" xml:space="preserve"><switch><g><path style="fill:#fff" d="M59.991 59.991H290V290H59.991z"/><path d="M69.991 280V154.995l15.001-5-15.001-10V69.992h210.008v70.003l-15.001 10 15.001 5V280H69.991z"/><linearGradient id="warden-a" gradientUnits="userSpaceOnUse" x1="174.417" y1="38.333" x2="174.417" y2="143"><stop offset=".374" style="stop-color:#0e0e0c"/><stop offset=".951" style="stop-color:#010101"/><stop offset="1" style="stop-color:#000"/></linearGradient><path style="fill:url(#warden-a)" d="m63.833 38.333 109.5 61.833 9.833-2.833 101.834-59-14.772 102.27L105.75 143l-23.25-3.375L63.833 38.333z"/><path style="fill:#fff" d="m195.996 137.994 23.001 19.001 38.001-31.001-45.002 107.004-23.001-80.003 7.001-15.001z"/><path style="fill:#fff" d="m174.995 113.993 95.004-52.002-8 51.002-45.002 36.001-42.002-35.001zM97.992 139.994l30.001 32.001 27.001-32.001 5 13-29.001 89.003-33.001-102.003z"/><path style="fill:#fff" d="m85.992 67.992 85.003 48.002-38.001 42.002-43.002-53.002-4-37.002z"/><path style="fill-opacity:.1" d="m99.993 152.995 29.001 32.001 31.001-38.001-2.745-8.161 14.745-15.84 18.975 14.647.025 5.353 28.001 27.001 37.001-32.001 1-12-38.001 31.001-23.001-19.001-24.001-15.001-17.001 17.001-27.001 32.001-30.001-32.001 2.002 13.001z"/><linearGradient id="warden-b" gradientUnits="userSpaceOnUse" x1="173.495" y1="159.995" x2="173.495" y2="122.994"><stop offset=".097" style="stop-color:#31458e"/><stop offset="1" style="stop-color:#2e396f"/></linearGradient><path style="fill:url(#warden-b)" d="m183.367 149.771-.371-1.776 6-10.001-17.001-15-14 16 8 13.001 8 8z"/><linearGradient id="warden-c" gradientUnits="userSpaceOnUse" x1="170.495" y1="269.999" x2="170.495" y2="164.938"><stop offset="0" style="stop-color:#35439a"/><stop offset=".618" style="stop-color:#3d50a3"/><stop offset="1" style="stop-color:#445aab"/></linearGradient><path style="fill:url(#warden-c)" d="m186.538 164.938-10.543 14.058-14.016-13.14-26.985 93.143 3 11h61.002l7-12z"/><path style="fill:#283674" d="m186.538 164.938-3.171-15.167-9.372 10.224-8-8-4.016 13.861 14.016 13.14z"/><linearGradient id="warden-d" gradientUnits="userSpaceOnUse" x1="306.667" y1="131.5" x2="306.667" y2="131.5"><stop offset=".374" style="stop-color:#0e0e0c"/><stop offset=".951" style="stop-color:#010101"/><stop offset="1" style="stop-color:#000"/></linearGradient></g></switch></svg>