<svg xmlns="http://www.w3.org/2000/svg" xml:space="preserve" style="enable-background:new 0 0 350 350" viewBox="0 0 350 350"><switch><g><path d="M45 45h260v260H45z" style="opacity:.4"/><path d="M73 73h204v204H73z" style="fill:#aa4825"/><path d="M294.153 111.611c0-36.451-29.549-66-66-66s-66 29.549-66 66c0 14.763 4.849 28.392 13.038 39.386a53.942 53.942 0 0 0-3.566-.108 71.948 71.948 0 0 0-17.145 2.194c.337-2.332.52-4.714.52-7.139 0-27.338-22.162-49.5-49.5-49.5S56 118.606 56 145.944c0 26.743 21.211 48.519 47.725 49.455-5.537 12.239-6.309 23.398-6.336 29.205-.133 28.848 17.339 47.756 20.333 50.896 21.47 22.508 49.204 22.841 53.903 22.819 30.679-.142 49.81-19.277 53.375-22.986 4.277-4.45 20.679-22.622 20.861-50.729.035-5.455-.437-27.181-16.528-46.799-.062-.076-.126-.144-.188-.22 35.991-.532 65.008-29.856 65.008-65.974"/><circle cx="105.562" cy="145.979" r="8.5" style="fill:#fff"/><circle cx="171.278" cy="224.556" r="14" style="fill:#fff"/><circle cx="227.076" cy="111.076" r="12" style="fill:#fff"/><path d="M285.458 126.75c-1.854-1.365-3.085-2.284-4.333-3.833a15.657 15.657 0 0 1-1.775-2.772c.514-2.883.797-5.833.802-8.832a50.968 50.968 0 0 0-2.787-16.652 42.89 42.89 0 0 1 3.029-3.854c.781-.885 2.277-2.505 5.078-4.89 3.017-2.568 6.035-4.735 10-7.25a161.373 161.373 0 0 1 14.833-8.333c-7.872 3.659-14.41 6.235-19.159 7.972 0 0-5.022 1.837-11.924 3.166-2.281.439-4.697.806-7.722.417-.23-.03-.435-.073-.655-.108a53.158 53.158 0 0 0-3.34-4.326l.745-.065a25.45 25.45 0 0 1 .389-4.333c.338-1.909 1.104-4.959 3.917-9.833 1.724-2.988 4.521-7.188 8.889-11.667-1.306 1.378-7.3 7.632-13.549 11.732-3.113 2.042-5.552 3.067-8.145 3.574a19.782 19.782 0 0 1-2.917.347l-.177.598a52.538 52.538 0 0 0-5.828-3.388c-1.095-7.159 1.005-18.002 1.005-18.002 1.333-6.876 1.999-10.314 3.417-15.667a195.203 195.203 0 0 1 4.083-13.444 371.403 371.403 0 0 1-2.833 7.611c-3.343 8.689-5.015 13.033-7.733 18.3-2.323 4.501-4.891 9.4-9.642 14.867a61.808 61.808 0 0 1-1.673 1.844 51.554 51.554 0 0 0-4.584-.663 30.78 30.78 0 0 1-1.035-1.07c-4.816-5.259-6.508-10.87-7.028-12.667-.878-3.033-1.409-6.644-1.722-8.778a92.921 92.921 0 0 1-.5-4 62.184 62.184 0 0 1-.667 12.958c-.512 3.261-.933 5.945-2.139 8.681-.543 1.232-1.726 3.56-4.201 6.089a52.059 52.059 0 0 0-18.665 8.678c-2.377-.474-4.922-1.26-6.829-2.572-.587-.404-2.387-1.735-4.403-3.653a41.88 41.88 0 0 1-2.431-2.514c.57.716 1.345 1.742 2.181 3.028 1.623 2.497 3.781 5.818 4.611 10.306.069.371.133.797.189 1.256-.29.301-.582.6-.865.907a41.157 41.157 0 0 1-1.741-.205c-1.419-.201-6.285-.968-16.75-6.042-1.465-.71-6.761-3.309-13.751-7.624a177.346 177.346 0 0 1-9.559-6.338 276.94 276.94 0 0 1 9.84 7.413c3.973 3.135 7.418 5.866 11.678 9.883 2.98 2.81 5.058 4.783 7.5 7.792a61.253 61.253 0 0 1 4.723 6.688 51.959 51.959 0 0 0-5.533 19.169 18.706 18.706 0 0 1-3.857 3.726c-3.6 2.58-7.64 3.48-8.157 3.59-1.273.272-3.686.646-5.926.91-.999.118-1.833.198-2.417.25.584.005 1.426.018 2.438.052.795.026 4.085.136 6.082.385.803.1 4.424.6 8.453 2.806a24.249 24.249 0 0 1 3.761 2.55c-.285.323-.578.647-.888.971-3.381 3.541-6.992 5.756-9.851 7.142l.201 3.449a76.56 76.56 0 0 1-.112-1.369c.043 1.617.072 3.902 0 6.639a148.676 148.676 0 0 1-.209 5.268c-2.82-.065-4.42-.118-5.66-.256-2.314-.258-4.46-.514-7.04-1.586-1.595-.663-2.776-1.396-3.897-2.093a36.6 36.6 0 0 1-1.73-1.15 41.24 41.24 0 0 0-.746-3.215c.073-.176.151-.359.239-.552 1.123-2.458 2.834-4.568 5.939-7.065 5.205-4.186 11.396-7.104 13.602-8.101a72.799 72.799 0 0 1-7.417 2.875c-5.176 1.685-8.569 2.139-10.702 2.312-2.309.188-4.081.123-6.009-.5-.182-.059-.343-.126-.514-.189-2.325-3.82-4.56-6.224-5.247-6.943-.723-.756-4.185-4.268-9.847-7.438a46.908 46.908 0 0 1-.054-6.396c.247-4.097.977-7.216 1.573-9.712.866-3.628 1.861-6.454 3.356-10.704a193.265 193.265 0 0 1 2.222-6 230.923 230.923 0 0 1-2.889 6.417c-1.93 4.117-2.895 6.176-4.321 8.716-4.698 8.368-8.515 11.583-9.504 12.389-.467.381-.892.704-1.266.978a40.42 40.42 0 0 0-3.451-.69 25.063 25.063 0 0 1-3.306-5.198c-1.868-3.96-2.245-7.517-2.667-11.5a58.883 58.883 0 0 1-.329-6.5 73.537 73.537 0 0 1-.468 6.583c-.623 5.354-1.071 8.927-3.12 12.709a21.675 21.675 0 0 1-2.816 4.011 43.57 43.57 0 0 0-13.559 4.67 42.77 42.77 0 0 0-4.286 2.68c-4.538.24-7.533-.869-8.865-1.462-2.329-1.038-4.853-2.818-5.932-3.579a50.005 50.005 0 0 1-5.238-4.251 38.406 38.406 0 0 1 4.027 4.707c2.747 3.79 6.185 8.535 5.794 14.599l-.011.128a37.552 37.552 0 0 0-1.406 2.122c-1.326 2.169-6.033 10.322-6.056 21.812v.046a61.112 61.112 0 0 1-6.072 3.021c-5.764 2.478-10.596 3.497-17.956 5.01-2.65.545-6.409 1.258-10.984 1.926 4.114-.466 7.542-.745 10.009-.918 5.325-.372 8.634-.593 13.15-.389 5.257.238 8.265.877 9.158 1.075 1.517.336 2.872.721 4.055 1.103 1.128 4.473 3.183 9.681 6.9 14.712.003.226.009.451.003.685-.087 3.533-1.219 6.118-1.604 6.937-.717 1.524-2.061 3.287-4.75 6.812-.693.909-1.275 1.65-1.667 2.146a28.796 28.796 0 0 1 4.417-3.896c1.738-1.241 4.386-3.133 7.785-3.889 1.543-.343 3.026-.4 4.404-.29 2.777 2.041 6.497 4.291 11.049 5.956a20.19 20.19 0 0 1 1.992 3.89c1.458 3.873 1.383 7.377 1.333 9-.041 1.337-.161 1.686-.708 8-.108 1.245-.193 2.271-.25 2.958a52.434 52.434 0 0 1 2.32-9.115c1.29-3.66 2.204-6.252 4.305-8.844a18.564 18.564 0 0 1 3.681-3.432c1.108.033 2.242.023 3.402-.04.674-.036 1.322-.108 1.975-.175a75.643 75.643 0 0 1 3.248 4.064 74.946 74.946 0 0 1 3.32 4.858c-3.623 6.976-6.025 14.748-6.78 22.993-2.064 2.363-3.994 4.532-7.762 6.344-2.553 1.228-5.406 2.031-6 2.194-2.976.822-5.718 1.197-8.438 1.569a101.11 101.11 0 0 1-2.896.354 57.864 57.864 0 0 1 6.164.087c2.459.166 7.432.5 11.719 2.032 1.612.576 4.69 1.887 8.079 4.858-6.822 5.498-12.922 9.133-17.604 11.551-6.84 3.532-15.771 7.116-20.356 8.956a347.362 347.362 0 0 1-13.335 5.038 337.57 337.57 0 0 1 10.833-3.333c5.953-1.723 11.165-3.232 17.889-4.611 7.743-1.589 13.084-2.684 20.333-2.556 2.867.051 5.447.286 7.696.588a66.318 66.318 0 0 0 1.827 3.396l-.912.141a25.11 25.11 0 0 1-.667 3.167c-.266.955-1.404 4.814-5.384 10.128-1.929 2.576-3.605 4.265-5.491 6.149a85.828 85.828 0 0 1-8.208 7.222 632.75 632.75 0 0 1 2.778-1.83c3.85-2.523 5.775-3.784 6.899-4.444 3.627-2.126 6.644-3.298 8.682-4.079 2.941-1.127 4.671-1.775 7.182-2.022a20.51 20.51 0 0 1 5.5.208l.11-.882a51.076 51.076 0 0 0 1.931 1.84c12.334 11.115 25.864 14.31 31.925 15.356.101-.319.627-1.882 1.909-2.217a2.084 2.084 0 0 1 1.221.055c1.614.631 1.684 4.395 1.654 12.181-.007 1.843-.02 3.924-.042 6.208.932-12.023 2.283-18.097 4.056-18.222.706-.05 1.479.845 2.319 2.685a67.78 67.78 0 0 0 5.59-.443c2.838 2.447 4.348 5.11 5.091 6.48 6.062 11.18 7.778 16.111 7.778 16.111 3.888 11.176 6.956 21.346 9.208 29.306A291.462 291.462 0 0 1 196.494 319c-.996-5.882-1.739-10.268-2.111-15.389-.363-5-.456-11.888.686-20.269a65.086 65.086 0 0 0 1.587-.668 70.952 70.952 0 0 1 3.94 4.446c2.245 2.757 4.034 5.378 6.862 10.05a268.959 268.959 0 0 1 8.567 15.268 471.473 471.473 0 0 1-5.031-10.549c-3.674-7.954-4.48-10.279-4.833-11.333-1.771-5.284-2.405-9.167-2.667-11.056-.014-.098-.023-.186-.036-.283a59.49 59.49 0 0 0 10.303-7.736 30.659 30.659 0 0 1 2.898.018c8.189.452 14.301 4.095 17.056 5.778 2.521 1.541 5.509 3.756 7.111 4.944 1.008.747 1.9 1.43 2.68 2.038a69.385 69.385 0 0 1-2.958-2.538c-2.383-2.165-6.309-5.779-10-11.389-2.44-3.709-4.105-6.239-4.778-10.167a19.751 19.751 0 0 1-.277-3.656 64.367 64.367 0 0 0 1.903-3.646c3.398-1.027 5.675-1.617 8.041-1.92 4.216-.54 7.212-.089 12.611.722a90.12 90.12 0 0 1 16.623 4.165 353.02 353.02 0 0 1-4.79-1.942c-7.301-3.024-10.951-4.536-14.029-6.339-3.215-1.884-6.838-4.048-10.304-8.161a31.745 31.745 0 0 1-2.673-3.681c.966-5.659 1.177-11.44.562-17.152a60.475 60.475 0 0 0-2.783-12.683 9.965 9.965 0 0 1 .894-1.428c4.394-6.006 7.581-8.514 7.581-8.514a206.82 206.82 0 0 1 7.885-5.926c.678 2.035 1.436 4.395 2.423 7.467.79 2.46 1.425 4.493 1.847 5.861a412.732 412.732 0 0 1-2.841-14.336c2.176-1.513 3.35-2.237 3.35-2.237a278.091 278.091 0 0 1 11.006-6.44c.904 1.68 1.723 3.224 2.443 4.596a542.356 542.356 0 0 1-2.224-4.716 287.418 287.418 0 0 1 7.974-4.256c-.423.189-3.696 1.647-8.294 3.566a521.85 521.85 0 0 1-2.498-5.469c-3.507-7.799-4.421-10.346-5.125-13.292a46.833 46.833 0 0 1-.858-4.596 53.737 53.737 0 0 0 8.647-6.401c4.142-.222 7.38.775 9.349 1.414 3.331 1.08 5.5 2.42 8.778 4.444a72.181 72.181 0 0 1 6.788 4.751 63.433 63.433 0 0 1-3.899-3.529c-1.5-1.477-3.631-3.594-5.861-6.673-1.753-2.42-3.152-4.353-4.139-6.994-.419-1.123-.972-2.985-1.151-5.45a52.532 52.532 0 0 0 1.847-3.324c.194-.103.374-.21.582-.31 2.08-.993 4.003-1.344 5.819-1.518 3.83-.367 8.103-.038 14.204 1.31a98.627 98.627 0 0 1 11.393 3.25 118.242 118.242 0 0 1-12.042-5.042c-3.76-1.828-6.416-3.373-9.074-5.33m-114.708 7.188a56.763 56.763 0 0 1 10.076.267 52.758 52.758 0 0 0 1.496 2.847l-.475.282-.069 1.958a60.841 60.841 0 0 0 5.278-9.569c1.413-3.215 2.209-5.773 2.971-8.27a104.24 104.24 0 0 0 2.831-11.64 122.05 122.05 0 0 0-1.525 11.91c-.424 5.399-.694 8.844-.137 13.205.386 3.025 1.315 7.486 3.715 12.661-.311.557-.63 1.117-.967 1.689-2.331 3.963-5.798 9.184-10.796 14.867a61.899 61.899 0 0 0-5.024-.758c-4.623-4.035-6.88-8.057-7.999-10.539-1.386-3.074-2.048-6.021-2.833-9.577a72.366 72.366 0 0 1 2.903-.161c-.709-.008-1.73-.023-2.949-.049a84.223 84.223 0 0 1-1.43-8.594 56.437 56.437 0 0 1 4.934-.529m27.971-9.391 8.25-4.969a329.49 329.49 0 0 1-3.916 10.033l-.515 1.258a32.096 32.096 0 0 1-3.819-6.322m-59.242 41.807c.118-.294.416-.458.667-.552l2.748-.645c1.502-2.911 3.739-8.034 4.519-14.716 1.444-1.892 3.244-2.892 4.36-3.505 2.737-1.504 7.447-2.843 13.485-3.48-.095 1.4-.22 2.8-.425 4.127-.316 2.048-1.239 7.673-4.833 13.333a30.197 30.197 0 0 1-2.857 3.791 61.39 61.39 0 0 0-14.776 5.523 40.33 40.33 0 0 1-1.51-1.462c-.851-.869-1.642-1.759-1.378-2.414m-2.055 3.226s.437-.105.957.031c.349.092 1.41.522 2.928 1.193a58.302 58.302 0 0 0-3.141 1.862c-.268.172-.533.351-.798.527l-.452-3.402c.105-.065.278-.156.506-.211m-20.507-15.913 9.576 9.919c-2.093 2.533-4.007 4.11-4.578 4.567.488.58 3.049 3.654 4.501 6.555.689 1.376.958 2.374 1.083 3.25.106.739.104 1.362.083 1.792-3.08-.755-7.243-2.337-10.763-5.862a20.499 20.499 0 0 1-1.404-1.558 22.224 22.224 0 0 1-7.667 1.92c-4.636.3-8.111-.971-10.592-1.909-2.502-.946-7.64-2.953-12.044-7.863-3.531-3.936-5.285-8.282-6.165-11.857l.301-.122a338.885 338.885 0 0 1 12.694-4.778 148.1 148.1 0 0 1-13.868-1.267c-.005-.145-.011-.291-.014-.413.013-7.12 2.768-13.637 7.249-18.548.801.223 1.548.47 2.217.729a24.92 24.92 0 0 1-.703-2.256c4.828-4.541 11.259-7.373 18.289-7.508.173.411.354.824.511 1.229.141-.408.296-.821.446-1.232 2.577.041 5.032.446 7.34 1.152l-1.022 9.198 5.465-7.391c5.351 2.772 9.595 7.252 12.252 12.424l-1.897 2.036h2.85a27.18 27.18 0 0 1 2.052 8.363l-1.306.456 1.367.637c.007.204.02.408.022.613.048 4.817-1.332 8.989-3.149 12.381zm92.142 82.945-2.726-.07 2.165 1.811c-3.267 9.382-10.011 17.13-18.695 21.701l-1.831-2.164.824 2.68a38.703 38.703 0 0 1-3.521 1.514l-8.72-16.916.335 19.003c-1.71.229-3.451.358-5.224.358a39.43 39.43 0 0 1-2.315-.074l-.24-1.176-.545 1.116c-14.404-1.134-26.602-10.087-32.354-22.623a184.052 184.052 0 0 1 16.038-9.938l-18.765 1.666a39.13 39.13 0 0 1-.818-7.971c0-6.758 1.72-13.113 4.745-18.655l17.589 6.794-12.718-13.765c7.149-8.191 17.659-13.374 29.385-13.374 2.775 0 5.481.295 8.092.846l-1.592 18.515 9.707-15.832a39.152 39.152 0 0 1 17.045 15.089l-8.78 8.021 11.68-2.268a38.88 38.88 0 0 1 2.847 14.629c0 3.851-.568 7.568-1.608 11.083m49.524-63.987c1.417 2.53 2.7 4.871 3.849 6.999-4.192 1.746-9.434 3.854-14.63 5.741-.38-2.212-.747-4.441-1.098-6.698 0 0-1.453-9.34.463-17.667a14.95 14.95 0 0 1 .43-1.493c.289-.122.579-.244.865-.371.347.295.598.569.746.739 6.278 7.221 9.375 12.75 9.375 12.75m-.114-51.986-1.636.069 1.292.979a32.086 32.086 0 0 1-15.607 18.065l-.893-1.002.289 1.312c-.974.477-1.975.909-3.002 1.287l-7.023-13.432.385 15.085c-1.445.2-2.919.311-4.419.311a32.06 32.06 0 0 1-7.147-.811l-.003.009c-3.134 9.033-3.788 14.323-3.788 14.323a47.455 47.455 0 0 0-.363 3.895 26.636 26.636 0 0 0 5.849-.374c7.861-1.398 13.45-6.12 18.264-10.188a69.528 69.528 0 0 0 3.472-3.139 54.763 54.763 0 0 0-11.851 16.398c.459-.047.912-.114 1.368-.172a59.823 59.823 0 0 1 4.9 6.885c2.771 4.543 4.188 8.238 6.194 13.472.326.849.631 1.674.933 2.511-3.102 1.091-6.132 2.074-8.847 2.818-3.292.902-7.329 1.786-12.336 1.282a28.965 28.965 0 0 1-1.703-.227 67.375 67.375 0 0 0-3.714-4.968c-.186.044-3.917.892-5.139-.833-1.147-1.619.572-4.574 1.611-6.361.66-1.135 1.138-1.644 2.472-3.333a120.37 120.37 0 0 0 4.016-5.388c-6.129 6.666-11.639 10.847-13.544 9.861-1.317-.682-1.778-1.667-1.778-1.667-.092-.197-.206-.5-.5-2.611a95.938 95.938 0 0 1-.163-1.225 62.074 62.074 0 0 0-6.896-3.952c-.415-3.083-1.018-10.007 1.225-22.962 1.022-5.899 2.131-10.146 3.5-15.333a286.608 286.608 0 0 1 3.395-11.832l4.383-2.64-3.662.348c.639-2.002 1.24-3.813 1.774-5.375a327.048 327.048 0 0 1-1.901 5.388l-11.279 1.071a32.04 32.04 0 0 1-.743-6.868A31.849 31.849 0 0 1 199.752 96l14.123 5.669-10.321-11.163c5.869-6.847 14.575-11.192 24.3-11.192 2.326 0 4.592.254 6.777.726l-1.492 15.142 8.062-12.95a32.13 32.13 0 0 1 14.094 12.617l-6.962 6.278 9.162-1.872a31.901 31.901 0 0 1 2.359 12.06c0 3.242-.487 6.373-1.385 9.324" style="fill:#fff"/></g></switch></svg>