<svg xmlns="http://www.w3.org/2000/svg" xml:space="preserve" style="enable-background:new 0 0 350 350" viewBox="0 0 350 350"><switch><g><path d="M45 45h260v260H45z" style="opacity:.4"/><path d="M267.085 277H85.167L73 265.667V73h204v195.896L267.085 277z" style="fill:#6ca542"/><path d="M73 73v39.417L153.265 73zm204 46.444L73 219.556v15.111l204-99.944v-15.279zm-204 34.25L240.458 73h28.5L73 169.056zM112.917 277l32.966-17.647 18.089-2.249 113.029-44.048L235.668 277H112.917z"/><circle cx="111.628" cy="222.833" r="61.5"/><circle cx="111.071" cy="223.453" r="55.25" style="fill:#fff"/><path d="m216.444 279.139-59.531-42.856a47.093 47.093 0 0 0 1.975-13.515c0-25.855-20.813-46.815-46.486-46.815-15.592 0-29.381 7.739-37.814 19.602L2.18 174.25l63.788 46.466a48.156 48.156 0 0 0-.052 2.052c0 25.855 20.813 46.815 46.486 46.815 11.516 0 22.046-4.226 30.166-11.211l73.876 20.767z"/><path d="m204.833 273.417-57.951-36.035a39.99 39.99 0 0 0 2.846-14.84c0-22.16-17.965-40.125-40.125-40.125-14.326 0-26.891 7.514-33.99 18.81l-67.67-24.171L69.882 216.9a40.373 40.373 0 0 0-.403 5.642c0 22.16 17.965 40.125 40.125 40.125 11.545 0 21.944-4.883 29.265-12.688a4234.36 4234.36 0 0 0 65.964 23.438z" style="fill:#6ca542"/><ellipse cx="240.611" cy="224.042" rx="61.444" ry="61.819"/><ellipse cx="241.833" cy="223.514" rx="55.5" ry="55.681" style="fill:#fff"/><path d="m332.75 274.167-49.349-37.069a46.966 46.966 0 0 0 2.224-14.306c0-25.957-21.043-47-47-47-16.703 0-31.36 8.721-39.696 21.85l-45.99-9.088 38.838 30.622a47.539 47.539 0 0 0-.152 3.617c0 25.957 21.043 47 47 47 12.051 0 23.038-4.54 31.356-11.997l62.769 16.371z"/><path d="m325.896 271.042-52.316-34.444a40.095 40.095 0 0 0 2.587-14.195c0-22.199-17.996-40.194-40.194-40.194-15.51 0-28.959 8.791-35.661 21.657l-31.769-7.865 27.858 19.391a40.403 40.403 0 0 0-.622 7.012c0 22.199 17.996 40.194 40.194 40.194 11.333 0 21.563-4.697 28.87-12.243l61.053 20.687z" style="fill:#6ca542"/><circle cx="176.597" cy="109.042" r="61.5"/><ellipse cx="176.597" cy="109.542" rx="56" ry="55.875" style="fill:#fff"/><path d="M218.953 126.583c4.937-17.329-2.644-32.165-4.12-34.917-5.636-10.512-13.818-15.908-16.25-17.417-3.949-2.45-12.371-6.833-23.764-6.833-14.409 0-24.268 7.046-27.111 9.141-5.846 4.307-9.527 9.132-11.683 12.484C117.609 83.695 99.193 78.347 80.778 73L78 75.278l50.5 38.734c.05 3.195.637 19.651 14.083 32.738 2.175 2.116 14.115 13.321 32.236 13.167 8.652-.074 17.101-2.73 24.343-7.314l35.504 11.786 6.157 2.615a254.068 254.068 0 0 0 31.12 9.608l47.833 15.944-100.823-65.973z"/><path d="m312.806 189.278-102.654-60.654a39.946 39.946 0 0 0 2.543-14.054c0-22.114-17.927-40.042-40.042-40.042-14.876 0-27.847 8.118-34.751 20.159L80.194 75.25l52.827 33.62a40.274 40.274 0 0 0-.411 5.7c0 22.114 17.927 40.042 40.042 40.042 10.34 0 19.764-3.921 26.869-10.355 37.762 15.006 75.523 30.014 113.285 45.021z" style="fill:#6ca542"/></g></switch></svg>