<svg xmlns="http://www.w3.org/2000/svg" viewBox="0 0 350 350" style="enable-background:new 0 0 350 350" xml:space="preserve"><switch><g><path style="fill:#fff" d="M60 60h230v230H60z"/><path d="M69.492 69.5h211v211h-211z"/><path style="fill:#72ad48" d="M78.992 79h192v192h-192z"/><path d="M75.923 153.637a31.842 31.842 0 0 0 3.165-.989c3.391-1.255 5.703-2.765 6.33-3.165 1.296-.826.567-.2 28.154-14.176a6239.29 6239.29 0 0 0 24.593-12.527l93.89-45.099H75.923v75.956zM76.319 156.209c5.975-2.836 14.656-6.953 20.44-9.692 0 0 85.4-40.456 115.709-55.426 9.51-4.697 18.75-9.475 18.75-9.475 3.036-1.57 5.5-2.862 7.036-3.67l10.253-.231a1801.098 1801.098 0 0 0-19.582 8.703c-42.718 19.297-67.744 32.637-103.286 49.813-3.101 1.498-7.053 3.399-12.527 6.198-9.25 4.729-12.854 6.915-21.89 11.604a565.41 565.41 0 0 1-15.033 7.516c.042-1.78.086-3.56.13-5.34zM243.486 87.085c.126-.277.352-.698.742-1.113.685-.728 1.383-.912 2.349-1.409.767-.395.775-.51 2.126-1.409 2.671-1.778 3.209-1.707 4.599-2.769.753-.575 1.797-1.515 2.819-3.016l10.187-.099c-1.985 1.63-3.734 2.536-4.995 3.066-1.293.544-1.907.623-3.288 1.385-1.103.609-1.619 1.059-2.833 1.482-.849.296-1.08.244-2.112.496-1.994.486-1.963.881-3.923 1.472-1.944.586-2.532.364-4.212 1.125-.646.29-1.146.589-1.459.789zM241.038 87.58c-.134-.172-.696.063-1.137.247-.463.193-.628.352-.725.47-.068.082-.348.422-.247.593.141.24 1.021.137 1.591-.346.356-.302.647-.8.518-.964zM272.44 97.593c-3.8 1.886-9.352 4.629-16.071 7.905-29.679 14.471-44.754 21.111-44.555 21.567.173.4 12.024-3.995 24.026-9.465 7.882-3.592 10.811-5.362 19.688-9.326a334.082 334.082 0 0 1 17.209-7.121c-.1-1.186-.199-2.373-.297-3.56zM238.319 119.648c3.708-1.839 6.891-3.478 14.736-7.615a3521.542 3521.542 0 0 0 18.989-10.088l1.978 4.549c-.835.037-2.127.144-3.659.495-2.955.677-5.004 1.848-5.623 2.194-6.012 3.355-41.198 20.34-41.948 19.07-.095-.161.307-.706 2.67-2.473a461.72 461.72 0 0 0 12.857-6.132zM256.022 115.94c-.066-.271 1.581-.664 4.104-1.929 2.783-1.395 3.04-2.05 5.291-2.918 1.947-.75 3.913-1.09 4.006-.841.066.177-.841.566-2.497 1.689-1.592 1.08-1.485 1.217-2.498 1.871-2.126 1.375-4.16 1.782-5.192 1.978-1.294.247-3.145.432-3.214.15zM149.852 160.049c.153.337-3.207 1.947-8.895 5.225-9.847 5.675-11.832 7.8-16.374 7.88-3.58.063-7.224-1.172-7.253-2.242-.029-1.065 3.54-1.437 12.593-4.335 1.858-.595 5.277-1.765 12.115-4.104 5.851-2.002 7.702-2.668 7.814-2.424zM149.209 162.571a61.201 61.201 0 0 1-14.588 7.516 22.81 22.81 0 0 0 5.044-.494c6.468-1.377 10.742-5.268 12.758-7.418-1.071.133-2.143.265-3.214.396zM272.538 121.066a41.12 41.12 0 0 1-2.703 1.912c-3.286 2.132-5.417 2.849-10.113 4.889-4.424 1.922-6.636 2.883-9.2 4.279-2.774 1.511-3.769 2.276-6.563 3.486-2.601 1.126-3.163 1.08-4.914 2.049-3.317 1.835-5.757 4.465-5.473 4.879.149.216.989-.251 3.956-1.385 2.641-1.009 2.867-.98 4.418-1.582 5.244-2.038 5.089-3.319 9.165-4.615 2.116-.673 3.585-.782 4.724-1.706.136-.111.837-.694 1.869-.866.34-.056.929-.154 1.055.066.28.49-1.8 2.446-4.088 3.824-2.507 1.511-4.552 1.899-4.484 2.176.056.227 1.483.159 2.835-.198 1.659-.437 2.782-1.196 2.967-1.319 1.429-.95 5.573-2.985 16.286-7.451l.263-8.438zM271.978 135.044a69.973 69.973 0 0 1-3.264 2.44c-6.969 4.897-13.093 7.266-14.825 7.956-2.632 1.049 1.754-.535-33.769 17.165-25.178 12.545-37.767 18.818-38.119 18.967-4.771 2.018-9.216 4.735-13.837 7.077-.734.372-2.723 1.378-4.945 3.231a25.235 25.235 0 0 0-2.176 2.044 713.37 713.37 0 0 1 7.582-3.956c6.15-3.161 9.454-4.745 15.099-7.582 5.371-2.7 8.139-4.161 12.725-6.527 18.011-9.292 34.51-17.287 53.736-26.604 3.172-1.537 4.758-2.306 5.571-2.67 5.093-2.283 8.744-3.494 11.369-5.251.264-.177 1.12-.762 2.359-1.434a28.133 28.133 0 0 1 2.644-1.26c-.048-1.2-.099-2.398-.15-3.596zM168.94 192.588c.78-.454 2.06-1.193 3.648-2.083 8.841-4.957 15.739-8.161 18.259-9.34 22.023-10.307 52.284-26.316 65.769-31.648.911-.36 3.792-1.481 7.516-3.363a86.927 86.927 0 0 0 9.297-5.44l1.483 1.681a142.373 142.373 0 0 1-8.262 5.033c-3.215 1.81-6.028 3.381-9.936 4.92-2.362.93-4.157 1.468-4.648 1.619-15.879 4.883-71.604 35.209-71.604 35.209a3888.99 3888.99 0 0 0-7.615 4.154l-3.907-.742zM193.22 244.462c.142.28-2.162 1.777-6.725 4.451-11.56 6.774-20.994 11.363-23.044 12.363a753.406 753.406 0 0 0-23.835 12.165l-8.703 1.286c12.399-6.482 22.656-11.845 32.044-16.813 0 0 8.674-4.59 22.086-10.4 5.937-2.573 8.049-3.305 8.177-3.052zM143.176 274.626l131.736.099v-60.824c-45.243 20.347-78.113 35.148-90.687 40.591-6.35 2.749-18.155 7.713-25.225 12.222-.897.572-3.939 2.553-8.328 4.701a80.71 80.71 0 0 1-7.496 3.211z"/><path d="M172.692 221.154c0 32.213-27.583 57.852-56.533 58.022-27.349.16-44.61-22.475-46.67-25.268l.001-65.509c2.061-2.793 19.321-25.427 46.669-25.267 28.95.171 56.533 25.809 56.533 58.022z"/><g><circle style="fill:#fff" cx="114.396" cy="220.527" r="51.725"/><path d="m19.747 178.099 51.824 39.56c-.249 3.365-.259 8.659 1.451 14.769 4.456 15.932 16.807 23.872 18.923 25.187 9.576 5.949 18.854 6.486 22.352 6.527 15.814.188 26.584-8.411 29.473-10.879a1499.831 1499.831 0 0 1 62.901 16.615l-49.648-36.791c4.998-19.029-1.787-38.707-16.615-49.055-17.801-12.423-38.42-5.278-39.692-4.813-11.443 4.179-18.022 12.122-20.637 15.692l-29.209-8.637a107.38 107.38 0 0 0-23.67-7.121 107.165 107.165 0 0 0-7.453-1.054z"/><radialGradient id="zero-a" cx="112.945" cy="223.56" r="70.235" fx="112.835" fy="219.537" gradientUnits="userSpaceOnUse"><stop offset=".069" style="stop-color:#cce4a0"/><stop offset=".135" style="stop-color:#b9d98e"/><stop offset=".333" style="stop-color:#86b95c"/><stop offset=".43" style="stop-color:#72ad48"/></radialGradient><path style="fill:url(#zero-a)" d="M23.901 179.549 75.231 214c-.383 2.868-1.899 16.526 7.418 28.78.92 1.211 12.707 16.168 32.176 15.033 14.614-.852 23.681-10.196 25.681-12.363l61.484 22.121-54.725-33.758c1.531-3.631 5.257-13.846 1.714-25.451-4.729-15.489-20.301-26.546-36.791-26.378-19.251.197-30.467 15.598-31.649 17.279l-56.638-19.714z"/></g><g><path d="M280.67 249.592c-1.45 2.226-18.378 27.329-46.654 27.474-29.386.151-55.284-26.734-55.533-56.538-.213-25.555 18.432-45.984 37.253-53.345 2.264-.886 11.483-4.301 23.703-3.523 4.43.282 21.222 1.877 34.813 14.769a51.208 51.208 0 0 1 6.143 6.995l.275 64.168z"/><path style="fill:#fff" d="M288.495 221.681c-.468 21.579-14.438 39.245-29.879 46.197-9.468 4.264-19.212 4.374-21.193 4.374-29.037 0-52.577-23.158-52.577-51.725s23.539-51.725 52.577-51.725c1.736 0 11.677.087 21.193 4.374 15.887 7.157 30.368 25.918 29.879 48.505z"/></g><g><path d="m275.835 233.418 51.824 36.527-63.824-16.879c-2.799 2.71-11.964 10.896-26.11 12.132-18.761 1.638-31.539-10.237-34.523-13.205-14.174-14.093-13.617-32.234-13.477-35.191l-35.736-28.879 42.725 8.967c1.584-2.506 11.053-16.953 29.538-20.308 16.306-2.959 33.17 3.886 42.989 17.143 12.939 17.468 7.27 37.457 6.594 39.693z"/><radialGradient id="zero-b" cx="239.736" cy="223.273" r="69.684" fx="229.643" fy="215.57" gradientTransform="matrix(1 0 0 .8101 0 42.407)" gradientUnits="userSpaceOnUse"><stop offset="0" style="stop-color:#cce4a0"/><stop offset=".177" style="stop-color:#b2d487"/><stop offset=".549" style="stop-color:#72ad48"/></radialGradient><path style="fill:url(#zero-b)" d="m167.637 194.78 26.44 18.198c-.357 2.363-2.469 18.161 8.835 31.253.704.815 14.081 15.78 33.89 12.923 11.773-1.698 19.247-8.743 21.758-11.341l60.659 20.505-52.615-33.527c1.561-4.162 3.949-12.461 1.518-21.914-4.28-16.645-21.726-29.969-40.284-28.417-19.128 1.6-29.293 18.156-30.366 19.969l-29.835-7.649z"/></g><g><path d="M233.044 113.418c0 31.899-25.653 57.758-57.297 57.758s-57.297-25.859-57.297-57.758c0-9.584 3.255-19.239 3.255-19.239 4.548-12.936 12.606-20.994 16.827-24.68l74.427-.001c4.221 3.686 12.28 11.744 16.829 24.682.001-.001 3.256 9.654 3.256 19.238z"/><circle style="fill:#fff" cx="175.615" cy="114.407" r="52.418"/></g><path d="M312.297 193.396a39.542 39.542 0 0 0-6.791-5.439c-20.898-13.299-25.286-15.692-25.286-15.692-6.558-3.578-4.794-3.078-32.209-21.066a3010.948 3010.948 0 0 0-33.033-21.363c1.301-4.365 4.153-16.113-.989-28.681-7.143-17.458-26.689-29.117-46.043-26.406-18.377 2.574-28.48 16.972-30.309 19.681L78.991 77.271a532.231 532.231 0 0 0 51.525 40.698c.151 4.107 1.176 17.827 11.868 29.275 9.441 10.108 24.309 16.185 38.967 13.451 7.472-1.394 12.994-4.723 16.22-7.055a822.525 822.525 0 0 0 20.868 7.747c20.774 7.397 32.821 10.75 48.956 15.989 10.519 3.413 25.99 8.675 44.902 16.02z"/><radialGradient id="zero-c" cx="188.918" cy="131.086" r="85.914" fx="165.005" fy="110.859" gradientUnits="userSpaceOnUse"><stop offset=".081" style="stop-color:#cce4a0"/><stop offset=".208" style="stop-color:#abd07f"/><stop offset=".435" style="stop-color:#72ad48"/></radialGradient><path style="fill:url(#zero-c)" d="m89.473 83.187 44.868 29.703c-.407 4.097-.879 14.732 5.657 25.063 7.467 11.804 21.657 19.381 36.145 17.86 10.712-1.125 18.038-6.851 20.967-9.429l109.451 43.648-99.231-58.022c5.31-13.9 2.025-29.655-8.374-40.154-11.231-11.338-27.634-13.39-40.439-8.583-11.764 4.417-17.783 13.606-19.693 16.825L89.473 83.187z"/></g></switch></svg>