<svg xmlns="http://www.w3.org/2000/svg" xml:space="preserve" style="enable-background:new 0 0 350 350" viewBox="0 0 350 350"><switch><g><path d="M45 45h260v260H45z" style="opacity:.4"/><path d="M73 73h204v204H73z" style="fill:#419291"/><path d="m161.111 277-2.667-21.333-5.833 17.111c-.635-2.455-1.562-6.015-2.708-10.314-2.754-10.33-3.33-12.02-3.792-13.297-1.257-3.474-2.881-7.886-6.155-13.007-2.413-3.775-4.739-6.399-6.512-8.381-3.945-4.412-7.386-7.242-8.111-7.833-1.307-1.065-2.595-2.03-9.64-6.654-5.492-3.605-7.071-4.568-9.388-6.096-5.978-3.941-10.221-7.253-13.917-10.139-9.747-7.61-17.92-15.246-23.764-21.056l1.094.01a94.694 94.694 0 0 1-5.406-6.24c-2.985-3.763-8.036-10.719-12.438-20.521-1.209-2.692-2.59-5.767-3.896-10.146-2.712-9.096-3.031-16.876-3.16-20.604-.079-2.27-.066-4.493-.049-7.625.024-4.335.132-7.934.229-10.458a35.763 35.763 0 0 0 5.472 4.028 86.906 86.906 0 0 1-11.486-16.819l1.576-3.75 3.993-4.375 22.361-23.889 11.75-13.222L95.889 20l-4.056 32.306a41.101 41.101 0 0 0-.667 6.556c-.008.409-.017.877 0 1.472.078 2.647.592 4.822 1.089 6.537 2.05 7.068 4.439 11.866 4.439 11.866C103.445 92.289 111.875 103 111.875 103c6.382 8.109 11.884 13.24 13.097 14.361 2.36 2.18 6.153 5.656 11.694 9.417a91.092 91.092 0 0 0 17.5 9.264 22.975 22.975 0 0 0 7.042-5.167c.556-.601 2.847-3.144 4.5-7.167 1.693-4.12 1.615-7.11 1.583-7.833-.045-1.048-.068-1.571-.331-2.085-1.314-2.569-6.053-2.516-10.502-2.415-1.545.035-5.954.206-12.731 1.835a84.394 84.394 0 0 0-7.103 2.04l79.708-76.125c-8.677 22.342-14.97 39.157-17.234 45.577a137.481 137.481 0 0 0-3.182 10.215c-.554 2.061-1.24 4.633-1.875 8.042-.927 4.977-1.479 7.938-1.247 11.937.16 2.764.391 6.141 2.33 9.875 1.638 3.154 3.681 4.997 4.208 5.458a17.731 17.731 0 0 0 4.375 2.812 128.786 128.786 0 0 0 8.236-4.486c9.553-5.663 15.886-11.085 17.389-12.389 1.748-1.516 5.85-5.171 10.542-10.458a115.303 115.303 0 0 0 8.625-10.979c1.822-2.64 4.417-6.43 7.111-11.826 1.222-2.448 2.72-5.476 4.097-9.674a61.096 61.096 0 0 0 2.708-12.618 610049.36 610049.36 0 0 0-5.542-42.236 2457.427 2457.427 0 0 1 53.875 69.188 21.597 21.597 0 0 1-1.188 4.125c-.696 1.742-1.521 3.137-3.258 5.599a107.509 107.509 0 0 1-5.419 7.037l4.503-3.101c.049 2.497.105 6.172.111 10.639.007 5.299.01 7.948-.139 10.194-.484 7.273-1.866 12.715-2.278 14.27-1.366 5.167-2.978 8.892-4.195 11.674-.741 1.694-2.892 6.474-6.478 12.25-3.346 5.39-6.419 9.193-8.161 11.333a119.211 119.211 0 0 1-3.812 4.458l.751-.053c-.956.918-2.294 2.197-3.902 3.714-2.025 1.911-5.215 4.92-8.3 7.686a242.98 242.98 0 0 1-11.875 9.972c-2.546 2.004-6.406 5.03-11.681 8.639-4.488 3.071-5.37 3.396-12.117 7.965-6.051 4.099-7.498 5.298-8.822 6.519-3.229 2.978-5.866 6.214-6.93 7.527a90.492 90.492 0 0 0-3.039 3.988s-2.575 3.552-4.711 7.074c-2.495 4.115-7.551 15.885-11.868 32.372l-5.833-17.778-4.44 23.334z"/><path d="M165.167 277c-1.286-16.144-2.859-28.512-4.035-36.641-.73-5.048-1.669-9.763-3.549-19.193-.854-4.287-1.718-8.407-3.745-13.567a65.792 65.792 0 0 0-3.422-7.349 504.037 504.037 0 0 1 2.583 21.083c.815 8.06 1.321 13.198 1.42 20.333a166.043 166.043 0 0 1-.378 13.958 162.127 162.127 0 0 1-.833 8.583 86.566 86.566 0 0 0-3.141-15.101c-.583-1.924-2.41-7.71-6.011-14.774-2.262-4.437-4.956-9.637-9.944-15.333a61.721 61.721 0 0 0-6.569-6.458 121.189 121.189 0 0 0 22.208-31.334 109.817 109.817 0 0 1-12.583 10.75 109.925 109.925 0 0 1-18.75 11.042 211.416 211.416 0 0 1-31.028-19.5 213.01 213.01 0 0 0 16.778-2.542 214.824 214.824 0 0 0 43.222-13.181 174.041 174.041 0 0 1-16.556 2.056c-21.437 1.622-40.195-.965-55.028-4.528a73.233 73.233 0 0 1-10.264-11.806c-9.515-13.667-12.219-27.588-13.083-35.917a244.622 244.622 0 0 0 25.708 16.167c7.147 3.899 15.855 8.602 28.167 13 17.009 6.077 28.631 7.19 31.222 7.417 4.451.39 8.177.436 10.781.402a171.619 171.619 0 0 1-11.232-3.273c-4.751-1.562-20.813-7.072-40.224-19.202-5.55-3.468-14.904-9.373-25.219-18.749-8.994-8.174-13.941-14.644-16.373-18.035a105.818 105.818 0 0 1-4.428-6.698 270.198 270.198 0 0 1 27.473-33.944 79.816 79.816 0 0 0 2.417 12.5c2.347 8.452 5.492 14.358 8 19 5.428 10.046 10.999 16.833 14.25 20.75a141.85 141.85 0 0 0 14.542 15.096c5.921 5.301 14.28 12.675 26.985 18.654a95.401 95.401 0 0 0 8.861 3.639l-.944-.75c2.904-1.5 11.904-6.554 16.167-16.056 2.102-4.687 2.314-8.809 2.389-10.611.211-5.043-1.013-7.021-1.611-7.833a8.438 8.438 0 0 0-3.137-2.598c-1.674-.792-3.26-.823-5.247-.672-2.336.178-5.799.651-10.046 2.007L191 76.278c-4.223 10.887-6.016 20.112-6.854 26.503-1.103 8.413-.672 12.833.354 16.72 1.75 6.623 5.012 10.88 5.833 11.917 4.659 5.883 10.294 8.577 13.146 9.708a148.31 148.31 0 0 0 22.771-13.896c11.729-8.706 19.468-17.172 25.25-23.563 3.394-3.751 6.56-7.272 10.333-12.5 3.466-4.803 8.531-11.921 12.458-22.25a83.416 83.416 0 0 0 3.521-11.833 213.887 213.887 0 0 1 20.646 31.958 105.113 105.113 0 0 1-5.292 8.042c-4.003 5.516-10.065 12.739-22.125 22.542-19.832 16.121-38.283 24.914-45.625 28.208a207.326 207.326 0 0 1-22.639 8.611 150.099 150.099 0 0 0 22.75-3.778c3.202-.788 14.035-3.568 30.306-11 10.713-4.893 24.977-12.348 40.833-23.556a73.246 73.246 0 0 1-4.5 20.722c-5.166 13.735-13.345 22.828-18.5 27.708a166.962 166.962 0 0 1-70.945 1.347 213.378 213.378 0 0 0 59.333 15.612 277.888 277.888 0 0 1-30.722 20.222 105.218 105.218 0 0 1-21.664-13.848 104.622 104.622 0 0 1-9.503-8.93 124.85 124.85 0 0 0 22.389 31.333 62.045 62.045 0 0 0-6.333 6.667c-3.245 3.966-5.211 7.371-6.556 9.722-2.273 3.976-3.644 7.139-4.611 9.389-1.494 3.476-3.977 9.332-5.722 17.333a85.12 85.12 0 0 0-1.472 9.056 129.557 129.557 0 0 1-1.75-12.611c-.215-2.418-.764-9.348-.111-22.167a280.217 280.217 0 0 1 2.625-26.486c-.75 1.821-1.84 4.595-2.98 8.033-2.799 8.442-3.994 15.153-4.788 19.845-3.282 19.391-6.307 43.235-6.648 45.941z" style="fill:#fff"/></g></switch></svg>