<svg xmlns="http://www.w3.org/2000/svg" viewBox="0 0 350 350"><defs><radialGradient id="a" cx="171.71" cy="281.7" r=".68" gradientTransform="matrix(197.75 0 0 -197.68 -33780.96 55861.8)" gradientUnits="userSpaceOnUse"><stop offset="0" stop-color="#fd5"/><stop offset=".53" stop-color="#fd5"/><stop offset="1" stop-color="#fd5" stop-opacity="0"/></radialGradient><radialGradient id="b" cx="171.17" cy="281.17" r=".68" gradientTransform="matrix(139.84 0 0 -139.78 -23761.45 39477.8)" gradientUnits="userSpaceOnUse"><stop offset="0" stop-color="#fff"/><stop offset="1" stop-color="#fff" stop-opacity="0"/></radialGradient></defs><path fill="#fff" d="M60.03 60.04h230.01v229.92H60.03z"/><path d="M69.03 70.04h211.01v209.93H69.03z"/><path fill="#da7a08" d="M80.03 80.04h190.01v189.94H80.03z"/><path fill="url(#a)" d="M80.03 80.04h190.01v189.94H80.03z"/><path d="M235 191l21 13-5 2-17-9zm20 19l10 4 7 5-8-3zm-22-6l10.11 7-7.11 3.5zm3 29l7.11 9-6.11-1zm19 28l-4-5-7-7 6 8zm-20-8l4 3 2 5-4-4zm-91 1l-6 11-4-3 6-8zm-20-8l7 12 2-8zm-3 19l1-4 3-2-1 3zm-19-57l11-8 1 5zm-27 6l5-4 13-3-11 6zm23-8l9-6 5-1zm9-11l2-7 6-3zm-23 6l5-3 5-1-5 3zm3-106l11 11-5-9zm16 23h8l2 10zm129-15l9-10 9-3zm0 13l20 3-16 17z" opacity=".75" fill="#fff"/><path d="M111.58 241.33l.79-138.9L174 92l64.83 9.17L237 244.83 175.33 269z"/><path d="M119 108.5v129.33l55.47 23.54L231 238.93V108.2l-56.57-9z" fill="#fff"/><path d="M125.64 114.42l-.22 119.33 49.08 19.75 49.42-19.58L225 114.38l-49.39-7.88z"/><path d="M148 106l7 44-45-6 36 27-56 33 63-12-30 88 50-77 26 29-7-41 70 20-61-39 40-26-46 5 29-97-50 88z"/><path d="M174.36 147.52l-20.67-28.09 4.87 34.1-36.8-5 29.61 22.83-45 26.49 51.16-9.74-25.39 73 40.46-63 21.69 24.18-6.05-35.44 54.87 15.67L195.52 172l31.87-21-36.5 3.32 22.71-75.83z" fill="#fff"/><path d="M174 74c1.14 0 13.73 59.83 16 61s111.5-86.48 113-85-92.09 101-91 106 94 14.11 94 16-92 12.35-94 16 35.22 54.76 34 56-52.74-36-56-35-14.52 66-16 66-11.54-64-14-65c-4.83-1.92-112.77 97.21-115 95s92.86-111.23 92-117c-.6-4-64-15.14-64-16s62.95-12.59 63-17-64.44-83.49-63-85 80.45 65.53 84 65 15.89-61 17-61z"/><path d="M195.27 205.75a164.9 164.9 0 0 1 42.55 30.14l.3.19c-9.19-14-19.45-27.14-27.17-42.35-.22-.43-.43-.86-.63-1.3q-.2-.42-.38-.86c-.09-.22-.18-.43-.26-.65-.6-1.6-.95-3.64.44-5 2.31-2.32 6.32-2.46 10.13-3.21 22.87-4.5 46-7 69.33-10.45l.82-.12-73.72-10.65c-.49-.11-1.2-.27-2-.5-2.49-.68-3.75-1-4.54-1.71a5.44 5.44 0 0 1-1.67-3.17c-.2-1.42.27-2.48 1.08-4.33a19.62 19.62 0 0 1 2-3.5l4.42-4.83q34.1-37.37 66.9-75c-44.6 35.7-77.6 61.58-85 66.68-2.67 1.85-7 4.4-9.78 2.85a5.08 5.08 0 0 1-2.49-3.62l-2.81-10.94-8.54-38.22c-.86 4.25-5.79 28.63-10.33 45.35-.57 2.1-1.66 5.91-4.75 7.25-5.37 2.33-12.84-4.49-14.37-5.94L90.13 86.63c2.74 3.37 42.78 52.5 47.87 62.62 1.72 3.42 1.15 5.77 1 6.23-1.1 4.12-6 6.16-8.5 7l-44.75 9.4-.25.05c16.32 3.34 33.2 5.77 48.65 11.26l1.15.43.86.36c1.3.57 2.67 1.25 3.25 2.54 1 2.17-1.23 5.81-1.8 6.66-3.39 5.05-12.79 17.23-25.69 33.06l-49.29 60.93 82.63-71.67a62.09 62.09 0 0 1 11.13-8.5c1.68-1 3-1.76 4.5-1.5 4.42.76 6 9.24 6.13 10.13l7.25 42.5 10.13-46.62c.22-1 1.16-4.61 4.21-6a7.72 7.72 0 0 1 6.66.24z" fill="#fff"/><ellipse cx="175.04" cy="175.01" rx="95" ry="94.97" fill="url(#b)" opacity=".75"/></svg>