<svg xmlns="http://www.w3.org/2000/svg" viewBox="0 0 350 350"><path fill="#fcae1d" d="M79.68 270.03h190.91V111.9l-46.82-32.78H79.68v190.91z"/><path fill="#c98e2b" d="M60.09 128.9l28.63-10.6-18.84 56.28 70.09-46.27-50.52 91.4 41.64-34.5-42.12 81.49 40.14-45.28 66.82 48.61 74.66-80.95-42.36 84.72h8.33l28.63-20.07-11.26 35.88H60.09V128.9z"/><path fill="#231f20" d="M270.59 270.03H79.68V79.12h144.09l-11.88-8.32H72.31v207.56h207.56V118.4l-9.28-6.5v158.13z"/><path fill="#fff" d="M279.87 118.4v159.96H72.31V70.8h139.58l-16.08-11.26H60.09v230.07h230.08v-164l-10.3-7.21z"/><path d="M116.46 235l-24.39 36.52h101.1l8.8-12.24 61.43-91v-32.69l8-10.67-7.74-16.55-14.1-1.84 5.49-7.1v-3.65l-15.47-13.25-9.64-2.09L224 64.29l-20.38-2.91-8.12-11.78-14 .06-3-5.87-21.46-8.87-8.16 22.93L115.48 94l6 55.72 19.34 41.45z" fill="#231f20"/><path fill="#fff" d="M250.95 152.12l8.2-10.89-8.2 10.89zm8.2-10.89v24.31l-57.19 93.74 61.44-90.97v-32.72l-4.25 5.64zm4.25-5.64l8.03-10.66-8.03 10.66zm-4.25 5.64l12.28-16.3-7.74-16.55-14.1-1.84 5.49-7.1v-3.66l-15.5-13.25-9.64-2.09L224 64.29l-20.38-2.91-8.12-11.78-14 .06-3-5.87-20-8.29-1.47-.58-8.16 22.93L115.48 94l6 55.72 19.34 41.45L116.46 235l28.72-40.14 13.62 6.53-15.23-9.7-17.52-41-6.12-55.32 32.28-35.74 6.84-19.33 9.83 3.38 6.48 3.23 1.84 3.79-2.65.61L150.64 91l8.24 14.77 11.26 1.63a66.3 66.3 0 0 1 9.22 18.11c4.74 14.62 3.89 30.1 3.43 38.51-.24 4.35-.62 7.61-.24 7.67.7.12 3.8-11.24 4.79-22.93a97.86 97.86 0 0 0-1-24.15l10.77 3.75 7.42 15.34 18.48 1.92 5.1 10.4 4.53-3.05-4.64-9.75 22-33.41 10.69 2.77 4.49 12.34-14.24 27.19 8.21-10.89zm-96.27-38.43l-6.69-12.24 21-35 15.5-1.63 8 10.36-26.55 38.51zm23 16.32L177 106.47l28.56-39.16 15.09.45 5.22 14-28.27 40.39zm38.55 20.07h-16.27l-7.06-12.89 28.27-41.36 12 2.28 9.06 10.2z"/><path fill="#fff" d="M269.6 92.89L259.26 50.3l-23.44 11.88 5.94 32.12 27.84-1.41z"/><path d="M261.2 58.32l-24 11.17 1.43 7.76 24.85-9.66z" fill="#231f20"/><path fill="#fcae1d" d="M238.61 77.25l24.84-9.66 6.15 25.3-27.84 1.41-3.15-17.05z"/><path fill="#fff" d="M279.87 107.03l10.3.91V88.6l-10.3 2.81v15.62z"/><path fill="#231f20" d="M270.59 93.94v12.28l9.28.81V91.41l-9.28 2.53z"/><path fill="#fcae1d" d="M270.59 93.94l-15.52 4.24v1.26l-1.15 1.5 6.26 4.37 10.41.91V93.94zm0 12.28l-10.41-.91"/><path fill="#050708" d="M227.09 45.77l10.65 5.83-8.28 15.58-2.37-21.41zm60.7-3.43L273.68 70.8l20.72-16.55-6.61-11.91m1.82 108.59l7.89 5.32-81.57 100.36z"/><g data-name="LightingBolt"><path fill="#fff" d="M251.93 141.23l-81.21 142.73-42.68 5.65 35.66-60.11-53.2 69.92H79.26l100.76-100.11-12.98 48.3 84.89-106.38z"/><path fill="#231f20" d="M110.5 299.42l8.02 5.71 16.2-26.77 28.98-48.86-53.2 69.92z"/></g><path fill="#fff" d="M60.57 258.26l32.13-42.53-32.13 33.23v9.3zm66.58-59.8l-59.97 89.17-6.61-9.27 66.58-79.9z"/></svg>