<svg xmlns="http://www.w3.org/2000/svg" xmlns:xlink="http://www.w3.org/1999/xlink" viewBox="0 0 350 350"><defs><linearGradient id="a" x1="300.5" y1="122.38" x2="67" y2="122.38" gradientUnits="userSpaceOnUse"><stop offset=".26" stop-color="#891716"/><stop offset="1" stop-color="#d12c2d"/></linearGradient><linearGradient id="c" x1="67" y1="182.03" x2="298.5" y2="182.03" xlink:href="#a"/><linearGradient id="d" x1="298.5" y1="238" y2="238" xlink:href="#a"/><linearGradient id="e" x1="111.94" y1="129.46" x2="278.04" y2="84.95" gradientUnits="userSpaceOnUse"><stop offset="0" stop-color="#db8a89" stop-opacity="0"/><stop offset=".02" stop-color="#db8a89" stop-opacity=".05"/><stop offset=".16" stop-color="#db8a89" stop-opacity=".34"/><stop offset=".3" stop-color="#db8a89" stop-opacity=".57"/><stop offset=".42" stop-color="#db8a89" stop-opacity=".76"/><stop offset=".53" stop-color="#db8a89" stop-opacity=".89"/><stop offset=".63" stop-color="#db8a89" stop-opacity=".97"/><stop offset=".7" stop-color="#db8a89"/></linearGradient><linearGradient id="b" x1="121.09" y1="160.08" x2="299.83" y2="95.03" gradientUnits="userSpaceOnUse"><stop offset=".11" stop-color="#db8a89" stop-opacity="0"/><stop offset=".16" stop-color="#db8a89" stop-opacity=".12"/><stop offset=".27" stop-color="#db8a89" stop-opacity=".38"/><stop offset=".39" stop-color="#db8a89" stop-opacity=".6"/><stop offset=".49" stop-color="#db8a89" stop-opacity=".78"/><stop offset=".59" stop-color="#db8a89" stop-opacity=".9"/><stop offset=".68" stop-color="#db8a89" stop-opacity=".97"/><stop offset=".74" stop-color="#db8a89"/></linearGradient><linearGradient id="f" x1="144.51" y1="226.64" x2="287.48" y2="251.85" xlink:href="#b"/></defs><path fill="#fff" d="M290.11 290H60V60h230.11L95.75 130.76 155 243.5 290.11 290z"/><path d="M284.75 69l-43.5 7.88-139.58 44.79 1.67 103.67 158 55.67H69V69z"/><g data-name="Dark red"><path fill="url(#a)" d="M67 162l233.5-77.75-63.5-1.5L67 133.5V162z"/><path d="M67 156.75L262.75 144l35.75 35-68.35 41.06-162.86-25.83z" fill="url(#c)"/><path d="M67 213.25l214 69L298.5 268 251 237.75l-20.59-17.84L67 193.75z" fill="url(#d)"/></g><path fill="#d65d5d" d="M113.5 146l46.69-15.81 96.44-18.56 25.17 9.06-34.3 19.73-134 5.58z"/><path fill="url(#e)" d="M115.24 141.77l13.53-26.71L237 82.75l17.76.42-4.76 6.58L281 96l-165.76 45.77z"/><path d="M302 101l-183.31 38-3.45 5 152.26-15.25 29.25-16.49-6.62-2.51zm-40.62 16.38l10.74-4.63 4.38 2.94z" fill="url(#b)"/><path fill="url(#f)" d="M226.5 264.83l-2.5-10 65.33-13.5-31.83-18.5-111.5-4.66-1.5 21 82 25.66z"/><path d="M65.2 132.05l192.34-66L290 69 65.2 136.21v-4.16zm183.26-18.72h-34.79L66.17 146v3.17l182.29-35.84m50.04 24.42l-185 8.25-46 9-.5 1.75 229.25-14.5 4.25-2.5M67 218l202 69.5 21.11-6.5L67 213.25V218zm1-9.5l201.5 46.33 6-3-208.17-45 .67 1.67zm161.5 26.83l15.67-8.5L259.83 238l-30.33-2.67zm-39.92-131.75l1.92 11.59 9.33-8.42-11.25-3.17zm58.88-9.45l7.67-7.63 5.25 10.75-6.46 5.5-6.46-8.62z" fill="#fff"/><path fill="#fff" d="M69.13 69v212h220.98v9H60V60h230.11v9H69.13z"/><g fill="#fff" stroke="#000" stroke-miterlimit="10" stroke-width="5"><path d="M113 128.58l18.92-12.83-14.22-16.24a4.21 4.21 0 0 0-5.35-.73l-20.8 13a3.5 3.5 0 0 0-1.63 2.66c-.52 5.89-2 25.05.16 30.18 2.58 6.08 16.5 23.17 18.25 23.67s4.67-5 4.67-5-13.25-16.17-14.42-21.08-1.07-14.67.58-15.87z"/><circle cx="138.25" cy="146.5" r="28.5"/></g><g fill="#fff" stroke="#000" stroke-miterlimit="10" stroke-width="5"><path d="M144.5 217.08l18.92-12.83L149.2 188a4.21 4.21 0 0 0-5.35-.73l-20.8 13a3.5 3.5 0 0 0-1.63 2.66c-.52 5.89-2 25.05.16 30.18 2.58 6.08 16.5 23.17 18.25 23.67s4.67-5 4.67-5-13.25-16.17-14.42-21.08-1.07-14.67.58-15.87z"/><circle cx="169.75" cy="235" r="28.5"/></g><path d="M212.37 159.34l21.38-14.5-16.06-18.35a4.76 4.76 0 0 0-6-.82l-23.55 14.73a4 4 0 0 0-1.84 3c-.59 6.66-2.28 28.31.18 34.11 2.92 6.87 18.65 26.18 20.62 26.75s5.27-5.65 5.27-5.65-15-18.27-16.29-23.83-1.21-16.58.66-17.94z" fill="#fff" stroke="#000" stroke-miterlimit="10" stroke-width="5"/><circle cx="240.91" cy="179.59" r="32.21" fill="#fff" stroke="#000" stroke-miterlimit="10" stroke-width="5"/><path d="M260.13 205.43c-18.76-3.87-18.88-26.24-18.88-26.24-13.94 6.44-12.25 30.33-12.25 30.33l12.56 2.27 12-2.59z"/><path fill="#fff" d="M231.58 185l8.67 3.67-2.67 6.82 6.96.43-2.87 5 7.83.41-4.96 6.59 10.63 1.58-18 .83 6.21-6.58-9.63-.67 4.67-4.8-6-.95 2.66-5.58-4.91-2.92 1.41-3.83z"/><path d="M254.92 175.25c1.91 3.4 5.59 3.37 6.83 3.26a.81.81 0 0 1 .72.32c.8 1 2.53 3.8-2.73 2.5-6.42-1.58-5.79-5.6-5.79-5.6a.82.82 0 0 1 .37-.44.77.77 0 0 1 .6-.04z"/></svg>