<?xml version="1.0" encoding="UTF-8" standalone="no"?><!DOCTYPE svg PUBLIC "-//W3C//DTD SVG 1.1//EN" "http://www.w3.org/Graphics/SVG/1.1/DTD/svg11.dtd"><svg width="100%" height="100%" viewBox="0 0 350 350" version="1.1" xmlns="http://www.w3.org/2000/svg" xmlns:xlink="http://www.w3.org/1999/xlink" xml:space="preserve" xmlns:serif="http://www.serif.com/" style="fill-rule:evenodd;clip-rule:evenodd;stroke-linejoin:round;stroke-miterlimit:2;"><rect id="goyo" x="0" y="0" width="350" height="350" style="fill:none;"/><g id="goyo1" serif:id="goyo"><g id="goyo2" serif:id="goyo"><g id="bg"><rect x="60" y="60" width="230" height="230" style="fill:#fff;"/><rect x="70" y="70" width="210" height="210"/><rect x="80" y="80" width="190" height="190" style="fill:#155813;"/></g><g id="rays"><path d="M80,80l18,0l18,3l-36,-1l0,-2Z" style="fill:url(#_Linear1);"/><path d="M126,88l-46,-3l0,6l46,-3Z" style="fill:url(#_Linear2);"/><path d="M132,93l-52,2l0,6l52,-8Z" style="fill:url(#_Linear3);"/><path d="M114,107l-34,9l0,3l34,-12Z" style="fill:url(#_Linear4);"/><path d="M128,107l-48,16l0,8l48,-24Z" style="fill:url(#_Linear5);"/><path d="M136,109l-56,26l0,8l56,-34" style="fill:url(#_Linear6);"/><path d="M125,128l-45,36l0,5l45,-41Z" style="fill:url(#_Linear7);"/><path d="M139,123l-38,43l-21,20l0,-9l17,-18l42,-36Z" style="fill:url(#_Linear8);"/><path d="M144,125l-34.5,48l-29.5,32l0,-7l25,-31l39,-42Z" style="fill:url(#_Linear9);"/><path d="M143,146l-61,124l-2,0l0,-15l63,-109Z" style="fill:url(#_Linear10);"/><path d="M154,135l-17,51l-40,84l33,-87l24,-48Z" style="fill:url(#_Linear11);"/><path d="M142,182l-25,88l33,-89l8,-42l-16,43Z" style="fill:url(#_Linear12);"/><path d="M168,156l-7,49l-7,65l5,0l9,-114Z" style="fill:url(#_Linear13);"/><path d="M169,196l3,74l5,-74l-4,-57l-4,57Z" style="fill:url(#_Linear14);"/><path d="M188,195l-9,-53l3,54l7,74l-1,-75Z" style="fill:url(#_Linear15);"/><path d="M192,149l34,121l9,0l-43,-121Z" style="fill:url(#_Linear16);"/><path d="M192,132l26,55l28,83l-32.5,-74l-21.5,-64Z" style="fill:url(#_Linear17);"/><path d="M195,128l34,55l41,87l-45,-78l-30,-64Z" style="fill:url(#_Linear18);"/><path d="M213.5,135l56.5,66l0,10l-56.5,-76" style="fill:url(#_Linear19);"/><path d="M208,123l40,36l22,23l0,9l-28.25,-29l-33.75,-39Z" style="fill:url(#_Linear20);"/><path d="M270,171l-62,-54l41,28l21,19l0,7Z" style="fill:url(#_Linear21);"/><path d="M232.5,120l37.5,21l0,-3l-37.5,-18Z" style="fill:url(#_Linear22);"/><path d="M218,107l52,26l0,-8l-52,-18" style="fill:url(#_Linear23);"/><path d="M213.5,101l56.5,20l0,-8l-56.5,-12Z" style="fill:url(#_Linear24);"/><path d="M238,95l32,4l0,-2l-32,-2Z" style="fill:url(#_Linear25);"/><path d="M224,89l46,4l0,-7l-46,3Z" style="fill:url(#_Linear26);"/><path d="M215,85l55,-2l0,-3l-31,0l-24,5Z" style="fill:url(#_Linear27);"/></g><g id="mountain"><path d="M280,290l-204,0l0,-10l13,-15l21,-18l1,1l16,-16l-12,18l29,-39l2,1l4,-6l8,5l13,-4l-8,1l12,-3l14,0l6,3l2,2l2,3l0,2l7,-5l4,-1l3,0l2,1l1,2l3,-2l3,0l4,3l1,4l15,24l-2,-5l7,9l6,11l12,4l15,20l0,10Zm-185,-27l-16,17l2,0l14,-17Z" style="fill:#fff;"/><path d="M78,290l20,-25l14,-11l5,3l3,0l31,-45l5,3l12,1l3,-2l14,0l10,8l2,-3l5,-4l8,7l9,-7l28,47l11,3l15,25l-9,1l-13,6l-3,0l-2,-1l5,-1l3,-3l-10,4l-3,3l-6,1l5,-3l-9,0l-22,7l4,-4l-7,3l1,-3l-8,5l-13,0l2,2l-13,5l-40,-11l16,8l-19,-5l-15,-4l5,3l-30,-9l0,-2l-5,-1l-2,0l2,2l-9,-3Z"/><path d="M112,259l3,2l7,1l-4,10l-14,7l8,-20Z" style="fill:#fff;"/><path d="M135,243l4,33l0,8l5,-10l12,-16l7.595,10l11.405,-26l6,18l21,12l-4,-18l5,-6l0,-16l19,18l12,19l-1,-4l-2,-4l3,-7l-4,-13l-5,-7l3,13l-6,-8l0,-4l-4,-7l0,-7l-10,6l-10,-1l-15,9l-20,-8l-11,-9l-17,25Z" style="fill:#fff;"/></g><g id="fireball"><path d="M174.326,196.026c-0.138,0.116 -0.33,0.146 -0.497,0.077c-0.168,-0.069 -0.283,-0.225 -0.3,-0.405c-0.276,-2.962 -1.125,-12.058 -1.167,-12.501c-0.001,-0.012 -0.002,-0.023 -0.004,-0.034c-0.045,-0.275 -0.634,-3.919 -1.203,-7.432c-0.042,-0.258 -0.276,-0.441 -0.537,-0.418c-0.261,0.023 -0.46,0.243 -0.457,0.504c0.002,0.129 0.003,0.225 0.004,0.278c0,0.034 0.004,0.067 0.011,0.1c0.086,0.398 0.679,3.132 1.149,5.3c0.052,0.237 -0.074,0.476 -0.298,0.568c-0.224,0.092 -0.481,0.011 -0.612,-0.193c-0.224,-0.352 -0.412,-0.645 -0.503,-0.788c-0.039,-0.062 -0.064,-0.132 -0.074,-0.204c-0.077,-0.59 -0.442,-3.367 -0.521,-3.971c-0.01,-0.077 -0.038,-0.15 -0.081,-0.214c-0.298,-0.445 -1.532,-2.281 -1.838,-2.737c-0.045,-0.067 -0.073,-0.144 -0.082,-0.225c-0.131,-1.221 -1.202,-11.169 -1.355,-12.595c-0.012,-0.11 0.013,-0.221 0.071,-0.315c0.12,-0.195 0.344,-0.558 0.575,-0.934c0.112,-0.182 0.096,-0.416 -0.04,-0.581c-0.137,-0.165 -0.363,-0.225 -0.563,-0.149c-0.117,0.045 -0.227,0.087 -0.325,0.123c-0.22,0.084 -0.47,-0.003 -0.591,-0.205c0,-0.001 0,-0.002 -0.001,-0.002c-0.116,-0.196 -0.351,-0.287 -0.569,-0.222c-0.218,0.066 -0.364,0.271 -0.354,0.498c0.158,3.649 0.484,11.179 0.521,12.039c0.002,0.053 -0.004,0.107 -0.019,0.158c-0.116,0.41 -0.659,2.323 -0.779,2.744c-0.015,0.054 -0.021,0.11 -0.018,0.167c0.022,0.359 0.111,1.807 0.208,3.381c0.015,0.255 -0.164,0.481 -0.416,0.523c-0.252,0.043 -0.496,-0.112 -0.565,-0.358c-1.388,-4.964 -3.441,-12.308 -3.627,-12.973c-0.009,-0.033 -0.015,-0.066 -0.017,-0.099c-0.033,-0.456 -0.276,-3.859 -0.314,-4.395c-0.004,-0.047 -0.014,-0.094 -0.03,-0.138c-0.301,-0.816 -3.271,-8.855 -3.509,-9.498c-0.01,-0.027 -0.017,-0.055 -0.023,-0.084c-0.132,-0.726 -1.901,-10.44 -2.028,-11.137c-0.004,-0.026 -0.011,-0.052 -0.02,-0.077c-0.17,-0.479 -1.904,-5.383 -2.176,-6.15c-0.023,-0.067 -0.032,-0.138 -0.026,-0.208c0.022,-0.272 0.081,-0.997 0.113,-1.387c0.013,-0.16 -0.051,-0.317 -0.174,-0.421c-0.268,-0.229 -0.746,-0.635 -0.994,-0.846c-0.101,-0.087 -0.164,-0.21 -0.174,-0.343c-0.045,-0.588 -0.17,-2.249 -0.205,-2.711c-0.006,-0.079 -0.031,-0.156 -0.072,-0.224c-0.142,-0.231 -0.485,-0.789 -0.636,-1.037c-0.049,-0.079 -0.075,-0.171 -0.074,-0.264c0.004,-0.73 0.022,-4.047 0.027,-4.865c0,-0.118 -0.041,-0.232 -0.116,-0.323c-0.374,-0.448 -1.565,-1.877 -2.414,-2.896c-0.136,-0.163 -0.36,-0.223 -0.559,-0.148c-0.198,0.074 -0.329,0.265 -0.325,0.477c0.032,1.713 0.082,4.399 0.088,4.713c0,0.02 0.002,0.04 0.005,0.06c0.079,0.568 1.263,8.993 1.339,9.53c0.002,0.018 0.006,0.036 0.01,0.053c0.104,0.411 1.39,5.488 1.492,5.891c0.005,0.017 0.008,0.034 0.011,0.052c0.067,0.47 1.039,7.191 1.084,7.504c0.001,0.007 0.002,0.015 0.002,0.022c0.025,0.255 0.465,4.731 0.726,7.391c0.022,0.228 -0.112,0.441 -0.327,0.519c-0.215,0.078 -0.455,0.001 -0.584,-0.188c-0.411,-0.603 -0.811,-1.189 -0.945,-1.385c-0.03,-0.045 -0.054,-0.095 -0.068,-0.148c-0.057,-0.205 -0.209,-0.754 -0.293,-1.058c-0.037,-0.134 -0.017,-0.277 0.056,-0.396c0.085,-0.137 0.197,-0.32 0.271,-0.439c0.048,-0.079 0.074,-0.17 0.074,-0.262c0,-0.236 0,-0.714 0,-1.01c0,-0.159 -0.076,-0.309 -0.205,-0.403c-0.1,-0.073 -0.219,-0.16 -0.321,-0.235c-0.137,-0.1 -0.214,-0.263 -0.204,-0.433c0.047,-0.786 0.179,-3.038 0.208,-3.531c0.004,-0.063 -0.005,-0.127 -0.025,-0.187c-0.073,-0.221 -0.26,-0.781 -0.337,-1.012c-0.022,-0.067 -0.03,-0.138 -0.023,-0.208c0.035,-0.345 0.144,-1.424 0.179,-1.767c0.007,-0.069 0,-0.139 -0.022,-0.206c-0.105,-0.32 -0.427,-1.303 -0.477,-1.456c-0.004,-0.013 -0.008,-0.027 -0.011,-0.041c-0.053,-0.225 -0.526,-2.229 -0.59,-2.501c-0.005,-0.02 -0.011,-0.04 -0.018,-0.059c-0.121,-0.325 -1.207,-3.235 -1.25,-3.351c-0.001,-0.002 -0.002,-0.005 -0.002,-0.007c-0.046,-0.116 -1.194,-3.059 -1.356,-3.475c-0.013,-0.032 -0.022,-0.066 -0.028,-0.1c-0.125,-0.754 -1.582,-9.549 -1.652,-9.969c-0.002,-0.01 -0.003,-0.021 -0.004,-0.031c-0.045,-0.44 -1.016,-9.995 -1.084,-10.671c-0.003,-0.025 -0.003,-0.05 -0.002,-0.075c0.015,-0.301 0.115,-2.305 0.137,-2.745c0.003,-0.056 -0.004,-0.113 -0.02,-0.167c-0.128,-0.434 -0.728,-2.46 -0.8,-2.704c-0.005,-0.016 -0.01,-0.032 -0.017,-0.047c-0.073,-0.179 -0.545,-1.334 -0.709,-1.734c-0.036,-0.088 -0.046,-0.186 -0.029,-0.28c0.078,-0.417 0.3,-1.621 0.377,-2.036c0.017,-0.093 0.061,-0.179 0.125,-0.248c0.187,-0.203 0.596,-0.645 0.816,-0.882c0.093,-0.102 0.141,-0.237 0.131,-0.375c-0.043,-0.606 -0.163,-2.312 -0.202,-2.856c-0.008,-0.109 -0.051,-0.213 -0.124,-0.295c-0.304,-0.345 -1.145,-1.298 -1.474,-1.671c-0.086,-0.098 -0.131,-0.225 -0.124,-0.355c0.035,-0.732 0.157,-3.229 0.185,-3.806c0.003,-0.079 0.026,-0.156 0.065,-0.224c0.24,-0.419 1.135,-1.982 1.488,-2.598c0.089,-0.156 0.088,-0.347 -0.003,-0.502c-0.125,-0.212 -0.296,-0.504 -0.379,-0.643c-0.031,-0.054 -0.052,-0.113 -0.062,-0.175c-0.056,-0.347 -0.254,-1.577 -0.343,-2.13c-0.027,-0.169 -0.139,-0.312 -0.297,-0.38c-0.124,-0.053 -0.279,-0.119 -0.427,-0.183c-0.132,-0.056 -0.234,-0.167 -0.278,-0.304c-0.045,-0.137 -0.028,-0.287 0.045,-0.411c0.285,-0.479 0.695,-1.169 0.835,-1.405c0.033,-0.055 0.055,-0.115 0.065,-0.178c0.055,-0.35 0.245,-1.562 0.29,-1.85c0.007,-0.041 0.018,-0.081 0.035,-0.12c0.218,-0.509 1.812,-4.218 1.893,-4.408c0.002,-0.005 0.004,-0.01 0.007,-0.015c0.089,-0.191 1.888,-4.028 2.122,-4.527c0.016,-0.035 0.037,-0.069 0.061,-0.099c0.525,-0.658 6.503,-8.161 7.012,-8.8c0.023,-0.029 0.049,-0.055 0.077,-0.078c0.384,-0.308 3.208,-2.581 3.586,-2.885c0.028,-0.022 0.058,-0.042 0.09,-0.058c0.493,-0.246 4.635,-2.317 5.075,-2.537c0.025,-0.013 0.051,-0.023 0.078,-0.032c0.521,-0.158 5.904,-1.794 6.428,-1.953c0.027,-0.009 0.055,-0.015 0.083,-0.018c0.417,-0.052 3.776,-0.472 4.259,-0.532c0.038,-0.005 0.077,-0.005 0.115,-0.001c0.484,0.052 3.854,0.414 4.399,0.473c0.049,0.005 0.097,0.018 0.143,0.037c0.463,0.199 3.128,1.338 3.454,1.477c0.022,0.009 0.044,0.017 0.067,0.023c0.351,0.094 3.304,0.888 3.751,1.008c0.038,0.01 0.074,0.024 0.108,0.043c0.362,0.195 2.512,1.358 2.739,1.481c0.013,0.007 0.026,0.015 0.038,0.023c0.336,0.222 5.137,3.397 5.469,3.617c0.012,0.008 0.024,0.017 0.035,0.026c0.48,0.381 10.951,8.697 11.9,9.451c0.046,0.037 0.085,0.08 0.115,0.13c0.318,0.516 2.177,3.538 2.445,3.973c0.022,0.035 0.039,0.072 0.051,0.111c0.15,0.472 1.159,3.648 1.31,4.125c0.013,0.04 0.02,0.081 0.023,0.123c0.03,0.531 0.245,4.269 0.279,4.851c0.002,0.05 -0.002,0.1 -0.015,0.149c-0.092,0.37 -0.502,2.011 -0.55,2.202c-0.003,0.012 -0.006,0.025 -0.008,0.037c-0.027,0.161 -0.227,1.324 -0.307,1.793c-0.022,0.126 0.005,0.255 0.076,0.361c0.241,0.364 0.814,1.231 1.035,1.565c0.057,0.087 0.086,0.19 0.082,0.294c-0.018,0.51 -0.075,2.071 -0.079,2.184c-0.001,0.005 -0.001,0.009 -0.001,0.013c-0.002,0.177 -0.04,3.878 -0.053,5.14c-0.002,0.241 0.168,0.45 0.405,0.496c0.01,0.002 0.019,0.003 0.029,0.005c0.255,0.05 0.43,0.286 0.402,0.544c-0.05,0.473 -0.13,1.218 -0.189,1.772c-0.017,0.156 0.048,0.31 0.172,0.407c0.124,0.097 0.289,0.123 0.436,0.07c0.001,0 0.001,0 0.001,0c0.145,-0.053 0.307,-0.028 0.429,0.065c0.123,0.094 0.19,0.243 0.178,0.396c-0.106,1.385 -0.338,4.398 -0.393,5.111c-0.008,0.099 0.015,0.199 0.065,0.286c0.256,0.449 1.092,1.911 1.463,2.561c0.108,0.189 0.081,0.425 -0.065,0.586c-0.511,0.558 -1.67,1.827 -2.061,2.254c-0.084,0.092 -0.131,0.213 -0.131,0.337c0,0.54 0,2.055 0,2.594c0,0.125 0.047,0.246 0.131,0.338c0.182,0.199 0.518,0.566 0.765,0.838c0.175,0.191 0.175,0.484 0,0.675c-0.269,0.293 -0.645,0.703 -0.834,0.909c-0.077,0.084 -0.123,0.192 -0.13,0.305c-0.048,0.716 -0.226,3.406 -0.267,4.026c-0.006,0.085 -0.032,0.166 -0.078,0.237c-0.302,0.472 -1.497,2.343 -1.684,2.635c-0.016,0.025 -0.03,0.052 -0.042,0.08c-0.12,0.296 -0.837,2.055 -0.921,2.261c-0.005,0.013 -0.011,0.026 -0.017,0.039c-0.067,0.13 -0.459,0.897 -0.615,1.203c-0.042,0.082 -0.06,0.174 -0.053,0.266c0.035,0.442 0.14,1.803 0.177,2.276c0.008,0.106 -0.018,0.213 -0.074,0.304c-0.21,0.335 -0.736,1.176 -0.88,1.407c-0.024,0.039 -0.043,0.081 -0.056,0.126c-0.108,0.373 -0.633,2.19 -0.715,2.476c-0.008,0.025 -0.013,0.05 -0.016,0.076c-0.008,0.064 -0.025,0.202 -0.046,0.369c-0.025,0.201 -0.169,0.367 -0.364,0.42c-0.195,0.054 -0.403,-0.015 -0.527,-0.175c-0.197,-0.253 -0.4,-0.513 -0.559,-0.718c-0.169,-0.218 -0.13,-0.531 0.086,-0.701c0.121,-0.094 0.251,-0.196 0.365,-0.286c0.179,-0.14 0.241,-0.384 0.15,-0.592c-0.095,-0.219 -0.215,-0.496 -0.302,-0.696c-0.073,-0.166 -0.049,-0.358 0.06,-0.502c0.255,-0.335 0.71,-0.934 0.862,-1.134c0.033,-0.044 0.059,-0.094 0.077,-0.146c0.094,-0.287 0.419,-1.275 0.575,-1.752c0.054,-0.163 0.02,-0.342 -0.089,-0.475c-0.222,-0.268 -0.603,-0.728 -0.842,-1.017c-0.13,-0.158 -0.151,-0.379 -0.053,-0.558c0.097,-0.178 0.22,-0.405 0.324,-0.594c0.116,-0.214 0.062,-0.481 -0.13,-0.632c-0.126,-0.099 -0.267,-0.21 -0.382,-0.301c-0.143,-0.113 -0.214,-0.295 -0.184,-0.475c0.061,-0.364 0.165,-0.987 0.232,-1.389c0.037,-0.226 0.223,-0.397 0.451,-0.416c0.008,-0.001 0.015,-0.001 0.023,-0.002c0.151,-0.012 0.289,-0.093 0.373,-0.219c0.085,-0.126 0.108,-0.283 0.063,-0.428c-0.102,-0.325 -0.212,-0.679 -0.238,-0.763c-0.004,-0.012 -0.008,-0.024 -0.011,-0.037c-0.031,-0.136 -0.221,-0.965 -0.288,-1.257c-0.015,-0.066 -0.016,-0.135 -0.004,-0.202c0.125,-0.676 0.832,-4.497 0.894,-4.835c0.003,-0.016 0.007,-0.032 0.012,-0.047c0.043,-0.15 0.282,-0.982 0.427,-1.484c0.065,-0.225 0.277,-0.375 0.511,-0.361c0.192,0.012 0.419,0.027 0.606,0.038c0.22,0.014 0.423,-0.118 0.5,-0.324c0.066,-0.177 0.147,-0.397 0.221,-0.594c0.049,-0.132 0.04,-0.28 -0.026,-0.406c-0.066,-0.126 -0.182,-0.217 -0.319,-0.253c-0.154,-0.039 -0.317,-0.08 -0.456,-0.116c-0.21,-0.054 -0.362,-0.237 -0.375,-0.453c-0.05,-0.803 -0.169,-2.714 -0.216,-3.475c-0.012,-0.195 0.09,-0.379 0.263,-0.471c0.15,-0.081 0.338,-0.182 0.503,-0.27c0.222,-0.12 0.321,-0.387 0.229,-0.622c-0.176,-0.453 -0.464,-1.195 -0.693,-1.784c-0.068,-0.174 -0.227,-0.296 -0.413,-0.316c-0.186,-0.02 -0.367,0.066 -0.47,0.222c-0.202,0.304 -0.407,0.616 -0.513,0.776c-0.048,0.072 -0.076,0.155 -0.082,0.241c-0.062,0.896 -0.423,6.109 -0.495,7.145c-0.008,0.115 -0.056,0.225 -0.135,0.309c-0.188,0.198 -0.545,0.576 -0.742,0.784c-0.089,0.094 -0.138,0.219 -0.136,0.349c0.006,0.542 0.023,2.007 0.026,2.278c0,0.028 -0.002,0.057 -0.007,0.086c-0.048,0.293 -0.328,2.007 -0.421,2.58c-0.02,0.121 -0.083,0.23 -0.177,0.307c-0.153,0.125 -0.395,0.323 -0.573,0.469c-0.14,0.114 -0.207,0.296 -0.176,0.474c0.073,0.41 0.202,1.139 0.248,1.396c0.011,0.061 0.033,0.12 0.066,0.174c0.095,0.155 0.307,0.502 0.447,0.731c0.084,0.138 0.097,0.309 0.033,0.457c-0.146,0.342 -0.413,0.97 -0.553,1.299c-0.058,0.135 -0.172,0.238 -0.313,0.282c-0.147,0.045 -0.344,0.105 -0.515,0.158c-0.223,0.069 -0.369,0.283 -0.352,0.515c0.034,0.447 0.088,1.164 0.119,1.576c0.014,0.195 -0.086,0.381 -0.258,0.475c-0.07,0.04 -0.147,0.082 -0.22,0.122c-0.195,0.108 -0.296,0.332 -0.246,0.55c0.133,0.58 0.383,1.671 0.446,1.947c0.01,0.043 0.014,0.087 0.012,0.132c-0.015,0.392 -0.094,2.409 -0.109,2.794c-0.002,0.043 -0.009,0.084 -0.021,0.125c-0.104,0.343 -0.61,2.025 -0.689,2.285c-0.006,0.023 -0.012,0.045 -0.015,0.069c-0.057,0.369 -0.545,3.558 -0.593,3.869c-0.003,0.016 -0.006,0.032 -0.01,0.048c-0.049,0.193 -0.384,1.499 -0.529,2.066c-0.042,0.163 -0.163,0.294 -0.323,0.349c-0.2,0.068 -0.478,0.163 -0.691,0.235c-0.191,0.065 -0.324,0.238 -0.338,0.439c-0.073,1.063 -0.299,4.35 -0.342,4.982c-0.005,0.07 -0.024,0.138 -0.057,0.2c-0.238,0.448 -1.255,2.37 -1.462,2.761c-0.024,0.046 -0.041,0.096 -0.051,0.148c-0.097,0.553 -0.681,3.884 -0.753,4.296c-0.005,0.028 -0.012,0.055 -0.021,0.082c-0.111,0.311 -0.851,2.385 -1.469,4.118c-0.08,0.226 -0.309,0.363 -0.546,0.327c-0.237,-0.037 -0.415,-0.236 -0.424,-0.475c-0.083,-2.106 -0.19,-4.812 -0.21,-5.328c-0.003,-0.058 0.005,-0.116 0.022,-0.171c0.066,-0.206 0.239,-0.755 0.361,-1.141c0.074,-0.236 -0.035,-0.49 -0.257,-0.599c-0.19,-0.094 -0.424,-0.209 -0.634,-0.312c-0.136,-0.066 -0.234,-0.191 -0.268,-0.338c-0.033,-0.148 0.002,-0.303 0.096,-0.421c0.205,-0.259 0.442,-0.559 0.583,-0.736c0.078,-0.099 0.116,-0.224 0.106,-0.35c-0.044,-0.559 -0.17,-2.149 -0.205,-2.587c-0.005,-0.075 -0.028,-0.147 -0.066,-0.212c-0.075,-0.13 -0.212,-0.366 -0.317,-0.546c-0.088,-0.152 -0.09,-0.338 -0.005,-0.492c0.205,-0.373 0.586,-1.066 0.741,-1.348c0.045,-0.082 0.066,-0.174 0.061,-0.267c-0.019,-0.389 -0.077,-1.524 -0.137,-2.709c-0.012,-0.248 -0.204,-0.449 -0.451,-0.473c-0.247,-0.023 -0.474,0.137 -0.534,0.378c-0.987,3.975 -2.527,10.173 -2.568,10.341c-0.001,0.002 -0.002,0.004 -0.002,0.007c-0.046,0.171 -1.768,6.705 -1.805,6.847c-0.001,0.001 -0.001,0.003 -0.001,0.005c-0.036,0.139 -1.624,6.41 -1.69,6.67c-0.001,0.006 -0.002,0.011 -0.004,0.017c-0.04,0.136 -0.562,1.937 -0.757,2.608c-0.045,0.157 -0.164,0.282 -0.319,0.335c-0.254,0.086 -0.651,0.221 -0.934,0.317c-0.202,0.069 -0.339,0.259 -0.339,0.473c0,0.532 0,1.524 0,2.059c0,0.217 0.14,0.409 0.347,0.476c0.258,0.083 0.611,0.196 0.877,0.282c0.223,0.071 0.367,0.288 0.345,0.522c-0.037,0.404 -0.093,1.009 -0.12,1.299c-0.01,0.107 -0.054,0.209 -0.127,0.289c-0.201,0.223 -0.623,0.69 -0.83,0.92c-0.077,0.085 -0.122,0.195 -0.128,0.31c-0.041,0.818 -0.211,4.211 -0.244,4.872c-0.003,0.073 -0.023,0.145 -0.058,0.21c-0.123,0.23 -0.428,0.803 -0.566,1.062c-0.045,0.084 -0.065,0.181 -0.057,0.276c0.03,0.361 0.107,1.29 0.142,1.709c0.011,0.134 0.076,0.257 0.18,0.343c0.156,0.13 0.39,0.323 0.536,0.444c0.086,0.071 0.146,0.17 0.17,0.279c0.04,0.186 0.105,0.485 0.148,0.685c0.028,0.133 0.002,0.271 -0.073,0.383c-0.214,0.321 -0.664,0.997 -0.868,1.303c-0.067,0.1 -0.095,0.222 -0.08,0.342c0.042,0.319 0.128,0.98 0.183,1.404c0.03,0.228 -0.1,0.447 -0.314,0.53c-0.136,0.053 -0.287,0.112 -0.412,0.16c-0.159,0.062 -0.339,0.038 -0.476,-0.063c-0.145,-0.106 -0.331,-0.242 -0.465,-0.34c-0.111,-0.082 -0.184,-0.206 -0.201,-0.343c-0.05,-0.414 -0.159,-1.315 -0.208,-1.712c-0.015,-0.125 0.018,-0.252 0.092,-0.354c0.204,-0.282 0.627,-0.865 0.831,-1.146c0.074,-0.101 0.106,-0.227 0.092,-0.351c-0.036,-0.309 -0.107,-0.922 -0.156,-1.343c-0.029,-0.252 -0.242,-0.442 -0.496,-0.442c-0.024,0 -0.048,0 -0.072,0c-0.259,0 -0.475,-0.198 -0.498,-0.456c-0.033,-0.378 -0.077,-0.883 -0.095,-1.087c-0.006,-0.061 -0.022,-0.119 -0.048,-0.174c-0.112,-0.233 -0.436,-0.905 -0.603,-1.252c-0.065,-0.135 -0.066,-0.293 -0.003,-0.429c0.158,-0.337 0.46,-0.984 0.612,-1.309c0.058,-0.125 0.062,-0.269 0.011,-0.397c-0.112,-0.279 -0.314,-0.786 -0.44,-1.1c-0.068,-0.17 -0.224,-0.29 -0.406,-0.311c-0.036,-0.004 -0.074,-0.009 -0.112,-0.013c-0.144,-0.017 -0.287,0.029 -0.394,0.125c-0.107,0.097 -0.167,0.235 -0.165,0.379c0.009,0.541 0.022,1.393 0.035,2.238c0.004,0.241 -0.165,0.45 -0.401,0.498c-0.236,0.048 -0.473,-0.08 -0.563,-0.304c-0.044,-0.111 -0.078,-0.196 -0.097,-0.241c-0.01,-0.025 -0.018,-0.051 -0.024,-0.078c-0.068,-0.305 -0.507,-2.28 -0.726,-3.269c-0.029,-0.13 -0.119,-0.239 -0.242,-0.291c-0.122,-0.053 -0.262,-0.043 -0.377,0.025c0,0 -0.001,0.001 -0.001,0.001c-0.049,0.029 -0.077,0.082 -0.075,0.138c0.027,0.742 0.21,5.746 0.225,6.161c0,0.019 0,0.037 -0.001,0.055c-0.047,0.639 -0.898,12.249 -1.017,13.865c-0.009,0.119 -0.065,0.23 -0.157,0.306c0,0.001 0,0.001 -0.001,0.001Z" style="fill:#fff;"/><path d="M158.051,60.533c-0.079,0.04 -0.167,0.059 -0.255,0.054c-0.234,-0.013 -0.731,-0.041 -1.159,-0.065c-0.166,-0.01 -0.318,-0.102 -0.402,-0.246c-0.085,-0.144 -0.092,-0.321 -0.02,-0.471c0.082,-0.168 0.164,-0.338 0.226,-0.468c0.071,-0.146 0.209,-0.249 0.369,-0.276c0.384,-0.063 1.089,-0.179 1.333,-0.219c0.057,-0.009 0.112,-0.028 0.162,-0.056c0.34,-0.19 1.714,-0.954 1.917,-1.068c0.017,-0.009 0.035,-0.018 0.052,-0.025c0.258,-0.107 2.293,-0.949 2.597,-1.074c0.025,-0.011 0.049,-0.023 0.072,-0.038c0.272,-0.168 2.057,-1.276 2.518,-1.562c0.071,-0.045 0.152,-0.07 0.236,-0.075c0.75,-0.041 4.567,-0.252 4.835,-0.267c0.01,-0.001 0.02,-0.001 0.03,-0.001c0.279,0.001 4.356,0.02 4.94,0.023c0.046,0 0.092,0.006 0.136,0.019c0.373,0.108 2.195,0.633 2.45,0.707c0.019,0.005 0.039,0.01 0.06,0.013c0.224,0.036 1.633,0.26 2.26,0.36c0.185,0.029 0.338,0.16 0.397,0.338c0.117,0.357 0.312,0.951 0.404,1.23c0.033,0.101 0.097,0.188 0.183,0.25c0.079,0.057 0.186,0.134 0.292,0.211c0.222,0.16 0.533,0.112 0.696,-0.109c0.017,-0.024 0.034,-0.048 0.051,-0.071c0.135,-0.183 0.375,-0.252 0.586,-0.169c0.093,0.036 0.187,0.074 0.26,0.103c0.091,0.035 0.169,0.097 0.225,0.176c0.212,0.299 0.746,1.055 0.841,1.189c0.009,0.013 0.019,0.026 0.03,0.038c0.065,0.075 0.311,0.36 0.527,0.608c0.091,0.105 0.134,0.243 0.119,0.381c-0.014,0.138 -0.086,0.264 -0.197,0.347c-0.032,0.024 -0.063,0.047 -0.091,0.068c-0.079,0.06 -0.175,0.094 -0.274,0.099c-0.39,0.02 -1.423,0.073 -1.877,0.096c-0.139,0.007 -0.276,-0.044 -0.376,-0.142c-0.317,-0.313 -1.018,-1.002 -1.134,-1.115c-0.011,-0.011 -0.022,-0.021 -0.034,-0.031c-0.167,-0.136 -1.465,-1.197 -1.79,-1.462c-0.049,-0.04 -0.104,-0.07 -0.164,-0.089c-0.516,-0.166 -3.086,-0.99 -3.5,-1.123c-0.038,-0.012 -0.077,-0.02 -0.116,-0.022c-0.372,-0.028 -2.386,-0.179 -2.662,-0.2c-0.021,-0.002 -0.042,-0.002 -0.063,-0.001c-0.358,0.018 -3.671,0.187 -4.002,0.204c-0.018,0 -0.036,0.002 -0.053,0.005c-0.315,0.05 -3.361,0.533 -3.704,0.587c-0.021,0.004 -0.042,0.008 -0.062,0.014c-0.25,0.073 -1.946,0.569 -2.326,0.68c-0.05,0.015 -0.097,0.037 -0.14,0.066c-0.325,0.22 -1.763,1.195 -1.974,1.338c-0.017,0.012 -0.035,0.023 -0.054,0.032c-0.236,0.12 -1.909,0.972 -2.375,1.209Z"/><path d="M175.352,140.381c0.067,-0.133 0.201,-0.218 0.349,-0.222c0.149,-0.004 0.287,0.074 0.36,0.203c0.509,0.898 1.38,2.434 1.565,2.759c0.023,0.041 0.04,0.085 0.051,0.131c0.103,0.428 0.652,2.726 0.756,3.159c0.011,0.046 0.015,0.094 0.013,0.141c-0.038,0.729 -0.348,6.763 -0.387,7.521c-0.003,0.052 -0.013,0.103 -0.032,0.151c-0.098,0.261 -0.434,1.151 -0.545,1.445c-0.024,0.062 -0.035,0.129 -0.032,0.196c0.026,0.656 0.17,4.308 0.225,5.702c0.006,0.139 -0.047,0.275 -0.146,0.373c-0.099,0.099 -0.234,0.152 -0.373,0.146c-0.004,0 -0.007,0 -0.01,0c-0.208,-0.008 -0.389,-0.144 -0.455,-0.342c-0.116,-0.347 -0.294,-0.881 -0.379,-1.137c-0.032,-0.096 -0.034,-0.2 -0.006,-0.297c0.107,-0.37 0.384,-1.333 0.506,-1.758c0.039,-0.132 0.02,-0.275 -0.05,-0.393c-0.235,-0.396 -0.778,-1.314 -0.969,-1.636c-0.044,-0.075 -0.068,-0.16 -0.07,-0.247c-0.014,-0.876 -0.091,-5.819 -0.104,-6.635c-0.001,-0.075 -0.019,-0.149 -0.052,-0.216c-0.101,-0.2 -0.323,-0.645 -0.429,-0.857c-0.038,-0.076 -0.056,-0.161 -0.052,-0.246c0.012,-0.267 0.039,-0.881 0.054,-1.23c0.008,-0.159 0.09,-0.305 0.223,-0.394c0.039,-0.026 0.08,-0.053 0.119,-0.079c0.131,-0.087 0.213,-0.23 0.222,-0.387c0.03,-0.507 0.099,-1.647 0.121,-2.027c0.005,-0.083 0.031,-0.163 0.074,-0.233c0.053,-0.085 0.129,-0.209 0.201,-0.325c0.118,-0.19 0.095,-0.434 -0.055,-0.6c-0.122,-0.134 -0.262,-0.287 -0.355,-0.391c-0.07,-0.077 -0.115,-0.174 -0.127,-0.277c-0.052,-0.441 -0.197,-1.661 -0.227,-1.911c-0.003,-0.029 0.002,-0.059 0.015,-0.085c0,-0.001 0.001,-0.002 0.001,-0.002Z"/><path d="M172.168,140.738c0.102,0.208 0.335,0.318 0.561,0.266c0.226,-0.052 0.386,-0.253 0.387,-0.485c0.01,-2.843 0.027,-7.573 0.028,-7.988c0.001,-0.019 0.002,-0.039 0.004,-0.058c0.022,-0.177 0.138,-1.141 0.269,-2.221c0.03,-0.246 0.235,-0.433 0.483,-0.439c0.248,-0.007 0.464,0.17 0.506,0.414c0.031,0.178 0.052,0.304 0.061,0.353c0.002,0.015 0.004,0.03 0.006,0.045c0.022,0.275 0.237,2.964 0.322,4.028c0.019,0.24 0.224,0.422 0.465,0.412c0,0 0.001,0 0.001,0c0.239,-0.01 0.428,-0.207 0.428,-0.447c0,-0.94 0,-3.24 0,-5.012c0,-0.236 0.164,-0.439 0.394,-0.489c0.23,-0.05 0.464,0.067 0.561,0.281c1.016,2.226 2.508,5.497 2.742,6.01c0.02,0.046 0.034,0.094 0.041,0.144c0.034,0.269 0.154,1.201 0.235,1.831c0.019,0.148 0.104,0.28 0.23,0.36c0.127,0.079 0.282,0.098 0.424,0.051c0.177,-0.059 0.36,-0.12 0.497,-0.166c0.138,-0.046 0.249,-0.149 0.304,-0.283c0.149,-0.361 0.447,-1.083 0.554,-1.342c0.026,-0.063 0.039,-0.131 0.038,-0.2c-0.005,-0.317 -0.022,-1.281 -0.029,-1.749c-0.003,-0.164 0.074,-0.319 0.207,-0.415c0.111,-0.079 0.248,-0.178 0.37,-0.266c0.185,-0.133 0.257,-0.374 0.174,-0.586c-0.148,-0.383 -0.376,-0.97 -0.482,-1.245c-0.038,-0.098 -0.044,-0.206 -0.017,-0.308c0.107,-0.406 0.388,-1.472 0.449,-1.7c0.007,-0.028 0.017,-0.056 0.03,-0.083c0.066,-0.142 0.289,-0.619 0.407,-0.873c0.049,-0.105 0.06,-0.223 0.032,-0.335c-0.096,-0.374 -0.318,-1.247 -0.395,-1.549c-0.018,-0.07 -0.021,-0.143 -0.008,-0.213c0.07,-0.384 0.304,-1.671 0.336,-1.845c0.002,-0.013 0.005,-0.026 0.008,-0.039c0.045,-0.167 0.368,-1.389 0.538,-2.029c0.058,-0.222 0.273,-0.365 0.501,-0.334c0,0 0,0 0,0c0.224,0.03 0.391,0.22 0.393,0.446c0.006,0.858 0.021,2.902 0.028,3.948c0.001,0.154 0.073,0.299 0.195,0.393c0.122,0.094 0.281,0.126 0.43,0.088c0.026,-0.007 0.052,-0.014 0.078,-0.02c0.238,-0.062 0.396,-0.287 0.372,-0.532c-0.065,-0.685 -0.19,-2 -0.232,-2.439c-0.009,-0.096 0.01,-0.192 0.054,-0.277c0.291,-0.563 1.427,-2.757 1.505,-2.908c0.003,-0.006 0.006,-0.011 0.008,-0.017c0.057,-0.121 0.719,-1.523 0.864,-1.831c0.019,-0.04 0.043,-0.077 0.071,-0.11c0.331,-0.39 2.469,-2.908 2.57,-3.028c0.003,-0.003 0.005,-0.006 0.007,-0.009c0.122,-0.15 3.282,-4.052 3.498,-4.318c0.008,-0.01 0.015,-0.019 0.022,-0.029c0.197,-0.284 3.122,-4.493 3.469,-4.991c0.022,-0.032 0.04,-0.066 0.054,-0.103c0.174,-0.443 1.351,-3.44 1.474,-3.754c0.007,-0.017 0.013,-0.036 0.018,-0.054c0.112,-0.421 1.473,-5.538 1.739,-6.541c0.03,-0.11 0.095,-0.207 0.187,-0.274c0.246,-0.181 0.754,-0.556 1.031,-0.759c0.12,-0.089 0.194,-0.227 0.202,-0.376c0.047,-0.854 0.205,-3.767 0.234,-4.303c0.003,-0.056 -0.004,-0.113 -0.019,-0.167c-0.147,-0.504 -0.925,-3.176 -1.038,-3.563c-0.009,-0.031 -0.021,-0.061 -0.036,-0.09c-0.177,-0.341 -1.343,-2.591 -1.501,-2.897c-0.012,-0.023 -0.026,-0.045 -0.041,-0.066c-0.192,-0.261 -1.53,-2.086 -1.87,-2.55c-0.05,-0.069 -0.073,-0.154 -0.062,-0.239c0,-0.001 0,-0.001 0,-0.002c0.022,-0.185 0.152,-0.341 0.33,-0.396c0.179,-0.056 0.373,-0.001 0.497,0.139c0.638,0.721 1.512,1.708 1.725,1.949c0.032,0.037 0.058,0.077 0.079,0.121c0.191,0.412 1.216,2.62 1.352,2.913c0.01,0.021 0.025,0.039 0.043,0.053c0.001,0.001 0.002,0.001 0.002,0.002c0.117,0.089 0.277,0.098 0.403,0.021c0.126,-0.076 0.193,-0.221 0.169,-0.366c-0.145,-0.859 -0.349,-2.073 -0.407,-2.416c-0.01,-0.062 -0.032,-0.121 -0.065,-0.175c-0.307,-0.511 -1.97,-3.274 -2.243,-3.727c-0.025,-0.042 -0.056,-0.08 -0.092,-0.112c-0.489,-0.445 -4.128,-3.753 -4.278,-3.889c-0.003,-0.003 -0.006,-0.006 -0.009,-0.009c-0.138,-0.118 -3.133,-2.704 -3.384,-2.92c-0.011,-0.01 -0.023,-0.019 -0.035,-0.028c-0.267,-0.192 -3.428,-2.467 -3.784,-2.723c-0.022,-0.016 -0.045,-0.03 -0.069,-0.042c-0.423,-0.211 -4.466,-2.233 -4.814,-2.407c-0.016,-0.008 -0.033,-0.015 -0.049,-0.021c-0.41,-0.153 -5.698,-2.123 -5.746,-2.141l-3.425,-1.272c-0.035,-0.012 -0.07,-0.021 -0.106,-0.026c-0.206,-0.029 -0.962,-0.132 -1.638,-0.225c-0.165,-0.023 -0.326,0.063 -0.399,0.213c-0.072,0.151 -0.04,0.331 0.08,0.446l0.005,0.005c0.039,0.037 0.934,0.908 1.231,1.197c0.062,0.06 0.107,0.135 0.131,0.219c0.057,0.197 0.169,0.581 0.234,0.806c0.033,0.115 0.025,0.238 -0.025,0.346c-0.047,0.104 -0.108,0.238 -0.161,0.356c-0.075,0.163 -0.231,0.274 -0.41,0.291c-0.118,0.01 -0.249,0.022 -0.347,0.031c-0.099,0.009 -0.199,-0.012 -0.286,-0.06c-0.17,-0.093 -0.452,-0.248 -0.549,-0.302c-0.023,-0.012 -0.046,-0.023 -0.07,-0.031c-0.157,-0.058 -0.782,-0.285 -1.037,-0.378c-0.072,-0.026 -0.149,-0.035 -0.226,-0.027c-0.441,0.049 -2.001,0.219 -2.164,0.237c-0.009,0.001 -0.018,0.002 -0.028,0.002c-0.16,0.009 -1.657,0.089 -1.945,0.104c-0.032,0.002 -0.064,0.007 -0.095,0.015c-0.145,0.036 -0.595,0.149 -0.822,0.205c-0.088,0.022 -0.168,0.068 -0.233,0.132c-0.101,0.102 -0.265,0.266 -0.403,0.404c-0.151,0.15 -0.379,0.189 -0.571,0.097c-0.088,-0.043 -0.184,-0.089 -0.275,-0.133c-0.217,-0.104 -0.328,-0.347 -0.266,-0.579c0.031,-0.119 0.066,-0.248 0.096,-0.36c0.051,-0.192 0.21,-0.335 0.406,-0.366c0.298,-0.046 0.737,-0.114 1.019,-0.158c0.169,-0.027 0.34,0.036 0.453,0.165c0.039,0.044 0.08,0.091 0.119,0.136c0.124,0.141 0.316,0.201 0.498,0.156c0.117,-0.029 0.248,-0.062 0.355,-0.089c0.133,-0.033 0.247,-0.12 0.314,-0.24c0.029,-0.05 0.059,-0.105 0.089,-0.157c0.08,-0.143 0.226,-0.238 0.389,-0.253c0.577,-0.054 1.92,-0.18 2.026,-0.19c0.005,0 0.009,-0.001 0.014,-0.001c0.086,-0.011 0.973,-0.118 1.635,-0.199c0.154,-0.018 0.288,-0.116 0.353,-0.258c0.066,-0.141 0.053,-0.307 -0.034,-0.436c0,0 0,-0.001 0,-0.001c-0.06,-0.09 -0.163,-0.144 -0.272,-0.141c-0.821,0.018 -4.282,0.093 -4.725,0.102c-0.031,0.001 -0.062,0.005 -0.092,0.011c-0.31,0.066 -2.099,0.444 -2.442,0.516c-0.038,0.008 -0.075,0.02 -0.11,0.037c-0.349,0.164 -2.333,1.097 -2.575,1.211c-0.016,0.008 -0.032,0.016 -0.047,0.025c-0.255,0.155 -2.559,1.557 -2.963,1.803c-0.04,0.025 -0.077,0.054 -0.109,0.089c-0.385,0.419 -2.978,3.24 -3.266,3.553c-0.017,0.019 -0.033,0.039 -0.047,0.06c-0.275,0.41 -3.112,4.644 -3.389,5.056c-0.014,0.022 -0.027,0.044 -0.038,0.068c-0.174,0.375 -1.683,3.621 -1.902,4.092c-0.018,0.038 -0.031,0.077 -0.038,0.118c-0.058,0.31 -0.317,1.687 -0.37,1.972c-0.007,0.035 -0.009,0.07 -0.009,0.105c0.008,0.298 0.044,1.776 0.054,2.19c0.002,0.071 0.019,0.141 0.05,0.206c0.165,0.341 0.713,1.473 0.801,1.655c0.008,0.017 0.017,0.033 0.026,0.048c0.098,0.155 0.651,1.037 0.746,1.188c0.009,0.015 0.019,0.029 0.03,0.042c0.038,0.049 0.135,0.172 0.212,0.271c0.071,0.091 0.109,0.203 0.107,0.318c-0.02,1.144 -0.132,7.443 -0.14,7.897c0,0.017 0,0.034 0.002,0.051c0.026,0.309 0.283,3.3 0.316,3.695c0.003,0.029 0.008,0.057 0.015,0.085c0.095,0.358 0.766,2.902 0.842,3.193c0.005,0.018 0.011,0.036 0.017,0.053c0.017,0.041 0.051,0.131 0.1,0.256c0.085,0.221 0.322,0.342 0.551,0.283c0.229,-0.059 0.377,-0.28 0.345,-0.514c0,0 0,0 0,-0.001c-0.001,-0.009 -0.003,-0.019 -0.006,-0.029c-0.054,-0.223 -0.721,-2.978 -0.81,-3.349c-0.007,-0.028 -0.011,-0.056 -0.013,-0.084c-0.027,-0.388 -0.228,-3.321 -0.247,-3.593c-0.001,-0.014 -0.001,-0.027 -0.001,-0.041c0.004,-0.362 0.069,-5.463 0.071,-5.672c0,-0.004 0,-0.009 0,-0.013c-0.001,-0.113 -0.022,-1.661 -0.031,-2.318c-0.003,-0.18 0.092,-0.348 0.248,-0.439c0.092,-0.054 0.197,-0.115 0.294,-0.171c0.187,-0.11 0.423,-0.086 0.585,0.059c0.025,0.023 0.051,0.046 0.077,0.069c0.19,0.17 0.222,0.454 0.074,0.662c-0.161,0.227 -0.357,0.504 -0.46,0.648c-0.046,0.065 -0.076,0.14 -0.087,0.219c-0.045,0.314 -0.164,1.148 -0.192,1.344c-0.004,0.027 -0.005,0.055 -0.005,0.083c0.012,0.498 0.131,5.284 0.142,5.731c0,0.023 0.002,0.045 0.006,0.067c0.063,0.393 0.666,4.166 0.709,4.432c0.002,0.01 0.003,0.02 0.006,0.03c0.054,0.243 0.764,3.44 0.848,3.819c0.006,0.025 0.013,0.049 0.022,0.072c0.137,0.355 1.269,3.28 1.436,3.711c0.013,0.036 0.031,0.069 0.052,0.1c0.199,0.294 1.266,1.867 1.39,2.051c0.008,0.011 0.016,0.023 0.025,0.034c0.167,0.206 1.86,2.299 1.954,2.415c0.003,0.004 0.006,0.007 0.008,0.01c0.095,0.111 1.731,2.029 2.029,2.378c0.031,0.036 0.056,0.077 0.075,0.12c0.144,0.32 0.776,1.723 0.913,2.027c0.017,0.039 0.029,0.079 0.037,0.121c0.045,0.267 0.222,1.308 0.287,1.693c0.016,0.094 0.059,0.182 0.123,0.252c0.242,0.267 0.854,0.94 0.961,1.057c0.01,0.012 0.02,0.024 0.03,0.037c0.109,0.145 0.819,1.091 1.012,1.35c0.033,0.043 0.058,0.09 0.075,0.141c0.068,0.205 0.255,0.765 0.333,1c0.023,0.07 0.031,0.144 0.022,0.217c-0.054,0.457 -0.259,2.185 -0.301,2.547c-0.006,0.044 -0.005,0.089 0.002,0.133c0.026,0.175 0.099,0.663 0.15,1.005c0.033,0.216 0.201,0.385 0.416,0.42c0.033,0.005 0.066,0.01 0.1,0.016c0.248,0.04 0.488,-0.112 0.559,-0.353c0.111,-0.38 0.262,-0.896 0.298,-1.02c0.005,-0.018 0.01,-0.037 0.013,-0.056c0.028,-0.165 0.173,-1.009 0.204,-1.191c0.004,-0.023 0.006,-0.046 0.007,-0.07c0.01,-0.342 0.091,-3.08 0.104,-3.552c0.002,-0.044 0.021,-0.085 0.054,-0.114c0.001,-0.001 0.001,-0.001 0.002,-0.001c0.114,-0.101 0.273,-0.133 0.417,-0.084c0.145,0.049 0.252,0.171 0.281,0.321c0.143,0.734 0.351,1.801 0.413,2.119c0.012,0.061 0.035,0.119 0.069,0.171c0.18,0.285 0.793,1.254 0.995,1.574c0.043,0.068 0.069,0.145 0.076,0.225c0.037,0.431 0.161,1.882 0.196,2.283c0.005,0.069 0.025,0.135 0.058,0.196c0.078,0.143 0.23,0.423 0.327,0.603c0.058,0.107 0.075,0.231 0.048,0.349c-0.051,0.225 -0.132,0.581 -0.138,0.604c0,0 0,0.001 0,0.002c-0.008,0.034 -0.174,0.784 -0.25,1.124c-0.024,0.107 -0.012,0.219 0.034,0.318c0.147,0.318 0.476,1.032 0.557,1.206c0.012,0.026 0.021,0.053 0.029,0.08c0.073,0.275 0.488,1.825 0.524,1.957c0.001,0.006 0.003,0.012 0.004,0.018c0.028,0.122 0.328,1.435 0.43,1.884c0.022,0.098 0.073,0.187 0.147,0.255c0.2,0.187 0.617,0.575 0.816,0.76c0.072,0.067 0.123,0.154 0.146,0.25c0.111,0.467 0.454,1.902 0.525,2.2c0.009,0.036 0.022,0.071 0.038,0.105c0.014,0.027 0.032,0.065 0.055,0.111Z"/></g></g></g><defs><linearGradient id="_Linear1" x1="0" y1="0" x2="1" y2="0" gradientUnits="userSpaceOnUse" gradientTransform="matrix(-64,-2,2,-64,112,82)"><stop offset="0" style="stop-color:#499247;stop-opacity:1"/><stop offset="1" style="stop-color:#1b6219;stop-opacity:0"/></linearGradient><linearGradient id="_Linear2" x1="0" y1="0" x2="1" y2="0" gradientUnits="userSpaceOnUse" gradientTransform="matrix(-121,2,-0.26087,-15.7826,103,88)"><stop offset="0" style="stop-color:#499247;stop-opacity:1"/><stop offset="1" style="stop-color:#1b6219;stop-opacity:0"/></linearGradient><linearGradient id="_Linear3" x1="0" y1="0" x2="1" y2="0" gradientUnits="userSpaceOnUse" gradientTransform="matrix(-102,10,-10,-102,132,93)"><stop offset="0" style="stop-color:#499247;stop-opacity:1"/><stop offset="1" style="stop-color:#1b6219;stop-opacity:0"/></linearGradient><linearGradient id="_Linear4" x1="0" y1="0" x2="1" y2="0" gradientUnits="userSpaceOnUse" gradientTransform="matrix(-44,14,-14,-44,114,107)"><stop offset="0" style="stop-color:#499247;stop-opacity:1"/><stop offset="1" style="stop-color:#1b6219;stop-opacity:0"/></linearGradient><linearGradient id="_Linear5" x1="0" y1="0" x2="1" y2="0" gradientUnits="userSpaceOnUse" gradientTransform="matrix(-126,53,-53,-126,128,107)"><stop offset="0" style="stop-color:#499247;stop-opacity:1"/><stop offset="1" style="stop-color:#1b6219;stop-opacity:0"/></linearGradient><linearGradient id="_Linear6" x1="0" y1="0" x2="1" y2="0" gradientUnits="userSpaceOnUse" gradientTransform="matrix(-89,49,-49,-89,136,109)"><stop offset="0" style="stop-color:#499247;stop-opacity:1"/><stop offset="1" style="stop-color:#1b6219;stop-opacity:0"/></linearGradient><linearGradient id="_Linear7" x1="0" y1="0" x2="1" y2="0" gradientUnits="userSpaceOnUse" gradientTransform="matrix(-66,58,-58,-66,125,128)"><stop offset="0" style="stop-color:#499247;stop-opacity:1"/><stop offset="1" style="stop-color:#1b6219;stop-opacity:0"/></linearGradient><linearGradient id="_Linear8" x1="0" y1="0" x2="1" y2="0" gradientUnits="userSpaceOnUse" gradientTransform="matrix(-115,113,-113,-115,139,123)"><stop offset="0" style="stop-color:#499247;stop-opacity:1"/><stop offset="1" style="stop-color:#1b6219;stop-opacity:0"/></linearGradient><linearGradient id="_Linear9" x1="0" y1="0" x2="1" y2="0" gradientUnits="userSpaceOnUse" gradientTransform="matrix(-67,80,-80,-67,144,125)"><stop offset="0" style="stop-color:#499247;stop-opacity:1"/><stop offset="1" style="stop-color:#1b6219;stop-opacity:0"/></linearGradient><linearGradient id="_Linear10" x1="0" y1="0" x2="1" y2="0" gradientUnits="userSpaceOnUse" gradientTransform="matrix(-72,137,-137,-72,144,144)"><stop offset="0" style="stop-color:#499247;stop-opacity:1"/><stop offset="1" style="stop-color:#1b6219;stop-opacity:0"/></linearGradient><linearGradient id="_Linear11" x1="0" y1="0" x2="1" y2="0" gradientUnits="userSpaceOnUse" gradientTransform="matrix(-43,101,-101,-43,140,169)"><stop offset="0" style="stop-color:#499247;stop-opacity:1"/><stop offset="1" style="stop-color:#1b6219;stop-opacity:0"/></linearGradient><linearGradient id="_Linear12" x1="0" y1="0" x2="1" y2="0" gradientUnits="userSpaceOnUse" gradientTransform="matrix(-40,134,-134,-40,157,139)"><stop offset="0" style="stop-color:#499247;stop-opacity:1"/><stop offset="1" style="stop-color:#1b6219;stop-opacity:0"/></linearGradient><linearGradient id="_Linear13" x1="0" y1="0" x2="1" y2="0" gradientUnits="userSpaceOnUse" gradientTransform="matrix(-19,138,-138,-19,173,127)"><stop offset="0" style="stop-color:#499247;stop-opacity:1"/><stop offset="1" style="stop-color:#1b6219;stop-opacity:0"/></linearGradient><linearGradient id="_Linear14" x1="0" y1="0" x2="1" y2="0" gradientUnits="userSpaceOnUse" gradientTransform="matrix(-3,136,-136,-3,175,138)"><stop offset="0" style="stop-color:#499247;stop-opacity:1"/><stop offset="1" style="stop-color:#1b6219;stop-opacity:1"/></linearGradient><linearGradient id="_Linear15" x1="0" y1="0" x2="1" y2="0" gradientUnits="userSpaceOnUse" gradientTransform="matrix(12,145.862,-145.862,12,178,124.138)"><stop offset="0" style="stop-color:#499247;stop-opacity:1"/><stop offset="1" style="stop-color:#1b6219;stop-opacity:1"/></linearGradient><linearGradient id="_Linear16" x1="0" y1="0" x2="1" y2="0" gradientUnits="userSpaceOnUse" gradientTransform="matrix(33,116,-116,33,193,149)"><stop offset="0" style="stop-color:#499247;stop-opacity:1"/><stop offset="1" style="stop-color:#1b6219;stop-opacity:0"/></linearGradient><linearGradient id="_Linear17" x1="0" y1="0" x2="1" y2="0" gradientUnits="userSpaceOnUse" gradientTransform="matrix(44,109,-278.556,112.444,203,161)"><stop offset="0" style="stop-color:#499247;stop-opacity:1"/><stop offset="1" style="stop-color:#1b6219;stop-opacity:0"/></linearGradient><linearGradient id="_Linear18" x1="0" y1="0" x2="1" y2="0" gradientUnits="userSpaceOnUse" gradientTransform="matrix(50,100,-189.333,94.6667,200,135)"><stop offset="0" style="stop-color:#499247;stop-opacity:1"/><stop offset="1" style="stop-color:#1b6219;stop-opacity:0"/></linearGradient><linearGradient id="_Linear19" x1="0" y1="0" x2="1" y2="0" gradientUnits="userSpaceOnUse" gradientTransform="matrix(91,115,-115,91,186,101)"><stop offset="0" style="stop-color:#499247;stop-opacity:1"/><stop offset="1" style="stop-color:#1b6219;stop-opacity:1"/></linearGradient><linearGradient id="_Linear20" x1="0" y1="0" x2="1" y2="0" gradientUnits="userSpaceOnUse" gradientTransform="matrix(100,105,-115.161,109.677,221,135)"><stop offset="0" style="stop-color:#499247;stop-opacity:1"/><stop offset="1" style="stop-color:#1b6219;stop-opacity:0"/></linearGradient><linearGradient id="_Linear21" x1="0" y1="0" x2="1" y2="0" gradientUnits="userSpaceOnUse" gradientTransform="matrix(86,69,-60.0968,74.9032,208,117)"><stop offset="0" style="stop-color:#499247;stop-opacity:1"/><stop offset="1" style="stop-color:#1b6219;stop-opacity:0"/></linearGradient><linearGradient id="_Linear22" x1="0" y1="0" x2="1" y2="0" gradientUnits="userSpaceOnUse" gradientTransform="matrix(75,39,-21.84,42,218,114)"><stop offset="0" style="stop-color:#499247;stop-opacity:1"/><stop offset="1" style="stop-color:#1b6219;stop-opacity:0"/></linearGradient><linearGradient id="_Linear23" x1="0" y1="0" x2="1" y2="0" gradientUnits="userSpaceOnUse" gradientTransform="matrix(73,36,-18,36.5,235,113)"><stop offset="0" style="stop-color:#499247;stop-opacity:1"/><stop offset="1" style="stop-color:#1b6219;stop-opacity:0"/></linearGradient><linearGradient id="_Linear24" x1="0" y1="0" x2="1" y2="0" gradientUnits="userSpaceOnUse" gradientTransform="matrix(134,40,-14.1593,47.4336,202,97)"><stop offset="0" style="stop-color:#499247;stop-opacity:1"/><stop offset="1" style="stop-color:#1b6219;stop-opacity:0"/></linearGradient><linearGradient id="_Linear25" x1="0" y1="0" x2="1" y2="0" gradientUnits="userSpaceOnUse" gradientTransform="matrix(64,2,-0.25,8,238,97)"><stop offset="0" style="stop-color:#499247;stop-opacity:1"/><stop offset="1" style="stop-color:#1b6219;stop-opacity:0"/></linearGradient><linearGradient id="_Linear26" x1="0" y1="0" x2="1" y2="0" gradientUnits="userSpaceOnUse" gradientTransform="matrix(82,1.5,-0.228261,12.4783,244,89.5)"><stop offset="0" style="stop-color:#499247;stop-opacity:1"/><stop offset="1" style="stop-color:#1b6219;stop-opacity:0"/></linearGradient><linearGradient id="_Linear27" x1="0" y1="0" x2="1" y2="0" gradientUnits="userSpaceOnUse" gradientTransform="matrix(111,-12,1.09091,10.0909,216,85)"><stop offset="0" style="stop-color:#499247;stop-opacity:1"/><stop offset="1" style="stop-color:#1b6219;stop-opacity:0"/></linearGradient></defs></svg>