<svg xmlns="http://www.w3.org/2000/svg" viewBox="0 0 350 350"><defs><radialGradient id="a" cx="174.99" cy="175" r="96" gradientTransform="matrix(0 -1 1.75 0 -131.26 349.99)" gradientUnits="userSpaceOnUse"><stop offset="0" stop-color="#cc7a78"/><stop offset="1" stop-color="#fff" stop-opacity="0"/></radialGradient></defs><path fill="#fff" d="M59.95 59.96h230.08v230.08H59.95z"/><path d="M69.49 69.5h211v211h-211z"/><path fill="#9a273f" d="M78.99 79h192v192h-192z"/><path fill="url(#a)" d="M78.99 79h192v192h-192z"/><g fill="#050708"><path d="M312.67 180.92a49.85 49.85 0 0 0-5.92-19.5s-8.91-17.46-32.92-28.58c-2.69-1.25-6.12-2.49-9.52-1.22a10.15 10.15 0 0 0-4.81 4.07 28.88 28.88 0 0 1-11.06-19.44 21.65 21.65 0 0 0 4.38-4.69 17.32 17.32 0 0 0 2.38-4.62 16.46 16.46 0 0 0 .81-4.77 34.9 34.9 0 0 1-8.94 13.46 9.13 9.13 0 0 0-.12 1.81c0 1.32.35 2 .14 2.12s-1.08-.62-1.45-1.56a3.76 3.76 0 0 1 .06-2.69 55.29 55.29 0 0 0 11.75-19.87A66.6 66.6 0 0 0 252 69.83a9.69 9.69 0 0 0 2.25-5.77c0-1.13-.18-5.18-7.44-10.56-14.07-10.43-31.19-9.81-31.19-9.81-17.22.62-29.37 9.83-35.94 14.81a79.61 79.61 0 0 0-12.81 12.19c0 1.27 0 2.65.13 4.13s.27 2.78.46 4a39.15 39.15 0 0 1-14.63 4.94q2.24.61 2.21 1-.07.83-9.37.88a37.92 37.92 0 0 0-38.24-18.55c1-.2 2.48-.46 4.23-.71 1.09-.15 2.31-.35 3.38-.41a23.76 23.76 0 0 1 6.78.56 37.19 37.19 0 0 0-13.06-1.4 36.58 36.58 0 0 0-6.19 1 8.6 8.6 0 0 0-3.82-2.63c-5.1-1.63-10.5 2.78-14.4 6-4.28 3.65-14.44 12.42-17.85 27.83a52 52 0 0 0-.84 16c.65 8.55 2.9 14.61 4.93 19.93 3.49 9.17 6.27 16.2 12.17 17.67a9.76 9.76 0 0 0 3.75.17 23.22 23.22 0 0 1-1.13 21.9 42.61 42.61 0 0 0-30.88 35.63 10.44 10.44 0 0 0-4.67 4.71 11 11 0 0 0-.42 7.17 53.09 53.09 0 0 0 11.83 23A55 55 0 0 0 82.08 257c13.35 5.13 24 3.82 34.25 2.56 5.58-.69 10.44-1.89 12.59-5.72a9.31 9.31 0 0 0 1.08-5 26.68 26.68 0 0 1 6.58.13 27.21 27.21 0 0 1 11.08 4.25 4.69 4.69 0 0 1 4.12-.71 4.43 4.43 0 0 1 2.38 2 6.94 6.94 0 0 0-.5 1.83 7.23 7.23 0 0 0 .58 3.83 31 31 0 0 0 3.31 19.47 29.36 29.36 0 0 0 6.56 8l-2.25.13a17 17 0 0 0 6.14 6.73c2.61 1.56 4.64 1.65 6.42 3.83s1.37 3.8 2 5.08c3 6.14 29.47 6.32 46.33-8.75 6.7-6 10.47-13.17 12.83-17.67 3.53-6.72 4.69-11.44 6.42-18.42.5-2 2.42-10.13-.25-14.67a14.71 14.71 0 0 0-2.08-2.67 13.22 13.22 0 0 0-5.08-3.08 31.75 31.75 0 0 1 13.92-19.79 11.08 11.08 0 0 0 8.13 1 47.07 47.07 0 0 0 16 2.2c4.21-.16 9.84-.38 15.91-3.74a29.32 29.32 0 0 0 7.83-6.33 8.27 8.27 0 0 0 5.08.75c8.06-1.67 12.21-18.48 11.21-31.32zm-57.12-42.58a30 30 0 0 1-8.21-9 33 33 0 0 1-2.74-6.34 34 34 0 0 1-1.18-5 32.26 32.26 0 0 0 13.33 19.5z"/><path d="M150 264.17q-.09 0-.11-7.7a28.22 28.22 0 0 0-3.67-2.59 29 29 0 0 0-10.62-3.72 25.17 25.17 0 0 1 2.89.36 28.12 28.12 0 0 1 7.89 2.83 30.45 30.45 0 0 1 4.39 2.84 2.73 2.73 0 0 0-.17.25 3 3 0 0 0-.25.55 2.44 2.44 0 0 0-.07.88 9.3 9.3 0 0 1-.06 1.17q-.11 5.13-.22 5.13zm8.08 23.58c-.1.1 6.39 6.85 6.59 6.67s-.35-.53-.23-.66 1.49.77 1.55.69-.78-.75-.78-.75c-2.37-1.91-4-3.13-5.2-4.19s-1.9-1.79-1.93-1.76zm83.42-54.92a19.79 19.79 0 0 1 1.42-2.85 20.92 20.92 0 0 1 7.15-7.06 37 37 0 0 0-8.56 9.92zM142.75 75.88C139.56 72.45 132 65.41 121 64.22a30.37 30.37 0 0 0-6.08 0 44.17 44.17 0 0 1 9.55 1.54 45.58 45.58 0 0 1 18.28 10.12z"/></g><path d="M57.75 216.88l8.88-3.28a27.4 27.4 0 1 0 27.5-30c16-1.55 28.65-8.85 31.89-19.36.44-1.43 2.08-6.76-.35-11.68-3.73-7.57-14.57-9.06-23.25-10.25a67.22 67.22 0 0 0-17.58-.08c-.76-1.11-18.44-27.71-5.84-52.14a44.46 44.46 0 0 1 16.75-17.46l6.25 6.79c-1.57.74-12.76 6.22-15.75 18.67a27.46 27.46 0 0 0 47.49 24.31c9-10.4 6.09-23.61 5.76-25a38.92 38.92 0 0 0 8.08 12.79c3.09 3.24 9.69 10.15 19.58 10.42 1.78 0 6.45.17 9.75-2 7.81-5.15 8.12-23.34-1.17-44.21a69.28 69.28 0 0 1 5.83-5.54c5.82-4.92 20.62-17.42 39.17-15.79 11.23 1 19.65 6.79 24.5 11l-4.75 7.57c-1-1-10.8-10.94-24.58-8.79a27.44 27.44 0 0 0-6.17 52.5c12.66 5.09 24.05-1.83 25.25-2.58a42.8 42.8 0 0 0-8.5 10.17c-2.69 4.5-6.93 11.57-5.42 20.33.25 1.44 1.34 7.78 5.26 11 7.36 6.06 25 1.42 41.65-14.09 21.09 9.07 35.29 26.12 35.85 44.42a39.85 39.85 0 0 1-4.23 18.79l-8.87-2.5a27.31 27.31 0 1 0-50.83-17.12c-1.93 14.86 9.51 24.36 10.15 24.88-14-7.76-28.5-8.95-37.06-2.16-1.14.9-5.54 4.39-6.33 9.87-1.14 7.92 6 14.8 12.5 21A68.39 68.39 0 0 0 234 248.13c-1.6 21.8-12.66 40.15-29.42 47a42.12 42.12 0 0 1-20.58 2.75l-.5-9a27.39 27.39 0 0 0 29.58-13.46c5.94-10.8 3.39-23.74-4.25-31.92a27.41 27.41 0 0 0-27.92-7.67c-12 3.76-16.57 14.77-17.17 16.29 3.07-15.6-.36-29.78-9.5-35.79-1.42-.93-5.2-3.42-9.86-2.91-11 1.21-17.57 18.17-20.73 26.33a79.51 79.51 0 0 0-3 9.63c-1.64.44-32.53 8.23-51.71-11.62a45 45 0 0 1-11.19-20.88z" fill="#fff"/><g fill="#9a273f"><circle cx="112.94" cy="104.6" r="10.85"/><circle cx="220.19" cy="90.19" r="10.85"/><circle cx="267.44" cy="187.27" r="10.85"/><circle cx="189.19" cy="262.19" r="10.85"/><circle cx="93.77" cy="210.85" r="10.85"/></g><path d="M189.67 170.17c-.22 6.85-6.32 14.31-14.75 14.42a15.24 15.24 0 0 1-15.17-15c-.07-8.92 8-15.38 15.08-15.25 5.47.1 9.31 4.17 10.25 5.17s4.76 5.03 4.59 10.66z" fill="#9a273f"/><path d="M174 152.75a17 17 0 0 0-13.65 7.93c-3 4.69-2.42 9.23-1.12 14.35a15.53 15.53 0 0 0 9.46 10.26c3.8 1.37 10.06 1.63 13.63-.28a17.17 17.17 0 0 0 9.17-17.39c-1.05-8.41-9.11-15.17-17.49-14.87zm1.71 29.75c-3.54 0-7.16-.34-9.71-3a14.17 14.17 0 0 1-3.79-8.83c-.55-7.36 3-13 10.6-14.29 6.33-1.06 17.31 3.83 16.7 11.28-.25 3.09-.73 7.62-3 9.95a10.87 10.87 0 0 1-5.09 2.78c-1.61.49-4.1 2.09-5.71 2.11zm-21.4-47.31a27.61 27.61 0 0 1 16.75-4.87 55.84 55.84 0 0 0-16.75 4.88zm-1.18 12.4a27 27 0 0 0-3.32 3.33 28.27 28.27 0 0 0-5.77 11.7 66.76 66.76 0 0 1 5.66-10.34c1.13-1.71 2.3-3.28 3.43-4.69zm5.31-4a3.49 3.49 0 0 1 3.47-1.94c-.53.25-1.08.53-1.66.84s-1.25.74-1.81 1.1zm9.13-3.49a2.09 2.09 0 0 1 1.12-.72 2.12 2.12 0 0 1 1.53.22 11.42 11.42 0 0 0-1.56.22c-.4.08-.76.18-1.09.28zm14.24.03a5.56 5.56 0 0 1 4.69 1.87c-.55-.3-1.15-.59-1.81-.87a22 22 0 0 0-2.88-1zm-10.34-7.39a26.26 26.26 0 0 1 21.53 5.32 38.37 38.37 0 0 0-21.53-5.32z" fill="#050708"/><path d="M176.19 130.66a23.26 23.26 0 0 1 10.47 2.16 22.46 22.46 0 0 1 3.94 2.38c-1.73-.71-3.58-1.4-5.53-2.05a90.83 90.83 0 0 0-8.88-2.49z" fill="#050708"/><path d="M215 160.11a31 31 0 0 0-1.6-4.86c.13.66.32 1.64.52 2.83 1 5.86 1.57 9.63.59 13.76a19.36 19.36 0 0 1-2 5.1c.14-2 .3-3.67.41-4.79a44.75 44.75 0 0 0-.12-9.28c0-.36-.16-1-.47-1.06s-.45.19-.58.35a53.66 53.66 0 0 1-2.33 16.68c0-.7.11-1.75.22-3 .46-5.46.94-6.95.72-9.5A17.17 17.17 0 0 0 209 161a44.67 44.67 0 0 1-.07 7.41c-.18 1.87-1.1 10.48-5.31 17.45-5.6 9.26-18 17.31-32 15.86-1.86-.19-14.49-1.71-22.53-12.57-9.16-12.38-6.45-28.95-2.47-34.68.43-.61 2.89-4 2.42-4.46-.31-.28-1.75.75-2.17 1-1.66 1.18-2.25 2.25-2.5 2.13s.14-2.33 1.33-4.54 2.86-3.92 5.42-6.46c1.43-1.42 2.48-2.34 2.33-2.54s-1.36.43-2.37 1c3.79-3.7 4.37-4.46 4.29-4.54-.25-.27-9 4.68-14.37 13.71-6 10-5.22 20.5-4.79 23.95a40.83 40.83 0 0 0 6.92 17.89 44.2 44.2 0 0 0 6.21 7.42 34.83 34.83 0 0 1-6.67-7.25c-3.56-5.22-5.46-11.19-6.46-14.33a28.12 28.12 0 0 0-1.37-4.08c-.07 0-.06.48.79 5.29s1.33 7 1.21 7a38.11 38.11 0 0 1-1.79-5.67A46 46 0 0 1 136 156a41.39 41.39 0 0 1 16.79-21.4c.85-.53 16.1-9.82 33-4.64 14.76 4.51 23.18 17.67 23.83 17 .4-.39-2.79-5.46-8-9.84-13.18-11.14-29.57-9.7-34.07-9.12a46.58 46.58 0 0 0-11.54 3 27.71 27.71 0 0 1 4.5-2.46c3.59-1.55 6.72-2 6.67-2.37s-1.53-.26-1.71-.25c-7 .06-15.18 5.74-15.18 5.74-3.37 2.34-8.65 6-12.69 11.6-7.95 11-10.94 29.2-3.08 44.08 10.95 20.74 39.28 28.07 58.5 18 17.61-9.23 22.05-29.42 22.54-34a37.24 37.24 0 0 0-.56-11.23zM160.27 206a34 34 0 0 1-8.73-5.33c6.29 4.25 10.55 5.6 12.88 6.1.91.2 3.68.74 6.42 1.23 4.11.74 4.94.79 4.94.83a37.38 37.38 0 0 1-15.51-2.83z" fill="#050708"/></svg>