<svg xmlns="http://www.w3.org/2000/svg" viewBox="0 0 350 350"><defs><linearGradient id="Unbenannter_Verlauf_24" x1="79.03" y1="175" x2="270.97" y2="175" gradientUnits="userSpaceOnUse"><stop offset="0" stop-color="#8f6692"/><stop offset="1" stop-color="#906693"/></linearGradient><linearGradient id="Unbenannter_Verlauf_32" x1="76.91" y1="195.03" x2="220.06" y2="195.03" gradientUnits="userSpaceOnUse"><stop offset="0" stop-color="#bcaebd"/><stop offset="1" stop-color="#8f6993"/></linearGradient><linearGradient id="Unbenannter_Verlauf_50" x1="238.16" y1="83.26" x2="238.16" y2="286.54" gradientUnits="userSpaceOnUse"><stop offset="0" stop-color="#fff"/><stop offset=".11" stop-color="#fcfbfc"/><stop offset=".23" stop-color="#f1eef2"/><stop offset=".36" stop-color="#e1d9e2"/><stop offset=".48" stop-color="#c9bbcb"/><stop offset=".6" stop-color="#ad97b0"/></linearGradient><radialGradient id="Unbenannter_Verlauf_53" cx="238.43" cy="177.11" fx="152.085" fy="157.784" r="88.48" gradientTransform="rotate(72.08 496.446 364.897) scale(1 3.12)" gradientUnits="userSpaceOnUse"><stop offset=".34" stop-color="#fff"/><stop offset=".4" stop-color="#fefdfe" stop-opacity=".98"/><stop offset=".46" stop-color="#faf8fa" stop-opacity=".94"/><stop offset=".53" stop-color="#f3f0f4" stop-opacity=".86"/><stop offset=".59" stop-color="#eae4eb" stop-opacity=".74"/><stop offset=".66" stop-color="#ded5df" stop-opacity=".6"/><stop offset=".73" stop-color="#d0c3d1" stop-opacity=".42"/><stop offset=".79" stop-color="#bfaec1" stop-opacity=".22"/><stop offset=".85" stop-color="#ad97b0" stop-opacity="0"/></radialGradient><style>.cls-1{fill:#fff}</style></defs><g id="Iana"><g id="Background"><path class="cls-1" d="M60 60h230v230H60z"/><path d="M69.53 69.53h210.93v210.93H69.53z"/><path fill="url(#Unbenannter_Verlauf_24)" d="M79.03 79.03h191.94v191.93H79.03z"/></g><path d="M73 276.54v-18.86a63.93 63.93 0 0121.76-31.91 94.6 94.6 0 00-.15-15.32c-.36-4-.9-7.11-1-7.73-1.84-9.67-14-16.12-28.47-26.34-27.34-19.29-31.31-29.64-32.21-36.46a28.39 28.39 0 01-.2-4.84c42-46.6 86.88-70 111.76-73.75 11.78-1.78 31-1 41.28-.53 6.35.27 14.49.81 23.47 5.25a48.11 48.11 0 016.63 4 147.61 147.61 0 0138 17.8c5 3.28 16.11 10.69 25.5 21.33 17.94 20.32 25.36 47.67 25 69-.75 41.15-30.84 80.55-76 98.38z"/><path class="cls-1" d="M97.62 210.08a34.69 34.69 0 00-4.09-14.38c-2.08-3.78-5.2-7.63-18.6-17-4.86-3.4-11.47-7.81-19.63-12.61a94.12 94.12 0 01.6-13.35c.71-6.23 1.77-10 1.16-10.18s-3.19 4.54-4.68 9.34a41.45 41.45 0 00-1.78 10.24c-.8-.56-1.67-1.21-2.57-2a30.7 30.7 0 01-2.62-2.57 56.26 56.26 0 011.68-13.11c.83-3.23 2.4-8.13 4.62-15.08 1.23-3.83 1.71-5.25 1.42-5.39-.77-.38-5.89 8.51-8.31 12.91-2.51 4.55-4.39 8.43-5.64 11.12a31.93 31.93 0 01-8.26-16.27 206.78 206.78 0 0110.78-24.27C50.36 91 58.38 75.66 72.56 64.56c20.41-16 44.33-16 60.33-16 20.43 0 46.4 0 63.75 19.23 14.44 16 15 36.72 14.84 44.59-6.47 1.37-13.47 2.6-20.94 3.58-8.69 1.14-16.87 1.78-24.42 2.09a115.83 115.83 0 008.41 31.88 113.06 113.06 0 006.33 12.66l-57.53 13.22c-1.5 3.78-3.18 7.73-5.08 11.8s-3.81 7.9-5.73 11.48l-6.07-.53a24.28 24.28 0 01-8.83 11.54z"/><path d="M170 122.12q7.77-.51 16.05-1.38c4.58-.49 9-1 13.35-1.65a74.47 74.47 0 00-1 9.69q-.09 2.81 0 5.34a47 47 0 009.23 8.77 47.57 47.57 0 0012.46 6.4 9.66 9.66 0 01-.46 3.23c-.62 1.91-1.72 3.16-3.89 5.27-1.59 1.55-3.61 3.43-6.06 5.47l7.45 7.45a11.79 11.79 0 01-1.32 2.71 12.12 12.12 0 01-1.91 2.24 10.69 10.69 0 011.84 2.57 6.83 6.83 0 011 3.22c-.1 2.9-4 4.67-4.23 4.76a14.6 14.6 0 00.2 3.49c.63 3.52 2.23 4.79 2.77 7.06.76 3.18-1 6.56-2.29 8.13-2.94 3.49-8.1 3.07-22.37 2l-19.71-1.44A71 71 0 00160 217.16a67.18 67.18 0 00-9.1 16.32 51.36 51.36 0 00-3 11.57c-.39 3-.58 4.54-.3 6.25.79 4.82 4.12 7.91 8.91 12.25a64.17 64.17 0 0010 7.41h-89.6a62.17 62.17 0 013.19-15.91 64.17 64.17 0 0117.71-26.58v-12.85a26.69 26.69 0 0011.85-12.82l5.68.37q2.31-4.33 4.59-8.95c2.53-5.1 4.83-10.09 6.93-14.93L186.49 165A130.24 130.24 0 01170 122.12z" fill="url(#Unbenannter_Verlauf_32)"/><path d="M232.22 83.26a74.66 74.66 0 0111.08 40.48c-1.32.41-2.74.8-4.26 1.15a58.29 58.29 0 01-6.29 1.09 39.19 39.19 0 00-2.51 20.18 53.25 53.25 0 0021.23 15.29 7.8 7.8 0 01-.26 3.77c-.61 1.82-1.77 2.81-4.12 4.9-1.18 1-3 2.71-5.37 4.88l6.59 7.29a5.75 5.75 0 01-.17 1.81 6.31 6.31 0 01-2.73 3.6 5.61 5.61 0 01-1.06 10.3c4.28 12.66 1.86 17.09.11 18.84-3.6 3.6-9.8 1.34-29.54.69-5.17-.17-9.42-.17-12.24-.14a74.79 74.79 0 00-8.87 9.19c-7.74 9.54-20.32 29.91-13.15 40.85a12.84 12.84 0 003.56 3.55h37.72c43.65-10.56 74.83-49.13 75.82-93.15.95-41.83-25.49-80.14-65.54-94.57z" fill="url(#Unbenannter_Verlauf_50)"/><path d="M232.49 83.26a74.43 74.43 0 0111.08 40.48c-1.32.41-2.74.8-4.25 1.15A58.87 58.87 0 01233 126a39.35 39.35 0 00-2.67 10.65 38.93 38.93 0 00.17 9.53 53.09 53.09 0 0011.3 10.11 52.52 52.52 0 009.93 5.18 7.82 7.82 0 01-.27 3.77c-.61 1.82-1.77 2.81-4.12 4.9-1.18 1-3 2.71-5.37 4.88l6.59 7.29a5.75 5.75 0 01-.17 1.81 6.31 6.31 0 01-2.73 3.6 5.61 5.61 0 01-1.03 10.28c4.27 12.66 1.85 17.09.1 18.84-3.6 3.6-9.8 1.34-29.54.69-5.17-.17-9.42-.17-12.24-.14a74.79 74.79 0 00-8.87 9.19c-7.74 9.54-20.32 29.91-13.15 40.85a12.84 12.84 0 003.56 3.55h37.72C265.87 260.4 297 221.83 298 177.81c1-41.81-25.46-80.12-65.51-94.55z" fill="url(#Unbenannter_Verlauf_53)"/><circle class="cls-1" cx="249.68" cy="185.18" r="1.39"/><path class="cls-1" d="M243.75 176.36a.84.84 0 10.84-.84.84.84 0 00-.84.84z"/><circle class="cls-1" cx="247.14" cy="198.42" r="1.27"/><circle class="cls-1" cx="249.68" cy="194.01" r="1.27"/><path class="cls-1" d="M252.23 191a1.37 1.37 0 10-1.37-1.36 1.36 1.36 0 001.37 1.36zm2.55-4.41a1.41 1.41 0 10-1.41-1.41 1.41 1.41 0 001.41 1.41zm-2.55-4.38a1.44 1.44 0 10-1.43-1.44 1.44 1.44 0 001.43 1.44zm-2.55-4.39a1.47 1.47 0 10-1.46-1.46 1.46 1.46 0 001.46 1.46zm-2.54-4.39a1.49 1.49 0 000-3 1.62 1.62 0 00-.54.1l-.78.71a1.41 1.41 0 00-.18.68 1.49 1.49 0 001.5 1.51z"/><circle class="cls-1" cx="249.68" cy="202.83" r="1.27"/><path class="cls-1" d="M252.23 199.73a1.31 1.31 0 10-1.31-1.31 1.31 1.31 0 001.31 1.31zm2.55-4.38a1.34 1.34 0 10-1.34-1.34 1.34 1.34 0 001.34 1.34zm2.55-4.35a1.37 1.37 0 10-1.33-1.4 1.37 1.37 0 001.33 1.4zm2.55-4.41a1.41 1.41 0 10-1.41-1.41 1.41 1.41 0 001.41 1.41zm-2.55-4.38a1.44 1.44 0 10-1.44-1.44 1.44 1.44 0 001.44 1.44zm-2.55-4.39a1.47 1.47 0 10-1.47-1.46 1.46 1.46 0 001.47 1.46zm-2.55-4.38a1.5 1.5 0 10-1.49-1.5 1.5 1.5 0 001.49 1.5zm-1.23-5.91a1.29 1.29 0 00-.44-1 10.33 10.33 0 01-1.73 2 1.28 1.28 0 00.84.33 1.33 1.33 0 001.33-1.33zm1.23 38.47a1.23 1.23 0 101.23 1.23 1.23 1.23 0 00-1.23-1.23z"/><circle class="cls-1" cx="254.78" cy="202.83" r="1.27"/><path class="cls-1" d="M257.33 199.73a1.31 1.31 0 10-1.31-1.31 1.31 1.31 0 001.31 1.31zm2.55-4.38a1.34 1.34 0 10-1.35-1.34 1.34 1.34 0 001.35 1.34zm2.54-4.35a1.37 1.37 0 10-1.37-1.36 1.36 1.36 0 001.37 1.36zm2.58-4.41a1.41 1.41 0 10-1.41-1.41 1.41 1.41 0 001.41 1.41z"/><circle class="cls-1" cx="262.42" cy="180.77" r="1.44"/><path class="cls-1" d="M259.88 177.82a1.47 1.47 0 10-1.47-1.46 1.46 1.46 0 001.47 1.46zm-4.05-5.88a1.5 1.5 0 101.5-1.49 1.5 1.5 0 00-1.5 1.49zm-1.05-2.89a1.52 1.52 0 10-1.52-1.52 1.52 1.52 0 001.52 1.52zm-2.55-4.67a1.27 1.27 0 100-2.53 1.2 1.2 0 00-.69.24 8.16 8.16 0 01-.06 2 1.18 1.18 0 00.75.29zm-2.55 46.09a1.19 1.19 0 101.2 1.19 1.19 1.19 0 00-1.2-1.19zm5.1 0a1.19 1.19 0 101.19 1.19 1.19 1.19 0 00-1.19-1.19zm2.55-4.47a1.23 1.23 0 101.23 1.23 1.23 1.23 0 00-1.23-1.23zm2.55-4.43a1.27 1.27 0 101.26 1.26 1.26 1.26 0 00-1.26-1.26zm2.54-1.84a1.31 1.31 0 10-1.31-1.31 1.31 1.31 0 001.31 1.31zm2.58-4.38a1.34 1.34 0 10-1.34-1.34 1.34 1.34 0 001.34 1.34zm2.52-4.35a1.37 1.37 0 10-1.37-1.36 1.36 1.36 0 001.37 1.36zm2.55-4.41a1.41 1.41 0 10-1.41-1.41 1.41 1.41 0 001.41 1.41zm-2.55-4.38a1.44 1.44 0 10-1.44-1.44 1.45 1.45 0 001.44 1.44zm-2.52-4.39a1.47 1.47 0 10-1.47-1.46 1.46 1.46 0 001.47 1.46zm-2.58-4.38a1.5 1.5 0 10-1.49-1.5 1.5 1.5 0 001.49 1.5zm-1.03-5.91a1.52 1.52 0 10-1.51 1.52 1.52 1.52 0 001.51-1.52z"/><circle class="cls-1" cx="257.33" cy="163.12" r="1.54"/><circle class="cls-1" cx="254.78" cy="158.7" r="1.57"/><path class="cls-1" d="M249.18 158.7a.51.51 0 10.5-.51.5.5 0 00-.5.51zm-2.04 56.3a1.1 1.1 0 101.1 1.1 1.1 1.1 0 00-1.1-1.1zm5.09-.08a1.16 1.16 0 101.16 1.15 1.15 1.15 0 00-1.16-1.15zm5.1 0a1.16 1.16 0 101.15 1.15 1.16 1.16 0 00-1.15-1.15zm2.55-4.45a1.19 1.19 0 101.19 1.19 1.19 1.19 0 00-1.19-1.19z"/><circle class="cls-1" cx="262.42" cy="207.25" r="1.23"/><path class="cls-1" d="M265 201.57a1.27 1.27 0 101.27 1.26 1.26 1.26 0 00-1.27-1.26zm2.52-1.84a1.31 1.31 0 10-1.31-1.31 1.31 1.31 0 001.31 1.31zm2.55-4.38a1.34 1.34 0 10-1.35-1.34 1.34 1.34 0 001.35 1.34zm2.55-4.35a1.37 1.37 0 10-1.37-1.36 1.37 1.37 0 001.37 1.36zm2.54-4.41a1.41 1.41 0 10-1.4-1.41 1.41 1.41 0 001.4 1.41zm-2.54-4.38a1.44 1.44 0 10-1.44-1.44 1.44 1.44 0 001.44 1.44zm-2.55-4.39a1.47 1.47 0 10-1.47-1.46 1.46 1.46 0 001.47 1.46zm-2.55-4.38a1.5 1.5 0 10-1.5-1.5 1.5 1.5 0 001.5 1.5zm-1.03-5.91a1.52 1.52 0 10-1.52 1.52 1.52 1.52 0 001.52-1.52z"/><circle class="cls-1" cx="262.42" cy="163.12" r="1.54"/><path class="cls-1" d="M258.3 158.7a1.58 1.58 0 101.58-1.57 1.58 1.58 0 00-1.58 1.57z"/><circle class="cls-1" cx="257.33" cy="154.29" r="1.6"/><circle class="cls-1" cx="252.23" cy="154.29" r="1.6"/><circle class="cls-1" cx="247.14" cy="154.29" r="1.58"/><circle class="cls-1" cx="242.04" cy="154.29" r=".79"/><path class="cls-1" d="M219.11 219.38a1.11 1.11 0 101.11 1.11 1.11 1.11 0 00-1.11-1.11zm5.1 0a1.11 1.11 0 101.1 1.11 1.11 1.11 0 00-1.1-1.11zm5.09.01a1.1 1.1 0 101.09 1.1 1.09 1.09 0 00-1.09-1.1zm5.1.04a1.06 1.06 0 100 2.11 1.06 1.06 0 000-2.11z"/><circle class="cls-1" cx="239.49" cy="220.49" r="1.07"/><path class="cls-1" d="M244.59 219.38a1.11 1.11 0 101.11 1.11 1.11 1.11 0 00-1.11-1.11zm5.09 0a1.11 1.11 0 101.11 1.11 1.11 1.11 0 00-1.11-1.11zm5.1 0a1.11 1.11 0 101.11 1.11 1.11 1.11 0 00-1.11-1.11zm5.1 0a1.11 1.11 0 101.1 1.11 1.11 1.11 0 00-1.1-1.11z"/><circle class="cls-1" cx="262.42" cy="216.07" r="1.15"/><path class="cls-1" d="M265 210.47a1.19 1.19 0 101.19 1.19 1.19 1.19 0 00-1.19-1.19z"/><circle class="cls-1" cx="267.52" cy="207.25" r="1.23"/><circle class="cls-1" cx="270.07" cy="202.83" r="1.27"/><path class="cls-1" d="M272.62 199.73a1.31 1.31 0 10-1.31-1.31 1.31 1.31 0 001.31 1.31zm2.54-4.38a1.34 1.34 0 10-1.34-1.34 1.34 1.34 0 001.34 1.34zm2.55-4.35a1.37 1.37 0 10-1.37-1.36 1.36 1.36 0 001.37 1.36zm2.55-4.41a1.41 1.41 0 10-1.41-1.41 1.41 1.41 0 001.41 1.41zm-2.55-4.38a1.44 1.44 0 10-1.44-1.44 1.45 1.45 0 001.44 1.44zm-2.55-4.39a1.47 1.47 0 10-1.47-1.46 1.46 1.46 0 001.47 1.46zm-2.54-4.38a1.5 1.5 0 10-1.5-1.5 1.5 1.5 0 001.5 1.5zm-1.03-5.91a1.52 1.52 0 10-1.52 1.52 1.52 1.52 0 001.52-1.52z"/><circle class="cls-1" cx="267.52" cy="163.12" r="1.54"/><path class="cls-1" d="M263.4 158.7a1.58 1.58 0 101.57-1.57 1.57 1.57 0 00-1.57 1.57z"/><circle class="cls-1" cx="262.42" cy="154.29" r="1.6"/><path class="cls-1" d="M258.26 149.88a1.62 1.62 0 101.62-1.62 1.61 1.61 0 00-1.62 1.62zm-5.09 0a1.61 1.61 0 101.61-1.62 1.61 1.61 0 00-1.61 1.62zm-5.1 0a1.62 1.62 0 101.61-1.62 1.61 1.61 0 00-1.61 1.62zm-1.87 0a1.61 1.61 0 10-1.61 1.61 1.62 1.62 0 001.61-1.61z"/><circle class="cls-1" cx="239.49" cy="149.88" r="1.57"/><path class="cls-1" d="M216.56 223.83a1.07 1.07 0 101.07 1.07 1.07 1.07 0 00-1.07-1.07zm5.1 0a1.07 1.07 0 101.07 1.07 1.07 1.07 0 00-1.07-1.07zm5.09 0a1.07 1.07 0 101.08 1.07 1.07 1.07 0 00-1.08-1.07zm5.1 0a1.07 1.07 0 101.07 1.07 1.07 1.07 0 00-1.07-1.07zm5.09 0a1.07 1.07 0 101.06 1.07 1.07 1.07 0 00-1.06-1.07zm5.06 0a1.07 1.07 0 101.07 1.07 1.07 1.07 0 00-1.07-1.07zm5.14 0a1.07 1.07 0 101.07 1.07 1.07 1.07 0 00-1.07-1.07zm5.09 0a1.07 1.07 0 101.07 1.07 1.07 1.07 0 00-1.07-1.07zm5.1 0a1.07 1.07 0 101.07 1.07 1.07 1.07 0 00-1.07-1.07zm5.09 0a1.07 1.07 0 101.08 1.07 1.07 1.07 0 00-1.08-1.07zm2.58-4.45a1.11 1.11 0 101.11 1.11 1.11 1.11 0 00-1.11-1.11z"/><circle class="cls-1" cx="267.52" cy="216.07" r="1.15"/><path class="cls-1" d="M270.07 210.47a1.19 1.19 0 101.19 1.19 1.19 1.19 0 00-1.19-1.19zm2.55-4.47a1.23 1.23 0 101.22 1.23 1.23 1.23 0 00-1.22-1.23z"/><circle class="cls-1" cx="275.16" cy="202.83" r="1.27"/><path class="cls-1" d="M277.71 199.73a1.31 1.31 0 10-1.31-1.31 1.31 1.31 0 001.31 1.31zm2.55-4.38a1.34 1.34 0 10-1.34-1.34 1.34 1.34 0 001.34 1.34zm2.55-4.35a1.37 1.37 0 10-1.37-1.36 1.37 1.37 0 001.37 1.36zm2.54-4.41a1.41 1.41 0 10-1.4-1.41 1.41 1.41 0 001.4 1.41zm-2.54-4.38a1.44 1.44 0 10-1.44-1.44 1.44 1.44 0 001.44 1.44zm-2.55-4.39a1.47 1.47 0 10-1.47-1.46 1.46 1.46 0 001.47 1.46zm-2.55-4.38a1.5 1.5 0 10-1.49-1.5 1.5 1.5 0 001.49 1.5zm-1.03-5.91a1.52 1.52 0 10-1.52 1.52 1.52 1.52 0 001.52-1.52z"/><circle class="cls-1" cx="272.62" cy="163.12" r="1.54"/><circle class="cls-1" cx="270.07" cy="158.7" r="1.57"/><circle class="cls-1" cx="267.52" cy="154.29" r="1.6"/><path class="cls-1" d="M263.36 149.88a1.62 1.62 0 003.23 0 1.62 1.62 0 10-3.23 0z"/><circle class="cls-1" cx="262.42" cy="145.46" r="1.64"/><path class="cls-1" d="M257.33 143.83a1.64 1.64 0 101.64 1.63 1.63 1.63 0 00-1.64-1.63zm-5.1 0a1.64 1.64 0 101.64 1.63 1.64 1.64 0 00-1.64-1.63z"/><circle class="cls-1" cx="247.14" cy="145.46" r="1.64"/><circle class="cls-1" cx="242.04" cy="145.46" r="1.64"/><path class="cls-1" d="M238.58 145.46a1.64 1.64 0 10-1.64 1.64 1.63 1.63 0 001.64-1.64zm-7.77 0a1 1 0 102.07 0 1 1 0 00-2.07 0zM214 219.38a1.11 1.11 0 101.11 1.11 1.11 1.11 0 00-1.11-1.11z"/><circle class="cls-1" cx="214.01" cy="229.31" r="1.02"/><circle class="cls-1" cx="219.11" cy="229.31" r="1.02"/><circle class="cls-1" cx="224.21" cy="229.31" r="1.02"/><path class="cls-1" d="M229.3 228.29a1 1 0 101 1 1 1 0 00-1-1z"/><circle class="cls-1" cx="234.4" cy="229.31" r="1.02"/><circle class="cls-1" cx="239.49" cy="229.31" r="1.02"/><path class="cls-1" d="M244.59 228.29a1 1 0 101 1 1 1 0 00-1-1z"/><circle class="cls-1" cx="249.68" cy="229.31" r="1.02"/><circle class="cls-1" cx="254.78" cy="229.31" r="1.02"/><circle class="cls-1" cx="259.88" cy="229.31" r="1.02"/><circle class="cls-1" cx="264.97" cy="229.31" r="1.02"/><path class="cls-1" d="M267.52 223.83a1.07 1.07 0 101.07 1.07 1.07 1.07 0 00-1.07-1.07zm2.55-4.45a1.11 1.11 0 100 2.21 1.11 1.11 0 000-2.21zm2.55-4.46a1.16 1.16 0 101.15 1.15 1.16 1.16 0 00-1.15-1.15zm2.54-4.45a1.19 1.19 0 101.2 1.19 1.19 1.19 0 00-1.2-1.19z"/><circle class="cls-1" cx="277.71" cy="207.25" r="1.23"/><path class="cls-1" d="M280.26 201.57a1.27 1.27 0 101.27 1.26 1.26 1.26 0 00-1.27-1.26zm2.55-1.84a1.31 1.31 0 10-1.31-1.31 1.31 1.31 0 001.31 1.31zm2.54-4.38A1.34 1.34 0 10284 194a1.34 1.34 0 001.35 1.35zm2.55-4.35a1.37 1.37 0 10-1.37-1.36 1.36 1.36 0 001.37 1.36zm2.55-4.41a1.41 1.41 0 10-1.41-1.41 1.41 1.41 0 001.41 1.41zm-2.55-4.38a1.44 1.44 0 10-1.43-1.44 1.44 1.44 0 001.43 1.44zm-2.55-4.39a1.47 1.47 0 10-1.46-1.46 1.46 1.46 0 001.46 1.46zm-2.54-4.38a1.5 1.5 0 10-1.5-1.5 1.5 1.5 0 001.5 1.5zm-1.03-5.91a1.52 1.52 0 10-1.52 1.52 1.52 1.52 0 001.52-1.52z"/><circle class="cls-1" cx="277.71" cy="163.12" r="1.54"/><circle class="cls-1" cx="275.16" cy="158.7" r="1.57"/><circle class="cls-1" cx="272.62" cy="154.29" r="1.6"/><path class="cls-1" d="M268.45 149.88a1.62 1.62 0 101.62-1.62 1.62 1.62 0 00-1.62 1.62z"/><circle class="cls-1" cx="267.52" cy="145.46" r="1.64"/><circle class="cls-1" cx="264.97" cy="141.05" r="1.66"/><circle class="cls-1" cx="259.88" cy="141.05" r="1.66"/><circle class="cls-1" cx="254.78" cy="141.05" r="1.66"/><circle class="cls-1" cx="249.68" cy="141.05" r="1.66"/><path class="cls-1" d="M246.25 141.05a1.66 1.66 0 10-1.66 1.66 1.66 1.66 0 001.66-1.66z"/><circle class="cls-1" cx="239.49" cy="141.05" r="1.66"/><circle class="cls-1" cx="234.4" cy="141.05" r="1.66"/><path class="cls-1" d="M208.92 219.38a1.11 1.11 0 100 2.21 1.11 1.11 0 000-2.21zm2.55 4.45a1.07 1.07 0 101.07 1.07 1.07 1.07 0 00-1.07-1.07zm0 8.91a1 1 0 101 1 1 1 0 00-1-1zm5.09 0a1 1 0 101 1 1 1 0 00-1-1zm5.1 0a1 1 0 101 1 1 1 0 00-1-1zm5.09 0a1 1 0 101 1 1 1 0 00-1-1zm5.1 0a1 1 0 100 2 1 1 0 000-2zm5.09 0a1 1 0 101 1 1 1 0 00-1-1zm5.06 0a1 1 0 101 1 1 1 0 00-1-1zm5.14 0a1 1 0 101 1 1 1 0 00-1-1zm5.09 0a1 1 0 101 1 1 1 0 00-1-1zm5.1 0a1 1 0 101 1 1 1 0 00-1-1zm5.09 0a1 1 0 101 1 1 1 0 00-1-1zm5.1 0a1 1 0 100 2 1 1 0 000-2z"/><circle class="cls-1" cx="270.07" cy="229.31" r="1.02"/><path class="cls-1" d="M272.62 223.83a1.07 1.07 0 101.07 1.07 1.07 1.07 0 00-1.07-1.07zm2.54-4.45a1.11 1.11 0 101.11 1.11 1.11 1.11 0 00-1.11-1.11z"/><circle class="cls-1" cx="277.71" cy="216.07" r="1.15"/><path class="cls-1" d="M280.26 210.47a1.19 1.19 0 101.19 1.19 1.19 1.19 0 00-1.19-1.19z"/><circle class="cls-1" cx="282.81" cy="207.25" r="1.23"/><circle class="cls-1" cx="285.35" cy="202.83" r="1.27"/><path class="cls-1" d="M287.9 199.73a1.31 1.31 0 10-1.31-1.31 1.31 1.31 0 001.31 1.31zm2.55-7.06a1.34 1.34 0 101.34 1.34 1.34 1.34 0 00-1.34-1.34zM293 191a1.37 1.37 0 10-1.37-1.36A1.37 1.37 0 00293 191zm2.55-7.21a1.4 1.4 0 101.39 1.39 1.4 1.4 0 00-1.39-1.39zm-2.55-4.46a1.44 1.44 0 101.43 1.44 1.45 1.45 0 00-1.43-1.44zm-2.55-4.44a1.47 1.47 0 101.47 1.47 1.47 1.47 0 00-1.47-1.47zm-2.55-4.44a1.5 1.5 0 101.5 1.49 1.49 1.49 0 00-1.5-1.49zm-1.03-2.92a1.52 1.52 0 10-1.52 1.52 1.52 1.52 0 001.52-1.52z"/><circle class="cls-1" cx="282.81" cy="163.12" r="1.54"/><path class="cls-1" d="M280.26 157.13a1.58 1.58 0 101.57 1.57 1.57 1.57 0 00-1.57-1.57z"/><circle class="cls-1" cx="277.71" cy="154.29" r="1.6"/><path class="cls-1" d="M273.55 149.88a1.62 1.62 0 003.23 0 1.62 1.62 0 10-3.23 0zm-.93-6.05a1.64 1.64 0 101.63 1.63 1.63 1.63 0 00-1.63-1.63z"/><circle class="cls-1" cx="270.07" cy="141.05" r="1.66"/><path class="cls-1" d="M267.52 135a1.68 1.68 0 101.67 1.68 1.67 1.67 0 00-1.67-1.68zm-5.1 0a1.68 1.68 0 101.68 1.68 1.68 1.68 0 00-1.68-1.68zm-5.09 0a1.68 1.68 0 101.67 1.68 1.68 1.68 0 00-1.67-1.68zm-5.1 0a1.68 1.68 0 101.68 1.68 1.68 1.68 0 00-1.68-1.68zm-5.09 0a1.68 1.68 0 101.67 1.68 1.68 1.68 0 00-1.67-1.68zm-6.77 1.64A1.67 1.67 0 10242 135a1.67 1.67 0 00-1.63 1.64zm-5.1 0a1.68 1.68 0 101.67-1.68 1.67 1.67 0 00-1.67 1.68zm-1.75 0a1.68 1.68 0 10-1.67 1.67 1.68 1.68 0 001.67-1.67zm-29.7 82.74a1.11 1.11 0 101.11 1.11 1.11 1.11 0 00-1.11-1.11zm2.55 4.45a1.07 1.07 0 101.07 1.07 1.07 1.07 0 00-1.07-1.07zm2.55 4.46a1 1 0 101 1 1 1 0 00-1-1z"/><circle class="cls-1" cx="208.92" cy="238.14" r=".94"/><circle class="cls-1" cx="214.01" cy="238.14" r=".94"/><circle class="cls-1" cx="219.11" cy="238.14" r=".94"/><circle class="cls-1" cx="224.21" cy="238.14" r=".94"/><circle class="cls-1" cx="229.3" cy="238.14" r=".94"/><circle class="cls-1" cx="234.4" cy="238.14" r=".94"/><circle class="cls-1" cx="239.49" cy="238.14" r=".94"/><circle class="cls-1" cx="244.59" cy="238.14" r=".94"/><circle class="cls-1" cx="249.68" cy="238.14" r=".94"/><circle class="cls-1" cx="254.78" cy="238.14" r=".94"/><circle class="cls-1" cx="259.88" cy="238.14" r=".94"/><circle class="cls-1" cx="264.97" cy="238.14" r=".94"/><circle class="cls-1" cx="270.07" cy="238.14" r=".94"/><path class="cls-1" d="M272.62 232.74a1 1 0 101 1 1 1 0 00-1-1z"/><circle class="cls-1" cx="275.16" cy="229.31" r="1.02"/><path class="cls-1" d="M277.71 223.83a1.07 1.07 0 101.07 1.07 1.07 1.07 0 00-1.07-1.07zm2.55-4.45a1.11 1.11 0 101.11 1.11 1.11 1.11 0 00-1.11-1.11z"/><circle class="cls-1" cx="282.81" cy="216.07" r="1.15"/><path class="cls-1" d="M285.35 210.47a1.19 1.19 0 101.2 1.19 1.19 1.19 0 00-1.2-1.19zm2.55-1.99a1.23 1.23 0 10-1.23-1.23 1.23 1.23 0 001.23 1.23z"/><circle class="cls-1" cx="290.45" cy="202.83" r="1.27"/><circle class="cls-1" cx="293" cy="198.42" r="1.3"/><path class="cls-1" d="M295.55 177.82a1.47 1.47 0 10-1.47-1.46 1.46 1.46 0 001.47 1.46zm-2.55-4.38a1.5 1.5 0 10-1.5-1.5 1.5 1.5 0 001.5 1.5zm-1-5.91a1.52 1.52 0 10-1.52 1.52 1.52 1.52 0 001.52-1.52z"/><circle class="cls-1" cx="287.9" cy="163.12" r="1.54"/><circle class="cls-1" cx="285.35" cy="158.7" r="1.57"/><circle class="cls-1" cx="282.81" cy="154.29" r="1.6"/><path class="cls-1" d="M280.26 148.26a1.62 1.62 0 101.61 1.62 1.62 1.62 0 00-1.61-1.62z"/><circle class="cls-1" cx="277.71" cy="145.46" r="1.64"/><circle class="cls-1" cx="275.16" cy="141.05" r="1.66"/><path class="cls-1" d="M272.62 135a1.68 1.68 0 101.67 1.68 1.68 1.68 0 00-1.67-1.68zm-4.25-2.77a1.7 1.7 0 101.7-1.7 1.7 1.7 0 00-1.7 1.7zm-5.09 0a1.7 1.7 0 101.69-1.7 1.69 1.69 0 00-1.69 1.7zm-5.1 0a1.7 1.7 0 101.7-1.7 1.7 1.7 0 00-1.7 1.7zm-5.1 0a1.7 1.7 0 101.7-1.7 1.7 1.7 0 00-1.7 1.7zm-5.08 0a1.7 1.7 0 101.69-1.7 1.69 1.69 0 00-1.69 1.7zm-5.11 0a1.7 1.7 0 101.7-1.7 1.7 1.7 0 00-1.7 1.7zm-3.4-1.7a1.7 1.7 0 101.7 1.7 1.7 1.7 0 00-1.7-1.7zm-5.09 3.39a1.7 1.7 0 10-1.7-1.69 1.69 1.69 0 001.7 1.69zm-34.83 86.57a.71.71 0 000-.21l-1 1a.71.71 0 00.21 0 .85.85 0 00.79-.79zm1.7 3.34a1.07 1.07 0 101.08 1.07 1.07 1.07 0 00-1.08-1.07z"/><circle class="cls-1" cx="203.82" cy="229.31" r="1.02"/><path class="cls-1" d="M206.37 232.74a1 1 0 101 1 1 1 0 00-1-1zm0 8.92a.89.89 0 10.89.89.89.89 0 00-.89-.89z"/><circle class="cls-1" cx="211.47" cy="242.55" r=".89"/><path class="cls-1" d="M216.56 241.66a.89.89 0 10.89.89.89.89 0 00-.89-.89zm5.1 0a.89.89 0 10.89.89.89.89 0 00-.89-.89z"/><circle class="cls-1" cx="226.75" cy="242.55" r=".89"/><path class="cls-1" d="M231.85 241.66a.89.89 0 10.89.89.89.89 0 00-.89-.89zm5.09 0a.89.89 0 10.89.89.88.88 0 00-.89-.89zm5.06 0a.89.89 0 10.89.89.89.89 0 00-.89-.89z"/><circle class="cls-1" cx="247.14" cy="242.55" r=".89"/><path class="cls-1" d="M252.23 241.66a.89.89 0 10.89.89.89.89 0 00-.89-.89zm5.1 0a.89.89 0 10.89.89.89.89 0 00-.89-.89z"/><circle class="cls-1" cx="262.42" cy="242.55" r=".89"/><circle class="cls-1" cx="267.52" cy="242.55" r=".88"/><path class="cls-1" d="M277.71 233a.7.7 0 100 1.39h.1l.58-.75a.68.68 0 00-.68-.64zm2.55-4.55a.87.87 0 10.87.86.86.86 0 00-.87-.86zm2.55-4.52a1 1 0 101 1 1 1 0 00-1-1z"/><circle class="cls-1" cx="285.35" cy="220.49" r=".97"/><path class="cls-1" d="M287.9 215.11a1 1 0 10.62 1.69.94.94 0 00.34-.73 1 1 0 00-.96-.96zm6.1-47.58a1.52 1.52 0 101.52-1.52 1.52 1.52 0 00-1.52 1.52z"/><circle class="cls-1" cx="293" cy="163.12" r="1.54"/><circle class="cls-1" cx="290.45" cy="158.7" r="1.57"/><circle class="cls-1" cx="287.9" cy="154.29" r="1.6"/><path class="cls-1" d="M285.35 148.26a1.62 1.62 0 101.62 1.62 1.62 1.62 0 00-1.62-1.62z"/><circle class="cls-1" cx="282.81" cy="145.46" r="1.64"/><path class="cls-1" d="M280.26 139.39a1.66 1.66 0 101.66 1.66 1.66 1.66 0 00-1.66-1.66zm-2.55-4.39a1.68 1.68 0 101.68 1.68 1.68 1.68 0 00-1.68-1.68zm-4.24-2.77a1.7 1.7 0 101.69-1.7 1.69 1.69 0 00-1.69 1.7zm-.85-6.13a1.71 1.71 0 101.7 1.71 1.71 1.71 0 00-1.7-1.71zm-5.1 0a1.71 1.71 0 101.71 1.71 1.72 1.72 0 00-1.71-1.71z"/><circle class="cls-1" cx="262.42" cy="127.81" r="1.71"/><path class="cls-1" d="M257.33 126.1a1.71 1.71 0 101.71 1.71 1.71 1.71 0 00-1.71-1.71zm-5.1 0a1.71 1.71 0 101.71 1.71 1.72 1.72 0 00-1.71-1.71z"/><circle class="cls-1" cx="247.14" cy="127.81" r="1.71"/><circle class="cls-1" cx="242.04" cy="127.81" r="1.71"/><path class="cls-1" d="M236.94 129.52a1.71 1.71 0 10-1.7-1.71 1.7 1.7 0 001.7 1.71zm-40.76 94.35h-.09c-.31.34-.62.69-.93 1.06a1 1 0 101-1.08z"/><circle class="cls-1" cx="198.73" cy="229.31" r="1.02"/><path class="cls-1" d="M201.27 232.74a1 1 0 101 1 1 1 0 00-1-1z"/><circle class="cls-1" cx="203.82" cy="238.14" r=".94"/><path class="cls-1" d="M203.82 246.12a.85.85 0 000 1.69.85.85 0 000-1.69zm5.1 0a.85.85 0 10.84.85.84.84 0 00-.84-.85zm5.08 0a.85.85 0 10.85.85.85.85 0 00-.85-.85zm5.11 0a.85.85 0 10.84.85.84.84 0 00-.84-.85zm5.1 0a.85.85 0 10.84.85.85.85 0 00-.84-.85zm5.09 0a.85.85 0 000 1.69.85.85 0 000-1.69zm5.1 0a.85.85 0 10.84.85.84.84 0 00-.84-.85zm5.09 0a.85.85 0 000 1.69.85.85 0 000-1.69zm5.1 0a.85.85 0 10.84.85.84.84 0 00-.84-.85zm5.09 0a.85.85 0 10.85.85.85.85 0 00-.85-.85zm5.1 0a.85.85 0 10.84.85.85.85 0 00-.84-.85zm5.1 0a.85.85 0 10.84.85.85.85 0 00-.84-.85zm5.12.13a.72.72 0 100 1.43.72.72 0 100-1.43zm29-87.55a1.52 1.52 0 002.44 1.22c-.15-.9-.31-1.78-.48-2.67a1.55 1.55 0 00-.43-.07 1.52 1.52 0 00-1.53 1.52z"/><circle class="cls-1" cx="293" cy="154.29" r="1.6"/><path class="cls-1" d="M292.06 149.88a1.61 1.61 0 10-1.61 1.61 1.62 1.62 0 001.61-1.61zm-4.16-6.05a1.64 1.64 0 101.64 1.63 1.64 1.64 0 00-1.64-1.63z"/><circle class="cls-1" cx="285.35" cy="141.05" r="1.66"/><path class="cls-1" d="M282.81 135a1.68 1.68 0 101.67 1.68 1.68 1.68 0 00-1.67-1.68zm-2.55-4.47a1.7 1.7 0 101.69 1.7 1.7 1.7 0 00-1.69-1.7zm-2.55-4.43a1.71 1.71 0 101.71 1.71 1.72 1.72 0 00-1.71-1.71z"/><circle class="cls-1" cx="275.16" cy="123.4" r="1.72"/><circle class="cls-1" cx="270.07" cy="123.4" r="1.72"/><path class="cls-1" d="M263.25 123.4a1.72 1.72 0 101.72-1.72 1.72 1.72 0 00-1.72 1.72z"/><circle class="cls-1" cx="259.88" cy="123.4" r="1.72"/><circle class="cls-1" cx="254.78" cy="123.4" r="1.72"/><circle class="cls-1" cx="249.68" cy="123.4" r="1.72"/><path class="cls-1" d="M244.59 125.12a1.72 1.72 0 000-3.44 1.69 1.69 0 00-1.29.59v1.48l-.36.1a1.72 1.72 0 001.65 1.27zm-3.87-.65l-1.68.43h-.14a1.67 1.67 0 00.59.11 1.6 1.6 0 001.23-.54zm-47.09 103.82a1 1 0 000 2.05 1 1 0 100-2.05zm2.55 4.45a1 1 0 101 1 1 1 0 00-1-1z"/><circle class="cls-1" cx="198.73" cy="238.14" r=".94"/><path class="cls-1" d="M201.27 241.66a.89.89 0 10.89.89.89.89 0 00-.89-.89zm0 8.92a.8.8 0 00-.79.8.8.8 0 001.59 0 .8.8 0 00-.8-.8zm5.1 0a.79.79 0 00-.79.8.79.79 0 001.58 0 .79.79 0 00-.79-.8zm5.1 0a.8.8 0 00-.8.8.8.8 0 10.8-.8zm5.09 0a.79.79 0 00-.79.8.79.79 0 00.79.79.79.79 0 00.8-.79.8.8 0 00-.8-.8zm5.1 0a.8.8 0 00-.8.8.79.79 0 00.8.79.79.79 0 00.79-.79.79.79 0 00-.79-.8zm5.09 0a.79.79 0 00-.79.8.79.79 0 00.79.79.79.79 0 00.8-.79.8.8 0 00-.8-.8zm5.1 0a.8.8 0 00-.8.8.79.79 0 00.8.79.79.79 0 00.79-.79.79.79 0 00-.79-.8zm5.09 0a.8.8 0 00-.79.8.8.8 0 001.59 0 .8.8 0 00-.8-.8zm5.06 0a.79.79 0 00-.79.8.79.79 0 001.58 0 .79.79 0 00-.79-.8zm5.14 0a.8.8 0 00-.8.8.79.79 0 00.8.79.79.79 0 00.79-.79.79.79 0 00-.79-.8zm5.09 0a.79.79 0 00-.79.8.79.79 0 00.79.79.79.79 0 00.8-.79.8.8 0 00-.8-.8z"/><circle class="cls-1" cx="257.33" cy="251.38" r=".78"/><path class="cls-1" d="M262.42 251.38h.01-.01zM293 147a1.65 1.65 0 00.38 0c-.31-1-.62-1.92-.95-2.87A1.51 1.51 0 00293 147zm-4.2-5.95a1.64 1.64 0 002.91 1c-.33-.9-.67-1.79-1-2.67a1.6 1.6 0 00-.23 0 1.65 1.65 0 00-1.68 1.67zm-2.57-4.41a1.67 1.67 0 003.34.11c-.22-.49-.45-1-.67-1.45a1.65 1.65 0 00-1-.34 1.68 1.68 0 00-1.67 1.68zm-2.57-4.41a1.7 1.7 0 101.69-1.7 1.69 1.69 0 00-1.69 1.7zm-2.56-4.42a1.71 1.71 0 101.71-1.71 1.7 1.7 0 00-1.71 1.71zm-2.56-4.41a1.72 1.72 0 101.72-1.72 1.72 1.72 0 00-1.72 1.72zm-.83-2.68a1.73 1.73 0 001.73-1.71c-.4-.56-.79-1.12-1.2-1.67a1.84 1.84 0 00-.53-.09 1.74 1.74 0 000 3.47zm-5.09 0a1.74 1.74 0 10-1.74-1.73 1.74 1.74 0 001.74 1.73zm-5.1 0a1.74 1.74 0 10-1.73-1.73 1.73 1.73 0 001.73 1.73z"/><circle class="cls-1" cx="262.42" cy="118.99" r="1.73"/><path class="cls-1" d="M257.33 120.72a1.74 1.74 0 10-1.74-1.73 1.73 1.73 0 001.74 1.73zm-5.1 0a1.74 1.74 0 10-1.73-1.72 1.74 1.74 0 001.73 1.72z"/><circle class="cls-1" cx="247.14" cy="118.99" r="1.73"/><path class="cls-1" d="M191.08 232.74a1 1 0 101 1 1 1 0 00-1-1zm2.55 4.46a.94.94 0 10.94.94.94.94 0 00-.94-.94zm2.55 4.46a.89.89 0 10.89.89.89.89 0 00-.89-.89zm2.55 4.46a.85.85 0 10.84.85.85.85 0 00-.84-.85zm0 8.93a.74.74 0 100 1.48.74.74 0 000-1.48zm5.09 0a.74.74 0 10.74.74.74.74 0 00-.74-.74zm5.1 0a.74.74 0 10.74.74.74.74 0 00-.74-.74zm5.08 0a.74.74 0 100 1.48.74.74 0 100-1.48zm5.11 0a.74.74 0 10.74.74.74.74 0 00-.74-.74zm5.1 0a.74.74 0 100 1.48.74.74 0 000-1.48zm5.09 0a.74.74 0 10.74.74.74.74 0 00-.74-.74zm5.1 0a.74.74 0 100 1.48.74.74 0 000-1.48zm5.09 0a.74.74 0 100 1.48.74.74 0 100-1.48zm5.1 0a.74.74 0 10.74.74.74.74 0 00-.74-.74zm5.09 0a.74.74 0 100 1.48.74.74 0 100-1.48z"/><circle class="cls-1" cx="188.53" cy="238.14" r=".94"/><circle class="cls-1" cx="191.08" cy="242.55" r=".89"/><path class="cls-1" d="M193.63 246.12a.85.85 0 000 1.69.85.85 0 000-1.69zm2.55 4.46a.8.8 0 00-.8.8.79.79 0 00.8.79.79.79 0 00.79-.79.79.79 0 00-.79-.8zm0 8.94a.68.68 0 00-.69.68.69.69 0 001.38 0 .68.68 0 00-.69-.68zm5.09 0a.67.67 0 00-.68.68.68.68 0 00.68.69.69.69 0 00.69-.69.68.68 0 00-.69-.68zm5.1 0a.68.68 0 00-.69.68.69.69 0 001.38 0 .68.68 0 00-.69-.68zm5.1 0a.68.68 0 00-.69.68.69.69 0 00.69.69.68.68 0 00.68-.69.67.67 0 00-.68-.68zm5.09 0a.68.68 0 00-.69.68.69.69 0 001.38 0 .68.68 0 00-.69-.68zm5.1 0a.68.68 0 00-.69.68.69.69 0 00.69.69.68.68 0 00.68-.69.67.67 0 00-.68-.68zm5.09 0a.67.67 0 00-.68.68.68.68 0 00.68.69.69.69 0 00.69-.69.68.68 0 00-.69-.68zm5.1 0a.68.68 0 00-.69.68.69.69 0 001.38 0 .68.68 0 00-.69-.68zm5.09 0a.68.68 0 00-.68.68.69.69 0 10.68-.68zm5.06 0a.68.68 0 00-.69.68.69.69 0 001.38 0 .68.68 0 00-.69-.68zm-56-17.86a.89.89 0 10.89.89.89.89 0 00-.89-.89zm2.53 4.46a.85.85 0 10.85.85.85.85 0 00-.85-.85zm2.55 4.46a.79.79 0 00-.79.8.79.79 0 00.79.79.79.79 0 00.8-.79.8.8 0 00-.8-.8zm2.55 4.47a.74.74 0 10.74.74.74.74 0 00-.74-.74z"/><circle class="cls-1" cx="193.63" cy="264.62" r=".63"/><circle class="cls-1" cx="198.73" cy="264.62" r=".63"/><circle class="cls-1" cx="203.82" cy="264.62" r=".63"/><circle class="cls-1" cx="208.92" cy="264.62" r=".63"/><circle class="cls-1" cx="214.01" cy="264.62" r=".63"/><circle class="cls-1" cx="219.11" cy="264.62" r=".63"/><circle class="cls-1" cx="224.21" cy="264.62" r=".63"/><path class="cls-1" d="M229.3 264a.64.64 0 00-.63.64.63.63 0 00.63.63.64.64 0 00.64-.63.64.64 0 00-.64-.64z"/><circle class="cls-1" cx="234.4" cy="264.62" r=".63"/><path class="cls-1" d="M183.44 246.12a.85.85 0 10.84.85.84.84 0 00-.84-.85zm2.56 4.46a.8.8 0 00-.8.8.79.79 0 00.8.79.79.79 0 00.79-.79.79.79 0 00-.79-.8zm2.53 4.47a.74.74 0 100 1.48.74.74 0 100-1.48zm2.55 4.47a.67.67 0 00-.68.68.68.68 0 00.68.69.69.69 0 00.69-.69.68.68 0 00-.69-.68z"/><circle class="cls-1" cx="191.08" cy="269.03" r=".59"/><path class="cls-1" d="M196.18 268.44a.59.59 0 000 1.18.59.59 0 000-1.18zm5.09 0a.59.59 0 10.59.59.59.59 0 00-.59-.59zm5.1 0a.59.59 0 10.59.59.6.6 0 00-.59-.59z"/><circle class="cls-1" cx="211.47" cy="269.03" r=".59"/><path class="cls-1" d="M216.56 268.44a.59.59 0 10.59.59.59.59 0 00-.59-.59z"/><circle class="cls-1" cx="221.66" cy="269.03" r=".57"/><path class="cls-1" d="M180.89 250.58a.79.79 0 00-.79.8.79.79 0 00.79.79.79.79 0 00.8-.79.8.8 0 00-.8-.8zm2.55 4.47a.74.74 0 10.74.74.74.74 0 00-.74-.74zm2.56 4.47a.68.68 0 00-.69.68.69.69 0 00.69.69.68.68 0 00.68-.69.67.67 0 00-.68-.68z"/><circle class="cls-1" cx="188.53" cy="264.62" r=".63"/><path class="cls-1" d="M180.89 259.52a.68.68 0 00-.69.68.69.69 0 101.38 0 .68.68 0 00-.69-.68z"/><circle class="cls-1" cx="183.44" cy="264.62" r=".63"/><path class="cls-1" d="M186 268.44a.59.59 0 10.58.59.59.59 0 00-.58-.59zm110.6-96.5a1.49 1.49 0 001.14 1.45c0-1-.06-1.91-.11-2.86a1.48 1.48 0 00-1.03 1.41zm-.13 8.83a1.44 1.44 0 001.08 1.39c.06-.93.1-1.87.13-2.8a1.42 1.42 0 00-1.21 1.41zM293.78 194a1.32 1.32 0 002 1.17c.14-.67.27-1.34.4-2a1.34 1.34 0 00-2.37.85zm-3.72 16.64a1.19 1.19 0 100 2.38h.15c.27-.63.51-1.26.76-1.9a1.17 1.17 0 00-.91-.48zm1.23-3.39a1.2 1.2 0 00.72 1.1c.27-.74.54-1.48.79-2.23a1.23 1.23 0 00-.32-.07 1.19 1.19 0 00-1.19 1.2zm-44.15-1.2a1.18 1.18 0 00-.69.25c.11.73.18 1.41.22 2a1.2 1.2 0 10.47-2.3zM239.49 264a.64.64 0 00-.63.64.61.61 0 00.24.48l.32-.15.38-.17.32-.14a.64.64 0 00-.63-.66zm7.65-4.48a.68.68 0 00-.69.68.69.69 0 00.69.69.68.68 0 00.68-.69.67.67 0 00-.68-.68zm7.64-4.47a.74.74 0 00-.23 1.44c.32-.22.65-.43 1-.66a.74.74 0 00-.77-.78z"/><circle class="cls-1" cx="226.75" cy="269.03" r=".57"/></g></svg>