<svg xmlns="http://www.w3.org/2000/svg" viewBox="0 0 350 350"><path d="M290 290h-93l-22 23.13L153 290H60V86l48.5-48.17L131 60h88l22.5-22.17L290 85.92z" fill="#fff"/><path d="M280.5 280.5H194L175 300l-19-19.5H69.5v-191l39-38.83q9.25 9.4 18.5 18.83h96q9.25-9.42 18.5-18.83l39 38.83z"/><path d="M271 271H79V91.67L108.5 64 123 79h104l14.5-15L271 91.75V271z" fill="#28c1cd"/><path d="M126.81 117.82c2.9.75 16.7 10.08 20.85 12.61 5 3 12.9 6.52 25.32 7.91a61.54 61.54 0 01-7.55.66c-1.72 0-3.35 0-4.88-.07a67.5 67.5 0 0014.34.93 68.22 68.22 0 0010.44-1.27 20.32 20.32 0 01-2.37 1.16 22.72 22.72 0 01-9.12 1.46 64.86 64.86 0 01-28.42-5.37 69.39 69.39 0 0016.94 5.83c1.86.38 3.66.66 5.38.87l-.91.17c-1.05.18-2.07.32-3.05.43q4.23.15 8.87.05c1.87-.05 3.7-.13 5.47-.23a26.41 26.41 0 01-3.2-.32c-.75-.12-1.45-.26-2.11-.43a47.64 47.64 0 008-.84c2.31-.43 7.2-1.54 18.19-7.08 3.52-1.79 8.09-4.23 13.3-7.42a73.29 73.29 0 01-29.44 15.43 74.34 74.34 0 0020.14-6 76 76 0 0028.25-22.63H125.1a4 4 0 00.47 3.43 2.54 2.54 0 001.24.72zM79 219.24q6.5 6.07 13.09 12.46 5.22 5.07 10.24 10.09c-.92-.47-1.84-1-2.77-1.48a90.52 90.52 0 01-12-8 45 45 0 0011.07 9.28 59.85 59.85 0 0110.94 8.57c.4.4 1 1 .92 1.16-.33.42-8.91-6-12.54-8.68a689.5 689.5 0 01-19-14.68v1.87q5.06 3.81 10.32 8.26c2 1.68 3.87 3.34 5.69 5-.65-.33-1.31-.67-2-1a52.81 52.81 0 01-7.81-5.29c3 2.59 5.43 4.64 7.15 6 3 2.44 4.21 3.31 7.29 5.83 2.82 2.3 4.87 4.07 6.72 5.68 4.87 4.22 10 8.13 14.64 12.61.35.34 2.45 2.38 2.82 2.08s-1.22-2.67-.94-2.87 1.26 1.08 3.23 3c.84.81 1.55 1.46 2 1.88a13.27 13.27 0 00-.94-2.26c-1.81-3.46-4.52-5-8.06-7.27-1.79-1.14-5-3.43-11.57-8a65.66 65.66 0 01-5.83-4.45 57.76 57.76 0 01-5-4.94 69.63 69.63 0 0011.52 7.81c2.31 1.25 2.45 1.16 4.55 2.32 5.28 2.93 8 5.5 13 9.4 2.35 1.85 5.74 4.44 10 7.4h9L79 215.18zM213.66 271c3.81-2.65 7.21-5 10.09-7 10.43-7.21 9.49-6.52 10.27-7.09 3.45-2.51 5.46-4.12 5.66-3.9s-1.14 1.68-4.13 4.94-5.45 5.91-7.06 7.63c2.17-1.63 3.87-3 5-3.92 5.53-4.61 9-8.31 15.62-13.51 1.75-1.39 2.34-1.79 2.4-1.72s-5.22 5.28-7.68 7.58c-4.37 4.09-10.7 9.89-18.86 17h1.78c9.12-7.75 11.89-9.88 12-9.73s-3 3.39-4.5 5c-1.28 1.33-1.88 1.91-1.85 1.95s4.53-3.84 10-8.47c8.53-7.23 9.74-7.77 16.52-13.47 3.18-2.66 5.11-4.39 7-5.42a17.9 17.9 0 002.6-1.82c1.33-1 1.76-1.57 1.68-1.69s-.5.17-1.22.11a2.57 2.57 0 01-.79-.2 8.15 8.15 0 011.52-1.32 7.28 7.28 0 011.36-.72v-1.78a49.94 49.94 0 00-4.2 3.1c-2.43 2-2.5 2.42-6.82 6.49a75.39 75.39 0 00-5.5 5.31c-.66.75-1.15 1.37-2.1 2.3a35.57 35.57 0 01-4 3.34c-1.24.93-3 2.31-5.21 4.12L271 229.53v-14.35L205.2 271z" fill="#0897ae"/><path fill="#fff" d="M79 95.36v96.95l96 94.78 96-94.78V95.33l-96 81.52-96-81.49z"/><path d="M60 126.18l16 10.38v23.08c2 2.24 4.87 5.5 8.61 9.26 10 10 14.94 15 20.57 17.31 9.42 3.83 18.77 1.77 33.13-1.39a115.41 115.41 0 0015.23-4.45L60 117.18zm38.21 24.62l36.59 23.47a21.91 21.91 0 01-36.59-23.47zM175 191.35l-12.31 24.13L175 277.86l12.3-62.38-12.3-24.13zm0-14.5l99.05-84.1-14.24-14.25L175 163.92 90.17 78.5 75.92 92.75l99.08 84.1zm21.53 3.52a115.87 115.87 0 0015.23 4.45c14.36 3.16 23.7 5.22 33.12 1.39 5.63-2.29 10.61-7.3 20.56-17.31 3.74-3.76 6.66-7 8.6-9.26v-23.08l16-10.38v-9zm46.93-1.48a22.08 22.08 0 01-28.28-4.62l36.59-23.47a22.11 22.11 0 01-8.31 28.09z"/><path d="M175 287.09l-98.29-97.03v23.18L156 280.5l19 19.5 19-19.5 79.29-67.26v-23.18L175 287.09z"/><g><path d="M119.44 110.12a84.27 84.27 0 0013.19-4.12c10.49-4.21 13-7.69 22.15-11.43C159.27 92.77 166 90 174.73 90c10.68-.06 19.07 4 25.28 7 8.07 3.88 10.65 6.85 19.92 10.14a75.33 75.33 0 0011.33 3.05c-.45.37-1.13.91-2 1.52a47.38 47.38 0 01-15 7.18c-11.81 3.5-10.68 7.22-25.05 12.14-8.08 2.76-12.25 3-14.67 2.93-1.62 0-5.6-.19-13.68-2.93-17.21-5.86-23.9-13.54-31.78-15a15.45 15.45 0 01-7-3 14 14 0 01-2.64-2.91z"/><circle cx="175" cy="111.57" r="17" fill="#fff"/><circle cx="175" cy="111.8" r="8.5" fill="#0496a7"/></g></svg>