<svg xmlns="http://www.w3.org/2000/svg" xmlns:xlink="http://www.w3.org/1999/xlink" viewBox="0 0 350 350"><defs><linearGradient id="Unbenannter_Verlauf_19" x1="83" y1="181.73" x2="267" y2="181.73" gradientUnits="userSpaceOnUse"><stop offset="0" stop-color="#8e6694"/><stop offset="1" stop-color="#5d445c"/></linearGradient><linearGradient id="Unbenannter_Verlauf_37" x1="228.72" y1="92.2" x2="261.07" y2="92.2" gradientUnits="userSpaceOnUse"><stop offset="0" stop-color="#3d3c3d"/><stop offset="1" stop-color="#0f0f0f"/></linearGradient><linearGradient id="Unbenannter_Verlauf_37-2" x1="189.25" y1="118.75" x2="249.24" y2="118.75" xlink:href="#Unbenannter_Verlauf_37"/><linearGradient id="Unbenannter_Verlauf_37-3" x1="157.51" y1="150.93" x2="219.79" y2="150.93" xlink:href="#Unbenannter_Verlauf_37"/><linearGradient id="Unbenannter_Verlauf_37-4" x1="163" y1="271.05" x2="201.95" y2="271.05" xlink:href="#Unbenannter_Verlauf_37"/><linearGradient id="Unbenannter_Verlauf_37-5" x1="126.77" y1="207.48" x2="199.71" y2="207.48" xlink:href="#Unbenannter_Verlauf_37"/><style>.cls-1{fill:#fff}</style></defs><g id="Oryx"><g id="Background"><path class="cls-1" d="M60 60h230v230H60z"/><path d="M280.47 280.47H223.9a25 25 0 006.33-19.34l-82.55-.39L161 280.47H69.53V115.4c10.79 3.11 14.81 2 16.28 0 3-4-4-12.3-11.93-33.17-1.93-5.1-3.36-9.47-4.35-12.7h210.94z"/><path d="M267 83H83v184h68.91l9.09 13.47h62.9a24.87 24.87 0 004-6.05 25.25 25.25 0 002.2-7.42H267z" fill="url(#Unbenannter_Verlauf_19)"/></g><g id="Head"><path d="M271.88 187a18.07 18.07 0 01-6.89-.79c-.23-.09-1.12-.44-1.32-.17s1 1.88.94 2-.74-1.13-1.86-1.32a3.1 3.1 0 00-1.75.28c-.91.4-1.33 1-1.55.83s.15-1-.1-1.13-.7.53-1.41.89c-1.77.9-3.93-.68-4.49.07-.24.33.09.77-.16 1-.43.31-1.33-1-2.64-.89-.53.05-.62.29-1.38.36a4.3 4.3 0 01-1.39-.13 16.26 16.26 0 00-3.23-.53 10 10 0 00-3.09.82c-1.62.57-2.82 1.16-2.94 1s.61-.59.49-.89-1.16-.2-2.47-.13c-.74 0-1.81.06-3.13 0 .35.43.73 1 .54 1.35s-1.16.18-2 .25c-2.22.22-3 3-5.58 5.69a17.29 17.29 0 01-4.1 3.16c2.48 0 4.5 0 5.9-.1a30.78 30.78 0 013.29-.08c0 .07-1.81.19-1.81.34a12.62 12.62 0 003.4.3 31.66 31.66 0 004.48-.23 19.64 19.64 0 013.2-.4c0 .12-1 .39-.92.56s1.47 0 3.66-.06a15.91 15.91 0 013.52 0c0 .08-.94.16-.94.28a7.94 7.94 0 002.66.28c1 0 1.36-.06 2.44-.07s1.75.06 2.24.1c-1.67 0-2.05.12-2.05.19s.11.09 1.11.3 1.35.28 2 .37 1.37.18 2.25.23c.81-.13 1.74-.25 1.79-.08s-.39.38-.79.52c-1 .34-1.45-.11-2.59 0-.85.08-.79.35-1.84.53a7.52 7.52 0 01-2.32 0 31.57 31.57 0 00-3.56-.11l.62.32c-.17 0-.43 0-.73.05a10.44 10.44 0 01-2.05 0 4.5 4.5 0 01-1.79-.7 1.19 1.19 0 00.12.22 1.3 1.3 0 00.68.52l-1.53-.11a6.91 6.91 0 01-.86-.06c-.74-.14-.88-.38-1.21-.28s-.32.48-.81.75a1.68 1.68 0 01-1.12.15c-.79-.13-.93-.65-1.4-.57s-.48.61-1 .87a1.77 1.77 0 01-1.43-.07c.47-.35.56-.52.52-.61s-1-.26-1.68.2c-.35.26-.3.43-.68.68-.56.35-1.27.36-1.35.18s.17-.22.13-.36c-.07-.3-1.11-.51-1.51-.09s.05 1.15-.24 1.35c-.12.09-.31 0-1.36-.63-.89-.55-1.24-.81-1.52-.67-.11.05-.17.17-.29.42a1.46 1.46 0 00-.22 1c.15.51.89.59.86.72a1.64 1.64 0 01-1.79-.33c-.21-.31-.15-.75-.48-1.55a.64.64 0 00-.2-.28.92.92 0 00-.94.07c-.28.17-.25.34-.5.53a1.49 1.49 0 01-.91.22 7.14 7.14 0 01-2.25-.3 5.1 5.1 0 00-3.38.42 31.44 31.44 0 01-7 6.54c-.48 4-.87 8.19-1.14 12.61-.23 4-.35 7.76-.38 11.38 1.89.08 2.59 0 2.61-.1s-.57-.26-.55-.35a8.45 8.45 0 012 .14 4 4 0 011.2-.14c.36.08.34.26.79.49a2.51 2.51 0 001.7.25c.62-.17 1-.66 1.13-.55s-.1.26 0 .41.72 0 1.51 0a10.35 10.35 0 011.38.14c1.28.16 1.41.23 1.86.27a5.59 5.59 0 002.42-.38.9.9 0 01-.32.56c-.19.14-.4.13-.39.17s.26 0 .66.06c.71 0 .79.07.94 0s.17-.33.46-.6.72-.41.84-.28-.2.44-.08.7 1.19.28 1.51.25c1.13-.12 2-.55 2-.42s-.32.26-.28.41c.07.33 2 .12 3.39.08a20.5 20.5 0 014.58.41 5.56 5.56 0 01-1.44.26c-.88 0-1.16-.15-2.14-.12s-.77.18-1.51.19c-1.26 0-1.93-.4-2.08-.16s.79 1.35.75 1.38a3.49 3.49 0 00-1.32-1.09c-.48-.18-.52 0-1.62-.12-.87-.11-1.29-.28-1.47 0s.09.61-.1.79-.75-.07-1-.19c-.63-.3-.86-.65-1.07-.56s-.06.46-.29.62-.53-.22-1.14-.27-.47.2-1.38.32c-.29 0-.36 0-.79.09a6.74 6.74 0 01-.81.13c-.64 0-1-.46-1.28-.28-.12.08-.09.2-.2.24-.29.09-.55-.66-1-.66-.29 0-.34.3-.81.5a1.94 1.94 0 01-.87.11c-1.17 0 .2.1-2.41 0l-1.87-.06a3.73 3.73 0 00-1.89.11 2.27 2.27 0 00-.6.34c1 2.79 2.09 5.69 3.1 8.7s1.88 5.79 2.7 8.57a2.08 2.08 0 001.58 0c.62-.3.59-.83 1.26-1.27a2.51 2.51 0 012-.28s-.7 0-.83.36a.53.53 0 00.17.51 1.08 1.08 0 00.94.12c.55-.1.66-.32 1.12-.35a2 2 0 01.72.13c1.6.44 1.52.44 1.62.45 1.07.07 1.65-1 2.09-.78s.05 1.13.55 1.42a1.07 1.07 0 00.7 0 3.8 3.8 0 001.14-.48c.56-.31.64-.42.94-.46 0 0 .63-.09.78.18s-.24.68-.15.76.37-.29.79-.37.69.23 1.15.45a3.89 3.89 0 002.38.12c1.1-.19 1.1-.53 1.93-.53a7.48 7.48 0 011.83.44c1.5.4 2 .45 2.14.22s0-.55.15-.71.81.25 1.73.48a10.68 10.68 0 002 .06 14 14 0 012.16.46 13.3 13.3 0 003.21.13 35.55 35.55 0 004-.34 7.07 7.07 0 01-2.38 1.08c-1 .22-1.23 0-2.83.31a5 5 0 01-1.49.19c-.32 0-.61-.09-1.39-.16a1.77 1.77 0 00-.67 0c-.58.13-.61.49-1 .59-.75.19-1.35-.85-1.95-.58-.17.08-.13.17-.44.37a1.19 1.19 0 01-.86.24c-.3-.09-.25-.38-.56-.59a1.33 1.33 0 00-1.7.35c-.13.27 0 .52-.09.61s-.72-.68-1.5-.66c-.33 0-.31.14-.73.19-.68.08-.84-.27-1.43-.26-.8 0-1.2.66-1.51.45s-.08-.53-.34-.67-.66.12-.77.19c-.37.23-.43.49-.63.49s-.25-.41-.5-.48-.47.23-.72.42c-1 .7-2.68-.34-3 .13-.12.2.16.43 0 .6s-1.21-.29-2.79-.54c-.79-.12-1.83-.18-1.91.09s.44.43.38.62-1 .13-3.29 0a7.51 7.51 0 00-1.25 0 6.5 6.5 0 00-1.52.33l2.66 8.3a7.5 7.5 0 01.38 4.33 8.17 8.17 0 01-2.68 4.17c-4 3.74-8 7-10.12 8.65l-.37 3.16c-.8.54-2 1.26-3.39 2a37.82 37.82 0 01-10.05 3.9c-1.77.35-10.18 2-17-3.36a19.3 19.3 0 01-6.47-9.83l-18.63-29.09c2.69.55 3.66.22 4-.3.19-.31.25-.84.59-.91s.45.34.94.47c.27.08.44 0 1.33-.3 1.46-.5 1.92-.62 2.3-.39.16.09.11.14.27.24.5.34 1.12.07 2.28-.24.89-.24 2.13-.57 2.34-.22.06.11 0 .17 0 .29.23.46 2.08.51 2.92-.32.13-.13.36-.4.64-.37s.26.19.51.26a1.24 1.24 0 00.73-.14l1-.34c.66-.06 1 .47 1.44.27a2.27 2.27 0 00.42-.27c.26-.22.23-.29.34-.32.33-.12.59.57 1.29.74a1.6 1.6 0 00.81 0c.48-.17.48-.46.87-.57s.71.3 1.21.17.43-.59 1.06-.79a1 1 0 01.82 0c.11.08.08.14.18.24a1.25 1.25 0 001.18.11c.3-.11.28-.22.72-.42a3.46 3.46 0 01.65-.23 3 3 0 011.36 0c.38.09.35.16.65.23.83.18 1.49-.26 1.58-.1s-.5.51-.41.74.94.23 1.63 0 .89-.5 1.35-.45c.64.06.68.62 1.25.68.83.09 1.45-1 1.85-.79.17.09.1.31.25.52.4.56 1.77.21 2.27.1 1.51-.35.81.14 4.43-.22a49.79 49.79 0 005.34-.85 12.6 12.6 0 00-4.17-.38 13.07 13.07 0 01-3.74 0 12.32 12.32 0 01-1.26-.42 6.9 6.9 0 01-.7-.3c-1.57-.73-6.21.32-7.76-.49a3.38 3.38 0 00-.74-.29 3.21 3.21 0 00-1.34-.1c-1 .17-1.07.87-1.67.82s-1.12-1.17-1.47-1-.06.55-.34.87c-.55.64-2.23.05-2.58-.07-.67-.24-2.1-.86-2.81-1.18a1.08 1.08 0 00-.8-.09c-.43.16-.37.62-.71.79-.5.24-1.11-.53-2.24-1a4.68 4.68 0 00-1.73-.32c.55.64.58.9.51 1-.18.3-1.2 0-3.23-.55-.62-.17-1.23-.31-2.44-.57-.78-.17-1.35-.29-1.49-.06s.45.9.31 1.06-.73-.29-1.51-.62-.84-.17-3.54-.52c-1-.12-1.69-.24-1.8 0s.34.48.25.71c-.18.44-2 .06-2.17 0a16 16 0 01-1.7-.63c-.54-.22-.87-.35-1-.21s.18.82 0 1-1-.21-1.49-.71c-.33-.32-.49-.62-.62-.57s.07.69-.24 1-.88.13-1.18 0-.41-.36-.92-.58a2.61 2.61 0 00-.72-.2 3.46 3.46 0 00-1.19.12c-.65.1-.87-.19-1.68-.37-1.37-.3-1.61.32-3.53.13a9 9 0 00-1.27-.13 13.12 13.12 0 01-1.75.13 4.24 4.24 0 01-.93-.19c-1.93-.56-3.49-.19-3.55-.48s2-1.34 2.79-.74c.16.12.46.44.78.37.12 0 .13-.07.31-.17a1.51 1.51 0 011-.24c.29.07.28.23.56.32s.69-.11 1.07-.25.36-.06 2 0 1.9 0 2-.22-.28-.45-.21-.52.71.38 1.46.62a3.7 3.7 0 001.78.1q-2.18-3.59-4.89-7.45c-2.79-3.95-3.42-5.75-5.67-7.45-1.82-1.38-2.44-1.18-4.62-2.51a23 23 0 01-7.07-7.06 27.58 27.58 0 01-4.66-14.56l-3.74-3.17a8.56 8.56 0 01-1.43-.19 7.75 7.75 0 01-1.44-.49c-3.48-3.11-7.06-6.57-10.67-10.39a175.27 175.27 0 01-18.06-22.69 253.61 253.61 0 01-21.76-32.57 211.18 211.18 0 01-17.1-37.39 198.51 198.51 0 01-9.75-46A260.62 260.62 0 0054.3 83.09c10.52 15.38 22 28.66 23.47 27.69.92-.62-3.35-6.43-6.07-17.54a80.77 80.77 0 01-2.07-17.65 145.9 145.9 0 012.21-31.14c1.54 6 3.94 14.63 7.38 24.92 4.51 13.51 11.57 34.28 25.32 57.63 2.37 4 7.69 11.39 18.33 26.11a52 52 0 0010.81 11.47 49.51 49.51 0 008.11 5.08l6.18-.29c-.3-.46-.29-.67-.22-.77.22-.34 1.46-.19 2.44.29.41.21.7.44 1 .31s.21-.59.51-.74 1 .63 1.86.56c.31 0 .32-.13 1.16-.51a10.35 10.35 0 011.51-.57c1.17-.32 2.44-.24 2.49 0s-.72.4-.68.63 1.16.46 1.9 0c.38-.25.38-.72.61-.72s.31.54.67.67.76-.42 1.35-.75a3.49 3.49 0 013.22.08l-.74.15c-1.32.22-1.61.24-1.63.37s.58.44.84.54a2.64 2.64 0 001.44.27c.57-.08.53-.37 1.18-.62.89-.33 1.18.09 2.16-.23.61-.2.57-.38 1.22-.57s1.61-.19 1.67 0-.75.52-.7.66.72.08 1.37-.21c.81-.36 1.17-1 1.35-.84s-.13.55.08.84.89 0 2.22 0c.87 0 1.38.12 1.42 0s-.33-.35-.77-.58c2.15-.67 2.94-.73 3-.51s-.52.61-.38.94.81.41 1.28.17.34-.4.62-.68c.69-.67 2-.62 2.1-.34s-1.18.95-1.1 1.09.54-.18 1.37-.41a6.31 6.31 0 011.7-.3 7.8 7.8 0 001.8 0c.26-.06.21-.08.69-.21.84-.23 1.54-.43 1.73-.18s-.3.78-.12 1 .67-.13 1.34-.37c1.47-.54 2.36-.3 2.4-.55s-1-.92-2-.76a3 3 0 01-.62.1c-.58 0-.8-.34-1.24-.42s-.82.21-1.36.44a3.82 3.82 0 01-3.29-.1c0-.12.94-.15.94-.32s-1-.44-2-.42c-.72 0-.8.16-1.81.22a2.41 2.41 0 01-1.73-.22l-.2-.18a1.9 1.9 0 00-1.58-.28c.5.29.6.4.58.45a8.9 8.9 0 01-2.06-.36 11.07 11.07 0 00-2.06-.25c-1.52 0-2.68.56-2.82.27 0-.11.13-.23.08-.37-.12-.3-1.24-.07-2.35 0-1.66.19-3.3.14-3.34-.07s.74-.31.71-.45-1.55-.06-3.4-.05-4-.08-4.06-.34.88-.27.87-.42-2.41-.45-5.09-.18c-1.8.19-3.59.57-3.69.25s.48-.42.42-.67-1.12-.31-1.95-.32c0 0-1.34 0-3.74-.1-1.67-.08-1.33-.25-3.83-.47a21.12 21.12 0 01-3.56-.39 12 12 0 01-2.18-.77c.93.08 1.92.14 3 .15 1.31 0 2.54 0 3.66-.12l-.1-2.7-18.33-14.44q-1.56-10.19-3.11-20.38l18.33 1.22 15 14.11.4 6.73a40.45 40.45 0 014-5.15 41.77 41.77 0 014.35-4.09 19.54 19.54 0 013.17-.52c1.49-.13 2.65-.05 2.72-.36s-1.13-.81-1.07-.93a2.44 2.44 0 011.51.56c.43.3.37.39.69.6a2 2 0 002.31 0c.33-.34.22-.78.46-.86s1 .35 1 .86c0 .29-.13.45 0 .56s1-.21 1.41-.42c.94-.48.92-.66 1.33-.7a2.45 2.45 0 011.58.56c.31.25.29.37.53.46a1.38 1.38 0 001.52-.69.86.86 0 00.09-.6c-.07-.25-.29-.33-.26-.39a6.9 6.9 0 012 .36 3.87 3.87 0 001.12.17c.88-.15 1.31-1 1.52-.86s-.27 1.21 0 1.35.28-.08.7-.43c1-.84 1.41-1.23 1.59-1.13s0 .46.22.57.21 0 .64-.23c.66-.44.87-.85 1-.79s-.22.92.13 1.25a.82.82 0 001.09-.16c.11-.24-.19-.48-.07-.66s.67-.17 1.09 0c.65.31.66.85 1.09.89s.55-.49 1.05-.49.67.55 1.12.49a.86.86 0 00.69-.76 1.4 1.4 0 00-.19-.66c-.11-.23-.18-.27-.16-.32s1 .24 2 .26a2.53 2.53 0 00.73-.1 2.85 2.85 0 00.48-.22c.66-.29 1.67.2 1.65.43s-.17.19-.73.26c-.24.19-.38.43-.32.58s.5.22.76.17c.46-.1.49-.41.79-.43.54 0 .93.92 1.16.82s0-.3.16-.56.52-.35.92-.43a2.05 2.05 0 011.62.1c.38.31.27.74.56.83s.49-.42 1.15-.69c.32-.13.32 0 2.08-.11a4.14 4.14 0 00.86-.09c.52-.14.85-.4 1-.3s-.11.29 0 .43.22.21 1.32 0a9.13 9.13 0 011.52-.37c.56 0 .74.23 1.32.4s1 0 2.6-.17a7.77 7.77 0 012.87 0c0 .11-.48.24-.46.33a14.25 14.25 0 002.8-.16 12.83 12.83 0 013.53.06c1.15.22 1.17.45 2.27.6a10.78 10.78 0 002.68-.07l4-.4a5.91 5.91 0 01-2.44-.69 2.89 2.89 0 00-.83-.41c-1-.22-1.41.47-2.06.2s-.4-.78-1.08-1.08c0 0-.82-.36-1.19 0a1 1 0 00-.1.91l-1.29-1.49a1.34 1.34 0 00-.34.41c-.13.31.09.52 0 .65s-.63.05-1-.23-.34-.79-.71-.91c-.19-.06-.2 0-.72 0s-.57-.1-.68 0 0 .6-.11.67-.41-.47-1-.57a2.9 2.9 0 00-.82 0 4.86 4.86 0 01-.49.06c-.41 0-.52-.38-1-.61a1.84 1.84 0 00-.82-.18s.51.65.36.84-.66-.05-.93-.18c-.44-.22-.46-.41-.75-.45s-.3.12-.83.25-.69 0-.82.22.06.58-.07.68-.64-.16-.84-.59 0-.74-.17-.78-.28.44-.72.55c-.27.08-.37-.08-.83-.06a2.46 2.46 0 00-.62.13 10.83 10.83 0 01-1.22.21c-2 .32-3.21.49-4.12-.11-.44-.29-.49-.55-.92-.64-.58-.13-.94.21-1.68.47a7.06 7.06 0 01-2.34.23c-.78 0-2.46 0-2.58-.5-.07-.29.44-.57.34-.73s-.85.06-1.66.22a16.22 16.22 0 01-2.31.17c-1.49 0-4 .06-4.06-.19s.62-.22.6-.37-.65-.11-2-.3c-.61-.08-1-.16-1.11 0s.19.64.05.77-.71-.25-1.15-.46-.84-.27-2.69-.27c-1.64 0-3.28-.11-4.93-.07-.18 0-.89 0-.91-.1s1-.32.94-.47-2.59.47-5.74-.12c-1.31-.25-2.89-.75-3.68 0-.19.19-.56.66-.78.57s-.06-.27-.19-.48c-.37-.57-1.81-.22-1.85-.41s.4-.19.4-.32-1.59-.34-3.34-.57c-.78-.1-1.38-.21-2.57-.42s-2.54-.49-4.36-1c1.71.08 3.45.14 5.22.17 3.58.06 7 0 10.34-.09 4.43-3.86 9.31-7.83 14.67-11.81q6.33-4.7 12.33-8.57a13.2 13.2 0 012.44-.12c.9 0 1.54.16 1.76-.17s-.22-1-.07-1.12.64.83 1.55 1a1.85 1.85 0 00.82 0c.72-.22.88-.81 1.28-.75s.27.37.7.55a1 1 0 001-.09c.22-.28-.12-.68.07-.87s1 0 1.56.46.73.84.83.78 0-.1 0-.21c.08-.3.54-.41.65-.44.76-.19 1.1.29 1.51.07s.18-.74.59-1 1.42.23 1.48.27c.43.27.44.49.79.54a1.19 1.19 0 00.94-.28c.18-.15.14-.2.3-.33a1.16 1.16 0 011.36-.13c.27.25 0 .61.32.84a1 1 0 001.29-.22c0-.07 0-.13-.21-.62s-.23-.55-.21-.6c.14-.26 1.24-.3 1.92.25a1.6 1.6 0 00.79.49c.09 0 .32 0 .43-.1s-.15-.61 0-.78.71 0 1.11.25.33.38.67.57a2.5 2.5 0 00.86.22c.48.08.73.11.89 0a.58.58 0 00.17-.4c0-.57-.85-.93-.79-1.05s.69.17 1.58.35c.65.12 1.59.3 1.74 0s0-1 .43-.69.51.58.89.79c.53.28 1.31.34 1.48 0s-.1-.41 0-.51.48.21 1.13.43c.35.13 1 .35 1.35.07.2-.16.16-.37.3-.39s.4.73 1.05 1.15 1.41.38 1.62.07-.17-.69 0-.8.63.42 1.45.86c.48.26 1.42.76 1.92.43s.25-1.09.64-1.21c.16 0 .3.06.67.29 0 0 .42.25 1.26.66a3.1 3.1 0 002.17 0c1.57-.42 2.32.09 6.93-.1 1.37-.05 3.56-.29 7.95-.78l4.52-.51a3.53 3.53 0 00-1.16-1c-1-.55-2.41-.61-2.62-.18-.12.24.19.5.05.69s-.89.09-1.36-.13a3.74 3.74 0 01-.69-.46c-.92-.61-2.13-.46-3.51-.29l-.83.13a1.41 1.41 0 00-1.3-.74h-2c.11.09.41.36.35.49s-.24.07-.59 0a10 10 0 01-1.46-.1 9.08 9.08 0 01-1-.37c-.89-.27-1.93-.25-2 0s.22.33.17.43-1.07-.31-2.53-.58a12.38 12.38 0 00-1.45-.16 11 11 0 00-1.45 0c.21-.22.46-.5.39-.61s-.84.27-2 .51a20.86 20.86 0 01-3.52.1h-1.48c.68-.92.74-1.22.65-1.32s-.79.32-1.94.54a9.06 9.06 0 01-2 0c-2.24 0-3.37.05-3.41-.2s.54-.4.49-.53-.73.21-1.47 0-1-.81-1.17-.71.23 1.29-.06 1.47-.72-.58-1.82-1.1c-.16-.08-1.5-.72-2-.27s0 1-.22 1.12-.42-.28-1.16-.85-1-.57-1-.54c-.2.12 0 .63-.16.75s-.46-.23-1-.48a3.85 3.85 0 00-1.88-.25c-.76 0-.94.2-1.5.07a6.17 6.17 0 00-.75-.21c-.32 0-.92-.14-1.16.14s.11 1 0 1.08-.35-.8-1-1.06c-.33-.13-.37 0-1.3 0-.64 0-.78-.12-1 0-.38.21-.29.61-.65.76s-.79-.15-.9 0 .29.55.19.68-.83-.23-1.73-.66c-.69-.33-1.33-.61-1.59-.72a9.06 9.06 0 00-3.05-.55c-1.62-.11-2.73-.09-3.78-.1a41.6 41.6 0 01-5-.2s1.38-.11 7.51-.19c-.21-.24-.22-.34-.2-.38s.75.29 1.59.3c.54 0 .57-.16 1.28-.3 1.39-.26 2.22.21 2.47-.19s-.17-.85 0-.94.33.28.86.44c.07 0 .66.2.91-.07s.08-.3.17-.32.47.36.62.79.1.5.22.54.27-.13.47-.27a1.67 1.67 0 011.14-.22h1.26a96.05 96.05 0 0115.09-7.77c5.83-2.36 10.81-3.68 20.27-7.8 1.86-.81 3.38-1.51 4.4-2h18.43z"/><path d="M237.69 188.85c-.26-.28-1.31.13-1.32.49a.74.74 0 001 .46.7.7 0 00.32-.95zm5.74 0a.76.76 0 00-.92.66.81.81 0 001.12.42.75.75 0 00-.2-1.08zm3.49-.53c-.35-.31-1.84.51-1.78 1.05 0 .33.65.64 1.16.5a1.14 1.14 0 00.62-1.55zm7.75 10.25a.43.43 0 00-.2.46c.09.46 1 .6 1.09.43s-.56-1-.89-.89zm4.33 1.02c-.14.08-.15.42 0 .63a.63.63 0 00.89.1c.11-.22-.62-.86-.89-.73zm-25.53 36.76c-.08.26.61.87.94.69a.56.56 0 00.15-.72.76.76 0 00-1.09.03zM232.45 258a2.61 2.61 0 001.89.78c.28 0 .86 0 .88-.1a5.85 5.85 0 00-2.77-.68zm22.55-1.7c-.22-.24-1.55.45-1.49.72s.72.35 1.16 0c.23-.21.41-.6.33-.72zM179 133c.18-.32 2.26.33 2.24.76 0 .21-.52.37-.89.36-.91-.01-1.53-.9-1.35-1.12zm-3.62.56c-.06.17.64.79 1.39.66.17 0 .53-.13.53-.26-.01-.3-1.83-.64-1.92-.4zm57.76-31.15c-.06.09.43.65 1.12.89.24.08.67.17.7.1a4 4 0 00-1.82-.99z"/><path class="cls-1" d="M115.75 192.27a295.17 295.17 0 01-43.12-56.7 295.63 295.63 0 01-20.58-42.72 253.55 253.55 0 0047 55 251.93 251.93 0 0035.21 25.84c.1.73 1.1 8.68-5 14.37a17 17 0 01-13.51 4.21zm14.02-62.09l1.39 9.4 16.12 12.21 1.43-10.68-10.71-9.84zm27.71 70.18l7.12 24.82 6.7-12.76z"/><path d="M255.11 86.24c-2.14.42-4.83 1-7.89 1.92a110.91 110.91 0 00-10.81 3.89c-5.18 2.06-7.76 3.1-7.69 3.73.15 1.46 7.66 1.84 14.41 2.14 7.65.35 13.88.27 17.94.14a34.44 34.44 0 01-4.88-1.46c-3.5-1.32-5.34-2-5.81-3.42-.63-1.92 1.4-4.73 4.73-6.94z" fill="url(#Unbenannter_Verlauf_37)"/><path d="M207.66 109.73l41.58-.42c-1.78.26-4.59.67-8 1.11-11.59 1.49-15.72 1.57-21.87 3.72-3.35 1.18-9.07 3.18-9 5.43 0 .6.53 2 12.31 5.58 4.64 1.42 8.49 2.41 11.08 3-11.47-1-20.94-1.53-27.76-1.85-9.53-.44-16.26-.56-16.75-2.77-.09-.42-.09-1.57 8.64-7.58 4.05-2.74 7.47-4.85 9.77-6.22z" fill="url(#Unbenannter_Verlauf_37-2)"/><path d="M219.79 142q-4.93-.3-9.95-.52c-13.58-.62-26.76-.79-39.5-.6-2 2-4.49 4.68-7.38 7.85-5.14 5.62-5.61 6.49-5.41 7.36.61 2.63 6.94 3.37 19 4 6.64.37 16 .78 27.49.86q-25.17-5.22-25-9.53.18-5.42 40.75-9.42z" fill="url(#Unbenannter_Verlauf_37-3)"/><path d="M195.49 254.9c0-.37-5.88-.71-28-.8-.94.08-3.68.41-4.36 2.08-.6 1.51.77 3.34 1.34 4.11 9.56 12.95 12.43 26.21 23.19 27.59a19.53 19.53 0 009.64-1.58c1.26-.53 4.69-1.95 4.63-3.75 0-.7-.56-1.21-1.46-2a12.47 12.47 0 00-4.3-2.57 6.43 6.43 0 00-4 .2c-3.35 1.4-3.73 5.69-5.59 5.77-.79 0-1.89-.69-3.31-3.91-.36-1.81-.67-3.76-.89-5.82a67.94 67.94 0 01.05-14.88 34.09 34.09 0 016.13-2.72c4.15-1.4 6.94-1.47 6.93-1.72z" fill="url(#Unbenannter_Verlauf_37-4)"/><path d="M176 228.68c-2.1-5 6-9.77 5.14-16.89-.62-5.08-5.49-8.76-10-11.21q-4.35-2.4-4.63-5.22-.82-8.21 33.14-19.9-16.41-.08-33-.23-10.09-.09-20.15-.21a5.65 5.65 0 00-2.87 1.23c-1.79 1.52-1.78 3.75-2.34 6.27a22.43 22.43 0 01-4 8.45c-3.16 3.76-5.7 2.56-8.35 6.29a13.35 13.35 0 00-2.28 7.41 14.76 14.76 0 002.49 8.44c1 1.46 3.12 3 7.3 6.1 4.56 3.35 4.67 3.13 6 4.43 1.71 1.7 2.18 2.74 5.29 7.57 1 1.54 2.5 3.83 4.41 6.63l46.67 2.16c-2.46-1.15-6.49-3-11.53-5.15-8.77-3.85-10.46-4.22-11.29-6.17zm-4 5.73a44.88 44.88 0 01-5.6-1.17c-4.74-1.44-7.38-11.15-9.2-17.81-1.17-4.28-3-11-6-21.88a4.06 4.06 0 01.69-1.2 4 4 0 011.62-1.15c1.41-.55 3-1.09 4.67-1.58a53.4 53.4 0 016.14-1.36 15.26 15.26 0 00-3.92 4.44 6.47 6.47 0 00-.85 1.82c-.29 1.67.88 3.95 9.1 10.08 5.45 4.08 6.91 4.54 7.25 6.47.22 1.24-.16 2.12-3.6 8.26s-4.11 7.15-3.93 8.62c.22 1.88 1.77 4.36 7.71 6.87-.98-.06-2.38-.16-4.08-.41z" fill="url(#Unbenannter_Verlauf_37-5)"/></g><path d="M85.47 88.79c7.42.13 12.22.37 12.23.77 0 .17-.88.3-.86.47s2 .17 5.19 0a34 34 0 004-.25c.53-.14 1.62-.49 1.78-.2s-.24.42-.15.64 1.1.14 2.37.15c2.1 0 2.27.59 3.27.22.71-.27 1.2-.78 1.78-.56.34.12.37.37.68.4.56 0 .79-.76 1.3-.71s.38.52 1 .75a1.3 1.3 0 00.93 0c.5-.19.44-.61.8-.72.53-.16.88.71 2.12 1.09.1 0 .33.07.79.15a9.62 9.62 0 002.33.27c1.1-.15 1.58-.9 1.92-.65s0 1.08.3 1.17.31-.25.89-.6a4.9 4.9 0 01.51-.25c.35-.13.66-.13 2 .09a6.89 6.89 0 001.06.16 6.14 6.14 0 011.14 0 2.11 2.11 0 01.84.45c.71.57.79 1.21 1.09 1.19s.23-.52.64-.7.55.14.94 0c.61-.14.59-.93 1-1s.91 1.24 1.75 1.23a1 1 0 00.83-.44c.21-.34.05-.68.2-.78s.46.63 1.14.79a1.77 1.77 0 001-.09 2.47 2.47 0 00.7-.35c.48-.35.44-.6.69-.69.43-.16.77.46 1.63.84a5.62 5.62 0 002 .24h2.25c2.43 0 3.65 0 3.68.15s-.93.72-1.95.79a15.13 15.13 0 01-1.93 0c-.32 0-.74-.06-.84.12s.2.37.15.52c-.17.55-4.17-.44-4.38.15-.07.2.34.44.25.59s-1.1-.15-2.73-.5c-1.33-.29-1.87-.3-2 0s.12.63 0 .7-.39-.31-.91-.62c-.2-.11-1-.54-1.43-.27s-.24.57-.62.74-.71-.07-.87.13.07.4-.07.57-.37 0-.87.12c-.29.07-.45.19-.52.12s.13-.32 0-.46-.43-.11-.67 0-.24.32-.47.49c-.49.37-1.32 0-1.39.18s.12.15.1.29a.58.58 0 01-.71.35c-.25-.13-.1-.54-.4-.77s-.65-.16-.75 0 .24.45.13.62-.56.14-.91 0c-.53-.19-.7-.54-.94-.45s-.13.23-.32.39-.6.18-1 .13c-.82-.1-1.14-.39-1.46-.19s-.21.29-.35.28-.2-.38-.54-.61c-.18-.13-.5-.25-.67-.13s0 .65-.23.9-.59.1-.76.07-.35-.08-.37-.2.3-.27.27-.36-.32-.11-.55 0-.17.3-.34.4c-.33.21-.72-.28-1.33-.12 0 0-.39.1-.42.29s.3.36.26.44-.59-.18-.89.05c-.13.11-.08.2-.19.3s-.6-.1-1.32-.2-.77.1-1.12-.08-.54-.62-.7-.58 0 .38-.16.56-.9-.12-1.09.1.44.91.2 1.26a.73.73 0 01-1 0c-.25-.28.1-.76-.13-1s-.49 0-1.38.16c-.49.09-.36 0-1.42.17-.53.07-.75.11-1.24.16-1.07.11-1.16 0-1.17 0s.65-.32.63-.56-.8-.34-.92-.36c-.4-.05-.68-.08-.88.09s-.08.65-.34.83-.44.05-1-.09-.41-.16-.76-.26c-.63-.19-1.09-.33-1.41-.11s-.17.4-.4.5-.67-.33-1-.2-.31.45-.36.76c-.17.9.18 1.42 0 1.58s-.69-.06-1-.43c-.44-.61 0-1.41-.27-1.61-.13-.1-.45-.08-1.25.56a1.62 1.62 0 00.13 1c.12.25.28.37.23.5s-.21.21-.77.21a2.58 2.58 0 00-.94-.61 6.21 6.21 0 00-.89-.16c-.88-.17-1.12-.34-1.39-.18s-.11.21-.33.44a1.84 1.84 0 01-1.18.49c-.45.07-1.11 0-1.15-.12s.76-.44.72-.63-.46-.18-1.35-.17a12.39 12.39 0 00-2.11.1 4.62 4.62 0 00-2.31 1.42q-1.65-5.83-3.31-11.82zm31.28.05c0-.26 2-.21 2 .06s-.41.33-.74.39c-.64.11-1.29-.29-1.26-.45z"/><path d="M123.13 90c.06-.31 1.19-.49 1.35-.2s-.12.63-.52.72-.87-.37-.83-.52zm-12.66 8.65c.09-.38 2.9-.28 3 .13 0 .2-.58.48-1.06.56-1.03.17-1.99-.45-1.94-.69zm12.1-1.81c-.27 0-.61.61-.39 1s.61.48.82.33.09-.59.07-.7-.27-.64-.5-.63zm8.43.01c-.36-.11-.83.35-.91.82a.71.71 0 00.19.7.86.86 0 001.07-.5.82.82 0 00-.35-1.02zM150.63 94c-.07-.49 2.28-1.43 2.63-1 .19.24-.15.87-.59 1.19-.81.63-2 .18-2.04-.19zm-15.93-3.2c-.08 0-.38.11-.43.3s.62.77.83.63.1-.48-.07-.89zM95.21 112c1.74.94 2.6.85 3.06.55s.61-.65 1.07-.62.36.28.86.51.78 0 1.56.31.76.46 1.06.37.31-.47.72-.77c.62-.45 1.63-.3 1.73 0s-.2.29-.15.44.49.2 2 .13c.88 0 1.29-.07 1.34-.25s-.28-.3-.25-.42.68-.22 3.29.15c-1.55.32-1.87.49-1.86.59s.32.08 1.09.25c1 .22 1.27.41 1.56.22a1.13 1.13 0 00.37-.64c.11-.39 0-.58.07-.64s.9 1 2.23 1.65a4.2 4.2 0 001.83.47c.13 0 1.31 0 1.41-.34s-1.11-.85-1-1.19 1.67-.5 2.06.12c.19.3-.11.59 0 1.37 0 .28.19.78.36.78s.28-.46.3-.53c.15-.63-.21-1.05 0-1.19s.5.09.87.3c.61.34.65.53 1.07.66a2.05 2.05 0 00.86.06 6.75 6.75 0 001.06-.26c.16 0 1.13-.22 1.27.07s-.16.28-.1.53.5.4.54.41c.24 0 .61 0 .72-.16s-.13-.41 0-.55.58 0 1.28.1a2.87 2.87 0 002-.15c.26-.19.21-.3.44-.4.58-.24 1.34.25 1.49.35.42.28.47.5.74.49s.67-.34.64-.59-.27-.25-.25-.35a2.13 2.13 0 012.28.25c.23.21.27.37.54.49s.67.06 1.19 0c.84-.17 1.88-.37 2.21 0 .18.23 0 .52.26.66a.56.56 0 00.65-.15c.17-.24-.06-.54.07-.64s.56.41 1.35.56c.46.09.59 0 .9.13s.33.46.67.59a1.07 1.07 0 001-.15c.22-.15.2-.25.42-.49.39-.41 1-.67 1.21-.5s-.12.59.08.77.43 0 .67 0c.53-.17 1.09-.26 1.63-.4 1-.28 2.18 0 2.22.22s-.67.57-1.36.69-1.42-.12-1.6.17.12.55 0 .71-.64 0-1-.14c-.7-.26-.8-.49-1.12-.44s-.31.35-.79.54-.79 0-.86.21.49.62.44.68a3.34 3.34 0 01-1.6-1c-.23-.21-.3-.33-.47-.34-.47 0-.64.72-1.22.79s-.88-.52-1.08-.37.13.69-.08.86-.91-.54-1.56-.34-.48.82-1 .91-1.21-.63-1.32-.74c-.32-.38-.4-.69-.51-.67s.12 1.43-.38 1.71-1.22-.21-1.5-.82c-.14-.3-.08-.5-.28-.66s-.27-.17-1 0-1.28.27-1.34.56.53.63.45.82-.66-.07-1.59-.07-1.37.21-1.48 0 .26-.45.15-.65-.76-.22-1 .08 0 .47-.1.66c-.31.42-1.48-.52-2.65-.07-.3.12-.64.35-.8.21s0-.38-.13-.56a.76.76 0 00-1 0c-.2.19 0 .42-.22.57s-.65-.18-1.39-.07c-.37 0-.57.2-.67.09s.17-.65.08-.71-.29.34-.69.54c-.74.38-1.42-.22-1.93.2-.22.18-.13.32-.37.47-.45.28-1 0-1.11.16s.35.49.27.73-1.08.12-2.69.18c-1.1 0-1.74.17-1.81 0s.7-.52.62-.74-.35-.06-1.28-.11c-.58 0-.81-.08-.94.07s.05.49-.08.71-.69.12-1.46.08c-1.29-.06-2 .24-2.12 0s.49-.57.4-.73-1.4.39-1.67.52l-.27.11a2.39 2.39 0 01-.46.1c-.28 0-1.2.07-1.27-.19s.58-.47.54-.6c-.07-.28-3.12.25-6.7 1-.64-2.84-1.16-5.54-1.69-8.28zm9.59-1.09a1.42 1.42 0 012.38 1 9.77 9.77 0 01-1.39-.52 9 9 0 01-.99-.48zm19.2-1.05c0-.2.35-.5.75-.47s.8.58.7.76-1.45.04-1.45-.29z"/><path d="M124.25 112.36a.67.67 0 00-.29.79c.19.6 1.37.64 1.51.37s-.74-1.33-1.22-1.16zm5.97-3c0 .53 2 1.14 2.31.73s-.21-1.16-1-1.32-1.32.28-1.31.59zm-8.11 9.73c.11-.33 3.74.67 3.73.76s-.64-.1-.8.16c-.06.11 0 .2 0 .26-.24.33-3.04-.89-2.93-1.18zm17.6 0c.55-.44 1.64.29 1.69.33.21.15.58.4.52.56-.12.35-2.3.17-2.44-.43-.05-.23.22-.45.23-.46zm4.03-.63c-.15.19.25.93.59.89a.48.48 0 00.33-.53c-.07-.39-.79-.52-.92-.36zm5.37-1.78a2.15 2.15 0 011.29.3c.36.19.93.6.86.74s-2.74-.54-2.69-.87c.01-.11.35-.15.54-.17zm2.52-1.33c0 .21.37.61.84.59s.89-.58.79-.79-1.55-.15-1.63.2zm-49.15-4.83a.45.45 0 01.48.43.52.52 0 01-.71.24.47.47 0 01.23-.67zm-20.97 93.14a16.92 16.92 0 003.31.94c1.05.19 2.18.28 2.18.35s-.81 0-.82.07 1.31.13 2.8.28c2 .2 1.71.26 2.42.28 2 .07 2.5-.55 4.3-.28.67.09.56.17 1.38.34 2 .41 2.9 0 5.15 0 2 0 4 .4 4 .65 0 .06-.14.15-1 .28-3.18.47-5.81 0-5.87.35 0 .14.55.29.52.45 0 .32-2.34.35-4.5 0a12.77 12.77 0 00-2.22-.25 15.05 15.05 0 00-2 .17c-1 .15-1.22.24-2.1.35a16.44 16.44 0 01-1.85.12c-1.14 0-2.78.09-5.29.23zm-.89 23.94c1.68-.22 2.36.12 2.67.49a1.38 1.38 0 00.59.55c.45.16 1.06 0 1.14-.35s-.27-.41-.2-.69a.65.65 0 01.65-.4c.3.05.31.38.69.75a2.89 2.89 0 001.58.59c.63.12 1 .18 1.14 0s-.12-1.09.05-1.19.6.77 1.54 1.23c.56.27 1.39.44 1.67.11s-.2-.93 0-1.19 1.72.12 1.9.85c.11.48-.32.91-.16 1.05s.48-.26 1.18-.32c.47 0 .72.1.84-.05s-.24-.62-.1-.84 1.68-.05 2.84.63a3.36 3.36 0 001.27.63c.54.08 1-.06 1.12.12s-.26.33-.2.5.52.18 1.34.21c1.14 0 1.69.11 1.74-.06s-.07-.18-.2-.33-.37-.27-.36-.33a1.76 1.76 0 012 .1c.3.34.17.81.53 1a.82.82 0 00.56 0c.32-.09.33-.25.63-.36s.79.05.89-.1-.25-.39-.17-.56 1.11-.12 1.88.13c.45.14.52.22.83.33a3.82 3.82 0 002.26-.05c2.39-.58 5.47.18 5.48.45 0 .12-.53.07-1 .53s-.36.84-.65.91-.37-.26-.94-.55a3 3 0 00-1.41-.29c-.42 0-.81 0-.93.21s.42.95.29 1.07-.34-.14-.84-.35c-.26-.1-1.09-.45-1.34-.18s.09.46-.1.73a.79.79 0 01-.91.2c-.41-.21-.42-.83-.54-.82s0 1-.39 1.19c-.18.08-.46-.11-1-.47s-.77-.58-.87-.52c-.25.15.54 1.62.27 1.79s-.51-.17-.74-.46-.21-.7-.47-.84a.73.73 0 00-.79.2c-.23.25-.1.51-.25.59-.36.21-1.32-1.31-2-1.08l-.37.34c-.68.66-.74.64-.81.79-.28.59.39 1.34.25 1.44s-.76-.56-.87-.67c-.51-.53-.57-.75-.76-.75-.48 0-.84 1.44-.94 1.41a3.22 3.22 0 00-.06-1.55c-.15-.36-.45-.67-.59-.62s0 .4-.2.6-.53.06-1.31-.1a12.78 12.78 0 00-2-.24 2.25 2.25 0 00-.77.11c-.22.08-.62.21-.67.47s.54.64.47.77-.57-.15-1.25-.2c-1-.09-1.64.39-1.76.2s.41-.53.3-.77-.65 0-1.73-.09c-.4 0-.57-.1-.7 0-.28.27.17 1-.07 1.16s-.53 0-.69-.3 0-.71-.12-.81-.6.32-.87.52c-.84.63-1.89.35-3.66.1a37.53 37.53 0 00-3.81-.35zm32.79 5.78c-.14.25.53 1.21 1.18 1.06.27-.06.56-.31.53-.53-.06-.46-1.55-.81-1.71-.53zm8.34-1.54c-.13.22.18.9.76.92s.84-.42.79-.66-1.37-.58-1.55-.26zm-1.75-1.19c-.23-.22-1.53.53-1.45.92 0 .2.44.32.73.27.66-.11.93-1.02.72-1.19zm-2.64 2.08c-.34-.08-.72.2-.72.42s.94.75 1.15.53a.7.7 0 00-.43-.95z"/><path d="M101.31 228.58c-.08.2.75.93 1.5.71.16 0 .49-.19.47-.35-.03-.35-1.88-.63-1.97-.36zm-15.25-1.85c-.14.28 1.39 1.58 2 1.24a.5.5 0 00.22-.45c-.11-.66-2.08-1.07-2.22-.79zm4.08.5c-.1.16.34.82.84.74.21 0 .46-.19.45-.35-.03-.31-1.17-.62-1.29-.39zm-9.73 24.98c1.86.73 2.57.59 2.86.3.09-.09.27-.31.37-.27s-.14.79.1 1 .26-.07 1.15-.5c.37-.17.6-.27.66-.49s-.09-.35 0-.4.53.54 1.25.79c.41.15 1 .23 1.28-.06s-.11-.7.1-.89.87 0 1.26.36c.22.22.23.38.46.5a1.21 1.21 0 00.82 0 6.74 6.74 0 012.21.06c.71.08 1 .19 1.19 0s.11-.62.36-.76.82.18 1.12.5.27.61.59.89c.47.4 1.22.42 1.36.2s-.25-.51-.14-.66.29-.07 1.13.16.93.27 1 .17-.27-.63-.1-.83.51-.09.76.07.2.29.43.43a1.15 1.15 0 00.79.06c.49-.08.54-.28.82-.26s.39.44.86.66c.66.32 1.32-.21 1.59.11s0 .64.15.72.18-.07.59-.3a6.31 6.31 0 01.64-.29 4.4 4.4 0 00.47-.18c.42-.19.52-.39.62-.34s-.16.87.15 1.13.37 0 .54.15 0 .72.23.84.44-.07.59-.27a1 1 0 000-1.09c1.19-.09 1.65.19 1.85.47s.16.5.45.72.87.3 1 .1-.12-.46 0-.67a.5.5 0 01.37-.15 11.16 11.16 0 011.89 0c1.64.21 2 .18 2.23 0 .07-.05.22-.18.31-.13s.07.24.07.63a2.59 2.59 0 00.06.89s.06-.09.2-.36.16-.26.2-.37c.14-.35 0-.55.13-.66s.33 0 .58.09a2.57 2.57 0 001.61.14c.5-.21.55-.82.76-.79s.13.8.6 1.06a.57.57 0 00.59 0c.18-.16.1-.49.16-.5s.12.93.7 1.32a.92.92 0 001 .07c.2-.2 0-.5.23-.66s.76.21 1 0 .13-.29.13-.66c0-.53-.12-.73 0-.79s1 .29 1.25 1-.3 1.32.07 1.78a.72.72 0 00.69.26 1 1 0 00.63-.82c.1-.72-.59-1.17-.43-1.38s1.22 0 1.55.59c.21.41 0 .74.23 1s.95 0 1.19-.07c.58-.22.59-.46 1.08-.66.69-.28 1.52-.17 1.59.07s-1 .71-.88 1 .6 0 1.31.3.62.56 1.21.72c.11 0 .85.21 1.19-.18a.83.83 0 00.17-.62c0-.5-.4-.67-.32-.89s.7-.36 1-.12.15.44.47.87a1.33 1.33 0 00.74.54 1.35 1.35 0 001.12-.42c0 .08.6.86.34 1.26s-1.3.34-1.93-.07c-.18-.12-.28-.32-.52-.35a.58.58 0 00-.61.35c-.06.24.26.42.19.54s-.94-.29-1.85-.05c-.48.13-.66.63-.82.54s0-.43-.19-.84c0-.05-.23-.41-.47-.39s-.24.33-.52.47-1-.24-1-.18 1.25 1 1.17 1.12-.27 0-.5-.08c-1.26-.27-2.3.51-2.52.2s.14-.53 0-.59-.36.37-.87.54a1.93 1.93 0 01-.74 0c-1.23 0-1.59-.06-1.63.05s.52.34.49.52c-.06.41-3.12.37-3.16 0s1-.46 1-.59-2.43.57-3-.25c-.21-.3 0-.61-.27-.91s-1-.32-1.56-.2c.86.81 1.07 1.16 1 1.29s-.77-.11-.89.1.27.4.2.61-.61.18-2.28.18c-.46 0-.83 0-.86-.13s.64-.45.59-.61-1.61-.05-1.9 0c-1.33.18-1.59.34-2.5.49-1.87.3-3.3 0-3.34.25s.66.29.65.52-1.08.61-1.51.22c-.13-.12-.2-.44-.35-1.09-.09-.4 0-.6-.17-.69a.5.5 0 00-.59.17c-.14.18 0 .34-.15.52s-.41.26-.7.3c-.72.1-1.77.24-1.8.07s.62-.27.59-.42-1.2-.2-2.25 0c-.61.12-.91.18-1.09.4-.49.61.25 1.55-.09 2.07-.19.29-.79.45-2.63-.09.45-.62.39-.9.33-1s-.34-.23-2.3-.25c-.42 0-.88 0-1.49.05-.44 0-1.29.12-1.31.3s.53.23.52.35a3.11 3.11 0 01-2.52.07c-.65-.22-1-.55-1.47-.4s-.36.38-.76.55c-.78.34-1.69-.32-1.77-.19s.13.26.86.81c-.94.14-2.08.22-2.31-.25s.4-1 .23-1.17-1.48.77-2.67 1.33a8.13 8.13 0 01-4.79.58c.09-3.47.17-6.84.25-10.26z"/><path d="M111.13 251.8s1.32 1.55 1.7 1.41 2.09-.66 2.14-.7.48-.32.43-.33l-3.35-.68a4.51 4.51 0 00-.92.3zm10.98 1.2c.46 1.26-.2 1.62.79 1.26s1-.56.86-.89-1.65-.37-1.65-.37zm10.32-.2c-.07.25.56.85 1.25.73.49-.08.93-.5.86-.73-.13-.41-2.01-.38-2.11 0zm5.77-.03c-.21.06-.36.65-.07 1.09s.89.53 1 .36-.59-1.55-.93-1.45zm2.64 3.03c-.23 0-.57.71-.24 1.12.21.25.62.35.76.2s-.23-1.34-.52-1.32zm1.51 1.49c-.42 0-.73.45-.66.69s1.19.46 1.35.16a.74.74 0 00-.69-.85zm3.15-2.29c-.62.13-1.06.78-1 .94s.47-.14 1.28-.17 1.23.2 1.28.09-.72-1.06-1.56-.86zm.35 1.6c-.2-.18-1.17.34-1.12.62s.43.31.75.17.52-.67.37-.79zm-9.05 1.63c-.11.12.07.53.37.75s1 .18 1.06 0-1.23-.98-1.43-.75zm-19.93 2.48c-.17.18 0 .87.52 1s.92-.23.91-.47-1.19-.81-1.43-.53zm-3.17-.35a.69.69 0 00.15 1c.3.09.87-.53.72-.86a.63.63 0 00-.87-.14zm34.52-2.36a.56.56 0 00-.46.69.5.5 0 00.62.3c.24-.15.08-.93-.16-.99zm2.44-.78a.27.27 0 00-.23.3c0 .16.42.21.49.1s-.07-.41-.26-.4zm-44.87 3.33c-.2.19-.08.66.1.92.54.79 2.13.48 2.21.13s-1.86-1.47-2.31-1.05zm-8.6.45c-.18-.14-.5.19-1.22.51-1.26.55-2.1.37-2.15.66s.6.65 1.19.76a2 2 0 001.95-.7c.31-.4.44-1.05.23-1.23zm-4.45 1.2c-.13 0-.21.48-.7.76s-.87-.06-1.71.16c-.39.1-1 .35-1 .56s1 .44 1.75.36a1.89 1.89 0 001.45-.59c.41-.45.35-1.21.21-1.25zM88 263.68c-.16-.22-1.11-.1-1.38.56-.17.4-.07.95.16 1 .45.16 1.48-1.24 1.22-1.56z"/></g></svg>