<svg xmlns="http://www.w3.org/2000/svg" viewBox="0 0 350 350"><defs><radialGradient id="a" cx="13.71" cy="75.8" r="236.88" gradientUnits="userSpaceOnUse"><stop offset=".37" stop-color="#fff"/><stop offset=".98" stop-color="#906f79"/></radialGradient><radialGradient id="b" cx="31.49" cy="63.19" r="236.04" gradientUnits="userSpaceOnUse"><stop offset=".3" stop-color="#fff"/><stop offset=".94" stop-color="#906f79"/></radialGradient><radialGradient id="c" cx="120" cy="43.05" r="195.94" gradientUnits="userSpaceOnUse"><stop offset=".57" stop-color="#fff"/><stop offset=".94" stop-color="#906f79"/></radialGradient></defs><g data-name="BG Shapes"><path d="M181 290H59.87V60h230.26v57.52L290 130l-49.77-56.25L115 201l22.75 65.5 98.76 23.5z" fill="#fff"/><path d="M180.83 280.79H69.18V69.39h211.64v70.11L241.5 102l-16.67 73-81.18 27.73z"/></g><path d="M270.17 185.17l2.33 18.33 15-15.33-17.33-3zM247.33 233l15 25.83 16.5-27.33-31.5 1.5zM276 258.83l11.5 7.5V252l-11.5 6.83zm-32.67 22.67l12.34-11.67 3.83 17-16.17-5.33z" fill="#fff"/><path d="M44 231.67c-.56-1-2.76-.93-3.15-.18-.25.49.23 1.3.81 1.71a1.74 1.74 0 0 0 2.07.09 1.42 1.42 0 0 0 .27-1.62zm-9.85-52.5c-.56-1-2.76-.93-3.15-.18-.25.49.23 1.3.81 1.71a1.74 1.74 0 0 0 2.07.09 1.42 1.42 0 0 0 .27-1.62zm128.6 68.58c-.54-1.88-3.58-6.78-35.37-6.37-20.08.25-16.48 2.17-26.5 1.37-6.77-.54-22.52-2.55-42.38-5.87-2.6-.44-5.31-.91-5.62-.13-.86 2.07 15.86 11.58 31.5 17.75 7.21 2.85 3.94.94 20.5 6.5 7.51 2.52 12 4.19 18 3.25 2.7-.42 3.09-1 7.12-1.63a49.65 49.65 0 0 1 13.88-.5 120.53 120.53 0 0 1 15.4 2.57c.82.22 3 .82 3.47.06s-.78-2-1.37-3c-2.87-4.63 2.47-10.15 1.37-14zm-56.42 4.08c-.48-.4-1.74-1.45-1.5-2 .41-.92 4.73.18 5.34.34 4.56 1.18 10.19 4 9.83 5.16-.42 1.35-8.91.46-13.67-3.5zm26.67 6.84c-.24.55-1.77.35-2.5.16-.46-.11-1.46-.37-1.5-.83s1.2-1.39 2.33-1.17 1.89 1.33 1.67 1.84zm-26.12-36.54c-3 2.18-8.85-7.08-29.12-18.87-14.54-8.46-33.2-16.26-37.13-17.13-.26-.05-1.39-.27-1.37-.5s3.1-.65 5.5-.5a21.08 21.08 0 0 1 8.75 2.63c8.38 4.49 33 12.75 44.38 16a11.38 11.38 0 0 1 3.5 1.25c6.26 3.73 8.39 14.99 5.49 17.12zm35.5-77.88a6.31 6.31 0 0 0-1.38-1.13c-5.1-3-29.75-27-29.75-27-14-12.25-14-12.25-17.83-16.6-.39-.43-4.06-3-5.76-2.85a6.27 6.27 0 0 0-1.83.83c-.56.27-.36 2.16-.36 2.16.72.58.19.75 4.78 6 1 1.1 3.21 3.82 2.5 4.88-.37.56-1.47.52-2.13.38-1.45-.33-1.95-1.48-3.12-2.63-1.44-1.42-4.39-3.32-6.25-2.37-1.55.78-2.18 3.47-1.37 5.12a3.64 3.64 0 0 0 1.74 1.62c6.61 3.24 35.21 33.46 42.5 36.63a6.18 6.18 0 0 1 3.13 1.63c1.65 1.9.44 4 1.5 5.37 2.25 2.85 13.73.73 15.25-5.13a8 8 0 0 0-1.62-6.91zm-25.21-8.75c-.37.17-1.12-.75-1.34-1-3.6-4.25-16-11.18-14.83-14a2.06 2.06 0 0 1 1.67-1 3.22 3.22 0 0 1 2.33 1.33c3.8 4.29 11 7 12.17 12.5.08.4.42 1.97 0 2.17zM78.38 96.13c-2.62.57-6-5.08-7.54-9.12-.79-2.12-1.35-3.61-.83-4 1.49-1.11 11.66 7.2 10.08 11.5a2.56 2.56 0 0 1-1.71 1.62zM59.49 76.49c-1.54.89-7.06-2.7-6.86-5.86a1.12 1.12 0 0 1 .36-.9c1.2-.9 5.95 1 6.82 4.18.05.17.56 2.09-.32 2.58zm43.93 28.39c-2.43-1.46-10.51-9.8-12.79-11.17a2.87 2.87 0 0 1-1-1 2.19 2.19 0 0 1-.17-2.08c.56-.82 2.18-.57 2.67-.5 6.25.95 10.44 11.59 12.67 13.13.11.08.56.37.58.79a1.23 1.23 0 0 1-1 1.08 1.34 1.34 0 0 1-.96-.25zm16.96 8c-6.87-3.49-8.11-8.35-12.37-10.87-.27-.16-.9-.51-1-1.12-.22-1.3 2-3.41 3.75-3.12 1.3.21 1.48 1.61 4.13 3.13 1.22.7 1.52.6 1.63.5.39-.35-.59-1.59-.69-3.75 0-.72-.08-1.85.5-2.19s1.63.35 2.31.81c6 4.07 7.83 4.1 9.06 6.94a6.66 6.66 0 0 1 .56 1.88c.53 3.9-2.65 8.41-5.69 8.5a4.32 4.32 0 0 1-2.19-.71zM95.33 84.67c-1.33-2.8-5.93-4.62-10-9.67-1.44-1.8-3.54-4.91-3.08-5.33 1-.89 11.65 11.34 15.67 13.92.28.18 1 .64 1 1.17-.06.7-1.58 1.41-2.58 1a2 2 0 0 1-1.01-1.09zm-5-.25c-2.66-4.48-7.14-8.21-12.75-12.83-1.49-1.22-2.07-1.41-2.25-1.25-.62.54 3.1 5.88 6.58 9.75a40 40 0 0 0 7.58 5.83c.42.27 1.32.83 1.58.58s.09-.7-.74-2.08zm40-8.09c-.93-1.25-2.77-2.6-3.83-2a1.91 1.91 0 0 0-.75 1.42c-.27 2 1.72 4.36 3.67 4.33a2.18 2.18 0 0 0 1.75-.83c.57-1.02-.51-2.48-.84-2.92zM217.17 104c-.13-2-1-5.48-2.83-12.33-.91-3.46-1.54-5.58-.33-7.17a3.91 3.91 0 0 1 4-1.5c2.27.82 1.39 4.69 4.5 6.83.15.1 2.31 1.56 3.33.83 1.64-1.17.25-7.88-3.17-13-1.69-2.54-3.23-3.69-2.83-5.33s2.78-3.12 4.83-3c4.14.24 6.58 6.56 7.33 8.5 2.46 6.36-.34 8.35 1.67 11.67 3.82 6.3 15.2 2 18.58 8.13A9.21 9.21 0 0 1 250.5 108c-2.74 2.38-5.77.11-9.62 3-2.13 1.59-1.92 2.81-5 5s-4.83 2.07-5.5 1.67c-1.5-.89-1.76 0-2.67-8.92-.33-3.25.07-4.64-1-5s-1.92.26-2.33 1.79c-.69 2.54 0 4.92-.2 7.43-1.23 15.61-6.65 2.95-8.14 1.9-1.21-.87 1.53-4.41 1.13-10.87zm26.5-32.67a2.4 2.4 0 0 0-2.83-.5c-1.16.8-1 3.29.33 4.17a2.29 2.29 0 0 0 2.67-.17 2.54 2.54 0 0 0-.17-3.5zm-124.84-9.5c-.63-.37-2.61.58-2.5 2 .08 1 1.16 1.84 1.83 1.67 1.07-.28 1.45-3.21.67-3.67zm-14.33-11c-.8-.65-2.14-1-2.67-.5s0 2.13.83 3 2.28 1.34 2.83.83.15-2.4-.99-3.33zM271.33 72c-.83 0-1.67 2-1.83 3.5-.09.9-.08 2.85.83 3.17.7.24 1.69-.55 2.17-1.33 1.21-2.01-.14-5.28-1.17-5.34zM142.5 94c-.56.64-4.66-2.63-5.67-1.67-.49.47 0 1.72.17 2.17 1.37 3.45 4.72 5.21 9.5 7.83 7.75 4.26 8.92 5.11 9.67 4.5 1.48-1.23-1-6.44-2-8.67-2.89-6.18-7.37-9.9-16.33-17.33-.47-.39-1.3-1.07-1.67-.83-.78.51.86 5 3.17 8.83 1.79 2.95 3.55 4.73 3.16 5.17z" fill="#62565a"/><path d="M47.75 200.5l115 66.33 55.8-20.93-99-42.66z" fill="url(#a)"/><path d="M251.5 216.44l-16.59-96.1-69.66-79.59 32.25 123-157.5-43 96.19 74.78z" fill="url(#b)"/><path d="M259.67 61.75l30.91 69.06-16.7 18.19-20.58-37.33z" fill="url(#c)"/><path d="M244.92 247.87l-61.28 22.5 52.63 10.38.25 9.25-96.1-16 76.08-28.17L57 181l193 33.66-27.75-161.91 51.69 94.63 23.91-26-7.85 61.36h-11.24l3.24-27.12-10.62 9.63-28.12-51.62 17.56 110.61-109.18-17.37z" fill="#fff"/><path fill="#fff" d="M65.07 234.59l131.72-131.8 19.74 19.74L64.3 274.99l.77-40.4z"/><path d="M196.79 107l15.5 15.5L67.44 267.59l.56-31.74L196.79 107m0-8.49l-4.24 4.25L63.88 231.54l-.08.08-1.71 1.71v2.42l-.3 15.87-.3 15.87-.29 14.9 10.53-10.54 144.8-145.07 4.24-4.24-4.24-4.24L201 102.79l-4.24-4.24z"/><path fill="#fff" d="M59.87 217.17h9.31v70.33h-9.31zm133.36-24.69L120 118.88l20.69-18.66 2 2.43a19.06 19.06 0 0 0 14.13 6.78c8.93 0 14.16-6.55 14.73-7.3l2.09-2.75 57.12 57.81v10.4l-25.57 24.95z"/><path d="M173.92 104l53.83 54.48v7.91L204 189.54l-9.52-.05L124.33 119l16-14.44a22.13 22.13 0 0 0 16.44 7.88h.11c10.36 0 16.37-7.62 17-8.48m-.59-9.13l-4.19 5.5c-.48.63-4.87 6.11-12.25 6.11h-.08a16 16 0 0 1-11.77-5.68l-4-4.87-4.67 4.21-8 7.22-8 7.22-4.68 4.22 4.45 4.47 35.08 35.24 35.08 35.24 1.74 1.75h14.44l1.76-1.72 15.8-15.37 7.93-7.73 1.82-1.78V156l-1.75-1.78-53.82-54.48-4.86-4.91z"/></svg>