<svg xmlns="http://www.w3.org/2000/svg" viewBox="0 0 350 350"><path d="M298.54 251.62l-9.54 8.63-23 15.08 2.66-3.28a287.33 287.33 0 01-35.6 17.31c-13.31 5.37-21.38 8.63-33.36 10.44-10.62 1.6-20.43 1.48-20.42 2.17s6.44 1 10.09 1.1a95.7 95.7 0 0015.06-.69h94.09z" fill="#fff"/><path d="M289 292.84v-32.59l-3.93 2.57-3.95 2.6q.06 10 .11 19.94l-26.83-.05c-2.16 1.34-4.49 2.71-7 4.05s-4.74 2.45-7 3.48z"/><path d="M254.41 285.31l26.83.05-.11-19.94-6.95 4.58a91.1 91.1 0 01-12 10.33 92.1 92.1 0 01-7.77 4.98z" fill="#28c1cd"/><path d="M69.5 69.5h211V129q-3-1.2-6.41-2.25a90.11 90.11 0 00-19.72-3.7l-1.15.18a84.55 84.55 0 0130.86 11.4A78.91 78.91 0 01303 150.67a73.27 73.27 0 0114.75 29.65c.09-5-.28-20.56-11.39-34.31A51 51 0 00290 132.79V60H60v111.15A99.77 99.77 0 0043.35 189c3.67-3.86 7.08-7.16 10-9.89 3.26-3 6.47-6 11-9.46a129.41 129.41 0 0111.44-7.86c-13.4 13.31-16.12 16.35-16 16.52s5-4.61 12.78-10.35A137.8 137.8 0 0192.08 156a135.06 135.06 0 0123-9.17l1.48-13.38a158.39 158.39 0 00-47.08 29.34z" fill="#fff"/><path d="M274.66 126.88c1.32.41 2.59.85 2.59.85l.93.33c1 .36 1.78.67 2.32.89V69.5h-211v93.24l9.5-7.48c.63-.57 1.56-1.4 2.71-2.38 25.21-21.5 53-26.74 78.08-31.15 0 0 38.69-6.81 90.4-.14a215.16 215.16 0 0124.47 5.29z"/><path d="M79 155.26V79h192v46.84c-1.15-.29-2.82-.68-4.85-1.1-1-.19-5.47-1.08-11.78-1.74-1.45-.15-3.42-.33-5.77-.48.32.24.68.5 1.09.75s.61.36.89.5c-.48 0-1.15-.1-1.94-.2a51.79 51.79 0 01-5.21-.89c-4-.88-81.56-9-126.86 10.72a212.78 212.78 0 00-22.84 11.86c-6.05 3.74-11.01 7.2-14.73 10z" fill="#28c1cd"/><path d="M79 155.26v-9.6a36.85 36.85 0 014.41-3.24c3.18-2 5.54-2.77 5.57-4.23 0-1.18-1.51-2.12-1.14-2.69.27-.42 1.19-.06 1.39-.42.35-.66-2.26-2.52-2-2.89.11-.18.83.09 1.74.43 1.31.49 1.41.69 2.18.9 1.27.34 2.25.14 2.27.32s-.82.28-1.67 1.07c-.26.23-.55.57-.5.62s.64-.33 2.58-1.58l.76-.48c1.63-.88 2.47-.17 3.79-.83 1-.52.81-1.1 2-1.68a6 6 0 012.19-.46c1-.16 2.44-.78 4-3a73.81 73.81 0 00-7.91-.23 43.32 43.32 0 00-10.44 1.12 33 33 0 00-9.26 4v-2.08a8.15 8.15 0 005.35-6.48 2.9 2.9 0 001.1 2.11 3.36 3.36 0 002.89-.13s9.52-3.81 11.7-4.6c6.85-2.63 13.14-.62 13.26-1.61 0-.37-.81-.73-2.23-1.34-1.71-.73-5.39-2.23-9.48-1a10.41 10.41 0 00-1.91.79 1.77 1.77 0 010-1 2.33 2.33 0 01.94-1.15c1-.63 8.47-3.35 18.84-6.83 81.94-8.47 109.9-9.75 115.37-8.4.58.14 6.85 1.78 7.61.24.34-.69-.47-1.89-.61-2.11-1.07-1.56-2.93-2-2.85-2.25s1.52.28 1.71-.07-1.42-1.55-1.29-1.75 1.37.6 3.29 1.13c1.29.36 2.09.57 2.57.15.73-.63.23-2.22.18-2.4.89.72 1.87 1.45 2.91 2.18a17.26 17.26 0 002.22 1.41 27 27 0 003.49 1.15 13.36 13.36 0 013.67 1.9c1.76 1.32 2.41 2.65 2.83 2.45.18-.08.33-.47 0-2a12.59 12.59 0 013.86.34c2 .5 3.35 1.39 5.83 1.41h.84v3.16a14.89 14.89 0 00-3.77.09 30.66 30.66 0 00-3.55 1c-3.51.93-5.06.69-5.2 1.33s1.12 1 3.19 3.14c.63.64 1.12 1.23 1.47 1.66a5.16 5.16 0 01-1.66 1.09c-2.26.88-4.65-.2-6.13-.86-.91-.41-.8-.48-2.72-1.49-1.43-.75-2.63-1.31-3.43-1.68a8.13 8.13 0 012.52.35c1.47.43 2.09 1.08 2.47.84s.46-1-.57-3.91a20.12 20.12 0 00-2.3-.66 23.28 23.28 0 00-12.62.79 15.75 15.75 0 007.4 6.89 29.77 29.77 0 004.66 1.18c0 .16-2.52.15-12.84-.51l-93.82 2.33a235.48 235.48 0 01-27.53 16.27c-8.17 4.09-16.24 7.5-27.4 14.74-4.43 2.8-7.9 5.31-10.22 7.06zM258.87 96.7a4.71 4.71 0 012.89.82c.59.43.85.9 1.21.82a1.37 1.37 0 00.49-1.83c-.29-.42-.89-.42-1.7-.41a7.76 7.76 0 00-2.89.6zM271 111.31a4.23 4.23 0 00-1-.43 4.94 4.94 0 00-2.93.1 2.07 2.07 0 00.46 1.42c.67.75 1.73.41 2.73 1.25a2.87 2.87 0 01.74.92zm-3.77 6.43a7 7 0 00-.23 2c.05 1.34.46 1.89.16 2.19-.47.47-2.43 0-2.83-1.33a2.29 2.29 0 01.49-2 2.88 2.88 0 012.41-.86zm-12.59 1.51a4.42 4.42 0 012.93.56 4.37 4.37 0 011.58 1.68c-3.29-.87-4.91-1.53-4.85-2 .01-.07.13-.16.34-.24z" fill="#0395a8"/><path d="M236.41 96.09a18.14 18.14 0 00-4.55-1.1 17.71 17.71 0 00-3.7 0h-.46c-.01 0 2.89.47 8.71 1.1z" fill="#0395a8"/><g data-name="Ebene 6"><path d="M199 244.56l-23 37.68c70.71-24.77 112.48-62.38 108.2-92.47-2.67-18.75-22.55-30-29.08-33.63C187.85 118.23 65.28 181 63.46 231.7c-.47 13.25 7.37 23.68 8.9 25.72 17.69 23.51 56.8 23.07 81 16.12 21.03-6.04 36.02-18.54 45.64-28.98z" fill="#28c1cd"/><path d="M178.19 259.73a130.87 130.87 0 01-44.05 8.37c-18.29.21-27.53-3.79-31.45-5.74a55.22 55.22 0 01-10.15-6.52 67.92 67.92 0 0012.76 5.43c10.32 3.2 19.12 3.29 19.15 3s-7.43-.45-17.47-4c-5-1.75-9.82-3.49-15-7.57C88.66 250.2 82 245 80 236.2a24 24 0 01-.55-6.67 33.94 33.94 0 004.9 13.35c6.43 10 16.78 13.73 25 16.65a60 60 0 0016 3.39c5.6.4 10.64-.06 10.65-.36s-6.74-.1-16-1.94c-7.54-1.5-13.08-3.65-13-3.8s4.85 1.41 12.08 2.48c2.79.41 5.12.63 6.76.75.12 0-3.47-.64-6.46-1.25-5.92-1.21-17.94-3.67-27.23-12.13-3.15-2.87-5-5.5-5.08-5.41s2.9 4.56 7.71 8.58a34.74 34.74 0 004.75 3.36 32.8 32.8 0 01-14.11-11.28 27.76 27.76 0 01-4.61-15.49 26.85 26.85 0 013.66-13c0 .73.1 1.82.06 3.13-.1 3.41-.69 4.05-1.15 7.65a24.88 24.88 0 00.47 10.25c0 .05.06.19.12.4a24.49 24.49 0 003.1 6.39 21.54 21.54 0 01-2-4.64 25.52 25.52 0 01-.81-4.17c-.34-3.37.48-11.91 2.82-23.1a211.32 211.32 0 0138.37-23.14c48.06-22.36 92.65-20.76 109.29-20 4.38.21 7.94.49 10.19.69a3.21 3.21 0 00-1.39 2.48c.13 1.13 1.43 1.81 2.28 2.27a72.71 72.71 0 019.59 6.43 26 26 0 014.15 4.35c2.5 3.05 8.51 10.37 8.61 19.29.05 5-1.83 5.31-3.12 12.85a50.09 50.09 0 00-.24 15.14l2.17-1.39a47.16 47.16 0 01.3-14.83c1.32-7.24 3.1-7 3.36-11.18.9-14.39-19.91-28.9-22.55-30.46-.41-.24-2.76-1.58-2.57-2.08.06-.16.36-.19.54-.2a45.25 45.25 0 0112 6.73 46 46 0 0113.6 17.6 32.1 32.1 0 01.69 7.62c-.14 4.8-1.34 7.62-2.17 11.37a43.81 43.81 0 00-.7 14.24l27.5-16.61c.41-8.75.09-29-13.25-46.49-17-22.2-43.87-25.29-61.32-27.29-50-5.75-88.67 17.89-111.17 31.65-28.4 17.36-59.71 36.51-59.34 64.68.23 17.53 12.64 31.31 21.17 39a213.18 213.18 0 0047.14 5.64 114.61 114.61 0 0022.79-1.79 104.41 104.41 0 0026.12-8.67z" fill="#0395a8"/></g><g fill="#fff"><path d="M86.28 281.77c-.39.12-.74.53-.66.82s.92.53 1.51.36c.18-.05.51-.14.55-.35s-.68-1.03-1.4-.83zm31.8-2.11a1.34 1.34 0 01.37 1.09c-.17.75-1.21.9-1.33.92a2.3 2.3 0 01-1.86-.69c1.24.14 1.69-.1 1.86-.37s.11-.56.4-.78a.93.93 0 01.56-.17zm.52 1.82a.89.89 0 001.27-.07.86.86 0 00-.05-1.06l-.33.27c-.29.22-.4.27-.56.42a2.06 2.06 0 00-.33.44zM76 278.89c-.17-.08-.65.34-.58.56a.4.4 0 00.51.11.46.46 0 00.07-.67zm-36.32-34.13a3.54 3.54 0 00-.58 1.83 3.49 3.49 0 00.56 2 13.62 13.62 0 01.34-1.39c.22-.7.43-1.14.21-1.45-.09-.13-.18-.14-.33-.35a1.46 1.46 0 01-.2-.64zm.14 4.05a.73.73 0 000 .42.8.8 0 00.44.41 1.67 1.67 0 00-.18-.45 1.86 1.86 0 00-.26-.38z"/><path d="M285.69 154.56c-4.53-4.41-17.68-16.07-44.31-22-54.93-12.15-104.63 14.11-134.07 29.67-11.46 6.06-18.45 11.2-32.11 21.24a104.59 104.59 0 00-22.5 22.2c-1.68 2.19-3 4.07-3.9 5.4 1.28.47 1.5.75 1.47.91-.06.53-2.57 0-4.18 1.52-.67.62-.29.78-1.3 2.64-1.52 2.81-2.72 3.06-2.81 4.74 0 .54.05 1.23-.38 1.51s-1.2-.14-1.33.08.55.59.86 1.48c.17.45.3 1.22 0 1.47s-.73-.17-1 0c-.63.43.92 3.07.15 3.77-.4.37-1-.14-1.39.21-.69.71 1.32 3.41.69 4-.28.26-.85-.1-1 .13s1 1 1.36 2.32c.11.42 0 .49-.11 2-.18 2-.26 3 .06 3.44.55.79 1.46.62 1.76 1.48.15.43.1 1-.12 1.07-.42.18-1.27-1.28-1.59-1.11s-.07.83.15 1.43c.43 1.16 1 1.29 1.51 2.25.75 1.36.74 3.1.17 3.41-.29.16-.64-.11-.79.08s.09 1 .62 1.24 1.05-.15 1.41.17a1.13 1.13 0 01.07 1.31c-.25.38-.69.43-.66.56s1-.05 1.56.44c.36.3.24.55.59 1.24s.59.64 1.41 1.69.71 1.24 1.23 1.53.83.08 1.24.37c.6.43.33 1.15.72 2.42.16.56.69 2.31 1.89 2.7.72.24 1.33-.12 1.72.32s.08.58.37 1 .73.29 1.18.62.35.92 1 2.62c.41 1.05.7 1.35 1 1.5a1.68 1.68 0 001 .09 7.66 7.66 0 013.85.71c.84.43 1.55 1.12 1.45 1.31s-1.28-.11-2.09-.35c-1.21-.36-1.75-.65-1.86-.5s.24.67.69 1 .66.17 1.27.45.52.46 1 .69.91.06 2 .22c.8.12 1.56.41 1.54.53s-1.68-.05-1.71.13.78.46 1.65.58.91-.06 1.32.1c.74.3.68 1 1.4 1.71a5.24 5.24 0 002.37 1 10.59 10.59 0 002.8.5c.85 0 1.55-.08 1.63.16s-.7.59-.61.92.91.54 1.33.22.15-1.31.61-1.52a.65.65 0 01.61.13 1.21 1.21 0 01.12 1.34c-.21.46-.59.57-.54.71s.93.27 1.26-.14 0-.91.19-1 .35.58 1 .94 1.2.37 1.41.1-.08-.66 0-.72.46.2.57.57-.14.69 0 .79 1.33-.8 1.55-.61.06.35-.43 1.22a4.09 4.09 0 001.13.55 2.43 2.43 0 001.55.14c.78-.3.7-1.17 1.81-1.76a2.67 2.67 0 01.46-.2 5.65 5.65 0 011.92-.37 17.6 17.6 0 00-.85 1.63c-.09.21-.18.41-.26.61a1.82 1.82 0 001.58 0c.42-.26.33-.63.79-1.11.66-.71 1.86-1 2.24-.61a.66.66 0 01.13.54l-1.43.71-.89.83a2.15 2.15 0 00.74 1.76 2 2 0 003.16-.8 1.54 1.54 0 01-1.88-.13.85.85 0 01-.14-.55 4.34 4.34 0 001.68-.75 3.32 3.32 0 011.33-.79c.52-.12.69 0 .73.06a.64.64 0 01.12.53c0 .92-.48 1.17-.38 1.54s1.24.79 2.08.64c.67-.12.68-.42 1.21-.4s.81.41 1.63.6a3.69 3.69 0 00.92.07l-.42-3.49a3.44 3.44 0 012.2-.14c.46.13 1 .42 1 .64s-.54.14-.82.52a1.12 1.12 0 000 1.16 1.45 1.45 0 002 .25c.18-.17.1-.27.27-.47.45-.52 1.18-.16 1.83-.57.47-.3.38-.67.75-1.1.65-.75 1.9-.68 2.91-.61 1.94.14 3.85.29 5.86.47a6.29 6.29 0 00-.37-.62 6.22 6.22 0 00-.52-.64c3.47 0 7.08-.06 10.81-.27 1.14-.06 2.27-.14 3.38-.22a2.41 2.41 0 01-.86-.92 2 2 0 01-.17-.41 85.56 85.56 0 0028.35-5.88 115.4 115.4 0 01-38.84 1.78c-14.79-1.88-31.48-4-42.13-17.34a38.18 38.18 0 01-8.16-19.69c-1.61-16.36 8.89-28.8 14.49-35.44 4.8-5.68 13.53-14.39 39.43-26.24 16.92-7.69 43.92-19.74 81.62-22.23 28.83-1.91 40.79 3.29 44.31 4.94 6.22 2.91 24.5 11.47 29.06 29.94 3.78 15.28-4 28.75-7.6 35-5.92 10.29-13.37 16.13-21.52 22.52-7.47 5.84-14.49 9.58-28.52 17-10.35 5.51-18.32 9.74-30 14.34a204.34 204.34 0 01-26.57 8.7c-14 3.52-24 4.35-23.92 5.15s9.35.54 15.81.19a182.82 182.82 0 0034-4.48c20.25-4.73 33.62-11.73 33.75-11.41s-9.82 5.12-22.87 9.71c-10.27 3.62-17.77 5.44-17.73 5.59s13.08-2.14 27.75-7c26.42-8.72 44.45-20.93 55.18-28.32 13.29-9.14 19.94-15.67 24.47-20.74a114.43 114.43 0 0010.12-13.11 294.55 294.55 0 01-9.71 10.71c-1.59 1.67-5.46 5.74-5.69 5.54s11.09-10.27 17.41-26.26c1.51-3.83 3.64-9.22 4-15.84 1.01-19.65-14.63-34.84-19.74-39.8zM54.56 205.94a35.42 35.42 0 00-1.83 3.31c-1 .7-1.84 1.19-2 1-.38-.39 2.13-3.42 2.77-4.2a47.65 47.65 0 014.8-5 35.44 35.44 0 00-3.74 4.89zm70 71.52q.8.07 1.56.18a30.93 30.93 0 01-3.51.08c-.59 0-1.65-.08-3-.25l-1.44-.22a46.5 46.5 0 016.42.21z"/><path d="M121.65 279.67a1.31 1.31 0 00.51.54 1.52 1.52 0 001.4 0 2.11 2.11 0 00-1.24-.58 1.89 1.89 0 00-.67.04zm7.6-5.67c.93-1 1.61-1.15 2.07-1.08.8.12 1.27.95 2 .76.27-.07.22-.19.61-.38.79-.4 1.28 0 2.19-.22a4.68 4.68 0 001.38-.71c0 .05-.24.4-1.65 1.74zm13.48-.24c.38-.2.78-.48.79-.84s-.71-.78-.62-1 1.08-.41 1.69.08a1.7 1.7 0 01.42 1.85zm-2.42.24c-.49-.12-1.34-.43-1.31-.69s.93-.54 1.68-.29a2.07 2.07 0 011.16 1 3.85 3.85 0 01-1.53-.02z"/><path d="M144.94 271.85a.42.42 0 00-.09.45c.22.46 1.73.31 1.78.05s-1.29-.89-1.69-.5zm6.28.83a3.28 3.28 0 002.21 1c.73 0 1.62-.2 1.61-.4s-.74-.4-3.82-.6z"/></g><path d="M272 185.05l-4.35 13.55a18.13 18.13 0 01.31-2.68 19.4 19.4 0 011.62-4.84c.84-1.77 1.79-5 2.23-11.3a35.18 35.18 0 00-6.23-10.12c-2.09 1.47-5.12 3.64-8.71 6.39-5.63 4.32-10 8-10.63 7.41-.31-.29.61-1.35 1.4-4a19.82 19.82 0 00.79-4.22l.27-28.88-1.89-7.7q-1.88-5.83-3.81-11.66l3.63-13.53-18.93-19.86a34.77 34.77 0 00-5.21-1.06c-4.79-.61-7.28.1-7.66.25a4.57 4.57 0 01-.64.19c-.71.19-.89.15-1 .1a.85.85 0 01-.45-.49q-3.06-.6-6.38-1.09c-3.29-.49-6.44-.84-9.44-1.09.19.19.3.39.25.5s-.38.13-.75 0l-1.83-9.1a16.39 16.39 0 001.34-1.58c.53-.71.84-1.26 1-1.19s0 1.27.25 1.39.88-.62 1.28-1.39c.64-1.22.37-1.87.93-3a6.59 6.59 0 011.2-1.6c.93-1.09 1.21-2.23 1.91-6.33.42-2.45.73-4.49 1-6q-2.89-2.94-5.77-5.9c-.23-3.06-.47-6.13-.7-9.19l-12.71-11.55a36.3 36.3 0 00-18.59 0l-11.08 10.68c-.4 2.81-.79 5.61-1.19 8.41-.72.79-1.48 1.6-2.27 2.41a90.958 90.958 0 01-3.52 3.39c1.31 3.35 2.82 6.87 4.57 10.52 1.38 2.87 2.79 5.58 4.19 8.11-.33 2-.72 4.17-1.19 6.36q-.56 2.65-1.19 5.11a257.446 257.446 0 01-33.26 3.14l-18.14 19.66 4.84 13.65a56 56 0 00-6.35 20.08q-.09 9.92-.19 19.83a21.21 21.21 0 01-.2 6.78 20.85 20.85 0 01-1.75 5.18l-15.56-11.62c-5.62 7.44-6.42 13.07-6 16.91.08.83.81 4 2.27 10.24.76 3.27 1.42 6.57 2.18 9.84a31.31 31.31 0 011 5.48c.15 2.23-.11 2.65.14 4.76a34.06 34.06 0 001.16 5.21c.34 1.26.79 2.85 1.38 4.68a31.16 31.16 0 019.46 5.6c.36.33 1.68 1.54 3.59 3.07s4.24 3.24 4.38 3.07-.18-.31-1-1.21c-2.86-3.2-2.94-3.39-2.91-3.41a9.11 9.11 0 011.18.91 27.91 27.91 0 003.54 2.38 16.77 16.77 0 002.45 1.08c1.85.71 3.34 1.66 7.56 4.63 5 3.51 7.51 5.27 7.4 5.44-.28.47-11.57-5.95-11.67-5.77s6.78 4.13 6.7 4.28-.79-.34-.82-.29a43.45 43.45 0 003.78 2.34c1.46.86 3.47 2.05 5.88 3.52a2.2 2.2 0 00.11.59 2.08 2.08 0 00.22.47c4.42 2 8 3.49 10.57 4.52a42.53 42.53 0 015.87 2.63c2.66 1.52 3.93 2.75 7 5.34 4.65 3.89 9.31 7.4 9.43 7.26a74.87 74.87 0 00-5.6-5.18c-5.77-5.05-9.32-7.68-9.27-7.75s10.31 6.85 21.87 16.92c3.89 3.39 7.06 6.37 9.32 8.55 3-2.62 5.32-4.81 6.94-6.33a75 75 0 016.58-5.93c1.49-1.11 1.51-1 6.85-4.31 4-2.51 6-3.77 7.8-5 3.43-2.47 5.14-3.7 5.92-4.45 1.26-1.21 2.9-1.94 4.25-3 .27-.21 1.11-.91 1.81-.66.33.12.4.36.66.4.57.09 1-.95 1.65-1.78a8 8 0 012.46-1.79c3.15-1.85 9.77-4.28 14.36-6.91 6.11-3.51 7.69-6.84 11.74-7.93a24.79 24.79 0 004.74-1.93c.21-.11 2.72-1.43 2.57-1.81s-3.22.56-3.3.29 1.08-.66 1.75-1c2.94-1.41 3.72-2.75 6.36-4.68a27.56 27.56 0 015.57-3.14 5.92 5.92 0 00.46-1.19 6.76 6.76 0 00.15-.79q1-3.21 1.17-3.18t-1.1 6.03l-8.13 5.88 9.3-5.78c.35-2.3.61-4 .71-5.15a5.33 5.33 0 01.5-1.88 4.52 4.52 0 01.57-.92l1.18-1.65v-12.46a34.4 34.4 0 013.08-9.82 9.43 9.43 0 00.85-7.36zm-188.11-15c-.15.34-.39.84-.69 1.43-.65 1.29-1.17 2.21-1.53 2.85-.54.94-1.31 2.32-2.33 4.17a46.1 46.1 0 013.22-7.39c.36-.67.74-1.31 1.11-1.93a5.35 5.35 0 013.19 2.68zm107.9-126.6l4.51 4.41c.23 3.42.34 4.9.4 5.51v.52a5.2 5.2 0 01-.08 1.69c-.11 0-.36-.79-.94-3.56l-.09-4.02c-.34-.41-.69-.81-1-1.21q-1.44-1.7-2.8-3.34z" fill="#fff"/><path d="M105.78 125.83a62.64 62.64 0 01-3.34-8c-.72-2-1.27-3.6-1.64-4.75.4-.47.91-1.08 1.51-1.77 6.55-7.53 12.56-12.73 12.68-12.6s-4.47 4.38-11.42 12.51c-.66.76-1.21 1.42-1.65 1.94.27 1 .66 2.31 1.15 3.93 1.73 5.79 2.83 8.69 2.71 8.74zm10.36-29.09c.67-.73 1.36-1.46 2.08-2.2.9-.92 1.79-1.8 2.67-2.65h15.59c-2.79.3-5.78.53-8.93.64-2.27.08-4.45.09-6.53 0-.91.91-1.94 1.85-3.09 2.8-.6.51-1.2.98-1.79 1.41zm27.37-5.54c1.55-.27 3.19-.6 4.91-1 1.39-.34 2.71-.71 4-1.09a18.92 18.92 0 001.85-8 18 18 0 00-.1-2 4.6 4.6 0 011.06 2c.38 1.63-.43 2.78-1.13 5.54a24.71 24.71 0 00-.56 3c-1.42.3-2.92.58-4.48.83-1.97.33-3.81.52-5.55.72z" fill="#fff"/><path d="M263.74 176.52q-24.88 17.6-49.75 35.21 10.94-11.32 21.89-22.64a22.46 22.46 0 006.72-9.64 22 22 0 001.26-7v-28.67l-6.43-17 3.95-12.2-16.12-15.5q-6-.22-12.41-.74c-7.63-.65-14.81-1.59-21.48-2.72l-2.79-16.93 7.9-16.21-4.94-5c-.36-3.07-.73-6.13-1.09-9.2q-1.8-1.93-3.79-3.92c-1.63-1.62-3.24-3.15-4.81-4.58a34.58 34.58 0 00-13.85 0c-1.18.94-2.41 2-3.66 3.16a57.31 57.31 0 00-5.24 5.64l-1.53 9.08-4.7 3.78q4.22 8.84 8.44 17.67l-3.1 15.75a126.32 126.32 0 01-21.16 3.63 127.52 127.52 0 01-13.65.43l-15.09 16q1.88 5.79 3.74 11.57-3.35 8.61-6.7 17.21v31.6a13.8 13.8 0 00.21 1.57c.57 3 2 5.24 5.44 9.34 1.62 1.92 3.71 4.27 6.26 6.86l18.66 19.25L85.78 177l-2.35 3.74 8.91 38.66Q119 235.79 146 253.12q5.94 3.81 11.82 7.63L175 276.93 193.68 259l63.83-40 8.5-38.47zm-115.22 19.71c-.73.18-2.06-.23-9.1-11.34-3.39-5.36-6-9.87-7.72-12.92 1.06-5.29 1.83-9.77 2.38-13.16 1.89-11.76 1.82-15.12 1.78-16.41-.06-1.75-.37-4.59-1-10.29-.42-3.87-.81-7.07-1.09-9.3 3.48 9 6.33 16.11 8.21 20.77 4.08 10.15 5.44 13.25 6.72 18.89a80.81 80.81 0 012 16.72c.16 6.61.44 16.38-2.18 17.04zm52.51 0c-2.63-.66-2.35-10.43-2.15-17a80 80 0 012-16.72c1.29-5.64 2.64-8.74 6.72-18.89 1.88-4.66 4.73-11.8 8.21-20.77-.28 2.23-.67 5.43-1.09 9.3-.61 5.7-.92 8.54-1 10.29-.05 1.29-.12 4.65 1.78 16.41.54 3.39 1.31 7.87 2.37 13.16-1.72 3.05-4.32 7.56-7.71 12.92-7.07 11.07-8.41 11.48-9.16 11.3z"/></svg>